G04 #@! TF.GenerationSoftware,KiCad,Pcbnew,5.1.5-52549c5~86~ubuntu18.04.1*
G04 #@! TF.CreationDate,2020-05-19T13:26:31+09:00*
G04 #@! TF.ProjectId,rpmpv1,72706d70-7631-42e6-9b69-6361645f7063,rev?*
G04 #@! TF.SameCoordinates,Original*
G04 #@! TF.FileFunction,Copper,L2,Bot*
G04 #@! TF.FilePolarity,Positive*
%FSLAX46Y46*%
G04 Gerber Fmt 4.6, Leading zero omitted, Abs format (unit mm)*
G04 Created by KiCad (PCBNEW 5.1.5-52549c5~86~ubuntu18.04.1) date 2020-05-19 13:26:31*
%MOMM*%
%LPD*%
G04 APERTURE LIST*
%ADD10R,0.600000X1.950000*%
%ADD11R,0.600000X2.000000*%
%ADD12R,1.800000X8.000000*%
%ADD13C,0.100000*%
%ADD14R,1.700000X1.700000*%
%ADD15O,1.700000X1.700000*%
%ADD16C,0.600000*%
%ADD17C,0.250000*%
%ADD18C,0.400000*%
%ADD19C,0.254000*%
G04 APERTURE END LIST*
D10*
X174879000Y-98871500D03*
X173609000Y-98871500D03*
X172339000Y-98871500D03*
X171069000Y-98871500D03*
X169799000Y-98871500D03*
X168529000Y-98871500D03*
X167259000Y-98871500D03*
X165989000Y-98871500D03*
X164719000Y-98871500D03*
X163449000Y-98871500D03*
X163449000Y-89471500D03*
X164719000Y-89471500D03*
X165989000Y-89471500D03*
X167259000Y-89471500D03*
X168529000Y-89471500D03*
X169799000Y-89471500D03*
X171069000Y-89471500D03*
X172339000Y-89471500D03*
X173609000Y-89471500D03*
X174879000Y-89471500D03*
D11*
X152083000Y-98869500D03*
X150813000Y-98869500D03*
X149543000Y-98869500D03*
X148273000Y-98869500D03*
X147003000Y-98869500D03*
X145733000Y-98869500D03*
X144463000Y-98869500D03*
X143193000Y-98869500D03*
X141923000Y-98869500D03*
X140653000Y-98869500D03*
X139383000Y-98869500D03*
X138113000Y-98869500D03*
X138113000Y-89469500D03*
X139383000Y-89469500D03*
X140653000Y-89469500D03*
X141923000Y-89469500D03*
X143193000Y-89469500D03*
X144463000Y-89469500D03*
X145733000Y-89469500D03*
X147003000Y-89469500D03*
X148273000Y-89469500D03*
X149543000Y-89469500D03*
X150813000Y-89469500D03*
X152083000Y-89469500D03*
D12*
X187972840Y-109799440D03*
X185432840Y-109799440D03*
X182892840Y-109799440D03*
X180352840Y-109799440D03*
X177812840Y-109799440D03*
X175272840Y-109799440D03*
X172732840Y-109799440D03*
X170192840Y-109799440D03*
X167652840Y-109799440D03*
X165112840Y-109799440D03*
X162572840Y-109799440D03*
X160032840Y-109799440D03*
X157492840Y-109799440D03*
X154952840Y-109799440D03*
X152412840Y-109799440D03*
X149872840Y-109799440D03*
X147332840Y-109799440D03*
X144792840Y-109799440D03*
X142252840Y-109799440D03*
X139712840Y-109799440D03*
X137172840Y-109799440D03*
X134632840Y-109799440D03*
X132092840Y-109799440D03*
X129552840Y-109799440D03*
X127012840Y-109799440D03*
G04 #@! TA.AperFunction,SMDPad,CuDef*
D13*
G36*
X117931691Y-101316053D02*
G01*
X117952926Y-101319203D01*
X117973750Y-101324419D01*
X117993962Y-101331651D01*
X118013368Y-101340830D01*
X118031781Y-101351866D01*
X118049024Y-101364654D01*
X118064930Y-101379070D01*
X118079346Y-101394976D01*
X118092134Y-101412219D01*
X118103170Y-101430632D01*
X118112349Y-101450038D01*
X118119581Y-101470250D01*
X118124797Y-101491074D01*
X118127947Y-101512309D01*
X118129000Y-101533750D01*
X118129000Y-102046250D01*
X118127947Y-102067691D01*
X118124797Y-102088926D01*
X118119581Y-102109750D01*
X118112349Y-102129962D01*
X118103170Y-102149368D01*
X118092134Y-102167781D01*
X118079346Y-102185024D01*
X118064930Y-102200930D01*
X118049024Y-102215346D01*
X118031781Y-102228134D01*
X118013368Y-102239170D01*
X117993962Y-102248349D01*
X117973750Y-102255581D01*
X117952926Y-102260797D01*
X117931691Y-102263947D01*
X117910250Y-102265000D01*
X117472750Y-102265000D01*
X117451309Y-102263947D01*
X117430074Y-102260797D01*
X117409250Y-102255581D01*
X117389038Y-102248349D01*
X117369632Y-102239170D01*
X117351219Y-102228134D01*
X117333976Y-102215346D01*
X117318070Y-102200930D01*
X117303654Y-102185024D01*
X117290866Y-102167781D01*
X117279830Y-102149368D01*
X117270651Y-102129962D01*
X117263419Y-102109750D01*
X117258203Y-102088926D01*
X117255053Y-102067691D01*
X117254000Y-102046250D01*
X117254000Y-101533750D01*
X117255053Y-101512309D01*
X117258203Y-101491074D01*
X117263419Y-101470250D01*
X117270651Y-101450038D01*
X117279830Y-101430632D01*
X117290866Y-101412219D01*
X117303654Y-101394976D01*
X117318070Y-101379070D01*
X117333976Y-101364654D01*
X117351219Y-101351866D01*
X117369632Y-101340830D01*
X117389038Y-101331651D01*
X117409250Y-101324419D01*
X117430074Y-101319203D01*
X117451309Y-101316053D01*
X117472750Y-101315000D01*
X117910250Y-101315000D01*
X117931691Y-101316053D01*
G37*
G04 #@! TD.AperFunction*
G04 #@! TA.AperFunction,SMDPad,CuDef*
G36*
X116356691Y-101316053D02*
G01*
X116377926Y-101319203D01*
X116398750Y-101324419D01*
X116418962Y-101331651D01*
X116438368Y-101340830D01*
X116456781Y-101351866D01*
X116474024Y-101364654D01*
X116489930Y-101379070D01*
X116504346Y-101394976D01*
X116517134Y-101412219D01*
X116528170Y-101430632D01*
X116537349Y-101450038D01*
X116544581Y-101470250D01*
X116549797Y-101491074D01*
X116552947Y-101512309D01*
X116554000Y-101533750D01*
X116554000Y-102046250D01*
X116552947Y-102067691D01*
X116549797Y-102088926D01*
X116544581Y-102109750D01*
X116537349Y-102129962D01*
X116528170Y-102149368D01*
X116517134Y-102167781D01*
X116504346Y-102185024D01*
X116489930Y-102200930D01*
X116474024Y-102215346D01*
X116456781Y-102228134D01*
X116438368Y-102239170D01*
X116418962Y-102248349D01*
X116398750Y-102255581D01*
X116377926Y-102260797D01*
X116356691Y-102263947D01*
X116335250Y-102265000D01*
X115897750Y-102265000D01*
X115876309Y-102263947D01*
X115855074Y-102260797D01*
X115834250Y-102255581D01*
X115814038Y-102248349D01*
X115794632Y-102239170D01*
X115776219Y-102228134D01*
X115758976Y-102215346D01*
X115743070Y-102200930D01*
X115728654Y-102185024D01*
X115715866Y-102167781D01*
X115704830Y-102149368D01*
X115695651Y-102129962D01*
X115688419Y-102109750D01*
X115683203Y-102088926D01*
X115680053Y-102067691D01*
X115679000Y-102046250D01*
X115679000Y-101533750D01*
X115680053Y-101512309D01*
X115683203Y-101491074D01*
X115688419Y-101470250D01*
X115695651Y-101450038D01*
X115704830Y-101430632D01*
X115715866Y-101412219D01*
X115728654Y-101394976D01*
X115743070Y-101379070D01*
X115758976Y-101364654D01*
X115776219Y-101351866D01*
X115794632Y-101340830D01*
X115814038Y-101331651D01*
X115834250Y-101324419D01*
X115855074Y-101319203D01*
X115876309Y-101316053D01*
X115897750Y-101315000D01*
X116335250Y-101315000D01*
X116356691Y-101316053D01*
G37*
G04 #@! TD.AperFunction*
G04 #@! TA.AperFunction,SMDPad,CuDef*
G36*
X112271691Y-52866053D02*
G01*
X112292926Y-52869203D01*
X112313750Y-52874419D01*
X112333962Y-52881651D01*
X112353368Y-52890830D01*
X112371781Y-52901866D01*
X112389024Y-52914654D01*
X112404930Y-52929070D01*
X112419346Y-52944976D01*
X112432134Y-52962219D01*
X112443170Y-52980632D01*
X112452349Y-53000038D01*
X112459581Y-53020250D01*
X112464797Y-53041074D01*
X112467947Y-53062309D01*
X112469000Y-53083750D01*
X112469000Y-53596250D01*
X112467947Y-53617691D01*
X112464797Y-53638926D01*
X112459581Y-53659750D01*
X112452349Y-53679962D01*
X112443170Y-53699368D01*
X112432134Y-53717781D01*
X112419346Y-53735024D01*
X112404930Y-53750930D01*
X112389024Y-53765346D01*
X112371781Y-53778134D01*
X112353368Y-53789170D01*
X112333962Y-53798349D01*
X112313750Y-53805581D01*
X112292926Y-53810797D01*
X112271691Y-53813947D01*
X112250250Y-53815000D01*
X111812750Y-53815000D01*
X111791309Y-53813947D01*
X111770074Y-53810797D01*
X111749250Y-53805581D01*
X111729038Y-53798349D01*
X111709632Y-53789170D01*
X111691219Y-53778134D01*
X111673976Y-53765346D01*
X111658070Y-53750930D01*
X111643654Y-53735024D01*
X111630866Y-53717781D01*
X111619830Y-53699368D01*
X111610651Y-53679962D01*
X111603419Y-53659750D01*
X111598203Y-53638926D01*
X111595053Y-53617691D01*
X111594000Y-53596250D01*
X111594000Y-53083750D01*
X111595053Y-53062309D01*
X111598203Y-53041074D01*
X111603419Y-53020250D01*
X111610651Y-53000038D01*
X111619830Y-52980632D01*
X111630866Y-52962219D01*
X111643654Y-52944976D01*
X111658070Y-52929070D01*
X111673976Y-52914654D01*
X111691219Y-52901866D01*
X111709632Y-52890830D01*
X111729038Y-52881651D01*
X111749250Y-52874419D01*
X111770074Y-52869203D01*
X111791309Y-52866053D01*
X111812750Y-52865000D01*
X112250250Y-52865000D01*
X112271691Y-52866053D01*
G37*
G04 #@! TD.AperFunction*
G04 #@! TA.AperFunction,SMDPad,CuDef*
G36*
X113846691Y-52866053D02*
G01*
X113867926Y-52869203D01*
X113888750Y-52874419D01*
X113908962Y-52881651D01*
X113928368Y-52890830D01*
X113946781Y-52901866D01*
X113964024Y-52914654D01*
X113979930Y-52929070D01*
X113994346Y-52944976D01*
X114007134Y-52962219D01*
X114018170Y-52980632D01*
X114027349Y-53000038D01*
X114034581Y-53020250D01*
X114039797Y-53041074D01*
X114042947Y-53062309D01*
X114044000Y-53083750D01*
X114044000Y-53596250D01*
X114042947Y-53617691D01*
X114039797Y-53638926D01*
X114034581Y-53659750D01*
X114027349Y-53679962D01*
X114018170Y-53699368D01*
X114007134Y-53717781D01*
X113994346Y-53735024D01*
X113979930Y-53750930D01*
X113964024Y-53765346D01*
X113946781Y-53778134D01*
X113928368Y-53789170D01*
X113908962Y-53798349D01*
X113888750Y-53805581D01*
X113867926Y-53810797D01*
X113846691Y-53813947D01*
X113825250Y-53815000D01*
X113387750Y-53815000D01*
X113366309Y-53813947D01*
X113345074Y-53810797D01*
X113324250Y-53805581D01*
X113304038Y-53798349D01*
X113284632Y-53789170D01*
X113266219Y-53778134D01*
X113248976Y-53765346D01*
X113233070Y-53750930D01*
X113218654Y-53735024D01*
X113205866Y-53717781D01*
X113194830Y-53699368D01*
X113185651Y-53679962D01*
X113178419Y-53659750D01*
X113173203Y-53638926D01*
X113170053Y-53617691D01*
X113169000Y-53596250D01*
X113169000Y-53083750D01*
X113170053Y-53062309D01*
X113173203Y-53041074D01*
X113178419Y-53020250D01*
X113185651Y-53000038D01*
X113194830Y-52980632D01*
X113205866Y-52962219D01*
X113218654Y-52944976D01*
X113233070Y-52929070D01*
X113248976Y-52914654D01*
X113266219Y-52901866D01*
X113284632Y-52890830D01*
X113304038Y-52881651D01*
X113324250Y-52874419D01*
X113345074Y-52869203D01*
X113366309Y-52866053D01*
X113387750Y-52865000D01*
X113825250Y-52865000D01*
X113846691Y-52866053D01*
G37*
G04 #@! TD.AperFunction*
G04 #@! TA.AperFunction,SMDPad,CuDef*
G36*
X113887691Y-54517053D02*
G01*
X113908926Y-54520203D01*
X113929750Y-54525419D01*
X113949962Y-54532651D01*
X113969368Y-54541830D01*
X113987781Y-54552866D01*
X114005024Y-54565654D01*
X114020930Y-54580070D01*
X114035346Y-54595976D01*
X114048134Y-54613219D01*
X114059170Y-54631632D01*
X114068349Y-54651038D01*
X114075581Y-54671250D01*
X114080797Y-54692074D01*
X114083947Y-54713309D01*
X114085000Y-54734750D01*
X114085000Y-55247250D01*
X114083947Y-55268691D01*
X114080797Y-55289926D01*
X114075581Y-55310750D01*
X114068349Y-55330962D01*
X114059170Y-55350368D01*
X114048134Y-55368781D01*
X114035346Y-55386024D01*
X114020930Y-55401930D01*
X114005024Y-55416346D01*
X113987781Y-55429134D01*
X113969368Y-55440170D01*
X113949962Y-55449349D01*
X113929750Y-55456581D01*
X113908926Y-55461797D01*
X113887691Y-55464947D01*
X113866250Y-55466000D01*
X113428750Y-55466000D01*
X113407309Y-55464947D01*
X113386074Y-55461797D01*
X113365250Y-55456581D01*
X113345038Y-55449349D01*
X113325632Y-55440170D01*
X113307219Y-55429134D01*
X113289976Y-55416346D01*
X113274070Y-55401930D01*
X113259654Y-55386024D01*
X113246866Y-55368781D01*
X113235830Y-55350368D01*
X113226651Y-55330962D01*
X113219419Y-55310750D01*
X113214203Y-55289926D01*
X113211053Y-55268691D01*
X113210000Y-55247250D01*
X113210000Y-54734750D01*
X113211053Y-54713309D01*
X113214203Y-54692074D01*
X113219419Y-54671250D01*
X113226651Y-54651038D01*
X113235830Y-54631632D01*
X113246866Y-54613219D01*
X113259654Y-54595976D01*
X113274070Y-54580070D01*
X113289976Y-54565654D01*
X113307219Y-54552866D01*
X113325632Y-54541830D01*
X113345038Y-54532651D01*
X113365250Y-54525419D01*
X113386074Y-54520203D01*
X113407309Y-54517053D01*
X113428750Y-54516000D01*
X113866250Y-54516000D01*
X113887691Y-54517053D01*
G37*
G04 #@! TD.AperFunction*
G04 #@! TA.AperFunction,SMDPad,CuDef*
G36*
X112312691Y-54517053D02*
G01*
X112333926Y-54520203D01*
X112354750Y-54525419D01*
X112374962Y-54532651D01*
X112394368Y-54541830D01*
X112412781Y-54552866D01*
X112430024Y-54565654D01*
X112445930Y-54580070D01*
X112460346Y-54595976D01*
X112473134Y-54613219D01*
X112484170Y-54631632D01*
X112493349Y-54651038D01*
X112500581Y-54671250D01*
X112505797Y-54692074D01*
X112508947Y-54713309D01*
X112510000Y-54734750D01*
X112510000Y-55247250D01*
X112508947Y-55268691D01*
X112505797Y-55289926D01*
X112500581Y-55310750D01*
X112493349Y-55330962D01*
X112484170Y-55350368D01*
X112473134Y-55368781D01*
X112460346Y-55386024D01*
X112445930Y-55401930D01*
X112430024Y-55416346D01*
X112412781Y-55429134D01*
X112394368Y-55440170D01*
X112374962Y-55449349D01*
X112354750Y-55456581D01*
X112333926Y-55461797D01*
X112312691Y-55464947D01*
X112291250Y-55466000D01*
X111853750Y-55466000D01*
X111832309Y-55464947D01*
X111811074Y-55461797D01*
X111790250Y-55456581D01*
X111770038Y-55449349D01*
X111750632Y-55440170D01*
X111732219Y-55429134D01*
X111714976Y-55416346D01*
X111699070Y-55401930D01*
X111684654Y-55386024D01*
X111671866Y-55368781D01*
X111660830Y-55350368D01*
X111651651Y-55330962D01*
X111644419Y-55310750D01*
X111639203Y-55289926D01*
X111636053Y-55268691D01*
X111635000Y-55247250D01*
X111635000Y-54734750D01*
X111636053Y-54713309D01*
X111639203Y-54692074D01*
X111644419Y-54671250D01*
X111651651Y-54651038D01*
X111660830Y-54631632D01*
X111671866Y-54613219D01*
X111684654Y-54595976D01*
X111699070Y-54580070D01*
X111714976Y-54565654D01*
X111732219Y-54552866D01*
X111750632Y-54541830D01*
X111770038Y-54532651D01*
X111790250Y-54525419D01*
X111811074Y-54520203D01*
X111832309Y-54517053D01*
X111853750Y-54516000D01*
X112291250Y-54516000D01*
X112312691Y-54517053D01*
G37*
G04 #@! TD.AperFunction*
G04 #@! TA.AperFunction,SMDPad,CuDef*
G36*
X112312691Y-56168053D02*
G01*
X112333926Y-56171203D01*
X112354750Y-56176419D01*
X112374962Y-56183651D01*
X112394368Y-56192830D01*
X112412781Y-56203866D01*
X112430024Y-56216654D01*
X112445930Y-56231070D01*
X112460346Y-56246976D01*
X112473134Y-56264219D01*
X112484170Y-56282632D01*
X112493349Y-56302038D01*
X112500581Y-56322250D01*
X112505797Y-56343074D01*
X112508947Y-56364309D01*
X112510000Y-56385750D01*
X112510000Y-56898250D01*
X112508947Y-56919691D01*
X112505797Y-56940926D01*
X112500581Y-56961750D01*
X112493349Y-56981962D01*
X112484170Y-57001368D01*
X112473134Y-57019781D01*
X112460346Y-57037024D01*
X112445930Y-57052930D01*
X112430024Y-57067346D01*
X112412781Y-57080134D01*
X112394368Y-57091170D01*
X112374962Y-57100349D01*
X112354750Y-57107581D01*
X112333926Y-57112797D01*
X112312691Y-57115947D01*
X112291250Y-57117000D01*
X111853750Y-57117000D01*
X111832309Y-57115947D01*
X111811074Y-57112797D01*
X111790250Y-57107581D01*
X111770038Y-57100349D01*
X111750632Y-57091170D01*
X111732219Y-57080134D01*
X111714976Y-57067346D01*
X111699070Y-57052930D01*
X111684654Y-57037024D01*
X111671866Y-57019781D01*
X111660830Y-57001368D01*
X111651651Y-56981962D01*
X111644419Y-56961750D01*
X111639203Y-56940926D01*
X111636053Y-56919691D01*
X111635000Y-56898250D01*
X111635000Y-56385750D01*
X111636053Y-56364309D01*
X111639203Y-56343074D01*
X111644419Y-56322250D01*
X111651651Y-56302038D01*
X111660830Y-56282632D01*
X111671866Y-56264219D01*
X111684654Y-56246976D01*
X111699070Y-56231070D01*
X111714976Y-56216654D01*
X111732219Y-56203866D01*
X111750632Y-56192830D01*
X111770038Y-56183651D01*
X111790250Y-56176419D01*
X111811074Y-56171203D01*
X111832309Y-56168053D01*
X111853750Y-56167000D01*
X112291250Y-56167000D01*
X112312691Y-56168053D01*
G37*
G04 #@! TD.AperFunction*
G04 #@! TA.AperFunction,SMDPad,CuDef*
G36*
X113887691Y-56168053D02*
G01*
X113908926Y-56171203D01*
X113929750Y-56176419D01*
X113949962Y-56183651D01*
X113969368Y-56192830D01*
X113987781Y-56203866D01*
X114005024Y-56216654D01*
X114020930Y-56231070D01*
X114035346Y-56246976D01*
X114048134Y-56264219D01*
X114059170Y-56282632D01*
X114068349Y-56302038D01*
X114075581Y-56322250D01*
X114080797Y-56343074D01*
X114083947Y-56364309D01*
X114085000Y-56385750D01*
X114085000Y-56898250D01*
X114083947Y-56919691D01*
X114080797Y-56940926D01*
X114075581Y-56961750D01*
X114068349Y-56981962D01*
X114059170Y-57001368D01*
X114048134Y-57019781D01*
X114035346Y-57037024D01*
X114020930Y-57052930D01*
X114005024Y-57067346D01*
X113987781Y-57080134D01*
X113969368Y-57091170D01*
X113949962Y-57100349D01*
X113929750Y-57107581D01*
X113908926Y-57112797D01*
X113887691Y-57115947D01*
X113866250Y-57117000D01*
X113428750Y-57117000D01*
X113407309Y-57115947D01*
X113386074Y-57112797D01*
X113365250Y-57107581D01*
X113345038Y-57100349D01*
X113325632Y-57091170D01*
X113307219Y-57080134D01*
X113289976Y-57067346D01*
X113274070Y-57052930D01*
X113259654Y-57037024D01*
X113246866Y-57019781D01*
X113235830Y-57001368D01*
X113226651Y-56981962D01*
X113219419Y-56961750D01*
X113214203Y-56940926D01*
X113211053Y-56919691D01*
X113210000Y-56898250D01*
X113210000Y-56385750D01*
X113211053Y-56364309D01*
X113214203Y-56343074D01*
X113219419Y-56322250D01*
X113226651Y-56302038D01*
X113235830Y-56282632D01*
X113246866Y-56264219D01*
X113259654Y-56246976D01*
X113274070Y-56231070D01*
X113289976Y-56216654D01*
X113307219Y-56203866D01*
X113325632Y-56192830D01*
X113345038Y-56183651D01*
X113365250Y-56176419D01*
X113386074Y-56171203D01*
X113407309Y-56168053D01*
X113428750Y-56167000D01*
X113866250Y-56167000D01*
X113887691Y-56168053D01*
G37*
G04 #@! TD.AperFunction*
G04 #@! TA.AperFunction,SMDPad,CuDef*
G36*
X120450691Y-98141553D02*
G01*
X120471926Y-98144703D01*
X120492750Y-98149919D01*
X120512962Y-98157151D01*
X120532368Y-98166330D01*
X120550781Y-98177366D01*
X120568024Y-98190154D01*
X120583930Y-98204570D01*
X120598346Y-98220476D01*
X120611134Y-98237719D01*
X120622170Y-98256132D01*
X120631349Y-98275538D01*
X120638581Y-98295750D01*
X120643797Y-98316574D01*
X120646947Y-98337809D01*
X120648000Y-98359250D01*
X120648000Y-98871750D01*
X120646947Y-98893191D01*
X120643797Y-98914426D01*
X120638581Y-98935250D01*
X120631349Y-98955462D01*
X120622170Y-98974868D01*
X120611134Y-98993281D01*
X120598346Y-99010524D01*
X120583930Y-99026430D01*
X120568024Y-99040846D01*
X120550781Y-99053634D01*
X120532368Y-99064670D01*
X120512962Y-99073849D01*
X120492750Y-99081081D01*
X120471926Y-99086297D01*
X120450691Y-99089447D01*
X120429250Y-99090500D01*
X119991750Y-99090500D01*
X119970309Y-99089447D01*
X119949074Y-99086297D01*
X119928250Y-99081081D01*
X119908038Y-99073849D01*
X119888632Y-99064670D01*
X119870219Y-99053634D01*
X119852976Y-99040846D01*
X119837070Y-99026430D01*
X119822654Y-99010524D01*
X119809866Y-98993281D01*
X119798830Y-98974868D01*
X119789651Y-98955462D01*
X119782419Y-98935250D01*
X119777203Y-98914426D01*
X119774053Y-98893191D01*
X119773000Y-98871750D01*
X119773000Y-98359250D01*
X119774053Y-98337809D01*
X119777203Y-98316574D01*
X119782419Y-98295750D01*
X119789651Y-98275538D01*
X119798830Y-98256132D01*
X119809866Y-98237719D01*
X119822654Y-98220476D01*
X119837070Y-98204570D01*
X119852976Y-98190154D01*
X119870219Y-98177366D01*
X119888632Y-98166330D01*
X119908038Y-98157151D01*
X119928250Y-98149919D01*
X119949074Y-98144703D01*
X119970309Y-98141553D01*
X119991750Y-98140500D01*
X120429250Y-98140500D01*
X120450691Y-98141553D01*
G37*
G04 #@! TD.AperFunction*
G04 #@! TA.AperFunction,SMDPad,CuDef*
G36*
X118875691Y-98141553D02*
G01*
X118896926Y-98144703D01*
X118917750Y-98149919D01*
X118937962Y-98157151D01*
X118957368Y-98166330D01*
X118975781Y-98177366D01*
X118993024Y-98190154D01*
X119008930Y-98204570D01*
X119023346Y-98220476D01*
X119036134Y-98237719D01*
X119047170Y-98256132D01*
X119056349Y-98275538D01*
X119063581Y-98295750D01*
X119068797Y-98316574D01*
X119071947Y-98337809D01*
X119073000Y-98359250D01*
X119073000Y-98871750D01*
X119071947Y-98893191D01*
X119068797Y-98914426D01*
X119063581Y-98935250D01*
X119056349Y-98955462D01*
X119047170Y-98974868D01*
X119036134Y-98993281D01*
X119023346Y-99010524D01*
X119008930Y-99026430D01*
X118993024Y-99040846D01*
X118975781Y-99053634D01*
X118957368Y-99064670D01*
X118937962Y-99073849D01*
X118917750Y-99081081D01*
X118896926Y-99086297D01*
X118875691Y-99089447D01*
X118854250Y-99090500D01*
X118416750Y-99090500D01*
X118395309Y-99089447D01*
X118374074Y-99086297D01*
X118353250Y-99081081D01*
X118333038Y-99073849D01*
X118313632Y-99064670D01*
X118295219Y-99053634D01*
X118277976Y-99040846D01*
X118262070Y-99026430D01*
X118247654Y-99010524D01*
X118234866Y-98993281D01*
X118223830Y-98974868D01*
X118214651Y-98955462D01*
X118207419Y-98935250D01*
X118202203Y-98914426D01*
X118199053Y-98893191D01*
X118198000Y-98871750D01*
X118198000Y-98359250D01*
X118199053Y-98337809D01*
X118202203Y-98316574D01*
X118207419Y-98295750D01*
X118214651Y-98275538D01*
X118223830Y-98256132D01*
X118234866Y-98237719D01*
X118247654Y-98220476D01*
X118262070Y-98204570D01*
X118277976Y-98190154D01*
X118295219Y-98177366D01*
X118313632Y-98166330D01*
X118333038Y-98157151D01*
X118353250Y-98149919D01*
X118374074Y-98144703D01*
X118395309Y-98141553D01*
X118416750Y-98140500D01*
X118854250Y-98140500D01*
X118875691Y-98141553D01*
G37*
G04 #@! TD.AperFunction*
G04 #@! TA.AperFunction,SMDPad,CuDef*
G36*
X121224691Y-101316053D02*
G01*
X121245926Y-101319203D01*
X121266750Y-101324419D01*
X121286962Y-101331651D01*
X121306368Y-101340830D01*
X121324781Y-101351866D01*
X121342024Y-101364654D01*
X121357930Y-101379070D01*
X121372346Y-101394976D01*
X121385134Y-101412219D01*
X121396170Y-101430632D01*
X121405349Y-101450038D01*
X121412581Y-101470250D01*
X121417797Y-101491074D01*
X121420947Y-101512309D01*
X121422000Y-101533750D01*
X121422000Y-102046250D01*
X121420947Y-102067691D01*
X121417797Y-102088926D01*
X121412581Y-102109750D01*
X121405349Y-102129962D01*
X121396170Y-102149368D01*
X121385134Y-102167781D01*
X121372346Y-102185024D01*
X121357930Y-102200930D01*
X121342024Y-102215346D01*
X121324781Y-102228134D01*
X121306368Y-102239170D01*
X121286962Y-102248349D01*
X121266750Y-102255581D01*
X121245926Y-102260797D01*
X121224691Y-102263947D01*
X121203250Y-102265000D01*
X120765750Y-102265000D01*
X120744309Y-102263947D01*
X120723074Y-102260797D01*
X120702250Y-102255581D01*
X120682038Y-102248349D01*
X120662632Y-102239170D01*
X120644219Y-102228134D01*
X120626976Y-102215346D01*
X120611070Y-102200930D01*
X120596654Y-102185024D01*
X120583866Y-102167781D01*
X120572830Y-102149368D01*
X120563651Y-102129962D01*
X120556419Y-102109750D01*
X120551203Y-102088926D01*
X120548053Y-102067691D01*
X120547000Y-102046250D01*
X120547000Y-101533750D01*
X120548053Y-101512309D01*
X120551203Y-101491074D01*
X120556419Y-101470250D01*
X120563651Y-101450038D01*
X120572830Y-101430632D01*
X120583866Y-101412219D01*
X120596654Y-101394976D01*
X120611070Y-101379070D01*
X120626976Y-101364654D01*
X120644219Y-101351866D01*
X120662632Y-101340830D01*
X120682038Y-101331651D01*
X120702250Y-101324419D01*
X120723074Y-101319203D01*
X120744309Y-101316053D01*
X120765750Y-101315000D01*
X121203250Y-101315000D01*
X121224691Y-101316053D01*
G37*
G04 #@! TD.AperFunction*
G04 #@! TA.AperFunction,SMDPad,CuDef*
G36*
X122799691Y-101316053D02*
G01*
X122820926Y-101319203D01*
X122841750Y-101324419D01*
X122861962Y-101331651D01*
X122881368Y-101340830D01*
X122899781Y-101351866D01*
X122917024Y-101364654D01*
X122932930Y-101379070D01*
X122947346Y-101394976D01*
X122960134Y-101412219D01*
X122971170Y-101430632D01*
X122980349Y-101450038D01*
X122987581Y-101470250D01*
X122992797Y-101491074D01*
X122995947Y-101512309D01*
X122997000Y-101533750D01*
X122997000Y-102046250D01*
X122995947Y-102067691D01*
X122992797Y-102088926D01*
X122987581Y-102109750D01*
X122980349Y-102129962D01*
X122971170Y-102149368D01*
X122960134Y-102167781D01*
X122947346Y-102185024D01*
X122932930Y-102200930D01*
X122917024Y-102215346D01*
X122899781Y-102228134D01*
X122881368Y-102239170D01*
X122861962Y-102248349D01*
X122841750Y-102255581D01*
X122820926Y-102260797D01*
X122799691Y-102263947D01*
X122778250Y-102265000D01*
X122340750Y-102265000D01*
X122319309Y-102263947D01*
X122298074Y-102260797D01*
X122277250Y-102255581D01*
X122257038Y-102248349D01*
X122237632Y-102239170D01*
X122219219Y-102228134D01*
X122201976Y-102215346D01*
X122186070Y-102200930D01*
X122171654Y-102185024D01*
X122158866Y-102167781D01*
X122147830Y-102149368D01*
X122138651Y-102129962D01*
X122131419Y-102109750D01*
X122126203Y-102088926D01*
X122123053Y-102067691D01*
X122122000Y-102046250D01*
X122122000Y-101533750D01*
X122123053Y-101512309D01*
X122126203Y-101491074D01*
X122131419Y-101470250D01*
X122138651Y-101450038D01*
X122147830Y-101430632D01*
X122158866Y-101412219D01*
X122171654Y-101394976D01*
X122186070Y-101379070D01*
X122201976Y-101364654D01*
X122219219Y-101351866D01*
X122237632Y-101340830D01*
X122257038Y-101331651D01*
X122277250Y-101324419D01*
X122298074Y-101319203D01*
X122319309Y-101316053D01*
X122340750Y-101315000D01*
X122778250Y-101315000D01*
X122799691Y-101316053D01*
G37*
G04 #@! TD.AperFunction*
D14*
X195199000Y-75057000D03*
D15*
X195199000Y-77597000D03*
X192659000Y-75057000D03*
X192659000Y-77597000D03*
X190119000Y-75057000D03*
X190119000Y-77597000D03*
X187579000Y-75057000D03*
X187579000Y-77597000D03*
X185039000Y-75057000D03*
X185039000Y-77597000D03*
X182499000Y-75057000D03*
X182499000Y-77597000D03*
X179959000Y-75057000D03*
X179959000Y-77597000D03*
X177419000Y-75057000D03*
X177419000Y-77597000D03*
X174879000Y-75057000D03*
X174879000Y-77597000D03*
X172339000Y-75057000D03*
X172339000Y-77597000D03*
X169799000Y-75057000D03*
X169799000Y-77597000D03*
X167259000Y-75057000D03*
X167259000Y-77597000D03*
X164719000Y-75057000D03*
X164719000Y-77597000D03*
X162179000Y-75057000D03*
X162179000Y-77597000D03*
X159639000Y-75057000D03*
X159639000Y-77597000D03*
X157099000Y-75057000D03*
X157099000Y-77597000D03*
X154559000Y-75057000D03*
X154559000Y-77597000D03*
X152019000Y-75057000D03*
X152019000Y-77597000D03*
X149479000Y-75057000D03*
X149479000Y-77597000D03*
X146939000Y-75057000D03*
X146939000Y-77597000D03*
D16*
X170888600Y-86200600D03*
X163802000Y-97218200D03*
X137343000Y-79371000D03*
X132760900Y-104461300D03*
X137684600Y-96779400D03*
X160102400Y-93732700D03*
X176326900Y-93981900D03*
X172062800Y-93981900D03*
X166358300Y-87222000D03*
X156836800Y-90125100D03*
X185679200Y-80444400D03*
X150186800Y-80247300D03*
X148176200Y-87161500D03*
X162060600Y-84080800D03*
X151774900Y-79500500D03*
X155327200Y-79500500D03*
X158795300Y-93104800D03*
X177127300Y-93810800D03*
X172738300Y-93236900D03*
X150933200Y-78784100D03*
X179481800Y-98091200D03*
X178378000Y-93406700D03*
X177752600Y-94317400D03*
X174809900Y-105027700D03*
X174403900Y-102683000D03*
X177952400Y-90863600D03*
X162497000Y-104727000D03*
X165431100Y-104840500D03*
X163480000Y-104633500D03*
X159537700Y-104156700D03*
X159054800Y-102337200D03*
X145955600Y-93176200D03*
X153398100Y-104071300D03*
X155597500Y-105281600D03*
X167278300Y-87296600D03*
X157637100Y-90114300D03*
X167792000Y-84926300D03*
X160045900Y-88405700D03*
X153953200Y-105286100D03*
X165591900Y-100626400D03*
X153297100Y-99632500D03*
X156372200Y-104817500D03*
X146866600Y-105007900D03*
X144993000Y-104578400D03*
X142837900Y-104814300D03*
X140568000Y-103822600D03*
X154535100Y-99200400D03*
X150497600Y-104106100D03*
X160417900Y-90115800D03*
X150733800Y-83521500D03*
X137874200Y-80220300D03*
X171196300Y-90973900D03*
X165779000Y-81519700D03*
X171936600Y-101997500D03*
X157589600Y-82270000D03*
X158594900Y-83275300D03*
X154411700Y-88135200D03*
X158932900Y-87779400D03*
X176029300Y-103746500D03*
X175000600Y-97373600D03*
X166321800Y-96614500D03*
X163456700Y-96101800D03*
X124016500Y-101603200D03*
X110353900Y-56509200D03*
X110324100Y-54991000D03*
X110329400Y-53497300D03*
X166920900Y-81873800D03*
X150834700Y-97340400D03*
X156140700Y-92628400D03*
X162619200Y-81000000D03*
X117269000Y-97435100D03*
X168125000Y-87334000D03*
X161974600Y-80512700D03*
D17*
X171751400Y-77597000D02*
X170888600Y-78459800D01*
X170888600Y-78459800D02*
X170888600Y-86200600D01*
X171751400Y-77597000D02*
X171163700Y-77597000D01*
X172339000Y-77597000D02*
X171751400Y-77597000D01*
X163802000Y-97218200D02*
X164082000Y-96938200D01*
X164082000Y-96938200D02*
X164082000Y-94533400D01*
X164082000Y-94533400D02*
X162131700Y-92583100D01*
X162131700Y-92583100D02*
X162131700Y-88930400D01*
X162131700Y-88930400D02*
X158656300Y-85455000D01*
X158656300Y-85455000D02*
X158616300Y-85455000D01*
X158616300Y-85455000D02*
X154559000Y-81397700D01*
X154559000Y-81397700D02*
X154559000Y-78772300D01*
X134632800Y-105474100D02*
X134632800Y-105448800D01*
X134632800Y-105448800D02*
X130154900Y-100970900D01*
X130154900Y-100970900D02*
X121803600Y-100970900D01*
X121803600Y-100970900D02*
X120984500Y-101790000D01*
X163802000Y-97218200D02*
X163449000Y-97571200D01*
X163449000Y-98871500D02*
X163449000Y-97571200D01*
X154559000Y-77597000D02*
X154559000Y-78772300D01*
X138113000Y-90794800D02*
X137059300Y-91848500D01*
X137059300Y-91848500D02*
X137059300Y-97038400D01*
X137059300Y-97038400D02*
X137565100Y-97544200D01*
X137565100Y-97544200D02*
X138113000Y-97544200D01*
X120984500Y-101790000D02*
X117691500Y-101790000D01*
X138775700Y-100194800D02*
X139383000Y-100194800D01*
X138113000Y-99532100D02*
X138775700Y-100194800D01*
X137172800Y-105474100D02*
X138775700Y-103871200D01*
X138775700Y-103871200D02*
X138775700Y-100194800D01*
X134632800Y-105474100D02*
X137172800Y-105474100D01*
X138113000Y-89469500D02*
X138113000Y-90794800D01*
X138113000Y-88806800D02*
X138113000Y-89469500D01*
X138113000Y-98869500D02*
X138113000Y-97544200D01*
X139383000Y-98869500D02*
X139383000Y-100194800D01*
X138113000Y-98869500D02*
X138113000Y-99532100D01*
X164719000Y-75057000D02*
X165894300Y-75057000D01*
X165894300Y-75057000D02*
X165894300Y-74689600D01*
X165894300Y-74689600D02*
X166702200Y-73881700D01*
X166702200Y-73881700D02*
X167748000Y-73881700D01*
X167748000Y-73881700D02*
X168623600Y-74757300D01*
X168623600Y-74757300D02*
X168623600Y-75582600D01*
X168623600Y-75582600D02*
X169462700Y-76421700D01*
X169462700Y-76421700D02*
X170355800Y-76421700D01*
X170355800Y-76421700D02*
X171163700Y-77229600D01*
X171163700Y-77229600D02*
X171163700Y-77597000D01*
X138113000Y-88806800D02*
X138113000Y-88144200D01*
X146939000Y-75327300D02*
X146939000Y-75057000D01*
X146939000Y-75327300D02*
X146939000Y-76232300D01*
X146939000Y-76232300D02*
X146609900Y-76232300D01*
X146609900Y-76232300D02*
X138113000Y-84729200D01*
X138113000Y-84729200D02*
X138113000Y-88144200D01*
X137172800Y-109799400D02*
X137172800Y-105474100D01*
X134632800Y-109799400D02*
X134632800Y-105474100D01*
D18*
X193948600Y-77597000D02*
X193948700Y-77597000D01*
X192659000Y-77597000D02*
X193948600Y-77597000D01*
X193948600Y-77597000D02*
X193948600Y-74571500D01*
X193948600Y-74571500D02*
X192182800Y-72805700D01*
X192182800Y-72805700D02*
X143908300Y-72805700D01*
X143908300Y-72805700D02*
X137343000Y-79371000D01*
X132760900Y-104461300D02*
X132092800Y-105129400D01*
X132092800Y-105129400D02*
X132092800Y-105399100D01*
X132092800Y-109799400D02*
X132092800Y-105399100D01*
X129552800Y-109799400D02*
X129552800Y-105399100D01*
X129552800Y-105399100D02*
X132092800Y-105399100D01*
X152083000Y-98869500D02*
X152083000Y-97469200D01*
X137684600Y-96779400D02*
X137853200Y-96610800D01*
X137853200Y-96610800D02*
X151224600Y-96610800D01*
X151224600Y-96610800D02*
X152083000Y-97469200D01*
X195199000Y-77597000D02*
X193948700Y-77597000D01*
D17*
X145733000Y-90794800D02*
X154135600Y-90794800D01*
X154135600Y-90794800D02*
X155896800Y-89033600D01*
X155896800Y-89033600D02*
X158157200Y-89033600D01*
X158157200Y-89033600D02*
X160102400Y-90978800D01*
X160102400Y-90978800D02*
X160102400Y-93732700D01*
X145733000Y-89469500D02*
X145733000Y-90794800D01*
X169799000Y-100171800D02*
X171511900Y-100171800D01*
X171511900Y-100171800D02*
X171713600Y-99970100D01*
X171713600Y-99970100D02*
X171713600Y-94331100D01*
X171713600Y-94331100D02*
X172062800Y-93981900D01*
X176326900Y-93981900D02*
X176326900Y-93511900D01*
X176326900Y-93511900D02*
X188943700Y-80895100D01*
X188943700Y-80895100D02*
X188943700Y-77040200D01*
X188943700Y-77040200D02*
X189751600Y-76232300D01*
X189751600Y-76232300D02*
X190119000Y-76232300D01*
X190119000Y-75057000D02*
X190119000Y-76232300D01*
X169799000Y-98871500D02*
X169799000Y-100171800D01*
X166358300Y-87222000D02*
X166358300Y-87260900D01*
X166358300Y-87260900D02*
X167259000Y-88161600D01*
X167259000Y-88161600D02*
X167259000Y-89471500D01*
X141923000Y-90794800D02*
X142823600Y-91695400D01*
X142823600Y-91695400D02*
X155266500Y-91695400D01*
X155266500Y-91695400D02*
X156836800Y-90125100D01*
X141923000Y-89469500D02*
X141923000Y-90794800D01*
X187579000Y-76232300D02*
X187211600Y-76232300D01*
X187211600Y-76232300D02*
X186403700Y-77040200D01*
X186403700Y-77040200D02*
X186403700Y-79719900D01*
X186403700Y-79719900D02*
X185679200Y-80444400D01*
X187579000Y-75057000D02*
X187579000Y-76232300D01*
X158274300Y-75057000D02*
X158274300Y-74689700D01*
X158274300Y-74689700D02*
X159154900Y-73809100D01*
X159154900Y-73809100D02*
X162655700Y-73809100D01*
X162655700Y-73809100D02*
X163373000Y-74526400D01*
X163373000Y-74526400D02*
X163373000Y-75435200D01*
X163373000Y-75435200D02*
X164170200Y-76232400D01*
X164170200Y-76232400D02*
X165122000Y-76232400D01*
X165122000Y-76232400D02*
X165917700Y-77028100D01*
X165917700Y-77028100D02*
X165917700Y-80208200D01*
X165917700Y-80208200D02*
X165153700Y-80972200D01*
X165153700Y-80972200D02*
X165153700Y-81778700D01*
X165153700Y-81778700D02*
X166976200Y-83601200D01*
X166976200Y-83601200D02*
X167361100Y-83601200D01*
X167361100Y-83601200D02*
X171931100Y-88171200D01*
X171931100Y-88171200D02*
X172339000Y-88171200D01*
X157099000Y-75057000D02*
X155923700Y-75057000D01*
X157099000Y-75057000D02*
X158274300Y-75057000D01*
X155923700Y-75057000D02*
X155923700Y-74689700D01*
X155923700Y-74689700D02*
X155108200Y-73874200D01*
X155108200Y-73874200D02*
X148929600Y-73874200D01*
X148929600Y-73874200D02*
X148303600Y-74500200D01*
X148303600Y-74500200D02*
X148303600Y-78044600D01*
X148303600Y-78044600D02*
X139383000Y-86965200D01*
X139383000Y-86965200D02*
X139383000Y-89469500D01*
X172339000Y-89471500D02*
X172339000Y-88171200D01*
X164719000Y-78772300D02*
X164703400Y-78787900D01*
X164703400Y-78787900D02*
X164703400Y-82723900D01*
X164703400Y-82723900D02*
X167750100Y-85770600D01*
X167750100Y-85770600D02*
X168126700Y-85770600D01*
X168126700Y-85770600D02*
X169799000Y-87442900D01*
X169799000Y-87442900D02*
X169799000Y-88171200D01*
X169799000Y-89471500D02*
X169799000Y-88171200D01*
X164719000Y-77597000D02*
X164719000Y-78772300D01*
X140653000Y-88144200D02*
X148549900Y-80247300D01*
X148549900Y-80247300D02*
X150186800Y-80247300D01*
X140653000Y-89469500D02*
X140653000Y-88144200D01*
X162179000Y-76232300D02*
X162546300Y-76232300D01*
X162546300Y-76232300D02*
X163373200Y-77059200D01*
X163373200Y-77059200D02*
X163373200Y-78229800D01*
X163373200Y-78229800D02*
X161337400Y-80265600D01*
X161337400Y-80265600D02*
X161337400Y-83357600D01*
X161337400Y-83357600D02*
X162060600Y-84080800D01*
X147003000Y-88144200D02*
X147193500Y-88144200D01*
X147193500Y-88144200D02*
X148176200Y-87161500D01*
X162060600Y-84080800D02*
X165827100Y-87847300D01*
X165827100Y-87847300D02*
X166105800Y-87847300D01*
X166105800Y-87847300D02*
X166614400Y-88355900D01*
X166614400Y-88355900D02*
X166614400Y-90771900D01*
X166614400Y-90771900D02*
X167397400Y-91554900D01*
X167397400Y-91554900D02*
X167397400Y-97432800D01*
X167397400Y-97432800D02*
X167259000Y-97571200D01*
X147003000Y-89469500D02*
X147003000Y-88144200D01*
X167259000Y-98871500D02*
X167259000Y-97571200D01*
X162179000Y-75057000D02*
X162179000Y-76232300D01*
X164719000Y-98871500D02*
X164719000Y-94341400D01*
X164719000Y-94341400D02*
X162732200Y-92354600D01*
X162732200Y-92354600D02*
X162732200Y-88846000D01*
X162732200Y-88846000D02*
X158440500Y-84554300D01*
X158440500Y-84554300D02*
X158352500Y-84554300D01*
X158352500Y-84554300D02*
X155327200Y-81529000D01*
X155327200Y-81529000D02*
X155327200Y-79500500D01*
X148273000Y-88144200D02*
X148898300Y-87518900D01*
X148898300Y-87518900D02*
X148898300Y-83075800D01*
X148898300Y-83075800D02*
X151774900Y-80199200D01*
X151774900Y-80199200D02*
X151774900Y-79500500D01*
X148273000Y-89469500D02*
X148273000Y-88144200D01*
X144463000Y-90794800D02*
X144913300Y-91245100D01*
X144913300Y-91245100D02*
X154322300Y-91245100D01*
X154322300Y-91245100D02*
X156078400Y-89489000D01*
X156078400Y-89489000D02*
X157903700Y-89489000D01*
X157903700Y-89489000D02*
X158795300Y-90380600D01*
X158795300Y-90380600D02*
X158795300Y-93104800D01*
X144463000Y-89469500D02*
X144463000Y-90794800D01*
X172339000Y-97571200D02*
X172738300Y-97171900D01*
X172738300Y-97171900D02*
X172738300Y-93236900D01*
X177127300Y-93810800D02*
X177127300Y-93772400D01*
X177127300Y-93772400D02*
X191483700Y-79416000D01*
X191483700Y-79416000D02*
X191483700Y-77040200D01*
X191483700Y-77040200D02*
X192291600Y-76232300D01*
X192291600Y-76232300D02*
X192659000Y-76232300D01*
X192659000Y-75057000D02*
X192659000Y-76232300D01*
X172339000Y-98871500D02*
X172339000Y-97571200D01*
X159639000Y-75057000D02*
X159639000Y-76232300D01*
X159639000Y-76232300D02*
X160006400Y-76232300D01*
X160006400Y-76232300D02*
X160814300Y-77040200D01*
X160814300Y-77040200D02*
X160814300Y-83736100D01*
X160814300Y-83736100D02*
X164719000Y-87640800D01*
X164719000Y-87640800D02*
X164719000Y-89471500D01*
X143193000Y-89469500D02*
X143193000Y-88144200D01*
X143193000Y-88144200D02*
X150933200Y-80404000D01*
X150933200Y-80404000D02*
X150933200Y-78784100D01*
X180352800Y-105474100D02*
X179481800Y-104603100D01*
X179481800Y-104603100D02*
X179481800Y-98091200D01*
X180352800Y-109799400D02*
X180352800Y-105474100D01*
X175272800Y-105474100D02*
X175450100Y-105296800D01*
X175450100Y-105296800D02*
X175450100Y-104051600D01*
X175450100Y-104051600D02*
X175390900Y-103992400D01*
X175390900Y-103992400D02*
X175390900Y-103500300D01*
X175390900Y-103500300D02*
X178378000Y-100513200D01*
X178378000Y-100513200D02*
X178378000Y-93406700D01*
X175272800Y-109799400D02*
X175272800Y-105474100D01*
X174809900Y-105027700D02*
X174809900Y-103444400D01*
X174809900Y-103444400D02*
X177752600Y-100501700D01*
X177752600Y-100501700D02*
X177752600Y-94317400D01*
X172732800Y-105474100D02*
X172732800Y-104354100D01*
X172732800Y-104354100D02*
X174403900Y-102683000D01*
X172732800Y-109799400D02*
X172732800Y-105474100D01*
X170192800Y-105474100D02*
X170691200Y-105474100D01*
X170691200Y-105474100D02*
X176085200Y-100080100D01*
X176085200Y-100080100D02*
X176085200Y-95193600D01*
X176085200Y-95193600D02*
X175687200Y-94795600D01*
X175687200Y-94795600D02*
X175687200Y-93128800D01*
X175687200Y-93128800D02*
X177952400Y-90863600D01*
X170192800Y-109799400D02*
X170192800Y-105474100D01*
X162497000Y-104727000D02*
X163028800Y-105258800D01*
X163028800Y-105258800D02*
X164128500Y-105258800D01*
X164128500Y-105258800D02*
X165206000Y-104181300D01*
X165206000Y-104181300D02*
X166360000Y-104181300D01*
X166360000Y-104181300D02*
X167652800Y-105474100D01*
X167652800Y-109799400D02*
X167652800Y-105474100D01*
X165112800Y-105474100D02*
X165431100Y-105155800D01*
X165431100Y-105155800D02*
X165431100Y-104840500D01*
X165112800Y-109799400D02*
X165112800Y-105474100D01*
X171069000Y-98871500D02*
X171069000Y-97571200D01*
X162572800Y-109799400D02*
X162572800Y-105474100D01*
X162572800Y-105474100D02*
X162308100Y-105474100D01*
X162308100Y-105474100D02*
X161867300Y-105033300D01*
X161867300Y-105033300D02*
X161867300Y-104458200D01*
X161867300Y-104458200D02*
X163465200Y-102860300D01*
X163465200Y-102860300D02*
X166485900Y-102860300D01*
X166485900Y-102860300D02*
X169154400Y-100191800D01*
X169154400Y-100191800D02*
X169154400Y-97772900D01*
X169154400Y-97772900D02*
X169356100Y-97571200D01*
X169356100Y-97571200D02*
X171069000Y-97571200D01*
X163480000Y-104633500D02*
X164423500Y-103690000D01*
X164423500Y-103690000D02*
X169316200Y-103690000D01*
X169316200Y-103690000D02*
X172834400Y-100171800D01*
X172834400Y-100171800D02*
X173609000Y-100171800D01*
X173609000Y-98871500D02*
X173609000Y-100171800D01*
X160032800Y-109799400D02*
X160032800Y-105474100D01*
X160032800Y-105474100D02*
X159537700Y-104979000D01*
X159537700Y-104979000D02*
X159537700Y-104156700D01*
X159054800Y-102337200D02*
X159054800Y-103482000D01*
X159054800Y-103482000D02*
X157492800Y-105044000D01*
X157492800Y-105044000D02*
X157492800Y-105474100D01*
X157492800Y-109799400D02*
X157492800Y-105474100D01*
X145955600Y-93176200D02*
X149433000Y-93176200D01*
X149433000Y-93176200D02*
X155214000Y-98957200D01*
X155214000Y-98957200D02*
X155214000Y-102255400D01*
X155214000Y-102255400D02*
X153398100Y-104071300D01*
X154952800Y-105474100D02*
X154952800Y-104686900D01*
X154952800Y-104686900D02*
X157528900Y-102110800D01*
X157528900Y-102110800D02*
X157528900Y-101705000D01*
X157528900Y-101705000D02*
X158422600Y-100811300D01*
X158422600Y-100811300D02*
X164520500Y-100811300D01*
X164520500Y-100811300D02*
X165353900Y-99977900D01*
X165353900Y-99977900D02*
X165353900Y-94093900D01*
X165353900Y-94093900D02*
X163449000Y-92189000D01*
X163449000Y-92189000D02*
X163449000Y-89471500D01*
X154952800Y-109799400D02*
X154952800Y-105474100D01*
X155597500Y-105281600D02*
X155597500Y-104679100D01*
X155597500Y-104679100D02*
X157979200Y-102297400D01*
X157979200Y-102297400D02*
X157979200Y-101891600D01*
X157979200Y-101891600D02*
X158609200Y-101261600D01*
X158609200Y-101261600D02*
X165863900Y-101261600D01*
X165863900Y-101261600D02*
X166614400Y-100511100D01*
X166614400Y-100511100D02*
X166614400Y-97206300D01*
X166614400Y-97206300D02*
X166947100Y-96873600D01*
X166947100Y-96873600D02*
X166947100Y-93624700D01*
X166947100Y-93624700D02*
X165989000Y-92666600D01*
X165989000Y-92666600D02*
X165989000Y-89471500D01*
X167278300Y-87296600D02*
X167278300Y-87380500D01*
X167278300Y-87380500D02*
X168069000Y-88171200D01*
X168069000Y-88171200D02*
X168529000Y-88171200D01*
X152412800Y-105474100D02*
X152880700Y-105474100D01*
X152880700Y-105474100D02*
X156628300Y-101726500D01*
X156628300Y-101726500D02*
X156628300Y-101331800D01*
X156628300Y-101331800D02*
X157637100Y-100323000D01*
X157637100Y-100323000D02*
X157637100Y-90114300D01*
X168529000Y-89471500D02*
X168529000Y-88171200D01*
X152412800Y-109799400D02*
X152412800Y-105474100D01*
X171069000Y-88171200D02*
X171069000Y-88076000D01*
X171069000Y-88076000D02*
X167919300Y-84926300D01*
X167919300Y-84926300D02*
X167792000Y-84926300D01*
X153953200Y-105286100D02*
X153953200Y-105049600D01*
X153953200Y-105049600D02*
X157078600Y-101924200D01*
X157078600Y-101924200D02*
X157078600Y-101518400D01*
X157078600Y-101518400D02*
X161082900Y-97514100D01*
X161082900Y-97514100D02*
X161082900Y-89442700D01*
X161082900Y-89442700D02*
X160045900Y-88405700D01*
X171069000Y-89471500D02*
X171069000Y-88171200D01*
X153297100Y-99632500D02*
X149798700Y-103130900D01*
X149798700Y-103130900D02*
X149798700Y-105400000D01*
X149798700Y-105400000D02*
X149872800Y-105474100D01*
X149872800Y-109799400D02*
X149872800Y-105474100D01*
X165591900Y-100626400D02*
X165989000Y-100229300D01*
X165989000Y-100229300D02*
X165989000Y-98871500D01*
X168529000Y-100171800D02*
X166988900Y-101711900D01*
X166988900Y-101711900D02*
X158795800Y-101711900D01*
X158795800Y-101711900D02*
X158429500Y-102078200D01*
X158429500Y-102078200D02*
X158429500Y-102760200D01*
X158429500Y-102760200D02*
X156372200Y-104817500D01*
X168529000Y-98871500D02*
X168529000Y-100171800D01*
X147332800Y-109799400D02*
X147332800Y-105474100D01*
X147332800Y-105474100D02*
X147492000Y-105314900D01*
X147492000Y-105314900D02*
X147492000Y-104800700D01*
X147492000Y-104800700D02*
X149543000Y-102749700D01*
X149543000Y-102749700D02*
X149543000Y-98869500D01*
X148273000Y-98869500D02*
X148273000Y-100419900D01*
X148273000Y-100419900D02*
X146866600Y-101826300D01*
X146866600Y-101826300D02*
X146866600Y-105007900D01*
X144792800Y-105474100D02*
X144981700Y-105474100D01*
X144981700Y-105474100D02*
X145618300Y-104837500D01*
X145618300Y-104837500D02*
X145618300Y-101579500D01*
X145618300Y-101579500D02*
X147003000Y-100194800D01*
X147003000Y-98869500D02*
X147003000Y-100194800D01*
X144792800Y-109799400D02*
X144792800Y-105474100D01*
X145733000Y-98869500D02*
X145733000Y-100827900D01*
X145733000Y-100827900D02*
X144993000Y-101567900D01*
X144993000Y-101567900D02*
X144993000Y-104578400D01*
X142252800Y-109799400D02*
X142252800Y-105474100D01*
X142252800Y-105474100D02*
X143067300Y-105474100D01*
X143067300Y-105474100D02*
X144463000Y-104078400D01*
X144463000Y-104078400D02*
X144463000Y-98869500D01*
X143193000Y-98869500D02*
X143193000Y-100194800D01*
X142837900Y-104814300D02*
X142837900Y-100549900D01*
X142837900Y-100549900D02*
X143193000Y-100194800D01*
X139712800Y-105474100D02*
X139812700Y-105474100D01*
X139812700Y-105474100D02*
X141923000Y-103363800D01*
X141923000Y-103363800D02*
X141923000Y-100194800D01*
X141923000Y-98869500D02*
X141923000Y-100194800D01*
X139712800Y-109799400D02*
X139712800Y-105474100D01*
X140568000Y-103822600D02*
X140653000Y-103737600D01*
X140653000Y-103737600D02*
X140653000Y-98869500D01*
X150497600Y-104106100D02*
X154535100Y-100068600D01*
X154535100Y-100068600D02*
X154535100Y-99200400D01*
X152083000Y-89075900D02*
X154468100Y-89075900D01*
X154468100Y-89075900D02*
X154960800Y-88583200D01*
X154960800Y-88583200D02*
X158885300Y-88583200D01*
X158885300Y-88583200D02*
X160417900Y-90115800D01*
X152083000Y-89075900D02*
X152083000Y-88806800D01*
X152083000Y-89469500D02*
X152083000Y-89075900D01*
X113647500Y-54991000D02*
X113647500Y-56642000D01*
X113606500Y-53340000D02*
X113606500Y-54950000D01*
X113606500Y-54950000D02*
X113647500Y-54991000D01*
X113647500Y-56642000D02*
X137225800Y-80220300D01*
X137225800Y-80220300D02*
X137874200Y-80220300D01*
X150813000Y-88256800D02*
X150813000Y-83600700D01*
X150813000Y-83600700D02*
X150733800Y-83521500D01*
X152083000Y-88806800D02*
X151533000Y-88256800D01*
X151533000Y-88256800D02*
X150813000Y-88256800D01*
X150813000Y-89469500D02*
X150813000Y-88256800D01*
X173734600Y-87580800D02*
X174324900Y-88171200D01*
X174324900Y-88171200D02*
X174879000Y-88171200D01*
X174879000Y-76232300D02*
X174511600Y-76232300D01*
X174511600Y-76232300D02*
X173650200Y-77093700D01*
X173650200Y-77093700D02*
X173650200Y-87496500D01*
X173650200Y-87496500D02*
X173734600Y-87580800D01*
X171196300Y-90973900D02*
X172615700Y-90973900D01*
X172615700Y-90973900D02*
X172983600Y-90606000D01*
X172983600Y-90606000D02*
X172983600Y-88331800D01*
X172983600Y-88331800D02*
X173734600Y-87580800D01*
X174879000Y-89471500D02*
X174879000Y-88171200D01*
X174879000Y-75057000D02*
X174879000Y-76232300D01*
X167259000Y-75057000D02*
X167259000Y-76232300D01*
X167259000Y-76232300D02*
X167626300Y-76232300D01*
X167626300Y-76232300D02*
X168449600Y-77055600D01*
X168449600Y-77055600D02*
X168449600Y-78849100D01*
X168449600Y-78849100D02*
X165779000Y-81519700D01*
X171936600Y-101997500D02*
X173525800Y-101997500D01*
X173525800Y-101997500D02*
X175634900Y-99888400D01*
X175634900Y-99888400D02*
X175634900Y-95380200D01*
X175634900Y-95380200D02*
X175236900Y-94982200D01*
X175236900Y-94982200D02*
X175236900Y-92691200D01*
X175236900Y-92691200D02*
X185039000Y-82889100D01*
X185039000Y-82889100D02*
X185039000Y-77597000D01*
X157589600Y-82270000D02*
X157099000Y-81779400D01*
X157099000Y-81779400D02*
X157099000Y-78772300D01*
X157099000Y-77597000D02*
X157099000Y-78772300D01*
X158594900Y-83275300D02*
X158289000Y-82969400D01*
X158289000Y-82969400D02*
X158289000Y-77122200D01*
X158289000Y-77122200D02*
X157493800Y-76327000D01*
X157493800Y-76327000D02*
X155829000Y-76327000D01*
X155829000Y-76327000D02*
X154559000Y-75057000D01*
X154411700Y-88135200D02*
X154767500Y-87779400D01*
X154767500Y-87779400D02*
X158932900Y-87779400D01*
X177812800Y-105474100D02*
X177756900Y-105474100D01*
X177756900Y-105474100D02*
X176029300Y-103746500D01*
X177812800Y-109799400D02*
X177812800Y-105474100D01*
X182499000Y-75057000D02*
X182499000Y-76232300D01*
X182499000Y-76232300D02*
X182866300Y-76232300D01*
X182866300Y-76232300D02*
X183689600Y-77055600D01*
X183689600Y-77055600D02*
X183689600Y-83263800D01*
X183689600Y-83263800D02*
X174781000Y-92172400D01*
X174781000Y-92172400D02*
X174781000Y-97154000D01*
X174781000Y-97154000D02*
X175000600Y-97373600D01*
X182499000Y-77597000D02*
X181323700Y-77597000D01*
X181323700Y-77597000D02*
X181323700Y-77229600D01*
X181323700Y-77229600D02*
X180515800Y-76421700D01*
X180515800Y-76421700D02*
X179622700Y-76421700D01*
X179622700Y-76421700D02*
X178689000Y-75488000D01*
X178689000Y-75488000D02*
X178689000Y-74624800D01*
X178689000Y-74624800D02*
X177416200Y-73352000D01*
X177416200Y-73352000D02*
X146030700Y-73352000D01*
X146030700Y-73352000D02*
X120767200Y-98615500D01*
X120767200Y-98615500D02*
X120210500Y-98615500D01*
X153194300Y-75057000D02*
X153194300Y-75424400D01*
X153194300Y-75424400D02*
X154002200Y-76232300D01*
X154002200Y-76232300D02*
X154903700Y-76232300D01*
X154903700Y-76232300D02*
X155762000Y-77090600D01*
X155762000Y-77090600D02*
X155762000Y-79050900D01*
X155762000Y-79050900D02*
X155952500Y-79241400D01*
X155952500Y-79241400D02*
X155952500Y-81517400D01*
X155952500Y-81517400D02*
X158539100Y-84104000D01*
X158539100Y-84104000D02*
X159829900Y-84104000D01*
X159829900Y-84104000D02*
X164074400Y-88348500D01*
X164074400Y-88348500D02*
X164074400Y-92177400D01*
X164074400Y-92177400D02*
X166321800Y-94424800D01*
X166321800Y-94424800D02*
X166321800Y-96614500D01*
X152019000Y-75057000D02*
X153194300Y-75057000D01*
X149479000Y-75057000D02*
X150654300Y-75057000D01*
X150654300Y-75057000D02*
X150654300Y-75424400D01*
X150654300Y-75424400D02*
X151462200Y-76232300D01*
X151462200Y-76232300D02*
X152338500Y-76232300D01*
X152338500Y-76232300D02*
X153289000Y-77182800D01*
X153289000Y-77182800D02*
X153289000Y-80844100D01*
X153289000Y-80844100D02*
X159128400Y-86683500D01*
X159128400Y-86683500D02*
X159247900Y-86683500D01*
X159247900Y-86683500D02*
X161533300Y-88968900D01*
X161533300Y-88968900D02*
X161533300Y-94178400D01*
X161533300Y-94178400D02*
X163456700Y-96101800D01*
X123579200Y-102040500D02*
X127012800Y-105474100D01*
X122559500Y-101790000D02*
X123328700Y-101790000D01*
X123328700Y-101790000D02*
X123579200Y-102040500D01*
X124016500Y-101603200D02*
X123579200Y-102040500D01*
X127012800Y-109799400D02*
X127012800Y-105474100D01*
X112072500Y-56642000D02*
X110486700Y-56642000D01*
X110486700Y-56642000D02*
X110353900Y-56509200D01*
X112072500Y-54991000D02*
X110324100Y-54991000D01*
X112031500Y-53340000D02*
X110486700Y-53340000D01*
X110486700Y-53340000D02*
X110329400Y-53497300D01*
X152019000Y-78772300D02*
X152400200Y-79153500D01*
X152400200Y-79153500D02*
X152400200Y-80716300D01*
X152400200Y-80716300D02*
X149543000Y-83573500D01*
X149543000Y-83573500D02*
X149543000Y-88144200D01*
X149543000Y-89469500D02*
X149543000Y-88144200D01*
X152019000Y-77597000D02*
X152019000Y-78772300D01*
X169799000Y-77597000D02*
X169799000Y-78995700D01*
X169799000Y-78995700D02*
X166920900Y-81873800D01*
X150813000Y-97544200D02*
X150813000Y-97362100D01*
X150813000Y-97362100D02*
X150834700Y-97340400D01*
X150813000Y-98869500D02*
X150813000Y-97544200D01*
X156140700Y-92628400D02*
X156063200Y-92550900D01*
X156063200Y-92550900D02*
X140693900Y-92550900D01*
X140693900Y-92550900D02*
X138757600Y-90614600D01*
X138757600Y-90614600D02*
X138757600Y-86953700D01*
X138757600Y-86953700D02*
X146939000Y-78772300D01*
X146939000Y-77597000D02*
X146939000Y-78772300D01*
X162619200Y-81000000D02*
X162619200Y-81326400D01*
X162619200Y-81326400D02*
X167513700Y-86220900D01*
X167513700Y-86220900D02*
X167930900Y-86220900D01*
X167930900Y-86220900D02*
X169154300Y-87444300D01*
X169154300Y-87444300D02*
X169154300Y-90572600D01*
X169154300Y-90572600D02*
X170211900Y-91630200D01*
X170211900Y-91630200D02*
X173373700Y-91630200D01*
X173373700Y-91630200D02*
X173373700Y-96736800D01*
X173373700Y-96736800D02*
X174879000Y-98242100D01*
X174879000Y-98242100D02*
X174879000Y-98871500D01*
X173609000Y-90771800D02*
X173373700Y-91007100D01*
X173373700Y-91007100D02*
X173373700Y-91630200D01*
X177419000Y-76232300D02*
X177051600Y-76232300D01*
X177051600Y-76232300D02*
X176243700Y-77040200D01*
X176243700Y-77040200D02*
X176243700Y-89867200D01*
X176243700Y-89867200D02*
X175339100Y-90771800D01*
X175339100Y-90771800D02*
X173609000Y-90771800D01*
X177419000Y-75057000D02*
X177419000Y-76232300D01*
X173609000Y-89471500D02*
X173609000Y-90771800D01*
X118542500Y-98708500D02*
X116116500Y-101134500D01*
X116116500Y-101134500D02*
X116116500Y-101790000D01*
X118635500Y-98615500D02*
X118542500Y-98708500D01*
X118542500Y-98708500D02*
X117269000Y-97435100D01*
X161974600Y-80512700D02*
X161974600Y-81345300D01*
X161974600Y-81345300D02*
X167300500Y-86671200D01*
X167300500Y-86671200D02*
X167547100Y-86671200D01*
X167547100Y-86671200D02*
X168125000Y-87249100D01*
X168125000Y-87249100D02*
X168125000Y-87334000D01*
D19*
G36*
X142283446Y-50378587D02*
G01*
X142363704Y-50402819D01*
X142437733Y-50442180D01*
X142502705Y-50495170D01*
X142556150Y-50559773D01*
X142596028Y-50633526D01*
X142620821Y-50713618D01*
X142633001Y-50829507D01*
X142633000Y-69884876D01*
X142635999Y-69915325D01*
X142635950Y-69922327D01*
X142636917Y-69932193D01*
X142660234Y-70154045D01*
X142673171Y-70217069D01*
X142685232Y-70280295D01*
X142688097Y-70289785D01*
X142754062Y-70502883D01*
X142778988Y-70562178D01*
X142803106Y-70621872D01*
X142807760Y-70630624D01*
X142913860Y-70826852D01*
X142949836Y-70880187D01*
X142985080Y-70934046D01*
X142991345Y-70941728D01*
X143133539Y-71113610D01*
X143179174Y-71158928D01*
X143224223Y-71204930D01*
X143231861Y-71211249D01*
X143404731Y-71352238D01*
X143458275Y-71387813D01*
X143511429Y-71424208D01*
X143520150Y-71428923D01*
X143717114Y-71533649D01*
X143776579Y-71558159D01*
X143835753Y-71583521D01*
X143845223Y-71586452D01*
X144058776Y-71650928D01*
X144121844Y-71663416D01*
X144184848Y-71676808D01*
X144194707Y-71677844D01*
X144416717Y-71699612D01*
X144416723Y-71699612D01*
X144451123Y-71703000D01*
X202530271Y-71703000D01*
X202648446Y-71714587D01*
X202728704Y-71738819D01*
X202802733Y-71778180D01*
X202867705Y-71831170D01*
X202921150Y-71895773D01*
X202961028Y-71969526D01*
X202985821Y-72049618D01*
X202998001Y-72165507D01*
X202998000Y-102708271D01*
X202986413Y-102826446D01*
X202962182Y-102906703D01*
X202922819Y-102980734D01*
X202869827Y-103045708D01*
X202805225Y-103099152D01*
X202731473Y-103139029D01*
X202651383Y-103163821D01*
X202535503Y-103176000D01*
X191189023Y-103176000D01*
X191158574Y-103178999D01*
X191151573Y-103178950D01*
X191141707Y-103179917D01*
X190919855Y-103203234D01*
X190856831Y-103216171D01*
X190793605Y-103228232D01*
X190784121Y-103231096D01*
X190784117Y-103231097D01*
X190784114Y-103231098D01*
X190784115Y-103231098D01*
X190571017Y-103297062D01*
X190511708Y-103321994D01*
X190452029Y-103346106D01*
X190443276Y-103350760D01*
X190247049Y-103456860D01*
X190193717Y-103492833D01*
X190139855Y-103528079D01*
X190132175Y-103534343D01*
X190132171Y-103534346D01*
X190132167Y-103534350D01*
X189960290Y-103676538D01*
X189914953Y-103722193D01*
X189868970Y-103767223D01*
X189862651Y-103774861D01*
X189721661Y-103947731D01*
X189686041Y-104001343D01*
X189649692Y-104054430D01*
X189644977Y-104063150D01*
X189540250Y-104260114D01*
X189515727Y-104319612D01*
X189490379Y-104378753D01*
X189487448Y-104388223D01*
X189422972Y-104601776D01*
X189410484Y-104664844D01*
X189397092Y-104727848D01*
X189396056Y-104737707D01*
X189374288Y-104959717D01*
X189374288Y-104959733D01*
X189370901Y-104994123D01*
X189370901Y-105405374D01*
X189324025Y-105348255D01*
X189227334Y-105268903D01*
X189117020Y-105209938D01*
X188997322Y-105173628D01*
X188872840Y-105161368D01*
X187072840Y-105161368D01*
X186948358Y-105173628D01*
X186828660Y-105209938D01*
X186718346Y-105268903D01*
X186702840Y-105281628D01*
X186687334Y-105268903D01*
X186577020Y-105209938D01*
X186457322Y-105173628D01*
X186332840Y-105161368D01*
X184532840Y-105161368D01*
X184408358Y-105173628D01*
X184288660Y-105209938D01*
X184178346Y-105268903D01*
X184162840Y-105281628D01*
X184147334Y-105268903D01*
X184037020Y-105209938D01*
X183917322Y-105173628D01*
X183792840Y-105161368D01*
X181992840Y-105161368D01*
X181868358Y-105173628D01*
X181748660Y-105209938D01*
X181638346Y-105268903D01*
X181622840Y-105281628D01*
X181607334Y-105268903D01*
X181497020Y-105209938D01*
X181377322Y-105173628D01*
X181252840Y-105161368D01*
X181047396Y-105161368D01*
X180987774Y-105049823D01*
X180916599Y-104963097D01*
X180892801Y-104934099D01*
X180863803Y-104910301D01*
X180241800Y-104288299D01*
X180241800Y-98636735D01*
X180264997Y-98602018D01*
X182370122Y-98602018D01*
X182370122Y-99187782D01*
X182484399Y-99762290D01*
X182708561Y-100303465D01*
X183033994Y-100790509D01*
X183448191Y-101204706D01*
X183935235Y-101530139D01*
X184476410Y-101754301D01*
X185050918Y-101868578D01*
X185636682Y-101868578D01*
X186211190Y-101754301D01*
X186752365Y-101530139D01*
X187239409Y-101204706D01*
X187653606Y-100790509D01*
X187979039Y-100303465D01*
X188203201Y-99762290D01*
X188317478Y-99187782D01*
X188317478Y-98602018D01*
X188203201Y-98027510D01*
X187979039Y-97486335D01*
X187653606Y-96999291D01*
X187239409Y-96585094D01*
X186752365Y-96259661D01*
X186211190Y-96035499D01*
X185636682Y-95921222D01*
X185050918Y-95921222D01*
X184476410Y-96035499D01*
X183935235Y-96259661D01*
X183448191Y-96585094D01*
X183033994Y-96999291D01*
X182708561Y-97486335D01*
X182484399Y-98027510D01*
X182370122Y-98602018D01*
X180264997Y-98602018D01*
X180310386Y-98534089D01*
X180380868Y-98363929D01*
X180416800Y-98183289D01*
X180416800Y-97999111D01*
X180380868Y-97818471D01*
X180310386Y-97648311D01*
X180208062Y-97495172D01*
X180077828Y-97364938D01*
X179924689Y-97262614D01*
X179754529Y-97192132D01*
X179573889Y-97156200D01*
X179389711Y-97156200D01*
X179209071Y-97192132D01*
X179138000Y-97221570D01*
X179138000Y-93952235D01*
X179206586Y-93849589D01*
X179277068Y-93679429D01*
X179313000Y-93498789D01*
X179313000Y-93314611D01*
X179277068Y-93133971D01*
X179206586Y-92963811D01*
X179128121Y-92846380D01*
X191994704Y-79979798D01*
X192023701Y-79956001D01*
X192118674Y-79840276D01*
X192189246Y-79708247D01*
X192232703Y-79564986D01*
X192243700Y-79453333D01*
X192243700Y-79453332D01*
X192247377Y-79416000D01*
X192243700Y-79378667D01*
X192243700Y-79028484D01*
X192512740Y-79082000D01*
X192805260Y-79082000D01*
X193092158Y-79024932D01*
X193362411Y-78912990D01*
X193605632Y-78750475D01*
X193812475Y-78543632D01*
X193887065Y-78432000D01*
X193907581Y-78432000D01*
X193948600Y-78436040D01*
X193972089Y-78433727D01*
X194045525Y-78543632D01*
X194252368Y-78750475D01*
X194495589Y-78912990D01*
X194765842Y-79024932D01*
X195052740Y-79082000D01*
X195345260Y-79082000D01*
X195632158Y-79024932D01*
X195902411Y-78912990D01*
X196145632Y-78750475D01*
X196352475Y-78543632D01*
X196514990Y-78300411D01*
X196626932Y-78030158D01*
X196684000Y-77743260D01*
X196684000Y-77450740D01*
X196626932Y-77163842D01*
X196514990Y-76893589D01*
X196352475Y-76650368D01*
X196220620Y-76518513D01*
X196293180Y-76496502D01*
X196403494Y-76437537D01*
X196500185Y-76358185D01*
X196579537Y-76261494D01*
X196638502Y-76151180D01*
X196674812Y-76031482D01*
X196678924Y-75989721D01*
X198144000Y-75989721D01*
X198144000Y-76410279D01*
X198226047Y-76822756D01*
X198386988Y-77211302D01*
X198620637Y-77560983D01*
X198918017Y-77858363D01*
X199267698Y-78092012D01*
X199656244Y-78252953D01*
X200068721Y-78335000D01*
X200489279Y-78335000D01*
X200901756Y-78252953D01*
X201290302Y-78092012D01*
X201639983Y-77858363D01*
X201937363Y-77560983D01*
X202171012Y-77211302D01*
X202331953Y-76822756D01*
X202414000Y-76410279D01*
X202414000Y-75989721D01*
X202331953Y-75577244D01*
X202171012Y-75188698D01*
X201937363Y-74839017D01*
X201639983Y-74541637D01*
X201290302Y-74307988D01*
X200901756Y-74147047D01*
X200489279Y-74065000D01*
X200068721Y-74065000D01*
X199656244Y-74147047D01*
X199267698Y-74307988D01*
X198918017Y-74541637D01*
X198620637Y-74839017D01*
X198386988Y-75188698D01*
X198226047Y-75577244D01*
X198144000Y-75989721D01*
X196678924Y-75989721D01*
X196687072Y-75907000D01*
X196687072Y-74207000D01*
X196674812Y-74082518D01*
X196638502Y-73962820D01*
X196579537Y-73852506D01*
X196500185Y-73755815D01*
X196403494Y-73676463D01*
X196293180Y-73617498D01*
X196173482Y-73581188D01*
X196049000Y-73568928D01*
X194349000Y-73568928D01*
X194224518Y-73581188D01*
X194159023Y-73601056D01*
X192802246Y-72244279D01*
X192776091Y-72212409D01*
X192648946Y-72108064D01*
X192503887Y-72030528D01*
X192346489Y-71982782D01*
X192223819Y-71970700D01*
X192223818Y-71970700D01*
X192182800Y-71966660D01*
X192141782Y-71970700D01*
X143949307Y-71970700D01*
X143908299Y-71966661D01*
X143867291Y-71970700D01*
X143867281Y-71970700D01*
X143744611Y-71982782D01*
X143587213Y-72030528D01*
X143442154Y-72108064D01*
X143315009Y-72212409D01*
X143288859Y-72244273D01*
X137054788Y-78478345D01*
X136900111Y-78542414D01*
X136746972Y-78644738D01*
X136736006Y-78655704D01*
X114723072Y-56642771D01*
X114723072Y-56385750D01*
X114706608Y-56218592D01*
X114657850Y-56057858D01*
X114578671Y-55909725D01*
X114502164Y-55816500D01*
X114578671Y-55723275D01*
X114657850Y-55575142D01*
X114706608Y-55414408D01*
X114723072Y-55247250D01*
X114723072Y-54734750D01*
X114706608Y-54567592D01*
X114657850Y-54406858D01*
X114578671Y-54258725D01*
X114481664Y-54140520D01*
X114537671Y-54072275D01*
X114616850Y-53924142D01*
X114665608Y-53763408D01*
X114682072Y-53596250D01*
X114682072Y-53083750D01*
X114665608Y-52916592D01*
X114616850Y-52755858D01*
X114537671Y-52607725D01*
X114431115Y-52477885D01*
X114301275Y-52371329D01*
X114153142Y-52292150D01*
X113992408Y-52243392D01*
X113825250Y-52226928D01*
X113387750Y-52226928D01*
X113220592Y-52243392D01*
X113059858Y-52292150D01*
X112911725Y-52371329D01*
X112819000Y-52447426D01*
X112726275Y-52371329D01*
X112578142Y-52292150D01*
X112417408Y-52243392D01*
X112250250Y-52226928D01*
X111812750Y-52226928D01*
X111645592Y-52243392D01*
X111484858Y-52292150D01*
X111336725Y-52371329D01*
X111206885Y-52477885D01*
X111123082Y-52580000D01*
X110524025Y-52580000D01*
X110497181Y-52577356D01*
X110421489Y-52562300D01*
X110237311Y-52562300D01*
X110056671Y-52598232D01*
X109886511Y-52668714D01*
X109733372Y-52771038D01*
X109603138Y-52901272D01*
X109500814Y-53054411D01*
X109430332Y-53224571D01*
X109394400Y-53405211D01*
X109394400Y-53589389D01*
X109430332Y-53770029D01*
X109500814Y-53940189D01*
X109603138Y-54093328D01*
X109733372Y-54223562D01*
X109761534Y-54242379D01*
X109728072Y-54264738D01*
X109597838Y-54394972D01*
X109495514Y-54548111D01*
X109425032Y-54718271D01*
X109389100Y-54898911D01*
X109389100Y-55083089D01*
X109425032Y-55263729D01*
X109495514Y-55433889D01*
X109597838Y-55587028D01*
X109728072Y-55717262D01*
X109792118Y-55760056D01*
X109757872Y-55782938D01*
X109627638Y-55913172D01*
X109525314Y-56066311D01*
X109454832Y-56236471D01*
X109418900Y-56417111D01*
X109418900Y-56601289D01*
X109454832Y-56781929D01*
X109525314Y-56952089D01*
X109627638Y-57105228D01*
X109757872Y-57235462D01*
X109911011Y-57337786D01*
X110081171Y-57408268D01*
X110261811Y-57444200D01*
X110445989Y-57444200D01*
X110626629Y-57408268D01*
X110641761Y-57402000D01*
X111164082Y-57402000D01*
X111247885Y-57504115D01*
X111377725Y-57610671D01*
X111525858Y-57689850D01*
X111686592Y-57738608D01*
X111853750Y-57755072D01*
X112291250Y-57755072D01*
X112458408Y-57738608D01*
X112619142Y-57689850D01*
X112767275Y-57610671D01*
X112860000Y-57534574D01*
X112952725Y-57610671D01*
X113100858Y-57689850D01*
X113261592Y-57738608D01*
X113428750Y-57755072D01*
X113685771Y-57755072D01*
X136662001Y-80731303D01*
X136685799Y-80760301D01*
X136801524Y-80855274D01*
X136933553Y-80925846D01*
X137076814Y-80969303D01*
X137188467Y-80980300D01*
X137188475Y-80980300D01*
X137225800Y-80983976D01*
X137263125Y-80980300D01*
X137327598Y-80980300D01*
X120744181Y-97563718D01*
X120596408Y-97518892D01*
X120429250Y-97502428D01*
X119991750Y-97502428D01*
X119824592Y-97518892D01*
X119663858Y-97567650D01*
X119515725Y-97646829D01*
X119423000Y-97722926D01*
X119330275Y-97646829D01*
X119182142Y-97567650D01*
X119021408Y-97518892D01*
X118854250Y-97502428D01*
X118416750Y-97502428D01*
X118411677Y-97502928D01*
X118192145Y-97283413D01*
X118168068Y-97162371D01*
X118097586Y-96992211D01*
X117995262Y-96839072D01*
X117865028Y-96708838D01*
X117711889Y-96606514D01*
X117541729Y-96536032D01*
X117361089Y-96500100D01*
X117176911Y-96500100D01*
X116996271Y-96536032D01*
X116826111Y-96606514D01*
X116672972Y-96708838D01*
X116542738Y-96839072D01*
X116440414Y-96992211D01*
X116369932Y-97162371D01*
X116334000Y-97343011D01*
X116334000Y-97527189D01*
X116369932Y-97707829D01*
X116440414Y-97877989D01*
X116542738Y-98031128D01*
X116672972Y-98161362D01*
X116826111Y-98263686D01*
X116996271Y-98334168D01*
X117117389Y-98358260D01*
X117467677Y-98708521D01*
X115605503Y-100570696D01*
X115576499Y-100594499D01*
X115528017Y-100653575D01*
X115481526Y-100710224D01*
X115430628Y-100805447D01*
X115422304Y-100821019D01*
X115421725Y-100821329D01*
X115291885Y-100927885D01*
X115185329Y-101057725D01*
X115106150Y-101205858D01*
X115057392Y-101366592D01*
X115040928Y-101533750D01*
X115040928Y-102046250D01*
X115057392Y-102213408D01*
X115106150Y-102374142D01*
X115185329Y-102522275D01*
X115291885Y-102652115D01*
X115421725Y-102758671D01*
X115569858Y-102837850D01*
X115730592Y-102886608D01*
X115897750Y-102903072D01*
X116335250Y-102903072D01*
X116502408Y-102886608D01*
X116663142Y-102837850D01*
X116811275Y-102758671D01*
X116832930Y-102740900D01*
X116899506Y-102795537D01*
X117009820Y-102854502D01*
X117129518Y-102890812D01*
X117254000Y-102903072D01*
X117405750Y-102900000D01*
X117564500Y-102741250D01*
X117564500Y-101917000D01*
X117818500Y-101917000D01*
X117818500Y-102741250D01*
X117977250Y-102900000D01*
X118129000Y-102903072D01*
X118253482Y-102890812D01*
X118373180Y-102854502D01*
X118483494Y-102795537D01*
X118580185Y-102716185D01*
X118659537Y-102619494D01*
X118718502Y-102509180D01*
X118754812Y-102389482D01*
X118767072Y-102265000D01*
X119908928Y-102265000D01*
X119921188Y-102389482D01*
X119957498Y-102509180D01*
X120016463Y-102619494D01*
X120095815Y-102716185D01*
X120192506Y-102795537D01*
X120302820Y-102854502D01*
X120422518Y-102890812D01*
X120547000Y-102903072D01*
X120698750Y-102900000D01*
X120857500Y-102741250D01*
X120857500Y-101917000D01*
X120070750Y-101917000D01*
X119912000Y-102075750D01*
X119908928Y-102265000D01*
X118767072Y-102265000D01*
X118764000Y-102075750D01*
X118605250Y-101917000D01*
X117818500Y-101917000D01*
X117564500Y-101917000D01*
X117544500Y-101917000D01*
X117544500Y-101663000D01*
X117564500Y-101663000D01*
X117564500Y-100838750D01*
X117818500Y-100838750D01*
X117818500Y-101663000D01*
X118605250Y-101663000D01*
X118764000Y-101504250D01*
X118767072Y-101315000D01*
X119908928Y-101315000D01*
X119912000Y-101504250D01*
X120070750Y-101663000D01*
X120857500Y-101663000D01*
X120857500Y-100838750D01*
X120698750Y-100680000D01*
X120547000Y-100676928D01*
X120422518Y-100689188D01*
X120302820Y-100725498D01*
X120192506Y-100784463D01*
X120095815Y-100863815D01*
X120016463Y-100960506D01*
X119957498Y-101070820D01*
X119921188Y-101190518D01*
X119908928Y-101315000D01*
X118767072Y-101315000D01*
X118754812Y-101190518D01*
X118718502Y-101070820D01*
X118659537Y-100960506D01*
X118580185Y-100863815D01*
X118483494Y-100784463D01*
X118373180Y-100725498D01*
X118253482Y-100689188D01*
X118129000Y-100676928D01*
X117977250Y-100680000D01*
X117818500Y-100838750D01*
X117564500Y-100838750D01*
X117525776Y-100800026D01*
X118456302Y-99869500D01*
X137174928Y-99869500D01*
X137187188Y-99993982D01*
X137223498Y-100113680D01*
X137282463Y-100223994D01*
X137361815Y-100320685D01*
X137458506Y-100400037D01*
X137568820Y-100459002D01*
X137688518Y-100495312D01*
X137813000Y-100507572D01*
X137827250Y-100504500D01*
X137986000Y-100345750D01*
X137986000Y-98996500D01*
X138240000Y-98996500D01*
X138240000Y-100345750D01*
X138398750Y-100504500D01*
X138413000Y-100507572D01*
X138537482Y-100495312D01*
X138657180Y-100459002D01*
X138748000Y-100410457D01*
X138838820Y-100459002D01*
X138958518Y-100495312D01*
X139083000Y-100507572D01*
X139097250Y-100504500D01*
X139256000Y-100345750D01*
X139256000Y-98996500D01*
X138240000Y-98996500D01*
X137986000Y-98996500D01*
X137336750Y-98996500D01*
X137178000Y-99155250D01*
X137174928Y-99869500D01*
X118456302Y-99869500D01*
X118597230Y-99728572D01*
X118854250Y-99728572D01*
X119021408Y-99712108D01*
X119182142Y-99663350D01*
X119330275Y-99584171D01*
X119423000Y-99508074D01*
X119515725Y-99584171D01*
X119663858Y-99663350D01*
X119824592Y-99712108D01*
X119991750Y-99728572D01*
X120429250Y-99728572D01*
X120596408Y-99712108D01*
X120757142Y-99663350D01*
X120905275Y-99584171D01*
X121035115Y-99477615D01*
X121141671Y-99347775D01*
X121195402Y-99247252D01*
X121307201Y-99155501D01*
X121331004Y-99126497D01*
X126420349Y-94037152D01*
X126520794Y-94542126D01*
X126741554Y-95075088D01*
X127062048Y-95554741D01*
X127469959Y-95962652D01*
X127949612Y-96283146D01*
X128482574Y-96503906D01*
X129048363Y-96616448D01*
X129625237Y-96616448D01*
X130191026Y-96503906D01*
X130723988Y-96283146D01*
X131203641Y-95962652D01*
X131611552Y-95554741D01*
X131932046Y-95075088D01*
X132152806Y-94542126D01*
X132265348Y-93976337D01*
X132265348Y-93399463D01*
X132152806Y-92833674D01*
X131932046Y-92300712D01*
X131611552Y-91821059D01*
X131203641Y-91413148D01*
X130723988Y-91092654D01*
X130191026Y-90871894D01*
X129686052Y-90771449D01*
X129988001Y-90469500D01*
X137174928Y-90469500D01*
X137187188Y-90593982D01*
X137223498Y-90713680D01*
X137282463Y-90823994D01*
X137361815Y-90920685D01*
X137458506Y-91000037D01*
X137568820Y-91059002D01*
X137688518Y-91095312D01*
X137813000Y-91107572D01*
X137827250Y-91104500D01*
X137986000Y-90945750D01*
X137986000Y-89596500D01*
X137336750Y-89596500D01*
X137178000Y-89755250D01*
X137174928Y-90469500D01*
X129988001Y-90469500D01*
X145586971Y-74870531D01*
X145618186Y-74930000D01*
X146812000Y-74930000D01*
X146812000Y-74910000D01*
X147066000Y-74910000D01*
X147066000Y-74930000D01*
X147086000Y-74930000D01*
X147086000Y-75184000D01*
X147066000Y-75184000D01*
X147066000Y-75204000D01*
X146812000Y-75204000D01*
X146812000Y-75184000D01*
X145618186Y-75184000D01*
X145497519Y-75413891D01*
X145594843Y-75688252D01*
X145743822Y-75938355D01*
X145938731Y-76154588D01*
X146168406Y-76325900D01*
X145992368Y-76443525D01*
X145785525Y-76650368D01*
X145623010Y-76893589D01*
X145511068Y-77163842D01*
X145454000Y-77450740D01*
X145454000Y-77743260D01*
X145511068Y-78030158D01*
X145623010Y-78300411D01*
X145785525Y-78543632D01*
X145939196Y-78697303D01*
X138246598Y-86389901D01*
X138217600Y-86413699D01*
X138193802Y-86442697D01*
X138193801Y-86442698D01*
X138122626Y-86529424D01*
X138052054Y-86661454D01*
X138028806Y-86738097D01*
X138008598Y-86804714D01*
X137998790Y-86904299D01*
X137993924Y-86953700D01*
X137997601Y-86991032D01*
X137997601Y-87834500D01*
X137985998Y-87834500D01*
X137985998Y-87993248D01*
X137827250Y-87834500D01*
X137813000Y-87831428D01*
X137688518Y-87843688D01*
X137568820Y-87879998D01*
X137458506Y-87938963D01*
X137361815Y-88018315D01*
X137282463Y-88115006D01*
X137223498Y-88225320D01*
X137187188Y-88345018D01*
X137174928Y-88469500D01*
X137178000Y-89183750D01*
X137336750Y-89342500D01*
X137986000Y-89342500D01*
X137986000Y-89322500D01*
X137997600Y-89322500D01*
X137997600Y-90577277D01*
X137993924Y-90614600D01*
X137997600Y-90651922D01*
X137997600Y-90651932D01*
X138008597Y-90763585D01*
X138040938Y-90870200D01*
X138052054Y-90906846D01*
X138122626Y-91038876D01*
X138150067Y-91072312D01*
X138217599Y-91154601D01*
X138246603Y-91178404D01*
X140130100Y-93061902D01*
X140153899Y-93090901D01*
X140269624Y-93185874D01*
X140401653Y-93256446D01*
X140544914Y-93299903D01*
X140656567Y-93310900D01*
X140656575Y-93310900D01*
X140693900Y-93314576D01*
X140731225Y-93310900D01*
X145029076Y-93310900D01*
X145056532Y-93448929D01*
X145127014Y-93619089D01*
X145229338Y-93772228D01*
X145359572Y-93902462D01*
X145512711Y-94004786D01*
X145682871Y-94075268D01*
X145863511Y-94111200D01*
X146047689Y-94111200D01*
X146228329Y-94075268D01*
X146398489Y-94004786D01*
X146501135Y-93936200D01*
X149118199Y-93936200D01*
X150957799Y-95775800D01*
X137894207Y-95775800D01*
X137853199Y-95771761D01*
X137812191Y-95775800D01*
X137812181Y-95775800D01*
X137689511Y-95787882D01*
X137532113Y-95835628D01*
X137470176Y-95868734D01*
X137411871Y-95880332D01*
X137241711Y-95950814D01*
X137088572Y-96053138D01*
X136958338Y-96183372D01*
X136856014Y-96336511D01*
X136785532Y-96506671D01*
X136749600Y-96687311D01*
X136749600Y-96871489D01*
X136785532Y-97052129D01*
X136856014Y-97222289D01*
X136958338Y-97375428D01*
X137088572Y-97505662D01*
X137235118Y-97603581D01*
X137223498Y-97625320D01*
X137187188Y-97745018D01*
X137174928Y-97869500D01*
X137178000Y-98583750D01*
X137336750Y-98742500D01*
X137986000Y-98742500D01*
X137986000Y-98722500D01*
X138240000Y-98722500D01*
X138240000Y-98742500D01*
X139256000Y-98742500D01*
X139256000Y-98722500D01*
X139510000Y-98722500D01*
X139510000Y-98742500D01*
X139530000Y-98742500D01*
X139530000Y-98996500D01*
X139510000Y-98996500D01*
X139510000Y-100345750D01*
X139668750Y-100504500D01*
X139683000Y-100507572D01*
X139807482Y-100495312D01*
X139893001Y-100469370D01*
X139893000Y-103175310D01*
X139841738Y-103226572D01*
X139739414Y-103379711D01*
X139668932Y-103549871D01*
X139633000Y-103730511D01*
X139633000Y-103914689D01*
X139668932Y-104095329D01*
X139739414Y-104265489D01*
X139822365Y-104389634D01*
X139453413Y-104758586D01*
X139420553Y-104768554D01*
X139288524Y-104839126D01*
X139172799Y-104934099D01*
X139077826Y-105049824D01*
X139018204Y-105161368D01*
X138812840Y-105161368D01*
X138688358Y-105173628D01*
X138568660Y-105209938D01*
X138458346Y-105268903D01*
X138442840Y-105281628D01*
X138427334Y-105268903D01*
X138317020Y-105209938D01*
X138197322Y-105173628D01*
X138072840Y-105161368D01*
X137458590Y-105164440D01*
X137299840Y-105323190D01*
X137299840Y-109672440D01*
X137319840Y-109672440D01*
X137319840Y-109926440D01*
X137299840Y-109926440D01*
X137299840Y-109946440D01*
X137045840Y-109946440D01*
X137045840Y-109926440D01*
X134759840Y-109926440D01*
X134759840Y-109946440D01*
X134505840Y-109946440D01*
X134505840Y-109926440D01*
X134485840Y-109926440D01*
X134485840Y-109672440D01*
X134505840Y-109672440D01*
X134505840Y-105323190D01*
X134759840Y-105323190D01*
X134759840Y-109672440D01*
X137045840Y-109672440D01*
X137045840Y-105323190D01*
X136887090Y-105164440D01*
X136272840Y-105161368D01*
X136148358Y-105173628D01*
X136028660Y-105209938D01*
X135918346Y-105268903D01*
X135902840Y-105281628D01*
X135887334Y-105268903D01*
X135777020Y-105209938D01*
X135657322Y-105173628D01*
X135532840Y-105161368D01*
X134918590Y-105164440D01*
X134759840Y-105323190D01*
X134505840Y-105323190D01*
X134347090Y-105164440D01*
X133732840Y-105161368D01*
X133608358Y-105173628D01*
X133488660Y-105209938D01*
X133378346Y-105268903D01*
X133362840Y-105281628D01*
X133347334Y-105268903D01*
X133285032Y-105235601D01*
X133356928Y-105187562D01*
X133487162Y-105057328D01*
X133589486Y-104904189D01*
X133659968Y-104734029D01*
X133695900Y-104553389D01*
X133695900Y-104369211D01*
X133659968Y-104188571D01*
X133589486Y-104018411D01*
X133487162Y-103865272D01*
X133356928Y-103735038D01*
X133203789Y-103632714D01*
X133033629Y-103562232D01*
X132852989Y-103526300D01*
X132668811Y-103526300D01*
X132488171Y-103562232D01*
X132318011Y-103632714D01*
X132164872Y-103735038D01*
X132034638Y-103865272D01*
X131932314Y-104018411D01*
X131868246Y-104173087D01*
X131531378Y-104509954D01*
X131499509Y-104536109D01*
X131476538Y-104564100D01*
X129593819Y-104564100D01*
X129552800Y-104560060D01*
X129511782Y-104564100D01*
X129511781Y-104564100D01*
X129389111Y-104576182D01*
X129231713Y-104623928D01*
X129086654Y-104701464D01*
X128959509Y-104805809D01*
X128855164Y-104932954D01*
X128777628Y-105078013D01*
X128752343Y-105161368D01*
X128652840Y-105161368D01*
X128528358Y-105173628D01*
X128408660Y-105209938D01*
X128298346Y-105268903D01*
X128282840Y-105281628D01*
X128267334Y-105268903D01*
X128157020Y-105209938D01*
X128037322Y-105173628D01*
X127912840Y-105161368D01*
X127707396Y-105161368D01*
X127647774Y-105049824D01*
X127552801Y-104934099D01*
X127523803Y-104910301D01*
X124770787Y-102157286D01*
X124845086Y-102046089D01*
X124915568Y-101875929D01*
X124951500Y-101695289D01*
X124951500Y-101511111D01*
X124915568Y-101330471D01*
X124845086Y-101160311D01*
X124742762Y-101007172D01*
X124612528Y-100876938D01*
X124459389Y-100774614D01*
X124289229Y-100704132D01*
X124108589Y-100668200D01*
X123924411Y-100668200D01*
X123743771Y-100704132D01*
X123573611Y-100774614D01*
X123420472Y-100876938D01*
X123376101Y-100921309D01*
X123254275Y-100821329D01*
X123106142Y-100742150D01*
X122945408Y-100693392D01*
X122778250Y-100676928D01*
X122340750Y-100676928D01*
X122173592Y-100693392D01*
X122012858Y-100742150D01*
X121864725Y-100821329D01*
X121843070Y-100839100D01*
X121776494Y-100784463D01*
X121666180Y-100725498D01*
X121546482Y-100689188D01*
X121422000Y-100676928D01*
X121270250Y-100680000D01*
X121111500Y-100838750D01*
X121111500Y-101663000D01*
X121131500Y-101663000D01*
X121131500Y-101917000D01*
X121111500Y-101917000D01*
X121111500Y-102741250D01*
X121270250Y-102900000D01*
X121422000Y-102903072D01*
X121546482Y-102890812D01*
X121666180Y-102854502D01*
X121776494Y-102795537D01*
X121843070Y-102740900D01*
X121864725Y-102758671D01*
X122012858Y-102837850D01*
X122173592Y-102886608D01*
X122340750Y-102903072D01*
X122778250Y-102903072D01*
X122945408Y-102886608D01*
X123106142Y-102837850D01*
X123233614Y-102769715D01*
X123652399Y-103188500D01*
X114462215Y-103176048D01*
X114343554Y-103164413D01*
X114263297Y-103140182D01*
X114189266Y-103100819D01*
X114124292Y-103047827D01*
X114070848Y-102983225D01*
X114030971Y-102909473D01*
X114006179Y-102829383D01*
X113994000Y-102713503D01*
X113994000Y-94072123D01*
X113991001Y-94041674D01*
X113991050Y-94034673D01*
X113990083Y-94024807D01*
X113966766Y-93802955D01*
X113953829Y-93739931D01*
X113941768Y-93676705D01*
X113938902Y-93667215D01*
X113872938Y-93454117D01*
X113848005Y-93394804D01*
X113823894Y-93335129D01*
X113819240Y-93326376D01*
X113713140Y-93130149D01*
X113677167Y-93076817D01*
X113641921Y-93022955D01*
X113635655Y-93015273D01*
X113635654Y-93015271D01*
X113635650Y-93015267D01*
X113493462Y-92843390D01*
X113447807Y-92798053D01*
X113402777Y-92752070D01*
X113395139Y-92745751D01*
X113222269Y-92604761D01*
X113168657Y-92569141D01*
X113115570Y-92532792D01*
X113106850Y-92528077D01*
X112909886Y-92423350D01*
X112850388Y-92398827D01*
X112791247Y-92373479D01*
X112781777Y-92370548D01*
X112568224Y-92306072D01*
X112505156Y-92293584D01*
X112442152Y-92280192D01*
X112432293Y-92279156D01*
X112210283Y-92257388D01*
X112210277Y-92257388D01*
X112175877Y-92254000D01*
X105889229Y-92254000D01*
X105771054Y-92242413D01*
X105690797Y-92218182D01*
X105616766Y-92178819D01*
X105551792Y-92125827D01*
X105498348Y-92061225D01*
X105458471Y-91987473D01*
X105433679Y-91907383D01*
X105421500Y-91791503D01*
X105421500Y-50834729D01*
X105433087Y-50716554D01*
X105457319Y-50636296D01*
X105496680Y-50562267D01*
X105549670Y-50497295D01*
X105614273Y-50443850D01*
X105688026Y-50403972D01*
X105768118Y-50379179D01*
X105883997Y-50367000D01*
X142165271Y-50367000D01*
X142283446Y-50378587D01*
G37*
X142283446Y-50378587D02*
X142363704Y-50402819D01*
X142437733Y-50442180D01*
X142502705Y-50495170D01*
X142556150Y-50559773D01*
X142596028Y-50633526D01*
X142620821Y-50713618D01*
X142633001Y-50829507D01*
X142633000Y-69884876D01*
X142635999Y-69915325D01*
X142635950Y-69922327D01*
X142636917Y-69932193D01*
X142660234Y-70154045D01*
X142673171Y-70217069D01*
X142685232Y-70280295D01*
X142688097Y-70289785D01*
X142754062Y-70502883D01*
X142778988Y-70562178D01*
X142803106Y-70621872D01*
X142807760Y-70630624D01*
X142913860Y-70826852D01*
X142949836Y-70880187D01*
X142985080Y-70934046D01*
X142991345Y-70941728D01*
X143133539Y-71113610D01*
X143179174Y-71158928D01*
X143224223Y-71204930D01*
X143231861Y-71211249D01*
X143404731Y-71352238D01*
X143458275Y-71387813D01*
X143511429Y-71424208D01*
X143520150Y-71428923D01*
X143717114Y-71533649D01*
X143776579Y-71558159D01*
X143835753Y-71583521D01*
X143845223Y-71586452D01*
X144058776Y-71650928D01*
X144121844Y-71663416D01*
X144184848Y-71676808D01*
X144194707Y-71677844D01*
X144416717Y-71699612D01*
X144416723Y-71699612D01*
X144451123Y-71703000D01*
X202530271Y-71703000D01*
X202648446Y-71714587D01*
X202728704Y-71738819D01*
X202802733Y-71778180D01*
X202867705Y-71831170D01*
X202921150Y-71895773D01*
X202961028Y-71969526D01*
X202985821Y-72049618D01*
X202998001Y-72165507D01*
X202998000Y-102708271D01*
X202986413Y-102826446D01*
X202962182Y-102906703D01*
X202922819Y-102980734D01*
X202869827Y-103045708D01*
X202805225Y-103099152D01*
X202731473Y-103139029D01*
X202651383Y-103163821D01*
X202535503Y-103176000D01*
X191189023Y-103176000D01*
X191158574Y-103178999D01*
X191151573Y-103178950D01*
X191141707Y-103179917D01*
X190919855Y-103203234D01*
X190856831Y-103216171D01*
X190793605Y-103228232D01*
X190784121Y-103231096D01*
X190784117Y-103231097D01*
X190784114Y-103231098D01*
X190784115Y-103231098D01*
X190571017Y-103297062D01*
X190511708Y-103321994D01*
X190452029Y-103346106D01*
X190443276Y-103350760D01*
X190247049Y-103456860D01*
X190193717Y-103492833D01*
X190139855Y-103528079D01*
X190132175Y-103534343D01*
X190132171Y-103534346D01*
X190132167Y-103534350D01*
X189960290Y-103676538D01*
X189914953Y-103722193D01*
X189868970Y-103767223D01*
X189862651Y-103774861D01*
X189721661Y-103947731D01*
X189686041Y-104001343D01*
X189649692Y-104054430D01*
X189644977Y-104063150D01*
X189540250Y-104260114D01*
X189515727Y-104319612D01*
X189490379Y-104378753D01*
X189487448Y-104388223D01*
X189422972Y-104601776D01*
X189410484Y-104664844D01*
X189397092Y-104727848D01*
X189396056Y-104737707D01*
X189374288Y-104959717D01*
X189374288Y-104959733D01*
X189370901Y-104994123D01*
X189370901Y-105405374D01*
X189324025Y-105348255D01*
X189227334Y-105268903D01*
X189117020Y-105209938D01*
X188997322Y-105173628D01*
X188872840Y-105161368D01*
X187072840Y-105161368D01*
X186948358Y-105173628D01*
X186828660Y-105209938D01*
X186718346Y-105268903D01*
X186702840Y-105281628D01*
X186687334Y-105268903D01*
X186577020Y-105209938D01*
X186457322Y-105173628D01*
X186332840Y-105161368D01*
X184532840Y-105161368D01*
X184408358Y-105173628D01*
X184288660Y-105209938D01*
X184178346Y-105268903D01*
X184162840Y-105281628D01*
X184147334Y-105268903D01*
X184037020Y-105209938D01*
X183917322Y-105173628D01*
X183792840Y-105161368D01*
X181992840Y-105161368D01*
X181868358Y-105173628D01*
X181748660Y-105209938D01*
X181638346Y-105268903D01*
X181622840Y-105281628D01*
X181607334Y-105268903D01*
X181497020Y-105209938D01*
X181377322Y-105173628D01*
X181252840Y-105161368D01*
X181047396Y-105161368D01*
X180987774Y-105049823D01*
X180916599Y-104963097D01*
X180892801Y-104934099D01*
X180863803Y-104910301D01*
X180241800Y-104288299D01*
X180241800Y-98636735D01*
X180264997Y-98602018D01*
X182370122Y-98602018D01*
X182370122Y-99187782D01*
X182484399Y-99762290D01*
X182708561Y-100303465D01*
X183033994Y-100790509D01*
X183448191Y-101204706D01*
X183935235Y-101530139D01*
X184476410Y-101754301D01*
X185050918Y-101868578D01*
X185636682Y-101868578D01*
X186211190Y-101754301D01*
X186752365Y-101530139D01*
X187239409Y-101204706D01*
X187653606Y-100790509D01*
X187979039Y-100303465D01*
X188203201Y-99762290D01*
X188317478Y-99187782D01*
X188317478Y-98602018D01*
X188203201Y-98027510D01*
X187979039Y-97486335D01*
X187653606Y-96999291D01*
X187239409Y-96585094D01*
X186752365Y-96259661D01*
X186211190Y-96035499D01*
X185636682Y-95921222D01*
X185050918Y-95921222D01*
X184476410Y-96035499D01*
X183935235Y-96259661D01*
X183448191Y-96585094D01*
X183033994Y-96999291D01*
X182708561Y-97486335D01*
X182484399Y-98027510D01*
X182370122Y-98602018D01*
X180264997Y-98602018D01*
X180310386Y-98534089D01*
X180380868Y-98363929D01*
X180416800Y-98183289D01*
X180416800Y-97999111D01*
X180380868Y-97818471D01*
X180310386Y-97648311D01*
X180208062Y-97495172D01*
X180077828Y-97364938D01*
X179924689Y-97262614D01*
X179754529Y-97192132D01*
X179573889Y-97156200D01*
X179389711Y-97156200D01*
X179209071Y-97192132D01*
X179138000Y-97221570D01*
X179138000Y-93952235D01*
X179206586Y-93849589D01*
X179277068Y-93679429D01*
X179313000Y-93498789D01*
X179313000Y-93314611D01*
X179277068Y-93133971D01*
X179206586Y-92963811D01*
X179128121Y-92846380D01*
X191994704Y-79979798D01*
X192023701Y-79956001D01*
X192118674Y-79840276D01*
X192189246Y-79708247D01*
X192232703Y-79564986D01*
X192243700Y-79453333D01*
X192243700Y-79453332D01*
X192247377Y-79416000D01*
X192243700Y-79378667D01*
X192243700Y-79028484D01*
X192512740Y-79082000D01*
X192805260Y-79082000D01*
X193092158Y-79024932D01*
X193362411Y-78912990D01*
X193605632Y-78750475D01*
X193812475Y-78543632D01*
X193887065Y-78432000D01*
X193907581Y-78432000D01*
X193948600Y-78436040D01*
X193972089Y-78433727D01*
X194045525Y-78543632D01*
X194252368Y-78750475D01*
X194495589Y-78912990D01*
X194765842Y-79024932D01*
X195052740Y-79082000D01*
X195345260Y-79082000D01*
X195632158Y-79024932D01*
X195902411Y-78912990D01*
X196145632Y-78750475D01*
X196352475Y-78543632D01*
X196514990Y-78300411D01*
X196626932Y-78030158D01*
X196684000Y-77743260D01*
X196684000Y-77450740D01*
X196626932Y-77163842D01*
X196514990Y-76893589D01*
X196352475Y-76650368D01*
X196220620Y-76518513D01*
X196293180Y-76496502D01*
X196403494Y-76437537D01*
X196500185Y-76358185D01*
X196579537Y-76261494D01*
X196638502Y-76151180D01*
X196674812Y-76031482D01*
X196678924Y-75989721D01*
X198144000Y-75989721D01*
X198144000Y-76410279D01*
X198226047Y-76822756D01*
X198386988Y-77211302D01*
X198620637Y-77560983D01*
X198918017Y-77858363D01*
X199267698Y-78092012D01*
X199656244Y-78252953D01*
X200068721Y-78335000D01*
X200489279Y-78335000D01*
X200901756Y-78252953D01*
X201290302Y-78092012D01*
X201639983Y-77858363D01*
X201937363Y-77560983D01*
X202171012Y-77211302D01*
X202331953Y-76822756D01*
X202414000Y-76410279D01*
X202414000Y-75989721D01*
X202331953Y-75577244D01*
X202171012Y-75188698D01*
X201937363Y-74839017D01*
X201639983Y-74541637D01*
X201290302Y-74307988D01*
X200901756Y-74147047D01*
X200489279Y-74065000D01*
X200068721Y-74065000D01*
X199656244Y-74147047D01*
X199267698Y-74307988D01*
X198918017Y-74541637D01*
X198620637Y-74839017D01*
X198386988Y-75188698D01*
X198226047Y-75577244D01*
X198144000Y-75989721D01*
X196678924Y-75989721D01*
X196687072Y-75907000D01*
X196687072Y-74207000D01*
X196674812Y-74082518D01*
X196638502Y-73962820D01*
X196579537Y-73852506D01*
X196500185Y-73755815D01*
X196403494Y-73676463D01*
X196293180Y-73617498D01*
X196173482Y-73581188D01*
X196049000Y-73568928D01*
X194349000Y-73568928D01*
X194224518Y-73581188D01*
X194159023Y-73601056D01*
X192802246Y-72244279D01*
X192776091Y-72212409D01*
X192648946Y-72108064D01*
X192503887Y-72030528D01*
X192346489Y-71982782D01*
X192223819Y-71970700D01*
X192223818Y-71970700D01*
X192182800Y-71966660D01*
X192141782Y-71970700D01*
X143949307Y-71970700D01*
X143908299Y-71966661D01*
X143867291Y-71970700D01*
X143867281Y-71970700D01*
X143744611Y-71982782D01*
X143587213Y-72030528D01*
X143442154Y-72108064D01*
X143315009Y-72212409D01*
X143288859Y-72244273D01*
X137054788Y-78478345D01*
X136900111Y-78542414D01*
X136746972Y-78644738D01*
X136736006Y-78655704D01*
X114723072Y-56642771D01*
X114723072Y-56385750D01*
X114706608Y-56218592D01*
X114657850Y-56057858D01*
X114578671Y-55909725D01*
X114502164Y-55816500D01*
X114578671Y-55723275D01*
X114657850Y-55575142D01*
X114706608Y-55414408D01*
X114723072Y-55247250D01*
X114723072Y-54734750D01*
X114706608Y-54567592D01*
X114657850Y-54406858D01*
X114578671Y-54258725D01*
X114481664Y-54140520D01*
X114537671Y-54072275D01*
X114616850Y-53924142D01*
X114665608Y-53763408D01*
X114682072Y-53596250D01*
X114682072Y-53083750D01*
X114665608Y-52916592D01*
X114616850Y-52755858D01*
X114537671Y-52607725D01*
X114431115Y-52477885D01*
X114301275Y-52371329D01*
X114153142Y-52292150D01*
X113992408Y-52243392D01*
X113825250Y-52226928D01*
X113387750Y-52226928D01*
X113220592Y-52243392D01*
X113059858Y-52292150D01*
X112911725Y-52371329D01*
X112819000Y-52447426D01*
X112726275Y-52371329D01*
X112578142Y-52292150D01*
X112417408Y-52243392D01*
X112250250Y-52226928D01*
X111812750Y-52226928D01*
X111645592Y-52243392D01*
X111484858Y-52292150D01*
X111336725Y-52371329D01*
X111206885Y-52477885D01*
X111123082Y-52580000D01*
X110524025Y-52580000D01*
X110497181Y-52577356D01*
X110421489Y-52562300D01*
X110237311Y-52562300D01*
X110056671Y-52598232D01*
X109886511Y-52668714D01*
X109733372Y-52771038D01*
X109603138Y-52901272D01*
X109500814Y-53054411D01*
X109430332Y-53224571D01*
X109394400Y-53405211D01*
X109394400Y-53589389D01*
X109430332Y-53770029D01*
X109500814Y-53940189D01*
X109603138Y-54093328D01*
X109733372Y-54223562D01*
X109761534Y-54242379D01*
X109728072Y-54264738D01*
X109597838Y-54394972D01*
X109495514Y-54548111D01*
X109425032Y-54718271D01*
X109389100Y-54898911D01*
X109389100Y-55083089D01*
X109425032Y-55263729D01*
X109495514Y-55433889D01*
X109597838Y-55587028D01*
X109728072Y-55717262D01*
X109792118Y-55760056D01*
X109757872Y-55782938D01*
X109627638Y-55913172D01*
X109525314Y-56066311D01*
X109454832Y-56236471D01*
X109418900Y-56417111D01*
X109418900Y-56601289D01*
X109454832Y-56781929D01*
X109525314Y-56952089D01*
X109627638Y-57105228D01*
X109757872Y-57235462D01*
X109911011Y-57337786D01*
X110081171Y-57408268D01*
X110261811Y-57444200D01*
X110445989Y-57444200D01*
X110626629Y-57408268D01*
X110641761Y-57402000D01*
X111164082Y-57402000D01*
X111247885Y-57504115D01*
X111377725Y-57610671D01*
X111525858Y-57689850D01*
X111686592Y-57738608D01*
X111853750Y-57755072D01*
X112291250Y-57755072D01*
X112458408Y-57738608D01*
X112619142Y-57689850D01*
X112767275Y-57610671D01*
X112860000Y-57534574D01*
X112952725Y-57610671D01*
X113100858Y-57689850D01*
X113261592Y-57738608D01*
X113428750Y-57755072D01*
X113685771Y-57755072D01*
X136662001Y-80731303D01*
X136685799Y-80760301D01*
X136801524Y-80855274D01*
X136933553Y-80925846D01*
X137076814Y-80969303D01*
X137188467Y-80980300D01*
X137188475Y-80980300D01*
X137225800Y-80983976D01*
X137263125Y-80980300D01*
X137327598Y-80980300D01*
X120744181Y-97563718D01*
X120596408Y-97518892D01*
X120429250Y-97502428D01*
X119991750Y-97502428D01*
X119824592Y-97518892D01*
X119663858Y-97567650D01*
X119515725Y-97646829D01*
X119423000Y-97722926D01*
X119330275Y-97646829D01*
X119182142Y-97567650D01*
X119021408Y-97518892D01*
X118854250Y-97502428D01*
X118416750Y-97502428D01*
X118411677Y-97502928D01*
X118192145Y-97283413D01*
X118168068Y-97162371D01*
X118097586Y-96992211D01*
X117995262Y-96839072D01*
X117865028Y-96708838D01*
X117711889Y-96606514D01*
X117541729Y-96536032D01*
X117361089Y-96500100D01*
X117176911Y-96500100D01*
X116996271Y-96536032D01*
X116826111Y-96606514D01*
X116672972Y-96708838D01*
X116542738Y-96839072D01*
X116440414Y-96992211D01*
X116369932Y-97162371D01*
X116334000Y-97343011D01*
X116334000Y-97527189D01*
X116369932Y-97707829D01*
X116440414Y-97877989D01*
X116542738Y-98031128D01*
X116672972Y-98161362D01*
X116826111Y-98263686D01*
X116996271Y-98334168D01*
X117117389Y-98358260D01*
X117467677Y-98708521D01*
X115605503Y-100570696D01*
X115576499Y-100594499D01*
X115528017Y-100653575D01*
X115481526Y-100710224D01*
X115430628Y-100805447D01*
X115422304Y-100821019D01*
X115421725Y-100821329D01*
X115291885Y-100927885D01*
X115185329Y-101057725D01*
X115106150Y-101205858D01*
X115057392Y-101366592D01*
X115040928Y-101533750D01*
X115040928Y-102046250D01*
X115057392Y-102213408D01*
X115106150Y-102374142D01*
X115185329Y-102522275D01*
X115291885Y-102652115D01*
X115421725Y-102758671D01*
X115569858Y-102837850D01*
X115730592Y-102886608D01*
X115897750Y-102903072D01*
X116335250Y-102903072D01*
X116502408Y-102886608D01*
X116663142Y-102837850D01*
X116811275Y-102758671D01*
X116832930Y-102740900D01*
X116899506Y-102795537D01*
X117009820Y-102854502D01*
X117129518Y-102890812D01*
X117254000Y-102903072D01*
X117405750Y-102900000D01*
X117564500Y-102741250D01*
X117564500Y-101917000D01*
X117818500Y-101917000D01*
X117818500Y-102741250D01*
X117977250Y-102900000D01*
X118129000Y-102903072D01*
X118253482Y-102890812D01*
X118373180Y-102854502D01*
X118483494Y-102795537D01*
X118580185Y-102716185D01*
X118659537Y-102619494D01*
X118718502Y-102509180D01*
X118754812Y-102389482D01*
X118767072Y-102265000D01*
X119908928Y-102265000D01*
X119921188Y-102389482D01*
X119957498Y-102509180D01*
X120016463Y-102619494D01*
X120095815Y-102716185D01*
X120192506Y-102795537D01*
X120302820Y-102854502D01*
X120422518Y-102890812D01*
X120547000Y-102903072D01*
X120698750Y-102900000D01*
X120857500Y-102741250D01*
X120857500Y-101917000D01*
X120070750Y-101917000D01*
X119912000Y-102075750D01*
X119908928Y-102265000D01*
X118767072Y-102265000D01*
X118764000Y-102075750D01*
X118605250Y-101917000D01*
X117818500Y-101917000D01*
X117564500Y-101917000D01*
X117544500Y-101917000D01*
X117544500Y-101663000D01*
X117564500Y-101663000D01*
X117564500Y-100838750D01*
X117818500Y-100838750D01*
X117818500Y-101663000D01*
X118605250Y-101663000D01*
X118764000Y-101504250D01*
X118767072Y-101315000D01*
X119908928Y-101315000D01*
X119912000Y-101504250D01*
X120070750Y-101663000D01*
X120857500Y-101663000D01*
X120857500Y-100838750D01*
X120698750Y-100680000D01*
X120547000Y-100676928D01*
X120422518Y-100689188D01*
X120302820Y-100725498D01*
X120192506Y-100784463D01*
X120095815Y-100863815D01*
X120016463Y-100960506D01*
X119957498Y-101070820D01*
X119921188Y-101190518D01*
X119908928Y-101315000D01*
X118767072Y-101315000D01*
X118754812Y-101190518D01*
X118718502Y-101070820D01*
X118659537Y-100960506D01*
X118580185Y-100863815D01*
X118483494Y-100784463D01*
X118373180Y-100725498D01*
X118253482Y-100689188D01*
X118129000Y-100676928D01*
X117977250Y-100680000D01*
X117818500Y-100838750D01*
X117564500Y-100838750D01*
X117525776Y-100800026D01*
X118456302Y-99869500D01*
X137174928Y-99869500D01*
X137187188Y-99993982D01*
X137223498Y-100113680D01*
X137282463Y-100223994D01*
X137361815Y-100320685D01*
X137458506Y-100400037D01*
X137568820Y-100459002D01*
X137688518Y-100495312D01*
X137813000Y-100507572D01*
X137827250Y-100504500D01*
X137986000Y-100345750D01*
X137986000Y-98996500D01*
X138240000Y-98996500D01*
X138240000Y-100345750D01*
X138398750Y-100504500D01*
X138413000Y-100507572D01*
X138537482Y-100495312D01*
X138657180Y-100459002D01*
X138748000Y-100410457D01*
X138838820Y-100459002D01*
X138958518Y-100495312D01*
X139083000Y-100507572D01*
X139097250Y-100504500D01*
X139256000Y-100345750D01*
X139256000Y-98996500D01*
X138240000Y-98996500D01*
X137986000Y-98996500D01*
X137336750Y-98996500D01*
X137178000Y-99155250D01*
X137174928Y-99869500D01*
X118456302Y-99869500D01*
X118597230Y-99728572D01*
X118854250Y-99728572D01*
X119021408Y-99712108D01*
X119182142Y-99663350D01*
X119330275Y-99584171D01*
X119423000Y-99508074D01*
X119515725Y-99584171D01*
X119663858Y-99663350D01*
X119824592Y-99712108D01*
X119991750Y-99728572D01*
X120429250Y-99728572D01*
X120596408Y-99712108D01*
X120757142Y-99663350D01*
X120905275Y-99584171D01*
X121035115Y-99477615D01*
X121141671Y-99347775D01*
X121195402Y-99247252D01*
X121307201Y-99155501D01*
X121331004Y-99126497D01*
X126420349Y-94037152D01*
X126520794Y-94542126D01*
X126741554Y-95075088D01*
X127062048Y-95554741D01*
X127469959Y-95962652D01*
X127949612Y-96283146D01*
X128482574Y-96503906D01*
X129048363Y-96616448D01*
X129625237Y-96616448D01*
X130191026Y-96503906D01*
X130723988Y-96283146D01*
X131203641Y-95962652D01*
X131611552Y-95554741D01*
X131932046Y-95075088D01*
X132152806Y-94542126D01*
X132265348Y-93976337D01*
X132265348Y-93399463D01*
X132152806Y-92833674D01*
X131932046Y-92300712D01*
X131611552Y-91821059D01*
X131203641Y-91413148D01*
X130723988Y-91092654D01*
X130191026Y-90871894D01*
X129686052Y-90771449D01*
X129988001Y-90469500D01*
X137174928Y-90469500D01*
X137187188Y-90593982D01*
X137223498Y-90713680D01*
X137282463Y-90823994D01*
X137361815Y-90920685D01*
X137458506Y-91000037D01*
X137568820Y-91059002D01*
X137688518Y-91095312D01*
X137813000Y-91107572D01*
X137827250Y-91104500D01*
X137986000Y-90945750D01*
X137986000Y-89596500D01*
X137336750Y-89596500D01*
X137178000Y-89755250D01*
X137174928Y-90469500D01*
X129988001Y-90469500D01*
X145586971Y-74870531D01*
X145618186Y-74930000D01*
X146812000Y-74930000D01*
X146812000Y-74910000D01*
X147066000Y-74910000D01*
X147066000Y-74930000D01*
X147086000Y-74930000D01*
X147086000Y-75184000D01*
X147066000Y-75184000D01*
X147066000Y-75204000D01*
X146812000Y-75204000D01*
X146812000Y-75184000D01*
X145618186Y-75184000D01*
X145497519Y-75413891D01*
X145594843Y-75688252D01*
X145743822Y-75938355D01*
X145938731Y-76154588D01*
X146168406Y-76325900D01*
X145992368Y-76443525D01*
X145785525Y-76650368D01*
X145623010Y-76893589D01*
X145511068Y-77163842D01*
X145454000Y-77450740D01*
X145454000Y-77743260D01*
X145511068Y-78030158D01*
X145623010Y-78300411D01*
X145785525Y-78543632D01*
X145939196Y-78697303D01*
X138246598Y-86389901D01*
X138217600Y-86413699D01*
X138193802Y-86442697D01*
X138193801Y-86442698D01*
X138122626Y-86529424D01*
X138052054Y-86661454D01*
X138028806Y-86738097D01*
X138008598Y-86804714D01*
X137998790Y-86904299D01*
X137993924Y-86953700D01*
X137997601Y-86991032D01*
X137997601Y-87834500D01*
X137985998Y-87834500D01*
X137985998Y-87993248D01*
X137827250Y-87834500D01*
X137813000Y-87831428D01*
X137688518Y-87843688D01*
X137568820Y-87879998D01*
X137458506Y-87938963D01*
X137361815Y-88018315D01*
X137282463Y-88115006D01*
X137223498Y-88225320D01*
X137187188Y-88345018D01*
X137174928Y-88469500D01*
X137178000Y-89183750D01*
X137336750Y-89342500D01*
X137986000Y-89342500D01*
X137986000Y-89322500D01*
X137997600Y-89322500D01*
X137997600Y-90577277D01*
X137993924Y-90614600D01*
X137997600Y-90651922D01*
X137997600Y-90651932D01*
X138008597Y-90763585D01*
X138040938Y-90870200D01*
X138052054Y-90906846D01*
X138122626Y-91038876D01*
X138150067Y-91072312D01*
X138217599Y-91154601D01*
X138246603Y-91178404D01*
X140130100Y-93061902D01*
X140153899Y-93090901D01*
X140269624Y-93185874D01*
X140401653Y-93256446D01*
X140544914Y-93299903D01*
X140656567Y-93310900D01*
X140656575Y-93310900D01*
X140693900Y-93314576D01*
X140731225Y-93310900D01*
X145029076Y-93310900D01*
X145056532Y-93448929D01*
X145127014Y-93619089D01*
X145229338Y-93772228D01*
X145359572Y-93902462D01*
X145512711Y-94004786D01*
X145682871Y-94075268D01*
X145863511Y-94111200D01*
X146047689Y-94111200D01*
X146228329Y-94075268D01*
X146398489Y-94004786D01*
X146501135Y-93936200D01*
X149118199Y-93936200D01*
X150957799Y-95775800D01*
X137894207Y-95775800D01*
X137853199Y-95771761D01*
X137812191Y-95775800D01*
X137812181Y-95775800D01*
X137689511Y-95787882D01*
X137532113Y-95835628D01*
X137470176Y-95868734D01*
X137411871Y-95880332D01*
X137241711Y-95950814D01*
X137088572Y-96053138D01*
X136958338Y-96183372D01*
X136856014Y-96336511D01*
X136785532Y-96506671D01*
X136749600Y-96687311D01*
X136749600Y-96871489D01*
X136785532Y-97052129D01*
X136856014Y-97222289D01*
X136958338Y-97375428D01*
X137088572Y-97505662D01*
X137235118Y-97603581D01*
X137223498Y-97625320D01*
X137187188Y-97745018D01*
X137174928Y-97869500D01*
X137178000Y-98583750D01*
X137336750Y-98742500D01*
X137986000Y-98742500D01*
X137986000Y-98722500D01*
X138240000Y-98722500D01*
X138240000Y-98742500D01*
X139256000Y-98742500D01*
X139256000Y-98722500D01*
X139510000Y-98722500D01*
X139510000Y-98742500D01*
X139530000Y-98742500D01*
X139530000Y-98996500D01*
X139510000Y-98996500D01*
X139510000Y-100345750D01*
X139668750Y-100504500D01*
X139683000Y-100507572D01*
X139807482Y-100495312D01*
X139893001Y-100469370D01*
X139893000Y-103175310D01*
X139841738Y-103226572D01*
X139739414Y-103379711D01*
X139668932Y-103549871D01*
X139633000Y-103730511D01*
X139633000Y-103914689D01*
X139668932Y-104095329D01*
X139739414Y-104265489D01*
X139822365Y-104389634D01*
X139453413Y-104758586D01*
X139420553Y-104768554D01*
X139288524Y-104839126D01*
X139172799Y-104934099D01*
X139077826Y-105049824D01*
X139018204Y-105161368D01*
X138812840Y-105161368D01*
X138688358Y-105173628D01*
X138568660Y-105209938D01*
X138458346Y-105268903D01*
X138442840Y-105281628D01*
X138427334Y-105268903D01*
X138317020Y-105209938D01*
X138197322Y-105173628D01*
X138072840Y-105161368D01*
X137458590Y-105164440D01*
X137299840Y-105323190D01*
X137299840Y-109672440D01*
X137319840Y-109672440D01*
X137319840Y-109926440D01*
X137299840Y-109926440D01*
X137299840Y-109946440D01*
X137045840Y-109946440D01*
X137045840Y-109926440D01*
X134759840Y-109926440D01*
X134759840Y-109946440D01*
X134505840Y-109946440D01*
X134505840Y-109926440D01*
X134485840Y-109926440D01*
X134485840Y-109672440D01*
X134505840Y-109672440D01*
X134505840Y-105323190D01*
X134759840Y-105323190D01*
X134759840Y-109672440D01*
X137045840Y-109672440D01*
X137045840Y-105323190D01*
X136887090Y-105164440D01*
X136272840Y-105161368D01*
X136148358Y-105173628D01*
X136028660Y-105209938D01*
X135918346Y-105268903D01*
X135902840Y-105281628D01*
X135887334Y-105268903D01*
X135777020Y-105209938D01*
X135657322Y-105173628D01*
X135532840Y-105161368D01*
X134918590Y-105164440D01*
X134759840Y-105323190D01*
X134505840Y-105323190D01*
X134347090Y-105164440D01*
X133732840Y-105161368D01*
X133608358Y-105173628D01*
X133488660Y-105209938D01*
X133378346Y-105268903D01*
X133362840Y-105281628D01*
X133347334Y-105268903D01*
X133285032Y-105235601D01*
X133356928Y-105187562D01*
X133487162Y-105057328D01*
X133589486Y-104904189D01*
X133659968Y-104734029D01*
X133695900Y-104553389D01*
X133695900Y-104369211D01*
X133659968Y-104188571D01*
X133589486Y-104018411D01*
X133487162Y-103865272D01*
X133356928Y-103735038D01*
X133203789Y-103632714D01*
X133033629Y-103562232D01*
X132852989Y-103526300D01*
X132668811Y-103526300D01*
X132488171Y-103562232D01*
X132318011Y-103632714D01*
X132164872Y-103735038D01*
X132034638Y-103865272D01*
X131932314Y-104018411D01*
X131868246Y-104173087D01*
X131531378Y-104509954D01*
X131499509Y-104536109D01*
X131476538Y-104564100D01*
X129593819Y-104564100D01*
X129552800Y-104560060D01*
X129511782Y-104564100D01*
X129511781Y-104564100D01*
X129389111Y-104576182D01*
X129231713Y-104623928D01*
X129086654Y-104701464D01*
X128959509Y-104805809D01*
X128855164Y-104932954D01*
X128777628Y-105078013D01*
X128752343Y-105161368D01*
X128652840Y-105161368D01*
X128528358Y-105173628D01*
X128408660Y-105209938D01*
X128298346Y-105268903D01*
X128282840Y-105281628D01*
X128267334Y-105268903D01*
X128157020Y-105209938D01*
X128037322Y-105173628D01*
X127912840Y-105161368D01*
X127707396Y-105161368D01*
X127647774Y-105049824D01*
X127552801Y-104934099D01*
X127523803Y-104910301D01*
X124770787Y-102157286D01*
X124845086Y-102046089D01*
X124915568Y-101875929D01*
X124951500Y-101695289D01*
X124951500Y-101511111D01*
X124915568Y-101330471D01*
X124845086Y-101160311D01*
X124742762Y-101007172D01*
X124612528Y-100876938D01*
X124459389Y-100774614D01*
X124289229Y-100704132D01*
X124108589Y-100668200D01*
X123924411Y-100668200D01*
X123743771Y-100704132D01*
X123573611Y-100774614D01*
X123420472Y-100876938D01*
X123376101Y-100921309D01*
X123254275Y-100821329D01*
X123106142Y-100742150D01*
X122945408Y-100693392D01*
X122778250Y-100676928D01*
X122340750Y-100676928D01*
X122173592Y-100693392D01*
X122012858Y-100742150D01*
X121864725Y-100821329D01*
X121843070Y-100839100D01*
X121776494Y-100784463D01*
X121666180Y-100725498D01*
X121546482Y-100689188D01*
X121422000Y-100676928D01*
X121270250Y-100680000D01*
X121111500Y-100838750D01*
X121111500Y-101663000D01*
X121131500Y-101663000D01*
X121131500Y-101917000D01*
X121111500Y-101917000D01*
X121111500Y-102741250D01*
X121270250Y-102900000D01*
X121422000Y-102903072D01*
X121546482Y-102890812D01*
X121666180Y-102854502D01*
X121776494Y-102795537D01*
X121843070Y-102740900D01*
X121864725Y-102758671D01*
X122012858Y-102837850D01*
X122173592Y-102886608D01*
X122340750Y-102903072D01*
X122778250Y-102903072D01*
X122945408Y-102886608D01*
X123106142Y-102837850D01*
X123233614Y-102769715D01*
X123652399Y-103188500D01*
X114462215Y-103176048D01*
X114343554Y-103164413D01*
X114263297Y-103140182D01*
X114189266Y-103100819D01*
X114124292Y-103047827D01*
X114070848Y-102983225D01*
X114030971Y-102909473D01*
X114006179Y-102829383D01*
X113994000Y-102713503D01*
X113994000Y-94072123D01*
X113991001Y-94041674D01*
X113991050Y-94034673D01*
X113990083Y-94024807D01*
X113966766Y-93802955D01*
X113953829Y-93739931D01*
X113941768Y-93676705D01*
X113938902Y-93667215D01*
X113872938Y-93454117D01*
X113848005Y-93394804D01*
X113823894Y-93335129D01*
X113819240Y-93326376D01*
X113713140Y-93130149D01*
X113677167Y-93076817D01*
X113641921Y-93022955D01*
X113635655Y-93015273D01*
X113635654Y-93015271D01*
X113635650Y-93015267D01*
X113493462Y-92843390D01*
X113447807Y-92798053D01*
X113402777Y-92752070D01*
X113395139Y-92745751D01*
X113222269Y-92604761D01*
X113168657Y-92569141D01*
X113115570Y-92532792D01*
X113106850Y-92528077D01*
X112909886Y-92423350D01*
X112850388Y-92398827D01*
X112791247Y-92373479D01*
X112781777Y-92370548D01*
X112568224Y-92306072D01*
X112505156Y-92293584D01*
X112442152Y-92280192D01*
X112432293Y-92279156D01*
X112210283Y-92257388D01*
X112210277Y-92257388D01*
X112175877Y-92254000D01*
X105889229Y-92254000D01*
X105771054Y-92242413D01*
X105690797Y-92218182D01*
X105616766Y-92178819D01*
X105551792Y-92125827D01*
X105498348Y-92061225D01*
X105458471Y-91987473D01*
X105433679Y-91907383D01*
X105421500Y-91791503D01*
X105421500Y-50834729D01*
X105433087Y-50716554D01*
X105457319Y-50636296D01*
X105496680Y-50562267D01*
X105549670Y-50497295D01*
X105614273Y-50443850D01*
X105688026Y-50403972D01*
X105768118Y-50379179D01*
X105883997Y-50367000D01*
X142165271Y-50367000D01*
X142283446Y-50378587D01*
G36*
X162533547Y-96253449D02*
G01*
X162557632Y-96374529D01*
X162628114Y-96544689D01*
X162730438Y-96697828D01*
X162860672Y-96828062D01*
X163013811Y-96930386D01*
X163183971Y-97000868D01*
X163364611Y-97036800D01*
X163548789Y-97036800D01*
X163729429Y-97000868D01*
X163899589Y-96930386D01*
X163959000Y-96890689D01*
X163959000Y-97296630D01*
X163873482Y-97270688D01*
X163749000Y-97258428D01*
X163734750Y-97261500D01*
X163576000Y-97420250D01*
X163576000Y-98744500D01*
X163596000Y-98744500D01*
X163596000Y-98998500D01*
X163576000Y-98998500D01*
X163576000Y-99018500D01*
X163322000Y-99018500D01*
X163322000Y-98998500D01*
X162672750Y-98998500D01*
X162514000Y-99157250D01*
X162510928Y-99846500D01*
X162523188Y-99970982D01*
X162547552Y-100051300D01*
X159620502Y-100051300D01*
X161593904Y-98077898D01*
X161622901Y-98054101D01*
X161717874Y-97938376D01*
X161740257Y-97896500D01*
X162510928Y-97896500D01*
X162514000Y-98585750D01*
X162672750Y-98744500D01*
X163322000Y-98744500D01*
X163322000Y-97420250D01*
X163163250Y-97261500D01*
X163149000Y-97258428D01*
X163024518Y-97270688D01*
X162904820Y-97306998D01*
X162794506Y-97365963D01*
X162697815Y-97445315D01*
X162618463Y-97542006D01*
X162559498Y-97652320D01*
X162523188Y-97772018D01*
X162510928Y-97896500D01*
X161740257Y-97896500D01*
X161788446Y-97806347D01*
X161831903Y-97663086D01*
X161842900Y-97551433D01*
X161842900Y-97551424D01*
X161846576Y-97514101D01*
X161842900Y-97476778D01*
X161842900Y-95562801D01*
X162533547Y-96253449D01*
G37*
X162533547Y-96253449D02*
X162557632Y-96374529D01*
X162628114Y-96544689D01*
X162730438Y-96697828D01*
X162860672Y-96828062D01*
X163013811Y-96930386D01*
X163183971Y-97000868D01*
X163364611Y-97036800D01*
X163548789Y-97036800D01*
X163729429Y-97000868D01*
X163899589Y-96930386D01*
X163959000Y-96890689D01*
X163959000Y-97296630D01*
X163873482Y-97270688D01*
X163749000Y-97258428D01*
X163734750Y-97261500D01*
X163576000Y-97420250D01*
X163576000Y-98744500D01*
X163596000Y-98744500D01*
X163596000Y-98998500D01*
X163576000Y-98998500D01*
X163576000Y-99018500D01*
X163322000Y-99018500D01*
X163322000Y-98998500D01*
X162672750Y-98998500D01*
X162514000Y-99157250D01*
X162510928Y-99846500D01*
X162523188Y-99970982D01*
X162547552Y-100051300D01*
X159620502Y-100051300D01*
X161593904Y-98077898D01*
X161622901Y-98054101D01*
X161717874Y-97938376D01*
X161740257Y-97896500D01*
X162510928Y-97896500D01*
X162514000Y-98585750D01*
X162672750Y-98744500D01*
X163322000Y-98744500D01*
X163322000Y-97420250D01*
X163163250Y-97261500D01*
X163149000Y-97258428D01*
X163024518Y-97270688D01*
X162904820Y-97306998D01*
X162794506Y-97365963D01*
X162697815Y-97445315D01*
X162618463Y-97542006D01*
X162559498Y-97652320D01*
X162523188Y-97772018D01*
X162510928Y-97896500D01*
X161740257Y-97896500D01*
X161788446Y-97806347D01*
X161831903Y-97663086D01*
X161842900Y-97551433D01*
X161842900Y-97551424D01*
X161846576Y-97514101D01*
X161842900Y-97476778D01*
X161842900Y-95562801D01*
X162533547Y-96253449D01*
G36*
X180086000Y-77470000D02*
G01*
X180106000Y-77470000D01*
X180106000Y-77724000D01*
X180086000Y-77724000D01*
X180086000Y-78917155D01*
X180315890Y-79038476D01*
X180463099Y-78993825D01*
X180725920Y-78868641D01*
X180959269Y-78694588D01*
X181154178Y-78478355D01*
X181223805Y-78361466D01*
X181345525Y-78543632D01*
X181552368Y-78750475D01*
X181795589Y-78912990D01*
X182065842Y-79024932D01*
X182352740Y-79082000D01*
X182645260Y-79082000D01*
X182929600Y-79025441D01*
X182929601Y-82948997D01*
X177003700Y-88874899D01*
X177003700Y-79028484D01*
X177272740Y-79082000D01*
X177565260Y-79082000D01*
X177852158Y-79024932D01*
X178122411Y-78912990D01*
X178365632Y-78750475D01*
X178572475Y-78543632D01*
X178694195Y-78361466D01*
X178763822Y-78478355D01*
X178958731Y-78694588D01*
X179192080Y-78868641D01*
X179454901Y-78993825D01*
X179602110Y-79038476D01*
X179832000Y-78917155D01*
X179832000Y-77724000D01*
X179812000Y-77724000D01*
X179812000Y-77470000D01*
X179832000Y-77470000D01*
X179832000Y-77450000D01*
X180086000Y-77450000D01*
X180086000Y-77470000D01*
G37*
X180086000Y-77470000D02*
X180106000Y-77470000D01*
X180106000Y-77724000D01*
X180086000Y-77724000D01*
X180086000Y-78917155D01*
X180315890Y-79038476D01*
X180463099Y-78993825D01*
X180725920Y-78868641D01*
X180959269Y-78694588D01*
X181154178Y-78478355D01*
X181223805Y-78361466D01*
X181345525Y-78543632D01*
X181552368Y-78750475D01*
X181795589Y-78912990D01*
X182065842Y-79024932D01*
X182352740Y-79082000D01*
X182645260Y-79082000D01*
X182929600Y-79025441D01*
X182929601Y-82948997D01*
X177003700Y-88874899D01*
X177003700Y-79028484D01*
X177272740Y-79082000D01*
X177565260Y-79082000D01*
X177852158Y-79024932D01*
X178122411Y-78912990D01*
X178365632Y-78750475D01*
X178572475Y-78543632D01*
X178694195Y-78361466D01*
X178763822Y-78478355D01*
X178958731Y-78694588D01*
X179192080Y-78868641D01*
X179454901Y-78993825D01*
X179602110Y-79038476D01*
X179832000Y-78917155D01*
X179832000Y-77724000D01*
X179812000Y-77724000D01*
X179812000Y-77470000D01*
X179832000Y-77470000D01*
X179832000Y-77450000D01*
X180086000Y-77450000D01*
X180086000Y-77470000D01*
G36*
X172466000Y-77470000D02*
G01*
X172486000Y-77470000D01*
X172486000Y-77724000D01*
X172466000Y-77724000D01*
X172466000Y-78917155D01*
X172695890Y-79038476D01*
X172843099Y-78993825D01*
X172890200Y-78971390D01*
X172890201Y-87350397D01*
X172724890Y-87515708D01*
X172631247Y-87465654D01*
X172487986Y-87422197D01*
X172376333Y-87411200D01*
X172339000Y-87407523D01*
X172301667Y-87411200D01*
X172245902Y-87411200D01*
X167924904Y-83090203D01*
X167901101Y-83061199D01*
X167785376Y-82966226D01*
X167653347Y-82895654D01*
X167510086Y-82852197D01*
X167398433Y-82841200D01*
X167398422Y-82841200D01*
X167361100Y-82837524D01*
X167323778Y-82841200D01*
X167291002Y-82841200D01*
X167214164Y-82764362D01*
X167363789Y-82702386D01*
X167516928Y-82600062D01*
X167647162Y-82469828D01*
X167749486Y-82316689D01*
X167819968Y-82146529D01*
X167844053Y-82025448D01*
X170310003Y-79559499D01*
X170339001Y-79535701D01*
X170381370Y-79484074D01*
X170433974Y-79419977D01*
X170504546Y-79287947D01*
X170510896Y-79267014D01*
X170548003Y-79144686D01*
X170559000Y-79033033D01*
X170559000Y-79033024D01*
X170562676Y-78995701D01*
X170559000Y-78958378D01*
X170559000Y-78875178D01*
X170745632Y-78750475D01*
X170952475Y-78543632D01*
X171074195Y-78361466D01*
X171143822Y-78478355D01*
X171338731Y-78694588D01*
X171572080Y-78868641D01*
X171834901Y-78993825D01*
X171982110Y-79038476D01*
X172212000Y-78917155D01*
X172212000Y-77724000D01*
X172192000Y-77724000D01*
X172192000Y-77470000D01*
X172212000Y-77470000D01*
X172212000Y-77450000D01*
X172466000Y-77450000D01*
X172466000Y-77470000D01*
G37*
X172466000Y-77470000D02*
X172486000Y-77470000D01*
X172486000Y-77724000D01*
X172466000Y-77724000D01*
X172466000Y-78917155D01*
X172695890Y-79038476D01*
X172843099Y-78993825D01*
X172890200Y-78971390D01*
X172890201Y-87350397D01*
X172724890Y-87515708D01*
X172631247Y-87465654D01*
X172487986Y-87422197D01*
X172376333Y-87411200D01*
X172339000Y-87407523D01*
X172301667Y-87411200D01*
X172245902Y-87411200D01*
X167924904Y-83090203D01*
X167901101Y-83061199D01*
X167785376Y-82966226D01*
X167653347Y-82895654D01*
X167510086Y-82852197D01*
X167398433Y-82841200D01*
X167398422Y-82841200D01*
X167361100Y-82837524D01*
X167323778Y-82841200D01*
X167291002Y-82841200D01*
X167214164Y-82764362D01*
X167363789Y-82702386D01*
X167516928Y-82600062D01*
X167647162Y-82469828D01*
X167749486Y-82316689D01*
X167819968Y-82146529D01*
X167844053Y-82025448D01*
X170310003Y-79559499D01*
X170339001Y-79535701D01*
X170381370Y-79484074D01*
X170433974Y-79419977D01*
X170504546Y-79287947D01*
X170510896Y-79267014D01*
X170548003Y-79144686D01*
X170559000Y-79033033D01*
X170559000Y-79033024D01*
X170562676Y-78995701D01*
X170559000Y-78958378D01*
X170559000Y-78875178D01*
X170745632Y-78750475D01*
X170952475Y-78543632D01*
X171074195Y-78361466D01*
X171143822Y-78478355D01*
X171338731Y-78694588D01*
X171572080Y-78868641D01*
X171834901Y-78993825D01*
X171982110Y-79038476D01*
X172212000Y-78917155D01*
X172212000Y-77724000D01*
X172192000Y-77724000D01*
X172192000Y-77470000D01*
X172212000Y-77470000D01*
X172212000Y-77450000D01*
X172466000Y-77450000D01*
X172466000Y-77470000D01*
G36*
X159766000Y-77470000D02*
G01*
X159786000Y-77470000D01*
X159786000Y-77724000D01*
X159766000Y-77724000D01*
X159766000Y-78917155D01*
X159995890Y-79038476D01*
X160054300Y-79020759D01*
X160054301Y-83377873D01*
X159978886Y-83354997D01*
X159867233Y-83344000D01*
X159867222Y-83344000D01*
X159829900Y-83340324D01*
X159792578Y-83344000D01*
X159529900Y-83344000D01*
X159529900Y-83183211D01*
X159493968Y-83002571D01*
X159423486Y-82832411D01*
X159321162Y-82679272D01*
X159190928Y-82549038D01*
X159049000Y-82454205D01*
X159049000Y-78952910D01*
X159134901Y-78993825D01*
X159282110Y-79038476D01*
X159512000Y-78917155D01*
X159512000Y-77724000D01*
X159492000Y-77724000D01*
X159492000Y-77470000D01*
X159512000Y-77470000D01*
X159512000Y-77450000D01*
X159766000Y-77450000D01*
X159766000Y-77470000D01*
G37*
X159766000Y-77470000D02*
X159786000Y-77470000D01*
X159786000Y-77724000D01*
X159766000Y-77724000D01*
X159766000Y-78917155D01*
X159995890Y-79038476D01*
X160054300Y-79020759D01*
X160054301Y-83377873D01*
X159978886Y-83354997D01*
X159867233Y-83344000D01*
X159867222Y-83344000D01*
X159829900Y-83340324D01*
X159792578Y-83344000D01*
X159529900Y-83344000D01*
X159529900Y-83183211D01*
X159493968Y-83002571D01*
X159423486Y-82832411D01*
X159321162Y-82679272D01*
X159190928Y-82549038D01*
X159049000Y-82454205D01*
X159049000Y-78952910D01*
X159134901Y-78993825D01*
X159282110Y-79038476D01*
X159512000Y-78917155D01*
X159512000Y-77724000D01*
X159492000Y-77724000D01*
X159492000Y-77470000D01*
X159512000Y-77470000D01*
X159512000Y-77450000D01*
X159766000Y-77450000D01*
X159766000Y-77470000D01*
G36*
X190246000Y-77470000D02*
G01*
X190266000Y-77470000D01*
X190266000Y-77724000D01*
X190246000Y-77724000D01*
X190246000Y-78917155D01*
X190475890Y-79038476D01*
X190623099Y-78993825D01*
X190723700Y-78945908D01*
X190723700Y-79101198D01*
X189703700Y-80121198D01*
X189703700Y-79020759D01*
X189762110Y-79038476D01*
X189992000Y-78917155D01*
X189992000Y-77724000D01*
X189972000Y-77724000D01*
X189972000Y-77470000D01*
X189992000Y-77470000D01*
X189992000Y-77450000D01*
X190246000Y-77450000D01*
X190246000Y-77470000D01*
G37*
X190246000Y-77470000D02*
X190266000Y-77470000D01*
X190266000Y-77724000D01*
X190246000Y-77724000D01*
X190246000Y-78917155D01*
X190475890Y-79038476D01*
X190623099Y-78993825D01*
X190723700Y-78945908D01*
X190723700Y-79101198D01*
X189703700Y-80121198D01*
X189703700Y-79020759D01*
X189762110Y-79038476D01*
X189992000Y-78917155D01*
X189992000Y-77724000D01*
X189972000Y-77724000D01*
X189972000Y-77470000D01*
X189992000Y-77470000D01*
X189992000Y-77450000D01*
X190246000Y-77450000D01*
X190246000Y-77470000D01*
G36*
X154686000Y-77470000D02*
G01*
X154706000Y-77470000D01*
X154706000Y-77724000D01*
X154686000Y-77724000D01*
X154686000Y-77744000D01*
X154432000Y-77744000D01*
X154432000Y-77724000D01*
X154412000Y-77724000D01*
X154412000Y-77470000D01*
X154432000Y-77470000D01*
X154432000Y-77450000D01*
X154686000Y-77450000D01*
X154686000Y-77470000D01*
G37*
X154686000Y-77470000D02*
X154706000Y-77470000D01*
X154706000Y-77724000D01*
X154686000Y-77724000D01*
X154686000Y-77744000D01*
X154432000Y-77744000D01*
X154432000Y-77724000D01*
X154412000Y-77724000D01*
X154412000Y-77470000D01*
X154432000Y-77470000D01*
X154432000Y-77450000D01*
X154686000Y-77450000D01*
X154686000Y-77470000D01*
G36*
X164846000Y-74930000D02*
G01*
X164866000Y-74930000D01*
X164866000Y-75184000D01*
X164846000Y-75184000D01*
X164846000Y-75204000D01*
X164592000Y-75204000D01*
X164592000Y-75184000D01*
X164572000Y-75184000D01*
X164572000Y-74930000D01*
X164592000Y-74930000D01*
X164592000Y-74910000D01*
X164846000Y-74910000D01*
X164846000Y-74930000D01*
G37*
X164846000Y-74930000D02*
X164866000Y-74930000D01*
X164866000Y-75184000D01*
X164846000Y-75184000D01*
X164846000Y-75204000D01*
X164592000Y-75204000D01*
X164592000Y-75184000D01*
X164572000Y-75184000D01*
X164572000Y-74930000D01*
X164592000Y-74930000D01*
X164592000Y-74910000D01*
X164846000Y-74910000D01*
X164846000Y-74930000D01*
G36*
X185166000Y-74930000D02*
G01*
X185186000Y-74930000D01*
X185186000Y-75184000D01*
X185166000Y-75184000D01*
X185166000Y-75204000D01*
X184912000Y-75204000D01*
X184912000Y-75184000D01*
X184892000Y-75184000D01*
X184892000Y-74930000D01*
X184912000Y-74930000D01*
X184912000Y-74910000D01*
X185166000Y-74910000D01*
X185166000Y-74930000D01*
G37*
X185166000Y-74930000D02*
X185186000Y-74930000D01*
X185186000Y-75184000D01*
X185166000Y-75184000D01*
X185166000Y-75204000D01*
X184912000Y-75204000D01*
X184912000Y-75184000D01*
X184892000Y-75184000D01*
X184892000Y-74930000D01*
X184912000Y-74930000D01*
X184912000Y-74910000D01*
X185166000Y-74910000D01*
X185166000Y-74930000D01*
M02*
