G04 #@! TF.FileFunction,Copper,L2,Bot,Signal*
%FSLAX46Y46*%
G04 Gerber Fmt 4.6, Leading zero omitted, Abs format (unit mm)*
G04 Created by KiCad (PCBNEW 4.0.7) date 04/26/18 00:03:18*
%MOMM*%
%LPD*%
G01*
G04 APERTURE LIST*
%ADD10C,0.100000*%
%ADD11R,1.524000X1.524000*%
%ADD12C,1.524000*%
%ADD13R,1.700000X1.700000*%
%ADD14O,1.700000X1.700000*%
%ADD15R,0.762000X1.524000*%
%ADD16R,0.600000X1.950000*%
%ADD17C,0.600000*%
%ADD18C,0.400000*%
%ADD19C,0.250000*%
%ADD20C,0.254000*%
G04 APERTURE END LIST*
D10*
D11*
X133350000Y-111760000D03*
D12*
X133350000Y-116840000D03*
X135890000Y-111760000D03*
X135890000Y-116840000D03*
X138430000Y-111760000D03*
X138430000Y-116840000D03*
X140970000Y-111760000D03*
X140970000Y-116840000D03*
X143510000Y-111760000D03*
X143510000Y-116840000D03*
X146050000Y-111760000D03*
X146050000Y-116840000D03*
X148590000Y-111760000D03*
X148590000Y-116840000D03*
X151130000Y-111760000D03*
X151130000Y-116840000D03*
X153670000Y-111760000D03*
X153670000Y-116840000D03*
X156210000Y-111760000D03*
X156210000Y-116840000D03*
X158750000Y-111760000D03*
X158750000Y-116840000D03*
X161290000Y-111760000D03*
X161290000Y-116840000D03*
X163830000Y-111760000D03*
X163830000Y-116840000D03*
X166370000Y-111760000D03*
X166370000Y-116840000D03*
X168910000Y-111760000D03*
X168910000Y-116840000D03*
X171450000Y-111760000D03*
X171450000Y-116840000D03*
X173990000Y-111760000D03*
X173990000Y-116840000D03*
D13*
X177800000Y-83820000D03*
D14*
X177800000Y-81280000D03*
X175260000Y-83820000D03*
X175260000Y-81280000D03*
X172720000Y-83820000D03*
X172720000Y-81280000D03*
X170180000Y-83820000D03*
X170180000Y-81280000D03*
X167640000Y-83820000D03*
X167640000Y-81280000D03*
X165100000Y-83820000D03*
X165100000Y-81280000D03*
X162560000Y-83820000D03*
X162560000Y-81280000D03*
X160020000Y-83820000D03*
X160020000Y-81280000D03*
X157480000Y-83820000D03*
X157480000Y-81280000D03*
X154940000Y-83820000D03*
X154940000Y-81280000D03*
X152400000Y-83820000D03*
X152400000Y-81280000D03*
X149860000Y-83820000D03*
X149860000Y-81280000D03*
X147320000Y-83820000D03*
X147320000Y-81280000D03*
X144780000Y-83820000D03*
X144780000Y-81280000D03*
X142240000Y-83820000D03*
X142240000Y-81280000D03*
X139700000Y-83820000D03*
X139700000Y-81280000D03*
X137160000Y-83820000D03*
X137160000Y-81280000D03*
X134620000Y-83820000D03*
X134620000Y-81280000D03*
X132080000Y-83820000D03*
X132080000Y-81280000D03*
X129540000Y-83820000D03*
X129540000Y-81280000D03*
D13*
X129540000Y-92913200D03*
D14*
X129540000Y-90373200D03*
X132080000Y-92913200D03*
X132080000Y-90373200D03*
X134620000Y-92913200D03*
X134620000Y-90373200D03*
X137160000Y-92913200D03*
X137160000Y-90373200D03*
X139700000Y-92913200D03*
X139700000Y-90373200D03*
X142240000Y-92913200D03*
X142240000Y-90373200D03*
X144780000Y-92913200D03*
X144780000Y-90373200D03*
X147320000Y-92913200D03*
X147320000Y-90373200D03*
X149860000Y-92913200D03*
X149860000Y-90373200D03*
X152400000Y-92913200D03*
X152400000Y-90373200D03*
X154940000Y-92913200D03*
X154940000Y-90373200D03*
X157480000Y-92913200D03*
X157480000Y-90373200D03*
X160020000Y-92913200D03*
X160020000Y-90373200D03*
X162560000Y-92913200D03*
X162560000Y-90373200D03*
X165100000Y-92913200D03*
X165100000Y-90373200D03*
X167640000Y-92913200D03*
X167640000Y-90373200D03*
X170180000Y-92913200D03*
X170180000Y-90373200D03*
X172720000Y-92913200D03*
X172720000Y-90373200D03*
X175260000Y-92913200D03*
X175260000Y-90373200D03*
X177800000Y-92913200D03*
X177800000Y-90373200D03*
D15*
X147193000Y-105918000D03*
X145923000Y-105918000D03*
X144653000Y-105918000D03*
X143383000Y-105918000D03*
X142113000Y-105918000D03*
X140843000Y-105918000D03*
X139573000Y-105918000D03*
X138303000Y-105918000D03*
X137033000Y-105918000D03*
X135763000Y-105918000D03*
X134493000Y-105918000D03*
X133096000Y-105918000D03*
X147193000Y-98298000D03*
X145923000Y-98298000D03*
X144653000Y-98298000D03*
X143383000Y-98298000D03*
X142113000Y-98298000D03*
X140843000Y-98298000D03*
X139573000Y-98298000D03*
X138303000Y-98298000D03*
X137033000Y-98298000D03*
X135763000Y-98298000D03*
X134493000Y-98298000D03*
X133223000Y-98298000D03*
D16*
X161417000Y-97408000D03*
X162687000Y-97408000D03*
X163957000Y-97408000D03*
X165227000Y-97408000D03*
X166497000Y-97408000D03*
X167767000Y-97408000D03*
X169037000Y-97408000D03*
X170307000Y-97408000D03*
X171577000Y-97408000D03*
X172847000Y-97408000D03*
X172847000Y-106808000D03*
X171577000Y-106808000D03*
X170307000Y-106808000D03*
X169037000Y-106808000D03*
X167767000Y-106808000D03*
X166497000Y-106808000D03*
X165227000Y-106808000D03*
X163957000Y-106808000D03*
X162687000Y-106808000D03*
X161417000Y-106808000D03*
D17*
X148079400Y-105918000D03*
X143508100Y-97029100D03*
X140856800Y-96752100D03*
X164362200Y-104682500D03*
X159848500Y-88453800D03*
X165265100Y-88860700D03*
X160487400Y-86733500D03*
X170636600Y-95903800D03*
X158071300Y-97362600D03*
X170170700Y-103013300D03*
X151831100Y-97184400D03*
X173660300Y-96557400D03*
X146217400Y-94271800D03*
X139958200Y-94742500D03*
X141745200Y-95269000D03*
X139071100Y-94794100D03*
X169720500Y-108244400D03*
X167662000Y-108907100D03*
X163312400Y-109383300D03*
X144778100Y-99831800D03*
X161148000Y-93899000D03*
X164577000Y-110463100D03*
X160566700Y-99421700D03*
D18*
X147193000Y-105918000D02*
X148079400Y-105918000D01*
X178867200Y-82530300D02*
X177800000Y-82530300D01*
X179050400Y-82713500D02*
X178867200Y-82530300D01*
X179050400Y-106699600D02*
X179050400Y-82713500D01*
X173990000Y-111760000D02*
X179050400Y-106699600D01*
X177800000Y-81280000D02*
X177800000Y-82530300D01*
D19*
X132080000Y-98774200D02*
X132080000Y-92913200D01*
X132691100Y-99385300D02*
X132080000Y-98774200D01*
X142113000Y-99385300D02*
X132691100Y-99385300D01*
X142113000Y-98298000D02*
X142113000Y-99385300D01*
X143508100Y-97085600D02*
X143508100Y-97029100D01*
X143383000Y-97210700D02*
X143508100Y-97085600D01*
X143383000Y-98298000D02*
X143383000Y-97210700D01*
X160020000Y-94710700D02*
X160020000Y-92913200D01*
X161417000Y-96107700D02*
X160020000Y-94710700D01*
X161417000Y-97408000D02*
X161417000Y-96107700D01*
X170180000Y-87535300D02*
X170180000Y-90373200D01*
X167640000Y-84995300D02*
X170180000Y-87535300D01*
X167640000Y-83820000D02*
X167640000Y-84995300D01*
X172847000Y-97408000D02*
X172847000Y-98708300D01*
X172720000Y-81280000D02*
X172720000Y-82455300D01*
X172847000Y-97408000D02*
X172847000Y-96107700D01*
X172896300Y-115746300D02*
X173990000Y-116840000D01*
X172896300Y-110496300D02*
X172896300Y-115746300D01*
X173472300Y-109920300D02*
X172896300Y-110496300D01*
X173472300Y-99333600D02*
X173472300Y-109920300D01*
X172847000Y-98708300D02*
X173472300Y-99333600D01*
X137160000Y-81280000D02*
X137160000Y-82455300D01*
X134493000Y-105918000D02*
X134493000Y-104830700D01*
X133096000Y-105918000D02*
X133096000Y-104830700D01*
X134620000Y-85815000D02*
X134620000Y-90373200D01*
X135984700Y-84450300D02*
X134620000Y-85815000D01*
X135984700Y-83263200D02*
X135984700Y-84450300D01*
X136792600Y-82455300D02*
X135984700Y-83263200D01*
X137160000Y-82455300D02*
X136792600Y-82455300D01*
X134620000Y-90373200D02*
X134620000Y-91548500D01*
X133181600Y-104830700D02*
X133223000Y-104789300D01*
X133096000Y-104830700D02*
X133181600Y-104830700D01*
X134451600Y-104789300D02*
X134493000Y-104830700D01*
X133223000Y-104789300D02*
X134451600Y-104789300D01*
X128364600Y-99930900D02*
X133223000Y-104789300D01*
X128364600Y-91870600D02*
X128364600Y-99930900D01*
X128497400Y-91737800D02*
X128364600Y-91870600D01*
X132826000Y-91737800D02*
X128497400Y-91737800D01*
X133350000Y-92261800D02*
X132826000Y-91737800D01*
X151522600Y-89197900D02*
X147320000Y-84995300D01*
X152400000Y-89197900D02*
X151522600Y-89197900D01*
X147320000Y-83820000D02*
X147320000Y-84995300D01*
X152400000Y-90373200D02*
X152400000Y-89197900D01*
X161417000Y-104237700D02*
X161417000Y-98708300D01*
X162687000Y-105507700D02*
X161417000Y-104237700D01*
X162687000Y-106808000D02*
X162687000Y-105507700D01*
X161417000Y-97408000D02*
X161417000Y-98708300D01*
X173918600Y-95036100D02*
X172847000Y-96107700D01*
X173918600Y-83286600D02*
X173918600Y-95036100D01*
X173087300Y-82455300D02*
X173918600Y-83286600D01*
X172720000Y-82455300D02*
X173087300Y-82455300D01*
X134063300Y-91548500D02*
X133350000Y-92261800D01*
X134620000Y-91548500D02*
X134063300Y-91548500D01*
X133350000Y-97083700D02*
X133223000Y-97210700D01*
X133350000Y-92261800D02*
X133350000Y-97083700D01*
X133223000Y-98298000D02*
X133223000Y-97210700D01*
X140856800Y-97196900D02*
X140856800Y-96752100D01*
X140843000Y-97210700D02*
X140856800Y-97196900D01*
X140843000Y-98298000D02*
X140843000Y-97210700D01*
X164362200Y-105102500D02*
X164362200Y-104682500D01*
X163957000Y-105507700D02*
X164362200Y-105102500D01*
X163957000Y-106808000D02*
X163957000Y-105507700D01*
X162560000Y-86886500D02*
X162560000Y-83820000D01*
X163923500Y-88250000D02*
X162560000Y-86886500D01*
X163923500Y-96074200D02*
X163923500Y-88250000D01*
X163957000Y-96107700D02*
X163923500Y-96074200D01*
X163957000Y-97408000D02*
X163957000Y-96107700D01*
X165100000Y-81280000D02*
X166275300Y-81280000D01*
X169037000Y-106808000D02*
X169037000Y-105507700D01*
X169037000Y-103262700D02*
X169037000Y-105507700D01*
X169662300Y-102637400D02*
X169037000Y-103262700D01*
X169662300Y-95862400D02*
X169662300Y-102637400D01*
X171355300Y-94169400D02*
X169662300Y-95862400D01*
X171355300Y-86895500D02*
X171355300Y-94169400D01*
X168815400Y-84355600D02*
X171355300Y-86895500D01*
X168815400Y-83294400D02*
X168815400Y-84355600D01*
X167976300Y-82455300D02*
X168815400Y-83294400D01*
X167083200Y-82455300D02*
X167976300Y-82455300D01*
X166275300Y-81647400D02*
X167083200Y-82455300D01*
X166275300Y-81280000D02*
X166275300Y-81647400D01*
X160020000Y-83820000D02*
X160020000Y-84995300D01*
X159848500Y-85166800D02*
X160020000Y-84995300D01*
X159848500Y-88453800D02*
X159848500Y-85166800D01*
X166370000Y-89965600D02*
X165265100Y-88860700D01*
X166370000Y-95980700D02*
X166370000Y-89965600D01*
X166497000Y-96107700D02*
X166370000Y-95980700D01*
X166497000Y-97408000D02*
X166497000Y-96107700D01*
X169037000Y-97408000D02*
X169037000Y-96107700D01*
X160020000Y-81280000D02*
X161195300Y-81280000D01*
X161195300Y-81647400D02*
X162003200Y-82455300D01*
X161195300Y-81280000D02*
X161195300Y-81647400D01*
X168815500Y-95886200D02*
X169037000Y-96107700D01*
X168815500Y-89844000D02*
X168815500Y-95886200D01*
X163748900Y-84777400D02*
X168815500Y-89844000D01*
X163748900Y-83280200D02*
X163748900Y-84777400D01*
X162924000Y-82455300D02*
X163748900Y-83280200D01*
X162003200Y-82455300D02*
X162924000Y-82455300D01*
X161233300Y-85987600D02*
X160487400Y-86733500D01*
X161233300Y-83225200D02*
X161233300Y-85987600D01*
X162003200Y-82455300D02*
X161233300Y-83225200D01*
X149860000Y-90373200D02*
X151035300Y-90373200D01*
X157480000Y-81280000D02*
X157480000Y-82455300D01*
X170840500Y-96107700D02*
X170636600Y-95903800D01*
X171577000Y-96107700D02*
X170840500Y-96107700D01*
X171577000Y-97408000D02*
X171577000Y-96107700D01*
X151843400Y-91548600D02*
X155482300Y-91548600D01*
X151035300Y-90740500D02*
X151843400Y-91548600D01*
X151035300Y-90373200D02*
X151035300Y-90740500D01*
X157112600Y-82455300D02*
X157480000Y-82455300D01*
X156304700Y-83263200D02*
X157112600Y-82455300D01*
X156304700Y-90726200D02*
X156304700Y-83263200D01*
X155482300Y-91548600D02*
X156304700Y-90726200D01*
X156122100Y-95413400D02*
X158071300Y-97362600D01*
X156122100Y-92188400D02*
X156122100Y-95413400D01*
X155482300Y-91548600D02*
X156122100Y-92188400D01*
X171577000Y-104419600D02*
X170170700Y-103013300D01*
X171577000Y-106808000D02*
X171577000Y-104419600D01*
X142240000Y-92913200D02*
X143415300Y-92913200D01*
X165100000Y-83820000D02*
X165100000Y-82644700D01*
X176439800Y-93777900D02*
X173660300Y-96557400D01*
X176439800Y-80736100D02*
X176439800Y-93777900D01*
X175803400Y-80099700D02*
X176439800Y-80736100D01*
X164543700Y-80099700D02*
X175803400Y-80099700D01*
X163924700Y-80718700D02*
X164543700Y-80099700D01*
X163924700Y-81836800D02*
X163924700Y-80718700D01*
X164732600Y-82644700D02*
X163924700Y-81836800D01*
X165100000Y-82644700D02*
X164732600Y-82644700D01*
X151656700Y-97184400D02*
X151831100Y-97184400D01*
X149877500Y-95405200D02*
X151656700Y-97184400D01*
X145540000Y-95405200D02*
X149877500Y-95405200D01*
X143415300Y-93280500D02*
X145540000Y-95405200D01*
X143415300Y-92913200D02*
X143415300Y-93280500D01*
X160020000Y-90373200D02*
X160020000Y-89197900D01*
X147320000Y-81280000D02*
X148495300Y-81280000D01*
X146144700Y-80912600D02*
X146144700Y-81280000D01*
X145336800Y-80104700D02*
X146144700Y-80912600D01*
X141672600Y-80104700D02*
X145336800Y-80104700D01*
X140970000Y-80807300D02*
X141672600Y-80104700D01*
X140970000Y-81711000D02*
X140970000Y-80807300D01*
X140225600Y-82455400D02*
X140970000Y-81711000D01*
X139363600Y-82455400D02*
X140225600Y-82455400D01*
X138524600Y-83294400D02*
X139363600Y-82455400D01*
X138524600Y-84355600D02*
X138524600Y-83294400D01*
X135890000Y-86990200D02*
X138524600Y-84355600D01*
X135890000Y-94482200D02*
X135890000Y-86990200D01*
X134493000Y-95879200D02*
X135890000Y-94482200D01*
X134493000Y-98298000D02*
X134493000Y-95879200D01*
X147320000Y-81280000D02*
X146144700Y-81280000D01*
X159708300Y-89197900D02*
X160020000Y-89197900D01*
X158844700Y-88334300D02*
X159708300Y-89197900D01*
X158844700Y-80943000D02*
X158844700Y-88334300D01*
X158003400Y-80101700D02*
X158844700Y-80943000D01*
X149306200Y-80101700D02*
X158003400Y-80101700D01*
X148495300Y-80912600D02*
X149306200Y-80101700D01*
X148495300Y-81280000D02*
X148495300Y-80912600D01*
X144780000Y-83820000D02*
X144780000Y-84995300D01*
X145955300Y-94009700D02*
X146217400Y-94271800D01*
X145955300Y-86170600D02*
X145955300Y-94009700D01*
X144780000Y-84995300D02*
X145955300Y-86170600D01*
X137033000Y-98298000D02*
X137033000Y-97210700D01*
X139958200Y-94791400D02*
X139958200Y-94742500D01*
X137538900Y-97210700D02*
X139958200Y-94791400D01*
X137033000Y-97210700D02*
X137538900Y-97210700D01*
X162560000Y-90373200D02*
X161384700Y-90373200D01*
X144780000Y-81280000D02*
X144780000Y-82455300D01*
X153403400Y-98046700D02*
X152636900Y-97280200D01*
X158271600Y-98046700D02*
X153403400Y-98046700D01*
X158806300Y-97512000D02*
X158271600Y-98046700D01*
X158806300Y-92433800D02*
X158806300Y-97512000D01*
X159691600Y-91548500D02*
X158806300Y-92433800D01*
X160576800Y-91548500D02*
X159691600Y-91548500D01*
X161384700Y-90740600D02*
X160576800Y-91548500D01*
X161384700Y-90373200D02*
X161384700Y-90740600D01*
X145147400Y-82455300D02*
X144780000Y-82455300D01*
X145955300Y-83263200D02*
X145147400Y-82455300D01*
X145955300Y-85051000D02*
X145955300Y-83263200D01*
X148590000Y-87685700D02*
X145955300Y-85051000D01*
X148590000Y-93356400D02*
X148590000Y-87685700D01*
X151792700Y-96559100D02*
X148590000Y-93356400D01*
X152090200Y-96559100D02*
X151792700Y-96559100D01*
X152636900Y-97105800D02*
X152090200Y-96559100D01*
X152636900Y-97280200D02*
X152636900Y-97105800D01*
X139573000Y-98298000D02*
X139573000Y-97210700D01*
X139573000Y-97151600D02*
X139573000Y-97210700D01*
X140597800Y-96126800D02*
X139573000Y-97151600D01*
X149458000Y-96126800D02*
X140597800Y-96126800D01*
X151166000Y-97834800D02*
X149458000Y-96126800D01*
X152082300Y-97834800D02*
X151166000Y-97834800D01*
X152636900Y-97280200D02*
X152082300Y-97834800D01*
X138303000Y-98298000D02*
X138303000Y-97210700D01*
X142240000Y-83820000D02*
X142240000Y-84995300D01*
X141064700Y-86170600D02*
X142240000Y-84995300D01*
X141064700Y-94588500D02*
X141064700Y-86170600D01*
X141745200Y-95269000D02*
X141064700Y-94588500D01*
X138442500Y-97210700D02*
X138303000Y-97210700D01*
X141064700Y-94588500D02*
X138442500Y-97210700D01*
X135763000Y-98298000D02*
X135763000Y-97210700D01*
X139700000Y-83820000D02*
X139700000Y-84995300D01*
X138490800Y-94794100D02*
X139071100Y-94794100D01*
X138179600Y-94794100D02*
X138490800Y-94794100D01*
X135763000Y-97210700D02*
X138179600Y-94794100D01*
X138490800Y-86204500D02*
X139700000Y-84995300D01*
X138490800Y-94794100D02*
X138490800Y-86204500D01*
X170307000Y-106808000D02*
X170307000Y-108108300D01*
X169856600Y-108108300D02*
X169720500Y-108244400D01*
X170307000Y-108108300D02*
X169856600Y-108108300D01*
X167662000Y-108213300D02*
X167662000Y-108907100D01*
X167767000Y-108108300D02*
X167662000Y-108213300D01*
X167767000Y-106808000D02*
X167767000Y-108108300D01*
X138303000Y-105918000D02*
X138303000Y-107005300D01*
X149077200Y-109707200D02*
X151130000Y-111760000D01*
X143447000Y-109707200D02*
X149077200Y-109707200D01*
X142053800Y-108314000D02*
X143447000Y-109707200D01*
X139611700Y-108314000D02*
X142053800Y-108314000D01*
X138303000Y-107005300D02*
X139611700Y-108314000D01*
X140843000Y-105918000D02*
X140843000Y-107005300D01*
X142109200Y-107005300D02*
X140843000Y-107005300D01*
X143910300Y-108806400D02*
X142109200Y-107005300D01*
X150716400Y-108806400D02*
X143910300Y-108806400D01*
X153670000Y-111760000D02*
X150716400Y-108806400D01*
X143833300Y-107455600D02*
X143383000Y-107005300D01*
X151905600Y-107455600D02*
X143833300Y-107455600D01*
X156210000Y-111760000D02*
X151905600Y-107455600D01*
X143383000Y-105918000D02*
X143383000Y-107005300D01*
X144653000Y-105918000D02*
X144653000Y-107005300D01*
X153995300Y-107005300D02*
X144653000Y-107005300D01*
X158750000Y-111760000D02*
X153995300Y-107005300D01*
X165227000Y-106808000D02*
X165227000Y-108108300D01*
X165227000Y-108355600D02*
X165227000Y-108108300D01*
X161822600Y-111760000D02*
X165227000Y-108355600D01*
X161290000Y-111760000D02*
X161822600Y-111760000D01*
X168392300Y-99333600D02*
X167767000Y-98708300D01*
X168392300Y-109737700D02*
X168392300Y-99333600D01*
X166370000Y-111760000D02*
X168392300Y-109737700D01*
X167767000Y-97408000D02*
X167767000Y-98708300D01*
X163312400Y-103020400D02*
X163312400Y-109383300D01*
X162687000Y-102395000D02*
X163312400Y-103020400D01*
X162687000Y-97408000D02*
X162687000Y-102395000D01*
X135763000Y-105918000D02*
X135763000Y-107005300D01*
X145867400Y-114117400D02*
X148590000Y-116840000D01*
X144280900Y-114117400D02*
X145867400Y-114117400D01*
X142240000Y-112076500D02*
X144280900Y-114117400D01*
X142240000Y-111462300D02*
X142240000Y-112076500D01*
X140217400Y-109439700D02*
X142240000Y-111462300D01*
X138197400Y-109439700D02*
X140217400Y-109439700D01*
X135763000Y-107005300D02*
X138197400Y-109439700D01*
X150042600Y-115752600D02*
X151130000Y-116840000D01*
X148477400Y-115752600D02*
X150042600Y-115752600D01*
X144780000Y-112055200D02*
X148477400Y-115752600D01*
X144780000Y-111461400D02*
X144780000Y-112055200D01*
X143756900Y-110438300D02*
X144780000Y-111461400D01*
X143520700Y-110438300D02*
X143756900Y-110438300D01*
X141846800Y-108764400D02*
X143520700Y-110438300D01*
X138792100Y-108764400D02*
X141846800Y-108764400D01*
X137033000Y-107005300D02*
X138792100Y-108764400D01*
X137033000Y-105918000D02*
X137033000Y-107005300D01*
X152217400Y-115387400D02*
X153670000Y-116840000D01*
X152217400Y-111277400D02*
X152217400Y-115387400D01*
X150196700Y-109256700D02*
X152217400Y-111277400D01*
X143710200Y-109256700D02*
X150196700Y-109256700D01*
X141909200Y-107455700D02*
X143710200Y-109256700D01*
X140023400Y-107455700D02*
X141909200Y-107455700D01*
X139573000Y-107005300D02*
X140023400Y-107455700D01*
X139573000Y-105918000D02*
X139573000Y-107005300D01*
X142113000Y-106372200D02*
X142113000Y-105918000D01*
X143871900Y-108131100D02*
X142113000Y-106372200D01*
X151611100Y-108131100D02*
X143871900Y-108131100D01*
X154940000Y-111460000D02*
X151611100Y-108131100D01*
X154940000Y-115570000D02*
X154940000Y-111460000D01*
X156210000Y-116840000D02*
X154940000Y-115570000D01*
X144653000Y-99706700D02*
X144653000Y-98298000D01*
X144778100Y-99831800D02*
X144653000Y-99706700D01*
X167640000Y-113030000D02*
X163830000Y-116840000D01*
X167640000Y-111460000D02*
X167640000Y-113030000D01*
X170230200Y-108869800D02*
X167640000Y-111460000D01*
X171250400Y-108869800D02*
X170230200Y-108869800D01*
X172202400Y-107917800D02*
X171250400Y-108869800D01*
X172202400Y-103807800D02*
X172202400Y-107917800D01*
X170307000Y-101912400D02*
X172202400Y-103807800D01*
X170307000Y-97408000D02*
X170307000Y-101912400D01*
X152767400Y-82455300D02*
X152400000Y-82455300D01*
X153575300Y-83263200D02*
X152767400Y-82455300D01*
X153575300Y-87833200D02*
X153575300Y-83263200D01*
X154940000Y-89197900D02*
X153575300Y-87833200D01*
X154940000Y-90373200D02*
X154940000Y-89197900D01*
X152400000Y-81280000D02*
X152400000Y-82455300D01*
X163331600Y-96082600D02*
X161148000Y-93899000D01*
X163331600Y-100234100D02*
X163331600Y-96082600D01*
X166497000Y-103399500D02*
X163331600Y-100234100D01*
X166497000Y-106808000D02*
X166497000Y-103399500D01*
X167122400Y-107917700D02*
X164577000Y-110463100D01*
X167122400Y-102352200D02*
X167122400Y-107917700D01*
X165227000Y-100456800D02*
X167122400Y-102352200D01*
X165227000Y-97408000D02*
X165227000Y-100456800D01*
X145093600Y-118423600D02*
X143510000Y-116840000D01*
X168919100Y-118423600D02*
X145093600Y-118423600D01*
X170180000Y-117162700D02*
X168919100Y-118423600D01*
X170180000Y-110775300D02*
X170180000Y-117162700D01*
X172847000Y-108108300D02*
X170180000Y-110775300D01*
X172847000Y-106808000D02*
X172847000Y-108108300D01*
X167776800Y-117973200D02*
X168910000Y-116840000D01*
X163368500Y-117973200D02*
X167776800Y-117973200D01*
X162560000Y-117164700D02*
X163368500Y-117973200D01*
X162560000Y-115056000D02*
X162560000Y-117164700D01*
X160020000Y-112516000D02*
X162560000Y-115056000D01*
X160020000Y-111488300D02*
X160020000Y-112516000D01*
X153362400Y-104830700D02*
X160020000Y-111488300D01*
X145923000Y-104830700D02*
X153362400Y-104830700D01*
X145923000Y-105918000D02*
X145923000Y-104830700D01*
X161417000Y-106808000D02*
X161417000Y-105507700D01*
X147193000Y-98298000D02*
X147193000Y-99385300D01*
X160566700Y-99421700D02*
X160500200Y-99488200D01*
X160500200Y-104590900D02*
X161417000Y-105507700D01*
X160500200Y-99488200D02*
X160500200Y-104590900D01*
X129540000Y-96983200D02*
X129540000Y-92913200D01*
X133014000Y-100457200D02*
X129540000Y-96983200D01*
X146121100Y-100457200D02*
X133014000Y-100457200D01*
X147193000Y-99385300D02*
X146121100Y-100457200D01*
X147295900Y-99488200D02*
X147193000Y-99385300D01*
X160500200Y-99488200D02*
X147295900Y-99488200D01*
D20*
G36*
X183395835Y-79334616D02*
X184332571Y-79913093D01*
X184978153Y-80808124D01*
X185241252Y-81886782D01*
X185241252Y-117463290D01*
X185054726Y-118615283D01*
X184476247Y-119552020D01*
X183581218Y-120197601D01*
X182492147Y-120463240D01*
X124616559Y-120463240D01*
X123446717Y-120273824D01*
X122509980Y-119695345D01*
X121864399Y-118800316D01*
X121601300Y-117721658D01*
X121601300Y-114909600D01*
X122311756Y-114909600D01*
X122471295Y-115711655D01*
X122925623Y-116391605D01*
X123605573Y-116845933D01*
X124407628Y-117005472D01*
X125209683Y-116845933D01*
X125889633Y-116391605D01*
X126343961Y-115711655D01*
X126503500Y-114909600D01*
X126343961Y-114107545D01*
X125889633Y-113427595D01*
X125209683Y-112973267D01*
X124407628Y-112813728D01*
X123605573Y-112973267D01*
X122925623Y-113427595D01*
X122471295Y-114107545D01*
X122311756Y-114909600D01*
X121601300Y-114909600D01*
X121601300Y-106203750D01*
X132080000Y-106203750D01*
X132080000Y-106806310D01*
X132176673Y-107039699D01*
X132355302Y-107218327D01*
X132588691Y-107315000D01*
X132810250Y-107315000D01*
X132969000Y-107156250D01*
X132969000Y-106045000D01*
X133223000Y-106045000D01*
X133223000Y-107156250D01*
X133381750Y-107315000D01*
X133603309Y-107315000D01*
X133794500Y-107235806D01*
X133985691Y-107315000D01*
X134207250Y-107315000D01*
X134366000Y-107156250D01*
X134366000Y-106045000D01*
X133223000Y-106045000D01*
X132969000Y-106045000D01*
X132238750Y-106045000D01*
X132080000Y-106203750D01*
X121601300Y-106203750D01*
X121601300Y-105029690D01*
X132080000Y-105029690D01*
X132080000Y-105632250D01*
X132238750Y-105791000D01*
X132969000Y-105791000D01*
X132969000Y-104679750D01*
X133223000Y-104679750D01*
X133223000Y-105791000D01*
X134366000Y-105791000D01*
X134366000Y-104679750D01*
X134207250Y-104521000D01*
X133985691Y-104521000D01*
X133794500Y-104600194D01*
X133603309Y-104521000D01*
X133381750Y-104521000D01*
X133223000Y-104679750D01*
X132969000Y-104679750D01*
X132810250Y-104521000D01*
X132588691Y-104521000D01*
X132355302Y-104617673D01*
X132176673Y-104796301D01*
X132080000Y-105029690D01*
X121601300Y-105029690D01*
X121601300Y-92063200D01*
X128042560Y-92063200D01*
X128042560Y-93763200D01*
X128086838Y-93998517D01*
X128225910Y-94214641D01*
X128438110Y-94359631D01*
X128690000Y-94410640D01*
X128780000Y-94410640D01*
X128780000Y-96983200D01*
X128837852Y-97274039D01*
X129002599Y-97520601D01*
X132476599Y-100994601D01*
X132723161Y-101159348D01*
X133014000Y-101217200D01*
X146121100Y-101217200D01*
X146411939Y-101159348D01*
X146658501Y-100994601D01*
X147404902Y-100248200D01*
X159740200Y-100248200D01*
X159740200Y-104590900D01*
X159798052Y-104881739D01*
X159962799Y-105128301D01*
X160502893Y-105668395D01*
X160469560Y-105833000D01*
X160469560Y-107783000D01*
X160513838Y-108018317D01*
X160652910Y-108234441D01*
X160865110Y-108379431D01*
X161117000Y-108430440D01*
X161717000Y-108430440D01*
X161952317Y-108386162D01*
X162042980Y-108327822D01*
X162260690Y-108418000D01*
X162401250Y-108418000D01*
X162552400Y-108266850D01*
X162552400Y-108820837D01*
X162520208Y-108852973D01*
X162377562Y-109196501D01*
X162377238Y-109568467D01*
X162519283Y-109912243D01*
X162557386Y-109950412D01*
X161975714Y-110532084D01*
X161569100Y-110363243D01*
X161013339Y-110362758D01*
X160499697Y-110574990D01*
X160340456Y-110733954D01*
X153899801Y-104293299D01*
X153653239Y-104128552D01*
X153362400Y-104070700D01*
X145923000Y-104070700D01*
X145632161Y-104128552D01*
X145385599Y-104293299D01*
X145220852Y-104539861D01*
X145219602Y-104546145D01*
X145034000Y-104508560D01*
X144272000Y-104508560D01*
X144036683Y-104552838D01*
X144020901Y-104562993D01*
X144015890Y-104559569D01*
X143764000Y-104508560D01*
X143002000Y-104508560D01*
X142766683Y-104552838D01*
X142750901Y-104562993D01*
X142745890Y-104559569D01*
X142494000Y-104508560D01*
X141732000Y-104508560D01*
X141496683Y-104552838D01*
X141480901Y-104562993D01*
X141475890Y-104559569D01*
X141224000Y-104508560D01*
X140462000Y-104508560D01*
X140226683Y-104552838D01*
X140210901Y-104562993D01*
X140205890Y-104559569D01*
X139954000Y-104508560D01*
X139192000Y-104508560D01*
X138956683Y-104552838D01*
X138940901Y-104562993D01*
X138935890Y-104559569D01*
X138684000Y-104508560D01*
X137922000Y-104508560D01*
X137686683Y-104552838D01*
X137670901Y-104562993D01*
X137665890Y-104559569D01*
X137414000Y-104508560D01*
X136652000Y-104508560D01*
X136416683Y-104552838D01*
X136400901Y-104562993D01*
X136395890Y-104559569D01*
X136144000Y-104508560D01*
X135382000Y-104508560D01*
X135146683Y-104552838D01*
X135119461Y-104570355D01*
X135000309Y-104521000D01*
X134778750Y-104521000D01*
X134620000Y-104679750D01*
X134620000Y-105791000D01*
X134640000Y-105791000D01*
X134640000Y-106045000D01*
X134620000Y-106045000D01*
X134620000Y-107156250D01*
X134778750Y-107315000D01*
X135000309Y-107315000D01*
X135059710Y-107290395D01*
X135060852Y-107296139D01*
X135225599Y-107542701D01*
X137659998Y-109977101D01*
X137803750Y-110073152D01*
X137906561Y-110141848D01*
X138197400Y-110199700D01*
X139902598Y-110199700D01*
X140249179Y-110546281D01*
X140179697Y-110574990D01*
X139786371Y-110967630D01*
X139700051Y-111175512D01*
X139615010Y-110969697D01*
X139222370Y-110576371D01*
X138709100Y-110363243D01*
X138153339Y-110362758D01*
X137639697Y-110574990D01*
X137246371Y-110967630D01*
X137160051Y-111175512D01*
X137075010Y-110969697D01*
X136682370Y-110576371D01*
X136169100Y-110363243D01*
X135613339Y-110362758D01*
X135099697Y-110574990D01*
X134746237Y-110927833D01*
X134715162Y-110762683D01*
X134576090Y-110546559D01*
X134363890Y-110401569D01*
X134112000Y-110350560D01*
X132588000Y-110350560D01*
X132352683Y-110394838D01*
X132136559Y-110533910D01*
X131991569Y-110746110D01*
X131940560Y-110998000D01*
X131940560Y-112522000D01*
X131984838Y-112757317D01*
X132123910Y-112973441D01*
X132336110Y-113118431D01*
X132588000Y-113169440D01*
X134112000Y-113169440D01*
X134347317Y-113125162D01*
X134563441Y-112986090D01*
X134708431Y-112773890D01*
X134745492Y-112590876D01*
X135097630Y-112943629D01*
X135610900Y-113156757D01*
X136166661Y-113157242D01*
X136680303Y-112945010D01*
X137073629Y-112552370D01*
X137159949Y-112344488D01*
X137244990Y-112550303D01*
X137637630Y-112943629D01*
X138150900Y-113156757D01*
X138706661Y-113157242D01*
X139220303Y-112945010D01*
X139613629Y-112552370D01*
X139699949Y-112344488D01*
X139784990Y-112550303D01*
X140177630Y-112943629D01*
X140690900Y-113156757D01*
X141246661Y-113157242D01*
X141760303Y-112945010D01*
X141897125Y-112808427D01*
X143743499Y-114654801D01*
X143990060Y-114819548D01*
X144038314Y-114829146D01*
X144280900Y-114877400D01*
X145552598Y-114877400D01*
X146118257Y-115443059D01*
X145773339Y-115442758D01*
X145259697Y-115654990D01*
X144866371Y-116047630D01*
X144780051Y-116255512D01*
X144695010Y-116049697D01*
X144302370Y-115656371D01*
X143789100Y-115443243D01*
X143233339Y-115442758D01*
X142719697Y-115654990D01*
X142326371Y-116047630D01*
X142240051Y-116255512D01*
X142155010Y-116049697D01*
X141762370Y-115656371D01*
X141249100Y-115443243D01*
X140693339Y-115442758D01*
X140179697Y-115654990D01*
X139786371Y-116047630D01*
X139700051Y-116255512D01*
X139615010Y-116049697D01*
X139222370Y-115656371D01*
X138709100Y-115443243D01*
X138153339Y-115442758D01*
X137639697Y-115654990D01*
X137246371Y-116047630D01*
X137160051Y-116255512D01*
X137075010Y-116049697D01*
X136682370Y-115656371D01*
X136169100Y-115443243D01*
X135613339Y-115442758D01*
X135099697Y-115654990D01*
X134706371Y-116047630D01*
X134620051Y-116255512D01*
X134535010Y-116049697D01*
X134142370Y-115656371D01*
X133629100Y-115443243D01*
X133073339Y-115442758D01*
X132559697Y-115654990D01*
X132166371Y-116047630D01*
X131953243Y-116560900D01*
X131952758Y-117116661D01*
X132164990Y-117630303D01*
X132557630Y-118023629D01*
X133070900Y-118236757D01*
X133626661Y-118237242D01*
X134140303Y-118025010D01*
X134533629Y-117632370D01*
X134619949Y-117424488D01*
X134704990Y-117630303D01*
X135097630Y-118023629D01*
X135610900Y-118236757D01*
X136166661Y-118237242D01*
X136680303Y-118025010D01*
X137073629Y-117632370D01*
X137159949Y-117424488D01*
X137244990Y-117630303D01*
X137637630Y-118023629D01*
X138150900Y-118236757D01*
X138706661Y-118237242D01*
X139220303Y-118025010D01*
X139613629Y-117632370D01*
X139699949Y-117424488D01*
X139784990Y-117630303D01*
X140177630Y-118023629D01*
X140690900Y-118236757D01*
X141246661Y-118237242D01*
X141760303Y-118025010D01*
X142153629Y-117632370D01*
X142239949Y-117424488D01*
X142324990Y-117630303D01*
X142717630Y-118023629D01*
X143230900Y-118236757D01*
X143786661Y-118237242D01*
X143819055Y-118223857D01*
X144556199Y-118961001D01*
X144802761Y-119125748D01*
X145093600Y-119183600D01*
X168919100Y-119183600D01*
X169209939Y-119125748D01*
X169456501Y-118961001D01*
X170525867Y-117891635D01*
X170657630Y-118023629D01*
X171170900Y-118236757D01*
X171726661Y-118237242D01*
X172240303Y-118025010D01*
X172445457Y-117820213D01*
X173189392Y-117820213D01*
X173258857Y-118062397D01*
X173782302Y-118249144D01*
X174337368Y-118221362D01*
X174721143Y-118062397D01*
X174790608Y-117820213D01*
X173990000Y-117019605D01*
X173189392Y-117820213D01*
X172445457Y-117820213D01*
X172633629Y-117632370D01*
X172713395Y-117440273D01*
X172767603Y-117571143D01*
X173009787Y-117640608D01*
X173810395Y-116840000D01*
X174169605Y-116840000D01*
X174970213Y-117640608D01*
X175212397Y-117571143D01*
X175399144Y-117047698D01*
X175371362Y-116492632D01*
X175212397Y-116108857D01*
X174970213Y-116039392D01*
X174169605Y-116840000D01*
X173810395Y-116840000D01*
X173009787Y-116039392D01*
X172767603Y-116108857D01*
X172717491Y-116249318D01*
X172635010Y-116049697D01*
X172445432Y-115859787D01*
X173189392Y-115859787D01*
X173990000Y-116660395D01*
X174790608Y-115859787D01*
X174721143Y-115617603D01*
X174197698Y-115430856D01*
X173642632Y-115458638D01*
X173258857Y-115617603D01*
X173189392Y-115859787D01*
X172445432Y-115859787D01*
X172242370Y-115656371D01*
X171729100Y-115443243D01*
X171173339Y-115442758D01*
X170940000Y-115539171D01*
X170940000Y-114909600D01*
X180301528Y-114909600D01*
X180461067Y-115711655D01*
X180915395Y-116391605D01*
X181595345Y-116845933D01*
X182397400Y-117005472D01*
X183199455Y-116845933D01*
X183879405Y-116391605D01*
X184333733Y-115711655D01*
X184493272Y-114909600D01*
X184333733Y-114107545D01*
X183879405Y-113427595D01*
X183199455Y-112973267D01*
X182397400Y-112813728D01*
X181595345Y-112973267D01*
X180915395Y-113427595D01*
X180461067Y-114107545D01*
X180301528Y-114909600D01*
X170940000Y-114909600D01*
X170940000Y-113060879D01*
X171170900Y-113156757D01*
X171726661Y-113157242D01*
X172240303Y-112945010D01*
X172633629Y-112552370D01*
X172719949Y-112344488D01*
X172804990Y-112550303D01*
X173197630Y-112943629D01*
X173710900Y-113156757D01*
X174266661Y-113157242D01*
X174780303Y-112945010D01*
X175173629Y-112552370D01*
X175386757Y-112039100D01*
X175387189Y-111543679D01*
X179640834Y-107290034D01*
X179724472Y-107164861D01*
X179821839Y-107019141D01*
X179885400Y-106699600D01*
X179885400Y-82713500D01*
X179821839Y-82393959D01*
X179640834Y-82123066D01*
X179457634Y-81939866D01*
X179364114Y-81877378D01*
X179194504Y-81764048D01*
X179285000Y-81309093D01*
X179285000Y-81250907D01*
X179171961Y-80682622D01*
X178850054Y-80200853D01*
X178368285Y-79878946D01*
X177800000Y-79765907D01*
X177231715Y-79878946D01*
X176887467Y-80108965D01*
X176340801Y-79562299D01*
X176094239Y-79397552D01*
X175803400Y-79339700D01*
X164543700Y-79339700D01*
X164252860Y-79397552D01*
X164006299Y-79562299D01*
X163448995Y-80119603D01*
X163326924Y-80008355D01*
X162916890Y-79838524D01*
X162687000Y-79959845D01*
X162687000Y-81153000D01*
X162707000Y-81153000D01*
X162707000Y-81407000D01*
X162687000Y-81407000D01*
X162687000Y-81427000D01*
X162433000Y-81427000D01*
X162433000Y-81407000D01*
X162413000Y-81407000D01*
X162413000Y-81153000D01*
X162433000Y-81153000D01*
X162433000Y-79959845D01*
X162203110Y-79838524D01*
X161793076Y-80008355D01*
X161364817Y-80398642D01*
X161298211Y-80540470D01*
X161296790Y-80540188D01*
X161070054Y-80200853D01*
X160588285Y-79878946D01*
X160020000Y-79765907D01*
X159451715Y-79878946D01*
X159094279Y-80117777D01*
X158540801Y-79564299D01*
X158294239Y-79399552D01*
X158003400Y-79341700D01*
X149306200Y-79341700D01*
X149015361Y-79399552D01*
X148768799Y-79564299D01*
X148227498Y-80105600D01*
X147888285Y-79878946D01*
X147320000Y-79765907D01*
X146751715Y-79878946D01*
X146412502Y-80105600D01*
X145874201Y-79567299D01*
X145627639Y-79402552D01*
X145336800Y-79344700D01*
X141672600Y-79344700D01*
X141430014Y-79392954D01*
X141381760Y-79402552D01*
X141135199Y-79567299D01*
X140601144Y-80101354D01*
X140268285Y-79878946D01*
X139700000Y-79765907D01*
X139131715Y-79878946D01*
X138649946Y-80200853D01*
X138422298Y-80541553D01*
X138355183Y-80398642D01*
X137926924Y-80008355D01*
X137516890Y-79838524D01*
X137287000Y-79959845D01*
X137287000Y-81153000D01*
X137307000Y-81153000D01*
X137307000Y-81407000D01*
X137287000Y-81407000D01*
X137287000Y-81427000D01*
X137033000Y-81427000D01*
X137033000Y-81407000D01*
X137013000Y-81407000D01*
X137013000Y-81153000D01*
X137033000Y-81153000D01*
X137033000Y-79959845D01*
X136803110Y-79838524D01*
X136393076Y-80008355D01*
X135964817Y-80398642D01*
X135897702Y-80541553D01*
X135670054Y-80200853D01*
X135188285Y-79878946D01*
X134620000Y-79765907D01*
X134051715Y-79878946D01*
X133569946Y-80200853D01*
X133350000Y-80530026D01*
X133130054Y-80200853D01*
X132648285Y-79878946D01*
X132080000Y-79765907D01*
X131511715Y-79878946D01*
X131029946Y-80200853D01*
X130810000Y-80530026D01*
X130590054Y-80200853D01*
X130108285Y-79878946D01*
X129540000Y-79765907D01*
X128971715Y-79878946D01*
X128489946Y-80200853D01*
X128168039Y-80682622D01*
X128055000Y-81250907D01*
X128055000Y-81309093D01*
X128168039Y-81877378D01*
X128489946Y-82359147D01*
X128775578Y-82550000D01*
X128489946Y-82740853D01*
X128168039Y-83222622D01*
X128055000Y-83790907D01*
X128055000Y-83849093D01*
X128168039Y-84417378D01*
X128489946Y-84899147D01*
X128971715Y-85221054D01*
X129540000Y-85334093D01*
X130108285Y-85221054D01*
X130590054Y-84899147D01*
X130810000Y-84569974D01*
X131029946Y-84899147D01*
X131511715Y-85221054D01*
X132080000Y-85334093D01*
X132648285Y-85221054D01*
X133130054Y-84899147D01*
X133350000Y-84569974D01*
X133569946Y-84899147D01*
X134051715Y-85221054D01*
X134620000Y-85334093D01*
X135188285Y-85221054D01*
X135670054Y-84899147D01*
X135890000Y-84569974D01*
X136109946Y-84899147D01*
X136587296Y-85218102D01*
X135352599Y-86452799D01*
X135187852Y-86699361D01*
X135130000Y-86990200D01*
X135130000Y-88995140D01*
X134976890Y-88931724D01*
X134747000Y-89053045D01*
X134747000Y-90246200D01*
X134767000Y-90246200D01*
X134767000Y-90500200D01*
X134747000Y-90500200D01*
X134747000Y-90520200D01*
X134493000Y-90520200D01*
X134493000Y-90500200D01*
X134473000Y-90500200D01*
X134473000Y-90246200D01*
X134493000Y-90246200D01*
X134493000Y-89053045D01*
X134263110Y-88931724D01*
X133853076Y-89101555D01*
X133424817Y-89491842D01*
X133357702Y-89634753D01*
X133130054Y-89294053D01*
X132648285Y-88972146D01*
X132080000Y-88859107D01*
X131511715Y-88972146D01*
X131029946Y-89294053D01*
X130810000Y-89623226D01*
X130590054Y-89294053D01*
X130108285Y-88972146D01*
X129540000Y-88859107D01*
X128971715Y-88972146D01*
X128489946Y-89294053D01*
X128168039Y-89775822D01*
X128055000Y-90344107D01*
X128055000Y-90402293D01*
X128168039Y-90970578D01*
X128489946Y-91452347D01*
X128491179Y-91453171D01*
X128454683Y-91460038D01*
X128238559Y-91599110D01*
X128093569Y-91811310D01*
X128042560Y-92063200D01*
X121601300Y-92063200D01*
X121601300Y-82155876D01*
X121789974Y-80990617D01*
X122368451Y-80053881D01*
X123263482Y-79408299D01*
X124342140Y-79145200D01*
X182225993Y-79145200D01*
X183395835Y-79334616D01*
X183395835Y-79334616D01*
G37*
X183395835Y-79334616D02*
X184332571Y-79913093D01*
X184978153Y-80808124D01*
X185241252Y-81886782D01*
X185241252Y-117463290D01*
X185054726Y-118615283D01*
X184476247Y-119552020D01*
X183581218Y-120197601D01*
X182492147Y-120463240D01*
X124616559Y-120463240D01*
X123446717Y-120273824D01*
X122509980Y-119695345D01*
X121864399Y-118800316D01*
X121601300Y-117721658D01*
X121601300Y-114909600D01*
X122311756Y-114909600D01*
X122471295Y-115711655D01*
X122925623Y-116391605D01*
X123605573Y-116845933D01*
X124407628Y-117005472D01*
X125209683Y-116845933D01*
X125889633Y-116391605D01*
X126343961Y-115711655D01*
X126503500Y-114909600D01*
X126343961Y-114107545D01*
X125889633Y-113427595D01*
X125209683Y-112973267D01*
X124407628Y-112813728D01*
X123605573Y-112973267D01*
X122925623Y-113427595D01*
X122471295Y-114107545D01*
X122311756Y-114909600D01*
X121601300Y-114909600D01*
X121601300Y-106203750D01*
X132080000Y-106203750D01*
X132080000Y-106806310D01*
X132176673Y-107039699D01*
X132355302Y-107218327D01*
X132588691Y-107315000D01*
X132810250Y-107315000D01*
X132969000Y-107156250D01*
X132969000Y-106045000D01*
X133223000Y-106045000D01*
X133223000Y-107156250D01*
X133381750Y-107315000D01*
X133603309Y-107315000D01*
X133794500Y-107235806D01*
X133985691Y-107315000D01*
X134207250Y-107315000D01*
X134366000Y-107156250D01*
X134366000Y-106045000D01*
X133223000Y-106045000D01*
X132969000Y-106045000D01*
X132238750Y-106045000D01*
X132080000Y-106203750D01*
X121601300Y-106203750D01*
X121601300Y-105029690D01*
X132080000Y-105029690D01*
X132080000Y-105632250D01*
X132238750Y-105791000D01*
X132969000Y-105791000D01*
X132969000Y-104679750D01*
X133223000Y-104679750D01*
X133223000Y-105791000D01*
X134366000Y-105791000D01*
X134366000Y-104679750D01*
X134207250Y-104521000D01*
X133985691Y-104521000D01*
X133794500Y-104600194D01*
X133603309Y-104521000D01*
X133381750Y-104521000D01*
X133223000Y-104679750D01*
X132969000Y-104679750D01*
X132810250Y-104521000D01*
X132588691Y-104521000D01*
X132355302Y-104617673D01*
X132176673Y-104796301D01*
X132080000Y-105029690D01*
X121601300Y-105029690D01*
X121601300Y-92063200D01*
X128042560Y-92063200D01*
X128042560Y-93763200D01*
X128086838Y-93998517D01*
X128225910Y-94214641D01*
X128438110Y-94359631D01*
X128690000Y-94410640D01*
X128780000Y-94410640D01*
X128780000Y-96983200D01*
X128837852Y-97274039D01*
X129002599Y-97520601D01*
X132476599Y-100994601D01*
X132723161Y-101159348D01*
X133014000Y-101217200D01*
X146121100Y-101217200D01*
X146411939Y-101159348D01*
X146658501Y-100994601D01*
X147404902Y-100248200D01*
X159740200Y-100248200D01*
X159740200Y-104590900D01*
X159798052Y-104881739D01*
X159962799Y-105128301D01*
X160502893Y-105668395D01*
X160469560Y-105833000D01*
X160469560Y-107783000D01*
X160513838Y-108018317D01*
X160652910Y-108234441D01*
X160865110Y-108379431D01*
X161117000Y-108430440D01*
X161717000Y-108430440D01*
X161952317Y-108386162D01*
X162042980Y-108327822D01*
X162260690Y-108418000D01*
X162401250Y-108418000D01*
X162552400Y-108266850D01*
X162552400Y-108820837D01*
X162520208Y-108852973D01*
X162377562Y-109196501D01*
X162377238Y-109568467D01*
X162519283Y-109912243D01*
X162557386Y-109950412D01*
X161975714Y-110532084D01*
X161569100Y-110363243D01*
X161013339Y-110362758D01*
X160499697Y-110574990D01*
X160340456Y-110733954D01*
X153899801Y-104293299D01*
X153653239Y-104128552D01*
X153362400Y-104070700D01*
X145923000Y-104070700D01*
X145632161Y-104128552D01*
X145385599Y-104293299D01*
X145220852Y-104539861D01*
X145219602Y-104546145D01*
X145034000Y-104508560D01*
X144272000Y-104508560D01*
X144036683Y-104552838D01*
X144020901Y-104562993D01*
X144015890Y-104559569D01*
X143764000Y-104508560D01*
X143002000Y-104508560D01*
X142766683Y-104552838D01*
X142750901Y-104562993D01*
X142745890Y-104559569D01*
X142494000Y-104508560D01*
X141732000Y-104508560D01*
X141496683Y-104552838D01*
X141480901Y-104562993D01*
X141475890Y-104559569D01*
X141224000Y-104508560D01*
X140462000Y-104508560D01*
X140226683Y-104552838D01*
X140210901Y-104562993D01*
X140205890Y-104559569D01*
X139954000Y-104508560D01*
X139192000Y-104508560D01*
X138956683Y-104552838D01*
X138940901Y-104562993D01*
X138935890Y-104559569D01*
X138684000Y-104508560D01*
X137922000Y-104508560D01*
X137686683Y-104552838D01*
X137670901Y-104562993D01*
X137665890Y-104559569D01*
X137414000Y-104508560D01*
X136652000Y-104508560D01*
X136416683Y-104552838D01*
X136400901Y-104562993D01*
X136395890Y-104559569D01*
X136144000Y-104508560D01*
X135382000Y-104508560D01*
X135146683Y-104552838D01*
X135119461Y-104570355D01*
X135000309Y-104521000D01*
X134778750Y-104521000D01*
X134620000Y-104679750D01*
X134620000Y-105791000D01*
X134640000Y-105791000D01*
X134640000Y-106045000D01*
X134620000Y-106045000D01*
X134620000Y-107156250D01*
X134778750Y-107315000D01*
X135000309Y-107315000D01*
X135059710Y-107290395D01*
X135060852Y-107296139D01*
X135225599Y-107542701D01*
X137659998Y-109977101D01*
X137803750Y-110073152D01*
X137906561Y-110141848D01*
X138197400Y-110199700D01*
X139902598Y-110199700D01*
X140249179Y-110546281D01*
X140179697Y-110574990D01*
X139786371Y-110967630D01*
X139700051Y-111175512D01*
X139615010Y-110969697D01*
X139222370Y-110576371D01*
X138709100Y-110363243D01*
X138153339Y-110362758D01*
X137639697Y-110574990D01*
X137246371Y-110967630D01*
X137160051Y-111175512D01*
X137075010Y-110969697D01*
X136682370Y-110576371D01*
X136169100Y-110363243D01*
X135613339Y-110362758D01*
X135099697Y-110574990D01*
X134746237Y-110927833D01*
X134715162Y-110762683D01*
X134576090Y-110546559D01*
X134363890Y-110401569D01*
X134112000Y-110350560D01*
X132588000Y-110350560D01*
X132352683Y-110394838D01*
X132136559Y-110533910D01*
X131991569Y-110746110D01*
X131940560Y-110998000D01*
X131940560Y-112522000D01*
X131984838Y-112757317D01*
X132123910Y-112973441D01*
X132336110Y-113118431D01*
X132588000Y-113169440D01*
X134112000Y-113169440D01*
X134347317Y-113125162D01*
X134563441Y-112986090D01*
X134708431Y-112773890D01*
X134745492Y-112590876D01*
X135097630Y-112943629D01*
X135610900Y-113156757D01*
X136166661Y-113157242D01*
X136680303Y-112945010D01*
X137073629Y-112552370D01*
X137159949Y-112344488D01*
X137244990Y-112550303D01*
X137637630Y-112943629D01*
X138150900Y-113156757D01*
X138706661Y-113157242D01*
X139220303Y-112945010D01*
X139613629Y-112552370D01*
X139699949Y-112344488D01*
X139784990Y-112550303D01*
X140177630Y-112943629D01*
X140690900Y-113156757D01*
X141246661Y-113157242D01*
X141760303Y-112945010D01*
X141897125Y-112808427D01*
X143743499Y-114654801D01*
X143990060Y-114819548D01*
X144038314Y-114829146D01*
X144280900Y-114877400D01*
X145552598Y-114877400D01*
X146118257Y-115443059D01*
X145773339Y-115442758D01*
X145259697Y-115654990D01*
X144866371Y-116047630D01*
X144780051Y-116255512D01*
X144695010Y-116049697D01*
X144302370Y-115656371D01*
X143789100Y-115443243D01*
X143233339Y-115442758D01*
X142719697Y-115654990D01*
X142326371Y-116047630D01*
X142240051Y-116255512D01*
X142155010Y-116049697D01*
X141762370Y-115656371D01*
X141249100Y-115443243D01*
X140693339Y-115442758D01*
X140179697Y-115654990D01*
X139786371Y-116047630D01*
X139700051Y-116255512D01*
X139615010Y-116049697D01*
X139222370Y-115656371D01*
X138709100Y-115443243D01*
X138153339Y-115442758D01*
X137639697Y-115654990D01*
X137246371Y-116047630D01*
X137160051Y-116255512D01*
X137075010Y-116049697D01*
X136682370Y-115656371D01*
X136169100Y-115443243D01*
X135613339Y-115442758D01*
X135099697Y-115654990D01*
X134706371Y-116047630D01*
X134620051Y-116255512D01*
X134535010Y-116049697D01*
X134142370Y-115656371D01*
X133629100Y-115443243D01*
X133073339Y-115442758D01*
X132559697Y-115654990D01*
X132166371Y-116047630D01*
X131953243Y-116560900D01*
X131952758Y-117116661D01*
X132164990Y-117630303D01*
X132557630Y-118023629D01*
X133070900Y-118236757D01*
X133626661Y-118237242D01*
X134140303Y-118025010D01*
X134533629Y-117632370D01*
X134619949Y-117424488D01*
X134704990Y-117630303D01*
X135097630Y-118023629D01*
X135610900Y-118236757D01*
X136166661Y-118237242D01*
X136680303Y-118025010D01*
X137073629Y-117632370D01*
X137159949Y-117424488D01*
X137244990Y-117630303D01*
X137637630Y-118023629D01*
X138150900Y-118236757D01*
X138706661Y-118237242D01*
X139220303Y-118025010D01*
X139613629Y-117632370D01*
X139699949Y-117424488D01*
X139784990Y-117630303D01*
X140177630Y-118023629D01*
X140690900Y-118236757D01*
X141246661Y-118237242D01*
X141760303Y-118025010D01*
X142153629Y-117632370D01*
X142239949Y-117424488D01*
X142324990Y-117630303D01*
X142717630Y-118023629D01*
X143230900Y-118236757D01*
X143786661Y-118237242D01*
X143819055Y-118223857D01*
X144556199Y-118961001D01*
X144802761Y-119125748D01*
X145093600Y-119183600D01*
X168919100Y-119183600D01*
X169209939Y-119125748D01*
X169456501Y-118961001D01*
X170525867Y-117891635D01*
X170657630Y-118023629D01*
X171170900Y-118236757D01*
X171726661Y-118237242D01*
X172240303Y-118025010D01*
X172445457Y-117820213D01*
X173189392Y-117820213D01*
X173258857Y-118062397D01*
X173782302Y-118249144D01*
X174337368Y-118221362D01*
X174721143Y-118062397D01*
X174790608Y-117820213D01*
X173990000Y-117019605D01*
X173189392Y-117820213D01*
X172445457Y-117820213D01*
X172633629Y-117632370D01*
X172713395Y-117440273D01*
X172767603Y-117571143D01*
X173009787Y-117640608D01*
X173810395Y-116840000D01*
X174169605Y-116840000D01*
X174970213Y-117640608D01*
X175212397Y-117571143D01*
X175399144Y-117047698D01*
X175371362Y-116492632D01*
X175212397Y-116108857D01*
X174970213Y-116039392D01*
X174169605Y-116840000D01*
X173810395Y-116840000D01*
X173009787Y-116039392D01*
X172767603Y-116108857D01*
X172717491Y-116249318D01*
X172635010Y-116049697D01*
X172445432Y-115859787D01*
X173189392Y-115859787D01*
X173990000Y-116660395D01*
X174790608Y-115859787D01*
X174721143Y-115617603D01*
X174197698Y-115430856D01*
X173642632Y-115458638D01*
X173258857Y-115617603D01*
X173189392Y-115859787D01*
X172445432Y-115859787D01*
X172242370Y-115656371D01*
X171729100Y-115443243D01*
X171173339Y-115442758D01*
X170940000Y-115539171D01*
X170940000Y-114909600D01*
X180301528Y-114909600D01*
X180461067Y-115711655D01*
X180915395Y-116391605D01*
X181595345Y-116845933D01*
X182397400Y-117005472D01*
X183199455Y-116845933D01*
X183879405Y-116391605D01*
X184333733Y-115711655D01*
X184493272Y-114909600D01*
X184333733Y-114107545D01*
X183879405Y-113427595D01*
X183199455Y-112973267D01*
X182397400Y-112813728D01*
X181595345Y-112973267D01*
X180915395Y-113427595D01*
X180461067Y-114107545D01*
X180301528Y-114909600D01*
X170940000Y-114909600D01*
X170940000Y-113060879D01*
X171170900Y-113156757D01*
X171726661Y-113157242D01*
X172240303Y-112945010D01*
X172633629Y-112552370D01*
X172719949Y-112344488D01*
X172804990Y-112550303D01*
X173197630Y-112943629D01*
X173710900Y-113156757D01*
X174266661Y-113157242D01*
X174780303Y-112945010D01*
X175173629Y-112552370D01*
X175386757Y-112039100D01*
X175387189Y-111543679D01*
X179640834Y-107290034D01*
X179724472Y-107164861D01*
X179821839Y-107019141D01*
X179885400Y-106699600D01*
X179885400Y-82713500D01*
X179821839Y-82393959D01*
X179640834Y-82123066D01*
X179457634Y-81939866D01*
X179364114Y-81877378D01*
X179194504Y-81764048D01*
X179285000Y-81309093D01*
X179285000Y-81250907D01*
X179171961Y-80682622D01*
X178850054Y-80200853D01*
X178368285Y-79878946D01*
X177800000Y-79765907D01*
X177231715Y-79878946D01*
X176887467Y-80108965D01*
X176340801Y-79562299D01*
X176094239Y-79397552D01*
X175803400Y-79339700D01*
X164543700Y-79339700D01*
X164252860Y-79397552D01*
X164006299Y-79562299D01*
X163448995Y-80119603D01*
X163326924Y-80008355D01*
X162916890Y-79838524D01*
X162687000Y-79959845D01*
X162687000Y-81153000D01*
X162707000Y-81153000D01*
X162707000Y-81407000D01*
X162687000Y-81407000D01*
X162687000Y-81427000D01*
X162433000Y-81427000D01*
X162433000Y-81407000D01*
X162413000Y-81407000D01*
X162413000Y-81153000D01*
X162433000Y-81153000D01*
X162433000Y-79959845D01*
X162203110Y-79838524D01*
X161793076Y-80008355D01*
X161364817Y-80398642D01*
X161298211Y-80540470D01*
X161296790Y-80540188D01*
X161070054Y-80200853D01*
X160588285Y-79878946D01*
X160020000Y-79765907D01*
X159451715Y-79878946D01*
X159094279Y-80117777D01*
X158540801Y-79564299D01*
X158294239Y-79399552D01*
X158003400Y-79341700D01*
X149306200Y-79341700D01*
X149015361Y-79399552D01*
X148768799Y-79564299D01*
X148227498Y-80105600D01*
X147888285Y-79878946D01*
X147320000Y-79765907D01*
X146751715Y-79878946D01*
X146412502Y-80105600D01*
X145874201Y-79567299D01*
X145627639Y-79402552D01*
X145336800Y-79344700D01*
X141672600Y-79344700D01*
X141430014Y-79392954D01*
X141381760Y-79402552D01*
X141135199Y-79567299D01*
X140601144Y-80101354D01*
X140268285Y-79878946D01*
X139700000Y-79765907D01*
X139131715Y-79878946D01*
X138649946Y-80200853D01*
X138422298Y-80541553D01*
X138355183Y-80398642D01*
X137926924Y-80008355D01*
X137516890Y-79838524D01*
X137287000Y-79959845D01*
X137287000Y-81153000D01*
X137307000Y-81153000D01*
X137307000Y-81407000D01*
X137287000Y-81407000D01*
X137287000Y-81427000D01*
X137033000Y-81427000D01*
X137033000Y-81407000D01*
X137013000Y-81407000D01*
X137013000Y-81153000D01*
X137033000Y-81153000D01*
X137033000Y-79959845D01*
X136803110Y-79838524D01*
X136393076Y-80008355D01*
X135964817Y-80398642D01*
X135897702Y-80541553D01*
X135670054Y-80200853D01*
X135188285Y-79878946D01*
X134620000Y-79765907D01*
X134051715Y-79878946D01*
X133569946Y-80200853D01*
X133350000Y-80530026D01*
X133130054Y-80200853D01*
X132648285Y-79878946D01*
X132080000Y-79765907D01*
X131511715Y-79878946D01*
X131029946Y-80200853D01*
X130810000Y-80530026D01*
X130590054Y-80200853D01*
X130108285Y-79878946D01*
X129540000Y-79765907D01*
X128971715Y-79878946D01*
X128489946Y-80200853D01*
X128168039Y-80682622D01*
X128055000Y-81250907D01*
X128055000Y-81309093D01*
X128168039Y-81877378D01*
X128489946Y-82359147D01*
X128775578Y-82550000D01*
X128489946Y-82740853D01*
X128168039Y-83222622D01*
X128055000Y-83790907D01*
X128055000Y-83849093D01*
X128168039Y-84417378D01*
X128489946Y-84899147D01*
X128971715Y-85221054D01*
X129540000Y-85334093D01*
X130108285Y-85221054D01*
X130590054Y-84899147D01*
X130810000Y-84569974D01*
X131029946Y-84899147D01*
X131511715Y-85221054D01*
X132080000Y-85334093D01*
X132648285Y-85221054D01*
X133130054Y-84899147D01*
X133350000Y-84569974D01*
X133569946Y-84899147D01*
X134051715Y-85221054D01*
X134620000Y-85334093D01*
X135188285Y-85221054D01*
X135670054Y-84899147D01*
X135890000Y-84569974D01*
X136109946Y-84899147D01*
X136587296Y-85218102D01*
X135352599Y-86452799D01*
X135187852Y-86699361D01*
X135130000Y-86990200D01*
X135130000Y-88995140D01*
X134976890Y-88931724D01*
X134747000Y-89053045D01*
X134747000Y-90246200D01*
X134767000Y-90246200D01*
X134767000Y-90500200D01*
X134747000Y-90500200D01*
X134747000Y-90520200D01*
X134493000Y-90520200D01*
X134493000Y-90500200D01*
X134473000Y-90500200D01*
X134473000Y-90246200D01*
X134493000Y-90246200D01*
X134493000Y-89053045D01*
X134263110Y-88931724D01*
X133853076Y-89101555D01*
X133424817Y-89491842D01*
X133357702Y-89634753D01*
X133130054Y-89294053D01*
X132648285Y-88972146D01*
X132080000Y-88859107D01*
X131511715Y-88972146D01*
X131029946Y-89294053D01*
X130810000Y-89623226D01*
X130590054Y-89294053D01*
X130108285Y-88972146D01*
X129540000Y-88859107D01*
X128971715Y-88972146D01*
X128489946Y-89294053D01*
X128168039Y-89775822D01*
X128055000Y-90344107D01*
X128055000Y-90402293D01*
X128168039Y-90970578D01*
X128489946Y-91452347D01*
X128491179Y-91453171D01*
X128454683Y-91460038D01*
X128238559Y-91599110D01*
X128093569Y-91811310D01*
X128042560Y-92063200D01*
X121601300Y-92063200D01*
X121601300Y-82155876D01*
X121789974Y-80990617D01*
X122368451Y-80053881D01*
X123263482Y-79408299D01*
X124342140Y-79145200D01*
X182225993Y-79145200D01*
X183395835Y-79334616D01*
G36*
X174209946Y-93992347D02*
X174691715Y-94314254D01*
X174805926Y-94336972D01*
X173520620Y-95622278D01*
X173475133Y-95622238D01*
X173131357Y-95764283D01*
X172868108Y-96027073D01*
X172725462Y-96370601D01*
X172725138Y-96742567D01*
X172867183Y-97086343D01*
X172974000Y-97193347D01*
X172974000Y-97281000D01*
X172994000Y-97281000D01*
X172994000Y-97535000D01*
X172974000Y-97535000D01*
X172974000Y-98859250D01*
X173132750Y-99018000D01*
X173273310Y-99018000D01*
X173506699Y-98921327D01*
X173685327Y-98742698D01*
X173782000Y-98509309D01*
X173782000Y-97693750D01*
X173623252Y-97535002D01*
X173782000Y-97535002D01*
X173782000Y-97492507D01*
X173845467Y-97492562D01*
X174189243Y-97350517D01*
X174452492Y-97087727D01*
X174595138Y-96744199D01*
X174595179Y-96697323D01*
X176977201Y-94315301D01*
X177056242Y-94197007D01*
X177231715Y-94314254D01*
X177800000Y-94427293D01*
X178215400Y-94344665D01*
X178215400Y-106353732D01*
X174205944Y-110363188D01*
X173713339Y-110362758D01*
X173199697Y-110574990D01*
X172806371Y-110967630D01*
X172720051Y-111175512D01*
X172635010Y-110969697D01*
X172242370Y-110576371D01*
X171729100Y-110363243D01*
X171666913Y-110363189D01*
X173384401Y-108645701D01*
X173549148Y-108399139D01*
X173576597Y-108261146D01*
X173598441Y-108247090D01*
X173743431Y-108034890D01*
X173794440Y-107783000D01*
X173794440Y-105833000D01*
X173750162Y-105597683D01*
X173611090Y-105381559D01*
X173398890Y-105236569D01*
X173147000Y-105185560D01*
X172962400Y-105185560D01*
X172962400Y-103807800D01*
X172911824Y-103553539D01*
X172904548Y-103516960D01*
X172739801Y-103270399D01*
X171067000Y-101597598D01*
X171067000Y-98987914D01*
X171277000Y-99030440D01*
X171877000Y-99030440D01*
X172112317Y-98986162D01*
X172202980Y-98927822D01*
X172420690Y-99018000D01*
X172561250Y-99018000D01*
X172720000Y-98859250D01*
X172720000Y-97535000D01*
X172700000Y-97535000D01*
X172700000Y-97281000D01*
X172720000Y-97281000D01*
X172720000Y-95956750D01*
X172561250Y-95798000D01*
X172420690Y-95798000D01*
X172286456Y-95853602D01*
X172279148Y-95816861D01*
X172114401Y-95570299D01*
X171867839Y-95405552D01*
X171577000Y-95347700D01*
X171402607Y-95347700D01*
X171327270Y-95272232D01*
X171892701Y-94706801D01*
X172057448Y-94460239D01*
X172094139Y-94275783D01*
X172151715Y-94314254D01*
X172720000Y-94427293D01*
X173288285Y-94314254D01*
X173770054Y-93992347D01*
X173990000Y-93663174D01*
X174209946Y-93992347D01*
X174209946Y-93992347D01*
G37*
X174209946Y-93992347D02*
X174691715Y-94314254D01*
X174805926Y-94336972D01*
X173520620Y-95622278D01*
X173475133Y-95622238D01*
X173131357Y-95764283D01*
X172868108Y-96027073D01*
X172725462Y-96370601D01*
X172725138Y-96742567D01*
X172867183Y-97086343D01*
X172974000Y-97193347D01*
X172974000Y-97281000D01*
X172994000Y-97281000D01*
X172994000Y-97535000D01*
X172974000Y-97535000D01*
X172974000Y-98859250D01*
X173132750Y-99018000D01*
X173273310Y-99018000D01*
X173506699Y-98921327D01*
X173685327Y-98742698D01*
X173782000Y-98509309D01*
X173782000Y-97693750D01*
X173623252Y-97535002D01*
X173782000Y-97535002D01*
X173782000Y-97492507D01*
X173845467Y-97492562D01*
X174189243Y-97350517D01*
X174452492Y-97087727D01*
X174595138Y-96744199D01*
X174595179Y-96697323D01*
X176977201Y-94315301D01*
X177056242Y-94197007D01*
X177231715Y-94314254D01*
X177800000Y-94427293D01*
X178215400Y-94344665D01*
X178215400Y-106353732D01*
X174205944Y-110363188D01*
X173713339Y-110362758D01*
X173199697Y-110574990D01*
X172806371Y-110967630D01*
X172720051Y-111175512D01*
X172635010Y-110969697D01*
X172242370Y-110576371D01*
X171729100Y-110363243D01*
X171666913Y-110363189D01*
X173384401Y-108645701D01*
X173549148Y-108399139D01*
X173576597Y-108261146D01*
X173598441Y-108247090D01*
X173743431Y-108034890D01*
X173794440Y-107783000D01*
X173794440Y-105833000D01*
X173750162Y-105597683D01*
X173611090Y-105381559D01*
X173398890Y-105236569D01*
X173147000Y-105185560D01*
X172962400Y-105185560D01*
X172962400Y-103807800D01*
X172911824Y-103553539D01*
X172904548Y-103516960D01*
X172739801Y-103270399D01*
X171067000Y-101597598D01*
X171067000Y-98987914D01*
X171277000Y-99030440D01*
X171877000Y-99030440D01*
X172112317Y-98986162D01*
X172202980Y-98927822D01*
X172420690Y-99018000D01*
X172561250Y-99018000D01*
X172720000Y-98859250D01*
X172720000Y-97535000D01*
X172700000Y-97535000D01*
X172700000Y-97281000D01*
X172720000Y-97281000D01*
X172720000Y-95956750D01*
X172561250Y-95798000D01*
X172420690Y-95798000D01*
X172286456Y-95853602D01*
X172279148Y-95816861D01*
X172114401Y-95570299D01*
X171867839Y-95405552D01*
X171577000Y-95347700D01*
X171402607Y-95347700D01*
X171327270Y-95272232D01*
X171892701Y-94706801D01*
X172057448Y-94460239D01*
X172094139Y-94275783D01*
X172151715Y-94314254D01*
X172720000Y-94427293D01*
X173288285Y-94314254D01*
X173770054Y-93992347D01*
X173990000Y-93663174D01*
X174209946Y-93992347D01*
G36*
X160147000Y-92786200D02*
X160167000Y-92786200D01*
X160167000Y-93040200D01*
X160147000Y-93040200D01*
X160147000Y-94233355D01*
X160310031Y-94319392D01*
X160354883Y-94427943D01*
X160617673Y-94691192D01*
X160961201Y-94833838D01*
X161008077Y-94833879D01*
X162061845Y-95887647D01*
X162061020Y-95888178D01*
X161843310Y-95798000D01*
X161702750Y-95798000D01*
X161544000Y-95956750D01*
X161544000Y-97281000D01*
X161564000Y-97281000D01*
X161564000Y-97535000D01*
X161544000Y-97535000D01*
X161544000Y-98859250D01*
X161702750Y-99018000D01*
X161843310Y-99018000D01*
X161927000Y-98983334D01*
X161927000Y-102395000D01*
X161984852Y-102685839D01*
X162149599Y-102932401D01*
X162552400Y-103335202D01*
X162552400Y-105349150D01*
X162401250Y-105198000D01*
X162260690Y-105198000D01*
X162126456Y-105253602D01*
X162119148Y-105216861D01*
X161954401Y-104970299D01*
X161260200Y-104276098D01*
X161260200Y-100050547D01*
X161358892Y-99952027D01*
X161501538Y-99608499D01*
X161501862Y-99236533D01*
X161359817Y-98892757D01*
X161290000Y-98822818D01*
X161290000Y-97535000D01*
X160640750Y-97535000D01*
X160482000Y-97693750D01*
X160482000Y-98486626D01*
X160381533Y-98486538D01*
X160037757Y-98628583D01*
X159937966Y-98728200D01*
X158593341Y-98728200D01*
X158809001Y-98584101D01*
X159343701Y-98049401D01*
X159508448Y-97802839D01*
X159566300Y-97512000D01*
X159566300Y-96306691D01*
X160482000Y-96306691D01*
X160482000Y-97122250D01*
X160640750Y-97281000D01*
X161290000Y-97281000D01*
X161290000Y-95956750D01*
X161131250Y-95798000D01*
X160990690Y-95798000D01*
X160757301Y-95894673D01*
X160578673Y-96073302D01*
X160482000Y-96306691D01*
X159566300Y-96306691D01*
X159566300Y-94314578D01*
X159663110Y-94354676D01*
X159893000Y-94233355D01*
X159893000Y-93040200D01*
X159873000Y-93040200D01*
X159873000Y-92786200D01*
X159893000Y-92786200D01*
X159893000Y-92766200D01*
X160147000Y-92766200D01*
X160147000Y-92786200D01*
X160147000Y-92786200D01*
G37*
X160147000Y-92786200D02*
X160167000Y-92786200D01*
X160167000Y-93040200D01*
X160147000Y-93040200D01*
X160147000Y-94233355D01*
X160310031Y-94319392D01*
X160354883Y-94427943D01*
X160617673Y-94691192D01*
X160961201Y-94833838D01*
X161008077Y-94833879D01*
X162061845Y-95887647D01*
X162061020Y-95888178D01*
X161843310Y-95798000D01*
X161702750Y-95798000D01*
X161544000Y-95956750D01*
X161544000Y-97281000D01*
X161564000Y-97281000D01*
X161564000Y-97535000D01*
X161544000Y-97535000D01*
X161544000Y-98859250D01*
X161702750Y-99018000D01*
X161843310Y-99018000D01*
X161927000Y-98983334D01*
X161927000Y-102395000D01*
X161984852Y-102685839D01*
X162149599Y-102932401D01*
X162552400Y-103335202D01*
X162552400Y-105349150D01*
X162401250Y-105198000D01*
X162260690Y-105198000D01*
X162126456Y-105253602D01*
X162119148Y-105216861D01*
X161954401Y-104970299D01*
X161260200Y-104276098D01*
X161260200Y-100050547D01*
X161358892Y-99952027D01*
X161501538Y-99608499D01*
X161501862Y-99236533D01*
X161359817Y-98892757D01*
X161290000Y-98822818D01*
X161290000Y-97535000D01*
X160640750Y-97535000D01*
X160482000Y-97693750D01*
X160482000Y-98486626D01*
X160381533Y-98486538D01*
X160037757Y-98628583D01*
X159937966Y-98728200D01*
X158593341Y-98728200D01*
X158809001Y-98584101D01*
X159343701Y-98049401D01*
X159508448Y-97802839D01*
X159566300Y-97512000D01*
X159566300Y-96306691D01*
X160482000Y-96306691D01*
X160482000Y-97122250D01*
X160640750Y-97281000D01*
X161290000Y-97281000D01*
X161290000Y-95956750D01*
X161131250Y-95798000D01*
X160990690Y-95798000D01*
X160757301Y-95894673D01*
X160578673Y-96073302D01*
X160482000Y-96306691D01*
X159566300Y-96306691D01*
X159566300Y-94314578D01*
X159663110Y-94354676D01*
X159893000Y-94233355D01*
X159893000Y-93040200D01*
X159873000Y-93040200D01*
X159873000Y-92786200D01*
X159893000Y-92786200D01*
X159893000Y-92766200D01*
X160147000Y-92766200D01*
X160147000Y-92786200D01*
G36*
X133569946Y-93992347D02*
X134051715Y-94314254D01*
X134620000Y-94427293D01*
X134932207Y-94365191D01*
X133955599Y-95341799D01*
X133790852Y-95588361D01*
X133733000Y-95879200D01*
X133733000Y-96902115D01*
X133730309Y-96901000D01*
X133508750Y-96901000D01*
X133350000Y-97059750D01*
X133350000Y-98171000D01*
X133370000Y-98171000D01*
X133370000Y-98425000D01*
X133350000Y-98425000D01*
X133350000Y-98445000D01*
X133096000Y-98445000D01*
X133096000Y-98425000D01*
X133076000Y-98425000D01*
X133076000Y-98171000D01*
X133096000Y-98171000D01*
X133096000Y-97059750D01*
X132937250Y-96901000D01*
X132840000Y-96901000D01*
X132840000Y-94186154D01*
X133130054Y-93992347D01*
X133350000Y-93663174D01*
X133569946Y-93992347D01*
X133569946Y-93992347D01*
G37*
X133569946Y-93992347D02*
X134051715Y-94314254D01*
X134620000Y-94427293D01*
X134932207Y-94365191D01*
X133955599Y-95341799D01*
X133790852Y-95588361D01*
X133733000Y-95879200D01*
X133733000Y-96902115D01*
X133730309Y-96901000D01*
X133508750Y-96901000D01*
X133350000Y-97059750D01*
X133350000Y-98171000D01*
X133370000Y-98171000D01*
X133370000Y-98425000D01*
X133350000Y-98425000D01*
X133350000Y-98445000D01*
X133096000Y-98445000D01*
X133096000Y-98425000D01*
X133076000Y-98425000D01*
X133076000Y-98171000D01*
X133096000Y-98171000D01*
X133096000Y-97059750D01*
X132937250Y-96901000D01*
X132840000Y-96901000D01*
X132840000Y-94186154D01*
X133130054Y-93992347D01*
X133350000Y-93663174D01*
X133569946Y-93992347D01*
G36*
X139827000Y-92786200D02*
X139847000Y-92786200D01*
X139847000Y-93040200D01*
X139827000Y-93040200D01*
X139827000Y-93060200D01*
X139573000Y-93060200D01*
X139573000Y-93040200D01*
X139553000Y-93040200D01*
X139553000Y-92786200D01*
X139573000Y-92786200D01*
X139573000Y-92766200D01*
X139827000Y-92766200D01*
X139827000Y-92786200D01*
X139827000Y-92786200D01*
G37*
X139827000Y-92786200D02*
X139847000Y-92786200D01*
X139847000Y-93040200D01*
X139827000Y-93040200D01*
X139827000Y-93060200D01*
X139573000Y-93060200D01*
X139573000Y-93040200D01*
X139553000Y-93040200D01*
X139553000Y-92786200D01*
X139573000Y-92786200D01*
X139573000Y-92766200D01*
X139827000Y-92766200D01*
X139827000Y-92786200D01*
G36*
X165227000Y-90246200D02*
X165247000Y-90246200D01*
X165247000Y-90500200D01*
X165227000Y-90500200D01*
X165227000Y-90520200D01*
X164973000Y-90520200D01*
X164973000Y-90500200D01*
X164953000Y-90500200D01*
X164953000Y-90246200D01*
X164973000Y-90246200D01*
X164973000Y-90226200D01*
X165227000Y-90226200D01*
X165227000Y-90246200D01*
X165227000Y-90246200D01*
G37*
X165227000Y-90246200D02*
X165247000Y-90246200D01*
X165247000Y-90500200D01*
X165227000Y-90500200D01*
X165227000Y-90520200D01*
X164973000Y-90520200D01*
X164973000Y-90500200D01*
X164953000Y-90500200D01*
X164953000Y-90246200D01*
X164973000Y-90246200D01*
X164973000Y-90226200D01*
X165227000Y-90226200D01*
X165227000Y-90246200D01*
G36*
X167767000Y-83693000D02*
X167787000Y-83693000D01*
X167787000Y-83947000D01*
X167767000Y-83947000D01*
X167767000Y-85140155D01*
X167996890Y-85261476D01*
X168406924Y-85091645D01*
X168443401Y-85058403D01*
X170595300Y-87210302D01*
X170595300Y-88955917D01*
X170536890Y-88931724D01*
X170307000Y-89053045D01*
X170307000Y-90246200D01*
X170327000Y-90246200D01*
X170327000Y-90500200D01*
X170307000Y-90500200D01*
X170307000Y-90520200D01*
X170053000Y-90520200D01*
X170053000Y-90500200D01*
X170033000Y-90500200D01*
X170033000Y-90246200D01*
X170053000Y-90246200D01*
X170053000Y-89053045D01*
X169823110Y-88931724D01*
X169413076Y-89101555D01*
X169274315Y-89228013D01*
X165333874Y-85287572D01*
X165668285Y-85221054D01*
X166150054Y-84899147D01*
X166377702Y-84558447D01*
X166444817Y-84701358D01*
X166873076Y-85091645D01*
X167283110Y-85261476D01*
X167513000Y-85140155D01*
X167513000Y-83947000D01*
X167493000Y-83947000D01*
X167493000Y-83693000D01*
X167513000Y-83693000D01*
X167513000Y-83673000D01*
X167767000Y-83673000D01*
X167767000Y-83693000D01*
X167767000Y-83693000D01*
G37*
X167767000Y-83693000D02*
X167787000Y-83693000D01*
X167787000Y-83947000D01*
X167767000Y-83947000D01*
X167767000Y-85140155D01*
X167996890Y-85261476D01*
X168406924Y-85091645D01*
X168443401Y-85058403D01*
X170595300Y-87210302D01*
X170595300Y-88955917D01*
X170536890Y-88931724D01*
X170307000Y-89053045D01*
X170307000Y-90246200D01*
X170327000Y-90246200D01*
X170327000Y-90500200D01*
X170307000Y-90500200D01*
X170307000Y-90520200D01*
X170053000Y-90520200D01*
X170053000Y-90500200D01*
X170033000Y-90500200D01*
X170033000Y-90246200D01*
X170053000Y-90246200D01*
X170053000Y-89053045D01*
X169823110Y-88931724D01*
X169413076Y-89101555D01*
X169274315Y-89228013D01*
X165333874Y-85287572D01*
X165668285Y-85221054D01*
X166150054Y-84899147D01*
X166377702Y-84558447D01*
X166444817Y-84701358D01*
X166873076Y-85091645D01*
X167283110Y-85261476D01*
X167513000Y-85140155D01*
X167513000Y-83947000D01*
X167493000Y-83947000D01*
X167493000Y-83693000D01*
X167513000Y-83693000D01*
X167513000Y-83673000D01*
X167767000Y-83673000D01*
X167767000Y-83693000D01*
G36*
X147447000Y-83693000D02*
X147467000Y-83693000D01*
X147467000Y-83947000D01*
X147447000Y-83947000D01*
X147447000Y-85140155D01*
X147676890Y-85261476D01*
X148086924Y-85091645D01*
X148515183Y-84701358D01*
X148582298Y-84558447D01*
X148809946Y-84899147D01*
X149291715Y-85221054D01*
X149860000Y-85334093D01*
X150428285Y-85221054D01*
X150910054Y-84899147D01*
X151130000Y-84569974D01*
X151349946Y-84899147D01*
X151831715Y-85221054D01*
X152400000Y-85334093D01*
X152815300Y-85251485D01*
X152815300Y-87833200D01*
X152873152Y-88124039D01*
X153037899Y-88370601D01*
X153932750Y-89265452D01*
X153889946Y-89294053D01*
X153662298Y-89634753D01*
X153595183Y-89491842D01*
X153166924Y-89101555D01*
X152756890Y-88931724D01*
X152527000Y-89053045D01*
X152527000Y-90246200D01*
X152547000Y-90246200D01*
X152547000Y-90500200D01*
X152527000Y-90500200D01*
X152527000Y-90520200D01*
X152273000Y-90520200D01*
X152273000Y-90500200D01*
X152253000Y-90500200D01*
X152253000Y-90246200D01*
X152273000Y-90246200D01*
X152273000Y-89053045D01*
X152043110Y-88931724D01*
X151633076Y-89101555D01*
X151204817Y-89491842D01*
X151138211Y-89633670D01*
X151136790Y-89633388D01*
X150910054Y-89294053D01*
X150428285Y-88972146D01*
X149860000Y-88859107D01*
X149350000Y-88960552D01*
X149350000Y-87685700D01*
X149299715Y-87432901D01*
X149292148Y-87394860D01*
X149127401Y-87148299D01*
X147144731Y-85165629D01*
X147193000Y-85140155D01*
X147193000Y-83947000D01*
X147173000Y-83947000D01*
X147173000Y-83693000D01*
X147193000Y-83693000D01*
X147193000Y-83673000D01*
X147447000Y-83673000D01*
X147447000Y-83693000D01*
X147447000Y-83693000D01*
G37*
X147447000Y-83693000D02*
X147467000Y-83693000D01*
X147467000Y-83947000D01*
X147447000Y-83947000D01*
X147447000Y-85140155D01*
X147676890Y-85261476D01*
X148086924Y-85091645D01*
X148515183Y-84701358D01*
X148582298Y-84558447D01*
X148809946Y-84899147D01*
X149291715Y-85221054D01*
X149860000Y-85334093D01*
X150428285Y-85221054D01*
X150910054Y-84899147D01*
X151130000Y-84569974D01*
X151349946Y-84899147D01*
X151831715Y-85221054D01*
X152400000Y-85334093D01*
X152815300Y-85251485D01*
X152815300Y-87833200D01*
X152873152Y-88124039D01*
X153037899Y-88370601D01*
X153932750Y-89265452D01*
X153889946Y-89294053D01*
X153662298Y-89634753D01*
X153595183Y-89491842D01*
X153166924Y-89101555D01*
X152756890Y-88931724D01*
X152527000Y-89053045D01*
X152527000Y-90246200D01*
X152547000Y-90246200D01*
X152547000Y-90500200D01*
X152527000Y-90500200D01*
X152527000Y-90520200D01*
X152273000Y-90520200D01*
X152273000Y-90500200D01*
X152253000Y-90500200D01*
X152253000Y-90246200D01*
X152273000Y-90246200D01*
X152273000Y-89053045D01*
X152043110Y-88931724D01*
X151633076Y-89101555D01*
X151204817Y-89491842D01*
X151138211Y-89633670D01*
X151136790Y-89633388D01*
X150910054Y-89294053D01*
X150428285Y-88972146D01*
X149860000Y-88859107D01*
X149350000Y-88960552D01*
X149350000Y-87685700D01*
X149299715Y-87432901D01*
X149292148Y-87394860D01*
X149127401Y-87148299D01*
X147144731Y-85165629D01*
X147193000Y-85140155D01*
X147193000Y-83947000D01*
X147173000Y-83947000D01*
X147173000Y-83693000D01*
X147193000Y-83693000D01*
X147193000Y-83673000D01*
X147447000Y-83673000D01*
X147447000Y-83693000D01*
G36*
X143729946Y-84899147D02*
X144042402Y-85107923D01*
X144077852Y-85286139D01*
X144242599Y-85532701D01*
X145195300Y-86485402D01*
X145195300Y-88955917D01*
X145136890Y-88931724D01*
X144907000Y-89053045D01*
X144907000Y-90246200D01*
X144927000Y-90246200D01*
X144927000Y-90500200D01*
X144907000Y-90500200D01*
X144907000Y-90520200D01*
X144653000Y-90520200D01*
X144653000Y-90500200D01*
X144633000Y-90500200D01*
X144633000Y-90246200D01*
X144653000Y-90246200D01*
X144653000Y-89053045D01*
X144423110Y-88931724D01*
X144013076Y-89101555D01*
X143584817Y-89491842D01*
X143517702Y-89634753D01*
X143290054Y-89294053D01*
X142808285Y-88972146D01*
X142240000Y-88859107D01*
X141824700Y-88941715D01*
X141824700Y-86485402D01*
X142777401Y-85532701D01*
X142942148Y-85286140D01*
X142977598Y-85107923D01*
X143290054Y-84899147D01*
X143510000Y-84569974D01*
X143729946Y-84899147D01*
X143729946Y-84899147D01*
G37*
X143729946Y-84899147D02*
X144042402Y-85107923D01*
X144077852Y-85286139D01*
X144242599Y-85532701D01*
X145195300Y-86485402D01*
X145195300Y-88955917D01*
X145136890Y-88931724D01*
X144907000Y-89053045D01*
X144907000Y-90246200D01*
X144927000Y-90246200D01*
X144927000Y-90500200D01*
X144907000Y-90500200D01*
X144907000Y-90520200D01*
X144653000Y-90520200D01*
X144653000Y-90500200D01*
X144633000Y-90500200D01*
X144633000Y-90246200D01*
X144653000Y-90246200D01*
X144653000Y-89053045D01*
X144423110Y-88931724D01*
X144013076Y-89101555D01*
X143584817Y-89491842D01*
X143517702Y-89634753D01*
X143290054Y-89294053D01*
X142808285Y-88972146D01*
X142240000Y-88859107D01*
X141824700Y-88941715D01*
X141824700Y-86485402D01*
X142777401Y-85532701D01*
X142942148Y-85286140D01*
X142977598Y-85107923D01*
X143290054Y-84899147D01*
X143510000Y-84569974D01*
X143729946Y-84899147D01*
G36*
X142367000Y-81153000D02*
X142387000Y-81153000D01*
X142387000Y-81407000D01*
X142367000Y-81407000D01*
X142367000Y-81427000D01*
X142113000Y-81427000D01*
X142113000Y-81407000D01*
X142093000Y-81407000D01*
X142093000Y-81153000D01*
X142113000Y-81153000D01*
X142113000Y-81133000D01*
X142367000Y-81133000D01*
X142367000Y-81153000D01*
X142367000Y-81153000D01*
G37*
X142367000Y-81153000D02*
X142387000Y-81153000D01*
X142387000Y-81407000D01*
X142367000Y-81407000D01*
X142367000Y-81427000D01*
X142113000Y-81427000D01*
X142113000Y-81407000D01*
X142093000Y-81407000D01*
X142093000Y-81153000D01*
X142113000Y-81153000D01*
X142113000Y-81133000D01*
X142367000Y-81133000D01*
X142367000Y-81153000D01*
G36*
X155067000Y-81153000D02*
X155087000Y-81153000D01*
X155087000Y-81407000D01*
X155067000Y-81407000D01*
X155067000Y-81427000D01*
X154813000Y-81427000D01*
X154813000Y-81407000D01*
X154793000Y-81407000D01*
X154793000Y-81153000D01*
X154813000Y-81153000D01*
X154813000Y-81133000D01*
X155067000Y-81133000D01*
X155067000Y-81153000D01*
X155067000Y-81153000D01*
G37*
X155067000Y-81153000D02*
X155087000Y-81153000D01*
X155087000Y-81407000D01*
X155067000Y-81407000D01*
X155067000Y-81427000D01*
X154813000Y-81427000D01*
X154813000Y-81407000D01*
X154793000Y-81407000D01*
X154793000Y-81153000D01*
X154813000Y-81153000D01*
X154813000Y-81133000D01*
X155067000Y-81133000D01*
X155067000Y-81153000D01*
G36*
X172847000Y-81153000D02*
X172867000Y-81153000D01*
X172867000Y-81407000D01*
X172847000Y-81407000D01*
X172847000Y-81427000D01*
X172593000Y-81427000D01*
X172593000Y-81407000D01*
X172573000Y-81407000D01*
X172573000Y-81153000D01*
X172593000Y-81153000D01*
X172593000Y-81133000D01*
X172847000Y-81133000D01*
X172847000Y-81153000D01*
X172847000Y-81153000D01*
G37*
X172847000Y-81153000D02*
X172867000Y-81153000D01*
X172867000Y-81407000D01*
X172847000Y-81407000D01*
X172847000Y-81427000D01*
X172593000Y-81427000D01*
X172593000Y-81407000D01*
X172573000Y-81407000D01*
X172573000Y-81153000D01*
X172593000Y-81153000D01*
X172593000Y-81133000D01*
X172847000Y-81133000D01*
X172847000Y-81153000D01*
M02*
