G04 #@! TF.FileFunction,Soldermask,Bot*
%FSLAX46Y46*%
G04 Gerber Fmt 4.6, Leading zero omitted, Abs format (unit mm)*
G04 Created by KiCad (PCBNEW 4.0.7) date 04/26/18 00:03:18*
%MOMM*%
%LPD*%
G01*
G04 APERTURE LIST*
%ADD10C,0.100000*%
%ADD11R,1.924000X1.924000*%
%ADD12C,1.924000*%
%ADD13R,2.100000X2.100000*%
%ADD14O,2.100000X2.100000*%
%ADD15R,1.162000X1.924000*%
%ADD16R,1.000000X2.350000*%
G04 APERTURE END LIST*
D10*
D11*
X133350000Y-111760000D03*
D12*
X133350000Y-116840000D03*
X135890000Y-111760000D03*
X135890000Y-116840000D03*
X138430000Y-111760000D03*
X138430000Y-116840000D03*
X140970000Y-111760000D03*
X140970000Y-116840000D03*
X143510000Y-111760000D03*
X143510000Y-116840000D03*
X146050000Y-111760000D03*
X146050000Y-116840000D03*
X148590000Y-111760000D03*
X148590000Y-116840000D03*
X151130000Y-111760000D03*
X151130000Y-116840000D03*
X153670000Y-111760000D03*
X153670000Y-116840000D03*
X156210000Y-111760000D03*
X156210000Y-116840000D03*
X158750000Y-111760000D03*
X158750000Y-116840000D03*
X161290000Y-111760000D03*
X161290000Y-116840000D03*
X163830000Y-111760000D03*
X163830000Y-116840000D03*
X166370000Y-111760000D03*
X166370000Y-116840000D03*
X168910000Y-111760000D03*
X168910000Y-116840000D03*
X171450000Y-111760000D03*
X171450000Y-116840000D03*
X173990000Y-111760000D03*
X173990000Y-116840000D03*
D13*
X177800000Y-83820000D03*
D14*
X177800000Y-81280000D03*
X175260000Y-83820000D03*
X175260000Y-81280000D03*
X172720000Y-83820000D03*
X172720000Y-81280000D03*
X170180000Y-83820000D03*
X170180000Y-81280000D03*
X167640000Y-83820000D03*
X167640000Y-81280000D03*
X165100000Y-83820000D03*
X165100000Y-81280000D03*
X162560000Y-83820000D03*
X162560000Y-81280000D03*
X160020000Y-83820000D03*
X160020000Y-81280000D03*
X157480000Y-83820000D03*
X157480000Y-81280000D03*
X154940000Y-83820000D03*
X154940000Y-81280000D03*
X152400000Y-83820000D03*
X152400000Y-81280000D03*
X149860000Y-83820000D03*
X149860000Y-81280000D03*
X147320000Y-83820000D03*
X147320000Y-81280000D03*
X144780000Y-83820000D03*
X144780000Y-81280000D03*
X142240000Y-83820000D03*
X142240000Y-81280000D03*
X139700000Y-83820000D03*
X139700000Y-81280000D03*
X137160000Y-83820000D03*
X137160000Y-81280000D03*
X134620000Y-83820000D03*
X134620000Y-81280000D03*
X132080000Y-83820000D03*
X132080000Y-81280000D03*
X129540000Y-83820000D03*
X129540000Y-81280000D03*
D13*
X129540000Y-92913200D03*
D14*
X129540000Y-90373200D03*
X132080000Y-92913200D03*
X132080000Y-90373200D03*
X134620000Y-92913200D03*
X134620000Y-90373200D03*
X137160000Y-92913200D03*
X137160000Y-90373200D03*
X139700000Y-92913200D03*
X139700000Y-90373200D03*
X142240000Y-92913200D03*
X142240000Y-90373200D03*
X144780000Y-92913200D03*
X144780000Y-90373200D03*
X147320000Y-92913200D03*
X147320000Y-90373200D03*
X149860000Y-92913200D03*
X149860000Y-90373200D03*
X152400000Y-92913200D03*
X152400000Y-90373200D03*
X154940000Y-92913200D03*
X154940000Y-90373200D03*
X157480000Y-92913200D03*
X157480000Y-90373200D03*
X160020000Y-92913200D03*
X160020000Y-90373200D03*
X162560000Y-92913200D03*
X162560000Y-90373200D03*
X165100000Y-92913200D03*
X165100000Y-90373200D03*
X167640000Y-92913200D03*
X167640000Y-90373200D03*
X170180000Y-92913200D03*
X170180000Y-90373200D03*
X172720000Y-92913200D03*
X172720000Y-90373200D03*
X175260000Y-92913200D03*
X175260000Y-90373200D03*
X177800000Y-92913200D03*
X177800000Y-90373200D03*
D15*
X147193000Y-105918000D03*
X145923000Y-105918000D03*
X144653000Y-105918000D03*
X143383000Y-105918000D03*
X142113000Y-105918000D03*
X140843000Y-105918000D03*
X139573000Y-105918000D03*
X138303000Y-105918000D03*
X137033000Y-105918000D03*
X135763000Y-105918000D03*
X134493000Y-105918000D03*
X133096000Y-105918000D03*
X147193000Y-98298000D03*
X145923000Y-98298000D03*
X144653000Y-98298000D03*
X143383000Y-98298000D03*
X142113000Y-98298000D03*
X140843000Y-98298000D03*
X139573000Y-98298000D03*
X138303000Y-98298000D03*
X137033000Y-98298000D03*
X135763000Y-98298000D03*
X134493000Y-98298000D03*
X133223000Y-98298000D03*
D16*
X161417000Y-97408000D03*
X162687000Y-97408000D03*
X163957000Y-97408000D03*
X165227000Y-97408000D03*
X166497000Y-97408000D03*
X167767000Y-97408000D03*
X169037000Y-97408000D03*
X170307000Y-97408000D03*
X171577000Y-97408000D03*
X172847000Y-97408000D03*
X172847000Y-106808000D03*
X171577000Y-106808000D03*
X170307000Y-106808000D03*
X169037000Y-106808000D03*
X167767000Y-106808000D03*
X166497000Y-106808000D03*
X165227000Y-106808000D03*
X163957000Y-106808000D03*
X162687000Y-106808000D03*
X161417000Y-106808000D03*
M02*
