G04 #@! TF.FileFunction,Soldermask,Top*
%FSLAX46Y46*%
G04 Gerber Fmt 4.6, Leading zero omitted, Abs format (unit mm)*
G04 Created by KiCad (PCBNEW 4.0.4-stable) date 01/08/17 23:41:58*
%MOMM*%
%LPD*%
G01*
G04 APERTURE LIST*
%ADD10C,0.100000*%
%ADD11C,1.924000*%
%ADD12C,5.700000*%
%ADD13R,2.200000X8.400000*%
%ADD14R,2.200000X7.400000*%
%ADD15R,1.600000X2.600000*%
%ADD16R,2.000000X1.800000*%
%ADD17R,1.600000X1.800000*%
%ADD18R,1.100000X2.000000*%
%ADD19R,1.700000X1.900000*%
%ADD20C,2.200000*%
%ADD21C,3.400000*%
%ADD22R,0.885000X1.910000*%
%ADD23R,0.858000X1.910000*%
%ADD24R,1.650000X1.900000*%
%ADD25R,1.900000X1.700000*%
%ADD26R,2.000000X2.000000*%
%ADD27O,2.000000X2.000000*%
G04 APERTURE END LIST*
D10*
D11*
X136398000Y-37465000D03*
X136398000Y-40005000D03*
X136398000Y-42545000D03*
X136398000Y-45085000D03*
D12*
X175173640Y-97627440D03*
D13*
X177789840Y-108557440D03*
X175249840Y-108557440D03*
X172709840Y-108557440D03*
X170169840Y-108557440D03*
X167629840Y-108557440D03*
X165089840Y-108557440D03*
X162549840Y-108557440D03*
X160009840Y-108557440D03*
X157469840Y-108557440D03*
X154929840Y-108557440D03*
X152389840Y-108557440D03*
X149849840Y-108557440D03*
X147309840Y-108557440D03*
X144769840Y-108557440D03*
X142229840Y-108557440D03*
X139689840Y-108557440D03*
X137149840Y-108557440D03*
X134609840Y-108557440D03*
X132069840Y-108557440D03*
X129529840Y-108557440D03*
X126989840Y-108557440D03*
D14*
X124444760Y-108064680D03*
D13*
X121909840Y-108557440D03*
X119369840Y-108557440D03*
X116829840Y-108557440D03*
D12*
X119174260Y-92425520D03*
D11*
X126238000Y-91948000D03*
X126238000Y-89408000D03*
X128778000Y-91948000D03*
X128778000Y-89408000D03*
X131318000Y-91948000D03*
X131318000Y-89408000D03*
X133858000Y-91948000D03*
X133858000Y-89408000D03*
X136398000Y-91948000D03*
X136398000Y-89408000D03*
X138938000Y-91948000D03*
X138938000Y-89408000D03*
X141478000Y-91948000D03*
X141478000Y-89408000D03*
X144018000Y-91948000D03*
X144018000Y-89408000D03*
X146558000Y-91948000D03*
X146558000Y-89408000D03*
X149098000Y-91948000D03*
X149098000Y-89408000D03*
X151638000Y-91948000D03*
X151638000Y-89408000D03*
X154178000Y-91948000D03*
X154178000Y-89408000D03*
X156718000Y-91948000D03*
X156718000Y-89408000D03*
X159258000Y-91948000D03*
X159258000Y-89408000D03*
X161798000Y-91948000D03*
X161798000Y-89408000D03*
X164338000Y-91948000D03*
X164338000Y-89408000D03*
X166878000Y-91948000D03*
X166878000Y-89408000D03*
X169418000Y-91948000D03*
X169418000Y-89408000D03*
X171958000Y-91948000D03*
X171958000Y-89408000D03*
X174498000Y-91948000D03*
X174498000Y-89408000D03*
X177038000Y-91948000D03*
X177038000Y-89408000D03*
X179578000Y-91948000D03*
X179578000Y-89408000D03*
X179578000Y-56388000D03*
X179578000Y-58928000D03*
X177038000Y-56388000D03*
X177038000Y-58928000D03*
X174498000Y-56388000D03*
X174498000Y-58928000D03*
X171958000Y-56388000D03*
X171958000Y-58928000D03*
X169418000Y-56388000D03*
X169418000Y-58928000D03*
X166878000Y-56388000D03*
X166878000Y-58928000D03*
X164338000Y-56388000D03*
X164338000Y-58928000D03*
X161798000Y-56388000D03*
X161798000Y-58928000D03*
X159258000Y-56388000D03*
X159258000Y-58928000D03*
X156718000Y-56388000D03*
X156718000Y-58928000D03*
X154178000Y-56388000D03*
X154178000Y-58928000D03*
X151638000Y-56388000D03*
X151638000Y-58928000D03*
X149098000Y-56388000D03*
X149098000Y-58928000D03*
X146558000Y-56388000D03*
X146558000Y-58928000D03*
X144018000Y-56388000D03*
X144018000Y-58928000D03*
X141478000Y-56388000D03*
X141478000Y-58928000D03*
X138938000Y-56388000D03*
X138938000Y-58928000D03*
X136398000Y-56388000D03*
X136398000Y-58928000D03*
X133858000Y-56388000D03*
X133858000Y-58928000D03*
X131318000Y-56388000D03*
X131318000Y-58928000D03*
X128778000Y-56388000D03*
X128778000Y-58928000D03*
X126238000Y-56388000D03*
X126238000Y-58928000D03*
X191008000Y-57023000D03*
X191008000Y-59563000D03*
X109855000Y-88900000D03*
X109855000Y-86360000D03*
X109855000Y-83820000D03*
X109855000Y-81280000D03*
X109855000Y-78740000D03*
X109855000Y-76200000D03*
X109855000Y-73660000D03*
X109855000Y-71120000D03*
X109855000Y-68580000D03*
X109855000Y-66040000D03*
X109855000Y-63500000D03*
X109855000Y-60960000D03*
X109855000Y-58420000D03*
X109855000Y-55880000D03*
X109855000Y-53340000D03*
X109855000Y-50800000D03*
X109855000Y-48260000D03*
X109855000Y-45720000D03*
X109855000Y-43180000D03*
X109855000Y-40640000D03*
X94615000Y-40640000D03*
X94615000Y-43180000D03*
X94615000Y-45720000D03*
X94615000Y-48260000D03*
X94615000Y-50800000D03*
X94615000Y-53340000D03*
X94615000Y-55880000D03*
X94615000Y-58420000D03*
X94615000Y-60960000D03*
X94615000Y-63500000D03*
X94615000Y-66040000D03*
X94615000Y-68580000D03*
X94615000Y-71120000D03*
X94615000Y-73660000D03*
X94615000Y-76200000D03*
X94615000Y-78740000D03*
X94615000Y-81280000D03*
X94615000Y-83820000D03*
X94615000Y-86360000D03*
X94615000Y-88900000D03*
X98425000Y-44450000D03*
X100965000Y-44450000D03*
X103505000Y-44450000D03*
X106045000Y-44450000D03*
D15*
X116329000Y-39643000D03*
X131829000Y-39643000D03*
D16*
X117229000Y-49243000D03*
D17*
X131829000Y-49243000D03*
D18*
X130679000Y-49743000D03*
X128479000Y-49743000D03*
X129579000Y-49743000D03*
X127379000Y-49743000D03*
X126279000Y-49743000D03*
X125179000Y-49743000D03*
X121879000Y-49743000D03*
X122979000Y-49743000D03*
X124079000Y-49743000D03*
D19*
X137160000Y-102442000D03*
X137160000Y-99742000D03*
X134620000Y-102442000D03*
X134620000Y-99742000D03*
X132080000Y-102442000D03*
X132080000Y-99742000D03*
X129540000Y-102442000D03*
X129540000Y-99742000D03*
D20*
X182970800Y-36865800D03*
X182970800Y-51365800D03*
X185470800Y-51365800D03*
X187970800Y-51365800D03*
X187970800Y-36865800D03*
D21*
X191070800Y-43865800D03*
X179870800Y-43865800D03*
D22*
X180072460Y-64845580D03*
X179272460Y-64845580D03*
X178472460Y-64845580D03*
X177672460Y-64845580D03*
X176872460Y-64845580D03*
X176072460Y-64845580D03*
X175272460Y-64845580D03*
X174472460Y-64845580D03*
X173672460Y-64845580D03*
X172872460Y-64845580D03*
X172072460Y-64845580D03*
X171272460Y-64845580D03*
X170472460Y-64845580D03*
X169672460Y-64845580D03*
X168872460Y-64845580D03*
X168072460Y-64845580D03*
X167272460Y-64845580D03*
X166472460Y-64845580D03*
X165672460Y-64845580D03*
X164872460Y-64845580D03*
X164072460Y-64845580D03*
X163272460Y-64845580D03*
X162472460Y-64845580D03*
X161672460Y-64845580D03*
X160872460Y-64845580D03*
X160072460Y-64845580D03*
X159272460Y-64845580D03*
X159272460Y-76515580D03*
X160072460Y-76515580D03*
X160872460Y-76515580D03*
X161672460Y-76515580D03*
X162472460Y-76515580D03*
X163272460Y-76515580D03*
X164072460Y-76515580D03*
X164872460Y-76515580D03*
X165672460Y-76515580D03*
X166472460Y-76515580D03*
X167272460Y-76515580D03*
X168072460Y-76515580D03*
X168872460Y-76515580D03*
X169672460Y-76515580D03*
X170472460Y-76515580D03*
X171272460Y-76515580D03*
X172072460Y-76515580D03*
X172872460Y-76515580D03*
X173672460Y-76515580D03*
X174472460Y-76515580D03*
X175272460Y-76515580D03*
X176072460Y-76515580D03*
X176872460Y-76515580D03*
X177672460Y-76515580D03*
X178472460Y-76515580D03*
X179272460Y-76515580D03*
D23*
X180072460Y-76515580D03*
D24*
X182143400Y-67061400D03*
X182143400Y-64561400D03*
X171323000Y-79395000D03*
X171323000Y-81895000D03*
D25*
X119460000Y-71120000D03*
X116760000Y-71120000D03*
X119460000Y-73660000D03*
X116760000Y-73660000D03*
D26*
X155575000Y-38100000D03*
D27*
X163195000Y-45720000D03*
X158115000Y-38100000D03*
X160655000Y-45720000D03*
X160655000Y-38100000D03*
X158115000Y-45720000D03*
X163195000Y-38100000D03*
X155575000Y-45720000D03*
M02*
