G04 #@! TF.GenerationSoftware,KiCad,Pcbnew,5.1.5+dfsg1-2*
G04 #@! TF.CreationDate,2020-03-22T01:56:16+09:00*
G04 #@! TF.ProjectId,rpmpv1,72706d70-7631-42e6-9b69-6361645f7063,rev?*
G04 #@! TF.SameCoordinates,Original*
G04 #@! TF.FileFunction,Copper,L1,Top*
G04 #@! TF.FilePolarity,Positive*
%FSLAX46Y46*%
G04 Gerber Fmt 4.6, Leading zero omitted, Abs format (unit mm)*
G04 Created by KiCad (PCBNEW 5.1.5+dfsg1-2) date 2020-03-22 01:56:16*
%MOMM*%
%LPD*%
G04 APERTURE LIST*
%ADD10O,1.700000X1.700000*%
%ADD11R,1.700000X1.700000*%
%ADD12R,2.000000X1.100000*%
%ADD13R,0.600000X1.950000*%
%ADD14R,1.800000X8.000000*%
%ADD15R,1.800000X7.000000*%
%ADD16C,0.100000*%
%ADD17R,1.600000X1.600000*%
%ADD18C,1.600000*%
%ADD19C,1.000000*%
%ADD20C,0.600000*%
%ADD21C,0.250000*%
%ADD22C,0.400000*%
%ADD23C,0.254000*%
G04 APERTURE END LIST*
D10*
X147740000Y-74710000D03*
X147740000Y-77250000D03*
X150280000Y-74710000D03*
X150280000Y-77250000D03*
X152820000Y-74710000D03*
X152820000Y-77250000D03*
X155360000Y-74710000D03*
X155360000Y-77250000D03*
X157900000Y-74710000D03*
X157900000Y-77250000D03*
X160440000Y-74710000D03*
X160440000Y-77250000D03*
X162980000Y-74710000D03*
X162980000Y-77250000D03*
X165520000Y-74710000D03*
X165520000Y-77250000D03*
X168060000Y-74710000D03*
X168060000Y-77250000D03*
X170600000Y-74710000D03*
X170600000Y-77250000D03*
X173140000Y-74710000D03*
X173140000Y-77250000D03*
X175680000Y-74710000D03*
X175680000Y-77250000D03*
X178220000Y-74710000D03*
X178220000Y-77250000D03*
X180760000Y-74710000D03*
X180760000Y-77250000D03*
X183300000Y-74710000D03*
X183300000Y-77250000D03*
X185840000Y-74710000D03*
X185840000Y-77250000D03*
X188380000Y-74710000D03*
X188380000Y-77250000D03*
X190920000Y-74710000D03*
X190920000Y-77250000D03*
X193460000Y-74710000D03*
X193460000Y-77250000D03*
X196000000Y-74710000D03*
D11*
X196000000Y-77250000D03*
D12*
X115469000Y-52353000D03*
X115469000Y-54053000D03*
X115469000Y-55753000D03*
X120269000Y-55753000D03*
X120269000Y-54053000D03*
X120269000Y-52353000D03*
D11*
X108331000Y-52768500D03*
D10*
X108331000Y-55308500D03*
X108331000Y-57848500D03*
X108331000Y-60388500D03*
D13*
X137160000Y-95505000D03*
X138430000Y-95505000D03*
X139700000Y-95505000D03*
X140970000Y-95505000D03*
X142240000Y-95505000D03*
X143510000Y-95505000D03*
X144780000Y-95505000D03*
X146050000Y-95505000D03*
X147320000Y-95505000D03*
X148590000Y-95505000D03*
X148590000Y-86105000D03*
X147320000Y-86105000D03*
X146050000Y-86105000D03*
X144780000Y-86105000D03*
X143510000Y-86105000D03*
X142240000Y-86105000D03*
X140970000Y-86105000D03*
X139700000Y-86105000D03*
X138430000Y-86105000D03*
X137160000Y-86105000D03*
D14*
X187939840Y-109827440D03*
X185399840Y-109827440D03*
X182859840Y-109827440D03*
X180319840Y-109827440D03*
X177779840Y-109827440D03*
X175239840Y-109827440D03*
X172699840Y-109827440D03*
X170159840Y-109827440D03*
X167619840Y-109827440D03*
X165079840Y-109827440D03*
X162539840Y-109827440D03*
X159999840Y-109827440D03*
X157459840Y-109827440D03*
X154919840Y-109827440D03*
X152379840Y-109827440D03*
X149839840Y-109827440D03*
X147299840Y-109827440D03*
X144759840Y-109827440D03*
X142219840Y-109827440D03*
X139679840Y-109827440D03*
X137139840Y-109827440D03*
D15*
X134594760Y-109334680D03*
D14*
X132059840Y-109827440D03*
X129519840Y-109827440D03*
X126979840Y-109827440D03*
G04 #@! TA.AperFunction,SMDPad,CuDef*
D16*
G36*
X118884703Y-88600722D02*
G01*
X118899264Y-88602882D01*
X118913543Y-88606459D01*
X118927403Y-88611418D01*
X118940710Y-88617712D01*
X118953336Y-88625280D01*
X118965159Y-88634048D01*
X118976066Y-88643934D01*
X118985952Y-88654841D01*
X118994720Y-88666664D01*
X119002288Y-88679290D01*
X119008582Y-88692597D01*
X119013541Y-88706457D01*
X119017118Y-88720736D01*
X119019278Y-88735297D01*
X119020000Y-88750000D01*
X119020000Y-89050000D01*
X119019278Y-89064703D01*
X119017118Y-89079264D01*
X119013541Y-89093543D01*
X119008582Y-89107403D01*
X119002288Y-89120710D01*
X118994720Y-89133336D01*
X118985952Y-89145159D01*
X118976066Y-89156066D01*
X118965159Y-89165952D01*
X118953336Y-89174720D01*
X118940710Y-89182288D01*
X118927403Y-89188582D01*
X118913543Y-89193541D01*
X118899264Y-89197118D01*
X118884703Y-89199278D01*
X118870000Y-89200000D01*
X117520000Y-89200000D01*
X117505297Y-89199278D01*
X117490736Y-89197118D01*
X117476457Y-89193541D01*
X117462597Y-89188582D01*
X117449290Y-89182288D01*
X117436664Y-89174720D01*
X117424841Y-89165952D01*
X117413934Y-89156066D01*
X117404048Y-89145159D01*
X117395280Y-89133336D01*
X117387712Y-89120710D01*
X117381418Y-89107403D01*
X117376459Y-89093543D01*
X117372882Y-89079264D01*
X117370722Y-89064703D01*
X117370000Y-89050000D01*
X117370000Y-88750000D01*
X117370722Y-88735297D01*
X117372882Y-88720736D01*
X117376459Y-88706457D01*
X117381418Y-88692597D01*
X117387712Y-88679290D01*
X117395280Y-88666664D01*
X117404048Y-88654841D01*
X117413934Y-88643934D01*
X117424841Y-88634048D01*
X117436664Y-88625280D01*
X117449290Y-88617712D01*
X117462597Y-88611418D01*
X117476457Y-88606459D01*
X117490736Y-88602882D01*
X117505297Y-88600722D01*
X117520000Y-88600000D01*
X118870000Y-88600000D01*
X118884703Y-88600722D01*
G37*
G04 #@! TD.AperFunction*
G04 #@! TA.AperFunction,SMDPad,CuDef*
G36*
X118884703Y-87330722D02*
G01*
X118899264Y-87332882D01*
X118913543Y-87336459D01*
X118927403Y-87341418D01*
X118940710Y-87347712D01*
X118953336Y-87355280D01*
X118965159Y-87364048D01*
X118976066Y-87373934D01*
X118985952Y-87384841D01*
X118994720Y-87396664D01*
X119002288Y-87409290D01*
X119008582Y-87422597D01*
X119013541Y-87436457D01*
X119017118Y-87450736D01*
X119019278Y-87465297D01*
X119020000Y-87480000D01*
X119020000Y-87780000D01*
X119019278Y-87794703D01*
X119017118Y-87809264D01*
X119013541Y-87823543D01*
X119008582Y-87837403D01*
X119002288Y-87850710D01*
X118994720Y-87863336D01*
X118985952Y-87875159D01*
X118976066Y-87886066D01*
X118965159Y-87895952D01*
X118953336Y-87904720D01*
X118940710Y-87912288D01*
X118927403Y-87918582D01*
X118913543Y-87923541D01*
X118899264Y-87927118D01*
X118884703Y-87929278D01*
X118870000Y-87930000D01*
X117520000Y-87930000D01*
X117505297Y-87929278D01*
X117490736Y-87927118D01*
X117476457Y-87923541D01*
X117462597Y-87918582D01*
X117449290Y-87912288D01*
X117436664Y-87904720D01*
X117424841Y-87895952D01*
X117413934Y-87886066D01*
X117404048Y-87875159D01*
X117395280Y-87863336D01*
X117387712Y-87850710D01*
X117381418Y-87837403D01*
X117376459Y-87823543D01*
X117372882Y-87809264D01*
X117370722Y-87794703D01*
X117370000Y-87780000D01*
X117370000Y-87480000D01*
X117370722Y-87465297D01*
X117372882Y-87450736D01*
X117376459Y-87436457D01*
X117381418Y-87422597D01*
X117387712Y-87409290D01*
X117395280Y-87396664D01*
X117404048Y-87384841D01*
X117413934Y-87373934D01*
X117424841Y-87364048D01*
X117436664Y-87355280D01*
X117449290Y-87347712D01*
X117462597Y-87341418D01*
X117476457Y-87336459D01*
X117490736Y-87332882D01*
X117505297Y-87330722D01*
X117520000Y-87330000D01*
X118870000Y-87330000D01*
X118884703Y-87330722D01*
G37*
G04 #@! TD.AperFunction*
G04 #@! TA.AperFunction,SMDPad,CuDef*
G36*
X118884703Y-86060722D02*
G01*
X118899264Y-86062882D01*
X118913543Y-86066459D01*
X118927403Y-86071418D01*
X118940710Y-86077712D01*
X118953336Y-86085280D01*
X118965159Y-86094048D01*
X118976066Y-86103934D01*
X118985952Y-86114841D01*
X118994720Y-86126664D01*
X119002288Y-86139290D01*
X119008582Y-86152597D01*
X119013541Y-86166457D01*
X119017118Y-86180736D01*
X119019278Y-86195297D01*
X119020000Y-86210000D01*
X119020000Y-86510000D01*
X119019278Y-86524703D01*
X119017118Y-86539264D01*
X119013541Y-86553543D01*
X119008582Y-86567403D01*
X119002288Y-86580710D01*
X118994720Y-86593336D01*
X118985952Y-86605159D01*
X118976066Y-86616066D01*
X118965159Y-86625952D01*
X118953336Y-86634720D01*
X118940710Y-86642288D01*
X118927403Y-86648582D01*
X118913543Y-86653541D01*
X118899264Y-86657118D01*
X118884703Y-86659278D01*
X118870000Y-86660000D01*
X117520000Y-86660000D01*
X117505297Y-86659278D01*
X117490736Y-86657118D01*
X117476457Y-86653541D01*
X117462597Y-86648582D01*
X117449290Y-86642288D01*
X117436664Y-86634720D01*
X117424841Y-86625952D01*
X117413934Y-86616066D01*
X117404048Y-86605159D01*
X117395280Y-86593336D01*
X117387712Y-86580710D01*
X117381418Y-86567403D01*
X117376459Y-86553543D01*
X117372882Y-86539264D01*
X117370722Y-86524703D01*
X117370000Y-86510000D01*
X117370000Y-86210000D01*
X117370722Y-86195297D01*
X117372882Y-86180736D01*
X117376459Y-86166457D01*
X117381418Y-86152597D01*
X117387712Y-86139290D01*
X117395280Y-86126664D01*
X117404048Y-86114841D01*
X117413934Y-86103934D01*
X117424841Y-86094048D01*
X117436664Y-86085280D01*
X117449290Y-86077712D01*
X117462597Y-86071418D01*
X117476457Y-86066459D01*
X117490736Y-86062882D01*
X117505297Y-86060722D01*
X117520000Y-86060000D01*
X118870000Y-86060000D01*
X118884703Y-86060722D01*
G37*
G04 #@! TD.AperFunction*
G04 #@! TA.AperFunction,SMDPad,CuDef*
G36*
X118884703Y-84790722D02*
G01*
X118899264Y-84792882D01*
X118913543Y-84796459D01*
X118927403Y-84801418D01*
X118940710Y-84807712D01*
X118953336Y-84815280D01*
X118965159Y-84824048D01*
X118976066Y-84833934D01*
X118985952Y-84844841D01*
X118994720Y-84856664D01*
X119002288Y-84869290D01*
X119008582Y-84882597D01*
X119013541Y-84896457D01*
X119017118Y-84910736D01*
X119019278Y-84925297D01*
X119020000Y-84940000D01*
X119020000Y-85240000D01*
X119019278Y-85254703D01*
X119017118Y-85269264D01*
X119013541Y-85283543D01*
X119008582Y-85297403D01*
X119002288Y-85310710D01*
X118994720Y-85323336D01*
X118985952Y-85335159D01*
X118976066Y-85346066D01*
X118965159Y-85355952D01*
X118953336Y-85364720D01*
X118940710Y-85372288D01*
X118927403Y-85378582D01*
X118913543Y-85383541D01*
X118899264Y-85387118D01*
X118884703Y-85389278D01*
X118870000Y-85390000D01*
X117520000Y-85390000D01*
X117505297Y-85389278D01*
X117490736Y-85387118D01*
X117476457Y-85383541D01*
X117462597Y-85378582D01*
X117449290Y-85372288D01*
X117436664Y-85364720D01*
X117424841Y-85355952D01*
X117413934Y-85346066D01*
X117404048Y-85335159D01*
X117395280Y-85323336D01*
X117387712Y-85310710D01*
X117381418Y-85297403D01*
X117376459Y-85283543D01*
X117372882Y-85269264D01*
X117370722Y-85254703D01*
X117370000Y-85240000D01*
X117370000Y-84940000D01*
X117370722Y-84925297D01*
X117372882Y-84910736D01*
X117376459Y-84896457D01*
X117381418Y-84882597D01*
X117387712Y-84869290D01*
X117395280Y-84856664D01*
X117404048Y-84844841D01*
X117413934Y-84833934D01*
X117424841Y-84824048D01*
X117436664Y-84815280D01*
X117449290Y-84807712D01*
X117462597Y-84801418D01*
X117476457Y-84796459D01*
X117490736Y-84792882D01*
X117505297Y-84790722D01*
X117520000Y-84790000D01*
X118870000Y-84790000D01*
X118884703Y-84790722D01*
G37*
G04 #@! TD.AperFunction*
G04 #@! TA.AperFunction,SMDPad,CuDef*
G36*
X113634703Y-84790722D02*
G01*
X113649264Y-84792882D01*
X113663543Y-84796459D01*
X113677403Y-84801418D01*
X113690710Y-84807712D01*
X113703336Y-84815280D01*
X113715159Y-84824048D01*
X113726066Y-84833934D01*
X113735952Y-84844841D01*
X113744720Y-84856664D01*
X113752288Y-84869290D01*
X113758582Y-84882597D01*
X113763541Y-84896457D01*
X113767118Y-84910736D01*
X113769278Y-84925297D01*
X113770000Y-84940000D01*
X113770000Y-85240000D01*
X113769278Y-85254703D01*
X113767118Y-85269264D01*
X113763541Y-85283543D01*
X113758582Y-85297403D01*
X113752288Y-85310710D01*
X113744720Y-85323336D01*
X113735952Y-85335159D01*
X113726066Y-85346066D01*
X113715159Y-85355952D01*
X113703336Y-85364720D01*
X113690710Y-85372288D01*
X113677403Y-85378582D01*
X113663543Y-85383541D01*
X113649264Y-85387118D01*
X113634703Y-85389278D01*
X113620000Y-85390000D01*
X112270000Y-85390000D01*
X112255297Y-85389278D01*
X112240736Y-85387118D01*
X112226457Y-85383541D01*
X112212597Y-85378582D01*
X112199290Y-85372288D01*
X112186664Y-85364720D01*
X112174841Y-85355952D01*
X112163934Y-85346066D01*
X112154048Y-85335159D01*
X112145280Y-85323336D01*
X112137712Y-85310710D01*
X112131418Y-85297403D01*
X112126459Y-85283543D01*
X112122882Y-85269264D01*
X112120722Y-85254703D01*
X112120000Y-85240000D01*
X112120000Y-84940000D01*
X112120722Y-84925297D01*
X112122882Y-84910736D01*
X112126459Y-84896457D01*
X112131418Y-84882597D01*
X112137712Y-84869290D01*
X112145280Y-84856664D01*
X112154048Y-84844841D01*
X112163934Y-84833934D01*
X112174841Y-84824048D01*
X112186664Y-84815280D01*
X112199290Y-84807712D01*
X112212597Y-84801418D01*
X112226457Y-84796459D01*
X112240736Y-84792882D01*
X112255297Y-84790722D01*
X112270000Y-84790000D01*
X113620000Y-84790000D01*
X113634703Y-84790722D01*
G37*
G04 #@! TD.AperFunction*
G04 #@! TA.AperFunction,SMDPad,CuDef*
G36*
X113634703Y-86060722D02*
G01*
X113649264Y-86062882D01*
X113663543Y-86066459D01*
X113677403Y-86071418D01*
X113690710Y-86077712D01*
X113703336Y-86085280D01*
X113715159Y-86094048D01*
X113726066Y-86103934D01*
X113735952Y-86114841D01*
X113744720Y-86126664D01*
X113752288Y-86139290D01*
X113758582Y-86152597D01*
X113763541Y-86166457D01*
X113767118Y-86180736D01*
X113769278Y-86195297D01*
X113770000Y-86210000D01*
X113770000Y-86510000D01*
X113769278Y-86524703D01*
X113767118Y-86539264D01*
X113763541Y-86553543D01*
X113758582Y-86567403D01*
X113752288Y-86580710D01*
X113744720Y-86593336D01*
X113735952Y-86605159D01*
X113726066Y-86616066D01*
X113715159Y-86625952D01*
X113703336Y-86634720D01*
X113690710Y-86642288D01*
X113677403Y-86648582D01*
X113663543Y-86653541D01*
X113649264Y-86657118D01*
X113634703Y-86659278D01*
X113620000Y-86660000D01*
X112270000Y-86660000D01*
X112255297Y-86659278D01*
X112240736Y-86657118D01*
X112226457Y-86653541D01*
X112212597Y-86648582D01*
X112199290Y-86642288D01*
X112186664Y-86634720D01*
X112174841Y-86625952D01*
X112163934Y-86616066D01*
X112154048Y-86605159D01*
X112145280Y-86593336D01*
X112137712Y-86580710D01*
X112131418Y-86567403D01*
X112126459Y-86553543D01*
X112122882Y-86539264D01*
X112120722Y-86524703D01*
X112120000Y-86510000D01*
X112120000Y-86210000D01*
X112120722Y-86195297D01*
X112122882Y-86180736D01*
X112126459Y-86166457D01*
X112131418Y-86152597D01*
X112137712Y-86139290D01*
X112145280Y-86126664D01*
X112154048Y-86114841D01*
X112163934Y-86103934D01*
X112174841Y-86094048D01*
X112186664Y-86085280D01*
X112199290Y-86077712D01*
X112212597Y-86071418D01*
X112226457Y-86066459D01*
X112240736Y-86062882D01*
X112255297Y-86060722D01*
X112270000Y-86060000D01*
X113620000Y-86060000D01*
X113634703Y-86060722D01*
G37*
G04 #@! TD.AperFunction*
G04 #@! TA.AperFunction,SMDPad,CuDef*
G36*
X113634703Y-87330722D02*
G01*
X113649264Y-87332882D01*
X113663543Y-87336459D01*
X113677403Y-87341418D01*
X113690710Y-87347712D01*
X113703336Y-87355280D01*
X113715159Y-87364048D01*
X113726066Y-87373934D01*
X113735952Y-87384841D01*
X113744720Y-87396664D01*
X113752288Y-87409290D01*
X113758582Y-87422597D01*
X113763541Y-87436457D01*
X113767118Y-87450736D01*
X113769278Y-87465297D01*
X113770000Y-87480000D01*
X113770000Y-87780000D01*
X113769278Y-87794703D01*
X113767118Y-87809264D01*
X113763541Y-87823543D01*
X113758582Y-87837403D01*
X113752288Y-87850710D01*
X113744720Y-87863336D01*
X113735952Y-87875159D01*
X113726066Y-87886066D01*
X113715159Y-87895952D01*
X113703336Y-87904720D01*
X113690710Y-87912288D01*
X113677403Y-87918582D01*
X113663543Y-87923541D01*
X113649264Y-87927118D01*
X113634703Y-87929278D01*
X113620000Y-87930000D01*
X112270000Y-87930000D01*
X112255297Y-87929278D01*
X112240736Y-87927118D01*
X112226457Y-87923541D01*
X112212597Y-87918582D01*
X112199290Y-87912288D01*
X112186664Y-87904720D01*
X112174841Y-87895952D01*
X112163934Y-87886066D01*
X112154048Y-87875159D01*
X112145280Y-87863336D01*
X112137712Y-87850710D01*
X112131418Y-87837403D01*
X112126459Y-87823543D01*
X112122882Y-87809264D01*
X112120722Y-87794703D01*
X112120000Y-87780000D01*
X112120000Y-87480000D01*
X112120722Y-87465297D01*
X112122882Y-87450736D01*
X112126459Y-87436457D01*
X112131418Y-87422597D01*
X112137712Y-87409290D01*
X112145280Y-87396664D01*
X112154048Y-87384841D01*
X112163934Y-87373934D01*
X112174841Y-87364048D01*
X112186664Y-87355280D01*
X112199290Y-87347712D01*
X112212597Y-87341418D01*
X112226457Y-87336459D01*
X112240736Y-87332882D01*
X112255297Y-87330722D01*
X112270000Y-87330000D01*
X113620000Y-87330000D01*
X113634703Y-87330722D01*
G37*
G04 #@! TD.AperFunction*
G04 #@! TA.AperFunction,SMDPad,CuDef*
G36*
X113634703Y-88600722D02*
G01*
X113649264Y-88602882D01*
X113663543Y-88606459D01*
X113677403Y-88611418D01*
X113690710Y-88617712D01*
X113703336Y-88625280D01*
X113715159Y-88634048D01*
X113726066Y-88643934D01*
X113735952Y-88654841D01*
X113744720Y-88666664D01*
X113752288Y-88679290D01*
X113758582Y-88692597D01*
X113763541Y-88706457D01*
X113767118Y-88720736D01*
X113769278Y-88735297D01*
X113770000Y-88750000D01*
X113770000Y-89050000D01*
X113769278Y-89064703D01*
X113767118Y-89079264D01*
X113763541Y-89093543D01*
X113758582Y-89107403D01*
X113752288Y-89120710D01*
X113744720Y-89133336D01*
X113735952Y-89145159D01*
X113726066Y-89156066D01*
X113715159Y-89165952D01*
X113703336Y-89174720D01*
X113690710Y-89182288D01*
X113677403Y-89188582D01*
X113663543Y-89193541D01*
X113649264Y-89197118D01*
X113634703Y-89199278D01*
X113620000Y-89200000D01*
X112270000Y-89200000D01*
X112255297Y-89199278D01*
X112240736Y-89197118D01*
X112226457Y-89193541D01*
X112212597Y-89188582D01*
X112199290Y-89182288D01*
X112186664Y-89174720D01*
X112174841Y-89165952D01*
X112163934Y-89156066D01*
X112154048Y-89145159D01*
X112145280Y-89133336D01*
X112137712Y-89120710D01*
X112131418Y-89107403D01*
X112126459Y-89093543D01*
X112122882Y-89079264D01*
X112120722Y-89064703D01*
X112120000Y-89050000D01*
X112120000Y-88750000D01*
X112120722Y-88735297D01*
X112122882Y-88720736D01*
X112126459Y-88706457D01*
X112131418Y-88692597D01*
X112137712Y-88679290D01*
X112145280Y-88666664D01*
X112154048Y-88654841D01*
X112163934Y-88643934D01*
X112174841Y-88634048D01*
X112186664Y-88625280D01*
X112199290Y-88617712D01*
X112212597Y-88611418D01*
X112226457Y-88606459D01*
X112240736Y-88602882D01*
X112255297Y-88600722D01*
X112270000Y-88600000D01*
X113620000Y-88600000D01*
X113634703Y-88600722D01*
G37*
G04 #@! TD.AperFunction*
G04 #@! TA.AperFunction,SMDPad,CuDef*
G36*
X169074703Y-94225722D02*
G01*
X169089264Y-94227882D01*
X169103543Y-94231459D01*
X169117403Y-94236418D01*
X169130710Y-94242712D01*
X169143336Y-94250280D01*
X169155159Y-94259048D01*
X169166066Y-94268934D01*
X169175952Y-94279841D01*
X169184720Y-94291664D01*
X169192288Y-94304290D01*
X169198582Y-94317597D01*
X169203541Y-94331457D01*
X169207118Y-94345736D01*
X169209278Y-94360297D01*
X169210000Y-94375000D01*
X169210000Y-96125000D01*
X169209278Y-96139703D01*
X169207118Y-96154264D01*
X169203541Y-96168543D01*
X169198582Y-96182403D01*
X169192288Y-96195710D01*
X169184720Y-96208336D01*
X169175952Y-96220159D01*
X169166066Y-96231066D01*
X169155159Y-96240952D01*
X169143336Y-96249720D01*
X169130710Y-96257288D01*
X169117403Y-96263582D01*
X169103543Y-96268541D01*
X169089264Y-96272118D01*
X169074703Y-96274278D01*
X169060000Y-96275000D01*
X168760000Y-96275000D01*
X168745297Y-96274278D01*
X168730736Y-96272118D01*
X168716457Y-96268541D01*
X168702597Y-96263582D01*
X168689290Y-96257288D01*
X168676664Y-96249720D01*
X168664841Y-96240952D01*
X168653934Y-96231066D01*
X168644048Y-96220159D01*
X168635280Y-96208336D01*
X168627712Y-96195710D01*
X168621418Y-96182403D01*
X168616459Y-96168543D01*
X168612882Y-96154264D01*
X168610722Y-96139703D01*
X168610000Y-96125000D01*
X168610000Y-94375000D01*
X168610722Y-94360297D01*
X168612882Y-94345736D01*
X168616459Y-94331457D01*
X168621418Y-94317597D01*
X168627712Y-94304290D01*
X168635280Y-94291664D01*
X168644048Y-94279841D01*
X168653934Y-94268934D01*
X168664841Y-94259048D01*
X168676664Y-94250280D01*
X168689290Y-94242712D01*
X168702597Y-94236418D01*
X168716457Y-94231459D01*
X168730736Y-94227882D01*
X168745297Y-94225722D01*
X168760000Y-94225000D01*
X169060000Y-94225000D01*
X169074703Y-94225722D01*
G37*
G04 #@! TD.AperFunction*
G04 #@! TA.AperFunction,SMDPad,CuDef*
G36*
X170344703Y-94225722D02*
G01*
X170359264Y-94227882D01*
X170373543Y-94231459D01*
X170387403Y-94236418D01*
X170400710Y-94242712D01*
X170413336Y-94250280D01*
X170425159Y-94259048D01*
X170436066Y-94268934D01*
X170445952Y-94279841D01*
X170454720Y-94291664D01*
X170462288Y-94304290D01*
X170468582Y-94317597D01*
X170473541Y-94331457D01*
X170477118Y-94345736D01*
X170479278Y-94360297D01*
X170480000Y-94375000D01*
X170480000Y-96125000D01*
X170479278Y-96139703D01*
X170477118Y-96154264D01*
X170473541Y-96168543D01*
X170468582Y-96182403D01*
X170462288Y-96195710D01*
X170454720Y-96208336D01*
X170445952Y-96220159D01*
X170436066Y-96231066D01*
X170425159Y-96240952D01*
X170413336Y-96249720D01*
X170400710Y-96257288D01*
X170387403Y-96263582D01*
X170373543Y-96268541D01*
X170359264Y-96272118D01*
X170344703Y-96274278D01*
X170330000Y-96275000D01*
X170030000Y-96275000D01*
X170015297Y-96274278D01*
X170000736Y-96272118D01*
X169986457Y-96268541D01*
X169972597Y-96263582D01*
X169959290Y-96257288D01*
X169946664Y-96249720D01*
X169934841Y-96240952D01*
X169923934Y-96231066D01*
X169914048Y-96220159D01*
X169905280Y-96208336D01*
X169897712Y-96195710D01*
X169891418Y-96182403D01*
X169886459Y-96168543D01*
X169882882Y-96154264D01*
X169880722Y-96139703D01*
X169880000Y-96125000D01*
X169880000Y-94375000D01*
X169880722Y-94360297D01*
X169882882Y-94345736D01*
X169886459Y-94331457D01*
X169891418Y-94317597D01*
X169897712Y-94304290D01*
X169905280Y-94291664D01*
X169914048Y-94279841D01*
X169923934Y-94268934D01*
X169934841Y-94259048D01*
X169946664Y-94250280D01*
X169959290Y-94242712D01*
X169972597Y-94236418D01*
X169986457Y-94231459D01*
X170000736Y-94227882D01*
X170015297Y-94225722D01*
X170030000Y-94225000D01*
X170330000Y-94225000D01*
X170344703Y-94225722D01*
G37*
G04 #@! TD.AperFunction*
G04 #@! TA.AperFunction,SMDPad,CuDef*
G36*
X171614703Y-94225722D02*
G01*
X171629264Y-94227882D01*
X171643543Y-94231459D01*
X171657403Y-94236418D01*
X171670710Y-94242712D01*
X171683336Y-94250280D01*
X171695159Y-94259048D01*
X171706066Y-94268934D01*
X171715952Y-94279841D01*
X171724720Y-94291664D01*
X171732288Y-94304290D01*
X171738582Y-94317597D01*
X171743541Y-94331457D01*
X171747118Y-94345736D01*
X171749278Y-94360297D01*
X171750000Y-94375000D01*
X171750000Y-96125000D01*
X171749278Y-96139703D01*
X171747118Y-96154264D01*
X171743541Y-96168543D01*
X171738582Y-96182403D01*
X171732288Y-96195710D01*
X171724720Y-96208336D01*
X171715952Y-96220159D01*
X171706066Y-96231066D01*
X171695159Y-96240952D01*
X171683336Y-96249720D01*
X171670710Y-96257288D01*
X171657403Y-96263582D01*
X171643543Y-96268541D01*
X171629264Y-96272118D01*
X171614703Y-96274278D01*
X171600000Y-96275000D01*
X171300000Y-96275000D01*
X171285297Y-96274278D01*
X171270736Y-96272118D01*
X171256457Y-96268541D01*
X171242597Y-96263582D01*
X171229290Y-96257288D01*
X171216664Y-96249720D01*
X171204841Y-96240952D01*
X171193934Y-96231066D01*
X171184048Y-96220159D01*
X171175280Y-96208336D01*
X171167712Y-96195710D01*
X171161418Y-96182403D01*
X171156459Y-96168543D01*
X171152882Y-96154264D01*
X171150722Y-96139703D01*
X171150000Y-96125000D01*
X171150000Y-94375000D01*
X171150722Y-94360297D01*
X171152882Y-94345736D01*
X171156459Y-94331457D01*
X171161418Y-94317597D01*
X171167712Y-94304290D01*
X171175280Y-94291664D01*
X171184048Y-94279841D01*
X171193934Y-94268934D01*
X171204841Y-94259048D01*
X171216664Y-94250280D01*
X171229290Y-94242712D01*
X171242597Y-94236418D01*
X171256457Y-94231459D01*
X171270736Y-94227882D01*
X171285297Y-94225722D01*
X171300000Y-94225000D01*
X171600000Y-94225000D01*
X171614703Y-94225722D01*
G37*
G04 #@! TD.AperFunction*
G04 #@! TA.AperFunction,SMDPad,CuDef*
G36*
X172884703Y-94225722D02*
G01*
X172899264Y-94227882D01*
X172913543Y-94231459D01*
X172927403Y-94236418D01*
X172940710Y-94242712D01*
X172953336Y-94250280D01*
X172965159Y-94259048D01*
X172976066Y-94268934D01*
X172985952Y-94279841D01*
X172994720Y-94291664D01*
X173002288Y-94304290D01*
X173008582Y-94317597D01*
X173013541Y-94331457D01*
X173017118Y-94345736D01*
X173019278Y-94360297D01*
X173020000Y-94375000D01*
X173020000Y-96125000D01*
X173019278Y-96139703D01*
X173017118Y-96154264D01*
X173013541Y-96168543D01*
X173008582Y-96182403D01*
X173002288Y-96195710D01*
X172994720Y-96208336D01*
X172985952Y-96220159D01*
X172976066Y-96231066D01*
X172965159Y-96240952D01*
X172953336Y-96249720D01*
X172940710Y-96257288D01*
X172927403Y-96263582D01*
X172913543Y-96268541D01*
X172899264Y-96272118D01*
X172884703Y-96274278D01*
X172870000Y-96275000D01*
X172570000Y-96275000D01*
X172555297Y-96274278D01*
X172540736Y-96272118D01*
X172526457Y-96268541D01*
X172512597Y-96263582D01*
X172499290Y-96257288D01*
X172486664Y-96249720D01*
X172474841Y-96240952D01*
X172463934Y-96231066D01*
X172454048Y-96220159D01*
X172445280Y-96208336D01*
X172437712Y-96195710D01*
X172431418Y-96182403D01*
X172426459Y-96168543D01*
X172422882Y-96154264D01*
X172420722Y-96139703D01*
X172420000Y-96125000D01*
X172420000Y-94375000D01*
X172420722Y-94360297D01*
X172422882Y-94345736D01*
X172426459Y-94331457D01*
X172431418Y-94317597D01*
X172437712Y-94304290D01*
X172445280Y-94291664D01*
X172454048Y-94279841D01*
X172463934Y-94268934D01*
X172474841Y-94259048D01*
X172486664Y-94250280D01*
X172499290Y-94242712D01*
X172512597Y-94236418D01*
X172526457Y-94231459D01*
X172540736Y-94227882D01*
X172555297Y-94225722D01*
X172570000Y-94225000D01*
X172870000Y-94225000D01*
X172884703Y-94225722D01*
G37*
G04 #@! TD.AperFunction*
G04 #@! TA.AperFunction,SMDPad,CuDef*
G36*
X174154703Y-94225722D02*
G01*
X174169264Y-94227882D01*
X174183543Y-94231459D01*
X174197403Y-94236418D01*
X174210710Y-94242712D01*
X174223336Y-94250280D01*
X174235159Y-94259048D01*
X174246066Y-94268934D01*
X174255952Y-94279841D01*
X174264720Y-94291664D01*
X174272288Y-94304290D01*
X174278582Y-94317597D01*
X174283541Y-94331457D01*
X174287118Y-94345736D01*
X174289278Y-94360297D01*
X174290000Y-94375000D01*
X174290000Y-96125000D01*
X174289278Y-96139703D01*
X174287118Y-96154264D01*
X174283541Y-96168543D01*
X174278582Y-96182403D01*
X174272288Y-96195710D01*
X174264720Y-96208336D01*
X174255952Y-96220159D01*
X174246066Y-96231066D01*
X174235159Y-96240952D01*
X174223336Y-96249720D01*
X174210710Y-96257288D01*
X174197403Y-96263582D01*
X174183543Y-96268541D01*
X174169264Y-96272118D01*
X174154703Y-96274278D01*
X174140000Y-96275000D01*
X173840000Y-96275000D01*
X173825297Y-96274278D01*
X173810736Y-96272118D01*
X173796457Y-96268541D01*
X173782597Y-96263582D01*
X173769290Y-96257288D01*
X173756664Y-96249720D01*
X173744841Y-96240952D01*
X173733934Y-96231066D01*
X173724048Y-96220159D01*
X173715280Y-96208336D01*
X173707712Y-96195710D01*
X173701418Y-96182403D01*
X173696459Y-96168543D01*
X173692882Y-96154264D01*
X173690722Y-96139703D01*
X173690000Y-96125000D01*
X173690000Y-94375000D01*
X173690722Y-94360297D01*
X173692882Y-94345736D01*
X173696459Y-94331457D01*
X173701418Y-94317597D01*
X173707712Y-94304290D01*
X173715280Y-94291664D01*
X173724048Y-94279841D01*
X173733934Y-94268934D01*
X173744841Y-94259048D01*
X173756664Y-94250280D01*
X173769290Y-94242712D01*
X173782597Y-94236418D01*
X173796457Y-94231459D01*
X173810736Y-94227882D01*
X173825297Y-94225722D01*
X173840000Y-94225000D01*
X174140000Y-94225000D01*
X174154703Y-94225722D01*
G37*
G04 #@! TD.AperFunction*
G04 #@! TA.AperFunction,SMDPad,CuDef*
G36*
X175424703Y-94225722D02*
G01*
X175439264Y-94227882D01*
X175453543Y-94231459D01*
X175467403Y-94236418D01*
X175480710Y-94242712D01*
X175493336Y-94250280D01*
X175505159Y-94259048D01*
X175516066Y-94268934D01*
X175525952Y-94279841D01*
X175534720Y-94291664D01*
X175542288Y-94304290D01*
X175548582Y-94317597D01*
X175553541Y-94331457D01*
X175557118Y-94345736D01*
X175559278Y-94360297D01*
X175560000Y-94375000D01*
X175560000Y-96125000D01*
X175559278Y-96139703D01*
X175557118Y-96154264D01*
X175553541Y-96168543D01*
X175548582Y-96182403D01*
X175542288Y-96195710D01*
X175534720Y-96208336D01*
X175525952Y-96220159D01*
X175516066Y-96231066D01*
X175505159Y-96240952D01*
X175493336Y-96249720D01*
X175480710Y-96257288D01*
X175467403Y-96263582D01*
X175453543Y-96268541D01*
X175439264Y-96272118D01*
X175424703Y-96274278D01*
X175410000Y-96275000D01*
X175110000Y-96275000D01*
X175095297Y-96274278D01*
X175080736Y-96272118D01*
X175066457Y-96268541D01*
X175052597Y-96263582D01*
X175039290Y-96257288D01*
X175026664Y-96249720D01*
X175014841Y-96240952D01*
X175003934Y-96231066D01*
X174994048Y-96220159D01*
X174985280Y-96208336D01*
X174977712Y-96195710D01*
X174971418Y-96182403D01*
X174966459Y-96168543D01*
X174962882Y-96154264D01*
X174960722Y-96139703D01*
X174960000Y-96125000D01*
X174960000Y-94375000D01*
X174960722Y-94360297D01*
X174962882Y-94345736D01*
X174966459Y-94331457D01*
X174971418Y-94317597D01*
X174977712Y-94304290D01*
X174985280Y-94291664D01*
X174994048Y-94279841D01*
X175003934Y-94268934D01*
X175014841Y-94259048D01*
X175026664Y-94250280D01*
X175039290Y-94242712D01*
X175052597Y-94236418D01*
X175066457Y-94231459D01*
X175080736Y-94227882D01*
X175095297Y-94225722D01*
X175110000Y-94225000D01*
X175410000Y-94225000D01*
X175424703Y-94225722D01*
G37*
G04 #@! TD.AperFunction*
G04 #@! TA.AperFunction,SMDPad,CuDef*
G36*
X176694703Y-94225722D02*
G01*
X176709264Y-94227882D01*
X176723543Y-94231459D01*
X176737403Y-94236418D01*
X176750710Y-94242712D01*
X176763336Y-94250280D01*
X176775159Y-94259048D01*
X176786066Y-94268934D01*
X176795952Y-94279841D01*
X176804720Y-94291664D01*
X176812288Y-94304290D01*
X176818582Y-94317597D01*
X176823541Y-94331457D01*
X176827118Y-94345736D01*
X176829278Y-94360297D01*
X176830000Y-94375000D01*
X176830000Y-96125000D01*
X176829278Y-96139703D01*
X176827118Y-96154264D01*
X176823541Y-96168543D01*
X176818582Y-96182403D01*
X176812288Y-96195710D01*
X176804720Y-96208336D01*
X176795952Y-96220159D01*
X176786066Y-96231066D01*
X176775159Y-96240952D01*
X176763336Y-96249720D01*
X176750710Y-96257288D01*
X176737403Y-96263582D01*
X176723543Y-96268541D01*
X176709264Y-96272118D01*
X176694703Y-96274278D01*
X176680000Y-96275000D01*
X176380000Y-96275000D01*
X176365297Y-96274278D01*
X176350736Y-96272118D01*
X176336457Y-96268541D01*
X176322597Y-96263582D01*
X176309290Y-96257288D01*
X176296664Y-96249720D01*
X176284841Y-96240952D01*
X176273934Y-96231066D01*
X176264048Y-96220159D01*
X176255280Y-96208336D01*
X176247712Y-96195710D01*
X176241418Y-96182403D01*
X176236459Y-96168543D01*
X176232882Y-96154264D01*
X176230722Y-96139703D01*
X176230000Y-96125000D01*
X176230000Y-94375000D01*
X176230722Y-94360297D01*
X176232882Y-94345736D01*
X176236459Y-94331457D01*
X176241418Y-94317597D01*
X176247712Y-94304290D01*
X176255280Y-94291664D01*
X176264048Y-94279841D01*
X176273934Y-94268934D01*
X176284841Y-94259048D01*
X176296664Y-94250280D01*
X176309290Y-94242712D01*
X176322597Y-94236418D01*
X176336457Y-94231459D01*
X176350736Y-94227882D01*
X176365297Y-94225722D01*
X176380000Y-94225000D01*
X176680000Y-94225000D01*
X176694703Y-94225722D01*
G37*
G04 #@! TD.AperFunction*
G04 #@! TA.AperFunction,SMDPad,CuDef*
G36*
X177964703Y-94225722D02*
G01*
X177979264Y-94227882D01*
X177993543Y-94231459D01*
X178007403Y-94236418D01*
X178020710Y-94242712D01*
X178033336Y-94250280D01*
X178045159Y-94259048D01*
X178056066Y-94268934D01*
X178065952Y-94279841D01*
X178074720Y-94291664D01*
X178082288Y-94304290D01*
X178088582Y-94317597D01*
X178093541Y-94331457D01*
X178097118Y-94345736D01*
X178099278Y-94360297D01*
X178100000Y-94375000D01*
X178100000Y-96125000D01*
X178099278Y-96139703D01*
X178097118Y-96154264D01*
X178093541Y-96168543D01*
X178088582Y-96182403D01*
X178082288Y-96195710D01*
X178074720Y-96208336D01*
X178065952Y-96220159D01*
X178056066Y-96231066D01*
X178045159Y-96240952D01*
X178033336Y-96249720D01*
X178020710Y-96257288D01*
X178007403Y-96263582D01*
X177993543Y-96268541D01*
X177979264Y-96272118D01*
X177964703Y-96274278D01*
X177950000Y-96275000D01*
X177650000Y-96275000D01*
X177635297Y-96274278D01*
X177620736Y-96272118D01*
X177606457Y-96268541D01*
X177592597Y-96263582D01*
X177579290Y-96257288D01*
X177566664Y-96249720D01*
X177554841Y-96240952D01*
X177543934Y-96231066D01*
X177534048Y-96220159D01*
X177525280Y-96208336D01*
X177517712Y-96195710D01*
X177511418Y-96182403D01*
X177506459Y-96168543D01*
X177502882Y-96154264D01*
X177500722Y-96139703D01*
X177500000Y-96125000D01*
X177500000Y-94375000D01*
X177500722Y-94360297D01*
X177502882Y-94345736D01*
X177506459Y-94331457D01*
X177511418Y-94317597D01*
X177517712Y-94304290D01*
X177525280Y-94291664D01*
X177534048Y-94279841D01*
X177543934Y-94268934D01*
X177554841Y-94259048D01*
X177566664Y-94250280D01*
X177579290Y-94242712D01*
X177592597Y-94236418D01*
X177606457Y-94231459D01*
X177620736Y-94227882D01*
X177635297Y-94225722D01*
X177650000Y-94225000D01*
X177950000Y-94225000D01*
X177964703Y-94225722D01*
G37*
G04 #@! TD.AperFunction*
G04 #@! TA.AperFunction,SMDPad,CuDef*
G36*
X179234703Y-94225722D02*
G01*
X179249264Y-94227882D01*
X179263543Y-94231459D01*
X179277403Y-94236418D01*
X179290710Y-94242712D01*
X179303336Y-94250280D01*
X179315159Y-94259048D01*
X179326066Y-94268934D01*
X179335952Y-94279841D01*
X179344720Y-94291664D01*
X179352288Y-94304290D01*
X179358582Y-94317597D01*
X179363541Y-94331457D01*
X179367118Y-94345736D01*
X179369278Y-94360297D01*
X179370000Y-94375000D01*
X179370000Y-96125000D01*
X179369278Y-96139703D01*
X179367118Y-96154264D01*
X179363541Y-96168543D01*
X179358582Y-96182403D01*
X179352288Y-96195710D01*
X179344720Y-96208336D01*
X179335952Y-96220159D01*
X179326066Y-96231066D01*
X179315159Y-96240952D01*
X179303336Y-96249720D01*
X179290710Y-96257288D01*
X179277403Y-96263582D01*
X179263543Y-96268541D01*
X179249264Y-96272118D01*
X179234703Y-96274278D01*
X179220000Y-96275000D01*
X178920000Y-96275000D01*
X178905297Y-96274278D01*
X178890736Y-96272118D01*
X178876457Y-96268541D01*
X178862597Y-96263582D01*
X178849290Y-96257288D01*
X178836664Y-96249720D01*
X178824841Y-96240952D01*
X178813934Y-96231066D01*
X178804048Y-96220159D01*
X178795280Y-96208336D01*
X178787712Y-96195710D01*
X178781418Y-96182403D01*
X178776459Y-96168543D01*
X178772882Y-96154264D01*
X178770722Y-96139703D01*
X178770000Y-96125000D01*
X178770000Y-94375000D01*
X178770722Y-94360297D01*
X178772882Y-94345736D01*
X178776459Y-94331457D01*
X178781418Y-94317597D01*
X178787712Y-94304290D01*
X178795280Y-94291664D01*
X178804048Y-94279841D01*
X178813934Y-94268934D01*
X178824841Y-94259048D01*
X178836664Y-94250280D01*
X178849290Y-94242712D01*
X178862597Y-94236418D01*
X178876457Y-94231459D01*
X178890736Y-94227882D01*
X178905297Y-94225722D01*
X178920000Y-94225000D01*
X179220000Y-94225000D01*
X179234703Y-94225722D01*
G37*
G04 #@! TD.AperFunction*
G04 #@! TA.AperFunction,SMDPad,CuDef*
G36*
X180504703Y-94225722D02*
G01*
X180519264Y-94227882D01*
X180533543Y-94231459D01*
X180547403Y-94236418D01*
X180560710Y-94242712D01*
X180573336Y-94250280D01*
X180585159Y-94259048D01*
X180596066Y-94268934D01*
X180605952Y-94279841D01*
X180614720Y-94291664D01*
X180622288Y-94304290D01*
X180628582Y-94317597D01*
X180633541Y-94331457D01*
X180637118Y-94345736D01*
X180639278Y-94360297D01*
X180640000Y-94375000D01*
X180640000Y-96125000D01*
X180639278Y-96139703D01*
X180637118Y-96154264D01*
X180633541Y-96168543D01*
X180628582Y-96182403D01*
X180622288Y-96195710D01*
X180614720Y-96208336D01*
X180605952Y-96220159D01*
X180596066Y-96231066D01*
X180585159Y-96240952D01*
X180573336Y-96249720D01*
X180560710Y-96257288D01*
X180547403Y-96263582D01*
X180533543Y-96268541D01*
X180519264Y-96272118D01*
X180504703Y-96274278D01*
X180490000Y-96275000D01*
X180190000Y-96275000D01*
X180175297Y-96274278D01*
X180160736Y-96272118D01*
X180146457Y-96268541D01*
X180132597Y-96263582D01*
X180119290Y-96257288D01*
X180106664Y-96249720D01*
X180094841Y-96240952D01*
X180083934Y-96231066D01*
X180074048Y-96220159D01*
X180065280Y-96208336D01*
X180057712Y-96195710D01*
X180051418Y-96182403D01*
X180046459Y-96168543D01*
X180042882Y-96154264D01*
X180040722Y-96139703D01*
X180040000Y-96125000D01*
X180040000Y-94375000D01*
X180040722Y-94360297D01*
X180042882Y-94345736D01*
X180046459Y-94331457D01*
X180051418Y-94317597D01*
X180057712Y-94304290D01*
X180065280Y-94291664D01*
X180074048Y-94279841D01*
X180083934Y-94268934D01*
X180094841Y-94259048D01*
X180106664Y-94250280D01*
X180119290Y-94242712D01*
X180132597Y-94236418D01*
X180146457Y-94231459D01*
X180160736Y-94227882D01*
X180175297Y-94225722D01*
X180190000Y-94225000D01*
X180490000Y-94225000D01*
X180504703Y-94225722D01*
G37*
G04 #@! TD.AperFunction*
G04 #@! TA.AperFunction,SMDPad,CuDef*
G36*
X180504703Y-84925722D02*
G01*
X180519264Y-84927882D01*
X180533543Y-84931459D01*
X180547403Y-84936418D01*
X180560710Y-84942712D01*
X180573336Y-84950280D01*
X180585159Y-84959048D01*
X180596066Y-84968934D01*
X180605952Y-84979841D01*
X180614720Y-84991664D01*
X180622288Y-85004290D01*
X180628582Y-85017597D01*
X180633541Y-85031457D01*
X180637118Y-85045736D01*
X180639278Y-85060297D01*
X180640000Y-85075000D01*
X180640000Y-86825000D01*
X180639278Y-86839703D01*
X180637118Y-86854264D01*
X180633541Y-86868543D01*
X180628582Y-86882403D01*
X180622288Y-86895710D01*
X180614720Y-86908336D01*
X180605952Y-86920159D01*
X180596066Y-86931066D01*
X180585159Y-86940952D01*
X180573336Y-86949720D01*
X180560710Y-86957288D01*
X180547403Y-86963582D01*
X180533543Y-86968541D01*
X180519264Y-86972118D01*
X180504703Y-86974278D01*
X180490000Y-86975000D01*
X180190000Y-86975000D01*
X180175297Y-86974278D01*
X180160736Y-86972118D01*
X180146457Y-86968541D01*
X180132597Y-86963582D01*
X180119290Y-86957288D01*
X180106664Y-86949720D01*
X180094841Y-86940952D01*
X180083934Y-86931066D01*
X180074048Y-86920159D01*
X180065280Y-86908336D01*
X180057712Y-86895710D01*
X180051418Y-86882403D01*
X180046459Y-86868543D01*
X180042882Y-86854264D01*
X180040722Y-86839703D01*
X180040000Y-86825000D01*
X180040000Y-85075000D01*
X180040722Y-85060297D01*
X180042882Y-85045736D01*
X180046459Y-85031457D01*
X180051418Y-85017597D01*
X180057712Y-85004290D01*
X180065280Y-84991664D01*
X180074048Y-84979841D01*
X180083934Y-84968934D01*
X180094841Y-84959048D01*
X180106664Y-84950280D01*
X180119290Y-84942712D01*
X180132597Y-84936418D01*
X180146457Y-84931459D01*
X180160736Y-84927882D01*
X180175297Y-84925722D01*
X180190000Y-84925000D01*
X180490000Y-84925000D01*
X180504703Y-84925722D01*
G37*
G04 #@! TD.AperFunction*
G04 #@! TA.AperFunction,SMDPad,CuDef*
G36*
X179234703Y-84925722D02*
G01*
X179249264Y-84927882D01*
X179263543Y-84931459D01*
X179277403Y-84936418D01*
X179290710Y-84942712D01*
X179303336Y-84950280D01*
X179315159Y-84959048D01*
X179326066Y-84968934D01*
X179335952Y-84979841D01*
X179344720Y-84991664D01*
X179352288Y-85004290D01*
X179358582Y-85017597D01*
X179363541Y-85031457D01*
X179367118Y-85045736D01*
X179369278Y-85060297D01*
X179370000Y-85075000D01*
X179370000Y-86825000D01*
X179369278Y-86839703D01*
X179367118Y-86854264D01*
X179363541Y-86868543D01*
X179358582Y-86882403D01*
X179352288Y-86895710D01*
X179344720Y-86908336D01*
X179335952Y-86920159D01*
X179326066Y-86931066D01*
X179315159Y-86940952D01*
X179303336Y-86949720D01*
X179290710Y-86957288D01*
X179277403Y-86963582D01*
X179263543Y-86968541D01*
X179249264Y-86972118D01*
X179234703Y-86974278D01*
X179220000Y-86975000D01*
X178920000Y-86975000D01*
X178905297Y-86974278D01*
X178890736Y-86972118D01*
X178876457Y-86968541D01*
X178862597Y-86963582D01*
X178849290Y-86957288D01*
X178836664Y-86949720D01*
X178824841Y-86940952D01*
X178813934Y-86931066D01*
X178804048Y-86920159D01*
X178795280Y-86908336D01*
X178787712Y-86895710D01*
X178781418Y-86882403D01*
X178776459Y-86868543D01*
X178772882Y-86854264D01*
X178770722Y-86839703D01*
X178770000Y-86825000D01*
X178770000Y-85075000D01*
X178770722Y-85060297D01*
X178772882Y-85045736D01*
X178776459Y-85031457D01*
X178781418Y-85017597D01*
X178787712Y-85004290D01*
X178795280Y-84991664D01*
X178804048Y-84979841D01*
X178813934Y-84968934D01*
X178824841Y-84959048D01*
X178836664Y-84950280D01*
X178849290Y-84942712D01*
X178862597Y-84936418D01*
X178876457Y-84931459D01*
X178890736Y-84927882D01*
X178905297Y-84925722D01*
X178920000Y-84925000D01*
X179220000Y-84925000D01*
X179234703Y-84925722D01*
G37*
G04 #@! TD.AperFunction*
G04 #@! TA.AperFunction,SMDPad,CuDef*
G36*
X177964703Y-84925722D02*
G01*
X177979264Y-84927882D01*
X177993543Y-84931459D01*
X178007403Y-84936418D01*
X178020710Y-84942712D01*
X178033336Y-84950280D01*
X178045159Y-84959048D01*
X178056066Y-84968934D01*
X178065952Y-84979841D01*
X178074720Y-84991664D01*
X178082288Y-85004290D01*
X178088582Y-85017597D01*
X178093541Y-85031457D01*
X178097118Y-85045736D01*
X178099278Y-85060297D01*
X178100000Y-85075000D01*
X178100000Y-86825000D01*
X178099278Y-86839703D01*
X178097118Y-86854264D01*
X178093541Y-86868543D01*
X178088582Y-86882403D01*
X178082288Y-86895710D01*
X178074720Y-86908336D01*
X178065952Y-86920159D01*
X178056066Y-86931066D01*
X178045159Y-86940952D01*
X178033336Y-86949720D01*
X178020710Y-86957288D01*
X178007403Y-86963582D01*
X177993543Y-86968541D01*
X177979264Y-86972118D01*
X177964703Y-86974278D01*
X177950000Y-86975000D01*
X177650000Y-86975000D01*
X177635297Y-86974278D01*
X177620736Y-86972118D01*
X177606457Y-86968541D01*
X177592597Y-86963582D01*
X177579290Y-86957288D01*
X177566664Y-86949720D01*
X177554841Y-86940952D01*
X177543934Y-86931066D01*
X177534048Y-86920159D01*
X177525280Y-86908336D01*
X177517712Y-86895710D01*
X177511418Y-86882403D01*
X177506459Y-86868543D01*
X177502882Y-86854264D01*
X177500722Y-86839703D01*
X177500000Y-86825000D01*
X177500000Y-85075000D01*
X177500722Y-85060297D01*
X177502882Y-85045736D01*
X177506459Y-85031457D01*
X177511418Y-85017597D01*
X177517712Y-85004290D01*
X177525280Y-84991664D01*
X177534048Y-84979841D01*
X177543934Y-84968934D01*
X177554841Y-84959048D01*
X177566664Y-84950280D01*
X177579290Y-84942712D01*
X177592597Y-84936418D01*
X177606457Y-84931459D01*
X177620736Y-84927882D01*
X177635297Y-84925722D01*
X177650000Y-84925000D01*
X177950000Y-84925000D01*
X177964703Y-84925722D01*
G37*
G04 #@! TD.AperFunction*
G04 #@! TA.AperFunction,SMDPad,CuDef*
G36*
X176694703Y-84925722D02*
G01*
X176709264Y-84927882D01*
X176723543Y-84931459D01*
X176737403Y-84936418D01*
X176750710Y-84942712D01*
X176763336Y-84950280D01*
X176775159Y-84959048D01*
X176786066Y-84968934D01*
X176795952Y-84979841D01*
X176804720Y-84991664D01*
X176812288Y-85004290D01*
X176818582Y-85017597D01*
X176823541Y-85031457D01*
X176827118Y-85045736D01*
X176829278Y-85060297D01*
X176830000Y-85075000D01*
X176830000Y-86825000D01*
X176829278Y-86839703D01*
X176827118Y-86854264D01*
X176823541Y-86868543D01*
X176818582Y-86882403D01*
X176812288Y-86895710D01*
X176804720Y-86908336D01*
X176795952Y-86920159D01*
X176786066Y-86931066D01*
X176775159Y-86940952D01*
X176763336Y-86949720D01*
X176750710Y-86957288D01*
X176737403Y-86963582D01*
X176723543Y-86968541D01*
X176709264Y-86972118D01*
X176694703Y-86974278D01*
X176680000Y-86975000D01*
X176380000Y-86975000D01*
X176365297Y-86974278D01*
X176350736Y-86972118D01*
X176336457Y-86968541D01*
X176322597Y-86963582D01*
X176309290Y-86957288D01*
X176296664Y-86949720D01*
X176284841Y-86940952D01*
X176273934Y-86931066D01*
X176264048Y-86920159D01*
X176255280Y-86908336D01*
X176247712Y-86895710D01*
X176241418Y-86882403D01*
X176236459Y-86868543D01*
X176232882Y-86854264D01*
X176230722Y-86839703D01*
X176230000Y-86825000D01*
X176230000Y-85075000D01*
X176230722Y-85060297D01*
X176232882Y-85045736D01*
X176236459Y-85031457D01*
X176241418Y-85017597D01*
X176247712Y-85004290D01*
X176255280Y-84991664D01*
X176264048Y-84979841D01*
X176273934Y-84968934D01*
X176284841Y-84959048D01*
X176296664Y-84950280D01*
X176309290Y-84942712D01*
X176322597Y-84936418D01*
X176336457Y-84931459D01*
X176350736Y-84927882D01*
X176365297Y-84925722D01*
X176380000Y-84925000D01*
X176680000Y-84925000D01*
X176694703Y-84925722D01*
G37*
G04 #@! TD.AperFunction*
G04 #@! TA.AperFunction,SMDPad,CuDef*
G36*
X175424703Y-84925722D02*
G01*
X175439264Y-84927882D01*
X175453543Y-84931459D01*
X175467403Y-84936418D01*
X175480710Y-84942712D01*
X175493336Y-84950280D01*
X175505159Y-84959048D01*
X175516066Y-84968934D01*
X175525952Y-84979841D01*
X175534720Y-84991664D01*
X175542288Y-85004290D01*
X175548582Y-85017597D01*
X175553541Y-85031457D01*
X175557118Y-85045736D01*
X175559278Y-85060297D01*
X175560000Y-85075000D01*
X175560000Y-86825000D01*
X175559278Y-86839703D01*
X175557118Y-86854264D01*
X175553541Y-86868543D01*
X175548582Y-86882403D01*
X175542288Y-86895710D01*
X175534720Y-86908336D01*
X175525952Y-86920159D01*
X175516066Y-86931066D01*
X175505159Y-86940952D01*
X175493336Y-86949720D01*
X175480710Y-86957288D01*
X175467403Y-86963582D01*
X175453543Y-86968541D01*
X175439264Y-86972118D01*
X175424703Y-86974278D01*
X175410000Y-86975000D01*
X175110000Y-86975000D01*
X175095297Y-86974278D01*
X175080736Y-86972118D01*
X175066457Y-86968541D01*
X175052597Y-86963582D01*
X175039290Y-86957288D01*
X175026664Y-86949720D01*
X175014841Y-86940952D01*
X175003934Y-86931066D01*
X174994048Y-86920159D01*
X174985280Y-86908336D01*
X174977712Y-86895710D01*
X174971418Y-86882403D01*
X174966459Y-86868543D01*
X174962882Y-86854264D01*
X174960722Y-86839703D01*
X174960000Y-86825000D01*
X174960000Y-85075000D01*
X174960722Y-85060297D01*
X174962882Y-85045736D01*
X174966459Y-85031457D01*
X174971418Y-85017597D01*
X174977712Y-85004290D01*
X174985280Y-84991664D01*
X174994048Y-84979841D01*
X175003934Y-84968934D01*
X175014841Y-84959048D01*
X175026664Y-84950280D01*
X175039290Y-84942712D01*
X175052597Y-84936418D01*
X175066457Y-84931459D01*
X175080736Y-84927882D01*
X175095297Y-84925722D01*
X175110000Y-84925000D01*
X175410000Y-84925000D01*
X175424703Y-84925722D01*
G37*
G04 #@! TD.AperFunction*
G04 #@! TA.AperFunction,SMDPad,CuDef*
G36*
X174154703Y-84925722D02*
G01*
X174169264Y-84927882D01*
X174183543Y-84931459D01*
X174197403Y-84936418D01*
X174210710Y-84942712D01*
X174223336Y-84950280D01*
X174235159Y-84959048D01*
X174246066Y-84968934D01*
X174255952Y-84979841D01*
X174264720Y-84991664D01*
X174272288Y-85004290D01*
X174278582Y-85017597D01*
X174283541Y-85031457D01*
X174287118Y-85045736D01*
X174289278Y-85060297D01*
X174290000Y-85075000D01*
X174290000Y-86825000D01*
X174289278Y-86839703D01*
X174287118Y-86854264D01*
X174283541Y-86868543D01*
X174278582Y-86882403D01*
X174272288Y-86895710D01*
X174264720Y-86908336D01*
X174255952Y-86920159D01*
X174246066Y-86931066D01*
X174235159Y-86940952D01*
X174223336Y-86949720D01*
X174210710Y-86957288D01*
X174197403Y-86963582D01*
X174183543Y-86968541D01*
X174169264Y-86972118D01*
X174154703Y-86974278D01*
X174140000Y-86975000D01*
X173840000Y-86975000D01*
X173825297Y-86974278D01*
X173810736Y-86972118D01*
X173796457Y-86968541D01*
X173782597Y-86963582D01*
X173769290Y-86957288D01*
X173756664Y-86949720D01*
X173744841Y-86940952D01*
X173733934Y-86931066D01*
X173724048Y-86920159D01*
X173715280Y-86908336D01*
X173707712Y-86895710D01*
X173701418Y-86882403D01*
X173696459Y-86868543D01*
X173692882Y-86854264D01*
X173690722Y-86839703D01*
X173690000Y-86825000D01*
X173690000Y-85075000D01*
X173690722Y-85060297D01*
X173692882Y-85045736D01*
X173696459Y-85031457D01*
X173701418Y-85017597D01*
X173707712Y-85004290D01*
X173715280Y-84991664D01*
X173724048Y-84979841D01*
X173733934Y-84968934D01*
X173744841Y-84959048D01*
X173756664Y-84950280D01*
X173769290Y-84942712D01*
X173782597Y-84936418D01*
X173796457Y-84931459D01*
X173810736Y-84927882D01*
X173825297Y-84925722D01*
X173840000Y-84925000D01*
X174140000Y-84925000D01*
X174154703Y-84925722D01*
G37*
G04 #@! TD.AperFunction*
G04 #@! TA.AperFunction,SMDPad,CuDef*
G36*
X172884703Y-84925722D02*
G01*
X172899264Y-84927882D01*
X172913543Y-84931459D01*
X172927403Y-84936418D01*
X172940710Y-84942712D01*
X172953336Y-84950280D01*
X172965159Y-84959048D01*
X172976066Y-84968934D01*
X172985952Y-84979841D01*
X172994720Y-84991664D01*
X173002288Y-85004290D01*
X173008582Y-85017597D01*
X173013541Y-85031457D01*
X173017118Y-85045736D01*
X173019278Y-85060297D01*
X173020000Y-85075000D01*
X173020000Y-86825000D01*
X173019278Y-86839703D01*
X173017118Y-86854264D01*
X173013541Y-86868543D01*
X173008582Y-86882403D01*
X173002288Y-86895710D01*
X172994720Y-86908336D01*
X172985952Y-86920159D01*
X172976066Y-86931066D01*
X172965159Y-86940952D01*
X172953336Y-86949720D01*
X172940710Y-86957288D01*
X172927403Y-86963582D01*
X172913543Y-86968541D01*
X172899264Y-86972118D01*
X172884703Y-86974278D01*
X172870000Y-86975000D01*
X172570000Y-86975000D01*
X172555297Y-86974278D01*
X172540736Y-86972118D01*
X172526457Y-86968541D01*
X172512597Y-86963582D01*
X172499290Y-86957288D01*
X172486664Y-86949720D01*
X172474841Y-86940952D01*
X172463934Y-86931066D01*
X172454048Y-86920159D01*
X172445280Y-86908336D01*
X172437712Y-86895710D01*
X172431418Y-86882403D01*
X172426459Y-86868543D01*
X172422882Y-86854264D01*
X172420722Y-86839703D01*
X172420000Y-86825000D01*
X172420000Y-85075000D01*
X172420722Y-85060297D01*
X172422882Y-85045736D01*
X172426459Y-85031457D01*
X172431418Y-85017597D01*
X172437712Y-85004290D01*
X172445280Y-84991664D01*
X172454048Y-84979841D01*
X172463934Y-84968934D01*
X172474841Y-84959048D01*
X172486664Y-84950280D01*
X172499290Y-84942712D01*
X172512597Y-84936418D01*
X172526457Y-84931459D01*
X172540736Y-84927882D01*
X172555297Y-84925722D01*
X172570000Y-84925000D01*
X172870000Y-84925000D01*
X172884703Y-84925722D01*
G37*
G04 #@! TD.AperFunction*
G04 #@! TA.AperFunction,SMDPad,CuDef*
G36*
X171614703Y-84925722D02*
G01*
X171629264Y-84927882D01*
X171643543Y-84931459D01*
X171657403Y-84936418D01*
X171670710Y-84942712D01*
X171683336Y-84950280D01*
X171695159Y-84959048D01*
X171706066Y-84968934D01*
X171715952Y-84979841D01*
X171724720Y-84991664D01*
X171732288Y-85004290D01*
X171738582Y-85017597D01*
X171743541Y-85031457D01*
X171747118Y-85045736D01*
X171749278Y-85060297D01*
X171750000Y-85075000D01*
X171750000Y-86825000D01*
X171749278Y-86839703D01*
X171747118Y-86854264D01*
X171743541Y-86868543D01*
X171738582Y-86882403D01*
X171732288Y-86895710D01*
X171724720Y-86908336D01*
X171715952Y-86920159D01*
X171706066Y-86931066D01*
X171695159Y-86940952D01*
X171683336Y-86949720D01*
X171670710Y-86957288D01*
X171657403Y-86963582D01*
X171643543Y-86968541D01*
X171629264Y-86972118D01*
X171614703Y-86974278D01*
X171600000Y-86975000D01*
X171300000Y-86975000D01*
X171285297Y-86974278D01*
X171270736Y-86972118D01*
X171256457Y-86968541D01*
X171242597Y-86963582D01*
X171229290Y-86957288D01*
X171216664Y-86949720D01*
X171204841Y-86940952D01*
X171193934Y-86931066D01*
X171184048Y-86920159D01*
X171175280Y-86908336D01*
X171167712Y-86895710D01*
X171161418Y-86882403D01*
X171156459Y-86868543D01*
X171152882Y-86854264D01*
X171150722Y-86839703D01*
X171150000Y-86825000D01*
X171150000Y-85075000D01*
X171150722Y-85060297D01*
X171152882Y-85045736D01*
X171156459Y-85031457D01*
X171161418Y-85017597D01*
X171167712Y-85004290D01*
X171175280Y-84991664D01*
X171184048Y-84979841D01*
X171193934Y-84968934D01*
X171204841Y-84959048D01*
X171216664Y-84950280D01*
X171229290Y-84942712D01*
X171242597Y-84936418D01*
X171256457Y-84931459D01*
X171270736Y-84927882D01*
X171285297Y-84925722D01*
X171300000Y-84925000D01*
X171600000Y-84925000D01*
X171614703Y-84925722D01*
G37*
G04 #@! TD.AperFunction*
G04 #@! TA.AperFunction,SMDPad,CuDef*
G36*
X170344703Y-84925722D02*
G01*
X170359264Y-84927882D01*
X170373543Y-84931459D01*
X170387403Y-84936418D01*
X170400710Y-84942712D01*
X170413336Y-84950280D01*
X170425159Y-84959048D01*
X170436066Y-84968934D01*
X170445952Y-84979841D01*
X170454720Y-84991664D01*
X170462288Y-85004290D01*
X170468582Y-85017597D01*
X170473541Y-85031457D01*
X170477118Y-85045736D01*
X170479278Y-85060297D01*
X170480000Y-85075000D01*
X170480000Y-86825000D01*
X170479278Y-86839703D01*
X170477118Y-86854264D01*
X170473541Y-86868543D01*
X170468582Y-86882403D01*
X170462288Y-86895710D01*
X170454720Y-86908336D01*
X170445952Y-86920159D01*
X170436066Y-86931066D01*
X170425159Y-86940952D01*
X170413336Y-86949720D01*
X170400710Y-86957288D01*
X170387403Y-86963582D01*
X170373543Y-86968541D01*
X170359264Y-86972118D01*
X170344703Y-86974278D01*
X170330000Y-86975000D01*
X170030000Y-86975000D01*
X170015297Y-86974278D01*
X170000736Y-86972118D01*
X169986457Y-86968541D01*
X169972597Y-86963582D01*
X169959290Y-86957288D01*
X169946664Y-86949720D01*
X169934841Y-86940952D01*
X169923934Y-86931066D01*
X169914048Y-86920159D01*
X169905280Y-86908336D01*
X169897712Y-86895710D01*
X169891418Y-86882403D01*
X169886459Y-86868543D01*
X169882882Y-86854264D01*
X169880722Y-86839703D01*
X169880000Y-86825000D01*
X169880000Y-85075000D01*
X169880722Y-85060297D01*
X169882882Y-85045736D01*
X169886459Y-85031457D01*
X169891418Y-85017597D01*
X169897712Y-85004290D01*
X169905280Y-84991664D01*
X169914048Y-84979841D01*
X169923934Y-84968934D01*
X169934841Y-84959048D01*
X169946664Y-84950280D01*
X169959290Y-84942712D01*
X169972597Y-84936418D01*
X169986457Y-84931459D01*
X170000736Y-84927882D01*
X170015297Y-84925722D01*
X170030000Y-84925000D01*
X170330000Y-84925000D01*
X170344703Y-84925722D01*
G37*
G04 #@! TD.AperFunction*
G04 #@! TA.AperFunction,SMDPad,CuDef*
G36*
X169074703Y-84925722D02*
G01*
X169089264Y-84927882D01*
X169103543Y-84931459D01*
X169117403Y-84936418D01*
X169130710Y-84942712D01*
X169143336Y-84950280D01*
X169155159Y-84959048D01*
X169166066Y-84968934D01*
X169175952Y-84979841D01*
X169184720Y-84991664D01*
X169192288Y-85004290D01*
X169198582Y-85017597D01*
X169203541Y-85031457D01*
X169207118Y-85045736D01*
X169209278Y-85060297D01*
X169210000Y-85075000D01*
X169210000Y-86825000D01*
X169209278Y-86839703D01*
X169207118Y-86854264D01*
X169203541Y-86868543D01*
X169198582Y-86882403D01*
X169192288Y-86895710D01*
X169184720Y-86908336D01*
X169175952Y-86920159D01*
X169166066Y-86931066D01*
X169155159Y-86940952D01*
X169143336Y-86949720D01*
X169130710Y-86957288D01*
X169117403Y-86963582D01*
X169103543Y-86968541D01*
X169089264Y-86972118D01*
X169074703Y-86974278D01*
X169060000Y-86975000D01*
X168760000Y-86975000D01*
X168745297Y-86974278D01*
X168730736Y-86972118D01*
X168716457Y-86968541D01*
X168702597Y-86963582D01*
X168689290Y-86957288D01*
X168676664Y-86949720D01*
X168664841Y-86940952D01*
X168653934Y-86931066D01*
X168644048Y-86920159D01*
X168635280Y-86908336D01*
X168627712Y-86895710D01*
X168621418Y-86882403D01*
X168616459Y-86868543D01*
X168612882Y-86854264D01*
X168610722Y-86839703D01*
X168610000Y-86825000D01*
X168610000Y-85075000D01*
X168610722Y-85060297D01*
X168612882Y-85045736D01*
X168616459Y-85031457D01*
X168621418Y-85017597D01*
X168627712Y-85004290D01*
X168635280Y-84991664D01*
X168644048Y-84979841D01*
X168653934Y-84968934D01*
X168664841Y-84959048D01*
X168676664Y-84950280D01*
X168689290Y-84942712D01*
X168702597Y-84936418D01*
X168716457Y-84931459D01*
X168730736Y-84927882D01*
X168745297Y-84925722D01*
X168760000Y-84925000D01*
X169060000Y-84925000D01*
X169074703Y-84925722D01*
G37*
G04 #@! TD.AperFunction*
D11*
X147760000Y-72150000D03*
D10*
X150300000Y-72150000D03*
X147760000Y-69610000D03*
D11*
X150300000Y-69610000D03*
D17*
X120015000Y-97790000D03*
D18*
X122515000Y-97790000D03*
D19*
X108585000Y-87630000D03*
X108595160Y-88866980D03*
D20*
X169545000Y-100886300D03*
X142879000Y-93946000D03*
X162083100Y-79462500D03*
X159028400Y-78923700D03*
X165029900Y-80960400D03*
X164666400Y-98852100D03*
X174105600Y-72546200D03*
X141368700Y-88128800D03*
X169360000Y-103411800D03*
X178886900Y-105308100D03*
X167836400Y-102680000D03*
X167793600Y-104237200D03*
X172965600Y-104545200D03*
X172235400Y-105037700D03*
X161630800Y-103076800D03*
X153516200Y-89275100D03*
X167060800Y-103103900D03*
X163242300Y-102166800D03*
X160996400Y-98964600D03*
X160347900Y-103772000D03*
X159625300Y-97593600D03*
X157946100Y-98355500D03*
X151600700Y-89275100D03*
X156997600Y-97006900D03*
X154985600Y-104850900D03*
X156185600Y-97245800D03*
X155526700Y-96772700D03*
X153210600Y-104846100D03*
X155323200Y-95447300D03*
X153830500Y-99881500D03*
X150481700Y-105019700D03*
X154471000Y-99379900D03*
X146645000Y-104946300D03*
X143309000Y-104054000D03*
X141592000Y-104874300D03*
X139028600Y-104850900D03*
X167498200Y-84227100D03*
X152536800Y-82394600D03*
X180900300Y-79299800D03*
X165053400Y-85746600D03*
X163710600Y-86817800D03*
X134542400Y-89856900D03*
X138437800Y-92540700D03*
X136161400Y-89697300D03*
X141706400Y-92540700D03*
X180510800Y-98651800D03*
X184785800Y-103873200D03*
X171631200Y-93385700D03*
X182220700Y-85551000D03*
X152918100Y-78715300D03*
X169018600Y-78494300D03*
X150049900Y-82269300D03*
X170406900Y-89523000D03*
X120974500Y-56829600D03*
X118765900Y-54053000D03*
X120844900Y-51286000D03*
X116976100Y-52963600D03*
X126618000Y-75296100D03*
X177177700Y-89695100D03*
X167324600Y-85293300D03*
X168377700Y-93793700D03*
X171207300Y-89523000D03*
X167506800Y-90056500D03*
X148999200Y-82302400D03*
X169606500Y-89739100D03*
X114588200Y-94168700D03*
D21*
X147740000Y-77250000D02*
X148915300Y-77250000D01*
X155360000Y-74710000D02*
X154184700Y-74710000D01*
X154184700Y-74710000D02*
X154184700Y-75077400D01*
X154184700Y-75077400D02*
X153187400Y-76074700D01*
X153187400Y-76074700D02*
X149723200Y-76074700D01*
X149723200Y-76074700D02*
X148915300Y-76882600D01*
X148915300Y-76882600D02*
X148915300Y-77250000D01*
X155947700Y-74710000D02*
X155360000Y-74710000D01*
X155947700Y-74710000D02*
X156535300Y-74710000D01*
X148590000Y-96805300D02*
X152805600Y-101020900D01*
X152805600Y-101020900D02*
X169410400Y-101020900D01*
X169410400Y-101020900D02*
X169545000Y-100886300D01*
X180340000Y-95250000D02*
X180340000Y-95808500D01*
X180340000Y-95808500D02*
X175262200Y-100886300D01*
X175262200Y-100886300D02*
X169545000Y-100886300D01*
X117510400Y-85090000D02*
X117510400Y-70743200D01*
X117510400Y-70743200D02*
X108331000Y-61563800D01*
X147740000Y-77250000D02*
X129691600Y-77250000D01*
X129691600Y-77250000D02*
X119946600Y-86995000D01*
X119946600Y-86995000D02*
X117316700Y-86995000D01*
X117316700Y-86995000D02*
X116988800Y-86667100D01*
X116988800Y-86667100D02*
X116988800Y-85611600D01*
X116988800Y-85611600D02*
X117510400Y-85090000D01*
X117510400Y-85090000D02*
X118195000Y-85090000D01*
X108331000Y-60388500D02*
X108331000Y-61563800D01*
X165520000Y-75885300D02*
X162423300Y-75885300D01*
X162423300Y-75885300D02*
X161615300Y-75077300D01*
X161615300Y-75077300D02*
X161615300Y-74710000D01*
X171964700Y-74710000D02*
X171964700Y-75077400D01*
X171964700Y-75077400D02*
X171156800Y-75885300D01*
X171156800Y-75885300D02*
X165520000Y-75885300D01*
X165520000Y-75885300D02*
X165520000Y-76074700D01*
X165520000Y-77250000D02*
X165520000Y-76074700D01*
X160440000Y-74710000D02*
X161615300Y-74710000D01*
X173140000Y-74710000D02*
X171964700Y-74710000D01*
X148590000Y-96805300D02*
X146805800Y-96805300D01*
X146805800Y-96805300D02*
X146694600Y-96694100D01*
X146694600Y-96694100D02*
X146694600Y-94360200D01*
X146694600Y-94360200D02*
X146280400Y-93946000D01*
X146280400Y-93946000D02*
X142879000Y-93946000D01*
X148590000Y-95505000D02*
X148590000Y-96805300D01*
X190920000Y-74710000D02*
X189744700Y-74710000D01*
X185840000Y-77250000D02*
X187015300Y-77250000D01*
X187015300Y-77250000D02*
X187015300Y-76882600D01*
X187015300Y-76882600D02*
X188012600Y-75885300D01*
X188012600Y-75885300D02*
X188936800Y-75885300D01*
X188936800Y-75885300D02*
X189744700Y-75077400D01*
X189744700Y-75077400D02*
X189744700Y-74710000D01*
X173140000Y-74710000D02*
X174315300Y-74710000D01*
X180760000Y-74710000D02*
X179584700Y-74710000D01*
X179584700Y-74710000D02*
X179584700Y-74342700D01*
X179584700Y-74342700D02*
X178776700Y-73534700D01*
X178776700Y-73534700D02*
X175123200Y-73534700D01*
X175123200Y-73534700D02*
X174315300Y-74342600D01*
X174315300Y-74342600D02*
X174315300Y-74710000D01*
X160440000Y-74710000D02*
X159264700Y-74710000D01*
X159264700Y-74710000D02*
X159264700Y-74342700D01*
X159264700Y-74342700D02*
X158416300Y-73494300D01*
X158416300Y-73494300D02*
X157453400Y-73494300D01*
X157453400Y-73494300D02*
X156535300Y-74412400D01*
X156535300Y-74412400D02*
X156535300Y-74710000D01*
D22*
X193460000Y-74710000D02*
X196000000Y-74710000D01*
D21*
X173990000Y-95250000D02*
X173990000Y-94724400D01*
X173990000Y-94724400D02*
X175269800Y-93444600D01*
X175269800Y-93444600D02*
X175900700Y-93444600D01*
X175900700Y-93444600D02*
X190920000Y-78425300D01*
X190920000Y-77250000D02*
X190920000Y-78425300D01*
X179705000Y-84823100D02*
X174716400Y-79834500D01*
X174716400Y-79834500D02*
X162455100Y-79834500D01*
X162455100Y-79834500D02*
X162083100Y-79462500D01*
X179705000Y-84823100D02*
X179939300Y-84588800D01*
X179939300Y-84588800D02*
X181041200Y-84588800D01*
X181041200Y-84588800D02*
X188380000Y-77250000D01*
X176530000Y-85950000D02*
X176530000Y-86431700D01*
X176530000Y-86431700D02*
X177425700Y-87327400D01*
X177425700Y-87327400D02*
X179437900Y-87327400D01*
X179437900Y-87327400D02*
X179705000Y-87060300D01*
X179705000Y-87060300D02*
X179705000Y-84823100D01*
X171450000Y-85950000D02*
X171450000Y-85495900D01*
X171450000Y-85495900D02*
X167786900Y-81832800D01*
X167786900Y-81832800D02*
X161053200Y-81832800D01*
X161053200Y-81832800D02*
X157900000Y-78679600D01*
X157900000Y-78679600D02*
X157900000Y-78425300D01*
X157900000Y-77250000D02*
X157900000Y-78425300D01*
X165029900Y-80960400D02*
X161065100Y-80960400D01*
X161065100Y-80960400D02*
X159028400Y-78923700D01*
X173990000Y-85950000D02*
X173990000Y-85443400D01*
X173990000Y-85443400D02*
X169507000Y-80960400D01*
X169507000Y-80960400D02*
X165029900Y-80960400D01*
X176530000Y-95250000D02*
X176530000Y-95748700D01*
X176530000Y-95748700D02*
X173426600Y-98852100D01*
X173426600Y-98852100D02*
X164666400Y-98852100D01*
X179070000Y-95250000D02*
X179070000Y-94820800D01*
X179070000Y-94820800D02*
X195345200Y-78545600D01*
X195345200Y-78545600D02*
X196872500Y-78545600D01*
X196872500Y-78545600D02*
X197718800Y-77699300D01*
X197718800Y-77699300D02*
X197718800Y-74079600D01*
X197718800Y-74079600D02*
X196185400Y-72546200D01*
X196185400Y-72546200D02*
X174105600Y-72546200D01*
X171450000Y-95250000D02*
X171450000Y-95735600D01*
X171450000Y-95735600D02*
X169984600Y-97201000D01*
X169984600Y-97201000D02*
X160929500Y-97201000D01*
X160929500Y-97201000D02*
X159149600Y-98980900D01*
X159149600Y-98980900D02*
X155080200Y-98980900D01*
X155080200Y-98980900D02*
X149465100Y-93365800D01*
X149465100Y-93365800D02*
X146605700Y-93365800D01*
X146605700Y-93365800D02*
X141368700Y-88128800D01*
X192284700Y-77250000D02*
X192284700Y-76882600D01*
X192284700Y-76882600D02*
X191476800Y-76074700D01*
X191476800Y-76074700D02*
X190411100Y-76074700D01*
X190411100Y-76074700D02*
X189683400Y-76802400D01*
X189683400Y-76802400D02*
X189683400Y-79016200D01*
X189683400Y-79016200D02*
X175808900Y-92890700D01*
X175808900Y-92890700D02*
X173328000Y-92890700D01*
X173328000Y-92890700D02*
X171450000Y-94768700D01*
X171450000Y-94768700D02*
X171450000Y-95250000D01*
X193460000Y-77250000D02*
X192284700Y-77250000D01*
X160440000Y-78425300D02*
X160440000Y-78719200D01*
X160440000Y-78719200D02*
X162055900Y-80335100D01*
X162055900Y-80335100D02*
X173887500Y-80335100D01*
X173887500Y-80335100D02*
X179070000Y-85517600D01*
X179070000Y-85517600D02*
X179070000Y-85950000D01*
X160440000Y-77250000D02*
X160440000Y-78425300D01*
X178886900Y-105308100D02*
X176990700Y-103411900D01*
X176990700Y-103411900D02*
X169360000Y-103411900D01*
X169360000Y-103411900D02*
X169360000Y-103411800D01*
X180319800Y-105502100D02*
X177497700Y-102680000D01*
X177497700Y-102680000D02*
X167836400Y-102680000D01*
X180319800Y-109827400D02*
X180319800Y-105502100D01*
X177779800Y-105502100D02*
X176197600Y-103919900D01*
X176197600Y-103919900D02*
X172706600Y-103919900D01*
X172706600Y-103919900D02*
X172389300Y-104237200D01*
X172389300Y-104237200D02*
X167793600Y-104237200D01*
X177779800Y-109827400D02*
X177779800Y-105502100D01*
X175239800Y-109827400D02*
X175239800Y-105502100D01*
X175239800Y-105502100D02*
X173922500Y-105502100D01*
X173922500Y-105502100D02*
X172965600Y-104545200D01*
X172699800Y-105502100D02*
X172235400Y-105037700D01*
X172699800Y-109827400D02*
X172699800Y-105502100D01*
X140970000Y-96805300D02*
X147241500Y-103076800D01*
X147241500Y-103076800D02*
X161630800Y-103076800D01*
X140970000Y-95505000D02*
X140970000Y-96805300D01*
X153516200Y-89275100D02*
X151646400Y-87405300D01*
X151646400Y-87405300D02*
X148590000Y-87405300D01*
X167619800Y-109827400D02*
X167619800Y-105502100D01*
X148590000Y-86105000D02*
X148590000Y-87405300D01*
X167619800Y-105502100D02*
X167060800Y-104943100D01*
X167060800Y-104943100D02*
X167060800Y-103103900D01*
X146050000Y-96805300D02*
X150795500Y-101550800D01*
X150795500Y-101550800D02*
X162626300Y-101550800D01*
X162626300Y-101550800D02*
X163242300Y-102166800D01*
X146050000Y-95505000D02*
X146050000Y-96805300D01*
X143510000Y-96805300D02*
X149156100Y-102451400D01*
X149156100Y-102451400D02*
X162005700Y-102451400D01*
X162005700Y-102451400D02*
X165056400Y-105502100D01*
X165056400Y-105502100D02*
X165079800Y-105502100D01*
X143510000Y-95505000D02*
X143510000Y-96805300D01*
X165079800Y-109827400D02*
X165079800Y-105502100D01*
X172720000Y-95250000D02*
X172720000Y-95681500D01*
X172720000Y-95681500D02*
X170625000Y-97776500D01*
X170625000Y-97776500D02*
X162184500Y-97776500D01*
X162184500Y-97776500D02*
X160996400Y-98964600D01*
X162539800Y-105502100D02*
X162078000Y-105502100D01*
X162078000Y-105502100D02*
X160347900Y-103772000D01*
X170180000Y-95250000D02*
X170180000Y-95683600D01*
X170180000Y-95683600D02*
X169112900Y-96750700D01*
X169112900Y-96750700D02*
X160468200Y-96750700D01*
X160468200Y-96750700D02*
X159625300Y-97593600D01*
X162539800Y-109827400D02*
X162539800Y-105502100D01*
X140970000Y-87405300D02*
X141544200Y-87405300D01*
X141544200Y-87405300D02*
X146542200Y-92403300D01*
X146542200Y-92403300D02*
X149406600Y-92403300D01*
X149406600Y-92403300D02*
X155358800Y-98355500D01*
X155358800Y-98355500D02*
X157946100Y-98355500D01*
X140970000Y-86105000D02*
X140970000Y-87405300D01*
X159999800Y-105502100D02*
X158041200Y-103543500D01*
X158041200Y-103543500D02*
X145168200Y-103543500D01*
X145168200Y-103543500D02*
X138430000Y-96805300D01*
X138430000Y-95505000D02*
X138430000Y-96805300D01*
X159999800Y-109827400D02*
X159999800Y-105502100D01*
X151600700Y-89275100D02*
X147919800Y-89275100D01*
X147919800Y-89275100D02*
X146050000Y-87405300D01*
X146050000Y-86105000D02*
X146050000Y-87405300D01*
X143510000Y-86105000D02*
X143510000Y-84804700D01*
X157459800Y-109827400D02*
X157459800Y-105502100D01*
X157459800Y-105502100D02*
X156131400Y-104173700D01*
X156131400Y-104173700D02*
X145159900Y-104173700D01*
X145159900Y-104173700D02*
X137804600Y-96818400D01*
X137804600Y-96818400D02*
X137804600Y-91721000D01*
X137804600Y-91721000D02*
X140337000Y-89188600D01*
X140337000Y-89188600D02*
X140337000Y-84948500D01*
X140337000Y-84948500D02*
X140480800Y-84804700D01*
X140480800Y-84804700D02*
X143510000Y-84804700D01*
X156997600Y-97006900D02*
X161667700Y-92336800D01*
X161667700Y-92336800D02*
X171025100Y-92336800D01*
X171025100Y-92336800D02*
X171862700Y-91499200D01*
X171862700Y-91499200D02*
X172026200Y-91499200D01*
X172026200Y-91499200D02*
X174972600Y-88552800D01*
X174972600Y-88552800D02*
X178849400Y-88552800D01*
X178849400Y-88552800D02*
X180340000Y-87062200D01*
X180340000Y-87062200D02*
X180340000Y-85950000D01*
X156185600Y-97245800D02*
X156185600Y-96910600D01*
X156185600Y-96910600D02*
X161235400Y-91860800D01*
X161235400Y-91860800D02*
X170864200Y-91860800D01*
X170864200Y-91860800D02*
X171676100Y-91048900D01*
X171676100Y-91048900D02*
X171839600Y-91048900D01*
X171839600Y-91048900D02*
X175587500Y-87301000D01*
X175587500Y-87301000D02*
X175618900Y-87301000D01*
X175618900Y-87301000D02*
X175895000Y-87024900D01*
X175895000Y-87024900D02*
X175895000Y-84821700D01*
X175895000Y-84821700D02*
X176188600Y-84528100D01*
X176188600Y-84528100D02*
X176859800Y-84528100D01*
X176859800Y-84528100D02*
X177800000Y-85468300D01*
X177800000Y-85468300D02*
X177800000Y-85950000D01*
X154985600Y-104850900D02*
X154919800Y-104916700D01*
X154919800Y-104916700D02*
X154919800Y-109827400D01*
X155526700Y-96772700D02*
X160888900Y-91410500D01*
X160888900Y-91410500D02*
X170677600Y-91410500D01*
X170677600Y-91410500D02*
X171489500Y-90598600D01*
X171489500Y-90598600D02*
X171653000Y-90598600D01*
X171653000Y-90598600D02*
X175260000Y-86991600D01*
X175260000Y-86991600D02*
X175260000Y-85950000D01*
X155323200Y-95447300D02*
X159810300Y-90960200D01*
X159810300Y-90960200D02*
X170491000Y-90960200D01*
X170491000Y-90960200D02*
X171302900Y-90148300D01*
X171302900Y-90148300D02*
X171466400Y-90148300D01*
X171466400Y-90148300D02*
X172720000Y-88894700D01*
X172720000Y-88894700D02*
X172720000Y-85950000D01*
X153210600Y-104846100D02*
X152554600Y-105502100D01*
X152554600Y-105502100D02*
X152379800Y-105502100D01*
X152379800Y-109827400D02*
X152379800Y-105502100D01*
X153830500Y-99881500D02*
X153989700Y-100040700D01*
X153989700Y-100040700D02*
X161441600Y-100040700D01*
X161441600Y-100040700D02*
X161675800Y-99806500D01*
X161675800Y-99806500D02*
X173727200Y-99806500D01*
X173727200Y-99806500D02*
X177800000Y-95733700D01*
X177800000Y-95733700D02*
X177800000Y-95250000D01*
X175260000Y-95250000D02*
X175260000Y-95697300D01*
X175260000Y-95697300D02*
X172730500Y-98226800D01*
X172730500Y-98226800D02*
X162618600Y-98226800D01*
X162618600Y-98226800D02*
X161255000Y-99590400D01*
X161255000Y-99590400D02*
X154681500Y-99590400D01*
X154681500Y-99590400D02*
X154471000Y-99379900D01*
X150481700Y-105019700D02*
X149999300Y-105502100D01*
X149999300Y-105502100D02*
X149839800Y-105502100D01*
X149839800Y-109827400D02*
X149839800Y-105502100D01*
X147299800Y-109827400D02*
X147299800Y-105502100D01*
X147299800Y-105502100D02*
X147200800Y-105502100D01*
X147200800Y-105502100D02*
X146645000Y-104946300D01*
X144759800Y-109827400D02*
X144759800Y-105502100D01*
X144759800Y-105502100D02*
X144757100Y-105502100D01*
X144757100Y-105502100D02*
X143309000Y-104054000D01*
X142219800Y-105502100D02*
X141592000Y-104874300D01*
X142219800Y-109827400D02*
X142219800Y-105502100D01*
X139679800Y-105502100D02*
X139028600Y-104850900D01*
X139679800Y-109827400D02*
X139679800Y-105502100D01*
X167498200Y-84227100D02*
X166761700Y-83490600D01*
X166761700Y-83490600D02*
X152748500Y-83490600D01*
X152748500Y-83490600D02*
X151911500Y-82653600D01*
X151911500Y-82653600D02*
X151911500Y-82412600D01*
X151911500Y-82412600D02*
X150657300Y-81158400D01*
X150657300Y-81158400D02*
X141630500Y-81158400D01*
X141630500Y-81158400D02*
X137797000Y-84991900D01*
X137797000Y-84991900D02*
X137797000Y-90219900D01*
X137797000Y-90219900D02*
X136534600Y-91482300D01*
X136534600Y-91482300D02*
X136534600Y-104896900D01*
X136534600Y-104896900D02*
X137139800Y-105502100D01*
X137139800Y-109827400D02*
X137139800Y-105502100D01*
X180900300Y-79299800D02*
X182933000Y-79299800D01*
X182933000Y-79299800D02*
X184570000Y-77662800D01*
X184570000Y-77662800D02*
X184570000Y-74308600D01*
X184570000Y-74308600D02*
X185832000Y-73046600D01*
X185832000Y-73046600D02*
X196048900Y-73046600D01*
X196048900Y-73046600D02*
X197222000Y-74219700D01*
X197222000Y-74219700D02*
X197222000Y-75190200D01*
X197222000Y-75190200D02*
X196337500Y-76074700D01*
X196337500Y-76074700D02*
X196000000Y-76074700D01*
X137160000Y-86105000D02*
X137160000Y-89628900D01*
X137160000Y-89628900D02*
X136253100Y-90535800D01*
X136253100Y-90535800D02*
X118262500Y-90535800D01*
X118262500Y-90535800D02*
X114710200Y-86983500D01*
X114710200Y-86983500D02*
X114710200Y-86574800D01*
X114710200Y-86574800D02*
X113225400Y-85090000D01*
X113225400Y-85090000D02*
X112945000Y-85090000D01*
X112945000Y-85090000D02*
X107155700Y-79300700D01*
X107155700Y-79300700D02*
X107155700Y-59831700D01*
X107155700Y-59831700D02*
X107963600Y-59023800D01*
X107963600Y-59023800D02*
X108331000Y-59023800D01*
X108331000Y-57848500D02*
X108331000Y-59023800D01*
X152536800Y-81296000D02*
X152536800Y-82394600D01*
X156510100Y-77936900D02*
X153735600Y-80711400D01*
X153735600Y-80711400D02*
X153121400Y-80711400D01*
X153121400Y-80711400D02*
X152536800Y-81296000D01*
X137160000Y-84804700D02*
X141285000Y-80679700D01*
X141285000Y-80679700D02*
X151920500Y-80679700D01*
X151920500Y-80679700D02*
X152536800Y-81296000D01*
X174504700Y-77250000D02*
X174504700Y-77617300D01*
X174504700Y-77617300D02*
X172997800Y-79124200D01*
X172997800Y-79124200D02*
X163127900Y-79124200D01*
X163127900Y-79124200D02*
X161792100Y-77788400D01*
X161792100Y-77788400D02*
X161792100Y-76873900D01*
X161792100Y-76873900D02*
X160983400Y-76065200D01*
X160983400Y-76065200D02*
X157406700Y-76065200D01*
X157406700Y-76065200D02*
X156630000Y-76841900D01*
X156630000Y-76841900D02*
X156630000Y-77817000D01*
X156630000Y-77817000D02*
X156510100Y-77936900D01*
X168910000Y-85950000D02*
X168910000Y-84752800D01*
X168910000Y-84752800D02*
X167197400Y-83040200D01*
X167197400Y-83040200D02*
X161613300Y-83040200D01*
X161613300Y-83040200D02*
X156510100Y-77936900D01*
X175680000Y-77250000D02*
X174504700Y-77250000D01*
X180900300Y-79299800D02*
X178537800Y-79299800D01*
X178537800Y-79299800D02*
X176855300Y-77617300D01*
X176855300Y-77617300D02*
X176855300Y-77250000D01*
X175680000Y-77250000D02*
X176855300Y-77250000D01*
X137160000Y-86105000D02*
X137160000Y-84804700D01*
X196000000Y-77250000D02*
X196000000Y-76074700D01*
X139700000Y-84804700D02*
X140167700Y-84337000D01*
X140167700Y-84337000D02*
X150149400Y-84337000D01*
X150149400Y-84337000D02*
X151559000Y-85746600D01*
X151559000Y-85746600D02*
X165053400Y-85746600D01*
X139700000Y-86105000D02*
X139700000Y-84804700D01*
X147320000Y-84804700D02*
X149072900Y-84804700D01*
X149072900Y-84804700D02*
X151086000Y-86817800D01*
X151086000Y-86817800D02*
X163710600Y-86817800D01*
X147320000Y-86105000D02*
X147320000Y-84804700D01*
X185840000Y-74710000D02*
X187015300Y-74710000D01*
X147320000Y-95505000D02*
X147320000Y-94204700D01*
X147320000Y-94204700D02*
X149088000Y-94204700D01*
X149088000Y-94204700D02*
X153147500Y-98264200D01*
X153147500Y-98264200D02*
X153147500Y-100087100D01*
X153147500Y-100087100D02*
X153630900Y-100570500D01*
X153630900Y-100570500D02*
X165037200Y-100570500D01*
X165037200Y-100570500D02*
X165350700Y-100257000D01*
X165350700Y-100257000D02*
X174531300Y-100257000D01*
X174531300Y-100257000D02*
X178435000Y-96353300D01*
X178435000Y-96353300D02*
X178435000Y-94171900D01*
X178435000Y-94171900D02*
X194678400Y-77928500D01*
X194678400Y-77928500D02*
X194678400Y-76795600D01*
X194678400Y-76795600D02*
X193829400Y-75946600D01*
X193829400Y-75946600D02*
X193012400Y-75946600D01*
X193012400Y-75946600D02*
X192190000Y-75124200D01*
X192190000Y-75124200D02*
X192190000Y-74230000D01*
X192190000Y-74230000D02*
X191494700Y-73534700D01*
X191494700Y-73534700D02*
X187823200Y-73534700D01*
X187823200Y-73534700D02*
X187015300Y-74342600D01*
X187015300Y-74342600D02*
X187015300Y-74710000D01*
X134542400Y-89856900D02*
X134542400Y-86105100D01*
X134542400Y-86105100D02*
X141278300Y-79369200D01*
X141278300Y-79369200D02*
X153161800Y-79369200D01*
X153161800Y-79369200D02*
X154123400Y-78407600D01*
X154123400Y-78407600D02*
X154123400Y-76758400D01*
X154123400Y-76758400D02*
X154807200Y-76074600D01*
X154807200Y-76074600D02*
X156535400Y-76074600D01*
X156535400Y-76074600D02*
X157900000Y-74710000D01*
X139700000Y-95505000D02*
X139700000Y-93802900D01*
X139700000Y-93802900D02*
X138437800Y-92540700D01*
X155360000Y-78425300D02*
X153965700Y-79819600D01*
X153965700Y-79819600D02*
X141464800Y-79819600D01*
X141464800Y-79819600D02*
X136161400Y-85123000D01*
X136161400Y-85123000D02*
X136161400Y-89697300D01*
X155360000Y-77250000D02*
X155360000Y-78425300D01*
X142240000Y-95505000D02*
X142240000Y-93074300D01*
X142240000Y-93074300D02*
X141706400Y-92540700D01*
X180510800Y-98651800D02*
X177107900Y-102054700D01*
X177107900Y-102054700D02*
X166542100Y-102054700D01*
X166542100Y-102054700D02*
X165804700Y-102792100D01*
X165804700Y-102792100D02*
X162983300Y-102792100D01*
X162983300Y-102792100D02*
X162192300Y-102001100D01*
X162192300Y-102001100D02*
X149975800Y-102001100D01*
X149975800Y-102001100D02*
X144780000Y-96805300D01*
X144780000Y-95505000D02*
X144780000Y-96805300D01*
X115469000Y-54053000D02*
X116794300Y-54053000D01*
X116794300Y-54053000D02*
X116794300Y-54301600D01*
X116794300Y-54301600D02*
X120714900Y-58222200D01*
X120714900Y-58222200D02*
X155104800Y-58222200D01*
X155104800Y-58222200D02*
X167015900Y-70133300D01*
X167015900Y-70133300D02*
X194438700Y-70133300D01*
X194438700Y-70133300D02*
X198169200Y-73863800D01*
X198169200Y-73863800D02*
X198169200Y-90489800D01*
X198169200Y-90489800D02*
X184785800Y-103873200D01*
X185399800Y-109827400D02*
X185399800Y-105502100D01*
X185399800Y-105502100D02*
X184785800Y-104888100D01*
X184785800Y-104888100D02*
X184785800Y-103873200D01*
X134594800Y-109334700D02*
X134594800Y-105509400D01*
X132059800Y-109827400D02*
X132059800Y-105502100D01*
X132059800Y-105502100D02*
X134587500Y-105502100D01*
X134587500Y-105502100D02*
X134594800Y-105509400D01*
X148935300Y-72150000D02*
X148935300Y-71782700D01*
X148935300Y-71782700D02*
X149750600Y-70967400D01*
X149750600Y-70967400D02*
X171545200Y-70967400D01*
X171545200Y-70967400D02*
X173749300Y-73171500D01*
X173749300Y-73171500D02*
X174364700Y-73171500D01*
X174364700Y-73171500D02*
X174487800Y-73048400D01*
X174487800Y-73048400D02*
X180808700Y-73048400D01*
X180808700Y-73048400D02*
X182124700Y-74364400D01*
X182124700Y-74364400D02*
X182124700Y-75266800D01*
X182124700Y-75266800D02*
X182932600Y-76074700D01*
X182932600Y-76074700D02*
X183300000Y-76074700D01*
X182220700Y-85551000D02*
X182220700Y-85842000D01*
X182220700Y-85842000D02*
X175622400Y-92440300D01*
X175622400Y-92440300D02*
X172576600Y-92440300D01*
X172576600Y-92440300D02*
X171631200Y-93385700D01*
X183300000Y-77250000D02*
X183300000Y-76074700D01*
X147760000Y-72150000D02*
X148935300Y-72150000D01*
X118195000Y-88900000D02*
X131110500Y-88900000D01*
X131110500Y-88900000D02*
X141120100Y-78890400D01*
X141120100Y-78890400D02*
X152743000Y-78890400D01*
X152743000Y-78890400D02*
X152918100Y-78715300D01*
X175680000Y-74710000D02*
X174315400Y-76074600D01*
X174315400Y-76074600D02*
X172626100Y-76074600D01*
X172626100Y-76074600D02*
X171775400Y-76925300D01*
X171775400Y-76925300D02*
X171775400Y-77776200D01*
X171775400Y-77776200D02*
X171057300Y-78494300D01*
X171057300Y-78494300D02*
X169018600Y-78494300D01*
X152820000Y-77250000D02*
X151644700Y-77250000D01*
X118195000Y-87630000D02*
X119948500Y-87630000D01*
X119948500Y-87630000D02*
X129153200Y-78425300D01*
X129153200Y-78425300D02*
X150836800Y-78425300D01*
X150836800Y-78425300D02*
X151644700Y-77617400D01*
X151644700Y-77617400D02*
X151644700Y-77250000D01*
X170406900Y-89523000D02*
X169556400Y-88672500D01*
X169556400Y-88672500D02*
X169232500Y-88672500D01*
X169232500Y-88672500D02*
X166699200Y-86139200D01*
X166699200Y-86139200D02*
X166699200Y-85848000D01*
X166699200Y-85848000D02*
X165522100Y-84670900D01*
X165522100Y-84670900D02*
X152451500Y-84670900D01*
X152451500Y-84670900D02*
X150049900Y-82269300D01*
X120269000Y-55753000D02*
X121594300Y-55753000D01*
X121594300Y-55753000D02*
X121594300Y-56442300D01*
X121594300Y-56442300D02*
X121207000Y-56829600D01*
X121207000Y-56829600D02*
X120974500Y-56829600D01*
X118943700Y-54053000D02*
X118765900Y-54053000D01*
X120269000Y-54053000D02*
X118943700Y-54053000D01*
X120269000Y-52353000D02*
X121594300Y-52353000D01*
X121594300Y-52353000D02*
X121594300Y-51660600D01*
X121594300Y-51660600D02*
X121219700Y-51286000D01*
X121219700Y-51286000D02*
X120844900Y-51286000D01*
X116794300Y-52353000D02*
X116794300Y-52781800D01*
X116794300Y-52781800D02*
X116976100Y-52963600D01*
X115469000Y-52353000D02*
X116794300Y-52353000D01*
X127599200Y-73353300D02*
X150798900Y-73353300D01*
X150798900Y-73353300D02*
X151173200Y-72979000D01*
X151173200Y-72979000D02*
X168061000Y-72979000D01*
X168061000Y-72979000D02*
X169424700Y-74342700D01*
X169424700Y-74342700D02*
X169424700Y-74710000D01*
X170600000Y-74710000D02*
X169424700Y-74710000D01*
X127599200Y-73353300D02*
X126618000Y-74334500D01*
X126618000Y-74334500D02*
X126618000Y-75296100D01*
X116794300Y-55753000D02*
X127599200Y-66557900D01*
X127599200Y-66557900D02*
X127599200Y-73353300D01*
X115469000Y-55753000D02*
X116794300Y-55753000D01*
X118195000Y-86360000D02*
X118422200Y-86360000D01*
X118422200Y-86360000D02*
X130072200Y-74710000D01*
X130072200Y-74710000D02*
X146564700Y-74710000D01*
X147740000Y-74710000D02*
X146564700Y-74710000D01*
X138430000Y-86105000D02*
X138430000Y-90223800D01*
X138430000Y-90223800D02*
X137160000Y-91493800D01*
X137160000Y-91493800D02*
X137160000Y-94204700D01*
X168910000Y-94326000D02*
X170400900Y-92835100D01*
X170400900Y-92835100D02*
X171163700Y-92835100D01*
X171163700Y-92835100D02*
X172049300Y-91949500D01*
X172049300Y-91949500D02*
X174923300Y-91949500D01*
X174923300Y-91949500D02*
X177177700Y-89695100D01*
X167324600Y-85293300D02*
X165972200Y-83940900D01*
X165972200Y-83940900D02*
X152561900Y-83940900D01*
X152561900Y-83940900D02*
X150713400Y-82092400D01*
X150713400Y-82092400D02*
X150713400Y-81971800D01*
X150713400Y-81971800D02*
X150351900Y-81610300D01*
X150351900Y-81610300D02*
X142231400Y-81610300D01*
X142231400Y-81610300D02*
X138430000Y-85411700D01*
X138430000Y-85411700D02*
X138430000Y-86105000D01*
X170180000Y-85950000D02*
X170180000Y-86431700D01*
X170180000Y-86431700D02*
X169286700Y-87325000D01*
X169286700Y-87325000D02*
X168521900Y-87325000D01*
X168521900Y-87325000D02*
X167324600Y-86127700D01*
X167324600Y-86127700D02*
X167324600Y-85293300D01*
X168910000Y-94326000D02*
X168377700Y-93793700D01*
X168910000Y-95250000D02*
X168910000Y-94326000D01*
X137160000Y-95505000D02*
X137160000Y-94204700D01*
X171207300Y-89523000D02*
X171207300Y-89607000D01*
X171207300Y-89607000D02*
X170449900Y-90364400D01*
X170449900Y-90364400D02*
X169347500Y-90364400D01*
X169347500Y-90364400D02*
X168407900Y-89424800D01*
X168407900Y-89424800D02*
X157093600Y-89424800D01*
X157093600Y-89424800D02*
X156617900Y-89900500D01*
X156617900Y-89900500D02*
X147275200Y-89900500D01*
X147275200Y-89900500D02*
X144780000Y-87405300D01*
X144780000Y-86105000D02*
X144780000Y-87405300D01*
X167506800Y-90056500D02*
X167180600Y-90382700D01*
X167180600Y-90382700D02*
X145217400Y-90382700D01*
X145217400Y-90382700D02*
X142240000Y-87405300D01*
X142240000Y-86105000D02*
X142240000Y-87405300D01*
X148999200Y-82302400D02*
X151818100Y-85121300D01*
X151818100Y-85121300D02*
X165312500Y-85121300D01*
X165312500Y-85121300D02*
X165678700Y-85487500D01*
X165678700Y-85487500D02*
X165678700Y-85811300D01*
X165678700Y-85811300D02*
X169606500Y-89739100D01*
X108595200Y-88867000D02*
X109286500Y-88867000D01*
X114588200Y-92363200D02*
X114588200Y-94168700D01*
X113665000Y-91440000D02*
X114588200Y-92363200D01*
X109220000Y-91440000D02*
X113665000Y-91440000D01*
X108595160Y-90815160D02*
X109220000Y-91440000D01*
X108595160Y-88866980D02*
X108595160Y-90815160D01*
X112945000Y-88900000D02*
X112643700Y-88900000D01*
X112683800Y-86360000D02*
X112945000Y-86360000D01*
X109220000Y-87630000D02*
X110490000Y-86360000D01*
X109220000Y-87630000D02*
X108585000Y-87630000D01*
X110490000Y-86360000D02*
X112945000Y-86360000D01*
X112120000Y-88900000D02*
X112945000Y-88900000D01*
X110562106Y-88900000D02*
X112120000Y-88900000D01*
X109292106Y-87630000D02*
X110562106Y-88900000D01*
X108585000Y-87630000D02*
X109292106Y-87630000D01*
D23*
G36*
X197409201Y-90174997D02*
G01*
X188700640Y-98883559D01*
X188700640Y-98564835D01*
X188570864Y-97912405D01*
X188316299Y-97297831D01*
X187946727Y-96744728D01*
X187476352Y-96274353D01*
X186923249Y-95904781D01*
X186308675Y-95650216D01*
X185656245Y-95520440D01*
X184991035Y-95520440D01*
X184338605Y-95650216D01*
X183724031Y-95904781D01*
X183170928Y-96274353D01*
X182700553Y-96744728D01*
X182330981Y-97297831D01*
X182076416Y-97912405D01*
X181946640Y-98564835D01*
X181946640Y-99230045D01*
X182076416Y-99882475D01*
X182330981Y-100497049D01*
X182700553Y-101050152D01*
X183170928Y-101520527D01*
X183724031Y-101890099D01*
X184338605Y-102144664D01*
X184991035Y-102274440D01*
X185309759Y-102274440D01*
X184634152Y-102950047D01*
X184513071Y-102974132D01*
X184342911Y-103044614D01*
X184189772Y-103146938D01*
X184059538Y-103277172D01*
X183957214Y-103430311D01*
X183886732Y-103600471D01*
X183850800Y-103781111D01*
X183850800Y-103965289D01*
X183886732Y-104145929D01*
X183957214Y-104316089D01*
X184025800Y-104418736D01*
X184025800Y-104850777D01*
X184022124Y-104888100D01*
X184025800Y-104925422D01*
X184025800Y-104925432D01*
X184036797Y-105037085D01*
X184076068Y-105166546D01*
X184080254Y-105180346D01*
X184143406Y-105298495D01*
X184129840Y-105309628D01*
X184114334Y-105296903D01*
X184004020Y-105237938D01*
X183884322Y-105201628D01*
X183759840Y-105189368D01*
X181959840Y-105189368D01*
X181835358Y-105201628D01*
X181715660Y-105237938D01*
X181605346Y-105296903D01*
X181589840Y-105309628D01*
X181574334Y-105296903D01*
X181464020Y-105237938D01*
X181344322Y-105201628D01*
X181219840Y-105189368D01*
X181014396Y-105189368D01*
X180954774Y-105077823D01*
X180883599Y-104991097D01*
X180883598Y-104991096D01*
X180859801Y-104962099D01*
X180830803Y-104938301D01*
X178064951Y-102172450D01*
X180662449Y-99574953D01*
X180783529Y-99550868D01*
X180953689Y-99480386D01*
X181106828Y-99378062D01*
X181237062Y-99247828D01*
X181339386Y-99094689D01*
X181409868Y-98924529D01*
X181445800Y-98743889D01*
X181445800Y-98559711D01*
X181409868Y-98379071D01*
X181339386Y-98208911D01*
X181237062Y-98055772D01*
X181106828Y-97925538D01*
X180953689Y-97823214D01*
X180783529Y-97752732D01*
X180602889Y-97716800D01*
X180418711Y-97716800D01*
X180238071Y-97752732D01*
X180067911Y-97823214D01*
X179914772Y-97925538D01*
X179784538Y-98055772D01*
X179682214Y-98208911D01*
X179611732Y-98379071D01*
X179587647Y-98500151D01*
X176793099Y-101294700D01*
X166579422Y-101294700D01*
X166542099Y-101291024D01*
X166504776Y-101294700D01*
X166504767Y-101294700D01*
X166393114Y-101305697D01*
X166249853Y-101349154D01*
X166117823Y-101419726D01*
X166034183Y-101488368D01*
X166002099Y-101514699D01*
X165978301Y-101543698D01*
X165489899Y-102032100D01*
X164168824Y-102032100D01*
X164141368Y-101894071D01*
X164070886Y-101723911D01*
X163968562Y-101570772D01*
X163838328Y-101440538D01*
X163685189Y-101338214D01*
X163666566Y-101330500D01*
X164999878Y-101330500D01*
X165037200Y-101334176D01*
X165074522Y-101330500D01*
X165074533Y-101330500D01*
X165186186Y-101319503D01*
X165329447Y-101276046D01*
X165461476Y-101205474D01*
X165577201Y-101110501D01*
X165601004Y-101081497D01*
X165665501Y-101017000D01*
X174493978Y-101017000D01*
X174531300Y-101020676D01*
X174568622Y-101017000D01*
X174568633Y-101017000D01*
X174680286Y-101006003D01*
X174823547Y-100962546D01*
X174955576Y-100891974D01*
X175071301Y-100797001D01*
X175095104Y-100767997D01*
X178946009Y-96917094D01*
X178950910Y-96913072D01*
X179220000Y-96913072D01*
X179373745Y-96897929D01*
X179521582Y-96853084D01*
X179655936Y-96781270D01*
X179685506Y-96805537D01*
X179795820Y-96864502D01*
X179915518Y-96900812D01*
X180040000Y-96913072D01*
X180054250Y-96910000D01*
X180213000Y-96751250D01*
X180213000Y-95377000D01*
X180467000Y-95377000D01*
X180467000Y-96751250D01*
X180625750Y-96910000D01*
X180640000Y-96913072D01*
X180764482Y-96900812D01*
X180884180Y-96864502D01*
X180994494Y-96805537D01*
X181091185Y-96726185D01*
X181170537Y-96629494D01*
X181229502Y-96519180D01*
X181265812Y-96399482D01*
X181278072Y-96275000D01*
X181275000Y-95535750D01*
X181116250Y-95377000D01*
X180467000Y-95377000D01*
X180213000Y-95377000D01*
X180193000Y-95377000D01*
X180193000Y-95123000D01*
X180213000Y-95123000D01*
X180213000Y-95103000D01*
X180467000Y-95103000D01*
X180467000Y-95123000D01*
X181116250Y-95123000D01*
X181275000Y-94964250D01*
X181278072Y-94225000D01*
X181265812Y-94100518D01*
X181229502Y-93980820D01*
X181170537Y-93870506D01*
X181136531Y-93829070D01*
X195660002Y-79305600D01*
X196835178Y-79305600D01*
X196872500Y-79309276D01*
X196909822Y-79305600D01*
X196909833Y-79305600D01*
X197021486Y-79294603D01*
X197164747Y-79251146D01*
X197296776Y-79180574D01*
X197409200Y-79088310D01*
X197409201Y-90174997D01*
G37*
X197409201Y-90174997D02*
X188700640Y-98883559D01*
X188700640Y-98564835D01*
X188570864Y-97912405D01*
X188316299Y-97297831D01*
X187946727Y-96744728D01*
X187476352Y-96274353D01*
X186923249Y-95904781D01*
X186308675Y-95650216D01*
X185656245Y-95520440D01*
X184991035Y-95520440D01*
X184338605Y-95650216D01*
X183724031Y-95904781D01*
X183170928Y-96274353D01*
X182700553Y-96744728D01*
X182330981Y-97297831D01*
X182076416Y-97912405D01*
X181946640Y-98564835D01*
X181946640Y-99230045D01*
X182076416Y-99882475D01*
X182330981Y-100497049D01*
X182700553Y-101050152D01*
X183170928Y-101520527D01*
X183724031Y-101890099D01*
X184338605Y-102144664D01*
X184991035Y-102274440D01*
X185309759Y-102274440D01*
X184634152Y-102950047D01*
X184513071Y-102974132D01*
X184342911Y-103044614D01*
X184189772Y-103146938D01*
X184059538Y-103277172D01*
X183957214Y-103430311D01*
X183886732Y-103600471D01*
X183850800Y-103781111D01*
X183850800Y-103965289D01*
X183886732Y-104145929D01*
X183957214Y-104316089D01*
X184025800Y-104418736D01*
X184025800Y-104850777D01*
X184022124Y-104888100D01*
X184025800Y-104925422D01*
X184025800Y-104925432D01*
X184036797Y-105037085D01*
X184076068Y-105166546D01*
X184080254Y-105180346D01*
X184143406Y-105298495D01*
X184129840Y-105309628D01*
X184114334Y-105296903D01*
X184004020Y-105237938D01*
X183884322Y-105201628D01*
X183759840Y-105189368D01*
X181959840Y-105189368D01*
X181835358Y-105201628D01*
X181715660Y-105237938D01*
X181605346Y-105296903D01*
X181589840Y-105309628D01*
X181574334Y-105296903D01*
X181464020Y-105237938D01*
X181344322Y-105201628D01*
X181219840Y-105189368D01*
X181014396Y-105189368D01*
X180954774Y-105077823D01*
X180883599Y-104991097D01*
X180883598Y-104991096D01*
X180859801Y-104962099D01*
X180830803Y-104938301D01*
X178064951Y-102172450D01*
X180662449Y-99574953D01*
X180783529Y-99550868D01*
X180953689Y-99480386D01*
X181106828Y-99378062D01*
X181237062Y-99247828D01*
X181339386Y-99094689D01*
X181409868Y-98924529D01*
X181445800Y-98743889D01*
X181445800Y-98559711D01*
X181409868Y-98379071D01*
X181339386Y-98208911D01*
X181237062Y-98055772D01*
X181106828Y-97925538D01*
X180953689Y-97823214D01*
X180783529Y-97752732D01*
X180602889Y-97716800D01*
X180418711Y-97716800D01*
X180238071Y-97752732D01*
X180067911Y-97823214D01*
X179914772Y-97925538D01*
X179784538Y-98055772D01*
X179682214Y-98208911D01*
X179611732Y-98379071D01*
X179587647Y-98500151D01*
X176793099Y-101294700D01*
X166579422Y-101294700D01*
X166542099Y-101291024D01*
X166504776Y-101294700D01*
X166504767Y-101294700D01*
X166393114Y-101305697D01*
X166249853Y-101349154D01*
X166117823Y-101419726D01*
X166034183Y-101488368D01*
X166002099Y-101514699D01*
X165978301Y-101543698D01*
X165489899Y-102032100D01*
X164168824Y-102032100D01*
X164141368Y-101894071D01*
X164070886Y-101723911D01*
X163968562Y-101570772D01*
X163838328Y-101440538D01*
X163685189Y-101338214D01*
X163666566Y-101330500D01*
X164999878Y-101330500D01*
X165037200Y-101334176D01*
X165074522Y-101330500D01*
X165074533Y-101330500D01*
X165186186Y-101319503D01*
X165329447Y-101276046D01*
X165461476Y-101205474D01*
X165577201Y-101110501D01*
X165601004Y-101081497D01*
X165665501Y-101017000D01*
X174493978Y-101017000D01*
X174531300Y-101020676D01*
X174568622Y-101017000D01*
X174568633Y-101017000D01*
X174680286Y-101006003D01*
X174823547Y-100962546D01*
X174955576Y-100891974D01*
X175071301Y-100797001D01*
X175095104Y-100767997D01*
X178946009Y-96917094D01*
X178950910Y-96913072D01*
X179220000Y-96913072D01*
X179373745Y-96897929D01*
X179521582Y-96853084D01*
X179655936Y-96781270D01*
X179685506Y-96805537D01*
X179795820Y-96864502D01*
X179915518Y-96900812D01*
X180040000Y-96913072D01*
X180054250Y-96910000D01*
X180213000Y-96751250D01*
X180213000Y-95377000D01*
X180467000Y-95377000D01*
X180467000Y-96751250D01*
X180625750Y-96910000D01*
X180640000Y-96913072D01*
X180764482Y-96900812D01*
X180884180Y-96864502D01*
X180994494Y-96805537D01*
X181091185Y-96726185D01*
X181170537Y-96629494D01*
X181229502Y-96519180D01*
X181265812Y-96399482D01*
X181278072Y-96275000D01*
X181275000Y-95535750D01*
X181116250Y-95377000D01*
X180467000Y-95377000D01*
X180213000Y-95377000D01*
X180193000Y-95377000D01*
X180193000Y-95123000D01*
X180213000Y-95123000D01*
X180213000Y-95103000D01*
X180467000Y-95103000D01*
X180467000Y-95123000D01*
X181116250Y-95123000D01*
X181275000Y-94964250D01*
X181278072Y-94225000D01*
X181265812Y-94100518D01*
X181229502Y-93980820D01*
X181170537Y-93870506D01*
X181136531Y-93829070D01*
X195660002Y-79305600D01*
X196835178Y-79305600D01*
X196872500Y-79309276D01*
X196909822Y-79305600D01*
X196909833Y-79305600D01*
X197021486Y-79294603D01*
X197164747Y-79251146D01*
X197296776Y-79180574D01*
X197409200Y-79088310D01*
X197409201Y-90174997D01*
G36*
X148717000Y-95378000D02*
G01*
X148737000Y-95378000D01*
X148737000Y-95632000D01*
X148717000Y-95632000D01*
X148717000Y-96956250D01*
X148875750Y-97115000D01*
X148890000Y-97118072D01*
X149014482Y-97105812D01*
X149134180Y-97069502D01*
X149244494Y-97010537D01*
X149341185Y-96931185D01*
X149420537Y-96834494D01*
X149479502Y-96724180D01*
X149515812Y-96604482D01*
X149528072Y-96480000D01*
X149525000Y-95790750D01*
X149366252Y-95632002D01*
X149440501Y-95632002D01*
X152387500Y-98579002D01*
X152387501Y-100049768D01*
X152383824Y-100087100D01*
X152398498Y-100236085D01*
X152441954Y-100379346D01*
X152512526Y-100511376D01*
X152583701Y-100598102D01*
X152607500Y-100627101D01*
X152636498Y-100650899D01*
X152776399Y-100790800D01*
X151110303Y-100790800D01*
X147437573Y-97118072D01*
X147620000Y-97118072D01*
X147744482Y-97105812D01*
X147864180Y-97069502D01*
X147955000Y-97020957D01*
X148045820Y-97069502D01*
X148165518Y-97105812D01*
X148290000Y-97118072D01*
X148304250Y-97115000D01*
X148463000Y-96956250D01*
X148463000Y-95632000D01*
X148443000Y-95632000D01*
X148443000Y-95378000D01*
X148463000Y-95378000D01*
X148463000Y-95358000D01*
X148717000Y-95358000D01*
X148717000Y-95378000D01*
G37*
X148717000Y-95378000D02*
X148737000Y-95378000D01*
X148737000Y-95632000D01*
X148717000Y-95632000D01*
X148717000Y-96956250D01*
X148875750Y-97115000D01*
X148890000Y-97118072D01*
X149014482Y-97105812D01*
X149134180Y-97069502D01*
X149244494Y-97010537D01*
X149341185Y-96931185D01*
X149420537Y-96834494D01*
X149479502Y-96724180D01*
X149515812Y-96604482D01*
X149528072Y-96480000D01*
X149525000Y-95790750D01*
X149366252Y-95632002D01*
X149440501Y-95632002D01*
X152387500Y-98579002D01*
X152387501Y-100049768D01*
X152383824Y-100087100D01*
X152398498Y-100236085D01*
X152441954Y-100379346D01*
X152512526Y-100511376D01*
X152583701Y-100598102D01*
X152607500Y-100627101D01*
X152636498Y-100650899D01*
X152776399Y-100790800D01*
X151110303Y-100790800D01*
X147437573Y-97118072D01*
X147620000Y-97118072D01*
X147744482Y-97105812D01*
X147864180Y-97069502D01*
X147955000Y-97020957D01*
X148045820Y-97069502D01*
X148165518Y-97105812D01*
X148290000Y-97118072D01*
X148304250Y-97115000D01*
X148463000Y-96956250D01*
X148463000Y-95632000D01*
X148443000Y-95632000D01*
X148443000Y-95378000D01*
X148463000Y-95378000D01*
X148463000Y-95358000D01*
X148717000Y-95358000D01*
X148717000Y-95378000D01*
G36*
X141217052Y-89051953D02*
G01*
X146041905Y-93876808D01*
X146054314Y-93891928D01*
X145750000Y-93891928D01*
X145625518Y-93904188D01*
X145505820Y-93940498D01*
X145415000Y-93989043D01*
X145324180Y-93940498D01*
X145204482Y-93904188D01*
X145080000Y-93891928D01*
X144480000Y-93891928D01*
X144355518Y-93904188D01*
X144235820Y-93940498D01*
X144145000Y-93989043D01*
X144054180Y-93940498D01*
X143934482Y-93904188D01*
X143810000Y-93891928D01*
X143210000Y-93891928D01*
X143085518Y-93904188D01*
X143000000Y-93930130D01*
X143000000Y-93111622D01*
X143003676Y-93074299D01*
X143000000Y-93036976D01*
X143000000Y-93036967D01*
X142989003Y-92925314D01*
X142945546Y-92782053D01*
X142874974Y-92650024D01*
X142780001Y-92534299D01*
X142751002Y-92510500D01*
X142629553Y-92389051D01*
X142605468Y-92267971D01*
X142534986Y-92097811D01*
X142432662Y-91944672D01*
X142302428Y-91814438D01*
X142149289Y-91712114D01*
X141979129Y-91641632D01*
X141798489Y-91605700D01*
X141614311Y-91605700D01*
X141433671Y-91641632D01*
X141263511Y-91712114D01*
X141110372Y-91814438D01*
X140980138Y-91944672D01*
X140877814Y-92097811D01*
X140807332Y-92267971D01*
X140771400Y-92448611D01*
X140771400Y-92632789D01*
X140807332Y-92813429D01*
X140877814Y-92983589D01*
X140980138Y-93136728D01*
X141110372Y-93266962D01*
X141263511Y-93369286D01*
X141433671Y-93439768D01*
X141480001Y-93448984D01*
X141480001Y-93930130D01*
X141394482Y-93904188D01*
X141270000Y-93891928D01*
X140670000Y-93891928D01*
X140545518Y-93904188D01*
X140460000Y-93930130D01*
X140460000Y-93840222D01*
X140463676Y-93802899D01*
X140460000Y-93765576D01*
X140460000Y-93765567D01*
X140449003Y-93653914D01*
X140405546Y-93510653D01*
X140334974Y-93378624D01*
X140240001Y-93262899D01*
X140211003Y-93239101D01*
X139360953Y-92389051D01*
X139336868Y-92267971D01*
X139266386Y-92097811D01*
X139164062Y-91944672D01*
X139033828Y-91814438D01*
X138885244Y-91715158D01*
X140848009Y-89752394D01*
X140877001Y-89728601D01*
X140900795Y-89699608D01*
X140900799Y-89699604D01*
X140971973Y-89612877D01*
X140971974Y-89612876D01*
X141042546Y-89480847D01*
X141086003Y-89337586D01*
X141097000Y-89225933D01*
X141097000Y-89225924D01*
X141100676Y-89188601D01*
X141097000Y-89151278D01*
X141097000Y-89028073D01*
X141217052Y-89051953D01*
G37*
X141217052Y-89051953D02*
X146041905Y-93876808D01*
X146054314Y-93891928D01*
X145750000Y-93891928D01*
X145625518Y-93904188D01*
X145505820Y-93940498D01*
X145415000Y-93989043D01*
X145324180Y-93940498D01*
X145204482Y-93904188D01*
X145080000Y-93891928D01*
X144480000Y-93891928D01*
X144355518Y-93904188D01*
X144235820Y-93940498D01*
X144145000Y-93989043D01*
X144054180Y-93940498D01*
X143934482Y-93904188D01*
X143810000Y-93891928D01*
X143210000Y-93891928D01*
X143085518Y-93904188D01*
X143000000Y-93930130D01*
X143000000Y-93111622D01*
X143003676Y-93074299D01*
X143000000Y-93036976D01*
X143000000Y-93036967D01*
X142989003Y-92925314D01*
X142945546Y-92782053D01*
X142874974Y-92650024D01*
X142780001Y-92534299D01*
X142751002Y-92510500D01*
X142629553Y-92389051D01*
X142605468Y-92267971D01*
X142534986Y-92097811D01*
X142432662Y-91944672D01*
X142302428Y-91814438D01*
X142149289Y-91712114D01*
X141979129Y-91641632D01*
X141798489Y-91605700D01*
X141614311Y-91605700D01*
X141433671Y-91641632D01*
X141263511Y-91712114D01*
X141110372Y-91814438D01*
X140980138Y-91944672D01*
X140877814Y-92097811D01*
X140807332Y-92267971D01*
X140771400Y-92448611D01*
X140771400Y-92632789D01*
X140807332Y-92813429D01*
X140877814Y-92983589D01*
X140980138Y-93136728D01*
X141110372Y-93266962D01*
X141263511Y-93369286D01*
X141433671Y-93439768D01*
X141480001Y-93448984D01*
X141480001Y-93930130D01*
X141394482Y-93904188D01*
X141270000Y-93891928D01*
X140670000Y-93891928D01*
X140545518Y-93904188D01*
X140460000Y-93930130D01*
X140460000Y-93840222D01*
X140463676Y-93802899D01*
X140460000Y-93765576D01*
X140460000Y-93765567D01*
X140449003Y-93653914D01*
X140405546Y-93510653D01*
X140334974Y-93378624D01*
X140240001Y-93262899D01*
X140211003Y-93239101D01*
X139360953Y-92389051D01*
X139336868Y-92267971D01*
X139266386Y-92097811D01*
X139164062Y-91944672D01*
X139033828Y-91814438D01*
X138885244Y-91715158D01*
X140848009Y-89752394D01*
X140877001Y-89728601D01*
X140900795Y-89699608D01*
X140900799Y-89699604D01*
X140971973Y-89612877D01*
X140971974Y-89612876D01*
X141042546Y-89480847D01*
X141086003Y-89337586D01*
X141097000Y-89225933D01*
X141097000Y-89225924D01*
X141100676Y-89188601D01*
X141097000Y-89151278D01*
X141097000Y-89028073D01*
X141217052Y-89051953D01*
G36*
X120572171Y-50386932D02*
G01*
X120402011Y-50457414D01*
X120248872Y-50559738D01*
X120118638Y-50689972D01*
X120016314Y-50843111D01*
X119945832Y-51013271D01*
X119915665Y-51164928D01*
X119269000Y-51164928D01*
X119144518Y-51177188D01*
X119024820Y-51213498D01*
X118914506Y-51272463D01*
X118817815Y-51351815D01*
X118738463Y-51448506D01*
X118679498Y-51558820D01*
X118643188Y-51678518D01*
X118630928Y-51803000D01*
X118630928Y-52903000D01*
X118643188Y-53027482D01*
X118670826Y-53118594D01*
X118493171Y-53153932D01*
X118323011Y-53224414D01*
X118169872Y-53326738D01*
X118039638Y-53456972D01*
X117937314Y-53610111D01*
X117866832Y-53780271D01*
X117830900Y-53960911D01*
X117830900Y-54145089D01*
X117860277Y-54292776D01*
X117551146Y-53983645D01*
X117543303Y-53904014D01*
X117499846Y-53760753D01*
X117490947Y-53744105D01*
X117572128Y-53689862D01*
X117702362Y-53559628D01*
X117804686Y-53406489D01*
X117875168Y-53236329D01*
X117911100Y-53055689D01*
X117911100Y-52871511D01*
X117875168Y-52690871D01*
X117804686Y-52520711D01*
X117702362Y-52367572D01*
X117572128Y-52237338D01*
X117544786Y-52219069D01*
X117543303Y-52204014D01*
X117499846Y-52060753D01*
X117429274Y-51928724D01*
X117334301Y-51812999D01*
X117218576Y-51718026D01*
X117086547Y-51647454D01*
X117085271Y-51647067D01*
X117058502Y-51558820D01*
X116999537Y-51448506D01*
X116920185Y-51351815D01*
X116823494Y-51272463D01*
X116713180Y-51213498D01*
X116593482Y-51177188D01*
X116469000Y-51164928D01*
X114469000Y-51164928D01*
X114344518Y-51177188D01*
X114224820Y-51213498D01*
X114114506Y-51272463D01*
X114017815Y-51351815D01*
X113938463Y-51448506D01*
X113879498Y-51558820D01*
X113843188Y-51678518D01*
X113830928Y-51803000D01*
X113830928Y-52903000D01*
X113843188Y-53027482D01*
X113879498Y-53147180D01*
X113909335Y-53203000D01*
X113879498Y-53258820D01*
X113843188Y-53378518D01*
X113830928Y-53503000D01*
X113830928Y-54603000D01*
X113843188Y-54727482D01*
X113879498Y-54847180D01*
X113909335Y-54903000D01*
X113879498Y-54958820D01*
X113843188Y-55078518D01*
X113830928Y-55203000D01*
X113830928Y-56303000D01*
X113843188Y-56427482D01*
X113879498Y-56547180D01*
X113938463Y-56657494D01*
X114017815Y-56754185D01*
X114114506Y-56833537D01*
X114224820Y-56892502D01*
X114344518Y-56928812D01*
X114469000Y-56941072D01*
X116469000Y-56941072D01*
X116593482Y-56928812D01*
X116713180Y-56892502D01*
X116808207Y-56841708D01*
X126839200Y-66872702D01*
X126839201Y-73038497D01*
X126107002Y-73770696D01*
X126077999Y-73794499D01*
X126047553Y-73831598D01*
X125983026Y-73910224D01*
X125926298Y-74016354D01*
X125912454Y-74042254D01*
X125868997Y-74185515D01*
X125858000Y-74297168D01*
X125858000Y-74297178D01*
X125854324Y-74334500D01*
X125858000Y-74371823D01*
X125858000Y-74750564D01*
X125789414Y-74853211D01*
X125718932Y-75023371D01*
X125683000Y-75204011D01*
X125683000Y-75388189D01*
X125718932Y-75568829D01*
X125789414Y-75738989D01*
X125891738Y-75892128D01*
X126021972Y-76022362D01*
X126175111Y-76124686D01*
X126345271Y-76195168D01*
X126525911Y-76231100D01*
X126710089Y-76231100D01*
X126890729Y-76195168D01*
X127060889Y-76124686D01*
X127214028Y-76022362D01*
X127344262Y-75892128D01*
X127446586Y-75738989D01*
X127517068Y-75568829D01*
X127553000Y-75388189D01*
X127553000Y-75204011D01*
X127517068Y-75023371D01*
X127446586Y-74853211D01*
X127378000Y-74750565D01*
X127378000Y-74649301D01*
X127914002Y-74113300D01*
X129601287Y-74113300D01*
X129564283Y-74143668D01*
X129532199Y-74169999D01*
X129508401Y-74198997D01*
X119414832Y-84292567D01*
X119374494Y-84259463D01*
X119264180Y-84200498D01*
X119144482Y-84164188D01*
X119020000Y-84151928D01*
X118480750Y-84155000D01*
X118322000Y-84313750D01*
X118322000Y-84963000D01*
X118342000Y-84963000D01*
X118342000Y-85217000D01*
X118322000Y-85217000D01*
X118322000Y-85237000D01*
X118068000Y-85237000D01*
X118068000Y-85217000D01*
X116893750Y-85217000D01*
X116735000Y-85375750D01*
X116731928Y-85390000D01*
X116744188Y-85514482D01*
X116780498Y-85634180D01*
X116839463Y-85744494D01*
X116863730Y-85774064D01*
X116791916Y-85908418D01*
X116747071Y-86056255D01*
X116731928Y-86210000D01*
X116731928Y-86510000D01*
X116747071Y-86663745D01*
X116791916Y-86811582D01*
X116864742Y-86947829D01*
X116903454Y-86995000D01*
X116864742Y-87042171D01*
X116791916Y-87178418D01*
X116747071Y-87326255D01*
X116731928Y-87480000D01*
X116731928Y-87780000D01*
X116747071Y-87933745D01*
X116752220Y-87950718D01*
X115470200Y-86668699D01*
X115470200Y-86612122D01*
X115473876Y-86574799D01*
X115470200Y-86537476D01*
X115470200Y-86537468D01*
X115459203Y-86425814D01*
X115415746Y-86282553D01*
X115345174Y-86150524D01*
X115250201Y-86034799D01*
X115221203Y-86011001D01*
X114408072Y-85197871D01*
X114408072Y-84940000D01*
X114393298Y-84790000D01*
X116731928Y-84790000D01*
X116735000Y-84804250D01*
X116893750Y-84963000D01*
X118068000Y-84963000D01*
X118068000Y-84313750D01*
X117909250Y-84155000D01*
X117370000Y-84151928D01*
X117245518Y-84164188D01*
X117125820Y-84200498D01*
X117015506Y-84259463D01*
X116918815Y-84338815D01*
X116839463Y-84435506D01*
X116780498Y-84545820D01*
X116744188Y-84665518D01*
X116731928Y-84790000D01*
X114393298Y-84790000D01*
X114392929Y-84786255D01*
X114348084Y-84638418D01*
X114275258Y-84502171D01*
X114177251Y-84382749D01*
X114057829Y-84284742D01*
X113921582Y-84211916D01*
X113773745Y-84167071D01*
X113620000Y-84151928D01*
X113081730Y-84151928D01*
X107915700Y-78985899D01*
X107915700Y-61809262D01*
X107974109Y-61829981D01*
X108204000Y-61709314D01*
X108204000Y-60515500D01*
X108458000Y-60515500D01*
X108458000Y-61709314D01*
X108687891Y-61829981D01*
X108962252Y-61732657D01*
X109212355Y-61583678D01*
X109428588Y-61388769D01*
X109602641Y-61155420D01*
X109727825Y-60892599D01*
X109772476Y-60745390D01*
X109651155Y-60515500D01*
X108458000Y-60515500D01*
X108204000Y-60515500D01*
X108184000Y-60515500D01*
X108184000Y-60261500D01*
X108204000Y-60261500D01*
X108204000Y-60241500D01*
X108458000Y-60241500D01*
X108458000Y-60261500D01*
X109651155Y-60261500D01*
X109772476Y-60031610D01*
X109727825Y-59884401D01*
X109602641Y-59621580D01*
X109428588Y-59388231D01*
X109212355Y-59193322D01*
X109095466Y-59123695D01*
X109277632Y-59001975D01*
X109484475Y-58795132D01*
X109646990Y-58551911D01*
X109758932Y-58281658D01*
X109816000Y-57994760D01*
X109816000Y-57702240D01*
X109758932Y-57415342D01*
X109646990Y-57145089D01*
X109484475Y-56901868D01*
X109277632Y-56695025D01*
X109103240Y-56578500D01*
X109277632Y-56461975D01*
X109484475Y-56255132D01*
X109646990Y-56011911D01*
X109758932Y-55741658D01*
X109816000Y-55454760D01*
X109816000Y-55162240D01*
X109758932Y-54875342D01*
X109646990Y-54605089D01*
X109484475Y-54361868D01*
X109352620Y-54230013D01*
X109425180Y-54208002D01*
X109535494Y-54149037D01*
X109632185Y-54069685D01*
X109711537Y-53972994D01*
X109770502Y-53862680D01*
X109806812Y-53742982D01*
X109819072Y-53618500D01*
X109819072Y-51918500D01*
X109806812Y-51794018D01*
X109770502Y-51674320D01*
X109711537Y-51564006D01*
X109632185Y-51467315D01*
X109535494Y-51387963D01*
X109425180Y-51328998D01*
X109305482Y-51292688D01*
X109181000Y-51280428D01*
X107481000Y-51280428D01*
X107356518Y-51292688D01*
X107236820Y-51328998D01*
X107126506Y-51387963D01*
X107029815Y-51467315D01*
X106950463Y-51564006D01*
X106891498Y-51674320D01*
X106855188Y-51794018D01*
X106842928Y-51918500D01*
X106842928Y-53618500D01*
X106855188Y-53742982D01*
X106891498Y-53862680D01*
X106950463Y-53972994D01*
X107029815Y-54069685D01*
X107126506Y-54149037D01*
X107236820Y-54208002D01*
X107309380Y-54230013D01*
X107177525Y-54361868D01*
X107015010Y-54605089D01*
X106903068Y-54875342D01*
X106846000Y-55162240D01*
X106846000Y-55454760D01*
X106903068Y-55741658D01*
X107015010Y-56011911D01*
X107177525Y-56255132D01*
X107384368Y-56461975D01*
X107558760Y-56578500D01*
X107384368Y-56695025D01*
X107177525Y-56901868D01*
X107015010Y-57145089D01*
X106903068Y-57415342D01*
X106846000Y-57702240D01*
X106846000Y-57994760D01*
X106903068Y-58281658D01*
X107015010Y-58551911D01*
X107153469Y-58759129D01*
X106644698Y-59267901D01*
X106615700Y-59291699D01*
X106591902Y-59320697D01*
X106591901Y-59320698D01*
X106520726Y-59407424D01*
X106450154Y-59539454D01*
X106406698Y-59682715D01*
X106392024Y-59831700D01*
X106395701Y-59869033D01*
X106395700Y-79263378D01*
X106392024Y-79300700D01*
X106395700Y-79338022D01*
X106395700Y-79338032D01*
X106406697Y-79449685D01*
X106443961Y-79572529D01*
X106450154Y-79592946D01*
X106520726Y-79724976D01*
X106529141Y-79735229D01*
X106615699Y-79840701D01*
X106644703Y-79864504D01*
X111513219Y-84733021D01*
X111497071Y-84786255D01*
X111481928Y-84940000D01*
X111481928Y-85240000D01*
X111497071Y-85393745D01*
X111541916Y-85541582D01*
X111573141Y-85600000D01*
X110527322Y-85600000D01*
X110489999Y-85596324D01*
X110452676Y-85600000D01*
X110452667Y-85600000D01*
X110341014Y-85610997D01*
X110197753Y-85654454D01*
X110065724Y-85725026D01*
X109949999Y-85819999D01*
X109926201Y-85848997D01*
X109139648Y-86635551D01*
X109122624Y-86624176D01*
X108916067Y-86538617D01*
X108696788Y-86495000D01*
X108473212Y-86495000D01*
X108253933Y-86538617D01*
X108047376Y-86624176D01*
X107861480Y-86748388D01*
X107703388Y-86906480D01*
X107579176Y-87092376D01*
X107493617Y-87298933D01*
X107450000Y-87518212D01*
X107450000Y-87741788D01*
X107493617Y-87961067D01*
X107579176Y-88167624D01*
X107638289Y-88256093D01*
X107589336Y-88329356D01*
X107503777Y-88535913D01*
X107460160Y-88755192D01*
X107460160Y-88978768D01*
X107503777Y-89198047D01*
X107589336Y-89404604D01*
X107713548Y-89590500D01*
X107835160Y-89712112D01*
X107835161Y-90777828D01*
X107831484Y-90815160D01*
X107835161Y-90852493D01*
X107846158Y-90964146D01*
X107851816Y-90982798D01*
X107889614Y-91107406D01*
X107960186Y-91239436D01*
X108026960Y-91320799D01*
X108055160Y-91355161D01*
X108084158Y-91378959D01*
X108656200Y-91951002D01*
X108679999Y-91980001D01*
X108781743Y-92063500D01*
X105508229Y-92063500D01*
X105390054Y-92051913D01*
X105309797Y-92027682D01*
X105235766Y-91988319D01*
X105170792Y-91935327D01*
X105117348Y-91870725D01*
X105077471Y-91796973D01*
X105052679Y-91716883D01*
X105040500Y-91601003D01*
X105040500Y-50834729D01*
X105052087Y-50716554D01*
X105076319Y-50636296D01*
X105115680Y-50562267D01*
X105168670Y-50497295D01*
X105233273Y-50443850D01*
X105307026Y-50403972D01*
X105387118Y-50379179D01*
X105503234Y-50366975D01*
X120735805Y-50354383D01*
X120572171Y-50386932D01*
G37*
X120572171Y-50386932D02*
X120402011Y-50457414D01*
X120248872Y-50559738D01*
X120118638Y-50689972D01*
X120016314Y-50843111D01*
X119945832Y-51013271D01*
X119915665Y-51164928D01*
X119269000Y-51164928D01*
X119144518Y-51177188D01*
X119024820Y-51213498D01*
X118914506Y-51272463D01*
X118817815Y-51351815D01*
X118738463Y-51448506D01*
X118679498Y-51558820D01*
X118643188Y-51678518D01*
X118630928Y-51803000D01*
X118630928Y-52903000D01*
X118643188Y-53027482D01*
X118670826Y-53118594D01*
X118493171Y-53153932D01*
X118323011Y-53224414D01*
X118169872Y-53326738D01*
X118039638Y-53456972D01*
X117937314Y-53610111D01*
X117866832Y-53780271D01*
X117830900Y-53960911D01*
X117830900Y-54145089D01*
X117860277Y-54292776D01*
X117551146Y-53983645D01*
X117543303Y-53904014D01*
X117499846Y-53760753D01*
X117490947Y-53744105D01*
X117572128Y-53689862D01*
X117702362Y-53559628D01*
X117804686Y-53406489D01*
X117875168Y-53236329D01*
X117911100Y-53055689D01*
X117911100Y-52871511D01*
X117875168Y-52690871D01*
X117804686Y-52520711D01*
X117702362Y-52367572D01*
X117572128Y-52237338D01*
X117544786Y-52219069D01*
X117543303Y-52204014D01*
X117499846Y-52060753D01*
X117429274Y-51928724D01*
X117334301Y-51812999D01*
X117218576Y-51718026D01*
X117086547Y-51647454D01*
X117085271Y-51647067D01*
X117058502Y-51558820D01*
X116999537Y-51448506D01*
X116920185Y-51351815D01*
X116823494Y-51272463D01*
X116713180Y-51213498D01*
X116593482Y-51177188D01*
X116469000Y-51164928D01*
X114469000Y-51164928D01*
X114344518Y-51177188D01*
X114224820Y-51213498D01*
X114114506Y-51272463D01*
X114017815Y-51351815D01*
X113938463Y-51448506D01*
X113879498Y-51558820D01*
X113843188Y-51678518D01*
X113830928Y-51803000D01*
X113830928Y-52903000D01*
X113843188Y-53027482D01*
X113879498Y-53147180D01*
X113909335Y-53203000D01*
X113879498Y-53258820D01*
X113843188Y-53378518D01*
X113830928Y-53503000D01*
X113830928Y-54603000D01*
X113843188Y-54727482D01*
X113879498Y-54847180D01*
X113909335Y-54903000D01*
X113879498Y-54958820D01*
X113843188Y-55078518D01*
X113830928Y-55203000D01*
X113830928Y-56303000D01*
X113843188Y-56427482D01*
X113879498Y-56547180D01*
X113938463Y-56657494D01*
X114017815Y-56754185D01*
X114114506Y-56833537D01*
X114224820Y-56892502D01*
X114344518Y-56928812D01*
X114469000Y-56941072D01*
X116469000Y-56941072D01*
X116593482Y-56928812D01*
X116713180Y-56892502D01*
X116808207Y-56841708D01*
X126839200Y-66872702D01*
X126839201Y-73038497D01*
X126107002Y-73770696D01*
X126077999Y-73794499D01*
X126047553Y-73831598D01*
X125983026Y-73910224D01*
X125926298Y-74016354D01*
X125912454Y-74042254D01*
X125868997Y-74185515D01*
X125858000Y-74297168D01*
X125858000Y-74297178D01*
X125854324Y-74334500D01*
X125858000Y-74371823D01*
X125858000Y-74750564D01*
X125789414Y-74853211D01*
X125718932Y-75023371D01*
X125683000Y-75204011D01*
X125683000Y-75388189D01*
X125718932Y-75568829D01*
X125789414Y-75738989D01*
X125891738Y-75892128D01*
X126021972Y-76022362D01*
X126175111Y-76124686D01*
X126345271Y-76195168D01*
X126525911Y-76231100D01*
X126710089Y-76231100D01*
X126890729Y-76195168D01*
X127060889Y-76124686D01*
X127214028Y-76022362D01*
X127344262Y-75892128D01*
X127446586Y-75738989D01*
X127517068Y-75568829D01*
X127553000Y-75388189D01*
X127553000Y-75204011D01*
X127517068Y-75023371D01*
X127446586Y-74853211D01*
X127378000Y-74750565D01*
X127378000Y-74649301D01*
X127914002Y-74113300D01*
X129601287Y-74113300D01*
X129564283Y-74143668D01*
X129532199Y-74169999D01*
X129508401Y-74198997D01*
X119414832Y-84292567D01*
X119374494Y-84259463D01*
X119264180Y-84200498D01*
X119144482Y-84164188D01*
X119020000Y-84151928D01*
X118480750Y-84155000D01*
X118322000Y-84313750D01*
X118322000Y-84963000D01*
X118342000Y-84963000D01*
X118342000Y-85217000D01*
X118322000Y-85217000D01*
X118322000Y-85237000D01*
X118068000Y-85237000D01*
X118068000Y-85217000D01*
X116893750Y-85217000D01*
X116735000Y-85375750D01*
X116731928Y-85390000D01*
X116744188Y-85514482D01*
X116780498Y-85634180D01*
X116839463Y-85744494D01*
X116863730Y-85774064D01*
X116791916Y-85908418D01*
X116747071Y-86056255D01*
X116731928Y-86210000D01*
X116731928Y-86510000D01*
X116747071Y-86663745D01*
X116791916Y-86811582D01*
X116864742Y-86947829D01*
X116903454Y-86995000D01*
X116864742Y-87042171D01*
X116791916Y-87178418D01*
X116747071Y-87326255D01*
X116731928Y-87480000D01*
X116731928Y-87780000D01*
X116747071Y-87933745D01*
X116752220Y-87950718D01*
X115470200Y-86668699D01*
X115470200Y-86612122D01*
X115473876Y-86574799D01*
X115470200Y-86537476D01*
X115470200Y-86537468D01*
X115459203Y-86425814D01*
X115415746Y-86282553D01*
X115345174Y-86150524D01*
X115250201Y-86034799D01*
X115221203Y-86011001D01*
X114408072Y-85197871D01*
X114408072Y-84940000D01*
X114393298Y-84790000D01*
X116731928Y-84790000D01*
X116735000Y-84804250D01*
X116893750Y-84963000D01*
X118068000Y-84963000D01*
X118068000Y-84313750D01*
X117909250Y-84155000D01*
X117370000Y-84151928D01*
X117245518Y-84164188D01*
X117125820Y-84200498D01*
X117015506Y-84259463D01*
X116918815Y-84338815D01*
X116839463Y-84435506D01*
X116780498Y-84545820D01*
X116744188Y-84665518D01*
X116731928Y-84790000D01*
X114393298Y-84790000D01*
X114392929Y-84786255D01*
X114348084Y-84638418D01*
X114275258Y-84502171D01*
X114177251Y-84382749D01*
X114057829Y-84284742D01*
X113921582Y-84211916D01*
X113773745Y-84167071D01*
X113620000Y-84151928D01*
X113081730Y-84151928D01*
X107915700Y-78985899D01*
X107915700Y-61809262D01*
X107974109Y-61829981D01*
X108204000Y-61709314D01*
X108204000Y-60515500D01*
X108458000Y-60515500D01*
X108458000Y-61709314D01*
X108687891Y-61829981D01*
X108962252Y-61732657D01*
X109212355Y-61583678D01*
X109428588Y-61388769D01*
X109602641Y-61155420D01*
X109727825Y-60892599D01*
X109772476Y-60745390D01*
X109651155Y-60515500D01*
X108458000Y-60515500D01*
X108204000Y-60515500D01*
X108184000Y-60515500D01*
X108184000Y-60261500D01*
X108204000Y-60261500D01*
X108204000Y-60241500D01*
X108458000Y-60241500D01*
X108458000Y-60261500D01*
X109651155Y-60261500D01*
X109772476Y-60031610D01*
X109727825Y-59884401D01*
X109602641Y-59621580D01*
X109428588Y-59388231D01*
X109212355Y-59193322D01*
X109095466Y-59123695D01*
X109277632Y-59001975D01*
X109484475Y-58795132D01*
X109646990Y-58551911D01*
X109758932Y-58281658D01*
X109816000Y-57994760D01*
X109816000Y-57702240D01*
X109758932Y-57415342D01*
X109646990Y-57145089D01*
X109484475Y-56901868D01*
X109277632Y-56695025D01*
X109103240Y-56578500D01*
X109277632Y-56461975D01*
X109484475Y-56255132D01*
X109646990Y-56011911D01*
X109758932Y-55741658D01*
X109816000Y-55454760D01*
X109816000Y-55162240D01*
X109758932Y-54875342D01*
X109646990Y-54605089D01*
X109484475Y-54361868D01*
X109352620Y-54230013D01*
X109425180Y-54208002D01*
X109535494Y-54149037D01*
X109632185Y-54069685D01*
X109711537Y-53972994D01*
X109770502Y-53862680D01*
X109806812Y-53742982D01*
X109819072Y-53618500D01*
X109819072Y-51918500D01*
X109806812Y-51794018D01*
X109770502Y-51674320D01*
X109711537Y-51564006D01*
X109632185Y-51467315D01*
X109535494Y-51387963D01*
X109425180Y-51328998D01*
X109305482Y-51292688D01*
X109181000Y-51280428D01*
X107481000Y-51280428D01*
X107356518Y-51292688D01*
X107236820Y-51328998D01*
X107126506Y-51387963D01*
X107029815Y-51467315D01*
X106950463Y-51564006D01*
X106891498Y-51674320D01*
X106855188Y-51794018D01*
X106842928Y-51918500D01*
X106842928Y-53618500D01*
X106855188Y-53742982D01*
X106891498Y-53862680D01*
X106950463Y-53972994D01*
X107029815Y-54069685D01*
X107126506Y-54149037D01*
X107236820Y-54208002D01*
X107309380Y-54230013D01*
X107177525Y-54361868D01*
X107015010Y-54605089D01*
X106903068Y-54875342D01*
X106846000Y-55162240D01*
X106846000Y-55454760D01*
X106903068Y-55741658D01*
X107015010Y-56011911D01*
X107177525Y-56255132D01*
X107384368Y-56461975D01*
X107558760Y-56578500D01*
X107384368Y-56695025D01*
X107177525Y-56901868D01*
X107015010Y-57145089D01*
X106903068Y-57415342D01*
X106846000Y-57702240D01*
X106846000Y-57994760D01*
X106903068Y-58281658D01*
X107015010Y-58551911D01*
X107153469Y-58759129D01*
X106644698Y-59267901D01*
X106615700Y-59291699D01*
X106591902Y-59320697D01*
X106591901Y-59320698D01*
X106520726Y-59407424D01*
X106450154Y-59539454D01*
X106406698Y-59682715D01*
X106392024Y-59831700D01*
X106395701Y-59869033D01*
X106395700Y-79263378D01*
X106392024Y-79300700D01*
X106395700Y-79338022D01*
X106395700Y-79338032D01*
X106406697Y-79449685D01*
X106443961Y-79572529D01*
X106450154Y-79592946D01*
X106520726Y-79724976D01*
X106529141Y-79735229D01*
X106615699Y-79840701D01*
X106644703Y-79864504D01*
X111513219Y-84733021D01*
X111497071Y-84786255D01*
X111481928Y-84940000D01*
X111481928Y-85240000D01*
X111497071Y-85393745D01*
X111541916Y-85541582D01*
X111573141Y-85600000D01*
X110527322Y-85600000D01*
X110489999Y-85596324D01*
X110452676Y-85600000D01*
X110452667Y-85600000D01*
X110341014Y-85610997D01*
X110197753Y-85654454D01*
X110065724Y-85725026D01*
X109949999Y-85819999D01*
X109926201Y-85848997D01*
X109139648Y-86635551D01*
X109122624Y-86624176D01*
X108916067Y-86538617D01*
X108696788Y-86495000D01*
X108473212Y-86495000D01*
X108253933Y-86538617D01*
X108047376Y-86624176D01*
X107861480Y-86748388D01*
X107703388Y-86906480D01*
X107579176Y-87092376D01*
X107493617Y-87298933D01*
X107450000Y-87518212D01*
X107450000Y-87741788D01*
X107493617Y-87961067D01*
X107579176Y-88167624D01*
X107638289Y-88256093D01*
X107589336Y-88329356D01*
X107503777Y-88535913D01*
X107460160Y-88755192D01*
X107460160Y-88978768D01*
X107503777Y-89198047D01*
X107589336Y-89404604D01*
X107713548Y-89590500D01*
X107835160Y-89712112D01*
X107835161Y-90777828D01*
X107831484Y-90815160D01*
X107835161Y-90852493D01*
X107846158Y-90964146D01*
X107851816Y-90982798D01*
X107889614Y-91107406D01*
X107960186Y-91239436D01*
X108026960Y-91320799D01*
X108055160Y-91355161D01*
X108084158Y-91378959D01*
X108656200Y-91951002D01*
X108679999Y-91980001D01*
X108781743Y-92063500D01*
X105508229Y-92063500D01*
X105390054Y-92051913D01*
X105309797Y-92027682D01*
X105235766Y-91988319D01*
X105170792Y-91935327D01*
X105117348Y-91870725D01*
X105077471Y-91796973D01*
X105052679Y-91716883D01*
X105040500Y-91601003D01*
X105040500Y-50834729D01*
X105052087Y-50716554D01*
X105076319Y-50636296D01*
X105115680Y-50562267D01*
X105168670Y-50497295D01*
X105233273Y-50443850D01*
X105307026Y-50403972D01*
X105387118Y-50379179D01*
X105503234Y-50366975D01*
X120735805Y-50354383D01*
X120572171Y-50386932D01*
G36*
X146586525Y-75656632D02*
G01*
X146793368Y-75863475D01*
X146969406Y-75981100D01*
X146739731Y-76152412D01*
X146544822Y-76368645D01*
X146395843Y-76618748D01*
X146298519Y-76893109D01*
X146419186Y-77123000D01*
X147613000Y-77123000D01*
X147613000Y-77103000D01*
X147867000Y-77103000D01*
X147867000Y-77123000D01*
X147887000Y-77123000D01*
X147887000Y-77377000D01*
X147867000Y-77377000D01*
X147867000Y-77397000D01*
X147613000Y-77397000D01*
X147613000Y-77377000D01*
X146419186Y-77377000D01*
X146298519Y-77606891D01*
X146319238Y-77665300D01*
X129190533Y-77665300D01*
X129153200Y-77661623D01*
X129115867Y-77665300D01*
X129004214Y-77676297D01*
X128860953Y-77719754D01*
X128728924Y-77790326D01*
X128613199Y-77885299D01*
X128589401Y-77914297D01*
X119633699Y-86870000D01*
X119566859Y-86870000D01*
X119598084Y-86811582D01*
X119642929Y-86663745D01*
X119658072Y-86510000D01*
X119658072Y-86210000D01*
X119657079Y-86199922D01*
X130387002Y-75470000D01*
X146461822Y-75470000D01*
X146586525Y-75656632D01*
G37*
X146586525Y-75656632D02*
X146793368Y-75863475D01*
X146969406Y-75981100D01*
X146739731Y-76152412D01*
X146544822Y-76368645D01*
X146395843Y-76618748D01*
X146298519Y-76893109D01*
X146419186Y-77123000D01*
X147613000Y-77123000D01*
X147613000Y-77103000D01*
X147867000Y-77103000D01*
X147867000Y-77123000D01*
X147887000Y-77123000D01*
X147887000Y-77377000D01*
X147867000Y-77377000D01*
X147867000Y-77397000D01*
X147613000Y-77397000D01*
X147613000Y-77377000D01*
X146419186Y-77377000D01*
X146298519Y-77606891D01*
X146319238Y-77665300D01*
X129190533Y-77665300D01*
X129153200Y-77661623D01*
X129115867Y-77665300D01*
X129004214Y-77676297D01*
X128860953Y-77719754D01*
X128728924Y-77790326D01*
X128613199Y-77885299D01*
X128589401Y-77914297D01*
X119633699Y-86870000D01*
X119566859Y-86870000D01*
X119598084Y-86811582D01*
X119642929Y-86663745D01*
X119658072Y-86510000D01*
X119658072Y-86210000D01*
X119657079Y-86199922D01*
X130387002Y-75470000D01*
X146461822Y-75470000D01*
X146586525Y-75656632D01*
G36*
X185967000Y-77123000D02*
G01*
X185987000Y-77123000D01*
X185987000Y-77377000D01*
X185967000Y-77377000D01*
X185967000Y-77397000D01*
X185713000Y-77397000D01*
X185713000Y-77377000D01*
X185693000Y-77377000D01*
X185693000Y-77123000D01*
X185713000Y-77123000D01*
X185713000Y-77103000D01*
X185967000Y-77103000D01*
X185967000Y-77123000D01*
G37*
X185967000Y-77123000D02*
X185987000Y-77123000D01*
X185987000Y-77377000D01*
X185967000Y-77377000D01*
X185967000Y-77397000D01*
X185713000Y-77397000D01*
X185713000Y-77377000D01*
X185693000Y-77377000D01*
X185693000Y-77123000D01*
X185713000Y-77123000D01*
X185713000Y-77103000D01*
X185967000Y-77103000D01*
X185967000Y-77123000D01*
G36*
X165647000Y-77123000D02*
G01*
X165667000Y-77123000D01*
X165667000Y-77377000D01*
X165647000Y-77377000D01*
X165647000Y-77397000D01*
X165393000Y-77397000D01*
X165393000Y-77377000D01*
X165373000Y-77377000D01*
X165373000Y-77123000D01*
X165393000Y-77123000D01*
X165393000Y-77103000D01*
X165647000Y-77103000D01*
X165647000Y-77123000D01*
G37*
X165647000Y-77123000D02*
X165667000Y-77123000D01*
X165667000Y-77377000D01*
X165647000Y-77377000D01*
X165647000Y-77397000D01*
X165393000Y-77397000D01*
X165393000Y-77377000D01*
X165373000Y-77377000D01*
X165373000Y-77123000D01*
X165393000Y-77123000D01*
X165393000Y-77103000D01*
X165647000Y-77103000D01*
X165647000Y-77123000D01*
G36*
X155487000Y-74583000D02*
G01*
X155507000Y-74583000D01*
X155507000Y-74837000D01*
X155487000Y-74837000D01*
X155487000Y-74857000D01*
X155233000Y-74857000D01*
X155233000Y-74837000D01*
X155213000Y-74837000D01*
X155213000Y-74583000D01*
X155233000Y-74583000D01*
X155233000Y-74563000D01*
X155487000Y-74563000D01*
X155487000Y-74583000D01*
G37*
X155487000Y-74583000D02*
X155507000Y-74583000D01*
X155507000Y-74837000D01*
X155487000Y-74837000D01*
X155487000Y-74857000D01*
X155233000Y-74857000D01*
X155233000Y-74837000D01*
X155213000Y-74837000D01*
X155213000Y-74583000D01*
X155233000Y-74583000D01*
X155233000Y-74563000D01*
X155487000Y-74563000D01*
X155487000Y-74583000D01*
G36*
X160567000Y-74583000D02*
G01*
X160587000Y-74583000D01*
X160587000Y-74837000D01*
X160567000Y-74837000D01*
X160567000Y-74857000D01*
X160313000Y-74857000D01*
X160313000Y-74837000D01*
X160293000Y-74837000D01*
X160293000Y-74583000D01*
X160313000Y-74583000D01*
X160313000Y-74563000D01*
X160567000Y-74563000D01*
X160567000Y-74583000D01*
G37*
X160567000Y-74583000D02*
X160587000Y-74583000D01*
X160587000Y-74837000D01*
X160567000Y-74837000D01*
X160567000Y-74857000D01*
X160313000Y-74857000D01*
X160313000Y-74837000D01*
X160293000Y-74837000D01*
X160293000Y-74583000D01*
X160313000Y-74583000D01*
X160313000Y-74563000D01*
X160567000Y-74563000D01*
X160567000Y-74583000D01*
G36*
X173267000Y-74583000D02*
G01*
X173287000Y-74583000D01*
X173287000Y-74837000D01*
X173267000Y-74837000D01*
X173267000Y-74857000D01*
X173013000Y-74857000D01*
X173013000Y-74837000D01*
X172993000Y-74837000D01*
X172993000Y-74583000D01*
X173013000Y-74583000D01*
X173013000Y-74563000D01*
X173267000Y-74563000D01*
X173267000Y-74583000D01*
G37*
X173267000Y-74583000D02*
X173287000Y-74583000D01*
X173287000Y-74837000D01*
X173267000Y-74837000D01*
X173267000Y-74857000D01*
X173013000Y-74857000D01*
X173013000Y-74837000D01*
X172993000Y-74837000D01*
X172993000Y-74583000D01*
X173013000Y-74583000D01*
X173013000Y-74563000D01*
X173267000Y-74563000D01*
X173267000Y-74583000D01*
G36*
X191047000Y-74583000D02*
G01*
X191067000Y-74583000D01*
X191067000Y-74837000D01*
X191047000Y-74837000D01*
X191047000Y-74857000D01*
X190793000Y-74857000D01*
X190793000Y-74837000D01*
X190773000Y-74837000D01*
X190773000Y-74583000D01*
X190793000Y-74583000D01*
X190793000Y-74563000D01*
X191047000Y-74563000D01*
X191047000Y-74583000D01*
G37*
X191047000Y-74583000D02*
X191067000Y-74583000D01*
X191067000Y-74837000D01*
X191047000Y-74837000D01*
X191047000Y-74857000D01*
X190793000Y-74857000D01*
X190793000Y-74837000D01*
X190773000Y-74837000D01*
X190773000Y-74583000D01*
X190793000Y-74583000D01*
X190793000Y-74563000D01*
X191047000Y-74563000D01*
X191047000Y-74583000D01*
G36*
X180887000Y-74583000D02*
G01*
X180907000Y-74583000D01*
X180907000Y-74837000D01*
X180887000Y-74837000D01*
X180887000Y-74857000D01*
X180633000Y-74857000D01*
X180633000Y-74837000D01*
X180613000Y-74837000D01*
X180613000Y-74583000D01*
X180633000Y-74583000D01*
X180633000Y-74563000D01*
X180887000Y-74563000D01*
X180887000Y-74583000D01*
G37*
X180887000Y-74583000D02*
X180907000Y-74583000D01*
X180907000Y-74837000D01*
X180887000Y-74837000D01*
X180887000Y-74857000D01*
X180633000Y-74857000D01*
X180633000Y-74837000D01*
X180613000Y-74837000D01*
X180613000Y-74583000D01*
X180633000Y-74583000D01*
X180633000Y-74563000D01*
X180887000Y-74563000D01*
X180887000Y-74583000D01*
M02*
