G04 #@! TF.GenerationSoftware,KiCad,Pcbnew,5.1.5+dfsg1-2*
G04 #@! TF.CreationDate,2020-04-06T16:56:46-07:00*
G04 #@! TF.ProjectId,rpmpv1,72706d70-7631-42e6-9b69-6361645f7063,rev?*
G04 #@! TF.SameCoordinates,Original*
G04 #@! TF.FileFunction,Copper,L1,Top*
G04 #@! TF.FilePolarity,Positive*
%FSLAX46Y46*%
G04 Gerber Fmt 4.6, Leading zero omitted, Abs format (unit mm)*
G04 Created by KiCad (PCBNEW 5.1.5+dfsg1-2) date 2020-04-06 16:56:46*
%MOMM*%
%LPD*%
G04 APERTURE LIST*
%ADD10O,1.700000X1.700000*%
%ADD11R,1.700000X1.700000*%
%ADD12R,2.000000X1.100000*%
%ADD13R,0.600000X1.950000*%
%ADD14R,1.800000X8.000000*%
%ADD15R,1.800000X7.000000*%
%ADD16C,0.100000*%
%ADD17R,1.600000X1.600000*%
%ADD18C,1.600000*%
%ADD19C,1.000000*%
%ADD20C,0.600000*%
%ADD21C,0.250000*%
%ADD22C,0.254000*%
G04 APERTURE END LIST*
D10*
X147740000Y-75154500D03*
X147740000Y-77694500D03*
X150280000Y-75154500D03*
X150280000Y-77694500D03*
X152820000Y-75154500D03*
X152820000Y-77694500D03*
X155360000Y-75154500D03*
X155360000Y-77694500D03*
X157900000Y-75154500D03*
X157900000Y-77694500D03*
X160440000Y-75154500D03*
X160440000Y-77694500D03*
X162980000Y-75154500D03*
X162980000Y-77694500D03*
X165520000Y-75154500D03*
X165520000Y-77694500D03*
X168060000Y-75154500D03*
X168060000Y-77694500D03*
X170600000Y-75154500D03*
X170600000Y-77694500D03*
X173140000Y-75154500D03*
X173140000Y-77694500D03*
X175680000Y-75154500D03*
X175680000Y-77694500D03*
X178220000Y-75154500D03*
X178220000Y-77694500D03*
X180760000Y-75154500D03*
X180760000Y-77694500D03*
X183300000Y-75154500D03*
X183300000Y-77694500D03*
X185840000Y-75154500D03*
X185840000Y-77694500D03*
X188380000Y-75154500D03*
X188380000Y-77694500D03*
X190920000Y-75154500D03*
X190920000Y-77694500D03*
X193460000Y-75154500D03*
X193460000Y-77694500D03*
X196000000Y-75154500D03*
D11*
X196000000Y-77694500D03*
D12*
X115469000Y-52353000D03*
X115469000Y-54053000D03*
X115469000Y-55753000D03*
X120269000Y-55753000D03*
X120269000Y-54053000D03*
X120269000Y-52353000D03*
D11*
X108331000Y-52768500D03*
D10*
X108331000Y-55308500D03*
X108331000Y-57848500D03*
X108331000Y-60388500D03*
D13*
X137160000Y-95505000D03*
X138430000Y-95505000D03*
X139700000Y-95505000D03*
X140970000Y-95505000D03*
X142240000Y-95505000D03*
X143510000Y-95505000D03*
X144780000Y-95505000D03*
X146050000Y-95505000D03*
X147320000Y-95505000D03*
X148590000Y-95505000D03*
X148590000Y-86105000D03*
X147320000Y-86105000D03*
X146050000Y-86105000D03*
X144780000Y-86105000D03*
X143510000Y-86105000D03*
X142240000Y-86105000D03*
X140970000Y-86105000D03*
X139700000Y-86105000D03*
X138430000Y-86105000D03*
X137160000Y-86105000D03*
D14*
X187939840Y-109827440D03*
X185399840Y-109827440D03*
X182859840Y-109827440D03*
X180319840Y-109827440D03*
X177779840Y-109827440D03*
X175239840Y-109827440D03*
X172699840Y-109827440D03*
X170159840Y-109827440D03*
X167619840Y-109827440D03*
X165079840Y-109827440D03*
X162539840Y-109827440D03*
X159999840Y-109827440D03*
X157459840Y-109827440D03*
X154919840Y-109827440D03*
X152379840Y-109827440D03*
X149839840Y-109827440D03*
X147299840Y-109827440D03*
X144759840Y-109827440D03*
X142219840Y-109827440D03*
X139679840Y-109827440D03*
X137139840Y-109827440D03*
D15*
X134594760Y-109334680D03*
D14*
X132059840Y-109827440D03*
X129519840Y-109827440D03*
X126979840Y-109827440D03*
G04 #@! TA.AperFunction,SMDPad,CuDef*
D16*
G36*
X118884703Y-88600722D02*
G01*
X118899264Y-88602882D01*
X118913543Y-88606459D01*
X118927403Y-88611418D01*
X118940710Y-88617712D01*
X118953336Y-88625280D01*
X118965159Y-88634048D01*
X118976066Y-88643934D01*
X118985952Y-88654841D01*
X118994720Y-88666664D01*
X119002288Y-88679290D01*
X119008582Y-88692597D01*
X119013541Y-88706457D01*
X119017118Y-88720736D01*
X119019278Y-88735297D01*
X119020000Y-88750000D01*
X119020000Y-89050000D01*
X119019278Y-89064703D01*
X119017118Y-89079264D01*
X119013541Y-89093543D01*
X119008582Y-89107403D01*
X119002288Y-89120710D01*
X118994720Y-89133336D01*
X118985952Y-89145159D01*
X118976066Y-89156066D01*
X118965159Y-89165952D01*
X118953336Y-89174720D01*
X118940710Y-89182288D01*
X118927403Y-89188582D01*
X118913543Y-89193541D01*
X118899264Y-89197118D01*
X118884703Y-89199278D01*
X118870000Y-89200000D01*
X117520000Y-89200000D01*
X117505297Y-89199278D01*
X117490736Y-89197118D01*
X117476457Y-89193541D01*
X117462597Y-89188582D01*
X117449290Y-89182288D01*
X117436664Y-89174720D01*
X117424841Y-89165952D01*
X117413934Y-89156066D01*
X117404048Y-89145159D01*
X117395280Y-89133336D01*
X117387712Y-89120710D01*
X117381418Y-89107403D01*
X117376459Y-89093543D01*
X117372882Y-89079264D01*
X117370722Y-89064703D01*
X117370000Y-89050000D01*
X117370000Y-88750000D01*
X117370722Y-88735297D01*
X117372882Y-88720736D01*
X117376459Y-88706457D01*
X117381418Y-88692597D01*
X117387712Y-88679290D01*
X117395280Y-88666664D01*
X117404048Y-88654841D01*
X117413934Y-88643934D01*
X117424841Y-88634048D01*
X117436664Y-88625280D01*
X117449290Y-88617712D01*
X117462597Y-88611418D01*
X117476457Y-88606459D01*
X117490736Y-88602882D01*
X117505297Y-88600722D01*
X117520000Y-88600000D01*
X118870000Y-88600000D01*
X118884703Y-88600722D01*
G37*
G04 #@! TD.AperFunction*
G04 #@! TA.AperFunction,SMDPad,CuDef*
G36*
X118884703Y-87330722D02*
G01*
X118899264Y-87332882D01*
X118913543Y-87336459D01*
X118927403Y-87341418D01*
X118940710Y-87347712D01*
X118953336Y-87355280D01*
X118965159Y-87364048D01*
X118976066Y-87373934D01*
X118985952Y-87384841D01*
X118994720Y-87396664D01*
X119002288Y-87409290D01*
X119008582Y-87422597D01*
X119013541Y-87436457D01*
X119017118Y-87450736D01*
X119019278Y-87465297D01*
X119020000Y-87480000D01*
X119020000Y-87780000D01*
X119019278Y-87794703D01*
X119017118Y-87809264D01*
X119013541Y-87823543D01*
X119008582Y-87837403D01*
X119002288Y-87850710D01*
X118994720Y-87863336D01*
X118985952Y-87875159D01*
X118976066Y-87886066D01*
X118965159Y-87895952D01*
X118953336Y-87904720D01*
X118940710Y-87912288D01*
X118927403Y-87918582D01*
X118913543Y-87923541D01*
X118899264Y-87927118D01*
X118884703Y-87929278D01*
X118870000Y-87930000D01*
X117520000Y-87930000D01*
X117505297Y-87929278D01*
X117490736Y-87927118D01*
X117476457Y-87923541D01*
X117462597Y-87918582D01*
X117449290Y-87912288D01*
X117436664Y-87904720D01*
X117424841Y-87895952D01*
X117413934Y-87886066D01*
X117404048Y-87875159D01*
X117395280Y-87863336D01*
X117387712Y-87850710D01*
X117381418Y-87837403D01*
X117376459Y-87823543D01*
X117372882Y-87809264D01*
X117370722Y-87794703D01*
X117370000Y-87780000D01*
X117370000Y-87480000D01*
X117370722Y-87465297D01*
X117372882Y-87450736D01*
X117376459Y-87436457D01*
X117381418Y-87422597D01*
X117387712Y-87409290D01*
X117395280Y-87396664D01*
X117404048Y-87384841D01*
X117413934Y-87373934D01*
X117424841Y-87364048D01*
X117436664Y-87355280D01*
X117449290Y-87347712D01*
X117462597Y-87341418D01*
X117476457Y-87336459D01*
X117490736Y-87332882D01*
X117505297Y-87330722D01*
X117520000Y-87330000D01*
X118870000Y-87330000D01*
X118884703Y-87330722D01*
G37*
G04 #@! TD.AperFunction*
G04 #@! TA.AperFunction,SMDPad,CuDef*
G36*
X118884703Y-86060722D02*
G01*
X118899264Y-86062882D01*
X118913543Y-86066459D01*
X118927403Y-86071418D01*
X118940710Y-86077712D01*
X118953336Y-86085280D01*
X118965159Y-86094048D01*
X118976066Y-86103934D01*
X118985952Y-86114841D01*
X118994720Y-86126664D01*
X119002288Y-86139290D01*
X119008582Y-86152597D01*
X119013541Y-86166457D01*
X119017118Y-86180736D01*
X119019278Y-86195297D01*
X119020000Y-86210000D01*
X119020000Y-86510000D01*
X119019278Y-86524703D01*
X119017118Y-86539264D01*
X119013541Y-86553543D01*
X119008582Y-86567403D01*
X119002288Y-86580710D01*
X118994720Y-86593336D01*
X118985952Y-86605159D01*
X118976066Y-86616066D01*
X118965159Y-86625952D01*
X118953336Y-86634720D01*
X118940710Y-86642288D01*
X118927403Y-86648582D01*
X118913543Y-86653541D01*
X118899264Y-86657118D01*
X118884703Y-86659278D01*
X118870000Y-86660000D01*
X117520000Y-86660000D01*
X117505297Y-86659278D01*
X117490736Y-86657118D01*
X117476457Y-86653541D01*
X117462597Y-86648582D01*
X117449290Y-86642288D01*
X117436664Y-86634720D01*
X117424841Y-86625952D01*
X117413934Y-86616066D01*
X117404048Y-86605159D01*
X117395280Y-86593336D01*
X117387712Y-86580710D01*
X117381418Y-86567403D01*
X117376459Y-86553543D01*
X117372882Y-86539264D01*
X117370722Y-86524703D01*
X117370000Y-86510000D01*
X117370000Y-86210000D01*
X117370722Y-86195297D01*
X117372882Y-86180736D01*
X117376459Y-86166457D01*
X117381418Y-86152597D01*
X117387712Y-86139290D01*
X117395280Y-86126664D01*
X117404048Y-86114841D01*
X117413934Y-86103934D01*
X117424841Y-86094048D01*
X117436664Y-86085280D01*
X117449290Y-86077712D01*
X117462597Y-86071418D01*
X117476457Y-86066459D01*
X117490736Y-86062882D01*
X117505297Y-86060722D01*
X117520000Y-86060000D01*
X118870000Y-86060000D01*
X118884703Y-86060722D01*
G37*
G04 #@! TD.AperFunction*
G04 #@! TA.AperFunction,SMDPad,CuDef*
G36*
X118884703Y-84790722D02*
G01*
X118899264Y-84792882D01*
X118913543Y-84796459D01*
X118927403Y-84801418D01*
X118940710Y-84807712D01*
X118953336Y-84815280D01*
X118965159Y-84824048D01*
X118976066Y-84833934D01*
X118985952Y-84844841D01*
X118994720Y-84856664D01*
X119002288Y-84869290D01*
X119008582Y-84882597D01*
X119013541Y-84896457D01*
X119017118Y-84910736D01*
X119019278Y-84925297D01*
X119020000Y-84940000D01*
X119020000Y-85240000D01*
X119019278Y-85254703D01*
X119017118Y-85269264D01*
X119013541Y-85283543D01*
X119008582Y-85297403D01*
X119002288Y-85310710D01*
X118994720Y-85323336D01*
X118985952Y-85335159D01*
X118976066Y-85346066D01*
X118965159Y-85355952D01*
X118953336Y-85364720D01*
X118940710Y-85372288D01*
X118927403Y-85378582D01*
X118913543Y-85383541D01*
X118899264Y-85387118D01*
X118884703Y-85389278D01*
X118870000Y-85390000D01*
X117520000Y-85390000D01*
X117505297Y-85389278D01*
X117490736Y-85387118D01*
X117476457Y-85383541D01*
X117462597Y-85378582D01*
X117449290Y-85372288D01*
X117436664Y-85364720D01*
X117424841Y-85355952D01*
X117413934Y-85346066D01*
X117404048Y-85335159D01*
X117395280Y-85323336D01*
X117387712Y-85310710D01*
X117381418Y-85297403D01*
X117376459Y-85283543D01*
X117372882Y-85269264D01*
X117370722Y-85254703D01*
X117370000Y-85240000D01*
X117370000Y-84940000D01*
X117370722Y-84925297D01*
X117372882Y-84910736D01*
X117376459Y-84896457D01*
X117381418Y-84882597D01*
X117387712Y-84869290D01*
X117395280Y-84856664D01*
X117404048Y-84844841D01*
X117413934Y-84833934D01*
X117424841Y-84824048D01*
X117436664Y-84815280D01*
X117449290Y-84807712D01*
X117462597Y-84801418D01*
X117476457Y-84796459D01*
X117490736Y-84792882D01*
X117505297Y-84790722D01*
X117520000Y-84790000D01*
X118870000Y-84790000D01*
X118884703Y-84790722D01*
G37*
G04 #@! TD.AperFunction*
G04 #@! TA.AperFunction,SMDPad,CuDef*
G36*
X113634703Y-84790722D02*
G01*
X113649264Y-84792882D01*
X113663543Y-84796459D01*
X113677403Y-84801418D01*
X113690710Y-84807712D01*
X113703336Y-84815280D01*
X113715159Y-84824048D01*
X113726066Y-84833934D01*
X113735952Y-84844841D01*
X113744720Y-84856664D01*
X113752288Y-84869290D01*
X113758582Y-84882597D01*
X113763541Y-84896457D01*
X113767118Y-84910736D01*
X113769278Y-84925297D01*
X113770000Y-84940000D01*
X113770000Y-85240000D01*
X113769278Y-85254703D01*
X113767118Y-85269264D01*
X113763541Y-85283543D01*
X113758582Y-85297403D01*
X113752288Y-85310710D01*
X113744720Y-85323336D01*
X113735952Y-85335159D01*
X113726066Y-85346066D01*
X113715159Y-85355952D01*
X113703336Y-85364720D01*
X113690710Y-85372288D01*
X113677403Y-85378582D01*
X113663543Y-85383541D01*
X113649264Y-85387118D01*
X113634703Y-85389278D01*
X113620000Y-85390000D01*
X112270000Y-85390000D01*
X112255297Y-85389278D01*
X112240736Y-85387118D01*
X112226457Y-85383541D01*
X112212597Y-85378582D01*
X112199290Y-85372288D01*
X112186664Y-85364720D01*
X112174841Y-85355952D01*
X112163934Y-85346066D01*
X112154048Y-85335159D01*
X112145280Y-85323336D01*
X112137712Y-85310710D01*
X112131418Y-85297403D01*
X112126459Y-85283543D01*
X112122882Y-85269264D01*
X112120722Y-85254703D01*
X112120000Y-85240000D01*
X112120000Y-84940000D01*
X112120722Y-84925297D01*
X112122882Y-84910736D01*
X112126459Y-84896457D01*
X112131418Y-84882597D01*
X112137712Y-84869290D01*
X112145280Y-84856664D01*
X112154048Y-84844841D01*
X112163934Y-84833934D01*
X112174841Y-84824048D01*
X112186664Y-84815280D01*
X112199290Y-84807712D01*
X112212597Y-84801418D01*
X112226457Y-84796459D01*
X112240736Y-84792882D01*
X112255297Y-84790722D01*
X112270000Y-84790000D01*
X113620000Y-84790000D01*
X113634703Y-84790722D01*
G37*
G04 #@! TD.AperFunction*
G04 #@! TA.AperFunction,SMDPad,CuDef*
G36*
X113634703Y-86060722D02*
G01*
X113649264Y-86062882D01*
X113663543Y-86066459D01*
X113677403Y-86071418D01*
X113690710Y-86077712D01*
X113703336Y-86085280D01*
X113715159Y-86094048D01*
X113726066Y-86103934D01*
X113735952Y-86114841D01*
X113744720Y-86126664D01*
X113752288Y-86139290D01*
X113758582Y-86152597D01*
X113763541Y-86166457D01*
X113767118Y-86180736D01*
X113769278Y-86195297D01*
X113770000Y-86210000D01*
X113770000Y-86510000D01*
X113769278Y-86524703D01*
X113767118Y-86539264D01*
X113763541Y-86553543D01*
X113758582Y-86567403D01*
X113752288Y-86580710D01*
X113744720Y-86593336D01*
X113735952Y-86605159D01*
X113726066Y-86616066D01*
X113715159Y-86625952D01*
X113703336Y-86634720D01*
X113690710Y-86642288D01*
X113677403Y-86648582D01*
X113663543Y-86653541D01*
X113649264Y-86657118D01*
X113634703Y-86659278D01*
X113620000Y-86660000D01*
X112270000Y-86660000D01*
X112255297Y-86659278D01*
X112240736Y-86657118D01*
X112226457Y-86653541D01*
X112212597Y-86648582D01*
X112199290Y-86642288D01*
X112186664Y-86634720D01*
X112174841Y-86625952D01*
X112163934Y-86616066D01*
X112154048Y-86605159D01*
X112145280Y-86593336D01*
X112137712Y-86580710D01*
X112131418Y-86567403D01*
X112126459Y-86553543D01*
X112122882Y-86539264D01*
X112120722Y-86524703D01*
X112120000Y-86510000D01*
X112120000Y-86210000D01*
X112120722Y-86195297D01*
X112122882Y-86180736D01*
X112126459Y-86166457D01*
X112131418Y-86152597D01*
X112137712Y-86139290D01*
X112145280Y-86126664D01*
X112154048Y-86114841D01*
X112163934Y-86103934D01*
X112174841Y-86094048D01*
X112186664Y-86085280D01*
X112199290Y-86077712D01*
X112212597Y-86071418D01*
X112226457Y-86066459D01*
X112240736Y-86062882D01*
X112255297Y-86060722D01*
X112270000Y-86060000D01*
X113620000Y-86060000D01*
X113634703Y-86060722D01*
G37*
G04 #@! TD.AperFunction*
G04 #@! TA.AperFunction,SMDPad,CuDef*
G36*
X113634703Y-87330722D02*
G01*
X113649264Y-87332882D01*
X113663543Y-87336459D01*
X113677403Y-87341418D01*
X113690710Y-87347712D01*
X113703336Y-87355280D01*
X113715159Y-87364048D01*
X113726066Y-87373934D01*
X113735952Y-87384841D01*
X113744720Y-87396664D01*
X113752288Y-87409290D01*
X113758582Y-87422597D01*
X113763541Y-87436457D01*
X113767118Y-87450736D01*
X113769278Y-87465297D01*
X113770000Y-87480000D01*
X113770000Y-87780000D01*
X113769278Y-87794703D01*
X113767118Y-87809264D01*
X113763541Y-87823543D01*
X113758582Y-87837403D01*
X113752288Y-87850710D01*
X113744720Y-87863336D01*
X113735952Y-87875159D01*
X113726066Y-87886066D01*
X113715159Y-87895952D01*
X113703336Y-87904720D01*
X113690710Y-87912288D01*
X113677403Y-87918582D01*
X113663543Y-87923541D01*
X113649264Y-87927118D01*
X113634703Y-87929278D01*
X113620000Y-87930000D01*
X112270000Y-87930000D01*
X112255297Y-87929278D01*
X112240736Y-87927118D01*
X112226457Y-87923541D01*
X112212597Y-87918582D01*
X112199290Y-87912288D01*
X112186664Y-87904720D01*
X112174841Y-87895952D01*
X112163934Y-87886066D01*
X112154048Y-87875159D01*
X112145280Y-87863336D01*
X112137712Y-87850710D01*
X112131418Y-87837403D01*
X112126459Y-87823543D01*
X112122882Y-87809264D01*
X112120722Y-87794703D01*
X112120000Y-87780000D01*
X112120000Y-87480000D01*
X112120722Y-87465297D01*
X112122882Y-87450736D01*
X112126459Y-87436457D01*
X112131418Y-87422597D01*
X112137712Y-87409290D01*
X112145280Y-87396664D01*
X112154048Y-87384841D01*
X112163934Y-87373934D01*
X112174841Y-87364048D01*
X112186664Y-87355280D01*
X112199290Y-87347712D01*
X112212597Y-87341418D01*
X112226457Y-87336459D01*
X112240736Y-87332882D01*
X112255297Y-87330722D01*
X112270000Y-87330000D01*
X113620000Y-87330000D01*
X113634703Y-87330722D01*
G37*
G04 #@! TD.AperFunction*
G04 #@! TA.AperFunction,SMDPad,CuDef*
G36*
X113634703Y-88600722D02*
G01*
X113649264Y-88602882D01*
X113663543Y-88606459D01*
X113677403Y-88611418D01*
X113690710Y-88617712D01*
X113703336Y-88625280D01*
X113715159Y-88634048D01*
X113726066Y-88643934D01*
X113735952Y-88654841D01*
X113744720Y-88666664D01*
X113752288Y-88679290D01*
X113758582Y-88692597D01*
X113763541Y-88706457D01*
X113767118Y-88720736D01*
X113769278Y-88735297D01*
X113770000Y-88750000D01*
X113770000Y-89050000D01*
X113769278Y-89064703D01*
X113767118Y-89079264D01*
X113763541Y-89093543D01*
X113758582Y-89107403D01*
X113752288Y-89120710D01*
X113744720Y-89133336D01*
X113735952Y-89145159D01*
X113726066Y-89156066D01*
X113715159Y-89165952D01*
X113703336Y-89174720D01*
X113690710Y-89182288D01*
X113677403Y-89188582D01*
X113663543Y-89193541D01*
X113649264Y-89197118D01*
X113634703Y-89199278D01*
X113620000Y-89200000D01*
X112270000Y-89200000D01*
X112255297Y-89199278D01*
X112240736Y-89197118D01*
X112226457Y-89193541D01*
X112212597Y-89188582D01*
X112199290Y-89182288D01*
X112186664Y-89174720D01*
X112174841Y-89165952D01*
X112163934Y-89156066D01*
X112154048Y-89145159D01*
X112145280Y-89133336D01*
X112137712Y-89120710D01*
X112131418Y-89107403D01*
X112126459Y-89093543D01*
X112122882Y-89079264D01*
X112120722Y-89064703D01*
X112120000Y-89050000D01*
X112120000Y-88750000D01*
X112120722Y-88735297D01*
X112122882Y-88720736D01*
X112126459Y-88706457D01*
X112131418Y-88692597D01*
X112137712Y-88679290D01*
X112145280Y-88666664D01*
X112154048Y-88654841D01*
X112163934Y-88643934D01*
X112174841Y-88634048D01*
X112186664Y-88625280D01*
X112199290Y-88617712D01*
X112212597Y-88611418D01*
X112226457Y-88606459D01*
X112240736Y-88602882D01*
X112255297Y-88600722D01*
X112270000Y-88600000D01*
X113620000Y-88600000D01*
X113634703Y-88600722D01*
G37*
G04 #@! TD.AperFunction*
G04 #@! TA.AperFunction,SMDPad,CuDef*
G36*
X169074703Y-94225722D02*
G01*
X169089264Y-94227882D01*
X169103543Y-94231459D01*
X169117403Y-94236418D01*
X169130710Y-94242712D01*
X169143336Y-94250280D01*
X169155159Y-94259048D01*
X169166066Y-94268934D01*
X169175952Y-94279841D01*
X169184720Y-94291664D01*
X169192288Y-94304290D01*
X169198582Y-94317597D01*
X169203541Y-94331457D01*
X169207118Y-94345736D01*
X169209278Y-94360297D01*
X169210000Y-94375000D01*
X169210000Y-96125000D01*
X169209278Y-96139703D01*
X169207118Y-96154264D01*
X169203541Y-96168543D01*
X169198582Y-96182403D01*
X169192288Y-96195710D01*
X169184720Y-96208336D01*
X169175952Y-96220159D01*
X169166066Y-96231066D01*
X169155159Y-96240952D01*
X169143336Y-96249720D01*
X169130710Y-96257288D01*
X169117403Y-96263582D01*
X169103543Y-96268541D01*
X169089264Y-96272118D01*
X169074703Y-96274278D01*
X169060000Y-96275000D01*
X168760000Y-96275000D01*
X168745297Y-96274278D01*
X168730736Y-96272118D01*
X168716457Y-96268541D01*
X168702597Y-96263582D01*
X168689290Y-96257288D01*
X168676664Y-96249720D01*
X168664841Y-96240952D01*
X168653934Y-96231066D01*
X168644048Y-96220159D01*
X168635280Y-96208336D01*
X168627712Y-96195710D01*
X168621418Y-96182403D01*
X168616459Y-96168543D01*
X168612882Y-96154264D01*
X168610722Y-96139703D01*
X168610000Y-96125000D01*
X168610000Y-94375000D01*
X168610722Y-94360297D01*
X168612882Y-94345736D01*
X168616459Y-94331457D01*
X168621418Y-94317597D01*
X168627712Y-94304290D01*
X168635280Y-94291664D01*
X168644048Y-94279841D01*
X168653934Y-94268934D01*
X168664841Y-94259048D01*
X168676664Y-94250280D01*
X168689290Y-94242712D01*
X168702597Y-94236418D01*
X168716457Y-94231459D01*
X168730736Y-94227882D01*
X168745297Y-94225722D01*
X168760000Y-94225000D01*
X169060000Y-94225000D01*
X169074703Y-94225722D01*
G37*
G04 #@! TD.AperFunction*
G04 #@! TA.AperFunction,SMDPad,CuDef*
G36*
X170344703Y-94225722D02*
G01*
X170359264Y-94227882D01*
X170373543Y-94231459D01*
X170387403Y-94236418D01*
X170400710Y-94242712D01*
X170413336Y-94250280D01*
X170425159Y-94259048D01*
X170436066Y-94268934D01*
X170445952Y-94279841D01*
X170454720Y-94291664D01*
X170462288Y-94304290D01*
X170468582Y-94317597D01*
X170473541Y-94331457D01*
X170477118Y-94345736D01*
X170479278Y-94360297D01*
X170480000Y-94375000D01*
X170480000Y-96125000D01*
X170479278Y-96139703D01*
X170477118Y-96154264D01*
X170473541Y-96168543D01*
X170468582Y-96182403D01*
X170462288Y-96195710D01*
X170454720Y-96208336D01*
X170445952Y-96220159D01*
X170436066Y-96231066D01*
X170425159Y-96240952D01*
X170413336Y-96249720D01*
X170400710Y-96257288D01*
X170387403Y-96263582D01*
X170373543Y-96268541D01*
X170359264Y-96272118D01*
X170344703Y-96274278D01*
X170330000Y-96275000D01*
X170030000Y-96275000D01*
X170015297Y-96274278D01*
X170000736Y-96272118D01*
X169986457Y-96268541D01*
X169972597Y-96263582D01*
X169959290Y-96257288D01*
X169946664Y-96249720D01*
X169934841Y-96240952D01*
X169923934Y-96231066D01*
X169914048Y-96220159D01*
X169905280Y-96208336D01*
X169897712Y-96195710D01*
X169891418Y-96182403D01*
X169886459Y-96168543D01*
X169882882Y-96154264D01*
X169880722Y-96139703D01*
X169880000Y-96125000D01*
X169880000Y-94375000D01*
X169880722Y-94360297D01*
X169882882Y-94345736D01*
X169886459Y-94331457D01*
X169891418Y-94317597D01*
X169897712Y-94304290D01*
X169905280Y-94291664D01*
X169914048Y-94279841D01*
X169923934Y-94268934D01*
X169934841Y-94259048D01*
X169946664Y-94250280D01*
X169959290Y-94242712D01*
X169972597Y-94236418D01*
X169986457Y-94231459D01*
X170000736Y-94227882D01*
X170015297Y-94225722D01*
X170030000Y-94225000D01*
X170330000Y-94225000D01*
X170344703Y-94225722D01*
G37*
G04 #@! TD.AperFunction*
G04 #@! TA.AperFunction,SMDPad,CuDef*
G36*
X171614703Y-94225722D02*
G01*
X171629264Y-94227882D01*
X171643543Y-94231459D01*
X171657403Y-94236418D01*
X171670710Y-94242712D01*
X171683336Y-94250280D01*
X171695159Y-94259048D01*
X171706066Y-94268934D01*
X171715952Y-94279841D01*
X171724720Y-94291664D01*
X171732288Y-94304290D01*
X171738582Y-94317597D01*
X171743541Y-94331457D01*
X171747118Y-94345736D01*
X171749278Y-94360297D01*
X171750000Y-94375000D01*
X171750000Y-96125000D01*
X171749278Y-96139703D01*
X171747118Y-96154264D01*
X171743541Y-96168543D01*
X171738582Y-96182403D01*
X171732288Y-96195710D01*
X171724720Y-96208336D01*
X171715952Y-96220159D01*
X171706066Y-96231066D01*
X171695159Y-96240952D01*
X171683336Y-96249720D01*
X171670710Y-96257288D01*
X171657403Y-96263582D01*
X171643543Y-96268541D01*
X171629264Y-96272118D01*
X171614703Y-96274278D01*
X171600000Y-96275000D01*
X171300000Y-96275000D01*
X171285297Y-96274278D01*
X171270736Y-96272118D01*
X171256457Y-96268541D01*
X171242597Y-96263582D01*
X171229290Y-96257288D01*
X171216664Y-96249720D01*
X171204841Y-96240952D01*
X171193934Y-96231066D01*
X171184048Y-96220159D01*
X171175280Y-96208336D01*
X171167712Y-96195710D01*
X171161418Y-96182403D01*
X171156459Y-96168543D01*
X171152882Y-96154264D01*
X171150722Y-96139703D01*
X171150000Y-96125000D01*
X171150000Y-94375000D01*
X171150722Y-94360297D01*
X171152882Y-94345736D01*
X171156459Y-94331457D01*
X171161418Y-94317597D01*
X171167712Y-94304290D01*
X171175280Y-94291664D01*
X171184048Y-94279841D01*
X171193934Y-94268934D01*
X171204841Y-94259048D01*
X171216664Y-94250280D01*
X171229290Y-94242712D01*
X171242597Y-94236418D01*
X171256457Y-94231459D01*
X171270736Y-94227882D01*
X171285297Y-94225722D01*
X171300000Y-94225000D01*
X171600000Y-94225000D01*
X171614703Y-94225722D01*
G37*
G04 #@! TD.AperFunction*
G04 #@! TA.AperFunction,SMDPad,CuDef*
G36*
X172884703Y-94225722D02*
G01*
X172899264Y-94227882D01*
X172913543Y-94231459D01*
X172927403Y-94236418D01*
X172940710Y-94242712D01*
X172953336Y-94250280D01*
X172965159Y-94259048D01*
X172976066Y-94268934D01*
X172985952Y-94279841D01*
X172994720Y-94291664D01*
X173002288Y-94304290D01*
X173008582Y-94317597D01*
X173013541Y-94331457D01*
X173017118Y-94345736D01*
X173019278Y-94360297D01*
X173020000Y-94375000D01*
X173020000Y-96125000D01*
X173019278Y-96139703D01*
X173017118Y-96154264D01*
X173013541Y-96168543D01*
X173008582Y-96182403D01*
X173002288Y-96195710D01*
X172994720Y-96208336D01*
X172985952Y-96220159D01*
X172976066Y-96231066D01*
X172965159Y-96240952D01*
X172953336Y-96249720D01*
X172940710Y-96257288D01*
X172927403Y-96263582D01*
X172913543Y-96268541D01*
X172899264Y-96272118D01*
X172884703Y-96274278D01*
X172870000Y-96275000D01*
X172570000Y-96275000D01*
X172555297Y-96274278D01*
X172540736Y-96272118D01*
X172526457Y-96268541D01*
X172512597Y-96263582D01*
X172499290Y-96257288D01*
X172486664Y-96249720D01*
X172474841Y-96240952D01*
X172463934Y-96231066D01*
X172454048Y-96220159D01*
X172445280Y-96208336D01*
X172437712Y-96195710D01*
X172431418Y-96182403D01*
X172426459Y-96168543D01*
X172422882Y-96154264D01*
X172420722Y-96139703D01*
X172420000Y-96125000D01*
X172420000Y-94375000D01*
X172420722Y-94360297D01*
X172422882Y-94345736D01*
X172426459Y-94331457D01*
X172431418Y-94317597D01*
X172437712Y-94304290D01*
X172445280Y-94291664D01*
X172454048Y-94279841D01*
X172463934Y-94268934D01*
X172474841Y-94259048D01*
X172486664Y-94250280D01*
X172499290Y-94242712D01*
X172512597Y-94236418D01*
X172526457Y-94231459D01*
X172540736Y-94227882D01*
X172555297Y-94225722D01*
X172570000Y-94225000D01*
X172870000Y-94225000D01*
X172884703Y-94225722D01*
G37*
G04 #@! TD.AperFunction*
G04 #@! TA.AperFunction,SMDPad,CuDef*
G36*
X174154703Y-94225722D02*
G01*
X174169264Y-94227882D01*
X174183543Y-94231459D01*
X174197403Y-94236418D01*
X174210710Y-94242712D01*
X174223336Y-94250280D01*
X174235159Y-94259048D01*
X174246066Y-94268934D01*
X174255952Y-94279841D01*
X174264720Y-94291664D01*
X174272288Y-94304290D01*
X174278582Y-94317597D01*
X174283541Y-94331457D01*
X174287118Y-94345736D01*
X174289278Y-94360297D01*
X174290000Y-94375000D01*
X174290000Y-96125000D01*
X174289278Y-96139703D01*
X174287118Y-96154264D01*
X174283541Y-96168543D01*
X174278582Y-96182403D01*
X174272288Y-96195710D01*
X174264720Y-96208336D01*
X174255952Y-96220159D01*
X174246066Y-96231066D01*
X174235159Y-96240952D01*
X174223336Y-96249720D01*
X174210710Y-96257288D01*
X174197403Y-96263582D01*
X174183543Y-96268541D01*
X174169264Y-96272118D01*
X174154703Y-96274278D01*
X174140000Y-96275000D01*
X173840000Y-96275000D01*
X173825297Y-96274278D01*
X173810736Y-96272118D01*
X173796457Y-96268541D01*
X173782597Y-96263582D01*
X173769290Y-96257288D01*
X173756664Y-96249720D01*
X173744841Y-96240952D01*
X173733934Y-96231066D01*
X173724048Y-96220159D01*
X173715280Y-96208336D01*
X173707712Y-96195710D01*
X173701418Y-96182403D01*
X173696459Y-96168543D01*
X173692882Y-96154264D01*
X173690722Y-96139703D01*
X173690000Y-96125000D01*
X173690000Y-94375000D01*
X173690722Y-94360297D01*
X173692882Y-94345736D01*
X173696459Y-94331457D01*
X173701418Y-94317597D01*
X173707712Y-94304290D01*
X173715280Y-94291664D01*
X173724048Y-94279841D01*
X173733934Y-94268934D01*
X173744841Y-94259048D01*
X173756664Y-94250280D01*
X173769290Y-94242712D01*
X173782597Y-94236418D01*
X173796457Y-94231459D01*
X173810736Y-94227882D01*
X173825297Y-94225722D01*
X173840000Y-94225000D01*
X174140000Y-94225000D01*
X174154703Y-94225722D01*
G37*
G04 #@! TD.AperFunction*
G04 #@! TA.AperFunction,SMDPad,CuDef*
G36*
X175424703Y-94225722D02*
G01*
X175439264Y-94227882D01*
X175453543Y-94231459D01*
X175467403Y-94236418D01*
X175480710Y-94242712D01*
X175493336Y-94250280D01*
X175505159Y-94259048D01*
X175516066Y-94268934D01*
X175525952Y-94279841D01*
X175534720Y-94291664D01*
X175542288Y-94304290D01*
X175548582Y-94317597D01*
X175553541Y-94331457D01*
X175557118Y-94345736D01*
X175559278Y-94360297D01*
X175560000Y-94375000D01*
X175560000Y-96125000D01*
X175559278Y-96139703D01*
X175557118Y-96154264D01*
X175553541Y-96168543D01*
X175548582Y-96182403D01*
X175542288Y-96195710D01*
X175534720Y-96208336D01*
X175525952Y-96220159D01*
X175516066Y-96231066D01*
X175505159Y-96240952D01*
X175493336Y-96249720D01*
X175480710Y-96257288D01*
X175467403Y-96263582D01*
X175453543Y-96268541D01*
X175439264Y-96272118D01*
X175424703Y-96274278D01*
X175410000Y-96275000D01*
X175110000Y-96275000D01*
X175095297Y-96274278D01*
X175080736Y-96272118D01*
X175066457Y-96268541D01*
X175052597Y-96263582D01*
X175039290Y-96257288D01*
X175026664Y-96249720D01*
X175014841Y-96240952D01*
X175003934Y-96231066D01*
X174994048Y-96220159D01*
X174985280Y-96208336D01*
X174977712Y-96195710D01*
X174971418Y-96182403D01*
X174966459Y-96168543D01*
X174962882Y-96154264D01*
X174960722Y-96139703D01*
X174960000Y-96125000D01*
X174960000Y-94375000D01*
X174960722Y-94360297D01*
X174962882Y-94345736D01*
X174966459Y-94331457D01*
X174971418Y-94317597D01*
X174977712Y-94304290D01*
X174985280Y-94291664D01*
X174994048Y-94279841D01*
X175003934Y-94268934D01*
X175014841Y-94259048D01*
X175026664Y-94250280D01*
X175039290Y-94242712D01*
X175052597Y-94236418D01*
X175066457Y-94231459D01*
X175080736Y-94227882D01*
X175095297Y-94225722D01*
X175110000Y-94225000D01*
X175410000Y-94225000D01*
X175424703Y-94225722D01*
G37*
G04 #@! TD.AperFunction*
G04 #@! TA.AperFunction,SMDPad,CuDef*
G36*
X176694703Y-94225722D02*
G01*
X176709264Y-94227882D01*
X176723543Y-94231459D01*
X176737403Y-94236418D01*
X176750710Y-94242712D01*
X176763336Y-94250280D01*
X176775159Y-94259048D01*
X176786066Y-94268934D01*
X176795952Y-94279841D01*
X176804720Y-94291664D01*
X176812288Y-94304290D01*
X176818582Y-94317597D01*
X176823541Y-94331457D01*
X176827118Y-94345736D01*
X176829278Y-94360297D01*
X176830000Y-94375000D01*
X176830000Y-96125000D01*
X176829278Y-96139703D01*
X176827118Y-96154264D01*
X176823541Y-96168543D01*
X176818582Y-96182403D01*
X176812288Y-96195710D01*
X176804720Y-96208336D01*
X176795952Y-96220159D01*
X176786066Y-96231066D01*
X176775159Y-96240952D01*
X176763336Y-96249720D01*
X176750710Y-96257288D01*
X176737403Y-96263582D01*
X176723543Y-96268541D01*
X176709264Y-96272118D01*
X176694703Y-96274278D01*
X176680000Y-96275000D01*
X176380000Y-96275000D01*
X176365297Y-96274278D01*
X176350736Y-96272118D01*
X176336457Y-96268541D01*
X176322597Y-96263582D01*
X176309290Y-96257288D01*
X176296664Y-96249720D01*
X176284841Y-96240952D01*
X176273934Y-96231066D01*
X176264048Y-96220159D01*
X176255280Y-96208336D01*
X176247712Y-96195710D01*
X176241418Y-96182403D01*
X176236459Y-96168543D01*
X176232882Y-96154264D01*
X176230722Y-96139703D01*
X176230000Y-96125000D01*
X176230000Y-94375000D01*
X176230722Y-94360297D01*
X176232882Y-94345736D01*
X176236459Y-94331457D01*
X176241418Y-94317597D01*
X176247712Y-94304290D01*
X176255280Y-94291664D01*
X176264048Y-94279841D01*
X176273934Y-94268934D01*
X176284841Y-94259048D01*
X176296664Y-94250280D01*
X176309290Y-94242712D01*
X176322597Y-94236418D01*
X176336457Y-94231459D01*
X176350736Y-94227882D01*
X176365297Y-94225722D01*
X176380000Y-94225000D01*
X176680000Y-94225000D01*
X176694703Y-94225722D01*
G37*
G04 #@! TD.AperFunction*
G04 #@! TA.AperFunction,SMDPad,CuDef*
G36*
X177964703Y-94225722D02*
G01*
X177979264Y-94227882D01*
X177993543Y-94231459D01*
X178007403Y-94236418D01*
X178020710Y-94242712D01*
X178033336Y-94250280D01*
X178045159Y-94259048D01*
X178056066Y-94268934D01*
X178065952Y-94279841D01*
X178074720Y-94291664D01*
X178082288Y-94304290D01*
X178088582Y-94317597D01*
X178093541Y-94331457D01*
X178097118Y-94345736D01*
X178099278Y-94360297D01*
X178100000Y-94375000D01*
X178100000Y-96125000D01*
X178099278Y-96139703D01*
X178097118Y-96154264D01*
X178093541Y-96168543D01*
X178088582Y-96182403D01*
X178082288Y-96195710D01*
X178074720Y-96208336D01*
X178065952Y-96220159D01*
X178056066Y-96231066D01*
X178045159Y-96240952D01*
X178033336Y-96249720D01*
X178020710Y-96257288D01*
X178007403Y-96263582D01*
X177993543Y-96268541D01*
X177979264Y-96272118D01*
X177964703Y-96274278D01*
X177950000Y-96275000D01*
X177650000Y-96275000D01*
X177635297Y-96274278D01*
X177620736Y-96272118D01*
X177606457Y-96268541D01*
X177592597Y-96263582D01*
X177579290Y-96257288D01*
X177566664Y-96249720D01*
X177554841Y-96240952D01*
X177543934Y-96231066D01*
X177534048Y-96220159D01*
X177525280Y-96208336D01*
X177517712Y-96195710D01*
X177511418Y-96182403D01*
X177506459Y-96168543D01*
X177502882Y-96154264D01*
X177500722Y-96139703D01*
X177500000Y-96125000D01*
X177500000Y-94375000D01*
X177500722Y-94360297D01*
X177502882Y-94345736D01*
X177506459Y-94331457D01*
X177511418Y-94317597D01*
X177517712Y-94304290D01*
X177525280Y-94291664D01*
X177534048Y-94279841D01*
X177543934Y-94268934D01*
X177554841Y-94259048D01*
X177566664Y-94250280D01*
X177579290Y-94242712D01*
X177592597Y-94236418D01*
X177606457Y-94231459D01*
X177620736Y-94227882D01*
X177635297Y-94225722D01*
X177650000Y-94225000D01*
X177950000Y-94225000D01*
X177964703Y-94225722D01*
G37*
G04 #@! TD.AperFunction*
G04 #@! TA.AperFunction,SMDPad,CuDef*
G36*
X179234703Y-94225722D02*
G01*
X179249264Y-94227882D01*
X179263543Y-94231459D01*
X179277403Y-94236418D01*
X179290710Y-94242712D01*
X179303336Y-94250280D01*
X179315159Y-94259048D01*
X179326066Y-94268934D01*
X179335952Y-94279841D01*
X179344720Y-94291664D01*
X179352288Y-94304290D01*
X179358582Y-94317597D01*
X179363541Y-94331457D01*
X179367118Y-94345736D01*
X179369278Y-94360297D01*
X179370000Y-94375000D01*
X179370000Y-96125000D01*
X179369278Y-96139703D01*
X179367118Y-96154264D01*
X179363541Y-96168543D01*
X179358582Y-96182403D01*
X179352288Y-96195710D01*
X179344720Y-96208336D01*
X179335952Y-96220159D01*
X179326066Y-96231066D01*
X179315159Y-96240952D01*
X179303336Y-96249720D01*
X179290710Y-96257288D01*
X179277403Y-96263582D01*
X179263543Y-96268541D01*
X179249264Y-96272118D01*
X179234703Y-96274278D01*
X179220000Y-96275000D01*
X178920000Y-96275000D01*
X178905297Y-96274278D01*
X178890736Y-96272118D01*
X178876457Y-96268541D01*
X178862597Y-96263582D01*
X178849290Y-96257288D01*
X178836664Y-96249720D01*
X178824841Y-96240952D01*
X178813934Y-96231066D01*
X178804048Y-96220159D01*
X178795280Y-96208336D01*
X178787712Y-96195710D01*
X178781418Y-96182403D01*
X178776459Y-96168543D01*
X178772882Y-96154264D01*
X178770722Y-96139703D01*
X178770000Y-96125000D01*
X178770000Y-94375000D01*
X178770722Y-94360297D01*
X178772882Y-94345736D01*
X178776459Y-94331457D01*
X178781418Y-94317597D01*
X178787712Y-94304290D01*
X178795280Y-94291664D01*
X178804048Y-94279841D01*
X178813934Y-94268934D01*
X178824841Y-94259048D01*
X178836664Y-94250280D01*
X178849290Y-94242712D01*
X178862597Y-94236418D01*
X178876457Y-94231459D01*
X178890736Y-94227882D01*
X178905297Y-94225722D01*
X178920000Y-94225000D01*
X179220000Y-94225000D01*
X179234703Y-94225722D01*
G37*
G04 #@! TD.AperFunction*
G04 #@! TA.AperFunction,SMDPad,CuDef*
G36*
X180504703Y-94225722D02*
G01*
X180519264Y-94227882D01*
X180533543Y-94231459D01*
X180547403Y-94236418D01*
X180560710Y-94242712D01*
X180573336Y-94250280D01*
X180585159Y-94259048D01*
X180596066Y-94268934D01*
X180605952Y-94279841D01*
X180614720Y-94291664D01*
X180622288Y-94304290D01*
X180628582Y-94317597D01*
X180633541Y-94331457D01*
X180637118Y-94345736D01*
X180639278Y-94360297D01*
X180640000Y-94375000D01*
X180640000Y-96125000D01*
X180639278Y-96139703D01*
X180637118Y-96154264D01*
X180633541Y-96168543D01*
X180628582Y-96182403D01*
X180622288Y-96195710D01*
X180614720Y-96208336D01*
X180605952Y-96220159D01*
X180596066Y-96231066D01*
X180585159Y-96240952D01*
X180573336Y-96249720D01*
X180560710Y-96257288D01*
X180547403Y-96263582D01*
X180533543Y-96268541D01*
X180519264Y-96272118D01*
X180504703Y-96274278D01*
X180490000Y-96275000D01*
X180190000Y-96275000D01*
X180175297Y-96274278D01*
X180160736Y-96272118D01*
X180146457Y-96268541D01*
X180132597Y-96263582D01*
X180119290Y-96257288D01*
X180106664Y-96249720D01*
X180094841Y-96240952D01*
X180083934Y-96231066D01*
X180074048Y-96220159D01*
X180065280Y-96208336D01*
X180057712Y-96195710D01*
X180051418Y-96182403D01*
X180046459Y-96168543D01*
X180042882Y-96154264D01*
X180040722Y-96139703D01*
X180040000Y-96125000D01*
X180040000Y-94375000D01*
X180040722Y-94360297D01*
X180042882Y-94345736D01*
X180046459Y-94331457D01*
X180051418Y-94317597D01*
X180057712Y-94304290D01*
X180065280Y-94291664D01*
X180074048Y-94279841D01*
X180083934Y-94268934D01*
X180094841Y-94259048D01*
X180106664Y-94250280D01*
X180119290Y-94242712D01*
X180132597Y-94236418D01*
X180146457Y-94231459D01*
X180160736Y-94227882D01*
X180175297Y-94225722D01*
X180190000Y-94225000D01*
X180490000Y-94225000D01*
X180504703Y-94225722D01*
G37*
G04 #@! TD.AperFunction*
G04 #@! TA.AperFunction,SMDPad,CuDef*
G36*
X180504703Y-84925722D02*
G01*
X180519264Y-84927882D01*
X180533543Y-84931459D01*
X180547403Y-84936418D01*
X180560710Y-84942712D01*
X180573336Y-84950280D01*
X180585159Y-84959048D01*
X180596066Y-84968934D01*
X180605952Y-84979841D01*
X180614720Y-84991664D01*
X180622288Y-85004290D01*
X180628582Y-85017597D01*
X180633541Y-85031457D01*
X180637118Y-85045736D01*
X180639278Y-85060297D01*
X180640000Y-85075000D01*
X180640000Y-86825000D01*
X180639278Y-86839703D01*
X180637118Y-86854264D01*
X180633541Y-86868543D01*
X180628582Y-86882403D01*
X180622288Y-86895710D01*
X180614720Y-86908336D01*
X180605952Y-86920159D01*
X180596066Y-86931066D01*
X180585159Y-86940952D01*
X180573336Y-86949720D01*
X180560710Y-86957288D01*
X180547403Y-86963582D01*
X180533543Y-86968541D01*
X180519264Y-86972118D01*
X180504703Y-86974278D01*
X180490000Y-86975000D01*
X180190000Y-86975000D01*
X180175297Y-86974278D01*
X180160736Y-86972118D01*
X180146457Y-86968541D01*
X180132597Y-86963582D01*
X180119290Y-86957288D01*
X180106664Y-86949720D01*
X180094841Y-86940952D01*
X180083934Y-86931066D01*
X180074048Y-86920159D01*
X180065280Y-86908336D01*
X180057712Y-86895710D01*
X180051418Y-86882403D01*
X180046459Y-86868543D01*
X180042882Y-86854264D01*
X180040722Y-86839703D01*
X180040000Y-86825000D01*
X180040000Y-85075000D01*
X180040722Y-85060297D01*
X180042882Y-85045736D01*
X180046459Y-85031457D01*
X180051418Y-85017597D01*
X180057712Y-85004290D01*
X180065280Y-84991664D01*
X180074048Y-84979841D01*
X180083934Y-84968934D01*
X180094841Y-84959048D01*
X180106664Y-84950280D01*
X180119290Y-84942712D01*
X180132597Y-84936418D01*
X180146457Y-84931459D01*
X180160736Y-84927882D01*
X180175297Y-84925722D01*
X180190000Y-84925000D01*
X180490000Y-84925000D01*
X180504703Y-84925722D01*
G37*
G04 #@! TD.AperFunction*
G04 #@! TA.AperFunction,SMDPad,CuDef*
G36*
X179234703Y-84925722D02*
G01*
X179249264Y-84927882D01*
X179263543Y-84931459D01*
X179277403Y-84936418D01*
X179290710Y-84942712D01*
X179303336Y-84950280D01*
X179315159Y-84959048D01*
X179326066Y-84968934D01*
X179335952Y-84979841D01*
X179344720Y-84991664D01*
X179352288Y-85004290D01*
X179358582Y-85017597D01*
X179363541Y-85031457D01*
X179367118Y-85045736D01*
X179369278Y-85060297D01*
X179370000Y-85075000D01*
X179370000Y-86825000D01*
X179369278Y-86839703D01*
X179367118Y-86854264D01*
X179363541Y-86868543D01*
X179358582Y-86882403D01*
X179352288Y-86895710D01*
X179344720Y-86908336D01*
X179335952Y-86920159D01*
X179326066Y-86931066D01*
X179315159Y-86940952D01*
X179303336Y-86949720D01*
X179290710Y-86957288D01*
X179277403Y-86963582D01*
X179263543Y-86968541D01*
X179249264Y-86972118D01*
X179234703Y-86974278D01*
X179220000Y-86975000D01*
X178920000Y-86975000D01*
X178905297Y-86974278D01*
X178890736Y-86972118D01*
X178876457Y-86968541D01*
X178862597Y-86963582D01*
X178849290Y-86957288D01*
X178836664Y-86949720D01*
X178824841Y-86940952D01*
X178813934Y-86931066D01*
X178804048Y-86920159D01*
X178795280Y-86908336D01*
X178787712Y-86895710D01*
X178781418Y-86882403D01*
X178776459Y-86868543D01*
X178772882Y-86854264D01*
X178770722Y-86839703D01*
X178770000Y-86825000D01*
X178770000Y-85075000D01*
X178770722Y-85060297D01*
X178772882Y-85045736D01*
X178776459Y-85031457D01*
X178781418Y-85017597D01*
X178787712Y-85004290D01*
X178795280Y-84991664D01*
X178804048Y-84979841D01*
X178813934Y-84968934D01*
X178824841Y-84959048D01*
X178836664Y-84950280D01*
X178849290Y-84942712D01*
X178862597Y-84936418D01*
X178876457Y-84931459D01*
X178890736Y-84927882D01*
X178905297Y-84925722D01*
X178920000Y-84925000D01*
X179220000Y-84925000D01*
X179234703Y-84925722D01*
G37*
G04 #@! TD.AperFunction*
G04 #@! TA.AperFunction,SMDPad,CuDef*
G36*
X177964703Y-84925722D02*
G01*
X177979264Y-84927882D01*
X177993543Y-84931459D01*
X178007403Y-84936418D01*
X178020710Y-84942712D01*
X178033336Y-84950280D01*
X178045159Y-84959048D01*
X178056066Y-84968934D01*
X178065952Y-84979841D01*
X178074720Y-84991664D01*
X178082288Y-85004290D01*
X178088582Y-85017597D01*
X178093541Y-85031457D01*
X178097118Y-85045736D01*
X178099278Y-85060297D01*
X178100000Y-85075000D01*
X178100000Y-86825000D01*
X178099278Y-86839703D01*
X178097118Y-86854264D01*
X178093541Y-86868543D01*
X178088582Y-86882403D01*
X178082288Y-86895710D01*
X178074720Y-86908336D01*
X178065952Y-86920159D01*
X178056066Y-86931066D01*
X178045159Y-86940952D01*
X178033336Y-86949720D01*
X178020710Y-86957288D01*
X178007403Y-86963582D01*
X177993543Y-86968541D01*
X177979264Y-86972118D01*
X177964703Y-86974278D01*
X177950000Y-86975000D01*
X177650000Y-86975000D01*
X177635297Y-86974278D01*
X177620736Y-86972118D01*
X177606457Y-86968541D01*
X177592597Y-86963582D01*
X177579290Y-86957288D01*
X177566664Y-86949720D01*
X177554841Y-86940952D01*
X177543934Y-86931066D01*
X177534048Y-86920159D01*
X177525280Y-86908336D01*
X177517712Y-86895710D01*
X177511418Y-86882403D01*
X177506459Y-86868543D01*
X177502882Y-86854264D01*
X177500722Y-86839703D01*
X177500000Y-86825000D01*
X177500000Y-85075000D01*
X177500722Y-85060297D01*
X177502882Y-85045736D01*
X177506459Y-85031457D01*
X177511418Y-85017597D01*
X177517712Y-85004290D01*
X177525280Y-84991664D01*
X177534048Y-84979841D01*
X177543934Y-84968934D01*
X177554841Y-84959048D01*
X177566664Y-84950280D01*
X177579290Y-84942712D01*
X177592597Y-84936418D01*
X177606457Y-84931459D01*
X177620736Y-84927882D01*
X177635297Y-84925722D01*
X177650000Y-84925000D01*
X177950000Y-84925000D01*
X177964703Y-84925722D01*
G37*
G04 #@! TD.AperFunction*
G04 #@! TA.AperFunction,SMDPad,CuDef*
G36*
X176694703Y-84925722D02*
G01*
X176709264Y-84927882D01*
X176723543Y-84931459D01*
X176737403Y-84936418D01*
X176750710Y-84942712D01*
X176763336Y-84950280D01*
X176775159Y-84959048D01*
X176786066Y-84968934D01*
X176795952Y-84979841D01*
X176804720Y-84991664D01*
X176812288Y-85004290D01*
X176818582Y-85017597D01*
X176823541Y-85031457D01*
X176827118Y-85045736D01*
X176829278Y-85060297D01*
X176830000Y-85075000D01*
X176830000Y-86825000D01*
X176829278Y-86839703D01*
X176827118Y-86854264D01*
X176823541Y-86868543D01*
X176818582Y-86882403D01*
X176812288Y-86895710D01*
X176804720Y-86908336D01*
X176795952Y-86920159D01*
X176786066Y-86931066D01*
X176775159Y-86940952D01*
X176763336Y-86949720D01*
X176750710Y-86957288D01*
X176737403Y-86963582D01*
X176723543Y-86968541D01*
X176709264Y-86972118D01*
X176694703Y-86974278D01*
X176680000Y-86975000D01*
X176380000Y-86975000D01*
X176365297Y-86974278D01*
X176350736Y-86972118D01*
X176336457Y-86968541D01*
X176322597Y-86963582D01*
X176309290Y-86957288D01*
X176296664Y-86949720D01*
X176284841Y-86940952D01*
X176273934Y-86931066D01*
X176264048Y-86920159D01*
X176255280Y-86908336D01*
X176247712Y-86895710D01*
X176241418Y-86882403D01*
X176236459Y-86868543D01*
X176232882Y-86854264D01*
X176230722Y-86839703D01*
X176230000Y-86825000D01*
X176230000Y-85075000D01*
X176230722Y-85060297D01*
X176232882Y-85045736D01*
X176236459Y-85031457D01*
X176241418Y-85017597D01*
X176247712Y-85004290D01*
X176255280Y-84991664D01*
X176264048Y-84979841D01*
X176273934Y-84968934D01*
X176284841Y-84959048D01*
X176296664Y-84950280D01*
X176309290Y-84942712D01*
X176322597Y-84936418D01*
X176336457Y-84931459D01*
X176350736Y-84927882D01*
X176365297Y-84925722D01*
X176380000Y-84925000D01*
X176680000Y-84925000D01*
X176694703Y-84925722D01*
G37*
G04 #@! TD.AperFunction*
G04 #@! TA.AperFunction,SMDPad,CuDef*
G36*
X175424703Y-84925722D02*
G01*
X175439264Y-84927882D01*
X175453543Y-84931459D01*
X175467403Y-84936418D01*
X175480710Y-84942712D01*
X175493336Y-84950280D01*
X175505159Y-84959048D01*
X175516066Y-84968934D01*
X175525952Y-84979841D01*
X175534720Y-84991664D01*
X175542288Y-85004290D01*
X175548582Y-85017597D01*
X175553541Y-85031457D01*
X175557118Y-85045736D01*
X175559278Y-85060297D01*
X175560000Y-85075000D01*
X175560000Y-86825000D01*
X175559278Y-86839703D01*
X175557118Y-86854264D01*
X175553541Y-86868543D01*
X175548582Y-86882403D01*
X175542288Y-86895710D01*
X175534720Y-86908336D01*
X175525952Y-86920159D01*
X175516066Y-86931066D01*
X175505159Y-86940952D01*
X175493336Y-86949720D01*
X175480710Y-86957288D01*
X175467403Y-86963582D01*
X175453543Y-86968541D01*
X175439264Y-86972118D01*
X175424703Y-86974278D01*
X175410000Y-86975000D01*
X175110000Y-86975000D01*
X175095297Y-86974278D01*
X175080736Y-86972118D01*
X175066457Y-86968541D01*
X175052597Y-86963582D01*
X175039290Y-86957288D01*
X175026664Y-86949720D01*
X175014841Y-86940952D01*
X175003934Y-86931066D01*
X174994048Y-86920159D01*
X174985280Y-86908336D01*
X174977712Y-86895710D01*
X174971418Y-86882403D01*
X174966459Y-86868543D01*
X174962882Y-86854264D01*
X174960722Y-86839703D01*
X174960000Y-86825000D01*
X174960000Y-85075000D01*
X174960722Y-85060297D01*
X174962882Y-85045736D01*
X174966459Y-85031457D01*
X174971418Y-85017597D01*
X174977712Y-85004290D01*
X174985280Y-84991664D01*
X174994048Y-84979841D01*
X175003934Y-84968934D01*
X175014841Y-84959048D01*
X175026664Y-84950280D01*
X175039290Y-84942712D01*
X175052597Y-84936418D01*
X175066457Y-84931459D01*
X175080736Y-84927882D01*
X175095297Y-84925722D01*
X175110000Y-84925000D01*
X175410000Y-84925000D01*
X175424703Y-84925722D01*
G37*
G04 #@! TD.AperFunction*
G04 #@! TA.AperFunction,SMDPad,CuDef*
G36*
X174154703Y-84925722D02*
G01*
X174169264Y-84927882D01*
X174183543Y-84931459D01*
X174197403Y-84936418D01*
X174210710Y-84942712D01*
X174223336Y-84950280D01*
X174235159Y-84959048D01*
X174246066Y-84968934D01*
X174255952Y-84979841D01*
X174264720Y-84991664D01*
X174272288Y-85004290D01*
X174278582Y-85017597D01*
X174283541Y-85031457D01*
X174287118Y-85045736D01*
X174289278Y-85060297D01*
X174290000Y-85075000D01*
X174290000Y-86825000D01*
X174289278Y-86839703D01*
X174287118Y-86854264D01*
X174283541Y-86868543D01*
X174278582Y-86882403D01*
X174272288Y-86895710D01*
X174264720Y-86908336D01*
X174255952Y-86920159D01*
X174246066Y-86931066D01*
X174235159Y-86940952D01*
X174223336Y-86949720D01*
X174210710Y-86957288D01*
X174197403Y-86963582D01*
X174183543Y-86968541D01*
X174169264Y-86972118D01*
X174154703Y-86974278D01*
X174140000Y-86975000D01*
X173840000Y-86975000D01*
X173825297Y-86974278D01*
X173810736Y-86972118D01*
X173796457Y-86968541D01*
X173782597Y-86963582D01*
X173769290Y-86957288D01*
X173756664Y-86949720D01*
X173744841Y-86940952D01*
X173733934Y-86931066D01*
X173724048Y-86920159D01*
X173715280Y-86908336D01*
X173707712Y-86895710D01*
X173701418Y-86882403D01*
X173696459Y-86868543D01*
X173692882Y-86854264D01*
X173690722Y-86839703D01*
X173690000Y-86825000D01*
X173690000Y-85075000D01*
X173690722Y-85060297D01*
X173692882Y-85045736D01*
X173696459Y-85031457D01*
X173701418Y-85017597D01*
X173707712Y-85004290D01*
X173715280Y-84991664D01*
X173724048Y-84979841D01*
X173733934Y-84968934D01*
X173744841Y-84959048D01*
X173756664Y-84950280D01*
X173769290Y-84942712D01*
X173782597Y-84936418D01*
X173796457Y-84931459D01*
X173810736Y-84927882D01*
X173825297Y-84925722D01*
X173840000Y-84925000D01*
X174140000Y-84925000D01*
X174154703Y-84925722D01*
G37*
G04 #@! TD.AperFunction*
G04 #@! TA.AperFunction,SMDPad,CuDef*
G36*
X172884703Y-84925722D02*
G01*
X172899264Y-84927882D01*
X172913543Y-84931459D01*
X172927403Y-84936418D01*
X172940710Y-84942712D01*
X172953336Y-84950280D01*
X172965159Y-84959048D01*
X172976066Y-84968934D01*
X172985952Y-84979841D01*
X172994720Y-84991664D01*
X173002288Y-85004290D01*
X173008582Y-85017597D01*
X173013541Y-85031457D01*
X173017118Y-85045736D01*
X173019278Y-85060297D01*
X173020000Y-85075000D01*
X173020000Y-86825000D01*
X173019278Y-86839703D01*
X173017118Y-86854264D01*
X173013541Y-86868543D01*
X173008582Y-86882403D01*
X173002288Y-86895710D01*
X172994720Y-86908336D01*
X172985952Y-86920159D01*
X172976066Y-86931066D01*
X172965159Y-86940952D01*
X172953336Y-86949720D01*
X172940710Y-86957288D01*
X172927403Y-86963582D01*
X172913543Y-86968541D01*
X172899264Y-86972118D01*
X172884703Y-86974278D01*
X172870000Y-86975000D01*
X172570000Y-86975000D01*
X172555297Y-86974278D01*
X172540736Y-86972118D01*
X172526457Y-86968541D01*
X172512597Y-86963582D01*
X172499290Y-86957288D01*
X172486664Y-86949720D01*
X172474841Y-86940952D01*
X172463934Y-86931066D01*
X172454048Y-86920159D01*
X172445280Y-86908336D01*
X172437712Y-86895710D01*
X172431418Y-86882403D01*
X172426459Y-86868543D01*
X172422882Y-86854264D01*
X172420722Y-86839703D01*
X172420000Y-86825000D01*
X172420000Y-85075000D01*
X172420722Y-85060297D01*
X172422882Y-85045736D01*
X172426459Y-85031457D01*
X172431418Y-85017597D01*
X172437712Y-85004290D01*
X172445280Y-84991664D01*
X172454048Y-84979841D01*
X172463934Y-84968934D01*
X172474841Y-84959048D01*
X172486664Y-84950280D01*
X172499290Y-84942712D01*
X172512597Y-84936418D01*
X172526457Y-84931459D01*
X172540736Y-84927882D01*
X172555297Y-84925722D01*
X172570000Y-84925000D01*
X172870000Y-84925000D01*
X172884703Y-84925722D01*
G37*
G04 #@! TD.AperFunction*
G04 #@! TA.AperFunction,SMDPad,CuDef*
G36*
X171614703Y-84925722D02*
G01*
X171629264Y-84927882D01*
X171643543Y-84931459D01*
X171657403Y-84936418D01*
X171670710Y-84942712D01*
X171683336Y-84950280D01*
X171695159Y-84959048D01*
X171706066Y-84968934D01*
X171715952Y-84979841D01*
X171724720Y-84991664D01*
X171732288Y-85004290D01*
X171738582Y-85017597D01*
X171743541Y-85031457D01*
X171747118Y-85045736D01*
X171749278Y-85060297D01*
X171750000Y-85075000D01*
X171750000Y-86825000D01*
X171749278Y-86839703D01*
X171747118Y-86854264D01*
X171743541Y-86868543D01*
X171738582Y-86882403D01*
X171732288Y-86895710D01*
X171724720Y-86908336D01*
X171715952Y-86920159D01*
X171706066Y-86931066D01*
X171695159Y-86940952D01*
X171683336Y-86949720D01*
X171670710Y-86957288D01*
X171657403Y-86963582D01*
X171643543Y-86968541D01*
X171629264Y-86972118D01*
X171614703Y-86974278D01*
X171600000Y-86975000D01*
X171300000Y-86975000D01*
X171285297Y-86974278D01*
X171270736Y-86972118D01*
X171256457Y-86968541D01*
X171242597Y-86963582D01*
X171229290Y-86957288D01*
X171216664Y-86949720D01*
X171204841Y-86940952D01*
X171193934Y-86931066D01*
X171184048Y-86920159D01*
X171175280Y-86908336D01*
X171167712Y-86895710D01*
X171161418Y-86882403D01*
X171156459Y-86868543D01*
X171152882Y-86854264D01*
X171150722Y-86839703D01*
X171150000Y-86825000D01*
X171150000Y-85075000D01*
X171150722Y-85060297D01*
X171152882Y-85045736D01*
X171156459Y-85031457D01*
X171161418Y-85017597D01*
X171167712Y-85004290D01*
X171175280Y-84991664D01*
X171184048Y-84979841D01*
X171193934Y-84968934D01*
X171204841Y-84959048D01*
X171216664Y-84950280D01*
X171229290Y-84942712D01*
X171242597Y-84936418D01*
X171256457Y-84931459D01*
X171270736Y-84927882D01*
X171285297Y-84925722D01*
X171300000Y-84925000D01*
X171600000Y-84925000D01*
X171614703Y-84925722D01*
G37*
G04 #@! TD.AperFunction*
G04 #@! TA.AperFunction,SMDPad,CuDef*
G36*
X170344703Y-84925722D02*
G01*
X170359264Y-84927882D01*
X170373543Y-84931459D01*
X170387403Y-84936418D01*
X170400710Y-84942712D01*
X170413336Y-84950280D01*
X170425159Y-84959048D01*
X170436066Y-84968934D01*
X170445952Y-84979841D01*
X170454720Y-84991664D01*
X170462288Y-85004290D01*
X170468582Y-85017597D01*
X170473541Y-85031457D01*
X170477118Y-85045736D01*
X170479278Y-85060297D01*
X170480000Y-85075000D01*
X170480000Y-86825000D01*
X170479278Y-86839703D01*
X170477118Y-86854264D01*
X170473541Y-86868543D01*
X170468582Y-86882403D01*
X170462288Y-86895710D01*
X170454720Y-86908336D01*
X170445952Y-86920159D01*
X170436066Y-86931066D01*
X170425159Y-86940952D01*
X170413336Y-86949720D01*
X170400710Y-86957288D01*
X170387403Y-86963582D01*
X170373543Y-86968541D01*
X170359264Y-86972118D01*
X170344703Y-86974278D01*
X170330000Y-86975000D01*
X170030000Y-86975000D01*
X170015297Y-86974278D01*
X170000736Y-86972118D01*
X169986457Y-86968541D01*
X169972597Y-86963582D01*
X169959290Y-86957288D01*
X169946664Y-86949720D01*
X169934841Y-86940952D01*
X169923934Y-86931066D01*
X169914048Y-86920159D01*
X169905280Y-86908336D01*
X169897712Y-86895710D01*
X169891418Y-86882403D01*
X169886459Y-86868543D01*
X169882882Y-86854264D01*
X169880722Y-86839703D01*
X169880000Y-86825000D01*
X169880000Y-85075000D01*
X169880722Y-85060297D01*
X169882882Y-85045736D01*
X169886459Y-85031457D01*
X169891418Y-85017597D01*
X169897712Y-85004290D01*
X169905280Y-84991664D01*
X169914048Y-84979841D01*
X169923934Y-84968934D01*
X169934841Y-84959048D01*
X169946664Y-84950280D01*
X169959290Y-84942712D01*
X169972597Y-84936418D01*
X169986457Y-84931459D01*
X170000736Y-84927882D01*
X170015297Y-84925722D01*
X170030000Y-84925000D01*
X170330000Y-84925000D01*
X170344703Y-84925722D01*
G37*
G04 #@! TD.AperFunction*
G04 #@! TA.AperFunction,SMDPad,CuDef*
G36*
X169074703Y-84925722D02*
G01*
X169089264Y-84927882D01*
X169103543Y-84931459D01*
X169117403Y-84936418D01*
X169130710Y-84942712D01*
X169143336Y-84950280D01*
X169155159Y-84959048D01*
X169166066Y-84968934D01*
X169175952Y-84979841D01*
X169184720Y-84991664D01*
X169192288Y-85004290D01*
X169198582Y-85017597D01*
X169203541Y-85031457D01*
X169207118Y-85045736D01*
X169209278Y-85060297D01*
X169210000Y-85075000D01*
X169210000Y-86825000D01*
X169209278Y-86839703D01*
X169207118Y-86854264D01*
X169203541Y-86868543D01*
X169198582Y-86882403D01*
X169192288Y-86895710D01*
X169184720Y-86908336D01*
X169175952Y-86920159D01*
X169166066Y-86931066D01*
X169155159Y-86940952D01*
X169143336Y-86949720D01*
X169130710Y-86957288D01*
X169117403Y-86963582D01*
X169103543Y-86968541D01*
X169089264Y-86972118D01*
X169074703Y-86974278D01*
X169060000Y-86975000D01*
X168760000Y-86975000D01*
X168745297Y-86974278D01*
X168730736Y-86972118D01*
X168716457Y-86968541D01*
X168702597Y-86963582D01*
X168689290Y-86957288D01*
X168676664Y-86949720D01*
X168664841Y-86940952D01*
X168653934Y-86931066D01*
X168644048Y-86920159D01*
X168635280Y-86908336D01*
X168627712Y-86895710D01*
X168621418Y-86882403D01*
X168616459Y-86868543D01*
X168612882Y-86854264D01*
X168610722Y-86839703D01*
X168610000Y-86825000D01*
X168610000Y-85075000D01*
X168610722Y-85060297D01*
X168612882Y-85045736D01*
X168616459Y-85031457D01*
X168621418Y-85017597D01*
X168627712Y-85004290D01*
X168635280Y-84991664D01*
X168644048Y-84979841D01*
X168653934Y-84968934D01*
X168664841Y-84959048D01*
X168676664Y-84950280D01*
X168689290Y-84942712D01*
X168702597Y-84936418D01*
X168716457Y-84931459D01*
X168730736Y-84927882D01*
X168745297Y-84925722D01*
X168760000Y-84925000D01*
X169060000Y-84925000D01*
X169074703Y-84925722D01*
G37*
G04 #@! TD.AperFunction*
D11*
X147760000Y-72594500D03*
D10*
X150300000Y-72594500D03*
X147760000Y-70054500D03*
D11*
X150300000Y-70054500D03*
D17*
X120015000Y-97790000D03*
D18*
X122515000Y-97790000D03*
D19*
X108585000Y-87630000D03*
X108595160Y-88866980D03*
D20*
X180340000Y-91141600D03*
X150150900Y-95266900D03*
X120413200Y-82871800D03*
X144180400Y-72427000D03*
X139131900Y-89692700D03*
X160335000Y-89517600D03*
X140321100Y-82608500D03*
X140691600Y-90326900D03*
X169507600Y-98764400D03*
X145136000Y-81355200D03*
X170494200Y-98002500D03*
X150663500Y-79684300D03*
X144918000Y-71181900D03*
X166092300Y-91819200D03*
X141050200Y-82157800D03*
X169532900Y-102721100D03*
X179108400Y-103691900D03*
X170574200Y-103477500D03*
X158164700Y-100451800D03*
X175089000Y-104859300D03*
X172824800Y-104859300D03*
X166019500Y-104983400D03*
X153178100Y-87839100D03*
X154254500Y-99975300D03*
X164670400Y-104074200D03*
X164016000Y-99244800D03*
X163092300Y-105035900D03*
X163422500Y-98706300D03*
X157388700Y-82885500D03*
X152582100Y-87303000D03*
X151875300Y-87891500D03*
X154192600Y-102973000D03*
X156252100Y-97405600D03*
X155695100Y-105316400D03*
X156810900Y-96356800D03*
X155981400Y-95717600D03*
X153098300Y-104869200D03*
X155174300Y-92226600D03*
X153003800Y-99700000D03*
X151010300Y-103446400D03*
X152555200Y-98899700D03*
X147195000Y-104827600D03*
X144109300Y-104851600D03*
X141748700Y-105031000D03*
X139053300Y-104875600D03*
X171188000Y-88340300D03*
X149131900Y-88520800D03*
X169636100Y-80975900D03*
X183146500Y-84588600D03*
X159527400Y-91224800D03*
X147067500Y-91929800D03*
X180707500Y-96920400D03*
X169114300Y-83776500D03*
X178948700Y-81197800D03*
X165046400Y-91077700D03*
X153137000Y-82225900D03*
X167824700Y-80009200D03*
X120694600Y-56824500D03*
X118766000Y-54053000D03*
X118767300Y-52353000D03*
X154901000Y-71561100D03*
X156034700Y-71561200D03*
X156694300Y-73712500D03*
X167125200Y-95111600D03*
X166634300Y-87321700D03*
X165587100Y-81335100D03*
X153344200Y-81425500D03*
X109482100Y-89898000D03*
D21*
X155360000Y-75154500D02*
X156535300Y-75154500D01*
X160440000Y-75154500D02*
X159264700Y-75154500D01*
X159264700Y-75154500D02*
X159264700Y-74787200D01*
X159264700Y-74787200D02*
X158456600Y-73979100D01*
X158456600Y-73979100D02*
X157413100Y-73979100D01*
X157413100Y-73979100D02*
X156535300Y-74856900D01*
X156535300Y-74856900D02*
X156535300Y-75154500D01*
X180340000Y-95250000D02*
X180340000Y-91141600D01*
X180760000Y-75154500D02*
X179584700Y-75154500D01*
X173140000Y-75154500D02*
X174315300Y-75154500D01*
X174315300Y-75154500D02*
X174315300Y-74787200D01*
X174315300Y-74787200D02*
X175123300Y-73979200D01*
X175123300Y-73979200D02*
X178776800Y-73979200D01*
X178776800Y-73979200D02*
X179584700Y-74787100D01*
X179584700Y-74787100D02*
X179584700Y-75154500D01*
X180760000Y-75154500D02*
X182124700Y-76519200D01*
X182124700Y-76519200D02*
X183856800Y-76519200D01*
X183856800Y-76519200D02*
X184664700Y-77327100D01*
X184664700Y-77327100D02*
X184664700Y-77694500D01*
X150150900Y-95266900D02*
X148828100Y-95266900D01*
X148828100Y-95266900D02*
X148590000Y-95505000D01*
X120413200Y-82871800D02*
X125590500Y-77694500D01*
X125590500Y-77694500D02*
X147740000Y-77694500D01*
X120413200Y-82871800D02*
X118195000Y-85090000D01*
X185840000Y-77694500D02*
X185840000Y-76519200D01*
X190920000Y-75154500D02*
X189744700Y-75154500D01*
X189744700Y-75154500D02*
X189744700Y-74787200D01*
X189744700Y-74787200D02*
X188929500Y-73972000D01*
X188929500Y-73972000D02*
X187898500Y-73972000D01*
X187898500Y-73972000D02*
X187015300Y-74855200D01*
X187015300Y-74855200D02*
X187015300Y-75711300D01*
X187015300Y-75711300D02*
X186207400Y-76519200D01*
X186207400Y-76519200D02*
X185840000Y-76519200D01*
X185840000Y-77694500D02*
X184664700Y-77694500D01*
X147740000Y-77694500D02*
X148915300Y-77694500D01*
X155360000Y-75154500D02*
X154184700Y-75154500D01*
X154184700Y-75154500D02*
X154184700Y-75521900D01*
X154184700Y-75521900D02*
X153187400Y-76519200D01*
X153187400Y-76519200D02*
X149723200Y-76519200D01*
X149723200Y-76519200D02*
X148915300Y-77327100D01*
X148915300Y-77327100D02*
X148915300Y-77694500D01*
X173990000Y-95250000D02*
X173990000Y-94810400D01*
X173990000Y-94810400D02*
X175780400Y-93020000D01*
X175780400Y-93020000D02*
X176769800Y-93020000D01*
X176769800Y-93020000D02*
X190920000Y-78869800D01*
X108331000Y-55308500D02*
X109506300Y-55308500D01*
X109506300Y-55308500D02*
X126624800Y-72427000D01*
X126624800Y-72427000D02*
X144180400Y-72427000D01*
X190920000Y-77694500D02*
X190920000Y-78869800D01*
X176530000Y-85950000D02*
X176530000Y-85513800D01*
X176530000Y-85513800D02*
X181350900Y-80692900D01*
X181350900Y-80692900D02*
X185381600Y-80692900D01*
X185381600Y-80692900D02*
X188380000Y-77694500D01*
X160335000Y-89517600D02*
X161905600Y-87947000D01*
X161905600Y-87947000D02*
X169885800Y-87947000D01*
X169885800Y-87947000D02*
X171450000Y-86382800D01*
X171450000Y-86382800D02*
X171450000Y-85950000D01*
X160335000Y-89517600D02*
X160159900Y-89692700D01*
X160159900Y-89692700D02*
X139131900Y-89692700D01*
X140691600Y-90326900D02*
X140875500Y-90143000D01*
X140875500Y-90143000D02*
X162549100Y-90143000D01*
X162549100Y-90143000D02*
X164294800Y-88397300D01*
X164294800Y-88397300D02*
X170211800Y-88397300D01*
X170211800Y-88397300D02*
X170894100Y-87715000D01*
X170894100Y-87715000D02*
X171407500Y-87715000D01*
X171407500Y-87715000D02*
X172085100Y-87037400D01*
X172085100Y-87037400D02*
X172085100Y-84833200D01*
X172085100Y-84833200D02*
X172319300Y-84599000D01*
X172319300Y-84599000D02*
X173081200Y-84599000D01*
X173081200Y-84599000D02*
X173990000Y-85507800D01*
X173990000Y-85507800D02*
X173990000Y-85950000D01*
X165520000Y-76329800D02*
X165152600Y-76329800D01*
X165152600Y-76329800D02*
X164344700Y-77137700D01*
X164344700Y-77137700D02*
X164344700Y-77992200D01*
X164344700Y-77992200D02*
X161987000Y-80349900D01*
X161987000Y-80349900D02*
X152836700Y-80349900D01*
X152836700Y-80349900D02*
X151907500Y-81279100D01*
X151907500Y-81279100D02*
X151907500Y-81279200D01*
X151907500Y-81279200D02*
X151398100Y-81788600D01*
X151398100Y-81788600D02*
X145761400Y-81788600D01*
X145761400Y-81788600D02*
X144941500Y-82608500D01*
X144941500Y-82608500D02*
X141483900Y-82608500D01*
X141483900Y-82608500D02*
X141309300Y-82783100D01*
X141309300Y-82783100D02*
X140495700Y-82783100D01*
X140495700Y-82783100D02*
X140321100Y-82608500D01*
X165520000Y-75154500D02*
X165520000Y-76329800D01*
X161804700Y-77694500D02*
X161804700Y-78061800D01*
X161804700Y-78061800D02*
X159966900Y-79899600D01*
X159966900Y-79899600D02*
X152650100Y-79899600D01*
X152650100Y-79899600D02*
X151339500Y-81210200D01*
X151339500Y-81210200D02*
X151339500Y-81210300D01*
X151339500Y-81210300D02*
X145280900Y-81210300D01*
X145280900Y-81210300D02*
X145136000Y-81355200D01*
X176530000Y-95250000D02*
X176530000Y-96345000D01*
X176530000Y-96345000D02*
X174110600Y-98764400D01*
X174110600Y-98764400D02*
X169507600Y-98764400D01*
X162980000Y-77694500D02*
X161804700Y-77694500D01*
X179070000Y-95250000D02*
X179070000Y-94822800D01*
X179070000Y-94822800D02*
X178142900Y-93895700D01*
X178142900Y-93895700D02*
X176144800Y-93895700D01*
X176144800Y-93895700D02*
X175895000Y-94145500D01*
X175895000Y-94145500D02*
X175895000Y-96343100D01*
X175895000Y-96343100D02*
X174235600Y-98002500D01*
X174235600Y-98002500D02*
X170494200Y-98002500D01*
X161804700Y-75154500D02*
X161804700Y-75521900D01*
X161804700Y-75521900D02*
X160996800Y-76329800D01*
X160996800Y-76329800D02*
X157563700Y-76329800D01*
X157563700Y-76329800D02*
X156630000Y-77263500D01*
X156630000Y-77263500D02*
X156630000Y-78176200D01*
X156630000Y-78176200D02*
X155936300Y-78869900D01*
X155936300Y-78869900D02*
X151477900Y-78869900D01*
X151477900Y-78869900D02*
X150663500Y-79684300D01*
X162980000Y-75154500D02*
X161804700Y-75154500D01*
X171450000Y-95250000D02*
X171450000Y-94814600D01*
X171450000Y-94814600D02*
X173694900Y-92569700D01*
X173694900Y-92569700D02*
X176056000Y-92569700D01*
X176056000Y-92569700D02*
X189744600Y-78881100D01*
X189744600Y-78881100D02*
X189744600Y-77168900D01*
X189744600Y-77168900D02*
X190394300Y-76519200D01*
X190394300Y-76519200D02*
X191476800Y-76519200D01*
X144918000Y-71181900D02*
X147220800Y-68879100D01*
X147220800Y-68879100D02*
X151334700Y-68879100D01*
X151334700Y-68879100D02*
X154642100Y-72186500D01*
X154642100Y-72186500D02*
X156293800Y-72186500D01*
X156293800Y-72186500D02*
X156435500Y-72044800D01*
X156435500Y-72044800D02*
X189527200Y-72044800D01*
X189527200Y-72044800D02*
X192129200Y-74646800D01*
X192129200Y-74646800D02*
X192129200Y-75866800D01*
X192129200Y-75866800D02*
X191476800Y-76519200D01*
X144918000Y-71181900D02*
X127919700Y-71181900D01*
X127919700Y-71181900D02*
X109506300Y-52768500D01*
X191476800Y-76519200D02*
X192284700Y-77327100D01*
X192284700Y-77327100D02*
X192284700Y-77694500D01*
X193460000Y-77694500D02*
X192284700Y-77694500D01*
X108331000Y-52768500D02*
X109506300Y-52768500D01*
X179070000Y-85950000D02*
X179070000Y-86397800D01*
X179070000Y-86397800D02*
X175265400Y-90202400D01*
X175265400Y-90202400D02*
X173957300Y-90202400D01*
X173957300Y-90202400D02*
X172340500Y-91819200D01*
X172340500Y-91819200D02*
X166092300Y-91819200D01*
X159264700Y-77694500D02*
X159264700Y-78061800D01*
X159264700Y-78061800D02*
X157877200Y-79449300D01*
X157877200Y-79449300D02*
X152463500Y-79449300D01*
X152463500Y-79449300D02*
X151603200Y-80309600D01*
X151603200Y-80309600D02*
X142898400Y-80309600D01*
X142898400Y-80309600D02*
X141050200Y-82157800D01*
X160440000Y-77694500D02*
X159264700Y-77694500D01*
X179108400Y-103691900D02*
X178137600Y-102721100D01*
X178137600Y-102721100D02*
X169532900Y-102721100D01*
X180319800Y-109827400D02*
X180319800Y-105502100D01*
X180319800Y-105502100D02*
X178824200Y-105502100D01*
X178824200Y-105502100D02*
X176799600Y-103477500D01*
X176799600Y-103477500D02*
X170574200Y-103477500D01*
X158164700Y-100451800D02*
X162640200Y-100451800D01*
X162640200Y-100451800D02*
X164897600Y-102709200D01*
X164897600Y-102709200D02*
X165266600Y-102709200D01*
X165266600Y-102709200D02*
X166791300Y-104233900D01*
X166791300Y-104233900D02*
X176511600Y-104233900D01*
X176511600Y-104233900D02*
X177779800Y-105502100D01*
X177779800Y-109827400D02*
X177779800Y-105502100D01*
X175239800Y-105502100D02*
X175089000Y-105351300D01*
X175089000Y-105351300D02*
X175089000Y-104859300D01*
X175239800Y-109827400D02*
X175239800Y-105502100D01*
X172699800Y-105502100D02*
X172824800Y-105377100D01*
X172824800Y-105377100D02*
X172824800Y-104859300D01*
X172699800Y-109827400D02*
X172699800Y-105502100D01*
X166019500Y-104983400D02*
X164654200Y-104983400D01*
X164654200Y-104983400D02*
X162869100Y-103198300D01*
X162869100Y-103198300D02*
X158709600Y-103198300D01*
X158709600Y-103198300D02*
X156562300Y-101051000D01*
X156562300Y-101051000D02*
X148590900Y-101051000D01*
X148590900Y-101051000D02*
X144154600Y-96614700D01*
X144154600Y-96614700D02*
X144154600Y-94406400D01*
X144154600Y-94406400D02*
X143952800Y-94204600D01*
X143952800Y-94204600D02*
X143018100Y-94204600D01*
X143018100Y-94204600D02*
X142884600Y-94338100D01*
X142884600Y-94338100D02*
X142884600Y-96603600D01*
X142884600Y-96603600D02*
X142682900Y-96805300D01*
X142682900Y-96805300D02*
X140970000Y-96805300D01*
X140970000Y-95505000D02*
X140970000Y-96805300D01*
X153178100Y-87839100D02*
X153207400Y-87809800D01*
X153207400Y-87809800D02*
X153207400Y-87043900D01*
X153207400Y-87043900D02*
X152268500Y-86105000D01*
X152268500Y-86105000D02*
X148590000Y-86105000D01*
X167619800Y-105502100D02*
X167422600Y-105502100D01*
X167422600Y-105502100D02*
X166278600Y-104358100D01*
X166278600Y-104358100D02*
X165839000Y-104358100D01*
X165839000Y-104358100D02*
X163778600Y-102297700D01*
X163778600Y-102297700D02*
X159082800Y-102297700D01*
X159082800Y-102297700D02*
X156760400Y-99975300D01*
X156760400Y-99975300D02*
X154254500Y-99975300D01*
X167619800Y-109827400D02*
X167619800Y-105502100D01*
X164670400Y-104074200D02*
X163344200Y-102748000D01*
X163344200Y-102748000D02*
X158896200Y-102748000D01*
X158896200Y-102748000D02*
X156748900Y-100600700D01*
X156748900Y-100600700D02*
X149845400Y-100600700D01*
X149845400Y-100600700D02*
X146050000Y-96805300D01*
X146050000Y-95505000D02*
X146050000Y-96805300D01*
X165079800Y-105502100D02*
X164442900Y-105502100D01*
X164442900Y-105502100D02*
X163351300Y-104410500D01*
X163351300Y-104410500D02*
X159284900Y-104410500D01*
X159284900Y-104410500D02*
X156679400Y-101805000D01*
X156679400Y-101805000D02*
X148509700Y-101805000D01*
X148509700Y-101805000D02*
X143510000Y-96805300D01*
X143510000Y-95505000D02*
X143510000Y-96805300D01*
X165079800Y-109827400D02*
X165079800Y-105502100D01*
X172720000Y-95250000D02*
X172720000Y-95682000D01*
X172720000Y-95682000D02*
X171611700Y-96790300D01*
X171611700Y-96790300D02*
X169932700Y-96790300D01*
X169932700Y-96790300D02*
X167869300Y-98853700D01*
X167869300Y-98853700D02*
X164407100Y-98853700D01*
X164407100Y-98853700D02*
X164016000Y-99244800D01*
X170180000Y-95250000D02*
X170180000Y-95769800D01*
X170180000Y-95769800D02*
X167969400Y-97980400D01*
X167969400Y-97980400D02*
X164148400Y-97980400D01*
X164148400Y-97980400D02*
X163422500Y-98706300D01*
X163092300Y-105035900D02*
X162626100Y-105502100D01*
X162626100Y-105502100D02*
X162539800Y-105502100D01*
X162539800Y-109827400D02*
X162539800Y-105502100D01*
X140970000Y-84804700D02*
X142010500Y-83764200D01*
X142010500Y-83764200D02*
X145289900Y-83764200D01*
X145289900Y-83764200D02*
X146168600Y-82885500D01*
X146168600Y-82885500D02*
X157388700Y-82885500D01*
X140970000Y-86105000D02*
X140970000Y-84804700D01*
X138430000Y-95505000D02*
X138430000Y-96805300D01*
X159999800Y-109827400D02*
X159999800Y-105502100D01*
X159999800Y-105502100D02*
X158522100Y-105502100D01*
X158522100Y-105502100D02*
X155367600Y-102347600D01*
X155367600Y-102347600D02*
X143972300Y-102347600D01*
X143972300Y-102347600D02*
X138430000Y-96805300D01*
X146050000Y-87405300D02*
X150839900Y-87405300D01*
X150839900Y-87405300D02*
X151021700Y-87223500D01*
X151021700Y-87223500D02*
X152502600Y-87223500D01*
X152502600Y-87223500D02*
X152582100Y-87303000D01*
X146050000Y-86105000D02*
X146050000Y-87405300D01*
X143510000Y-87405300D02*
X143996200Y-87891500D01*
X143996200Y-87891500D02*
X151875300Y-87891500D01*
X157459800Y-105502100D02*
X154930700Y-102973000D01*
X154930700Y-102973000D02*
X154192600Y-102973000D01*
X157459800Y-109827400D02*
X157459800Y-105502100D01*
X143510000Y-86105000D02*
X143510000Y-87405300D01*
X156252100Y-97405600D02*
X162475400Y-97405600D01*
X162475400Y-97405600D02*
X166996300Y-92884700D01*
X166996300Y-92884700D02*
X172023700Y-92884700D01*
X172023700Y-92884700D02*
X173739400Y-91169000D01*
X173739400Y-91169000D02*
X175582300Y-91169000D01*
X175582300Y-91169000D02*
X180340000Y-86411300D01*
X180340000Y-86411300D02*
X180340000Y-85950000D01*
X177800000Y-85950000D02*
X177800000Y-86455800D01*
X177800000Y-86455800D02*
X174849300Y-89406500D01*
X174849300Y-89406500D02*
X173553800Y-89406500D01*
X173553800Y-89406500D02*
X171766400Y-91193900D01*
X171766400Y-91193900D02*
X165814600Y-91193900D01*
X165814600Y-91193900D02*
X160651700Y-96356800D01*
X160651700Y-96356800D02*
X156810900Y-96356800D01*
X155695100Y-105316400D02*
X155509400Y-105502100D01*
X155509400Y-105502100D02*
X154919800Y-105502100D01*
X154919800Y-109827400D02*
X154919800Y-105502100D01*
X175260000Y-85950000D02*
X175260000Y-87027900D01*
X175260000Y-87027900D02*
X173782100Y-88505800D01*
X173782100Y-88505800D02*
X173180700Y-88505800D01*
X173180700Y-88505800D02*
X171393200Y-90293300D01*
X171393200Y-90293300D02*
X164946500Y-90293300D01*
X164946500Y-90293300D02*
X159522200Y-95717600D01*
X159522200Y-95717600D02*
X155981400Y-95717600D01*
X155174300Y-92226600D02*
X161739300Y-92226600D01*
X161739300Y-92226600D02*
X164668000Y-89297900D01*
X164668000Y-89297900D02*
X171114800Y-89297900D01*
X171114800Y-89297900D02*
X172720000Y-87692700D01*
X172720000Y-87692700D02*
X172720000Y-85950000D01*
X153098300Y-104869200D02*
X152465400Y-105502100D01*
X152465400Y-105502100D02*
X152379800Y-105502100D01*
X152379800Y-109827400D02*
X152379800Y-105502100D01*
X177800000Y-95250000D02*
X177800000Y-95712100D01*
X177800000Y-95712100D02*
X173191700Y-100320400D01*
X173191700Y-100320400D02*
X163333800Y-100320400D01*
X163333800Y-100320400D02*
X162363400Y-99350000D01*
X162363400Y-99350000D02*
X153353800Y-99350000D01*
X153353800Y-99350000D02*
X153003800Y-99700000D01*
X175260000Y-95250000D02*
X175260000Y-95742300D01*
X175260000Y-95742300D02*
X173761600Y-97240700D01*
X173761600Y-97240700D02*
X170139700Y-97240700D01*
X170139700Y-97240700D02*
X167901400Y-99479000D01*
X167901400Y-99479000D02*
X164666100Y-99479000D01*
X164666100Y-99479000D02*
X164666100Y-99479100D01*
X164666100Y-99479100D02*
X164275100Y-99870100D01*
X164275100Y-99870100D02*
X163520400Y-99870100D01*
X163520400Y-99870100D02*
X162550000Y-98899700D01*
X162550000Y-98899700D02*
X152555200Y-98899700D01*
X149839800Y-105502100D02*
X151010300Y-104331600D01*
X151010300Y-104331600D02*
X151010300Y-103446400D01*
X149839800Y-109827400D02*
X149839800Y-105502100D01*
X147299800Y-109827400D02*
X147299800Y-105502100D01*
X147299800Y-105502100D02*
X147195000Y-105397300D01*
X147195000Y-105397300D02*
X147195000Y-104827600D01*
X144109300Y-104851600D02*
X144759800Y-105502100D01*
X144759800Y-109827400D02*
X144759800Y-105502100D01*
X141748700Y-105031000D02*
X142219800Y-105502100D01*
X142219800Y-109827400D02*
X142219800Y-105502100D01*
X139679800Y-105502100D02*
X139053300Y-104875600D01*
X139679800Y-109827400D02*
X139679800Y-105502100D01*
X137139800Y-105502100D02*
X137785400Y-104856500D01*
X137785400Y-104856500D02*
X137785400Y-94388600D01*
X137785400Y-94388600D02*
X141580700Y-90593300D01*
X141580700Y-90593300D02*
X162735700Y-90593300D01*
X162735700Y-90593300D02*
X164481400Y-88847600D01*
X164481400Y-88847600D02*
X170680700Y-88847600D01*
X170680700Y-88847600D02*
X171188000Y-88340300D01*
X137139800Y-109827400D02*
X137139800Y-105502100D01*
X149131900Y-88520800D02*
X153380800Y-88520800D01*
X153380800Y-88520800D02*
X155951600Y-85950000D01*
X155951600Y-85950000D02*
X168910000Y-85950000D01*
X149131900Y-88520800D02*
X140357000Y-88520800D01*
X140357000Y-88520800D02*
X139074600Y-87238400D01*
X139074600Y-87238400D02*
X139074600Y-85006400D01*
X139074600Y-85006400D02*
X138872900Y-84804700D01*
X138872900Y-84804700D02*
X137160000Y-84804700D01*
X112945000Y-85090000D02*
X112945000Y-63270500D01*
X112945000Y-63270500D02*
X108698300Y-59023800D01*
X108698300Y-59023800D02*
X108331000Y-59023800D01*
X108331000Y-57848500D02*
X108331000Y-59023800D01*
X137160000Y-86053700D02*
X133683700Y-89530000D01*
X133683700Y-89530000D02*
X117277100Y-89530000D01*
X117277100Y-89530000D02*
X115010500Y-87263400D01*
X115010500Y-87263400D02*
X115010500Y-86888900D01*
X115010500Y-86888900D02*
X113211600Y-85090000D01*
X113211600Y-85090000D02*
X112945000Y-85090000D01*
X175680000Y-77694500D02*
X175680000Y-78869800D01*
X168910000Y-85950000D02*
X168910000Y-85499300D01*
X168910000Y-85499300D02*
X175539500Y-78869800D01*
X175539500Y-78869800D02*
X175680000Y-78869800D01*
X137160000Y-86053700D02*
X137160000Y-84804700D01*
X137160000Y-86105000D02*
X137160000Y-86053700D01*
X168060000Y-76329800D02*
X167692600Y-76329800D01*
X167692600Y-76329800D02*
X166884700Y-77137700D01*
X166884700Y-77137700D02*
X166884700Y-78063300D01*
X166884700Y-78063300D02*
X164147800Y-80800200D01*
X164147800Y-80800200D02*
X153023300Y-80800200D01*
X153023300Y-80800200D02*
X152657000Y-81166500D01*
X152657000Y-81166500D02*
X152657000Y-81238700D01*
X152657000Y-81238700D02*
X151656700Y-82239000D01*
X151656700Y-82239000D02*
X146178100Y-82239000D01*
X146178100Y-82239000D02*
X145254100Y-83163000D01*
X145254100Y-83163000D02*
X141566300Y-83163000D01*
X141566300Y-83163000D02*
X139924600Y-84804700D01*
X139924600Y-84804700D02*
X139700000Y-84804700D01*
X139700000Y-86105000D02*
X139700000Y-84804700D01*
X168060000Y-75154500D02*
X168060000Y-76329800D01*
X147320000Y-86105000D02*
X147320000Y-84804700D01*
X169636100Y-80975900D02*
X165807300Y-84804700D01*
X165807300Y-84804700D02*
X147320000Y-84804700D01*
X147320000Y-96805300D02*
X148602400Y-98087700D01*
X148602400Y-98087700D02*
X162597000Y-98087700D01*
X162597000Y-98087700D02*
X166785700Y-93899000D01*
X166785700Y-93899000D02*
X171646300Y-93899000D01*
X171646300Y-93899000D02*
X173585000Y-91960300D01*
X173585000Y-91960300D02*
X176028500Y-91960300D01*
X176028500Y-91960300D02*
X183146500Y-84842300D01*
X183146500Y-84842300D02*
X183146500Y-84588600D01*
X147320000Y-95505000D02*
X147320000Y-96805300D01*
X139700000Y-94204700D02*
X142679900Y-91224800D01*
X142679900Y-91224800D02*
X159527400Y-91224800D01*
X139700000Y-95505000D02*
X139700000Y-94204700D01*
X142240000Y-95505000D02*
X142240000Y-94204700D01*
X142240000Y-94204700D02*
X144514900Y-91929800D01*
X144514900Y-91929800D02*
X147067500Y-91929800D01*
X144780000Y-94204700D02*
X160398100Y-94204700D01*
X160398100Y-94204700D02*
X164854600Y-89748200D01*
X164854600Y-89748200D02*
X171301400Y-89748200D01*
X171301400Y-89748200D02*
X172994100Y-88055500D01*
X172994100Y-88055500D02*
X173595500Y-88055500D01*
X173595500Y-88055500D02*
X174625000Y-87026000D01*
X174625000Y-87026000D02*
X174625000Y-84580100D01*
X174625000Y-84580100D02*
X179489600Y-79715500D01*
X179489600Y-79715500D02*
X185485400Y-79715500D01*
X185485400Y-79715500D02*
X187204700Y-77996200D01*
X187204700Y-77996200D02*
X187204700Y-77137700D01*
X187204700Y-77137700D02*
X188012600Y-76329800D01*
X188012600Y-76329800D02*
X188380000Y-76329800D01*
X188380000Y-75154500D02*
X188380000Y-76329800D01*
X144780000Y-95505000D02*
X144780000Y-94204700D01*
X115469000Y-54053000D02*
X116794300Y-54053000D01*
X180707500Y-96920400D02*
X194640100Y-82987800D01*
X194640100Y-82987800D02*
X194640100Y-74626700D01*
X194640100Y-74626700D02*
X190607400Y-70594000D01*
X190607400Y-70594000D02*
X166764600Y-70594000D01*
X166764600Y-70594000D02*
X154140600Y-57970000D01*
X154140600Y-57970000D02*
X120475100Y-57970000D01*
X120475100Y-57970000D02*
X116794300Y-54289200D01*
X116794300Y-54289200D02*
X116794300Y-54053000D01*
X185399800Y-109827400D02*
X185399800Y-105502100D01*
X185399800Y-105502100D02*
X180707500Y-100809800D01*
X180707500Y-100809800D02*
X180707500Y-96920400D01*
X134594800Y-109334700D02*
X134594800Y-105509400D01*
X132059800Y-109827400D02*
X132059800Y-105502100D01*
X132059800Y-105502100D02*
X134587500Y-105502100D01*
X134587500Y-105502100D02*
X134594800Y-105509400D01*
X148935300Y-72594500D02*
X148935300Y-72961800D01*
X148935300Y-72961800D02*
X149754100Y-73780600D01*
X149754100Y-73780600D02*
X155690000Y-73780600D01*
X155690000Y-73780600D02*
X156383500Y-73087100D01*
X156383500Y-73087100D02*
X156667000Y-73087100D01*
X156667000Y-73087100D02*
X156787600Y-72966500D01*
X156787600Y-72966500D02*
X170141300Y-72966500D01*
X170141300Y-72966500D02*
X171870000Y-74695200D01*
X171870000Y-74695200D02*
X171870000Y-75576100D01*
X171870000Y-75576100D02*
X172812900Y-76519000D01*
X172812900Y-76519000D02*
X174403100Y-76519000D01*
X182124700Y-77694500D02*
X182124700Y-77327200D01*
X182124700Y-77327200D02*
X181316500Y-76519000D01*
X181316500Y-76519000D02*
X174403100Y-76519000D01*
X174403100Y-76519000D02*
X174403100Y-78487700D01*
X174403100Y-78487700D02*
X169114300Y-83776500D01*
X147760000Y-72594500D02*
X148935300Y-72594500D01*
X183300000Y-77694500D02*
X182124700Y-77694500D01*
X118195000Y-88900000D02*
X117967800Y-88900000D01*
X117967800Y-88900000D02*
X116534900Y-87467100D01*
X116534900Y-87467100D02*
X116534900Y-84558400D01*
X116534900Y-84558400D02*
X127312900Y-73780400D01*
X127312900Y-73780400D02*
X144099100Y-73780400D01*
X144099100Y-73780400D02*
X146476100Y-71403400D01*
X146476100Y-71403400D02*
X152025000Y-71403400D01*
X152025000Y-71403400D02*
X153258400Y-72636800D01*
X153258400Y-72636800D02*
X156480400Y-72636800D01*
X156480400Y-72636800D02*
X156622100Y-72495100D01*
X156622100Y-72495100D02*
X179832600Y-72495100D01*
X179832600Y-72495100D02*
X182124700Y-74787200D01*
X182124700Y-74787200D02*
X182124700Y-75154500D01*
X183300000Y-75154500D02*
X182124700Y-75154500D01*
X178948700Y-81197800D02*
X175895000Y-84251500D01*
X175895000Y-84251500D02*
X175895000Y-87065300D01*
X175895000Y-87065300D02*
X174004200Y-88956100D01*
X174004200Y-88956100D02*
X173367300Y-88956100D01*
X173367300Y-88956100D02*
X171579800Y-90743600D01*
X171579800Y-90743600D02*
X165380500Y-90743600D01*
X165380500Y-90743600D02*
X165046400Y-91077700D01*
X151644700Y-77694500D02*
X151644700Y-78000100D01*
X151644700Y-78000100D02*
X150585800Y-79059000D01*
X150585800Y-79059000D02*
X139795000Y-79059000D01*
X139795000Y-79059000D02*
X131224000Y-87630000D01*
X131224000Y-87630000D02*
X118195000Y-87630000D01*
X152820000Y-77694500D02*
X151644700Y-77694500D01*
X167824700Y-80009200D02*
X165608000Y-82225900D01*
X165608000Y-82225900D02*
X153137000Y-82225900D01*
X120269000Y-55753000D02*
X121594300Y-55753000D01*
X121594300Y-55753000D02*
X121594300Y-56487200D01*
X121594300Y-56487200D02*
X121257000Y-56824500D01*
X121257000Y-56824500D02*
X120694600Y-56824500D01*
X118943700Y-54053000D02*
X118766000Y-54053000D01*
X120269000Y-54053000D02*
X118943700Y-54053000D01*
X118943700Y-52353000D02*
X118767300Y-52353000D01*
X120269000Y-52353000D02*
X118943700Y-52353000D01*
X114143700Y-52353000D02*
X114143700Y-56491500D01*
X114143700Y-56491500D02*
X124907000Y-67254800D01*
X124907000Y-67254800D02*
X150594700Y-67254800D01*
X150594700Y-67254800D02*
X154901000Y-71561100D01*
X115469000Y-52353000D02*
X114143700Y-52353000D01*
X116794300Y-55753000D02*
X120974300Y-59933000D01*
X120974300Y-59933000D02*
X144406500Y-59933000D01*
X144406500Y-59933000D02*
X156034700Y-71561200D01*
X169424700Y-75154500D02*
X169424700Y-74787200D01*
X169424700Y-74787200D02*
X168108700Y-73471200D01*
X168108700Y-73471200D02*
X156935600Y-73471200D01*
X156935600Y-73471200D02*
X156694300Y-73712500D01*
X115469000Y-55753000D02*
X116794300Y-55753000D01*
X170600000Y-75154500D02*
X169424700Y-75154500D01*
X118195000Y-86360000D02*
X117906900Y-86360000D01*
X117906900Y-86360000D02*
X117043100Y-85496200D01*
X117043100Y-85496200D02*
X117043100Y-84703100D01*
X117043100Y-84703100D02*
X126591700Y-75154500D01*
X126591700Y-75154500D02*
X147740000Y-75154500D01*
X178220000Y-77694500D02*
X177044700Y-77694500D01*
X170180000Y-85950000D02*
X170180000Y-85518000D01*
X170180000Y-85518000D02*
X177044700Y-78653300D01*
X177044700Y-78653300D02*
X177044700Y-77694500D01*
X166634300Y-87321700D02*
X169294200Y-87321700D01*
X169294200Y-87321700D02*
X170180000Y-86435900D01*
X170180000Y-86435900D02*
X170180000Y-85950000D01*
X139479200Y-88454500D02*
X140177900Y-89153200D01*
X140177900Y-89153200D02*
X155628000Y-89153200D01*
X155628000Y-89153200D02*
X157459500Y-87321700D01*
X157459500Y-87321700D02*
X166634300Y-87321700D01*
X168910000Y-95250000D02*
X168771600Y-95111600D01*
X168771600Y-95111600D02*
X167125200Y-95111600D01*
X139479200Y-88454500D02*
X138430000Y-87405300D01*
X139479200Y-88454500D02*
X137160000Y-90773700D01*
X137160000Y-90773700D02*
X137160000Y-95505000D01*
X138430000Y-86105000D02*
X138430000Y-87405300D01*
X171964700Y-77694500D02*
X171964700Y-78062000D01*
X171964700Y-78062000D02*
X169676100Y-80350600D01*
X169676100Y-80350600D02*
X169149200Y-80350600D01*
X169149200Y-80350600D02*
X165439600Y-84060200D01*
X165439600Y-84060200D02*
X147309800Y-84060200D01*
X147309800Y-84060200D02*
X146565300Y-84804700D01*
X146565300Y-84804700D02*
X144780000Y-84804700D01*
X144780000Y-86105000D02*
X144780000Y-84804700D01*
X173140000Y-77694500D02*
X171964700Y-77694500D01*
X142240000Y-84804700D02*
X142760300Y-84284400D01*
X142760300Y-84284400D02*
X146448700Y-84284400D01*
X146448700Y-84284400D02*
X147221100Y-83512000D01*
X147221100Y-83512000D02*
X165208800Y-83512000D01*
X165208800Y-83512000D02*
X170600000Y-78120800D01*
X170600000Y-78120800D02*
X170600000Y-77694500D01*
X142240000Y-86105000D02*
X142240000Y-84804700D01*
X165587100Y-81335100D02*
X165496700Y-81425500D01*
X165496700Y-81425500D02*
X153344200Y-81425500D01*
X108595200Y-88867000D02*
X109482100Y-89753900D01*
X109482100Y-89753900D02*
X109482100Y-89898000D01*
X112945000Y-88900000D02*
X112664000Y-88900000D01*
X112698900Y-86360000D02*
X112945000Y-86360000D01*
X109474000Y-87630000D02*
X109855000Y-87630000D01*
X109474000Y-87630000D02*
X108585000Y-87630000D01*
X111125000Y-88900000D02*
X112945000Y-88900000D01*
X109855000Y-87630000D02*
X111125000Y-88900000D01*
X108585000Y-86868000D02*
X108585000Y-87630000D01*
X109093000Y-86360000D02*
X108585000Y-86868000D01*
X112945000Y-86360000D02*
X109093000Y-86360000D01*
D22*
G36*
X166040446Y-50328587D02*
G01*
X166120704Y-50352819D01*
X166194733Y-50392180D01*
X166259705Y-50445170D01*
X166313150Y-50509773D01*
X166353028Y-50583526D01*
X166377821Y-50663618D01*
X166390001Y-50779507D01*
X166390000Y-68220806D01*
X166389619Y-68257077D01*
X166392753Y-68292911D01*
X166392502Y-68328885D01*
X166393470Y-68338751D01*
X166416797Y-68560691D01*
X166429730Y-68623695D01*
X166441793Y-68686934D01*
X166444659Y-68696424D01*
X166510649Y-68909606D01*
X166535579Y-68968913D01*
X166559693Y-69028598D01*
X166564342Y-69037339D01*
X166564345Y-69037347D01*
X166564349Y-69037353D01*
X166670489Y-69233655D01*
X166706469Y-69286996D01*
X166741708Y-69340848D01*
X166747974Y-69348530D01*
X166890222Y-69520479D01*
X166935860Y-69565799D01*
X166980909Y-69611802D01*
X166988547Y-69618121D01*
X167161487Y-69759166D01*
X167215055Y-69794756D01*
X167268181Y-69831132D01*
X167273485Y-69834000D01*
X167079402Y-69834000D01*
X154704404Y-57459003D01*
X154680601Y-57429999D01*
X154564876Y-57335026D01*
X154432847Y-57264454D01*
X154289586Y-57220997D01*
X154177933Y-57210000D01*
X154177922Y-57210000D01*
X154140600Y-57206324D01*
X154103278Y-57210000D01*
X121946301Y-57210000D01*
X122105297Y-57051004D01*
X122134301Y-57027201D01*
X122229274Y-56911476D01*
X122299846Y-56779447D01*
X122343303Y-56636186D01*
X122354300Y-56524533D01*
X122354300Y-56524524D01*
X122357976Y-56487201D01*
X122354300Y-56449878D01*
X122354300Y-55790333D01*
X122357977Y-55753000D01*
X122343303Y-55604014D01*
X122299846Y-55460753D01*
X122229274Y-55328724D01*
X122134301Y-55212999D01*
X122018576Y-55118026D01*
X121886547Y-55047454D01*
X121885271Y-55047067D01*
X121858502Y-54958820D01*
X121828665Y-54903000D01*
X121858502Y-54847180D01*
X121894812Y-54727482D01*
X121907072Y-54603000D01*
X121907072Y-53503000D01*
X121894812Y-53378518D01*
X121858502Y-53258820D01*
X121828665Y-53203000D01*
X121858502Y-53147180D01*
X121894812Y-53027482D01*
X121907072Y-52903000D01*
X121907072Y-51803000D01*
X121894812Y-51678518D01*
X121858502Y-51558820D01*
X121799537Y-51448506D01*
X121720185Y-51351815D01*
X121623494Y-51272463D01*
X121513180Y-51213498D01*
X121393482Y-51177188D01*
X121269000Y-51164928D01*
X119269000Y-51164928D01*
X119144518Y-51177188D01*
X119024820Y-51213498D01*
X118914506Y-51272463D01*
X118817815Y-51351815D01*
X118763499Y-51418000D01*
X118675211Y-51418000D01*
X118494571Y-51453932D01*
X118324411Y-51524414D01*
X118171272Y-51626738D01*
X118041038Y-51756972D01*
X117938714Y-51910111D01*
X117868232Y-52080271D01*
X117832300Y-52260911D01*
X117832300Y-52445089D01*
X117868232Y-52625729D01*
X117938714Y-52795889D01*
X118041038Y-52949028D01*
X118171272Y-53079262D01*
X118324411Y-53181586D01*
X118375459Y-53202731D01*
X118323111Y-53224414D01*
X118169972Y-53326738D01*
X118039738Y-53456972D01*
X117937414Y-53610111D01*
X117866932Y-53780271D01*
X117831000Y-53960911D01*
X117831000Y-54145089D01*
X117857323Y-54277422D01*
X117549791Y-53969890D01*
X117543303Y-53904014D01*
X117499846Y-53760753D01*
X117429274Y-53628724D01*
X117334301Y-53512999D01*
X117218576Y-53418026D01*
X117086547Y-53347454D01*
X117085271Y-53347067D01*
X117058502Y-53258820D01*
X117028665Y-53203000D01*
X117058502Y-53147180D01*
X117094812Y-53027482D01*
X117107072Y-52903000D01*
X117107072Y-51803000D01*
X117094812Y-51678518D01*
X117058502Y-51558820D01*
X116999537Y-51448506D01*
X116920185Y-51351815D01*
X116823494Y-51272463D01*
X116713180Y-51213498D01*
X116593482Y-51177188D01*
X116469000Y-51164928D01*
X114469000Y-51164928D01*
X114344518Y-51177188D01*
X114224820Y-51213498D01*
X114114506Y-51272463D01*
X114017815Y-51351815D01*
X113938463Y-51448506D01*
X113879498Y-51558820D01*
X113852729Y-51647067D01*
X113851453Y-51647454D01*
X113719424Y-51718026D01*
X113603699Y-51812999D01*
X113508726Y-51928724D01*
X113438154Y-52060753D01*
X113394697Y-52204014D01*
X113380023Y-52353000D01*
X113383700Y-52390333D01*
X113383701Y-55571100D01*
X110070104Y-52257503D01*
X110046301Y-52228499D01*
X109930576Y-52133526D01*
X109819072Y-52073925D01*
X109819072Y-51918500D01*
X109806812Y-51794018D01*
X109770502Y-51674320D01*
X109711537Y-51564006D01*
X109632185Y-51467315D01*
X109535494Y-51387963D01*
X109425180Y-51328998D01*
X109305482Y-51292688D01*
X109181000Y-51280428D01*
X107481000Y-51280428D01*
X107356518Y-51292688D01*
X107236820Y-51328998D01*
X107126506Y-51387963D01*
X107029815Y-51467315D01*
X106950463Y-51564006D01*
X106891498Y-51674320D01*
X106855188Y-51794018D01*
X106842928Y-51918500D01*
X106842928Y-53618500D01*
X106855188Y-53742982D01*
X106891498Y-53862680D01*
X106950463Y-53972994D01*
X107029815Y-54069685D01*
X107126506Y-54149037D01*
X107236820Y-54208002D01*
X107309380Y-54230013D01*
X107177525Y-54361868D01*
X107015010Y-54605089D01*
X106903068Y-54875342D01*
X106846000Y-55162240D01*
X106846000Y-55454760D01*
X106903068Y-55741658D01*
X107015010Y-56011911D01*
X107177525Y-56255132D01*
X107384368Y-56461975D01*
X107558760Y-56578500D01*
X107384368Y-56695025D01*
X107177525Y-56901868D01*
X107015010Y-57145089D01*
X106903068Y-57415342D01*
X106846000Y-57702240D01*
X106846000Y-57994760D01*
X106903068Y-58281658D01*
X107015010Y-58551911D01*
X107177525Y-58795132D01*
X107384368Y-59001975D01*
X107566534Y-59123695D01*
X107449645Y-59193322D01*
X107233412Y-59388231D01*
X107059359Y-59621580D01*
X106934175Y-59884401D01*
X106889524Y-60031610D01*
X107010845Y-60261500D01*
X108204000Y-60261500D01*
X108204000Y-60241500D01*
X108458000Y-60241500D01*
X108458000Y-60261500D01*
X108478000Y-60261500D01*
X108478000Y-60515500D01*
X108458000Y-60515500D01*
X108458000Y-61709314D01*
X108687891Y-61829981D01*
X108962252Y-61732657D01*
X109212355Y-61583678D01*
X109428588Y-61388769D01*
X109602641Y-61155420D01*
X109651836Y-61052137D01*
X112185001Y-63585303D01*
X112185000Y-84160300D01*
X112116255Y-84167071D01*
X111968418Y-84211916D01*
X111832171Y-84284742D01*
X111712749Y-84382749D01*
X111614742Y-84502171D01*
X111541916Y-84638418D01*
X111497071Y-84786255D01*
X111481928Y-84940000D01*
X111481928Y-85240000D01*
X111497071Y-85393745D01*
X111541916Y-85541582D01*
X111573141Y-85600000D01*
X109130322Y-85600000D01*
X109092999Y-85596324D01*
X109055676Y-85600000D01*
X109055667Y-85600000D01*
X108944014Y-85610997D01*
X108800753Y-85654454D01*
X108668724Y-85725026D01*
X108552999Y-85819999D01*
X108529201Y-85848997D01*
X108074002Y-86304197D01*
X108044999Y-86327999D01*
X107996825Y-86386700D01*
X107950026Y-86443724D01*
X107912250Y-86514398D01*
X107879454Y-86575754D01*
X107835997Y-86719015D01*
X107830004Y-86779864D01*
X107703388Y-86906480D01*
X107579176Y-87092376D01*
X107493617Y-87298933D01*
X107450000Y-87518212D01*
X107450000Y-87741788D01*
X107493617Y-87961067D01*
X107579176Y-88167624D01*
X107638289Y-88256093D01*
X107589336Y-88329356D01*
X107503777Y-88535913D01*
X107460160Y-88755192D01*
X107460160Y-88978768D01*
X107503777Y-89198047D01*
X107589336Y-89404604D01*
X107713548Y-89590500D01*
X107871640Y-89748592D01*
X108057536Y-89872804D01*
X108264093Y-89958363D01*
X108483372Y-90001980D01*
X108549465Y-90001980D01*
X108583032Y-90170729D01*
X108653514Y-90340889D01*
X108755838Y-90494028D01*
X108886072Y-90624262D01*
X109039211Y-90726586D01*
X109209371Y-90797068D01*
X109390011Y-90833000D01*
X109574189Y-90833000D01*
X109754829Y-90797068D01*
X109924989Y-90726586D01*
X110078128Y-90624262D01*
X110208362Y-90494028D01*
X110310686Y-90340889D01*
X110381168Y-90170729D01*
X110417100Y-89990089D01*
X110417100Y-89805911D01*
X110381168Y-89625271D01*
X110310686Y-89455111D01*
X110208362Y-89301972D01*
X110078128Y-89171738D01*
X109924989Y-89069414D01*
X109835241Y-89032240D01*
X109730160Y-88927158D01*
X109730160Y-88755192D01*
X109686650Y-88536451D01*
X110561201Y-89411003D01*
X110584999Y-89440001D01*
X110700724Y-89534974D01*
X110832753Y-89605546D01*
X110976014Y-89649003D01*
X111087667Y-89660000D01*
X111087676Y-89660000D01*
X111124999Y-89663676D01*
X111162322Y-89660000D01*
X111777024Y-89660000D01*
X111832171Y-89705258D01*
X111968418Y-89778084D01*
X112116255Y-89822929D01*
X112270000Y-89838072D01*
X113620000Y-89838072D01*
X113773745Y-89822929D01*
X113921582Y-89778084D01*
X114057829Y-89705258D01*
X114177251Y-89607251D01*
X114275258Y-89487829D01*
X114348084Y-89351582D01*
X114392929Y-89203745D01*
X114408072Y-89050000D01*
X114408072Y-88750000D01*
X114392929Y-88596255D01*
X114348084Y-88448418D01*
X114275258Y-88312171D01*
X114236546Y-88265000D01*
X114275258Y-88217829D01*
X114348084Y-88081582D01*
X114392929Y-87933745D01*
X114408072Y-87780000D01*
X114408072Y-87727333D01*
X114470499Y-87803401D01*
X114499502Y-87827204D01*
X116713305Y-90041008D01*
X116737099Y-90070001D01*
X116766092Y-90093795D01*
X116766096Y-90093799D01*
X116827650Y-90144314D01*
X116852824Y-90164974D01*
X116984853Y-90235546D01*
X117128114Y-90279003D01*
X117239767Y-90290000D01*
X117239776Y-90290000D01*
X117277099Y-90293676D01*
X117314422Y-90290000D01*
X133646378Y-90290000D01*
X133683700Y-90293676D01*
X133721022Y-90290000D01*
X133721033Y-90290000D01*
X133832686Y-90279003D01*
X133975947Y-90235546D01*
X134107976Y-90164974D01*
X134223701Y-90070001D01*
X134247504Y-90040997D01*
X136618260Y-87670242D01*
X136735518Y-87705812D01*
X136860000Y-87718072D01*
X137460000Y-87718072D01*
X137584482Y-87705812D01*
X137704180Y-87669502D01*
X137714306Y-87664090D01*
X137724454Y-87697546D01*
X137795026Y-87829576D01*
X137858168Y-87906514D01*
X137890000Y-87945301D01*
X137918998Y-87969099D01*
X138404398Y-88454500D01*
X136649003Y-90209896D01*
X136619999Y-90233699D01*
X136572165Y-90291986D01*
X136525026Y-90349424D01*
X136469264Y-90453746D01*
X136454454Y-90481454D01*
X136410997Y-90624715D01*
X136400000Y-90736368D01*
X136400000Y-90736378D01*
X136396324Y-90773700D01*
X136400000Y-90811023D01*
X136400001Y-94089555D01*
X136329463Y-94175506D01*
X136270498Y-94285820D01*
X136234188Y-94405518D01*
X136221928Y-94530000D01*
X136221928Y-96480000D01*
X136234188Y-96604482D01*
X136270498Y-96724180D01*
X136329463Y-96834494D01*
X136408815Y-96931185D01*
X136505506Y-97010537D01*
X136615820Y-97069502D01*
X136735518Y-97105812D01*
X136860000Y-97118072D01*
X137025401Y-97118072D01*
X137025400Y-104541698D01*
X136628798Y-104938301D01*
X136599800Y-104962099D01*
X136576002Y-104991097D01*
X136576001Y-104991098D01*
X136504826Y-105077824D01*
X136445204Y-105189368D01*
X136239840Y-105189368D01*
X136115358Y-105201628D01*
X135995660Y-105237938D01*
X135885346Y-105296903D01*
X135862889Y-105315333D01*
X135849254Y-105304143D01*
X135738940Y-105245178D01*
X135619242Y-105208868D01*
X135494760Y-105196608D01*
X135289364Y-105196608D01*
X135229774Y-105085124D01*
X135134801Y-104969399D01*
X135130792Y-104966108D01*
X135127501Y-104962099D01*
X135011776Y-104867126D01*
X134879747Y-104796554D01*
X134736486Y-104753097D01*
X134624833Y-104742100D01*
X134624822Y-104742100D01*
X134587500Y-104738424D01*
X134550178Y-104742100D01*
X132097133Y-104742100D01*
X132059800Y-104738423D01*
X132022467Y-104742100D01*
X131910814Y-104753097D01*
X131767553Y-104796554D01*
X131635524Y-104867126D01*
X131519799Y-104962099D01*
X131424826Y-105077824D01*
X131365204Y-105189368D01*
X131159840Y-105189368D01*
X131035358Y-105201628D01*
X130915660Y-105237938D01*
X130805346Y-105296903D01*
X130789840Y-105309628D01*
X130774334Y-105296903D01*
X130664020Y-105237938D01*
X130544322Y-105201628D01*
X130419840Y-105189368D01*
X128619840Y-105189368D01*
X128495358Y-105201628D01*
X128375660Y-105237938D01*
X128265346Y-105296903D01*
X128249840Y-105309628D01*
X128234334Y-105296903D01*
X128124020Y-105237938D01*
X128004322Y-105201628D01*
X127879840Y-105189368D01*
X126079840Y-105189368D01*
X125955358Y-105201628D01*
X125835660Y-105237938D01*
X125725346Y-105296903D01*
X125652600Y-105356604D01*
X125652600Y-105006823D01*
X125649601Y-104976374D01*
X125649650Y-104969373D01*
X125648683Y-104959507D01*
X125625366Y-104737655D01*
X125612429Y-104674631D01*
X125600368Y-104611405D01*
X125597502Y-104601915D01*
X125531538Y-104388817D01*
X125506606Y-104329508D01*
X125482494Y-104269829D01*
X125477840Y-104261076D01*
X125371740Y-104064849D01*
X125335767Y-104011517D01*
X125300521Y-103957655D01*
X125294255Y-103949973D01*
X125294254Y-103949971D01*
X125294250Y-103949967D01*
X125152062Y-103778090D01*
X125106407Y-103732753D01*
X125061377Y-103686770D01*
X125053739Y-103680451D01*
X124880869Y-103539461D01*
X124827257Y-103503841D01*
X124774170Y-103467492D01*
X124765450Y-103462777D01*
X124568486Y-103358050D01*
X124508988Y-103333527D01*
X124449847Y-103308179D01*
X124440377Y-103305248D01*
X124226824Y-103240772D01*
X124163756Y-103228284D01*
X124100752Y-103214892D01*
X124090893Y-103213856D01*
X123868985Y-103192098D01*
X123835439Y-103188748D01*
X114462215Y-103176048D01*
X114343554Y-103164413D01*
X114263297Y-103140182D01*
X114189266Y-103100819D01*
X114124292Y-103047827D01*
X114070848Y-102983225D01*
X114030971Y-102909473D01*
X114006179Y-102829383D01*
X113994000Y-102713503D01*
X113994000Y-96990000D01*
X118576928Y-96990000D01*
X118576928Y-98590000D01*
X118589188Y-98714482D01*
X118625498Y-98834180D01*
X118684463Y-98944494D01*
X118763815Y-99041185D01*
X118860506Y-99120537D01*
X118970820Y-99179502D01*
X119090518Y-99215812D01*
X119215000Y-99228072D01*
X120815000Y-99228072D01*
X120939482Y-99215812D01*
X121059180Y-99179502D01*
X121169494Y-99120537D01*
X121266185Y-99041185D01*
X121345537Y-98944494D01*
X121404502Y-98834180D01*
X121433661Y-98738057D01*
X121600241Y-98904637D01*
X121835273Y-99061680D01*
X122096426Y-99169853D01*
X122373665Y-99225000D01*
X122656335Y-99225000D01*
X122933574Y-99169853D01*
X123194727Y-99061680D01*
X123429759Y-98904637D01*
X123629637Y-98704759D01*
X123786680Y-98469727D01*
X123894853Y-98208574D01*
X123950000Y-97931335D01*
X123950000Y-97648665D01*
X123894853Y-97371426D01*
X123786680Y-97110273D01*
X123629637Y-96875241D01*
X123429759Y-96675363D01*
X123194727Y-96518320D01*
X122933574Y-96410147D01*
X122656335Y-96355000D01*
X122373665Y-96355000D01*
X122096426Y-96410147D01*
X121835273Y-96518320D01*
X121600241Y-96675363D01*
X121433661Y-96841943D01*
X121404502Y-96745820D01*
X121345537Y-96635506D01*
X121266185Y-96538815D01*
X121169494Y-96459463D01*
X121059180Y-96400498D01*
X120939482Y-96364188D01*
X120815000Y-96351928D01*
X119215000Y-96351928D01*
X119090518Y-96364188D01*
X118970820Y-96400498D01*
X118860506Y-96459463D01*
X118763815Y-96538815D01*
X118684463Y-96635506D01*
X118625498Y-96745820D01*
X118589188Y-96865518D01*
X118576928Y-96990000D01*
X113994000Y-96990000D01*
X113994000Y-93881623D01*
X113991001Y-93851174D01*
X113991050Y-93844173D01*
X113990083Y-93834307D01*
X113966766Y-93612455D01*
X113953829Y-93549431D01*
X113941768Y-93486205D01*
X113938902Y-93476715D01*
X113903676Y-93362915D01*
X125947260Y-93362915D01*
X125947260Y-94028125D01*
X126077036Y-94680555D01*
X126331601Y-95295129D01*
X126701173Y-95848232D01*
X127171548Y-96318607D01*
X127724651Y-96688179D01*
X128339225Y-96942744D01*
X128991655Y-97072520D01*
X129656865Y-97072520D01*
X130309295Y-96942744D01*
X130923869Y-96688179D01*
X131476972Y-96318607D01*
X131947347Y-95848232D01*
X132316919Y-95295129D01*
X132571484Y-94680555D01*
X132701260Y-94028125D01*
X132701260Y-93362915D01*
X132571484Y-92710485D01*
X132316919Y-92095911D01*
X131947347Y-91542808D01*
X131476972Y-91072433D01*
X130923869Y-90702861D01*
X130309295Y-90448296D01*
X129656865Y-90318520D01*
X128991655Y-90318520D01*
X128339225Y-90448296D01*
X127724651Y-90702861D01*
X127171548Y-91072433D01*
X126701173Y-91542808D01*
X126331601Y-92095911D01*
X126077036Y-92710485D01*
X125947260Y-93362915D01*
X113903676Y-93362915D01*
X113872938Y-93263617D01*
X113848005Y-93204304D01*
X113823894Y-93144629D01*
X113819240Y-93135876D01*
X113713140Y-92939649D01*
X113677167Y-92886317D01*
X113641921Y-92832455D01*
X113635655Y-92824773D01*
X113635654Y-92824771D01*
X113635650Y-92824767D01*
X113493462Y-92652890D01*
X113447807Y-92607553D01*
X113402777Y-92561570D01*
X113395139Y-92555251D01*
X113222269Y-92414261D01*
X113168657Y-92378641D01*
X113115570Y-92342292D01*
X113106850Y-92337577D01*
X112909886Y-92232850D01*
X112850388Y-92208327D01*
X112791247Y-92182979D01*
X112781777Y-92180048D01*
X112568224Y-92115572D01*
X112505156Y-92103084D01*
X112442152Y-92089692D01*
X112432293Y-92088656D01*
X112210283Y-92066888D01*
X112210277Y-92066888D01*
X112175877Y-92063500D01*
X105508229Y-92063500D01*
X105390054Y-92051913D01*
X105309797Y-92027682D01*
X105235766Y-91988319D01*
X105170792Y-91935327D01*
X105117348Y-91870725D01*
X105077471Y-91796973D01*
X105052679Y-91716883D01*
X105040500Y-91601003D01*
X105040500Y-60745390D01*
X106889524Y-60745390D01*
X106934175Y-60892599D01*
X107059359Y-61155420D01*
X107233412Y-61388769D01*
X107449645Y-61583678D01*
X107699748Y-61732657D01*
X107974109Y-61829981D01*
X108204000Y-61709314D01*
X108204000Y-60515500D01*
X107010845Y-60515500D01*
X106889524Y-60745390D01*
X105040500Y-60745390D01*
X105040500Y-50834729D01*
X105052087Y-50716554D01*
X105076319Y-50636296D01*
X105115680Y-50562267D01*
X105168670Y-50497295D01*
X105233273Y-50443850D01*
X105307026Y-50403972D01*
X105387118Y-50379179D01*
X105503234Y-50366975D01*
X165922554Y-50317028D01*
X166040446Y-50328587D01*
G37*
X166040446Y-50328587D02*
X166120704Y-50352819D01*
X166194733Y-50392180D01*
X166259705Y-50445170D01*
X166313150Y-50509773D01*
X166353028Y-50583526D01*
X166377821Y-50663618D01*
X166390001Y-50779507D01*
X166390000Y-68220806D01*
X166389619Y-68257077D01*
X166392753Y-68292911D01*
X166392502Y-68328885D01*
X166393470Y-68338751D01*
X166416797Y-68560691D01*
X166429730Y-68623695D01*
X166441793Y-68686934D01*
X166444659Y-68696424D01*
X166510649Y-68909606D01*
X166535579Y-68968913D01*
X166559693Y-69028598D01*
X166564342Y-69037339D01*
X166564345Y-69037347D01*
X166564349Y-69037353D01*
X166670489Y-69233655D01*
X166706469Y-69286996D01*
X166741708Y-69340848D01*
X166747974Y-69348530D01*
X166890222Y-69520479D01*
X166935860Y-69565799D01*
X166980909Y-69611802D01*
X166988547Y-69618121D01*
X167161487Y-69759166D01*
X167215055Y-69794756D01*
X167268181Y-69831132D01*
X167273485Y-69834000D01*
X167079402Y-69834000D01*
X154704404Y-57459003D01*
X154680601Y-57429999D01*
X154564876Y-57335026D01*
X154432847Y-57264454D01*
X154289586Y-57220997D01*
X154177933Y-57210000D01*
X154177922Y-57210000D01*
X154140600Y-57206324D01*
X154103278Y-57210000D01*
X121946301Y-57210000D01*
X122105297Y-57051004D01*
X122134301Y-57027201D01*
X122229274Y-56911476D01*
X122299846Y-56779447D01*
X122343303Y-56636186D01*
X122354300Y-56524533D01*
X122354300Y-56524524D01*
X122357976Y-56487201D01*
X122354300Y-56449878D01*
X122354300Y-55790333D01*
X122357977Y-55753000D01*
X122343303Y-55604014D01*
X122299846Y-55460753D01*
X122229274Y-55328724D01*
X122134301Y-55212999D01*
X122018576Y-55118026D01*
X121886547Y-55047454D01*
X121885271Y-55047067D01*
X121858502Y-54958820D01*
X121828665Y-54903000D01*
X121858502Y-54847180D01*
X121894812Y-54727482D01*
X121907072Y-54603000D01*
X121907072Y-53503000D01*
X121894812Y-53378518D01*
X121858502Y-53258820D01*
X121828665Y-53203000D01*
X121858502Y-53147180D01*
X121894812Y-53027482D01*
X121907072Y-52903000D01*
X121907072Y-51803000D01*
X121894812Y-51678518D01*
X121858502Y-51558820D01*
X121799537Y-51448506D01*
X121720185Y-51351815D01*
X121623494Y-51272463D01*
X121513180Y-51213498D01*
X121393482Y-51177188D01*
X121269000Y-51164928D01*
X119269000Y-51164928D01*
X119144518Y-51177188D01*
X119024820Y-51213498D01*
X118914506Y-51272463D01*
X118817815Y-51351815D01*
X118763499Y-51418000D01*
X118675211Y-51418000D01*
X118494571Y-51453932D01*
X118324411Y-51524414D01*
X118171272Y-51626738D01*
X118041038Y-51756972D01*
X117938714Y-51910111D01*
X117868232Y-52080271D01*
X117832300Y-52260911D01*
X117832300Y-52445089D01*
X117868232Y-52625729D01*
X117938714Y-52795889D01*
X118041038Y-52949028D01*
X118171272Y-53079262D01*
X118324411Y-53181586D01*
X118375459Y-53202731D01*
X118323111Y-53224414D01*
X118169972Y-53326738D01*
X118039738Y-53456972D01*
X117937414Y-53610111D01*
X117866932Y-53780271D01*
X117831000Y-53960911D01*
X117831000Y-54145089D01*
X117857323Y-54277422D01*
X117549791Y-53969890D01*
X117543303Y-53904014D01*
X117499846Y-53760753D01*
X117429274Y-53628724D01*
X117334301Y-53512999D01*
X117218576Y-53418026D01*
X117086547Y-53347454D01*
X117085271Y-53347067D01*
X117058502Y-53258820D01*
X117028665Y-53203000D01*
X117058502Y-53147180D01*
X117094812Y-53027482D01*
X117107072Y-52903000D01*
X117107072Y-51803000D01*
X117094812Y-51678518D01*
X117058502Y-51558820D01*
X116999537Y-51448506D01*
X116920185Y-51351815D01*
X116823494Y-51272463D01*
X116713180Y-51213498D01*
X116593482Y-51177188D01*
X116469000Y-51164928D01*
X114469000Y-51164928D01*
X114344518Y-51177188D01*
X114224820Y-51213498D01*
X114114506Y-51272463D01*
X114017815Y-51351815D01*
X113938463Y-51448506D01*
X113879498Y-51558820D01*
X113852729Y-51647067D01*
X113851453Y-51647454D01*
X113719424Y-51718026D01*
X113603699Y-51812999D01*
X113508726Y-51928724D01*
X113438154Y-52060753D01*
X113394697Y-52204014D01*
X113380023Y-52353000D01*
X113383700Y-52390333D01*
X113383701Y-55571100D01*
X110070104Y-52257503D01*
X110046301Y-52228499D01*
X109930576Y-52133526D01*
X109819072Y-52073925D01*
X109819072Y-51918500D01*
X109806812Y-51794018D01*
X109770502Y-51674320D01*
X109711537Y-51564006D01*
X109632185Y-51467315D01*
X109535494Y-51387963D01*
X109425180Y-51328998D01*
X109305482Y-51292688D01*
X109181000Y-51280428D01*
X107481000Y-51280428D01*
X107356518Y-51292688D01*
X107236820Y-51328998D01*
X107126506Y-51387963D01*
X107029815Y-51467315D01*
X106950463Y-51564006D01*
X106891498Y-51674320D01*
X106855188Y-51794018D01*
X106842928Y-51918500D01*
X106842928Y-53618500D01*
X106855188Y-53742982D01*
X106891498Y-53862680D01*
X106950463Y-53972994D01*
X107029815Y-54069685D01*
X107126506Y-54149037D01*
X107236820Y-54208002D01*
X107309380Y-54230013D01*
X107177525Y-54361868D01*
X107015010Y-54605089D01*
X106903068Y-54875342D01*
X106846000Y-55162240D01*
X106846000Y-55454760D01*
X106903068Y-55741658D01*
X107015010Y-56011911D01*
X107177525Y-56255132D01*
X107384368Y-56461975D01*
X107558760Y-56578500D01*
X107384368Y-56695025D01*
X107177525Y-56901868D01*
X107015010Y-57145089D01*
X106903068Y-57415342D01*
X106846000Y-57702240D01*
X106846000Y-57994760D01*
X106903068Y-58281658D01*
X107015010Y-58551911D01*
X107177525Y-58795132D01*
X107384368Y-59001975D01*
X107566534Y-59123695D01*
X107449645Y-59193322D01*
X107233412Y-59388231D01*
X107059359Y-59621580D01*
X106934175Y-59884401D01*
X106889524Y-60031610D01*
X107010845Y-60261500D01*
X108204000Y-60261500D01*
X108204000Y-60241500D01*
X108458000Y-60241500D01*
X108458000Y-60261500D01*
X108478000Y-60261500D01*
X108478000Y-60515500D01*
X108458000Y-60515500D01*
X108458000Y-61709314D01*
X108687891Y-61829981D01*
X108962252Y-61732657D01*
X109212355Y-61583678D01*
X109428588Y-61388769D01*
X109602641Y-61155420D01*
X109651836Y-61052137D01*
X112185001Y-63585303D01*
X112185000Y-84160300D01*
X112116255Y-84167071D01*
X111968418Y-84211916D01*
X111832171Y-84284742D01*
X111712749Y-84382749D01*
X111614742Y-84502171D01*
X111541916Y-84638418D01*
X111497071Y-84786255D01*
X111481928Y-84940000D01*
X111481928Y-85240000D01*
X111497071Y-85393745D01*
X111541916Y-85541582D01*
X111573141Y-85600000D01*
X109130322Y-85600000D01*
X109092999Y-85596324D01*
X109055676Y-85600000D01*
X109055667Y-85600000D01*
X108944014Y-85610997D01*
X108800753Y-85654454D01*
X108668724Y-85725026D01*
X108552999Y-85819999D01*
X108529201Y-85848997D01*
X108074002Y-86304197D01*
X108044999Y-86327999D01*
X107996825Y-86386700D01*
X107950026Y-86443724D01*
X107912250Y-86514398D01*
X107879454Y-86575754D01*
X107835997Y-86719015D01*
X107830004Y-86779864D01*
X107703388Y-86906480D01*
X107579176Y-87092376D01*
X107493617Y-87298933D01*
X107450000Y-87518212D01*
X107450000Y-87741788D01*
X107493617Y-87961067D01*
X107579176Y-88167624D01*
X107638289Y-88256093D01*
X107589336Y-88329356D01*
X107503777Y-88535913D01*
X107460160Y-88755192D01*
X107460160Y-88978768D01*
X107503777Y-89198047D01*
X107589336Y-89404604D01*
X107713548Y-89590500D01*
X107871640Y-89748592D01*
X108057536Y-89872804D01*
X108264093Y-89958363D01*
X108483372Y-90001980D01*
X108549465Y-90001980D01*
X108583032Y-90170729D01*
X108653514Y-90340889D01*
X108755838Y-90494028D01*
X108886072Y-90624262D01*
X109039211Y-90726586D01*
X109209371Y-90797068D01*
X109390011Y-90833000D01*
X109574189Y-90833000D01*
X109754829Y-90797068D01*
X109924989Y-90726586D01*
X110078128Y-90624262D01*
X110208362Y-90494028D01*
X110310686Y-90340889D01*
X110381168Y-90170729D01*
X110417100Y-89990089D01*
X110417100Y-89805911D01*
X110381168Y-89625271D01*
X110310686Y-89455111D01*
X110208362Y-89301972D01*
X110078128Y-89171738D01*
X109924989Y-89069414D01*
X109835241Y-89032240D01*
X109730160Y-88927158D01*
X109730160Y-88755192D01*
X109686650Y-88536451D01*
X110561201Y-89411003D01*
X110584999Y-89440001D01*
X110700724Y-89534974D01*
X110832753Y-89605546D01*
X110976014Y-89649003D01*
X111087667Y-89660000D01*
X111087676Y-89660000D01*
X111124999Y-89663676D01*
X111162322Y-89660000D01*
X111777024Y-89660000D01*
X111832171Y-89705258D01*
X111968418Y-89778084D01*
X112116255Y-89822929D01*
X112270000Y-89838072D01*
X113620000Y-89838072D01*
X113773745Y-89822929D01*
X113921582Y-89778084D01*
X114057829Y-89705258D01*
X114177251Y-89607251D01*
X114275258Y-89487829D01*
X114348084Y-89351582D01*
X114392929Y-89203745D01*
X114408072Y-89050000D01*
X114408072Y-88750000D01*
X114392929Y-88596255D01*
X114348084Y-88448418D01*
X114275258Y-88312171D01*
X114236546Y-88265000D01*
X114275258Y-88217829D01*
X114348084Y-88081582D01*
X114392929Y-87933745D01*
X114408072Y-87780000D01*
X114408072Y-87727333D01*
X114470499Y-87803401D01*
X114499502Y-87827204D01*
X116713305Y-90041008D01*
X116737099Y-90070001D01*
X116766092Y-90093795D01*
X116766096Y-90093799D01*
X116827650Y-90144314D01*
X116852824Y-90164974D01*
X116984853Y-90235546D01*
X117128114Y-90279003D01*
X117239767Y-90290000D01*
X117239776Y-90290000D01*
X117277099Y-90293676D01*
X117314422Y-90290000D01*
X133646378Y-90290000D01*
X133683700Y-90293676D01*
X133721022Y-90290000D01*
X133721033Y-90290000D01*
X133832686Y-90279003D01*
X133975947Y-90235546D01*
X134107976Y-90164974D01*
X134223701Y-90070001D01*
X134247504Y-90040997D01*
X136618260Y-87670242D01*
X136735518Y-87705812D01*
X136860000Y-87718072D01*
X137460000Y-87718072D01*
X137584482Y-87705812D01*
X137704180Y-87669502D01*
X137714306Y-87664090D01*
X137724454Y-87697546D01*
X137795026Y-87829576D01*
X137858168Y-87906514D01*
X137890000Y-87945301D01*
X137918998Y-87969099D01*
X138404398Y-88454500D01*
X136649003Y-90209896D01*
X136619999Y-90233699D01*
X136572165Y-90291986D01*
X136525026Y-90349424D01*
X136469264Y-90453746D01*
X136454454Y-90481454D01*
X136410997Y-90624715D01*
X136400000Y-90736368D01*
X136400000Y-90736378D01*
X136396324Y-90773700D01*
X136400000Y-90811023D01*
X136400001Y-94089555D01*
X136329463Y-94175506D01*
X136270498Y-94285820D01*
X136234188Y-94405518D01*
X136221928Y-94530000D01*
X136221928Y-96480000D01*
X136234188Y-96604482D01*
X136270498Y-96724180D01*
X136329463Y-96834494D01*
X136408815Y-96931185D01*
X136505506Y-97010537D01*
X136615820Y-97069502D01*
X136735518Y-97105812D01*
X136860000Y-97118072D01*
X137025401Y-97118072D01*
X137025400Y-104541698D01*
X136628798Y-104938301D01*
X136599800Y-104962099D01*
X136576002Y-104991097D01*
X136576001Y-104991098D01*
X136504826Y-105077824D01*
X136445204Y-105189368D01*
X136239840Y-105189368D01*
X136115358Y-105201628D01*
X135995660Y-105237938D01*
X135885346Y-105296903D01*
X135862889Y-105315333D01*
X135849254Y-105304143D01*
X135738940Y-105245178D01*
X135619242Y-105208868D01*
X135494760Y-105196608D01*
X135289364Y-105196608D01*
X135229774Y-105085124D01*
X135134801Y-104969399D01*
X135130792Y-104966108D01*
X135127501Y-104962099D01*
X135011776Y-104867126D01*
X134879747Y-104796554D01*
X134736486Y-104753097D01*
X134624833Y-104742100D01*
X134624822Y-104742100D01*
X134587500Y-104738424D01*
X134550178Y-104742100D01*
X132097133Y-104742100D01*
X132059800Y-104738423D01*
X132022467Y-104742100D01*
X131910814Y-104753097D01*
X131767553Y-104796554D01*
X131635524Y-104867126D01*
X131519799Y-104962099D01*
X131424826Y-105077824D01*
X131365204Y-105189368D01*
X131159840Y-105189368D01*
X131035358Y-105201628D01*
X130915660Y-105237938D01*
X130805346Y-105296903D01*
X130789840Y-105309628D01*
X130774334Y-105296903D01*
X130664020Y-105237938D01*
X130544322Y-105201628D01*
X130419840Y-105189368D01*
X128619840Y-105189368D01*
X128495358Y-105201628D01*
X128375660Y-105237938D01*
X128265346Y-105296903D01*
X128249840Y-105309628D01*
X128234334Y-105296903D01*
X128124020Y-105237938D01*
X128004322Y-105201628D01*
X127879840Y-105189368D01*
X126079840Y-105189368D01*
X125955358Y-105201628D01*
X125835660Y-105237938D01*
X125725346Y-105296903D01*
X125652600Y-105356604D01*
X125652600Y-105006823D01*
X125649601Y-104976374D01*
X125649650Y-104969373D01*
X125648683Y-104959507D01*
X125625366Y-104737655D01*
X125612429Y-104674631D01*
X125600368Y-104611405D01*
X125597502Y-104601915D01*
X125531538Y-104388817D01*
X125506606Y-104329508D01*
X125482494Y-104269829D01*
X125477840Y-104261076D01*
X125371740Y-104064849D01*
X125335767Y-104011517D01*
X125300521Y-103957655D01*
X125294255Y-103949973D01*
X125294254Y-103949971D01*
X125294250Y-103949967D01*
X125152062Y-103778090D01*
X125106407Y-103732753D01*
X125061377Y-103686770D01*
X125053739Y-103680451D01*
X124880869Y-103539461D01*
X124827257Y-103503841D01*
X124774170Y-103467492D01*
X124765450Y-103462777D01*
X124568486Y-103358050D01*
X124508988Y-103333527D01*
X124449847Y-103308179D01*
X124440377Y-103305248D01*
X124226824Y-103240772D01*
X124163756Y-103228284D01*
X124100752Y-103214892D01*
X124090893Y-103213856D01*
X123868985Y-103192098D01*
X123835439Y-103188748D01*
X114462215Y-103176048D01*
X114343554Y-103164413D01*
X114263297Y-103140182D01*
X114189266Y-103100819D01*
X114124292Y-103047827D01*
X114070848Y-102983225D01*
X114030971Y-102909473D01*
X114006179Y-102829383D01*
X113994000Y-102713503D01*
X113994000Y-96990000D01*
X118576928Y-96990000D01*
X118576928Y-98590000D01*
X118589188Y-98714482D01*
X118625498Y-98834180D01*
X118684463Y-98944494D01*
X118763815Y-99041185D01*
X118860506Y-99120537D01*
X118970820Y-99179502D01*
X119090518Y-99215812D01*
X119215000Y-99228072D01*
X120815000Y-99228072D01*
X120939482Y-99215812D01*
X121059180Y-99179502D01*
X121169494Y-99120537D01*
X121266185Y-99041185D01*
X121345537Y-98944494D01*
X121404502Y-98834180D01*
X121433661Y-98738057D01*
X121600241Y-98904637D01*
X121835273Y-99061680D01*
X122096426Y-99169853D01*
X122373665Y-99225000D01*
X122656335Y-99225000D01*
X122933574Y-99169853D01*
X123194727Y-99061680D01*
X123429759Y-98904637D01*
X123629637Y-98704759D01*
X123786680Y-98469727D01*
X123894853Y-98208574D01*
X123950000Y-97931335D01*
X123950000Y-97648665D01*
X123894853Y-97371426D01*
X123786680Y-97110273D01*
X123629637Y-96875241D01*
X123429759Y-96675363D01*
X123194727Y-96518320D01*
X122933574Y-96410147D01*
X122656335Y-96355000D01*
X122373665Y-96355000D01*
X122096426Y-96410147D01*
X121835273Y-96518320D01*
X121600241Y-96675363D01*
X121433661Y-96841943D01*
X121404502Y-96745820D01*
X121345537Y-96635506D01*
X121266185Y-96538815D01*
X121169494Y-96459463D01*
X121059180Y-96400498D01*
X120939482Y-96364188D01*
X120815000Y-96351928D01*
X119215000Y-96351928D01*
X119090518Y-96364188D01*
X118970820Y-96400498D01*
X118860506Y-96459463D01*
X118763815Y-96538815D01*
X118684463Y-96635506D01*
X118625498Y-96745820D01*
X118589188Y-96865518D01*
X118576928Y-96990000D01*
X113994000Y-96990000D01*
X113994000Y-93881623D01*
X113991001Y-93851174D01*
X113991050Y-93844173D01*
X113990083Y-93834307D01*
X113966766Y-93612455D01*
X113953829Y-93549431D01*
X113941768Y-93486205D01*
X113938902Y-93476715D01*
X113903676Y-93362915D01*
X125947260Y-93362915D01*
X125947260Y-94028125D01*
X126077036Y-94680555D01*
X126331601Y-95295129D01*
X126701173Y-95848232D01*
X127171548Y-96318607D01*
X127724651Y-96688179D01*
X128339225Y-96942744D01*
X128991655Y-97072520D01*
X129656865Y-97072520D01*
X130309295Y-96942744D01*
X130923869Y-96688179D01*
X131476972Y-96318607D01*
X131947347Y-95848232D01*
X132316919Y-95295129D01*
X132571484Y-94680555D01*
X132701260Y-94028125D01*
X132701260Y-93362915D01*
X132571484Y-92710485D01*
X132316919Y-92095911D01*
X131947347Y-91542808D01*
X131476972Y-91072433D01*
X130923869Y-90702861D01*
X130309295Y-90448296D01*
X129656865Y-90318520D01*
X128991655Y-90318520D01*
X128339225Y-90448296D01*
X127724651Y-90702861D01*
X127171548Y-91072433D01*
X126701173Y-91542808D01*
X126331601Y-92095911D01*
X126077036Y-92710485D01*
X125947260Y-93362915D01*
X113903676Y-93362915D01*
X113872938Y-93263617D01*
X113848005Y-93204304D01*
X113823894Y-93144629D01*
X113819240Y-93135876D01*
X113713140Y-92939649D01*
X113677167Y-92886317D01*
X113641921Y-92832455D01*
X113635655Y-92824773D01*
X113635654Y-92824771D01*
X113635650Y-92824767D01*
X113493462Y-92652890D01*
X113447807Y-92607553D01*
X113402777Y-92561570D01*
X113395139Y-92555251D01*
X113222269Y-92414261D01*
X113168657Y-92378641D01*
X113115570Y-92342292D01*
X113106850Y-92337577D01*
X112909886Y-92232850D01*
X112850388Y-92208327D01*
X112791247Y-92182979D01*
X112781777Y-92180048D01*
X112568224Y-92115572D01*
X112505156Y-92103084D01*
X112442152Y-92089692D01*
X112432293Y-92088656D01*
X112210283Y-92066888D01*
X112210277Y-92066888D01*
X112175877Y-92063500D01*
X105508229Y-92063500D01*
X105390054Y-92051913D01*
X105309797Y-92027682D01*
X105235766Y-91988319D01*
X105170792Y-91935327D01*
X105117348Y-91870725D01*
X105077471Y-91796973D01*
X105052679Y-91716883D01*
X105040500Y-91601003D01*
X105040500Y-60745390D01*
X106889524Y-60745390D01*
X106934175Y-60892599D01*
X107059359Y-61155420D01*
X107233412Y-61388769D01*
X107449645Y-61583678D01*
X107699748Y-61732657D01*
X107974109Y-61829981D01*
X108204000Y-61709314D01*
X108204000Y-60515500D01*
X107010845Y-60515500D01*
X106889524Y-60745390D01*
X105040500Y-60745390D01*
X105040500Y-50834729D01*
X105052087Y-50716554D01*
X105076319Y-50636296D01*
X105115680Y-50562267D01*
X105168670Y-50497295D01*
X105233273Y-50443850D01*
X105307026Y-50403972D01*
X105387118Y-50379179D01*
X105503234Y-50366975D01*
X165922554Y-50317028D01*
X166040446Y-50328587D01*
G36*
X155385372Y-94991338D02*
G01*
X155255138Y-95121572D01*
X155152814Y-95274711D01*
X155082332Y-95444871D01*
X155046400Y-95625511D01*
X155046400Y-95809689D01*
X155082332Y-95990329D01*
X155152814Y-96160489D01*
X155255138Y-96313628D01*
X155385372Y-96443862D01*
X155538511Y-96546186D01*
X155708671Y-96616668D01*
X155740415Y-96622982D01*
X155656072Y-96679338D01*
X155525838Y-96809572D01*
X155423514Y-96962711D01*
X155353032Y-97132871D01*
X155317100Y-97313511D01*
X155317100Y-97327700D01*
X148917203Y-97327700D01*
X148704503Y-97115000D01*
X148717002Y-97115000D01*
X148717002Y-96956252D01*
X148875750Y-97115000D01*
X148890000Y-97118072D01*
X149014482Y-97105812D01*
X149134180Y-97069502D01*
X149244494Y-97010537D01*
X149341185Y-96931185D01*
X149420537Y-96834494D01*
X149479502Y-96724180D01*
X149515812Y-96604482D01*
X149528072Y-96480000D01*
X149525000Y-95790750D01*
X149366250Y-95632000D01*
X148717000Y-95632000D01*
X148717000Y-95652000D01*
X148463000Y-95652000D01*
X148463000Y-95632000D01*
X148443000Y-95632000D01*
X148443000Y-95378000D01*
X148463000Y-95378000D01*
X148463000Y-95358000D01*
X148717000Y-95358000D01*
X148717000Y-95378000D01*
X149366250Y-95378000D01*
X149525000Y-95219250D01*
X149526135Y-94964700D01*
X155425239Y-94964700D01*
X155385372Y-94991338D01*
G37*
X155385372Y-94991338D02*
X155255138Y-95121572D01*
X155152814Y-95274711D01*
X155082332Y-95444871D01*
X155046400Y-95625511D01*
X155046400Y-95809689D01*
X155082332Y-95990329D01*
X155152814Y-96160489D01*
X155255138Y-96313628D01*
X155385372Y-96443862D01*
X155538511Y-96546186D01*
X155708671Y-96616668D01*
X155740415Y-96622982D01*
X155656072Y-96679338D01*
X155525838Y-96809572D01*
X155423514Y-96962711D01*
X155353032Y-97132871D01*
X155317100Y-97313511D01*
X155317100Y-97327700D01*
X148917203Y-97327700D01*
X148704503Y-97115000D01*
X148717002Y-97115000D01*
X148717002Y-96956252D01*
X148875750Y-97115000D01*
X148890000Y-97118072D01*
X149014482Y-97105812D01*
X149134180Y-97069502D01*
X149244494Y-97010537D01*
X149341185Y-96931185D01*
X149420537Y-96834494D01*
X149479502Y-96724180D01*
X149515812Y-96604482D01*
X149528072Y-96480000D01*
X149525000Y-95790750D01*
X149366250Y-95632000D01*
X148717000Y-95632000D01*
X148717000Y-95652000D01*
X148463000Y-95652000D01*
X148463000Y-95632000D01*
X148443000Y-95632000D01*
X148443000Y-95378000D01*
X148463000Y-95378000D01*
X148463000Y-95358000D01*
X148717000Y-95358000D01*
X148717000Y-95378000D01*
X149366250Y-95378000D01*
X149525000Y-95219250D01*
X149526135Y-94964700D01*
X155425239Y-94964700D01*
X155385372Y-94991338D01*
G36*
X192306525Y-78641132D02*
G01*
X192513368Y-78847975D01*
X192756589Y-79010490D01*
X193026842Y-79122432D01*
X193313740Y-79179500D01*
X193606260Y-79179500D01*
X193880100Y-79125029D01*
X193880100Y-82672998D01*
X181146174Y-95406924D01*
X181116250Y-95377000D01*
X180467000Y-95377000D01*
X180467000Y-95397000D01*
X180213000Y-95397000D01*
X180213000Y-95377000D01*
X180193000Y-95377000D01*
X180193000Y-95123000D01*
X180213000Y-95123000D01*
X180213000Y-93748750D01*
X180467000Y-93748750D01*
X180467000Y-95123000D01*
X181116250Y-95123000D01*
X181275000Y-94964250D01*
X181278072Y-94225000D01*
X181265812Y-94100518D01*
X181229502Y-93980820D01*
X181170537Y-93870506D01*
X181091185Y-93773815D01*
X180994494Y-93694463D01*
X180884180Y-93635498D01*
X180764482Y-93599188D01*
X180640000Y-93586928D01*
X180625750Y-93590000D01*
X180467000Y-93748750D01*
X180213000Y-93748750D01*
X180054250Y-93590000D01*
X180040000Y-93586928D01*
X179915518Y-93599188D01*
X179795820Y-93635498D01*
X179685506Y-93694463D01*
X179655936Y-93718730D01*
X179521582Y-93646916D01*
X179373745Y-93602071D01*
X179220000Y-93586928D01*
X178920000Y-93586928D01*
X178909922Y-93587921D01*
X178706703Y-93384702D01*
X178682901Y-93355699D01*
X178567176Y-93260726D01*
X178435147Y-93190154D01*
X178291886Y-93146697D01*
X178180233Y-93135700D01*
X178180222Y-93135700D01*
X178142900Y-93132024D01*
X178105578Y-93135700D01*
X177728901Y-93135700D01*
X191431003Y-79433599D01*
X191460001Y-79409801D01*
X191554974Y-79294076D01*
X191625546Y-79162047D01*
X191669003Y-79018786D01*
X191673089Y-78977296D01*
X191866632Y-78847975D01*
X192073475Y-78641132D01*
X192190000Y-78466740D01*
X192306525Y-78641132D01*
G37*
X192306525Y-78641132D02*
X192513368Y-78847975D01*
X192756589Y-79010490D01*
X193026842Y-79122432D01*
X193313740Y-79179500D01*
X193606260Y-79179500D01*
X193880100Y-79125029D01*
X193880100Y-82672998D01*
X181146174Y-95406924D01*
X181116250Y-95377000D01*
X180467000Y-95377000D01*
X180467000Y-95397000D01*
X180213000Y-95397000D01*
X180213000Y-95377000D01*
X180193000Y-95377000D01*
X180193000Y-95123000D01*
X180213000Y-95123000D01*
X180213000Y-93748750D01*
X180467000Y-93748750D01*
X180467000Y-95123000D01*
X181116250Y-95123000D01*
X181275000Y-94964250D01*
X181278072Y-94225000D01*
X181265812Y-94100518D01*
X181229502Y-93980820D01*
X181170537Y-93870506D01*
X181091185Y-93773815D01*
X180994494Y-93694463D01*
X180884180Y-93635498D01*
X180764482Y-93599188D01*
X180640000Y-93586928D01*
X180625750Y-93590000D01*
X180467000Y-93748750D01*
X180213000Y-93748750D01*
X180054250Y-93590000D01*
X180040000Y-93586928D01*
X179915518Y-93599188D01*
X179795820Y-93635498D01*
X179685506Y-93694463D01*
X179655936Y-93718730D01*
X179521582Y-93646916D01*
X179373745Y-93602071D01*
X179220000Y-93586928D01*
X178920000Y-93586928D01*
X178909922Y-93587921D01*
X178706703Y-93384702D01*
X178682901Y-93355699D01*
X178567176Y-93260726D01*
X178435147Y-93190154D01*
X178291886Y-93146697D01*
X178180233Y-93135700D01*
X178180222Y-93135700D01*
X178142900Y-93132024D01*
X178105578Y-93135700D01*
X177728901Y-93135700D01*
X191431003Y-79433599D01*
X191460001Y-79409801D01*
X191554974Y-79294076D01*
X191625546Y-79162047D01*
X191669003Y-79018786D01*
X191673089Y-78977296D01*
X191866632Y-78847975D01*
X192073475Y-78641132D01*
X192190000Y-78466740D01*
X192306525Y-78641132D01*
G36*
X146586525Y-76101132D02*
G01*
X146793368Y-76307975D01*
X146969406Y-76425600D01*
X146739731Y-76596912D01*
X146544822Y-76813145D01*
X146395843Y-77063248D01*
X146298519Y-77337609D01*
X146419186Y-77567500D01*
X147613000Y-77567500D01*
X147613000Y-77547500D01*
X147867000Y-77547500D01*
X147867000Y-77567500D01*
X147887000Y-77567500D01*
X147887000Y-77821500D01*
X147867000Y-77821500D01*
X147867000Y-77841500D01*
X147613000Y-77841500D01*
X147613000Y-77821500D01*
X146419186Y-77821500D01*
X146298519Y-78051391D01*
X146386353Y-78299000D01*
X139832322Y-78299000D01*
X139794999Y-78295324D01*
X139757676Y-78299000D01*
X139757667Y-78299000D01*
X139646014Y-78309997D01*
X139502753Y-78353454D01*
X139370724Y-78424026D01*
X139370722Y-78424027D01*
X139370723Y-78424027D01*
X139283996Y-78495201D01*
X139283992Y-78495205D01*
X139254999Y-78518999D01*
X139231205Y-78547992D01*
X130909199Y-86870000D01*
X119566859Y-86870000D01*
X119598084Y-86811582D01*
X119642929Y-86663745D01*
X119658072Y-86510000D01*
X119658072Y-86210000D01*
X119642929Y-86056255D01*
X119598084Y-85908418D01*
X119526270Y-85774064D01*
X119550537Y-85744494D01*
X119609502Y-85634180D01*
X119645812Y-85514482D01*
X119658072Y-85390000D01*
X119655000Y-85375750D01*
X119496250Y-85217000D01*
X118322000Y-85217000D01*
X118322000Y-85237000D01*
X118068000Y-85237000D01*
X118068000Y-85217000D01*
X118048000Y-85217000D01*
X118048000Y-84963000D01*
X118068000Y-84963000D01*
X118068000Y-84943000D01*
X118322000Y-84943000D01*
X118322000Y-84963000D01*
X119496250Y-84963000D01*
X119655000Y-84804250D01*
X119658072Y-84790000D01*
X119645812Y-84665518D01*
X119609502Y-84545820D01*
X119550537Y-84435506D01*
X119471185Y-84338815D01*
X119374494Y-84259463D01*
X119264180Y-84200498D01*
X119144482Y-84164188D01*
X119020000Y-84151928D01*
X118667063Y-84153939D01*
X126906502Y-75914500D01*
X146461822Y-75914500D01*
X146586525Y-76101132D01*
G37*
X146586525Y-76101132D02*
X146793368Y-76307975D01*
X146969406Y-76425600D01*
X146739731Y-76596912D01*
X146544822Y-76813145D01*
X146395843Y-77063248D01*
X146298519Y-77337609D01*
X146419186Y-77567500D01*
X147613000Y-77567500D01*
X147613000Y-77547500D01*
X147867000Y-77547500D01*
X147867000Y-77567500D01*
X147887000Y-77567500D01*
X147887000Y-77821500D01*
X147867000Y-77821500D01*
X147867000Y-77841500D01*
X147613000Y-77841500D01*
X147613000Y-77821500D01*
X146419186Y-77821500D01*
X146298519Y-78051391D01*
X146386353Y-78299000D01*
X139832322Y-78299000D01*
X139794999Y-78295324D01*
X139757676Y-78299000D01*
X139757667Y-78299000D01*
X139646014Y-78309997D01*
X139502753Y-78353454D01*
X139370724Y-78424026D01*
X139370722Y-78424027D01*
X139370723Y-78424027D01*
X139283996Y-78495201D01*
X139283992Y-78495205D01*
X139254999Y-78518999D01*
X139231205Y-78547992D01*
X130909199Y-86870000D01*
X119566859Y-86870000D01*
X119598084Y-86811582D01*
X119642929Y-86663745D01*
X119658072Y-86510000D01*
X119658072Y-86210000D01*
X119642929Y-86056255D01*
X119598084Y-85908418D01*
X119526270Y-85774064D01*
X119550537Y-85744494D01*
X119609502Y-85634180D01*
X119645812Y-85514482D01*
X119658072Y-85390000D01*
X119655000Y-85375750D01*
X119496250Y-85217000D01*
X118322000Y-85217000D01*
X118322000Y-85237000D01*
X118068000Y-85237000D01*
X118068000Y-85217000D01*
X118048000Y-85217000D01*
X118048000Y-84963000D01*
X118068000Y-84963000D01*
X118068000Y-84943000D01*
X118322000Y-84943000D01*
X118322000Y-84963000D01*
X119496250Y-84963000D01*
X119655000Y-84804250D01*
X119658072Y-84790000D01*
X119645812Y-84665518D01*
X119609502Y-84545820D01*
X119550537Y-84435506D01*
X119471185Y-84338815D01*
X119374494Y-84259463D01*
X119264180Y-84200498D01*
X119144482Y-84164188D01*
X119020000Y-84151928D01*
X118667063Y-84153939D01*
X126906502Y-75914500D01*
X146461822Y-75914500D01*
X146586525Y-76101132D01*
G36*
X185967000Y-77567500D02*
G01*
X185987000Y-77567500D01*
X185987000Y-77821500D01*
X185967000Y-77821500D01*
X185967000Y-77841500D01*
X185713000Y-77841500D01*
X185713000Y-77821500D01*
X185693000Y-77821500D01*
X185693000Y-77567500D01*
X185713000Y-77567500D01*
X185713000Y-77547500D01*
X185967000Y-77547500D01*
X185967000Y-77567500D01*
G37*
X185967000Y-77567500D02*
X185987000Y-77567500D01*
X185987000Y-77821500D01*
X185967000Y-77821500D01*
X185967000Y-77841500D01*
X185713000Y-77841500D01*
X185713000Y-77821500D01*
X185693000Y-77821500D01*
X185693000Y-77567500D01*
X185713000Y-77567500D01*
X185713000Y-77547500D01*
X185967000Y-77547500D01*
X185967000Y-77567500D01*
G36*
X165647000Y-77567500D02*
G01*
X165667000Y-77567500D01*
X165667000Y-77821500D01*
X165647000Y-77821500D01*
X165647000Y-77841500D01*
X165393000Y-77841500D01*
X165393000Y-77821500D01*
X165373000Y-77821500D01*
X165373000Y-77567500D01*
X165393000Y-77567500D01*
X165393000Y-77547500D01*
X165647000Y-77547500D01*
X165647000Y-77567500D01*
G37*
X165647000Y-77567500D02*
X165667000Y-77567500D01*
X165667000Y-77821500D01*
X165647000Y-77821500D01*
X165647000Y-77841500D01*
X165393000Y-77841500D01*
X165393000Y-77821500D01*
X165373000Y-77821500D01*
X165373000Y-77567500D01*
X165393000Y-77567500D01*
X165393000Y-77547500D01*
X165647000Y-77547500D01*
X165647000Y-77567500D01*
G36*
X155487000Y-75027500D02*
G01*
X155507000Y-75027500D01*
X155507000Y-75281500D01*
X155487000Y-75281500D01*
X155487000Y-75301500D01*
X155233000Y-75301500D01*
X155233000Y-75281500D01*
X155213000Y-75281500D01*
X155213000Y-75027500D01*
X155233000Y-75027500D01*
X155233000Y-75007500D01*
X155487000Y-75007500D01*
X155487000Y-75027500D01*
G37*
X155487000Y-75027500D02*
X155507000Y-75027500D01*
X155507000Y-75281500D01*
X155487000Y-75281500D01*
X155487000Y-75301500D01*
X155233000Y-75301500D01*
X155233000Y-75281500D01*
X155213000Y-75281500D01*
X155213000Y-75027500D01*
X155233000Y-75027500D01*
X155233000Y-75007500D01*
X155487000Y-75007500D01*
X155487000Y-75027500D01*
G36*
X160567000Y-75027500D02*
G01*
X160587000Y-75027500D01*
X160587000Y-75281500D01*
X160567000Y-75281500D01*
X160567000Y-75301500D01*
X160313000Y-75301500D01*
X160313000Y-75281500D01*
X160293000Y-75281500D01*
X160293000Y-75027500D01*
X160313000Y-75027500D01*
X160313000Y-75007500D01*
X160567000Y-75007500D01*
X160567000Y-75027500D01*
G37*
X160567000Y-75027500D02*
X160587000Y-75027500D01*
X160587000Y-75281500D01*
X160567000Y-75281500D01*
X160567000Y-75301500D01*
X160313000Y-75301500D01*
X160313000Y-75281500D01*
X160293000Y-75281500D01*
X160293000Y-75027500D01*
X160313000Y-75027500D01*
X160313000Y-75007500D01*
X160567000Y-75007500D01*
X160567000Y-75027500D01*
G36*
X180096363Y-73833664D02*
G01*
X179993080Y-73882859D01*
X179759731Y-74056912D01*
X179564822Y-74273145D01*
X179495195Y-74390034D01*
X179373475Y-74207868D01*
X179166632Y-74001025D01*
X178923411Y-73838510D01*
X178653158Y-73726568D01*
X178366260Y-73669500D01*
X178073740Y-73669500D01*
X177786842Y-73726568D01*
X177516589Y-73838510D01*
X177273368Y-74001025D01*
X177066525Y-74207868D01*
X176950000Y-74382260D01*
X176833475Y-74207868D01*
X176626632Y-74001025D01*
X176383411Y-73838510D01*
X176113158Y-73726568D01*
X175826260Y-73669500D01*
X175533740Y-73669500D01*
X175246842Y-73726568D01*
X174976589Y-73838510D01*
X174733368Y-74001025D01*
X174526525Y-74207868D01*
X174404805Y-74390034D01*
X174335178Y-74273145D01*
X174140269Y-74056912D01*
X173906920Y-73882859D01*
X173644099Y-73757675D01*
X173496890Y-73713024D01*
X173267000Y-73834345D01*
X173267000Y-75027500D01*
X173287000Y-75027500D01*
X173287000Y-75281500D01*
X173267000Y-75281500D01*
X173267000Y-75301500D01*
X173013000Y-75301500D01*
X173013000Y-75281500D01*
X172993000Y-75281500D01*
X172993000Y-75027500D01*
X173013000Y-75027500D01*
X173013000Y-73834345D01*
X172783110Y-73713024D01*
X172635901Y-73757675D01*
X172373080Y-73882859D01*
X172235260Y-73985658D01*
X171504701Y-73255100D01*
X179517799Y-73255100D01*
X180096363Y-73833664D01*
G37*
X180096363Y-73833664D02*
X179993080Y-73882859D01*
X179759731Y-74056912D01*
X179564822Y-74273145D01*
X179495195Y-74390034D01*
X179373475Y-74207868D01*
X179166632Y-74001025D01*
X178923411Y-73838510D01*
X178653158Y-73726568D01*
X178366260Y-73669500D01*
X178073740Y-73669500D01*
X177786842Y-73726568D01*
X177516589Y-73838510D01*
X177273368Y-74001025D01*
X177066525Y-74207868D01*
X176950000Y-74382260D01*
X176833475Y-74207868D01*
X176626632Y-74001025D01*
X176383411Y-73838510D01*
X176113158Y-73726568D01*
X175826260Y-73669500D01*
X175533740Y-73669500D01*
X175246842Y-73726568D01*
X174976589Y-73838510D01*
X174733368Y-74001025D01*
X174526525Y-74207868D01*
X174404805Y-74390034D01*
X174335178Y-74273145D01*
X174140269Y-74056912D01*
X173906920Y-73882859D01*
X173644099Y-73757675D01*
X173496890Y-73713024D01*
X173267000Y-73834345D01*
X173267000Y-75027500D01*
X173287000Y-75027500D01*
X173287000Y-75281500D01*
X173267000Y-75281500D01*
X173267000Y-75301500D01*
X173013000Y-75301500D01*
X173013000Y-75281500D01*
X172993000Y-75281500D01*
X172993000Y-75027500D01*
X173013000Y-75027500D01*
X173013000Y-73834345D01*
X172783110Y-73713024D01*
X172635901Y-73757675D01*
X172373080Y-73882859D01*
X172235260Y-73985658D01*
X171504701Y-73255100D01*
X179517799Y-73255100D01*
X180096363Y-73833664D01*
G36*
X180887000Y-75027500D02*
G01*
X180907000Y-75027500D01*
X180907000Y-75281500D01*
X180887000Y-75281500D01*
X180887000Y-75301500D01*
X180633000Y-75301500D01*
X180633000Y-75281500D01*
X180613000Y-75281500D01*
X180613000Y-75027500D01*
X180633000Y-75027500D01*
X180633000Y-75007500D01*
X180887000Y-75007500D01*
X180887000Y-75027500D01*
G37*
X180887000Y-75027500D02*
X180907000Y-75027500D01*
X180907000Y-75281500D01*
X180887000Y-75281500D01*
X180887000Y-75301500D01*
X180633000Y-75301500D01*
X180633000Y-75281500D01*
X180613000Y-75281500D01*
X180613000Y-75027500D01*
X180633000Y-75027500D01*
X180633000Y-75007500D01*
X180887000Y-75007500D01*
X180887000Y-75027500D01*
G36*
X191047000Y-75027500D02*
G01*
X191067000Y-75027500D01*
X191067000Y-75281500D01*
X191047000Y-75281500D01*
X191047000Y-75301500D01*
X190793000Y-75301500D01*
X190793000Y-75281500D01*
X190773000Y-75281500D01*
X190773000Y-75027500D01*
X190793000Y-75027500D01*
X190793000Y-75007500D01*
X191047000Y-75007500D01*
X191047000Y-75027500D01*
G37*
X191047000Y-75027500D02*
X191067000Y-75027500D01*
X191067000Y-75281500D01*
X191047000Y-75281500D01*
X191047000Y-75301500D01*
X190793000Y-75301500D01*
X190793000Y-75281500D01*
X190773000Y-75281500D01*
X190773000Y-75027500D01*
X190793000Y-75027500D01*
X190793000Y-75007500D01*
X191047000Y-75007500D01*
X191047000Y-75027500D01*
M02*
