G04 #@! TF.GenerationSoftware,KiCad,Pcbnew,5.1.5+dfsg1-2*
G04 #@! TF.CreationDate,2020-04-06T16:56:46-07:00*
G04 #@! TF.ProjectId,rpmpv1,72706d70-7631-42e6-9b69-6361645f7063,rev?*
G04 #@! TF.SameCoordinates,Original*
G04 #@! TF.FileFunction,Copper,L2,Bot*
G04 #@! TF.FilePolarity,Positive*
%FSLAX46Y46*%
G04 Gerber Fmt 4.6, Leading zero omitted, Abs format (unit mm)*
G04 Created by KiCad (PCBNEW 5.1.5+dfsg1-2) date 2020-04-06 16:56:46*
%MOMM*%
%LPD*%
G04 APERTURE LIST*
%ADD10O,1.700000X1.700000*%
%ADD11R,1.700000X1.700000*%
%ADD12R,0.600000X2.000000*%
%ADD13R,1.200000X0.900000*%
%ADD14R,0.900000X1.200000*%
%ADD15R,0.600000X1.500000*%
%ADD16R,0.600000X1.950000*%
%ADD17R,1.200000X0.750000*%
%ADD18R,1.800000X8.000000*%
%ADD19R,1.600000X1.600000*%
%ADD20C,1.600000*%
%ADD21C,0.600000*%
%ADD22C,0.250000*%
%ADD23C,0.400000*%
%ADD24C,0.254000*%
G04 APERTURE END LIST*
D10*
X147740000Y-75154500D03*
X147740000Y-77694500D03*
X150280000Y-75154500D03*
X150280000Y-77694500D03*
X152820000Y-75154500D03*
X152820000Y-77694500D03*
X155360000Y-75154500D03*
X155360000Y-77694500D03*
X157900000Y-75154500D03*
X157900000Y-77694500D03*
X160440000Y-75154500D03*
X160440000Y-77694500D03*
X162980000Y-75154500D03*
X162980000Y-77694500D03*
X165520000Y-75154500D03*
X165520000Y-77694500D03*
X168060000Y-75154500D03*
X168060000Y-77694500D03*
X170600000Y-75154500D03*
X170600000Y-77694500D03*
X173140000Y-75154500D03*
X173140000Y-77694500D03*
X175680000Y-75154500D03*
X175680000Y-77694500D03*
X178220000Y-75154500D03*
X178220000Y-77694500D03*
X180760000Y-75154500D03*
X180760000Y-77694500D03*
X183300000Y-75154500D03*
X183300000Y-77694500D03*
X185840000Y-75154500D03*
X185840000Y-77694500D03*
X188380000Y-75154500D03*
X188380000Y-77694500D03*
X190920000Y-75154500D03*
X190920000Y-77694500D03*
X193460000Y-75154500D03*
X193460000Y-77694500D03*
X196000000Y-75154500D03*
D11*
X196000000Y-77694500D03*
D12*
X149225000Y-95505000D03*
X147955000Y-95505000D03*
X146685000Y-95505000D03*
X145415000Y-95505000D03*
X144145000Y-95505000D03*
X142875000Y-95505000D03*
X141605000Y-95505000D03*
X140335000Y-95505000D03*
X139065000Y-95505000D03*
X137795000Y-95505000D03*
X136525000Y-95505000D03*
X135255000Y-95505000D03*
X135255000Y-86105000D03*
X136525000Y-86105000D03*
X137795000Y-86105000D03*
X139065000Y-86105000D03*
X140335000Y-86105000D03*
X141605000Y-86105000D03*
X142875000Y-86105000D03*
X144145000Y-86105000D03*
X145415000Y-86105000D03*
X146685000Y-86105000D03*
X147955000Y-86105000D03*
X149225000Y-86105000D03*
D13*
X120502000Y-55753000D03*
X122702000Y-55753000D03*
D14*
X115570000Y-101430000D03*
X115570000Y-99230000D03*
D13*
X120502000Y-52324000D03*
X122702000Y-52324000D03*
D15*
X163195000Y-93505000D03*
X161925000Y-93505000D03*
X160655000Y-93505000D03*
X159385000Y-93505000D03*
X158115000Y-93505000D03*
X156845000Y-93505000D03*
X155575000Y-93505000D03*
X155575000Y-88105000D03*
X156845000Y-88105000D03*
X158115000Y-88105000D03*
X159385000Y-88105000D03*
X160655000Y-88105000D03*
X161925000Y-88105000D03*
X163195000Y-88105000D03*
D11*
X108331000Y-52768500D03*
D10*
X108331000Y-55308500D03*
X108331000Y-57848500D03*
X108331000Y-60388500D03*
D14*
X115570000Y-96350000D03*
X115570000Y-94150000D03*
D13*
X120502000Y-54038500D03*
X122702000Y-54038500D03*
D16*
X180975000Y-95252000D03*
X179705000Y-95252000D03*
X178435000Y-95252000D03*
X177165000Y-95252000D03*
X175895000Y-95252000D03*
X174625000Y-95252000D03*
X173355000Y-95252000D03*
X172085000Y-95252000D03*
X170815000Y-95252000D03*
X169545000Y-95252000D03*
X169545000Y-85852000D03*
X170815000Y-85852000D03*
X172085000Y-85852000D03*
X173355000Y-85852000D03*
X174625000Y-85852000D03*
X175895000Y-85852000D03*
X177165000Y-85852000D03*
X178435000Y-85852000D03*
X179705000Y-85852000D03*
X180975000Y-85852000D03*
D17*
X118430000Y-101600000D03*
X120330000Y-101600000D03*
D18*
X187939840Y-109827440D03*
X185399840Y-109827440D03*
X182859840Y-109827440D03*
X180319840Y-109827440D03*
X177779840Y-109827440D03*
X175239840Y-109827440D03*
X172699840Y-109827440D03*
X170159840Y-109827440D03*
X167619840Y-109827440D03*
X165079840Y-109827440D03*
X162539840Y-109827440D03*
X159999840Y-109827440D03*
X157459840Y-109827440D03*
X154919840Y-109827440D03*
X152379840Y-109827440D03*
X149839840Y-109827440D03*
X147299840Y-109827440D03*
X144759840Y-109827440D03*
X142219840Y-109827440D03*
X139679840Y-109827440D03*
X137139840Y-109827440D03*
X134599840Y-109827440D03*
X132059840Y-109827440D03*
X129519840Y-109827440D03*
X126979840Y-109827440D03*
D11*
X147760000Y-72594500D03*
D10*
X150300000Y-72594500D03*
X147760000Y-70054500D03*
D11*
X150300000Y-70054500D03*
D19*
X120015000Y-97790000D03*
D20*
X122515000Y-97790000D03*
D21*
X180340000Y-91141600D03*
X150150900Y-95266900D03*
X120413200Y-82871800D03*
X144180400Y-72427000D03*
X139131900Y-89692700D03*
X160335000Y-89517600D03*
X140321100Y-82608500D03*
X140691600Y-90326900D03*
X169507600Y-98764400D03*
X145136000Y-81355200D03*
X170494200Y-98002500D03*
X150663500Y-79684300D03*
X144918000Y-71181900D03*
X166092300Y-91819200D03*
X141050200Y-82157800D03*
X169532900Y-102721100D03*
X179108400Y-103691900D03*
X170574200Y-103477500D03*
X158164700Y-100451800D03*
X175089000Y-104859300D03*
X172824800Y-104859300D03*
X166019500Y-104983400D03*
X153178100Y-87839100D03*
X154254500Y-99975300D03*
X164670400Y-104074200D03*
X164016000Y-99244800D03*
X163092300Y-105035900D03*
X163422500Y-98706300D03*
X157388700Y-82885500D03*
X152582100Y-87303000D03*
X151875300Y-87891500D03*
X154192600Y-102973000D03*
X156252100Y-97405600D03*
X155695100Y-105316400D03*
X156810900Y-96356800D03*
X155981400Y-95717600D03*
X153098300Y-104869200D03*
X155174300Y-92226600D03*
X153003800Y-99700000D03*
X151010300Y-103446400D03*
X152555200Y-98899700D03*
X147195000Y-104827600D03*
X144109300Y-104851600D03*
X141748700Y-105031000D03*
X139053300Y-104875600D03*
X171188000Y-88340300D03*
X149131900Y-88520800D03*
X169636100Y-80975900D03*
X183146500Y-84588600D03*
X159527400Y-91224800D03*
X147067500Y-91929800D03*
X180707500Y-96920400D03*
X169114300Y-83776500D03*
X178948700Y-81197800D03*
X165046400Y-91077700D03*
X153137000Y-82225900D03*
X167824700Y-80009200D03*
X120694600Y-56824500D03*
X118766000Y-54053000D03*
X118767300Y-52353000D03*
X154901000Y-71561100D03*
X156034700Y-71561200D03*
X156694300Y-73712500D03*
X167125200Y-95111600D03*
X166634300Y-87321700D03*
X165587100Y-81335100D03*
X153344200Y-81425500D03*
X109482100Y-89898000D03*
D22*
X169545000Y-93951700D02*
X168657700Y-93064400D01*
X168657700Y-93064400D02*
X168657700Y-87587600D01*
X168657700Y-87587600D02*
X168227700Y-87157600D01*
X168227700Y-87157600D02*
X168227700Y-86717200D01*
X168227700Y-86717200D02*
X164958500Y-83448000D01*
X164958500Y-83448000D02*
X164958500Y-79431300D01*
X164958500Y-79431300D02*
X165520000Y-78869800D01*
X180760000Y-76329800D02*
X180392700Y-76329800D01*
X180392700Y-76329800D02*
X179574000Y-77148500D01*
X179574000Y-77148500D02*
X179574000Y-82164200D01*
X179574000Y-82164200D02*
X181468700Y-84058900D01*
X181468700Y-84058900D02*
X181468700Y-84314800D01*
X181468700Y-84314800D02*
X181620500Y-84466600D01*
X181620500Y-84466600D02*
X181620500Y-86950400D01*
X181620500Y-86950400D02*
X181054900Y-87516000D01*
X181054900Y-87516000D02*
X180338600Y-87516000D01*
X180338600Y-87516000D02*
X180203700Y-87650900D01*
X143101400Y-88936000D02*
X141072900Y-90964500D01*
X141072900Y-90964500D02*
X138789200Y-90964500D01*
X138789200Y-90964500D02*
X135255000Y-87430300D01*
X147740000Y-78869800D02*
X147740000Y-79635800D01*
X147740000Y-79635800D02*
X144789700Y-82586100D01*
X144789700Y-82586100D02*
X144789700Y-87247700D01*
X144789700Y-87247700D02*
X143101400Y-88936000D01*
X143101400Y-88936000D02*
X147186800Y-93021400D01*
X147186800Y-93021400D02*
X148884700Y-93021400D01*
X148884700Y-93021400D02*
X150150900Y-94287600D01*
X150150900Y-94287600D02*
X150150900Y-95266900D01*
X180203700Y-87650900D02*
X180203600Y-87651000D01*
X180203600Y-87651000D02*
X180203600Y-90460400D01*
X180203600Y-90460400D02*
X180340000Y-90596800D01*
X180340000Y-90596800D02*
X180340000Y-91141600D01*
X180203700Y-87650900D02*
X179705000Y-87152300D01*
X160440000Y-75154500D02*
X161615300Y-75154500D01*
X161615300Y-75154500D02*
X161615300Y-74787200D01*
X161615300Y-74787200D02*
X162423400Y-73979100D01*
X162423400Y-73979100D02*
X163528800Y-73979100D01*
X163528800Y-73979100D02*
X164155400Y-74605700D01*
X164155400Y-74605700D02*
X164155400Y-75517100D01*
X164155400Y-75517100D02*
X165157500Y-76519200D01*
X165157500Y-76519200D02*
X165520000Y-76519200D01*
X165520000Y-77694500D02*
X165520000Y-76519200D01*
X173140000Y-75154500D02*
X171964700Y-75154500D01*
X165520000Y-77694500D02*
X165520000Y-78869800D01*
X171964700Y-75154500D02*
X171964700Y-74787200D01*
X171964700Y-74787200D02*
X171138600Y-73961100D01*
X171138600Y-73961100D02*
X167588400Y-73961100D01*
X167588400Y-73961100D02*
X166695300Y-74854200D01*
X166695300Y-74854200D02*
X166695300Y-75711300D01*
X166695300Y-75711300D02*
X165887400Y-76519200D01*
X165887400Y-76519200D02*
X165520000Y-76519200D01*
X179705000Y-85852000D02*
X179705000Y-87152300D01*
X180760000Y-75154500D02*
X180760000Y-76329800D01*
X169545000Y-95252000D02*
X169545000Y-93951700D01*
X135255000Y-94842300D02*
X135748700Y-94348600D01*
X135748700Y-94348600D02*
X136525000Y-94348600D01*
X136525000Y-94348600D02*
X136693900Y-94179700D01*
X136693900Y-94179700D02*
X148389800Y-94179700D01*
X148389800Y-94179700D02*
X148590000Y-94379900D01*
X148590000Y-94379900D02*
X148590000Y-96693600D01*
X148590000Y-96693600D02*
X148726700Y-96830300D01*
X148726700Y-96830300D02*
X149683500Y-96830300D01*
X149683500Y-96830300D02*
X150150900Y-96362900D01*
X150150900Y-96362900D02*
X150150900Y-95266900D01*
X136525000Y-95505000D02*
X136525000Y-94348600D01*
X135255000Y-86105000D02*
X135255000Y-87430300D01*
X147740000Y-77694500D02*
X147740000Y-78869800D01*
X120413200Y-82871800D02*
X108331000Y-70789600D01*
X108331000Y-70789600D02*
X108331000Y-60388500D01*
X114794700Y-101430000D02*
X114794700Y-95603500D01*
X114794700Y-95603500D02*
X115322800Y-95075400D01*
X115322800Y-95075400D02*
X116203300Y-95075400D01*
X116203300Y-95075400D02*
X120413200Y-90865500D01*
X120413200Y-90865500D02*
X120413200Y-82871800D01*
X115570000Y-101430000D02*
X114794700Y-101430000D01*
X135255000Y-95505000D02*
X135255000Y-94842300D01*
X118430000Y-101600000D02*
X116515300Y-101600000D01*
X116515300Y-101600000D02*
X116345300Y-101430000D01*
X135255000Y-105502100D02*
X135255000Y-96830300D01*
X135255000Y-105502100D02*
X137139800Y-105502100D01*
X134599800Y-105502100D02*
X135255000Y-105502100D01*
X135255000Y-95505000D02*
X135255000Y-96830300D01*
X134599800Y-109827400D02*
X134599800Y-105502100D01*
X137139800Y-109827400D02*
X137139800Y-105502100D01*
X115570000Y-101430000D02*
X116345300Y-101430000D01*
D23*
X135288000Y-93604700D02*
X148725000Y-93604700D01*
X148725000Y-93604700D02*
X149225000Y-94104700D01*
X132059800Y-105427100D02*
X132059800Y-96832900D01*
X132059800Y-96832900D02*
X135288000Y-93604700D01*
X135288000Y-93604700D02*
X134554600Y-92871300D01*
X134554600Y-92871300D02*
X134554600Y-80410500D01*
X134554600Y-80410500D02*
X146197600Y-68767500D01*
X146197600Y-68767500D02*
X165393400Y-68767500D01*
X165393400Y-68767500D02*
X167559100Y-70933200D01*
X167559100Y-70933200D02*
X188506500Y-70933200D01*
X188506500Y-70933200D02*
X192209700Y-74636400D01*
X192209700Y-74636400D02*
X192209700Y-75154500D01*
X193460000Y-75154500D02*
X192209700Y-75154500D01*
X149225000Y-95505000D02*
X149225000Y-94104700D01*
X132059800Y-105577200D02*
X132059800Y-105427100D01*
X132059800Y-105427100D02*
X129519800Y-105427100D01*
X132059800Y-109827400D02*
X132059800Y-105577200D01*
X129519800Y-109827400D02*
X129519800Y-105427100D01*
X196000000Y-75154500D02*
X193460000Y-75154500D01*
D22*
X190920000Y-77694500D02*
X190920000Y-76519200D01*
X190920000Y-76519200D02*
X190552600Y-76519200D01*
X190552600Y-76519200D02*
X189744700Y-75711300D01*
X189744700Y-75711300D02*
X189744700Y-74839300D01*
X189744700Y-74839300D02*
X186558000Y-71652600D01*
X186558000Y-71652600D02*
X166909100Y-71652600D01*
X166909100Y-71652600D02*
X165291500Y-70035000D01*
X165291500Y-70035000D02*
X153705500Y-70035000D01*
X153705500Y-70035000D02*
X152510600Y-71229900D01*
X152510600Y-71229900D02*
X146916700Y-71229900D01*
X146916700Y-71229900D02*
X144950000Y-73196600D01*
X144950000Y-73196600D02*
X142875000Y-75271600D01*
X142875000Y-75271600D02*
X142875000Y-86105000D01*
X144180400Y-72427000D02*
X144950000Y-73196600D01*
X139065000Y-87430300D02*
X143312200Y-87430300D01*
X143312200Y-87430300D02*
X143519600Y-87222900D01*
X143519600Y-87222900D02*
X143519600Y-80204100D01*
X143519600Y-80204100D02*
X147299200Y-76424500D01*
X147299200Y-76424500D02*
X148154700Y-76424500D01*
X148154700Y-76424500D02*
X149081300Y-75497900D01*
X149081300Y-75497900D02*
X149081300Y-74675900D01*
X149081300Y-74675900D02*
X149778000Y-73979200D01*
X149778000Y-73979200D02*
X151114700Y-73979200D01*
X151114700Y-73979200D02*
X154608500Y-70485400D01*
X154608500Y-70485400D02*
X158357900Y-70485400D01*
X158357900Y-70485400D02*
X160200500Y-72328000D01*
X160200500Y-72328000D02*
X184694800Y-72328000D01*
X184694800Y-72328000D02*
X187204700Y-74837900D01*
X187204700Y-74837900D02*
X187204700Y-75711300D01*
X187204700Y-75711300D02*
X188012600Y-76519200D01*
X188012600Y-76519200D02*
X188380000Y-76519200D01*
X139065000Y-86105000D02*
X139065000Y-87430300D01*
X188380000Y-77694500D02*
X188380000Y-76519200D01*
X136525000Y-87430300D02*
X136869500Y-87430300D01*
X136869500Y-87430300D02*
X139131900Y-89692700D01*
X157900000Y-78869800D02*
X160029600Y-80999400D01*
X160029600Y-80999400D02*
X160029600Y-89212200D01*
X160029600Y-89212200D02*
X160335000Y-89517600D01*
X157900000Y-77694500D02*
X157900000Y-78869800D01*
X136525000Y-86105000D02*
X136525000Y-87430300D01*
X137795000Y-84779700D02*
X138149900Y-84779700D01*
X138149900Y-84779700D02*
X140321100Y-82608500D01*
X137795000Y-86105000D02*
X137795000Y-84779700D01*
X137795000Y-86655000D02*
X137795000Y-86105000D01*
X137795000Y-86655000D02*
X137795000Y-87430300D01*
X137795000Y-87430300D02*
X140691600Y-90326900D01*
X169507600Y-98764400D02*
X167757100Y-97013900D01*
X167757100Y-97013900D02*
X167757100Y-87960800D01*
X167757100Y-87960800D02*
X167327100Y-87530800D01*
X167327100Y-87530800D02*
X167327100Y-87090500D01*
X167327100Y-87090500D02*
X162980000Y-82743400D01*
X162980000Y-82743400D02*
X162980000Y-77694500D01*
X144145000Y-86105000D02*
X144145000Y-82346200D01*
X144145000Y-82346200D02*
X145136000Y-81355200D01*
X170494200Y-98002500D02*
X168207400Y-95715700D01*
X168207400Y-95715700D02*
X168207400Y-87774200D01*
X168207400Y-87774200D02*
X167777400Y-87344200D01*
X167777400Y-87344200D02*
X167777400Y-86903800D01*
X167777400Y-86903800D02*
X164155300Y-83281700D01*
X164155300Y-83281700D02*
X164155300Y-77137700D01*
X164155300Y-77137700D02*
X163347400Y-76329800D01*
X163347400Y-76329800D02*
X162980000Y-76329800D01*
X162980000Y-75154500D02*
X162980000Y-76329800D01*
X145415000Y-84779700D02*
X145568100Y-84779700D01*
X145568100Y-84779700D02*
X150663500Y-79684300D01*
X145415000Y-86105000D02*
X145415000Y-84779700D01*
X141605000Y-84779700D02*
X141675500Y-84709200D01*
X141675500Y-84709200D02*
X141675500Y-74047600D01*
X141675500Y-74047600D02*
X144541100Y-71182000D01*
X144541100Y-71182000D02*
X144918000Y-71182000D01*
X144918000Y-71182000D02*
X144918000Y-71181900D01*
X141605000Y-86105000D02*
X141605000Y-84779700D01*
X160440000Y-78869800D02*
X161113400Y-79543200D01*
X161113400Y-79543200D02*
X161113400Y-84046900D01*
X161113400Y-84046900D02*
X165366700Y-88300200D01*
X165366700Y-88300200D02*
X165366700Y-90224700D01*
X165366700Y-90224700D02*
X166092300Y-90950300D01*
X166092300Y-90950300D02*
X166092300Y-91819200D01*
X160440000Y-77694500D02*
X160440000Y-78869800D01*
X141050200Y-82157800D02*
X141050200Y-83163300D01*
X141050200Y-83163300D02*
X140335000Y-83878500D01*
X140335000Y-83878500D02*
X140335000Y-86105000D01*
X180319800Y-109827400D02*
X180319800Y-105502100D01*
X161925000Y-93505000D02*
X161925000Y-94580300D01*
X169532900Y-102721100D02*
X169532900Y-102188200D01*
X169532900Y-102188200D02*
X161925000Y-94580300D01*
X180319800Y-105502100D02*
X179108400Y-104290700D01*
X179108400Y-104290700D02*
X179108400Y-103691900D01*
X159385000Y-93505000D02*
X159385000Y-94580300D01*
X170574200Y-103477500D02*
X169138300Y-103477500D01*
X169138300Y-103477500D02*
X160241100Y-94580300D01*
X160241100Y-94580300D02*
X159385000Y-94580300D01*
X156845000Y-93505000D02*
X156845000Y-94580300D01*
X158164700Y-100451800D02*
X158164700Y-95900000D01*
X158164700Y-95900000D02*
X156845000Y-94580300D01*
X175239800Y-105502100D02*
X175330600Y-105502100D01*
X175330600Y-105502100D02*
X176539700Y-104293000D01*
X176539700Y-104293000D02*
X176539700Y-87777600D01*
X176539700Y-87777600D02*
X177165000Y-87152300D01*
X177165000Y-85852000D02*
X177165000Y-87152300D01*
X175239800Y-109827400D02*
X175239800Y-105502100D01*
X174625000Y-87152300D02*
X175250300Y-87777600D01*
X175250300Y-87777600D02*
X175250300Y-104698000D01*
X175250300Y-104698000D02*
X175089000Y-104859300D01*
X174625000Y-85852000D02*
X174625000Y-87152300D01*
X172699800Y-105502100D02*
X173066400Y-105502100D01*
X173066400Y-105502100D02*
X174625000Y-103943500D01*
X174625000Y-103943500D02*
X174625000Y-95252000D01*
X172699800Y-109827400D02*
X172699800Y-105502100D01*
X172085000Y-96552300D02*
X172085000Y-104119500D01*
X172085000Y-104119500D02*
X172824800Y-104859300D01*
X172085000Y-95252000D02*
X172085000Y-96552300D01*
X169545000Y-85852000D02*
X169545000Y-87152300D01*
X170159800Y-105502100D02*
X171440400Y-104221500D01*
X171440400Y-104221500D02*
X171440400Y-90114300D01*
X171440400Y-90114300D02*
X169558300Y-88232200D01*
X169558300Y-88232200D02*
X169558300Y-87165600D01*
X169558300Y-87165600D02*
X169545000Y-87152300D01*
X170159800Y-109827400D02*
X170159800Y-105502100D01*
X167619800Y-109827400D02*
X167619800Y-105502100D01*
X167619800Y-105502100D02*
X166538200Y-105502100D01*
X166538200Y-105502100D02*
X166019500Y-104983400D01*
X154254500Y-99975300D02*
X154254500Y-90225500D01*
X154254500Y-90225500D02*
X153178100Y-89149100D01*
X153178100Y-89149100D02*
X153178100Y-87839100D01*
X165079800Y-105502100D02*
X165079800Y-104483600D01*
X165079800Y-104483600D02*
X164670400Y-104074200D01*
X165079800Y-109827400D02*
X165079800Y-105502100D01*
X162539800Y-105502100D02*
X162674100Y-105502100D01*
X162674100Y-105502100D02*
X162942700Y-105770700D01*
X162942700Y-105770700D02*
X162980500Y-105770700D01*
X162980500Y-105770700D02*
X163027500Y-105817700D01*
X163027500Y-105817700D02*
X163545600Y-105817700D01*
X163545600Y-105817700D02*
X164016000Y-105347300D01*
X164016000Y-105347300D02*
X164016000Y-99244800D01*
X162539800Y-109827400D02*
X162539800Y-105502100D01*
X163092300Y-105035900D02*
X163092300Y-99036500D01*
X163092300Y-99036500D02*
X163422500Y-98706300D01*
X157388700Y-82885500D02*
X158740400Y-84237200D01*
X158740400Y-84237200D02*
X158740400Y-100143100D01*
X158740400Y-100143100D02*
X159999800Y-101402500D01*
X159999800Y-101402500D02*
X159999800Y-105502100D01*
X159999800Y-109827400D02*
X159999800Y-105502100D01*
X157459800Y-105502100D02*
X157459800Y-95908500D01*
X157459800Y-95908500D02*
X156219600Y-94668300D01*
X156219600Y-94668300D02*
X156219600Y-91185700D01*
X156219600Y-91185700D02*
X153803400Y-88769500D01*
X153803400Y-88769500D02*
X153803400Y-87580000D01*
X153803400Y-87580000D02*
X153420400Y-87197000D01*
X153420400Y-87197000D02*
X152688100Y-87197000D01*
X152688100Y-87197000D02*
X152582100Y-87303000D01*
X157459800Y-109827400D02*
X157459800Y-105502100D01*
X154192600Y-102973000D02*
X153629200Y-102409600D01*
X153629200Y-102409600D02*
X153629200Y-90237100D01*
X153629200Y-90237100D02*
X151875300Y-88483200D01*
X151875300Y-88483200D02*
X151875300Y-87891500D01*
X154919800Y-105502100D02*
X154919800Y-105207400D01*
X154919800Y-105207400D02*
X156252100Y-103875100D01*
X156252100Y-103875100D02*
X156252100Y-97405600D01*
X154919800Y-109827400D02*
X154919800Y-105502100D01*
X155695100Y-105316400D02*
X156898200Y-104113300D01*
X156898200Y-104113300D02*
X156898200Y-96444100D01*
X156898200Y-96444100D02*
X156810900Y-96356800D01*
X152379800Y-105502100D02*
X153375400Y-105502100D01*
X153375400Y-105502100D02*
X155493400Y-103384100D01*
X155493400Y-103384100D02*
X155493400Y-96205600D01*
X155493400Y-96205600D02*
X155981400Y-95717600D01*
X152379800Y-109827400D02*
X152379800Y-105502100D01*
X153098300Y-104869200D02*
X153184100Y-104869200D01*
X153184100Y-104869200D02*
X154890700Y-103162600D01*
X154890700Y-103162600D02*
X154890700Y-92510200D01*
X154890700Y-92510200D02*
X155174300Y-92226600D01*
X149839800Y-105502100D02*
X153003800Y-102338100D01*
X153003800Y-102338100D02*
X153003800Y-99700000D01*
X149839800Y-109827400D02*
X149839800Y-105502100D01*
X151010300Y-103446400D02*
X151010300Y-100444600D01*
X151010300Y-100444600D02*
X152555200Y-98899700D01*
X147299800Y-105502100D02*
X147446500Y-105502100D01*
X147446500Y-105502100D02*
X147825400Y-105123200D01*
X147825400Y-105123200D02*
X147825400Y-97970700D01*
X147825400Y-97970700D02*
X146685000Y-96830300D01*
X146685000Y-95505000D02*
X146685000Y-96830300D01*
X147299800Y-109827400D02*
X147299800Y-105502100D01*
X145415000Y-95505000D02*
X145415000Y-96830300D01*
X145415000Y-96830300D02*
X147195000Y-98610300D01*
X147195000Y-98610300D02*
X147195000Y-104827600D01*
X144759800Y-105502100D02*
X144759800Y-97445100D01*
X144759800Y-97445100D02*
X144145000Y-96830300D01*
X144145000Y-95505000D02*
X144145000Y-96830300D01*
X144759800Y-109827400D02*
X144759800Y-105502100D01*
X142875000Y-96830300D02*
X142875000Y-103617300D01*
X142875000Y-103617300D02*
X144109300Y-104851600D01*
X142875000Y-95505000D02*
X142875000Y-96830300D01*
X141605000Y-96830300D02*
X142394000Y-97619300D01*
X142394000Y-97619300D02*
X142394000Y-105327900D01*
X142394000Y-105327900D02*
X142219800Y-105502100D01*
X141605000Y-95505000D02*
X141605000Y-96830300D01*
X142219800Y-109827400D02*
X142219800Y-105502100D01*
X140335000Y-96830300D02*
X140335000Y-103617300D01*
X140335000Y-103617300D02*
X141748700Y-105031000D01*
X140335000Y-95505000D02*
X140335000Y-96830300D01*
X139065000Y-95505000D02*
X139065000Y-96830300D01*
X139679800Y-109827400D02*
X139679800Y-105502100D01*
X139679800Y-105502100D02*
X139679800Y-97445100D01*
X139679800Y-97445100D02*
X139065000Y-96830300D01*
X137795000Y-95505000D02*
X137795000Y-103617300D01*
X137795000Y-103617300D02*
X139053300Y-104875600D01*
X172085000Y-87152300D02*
X171188000Y-88049300D01*
X171188000Y-88049300D02*
X171188000Y-88340300D01*
X172085000Y-85852000D02*
X172085000Y-87152300D01*
X149131900Y-87430300D02*
X147955000Y-87430300D01*
X149225000Y-87430300D02*
X149131900Y-87430300D01*
X149131900Y-87430300D02*
X149131900Y-88520800D01*
X149225000Y-86105000D02*
X149225000Y-87430300D01*
X147955000Y-86105000D02*
X147955000Y-87430300D01*
X179060400Y-84551700D02*
X179060400Y-91001000D01*
X179060400Y-91001000D02*
X177809600Y-92251800D01*
X177809600Y-92251800D02*
X177809600Y-96398600D01*
X177809600Y-96398600D02*
X178989700Y-97578700D01*
X178989700Y-97578700D02*
X181008000Y-97578700D01*
X181008000Y-97578700D02*
X196000000Y-82586700D01*
X196000000Y-82586700D02*
X196000000Y-77694500D01*
X175680000Y-78869800D02*
X179060400Y-82250200D01*
X179060400Y-82250200D02*
X179060400Y-84551700D01*
X179060400Y-84551700D02*
X180975000Y-84551700D01*
X180975000Y-85852000D02*
X180975000Y-84551700D01*
X175680000Y-77694500D02*
X175680000Y-78869800D01*
X122702000Y-54038500D02*
X122702000Y-54977700D01*
X122702000Y-52324000D02*
X122702000Y-54038500D01*
X122702000Y-55753000D02*
X122702000Y-54977700D01*
X108331000Y-57848500D02*
X109506300Y-57848500D01*
X109506300Y-57848500D02*
X112377100Y-54977700D01*
X112377100Y-54977700D02*
X122702000Y-54977700D01*
X170815000Y-84551700D02*
X170815000Y-83914700D01*
X170815000Y-83914700D02*
X166851800Y-79951500D01*
X166851800Y-79951500D02*
X166851800Y-77170600D01*
X166851800Y-77170600D02*
X167692600Y-76329800D01*
X167692600Y-76329800D02*
X168060000Y-76329800D01*
X170815000Y-85852000D02*
X170815000Y-84551700D01*
X168060000Y-75154500D02*
X168060000Y-76329800D01*
X169224800Y-77694500D02*
X169224800Y-80564600D01*
X169224800Y-80564600D02*
X169636100Y-80975900D01*
X178435000Y-85852000D02*
X178435000Y-82726800D01*
X178435000Y-82726800D02*
X174410000Y-78701800D01*
X174410000Y-78701800D02*
X174410000Y-77249300D01*
X174410000Y-77249300D02*
X173637000Y-76476300D01*
X173637000Y-76476300D02*
X170086100Y-76476300D01*
X170086100Y-76476300D02*
X169224800Y-77337600D01*
X169224800Y-77337600D02*
X169224800Y-77694500D01*
X168060000Y-77694500D02*
X169224800Y-77694500D01*
X185840000Y-76329800D02*
X185472600Y-76329800D01*
X185472600Y-76329800D02*
X184664700Y-77137700D01*
X184664700Y-77137700D02*
X184664700Y-83070400D01*
X184664700Y-83070400D02*
X183146500Y-84588600D01*
X185840000Y-75154500D02*
X185840000Y-76329800D01*
X157900000Y-76329800D02*
X158267400Y-76329800D01*
X158267400Y-76329800D02*
X159075300Y-77137700D01*
X159075300Y-77137700D02*
X159075300Y-78230000D01*
X159075300Y-78230000D02*
X160663000Y-79817700D01*
X160663000Y-79817700D02*
X160663000Y-84233400D01*
X160663000Y-84233400D02*
X161280400Y-84850800D01*
X161280400Y-84850800D02*
X161280400Y-89471800D01*
X161280400Y-89471800D02*
X159527400Y-91224800D01*
X157900000Y-75154500D02*
X157900000Y-76329800D01*
X147067500Y-91929800D02*
X150787800Y-88209500D01*
X150787800Y-88209500D02*
X150787800Y-87381600D01*
X150787800Y-87381600D02*
X155360000Y-82809400D01*
X155360000Y-82809400D02*
X155360000Y-77694500D01*
X179705000Y-95252000D02*
X179705000Y-96552300D01*
X180707500Y-96920400D02*
X180339400Y-96552300D01*
X180339400Y-96552300D02*
X179705000Y-96552300D01*
X177165000Y-95252000D02*
X177165000Y-104887300D01*
X177165000Y-104887300D02*
X177779800Y-105502100D01*
X177779800Y-109827400D02*
X177779800Y-105502100D01*
X170815000Y-93951700D02*
X169108000Y-92244700D01*
X169108000Y-92244700D02*
X169108000Y-87401000D01*
X169108000Y-87401000D02*
X168919700Y-87212700D01*
X168919700Y-87212700D02*
X168919700Y-83971100D01*
X168919700Y-83971100D02*
X169114300Y-83776500D01*
X170815000Y-95252000D02*
X170815000Y-93951700D01*
X178435000Y-95252000D02*
X178435000Y-93951700D01*
X178435000Y-93951700D02*
X182070800Y-90315900D01*
X182070800Y-90315900D02*
X182070800Y-84024100D01*
X182070800Y-84024100D02*
X180760000Y-82713300D01*
X180760000Y-82713300D02*
X180760000Y-77694500D01*
X160655000Y-92429700D02*
X162007000Y-91077700D01*
X162007000Y-91077700D02*
X165046400Y-91077700D01*
X160655000Y-93505000D02*
X160655000Y-92429700D01*
X178220000Y-75154500D02*
X178220000Y-76329800D01*
X178948700Y-81197800D02*
X177044700Y-79293800D01*
X177044700Y-79293800D02*
X177044700Y-77137700D01*
X177044700Y-77137700D02*
X177852600Y-76329800D01*
X177852600Y-76329800D02*
X178220000Y-76329800D01*
X175680000Y-75154500D02*
X174504700Y-75154500D01*
X163195000Y-93505000D02*
X163195000Y-92429700D01*
X163195000Y-92429700D02*
X164236900Y-92429700D01*
X164236900Y-92429700D02*
X164304200Y-92497000D01*
X164304200Y-92497000D02*
X166320000Y-92497000D01*
X166320000Y-92497000D02*
X166717600Y-92099400D01*
X166717600Y-92099400D02*
X166717600Y-89080600D01*
X166717600Y-89080600D02*
X166008900Y-88371900D01*
X166008900Y-88371900D02*
X166008900Y-87582600D01*
X166008900Y-87582600D02*
X161615400Y-83189100D01*
X161615400Y-83189100D02*
X161615400Y-77168900D01*
X161615400Y-77168900D02*
X160837600Y-76391100D01*
X160837600Y-76391100D02*
X159992400Y-76391100D01*
X159992400Y-76391100D02*
X159239700Y-75638400D01*
X159239700Y-75638400D02*
X159239700Y-74692500D01*
X159239700Y-74692500D02*
X160432700Y-73499500D01*
X160432700Y-73499500D02*
X173215000Y-73499500D01*
X173215000Y-73499500D02*
X174504700Y-74789200D01*
X174504700Y-74789200D02*
X174504700Y-75154500D01*
X150280000Y-78869800D02*
X150733400Y-78869800D01*
X150733400Y-78869800D02*
X152657000Y-80793400D01*
X152657000Y-80793400D02*
X152657000Y-81745900D01*
X152657000Y-81745900D02*
X153137000Y-82225900D01*
X175895000Y-95252000D02*
X175895000Y-87785400D01*
X175895000Y-87785400D02*
X175269600Y-87160000D01*
X175269600Y-87160000D02*
X175269600Y-84761300D01*
X175269600Y-84761300D02*
X175034500Y-84526200D01*
X175034500Y-84526200D02*
X174175600Y-84526200D01*
X174175600Y-84526200D02*
X173980400Y-84721400D01*
X173980400Y-84721400D02*
X173980400Y-87024200D01*
X173980400Y-87024200D02*
X173852200Y-87152400D01*
X173852200Y-87152400D02*
X172869900Y-87152400D01*
X172869900Y-87152400D02*
X172718000Y-87000500D01*
X172718000Y-87000500D02*
X172718000Y-84709000D01*
X172718000Y-84709000D02*
X169610200Y-81601200D01*
X169610200Y-81601200D02*
X169377100Y-81601200D01*
X169377100Y-81601200D02*
X167824700Y-80048800D01*
X167824700Y-80048800D02*
X167824700Y-80009200D01*
X150280000Y-77694500D02*
X150280000Y-78869800D01*
X122515000Y-97790000D02*
X126979800Y-102254800D01*
X126979800Y-102254800D02*
X126979800Y-109827400D01*
X120502000Y-55753000D02*
X120502000Y-56631900D01*
X120502000Y-56631900D02*
X120694600Y-56824500D01*
X119576700Y-54038500D02*
X118780500Y-54038500D01*
X118780500Y-54038500D02*
X118766000Y-54053000D01*
X120502000Y-54038500D02*
X119576700Y-54038500D01*
X119576700Y-52324000D02*
X118796300Y-52324000D01*
X118796300Y-52324000D02*
X118767300Y-52353000D01*
X120502000Y-52324000D02*
X119576700Y-52324000D01*
X180975000Y-93951700D02*
X182521100Y-92405600D01*
X182521100Y-92405600D02*
X182521100Y-83572300D01*
X182521100Y-83572300D02*
X182091800Y-83143000D01*
X182091800Y-83143000D02*
X182091800Y-74769200D01*
X182091800Y-74769200D02*
X180101000Y-72778400D01*
X180101000Y-72778400D02*
X159788700Y-72778400D01*
X159788700Y-72778400D02*
X157946100Y-70935800D01*
X157946100Y-70935800D02*
X155526300Y-70935800D01*
X155526300Y-70935800D02*
X154901000Y-71561100D01*
X152820000Y-76329800D02*
X153187400Y-76329800D01*
X153187400Y-76329800D02*
X153995300Y-77137700D01*
X153995300Y-77137700D02*
X153995300Y-82252000D01*
X153995300Y-82252000D02*
X151467600Y-84779700D01*
X151467600Y-84779700D02*
X146685000Y-84779700D01*
X152820000Y-73979200D02*
X154901000Y-71898200D01*
X154901000Y-71898200D02*
X154901000Y-71561100D01*
X180975000Y-95252000D02*
X180975000Y-93951700D01*
X152820000Y-75154500D02*
X152820000Y-73979200D01*
X152820000Y-75154500D02*
X152820000Y-76329800D01*
X146685000Y-86105000D02*
X146685000Y-84779700D01*
X147955000Y-96830300D02*
X148405300Y-97280600D01*
X148405300Y-97280600D02*
X149870100Y-97280600D01*
X149870100Y-97280600D02*
X151238100Y-95912600D01*
X151238100Y-95912600D02*
X151238100Y-87589500D01*
X151238100Y-87589500D02*
X152186800Y-86640800D01*
X152186800Y-86640800D02*
X153501100Y-86640800D01*
X158115000Y-93505000D02*
X158115000Y-92162700D01*
X158115000Y-92162700D02*
X154253700Y-88301400D01*
X154253700Y-88301400D02*
X154253700Y-87393400D01*
X154253700Y-87393400D02*
X153501100Y-86640800D01*
X153501100Y-86640800D02*
X156694300Y-83447600D01*
X156694300Y-83447600D02*
X156694300Y-73712500D01*
X156034700Y-71561200D02*
X156034700Y-73052900D01*
X156034700Y-73052900D02*
X156694300Y-73712500D01*
X147955000Y-95505000D02*
X147955000Y-96830300D01*
X167125200Y-95111600D02*
X167168000Y-95068800D01*
X167168000Y-95068800D02*
X167168000Y-88848900D01*
X167168000Y-88848900D02*
X166634300Y-88315200D01*
X166634300Y-88315200D02*
X166634300Y-87321700D01*
X115570000Y-96350000D02*
X115570000Y-99230000D01*
X120015000Y-99230000D02*
X120015000Y-100584700D01*
X120015000Y-100584700D02*
X120330000Y-100899700D01*
X120015000Y-97790000D02*
X120015000Y-99230000D01*
X120015000Y-99230000D02*
X116345300Y-99230000D01*
X115570000Y-99230000D02*
X116345300Y-99230000D01*
X120330000Y-101600000D02*
X120330000Y-100899700D01*
X173140000Y-78869800D02*
X175895000Y-81624800D01*
X175895000Y-81624800D02*
X175895000Y-85852000D01*
X173140000Y-77694500D02*
X173140000Y-78869800D01*
X173355000Y-84551700D02*
X173355000Y-81624800D01*
X173355000Y-81624800D02*
X170600000Y-78869800D01*
X170600000Y-77694500D02*
X170600000Y-78869800D01*
X173355000Y-85852000D02*
X173355000Y-84551700D01*
X150280000Y-76329800D02*
X150647400Y-76329800D01*
X150647400Y-76329800D02*
X151455300Y-77137700D01*
X151455300Y-77137700D02*
X151455300Y-78954800D01*
X151455300Y-78954800D02*
X153344100Y-80843600D01*
X153344100Y-80843600D02*
X153344100Y-81425500D01*
X153344100Y-81425500D02*
X153344200Y-81425500D01*
X173355000Y-95252000D02*
X173355000Y-91392000D01*
X173355000Y-91392000D02*
X170170300Y-88207300D01*
X170170300Y-88207300D02*
X170170300Y-83906900D01*
X170170300Y-83906900D02*
X167598500Y-81335100D01*
X167598500Y-81335100D02*
X165587100Y-81335100D01*
X150280000Y-75154500D02*
X150280000Y-76329800D01*
X115570000Y-94150000D02*
X114794700Y-94150000D01*
X109482100Y-89898000D02*
X110542700Y-89898000D01*
X110542700Y-89898000D02*
X114794700Y-94150000D01*
D24*
G36*
X135382000Y-95378000D02*
G01*
X136398000Y-95378000D01*
X136398000Y-95358000D01*
X136652000Y-95358000D01*
X136652000Y-95378000D01*
X136672000Y-95378000D01*
X136672000Y-95632000D01*
X136652000Y-95632000D01*
X136652000Y-96981250D01*
X136810750Y-97140000D01*
X136825000Y-97143072D01*
X136949482Y-97130812D01*
X137035000Y-97104870D01*
X137035001Y-103579968D01*
X137031324Y-103617300D01*
X137035001Y-103654633D01*
X137045998Y-103766286D01*
X137049568Y-103778054D01*
X137089454Y-103909546D01*
X137160026Y-104041576D01*
X137229210Y-104125876D01*
X137255000Y-104157301D01*
X137283998Y-104181099D01*
X138130147Y-105027249D01*
X138154232Y-105148329D01*
X138178032Y-105205787D01*
X138164322Y-105201628D01*
X138039840Y-105189368D01*
X137425590Y-105192440D01*
X137266840Y-105351190D01*
X137266840Y-109700440D01*
X137286840Y-109700440D01*
X137286840Y-109954440D01*
X137266840Y-109954440D01*
X137266840Y-109974440D01*
X137012840Y-109974440D01*
X137012840Y-109954440D01*
X134726840Y-109954440D01*
X134726840Y-109974440D01*
X134472840Y-109974440D01*
X134472840Y-109954440D01*
X134452840Y-109954440D01*
X134452840Y-109700440D01*
X134472840Y-109700440D01*
X134472840Y-105351190D01*
X134726840Y-105351190D01*
X134726840Y-109700440D01*
X137012840Y-109700440D01*
X137012840Y-105351190D01*
X136854090Y-105192440D01*
X136239840Y-105189368D01*
X136115358Y-105201628D01*
X135995660Y-105237938D01*
X135885346Y-105296903D01*
X135869840Y-105309628D01*
X135854334Y-105296903D01*
X135744020Y-105237938D01*
X135624322Y-105201628D01*
X135499840Y-105189368D01*
X134885590Y-105192440D01*
X134726840Y-105351190D01*
X134472840Y-105351190D01*
X134314090Y-105192440D01*
X133699840Y-105189368D01*
X133575358Y-105201628D01*
X133455660Y-105237938D01*
X133345346Y-105296903D01*
X133329840Y-105309628D01*
X133314334Y-105296903D01*
X133204020Y-105237938D01*
X133084322Y-105201628D01*
X132959840Y-105189368D01*
X132894800Y-105189368D01*
X132894800Y-97178767D01*
X134441566Y-95632002D01*
X134478748Y-95632002D01*
X134320000Y-95790750D01*
X134316928Y-96505000D01*
X134329188Y-96629482D01*
X134365498Y-96749180D01*
X134424463Y-96859494D01*
X134503815Y-96956185D01*
X134600506Y-97035537D01*
X134710820Y-97094502D01*
X134830518Y-97130812D01*
X134955000Y-97143072D01*
X134969250Y-97140000D01*
X135128000Y-96981250D01*
X135128000Y-95632000D01*
X135382000Y-95632000D01*
X135382000Y-96981250D01*
X135540750Y-97140000D01*
X135555000Y-97143072D01*
X135679482Y-97130812D01*
X135799180Y-97094502D01*
X135890000Y-97045957D01*
X135980820Y-97094502D01*
X136100518Y-97130812D01*
X136225000Y-97143072D01*
X136239250Y-97140000D01*
X136398000Y-96981250D01*
X136398000Y-95632000D01*
X135382000Y-95632000D01*
X135128000Y-95632000D01*
X135108000Y-95632000D01*
X135108000Y-95378000D01*
X135128000Y-95378000D01*
X135128000Y-95358000D01*
X135382000Y-95358000D01*
X135382000Y-95378000D01*
G37*
X135382000Y-95378000D02*
X136398000Y-95378000D01*
X136398000Y-95358000D01*
X136652000Y-95358000D01*
X136652000Y-95378000D01*
X136672000Y-95378000D01*
X136672000Y-95632000D01*
X136652000Y-95632000D01*
X136652000Y-96981250D01*
X136810750Y-97140000D01*
X136825000Y-97143072D01*
X136949482Y-97130812D01*
X137035000Y-97104870D01*
X137035001Y-103579968D01*
X137031324Y-103617300D01*
X137035001Y-103654633D01*
X137045998Y-103766286D01*
X137049568Y-103778054D01*
X137089454Y-103909546D01*
X137160026Y-104041576D01*
X137229210Y-104125876D01*
X137255000Y-104157301D01*
X137283998Y-104181099D01*
X138130147Y-105027249D01*
X138154232Y-105148329D01*
X138178032Y-105205787D01*
X138164322Y-105201628D01*
X138039840Y-105189368D01*
X137425590Y-105192440D01*
X137266840Y-105351190D01*
X137266840Y-109700440D01*
X137286840Y-109700440D01*
X137286840Y-109954440D01*
X137266840Y-109954440D01*
X137266840Y-109974440D01*
X137012840Y-109974440D01*
X137012840Y-109954440D01*
X134726840Y-109954440D01*
X134726840Y-109974440D01*
X134472840Y-109974440D01*
X134472840Y-109954440D01*
X134452840Y-109954440D01*
X134452840Y-109700440D01*
X134472840Y-109700440D01*
X134472840Y-105351190D01*
X134726840Y-105351190D01*
X134726840Y-109700440D01*
X137012840Y-109700440D01*
X137012840Y-105351190D01*
X136854090Y-105192440D01*
X136239840Y-105189368D01*
X136115358Y-105201628D01*
X135995660Y-105237938D01*
X135885346Y-105296903D01*
X135869840Y-105309628D01*
X135854334Y-105296903D01*
X135744020Y-105237938D01*
X135624322Y-105201628D01*
X135499840Y-105189368D01*
X134885590Y-105192440D01*
X134726840Y-105351190D01*
X134472840Y-105351190D01*
X134314090Y-105192440D01*
X133699840Y-105189368D01*
X133575358Y-105201628D01*
X133455660Y-105237938D01*
X133345346Y-105296903D01*
X133329840Y-105309628D01*
X133314334Y-105296903D01*
X133204020Y-105237938D01*
X133084322Y-105201628D01*
X132959840Y-105189368D01*
X132894800Y-105189368D01*
X132894800Y-97178767D01*
X134441566Y-95632002D01*
X134478748Y-95632002D01*
X134320000Y-95790750D01*
X134316928Y-96505000D01*
X134329188Y-96629482D01*
X134365498Y-96749180D01*
X134424463Y-96859494D01*
X134503815Y-96956185D01*
X134600506Y-97035537D01*
X134710820Y-97094502D01*
X134830518Y-97130812D01*
X134955000Y-97143072D01*
X134969250Y-97140000D01*
X135128000Y-96981250D01*
X135128000Y-95632000D01*
X135382000Y-95632000D01*
X135382000Y-96981250D01*
X135540750Y-97140000D01*
X135555000Y-97143072D01*
X135679482Y-97130812D01*
X135799180Y-97094502D01*
X135890000Y-97045957D01*
X135980820Y-97094502D01*
X136100518Y-97130812D01*
X136225000Y-97143072D01*
X136239250Y-97140000D01*
X136398000Y-96981250D01*
X136398000Y-95632000D01*
X135382000Y-95632000D01*
X135128000Y-95632000D01*
X135108000Y-95632000D01*
X135108000Y-95378000D01*
X135128000Y-95378000D01*
X135128000Y-95358000D01*
X135382000Y-95358000D01*
X135382000Y-95378000D01*
G36*
X114230901Y-94661003D02*
G01*
X114254699Y-94690001D01*
X114283697Y-94713799D01*
X114370423Y-94784974D01*
X114481791Y-94844502D01*
X114491760Y-94849830D01*
X114494188Y-94874482D01*
X114530498Y-94994180D01*
X114589463Y-95104494D01*
X114668815Y-95201185D01*
X114728296Y-95250000D01*
X114668815Y-95298815D01*
X114589463Y-95395506D01*
X114530498Y-95505820D01*
X114494188Y-95625518D01*
X114481928Y-95750000D01*
X114481928Y-96950000D01*
X114494188Y-97074482D01*
X114530498Y-97194180D01*
X114589463Y-97304494D01*
X114668815Y-97401185D01*
X114765506Y-97480537D01*
X114810000Y-97504320D01*
X114810001Y-98075680D01*
X114765506Y-98099463D01*
X114668815Y-98178815D01*
X114589463Y-98275506D01*
X114530498Y-98385820D01*
X114494188Y-98505518D01*
X114481928Y-98630000D01*
X114481928Y-99830000D01*
X114494188Y-99954482D01*
X114530498Y-100074180D01*
X114589463Y-100184494D01*
X114668815Y-100281185D01*
X114728296Y-100330000D01*
X114668815Y-100378815D01*
X114589463Y-100475506D01*
X114530498Y-100585820D01*
X114494188Y-100705518D01*
X114481928Y-100830000D01*
X114485000Y-101144250D01*
X114643750Y-101303000D01*
X115443000Y-101303000D01*
X115443000Y-101283000D01*
X115697000Y-101283000D01*
X115697000Y-101303000D01*
X116496250Y-101303000D01*
X116574250Y-101225000D01*
X117191928Y-101225000D01*
X117195000Y-101314250D01*
X117353750Y-101473000D01*
X118303000Y-101473000D01*
X118303000Y-100748750D01*
X118144250Y-100590000D01*
X117830000Y-100586928D01*
X117705518Y-100599188D01*
X117585820Y-100635498D01*
X117475506Y-100694463D01*
X117378815Y-100773815D01*
X117299463Y-100870506D01*
X117240498Y-100980820D01*
X117204188Y-101100518D01*
X117191928Y-101225000D01*
X116574250Y-101225000D01*
X116655000Y-101144250D01*
X116658072Y-100830000D01*
X116645812Y-100705518D01*
X116609502Y-100585820D01*
X116550537Y-100475506D01*
X116471185Y-100378815D01*
X116411704Y-100330000D01*
X116471185Y-100281185D01*
X116550537Y-100184494D01*
X116609502Y-100074180D01*
X116635038Y-99990000D01*
X119255001Y-99990000D01*
X119255001Y-100547368D01*
X119251324Y-100584700D01*
X119255777Y-100629916D01*
X119154482Y-100599188D01*
X119030000Y-100586928D01*
X118715750Y-100590000D01*
X118557000Y-100748750D01*
X118557000Y-101473000D01*
X118577000Y-101473000D01*
X118577000Y-101727000D01*
X118557000Y-101727000D01*
X118557000Y-102451250D01*
X118715750Y-102610000D01*
X119030000Y-102613072D01*
X119154482Y-102600812D01*
X119274180Y-102564502D01*
X119380000Y-102507939D01*
X119485820Y-102564502D01*
X119605518Y-102600812D01*
X119730000Y-102613072D01*
X120930000Y-102613072D01*
X121054482Y-102600812D01*
X121174180Y-102564502D01*
X121284494Y-102505537D01*
X121381185Y-102426185D01*
X121460537Y-102329494D01*
X121519502Y-102219180D01*
X121555812Y-102099482D01*
X121568072Y-101975000D01*
X121568072Y-101225000D01*
X121555812Y-101100518D01*
X121519502Y-100980820D01*
X121460537Y-100870506D01*
X121381185Y-100773815D01*
X121284494Y-100694463D01*
X121174180Y-100635498D01*
X121054482Y-100599188D01*
X121029830Y-100596760D01*
X120964974Y-100475424D01*
X120870001Y-100359699D01*
X120840997Y-100335896D01*
X120775000Y-100269899D01*
X120775000Y-99267333D01*
X120778677Y-99230000D01*
X120778487Y-99228072D01*
X120815000Y-99228072D01*
X120939482Y-99215812D01*
X121059180Y-99179502D01*
X121169494Y-99120537D01*
X121266185Y-99041185D01*
X121345537Y-98944494D01*
X121404502Y-98834180D01*
X121433661Y-98738057D01*
X121600241Y-98904637D01*
X121835273Y-99061680D01*
X122096426Y-99169853D01*
X122373665Y-99225000D01*
X122656335Y-99225000D01*
X122838887Y-99188688D01*
X126219800Y-102569602D01*
X126219800Y-105189368D01*
X126079840Y-105189368D01*
X125955358Y-105201628D01*
X125835660Y-105237938D01*
X125725346Y-105296903D01*
X125652600Y-105356604D01*
X125652600Y-105006823D01*
X125649601Y-104976374D01*
X125649650Y-104969373D01*
X125648683Y-104959507D01*
X125625366Y-104737655D01*
X125612429Y-104674631D01*
X125600368Y-104611405D01*
X125597502Y-104601915D01*
X125531538Y-104388817D01*
X125506606Y-104329508D01*
X125482494Y-104269829D01*
X125477840Y-104261076D01*
X125371740Y-104064849D01*
X125335767Y-104011517D01*
X125300521Y-103957655D01*
X125294255Y-103949973D01*
X125294254Y-103949971D01*
X125294250Y-103949967D01*
X125152062Y-103778090D01*
X125106407Y-103732753D01*
X125061377Y-103686770D01*
X125053739Y-103680451D01*
X124880869Y-103539461D01*
X124827257Y-103503841D01*
X124774170Y-103467492D01*
X124765450Y-103462777D01*
X124568486Y-103358050D01*
X124508988Y-103333527D01*
X124449847Y-103308179D01*
X124440377Y-103305248D01*
X124226824Y-103240772D01*
X124163756Y-103228284D01*
X124100752Y-103214892D01*
X124090893Y-103213856D01*
X123868985Y-103192098D01*
X123835439Y-103188748D01*
X114462215Y-103176048D01*
X114343554Y-103164413D01*
X114263297Y-103140182D01*
X114189266Y-103100819D01*
X114124292Y-103047827D01*
X114070848Y-102983225D01*
X114030971Y-102909473D01*
X114006179Y-102829383D01*
X113994000Y-102713503D01*
X113994000Y-102030000D01*
X114481928Y-102030000D01*
X114494188Y-102154482D01*
X114530498Y-102274180D01*
X114589463Y-102384494D01*
X114668815Y-102481185D01*
X114765506Y-102560537D01*
X114875820Y-102619502D01*
X114995518Y-102655812D01*
X115120000Y-102668072D01*
X115284250Y-102665000D01*
X115443000Y-102506250D01*
X115443000Y-101557000D01*
X115697000Y-101557000D01*
X115697000Y-102506250D01*
X115855750Y-102665000D01*
X116020000Y-102668072D01*
X116144482Y-102655812D01*
X116264180Y-102619502D01*
X116374494Y-102560537D01*
X116471185Y-102481185D01*
X116550537Y-102384494D01*
X116609502Y-102274180D01*
X116645812Y-102154482D01*
X116658072Y-102030000D01*
X116657535Y-101975000D01*
X117191928Y-101975000D01*
X117204188Y-102099482D01*
X117240498Y-102219180D01*
X117299463Y-102329494D01*
X117378815Y-102426185D01*
X117475506Y-102505537D01*
X117585820Y-102564502D01*
X117705518Y-102600812D01*
X117830000Y-102613072D01*
X118144250Y-102610000D01*
X118303000Y-102451250D01*
X118303000Y-101727000D01*
X117353750Y-101727000D01*
X117195000Y-101885750D01*
X117191928Y-101975000D01*
X116657535Y-101975000D01*
X116655000Y-101715750D01*
X116496250Y-101557000D01*
X115697000Y-101557000D01*
X115443000Y-101557000D01*
X114643750Y-101557000D01*
X114485000Y-101715750D01*
X114481928Y-102030000D01*
X113994000Y-102030000D01*
X113994000Y-94424102D01*
X114230901Y-94661003D01*
G37*
X114230901Y-94661003D02*
X114254699Y-94690001D01*
X114283697Y-94713799D01*
X114370423Y-94784974D01*
X114481791Y-94844502D01*
X114491760Y-94849830D01*
X114494188Y-94874482D01*
X114530498Y-94994180D01*
X114589463Y-95104494D01*
X114668815Y-95201185D01*
X114728296Y-95250000D01*
X114668815Y-95298815D01*
X114589463Y-95395506D01*
X114530498Y-95505820D01*
X114494188Y-95625518D01*
X114481928Y-95750000D01*
X114481928Y-96950000D01*
X114494188Y-97074482D01*
X114530498Y-97194180D01*
X114589463Y-97304494D01*
X114668815Y-97401185D01*
X114765506Y-97480537D01*
X114810000Y-97504320D01*
X114810001Y-98075680D01*
X114765506Y-98099463D01*
X114668815Y-98178815D01*
X114589463Y-98275506D01*
X114530498Y-98385820D01*
X114494188Y-98505518D01*
X114481928Y-98630000D01*
X114481928Y-99830000D01*
X114494188Y-99954482D01*
X114530498Y-100074180D01*
X114589463Y-100184494D01*
X114668815Y-100281185D01*
X114728296Y-100330000D01*
X114668815Y-100378815D01*
X114589463Y-100475506D01*
X114530498Y-100585820D01*
X114494188Y-100705518D01*
X114481928Y-100830000D01*
X114485000Y-101144250D01*
X114643750Y-101303000D01*
X115443000Y-101303000D01*
X115443000Y-101283000D01*
X115697000Y-101283000D01*
X115697000Y-101303000D01*
X116496250Y-101303000D01*
X116574250Y-101225000D01*
X117191928Y-101225000D01*
X117195000Y-101314250D01*
X117353750Y-101473000D01*
X118303000Y-101473000D01*
X118303000Y-100748750D01*
X118144250Y-100590000D01*
X117830000Y-100586928D01*
X117705518Y-100599188D01*
X117585820Y-100635498D01*
X117475506Y-100694463D01*
X117378815Y-100773815D01*
X117299463Y-100870506D01*
X117240498Y-100980820D01*
X117204188Y-101100518D01*
X117191928Y-101225000D01*
X116574250Y-101225000D01*
X116655000Y-101144250D01*
X116658072Y-100830000D01*
X116645812Y-100705518D01*
X116609502Y-100585820D01*
X116550537Y-100475506D01*
X116471185Y-100378815D01*
X116411704Y-100330000D01*
X116471185Y-100281185D01*
X116550537Y-100184494D01*
X116609502Y-100074180D01*
X116635038Y-99990000D01*
X119255001Y-99990000D01*
X119255001Y-100547368D01*
X119251324Y-100584700D01*
X119255777Y-100629916D01*
X119154482Y-100599188D01*
X119030000Y-100586928D01*
X118715750Y-100590000D01*
X118557000Y-100748750D01*
X118557000Y-101473000D01*
X118577000Y-101473000D01*
X118577000Y-101727000D01*
X118557000Y-101727000D01*
X118557000Y-102451250D01*
X118715750Y-102610000D01*
X119030000Y-102613072D01*
X119154482Y-102600812D01*
X119274180Y-102564502D01*
X119380000Y-102507939D01*
X119485820Y-102564502D01*
X119605518Y-102600812D01*
X119730000Y-102613072D01*
X120930000Y-102613072D01*
X121054482Y-102600812D01*
X121174180Y-102564502D01*
X121284494Y-102505537D01*
X121381185Y-102426185D01*
X121460537Y-102329494D01*
X121519502Y-102219180D01*
X121555812Y-102099482D01*
X121568072Y-101975000D01*
X121568072Y-101225000D01*
X121555812Y-101100518D01*
X121519502Y-100980820D01*
X121460537Y-100870506D01*
X121381185Y-100773815D01*
X121284494Y-100694463D01*
X121174180Y-100635498D01*
X121054482Y-100599188D01*
X121029830Y-100596760D01*
X120964974Y-100475424D01*
X120870001Y-100359699D01*
X120840997Y-100335896D01*
X120775000Y-100269899D01*
X120775000Y-99267333D01*
X120778677Y-99230000D01*
X120778487Y-99228072D01*
X120815000Y-99228072D01*
X120939482Y-99215812D01*
X121059180Y-99179502D01*
X121169494Y-99120537D01*
X121266185Y-99041185D01*
X121345537Y-98944494D01*
X121404502Y-98834180D01*
X121433661Y-98738057D01*
X121600241Y-98904637D01*
X121835273Y-99061680D01*
X122096426Y-99169853D01*
X122373665Y-99225000D01*
X122656335Y-99225000D01*
X122838887Y-99188688D01*
X126219800Y-102569602D01*
X126219800Y-105189368D01*
X126079840Y-105189368D01*
X125955358Y-105201628D01*
X125835660Y-105237938D01*
X125725346Y-105296903D01*
X125652600Y-105356604D01*
X125652600Y-105006823D01*
X125649601Y-104976374D01*
X125649650Y-104969373D01*
X125648683Y-104959507D01*
X125625366Y-104737655D01*
X125612429Y-104674631D01*
X125600368Y-104611405D01*
X125597502Y-104601915D01*
X125531538Y-104388817D01*
X125506606Y-104329508D01*
X125482494Y-104269829D01*
X125477840Y-104261076D01*
X125371740Y-104064849D01*
X125335767Y-104011517D01*
X125300521Y-103957655D01*
X125294255Y-103949973D01*
X125294254Y-103949971D01*
X125294250Y-103949967D01*
X125152062Y-103778090D01*
X125106407Y-103732753D01*
X125061377Y-103686770D01*
X125053739Y-103680451D01*
X124880869Y-103539461D01*
X124827257Y-103503841D01*
X124774170Y-103467492D01*
X124765450Y-103462777D01*
X124568486Y-103358050D01*
X124508988Y-103333527D01*
X124449847Y-103308179D01*
X124440377Y-103305248D01*
X124226824Y-103240772D01*
X124163756Y-103228284D01*
X124100752Y-103214892D01*
X124090893Y-103213856D01*
X123868985Y-103192098D01*
X123835439Y-103188748D01*
X114462215Y-103176048D01*
X114343554Y-103164413D01*
X114263297Y-103140182D01*
X114189266Y-103100819D01*
X114124292Y-103047827D01*
X114070848Y-102983225D01*
X114030971Y-102909473D01*
X114006179Y-102829383D01*
X113994000Y-102713503D01*
X113994000Y-102030000D01*
X114481928Y-102030000D01*
X114494188Y-102154482D01*
X114530498Y-102274180D01*
X114589463Y-102384494D01*
X114668815Y-102481185D01*
X114765506Y-102560537D01*
X114875820Y-102619502D01*
X114995518Y-102655812D01*
X115120000Y-102668072D01*
X115284250Y-102665000D01*
X115443000Y-102506250D01*
X115443000Y-101557000D01*
X115697000Y-101557000D01*
X115697000Y-102506250D01*
X115855750Y-102665000D01*
X116020000Y-102668072D01*
X116144482Y-102655812D01*
X116264180Y-102619502D01*
X116374494Y-102560537D01*
X116471185Y-102481185D01*
X116550537Y-102384494D01*
X116609502Y-102274180D01*
X116645812Y-102154482D01*
X116658072Y-102030000D01*
X116657535Y-101975000D01*
X117191928Y-101975000D01*
X117204188Y-102099482D01*
X117240498Y-102219180D01*
X117299463Y-102329494D01*
X117378815Y-102426185D01*
X117475506Y-102505537D01*
X117585820Y-102564502D01*
X117705518Y-102600812D01*
X117830000Y-102613072D01*
X118144250Y-102610000D01*
X118303000Y-102451250D01*
X118303000Y-101727000D01*
X117353750Y-101727000D01*
X117195000Y-101885750D01*
X117191928Y-101975000D01*
X116657535Y-101975000D01*
X116655000Y-101715750D01*
X116496250Y-101557000D01*
X115697000Y-101557000D01*
X115443000Y-101557000D01*
X114643750Y-101557000D01*
X114485000Y-101715750D01*
X114481928Y-102030000D01*
X113994000Y-102030000D01*
X113994000Y-94424102D01*
X114230901Y-94661003D01*
G36*
X166040446Y-50328587D02*
G01*
X166120704Y-50352819D01*
X166194733Y-50392180D01*
X166259705Y-50445170D01*
X166313150Y-50509773D01*
X166353028Y-50583526D01*
X166377821Y-50663618D01*
X166390001Y-50779507D01*
X166390000Y-68220806D01*
X166389619Y-68257077D01*
X166392753Y-68292911D01*
X166392502Y-68328885D01*
X166393470Y-68338751D01*
X166416797Y-68560691D01*
X166429541Y-68622774D01*
X166012846Y-68206079D01*
X165986691Y-68174209D01*
X165859546Y-68069864D01*
X165714487Y-67992328D01*
X165557089Y-67944582D01*
X165434419Y-67932500D01*
X165434418Y-67932500D01*
X165393400Y-67928460D01*
X165352382Y-67932500D01*
X146238618Y-67932500D01*
X146197600Y-67928460D01*
X146156582Y-67932500D01*
X146156581Y-67932500D01*
X146033911Y-67944582D01*
X145876513Y-67992328D01*
X145731454Y-68069864D01*
X145604309Y-68174209D01*
X145578163Y-68206068D01*
X133993174Y-79791059D01*
X133961310Y-79817209D01*
X133935162Y-79849071D01*
X133856964Y-79944355D01*
X133779428Y-80089414D01*
X133731682Y-80246812D01*
X133715560Y-80410500D01*
X133719601Y-80451529D01*
X133719600Y-92830281D01*
X133715560Y-92871300D01*
X133727596Y-92993499D01*
X133731682Y-93034988D01*
X133779428Y-93192386D01*
X133856964Y-93337445D01*
X133961309Y-93464591D01*
X133993178Y-93490746D01*
X134107132Y-93604700D01*
X132115985Y-95595848D01*
X132316919Y-95295129D01*
X132571484Y-94680555D01*
X132701260Y-94028125D01*
X132701260Y-93362915D01*
X132571484Y-92710485D01*
X132316919Y-92095911D01*
X131947347Y-91542808D01*
X131476972Y-91072433D01*
X130923869Y-90702861D01*
X130309295Y-90448296D01*
X129656865Y-90318520D01*
X128991655Y-90318520D01*
X128339225Y-90448296D01*
X127724651Y-90702861D01*
X127171548Y-91072433D01*
X126701173Y-91542808D01*
X126331601Y-92095911D01*
X126077036Y-92710485D01*
X125947260Y-93362915D01*
X125947260Y-94028125D01*
X126077036Y-94680555D01*
X126331601Y-95295129D01*
X126701173Y-95848232D01*
X127171548Y-96318607D01*
X127724651Y-96688179D01*
X128339225Y-96942744D01*
X128991655Y-97072520D01*
X129656865Y-97072520D01*
X130309295Y-96942744D01*
X130923869Y-96688179D01*
X131338413Y-96411189D01*
X131284628Y-96511814D01*
X131236882Y-96669212D01*
X131220760Y-96832900D01*
X131224801Y-96873929D01*
X131224800Y-104592100D01*
X129560819Y-104592100D01*
X129519800Y-104588060D01*
X129478782Y-104592100D01*
X129478781Y-104592100D01*
X129356111Y-104604182D01*
X129198713Y-104651928D01*
X129053654Y-104729464D01*
X128926509Y-104833809D01*
X128822164Y-104960954D01*
X128744628Y-105106013D01*
X128719343Y-105189368D01*
X128619840Y-105189368D01*
X128495358Y-105201628D01*
X128375660Y-105237938D01*
X128265346Y-105296903D01*
X128249840Y-105309628D01*
X128234334Y-105296903D01*
X128124020Y-105237938D01*
X128004322Y-105201628D01*
X127879840Y-105189368D01*
X127739800Y-105189368D01*
X127739800Y-102292125D01*
X127743476Y-102254800D01*
X127739800Y-102217475D01*
X127739800Y-102217467D01*
X127728803Y-102105814D01*
X127685346Y-101962553D01*
X127614774Y-101830524D01*
X127519801Y-101714799D01*
X127490804Y-101691002D01*
X123913688Y-98113887D01*
X123950000Y-97931335D01*
X123950000Y-97648665D01*
X123894853Y-97371426D01*
X123786680Y-97110273D01*
X123629637Y-96875241D01*
X123429759Y-96675363D01*
X123194727Y-96518320D01*
X122933574Y-96410147D01*
X122656335Y-96355000D01*
X122373665Y-96355000D01*
X122096426Y-96410147D01*
X121835273Y-96518320D01*
X121600241Y-96675363D01*
X121433661Y-96841943D01*
X121404502Y-96745820D01*
X121345537Y-96635506D01*
X121266185Y-96538815D01*
X121169494Y-96459463D01*
X121059180Y-96400498D01*
X120939482Y-96364188D01*
X120815000Y-96351928D01*
X119215000Y-96351928D01*
X119090518Y-96364188D01*
X118970820Y-96400498D01*
X118860506Y-96459463D01*
X118763815Y-96538815D01*
X118684463Y-96635506D01*
X118625498Y-96745820D01*
X118589188Y-96865518D01*
X118576928Y-96990000D01*
X118576928Y-98470000D01*
X116635038Y-98470000D01*
X116609502Y-98385820D01*
X116550537Y-98275506D01*
X116471185Y-98178815D01*
X116374494Y-98099463D01*
X116330000Y-98075680D01*
X116330000Y-97504320D01*
X116374494Y-97480537D01*
X116471185Y-97401185D01*
X116550537Y-97304494D01*
X116609502Y-97194180D01*
X116645812Y-97074482D01*
X116658072Y-96950000D01*
X116658072Y-95750000D01*
X116645812Y-95625518D01*
X116609502Y-95505820D01*
X116550537Y-95395506D01*
X116471185Y-95298815D01*
X116411704Y-95250000D01*
X116471185Y-95201185D01*
X116550537Y-95104494D01*
X116609502Y-94994180D01*
X116645812Y-94874482D01*
X116658072Y-94750000D01*
X116658072Y-93550000D01*
X116645812Y-93425518D01*
X116609502Y-93305820D01*
X116550537Y-93195506D01*
X116471185Y-93098815D01*
X116374494Y-93019463D01*
X116264180Y-92960498D01*
X116144482Y-92924188D01*
X116020000Y-92911928D01*
X115120000Y-92911928D01*
X114995518Y-92924188D01*
X114875820Y-92960498D01*
X114765506Y-93019463D01*
X114750928Y-93031427D01*
X111106504Y-89387003D01*
X111082701Y-89357999D01*
X110966976Y-89263026D01*
X110834947Y-89192454D01*
X110691686Y-89148997D01*
X110580033Y-89138000D01*
X110580022Y-89138000D01*
X110542700Y-89134324D01*
X110505378Y-89138000D01*
X110027635Y-89138000D01*
X109924989Y-89069414D01*
X109754829Y-88998932D01*
X109574189Y-88963000D01*
X109390011Y-88963000D01*
X109209371Y-88998932D01*
X109039211Y-89069414D01*
X108886072Y-89171738D01*
X108755838Y-89301972D01*
X108653514Y-89455111D01*
X108583032Y-89625271D01*
X108547100Y-89805911D01*
X108547100Y-89990089D01*
X108583032Y-90170729D01*
X108653514Y-90340889D01*
X108755838Y-90494028D01*
X108886072Y-90624262D01*
X109039211Y-90726586D01*
X109209371Y-90797068D01*
X109390011Y-90833000D01*
X109574189Y-90833000D01*
X109754829Y-90797068D01*
X109924989Y-90726586D01*
X110027635Y-90658000D01*
X110227899Y-90658000D01*
X111633399Y-92063500D01*
X105508229Y-92063500D01*
X105390054Y-92051913D01*
X105309797Y-92027682D01*
X105235766Y-91988319D01*
X105170792Y-91935327D01*
X105117348Y-91870725D01*
X105077471Y-91796973D01*
X105052679Y-91716883D01*
X105040500Y-91601003D01*
X105040500Y-60745390D01*
X106889524Y-60745390D01*
X106934175Y-60892599D01*
X107059359Y-61155420D01*
X107233412Y-61388769D01*
X107449645Y-61583678D01*
X107699748Y-61732657D01*
X107974109Y-61829981D01*
X108204000Y-61709314D01*
X108204000Y-60515500D01*
X108458000Y-60515500D01*
X108458000Y-61709314D01*
X108687891Y-61829981D01*
X108962252Y-61732657D01*
X109212355Y-61583678D01*
X109428588Y-61388769D01*
X109602641Y-61155420D01*
X109727825Y-60892599D01*
X109772476Y-60745390D01*
X109651155Y-60515500D01*
X108458000Y-60515500D01*
X108204000Y-60515500D01*
X107010845Y-60515500D01*
X106889524Y-60745390D01*
X105040500Y-60745390D01*
X105040500Y-51918500D01*
X106842928Y-51918500D01*
X106842928Y-53618500D01*
X106855188Y-53742982D01*
X106891498Y-53862680D01*
X106950463Y-53972994D01*
X107029815Y-54069685D01*
X107126506Y-54149037D01*
X107236820Y-54208002D01*
X107309380Y-54230013D01*
X107177525Y-54361868D01*
X107015010Y-54605089D01*
X106903068Y-54875342D01*
X106846000Y-55162240D01*
X106846000Y-55454760D01*
X106903068Y-55741658D01*
X107015010Y-56011911D01*
X107177525Y-56255132D01*
X107384368Y-56461975D01*
X107558760Y-56578500D01*
X107384368Y-56695025D01*
X107177525Y-56901868D01*
X107015010Y-57145089D01*
X106903068Y-57415342D01*
X106846000Y-57702240D01*
X106846000Y-57994760D01*
X106903068Y-58281658D01*
X107015010Y-58551911D01*
X107177525Y-58795132D01*
X107384368Y-59001975D01*
X107566534Y-59123695D01*
X107449645Y-59193322D01*
X107233412Y-59388231D01*
X107059359Y-59621580D01*
X106934175Y-59884401D01*
X106889524Y-60031610D01*
X107010845Y-60261500D01*
X108204000Y-60261500D01*
X108204000Y-60241500D01*
X108458000Y-60241500D01*
X108458000Y-60261500D01*
X109651155Y-60261500D01*
X109772476Y-60031610D01*
X109727825Y-59884401D01*
X109602641Y-59621580D01*
X109428588Y-59388231D01*
X109212355Y-59193322D01*
X109095466Y-59123695D01*
X109277632Y-59001975D01*
X109484475Y-58795132D01*
X109613796Y-58601589D01*
X109655286Y-58597503D01*
X109798547Y-58554046D01*
X109930576Y-58483474D01*
X110046301Y-58388501D01*
X110070104Y-58359497D01*
X112691902Y-55737700D01*
X119263928Y-55737700D01*
X119263928Y-56203000D01*
X119276188Y-56327482D01*
X119312498Y-56447180D01*
X119371463Y-56557494D01*
X119450815Y-56654185D01*
X119547506Y-56733537D01*
X119657820Y-56792502D01*
X119759600Y-56823377D01*
X119759600Y-56916589D01*
X119795532Y-57097229D01*
X119866014Y-57267389D01*
X119968338Y-57420528D01*
X120098572Y-57550762D01*
X120251711Y-57653086D01*
X120421871Y-57723568D01*
X120602511Y-57759500D01*
X120786689Y-57759500D01*
X120967329Y-57723568D01*
X121137489Y-57653086D01*
X121290628Y-57550762D01*
X121420862Y-57420528D01*
X121523186Y-57267389D01*
X121593668Y-57097229D01*
X121629600Y-56916589D01*
X121629600Y-56732411D01*
X121602274Y-56595038D01*
X121650815Y-56654185D01*
X121747506Y-56733537D01*
X121857820Y-56792502D01*
X121977518Y-56828812D01*
X122102000Y-56841072D01*
X123302000Y-56841072D01*
X123426482Y-56828812D01*
X123546180Y-56792502D01*
X123656494Y-56733537D01*
X123753185Y-56654185D01*
X123832537Y-56557494D01*
X123891502Y-56447180D01*
X123927812Y-56327482D01*
X123940072Y-56203000D01*
X123940072Y-55303000D01*
X123927812Y-55178518D01*
X123891502Y-55058820D01*
X123832537Y-54948506D01*
X123789241Y-54895750D01*
X123832537Y-54842994D01*
X123891502Y-54732680D01*
X123927812Y-54612982D01*
X123940072Y-54488500D01*
X123940072Y-53588500D01*
X123927812Y-53464018D01*
X123891502Y-53344320D01*
X123832537Y-53234006D01*
X123789241Y-53181250D01*
X123832537Y-53128494D01*
X123891502Y-53018180D01*
X123927812Y-52898482D01*
X123940072Y-52774000D01*
X123940072Y-51874000D01*
X123927812Y-51749518D01*
X123891502Y-51629820D01*
X123832537Y-51519506D01*
X123753185Y-51422815D01*
X123656494Y-51343463D01*
X123546180Y-51284498D01*
X123426482Y-51248188D01*
X123302000Y-51235928D01*
X122102000Y-51235928D01*
X121977518Y-51248188D01*
X121857820Y-51284498D01*
X121747506Y-51343463D01*
X121650815Y-51422815D01*
X121602000Y-51482296D01*
X121553185Y-51422815D01*
X121456494Y-51343463D01*
X121346180Y-51284498D01*
X121226482Y-51248188D01*
X121102000Y-51235928D01*
X119902000Y-51235928D01*
X119777518Y-51248188D01*
X119657820Y-51284498D01*
X119547506Y-51343463D01*
X119450815Y-51422815D01*
X119371463Y-51519506D01*
X119347680Y-51564000D01*
X119269434Y-51564000D01*
X119210189Y-51524414D01*
X119040029Y-51453932D01*
X118859389Y-51418000D01*
X118675211Y-51418000D01*
X118494571Y-51453932D01*
X118324411Y-51524414D01*
X118171272Y-51626738D01*
X118041038Y-51756972D01*
X117938714Y-51910111D01*
X117868232Y-52080271D01*
X117832300Y-52260911D01*
X117832300Y-52445089D01*
X117868232Y-52625729D01*
X117938714Y-52795889D01*
X118041038Y-52949028D01*
X118171272Y-53079262D01*
X118324411Y-53181586D01*
X118375459Y-53202731D01*
X118323111Y-53224414D01*
X118169972Y-53326738D01*
X118039738Y-53456972D01*
X117937414Y-53610111D01*
X117866932Y-53780271D01*
X117831000Y-53960911D01*
X117831000Y-54145089D01*
X117845443Y-54217700D01*
X112414422Y-54217700D01*
X112377099Y-54214024D01*
X112339776Y-54217700D01*
X112339767Y-54217700D01*
X112228114Y-54228697D01*
X112084853Y-54272154D01*
X111952824Y-54342726D01*
X111837099Y-54437699D01*
X111813301Y-54466697D01*
X109431303Y-56848696D01*
X109277632Y-56695025D01*
X109103240Y-56578500D01*
X109277632Y-56461975D01*
X109484475Y-56255132D01*
X109646990Y-56011911D01*
X109758932Y-55741658D01*
X109816000Y-55454760D01*
X109816000Y-55162240D01*
X109758932Y-54875342D01*
X109646990Y-54605089D01*
X109484475Y-54361868D01*
X109352620Y-54230013D01*
X109425180Y-54208002D01*
X109535494Y-54149037D01*
X109632185Y-54069685D01*
X109711537Y-53972994D01*
X109770502Y-53862680D01*
X109806812Y-53742982D01*
X109819072Y-53618500D01*
X109819072Y-51918500D01*
X109806812Y-51794018D01*
X109770502Y-51674320D01*
X109711537Y-51564006D01*
X109632185Y-51467315D01*
X109535494Y-51387963D01*
X109425180Y-51328998D01*
X109305482Y-51292688D01*
X109181000Y-51280428D01*
X107481000Y-51280428D01*
X107356518Y-51292688D01*
X107236820Y-51328998D01*
X107126506Y-51387963D01*
X107029815Y-51467315D01*
X106950463Y-51564006D01*
X106891498Y-51674320D01*
X106855188Y-51794018D01*
X106842928Y-51918500D01*
X105040500Y-51918500D01*
X105040500Y-50834729D01*
X105052087Y-50716554D01*
X105076319Y-50636296D01*
X105115680Y-50562267D01*
X105168670Y-50497295D01*
X105233273Y-50443850D01*
X105307026Y-50403972D01*
X105387118Y-50379179D01*
X105503234Y-50366975D01*
X165922554Y-50317028D01*
X166040446Y-50328587D01*
G37*
X166040446Y-50328587D02*
X166120704Y-50352819D01*
X166194733Y-50392180D01*
X166259705Y-50445170D01*
X166313150Y-50509773D01*
X166353028Y-50583526D01*
X166377821Y-50663618D01*
X166390001Y-50779507D01*
X166390000Y-68220806D01*
X166389619Y-68257077D01*
X166392753Y-68292911D01*
X166392502Y-68328885D01*
X166393470Y-68338751D01*
X166416797Y-68560691D01*
X166429541Y-68622774D01*
X166012846Y-68206079D01*
X165986691Y-68174209D01*
X165859546Y-68069864D01*
X165714487Y-67992328D01*
X165557089Y-67944582D01*
X165434419Y-67932500D01*
X165434418Y-67932500D01*
X165393400Y-67928460D01*
X165352382Y-67932500D01*
X146238618Y-67932500D01*
X146197600Y-67928460D01*
X146156582Y-67932500D01*
X146156581Y-67932500D01*
X146033911Y-67944582D01*
X145876513Y-67992328D01*
X145731454Y-68069864D01*
X145604309Y-68174209D01*
X145578163Y-68206068D01*
X133993174Y-79791059D01*
X133961310Y-79817209D01*
X133935162Y-79849071D01*
X133856964Y-79944355D01*
X133779428Y-80089414D01*
X133731682Y-80246812D01*
X133715560Y-80410500D01*
X133719601Y-80451529D01*
X133719600Y-92830281D01*
X133715560Y-92871300D01*
X133727596Y-92993499D01*
X133731682Y-93034988D01*
X133779428Y-93192386D01*
X133856964Y-93337445D01*
X133961309Y-93464591D01*
X133993178Y-93490746D01*
X134107132Y-93604700D01*
X132115985Y-95595848D01*
X132316919Y-95295129D01*
X132571484Y-94680555D01*
X132701260Y-94028125D01*
X132701260Y-93362915D01*
X132571484Y-92710485D01*
X132316919Y-92095911D01*
X131947347Y-91542808D01*
X131476972Y-91072433D01*
X130923869Y-90702861D01*
X130309295Y-90448296D01*
X129656865Y-90318520D01*
X128991655Y-90318520D01*
X128339225Y-90448296D01*
X127724651Y-90702861D01*
X127171548Y-91072433D01*
X126701173Y-91542808D01*
X126331601Y-92095911D01*
X126077036Y-92710485D01*
X125947260Y-93362915D01*
X125947260Y-94028125D01*
X126077036Y-94680555D01*
X126331601Y-95295129D01*
X126701173Y-95848232D01*
X127171548Y-96318607D01*
X127724651Y-96688179D01*
X128339225Y-96942744D01*
X128991655Y-97072520D01*
X129656865Y-97072520D01*
X130309295Y-96942744D01*
X130923869Y-96688179D01*
X131338413Y-96411189D01*
X131284628Y-96511814D01*
X131236882Y-96669212D01*
X131220760Y-96832900D01*
X131224801Y-96873929D01*
X131224800Y-104592100D01*
X129560819Y-104592100D01*
X129519800Y-104588060D01*
X129478782Y-104592100D01*
X129478781Y-104592100D01*
X129356111Y-104604182D01*
X129198713Y-104651928D01*
X129053654Y-104729464D01*
X128926509Y-104833809D01*
X128822164Y-104960954D01*
X128744628Y-105106013D01*
X128719343Y-105189368D01*
X128619840Y-105189368D01*
X128495358Y-105201628D01*
X128375660Y-105237938D01*
X128265346Y-105296903D01*
X128249840Y-105309628D01*
X128234334Y-105296903D01*
X128124020Y-105237938D01*
X128004322Y-105201628D01*
X127879840Y-105189368D01*
X127739800Y-105189368D01*
X127739800Y-102292125D01*
X127743476Y-102254800D01*
X127739800Y-102217475D01*
X127739800Y-102217467D01*
X127728803Y-102105814D01*
X127685346Y-101962553D01*
X127614774Y-101830524D01*
X127519801Y-101714799D01*
X127490804Y-101691002D01*
X123913688Y-98113887D01*
X123950000Y-97931335D01*
X123950000Y-97648665D01*
X123894853Y-97371426D01*
X123786680Y-97110273D01*
X123629637Y-96875241D01*
X123429759Y-96675363D01*
X123194727Y-96518320D01*
X122933574Y-96410147D01*
X122656335Y-96355000D01*
X122373665Y-96355000D01*
X122096426Y-96410147D01*
X121835273Y-96518320D01*
X121600241Y-96675363D01*
X121433661Y-96841943D01*
X121404502Y-96745820D01*
X121345537Y-96635506D01*
X121266185Y-96538815D01*
X121169494Y-96459463D01*
X121059180Y-96400498D01*
X120939482Y-96364188D01*
X120815000Y-96351928D01*
X119215000Y-96351928D01*
X119090518Y-96364188D01*
X118970820Y-96400498D01*
X118860506Y-96459463D01*
X118763815Y-96538815D01*
X118684463Y-96635506D01*
X118625498Y-96745820D01*
X118589188Y-96865518D01*
X118576928Y-96990000D01*
X118576928Y-98470000D01*
X116635038Y-98470000D01*
X116609502Y-98385820D01*
X116550537Y-98275506D01*
X116471185Y-98178815D01*
X116374494Y-98099463D01*
X116330000Y-98075680D01*
X116330000Y-97504320D01*
X116374494Y-97480537D01*
X116471185Y-97401185D01*
X116550537Y-97304494D01*
X116609502Y-97194180D01*
X116645812Y-97074482D01*
X116658072Y-96950000D01*
X116658072Y-95750000D01*
X116645812Y-95625518D01*
X116609502Y-95505820D01*
X116550537Y-95395506D01*
X116471185Y-95298815D01*
X116411704Y-95250000D01*
X116471185Y-95201185D01*
X116550537Y-95104494D01*
X116609502Y-94994180D01*
X116645812Y-94874482D01*
X116658072Y-94750000D01*
X116658072Y-93550000D01*
X116645812Y-93425518D01*
X116609502Y-93305820D01*
X116550537Y-93195506D01*
X116471185Y-93098815D01*
X116374494Y-93019463D01*
X116264180Y-92960498D01*
X116144482Y-92924188D01*
X116020000Y-92911928D01*
X115120000Y-92911928D01*
X114995518Y-92924188D01*
X114875820Y-92960498D01*
X114765506Y-93019463D01*
X114750928Y-93031427D01*
X111106504Y-89387003D01*
X111082701Y-89357999D01*
X110966976Y-89263026D01*
X110834947Y-89192454D01*
X110691686Y-89148997D01*
X110580033Y-89138000D01*
X110580022Y-89138000D01*
X110542700Y-89134324D01*
X110505378Y-89138000D01*
X110027635Y-89138000D01*
X109924989Y-89069414D01*
X109754829Y-88998932D01*
X109574189Y-88963000D01*
X109390011Y-88963000D01*
X109209371Y-88998932D01*
X109039211Y-89069414D01*
X108886072Y-89171738D01*
X108755838Y-89301972D01*
X108653514Y-89455111D01*
X108583032Y-89625271D01*
X108547100Y-89805911D01*
X108547100Y-89990089D01*
X108583032Y-90170729D01*
X108653514Y-90340889D01*
X108755838Y-90494028D01*
X108886072Y-90624262D01*
X109039211Y-90726586D01*
X109209371Y-90797068D01*
X109390011Y-90833000D01*
X109574189Y-90833000D01*
X109754829Y-90797068D01*
X109924989Y-90726586D01*
X110027635Y-90658000D01*
X110227899Y-90658000D01*
X111633399Y-92063500D01*
X105508229Y-92063500D01*
X105390054Y-92051913D01*
X105309797Y-92027682D01*
X105235766Y-91988319D01*
X105170792Y-91935327D01*
X105117348Y-91870725D01*
X105077471Y-91796973D01*
X105052679Y-91716883D01*
X105040500Y-91601003D01*
X105040500Y-60745390D01*
X106889524Y-60745390D01*
X106934175Y-60892599D01*
X107059359Y-61155420D01*
X107233412Y-61388769D01*
X107449645Y-61583678D01*
X107699748Y-61732657D01*
X107974109Y-61829981D01*
X108204000Y-61709314D01*
X108204000Y-60515500D01*
X108458000Y-60515500D01*
X108458000Y-61709314D01*
X108687891Y-61829981D01*
X108962252Y-61732657D01*
X109212355Y-61583678D01*
X109428588Y-61388769D01*
X109602641Y-61155420D01*
X109727825Y-60892599D01*
X109772476Y-60745390D01*
X109651155Y-60515500D01*
X108458000Y-60515500D01*
X108204000Y-60515500D01*
X107010845Y-60515500D01*
X106889524Y-60745390D01*
X105040500Y-60745390D01*
X105040500Y-51918500D01*
X106842928Y-51918500D01*
X106842928Y-53618500D01*
X106855188Y-53742982D01*
X106891498Y-53862680D01*
X106950463Y-53972994D01*
X107029815Y-54069685D01*
X107126506Y-54149037D01*
X107236820Y-54208002D01*
X107309380Y-54230013D01*
X107177525Y-54361868D01*
X107015010Y-54605089D01*
X106903068Y-54875342D01*
X106846000Y-55162240D01*
X106846000Y-55454760D01*
X106903068Y-55741658D01*
X107015010Y-56011911D01*
X107177525Y-56255132D01*
X107384368Y-56461975D01*
X107558760Y-56578500D01*
X107384368Y-56695025D01*
X107177525Y-56901868D01*
X107015010Y-57145089D01*
X106903068Y-57415342D01*
X106846000Y-57702240D01*
X106846000Y-57994760D01*
X106903068Y-58281658D01*
X107015010Y-58551911D01*
X107177525Y-58795132D01*
X107384368Y-59001975D01*
X107566534Y-59123695D01*
X107449645Y-59193322D01*
X107233412Y-59388231D01*
X107059359Y-59621580D01*
X106934175Y-59884401D01*
X106889524Y-60031610D01*
X107010845Y-60261500D01*
X108204000Y-60261500D01*
X108204000Y-60241500D01*
X108458000Y-60241500D01*
X108458000Y-60261500D01*
X109651155Y-60261500D01*
X109772476Y-60031610D01*
X109727825Y-59884401D01*
X109602641Y-59621580D01*
X109428588Y-59388231D01*
X109212355Y-59193322D01*
X109095466Y-59123695D01*
X109277632Y-59001975D01*
X109484475Y-58795132D01*
X109613796Y-58601589D01*
X109655286Y-58597503D01*
X109798547Y-58554046D01*
X109930576Y-58483474D01*
X110046301Y-58388501D01*
X110070104Y-58359497D01*
X112691902Y-55737700D01*
X119263928Y-55737700D01*
X119263928Y-56203000D01*
X119276188Y-56327482D01*
X119312498Y-56447180D01*
X119371463Y-56557494D01*
X119450815Y-56654185D01*
X119547506Y-56733537D01*
X119657820Y-56792502D01*
X119759600Y-56823377D01*
X119759600Y-56916589D01*
X119795532Y-57097229D01*
X119866014Y-57267389D01*
X119968338Y-57420528D01*
X120098572Y-57550762D01*
X120251711Y-57653086D01*
X120421871Y-57723568D01*
X120602511Y-57759500D01*
X120786689Y-57759500D01*
X120967329Y-57723568D01*
X121137489Y-57653086D01*
X121290628Y-57550762D01*
X121420862Y-57420528D01*
X121523186Y-57267389D01*
X121593668Y-57097229D01*
X121629600Y-56916589D01*
X121629600Y-56732411D01*
X121602274Y-56595038D01*
X121650815Y-56654185D01*
X121747506Y-56733537D01*
X121857820Y-56792502D01*
X121977518Y-56828812D01*
X122102000Y-56841072D01*
X123302000Y-56841072D01*
X123426482Y-56828812D01*
X123546180Y-56792502D01*
X123656494Y-56733537D01*
X123753185Y-56654185D01*
X123832537Y-56557494D01*
X123891502Y-56447180D01*
X123927812Y-56327482D01*
X123940072Y-56203000D01*
X123940072Y-55303000D01*
X123927812Y-55178518D01*
X123891502Y-55058820D01*
X123832537Y-54948506D01*
X123789241Y-54895750D01*
X123832537Y-54842994D01*
X123891502Y-54732680D01*
X123927812Y-54612982D01*
X123940072Y-54488500D01*
X123940072Y-53588500D01*
X123927812Y-53464018D01*
X123891502Y-53344320D01*
X123832537Y-53234006D01*
X123789241Y-53181250D01*
X123832537Y-53128494D01*
X123891502Y-53018180D01*
X123927812Y-52898482D01*
X123940072Y-52774000D01*
X123940072Y-51874000D01*
X123927812Y-51749518D01*
X123891502Y-51629820D01*
X123832537Y-51519506D01*
X123753185Y-51422815D01*
X123656494Y-51343463D01*
X123546180Y-51284498D01*
X123426482Y-51248188D01*
X123302000Y-51235928D01*
X122102000Y-51235928D01*
X121977518Y-51248188D01*
X121857820Y-51284498D01*
X121747506Y-51343463D01*
X121650815Y-51422815D01*
X121602000Y-51482296D01*
X121553185Y-51422815D01*
X121456494Y-51343463D01*
X121346180Y-51284498D01*
X121226482Y-51248188D01*
X121102000Y-51235928D01*
X119902000Y-51235928D01*
X119777518Y-51248188D01*
X119657820Y-51284498D01*
X119547506Y-51343463D01*
X119450815Y-51422815D01*
X119371463Y-51519506D01*
X119347680Y-51564000D01*
X119269434Y-51564000D01*
X119210189Y-51524414D01*
X119040029Y-51453932D01*
X118859389Y-51418000D01*
X118675211Y-51418000D01*
X118494571Y-51453932D01*
X118324411Y-51524414D01*
X118171272Y-51626738D01*
X118041038Y-51756972D01*
X117938714Y-51910111D01*
X117868232Y-52080271D01*
X117832300Y-52260911D01*
X117832300Y-52445089D01*
X117868232Y-52625729D01*
X117938714Y-52795889D01*
X118041038Y-52949028D01*
X118171272Y-53079262D01*
X118324411Y-53181586D01*
X118375459Y-53202731D01*
X118323111Y-53224414D01*
X118169972Y-53326738D01*
X118039738Y-53456972D01*
X117937414Y-53610111D01*
X117866932Y-53780271D01*
X117831000Y-53960911D01*
X117831000Y-54145089D01*
X117845443Y-54217700D01*
X112414422Y-54217700D01*
X112377099Y-54214024D01*
X112339776Y-54217700D01*
X112339767Y-54217700D01*
X112228114Y-54228697D01*
X112084853Y-54272154D01*
X111952824Y-54342726D01*
X111837099Y-54437699D01*
X111813301Y-54466697D01*
X109431303Y-56848696D01*
X109277632Y-56695025D01*
X109103240Y-56578500D01*
X109277632Y-56461975D01*
X109484475Y-56255132D01*
X109646990Y-56011911D01*
X109758932Y-55741658D01*
X109816000Y-55454760D01*
X109816000Y-55162240D01*
X109758932Y-54875342D01*
X109646990Y-54605089D01*
X109484475Y-54361868D01*
X109352620Y-54230013D01*
X109425180Y-54208002D01*
X109535494Y-54149037D01*
X109632185Y-54069685D01*
X109711537Y-53972994D01*
X109770502Y-53862680D01*
X109806812Y-53742982D01*
X109819072Y-53618500D01*
X109819072Y-51918500D01*
X109806812Y-51794018D01*
X109770502Y-51674320D01*
X109711537Y-51564006D01*
X109632185Y-51467315D01*
X109535494Y-51387963D01*
X109425180Y-51328998D01*
X109305482Y-51292688D01*
X109181000Y-51280428D01*
X107481000Y-51280428D01*
X107356518Y-51292688D01*
X107236820Y-51328998D01*
X107126506Y-51387963D01*
X107029815Y-51467315D01*
X106950463Y-51564006D01*
X106891498Y-51674320D01*
X106855188Y-51794018D01*
X106842928Y-51918500D01*
X105040500Y-51918500D01*
X105040500Y-50834729D01*
X105052087Y-50716554D01*
X105076319Y-50636296D01*
X105115680Y-50562267D01*
X105168670Y-50497295D01*
X105233273Y-50443850D01*
X105307026Y-50403972D01*
X105387118Y-50379179D01*
X105503234Y-50366975D01*
X165922554Y-50317028D01*
X166040446Y-50328587D01*
G36*
X150478100Y-95597798D02*
G01*
X150163072Y-95912826D01*
X150163072Y-94505000D01*
X150150812Y-94380518D01*
X150114502Y-94260820D01*
X150060000Y-94158856D01*
X150060000Y-94145718D01*
X150064040Y-94104700D01*
X150052148Y-93983955D01*
X150047918Y-93941011D01*
X150000172Y-93783613D01*
X149922636Y-93638554D01*
X149818291Y-93511409D01*
X149786426Y-93485258D01*
X149344445Y-93043278D01*
X149318291Y-93011409D01*
X149191146Y-92907064D01*
X149046087Y-92829528D01*
X148888689Y-92781782D01*
X148766019Y-92769700D01*
X148766018Y-92769700D01*
X148725000Y-92765660D01*
X148683982Y-92769700D01*
X147483074Y-92769700D01*
X147510389Y-92758386D01*
X147663528Y-92656062D01*
X147793762Y-92525828D01*
X147896086Y-92372689D01*
X147966568Y-92202529D01*
X147990653Y-92081448D01*
X150478101Y-89594001D01*
X150478100Y-95597798D01*
G37*
X150478100Y-95597798D02*
X150163072Y-95912826D01*
X150163072Y-94505000D01*
X150150812Y-94380518D01*
X150114502Y-94260820D01*
X150060000Y-94158856D01*
X150060000Y-94145718D01*
X150064040Y-94104700D01*
X150052148Y-93983955D01*
X150047918Y-93941011D01*
X150000172Y-93783613D01*
X149922636Y-93638554D01*
X149818291Y-93511409D01*
X149786426Y-93485258D01*
X149344445Y-93043278D01*
X149318291Y-93011409D01*
X149191146Y-92907064D01*
X149046087Y-92829528D01*
X148888689Y-92781782D01*
X148766019Y-92769700D01*
X148766018Y-92769700D01*
X148725000Y-92765660D01*
X148683982Y-92769700D01*
X147483074Y-92769700D01*
X147510389Y-92758386D01*
X147663528Y-92656062D01*
X147793762Y-92525828D01*
X147896086Y-92372689D01*
X147966568Y-92202529D01*
X147990653Y-92081448D01*
X150478101Y-89594001D01*
X150478100Y-95597798D01*
G36*
X185967000Y-77567500D02*
G01*
X185987000Y-77567500D01*
X185987000Y-77821500D01*
X185967000Y-77821500D01*
X185967000Y-79014655D01*
X186196890Y-79135976D01*
X186344099Y-79091325D01*
X186606920Y-78966141D01*
X186840269Y-78792088D01*
X187035178Y-78575855D01*
X187104805Y-78458966D01*
X187226525Y-78641132D01*
X187433368Y-78847975D01*
X187676589Y-79010490D01*
X187946842Y-79122432D01*
X188233740Y-79179500D01*
X188526260Y-79179500D01*
X188813158Y-79122432D01*
X189083411Y-79010490D01*
X189326632Y-78847975D01*
X189533475Y-78641132D01*
X189650000Y-78466740D01*
X189766525Y-78641132D01*
X189973368Y-78847975D01*
X190216589Y-79010490D01*
X190486842Y-79122432D01*
X190773740Y-79179500D01*
X191066260Y-79179500D01*
X191353158Y-79122432D01*
X191623411Y-79010490D01*
X191866632Y-78847975D01*
X192073475Y-78641132D01*
X192190000Y-78466740D01*
X192306525Y-78641132D01*
X192513368Y-78847975D01*
X192756589Y-79010490D01*
X193026842Y-79122432D01*
X193313740Y-79179500D01*
X193606260Y-79179500D01*
X193893158Y-79122432D01*
X194163411Y-79010490D01*
X194406632Y-78847975D01*
X194538487Y-78716120D01*
X194560498Y-78788680D01*
X194619463Y-78898994D01*
X194698815Y-78995685D01*
X194795506Y-79075037D01*
X194905820Y-79134002D01*
X195025518Y-79170312D01*
X195150000Y-79182572D01*
X195240001Y-79182572D01*
X195240000Y-82271898D01*
X181913072Y-95598827D01*
X181913072Y-94277000D01*
X181900812Y-94152518D01*
X181888749Y-94112752D01*
X183032104Y-92969398D01*
X183061101Y-92945601D01*
X183156074Y-92829876D01*
X183226646Y-92697847D01*
X183270103Y-92554586D01*
X183281100Y-92442933D01*
X183281100Y-92442932D01*
X183284777Y-92405600D01*
X183281100Y-92368267D01*
X183281100Y-85515144D01*
X183419229Y-85487668D01*
X183589389Y-85417186D01*
X183742528Y-85314862D01*
X183872762Y-85184628D01*
X183975086Y-85031489D01*
X184045568Y-84861329D01*
X184069653Y-84740249D01*
X185175703Y-83634199D01*
X185204701Y-83610401D01*
X185247375Y-83558403D01*
X185299674Y-83494677D01*
X185370246Y-83362647D01*
X185383621Y-83318554D01*
X185413703Y-83219386D01*
X185424700Y-83107733D01*
X185424700Y-83107724D01*
X185428376Y-83070401D01*
X185424700Y-83033078D01*
X185424700Y-79118259D01*
X185483110Y-79135976D01*
X185713000Y-79014655D01*
X185713000Y-77821500D01*
X185693000Y-77821500D01*
X185693000Y-77567500D01*
X185713000Y-77567500D01*
X185713000Y-77547500D01*
X185967000Y-77547500D01*
X185967000Y-77567500D01*
G37*
X185967000Y-77567500D02*
X185987000Y-77567500D01*
X185987000Y-77821500D01*
X185967000Y-77821500D01*
X185967000Y-79014655D01*
X186196890Y-79135976D01*
X186344099Y-79091325D01*
X186606920Y-78966141D01*
X186840269Y-78792088D01*
X187035178Y-78575855D01*
X187104805Y-78458966D01*
X187226525Y-78641132D01*
X187433368Y-78847975D01*
X187676589Y-79010490D01*
X187946842Y-79122432D01*
X188233740Y-79179500D01*
X188526260Y-79179500D01*
X188813158Y-79122432D01*
X189083411Y-79010490D01*
X189326632Y-78847975D01*
X189533475Y-78641132D01*
X189650000Y-78466740D01*
X189766525Y-78641132D01*
X189973368Y-78847975D01*
X190216589Y-79010490D01*
X190486842Y-79122432D01*
X190773740Y-79179500D01*
X191066260Y-79179500D01*
X191353158Y-79122432D01*
X191623411Y-79010490D01*
X191866632Y-78847975D01*
X192073475Y-78641132D01*
X192190000Y-78466740D01*
X192306525Y-78641132D01*
X192513368Y-78847975D01*
X192756589Y-79010490D01*
X193026842Y-79122432D01*
X193313740Y-79179500D01*
X193606260Y-79179500D01*
X193893158Y-79122432D01*
X194163411Y-79010490D01*
X194406632Y-78847975D01*
X194538487Y-78716120D01*
X194560498Y-78788680D01*
X194619463Y-78898994D01*
X194698815Y-78995685D01*
X194795506Y-79075037D01*
X194905820Y-79134002D01*
X195025518Y-79170312D01*
X195150000Y-79182572D01*
X195240001Y-79182572D01*
X195240000Y-82271898D01*
X181913072Y-95598827D01*
X181913072Y-94277000D01*
X181900812Y-94152518D01*
X181888749Y-94112752D01*
X183032104Y-92969398D01*
X183061101Y-92945601D01*
X183156074Y-92829876D01*
X183226646Y-92697847D01*
X183270103Y-92554586D01*
X183281100Y-92442933D01*
X183281100Y-92442932D01*
X183284777Y-92405600D01*
X183281100Y-92368267D01*
X183281100Y-85515144D01*
X183419229Y-85487668D01*
X183589389Y-85417186D01*
X183742528Y-85314862D01*
X183872762Y-85184628D01*
X183975086Y-85031489D01*
X184045568Y-84861329D01*
X184069653Y-84740249D01*
X185175703Y-83634199D01*
X185204701Y-83610401D01*
X185247375Y-83558403D01*
X185299674Y-83494677D01*
X185370246Y-83362647D01*
X185383621Y-83318554D01*
X185413703Y-83219386D01*
X185424700Y-83107733D01*
X185424700Y-83107724D01*
X185428376Y-83070401D01*
X185424700Y-83033078D01*
X185424700Y-79118259D01*
X185483110Y-79135976D01*
X185713000Y-79014655D01*
X185713000Y-77821500D01*
X185693000Y-77821500D01*
X185693000Y-77567500D01*
X185713000Y-77567500D01*
X185713000Y-77547500D01*
X185967000Y-77547500D01*
X185967000Y-77567500D01*
G36*
X169672000Y-95125000D02*
G01*
X169692000Y-95125000D01*
X169692000Y-95379000D01*
X169672000Y-95379000D01*
X169672000Y-95399000D01*
X169418000Y-95399000D01*
X169418000Y-95379000D01*
X169398000Y-95379000D01*
X169398000Y-95125000D01*
X169418000Y-95125000D01*
X169418000Y-95105000D01*
X169672000Y-95105000D01*
X169672000Y-95125000D01*
G37*
X169672000Y-95125000D02*
X169692000Y-95125000D01*
X169692000Y-95379000D01*
X169672000Y-95379000D01*
X169672000Y-95399000D01*
X169418000Y-95399000D01*
X169418000Y-95379000D01*
X169398000Y-95379000D01*
X169398000Y-95125000D01*
X169418000Y-95125000D01*
X169418000Y-95105000D01*
X169672000Y-95105000D01*
X169672000Y-95125000D01*
G36*
X135540750Y-87740000D02*
G01*
X135555000Y-87743072D01*
X135679482Y-87730812D01*
X135799180Y-87694502D01*
X135809305Y-87689090D01*
X135819454Y-87722547D01*
X135890026Y-87854576D01*
X135984999Y-87970301D01*
X136100724Y-88065274D01*
X136232753Y-88135846D01*
X136376014Y-88179303D01*
X136487667Y-88190300D01*
X136525000Y-88193977D01*
X136555383Y-88190984D01*
X138208747Y-89844349D01*
X138232832Y-89965429D01*
X138303314Y-90135589D01*
X138405638Y-90288728D01*
X138535872Y-90418962D01*
X138689011Y-90521286D01*
X138859171Y-90591768D01*
X139039811Y-90627700D01*
X139223989Y-90627700D01*
X139404629Y-90591768D01*
X139574789Y-90521286D01*
X139716498Y-90426599D01*
X139768447Y-90478549D01*
X139792532Y-90599629D01*
X139863014Y-90769789D01*
X139965338Y-90922928D01*
X140095572Y-91053162D01*
X140248711Y-91155486D01*
X140418871Y-91225968D01*
X140599511Y-91261900D01*
X140783689Y-91261900D01*
X140964329Y-91225968D01*
X141134489Y-91155486D01*
X141287628Y-91053162D01*
X141417862Y-90922928D01*
X141520186Y-90769789D01*
X141590668Y-90599629D01*
X141626600Y-90418989D01*
X141626600Y-90234811D01*
X141590668Y-90054171D01*
X141520186Y-89884011D01*
X141417862Y-89730872D01*
X141287628Y-89600638D01*
X141134489Y-89498314D01*
X140964329Y-89427832D01*
X140843249Y-89403747D01*
X139629801Y-88190300D01*
X143274878Y-88190300D01*
X143312200Y-88193976D01*
X143349522Y-88190300D01*
X143349533Y-88190300D01*
X143461186Y-88179303D01*
X143604447Y-88135846D01*
X143736476Y-88065274D01*
X143852201Y-87970301D01*
X143876004Y-87941297D01*
X144030598Y-87786703D01*
X144059601Y-87762901D01*
X144075874Y-87743072D01*
X144445000Y-87743072D01*
X144569482Y-87730812D01*
X144689180Y-87694502D01*
X144780000Y-87645957D01*
X144870820Y-87694502D01*
X144990518Y-87730812D01*
X145115000Y-87743072D01*
X145715000Y-87743072D01*
X145839482Y-87730812D01*
X145959180Y-87694502D01*
X146050000Y-87645957D01*
X146140820Y-87694502D01*
X146260518Y-87730812D01*
X146385000Y-87743072D01*
X146985000Y-87743072D01*
X147109482Y-87730812D01*
X147229180Y-87694502D01*
X147239305Y-87689090D01*
X147249454Y-87722547D01*
X147320026Y-87854576D01*
X147414999Y-87970301D01*
X147530724Y-88065274D01*
X147662753Y-88135846D01*
X147806014Y-88179303D01*
X147917667Y-88190300D01*
X147955000Y-88193977D01*
X147992333Y-88190300D01*
X148256761Y-88190300D01*
X148232832Y-88248071D01*
X148196900Y-88428711D01*
X148196900Y-88612889D01*
X148232832Y-88793529D01*
X148303314Y-88963689D01*
X148405638Y-89116828D01*
X148535872Y-89247062D01*
X148619535Y-89302964D01*
X146915852Y-91006647D01*
X146794771Y-91030732D01*
X146624611Y-91101214D01*
X146471472Y-91203538D01*
X146341238Y-91333772D01*
X146238914Y-91486911D01*
X146168432Y-91657071D01*
X146132500Y-91837711D01*
X146132500Y-92021889D01*
X146168432Y-92202529D01*
X146238914Y-92372689D01*
X146341238Y-92525828D01*
X146471472Y-92656062D01*
X146624611Y-92758386D01*
X146651926Y-92769700D01*
X135633868Y-92769700D01*
X135389600Y-92525433D01*
X135389600Y-87588850D01*
X135540750Y-87740000D01*
G37*
X135540750Y-87740000D02*
X135555000Y-87743072D01*
X135679482Y-87730812D01*
X135799180Y-87694502D01*
X135809305Y-87689090D01*
X135819454Y-87722547D01*
X135890026Y-87854576D01*
X135984999Y-87970301D01*
X136100724Y-88065274D01*
X136232753Y-88135846D01*
X136376014Y-88179303D01*
X136487667Y-88190300D01*
X136525000Y-88193977D01*
X136555383Y-88190984D01*
X138208747Y-89844349D01*
X138232832Y-89965429D01*
X138303314Y-90135589D01*
X138405638Y-90288728D01*
X138535872Y-90418962D01*
X138689011Y-90521286D01*
X138859171Y-90591768D01*
X139039811Y-90627700D01*
X139223989Y-90627700D01*
X139404629Y-90591768D01*
X139574789Y-90521286D01*
X139716498Y-90426599D01*
X139768447Y-90478549D01*
X139792532Y-90599629D01*
X139863014Y-90769789D01*
X139965338Y-90922928D01*
X140095572Y-91053162D01*
X140248711Y-91155486D01*
X140418871Y-91225968D01*
X140599511Y-91261900D01*
X140783689Y-91261900D01*
X140964329Y-91225968D01*
X141134489Y-91155486D01*
X141287628Y-91053162D01*
X141417862Y-90922928D01*
X141520186Y-90769789D01*
X141590668Y-90599629D01*
X141626600Y-90418989D01*
X141626600Y-90234811D01*
X141590668Y-90054171D01*
X141520186Y-89884011D01*
X141417862Y-89730872D01*
X141287628Y-89600638D01*
X141134489Y-89498314D01*
X140964329Y-89427832D01*
X140843249Y-89403747D01*
X139629801Y-88190300D01*
X143274878Y-88190300D01*
X143312200Y-88193976D01*
X143349522Y-88190300D01*
X143349533Y-88190300D01*
X143461186Y-88179303D01*
X143604447Y-88135846D01*
X143736476Y-88065274D01*
X143852201Y-87970301D01*
X143876004Y-87941297D01*
X144030598Y-87786703D01*
X144059601Y-87762901D01*
X144075874Y-87743072D01*
X144445000Y-87743072D01*
X144569482Y-87730812D01*
X144689180Y-87694502D01*
X144780000Y-87645957D01*
X144870820Y-87694502D01*
X144990518Y-87730812D01*
X145115000Y-87743072D01*
X145715000Y-87743072D01*
X145839482Y-87730812D01*
X145959180Y-87694502D01*
X146050000Y-87645957D01*
X146140820Y-87694502D01*
X146260518Y-87730812D01*
X146385000Y-87743072D01*
X146985000Y-87743072D01*
X147109482Y-87730812D01*
X147229180Y-87694502D01*
X147239305Y-87689090D01*
X147249454Y-87722547D01*
X147320026Y-87854576D01*
X147414999Y-87970301D01*
X147530724Y-88065274D01*
X147662753Y-88135846D01*
X147806014Y-88179303D01*
X147917667Y-88190300D01*
X147955000Y-88193977D01*
X147992333Y-88190300D01*
X148256761Y-88190300D01*
X148232832Y-88248071D01*
X148196900Y-88428711D01*
X148196900Y-88612889D01*
X148232832Y-88793529D01*
X148303314Y-88963689D01*
X148405638Y-89116828D01*
X148535872Y-89247062D01*
X148619535Y-89302964D01*
X146915852Y-91006647D01*
X146794771Y-91030732D01*
X146624611Y-91101214D01*
X146471472Y-91203538D01*
X146341238Y-91333772D01*
X146238914Y-91486911D01*
X146168432Y-91657071D01*
X146132500Y-91837711D01*
X146132500Y-92021889D01*
X146168432Y-92202529D01*
X146238914Y-92372689D01*
X146341238Y-92525828D01*
X146471472Y-92656062D01*
X146624611Y-92758386D01*
X146651926Y-92769700D01*
X135633868Y-92769700D01*
X135389600Y-92525433D01*
X135389600Y-87588850D01*
X135540750Y-87740000D01*
G36*
X179990750Y-87462000D02*
G01*
X180005000Y-87465072D01*
X180129482Y-87452812D01*
X180249180Y-87416502D01*
X180340000Y-87367957D01*
X180430820Y-87416502D01*
X180550518Y-87452812D01*
X180675000Y-87465072D01*
X181275000Y-87465072D01*
X181310800Y-87461546D01*
X181310800Y-90001098D01*
X178569600Y-92742299D01*
X178569600Y-92566601D01*
X179571403Y-91564799D01*
X179600401Y-91541001D01*
X179695374Y-91425276D01*
X179765946Y-91293247D01*
X179809403Y-91149986D01*
X179820400Y-91038333D01*
X179820400Y-91038324D01*
X179824076Y-91001001D01*
X179820400Y-90963678D01*
X179820400Y-87462000D01*
X179832002Y-87462000D01*
X179832002Y-87303252D01*
X179990750Y-87462000D01*
G37*
X179990750Y-87462000D02*
X180005000Y-87465072D01*
X180129482Y-87452812D01*
X180249180Y-87416502D01*
X180340000Y-87367957D01*
X180430820Y-87416502D01*
X180550518Y-87452812D01*
X180675000Y-87465072D01*
X181275000Y-87465072D01*
X181310800Y-87461546D01*
X181310800Y-90001098D01*
X178569600Y-92742299D01*
X178569600Y-92566601D01*
X179571403Y-91564799D01*
X179600401Y-91541001D01*
X179695374Y-91425276D01*
X179765946Y-91293247D01*
X179809403Y-91149986D01*
X179820400Y-91038333D01*
X179820400Y-91038324D01*
X179824076Y-91001001D01*
X179820400Y-90963678D01*
X179820400Y-87462000D01*
X179832002Y-87462000D01*
X179832002Y-87303252D01*
X179990750Y-87462000D01*
G36*
X179832000Y-85725000D02*
G01*
X179852000Y-85725000D01*
X179852000Y-85979000D01*
X179832000Y-85979000D01*
X179832000Y-85999000D01*
X179820400Y-85999000D01*
X179820400Y-85705000D01*
X179832000Y-85705000D01*
X179832000Y-85725000D01*
G37*
X179832000Y-85725000D02*
X179852000Y-85725000D01*
X179852000Y-85979000D01*
X179832000Y-85979000D01*
X179832000Y-85999000D01*
X179820400Y-85999000D01*
X179820400Y-85705000D01*
X179832000Y-85705000D01*
X179832000Y-85725000D01*
G36*
X147867000Y-77567500D02*
G01*
X147887000Y-77567500D01*
X147887000Y-77821500D01*
X147867000Y-77821500D01*
X147867000Y-79014655D01*
X148096890Y-79135976D01*
X148244099Y-79091325D01*
X148506920Y-78966141D01*
X148740269Y-78792088D01*
X148935178Y-78575855D01*
X149004805Y-78458966D01*
X149126525Y-78641132D01*
X149333368Y-78847975D01*
X149526911Y-78977296D01*
X149530997Y-79018786D01*
X149574454Y-79162047D01*
X149645026Y-79294076D01*
X149739999Y-79409801D01*
X149761306Y-79427287D01*
X149740347Y-79532651D01*
X145231977Y-84041022D01*
X145122753Y-84074154D01*
X144990724Y-84144726D01*
X144905000Y-84215078D01*
X144905000Y-82661001D01*
X145287649Y-82278353D01*
X145408729Y-82254268D01*
X145578889Y-82183786D01*
X145732028Y-82081462D01*
X145862262Y-81951228D01*
X145964586Y-81798089D01*
X146035068Y-81627929D01*
X146071000Y-81447289D01*
X146071000Y-81263111D01*
X146035068Y-81082471D01*
X145964586Y-80912311D01*
X145862262Y-80759172D01*
X145732028Y-80628938D01*
X145578889Y-80526614D01*
X145408729Y-80456132D01*
X145228089Y-80420200D01*
X145043911Y-80420200D01*
X144863271Y-80456132D01*
X144693111Y-80526614D01*
X144539972Y-80628938D01*
X144409738Y-80759172D01*
X144307414Y-80912311D01*
X144279600Y-80979460D01*
X144279600Y-80518901D01*
X146424553Y-78373949D01*
X146544822Y-78575855D01*
X146739731Y-78792088D01*
X146973080Y-78966141D01*
X147235901Y-79091325D01*
X147383110Y-79135976D01*
X147613000Y-79014655D01*
X147613000Y-77821500D01*
X147593000Y-77821500D01*
X147593000Y-77567500D01*
X147613000Y-77567500D01*
X147613000Y-77547500D01*
X147867000Y-77547500D01*
X147867000Y-77567500D01*
G37*
X147867000Y-77567500D02*
X147887000Y-77567500D01*
X147887000Y-77821500D01*
X147867000Y-77821500D01*
X147867000Y-79014655D01*
X148096890Y-79135976D01*
X148244099Y-79091325D01*
X148506920Y-78966141D01*
X148740269Y-78792088D01*
X148935178Y-78575855D01*
X149004805Y-78458966D01*
X149126525Y-78641132D01*
X149333368Y-78847975D01*
X149526911Y-78977296D01*
X149530997Y-79018786D01*
X149574454Y-79162047D01*
X149645026Y-79294076D01*
X149739999Y-79409801D01*
X149761306Y-79427287D01*
X149740347Y-79532651D01*
X145231977Y-84041022D01*
X145122753Y-84074154D01*
X144990724Y-84144726D01*
X144905000Y-84215078D01*
X144905000Y-82661001D01*
X145287649Y-82278353D01*
X145408729Y-82254268D01*
X145578889Y-82183786D01*
X145732028Y-82081462D01*
X145862262Y-81951228D01*
X145964586Y-81798089D01*
X146035068Y-81627929D01*
X146071000Y-81447289D01*
X146071000Y-81263111D01*
X146035068Y-81082471D01*
X145964586Y-80912311D01*
X145862262Y-80759172D01*
X145732028Y-80628938D01*
X145578889Y-80526614D01*
X145408729Y-80456132D01*
X145228089Y-80420200D01*
X145043911Y-80420200D01*
X144863271Y-80456132D01*
X144693111Y-80526614D01*
X144539972Y-80628938D01*
X144409738Y-80759172D01*
X144307414Y-80912311D01*
X144279600Y-80979460D01*
X144279600Y-80518901D01*
X146424553Y-78373949D01*
X146544822Y-78575855D01*
X146739731Y-78792088D01*
X146973080Y-78966141D01*
X147235901Y-79091325D01*
X147383110Y-79135976D01*
X147613000Y-79014655D01*
X147613000Y-77821500D01*
X147593000Y-77821500D01*
X147593000Y-77567500D01*
X147613000Y-77567500D01*
X147613000Y-77547500D01*
X147867000Y-77547500D01*
X147867000Y-77567500D01*
G36*
X165647000Y-77567500D02*
G01*
X165667000Y-77567500D01*
X165667000Y-77821500D01*
X165647000Y-77821500D01*
X165647000Y-79014655D01*
X165876890Y-79135976D01*
X166024099Y-79091325D01*
X166091800Y-79059078D01*
X166091800Y-79914177D01*
X166088124Y-79951500D01*
X166091800Y-79988822D01*
X166091800Y-79988832D01*
X166102797Y-80100485D01*
X166134228Y-80204100D01*
X166146254Y-80243746D01*
X166216826Y-80375776D01*
X166252565Y-80419324D01*
X166311799Y-80491501D01*
X166340803Y-80515304D01*
X166400599Y-80575100D01*
X166132635Y-80575100D01*
X166029989Y-80506514D01*
X165859829Y-80436032D01*
X165679189Y-80400100D01*
X165495011Y-80400100D01*
X165314371Y-80436032D01*
X165144211Y-80506514D01*
X164991072Y-80608838D01*
X164915300Y-80684610D01*
X164915300Y-79043408D01*
X165015901Y-79091325D01*
X165163110Y-79135976D01*
X165393000Y-79014655D01*
X165393000Y-77821500D01*
X165373000Y-77821500D01*
X165373000Y-77567500D01*
X165393000Y-77567500D01*
X165393000Y-77547500D01*
X165647000Y-77547500D01*
X165647000Y-77567500D01*
G37*
X165647000Y-77567500D02*
X165667000Y-77567500D01*
X165667000Y-77821500D01*
X165647000Y-77821500D01*
X165647000Y-79014655D01*
X165876890Y-79135976D01*
X166024099Y-79091325D01*
X166091800Y-79059078D01*
X166091800Y-79914177D01*
X166088124Y-79951500D01*
X166091800Y-79988822D01*
X166091800Y-79988832D01*
X166102797Y-80100485D01*
X166134228Y-80204100D01*
X166146254Y-80243746D01*
X166216826Y-80375776D01*
X166252565Y-80419324D01*
X166311799Y-80491501D01*
X166340803Y-80515304D01*
X166400599Y-80575100D01*
X166132635Y-80575100D01*
X166029989Y-80506514D01*
X165859829Y-80436032D01*
X165679189Y-80400100D01*
X165495011Y-80400100D01*
X165314371Y-80436032D01*
X165144211Y-80506514D01*
X164991072Y-80608838D01*
X164915300Y-80684610D01*
X164915300Y-79043408D01*
X165015901Y-79091325D01*
X165163110Y-79135976D01*
X165393000Y-79014655D01*
X165393000Y-77821500D01*
X165373000Y-77821500D01*
X165373000Y-77567500D01*
X165393000Y-77567500D01*
X165393000Y-77547500D01*
X165647000Y-77547500D01*
X165647000Y-77567500D01*
G36*
X191047000Y-75027500D02*
G01*
X191067000Y-75027500D01*
X191067000Y-75281500D01*
X191047000Y-75281500D01*
X191047000Y-75301500D01*
X190793000Y-75301500D01*
X190793000Y-75281500D01*
X190773000Y-75281500D01*
X190773000Y-75027500D01*
X190793000Y-75027500D01*
X190793000Y-75007500D01*
X191047000Y-75007500D01*
X191047000Y-75027500D01*
G37*
X191047000Y-75027500D02*
X191067000Y-75027500D01*
X191067000Y-75281500D01*
X191047000Y-75281500D01*
X191047000Y-75301500D01*
X190793000Y-75301500D01*
X190793000Y-75281500D01*
X190773000Y-75281500D01*
X190773000Y-75027500D01*
X190793000Y-75027500D01*
X190793000Y-75007500D01*
X191047000Y-75007500D01*
X191047000Y-75027500D01*
G36*
X180887000Y-75027500D02*
G01*
X180907000Y-75027500D01*
X180907000Y-75281500D01*
X180887000Y-75281500D01*
X180887000Y-75301500D01*
X180633000Y-75301500D01*
X180633000Y-75281500D01*
X180613000Y-75281500D01*
X180613000Y-75027500D01*
X180633000Y-75027500D01*
X180633000Y-75007500D01*
X180887000Y-75007500D01*
X180887000Y-75027500D01*
G37*
X180887000Y-75027500D02*
X180907000Y-75027500D01*
X180907000Y-75281500D01*
X180887000Y-75281500D01*
X180887000Y-75301500D01*
X180633000Y-75301500D01*
X180633000Y-75281500D01*
X180613000Y-75281500D01*
X180613000Y-75027500D01*
X180633000Y-75027500D01*
X180633000Y-75007500D01*
X180887000Y-75007500D01*
X180887000Y-75027500D01*
G36*
X173267000Y-75027500D02*
G01*
X173287000Y-75027500D01*
X173287000Y-75281500D01*
X173267000Y-75281500D01*
X173267000Y-75301500D01*
X173013000Y-75301500D01*
X173013000Y-75281500D01*
X172993000Y-75281500D01*
X172993000Y-75027500D01*
X173013000Y-75027500D01*
X173013000Y-75007500D01*
X173267000Y-75007500D01*
X173267000Y-75027500D01*
G37*
X173267000Y-75027500D02*
X173287000Y-75027500D01*
X173287000Y-75281500D01*
X173267000Y-75281500D01*
X173267000Y-75301500D01*
X173013000Y-75301500D01*
X173013000Y-75281500D01*
X172993000Y-75281500D01*
X172993000Y-75027500D01*
X173013000Y-75027500D01*
X173013000Y-75007500D01*
X173267000Y-75007500D01*
X173267000Y-75027500D01*
G36*
X160567000Y-75027500D02*
G01*
X160587000Y-75027500D01*
X160587000Y-75281500D01*
X160567000Y-75281500D01*
X160567000Y-75301500D01*
X160313000Y-75301500D01*
X160313000Y-75281500D01*
X160293000Y-75281500D01*
X160293000Y-75027500D01*
X160313000Y-75027500D01*
X160313000Y-75007500D01*
X160567000Y-75007500D01*
X160567000Y-75027500D01*
G37*
X160567000Y-75027500D02*
X160587000Y-75027500D01*
X160587000Y-75281500D01*
X160567000Y-75281500D01*
X160567000Y-75301500D01*
X160313000Y-75301500D01*
X160313000Y-75281500D01*
X160293000Y-75281500D01*
X160293000Y-75027500D01*
X160313000Y-75027500D01*
X160313000Y-75007500D01*
X160567000Y-75007500D01*
X160567000Y-75027500D01*
G36*
X155274701Y-73015568D02*
G01*
X155271024Y-73052900D01*
X155274701Y-73090233D01*
X155285698Y-73201886D01*
X155289835Y-73215523D01*
X155329154Y-73345146D01*
X155399726Y-73477176D01*
X155424694Y-73507599D01*
X155494700Y-73592901D01*
X155523698Y-73616699D01*
X155653484Y-73746485D01*
X155487000Y-73834345D01*
X155487000Y-75027500D01*
X155507000Y-75027500D01*
X155507000Y-75281500D01*
X155487000Y-75281500D01*
X155487000Y-75301500D01*
X155233000Y-75301500D01*
X155233000Y-75281500D01*
X155213000Y-75281500D01*
X155213000Y-75027500D01*
X155233000Y-75027500D01*
X155233000Y-73834345D01*
X155003110Y-73713024D01*
X154855901Y-73757675D01*
X154593080Y-73882859D01*
X154359731Y-74056912D01*
X154164822Y-74273145D01*
X154095195Y-74390034D01*
X153973475Y-74207868D01*
X153819804Y-74054197D01*
X155274701Y-72599302D01*
X155274701Y-73015568D01*
G37*
X155274701Y-73015568D02*
X155271024Y-73052900D01*
X155274701Y-73090233D01*
X155285698Y-73201886D01*
X155289835Y-73215523D01*
X155329154Y-73345146D01*
X155399726Y-73477176D01*
X155424694Y-73507599D01*
X155494700Y-73592901D01*
X155523698Y-73616699D01*
X155653484Y-73746485D01*
X155487000Y-73834345D01*
X155487000Y-75027500D01*
X155507000Y-75027500D01*
X155507000Y-75281500D01*
X155487000Y-75281500D01*
X155487000Y-75301500D01*
X155233000Y-75301500D01*
X155233000Y-75281500D01*
X155213000Y-75281500D01*
X155213000Y-75027500D01*
X155233000Y-75027500D01*
X155233000Y-73834345D01*
X155003110Y-73713024D01*
X154855901Y-73757675D01*
X154593080Y-73882859D01*
X154359731Y-74056912D01*
X154164822Y-74273145D01*
X154095195Y-74390034D01*
X153973475Y-74207868D01*
X153819804Y-74054197D01*
X155274701Y-72599302D01*
X155274701Y-73015568D01*
M02*
