G04 #@! TF.FileFunction,Legend,Bot*
%FSLAX46Y46*%
G04 Gerber Fmt 4.6, Leading zero omitted, Abs format (unit mm)*
G04 Created by KiCad (PCBNEW 4.0.7) date 03/28/18 23:50:47*
%MOMM*%
%LPD*%
G01*
G04 APERTURE LIST*
%ADD10C,0.100000*%
%ADD11C,0.250000*%
%ADD12C,0.300000*%
%ADD13C,0.200000*%
%ADD14C,0.120000*%
%ADD15C,0.150000*%
G04 APERTURE END LIST*
D10*
D11*
X126366638Y-105043028D02*
X126319019Y-104900171D01*
X126319019Y-104662075D01*
X126366638Y-104566837D01*
X126414257Y-104519218D01*
X126509495Y-104471599D01*
X126604733Y-104471599D01*
X126699971Y-104519218D01*
X126747590Y-104566837D01*
X126795210Y-104662075D01*
X126842829Y-104852552D01*
X126890448Y-104947790D01*
X126938067Y-104995409D01*
X127033305Y-105043028D01*
X127128543Y-105043028D01*
X127223781Y-104995409D01*
X127271400Y-104947790D01*
X127319019Y-104852552D01*
X127319019Y-104614456D01*
X127271400Y-104471599D01*
X126319019Y-104043028D02*
X127319019Y-104043028D01*
X126319019Y-103471599D01*
X127319019Y-103471599D01*
X126319019Y-102995409D02*
X127319019Y-102995409D01*
X127319019Y-102757314D01*
X127271400Y-102614456D01*
X127176162Y-102519218D01*
X127080924Y-102471599D01*
X126890448Y-102423980D01*
X126747590Y-102423980D01*
X126557114Y-102471599D01*
X126461876Y-102519218D01*
X126366638Y-102614456D01*
X126319019Y-102757314D01*
X126319019Y-102995409D01*
X126319019Y-101995409D02*
X127319019Y-101995409D01*
X126319019Y-101519219D02*
X127319019Y-101519219D01*
X126319019Y-100947790D01*
X127319019Y-100947790D01*
D12*
X122069914Y-83468295D02*
X122812771Y-83468295D01*
X122441342Y-83468295D02*
X122441342Y-82168295D01*
X122565152Y-82354010D01*
X122688961Y-82477819D01*
X122812771Y-82539724D01*
X121265152Y-82168295D02*
X121141343Y-82168295D01*
X121017533Y-82230200D01*
X120955628Y-82292105D01*
X120893724Y-82415914D01*
X120831819Y-82663533D01*
X120831819Y-82973057D01*
X120893724Y-83220676D01*
X120955628Y-83344486D01*
X121017533Y-83406390D01*
X121141343Y-83468295D01*
X121265152Y-83468295D01*
X121388962Y-83406390D01*
X121450866Y-83344486D01*
X121512771Y-83220676D01*
X121574676Y-82973057D01*
X121574676Y-82663533D01*
X121512771Y-82415914D01*
X121450866Y-82292105D01*
X121388962Y-82230200D01*
X121265152Y-82168295D01*
X119717533Y-82601629D02*
X119717533Y-83468295D01*
X120274676Y-82601629D02*
X120274676Y-83282581D01*
X120212771Y-83406390D01*
X120088962Y-83468295D01*
X119903248Y-83468295D01*
X119779438Y-83406390D01*
X119717533Y-83344486D01*
X124071666Y-79429695D02*
X124814523Y-79429695D01*
X124443094Y-79429695D02*
X124443094Y-78129695D01*
X124566904Y-78315410D01*
X124690713Y-78439219D01*
X124814523Y-78501124D01*
X122895476Y-78129695D02*
X123514523Y-78129695D01*
X123576428Y-78748743D01*
X123514523Y-78686838D01*
X123390714Y-78624933D01*
X123081190Y-78624933D01*
X122957380Y-78686838D01*
X122895476Y-78748743D01*
X122833571Y-78872552D01*
X122833571Y-79182076D01*
X122895476Y-79305886D01*
X122957380Y-79367790D01*
X123081190Y-79429695D01*
X123390714Y-79429695D01*
X123514523Y-79367790D01*
X123576428Y-79305886D01*
X122028809Y-78129695D02*
X121905000Y-78129695D01*
X121781190Y-78191600D01*
X121719285Y-78253505D01*
X121657381Y-78377314D01*
X121595476Y-78624933D01*
X121595476Y-78934457D01*
X121657381Y-79182076D01*
X121719285Y-79305886D01*
X121781190Y-79367790D01*
X121905000Y-79429695D01*
X122028809Y-79429695D01*
X122152619Y-79367790D01*
X122214523Y-79305886D01*
X122276428Y-79182076D01*
X122338333Y-78934457D01*
X122338333Y-78624933D01*
X122276428Y-78377314D01*
X122214523Y-78253505D01*
X122152619Y-78191600D01*
X122028809Y-78129695D01*
X120295476Y-79429695D02*
X120728809Y-78810648D01*
X121038333Y-79429695D02*
X121038333Y-78129695D01*
X120543095Y-78129695D01*
X120419286Y-78191600D01*
X120357381Y-78253505D01*
X120295476Y-78377314D01*
X120295476Y-78563029D01*
X120357381Y-78686838D01*
X120419286Y-78748743D01*
X120543095Y-78810648D01*
X121038333Y-78810648D01*
X124576476Y-76123095D02*
X123771714Y-76123095D01*
X124205047Y-76618333D01*
X124019333Y-76618333D01*
X123895523Y-76680238D01*
X123833619Y-76742143D01*
X123771714Y-76865952D01*
X123771714Y-77175476D01*
X123833619Y-77299286D01*
X123895523Y-77361190D01*
X124019333Y-77423095D01*
X124390761Y-77423095D01*
X124514571Y-77361190D01*
X124576476Y-77299286D01*
X123338381Y-76123095D02*
X122533619Y-76123095D01*
X122966952Y-76618333D01*
X122781238Y-76618333D01*
X122657428Y-76680238D01*
X122595524Y-76742143D01*
X122533619Y-76865952D01*
X122533619Y-77175476D01*
X122595524Y-77299286D01*
X122657428Y-77361190D01*
X122781238Y-77423095D01*
X123152666Y-77423095D01*
X123276476Y-77361190D01*
X123338381Y-77299286D01*
X121976476Y-76556429D02*
X121976476Y-77423095D01*
X121976476Y-76680238D02*
X121914571Y-76618333D01*
X121790762Y-76556429D01*
X121605048Y-76556429D01*
X121481238Y-76618333D01*
X121419333Y-76742143D01*
X121419333Y-77423095D01*
X124662123Y-73986305D02*
X124600218Y-73924400D01*
X124476409Y-73862495D01*
X124166885Y-73862495D01*
X124043075Y-73924400D01*
X123981171Y-73986305D01*
X123919266Y-74110114D01*
X123919266Y-74233924D01*
X123981171Y-74419638D01*
X124724028Y-75162495D01*
X123919266Y-75162495D01*
X123485933Y-73862495D02*
X122619266Y-73862495D01*
X123176409Y-75162495D01*
X121876409Y-73862495D02*
X121752600Y-73862495D01*
X121628790Y-73924400D01*
X121566885Y-73986305D01*
X121504981Y-74110114D01*
X121443076Y-74357733D01*
X121443076Y-74667257D01*
X121504981Y-74914876D01*
X121566885Y-75038686D01*
X121628790Y-75100590D01*
X121752600Y-75162495D01*
X121876409Y-75162495D01*
X122000219Y-75100590D01*
X122062123Y-75038686D01*
X122124028Y-74914876D01*
X122185933Y-74667257D01*
X122185933Y-74357733D01*
X122124028Y-74110114D01*
X122062123Y-73986305D01*
X122000219Y-73924400D01*
X121876409Y-73862495D01*
X120143076Y-75162495D02*
X120576409Y-74543448D01*
X120885933Y-75162495D02*
X120885933Y-73862495D01*
X120390695Y-73862495D01*
X120266886Y-73924400D01*
X120204981Y-73986305D01*
X120143076Y-74110114D01*
X120143076Y-74295829D01*
X120204981Y-74419638D01*
X120266886Y-74481543D01*
X120390695Y-74543448D01*
X120885933Y-74543448D01*
D13*
X175407609Y-89154000D02*
G75*
G03X175407609Y-89154000I-401609J0D01*
G01*
D12*
X172787571Y-88785430D02*
X172787571Y-89785430D01*
X174287571Y-89142573D01*
X173287571Y-90999715D02*
X174287571Y-90999715D01*
X172716143Y-90642572D02*
X173787571Y-90285429D01*
X173787571Y-91214001D01*
X174287571Y-91785429D02*
X172787571Y-91785429D01*
X173501857Y-91785429D02*
X173501857Y-92642572D01*
X174287571Y-92642572D02*
X172787571Y-92642572D01*
X174144714Y-94214001D02*
X174216143Y-94142572D01*
X174287571Y-93928286D01*
X174287571Y-93785429D01*
X174216143Y-93571144D01*
X174073286Y-93428286D01*
X173930429Y-93356858D01*
X173644714Y-93285429D01*
X173430429Y-93285429D01*
X173144714Y-93356858D01*
X173001857Y-93428286D01*
X172859000Y-93571144D01*
X172787571Y-93785429D01*
X172787571Y-93928286D01*
X172859000Y-94142572D01*
X172930429Y-94214001D01*
X172787571Y-95142572D02*
X172787571Y-95285429D01*
X172859000Y-95428286D01*
X172930429Y-95499715D01*
X173073286Y-95571144D01*
X173359000Y-95642572D01*
X173716143Y-95642572D01*
X174001857Y-95571144D01*
X174144714Y-95499715D01*
X174216143Y-95428286D01*
X174287571Y-95285429D01*
X174287571Y-95142572D01*
X174216143Y-94999715D01*
X174144714Y-94928286D01*
X174001857Y-94856858D01*
X173716143Y-94785429D01*
X173359000Y-94785429D01*
X173073286Y-94856858D01*
X172930429Y-94928286D01*
X172859000Y-94999715D01*
X172787571Y-95142572D01*
X172787571Y-96999715D02*
X172787571Y-96285429D01*
X173501857Y-96214000D01*
X173430429Y-96285429D01*
X173359000Y-96428286D01*
X173359000Y-96785429D01*
X173430429Y-96928286D01*
X173501857Y-96999715D01*
X173644714Y-97071143D01*
X174001857Y-97071143D01*
X174144714Y-96999715D01*
X174216143Y-96928286D01*
X174287571Y-96785429D01*
X174287571Y-96428286D01*
X174216143Y-96285429D01*
X174144714Y-96214000D01*
D13*
X135783609Y-90170000D02*
G75*
G03X135783609Y-90170000I-401609J0D01*
G01*
D12*
X136204144Y-93531429D02*
X137204144Y-93531429D01*
X136561287Y-92031429D01*
X138418429Y-93031429D02*
X138418429Y-92031429D01*
X138061286Y-93602857D02*
X137704143Y-92531429D01*
X138632715Y-92531429D01*
X139204143Y-92031429D02*
X139204143Y-93531429D01*
X139204143Y-92817143D02*
X140061286Y-92817143D01*
X140061286Y-92031429D02*
X140061286Y-93531429D01*
X141632715Y-92174286D02*
X141561286Y-92102857D01*
X141347000Y-92031429D01*
X141204143Y-92031429D01*
X140989858Y-92102857D01*
X140847000Y-92245714D01*
X140775572Y-92388571D01*
X140704143Y-92674286D01*
X140704143Y-92888571D01*
X140775572Y-93174286D01*
X140847000Y-93317143D01*
X140989858Y-93460000D01*
X141204143Y-93531429D01*
X141347000Y-93531429D01*
X141561286Y-93460000D01*
X141632715Y-93388571D01*
X142204143Y-93388571D02*
X142275572Y-93460000D01*
X142418429Y-93531429D01*
X142775572Y-93531429D01*
X142918429Y-93460000D01*
X142989858Y-93388571D01*
X143061286Y-93245714D01*
X143061286Y-93102857D01*
X142989858Y-92888571D01*
X142132715Y-92031429D01*
X143061286Y-92031429D01*
X144347000Y-93031429D02*
X144347000Y-92031429D01*
X143989857Y-93602857D02*
X143632714Y-92531429D01*
X144561286Y-92531429D01*
X145847000Y-93531429D02*
X145132714Y-93531429D01*
X145061285Y-92817143D01*
X145132714Y-92888571D01*
X145275571Y-92960000D01*
X145632714Y-92960000D01*
X145775571Y-92888571D01*
X145847000Y-92817143D01*
X145918428Y-92674286D01*
X145918428Y-92317143D01*
X145847000Y-92174286D01*
X145775571Y-92102857D01*
X145632714Y-92031429D01*
X145275571Y-92031429D01*
X145132714Y-92102857D01*
X145061285Y-92174286D01*
D13*
X152420609Y-90043000D02*
G75*
G03X152420609Y-90043000I-401609J0D01*
G01*
D12*
X152714144Y-93658429D02*
X153714144Y-93658429D01*
X153071287Y-92158429D01*
X154928429Y-93158429D02*
X154928429Y-92158429D01*
X154571286Y-93729857D02*
X154214143Y-92658429D01*
X155142715Y-92658429D01*
X155714143Y-92158429D02*
X155714143Y-93658429D01*
X155714143Y-92944143D02*
X156571286Y-92944143D01*
X156571286Y-92158429D02*
X156571286Y-93658429D01*
X158142715Y-92301286D02*
X158071286Y-92229857D01*
X157857000Y-92158429D01*
X157714143Y-92158429D01*
X157499858Y-92229857D01*
X157357000Y-92372714D01*
X157285572Y-92515571D01*
X157214143Y-92801286D01*
X157214143Y-93015571D01*
X157285572Y-93301286D01*
X157357000Y-93444143D01*
X157499858Y-93587000D01*
X157714143Y-93658429D01*
X157857000Y-93658429D01*
X158071286Y-93587000D01*
X158142715Y-93515571D01*
X158714143Y-93515571D02*
X158785572Y-93587000D01*
X158928429Y-93658429D01*
X159285572Y-93658429D01*
X159428429Y-93587000D01*
X159499858Y-93515571D01*
X159571286Y-93372714D01*
X159571286Y-93229857D01*
X159499858Y-93015571D01*
X158642715Y-92158429D01*
X159571286Y-92158429D01*
X160857000Y-93158429D02*
X160857000Y-92158429D01*
X160499857Y-93729857D02*
X160142714Y-92658429D01*
X161071286Y-92658429D01*
X162357000Y-93658429D02*
X161642714Y-93658429D01*
X161571285Y-92944143D01*
X161642714Y-93015571D01*
X161785571Y-93087000D01*
X162142714Y-93087000D01*
X162285571Y-93015571D01*
X162357000Y-92944143D01*
X162428428Y-92801286D01*
X162428428Y-92444143D01*
X162357000Y-92301286D01*
X162285571Y-92229857D01*
X162142714Y-92158429D01*
X161785571Y-92158429D01*
X161642714Y-92229857D01*
X161571285Y-92301286D01*
D13*
X167640000Y-104394000D02*
X163576000Y-104394000D01*
X167640000Y-106172000D02*
X167640000Y-104394000D01*
X149860000Y-104394000D02*
X155448000Y-104394000D01*
X149860000Y-105918000D02*
X149860000Y-104394000D01*
X147320000Y-104394000D02*
X145796000Y-104394000D01*
X147320000Y-105918000D02*
X147320000Y-104394000D01*
X139700000Y-104394000D02*
X141478000Y-104394000D01*
X139700000Y-105918000D02*
X139700000Y-104394000D01*
D11*
X162654857Y-104814667D02*
X162178666Y-104814667D01*
X162750095Y-105100381D02*
X162416762Y-104100381D01*
X162083428Y-105100381D01*
X161750095Y-105100381D02*
X161750095Y-104100381D01*
X161512000Y-104100381D01*
X161369142Y-104148000D01*
X161273904Y-104243238D01*
X161226285Y-104338476D01*
X161178666Y-104528952D01*
X161178666Y-104671810D01*
X161226285Y-104862286D01*
X161273904Y-104957524D01*
X161369142Y-105052762D01*
X161512000Y-105100381D01*
X161750095Y-105100381D01*
X160750095Y-105100381D02*
X160750095Y-104100381D01*
X160512000Y-104100381D01*
X160369142Y-104148000D01*
X160273904Y-104243238D01*
X160226285Y-104338476D01*
X160178666Y-104528952D01*
X160178666Y-104671810D01*
X160226285Y-104862286D01*
X160273904Y-104957524D01*
X160369142Y-105052762D01*
X160512000Y-105100381D01*
X160750095Y-105100381D01*
X159178666Y-105100381D02*
X159512000Y-104624190D01*
X159750095Y-105100381D02*
X159750095Y-104100381D01*
X159369142Y-104100381D01*
X159273904Y-104148000D01*
X159226285Y-104195619D01*
X159178666Y-104290857D01*
X159178666Y-104433714D01*
X159226285Y-104528952D01*
X159273904Y-104576571D01*
X159369142Y-104624190D01*
X159750095Y-104624190D01*
X158750095Y-104576571D02*
X158416761Y-104576571D01*
X158273904Y-105100381D02*
X158750095Y-105100381D01*
X158750095Y-104100381D01*
X158273904Y-104100381D01*
X157892952Y-105052762D02*
X157750095Y-105100381D01*
X157511999Y-105100381D01*
X157416761Y-105052762D01*
X157369142Y-105005143D01*
X157321523Y-104909905D01*
X157321523Y-104814667D01*
X157369142Y-104719429D01*
X157416761Y-104671810D01*
X157511999Y-104624190D01*
X157702476Y-104576571D01*
X157797714Y-104528952D01*
X157845333Y-104481333D01*
X157892952Y-104386095D01*
X157892952Y-104290857D01*
X157845333Y-104195619D01*
X157797714Y-104148000D01*
X157702476Y-104100381D01*
X157464380Y-104100381D01*
X157321523Y-104148000D01*
X156940571Y-105052762D02*
X156797714Y-105100381D01*
X156559618Y-105100381D01*
X156464380Y-105052762D01*
X156416761Y-105005143D01*
X156369142Y-104909905D01*
X156369142Y-104814667D01*
X156416761Y-104719429D01*
X156464380Y-104671810D01*
X156559618Y-104624190D01*
X156750095Y-104576571D01*
X156845333Y-104528952D01*
X156892952Y-104481333D01*
X156940571Y-104386095D01*
X156940571Y-104290857D01*
X156892952Y-104195619D01*
X156845333Y-104148000D01*
X156750095Y-104100381D01*
X156511999Y-104100381D01*
X156369142Y-104148000D01*
X145264000Y-104846381D02*
X145264000Y-103846381D01*
X145025905Y-103846381D01*
X144883047Y-103894000D01*
X144787809Y-103989238D01*
X144740190Y-104084476D01*
X144692571Y-104274952D01*
X144692571Y-104417810D01*
X144740190Y-104608286D01*
X144787809Y-104703524D01*
X144883047Y-104798762D01*
X145025905Y-104846381D01*
X145264000Y-104846381D01*
X144311619Y-104560667D02*
X143835428Y-104560667D01*
X144406857Y-104846381D02*
X144073524Y-103846381D01*
X143740190Y-104846381D01*
X143549714Y-103846381D02*
X142978285Y-103846381D01*
X143264000Y-104846381D02*
X143264000Y-103846381D01*
X142692571Y-104560667D02*
X142216380Y-104560667D01*
X142787809Y-104846381D02*
X142454476Y-103846381D01*
X142121142Y-104846381D01*
D12*
X163368856Y-62567429D02*
X163297427Y-62496000D01*
X163154570Y-62424571D01*
X162797427Y-62424571D01*
X162654570Y-62496000D01*
X162583141Y-62567429D01*
X162511713Y-62710286D01*
X162511713Y-62853143D01*
X162583141Y-63067429D01*
X163440284Y-63924571D01*
X162511713Y-63924571D01*
X161583142Y-62424571D02*
X161440285Y-62424571D01*
X161297428Y-62496000D01*
X161225999Y-62567429D01*
X161154570Y-62710286D01*
X161083142Y-62996000D01*
X161083142Y-63353143D01*
X161154570Y-63638857D01*
X161225999Y-63781714D01*
X161297428Y-63853143D01*
X161440285Y-63924571D01*
X161583142Y-63924571D01*
X161725999Y-63853143D01*
X161797428Y-63781714D01*
X161868856Y-63638857D01*
X161940285Y-63353143D01*
X161940285Y-62996000D01*
X161868856Y-62710286D01*
X161797428Y-62567429D01*
X161725999Y-62496000D01*
X161583142Y-62424571D01*
X159654571Y-63924571D02*
X160511714Y-63924571D01*
X160083142Y-63924571D02*
X160083142Y-62424571D01*
X160225999Y-62638857D01*
X160368857Y-62781714D01*
X160511714Y-62853143D01*
X158797428Y-63067429D02*
X158940286Y-62996000D01*
X159011714Y-62924571D01*
X159083143Y-62781714D01*
X159083143Y-62710286D01*
X159011714Y-62567429D01*
X158940286Y-62496000D01*
X158797428Y-62424571D01*
X158511714Y-62424571D01*
X158368857Y-62496000D01*
X158297428Y-62567429D01*
X158226000Y-62710286D01*
X158226000Y-62781714D01*
X158297428Y-62924571D01*
X158368857Y-62996000D01*
X158511714Y-63067429D01*
X158797428Y-63067429D01*
X158940286Y-63138857D01*
X159011714Y-63210286D01*
X159083143Y-63353143D01*
X159083143Y-63638857D01*
X159011714Y-63781714D01*
X158940286Y-63853143D01*
X158797428Y-63924571D01*
X158511714Y-63924571D01*
X158368857Y-63853143D01*
X158297428Y-63781714D01*
X158226000Y-63638857D01*
X158226000Y-63353143D01*
X158297428Y-63210286D01*
X158368857Y-63138857D01*
X158511714Y-63067429D01*
X157583143Y-63781714D02*
X157511715Y-63853143D01*
X157583143Y-63924571D01*
X157654572Y-63853143D01*
X157583143Y-63781714D01*
X157583143Y-63924571D01*
X156583143Y-62424571D02*
X156440286Y-62424571D01*
X156297429Y-62496000D01*
X156226000Y-62567429D01*
X156154571Y-62710286D01*
X156083143Y-62996000D01*
X156083143Y-63353143D01*
X156154571Y-63638857D01*
X156226000Y-63781714D01*
X156297429Y-63853143D01*
X156440286Y-63924571D01*
X156583143Y-63924571D01*
X156726000Y-63853143D01*
X156797429Y-63781714D01*
X156868857Y-63638857D01*
X156940286Y-63353143D01*
X156940286Y-62996000D01*
X156868857Y-62710286D01*
X156797429Y-62567429D01*
X156726000Y-62496000D01*
X156583143Y-62424571D01*
X155583143Y-62424571D02*
X154654572Y-62424571D01*
X155154572Y-62996000D01*
X154940286Y-62996000D01*
X154797429Y-63067429D01*
X154726000Y-63138857D01*
X154654572Y-63281714D01*
X154654572Y-63638857D01*
X154726000Y-63781714D01*
X154797429Y-63853143D01*
X154940286Y-63924571D01*
X155368858Y-63924571D01*
X155511715Y-63853143D01*
X155583143Y-63781714D01*
X154011715Y-63781714D02*
X153940287Y-63853143D01*
X154011715Y-63924571D01*
X154083144Y-63853143D01*
X154011715Y-63781714D01*
X154011715Y-63924571D01*
X152511715Y-63924571D02*
X153368858Y-63924571D01*
X152940286Y-63924571D02*
X152940286Y-62424571D01*
X153083143Y-62638857D01*
X153226001Y-62781714D01*
X153368858Y-62853143D01*
X151154572Y-62424571D02*
X151868858Y-62424571D01*
X151940287Y-63138857D01*
X151868858Y-63067429D01*
X151726001Y-62996000D01*
X151368858Y-62996000D01*
X151226001Y-63067429D01*
X151154572Y-63138857D01*
X151083144Y-63281714D01*
X151083144Y-63638857D01*
X151154572Y-63781714D01*
X151226001Y-63853143D01*
X151368858Y-63924571D01*
X151726001Y-63924571D01*
X151868858Y-63853143D01*
X151940287Y-63781714D01*
D11*
X131000476Y-103846381D02*
X131476667Y-103846381D01*
X131524286Y-104322571D01*
X131476667Y-104274952D01*
X131381429Y-104227333D01*
X131143333Y-104227333D01*
X131048095Y-104274952D01*
X131000476Y-104322571D01*
X130952857Y-104417810D01*
X130952857Y-104655905D01*
X131000476Y-104751143D01*
X131048095Y-104798762D01*
X131143333Y-104846381D01*
X131381429Y-104846381D01*
X131476667Y-104798762D01*
X131524286Y-104751143D01*
X130667143Y-103846381D02*
X130333810Y-104846381D01*
X130000476Y-103846381D01*
X136651904Y-103894000D02*
X136747142Y-103846381D01*
X136889999Y-103846381D01*
X137032857Y-103894000D01*
X137128095Y-103989238D01*
X137175714Y-104084476D01*
X137223333Y-104274952D01*
X137223333Y-104417810D01*
X137175714Y-104608286D01*
X137128095Y-104703524D01*
X137032857Y-104798762D01*
X136889999Y-104846381D01*
X136794761Y-104846381D01*
X136651904Y-104798762D01*
X136604285Y-104751143D01*
X136604285Y-104417810D01*
X136794761Y-104417810D01*
X136175714Y-104846381D02*
X136175714Y-103846381D01*
X135604285Y-104846381D01*
X135604285Y-103846381D01*
X135128095Y-104846381D02*
X135128095Y-103846381D01*
X134890000Y-103846381D01*
X134747142Y-103894000D01*
X134651904Y-103989238D01*
X134604285Y-104084476D01*
X134556666Y-104274952D01*
X134556666Y-104417810D01*
X134604285Y-104608286D01*
X134651904Y-104703524D01*
X134747142Y-104798762D01*
X134890000Y-104846381D01*
X135128095Y-104846381D01*
X173267619Y-105068571D02*
X172267619Y-104830476D01*
X172981905Y-104639999D01*
X172267619Y-104449523D01*
X173267619Y-104211428D01*
X172267619Y-103259047D02*
X172743810Y-103592381D01*
X172267619Y-103830476D02*
X173267619Y-103830476D01*
X173267619Y-103449523D01*
X173220000Y-103354285D01*
X173172381Y-103306666D01*
X173077143Y-103259047D01*
X172934286Y-103259047D01*
X172839048Y-103306666D01*
X172791429Y-103354285D01*
X172743810Y-103449523D01*
X172743810Y-103830476D01*
X174807619Y-104917809D02*
X175807619Y-104917809D01*
X174712381Y-103774952D02*
X174760000Y-103870190D01*
X174855238Y-103965428D01*
X174998095Y-104108285D01*
X175045714Y-104203524D01*
X175045714Y-104298762D01*
X174807619Y-104251143D02*
X174855238Y-104346381D01*
X174950476Y-104441619D01*
X175140952Y-104489238D01*
X175474286Y-104489238D01*
X175664762Y-104441619D01*
X175760000Y-104346381D01*
X175807619Y-104251143D01*
X175807619Y-104060666D01*
X175760000Y-103965428D01*
X175664762Y-103870190D01*
X175474286Y-103822571D01*
X175140952Y-103822571D01*
X174950476Y-103870190D01*
X174855238Y-103965428D01*
X174807619Y-104060666D01*
X174807619Y-104251143D01*
X177347619Y-104949524D02*
X178347619Y-104949524D01*
X177633333Y-104616190D01*
X178347619Y-104282857D01*
X177347619Y-104282857D01*
X177347619Y-103282857D02*
X177347619Y-103854286D01*
X177347619Y-103568572D02*
X178347619Y-103568572D01*
X178204762Y-103663810D01*
X178109524Y-103759048D01*
X178061905Y-103854286D01*
X180887619Y-105362190D02*
X179887619Y-105124095D01*
X180601905Y-104933618D01*
X179887619Y-104743142D01*
X180887619Y-104505047D01*
X180173333Y-104171714D02*
X180173333Y-103695523D01*
X179887619Y-104266952D02*
X180887619Y-103933619D01*
X179887619Y-103600285D01*
X179887619Y-103266952D02*
X180887619Y-103266952D01*
X180887619Y-102933619D02*
X180887619Y-102362190D01*
X179887619Y-102647905D02*
X180887619Y-102647905D01*
X169981619Y-104687619D02*
X170457810Y-105020953D01*
X169981619Y-105259048D02*
X170981619Y-105259048D01*
X170981619Y-104878095D01*
X170934000Y-104782857D01*
X170886381Y-104735238D01*
X170791143Y-104687619D01*
X170648286Y-104687619D01*
X170553048Y-104735238D01*
X170505429Y-104782857D01*
X170457810Y-104878095D01*
X170457810Y-105259048D01*
X170029238Y-104306667D02*
X169981619Y-104163810D01*
X169981619Y-103925714D01*
X170029238Y-103830476D01*
X170076857Y-103782857D01*
X170172095Y-103735238D01*
X170267333Y-103735238D01*
X170362571Y-103782857D01*
X170410190Y-103830476D01*
X170457810Y-103925714D01*
X170505429Y-104116191D01*
X170553048Y-104211429D01*
X170600667Y-104259048D01*
X170695905Y-104306667D01*
X170791143Y-104306667D01*
X170886381Y-104259048D01*
X170934000Y-104211429D01*
X170981619Y-104116191D01*
X170981619Y-103878095D01*
X170934000Y-103735238D01*
X170981619Y-103449524D02*
X170981619Y-102878095D01*
X169981619Y-103163810D02*
X170981619Y-103163810D01*
D12*
X170273714Y-67734571D02*
X170273714Y-66734571D01*
X170273714Y-66877429D02*
X170202286Y-66806000D01*
X170059428Y-66734571D01*
X169845143Y-66734571D01*
X169702286Y-66806000D01*
X169630857Y-66948857D01*
X169630857Y-67734571D01*
X169630857Y-66948857D02*
X169559428Y-66806000D01*
X169416571Y-66734571D01*
X169202286Y-66734571D01*
X169059428Y-66806000D01*
X168988000Y-66948857D01*
X168988000Y-67734571D01*
X167702286Y-67663143D02*
X167845143Y-67734571D01*
X168130857Y-67734571D01*
X168273714Y-67663143D01*
X168345143Y-67520286D01*
X168345143Y-66948857D01*
X168273714Y-66806000D01*
X168130857Y-66734571D01*
X167845143Y-66734571D01*
X167702286Y-66806000D01*
X167630857Y-66948857D01*
X167630857Y-67091714D01*
X168345143Y-67234571D01*
X166416572Y-67663143D02*
X166559429Y-67734571D01*
X166845143Y-67734571D01*
X166988000Y-67663143D01*
X167059429Y-67520286D01*
X167059429Y-66948857D01*
X166988000Y-66806000D01*
X166845143Y-66734571D01*
X166559429Y-66734571D01*
X166416572Y-66806000D01*
X166345143Y-66948857D01*
X166345143Y-67091714D01*
X167059429Y-67234571D01*
X165773715Y-67663143D02*
X165630858Y-67734571D01*
X165345143Y-67734571D01*
X165202286Y-67663143D01*
X165130858Y-67520286D01*
X165130858Y-67448857D01*
X165202286Y-67306000D01*
X165345143Y-67234571D01*
X165559429Y-67234571D01*
X165702286Y-67163143D01*
X165773715Y-67020286D01*
X165773715Y-66948857D01*
X165702286Y-66806000D01*
X165559429Y-66734571D01*
X165345143Y-66734571D01*
X165202286Y-66806000D01*
X164273714Y-67734571D02*
X164416572Y-67663143D01*
X164488000Y-67591714D01*
X164559429Y-67448857D01*
X164559429Y-67020286D01*
X164488000Y-66877429D01*
X164416572Y-66806000D01*
X164273714Y-66734571D01*
X164059429Y-66734571D01*
X163916572Y-66806000D01*
X163845143Y-66877429D01*
X163773714Y-67020286D01*
X163773714Y-67448857D01*
X163845143Y-67591714D01*
X163916572Y-67663143D01*
X164059429Y-67734571D01*
X164273714Y-67734571D01*
X163130857Y-67591714D02*
X163059429Y-67663143D01*
X163130857Y-67734571D01*
X163202286Y-67663143D01*
X163130857Y-67591714D01*
X163130857Y-67734571D01*
X162416571Y-67734571D02*
X162416571Y-66234571D01*
X162273714Y-67163143D02*
X161845143Y-67734571D01*
X161845143Y-66734571D02*
X162416571Y-67306000D01*
X161202285Y-67734571D02*
X161202285Y-66734571D01*
X161202285Y-66234571D02*
X161273714Y-66306000D01*
X161202285Y-66377429D01*
X161130857Y-66306000D01*
X161202285Y-66234571D01*
X161202285Y-66377429D01*
X160487999Y-67734571D02*
X160487999Y-66734571D01*
X160487999Y-66877429D02*
X160416571Y-66806000D01*
X160273713Y-66734571D01*
X160059428Y-66734571D01*
X159916571Y-66806000D01*
X159845142Y-66948857D01*
X159845142Y-67734571D01*
X159845142Y-66948857D02*
X159773713Y-66806000D01*
X159630856Y-66734571D01*
X159416571Y-66734571D01*
X159273713Y-66806000D01*
X159202285Y-66948857D01*
X159202285Y-67734571D01*
X157559428Y-67020286D02*
X157630856Y-66948857D01*
X157773713Y-66877429D01*
X157916571Y-66877429D01*
X158059428Y-66948857D01*
X158130856Y-67020286D01*
X158202285Y-67163143D01*
X158202285Y-67306000D01*
X158130856Y-67448857D01*
X158059428Y-67520286D01*
X157916571Y-67591714D01*
X157773713Y-67591714D01*
X157630856Y-67520286D01*
X157559428Y-67448857D01*
X157559428Y-66877429D02*
X157559428Y-67448857D01*
X157487999Y-67520286D01*
X157416571Y-67520286D01*
X157273713Y-67448857D01*
X157202285Y-67306000D01*
X157202285Y-66948857D01*
X157345142Y-66734571D01*
X157559428Y-66591714D01*
X157845142Y-66520286D01*
X158130856Y-66591714D01*
X158345142Y-66734571D01*
X158487999Y-66948857D01*
X158559428Y-67234571D01*
X158487999Y-67520286D01*
X158345142Y-67734571D01*
X158130856Y-67877429D01*
X157845142Y-67948857D01*
X157559428Y-67877429D01*
X157345142Y-67734571D01*
X155916571Y-66734571D02*
X155916571Y-67948857D01*
X155988000Y-68091714D01*
X156059428Y-68163143D01*
X156202285Y-68234571D01*
X156416571Y-68234571D01*
X156559428Y-68163143D01*
X155916571Y-67663143D02*
X156059428Y-67734571D01*
X156345142Y-67734571D01*
X156488000Y-67663143D01*
X156559428Y-67591714D01*
X156630857Y-67448857D01*
X156630857Y-67020286D01*
X156559428Y-66877429D01*
X156488000Y-66806000D01*
X156345142Y-66734571D01*
X156059428Y-66734571D01*
X155916571Y-66806000D01*
X155202285Y-67734571D02*
X155202285Y-66734571D01*
X155202285Y-66877429D02*
X155130857Y-66806000D01*
X154987999Y-66734571D01*
X154773714Y-66734571D01*
X154630857Y-66806000D01*
X154559428Y-66948857D01*
X154559428Y-67734571D01*
X154559428Y-66948857D02*
X154487999Y-66806000D01*
X154345142Y-66734571D01*
X154130857Y-66734571D01*
X153987999Y-66806000D01*
X153916571Y-66948857D01*
X153916571Y-67734571D01*
X152559428Y-67734571D02*
X152559428Y-66948857D01*
X152630857Y-66806000D01*
X152773714Y-66734571D01*
X153059428Y-66734571D01*
X153202285Y-66806000D01*
X152559428Y-67663143D02*
X152702285Y-67734571D01*
X153059428Y-67734571D01*
X153202285Y-67663143D01*
X153273714Y-67520286D01*
X153273714Y-67377429D01*
X153202285Y-67234571D01*
X153059428Y-67163143D01*
X152702285Y-67163143D01*
X152559428Y-67091714D01*
X151845142Y-67734571D02*
X151845142Y-66734571D01*
X151845142Y-66234571D02*
X151916571Y-66306000D01*
X151845142Y-66377429D01*
X151773714Y-66306000D01*
X151845142Y-66234571D01*
X151845142Y-66377429D01*
X150916570Y-67734571D02*
X151059428Y-67663143D01*
X151130856Y-67520286D01*
X151130856Y-66234571D01*
X150345142Y-67591714D02*
X150273714Y-67663143D01*
X150345142Y-67734571D01*
X150416571Y-67663143D01*
X150345142Y-67591714D01*
X150345142Y-67734571D01*
X148987999Y-67663143D02*
X149130856Y-67734571D01*
X149416570Y-67734571D01*
X149559428Y-67663143D01*
X149630856Y-67591714D01*
X149702285Y-67448857D01*
X149702285Y-67020286D01*
X149630856Y-66877429D01*
X149559428Y-66806000D01*
X149416570Y-66734571D01*
X149130856Y-66734571D01*
X148987999Y-66806000D01*
X148130856Y-67734571D02*
X148273714Y-67663143D01*
X148345142Y-67591714D01*
X148416571Y-67448857D01*
X148416571Y-67020286D01*
X148345142Y-66877429D01*
X148273714Y-66806000D01*
X148130856Y-66734571D01*
X147916571Y-66734571D01*
X147773714Y-66806000D01*
X147702285Y-66877429D01*
X147630856Y-67020286D01*
X147630856Y-67448857D01*
X147702285Y-67591714D01*
X147773714Y-67663143D01*
X147916571Y-67734571D01*
X148130856Y-67734571D01*
X146987999Y-67734571D02*
X146987999Y-66734571D01*
X146987999Y-66877429D02*
X146916571Y-66806000D01*
X146773713Y-66734571D01*
X146559428Y-66734571D01*
X146416571Y-66806000D01*
X146345142Y-66948857D01*
X146345142Y-67734571D01*
X146345142Y-66948857D02*
X146273713Y-66806000D01*
X146130856Y-66734571D01*
X145916571Y-66734571D01*
X145773713Y-66806000D01*
X145702285Y-66948857D01*
X145702285Y-67734571D01*
D14*
X194056000Y-74997000D02*
X145736000Y-74997000D01*
X145736000Y-74997000D02*
X145736000Y-80197000D01*
X145736000Y-80197000D02*
X196656000Y-80197000D01*
X196656000Y-80197000D02*
X196656000Y-77597000D01*
X196656000Y-77597000D02*
X194056000Y-77597000D01*
X194056000Y-77597000D02*
X194056000Y-74997000D01*
X195326000Y-74997000D02*
X196656000Y-74997000D01*
X196656000Y-74997000D02*
X196656000Y-76267000D01*
X124976000Y-54528000D02*
X125976000Y-54528000D01*
X125976000Y-53168000D02*
X124976000Y-53168000D01*
D15*
X151159000Y-89089000D02*
X151409000Y-89089000D01*
X151159000Y-96839000D02*
X151494000Y-96839000D01*
X164309000Y-96839000D02*
X163974000Y-96839000D01*
X164309000Y-89089000D02*
X163974000Y-89089000D01*
X151159000Y-89089000D02*
X151159000Y-96839000D01*
X164309000Y-89089000D02*
X164309000Y-96839000D01*
X151409000Y-89089000D02*
X151409000Y-87289000D01*
X134395000Y-89089000D02*
X134645000Y-89089000D01*
X134395000Y-96839000D02*
X134730000Y-96839000D01*
X147545000Y-96839000D02*
X147210000Y-96839000D01*
X147545000Y-89089000D02*
X147210000Y-89089000D01*
X134395000Y-89089000D02*
X134395000Y-96839000D01*
X147545000Y-89089000D02*
X147545000Y-96839000D01*
X134645000Y-89089000D02*
X134645000Y-87289000D01*
X175811000Y-88514000D02*
X175811000Y-88539000D01*
X171661000Y-88514000D02*
X171661000Y-88629000D01*
X171661000Y-97414000D02*
X171661000Y-97299000D01*
X175811000Y-97414000D02*
X175811000Y-97299000D01*
X175811000Y-88514000D02*
X171661000Y-88514000D01*
X175811000Y-97414000D02*
X171661000Y-97414000D01*
X175811000Y-88539000D02*
X177186000Y-88539000D01*
D14*
X127705600Y-76108000D02*
X127005600Y-76108000D01*
X127005600Y-77308000D02*
X127705600Y-77308000D01*
X129137600Y-81284000D02*
X129137600Y-81684000D01*
X124557600Y-80514000D02*
X124557600Y-81684000D01*
X124557600Y-85094000D02*
X124557600Y-83924000D01*
X129137600Y-84324000D02*
X129137600Y-83924000D01*
X128367600Y-85094000D02*
X124557600Y-85094000D01*
X128367600Y-85094000D02*
X129137600Y-84324000D01*
X128367600Y-80514000D02*
X124557600Y-80514000D01*
X128367600Y-80514000D02*
X129137600Y-81284000D01*
X126855600Y-79674000D02*
X127855600Y-79674000D01*
X127855600Y-78314000D02*
X126855600Y-78314000D01*
X181854000Y-92983800D02*
X181854000Y-92283800D01*
X180654000Y-92283800D02*
X180654000Y-92983800D01*
X148752000Y-92309200D02*
X148752000Y-93009200D01*
X149952000Y-93009200D02*
X149952000Y-92309200D01*
X167681000Y-93009200D02*
X167681000Y-92309200D01*
X166481000Y-92309200D02*
X166481000Y-93009200D01*
X124976000Y-56306000D02*
X125976000Y-56306000D01*
X125976000Y-54946000D02*
X124976000Y-54946000D01*
X124976000Y-58084000D02*
X125976000Y-58084000D01*
X125976000Y-56724000D02*
X124976000Y-56724000D01*
X127855600Y-73716600D02*
X126855600Y-73716600D01*
X126855600Y-75076600D02*
X127855600Y-75076600D01*
D15*
X197108381Y-77263667D02*
X197822667Y-77263667D01*
X197965524Y-77216047D01*
X198060762Y-77120809D01*
X198108381Y-76977952D01*
X198108381Y-76882714D01*
X198108381Y-78263667D02*
X198108381Y-77692238D01*
X198108381Y-77977952D02*
X197108381Y-77977952D01*
X197251238Y-77882714D01*
X197346476Y-77787476D01*
X197394095Y-77692238D01*
X149686381Y-92202095D02*
X150495905Y-92202095D01*
X150591143Y-92249714D01*
X150638762Y-92297333D01*
X150686381Y-92392571D01*
X150686381Y-92583048D01*
X150638762Y-92678286D01*
X150591143Y-92725905D01*
X150495905Y-92773524D01*
X149686381Y-92773524D01*
X150686381Y-93773524D02*
X150686381Y-93202095D01*
X150686381Y-93487809D02*
X149686381Y-93487809D01*
X149829238Y-93392571D01*
X149924476Y-93297333D01*
X149972095Y-93202095D01*
X132922381Y-92202095D02*
X133731905Y-92202095D01*
X133827143Y-92249714D01*
X133874762Y-92297333D01*
X133922381Y-92392571D01*
X133922381Y-92583048D01*
X133874762Y-92678286D01*
X133827143Y-92725905D01*
X133731905Y-92773524D01*
X132922381Y-92773524D01*
X133017619Y-93202095D02*
X132970000Y-93249714D01*
X132922381Y-93344952D01*
X132922381Y-93583048D01*
X132970000Y-93678286D01*
X133017619Y-93725905D01*
X133112857Y-93773524D01*
X133208095Y-93773524D01*
X133350952Y-93725905D01*
X133922381Y-93154476D01*
X133922381Y-93773524D01*
X174497905Y-87041381D02*
X174497905Y-87850905D01*
X174450286Y-87946143D01*
X174402667Y-87993762D01*
X174307429Y-88041381D01*
X174116952Y-88041381D01*
X174021714Y-87993762D01*
X173974095Y-87946143D01*
X173926476Y-87850905D01*
X173926476Y-87041381D01*
X172974095Y-87041381D02*
X173450286Y-87041381D01*
X173497905Y-87517571D01*
X173450286Y-87469952D01*
X173355048Y-87422333D01*
X173116952Y-87422333D01*
X173021714Y-87469952D01*
X172974095Y-87517571D01*
X172926476Y-87612810D01*
X172926476Y-87850905D01*
X172974095Y-87946143D01*
X173021714Y-87993762D01*
X173116952Y-88041381D01*
X173355048Y-88041381D01*
X173450286Y-87993762D01*
X173497905Y-87946143D01*
X130570266Y-77065143D02*
X130617885Y-77112762D01*
X130760742Y-77160381D01*
X130855980Y-77160381D01*
X130998838Y-77112762D01*
X131094076Y-77017524D01*
X131141695Y-76922286D01*
X131189314Y-76731810D01*
X131189314Y-76588952D01*
X131141695Y-76398476D01*
X131094076Y-76303238D01*
X130998838Y-76208000D01*
X130855980Y-76160381D01*
X130760742Y-76160381D01*
X130617885Y-76208000D01*
X130570266Y-76255619D01*
X129617885Y-77160381D02*
X130189314Y-77160381D01*
X129903600Y-77160381D02*
X129903600Y-76160381D01*
X129998838Y-76303238D01*
X130094076Y-76398476D01*
X130189314Y-76446095D01*
X130570266Y-81383143D02*
X130617885Y-81430762D01*
X130760742Y-81478381D01*
X130855980Y-81478381D01*
X130998838Y-81430762D01*
X131094076Y-81335524D01*
X131141695Y-81240286D01*
X131189314Y-81049810D01*
X131189314Y-80906952D01*
X131141695Y-80716476D01*
X131094076Y-80621238D01*
X130998838Y-80526000D01*
X130855980Y-80478381D01*
X130760742Y-80478381D01*
X130617885Y-80526000D01*
X130570266Y-80573619D01*
X130189314Y-80573619D02*
X130141695Y-80526000D01*
X130046457Y-80478381D01*
X129808361Y-80478381D01*
X129713123Y-80526000D01*
X129665504Y-80573619D01*
X129617885Y-80668857D01*
X129617885Y-80764095D01*
X129665504Y-80906952D01*
X130236933Y-81478381D01*
X129617885Y-81478381D01*
X129998552Y-84885429D02*
X129236647Y-84885429D01*
X129617599Y-85266381D02*
X129617599Y-84504476D01*
X130570266Y-79446381D02*
X130903600Y-78970190D01*
X131141695Y-79446381D02*
X131141695Y-78446381D01*
X130760742Y-78446381D01*
X130665504Y-78494000D01*
X130617885Y-78541619D01*
X130570266Y-78636857D01*
X130570266Y-78779714D01*
X130617885Y-78874952D01*
X130665504Y-78922571D01*
X130760742Y-78970190D01*
X131141695Y-78970190D01*
X130189314Y-78541619D02*
X130141695Y-78494000D01*
X130046457Y-78446381D01*
X129808361Y-78446381D01*
X129713123Y-78494000D01*
X129665504Y-78541619D01*
X129617885Y-78636857D01*
X129617885Y-78732095D01*
X129665504Y-78874952D01*
X130236933Y-79446381D01*
X129617885Y-79446381D01*
X182861143Y-92467134D02*
X182908762Y-92419515D01*
X182956381Y-92276658D01*
X182956381Y-92181420D01*
X182908762Y-92038562D01*
X182813524Y-91943324D01*
X182718286Y-91895705D01*
X182527810Y-91848086D01*
X182384952Y-91848086D01*
X182194476Y-91895705D01*
X182099238Y-91943324D01*
X182004000Y-92038562D01*
X181956381Y-92181420D01*
X181956381Y-92276658D01*
X182004000Y-92419515D01*
X182051619Y-92467134D01*
X181956381Y-93371896D02*
X181956381Y-92895705D01*
X182432571Y-92848086D01*
X182384952Y-92895705D01*
X182337333Y-92990943D01*
X182337333Y-93229039D01*
X182384952Y-93324277D01*
X182432571Y-93371896D01*
X182527810Y-93419515D01*
X182765905Y-93419515D01*
X182861143Y-93371896D01*
X182908762Y-93324277D01*
X182956381Y-93229039D01*
X182956381Y-92990943D01*
X182908762Y-92895705D01*
X182861143Y-92848086D01*
X148459143Y-92492534D02*
X148506762Y-92444915D01*
X148554381Y-92302058D01*
X148554381Y-92206820D01*
X148506762Y-92063962D01*
X148411524Y-91968724D01*
X148316286Y-91921105D01*
X148125810Y-91873486D01*
X147982952Y-91873486D01*
X147792476Y-91921105D01*
X147697238Y-91968724D01*
X147602000Y-92063962D01*
X147554381Y-92206820D01*
X147554381Y-92302058D01*
X147602000Y-92444915D01*
X147649619Y-92492534D01*
X147554381Y-93349677D02*
X147554381Y-93159200D01*
X147602000Y-93063962D01*
X147649619Y-93016343D01*
X147792476Y-92921105D01*
X147982952Y-92873486D01*
X148363905Y-92873486D01*
X148459143Y-92921105D01*
X148506762Y-92968724D01*
X148554381Y-93063962D01*
X148554381Y-93254439D01*
X148506762Y-93349677D01*
X148459143Y-93397296D01*
X148363905Y-93444915D01*
X148125810Y-93444915D01*
X148030571Y-93397296D01*
X147982952Y-93349677D01*
X147935333Y-93254439D01*
X147935333Y-93063962D01*
X147982952Y-92968724D01*
X148030571Y-92921105D01*
X148125810Y-92873486D01*
X168688143Y-92492534D02*
X168735762Y-92444915D01*
X168783381Y-92302058D01*
X168783381Y-92206820D01*
X168735762Y-92063962D01*
X168640524Y-91968724D01*
X168545286Y-91921105D01*
X168354810Y-91873486D01*
X168211952Y-91873486D01*
X168021476Y-91921105D01*
X167926238Y-91968724D01*
X167831000Y-92063962D01*
X167783381Y-92206820D01*
X167783381Y-92302058D01*
X167831000Y-92444915D01*
X167878619Y-92492534D01*
X167783381Y-92825867D02*
X167783381Y-93492534D01*
X168783381Y-93063962D01*
X130671866Y-74874381D02*
X131005200Y-74398190D01*
X131243295Y-74874381D02*
X131243295Y-73874381D01*
X130862342Y-73874381D01*
X130767104Y-73922000D01*
X130719485Y-73969619D01*
X130671866Y-74064857D01*
X130671866Y-74207714D01*
X130719485Y-74302952D01*
X130767104Y-74350571D01*
X130862342Y-74398190D01*
X131243295Y-74398190D01*
X129767104Y-73874381D02*
X130243295Y-73874381D01*
X130290914Y-74350571D01*
X130243295Y-74302952D01*
X130148057Y-74255333D01*
X129909961Y-74255333D01*
X129814723Y-74302952D01*
X129767104Y-74350571D01*
X129719485Y-74445810D01*
X129719485Y-74683905D01*
X129767104Y-74779143D01*
X129814723Y-74826762D01*
X129909961Y-74874381D01*
X130148057Y-74874381D01*
X130243295Y-74826762D01*
X130290914Y-74779143D01*
M02*
