G04 #@! TF.FileFunction,Soldermask,Top*
%FSLAX46Y46*%
G04 Gerber Fmt 4.6, Leading zero omitted, Abs format (unit mm)*
G04 Created by KiCad (PCBNEW 4.0.7) date 03/27/18 21:59:05*
%MOMM*%
%LPD*%
G01*
G04 APERTURE LIST*
%ADD10C,0.100000*%
%ADD11C,4.900000*%
%ADD12R,2.200000X8.400000*%
%ADD13R,2.200000X7.400000*%
%ADD14R,2.100000X2.100000*%
%ADD15O,2.100000X2.100000*%
%ADD16R,1.000000X2.350000*%
%ADD17R,1.150000X1.600000*%
%ADD18R,1.600000X1.150000*%
%ADD19R,2.400000X1.500000*%
G04 APERTURE END LIST*
D10*
D11*
X185333640Y-98897440D03*
D12*
X187949840Y-109827440D03*
X185409840Y-109827440D03*
X182869840Y-109827440D03*
X180329840Y-109827440D03*
X177789840Y-109827440D03*
X175249840Y-109827440D03*
X172709840Y-109827440D03*
X170169840Y-109827440D03*
X167629840Y-109827440D03*
X165089840Y-109827440D03*
X162549840Y-109827440D03*
X160009840Y-109827440D03*
X157469840Y-109827440D03*
X154929840Y-109827440D03*
X152389840Y-109827440D03*
X149849840Y-109827440D03*
X147309840Y-109827440D03*
X144769840Y-109827440D03*
X142229840Y-109827440D03*
X139689840Y-109827440D03*
X137149840Y-109827440D03*
D13*
X134604760Y-109334680D03*
D12*
X132069840Y-109827440D03*
X129529840Y-109827440D03*
X126989840Y-109827440D03*
D11*
X129334260Y-93695520D03*
D14*
X181635000Y-52451000D03*
D15*
X181635000Y-54991000D03*
X179095000Y-52451000D03*
X179095000Y-54991000D03*
X176555000Y-52451000D03*
X176555000Y-54991000D03*
X174015000Y-52451000D03*
X174015000Y-54991000D03*
X171475000Y-52451000D03*
X171475000Y-54991000D03*
X168935000Y-52451000D03*
X168935000Y-54991000D03*
X166395000Y-52451000D03*
X166395000Y-54991000D03*
X163855000Y-52451000D03*
X163855000Y-54991000D03*
X161315000Y-52451000D03*
X161315000Y-54991000D03*
X158775000Y-52451000D03*
X158775000Y-54991000D03*
X156235000Y-52451000D03*
X156235000Y-54991000D03*
X153695000Y-52451000D03*
X153695000Y-54991000D03*
X151155000Y-52451000D03*
X151155000Y-54991000D03*
X148615000Y-52451000D03*
X148615000Y-54991000D03*
X146075000Y-52451000D03*
X146075000Y-54991000D03*
X143535000Y-52451000D03*
X143535000Y-54991000D03*
X140995000Y-52451000D03*
X140995000Y-54991000D03*
X138455000Y-52451000D03*
X138455000Y-54991000D03*
X135915000Y-52451000D03*
X135915000Y-54991000D03*
X133375000Y-52451000D03*
X133375000Y-54991000D03*
D14*
X195326000Y-76327000D03*
D15*
X195326000Y-78867000D03*
X192786000Y-76327000D03*
X192786000Y-78867000D03*
X190246000Y-76327000D03*
X190246000Y-78867000D03*
X187706000Y-76327000D03*
X187706000Y-78867000D03*
X185166000Y-76327000D03*
X185166000Y-78867000D03*
X182626000Y-76327000D03*
X182626000Y-78867000D03*
X180086000Y-76327000D03*
X180086000Y-78867000D03*
X177546000Y-76327000D03*
X177546000Y-78867000D03*
X175006000Y-76327000D03*
X175006000Y-78867000D03*
X172466000Y-76327000D03*
X172466000Y-78867000D03*
X169926000Y-76327000D03*
X169926000Y-78867000D03*
X167386000Y-76327000D03*
X167386000Y-78867000D03*
X164846000Y-76327000D03*
X164846000Y-78867000D03*
X162306000Y-76327000D03*
X162306000Y-78867000D03*
X159766000Y-76327000D03*
X159766000Y-78867000D03*
X157226000Y-76327000D03*
X157226000Y-78867000D03*
X154686000Y-76327000D03*
X154686000Y-78867000D03*
X152146000Y-76327000D03*
X152146000Y-78867000D03*
X149606000Y-76327000D03*
X149606000Y-78867000D03*
X147066000Y-76327000D03*
X147066000Y-78867000D03*
D16*
X179705000Y-88264000D03*
X178435000Y-88264000D03*
X177165000Y-88264000D03*
X175895000Y-88264000D03*
X174625000Y-88264000D03*
X173355000Y-88264000D03*
X172085000Y-88264000D03*
X170815000Y-88264000D03*
X169545000Y-88264000D03*
X168275000Y-88264000D03*
X168275000Y-97664000D03*
X169545000Y-97664000D03*
X170815000Y-97664000D03*
X172085000Y-97664000D03*
X173355000Y-97664000D03*
X174625000Y-97664000D03*
X175895000Y-97664000D03*
X177165000Y-97664000D03*
X178435000Y-97664000D03*
X179705000Y-97664000D03*
X146685000Y-88264000D03*
X145415000Y-88264000D03*
X144145000Y-88264000D03*
X142875000Y-88264000D03*
X141605000Y-88264000D03*
X140335000Y-88264000D03*
X139065000Y-88264000D03*
X137795000Y-88264000D03*
X136525000Y-88264000D03*
X135255000Y-88264000D03*
X135255000Y-97664000D03*
X136525000Y-97664000D03*
X137795000Y-97664000D03*
X139065000Y-97664000D03*
X140335000Y-97664000D03*
X141605000Y-97664000D03*
X142875000Y-97664000D03*
X144145000Y-97664000D03*
X145415000Y-97664000D03*
X146685000Y-97664000D03*
D17*
X151994000Y-100066000D03*
X151994000Y-101966000D03*
D18*
X132903000Y-98272600D03*
X131003000Y-98272600D03*
D16*
X152019000Y-97664000D03*
X153289000Y-97664000D03*
X154559000Y-97664000D03*
X155829000Y-97664000D03*
X157099000Y-97664000D03*
X158369000Y-97664000D03*
X159639000Y-97664000D03*
X160909000Y-97664000D03*
X162179000Y-97664000D03*
X163449000Y-97664000D03*
X163449000Y-88264000D03*
X162179000Y-88264000D03*
X160909000Y-88264000D03*
X159639000Y-88264000D03*
X158369000Y-88264000D03*
X157099000Y-88264000D03*
X155829000Y-88264000D03*
X154559000Y-88264000D03*
X153289000Y-88264000D03*
X152019000Y-88264000D03*
D19*
X119520000Y-53926000D03*
X119520000Y-55626000D03*
X119520000Y-57326000D03*
X124320000Y-57326000D03*
X124320000Y-55626000D03*
X124320000Y-53926000D03*
M02*
