G04 #@! TF.GenerationSoftware,KiCad,Pcbnew,5.1.6~rc1+dfsg1-1*
G04 #@! TF.CreationDate,2020-05-03T13:17:22-07:00*
G04 #@! TF.ProjectId,rpmpv1,72706d70-7631-42e6-9b69-6361645f7063,rev?*
G04 #@! TF.SameCoordinates,Original*
G04 #@! TF.FileFunction,Legend,Bot*
G04 #@! TF.FilePolarity,Positive*
%FSLAX46Y46*%
G04 Gerber Fmt 4.6, Leading zero omitted, Abs format (unit mm)*
G04 Created by KiCad (PCBNEW 5.1.6~rc1+dfsg1-1) date 2020-05-03 13:17:22*
%MOMM*%
%LPD*%
G01*
G04 APERTURE LIST*
%ADD10C,0.150000*%
%ADD11C,0.120000*%
G04 APERTURE END LIST*
D10*
X134520476Y-67177380D02*
X134520476Y-66510714D01*
X134520476Y-66605952D02*
X134472857Y-66558333D01*
X134377619Y-66510714D01*
X134234761Y-66510714D01*
X134139523Y-66558333D01*
X134091904Y-66653571D01*
X134091904Y-67177380D01*
X134091904Y-66653571D02*
X134044285Y-66558333D01*
X133949047Y-66510714D01*
X133806190Y-66510714D01*
X133710952Y-66558333D01*
X133663333Y-66653571D01*
X133663333Y-67177380D01*
X132806190Y-67129761D02*
X132901428Y-67177380D01*
X133091904Y-67177380D01*
X133187142Y-67129761D01*
X133234761Y-67034523D01*
X133234761Y-66653571D01*
X133187142Y-66558333D01*
X133091904Y-66510714D01*
X132901428Y-66510714D01*
X132806190Y-66558333D01*
X132758571Y-66653571D01*
X132758571Y-66748809D01*
X133234761Y-66844047D01*
X131949047Y-67129761D02*
X132044285Y-67177380D01*
X132234761Y-67177380D01*
X132330000Y-67129761D01*
X132377619Y-67034523D01*
X132377619Y-66653571D01*
X132330000Y-66558333D01*
X132234761Y-66510714D01*
X132044285Y-66510714D01*
X131949047Y-66558333D01*
X131901428Y-66653571D01*
X131901428Y-66748809D01*
X132377619Y-66844047D01*
X131520476Y-67129761D02*
X131425238Y-67177380D01*
X131234761Y-67177380D01*
X131139523Y-67129761D01*
X131091904Y-67034523D01*
X131091904Y-66986904D01*
X131139523Y-66891666D01*
X131234761Y-66844047D01*
X131377619Y-66844047D01*
X131472857Y-66796428D01*
X131520476Y-66701190D01*
X131520476Y-66653571D01*
X131472857Y-66558333D01*
X131377619Y-66510714D01*
X131234761Y-66510714D01*
X131139523Y-66558333D01*
X130520476Y-67177380D02*
X130615714Y-67129761D01*
X130663333Y-67082142D01*
X130710952Y-66986904D01*
X130710952Y-66701190D01*
X130663333Y-66605952D01*
X130615714Y-66558333D01*
X130520476Y-66510714D01*
X130377619Y-66510714D01*
X130282380Y-66558333D01*
X130234761Y-66605952D01*
X130187142Y-66701190D01*
X130187142Y-66986904D01*
X130234761Y-67082142D01*
X130282380Y-67129761D01*
X130377619Y-67177380D01*
X130520476Y-67177380D01*
X129758571Y-67082142D02*
X129710952Y-67129761D01*
X129758571Y-67177380D01*
X129806190Y-67129761D01*
X129758571Y-67082142D01*
X129758571Y-67177380D01*
X129282380Y-67177380D02*
X129282380Y-66177380D01*
X129187142Y-66796428D02*
X128901428Y-67177380D01*
X128901428Y-66510714D02*
X129282380Y-66891666D01*
X128472857Y-67177380D02*
X128472857Y-66510714D01*
X128472857Y-66177380D02*
X128520476Y-66225000D01*
X128472857Y-66272619D01*
X128425238Y-66225000D01*
X128472857Y-66177380D01*
X128472857Y-66272619D01*
X127996666Y-67177380D02*
X127996666Y-66510714D01*
X127996666Y-66605952D02*
X127949047Y-66558333D01*
X127853809Y-66510714D01*
X127710952Y-66510714D01*
X127615714Y-66558333D01*
X127568095Y-66653571D01*
X127568095Y-67177380D01*
X127568095Y-66653571D02*
X127520476Y-66558333D01*
X127425238Y-66510714D01*
X127282380Y-66510714D01*
X127187142Y-66558333D01*
X127139523Y-66653571D01*
X127139523Y-67177380D01*
X126044285Y-66701190D02*
X126091904Y-66653571D01*
X126187142Y-66605952D01*
X126282380Y-66605952D01*
X126377619Y-66653571D01*
X126425238Y-66701190D01*
X126472857Y-66796428D01*
X126472857Y-66891666D01*
X126425238Y-66986904D01*
X126377619Y-67034523D01*
X126282380Y-67082142D01*
X126187142Y-67082142D01*
X126091904Y-67034523D01*
X126044285Y-66986904D01*
X126044285Y-66605952D02*
X126044285Y-66986904D01*
X125996666Y-67034523D01*
X125949047Y-67034523D01*
X125853809Y-66986904D01*
X125806190Y-66891666D01*
X125806190Y-66653571D01*
X125901428Y-66510714D01*
X126044285Y-66415476D01*
X126234761Y-66367857D01*
X126425238Y-66415476D01*
X126568095Y-66510714D01*
X126663333Y-66653571D01*
X126710952Y-66844047D01*
X126663333Y-67034523D01*
X126568095Y-67177380D01*
X126425238Y-67272619D01*
X126234761Y-67320238D01*
X126044285Y-67272619D01*
X125901428Y-67177380D01*
X124949047Y-66510714D02*
X124949047Y-67320238D01*
X124996666Y-67415476D01*
X125044285Y-67463095D01*
X125139523Y-67510714D01*
X125282380Y-67510714D01*
X125377619Y-67463095D01*
X124949047Y-67129761D02*
X125044285Y-67177380D01*
X125234761Y-67177380D01*
X125330000Y-67129761D01*
X125377619Y-67082142D01*
X125425238Y-66986904D01*
X125425238Y-66701190D01*
X125377619Y-66605952D01*
X125330000Y-66558333D01*
X125234761Y-66510714D01*
X125044285Y-66510714D01*
X124949047Y-66558333D01*
X124472857Y-67177380D02*
X124472857Y-66510714D01*
X124472857Y-66605952D02*
X124425238Y-66558333D01*
X124330000Y-66510714D01*
X124187142Y-66510714D01*
X124091904Y-66558333D01*
X124044285Y-66653571D01*
X124044285Y-67177380D01*
X124044285Y-66653571D02*
X123996666Y-66558333D01*
X123901428Y-66510714D01*
X123758571Y-66510714D01*
X123663333Y-66558333D01*
X123615714Y-66653571D01*
X123615714Y-67177380D01*
X122710952Y-67177380D02*
X122710952Y-66653571D01*
X122758571Y-66558333D01*
X122853809Y-66510714D01*
X123044285Y-66510714D01*
X123139523Y-66558333D01*
X122710952Y-67129761D02*
X122806190Y-67177380D01*
X123044285Y-67177380D01*
X123139523Y-67129761D01*
X123187142Y-67034523D01*
X123187142Y-66939285D01*
X123139523Y-66844047D01*
X123044285Y-66796428D01*
X122806190Y-66796428D01*
X122710952Y-66748809D01*
X122234761Y-67177380D02*
X122234761Y-66510714D01*
X122234761Y-66177380D02*
X122282380Y-66225000D01*
X122234761Y-66272619D01*
X122187142Y-66225000D01*
X122234761Y-66177380D01*
X122234761Y-66272619D01*
X121615714Y-67177380D02*
X121710952Y-67129761D01*
X121758571Y-67034523D01*
X121758571Y-66177380D01*
X121234761Y-67082142D02*
X121187142Y-67129761D01*
X121234761Y-67177380D01*
X121282380Y-67129761D01*
X121234761Y-67082142D01*
X121234761Y-67177380D01*
X120330000Y-67129761D02*
X120425238Y-67177380D01*
X120615714Y-67177380D01*
X120710952Y-67129761D01*
X120758571Y-67082142D01*
X120806190Y-66986904D01*
X120806190Y-66701190D01*
X120758571Y-66605952D01*
X120710952Y-66558333D01*
X120615714Y-66510714D01*
X120425238Y-66510714D01*
X120330000Y-66558333D01*
X119758571Y-67177380D02*
X119853809Y-67129761D01*
X119901428Y-67082142D01*
X119949047Y-66986904D01*
X119949047Y-66701190D01*
X119901428Y-66605952D01*
X119853809Y-66558333D01*
X119758571Y-66510714D01*
X119615714Y-66510714D01*
X119520476Y-66558333D01*
X119472857Y-66605952D01*
X119425238Y-66701190D01*
X119425238Y-66986904D01*
X119472857Y-67082142D01*
X119520476Y-67129761D01*
X119615714Y-67177380D01*
X119758571Y-67177380D01*
X118996666Y-67177380D02*
X118996666Y-66510714D01*
X118996666Y-66605952D02*
X118949047Y-66558333D01*
X118853809Y-66510714D01*
X118710952Y-66510714D01*
X118615714Y-66558333D01*
X118568095Y-66653571D01*
X118568095Y-67177380D01*
X118568095Y-66653571D02*
X118520476Y-66558333D01*
X118425238Y-66510714D01*
X118282380Y-66510714D01*
X118187142Y-66558333D01*
X118139523Y-66653571D01*
X118139523Y-67177380D01*
X129949047Y-67922619D02*
X129901428Y-67875000D01*
X129806190Y-67827380D01*
X129568095Y-67827380D01*
X129472857Y-67875000D01*
X129425238Y-67922619D01*
X129377619Y-68017857D01*
X129377619Y-68113095D01*
X129425238Y-68255952D01*
X129996666Y-68827380D01*
X129377619Y-68827380D01*
X128758571Y-67827380D02*
X128663333Y-67827380D01*
X128568095Y-67875000D01*
X128520476Y-67922619D01*
X128472857Y-68017857D01*
X128425238Y-68208333D01*
X128425238Y-68446428D01*
X128472857Y-68636904D01*
X128520476Y-68732142D01*
X128568095Y-68779761D01*
X128663333Y-68827380D01*
X128758571Y-68827380D01*
X128853809Y-68779761D01*
X128901428Y-68732142D01*
X128949047Y-68636904D01*
X128996666Y-68446428D01*
X128996666Y-68208333D01*
X128949047Y-68017857D01*
X128901428Y-67922619D01*
X128853809Y-67875000D01*
X128758571Y-67827380D01*
X128044285Y-67922619D02*
X127996666Y-67875000D01*
X127901428Y-67827380D01*
X127663333Y-67827380D01*
X127568095Y-67875000D01*
X127520476Y-67922619D01*
X127472857Y-68017857D01*
X127472857Y-68113095D01*
X127520476Y-68255952D01*
X128091904Y-68827380D01*
X127472857Y-68827380D01*
X126853809Y-67827380D02*
X126758571Y-67827380D01*
X126663333Y-67875000D01*
X126615714Y-67922619D01*
X126568095Y-68017857D01*
X126520476Y-68208333D01*
X126520476Y-68446428D01*
X126568095Y-68636904D01*
X126615714Y-68732142D01*
X126663333Y-68779761D01*
X126758571Y-68827380D01*
X126853809Y-68827380D01*
X126949047Y-68779761D01*
X126996666Y-68732142D01*
X127044285Y-68636904D01*
X127091904Y-68446428D01*
X127091904Y-68208333D01*
X127044285Y-68017857D01*
X126996666Y-67922619D01*
X126949047Y-67875000D01*
X126853809Y-67827380D01*
X126091904Y-68732142D02*
X126044285Y-68779761D01*
X126091904Y-68827380D01*
X126139523Y-68779761D01*
X126091904Y-68732142D01*
X126091904Y-68827380D01*
X125710952Y-67827380D02*
X125091904Y-67827380D01*
X125425238Y-68208333D01*
X125282380Y-68208333D01*
X125187142Y-68255952D01*
X125139523Y-68303571D01*
X125091904Y-68398809D01*
X125091904Y-68636904D01*
X125139523Y-68732142D01*
X125187142Y-68779761D01*
X125282380Y-68827380D01*
X125568095Y-68827380D01*
X125663333Y-68779761D01*
X125710952Y-68732142D01*
X124663333Y-68732142D02*
X124615714Y-68779761D01*
X124663333Y-68827380D01*
X124710952Y-68779761D01*
X124663333Y-68732142D01*
X124663333Y-68827380D01*
X124234761Y-67922619D02*
X124187142Y-67875000D01*
X124091904Y-67827380D01*
X123853809Y-67827380D01*
X123758571Y-67875000D01*
X123710952Y-67922619D01*
X123663333Y-68017857D01*
X123663333Y-68113095D01*
X123710952Y-68255952D01*
X124282380Y-68827380D01*
X123663333Y-68827380D01*
X123330000Y-67827380D02*
X122710952Y-67827380D01*
X123044285Y-68208333D01*
X122901428Y-68208333D01*
X122806190Y-68255952D01*
X122758571Y-68303571D01*
X122710952Y-68398809D01*
X122710952Y-68636904D01*
X122758571Y-68732142D01*
X122806190Y-68779761D01*
X122901428Y-68827380D01*
X123187142Y-68827380D01*
X123282380Y-68779761D01*
X123330000Y-68732142D01*
D11*
X197354000Y-79003200D02*
X197354000Y-76403200D01*
X197354000Y-79003200D02*
X146434000Y-79003200D01*
X146434000Y-79003200D02*
X146434000Y-73803200D01*
X194754000Y-73803200D02*
X146434000Y-73803200D01*
X194754000Y-76403200D02*
X194754000Y-73803200D01*
X197354000Y-76403200D02*
X194754000Y-76403200D01*
X197354000Y-73803200D02*
X196024000Y-73803200D01*
X197354000Y-75133200D02*
X197354000Y-73803200D01*
D10*
X149840000Y-94680000D02*
X149840000Y-96505000D01*
X134365000Y-94680000D02*
X134365000Y-86930000D01*
X150115000Y-94680000D02*
X150115000Y-86930000D01*
X134365000Y-94680000D02*
X134730000Y-94680000D01*
X134365000Y-86930000D02*
X134730000Y-86930000D01*
X150115000Y-86930000D02*
X149750000Y-86930000D01*
X150115000Y-94680000D02*
X149840000Y-94680000D01*
D11*
X121102000Y-56433000D02*
X122102000Y-56433000D01*
X122102000Y-55073000D02*
X121102000Y-55073000D01*
X116250000Y-100830000D02*
X116250000Y-99830000D01*
X114890000Y-99830000D02*
X114890000Y-100830000D01*
X121102000Y-53004000D02*
X122102000Y-53004000D01*
X122102000Y-51644000D02*
X121102000Y-51644000D01*
D10*
X163810000Y-92880000D02*
X163810000Y-94255000D01*
X154935000Y-92880000D02*
X154935000Y-88730000D01*
X163835000Y-92880000D02*
X163835000Y-88730000D01*
X154935000Y-92880000D02*
X155050000Y-92880000D01*
X154935000Y-88730000D02*
X155050000Y-88730000D01*
X163835000Y-88730000D02*
X163720000Y-88730000D01*
X163835000Y-92880000D02*
X163810000Y-92880000D01*
D11*
X116250000Y-95750000D02*
X116250000Y-94750000D01*
X114890000Y-94750000D02*
X114890000Y-95750000D01*
X121102000Y-54718500D02*
X122102000Y-54718500D01*
X122102000Y-53358500D02*
X121102000Y-53358500D01*
D10*
X181585000Y-94427000D02*
X181585000Y-96227000D01*
X168685000Y-94427000D02*
X168685000Y-86677000D01*
X181835000Y-94427000D02*
X181835000Y-86677000D01*
X168685000Y-94427000D02*
X169020000Y-94427000D01*
X168685000Y-86677000D02*
X169020000Y-86677000D01*
X181835000Y-86677000D02*
X181500000Y-86677000D01*
X181835000Y-94427000D02*
X181585000Y-94427000D01*
D11*
X119730000Y-101000000D02*
X119030000Y-101000000D01*
X119030000Y-102200000D02*
X119730000Y-102200000D01*
X111597221Y-54862000D02*
X111922779Y-54862000D01*
X111597221Y-55882000D02*
X111922779Y-55882000D01*
X111699221Y-58422000D02*
X112024779Y-58422000D01*
X111699221Y-57402000D02*
X112024779Y-57402000D01*
D10*
X197746380Y-80449866D02*
X198460666Y-80449866D01*
X198603523Y-80402247D01*
X198698761Y-80307009D01*
X198746380Y-80164152D01*
X198746380Y-80068914D01*
X198746380Y-81449866D02*
X198746380Y-80878438D01*
X198746380Y-81164152D02*
X197746380Y-81164152D01*
X197889238Y-81068914D01*
X197984476Y-80973676D01*
X198032095Y-80878438D01*
X150492380Y-90043095D02*
X151301904Y-90043095D01*
X151397142Y-90090714D01*
X151444761Y-90138333D01*
X151492380Y-90233571D01*
X151492380Y-90424047D01*
X151444761Y-90519285D01*
X151397142Y-90566904D01*
X151301904Y-90614523D01*
X150492380Y-90614523D01*
X150492380Y-91566904D02*
X150492380Y-91090714D01*
X150968571Y-91043095D01*
X150920952Y-91090714D01*
X150873333Y-91185952D01*
X150873333Y-91424047D01*
X150920952Y-91519285D01*
X150968571Y-91566904D01*
X151063809Y-91614523D01*
X151301904Y-91614523D01*
X151397142Y-91566904D01*
X151444761Y-91519285D01*
X151492380Y-91424047D01*
X151492380Y-91185952D01*
X151444761Y-91090714D01*
X151397142Y-91043095D01*
X124931466Y-56281580D02*
X125264800Y-55805390D01*
X125502895Y-56281580D02*
X125502895Y-55281580D01*
X125121942Y-55281580D01*
X125026704Y-55329200D01*
X124979085Y-55376819D01*
X124931466Y-55472057D01*
X124931466Y-55614914D01*
X124979085Y-55710152D01*
X125026704Y-55757771D01*
X125121942Y-55805390D01*
X125502895Y-55805390D01*
X124598133Y-55281580D02*
X123979085Y-55281580D01*
X124312419Y-55662533D01*
X124169561Y-55662533D01*
X124074323Y-55710152D01*
X124026704Y-55757771D01*
X123979085Y-55853009D01*
X123979085Y-56091104D01*
X124026704Y-56186342D01*
X124074323Y-56233961D01*
X124169561Y-56281580D01*
X124455276Y-56281580D01*
X124550514Y-56233961D01*
X124598133Y-56186342D01*
X117472380Y-100163333D02*
X116996190Y-99830000D01*
X117472380Y-99591904D02*
X116472380Y-99591904D01*
X116472380Y-99972857D01*
X116520000Y-100068095D01*
X116567619Y-100115714D01*
X116662857Y-100163333D01*
X116805714Y-100163333D01*
X116900952Y-100115714D01*
X116948571Y-100068095D01*
X116996190Y-99972857D01*
X116996190Y-99591904D01*
X116472380Y-101068095D02*
X116472380Y-100591904D01*
X116948571Y-100544285D01*
X116900952Y-100591904D01*
X116853333Y-100687142D01*
X116853333Y-100925238D01*
X116900952Y-101020476D01*
X116948571Y-101068095D01*
X117043809Y-101115714D01*
X117281904Y-101115714D01*
X117377142Y-101068095D01*
X117424761Y-101020476D01*
X117472380Y-100925238D01*
X117472380Y-100687142D01*
X117424761Y-100591904D01*
X117377142Y-100544285D01*
X124931466Y-52827180D02*
X125264800Y-52350990D01*
X125502895Y-52827180D02*
X125502895Y-51827180D01*
X125121942Y-51827180D01*
X125026704Y-51874800D01*
X124979085Y-51922419D01*
X124931466Y-52017657D01*
X124931466Y-52160514D01*
X124979085Y-52255752D01*
X125026704Y-52303371D01*
X125121942Y-52350990D01*
X125502895Y-52350990D01*
X123979085Y-52827180D02*
X124550514Y-52827180D01*
X124264800Y-52827180D02*
X124264800Y-51827180D01*
X124360038Y-51970038D01*
X124455276Y-52065276D01*
X124550514Y-52112895D01*
X164212380Y-90043095D02*
X165021904Y-90043095D01*
X165117142Y-90090714D01*
X165164761Y-90138333D01*
X165212380Y-90233571D01*
X165212380Y-90424047D01*
X165164761Y-90519285D01*
X165117142Y-90566904D01*
X165021904Y-90614523D01*
X164212380Y-90614523D01*
X164212380Y-90995476D02*
X164212380Y-91614523D01*
X164593333Y-91281190D01*
X164593333Y-91424047D01*
X164640952Y-91519285D01*
X164688571Y-91566904D01*
X164783809Y-91614523D01*
X165021904Y-91614523D01*
X165117142Y-91566904D01*
X165164761Y-91519285D01*
X165212380Y-91424047D01*
X165212380Y-91138333D01*
X165164761Y-91043095D01*
X165117142Y-90995476D01*
X117472380Y-95083333D02*
X116996190Y-94750000D01*
X117472380Y-94511904D02*
X116472380Y-94511904D01*
X116472380Y-94892857D01*
X116520000Y-94988095D01*
X116567619Y-95035714D01*
X116662857Y-95083333D01*
X116805714Y-95083333D01*
X116900952Y-95035714D01*
X116948571Y-94988095D01*
X116996190Y-94892857D01*
X116996190Y-94511904D01*
X116805714Y-95940476D02*
X117472380Y-95940476D01*
X116424761Y-95702380D02*
X117139047Y-95464285D01*
X117139047Y-96083333D01*
X124982266Y-54503580D02*
X125315600Y-54027390D01*
X125553695Y-54503580D02*
X125553695Y-53503580D01*
X125172742Y-53503580D01*
X125077504Y-53551200D01*
X125029885Y-53598819D01*
X124982266Y-53694057D01*
X124982266Y-53836914D01*
X125029885Y-53932152D01*
X125077504Y-53979771D01*
X125172742Y-54027390D01*
X125553695Y-54027390D01*
X124601314Y-53598819D02*
X124553695Y-53551200D01*
X124458457Y-53503580D01*
X124220361Y-53503580D01*
X124125123Y-53551200D01*
X124077504Y-53598819D01*
X124029885Y-53694057D01*
X124029885Y-53789295D01*
X124077504Y-53932152D01*
X124648933Y-54503580D01*
X124029885Y-54503580D01*
X182212380Y-89790095D02*
X183021904Y-89790095D01*
X183117142Y-89837714D01*
X183164761Y-89885333D01*
X183212380Y-89980571D01*
X183212380Y-90171047D01*
X183164761Y-90266285D01*
X183117142Y-90313904D01*
X183021904Y-90361523D01*
X182212380Y-90361523D01*
X182545714Y-91266285D02*
X183212380Y-91266285D01*
X182164761Y-91028190D02*
X182879047Y-90790095D01*
X182879047Y-91409142D01*
X119546666Y-103207142D02*
X119594285Y-103254761D01*
X119737142Y-103302380D01*
X119832380Y-103302380D01*
X119975238Y-103254761D01*
X120070476Y-103159523D01*
X120118095Y-103064285D01*
X120165714Y-102873809D01*
X120165714Y-102730952D01*
X120118095Y-102540476D01*
X120070476Y-102445238D01*
X119975238Y-102350000D01*
X119832380Y-102302380D01*
X119737142Y-102302380D01*
X119594285Y-102350000D01*
X119546666Y-102397619D01*
X119165714Y-102397619D02*
X119118095Y-102350000D01*
X119022857Y-102302380D01*
X118784761Y-102302380D01*
X118689523Y-102350000D01*
X118641904Y-102397619D01*
X118594285Y-102492857D01*
X118594285Y-102588095D01*
X118641904Y-102730952D01*
X119213333Y-103302380D01*
X118594285Y-103302380D01*
X111926666Y-57254380D02*
X112260000Y-56778190D01*
X112498095Y-57254380D02*
X112498095Y-56254380D01*
X112117142Y-56254380D01*
X112021904Y-56302000D01*
X111974285Y-56349619D01*
X111926666Y-56444857D01*
X111926666Y-56587714D01*
X111974285Y-56682952D01*
X112021904Y-56730571D01*
X112117142Y-56778190D01*
X112498095Y-56778190D01*
X111069523Y-56254380D02*
X111260000Y-56254380D01*
X111355238Y-56302000D01*
X111402857Y-56349619D01*
X111498095Y-56492476D01*
X111545714Y-56682952D01*
X111545714Y-57063904D01*
X111498095Y-57159142D01*
X111450476Y-57206761D01*
X111355238Y-57254380D01*
X111164761Y-57254380D01*
X111069523Y-57206761D01*
X111021904Y-57159142D01*
X110974285Y-57063904D01*
X110974285Y-56825809D01*
X111021904Y-56730571D01*
X111069523Y-56682952D01*
X111164761Y-56635333D01*
X111355238Y-56635333D01*
X111450476Y-56682952D01*
X111498095Y-56730571D01*
X111545714Y-56825809D01*
X112028666Y-59794380D02*
X112362000Y-59318190D01*
X112600095Y-59794380D02*
X112600095Y-58794380D01*
X112219142Y-58794380D01*
X112123904Y-58842000D01*
X112076285Y-58889619D01*
X112028666Y-58984857D01*
X112028666Y-59127714D01*
X112076285Y-59222952D01*
X112123904Y-59270571D01*
X112219142Y-59318190D01*
X112600095Y-59318190D01*
X111695333Y-58794380D02*
X111028666Y-58794380D01*
X111457238Y-59794380D01*
M02*
