G04 #@! TF.FileFunction,Legend,Top*
%FSLAX46Y46*%
G04 Gerber Fmt 4.6, Leading zero omitted, Abs format (unit mm)*
G04 Created by KiCad (PCBNEW 4.0.7) date 09/12/18 02:46:14*
%MOMM*%
%LPD*%
G01*
G04 APERTURE LIST*
%ADD10C,0.100000*%
%ADD11C,0.120000*%
%ADD12C,0.010000*%
%ADD13C,0.150000*%
G04 APERTURE END LIST*
D10*
D11*
X132147000Y-82312000D02*
G75*
G02X132147000Y-84312000I0J-1000000D01*
G01*
X132147000Y-84312000D02*
X132147000Y-89772000D01*
X132147000Y-89772000D02*
X167827000Y-89772000D01*
X167827000Y-89772000D02*
X167827000Y-76852000D01*
X167827000Y-76852000D02*
X132147000Y-76852000D01*
X132147000Y-76852000D02*
X132147000Y-82312000D01*
D12*
G36*
X147434026Y-93710476D02*
X147478120Y-93868870D01*
X147561849Y-94168013D01*
X147678969Y-94585656D01*
X147823233Y-95099550D01*
X147988398Y-95687445D01*
X148168218Y-96327090D01*
X148272484Y-96697800D01*
X149022736Y-99364800D01*
X151069710Y-99387478D01*
X151804341Y-99391651D01*
X152401503Y-99386593D01*
X152853134Y-99372545D01*
X153151173Y-99349749D01*
X153283275Y-99320999D01*
X153402221Y-99173999D01*
X153451702Y-98945861D01*
X153425065Y-98712699D01*
X153348267Y-98577400D01*
X153229759Y-98532788D01*
X152970926Y-98501362D01*
X152562526Y-98482456D01*
X151995316Y-98475406D01*
X151930100Y-98475327D01*
X151447753Y-98469559D01*
X151000980Y-98453995D01*
X150628453Y-98430722D01*
X150368842Y-98401825D01*
X150298172Y-98387271D01*
X149820407Y-98169103D01*
X149392907Y-97802120D01*
X149035197Y-97304027D01*
X148970066Y-97183043D01*
X148810736Y-96845682D01*
X148722656Y-96568870D01*
X148685652Y-96270624D01*
X148679326Y-96001464D01*
X148746721Y-95342556D01*
X148955524Y-94773585D01*
X149308996Y-94289602D01*
X149810398Y-93885663D01*
X150222373Y-93661243D01*
X150698200Y-93438133D01*
X154084867Y-93415827D01*
X157471534Y-93393522D01*
X158233534Y-94456096D01*
X158995534Y-95518669D01*
X159180713Y-95288016D01*
X159302990Y-95126547D01*
X159493981Y-94863782D01*
X159726264Y-94537819D01*
X159942713Y-94229433D01*
X160519534Y-93401503D01*
X161768367Y-93398651D01*
X162206392Y-93400588D01*
X162577277Y-93407827D01*
X162851510Y-93419349D01*
X162999580Y-93434134D01*
X163017200Y-93441793D01*
X162970061Y-93520104D01*
X162837016Y-93718084D01*
X162630625Y-94017641D01*
X162363447Y-94400682D01*
X162048043Y-94849115D01*
X161696971Y-95344846D01*
X161661242Y-95395120D01*
X161283038Y-95933531D01*
X160956484Y-96411185D01*
X160691578Y-96812612D01*
X160498321Y-97122340D01*
X160386711Y-97324897D01*
X160364023Y-97402294D01*
X160426503Y-97495117D01*
X160573735Y-97707604D01*
X160792704Y-98021161D01*
X161070393Y-98417198D01*
X161393784Y-98877121D01*
X161749860Y-99382339D01*
X161804648Y-99459976D01*
X162161300Y-99967077D01*
X162483805Y-100429085D01*
X162759802Y-100828013D01*
X162976931Y-101145875D01*
X163122831Y-101364684D01*
X163185143Y-101466455D01*
X163186534Y-101470809D01*
X163106847Y-101489598D01*
X162887691Y-101505455D01*
X162558922Y-101517086D01*
X162150397Y-101523193D01*
X161966299Y-101523800D01*
X160746064Y-101523799D01*
X160341737Y-100952300D01*
X160088115Y-100596731D01*
X159792541Y-100186643D01*
X159513838Y-99803602D01*
X159481543Y-99759542D01*
X159025675Y-99138285D01*
X158211893Y-100331042D01*
X157398110Y-101523800D01*
X156143655Y-101523800D01*
X155704577Y-101520915D01*
X155332573Y-101512971D01*
X155057092Y-101501032D01*
X154907580Y-101486164D01*
X154889200Y-101478426D01*
X154935808Y-101399949D01*
X155067404Y-101200984D01*
X155271642Y-100899612D01*
X155536178Y-100513909D01*
X155848670Y-100061956D01*
X156196772Y-99561831D01*
X156244956Y-99492847D01*
X156599858Y-98983069D01*
X156923370Y-98514786D01*
X157202566Y-98106995D01*
X157424521Y-97778693D01*
X157576310Y-97548877D01*
X157645008Y-97436545D01*
X157646903Y-97432268D01*
X157618897Y-97319360D01*
X157508014Y-97098293D01*
X157330497Y-96798200D01*
X157102592Y-96448210D01*
X157078060Y-96412181D01*
X156463026Y-95512466D01*
X153734827Y-95512466D01*
X152944573Y-95513071D01*
X152307218Y-95516564D01*
X151806326Y-95525462D01*
X151425464Y-95542282D01*
X151148197Y-95569542D01*
X150958090Y-95609757D01*
X150838708Y-95665445D01*
X150773618Y-95739124D01*
X150746385Y-95833310D01*
X150740573Y-95950521D01*
X150740533Y-95971058D01*
X150758867Y-96138416D01*
X150828312Y-96261634D01*
X150970533Y-96347198D01*
X151207193Y-96401594D01*
X151559959Y-96431308D01*
X152050493Y-96442825D01*
X152319618Y-96443799D01*
X152948703Y-96452183D01*
X153440931Y-96482594D01*
X153828188Y-96542921D01*
X154142361Y-96641055D01*
X154415334Y-96784884D01*
X154678993Y-96982298D01*
X154752750Y-97045836D01*
X155185958Y-97531196D01*
X155467364Y-98091348D01*
X155597337Y-98727130D01*
X155607115Y-98983800D01*
X155528352Y-99651926D01*
X155301910Y-100247873D01*
X154936775Y-100756989D01*
X154441931Y-101164625D01*
X154180124Y-101310660D01*
X153740196Y-101525897D01*
X150572180Y-101503682D01*
X147404163Y-101481466D01*
X146937975Y-99728229D01*
X146799658Y-99214492D01*
X146674820Y-98763029D01*
X146570139Y-98396999D01*
X146492294Y-98139564D01*
X146447962Y-98013883D01*
X146441240Y-98005537D01*
X146414039Y-98089228D01*
X146351211Y-98307338D01*
X146260691Y-98630653D01*
X146150413Y-99029961D01*
X146028312Y-99476046D01*
X145902323Y-99939695D01*
X145780382Y-100391693D01*
X145670422Y-100802826D01*
X145580379Y-101143880D01*
X145518187Y-101385641D01*
X145491782Y-101498894D01*
X145491392Y-101502633D01*
X145412354Y-101511156D01*
X145198244Y-101518038D01*
X144883323Y-101522498D01*
X144563867Y-101523800D01*
X143636534Y-101523800D01*
X143478572Y-100994633D01*
X143397165Y-100715048D01*
X143284803Y-100319815D01*
X143154944Y-99856695D01*
X143021043Y-99373446D01*
X142989577Y-99258966D01*
X142870642Y-98835842D01*
X142764560Y-98477717D01*
X142680199Y-98213080D01*
X142626429Y-98070421D01*
X142614372Y-98053603D01*
X142582316Y-98132345D01*
X142517780Y-98351824D01*
X142427189Y-98687974D01*
X142316968Y-99116728D01*
X142193543Y-99614019D01*
X142150960Y-99789270D01*
X141731720Y-101523800D01*
X140639068Y-101523800D01*
X140171743Y-101519942D01*
X139853833Y-101507047D01*
X139665565Y-101483131D01*
X139587169Y-101446210D01*
X139584282Y-101417966D01*
X139612062Y-101316896D01*
X139677072Y-101068034D01*
X139775122Y-100687779D01*
X139902018Y-100192529D01*
X140053568Y-99598680D01*
X140225582Y-98922632D01*
X140413866Y-98180781D01*
X140614229Y-97389526D01*
X140623223Y-97353966D01*
X141624299Y-93395800D01*
X142578377Y-93395800D01*
X142997703Y-93398713D01*
X143277370Y-93410388D01*
X143446997Y-93435228D01*
X143536201Y-93477635D01*
X143574601Y-93542011D01*
X143575174Y-93543966D01*
X143610379Y-93668899D01*
X143683158Y-93929204D01*
X143785762Y-94297097D01*
X143910444Y-94744793D01*
X144049456Y-95244510D01*
X144063083Y-95293524D01*
X144200816Y-95775642D01*
X144325682Y-96187633D01*
X144430298Y-96507158D01*
X144507287Y-96711878D01*
X144549266Y-96779453D01*
X144552586Y-96775190D01*
X144589170Y-96659847D01*
X144665041Y-96408868D01*
X144772176Y-96049207D01*
X144902551Y-95607818D01*
X145048143Y-95111654D01*
X145067107Y-95046800D01*
X145537314Y-93438133D01*
X146441567Y-93414143D01*
X147345819Y-93390152D01*
X147434026Y-93710476D01*
X147434026Y-93710476D01*
G37*
X147434026Y-93710476D02*
X147478120Y-93868870D01*
X147561849Y-94168013D01*
X147678969Y-94585656D01*
X147823233Y-95099550D01*
X147988398Y-95687445D01*
X148168218Y-96327090D01*
X148272484Y-96697800D01*
X149022736Y-99364800D01*
X151069710Y-99387478D01*
X151804341Y-99391651D01*
X152401503Y-99386593D01*
X152853134Y-99372545D01*
X153151173Y-99349749D01*
X153283275Y-99320999D01*
X153402221Y-99173999D01*
X153451702Y-98945861D01*
X153425065Y-98712699D01*
X153348267Y-98577400D01*
X153229759Y-98532788D01*
X152970926Y-98501362D01*
X152562526Y-98482456D01*
X151995316Y-98475406D01*
X151930100Y-98475327D01*
X151447753Y-98469559D01*
X151000980Y-98453995D01*
X150628453Y-98430722D01*
X150368842Y-98401825D01*
X150298172Y-98387271D01*
X149820407Y-98169103D01*
X149392907Y-97802120D01*
X149035197Y-97304027D01*
X148970066Y-97183043D01*
X148810736Y-96845682D01*
X148722656Y-96568870D01*
X148685652Y-96270624D01*
X148679326Y-96001464D01*
X148746721Y-95342556D01*
X148955524Y-94773585D01*
X149308996Y-94289602D01*
X149810398Y-93885663D01*
X150222373Y-93661243D01*
X150698200Y-93438133D01*
X154084867Y-93415827D01*
X157471534Y-93393522D01*
X158233534Y-94456096D01*
X158995534Y-95518669D01*
X159180713Y-95288016D01*
X159302990Y-95126547D01*
X159493981Y-94863782D01*
X159726264Y-94537819D01*
X159942713Y-94229433D01*
X160519534Y-93401503D01*
X161768367Y-93398651D01*
X162206392Y-93400588D01*
X162577277Y-93407827D01*
X162851510Y-93419349D01*
X162999580Y-93434134D01*
X163017200Y-93441793D01*
X162970061Y-93520104D01*
X162837016Y-93718084D01*
X162630625Y-94017641D01*
X162363447Y-94400682D01*
X162048043Y-94849115D01*
X161696971Y-95344846D01*
X161661242Y-95395120D01*
X161283038Y-95933531D01*
X160956484Y-96411185D01*
X160691578Y-96812612D01*
X160498321Y-97122340D01*
X160386711Y-97324897D01*
X160364023Y-97402294D01*
X160426503Y-97495117D01*
X160573735Y-97707604D01*
X160792704Y-98021161D01*
X161070393Y-98417198D01*
X161393784Y-98877121D01*
X161749860Y-99382339D01*
X161804648Y-99459976D01*
X162161300Y-99967077D01*
X162483805Y-100429085D01*
X162759802Y-100828013D01*
X162976931Y-101145875D01*
X163122831Y-101364684D01*
X163185143Y-101466455D01*
X163186534Y-101470809D01*
X163106847Y-101489598D01*
X162887691Y-101505455D01*
X162558922Y-101517086D01*
X162150397Y-101523193D01*
X161966299Y-101523800D01*
X160746064Y-101523799D01*
X160341737Y-100952300D01*
X160088115Y-100596731D01*
X159792541Y-100186643D01*
X159513838Y-99803602D01*
X159481543Y-99759542D01*
X159025675Y-99138285D01*
X158211893Y-100331042D01*
X157398110Y-101523800D01*
X156143655Y-101523800D01*
X155704577Y-101520915D01*
X155332573Y-101512971D01*
X155057092Y-101501032D01*
X154907580Y-101486164D01*
X154889200Y-101478426D01*
X154935808Y-101399949D01*
X155067404Y-101200984D01*
X155271642Y-100899612D01*
X155536178Y-100513909D01*
X155848670Y-100061956D01*
X156196772Y-99561831D01*
X156244956Y-99492847D01*
X156599858Y-98983069D01*
X156923370Y-98514786D01*
X157202566Y-98106995D01*
X157424521Y-97778693D01*
X157576310Y-97548877D01*
X157645008Y-97436545D01*
X157646903Y-97432268D01*
X157618897Y-97319360D01*
X157508014Y-97098293D01*
X157330497Y-96798200D01*
X157102592Y-96448210D01*
X157078060Y-96412181D01*
X156463026Y-95512466D01*
X153734827Y-95512466D01*
X152944573Y-95513071D01*
X152307218Y-95516564D01*
X151806326Y-95525462D01*
X151425464Y-95542282D01*
X151148197Y-95569542D01*
X150958090Y-95609757D01*
X150838708Y-95665445D01*
X150773618Y-95739124D01*
X150746385Y-95833310D01*
X150740573Y-95950521D01*
X150740533Y-95971058D01*
X150758867Y-96138416D01*
X150828312Y-96261634D01*
X150970533Y-96347198D01*
X151207193Y-96401594D01*
X151559959Y-96431308D01*
X152050493Y-96442825D01*
X152319618Y-96443799D01*
X152948703Y-96452183D01*
X153440931Y-96482594D01*
X153828188Y-96542921D01*
X154142361Y-96641055D01*
X154415334Y-96784884D01*
X154678993Y-96982298D01*
X154752750Y-97045836D01*
X155185958Y-97531196D01*
X155467364Y-98091348D01*
X155597337Y-98727130D01*
X155607115Y-98983800D01*
X155528352Y-99651926D01*
X155301910Y-100247873D01*
X154936775Y-100756989D01*
X154441931Y-101164625D01*
X154180124Y-101310660D01*
X153740196Y-101525897D01*
X150572180Y-101503682D01*
X147404163Y-101481466D01*
X146937975Y-99728229D01*
X146799658Y-99214492D01*
X146674820Y-98763029D01*
X146570139Y-98396999D01*
X146492294Y-98139564D01*
X146447962Y-98013883D01*
X146441240Y-98005537D01*
X146414039Y-98089228D01*
X146351211Y-98307338D01*
X146260691Y-98630653D01*
X146150413Y-99029961D01*
X146028312Y-99476046D01*
X145902323Y-99939695D01*
X145780382Y-100391693D01*
X145670422Y-100802826D01*
X145580379Y-101143880D01*
X145518187Y-101385641D01*
X145491782Y-101498894D01*
X145491392Y-101502633D01*
X145412354Y-101511156D01*
X145198244Y-101518038D01*
X144883323Y-101522498D01*
X144563867Y-101523800D01*
X143636534Y-101523800D01*
X143478572Y-100994633D01*
X143397165Y-100715048D01*
X143284803Y-100319815D01*
X143154944Y-99856695D01*
X143021043Y-99373446D01*
X142989577Y-99258966D01*
X142870642Y-98835842D01*
X142764560Y-98477717D01*
X142680199Y-98213080D01*
X142626429Y-98070421D01*
X142614372Y-98053603D01*
X142582316Y-98132345D01*
X142517780Y-98351824D01*
X142427189Y-98687974D01*
X142316968Y-99116728D01*
X142193543Y-99614019D01*
X142150960Y-99789270D01*
X141731720Y-101523800D01*
X140639068Y-101523800D01*
X140171743Y-101519942D01*
X139853833Y-101507047D01*
X139665565Y-101483131D01*
X139587169Y-101446210D01*
X139584282Y-101417966D01*
X139612062Y-101316896D01*
X139677072Y-101068034D01*
X139775122Y-100687779D01*
X139902018Y-100192529D01*
X140053568Y-99598680D01*
X140225582Y-98922632D01*
X140413866Y-98180781D01*
X140614229Y-97389526D01*
X140623223Y-97353966D01*
X141624299Y-93395800D01*
X142578377Y-93395800D01*
X142997703Y-93398713D01*
X143277370Y-93410388D01*
X143446997Y-93435228D01*
X143536201Y-93477635D01*
X143574601Y-93542011D01*
X143575174Y-93543966D01*
X143610379Y-93668899D01*
X143683158Y-93929204D01*
X143785762Y-94297097D01*
X143910444Y-94744793D01*
X144049456Y-95244510D01*
X144063083Y-95293524D01*
X144200816Y-95775642D01*
X144325682Y-96187633D01*
X144430298Y-96507158D01*
X144507287Y-96711878D01*
X144549266Y-96779453D01*
X144552586Y-96775190D01*
X144589170Y-96659847D01*
X144665041Y-96408868D01*
X144772176Y-96049207D01*
X144902551Y-95607818D01*
X145048143Y-95111654D01*
X145067107Y-95046800D01*
X145537314Y-93438133D01*
X146441567Y-93414143D01*
X147345819Y-93390152D01*
X147434026Y-93710476D01*
D13*
X136448895Y-83170781D02*
X136448895Y-83980305D01*
X136496514Y-84075543D01*
X136544133Y-84123162D01*
X136639371Y-84170781D01*
X136829848Y-84170781D01*
X136925086Y-84123162D01*
X136972705Y-84075543D01*
X137020324Y-83980305D01*
X137020324Y-83170781D01*
X138020324Y-84170781D02*
X137448895Y-84170781D01*
X137734609Y-84170781D02*
X137734609Y-83170781D01*
X137639371Y-83313638D01*
X137544133Y-83408876D01*
X137448895Y-83456495D01*
M02*
