G04 #@! TF.FileFunction,Copper,L2,Bot,Signal*
%FSLAX46Y46*%
G04 Gerber Fmt 4.6, Leading zero omitted, Abs format (unit mm)*
G04 Created by KiCad (PCBNEW 4.0.7) date 02/21/19 10:09:24*
%MOMM*%
%LPD*%
G01*
G04 APERTURE LIST*
%ADD10C,0.100000*%
%ADD11C,1.524000*%
%ADD12R,1.800000X1.800000*%
%ADD13O,1.800000X1.800000*%
%ADD14C,0.250000*%
%ADD15C,0.254000*%
G04 APERTURE END LIST*
D10*
D11*
X177711000Y-102464000D03*
X177711000Y-107544000D03*
X175171000Y-102464000D03*
X175171000Y-107544000D03*
X172631000Y-102464000D03*
X172631000Y-107544000D03*
X170091000Y-102464000D03*
X170091000Y-107544000D03*
X167551000Y-102464000D03*
X167551000Y-107544000D03*
X165011000Y-102464000D03*
X165011000Y-107544000D03*
X162471000Y-102464000D03*
X162471000Y-107544000D03*
X159931000Y-102464000D03*
X159931000Y-107544000D03*
X157391000Y-102464000D03*
X157391000Y-107544000D03*
X154851000Y-102464000D03*
X154851000Y-107544000D03*
X152311000Y-102464000D03*
X152311000Y-107544000D03*
X149771000Y-102464000D03*
X149771000Y-107544000D03*
X147231000Y-102464000D03*
X147231000Y-107544000D03*
X144691000Y-102464000D03*
X144691000Y-107544000D03*
X142151000Y-102464000D03*
X142151000Y-107544000D03*
X139611000Y-102464000D03*
X139611000Y-107544000D03*
X137071000Y-102464000D03*
X137071000Y-107544000D03*
X134531000Y-102464000D03*
X134531000Y-107544000D03*
X131991000Y-102464000D03*
X131991000Y-107544000D03*
X129451000Y-102464000D03*
X129451000Y-107544000D03*
X126911000Y-102464000D03*
X126911000Y-107544000D03*
X124371000Y-102464000D03*
X124371000Y-107544000D03*
X121831000Y-102464000D03*
X121831000Y-107544000D03*
X119291000Y-102464000D03*
X119291000Y-107544000D03*
X116751000Y-102464000D03*
X116751000Y-107544000D03*
D12*
X181496000Y-97345500D03*
D13*
X148476000Y-112585500D03*
X178956000Y-97345500D03*
X151016000Y-112585500D03*
X176416000Y-97345500D03*
X153556000Y-112585500D03*
X173876000Y-97345500D03*
X156096000Y-112585500D03*
X171336000Y-97345500D03*
X158636000Y-112585500D03*
X168796000Y-97345500D03*
X161176000Y-112585500D03*
X166256000Y-97345500D03*
X163716000Y-112585500D03*
X163716000Y-97345500D03*
X166256000Y-112585500D03*
X161176000Y-97345500D03*
X168796000Y-112585500D03*
X158636000Y-97345500D03*
X171336000Y-112585500D03*
X156096000Y-97345500D03*
X173876000Y-112585500D03*
X153556000Y-97345500D03*
X176416000Y-112585500D03*
X151016000Y-97345500D03*
X178956000Y-112585500D03*
X148476000Y-97345500D03*
X181496000Y-112585500D03*
D14*
X173512300Y-109202700D02*
X175171000Y-107544000D01*
X165324600Y-109202700D02*
X173512300Y-109202700D01*
X162401300Y-112126000D02*
X165324600Y-109202700D01*
X162401300Y-112585500D02*
X162401300Y-112126000D01*
X161176000Y-112585500D02*
X162401300Y-112585500D01*
X156121000Y-103734000D02*
X152311000Y-107544000D01*
X156121000Y-102178500D02*
X156121000Y-103734000D01*
X159728700Y-98570800D02*
X156121000Y-102178500D01*
X171885000Y-98570800D02*
X159728700Y-98570800D01*
X172650700Y-97805100D02*
X171885000Y-98570800D01*
X172650700Y-97345500D02*
X172650700Y-97805100D01*
X173876000Y-97345500D02*
X172650700Y-97345500D01*
X149771000Y-100924400D02*
X149771000Y-102464000D01*
X152286000Y-98409400D02*
X149771000Y-100924400D01*
X152286000Y-96874100D02*
X152286000Y-98409400D01*
X153529800Y-95630300D02*
X152286000Y-96874100D01*
X176475000Y-95630300D02*
X153529800Y-95630300D01*
X177730700Y-96886000D02*
X176475000Y-95630300D01*
X177730700Y-97345500D02*
X177730700Y-96886000D01*
X178956000Y-97345500D02*
X177730700Y-97345500D01*
X158478400Y-106456600D02*
X157391000Y-107544000D01*
X170228800Y-106456600D02*
X158478400Y-106456600D01*
X173901000Y-102784400D02*
X170228800Y-106456600D01*
X173901000Y-102187900D02*
X173901000Y-102784400D01*
X177518100Y-98570800D02*
X173901000Y-102187900D01*
X179505000Y-98570800D02*
X177518100Y-98570800D01*
X180270700Y-97805100D02*
X179505000Y-98570800D01*
X180270700Y-97345500D02*
X180270700Y-97805100D01*
X181496000Y-97345500D02*
X180270700Y-97345500D01*
X148901700Y-109214700D02*
X147231000Y-107544000D01*
X157014900Y-109214700D02*
X148901700Y-109214700D01*
X159906000Y-112105800D02*
X157014900Y-109214700D01*
X159906000Y-113112800D02*
X159906000Y-112105800D01*
X160630500Y-113837300D02*
X159906000Y-113112800D01*
X174398400Y-113837300D02*
X160630500Y-113837300D01*
X175190700Y-113045000D02*
X174398400Y-113837300D01*
X175190700Y-112585500D02*
X175190700Y-113045000D01*
X176416000Y-112585500D02*
X175190700Y-112585500D01*
X158636000Y-97345500D02*
X157410700Y-97345500D01*
X146532300Y-105702700D02*
X144691000Y-107544000D01*
X150614200Y-105702700D02*
X146532300Y-105702700D01*
X153581000Y-102735900D02*
X150614200Y-105702700D01*
X153581000Y-102136300D02*
X153581000Y-102735900D01*
X157410700Y-98306600D02*
X153581000Y-102136300D01*
X157410700Y-97345500D02*
X157410700Y-98306600D01*
X146111000Y-103584000D02*
X142151000Y-107544000D01*
X150198400Y-103584000D02*
X146111000Y-103584000D01*
X151041000Y-102741400D02*
X150198400Y-103584000D01*
X151041000Y-101638900D02*
X151041000Y-102741400D01*
X154826000Y-97853900D02*
X151041000Y-101638900D01*
X154826000Y-96855200D02*
X154826000Y-97853900D01*
X155600100Y-96081100D02*
X154826000Y-96855200D01*
X161680300Y-96081100D02*
X155600100Y-96081100D01*
X162490700Y-96891500D02*
X161680300Y-96081100D01*
X162490700Y-97345500D02*
X162490700Y-96891500D01*
X163716000Y-97345500D02*
X162490700Y-97345500D01*
X135618400Y-106456600D02*
X134531000Y-107544000D01*
X139710800Y-106456600D02*
X135618400Y-106456600D01*
X143421000Y-102746400D02*
X139710800Y-106456600D01*
X143421000Y-102161900D02*
X143421000Y-102746400D01*
X147012100Y-98570800D02*
X143421000Y-102161900D01*
X149025000Y-98570800D02*
X147012100Y-98570800D01*
X149790700Y-97805100D02*
X149025000Y-98570800D01*
X149790700Y-97345500D02*
X149790700Y-97805100D01*
X151016000Y-97345500D02*
X149790700Y-97345500D01*
X133443600Y-103916600D02*
X131991000Y-102464000D01*
X133443600Y-108026600D02*
X133443600Y-103916600D01*
X135346900Y-109929900D02*
X133443600Y-108026600D01*
X150134600Y-109929900D02*
X135346900Y-109929900D01*
X152330700Y-112126000D02*
X150134600Y-109929900D01*
X152330700Y-112585500D02*
X152330700Y-112126000D01*
X153556000Y-112585500D02*
X152330700Y-112585500D01*
X151016000Y-112585500D02*
X149790700Y-112585500D01*
X135807200Y-111360200D02*
X131991000Y-107544000D01*
X149025000Y-111360200D02*
X135807200Y-111360200D01*
X149790700Y-112125900D02*
X149025000Y-111360200D01*
X149790700Y-112585500D02*
X149790700Y-112125900D01*
X130721000Y-103734000D02*
X129451000Y-102464000D01*
X130721000Y-107815100D02*
X130721000Y-103734000D01*
X136722100Y-113816200D02*
X130721000Y-107815100D01*
X156639500Y-113816200D02*
X136722100Y-113816200D01*
X157410700Y-113045000D02*
X156639500Y-113816200D01*
X157410700Y-112585500D02*
X157410700Y-113045000D01*
X158636000Y-112585500D02*
X157410700Y-112585500D01*
X122918400Y-103551400D02*
X121831000Y-102464000D01*
X124513500Y-103551400D02*
X122918400Y-103551400D01*
X128181000Y-107218900D02*
X124513500Y-103551400D01*
X128181000Y-107815100D02*
X128181000Y-107218900D01*
X134653600Y-114287700D02*
X128181000Y-107815100D01*
X179028000Y-114287700D02*
X134653600Y-114287700D01*
X180270700Y-113045000D02*
X179028000Y-114287700D01*
X180270700Y-112585500D02*
X180270700Y-113045000D01*
X181496000Y-112585500D02*
X180270700Y-112585500D01*
X176282200Y-103575200D02*
X175171000Y-102464000D01*
X176282200Y-107979700D02*
X176282200Y-103575200D01*
X172901700Y-111360200D02*
X176282200Y-107979700D01*
X168247000Y-111360200D02*
X172901700Y-111360200D01*
X167481300Y-112125900D02*
X168247000Y-111360200D01*
X167481300Y-112585500D02*
X167481300Y-112125900D01*
X166256000Y-112585500D02*
X167481300Y-112585500D01*
D15*
G36*
X183574989Y-94842152D02*
X184164170Y-95235830D01*
X184557848Y-95825011D01*
X184710000Y-96589931D01*
X184710000Y-114230069D01*
X184557848Y-114994989D01*
X184164170Y-115584170D01*
X183574989Y-115977848D01*
X182810069Y-116130000D01*
X111829931Y-116130000D01*
X111065011Y-115977848D01*
X110475830Y-115584170D01*
X110082152Y-114994989D01*
X109930000Y-114230069D01*
X109930000Y-102740661D01*
X115353758Y-102740661D01*
X115565990Y-103254303D01*
X115958630Y-103647629D01*
X116471900Y-103860757D01*
X117027661Y-103861242D01*
X117541303Y-103649010D01*
X117934629Y-103256370D01*
X118020949Y-103048488D01*
X118105990Y-103254303D01*
X118498630Y-103647629D01*
X119011900Y-103860757D01*
X119567661Y-103861242D01*
X120081303Y-103649010D01*
X120474629Y-103256370D01*
X120560949Y-103048488D01*
X120645990Y-103254303D01*
X121038630Y-103647629D01*
X121551900Y-103860757D01*
X122107661Y-103861242D01*
X122140055Y-103847857D01*
X122380999Y-104088801D01*
X122627561Y-104253548D01*
X122918400Y-104311400D01*
X124198698Y-104311400D01*
X126209568Y-106322270D01*
X126120697Y-106358990D01*
X125727371Y-106751630D01*
X125641051Y-106959512D01*
X125556010Y-106753697D01*
X125163370Y-106360371D01*
X124650100Y-106147243D01*
X124094339Y-106146758D01*
X123580697Y-106358990D01*
X123187371Y-106751630D01*
X123101051Y-106959512D01*
X123016010Y-106753697D01*
X122623370Y-106360371D01*
X122110100Y-106147243D01*
X121554339Y-106146758D01*
X121040697Y-106358990D01*
X120647371Y-106751630D01*
X120561051Y-106959512D01*
X120476010Y-106753697D01*
X120083370Y-106360371D01*
X119570100Y-106147243D01*
X119014339Y-106146758D01*
X118500697Y-106358990D01*
X118107371Y-106751630D01*
X118021051Y-106959512D01*
X117936010Y-106753697D01*
X117543370Y-106360371D01*
X117030100Y-106147243D01*
X116474339Y-106146758D01*
X115960697Y-106358990D01*
X115567371Y-106751630D01*
X115354243Y-107264900D01*
X115353758Y-107820661D01*
X115565990Y-108334303D01*
X115958630Y-108727629D01*
X116471900Y-108940757D01*
X117027661Y-108941242D01*
X117541303Y-108729010D01*
X117934629Y-108336370D01*
X118020949Y-108128488D01*
X118105990Y-108334303D01*
X118498630Y-108727629D01*
X119011900Y-108940757D01*
X119567661Y-108941242D01*
X120081303Y-108729010D01*
X120474629Y-108336370D01*
X120560949Y-108128488D01*
X120645990Y-108334303D01*
X121038630Y-108727629D01*
X121551900Y-108940757D01*
X122107661Y-108941242D01*
X122621303Y-108729010D01*
X123014629Y-108336370D01*
X123100949Y-108128488D01*
X123185990Y-108334303D01*
X123578630Y-108727629D01*
X124091900Y-108940757D01*
X124647661Y-108941242D01*
X125161303Y-108729010D01*
X125554629Y-108336370D01*
X125640949Y-108128488D01*
X125725990Y-108334303D01*
X126118630Y-108727629D01*
X126631900Y-108940757D01*
X127187661Y-108941242D01*
X127701303Y-108729010D01*
X127860845Y-108569747D01*
X134116199Y-114825101D01*
X134362761Y-114989848D01*
X134653600Y-115047700D01*
X179028000Y-115047700D01*
X179318839Y-114989848D01*
X179565401Y-114825101D01*
X180577797Y-113812705D01*
X180908581Y-114033727D01*
X181496000Y-114150572D01*
X182083419Y-114033727D01*
X182581409Y-113700981D01*
X182914155Y-113202991D01*
X183031000Y-112615572D01*
X183031000Y-112555428D01*
X182914155Y-111968009D01*
X182581409Y-111470019D01*
X182083419Y-111137273D01*
X181496000Y-111020428D01*
X180908581Y-111137273D01*
X180410591Y-111470019D01*
X180226000Y-111746279D01*
X180041409Y-111470019D01*
X179543419Y-111137273D01*
X178956000Y-111020428D01*
X178368581Y-111137273D01*
X177870591Y-111470019D01*
X177686000Y-111746279D01*
X177501409Y-111470019D01*
X177003419Y-111137273D01*
X176416000Y-111020428D01*
X175828581Y-111137273D01*
X175330591Y-111470019D01*
X175146000Y-111746279D01*
X174961409Y-111470019D01*
X174463419Y-111137273D01*
X174243228Y-111093474D01*
X176763987Y-108572715D01*
X176918630Y-108727629D01*
X177431900Y-108940757D01*
X177987661Y-108941242D01*
X178501303Y-108729010D01*
X178894629Y-108336370D01*
X179107757Y-107823100D01*
X179108242Y-107267339D01*
X178896010Y-106753697D01*
X178503370Y-106360371D01*
X177990100Y-106147243D01*
X177434339Y-106146758D01*
X177042200Y-106308786D01*
X177042200Y-103698940D01*
X177431900Y-103860757D01*
X177987661Y-103861242D01*
X178501303Y-103649010D01*
X178894629Y-103256370D01*
X179107757Y-102743100D01*
X179108242Y-102187339D01*
X178896010Y-101673697D01*
X178503370Y-101280371D01*
X177990100Y-101067243D01*
X177434339Y-101066758D01*
X176920697Y-101278990D01*
X176527371Y-101671630D01*
X176441051Y-101879512D01*
X176356010Y-101673697D01*
X175963370Y-101280371D01*
X175906815Y-101256887D01*
X177832902Y-99330800D01*
X179505000Y-99330800D01*
X179795839Y-99272948D01*
X180042401Y-99108201D01*
X180323056Y-98827546D01*
X180344110Y-98841931D01*
X180596000Y-98892940D01*
X182396000Y-98892940D01*
X182631317Y-98848662D01*
X182847441Y-98709590D01*
X182992431Y-98497390D01*
X183043440Y-98245500D01*
X183043440Y-96445500D01*
X182999162Y-96210183D01*
X182860090Y-95994059D01*
X182647890Y-95849069D01*
X182396000Y-95798060D01*
X180596000Y-95798060D01*
X180360683Y-95842338D01*
X180144559Y-95981410D01*
X179999569Y-96193610D01*
X179998061Y-96201055D01*
X179543419Y-95897273D01*
X178956000Y-95780428D01*
X178368581Y-95897273D01*
X178037797Y-96118295D01*
X177012401Y-95092899D01*
X176765839Y-94928152D01*
X176475000Y-94870300D01*
X153529800Y-94870300D01*
X153238961Y-94928152D01*
X152992399Y-95092899D01*
X151953865Y-96131433D01*
X151603419Y-95897273D01*
X151016000Y-95780428D01*
X150428581Y-95897273D01*
X149930591Y-96230019D01*
X149745903Y-96506425D01*
X149713966Y-96437924D01*
X149272417Y-96033260D01*
X148840740Y-95854464D01*
X148603000Y-95975122D01*
X148603000Y-97218500D01*
X148623000Y-97218500D01*
X148623000Y-97472500D01*
X148603000Y-97472500D01*
X148603000Y-97492500D01*
X148349000Y-97492500D01*
X148349000Y-97472500D01*
X147105003Y-97472500D01*
X146984954Y-97710242D01*
X147031836Y-97810800D01*
X147012100Y-97810800D01*
X146721260Y-97868652D01*
X146474699Y-98033399D01*
X143085424Y-101422674D01*
X142943370Y-101280371D01*
X142430100Y-101067243D01*
X141874339Y-101066758D01*
X141360697Y-101278990D01*
X140967371Y-101671630D01*
X140881051Y-101879512D01*
X140796010Y-101673697D01*
X140403370Y-101280371D01*
X139890100Y-101067243D01*
X139334339Y-101066758D01*
X138820697Y-101278990D01*
X138427371Y-101671630D01*
X138341051Y-101879512D01*
X138256010Y-101673697D01*
X137863370Y-101280371D01*
X137350100Y-101067243D01*
X136794339Y-101066758D01*
X136280697Y-101278990D01*
X135887371Y-101671630D01*
X135801051Y-101879512D01*
X135716010Y-101673697D01*
X135323370Y-101280371D01*
X134810100Y-101067243D01*
X134254339Y-101066758D01*
X133740697Y-101278990D01*
X133347371Y-101671630D01*
X133261051Y-101879512D01*
X133176010Y-101673697D01*
X132783370Y-101280371D01*
X132270100Y-101067243D01*
X131714339Y-101066758D01*
X131200697Y-101278990D01*
X130807371Y-101671630D01*
X130721051Y-101879512D01*
X130636010Y-101673697D01*
X130243370Y-101280371D01*
X129730100Y-101067243D01*
X129174339Y-101066758D01*
X128660697Y-101278990D01*
X128267371Y-101671630D01*
X128187605Y-101863727D01*
X128133397Y-101732857D01*
X127891213Y-101663392D01*
X127090605Y-102464000D01*
X127891213Y-103264608D01*
X128133397Y-103195143D01*
X128183509Y-103054682D01*
X128265990Y-103254303D01*
X128658630Y-103647629D01*
X129171900Y-103860757D01*
X129727661Y-103861242D01*
X129760055Y-103847857D01*
X129961000Y-104048802D01*
X129961000Y-106243121D01*
X129730100Y-106147243D01*
X129174339Y-106146758D01*
X128660697Y-106358990D01*
X128528179Y-106491277D01*
X125481115Y-103444213D01*
X126110392Y-103444213D01*
X126179857Y-103686397D01*
X126703302Y-103873144D01*
X127258368Y-103845362D01*
X127642143Y-103686397D01*
X127711608Y-103444213D01*
X126911000Y-102643605D01*
X126110392Y-103444213D01*
X125481115Y-103444213D01*
X125441373Y-103404471D01*
X125466226Y-103379618D01*
X125351215Y-103264607D01*
X125593397Y-103195143D01*
X125637453Y-103071656D01*
X125688603Y-103195143D01*
X125930787Y-103264608D01*
X126731395Y-102464000D01*
X125930787Y-101663392D01*
X125688603Y-101732857D01*
X125644547Y-101856344D01*
X125593397Y-101732857D01*
X125351213Y-101663392D01*
X124550605Y-102464000D01*
X124564748Y-102478143D01*
X124385143Y-102657748D01*
X124371000Y-102643605D01*
X124356858Y-102657748D01*
X124177253Y-102478143D01*
X124191395Y-102464000D01*
X123390787Y-101663392D01*
X123148603Y-101732857D01*
X123098491Y-101873318D01*
X123016010Y-101673697D01*
X122826432Y-101483787D01*
X123570392Y-101483787D01*
X124371000Y-102284395D01*
X125171608Y-101483787D01*
X126110392Y-101483787D01*
X126911000Y-102284395D01*
X127711608Y-101483787D01*
X127642143Y-101241603D01*
X127118698Y-101054856D01*
X126563632Y-101082638D01*
X126179857Y-101241603D01*
X126110392Y-101483787D01*
X125171608Y-101483787D01*
X125102143Y-101241603D01*
X124578698Y-101054856D01*
X124023632Y-101082638D01*
X123639857Y-101241603D01*
X123570392Y-101483787D01*
X122826432Y-101483787D01*
X122623370Y-101280371D01*
X122110100Y-101067243D01*
X121554339Y-101066758D01*
X121040697Y-101278990D01*
X120647371Y-101671630D01*
X120561051Y-101879512D01*
X120476010Y-101673697D01*
X120083370Y-101280371D01*
X119570100Y-101067243D01*
X119014339Y-101066758D01*
X118500697Y-101278990D01*
X118107371Y-101671630D01*
X118021051Y-101879512D01*
X117936010Y-101673697D01*
X117543370Y-101280371D01*
X117030100Y-101067243D01*
X116474339Y-101066758D01*
X115960697Y-101278990D01*
X115567371Y-101671630D01*
X115354243Y-102184900D01*
X115353758Y-102740661D01*
X109930000Y-102740661D01*
X109930000Y-96980758D01*
X146984954Y-96980758D01*
X147105003Y-97218500D01*
X148349000Y-97218500D01*
X148349000Y-95975122D01*
X148111260Y-95854464D01*
X147679583Y-96033260D01*
X147238034Y-96437924D01*
X146984954Y-96980758D01*
X109930000Y-96980758D01*
X109930000Y-96589931D01*
X110082152Y-95825011D01*
X110475830Y-95235830D01*
X111065011Y-94842152D01*
X111829931Y-94690000D01*
X182810069Y-94690000D01*
X183574989Y-94842152D01*
X183574989Y-94842152D01*
G37*
X183574989Y-94842152D02*
X184164170Y-95235830D01*
X184557848Y-95825011D01*
X184710000Y-96589931D01*
X184710000Y-114230069D01*
X184557848Y-114994989D01*
X184164170Y-115584170D01*
X183574989Y-115977848D01*
X182810069Y-116130000D01*
X111829931Y-116130000D01*
X111065011Y-115977848D01*
X110475830Y-115584170D01*
X110082152Y-114994989D01*
X109930000Y-114230069D01*
X109930000Y-102740661D01*
X115353758Y-102740661D01*
X115565990Y-103254303D01*
X115958630Y-103647629D01*
X116471900Y-103860757D01*
X117027661Y-103861242D01*
X117541303Y-103649010D01*
X117934629Y-103256370D01*
X118020949Y-103048488D01*
X118105990Y-103254303D01*
X118498630Y-103647629D01*
X119011900Y-103860757D01*
X119567661Y-103861242D01*
X120081303Y-103649010D01*
X120474629Y-103256370D01*
X120560949Y-103048488D01*
X120645990Y-103254303D01*
X121038630Y-103647629D01*
X121551900Y-103860757D01*
X122107661Y-103861242D01*
X122140055Y-103847857D01*
X122380999Y-104088801D01*
X122627561Y-104253548D01*
X122918400Y-104311400D01*
X124198698Y-104311400D01*
X126209568Y-106322270D01*
X126120697Y-106358990D01*
X125727371Y-106751630D01*
X125641051Y-106959512D01*
X125556010Y-106753697D01*
X125163370Y-106360371D01*
X124650100Y-106147243D01*
X124094339Y-106146758D01*
X123580697Y-106358990D01*
X123187371Y-106751630D01*
X123101051Y-106959512D01*
X123016010Y-106753697D01*
X122623370Y-106360371D01*
X122110100Y-106147243D01*
X121554339Y-106146758D01*
X121040697Y-106358990D01*
X120647371Y-106751630D01*
X120561051Y-106959512D01*
X120476010Y-106753697D01*
X120083370Y-106360371D01*
X119570100Y-106147243D01*
X119014339Y-106146758D01*
X118500697Y-106358990D01*
X118107371Y-106751630D01*
X118021051Y-106959512D01*
X117936010Y-106753697D01*
X117543370Y-106360371D01*
X117030100Y-106147243D01*
X116474339Y-106146758D01*
X115960697Y-106358990D01*
X115567371Y-106751630D01*
X115354243Y-107264900D01*
X115353758Y-107820661D01*
X115565990Y-108334303D01*
X115958630Y-108727629D01*
X116471900Y-108940757D01*
X117027661Y-108941242D01*
X117541303Y-108729010D01*
X117934629Y-108336370D01*
X118020949Y-108128488D01*
X118105990Y-108334303D01*
X118498630Y-108727629D01*
X119011900Y-108940757D01*
X119567661Y-108941242D01*
X120081303Y-108729010D01*
X120474629Y-108336370D01*
X120560949Y-108128488D01*
X120645990Y-108334303D01*
X121038630Y-108727629D01*
X121551900Y-108940757D01*
X122107661Y-108941242D01*
X122621303Y-108729010D01*
X123014629Y-108336370D01*
X123100949Y-108128488D01*
X123185990Y-108334303D01*
X123578630Y-108727629D01*
X124091900Y-108940757D01*
X124647661Y-108941242D01*
X125161303Y-108729010D01*
X125554629Y-108336370D01*
X125640949Y-108128488D01*
X125725990Y-108334303D01*
X126118630Y-108727629D01*
X126631900Y-108940757D01*
X127187661Y-108941242D01*
X127701303Y-108729010D01*
X127860845Y-108569747D01*
X134116199Y-114825101D01*
X134362761Y-114989848D01*
X134653600Y-115047700D01*
X179028000Y-115047700D01*
X179318839Y-114989848D01*
X179565401Y-114825101D01*
X180577797Y-113812705D01*
X180908581Y-114033727D01*
X181496000Y-114150572D01*
X182083419Y-114033727D01*
X182581409Y-113700981D01*
X182914155Y-113202991D01*
X183031000Y-112615572D01*
X183031000Y-112555428D01*
X182914155Y-111968009D01*
X182581409Y-111470019D01*
X182083419Y-111137273D01*
X181496000Y-111020428D01*
X180908581Y-111137273D01*
X180410591Y-111470019D01*
X180226000Y-111746279D01*
X180041409Y-111470019D01*
X179543419Y-111137273D01*
X178956000Y-111020428D01*
X178368581Y-111137273D01*
X177870591Y-111470019D01*
X177686000Y-111746279D01*
X177501409Y-111470019D01*
X177003419Y-111137273D01*
X176416000Y-111020428D01*
X175828581Y-111137273D01*
X175330591Y-111470019D01*
X175146000Y-111746279D01*
X174961409Y-111470019D01*
X174463419Y-111137273D01*
X174243228Y-111093474D01*
X176763987Y-108572715D01*
X176918630Y-108727629D01*
X177431900Y-108940757D01*
X177987661Y-108941242D01*
X178501303Y-108729010D01*
X178894629Y-108336370D01*
X179107757Y-107823100D01*
X179108242Y-107267339D01*
X178896010Y-106753697D01*
X178503370Y-106360371D01*
X177990100Y-106147243D01*
X177434339Y-106146758D01*
X177042200Y-106308786D01*
X177042200Y-103698940D01*
X177431900Y-103860757D01*
X177987661Y-103861242D01*
X178501303Y-103649010D01*
X178894629Y-103256370D01*
X179107757Y-102743100D01*
X179108242Y-102187339D01*
X178896010Y-101673697D01*
X178503370Y-101280371D01*
X177990100Y-101067243D01*
X177434339Y-101066758D01*
X176920697Y-101278990D01*
X176527371Y-101671630D01*
X176441051Y-101879512D01*
X176356010Y-101673697D01*
X175963370Y-101280371D01*
X175906815Y-101256887D01*
X177832902Y-99330800D01*
X179505000Y-99330800D01*
X179795839Y-99272948D01*
X180042401Y-99108201D01*
X180323056Y-98827546D01*
X180344110Y-98841931D01*
X180596000Y-98892940D01*
X182396000Y-98892940D01*
X182631317Y-98848662D01*
X182847441Y-98709590D01*
X182992431Y-98497390D01*
X183043440Y-98245500D01*
X183043440Y-96445500D01*
X182999162Y-96210183D01*
X182860090Y-95994059D01*
X182647890Y-95849069D01*
X182396000Y-95798060D01*
X180596000Y-95798060D01*
X180360683Y-95842338D01*
X180144559Y-95981410D01*
X179999569Y-96193610D01*
X179998061Y-96201055D01*
X179543419Y-95897273D01*
X178956000Y-95780428D01*
X178368581Y-95897273D01*
X178037797Y-96118295D01*
X177012401Y-95092899D01*
X176765839Y-94928152D01*
X176475000Y-94870300D01*
X153529800Y-94870300D01*
X153238961Y-94928152D01*
X152992399Y-95092899D01*
X151953865Y-96131433D01*
X151603419Y-95897273D01*
X151016000Y-95780428D01*
X150428581Y-95897273D01*
X149930591Y-96230019D01*
X149745903Y-96506425D01*
X149713966Y-96437924D01*
X149272417Y-96033260D01*
X148840740Y-95854464D01*
X148603000Y-95975122D01*
X148603000Y-97218500D01*
X148623000Y-97218500D01*
X148623000Y-97472500D01*
X148603000Y-97472500D01*
X148603000Y-97492500D01*
X148349000Y-97492500D01*
X148349000Y-97472500D01*
X147105003Y-97472500D01*
X146984954Y-97710242D01*
X147031836Y-97810800D01*
X147012100Y-97810800D01*
X146721260Y-97868652D01*
X146474699Y-98033399D01*
X143085424Y-101422674D01*
X142943370Y-101280371D01*
X142430100Y-101067243D01*
X141874339Y-101066758D01*
X141360697Y-101278990D01*
X140967371Y-101671630D01*
X140881051Y-101879512D01*
X140796010Y-101673697D01*
X140403370Y-101280371D01*
X139890100Y-101067243D01*
X139334339Y-101066758D01*
X138820697Y-101278990D01*
X138427371Y-101671630D01*
X138341051Y-101879512D01*
X138256010Y-101673697D01*
X137863370Y-101280371D01*
X137350100Y-101067243D01*
X136794339Y-101066758D01*
X136280697Y-101278990D01*
X135887371Y-101671630D01*
X135801051Y-101879512D01*
X135716010Y-101673697D01*
X135323370Y-101280371D01*
X134810100Y-101067243D01*
X134254339Y-101066758D01*
X133740697Y-101278990D01*
X133347371Y-101671630D01*
X133261051Y-101879512D01*
X133176010Y-101673697D01*
X132783370Y-101280371D01*
X132270100Y-101067243D01*
X131714339Y-101066758D01*
X131200697Y-101278990D01*
X130807371Y-101671630D01*
X130721051Y-101879512D01*
X130636010Y-101673697D01*
X130243370Y-101280371D01*
X129730100Y-101067243D01*
X129174339Y-101066758D01*
X128660697Y-101278990D01*
X128267371Y-101671630D01*
X128187605Y-101863727D01*
X128133397Y-101732857D01*
X127891213Y-101663392D01*
X127090605Y-102464000D01*
X127891213Y-103264608D01*
X128133397Y-103195143D01*
X128183509Y-103054682D01*
X128265990Y-103254303D01*
X128658630Y-103647629D01*
X129171900Y-103860757D01*
X129727661Y-103861242D01*
X129760055Y-103847857D01*
X129961000Y-104048802D01*
X129961000Y-106243121D01*
X129730100Y-106147243D01*
X129174339Y-106146758D01*
X128660697Y-106358990D01*
X128528179Y-106491277D01*
X125481115Y-103444213D01*
X126110392Y-103444213D01*
X126179857Y-103686397D01*
X126703302Y-103873144D01*
X127258368Y-103845362D01*
X127642143Y-103686397D01*
X127711608Y-103444213D01*
X126911000Y-102643605D01*
X126110392Y-103444213D01*
X125481115Y-103444213D01*
X125441373Y-103404471D01*
X125466226Y-103379618D01*
X125351215Y-103264607D01*
X125593397Y-103195143D01*
X125637453Y-103071656D01*
X125688603Y-103195143D01*
X125930787Y-103264608D01*
X126731395Y-102464000D01*
X125930787Y-101663392D01*
X125688603Y-101732857D01*
X125644547Y-101856344D01*
X125593397Y-101732857D01*
X125351213Y-101663392D01*
X124550605Y-102464000D01*
X124564748Y-102478143D01*
X124385143Y-102657748D01*
X124371000Y-102643605D01*
X124356858Y-102657748D01*
X124177253Y-102478143D01*
X124191395Y-102464000D01*
X123390787Y-101663392D01*
X123148603Y-101732857D01*
X123098491Y-101873318D01*
X123016010Y-101673697D01*
X122826432Y-101483787D01*
X123570392Y-101483787D01*
X124371000Y-102284395D01*
X125171608Y-101483787D01*
X126110392Y-101483787D01*
X126911000Y-102284395D01*
X127711608Y-101483787D01*
X127642143Y-101241603D01*
X127118698Y-101054856D01*
X126563632Y-101082638D01*
X126179857Y-101241603D01*
X126110392Y-101483787D01*
X125171608Y-101483787D01*
X125102143Y-101241603D01*
X124578698Y-101054856D01*
X124023632Y-101082638D01*
X123639857Y-101241603D01*
X123570392Y-101483787D01*
X122826432Y-101483787D01*
X122623370Y-101280371D01*
X122110100Y-101067243D01*
X121554339Y-101066758D01*
X121040697Y-101278990D01*
X120647371Y-101671630D01*
X120561051Y-101879512D01*
X120476010Y-101673697D01*
X120083370Y-101280371D01*
X119570100Y-101067243D01*
X119014339Y-101066758D01*
X118500697Y-101278990D01*
X118107371Y-101671630D01*
X118021051Y-101879512D01*
X117936010Y-101673697D01*
X117543370Y-101280371D01*
X117030100Y-101067243D01*
X116474339Y-101066758D01*
X115960697Y-101278990D01*
X115567371Y-101671630D01*
X115354243Y-102184900D01*
X115353758Y-102740661D01*
X109930000Y-102740661D01*
X109930000Y-96980758D01*
X146984954Y-96980758D01*
X147105003Y-97218500D01*
X148349000Y-97218500D01*
X148349000Y-95975122D01*
X148111260Y-95854464D01*
X147679583Y-96033260D01*
X147238034Y-96437924D01*
X146984954Y-96980758D01*
X109930000Y-96980758D01*
X109930000Y-96589931D01*
X110082152Y-95825011D01*
X110475830Y-95235830D01*
X111065011Y-94842152D01*
X111829931Y-94690000D01*
X182810069Y-94690000D01*
X183574989Y-94842152D01*
M02*
