G04 #@! TF.FileFunction,Legend,Top*
%FSLAX46Y46*%
G04 Gerber Fmt 4.6, Leading zero omitted, Abs format (unit mm)*
G04 Created by KiCad (PCBNEW 4.0.7) date 01/20/19 01:55:54*
%MOMM*%
%LPD*%
G01*
G04 APERTURE LIST*
%ADD10C,0.100000*%
%ADD11C,0.250000*%
%ADD12C,0.300000*%
%ADD13C,0.120000*%
%ADD14C,0.010000*%
G04 APERTURE END LIST*
D10*
D11*
X171212381Y-82000381D02*
X170640952Y-82000381D01*
X170926666Y-82000381D02*
X170926666Y-81000381D01*
X170831428Y-81143238D01*
X170736190Y-81238476D01*
X170640952Y-81286095D01*
X172069524Y-81000381D02*
X171879047Y-81000381D01*
X171783809Y-81048000D01*
X171736190Y-81095619D01*
X171640952Y-81238476D01*
X171593333Y-81428952D01*
X171593333Y-81809905D01*
X171640952Y-81905143D01*
X171688571Y-81952762D01*
X171783809Y-82000381D01*
X171974286Y-82000381D01*
X172069524Y-81952762D01*
X172117143Y-81905143D01*
X172164762Y-81809905D01*
X172164762Y-81571810D01*
X172117143Y-81476571D01*
X172069524Y-81428952D01*
X171974286Y-81381333D01*
X171783809Y-81381333D01*
X171688571Y-81428952D01*
X171640952Y-81476571D01*
X171593333Y-81571810D01*
X172593333Y-82000381D02*
X172593333Y-81000381D01*
X173164762Y-82000381D02*
X172736190Y-81428952D01*
X173164762Y-81000381D02*
X172593333Y-81571810D01*
X173926667Y-81476571D02*
X174069524Y-81524190D01*
X174117143Y-81571810D01*
X174164762Y-81667048D01*
X174164762Y-81809905D01*
X174117143Y-81905143D01*
X174069524Y-81952762D01*
X173974286Y-82000381D01*
X173593333Y-82000381D01*
X173593333Y-81000381D01*
X173926667Y-81000381D01*
X174021905Y-81048000D01*
X174069524Y-81095619D01*
X174117143Y-81190857D01*
X174117143Y-81286095D01*
X174069524Y-81381333D01*
X174021905Y-81428952D01*
X173926667Y-81476571D01*
X173593333Y-81476571D01*
X175307619Y-80952762D02*
X174450476Y-82238476D01*
X175545714Y-81000381D02*
X176164762Y-81000381D01*
X175831428Y-81381333D01*
X175974286Y-81381333D01*
X176069524Y-81428952D01*
X176117143Y-81476571D01*
X176164762Y-81571810D01*
X176164762Y-81809905D01*
X176117143Y-81905143D01*
X176069524Y-81952762D01*
X175974286Y-82000381D01*
X175688571Y-82000381D01*
X175593333Y-81952762D01*
X175545714Y-81905143D01*
X176545714Y-81095619D02*
X176593333Y-81048000D01*
X176688571Y-81000381D01*
X176926667Y-81000381D01*
X177021905Y-81048000D01*
X177069524Y-81095619D01*
X177117143Y-81190857D01*
X177117143Y-81286095D01*
X177069524Y-81428952D01*
X176498095Y-82000381D01*
X177117143Y-82000381D01*
X177545714Y-82000381D02*
X177545714Y-81000381D01*
X178117143Y-82000381D02*
X177688571Y-81428952D01*
X178117143Y-81000381D02*
X177545714Y-81571810D01*
X178879048Y-81476571D02*
X179021905Y-81524190D01*
X179069524Y-81571810D01*
X179117143Y-81667048D01*
X179117143Y-81809905D01*
X179069524Y-81905143D01*
X179021905Y-81952762D01*
X178926667Y-82000381D01*
X178545714Y-82000381D01*
X178545714Y-81000381D01*
X178879048Y-81000381D01*
X178974286Y-81048000D01*
X179021905Y-81095619D01*
X179069524Y-81190857D01*
X179069524Y-81286095D01*
X179021905Y-81381333D01*
X178974286Y-81428952D01*
X178879048Y-81476571D01*
X178545714Y-81476571D01*
X172545715Y-83750381D02*
X172212381Y-83274190D01*
X171974286Y-83750381D02*
X171974286Y-82750381D01*
X172355239Y-82750381D01*
X172450477Y-82798000D01*
X172498096Y-82845619D01*
X172545715Y-82940857D01*
X172545715Y-83083714D01*
X172498096Y-83178952D01*
X172450477Y-83226571D01*
X172355239Y-83274190D01*
X171974286Y-83274190D01*
X173164762Y-82750381D02*
X173355239Y-82750381D01*
X173450477Y-82798000D01*
X173545715Y-82893238D01*
X173593334Y-83083714D01*
X173593334Y-83417048D01*
X173545715Y-83607524D01*
X173450477Y-83702762D01*
X173355239Y-83750381D01*
X173164762Y-83750381D01*
X173069524Y-83702762D01*
X172974286Y-83607524D01*
X172926667Y-83417048D01*
X172926667Y-83083714D01*
X172974286Y-82893238D01*
X173069524Y-82798000D01*
X173164762Y-82750381D01*
X174021905Y-83750381D02*
X174021905Y-82750381D01*
X174355239Y-83464667D01*
X174688572Y-82750381D01*
X174688572Y-83750381D01*
X175164762Y-83750381D02*
X175164762Y-82750381D01*
X175545715Y-82750381D01*
X175640953Y-82798000D01*
X175688572Y-82845619D01*
X175736191Y-82940857D01*
X175736191Y-83083714D01*
X175688572Y-83178952D01*
X175640953Y-83226571D01*
X175545715Y-83274190D01*
X175164762Y-83274190D01*
X176117143Y-83464667D02*
X176593334Y-83464667D01*
X176021905Y-83750381D02*
X176355238Y-82750381D01*
X176688572Y-83750381D01*
X177593334Y-83655143D02*
X177545715Y-83702762D01*
X177402858Y-83750381D01*
X177307620Y-83750381D01*
X177164762Y-83702762D01*
X177069524Y-83607524D01*
X177021905Y-83512286D01*
X176974286Y-83321810D01*
X176974286Y-83178952D01*
X177021905Y-82988476D01*
X177069524Y-82893238D01*
X177164762Y-82798000D01*
X177307620Y-82750381D01*
X177402858Y-82750381D01*
X177545715Y-82798000D01*
X177593334Y-82845619D01*
X178021905Y-83750381D02*
X178021905Y-82750381D01*
X178593334Y-83750381D02*
X178164762Y-83178952D01*
X178593334Y-82750381D02*
X178021905Y-83321810D01*
D12*
X120805287Y-74759429D02*
X120876716Y-74688000D01*
X121019573Y-74616571D01*
X121376716Y-74616571D01*
X121519573Y-74688000D01*
X121591002Y-74759429D01*
X121662430Y-74902286D01*
X121662430Y-75045143D01*
X121591002Y-75259429D01*
X120733859Y-76116571D01*
X121662430Y-76116571D01*
X122519573Y-75259429D02*
X122376715Y-75188000D01*
X122305287Y-75116571D01*
X122233858Y-74973714D01*
X122233858Y-74902286D01*
X122305287Y-74759429D01*
X122376715Y-74688000D01*
X122519573Y-74616571D01*
X122805287Y-74616571D01*
X122948144Y-74688000D01*
X123019573Y-74759429D01*
X123091001Y-74902286D01*
X123091001Y-74973714D01*
X123019573Y-75116571D01*
X122948144Y-75188000D01*
X122805287Y-75259429D01*
X122519573Y-75259429D01*
X122376715Y-75330857D01*
X122305287Y-75402286D01*
X122233858Y-75545143D01*
X122233858Y-75830857D01*
X122305287Y-75973714D01*
X122376715Y-76045143D01*
X122519573Y-76116571D01*
X122805287Y-76116571D01*
X122948144Y-76045143D01*
X123019573Y-75973714D01*
X123091001Y-75830857D01*
X123091001Y-75545143D01*
X123019573Y-75402286D01*
X122948144Y-75330857D01*
X122805287Y-75259429D01*
X124591001Y-75973714D02*
X124519572Y-76045143D01*
X124305286Y-76116571D01*
X124162429Y-76116571D01*
X123948144Y-76045143D01*
X123805286Y-75902286D01*
X123733858Y-75759429D01*
X123662429Y-75473714D01*
X123662429Y-75259429D01*
X123733858Y-74973714D01*
X123805286Y-74830857D01*
X123948144Y-74688000D01*
X124162429Y-74616571D01*
X124305286Y-74616571D01*
X124519572Y-74688000D01*
X124591001Y-74759429D01*
X125162429Y-74759429D02*
X125233858Y-74688000D01*
X125376715Y-74616571D01*
X125733858Y-74616571D01*
X125876715Y-74688000D01*
X125948144Y-74759429D01*
X126019572Y-74902286D01*
X126019572Y-75045143D01*
X125948144Y-75259429D01*
X125091001Y-76116571D01*
X126019572Y-76116571D01*
X127376715Y-74616571D02*
X126662429Y-74616571D01*
X126591000Y-75330857D01*
X126662429Y-75259429D01*
X126805286Y-75188000D01*
X127162429Y-75188000D01*
X127305286Y-75259429D01*
X127376715Y-75330857D01*
X127448143Y-75473714D01*
X127448143Y-75830857D01*
X127376715Y-75973714D01*
X127305286Y-76045143D01*
X127162429Y-76116571D01*
X126805286Y-76116571D01*
X126662429Y-76045143D01*
X126591000Y-75973714D01*
X128733857Y-74616571D02*
X128448143Y-74616571D01*
X128305286Y-74688000D01*
X128233857Y-74759429D01*
X128091000Y-74973714D01*
X128019571Y-75259429D01*
X128019571Y-75830857D01*
X128091000Y-75973714D01*
X128162428Y-76045143D01*
X128305286Y-76116571D01*
X128591000Y-76116571D01*
X128733857Y-76045143D01*
X128805286Y-75973714D01*
X128876714Y-75830857D01*
X128876714Y-75473714D01*
X128805286Y-75330857D01*
X128733857Y-75259429D01*
X128591000Y-75188000D01*
X128305286Y-75188000D01*
X128162428Y-75259429D01*
X128091000Y-75330857D01*
X128019571Y-75473714D01*
D13*
X131868000Y-87214200D02*
G75*
G02X131868000Y-89214200I0J-1000000D01*
G01*
X131868000Y-89214200D02*
X131868000Y-94674200D01*
X131868000Y-94674200D02*
X167548000Y-94674200D01*
X167548000Y-94674200D02*
X167548000Y-81754200D01*
X167548000Y-81754200D02*
X131868000Y-81754200D01*
X131868000Y-81754200D02*
X131868000Y-87214200D01*
D14*
G36*
X145681426Y-84566476D02*
X145725520Y-84724870D01*
X145809249Y-85024013D01*
X145926369Y-85441656D01*
X146070633Y-85955550D01*
X146235798Y-86543445D01*
X146415618Y-87183090D01*
X146519884Y-87553800D01*
X147270136Y-90220800D01*
X149317110Y-90243478D01*
X150051741Y-90247651D01*
X150648903Y-90242593D01*
X151100534Y-90228545D01*
X151398573Y-90205749D01*
X151530675Y-90176999D01*
X151649621Y-90029999D01*
X151699102Y-89801861D01*
X151672465Y-89568699D01*
X151595667Y-89433400D01*
X151477159Y-89388788D01*
X151218326Y-89357362D01*
X150809926Y-89338456D01*
X150242716Y-89331406D01*
X150177500Y-89331327D01*
X149695153Y-89325559D01*
X149248380Y-89309995D01*
X148875853Y-89286722D01*
X148616242Y-89257825D01*
X148545572Y-89243271D01*
X148067807Y-89025103D01*
X147640307Y-88658120D01*
X147282597Y-88160027D01*
X147217466Y-88039043D01*
X147058136Y-87701682D01*
X146970056Y-87424870D01*
X146933052Y-87126624D01*
X146926726Y-86857464D01*
X146994121Y-86198556D01*
X147202924Y-85629585D01*
X147556396Y-85145602D01*
X148057798Y-84741663D01*
X148469773Y-84517243D01*
X148945600Y-84294133D01*
X152332267Y-84271827D01*
X155718934Y-84249522D01*
X156480934Y-85312096D01*
X157242934Y-86374669D01*
X157428113Y-86144016D01*
X157550390Y-85982547D01*
X157741381Y-85719782D01*
X157973664Y-85393819D01*
X158190113Y-85085433D01*
X158766934Y-84257503D01*
X160015767Y-84254651D01*
X160453792Y-84256588D01*
X160824677Y-84263827D01*
X161098910Y-84275349D01*
X161246980Y-84290134D01*
X161264600Y-84297793D01*
X161217461Y-84376104D01*
X161084416Y-84574084D01*
X160878025Y-84873641D01*
X160610847Y-85256682D01*
X160295443Y-85705115D01*
X159944371Y-86200846D01*
X159908642Y-86251120D01*
X159530438Y-86789531D01*
X159203884Y-87267185D01*
X158938978Y-87668612D01*
X158745721Y-87978340D01*
X158634111Y-88180897D01*
X158611423Y-88258294D01*
X158673903Y-88351117D01*
X158821135Y-88563604D01*
X159040104Y-88877161D01*
X159317793Y-89273198D01*
X159641184Y-89733121D01*
X159997260Y-90238339D01*
X160052048Y-90315976D01*
X160408700Y-90823077D01*
X160731205Y-91285085D01*
X161007202Y-91684013D01*
X161224331Y-92001875D01*
X161370231Y-92220684D01*
X161432543Y-92322455D01*
X161433934Y-92326809D01*
X161354247Y-92345598D01*
X161135091Y-92361455D01*
X160806322Y-92373086D01*
X160397797Y-92379193D01*
X160213699Y-92379800D01*
X158993464Y-92379799D01*
X158589137Y-91808300D01*
X158335515Y-91452731D01*
X158039941Y-91042643D01*
X157761238Y-90659602D01*
X157728943Y-90615542D01*
X157273075Y-89994285D01*
X156459293Y-91187042D01*
X155645510Y-92379800D01*
X154391055Y-92379800D01*
X153951977Y-92376915D01*
X153579973Y-92368971D01*
X153304492Y-92357032D01*
X153154980Y-92342164D01*
X153136600Y-92334426D01*
X153183208Y-92255949D01*
X153314804Y-92056984D01*
X153519042Y-91755612D01*
X153783578Y-91369909D01*
X154096070Y-90917956D01*
X154444172Y-90417831D01*
X154492356Y-90348847D01*
X154847258Y-89839069D01*
X155170770Y-89370786D01*
X155449966Y-88962995D01*
X155671921Y-88634693D01*
X155823710Y-88404877D01*
X155892408Y-88292545D01*
X155894303Y-88288268D01*
X155866297Y-88175360D01*
X155755414Y-87954293D01*
X155577897Y-87654200D01*
X155349992Y-87304210D01*
X155325460Y-87268181D01*
X154710426Y-86368466D01*
X151982227Y-86368466D01*
X151191973Y-86369071D01*
X150554618Y-86372564D01*
X150053726Y-86381462D01*
X149672864Y-86398282D01*
X149395597Y-86425542D01*
X149205490Y-86465757D01*
X149086108Y-86521445D01*
X149021018Y-86595124D01*
X148993785Y-86689310D01*
X148987973Y-86806521D01*
X148987933Y-86827058D01*
X149006267Y-86994416D01*
X149075712Y-87117634D01*
X149217933Y-87203198D01*
X149454593Y-87257594D01*
X149807359Y-87287308D01*
X150297893Y-87298825D01*
X150567018Y-87299799D01*
X151196103Y-87308183D01*
X151688331Y-87338594D01*
X152075588Y-87398921D01*
X152389761Y-87497055D01*
X152662734Y-87640884D01*
X152926393Y-87838298D01*
X153000150Y-87901836D01*
X153433358Y-88387196D01*
X153714764Y-88947348D01*
X153844737Y-89583130D01*
X153854515Y-89839800D01*
X153775752Y-90507926D01*
X153549310Y-91103873D01*
X153184175Y-91612989D01*
X152689331Y-92020625D01*
X152427524Y-92166660D01*
X151987596Y-92381897D01*
X148819580Y-92359682D01*
X145651563Y-92337466D01*
X145185375Y-90584229D01*
X145047058Y-90070492D01*
X144922220Y-89619029D01*
X144817539Y-89252999D01*
X144739694Y-88995564D01*
X144695362Y-88869883D01*
X144688640Y-88861537D01*
X144661439Y-88945228D01*
X144598611Y-89163338D01*
X144508091Y-89486653D01*
X144397813Y-89885961D01*
X144275712Y-90332046D01*
X144149723Y-90795695D01*
X144027782Y-91247693D01*
X143917822Y-91658826D01*
X143827779Y-91999880D01*
X143765587Y-92241641D01*
X143739182Y-92354894D01*
X143738792Y-92358633D01*
X143659754Y-92367156D01*
X143445644Y-92374038D01*
X143130723Y-92378498D01*
X142811267Y-92379800D01*
X141883934Y-92379800D01*
X141725972Y-91850633D01*
X141644565Y-91571048D01*
X141532203Y-91175815D01*
X141402344Y-90712695D01*
X141268443Y-90229446D01*
X141236977Y-90114966D01*
X141118042Y-89691842D01*
X141011960Y-89333717D01*
X140927599Y-89069080D01*
X140873829Y-88926421D01*
X140861772Y-88909603D01*
X140829716Y-88988345D01*
X140765180Y-89207824D01*
X140674589Y-89543974D01*
X140564368Y-89972728D01*
X140440943Y-90470019D01*
X140398360Y-90645270D01*
X139979120Y-92379800D01*
X138886468Y-92379800D01*
X138419143Y-92375942D01*
X138101233Y-92363047D01*
X137912965Y-92339131D01*
X137834569Y-92302210D01*
X137831682Y-92273966D01*
X137859462Y-92172896D01*
X137924472Y-91924034D01*
X138022522Y-91543779D01*
X138149418Y-91048529D01*
X138300968Y-90454680D01*
X138472982Y-89778632D01*
X138661266Y-89036781D01*
X138861629Y-88245526D01*
X138870623Y-88209966D01*
X139871699Y-84251800D01*
X140825777Y-84251800D01*
X141245103Y-84254713D01*
X141524770Y-84266388D01*
X141694397Y-84291228D01*
X141783601Y-84333635D01*
X141822001Y-84398011D01*
X141822574Y-84399966D01*
X141857779Y-84524899D01*
X141930558Y-84785204D01*
X142033162Y-85153097D01*
X142157844Y-85600793D01*
X142296856Y-86100510D01*
X142310483Y-86149524D01*
X142448216Y-86631642D01*
X142573082Y-87043633D01*
X142677698Y-87363158D01*
X142754687Y-87567878D01*
X142796666Y-87635453D01*
X142799986Y-87631190D01*
X142836570Y-87515847D01*
X142912441Y-87264868D01*
X143019576Y-86905207D01*
X143149951Y-86463818D01*
X143295543Y-85967654D01*
X143314507Y-85902800D01*
X143784714Y-84294133D01*
X144688967Y-84270143D01*
X145593219Y-84246152D01*
X145681426Y-84566476D01*
X145681426Y-84566476D01*
G37*
X145681426Y-84566476D02*
X145725520Y-84724870D01*
X145809249Y-85024013D01*
X145926369Y-85441656D01*
X146070633Y-85955550D01*
X146235798Y-86543445D01*
X146415618Y-87183090D01*
X146519884Y-87553800D01*
X147270136Y-90220800D01*
X149317110Y-90243478D01*
X150051741Y-90247651D01*
X150648903Y-90242593D01*
X151100534Y-90228545D01*
X151398573Y-90205749D01*
X151530675Y-90176999D01*
X151649621Y-90029999D01*
X151699102Y-89801861D01*
X151672465Y-89568699D01*
X151595667Y-89433400D01*
X151477159Y-89388788D01*
X151218326Y-89357362D01*
X150809926Y-89338456D01*
X150242716Y-89331406D01*
X150177500Y-89331327D01*
X149695153Y-89325559D01*
X149248380Y-89309995D01*
X148875853Y-89286722D01*
X148616242Y-89257825D01*
X148545572Y-89243271D01*
X148067807Y-89025103D01*
X147640307Y-88658120D01*
X147282597Y-88160027D01*
X147217466Y-88039043D01*
X147058136Y-87701682D01*
X146970056Y-87424870D01*
X146933052Y-87126624D01*
X146926726Y-86857464D01*
X146994121Y-86198556D01*
X147202924Y-85629585D01*
X147556396Y-85145602D01*
X148057798Y-84741663D01*
X148469773Y-84517243D01*
X148945600Y-84294133D01*
X152332267Y-84271827D01*
X155718934Y-84249522D01*
X156480934Y-85312096D01*
X157242934Y-86374669D01*
X157428113Y-86144016D01*
X157550390Y-85982547D01*
X157741381Y-85719782D01*
X157973664Y-85393819D01*
X158190113Y-85085433D01*
X158766934Y-84257503D01*
X160015767Y-84254651D01*
X160453792Y-84256588D01*
X160824677Y-84263827D01*
X161098910Y-84275349D01*
X161246980Y-84290134D01*
X161264600Y-84297793D01*
X161217461Y-84376104D01*
X161084416Y-84574084D01*
X160878025Y-84873641D01*
X160610847Y-85256682D01*
X160295443Y-85705115D01*
X159944371Y-86200846D01*
X159908642Y-86251120D01*
X159530438Y-86789531D01*
X159203884Y-87267185D01*
X158938978Y-87668612D01*
X158745721Y-87978340D01*
X158634111Y-88180897D01*
X158611423Y-88258294D01*
X158673903Y-88351117D01*
X158821135Y-88563604D01*
X159040104Y-88877161D01*
X159317793Y-89273198D01*
X159641184Y-89733121D01*
X159997260Y-90238339D01*
X160052048Y-90315976D01*
X160408700Y-90823077D01*
X160731205Y-91285085D01*
X161007202Y-91684013D01*
X161224331Y-92001875D01*
X161370231Y-92220684D01*
X161432543Y-92322455D01*
X161433934Y-92326809D01*
X161354247Y-92345598D01*
X161135091Y-92361455D01*
X160806322Y-92373086D01*
X160397797Y-92379193D01*
X160213699Y-92379800D01*
X158993464Y-92379799D01*
X158589137Y-91808300D01*
X158335515Y-91452731D01*
X158039941Y-91042643D01*
X157761238Y-90659602D01*
X157728943Y-90615542D01*
X157273075Y-89994285D01*
X156459293Y-91187042D01*
X155645510Y-92379800D01*
X154391055Y-92379800D01*
X153951977Y-92376915D01*
X153579973Y-92368971D01*
X153304492Y-92357032D01*
X153154980Y-92342164D01*
X153136600Y-92334426D01*
X153183208Y-92255949D01*
X153314804Y-92056984D01*
X153519042Y-91755612D01*
X153783578Y-91369909D01*
X154096070Y-90917956D01*
X154444172Y-90417831D01*
X154492356Y-90348847D01*
X154847258Y-89839069D01*
X155170770Y-89370786D01*
X155449966Y-88962995D01*
X155671921Y-88634693D01*
X155823710Y-88404877D01*
X155892408Y-88292545D01*
X155894303Y-88288268D01*
X155866297Y-88175360D01*
X155755414Y-87954293D01*
X155577897Y-87654200D01*
X155349992Y-87304210D01*
X155325460Y-87268181D01*
X154710426Y-86368466D01*
X151982227Y-86368466D01*
X151191973Y-86369071D01*
X150554618Y-86372564D01*
X150053726Y-86381462D01*
X149672864Y-86398282D01*
X149395597Y-86425542D01*
X149205490Y-86465757D01*
X149086108Y-86521445D01*
X149021018Y-86595124D01*
X148993785Y-86689310D01*
X148987973Y-86806521D01*
X148987933Y-86827058D01*
X149006267Y-86994416D01*
X149075712Y-87117634D01*
X149217933Y-87203198D01*
X149454593Y-87257594D01*
X149807359Y-87287308D01*
X150297893Y-87298825D01*
X150567018Y-87299799D01*
X151196103Y-87308183D01*
X151688331Y-87338594D01*
X152075588Y-87398921D01*
X152389761Y-87497055D01*
X152662734Y-87640884D01*
X152926393Y-87838298D01*
X153000150Y-87901836D01*
X153433358Y-88387196D01*
X153714764Y-88947348D01*
X153844737Y-89583130D01*
X153854515Y-89839800D01*
X153775752Y-90507926D01*
X153549310Y-91103873D01*
X153184175Y-91612989D01*
X152689331Y-92020625D01*
X152427524Y-92166660D01*
X151987596Y-92381897D01*
X148819580Y-92359682D01*
X145651563Y-92337466D01*
X145185375Y-90584229D01*
X145047058Y-90070492D01*
X144922220Y-89619029D01*
X144817539Y-89252999D01*
X144739694Y-88995564D01*
X144695362Y-88869883D01*
X144688640Y-88861537D01*
X144661439Y-88945228D01*
X144598611Y-89163338D01*
X144508091Y-89486653D01*
X144397813Y-89885961D01*
X144275712Y-90332046D01*
X144149723Y-90795695D01*
X144027782Y-91247693D01*
X143917822Y-91658826D01*
X143827779Y-91999880D01*
X143765587Y-92241641D01*
X143739182Y-92354894D01*
X143738792Y-92358633D01*
X143659754Y-92367156D01*
X143445644Y-92374038D01*
X143130723Y-92378498D01*
X142811267Y-92379800D01*
X141883934Y-92379800D01*
X141725972Y-91850633D01*
X141644565Y-91571048D01*
X141532203Y-91175815D01*
X141402344Y-90712695D01*
X141268443Y-90229446D01*
X141236977Y-90114966D01*
X141118042Y-89691842D01*
X141011960Y-89333717D01*
X140927599Y-89069080D01*
X140873829Y-88926421D01*
X140861772Y-88909603D01*
X140829716Y-88988345D01*
X140765180Y-89207824D01*
X140674589Y-89543974D01*
X140564368Y-89972728D01*
X140440943Y-90470019D01*
X140398360Y-90645270D01*
X139979120Y-92379800D01*
X138886468Y-92379800D01*
X138419143Y-92375942D01*
X138101233Y-92363047D01*
X137912965Y-92339131D01*
X137834569Y-92302210D01*
X137831682Y-92273966D01*
X137859462Y-92172896D01*
X137924472Y-91924034D01*
X138022522Y-91543779D01*
X138149418Y-91048529D01*
X138300968Y-90454680D01*
X138472982Y-89778632D01*
X138661266Y-89036781D01*
X138861629Y-88245526D01*
X138870623Y-88209966D01*
X139871699Y-84251800D01*
X140825777Y-84251800D01*
X141245103Y-84254713D01*
X141524770Y-84266388D01*
X141694397Y-84291228D01*
X141783601Y-84333635D01*
X141822001Y-84398011D01*
X141822574Y-84399966D01*
X141857779Y-84524899D01*
X141930558Y-84785204D01*
X142033162Y-85153097D01*
X142157844Y-85600793D01*
X142296856Y-86100510D01*
X142310483Y-86149524D01*
X142448216Y-86631642D01*
X142573082Y-87043633D01*
X142677698Y-87363158D01*
X142754687Y-87567878D01*
X142796666Y-87635453D01*
X142799986Y-87631190D01*
X142836570Y-87515847D01*
X142912441Y-87264868D01*
X143019576Y-86905207D01*
X143149951Y-86463818D01*
X143295543Y-85967654D01*
X143314507Y-85902800D01*
X143784714Y-84294133D01*
X144688967Y-84270143D01*
X145593219Y-84246152D01*
X145681426Y-84566476D01*
M02*
