G04 #@! TF.FileFunction,Soldermask,Top*
%FSLAX46Y46*%
G04 Gerber Fmt 4.6, Leading zero omitted, Abs format (unit mm)*
G04 Created by KiCad (PCBNEW 4.0.7) date 02/21/19 10:09:24*
%MOMM*%
%LPD*%
G01*
G04 APERTURE LIST*
%ADD10C,0.100000*%
%ADD11C,1.924000*%
%ADD12R,2.200000X2.200000*%
%ADD13O,2.200000X2.200000*%
G04 APERTURE END LIST*
D10*
D11*
X177711000Y-102464000D03*
X177711000Y-107544000D03*
X175171000Y-102464000D03*
X175171000Y-107544000D03*
X172631000Y-102464000D03*
X172631000Y-107544000D03*
X170091000Y-102464000D03*
X170091000Y-107544000D03*
X167551000Y-102464000D03*
X167551000Y-107544000D03*
X165011000Y-102464000D03*
X165011000Y-107544000D03*
X162471000Y-102464000D03*
X162471000Y-107544000D03*
X159931000Y-102464000D03*
X159931000Y-107544000D03*
X157391000Y-102464000D03*
X157391000Y-107544000D03*
X154851000Y-102464000D03*
X154851000Y-107544000D03*
X152311000Y-102464000D03*
X152311000Y-107544000D03*
X149771000Y-102464000D03*
X149771000Y-107544000D03*
X147231000Y-102464000D03*
X147231000Y-107544000D03*
X144691000Y-102464000D03*
X144691000Y-107544000D03*
X142151000Y-102464000D03*
X142151000Y-107544000D03*
X139611000Y-102464000D03*
X139611000Y-107544000D03*
X137071000Y-102464000D03*
X137071000Y-107544000D03*
X134531000Y-102464000D03*
X134531000Y-107544000D03*
X131991000Y-102464000D03*
X131991000Y-107544000D03*
X129451000Y-102464000D03*
X129451000Y-107544000D03*
X126911000Y-102464000D03*
X126911000Y-107544000D03*
X124371000Y-102464000D03*
X124371000Y-107544000D03*
X121831000Y-102464000D03*
X121831000Y-107544000D03*
X119291000Y-102464000D03*
X119291000Y-107544000D03*
X116751000Y-102464000D03*
X116751000Y-107544000D03*
D12*
X181496000Y-97345500D03*
D13*
X148476000Y-112585500D03*
X178956000Y-97345500D03*
X151016000Y-112585500D03*
X176416000Y-97345500D03*
X153556000Y-112585500D03*
X173876000Y-97345500D03*
X156096000Y-112585500D03*
X171336000Y-97345500D03*
X158636000Y-112585500D03*
X168796000Y-97345500D03*
X161176000Y-112585500D03*
X166256000Y-97345500D03*
X163716000Y-112585500D03*
X163716000Y-97345500D03*
X166256000Y-112585500D03*
X161176000Y-97345500D03*
X168796000Y-112585500D03*
X158636000Y-97345500D03*
X171336000Y-112585500D03*
X156096000Y-97345500D03*
X173876000Y-112585500D03*
X153556000Y-97345500D03*
X176416000Y-112585500D03*
X151016000Y-97345500D03*
X178956000Y-112585500D03*
X148476000Y-97345500D03*
X181496000Y-112585500D03*
M02*
