M48
;DRILL file {KiCad 4.0.7} date 04/25/18 01:36:32
;FORMAT={-:-/ absolute / inch / decimal}
FMAT,2
INCH,TZ
T1C0.016
T2C0.030
T3C0.035
T4C0.177
%
G90
G05
M72
T1
X5.2042Y-3.9742
X5.2919Y-3.4453
X5.3579Y-3.4161
X5.4297Y-3.4167
X5.473Y-3.4156
X5.4902Y-4.1456
X5.525Y-3.4168
X5.5727Y-3.4168
X5.5735Y-4.1321
X5.603Y-3.5609
X5.6522Y-3.4191
X5.6566Y-4.1464
X5.7345Y-4.1465
X5.7394Y-3.4157
X5.75Y-3.2675
X5.7955Y-4.0965
X5.8416Y-3.7542
X5.8947Y-3.9761
X5.8966Y-4.0506
X5.92Y-3.24
X5.9567Y-3.6687
X6.0061Y-3.7893
X6.1494Y-3.6112
X6.2621Y-4.112
X6.3011Y-4.0896
X6.3824Y-4.0896
X6.4025Y-2.36
X6.4476Y-3.7304
X6.4496Y-4.1531
X6.5264Y-3.7709
X6.5665Y-3.9246
X6.5685Y-4.1286
X6.598Y-3.9423
X6.6595Y-3.6874
X6.6722Y-3.4306
X6.685Y-3.28
X6.7339Y-3.6068
X6.755Y-2.22
X6.76Y-3.4059
X6.794Y-3.7242
X6.7966Y-3.9565
X6.81Y-2.36
X6.8285Y-4.0136
X6.9112Y-3.2653
X6.9206Y-2.8399
X6.9307Y-3.8181
X6.9396Y-3.565
X6.9659Y-3.665
X6.994Y-3.7317
X7.0316Y-4.0856
X7.0742Y-4.1283
X7.1509Y-4.0223
X7.1536Y-3.5775
X7.1798Y-3.7784
X7.19Y-2.31
X7.31Y-2.83
X7.3163Y-3.615
X7.4868Y-3.5064
X7.505Y-2.62
X7.581Y-2.171
X7.583Y-2.102
X7.587Y-2.238
T2
X5.255Y-2.12
X5.255Y-2.22
X5.355Y-2.12
X5.355Y-2.22
X5.455Y-2.12
X5.455Y-2.22
X5.555Y-2.12
X5.555Y-2.22
X5.655Y-2.12
X5.655Y-2.22
X5.755Y-2.12
X5.755Y-2.22
X5.79Y-3.005
X5.79Y-3.105
X5.855Y-2.12
X5.855Y-2.22
X5.89Y-3.005
X5.89Y-3.105
X5.955Y-2.12
X5.955Y-2.22
X5.99Y-3.005
X5.99Y-3.105
X6.055Y-2.12
X6.055Y-2.22
X6.09Y-3.005
X6.09Y-3.105
X6.155Y-2.12
X6.155Y-2.22
X6.19Y-3.005
X6.19Y-3.105
X6.255Y-2.12
X6.255Y-2.22
X6.29Y-3.005
X6.29Y-3.105
X6.355Y-2.12
X6.355Y-2.22
X6.39Y-3.005
X6.39Y-3.105
X6.455Y-2.12
X6.455Y-2.22
X6.49Y-3.005
X6.49Y-3.105
X6.555Y-2.12
X6.555Y-2.22
X6.59Y-3.005
X6.59Y-3.105
X6.655Y-2.12
X6.655Y-2.22
X6.69Y-3.005
X6.69Y-3.105
X6.755Y-2.12
X6.755Y-2.22
X6.79Y-3.005
X6.79Y-3.105
X6.855Y-2.12
X6.855Y-2.22
X6.89Y-3.005
X6.89Y-3.105
X6.955Y-2.12
X6.955Y-2.22
X6.99Y-3.005
X6.99Y-3.105
X7.055Y-2.12
X7.055Y-2.22
X7.09Y-3.105
X7.155Y-2.12
X7.155Y-2.22
X7.19Y-3.005
X7.19Y-3.105
X7.29Y-3.005
X7.29Y-3.105
X7.39Y-3.005
X7.39Y-3.105
X7.49Y-3.005
X7.49Y-3.105
X7.59Y-3.005
X7.59Y-3.105
X7.69Y-3.005
X7.69Y-3.105
T3
X7.09Y-3.005
T4
X5.0919Y-3.6888
X7.2966Y-3.8936
T0
M30
