G04 #@! TF.FileFunction,Copper,L1,Top,Signal*
%FSLAX46Y46*%
G04 Gerber Fmt 4.6, Leading zero omitted, Abs format (unit mm)*
G04 Created by KiCad (PCBNEW 4.0.2-stable) date 2016-03-18 오후 4:15:19*
%MOMM*%
G01*
G04 APERTURE LIST*
%ADD10C,0.100000*%
%ADD11R,1.727200X1.727200*%
%ADD12O,1.727200X1.727200*%
%ADD13R,2.032000X1.727200*%
%ADD14O,2.032000X1.727200*%
%ADD15R,1.200000X0.900000*%
%ADD16R,0.900000X1.200000*%
%ADD17C,0.600000*%
%ADD18C,0.200000*%
%ADD19C,0.300000*%
%ADD20C,0.500000*%
%ADD21C,0.254000*%
G04 APERTURE END LIST*
D10*
D11*
X162560000Y-95250000D03*
D12*
X162560000Y-97790000D03*
X160020000Y-95250000D03*
X160020000Y-97790000D03*
X157480000Y-95250000D03*
X157480000Y-97790000D03*
X154940000Y-95250000D03*
X154940000Y-97790000D03*
X152400000Y-95250000D03*
X152400000Y-97790000D03*
X149860000Y-95250000D03*
X149860000Y-97790000D03*
X147320000Y-95250000D03*
X147320000Y-97790000D03*
X144780000Y-95250000D03*
X144780000Y-97790000D03*
X142240000Y-95250000D03*
X142240000Y-97790000D03*
X139700000Y-95250000D03*
X139700000Y-97790000D03*
X137160000Y-95250000D03*
X137160000Y-97790000D03*
X134620000Y-95250000D03*
X134620000Y-97790000D03*
X132080000Y-95250000D03*
X132080000Y-97790000D03*
X129540000Y-95250000D03*
X129540000Y-97790000D03*
X127000000Y-95250000D03*
X127000000Y-97790000D03*
X124460000Y-95250000D03*
X124460000Y-97790000D03*
X121920000Y-95250000D03*
X121920000Y-97790000D03*
X119380000Y-95250000D03*
X119380000Y-97790000D03*
X116840000Y-95250000D03*
X116840000Y-97790000D03*
X114300000Y-95250000D03*
X114300000Y-97790000D03*
X111760000Y-95250000D03*
X111760000Y-97790000D03*
X109220000Y-95250000D03*
X109220000Y-97790000D03*
X106680000Y-95250000D03*
X106680000Y-97790000D03*
X104140000Y-95250000D03*
X104140000Y-97790000D03*
X101600000Y-95250000D03*
X101600000Y-97790000D03*
D11*
X162560000Y-116840000D03*
D12*
X162560000Y-119380000D03*
X160020000Y-116840000D03*
X160020000Y-119380000D03*
X157480000Y-116840000D03*
X157480000Y-119380000D03*
X154940000Y-116840000D03*
X154940000Y-119380000D03*
X152400000Y-116840000D03*
X152400000Y-119380000D03*
X149860000Y-116840000D03*
X149860000Y-119380000D03*
X147320000Y-116840000D03*
X147320000Y-119380000D03*
X144780000Y-116840000D03*
X144780000Y-119380000D03*
X142240000Y-116840000D03*
X142240000Y-119380000D03*
X139700000Y-116840000D03*
X139700000Y-119380000D03*
X137160000Y-116840000D03*
X137160000Y-119380000D03*
X134620000Y-116840000D03*
X134620000Y-119380000D03*
X132080000Y-116840000D03*
X132080000Y-119380000D03*
X129540000Y-116840000D03*
X129540000Y-119380000D03*
X127000000Y-116840000D03*
X127000000Y-119380000D03*
X124460000Y-116840000D03*
X124460000Y-119380000D03*
X121920000Y-116840000D03*
X121920000Y-119380000D03*
X119380000Y-116840000D03*
X119380000Y-119380000D03*
X116840000Y-116840000D03*
X116840000Y-119380000D03*
X114300000Y-116840000D03*
X114300000Y-119380000D03*
X111760000Y-116840000D03*
X111760000Y-119380000D03*
X109220000Y-116840000D03*
X109220000Y-119380000D03*
X106680000Y-116840000D03*
X106680000Y-119380000D03*
X104140000Y-116840000D03*
X104140000Y-119380000D03*
X101600000Y-116840000D03*
X101600000Y-119380000D03*
D10*
G36*
X142322347Y-74128456D02*
X142463769Y-74269878D01*
X141403109Y-75330538D01*
X141261687Y-75189116D01*
X142322347Y-74128456D01*
X142322347Y-74128456D01*
G37*
G36*
X142039504Y-73845613D02*
X142180926Y-73987035D01*
X141120266Y-75047695D01*
X140978844Y-74906273D01*
X142039504Y-73845613D01*
X142039504Y-73845613D01*
G37*
G36*
X141756662Y-73562771D02*
X141898084Y-73704193D01*
X140837424Y-74764853D01*
X140696002Y-74623431D01*
X141756662Y-73562771D01*
X141756662Y-73562771D01*
G37*
G36*
X141473819Y-73279928D02*
X141615241Y-73421350D01*
X140554581Y-74482010D01*
X140413159Y-74340588D01*
X141473819Y-73279928D01*
X141473819Y-73279928D01*
G37*
G36*
X141190976Y-72997085D02*
X141332398Y-73138507D01*
X140271738Y-74199167D01*
X140130316Y-74057745D01*
X141190976Y-72997085D01*
X141190976Y-72997085D01*
G37*
G36*
X140908133Y-72714243D02*
X141049555Y-72855665D01*
X139988895Y-73916325D01*
X139847473Y-73774903D01*
X140908133Y-72714243D01*
X140908133Y-72714243D01*
G37*
G36*
X140625291Y-72431400D02*
X140766713Y-72572822D01*
X139706053Y-73633482D01*
X139564631Y-73492060D01*
X140625291Y-72431400D01*
X140625291Y-72431400D01*
G37*
G36*
X140342448Y-72148557D02*
X140483870Y-72289979D01*
X139423210Y-73350639D01*
X139281788Y-73209217D01*
X140342448Y-72148557D01*
X140342448Y-72148557D01*
G37*
G36*
X140059605Y-71865714D02*
X140201027Y-72007136D01*
X139140367Y-73067796D01*
X138998945Y-72926374D01*
X140059605Y-71865714D01*
X140059605Y-71865714D01*
G37*
G36*
X139776763Y-71582872D02*
X139918185Y-71724294D01*
X138857525Y-72784954D01*
X138716103Y-72643532D01*
X139776763Y-71582872D01*
X139776763Y-71582872D01*
G37*
G36*
X139493920Y-71300029D02*
X139635342Y-71441451D01*
X138574682Y-72502111D01*
X138433260Y-72360689D01*
X139493920Y-71300029D01*
X139493920Y-71300029D01*
G37*
G36*
X139211077Y-71017186D02*
X139352499Y-71158608D01*
X138291839Y-72219268D01*
X138150417Y-72077846D01*
X139211077Y-71017186D01*
X139211077Y-71017186D01*
G37*
G36*
X138928234Y-70734344D02*
X139069656Y-70875766D01*
X138008996Y-71936426D01*
X137867574Y-71795004D01*
X138928234Y-70734344D01*
X138928234Y-70734344D01*
G37*
G36*
X138645392Y-70451501D02*
X138786814Y-70592923D01*
X137726154Y-71653583D01*
X137584732Y-71512161D01*
X138645392Y-70451501D01*
X138645392Y-70451501D01*
G37*
G36*
X138362549Y-70168658D02*
X138503971Y-70310080D01*
X137443311Y-71370740D01*
X137301889Y-71229318D01*
X138362549Y-70168658D01*
X138362549Y-70168658D01*
G37*
G36*
X138079706Y-69885815D02*
X138221128Y-70027237D01*
X137160468Y-71087897D01*
X137019046Y-70946475D01*
X138079706Y-69885815D01*
X138079706Y-69885815D01*
G37*
G36*
X137796864Y-69602973D02*
X137938286Y-69744395D01*
X136877626Y-70805055D01*
X136736204Y-70663633D01*
X137796864Y-69602973D01*
X137796864Y-69602973D01*
G37*
G36*
X137514021Y-69320130D02*
X137655443Y-69461552D01*
X136594783Y-70522212D01*
X136453361Y-70380790D01*
X137514021Y-69320130D01*
X137514021Y-69320130D01*
G37*
G36*
X137231178Y-69037287D02*
X137372600Y-69178709D01*
X136311940Y-70239369D01*
X136170518Y-70097947D01*
X137231178Y-69037287D01*
X137231178Y-69037287D01*
G37*
G36*
X136948335Y-68754445D02*
X137089757Y-68895867D01*
X136029097Y-69956527D01*
X135887675Y-69815105D01*
X136948335Y-68754445D01*
X136948335Y-68754445D01*
G37*
G36*
X136665493Y-68471602D02*
X136806915Y-68613024D01*
X135746255Y-69673684D01*
X135604833Y-69532262D01*
X136665493Y-68471602D01*
X136665493Y-68471602D01*
G37*
G36*
X136382650Y-68188759D02*
X136524072Y-68330181D01*
X135463412Y-69390841D01*
X135321990Y-69249419D01*
X136382650Y-68188759D01*
X136382650Y-68188759D01*
G37*
G36*
X136099807Y-67905916D02*
X136241229Y-68047338D01*
X135180569Y-69107998D01*
X135039147Y-68966576D01*
X136099807Y-67905916D01*
X136099807Y-67905916D01*
G37*
G36*
X135816965Y-67623074D02*
X135958387Y-67764496D01*
X134897727Y-68825156D01*
X134756305Y-68683734D01*
X135816965Y-67623074D01*
X135816965Y-67623074D01*
G37*
G36*
X135534122Y-67340231D02*
X135675544Y-67481653D01*
X134614884Y-68542313D01*
X134473462Y-68400891D01*
X135534122Y-67340231D01*
X135534122Y-67340231D01*
G37*
G36*
X131786456Y-67481653D02*
X131927878Y-67340231D01*
X132988538Y-68400891D01*
X132847116Y-68542313D01*
X131786456Y-67481653D01*
X131786456Y-67481653D01*
G37*
G36*
X131503613Y-67764496D02*
X131645035Y-67623074D01*
X132705695Y-68683734D01*
X132564273Y-68825156D01*
X131503613Y-67764496D01*
X131503613Y-67764496D01*
G37*
G36*
X131220771Y-68047338D02*
X131362193Y-67905916D01*
X132422853Y-68966576D01*
X132281431Y-69107998D01*
X131220771Y-68047338D01*
X131220771Y-68047338D01*
G37*
G36*
X130937928Y-68330181D02*
X131079350Y-68188759D01*
X132140010Y-69249419D01*
X131998588Y-69390841D01*
X130937928Y-68330181D01*
X130937928Y-68330181D01*
G37*
G36*
X130655085Y-68613024D02*
X130796507Y-68471602D01*
X131857167Y-69532262D01*
X131715745Y-69673684D01*
X130655085Y-68613024D01*
X130655085Y-68613024D01*
G37*
G36*
X130372243Y-68895867D02*
X130513665Y-68754445D01*
X131574325Y-69815105D01*
X131432903Y-69956527D01*
X130372243Y-68895867D01*
X130372243Y-68895867D01*
G37*
G36*
X130089400Y-69178709D02*
X130230822Y-69037287D01*
X131291482Y-70097947D01*
X131150060Y-70239369D01*
X130089400Y-69178709D01*
X130089400Y-69178709D01*
G37*
G36*
X129806557Y-69461552D02*
X129947979Y-69320130D01*
X131008639Y-70380790D01*
X130867217Y-70522212D01*
X129806557Y-69461552D01*
X129806557Y-69461552D01*
G37*
G36*
X129523714Y-69744395D02*
X129665136Y-69602973D01*
X130725796Y-70663633D01*
X130584374Y-70805055D01*
X129523714Y-69744395D01*
X129523714Y-69744395D01*
G37*
G36*
X129240872Y-70027237D02*
X129382294Y-69885815D01*
X130442954Y-70946475D01*
X130301532Y-71087897D01*
X129240872Y-70027237D01*
X129240872Y-70027237D01*
G37*
G36*
X128958029Y-70310080D02*
X129099451Y-70168658D01*
X130160111Y-71229318D01*
X130018689Y-71370740D01*
X128958029Y-70310080D01*
X128958029Y-70310080D01*
G37*
G36*
X128675186Y-70592923D02*
X128816608Y-70451501D01*
X129877268Y-71512161D01*
X129735846Y-71653583D01*
X128675186Y-70592923D01*
X128675186Y-70592923D01*
G37*
G36*
X128392344Y-70875766D02*
X128533766Y-70734344D01*
X129594426Y-71795004D01*
X129453004Y-71936426D01*
X128392344Y-70875766D01*
X128392344Y-70875766D01*
G37*
G36*
X128109501Y-71158608D02*
X128250923Y-71017186D01*
X129311583Y-72077846D01*
X129170161Y-72219268D01*
X128109501Y-71158608D01*
X128109501Y-71158608D01*
G37*
G36*
X127826658Y-71441451D02*
X127968080Y-71300029D01*
X129028740Y-72360689D01*
X128887318Y-72502111D01*
X127826658Y-71441451D01*
X127826658Y-71441451D01*
G37*
G36*
X127543815Y-71724294D02*
X127685237Y-71582872D01*
X128745897Y-72643532D01*
X128604475Y-72784954D01*
X127543815Y-71724294D01*
X127543815Y-71724294D01*
G37*
G36*
X127260973Y-72007136D02*
X127402395Y-71865714D01*
X128463055Y-72926374D01*
X128321633Y-73067796D01*
X127260973Y-72007136D01*
X127260973Y-72007136D01*
G37*
G36*
X126978130Y-72289979D02*
X127119552Y-72148557D01*
X128180212Y-73209217D01*
X128038790Y-73350639D01*
X126978130Y-72289979D01*
X126978130Y-72289979D01*
G37*
G36*
X126695287Y-72572822D02*
X126836709Y-72431400D01*
X127897369Y-73492060D01*
X127755947Y-73633482D01*
X126695287Y-72572822D01*
X126695287Y-72572822D01*
G37*
G36*
X126412445Y-72855665D02*
X126553867Y-72714243D01*
X127614527Y-73774903D01*
X127473105Y-73916325D01*
X126412445Y-72855665D01*
X126412445Y-72855665D01*
G37*
G36*
X126129602Y-73138507D02*
X126271024Y-72997085D01*
X127331684Y-74057745D01*
X127190262Y-74199167D01*
X126129602Y-73138507D01*
X126129602Y-73138507D01*
G37*
G36*
X125846759Y-73421350D02*
X125988181Y-73279928D01*
X127048841Y-74340588D01*
X126907419Y-74482010D01*
X125846759Y-73421350D01*
X125846759Y-73421350D01*
G37*
G36*
X125563916Y-73704193D02*
X125705338Y-73562771D01*
X126765998Y-74623431D01*
X126624576Y-74764853D01*
X125563916Y-73704193D01*
X125563916Y-73704193D01*
G37*
G36*
X125281074Y-73987035D02*
X125422496Y-73845613D01*
X126483156Y-74906273D01*
X126341734Y-75047695D01*
X125281074Y-73987035D01*
X125281074Y-73987035D01*
G37*
G36*
X124998231Y-74269878D02*
X125139653Y-74128456D01*
X126200313Y-75189116D01*
X126058891Y-75330538D01*
X124998231Y-74269878D01*
X124998231Y-74269878D01*
G37*
G36*
X126058891Y-76815462D02*
X126200313Y-76956884D01*
X125139653Y-78017544D01*
X124998231Y-77876122D01*
X126058891Y-76815462D01*
X126058891Y-76815462D01*
G37*
G36*
X126341734Y-77098305D02*
X126483156Y-77239727D01*
X125422496Y-78300387D01*
X125281074Y-78158965D01*
X126341734Y-77098305D01*
X126341734Y-77098305D01*
G37*
G36*
X126624576Y-77381147D02*
X126765998Y-77522569D01*
X125705338Y-78583229D01*
X125563916Y-78441807D01*
X126624576Y-77381147D01*
X126624576Y-77381147D01*
G37*
G36*
X126907419Y-77663990D02*
X127048841Y-77805412D01*
X125988181Y-78866072D01*
X125846759Y-78724650D01*
X126907419Y-77663990D01*
X126907419Y-77663990D01*
G37*
G36*
X127190262Y-77946833D02*
X127331684Y-78088255D01*
X126271024Y-79148915D01*
X126129602Y-79007493D01*
X127190262Y-77946833D01*
X127190262Y-77946833D01*
G37*
G36*
X127473105Y-78229675D02*
X127614527Y-78371097D01*
X126553867Y-79431757D01*
X126412445Y-79290335D01*
X127473105Y-78229675D01*
X127473105Y-78229675D01*
G37*
G36*
X127755947Y-78512518D02*
X127897369Y-78653940D01*
X126836709Y-79714600D01*
X126695287Y-79573178D01*
X127755947Y-78512518D01*
X127755947Y-78512518D01*
G37*
G36*
X128038790Y-78795361D02*
X128180212Y-78936783D01*
X127119552Y-79997443D01*
X126978130Y-79856021D01*
X128038790Y-78795361D01*
X128038790Y-78795361D01*
G37*
G36*
X128321633Y-79078204D02*
X128463055Y-79219626D01*
X127402395Y-80280286D01*
X127260973Y-80138864D01*
X128321633Y-79078204D01*
X128321633Y-79078204D01*
G37*
G36*
X128604475Y-79361046D02*
X128745897Y-79502468D01*
X127685237Y-80563128D01*
X127543815Y-80421706D01*
X128604475Y-79361046D01*
X128604475Y-79361046D01*
G37*
G36*
X128887318Y-79643889D02*
X129028740Y-79785311D01*
X127968080Y-80845971D01*
X127826658Y-80704549D01*
X128887318Y-79643889D01*
X128887318Y-79643889D01*
G37*
G36*
X129170161Y-79926732D02*
X129311583Y-80068154D01*
X128250923Y-81128814D01*
X128109501Y-80987392D01*
X129170161Y-79926732D01*
X129170161Y-79926732D01*
G37*
G36*
X129453004Y-80209574D02*
X129594426Y-80350996D01*
X128533766Y-81411656D01*
X128392344Y-81270234D01*
X129453004Y-80209574D01*
X129453004Y-80209574D01*
G37*
G36*
X129735846Y-80492417D02*
X129877268Y-80633839D01*
X128816608Y-81694499D01*
X128675186Y-81553077D01*
X129735846Y-80492417D01*
X129735846Y-80492417D01*
G37*
G36*
X130018689Y-80775260D02*
X130160111Y-80916682D01*
X129099451Y-81977342D01*
X128958029Y-81835920D01*
X130018689Y-80775260D01*
X130018689Y-80775260D01*
G37*
G36*
X130301532Y-81058103D02*
X130442954Y-81199525D01*
X129382294Y-82260185D01*
X129240872Y-82118763D01*
X130301532Y-81058103D01*
X130301532Y-81058103D01*
G37*
G36*
X130584374Y-81340945D02*
X130725796Y-81482367D01*
X129665136Y-82543027D01*
X129523714Y-82401605D01*
X130584374Y-81340945D01*
X130584374Y-81340945D01*
G37*
G36*
X130867217Y-81623788D02*
X131008639Y-81765210D01*
X129947979Y-82825870D01*
X129806557Y-82684448D01*
X130867217Y-81623788D01*
X130867217Y-81623788D01*
G37*
G36*
X131150060Y-81906631D02*
X131291482Y-82048053D01*
X130230822Y-83108713D01*
X130089400Y-82967291D01*
X131150060Y-81906631D01*
X131150060Y-81906631D01*
G37*
G36*
X131432903Y-82189473D02*
X131574325Y-82330895D01*
X130513665Y-83391555D01*
X130372243Y-83250133D01*
X131432903Y-82189473D01*
X131432903Y-82189473D01*
G37*
G36*
X131715745Y-82472316D02*
X131857167Y-82613738D01*
X130796507Y-83674398D01*
X130655085Y-83532976D01*
X131715745Y-82472316D01*
X131715745Y-82472316D01*
G37*
G36*
X131998588Y-82755159D02*
X132140010Y-82896581D01*
X131079350Y-83957241D01*
X130937928Y-83815819D01*
X131998588Y-82755159D01*
X131998588Y-82755159D01*
G37*
G36*
X132281431Y-83038002D02*
X132422853Y-83179424D01*
X131362193Y-84240084D01*
X131220771Y-84098662D01*
X132281431Y-83038002D01*
X132281431Y-83038002D01*
G37*
G36*
X132564273Y-83320844D02*
X132705695Y-83462266D01*
X131645035Y-84522926D01*
X131503613Y-84381504D01*
X132564273Y-83320844D01*
X132564273Y-83320844D01*
G37*
G36*
X132847116Y-83603687D02*
X132988538Y-83745109D01*
X131927878Y-84805769D01*
X131786456Y-84664347D01*
X132847116Y-83603687D01*
X132847116Y-83603687D01*
G37*
G36*
X134473462Y-83745109D02*
X134614884Y-83603687D01*
X135675544Y-84664347D01*
X135534122Y-84805769D01*
X134473462Y-83745109D01*
X134473462Y-83745109D01*
G37*
G36*
X134756305Y-83462266D02*
X134897727Y-83320844D01*
X135958387Y-84381504D01*
X135816965Y-84522926D01*
X134756305Y-83462266D01*
X134756305Y-83462266D01*
G37*
G36*
X135039147Y-83179424D02*
X135180569Y-83038002D01*
X136241229Y-84098662D01*
X136099807Y-84240084D01*
X135039147Y-83179424D01*
X135039147Y-83179424D01*
G37*
G36*
X135321990Y-82896581D02*
X135463412Y-82755159D01*
X136524072Y-83815819D01*
X136382650Y-83957241D01*
X135321990Y-82896581D01*
X135321990Y-82896581D01*
G37*
G36*
X135604833Y-82613738D02*
X135746255Y-82472316D01*
X136806915Y-83532976D01*
X136665493Y-83674398D01*
X135604833Y-82613738D01*
X135604833Y-82613738D01*
G37*
G36*
X135887675Y-82330895D02*
X136029097Y-82189473D01*
X137089757Y-83250133D01*
X136948335Y-83391555D01*
X135887675Y-82330895D01*
X135887675Y-82330895D01*
G37*
G36*
X136170518Y-82048053D02*
X136311940Y-81906631D01*
X137372600Y-82967291D01*
X137231178Y-83108713D01*
X136170518Y-82048053D01*
X136170518Y-82048053D01*
G37*
G36*
X136453361Y-81765210D02*
X136594783Y-81623788D01*
X137655443Y-82684448D01*
X137514021Y-82825870D01*
X136453361Y-81765210D01*
X136453361Y-81765210D01*
G37*
G36*
X136736204Y-81482367D02*
X136877626Y-81340945D01*
X137938286Y-82401605D01*
X137796864Y-82543027D01*
X136736204Y-81482367D01*
X136736204Y-81482367D01*
G37*
G36*
X137019046Y-81199525D02*
X137160468Y-81058103D01*
X138221128Y-82118763D01*
X138079706Y-82260185D01*
X137019046Y-81199525D01*
X137019046Y-81199525D01*
G37*
G36*
X137301889Y-80916682D02*
X137443311Y-80775260D01*
X138503971Y-81835920D01*
X138362549Y-81977342D01*
X137301889Y-80916682D01*
X137301889Y-80916682D01*
G37*
G36*
X137584732Y-80633839D02*
X137726154Y-80492417D01*
X138786814Y-81553077D01*
X138645392Y-81694499D01*
X137584732Y-80633839D01*
X137584732Y-80633839D01*
G37*
G36*
X137867574Y-80350996D02*
X138008996Y-80209574D01*
X139069656Y-81270234D01*
X138928234Y-81411656D01*
X137867574Y-80350996D01*
X137867574Y-80350996D01*
G37*
G36*
X138150417Y-80068154D02*
X138291839Y-79926732D01*
X139352499Y-80987392D01*
X139211077Y-81128814D01*
X138150417Y-80068154D01*
X138150417Y-80068154D01*
G37*
G36*
X138433260Y-79785311D02*
X138574682Y-79643889D01*
X139635342Y-80704549D01*
X139493920Y-80845971D01*
X138433260Y-79785311D01*
X138433260Y-79785311D01*
G37*
G36*
X138716103Y-79502468D02*
X138857525Y-79361046D01*
X139918185Y-80421706D01*
X139776763Y-80563128D01*
X138716103Y-79502468D01*
X138716103Y-79502468D01*
G37*
G36*
X138998945Y-79219626D02*
X139140367Y-79078204D01*
X140201027Y-80138864D01*
X140059605Y-80280286D01*
X138998945Y-79219626D01*
X138998945Y-79219626D01*
G37*
G36*
X139281788Y-78936783D02*
X139423210Y-78795361D01*
X140483870Y-79856021D01*
X140342448Y-79997443D01*
X139281788Y-78936783D01*
X139281788Y-78936783D01*
G37*
G36*
X139564631Y-78653940D02*
X139706053Y-78512518D01*
X140766713Y-79573178D01*
X140625291Y-79714600D01*
X139564631Y-78653940D01*
X139564631Y-78653940D01*
G37*
G36*
X139847473Y-78371097D02*
X139988895Y-78229675D01*
X141049555Y-79290335D01*
X140908133Y-79431757D01*
X139847473Y-78371097D01*
X139847473Y-78371097D01*
G37*
G36*
X140130316Y-78088255D02*
X140271738Y-77946833D01*
X141332398Y-79007493D01*
X141190976Y-79148915D01*
X140130316Y-78088255D01*
X140130316Y-78088255D01*
G37*
G36*
X140413159Y-77805412D02*
X140554581Y-77663990D01*
X141615241Y-78724650D01*
X141473819Y-78866072D01*
X140413159Y-77805412D01*
X140413159Y-77805412D01*
G37*
G36*
X140696002Y-77522569D02*
X140837424Y-77381147D01*
X141898084Y-78441807D01*
X141756662Y-78583229D01*
X140696002Y-77522569D01*
X140696002Y-77522569D01*
G37*
G36*
X140978844Y-77239727D02*
X141120266Y-77098305D01*
X142180926Y-78158965D01*
X142039504Y-78300387D01*
X140978844Y-77239727D01*
X140978844Y-77239727D01*
G37*
G36*
X141261687Y-76956884D02*
X141403109Y-76815462D01*
X142463769Y-77876122D01*
X142322347Y-78017544D01*
X141261687Y-76956884D01*
X141261687Y-76956884D01*
G37*
D11*
X158115000Y-50165000D03*
D12*
X158115000Y-52705000D03*
X155575000Y-50165000D03*
X155575000Y-52705000D03*
X153035000Y-50165000D03*
X153035000Y-52705000D03*
X150495000Y-50165000D03*
X150495000Y-52705000D03*
X147955000Y-50165000D03*
X147955000Y-52705000D03*
X145415000Y-50165000D03*
X145415000Y-52705000D03*
X142875000Y-50165000D03*
X142875000Y-52705000D03*
X140335000Y-50165000D03*
X140335000Y-52705000D03*
X137795000Y-50165000D03*
X137795000Y-52705000D03*
X135255000Y-50165000D03*
X135255000Y-52705000D03*
X132715000Y-50165000D03*
X132715000Y-52705000D03*
X130175000Y-50165000D03*
X130175000Y-52705000D03*
X127635000Y-50165000D03*
X127635000Y-52705000D03*
X125095000Y-50165000D03*
X125095000Y-52705000D03*
X122555000Y-50165000D03*
X122555000Y-52705000D03*
X120015000Y-50165000D03*
X120015000Y-52705000D03*
X117475000Y-50165000D03*
X117475000Y-52705000D03*
X114935000Y-50165000D03*
X114935000Y-52705000D03*
X112395000Y-50165000D03*
X112395000Y-52705000D03*
X109855000Y-50165000D03*
X109855000Y-52705000D03*
D13*
X100965000Y-64135000D03*
D14*
X100965000Y-66675000D03*
X100965000Y-69215000D03*
D11*
X158064200Y-70586600D03*
D12*
X160604200Y-70586600D03*
X158064200Y-73126600D03*
X160604200Y-73126600D03*
X158064200Y-75666600D03*
X160604200Y-75666600D03*
X158064200Y-78206600D03*
X160604200Y-78206600D03*
X158064200Y-80746600D03*
X160604200Y-80746600D03*
D15*
X160434200Y-67386200D03*
X158234200Y-67386200D03*
D16*
X163804600Y-69943800D03*
X163804600Y-72143800D03*
X163804600Y-76868200D03*
X163804600Y-74668200D03*
X163855400Y-79494200D03*
X163855400Y-81694200D03*
D17*
X136334500Y-67284600D03*
X133921500Y-74358500D03*
X142213409Y-69823409D03*
X138442700Y-77381100D03*
X134329249Y-81316751D03*
X128868249Y-75220751D03*
X132842000Y-71247000D03*
X145542000Y-66471800D03*
X144183100Y-65354200D03*
X130592751Y-79157751D03*
X131343400Y-71107300D03*
X126784100Y-81038700D03*
X137248900Y-84404200D03*
X140601700Y-70599300D03*
X141135100Y-80365600D03*
X127914400Y-82473800D03*
D18*
X140448514Y-73315284D02*
X140451116Y-73315284D01*
X140451116Y-73315284D02*
X156845000Y-56921400D01*
X156845000Y-56921400D02*
X156845000Y-51435000D01*
X156845000Y-51435000D02*
X155575000Y-50165000D01*
X140165672Y-73032441D02*
X140165672Y-73029228D01*
X140165672Y-73029228D02*
X154305000Y-58889900D01*
X154305000Y-58889900D02*
X154305000Y-51435000D01*
X154305000Y-51435000D02*
X153035000Y-50165000D01*
X138751458Y-71618227D02*
X138757273Y-71618227D01*
X138757273Y-71618227D02*
X151765000Y-58610500D01*
X151765000Y-58610500D02*
X151765000Y-51435000D01*
X151765000Y-51435000D02*
X150495000Y-50165000D01*
X137902930Y-70769699D02*
X137904001Y-70769699D01*
X137904001Y-70769699D02*
X150495000Y-58178700D01*
X150495000Y-58178700D02*
X150495000Y-52705000D01*
X137620087Y-70486856D02*
X137620087Y-70482113D01*
X137620087Y-70482113D02*
X147955000Y-60147200D01*
X147955000Y-60147200D02*
X147955000Y-52705000D01*
X137337245Y-70204014D02*
X137339386Y-70204014D01*
X137339386Y-70204014D02*
X146685000Y-60858400D01*
X146685000Y-60858400D02*
X146685000Y-51435000D01*
X146685000Y-51435000D02*
X145415000Y-50165000D01*
X137054402Y-69921171D02*
X137054402Y-69917498D01*
X137054402Y-69917498D02*
X145415000Y-61556900D01*
X145415000Y-61556900D02*
X145415000Y-52705000D01*
X136771559Y-69638328D02*
X136774772Y-69638328D01*
X136774772Y-69638328D02*
X141808200Y-64604900D01*
X141808200Y-64604900D02*
X141808200Y-56184800D01*
X141808200Y-56184800D02*
X144145000Y-53848000D01*
X144145000Y-53848000D02*
X144145000Y-51435000D01*
X144145000Y-51435000D02*
X142875000Y-50165000D01*
X141862728Y-77416503D02*
X141869003Y-77416503D01*
X141869003Y-77416503D02*
X154190700Y-89738200D01*
X154190700Y-89738200D02*
X161607500Y-89738200D01*
X161607500Y-89738200D02*
X165239700Y-93370400D01*
X165239700Y-93370400D02*
X165239700Y-120230900D01*
X165239700Y-120230900D02*
X164287200Y-121183400D01*
X164287200Y-121183400D02*
X161823400Y-121183400D01*
X161823400Y-121183400D02*
X160020000Y-119380000D01*
X136205874Y-69072643D02*
X136210157Y-69072643D01*
X136210157Y-69072643D02*
X136931400Y-68351400D01*
X136931400Y-68351400D02*
X136931400Y-57708800D01*
X136931400Y-57708800D02*
X140335000Y-54305200D01*
X140335000Y-54305200D02*
X140335000Y-52705000D01*
X132387497Y-67941272D02*
X132387497Y-67923295D01*
X132387497Y-67923295D02*
X131864100Y-67399898D01*
X131864100Y-67399898D02*
X131864100Y-60274200D01*
X131864100Y-60274200D02*
X137795000Y-54343300D01*
X137795000Y-54343300D02*
X137795000Y-52705000D01*
X132104654Y-68224115D02*
X132092415Y-68224115D01*
X132092415Y-68224115D02*
X131432300Y-67564000D01*
X131432300Y-67564000D02*
X131432300Y-58521600D01*
X131432300Y-58521600D02*
X136525000Y-53428900D01*
X136525000Y-53428900D02*
X136525000Y-51435000D01*
X136525000Y-51435000D02*
X135255000Y-50165000D01*
X131821812Y-68506957D02*
X131816457Y-68506957D01*
X131816457Y-68506957D02*
X131013200Y-67703700D01*
X131013200Y-67703700D02*
X131013200Y-57226200D01*
X131013200Y-57226200D02*
X133985000Y-54254400D01*
X133985000Y-54254400D02*
X133985000Y-51435000D01*
X133985000Y-51435000D02*
X132715000Y-50165000D01*
X131538969Y-68789800D02*
X131538969Y-68788269D01*
X131538969Y-68788269D02*
X130568700Y-67818000D01*
X130568700Y-67818000D02*
X130568700Y-56426100D01*
X130568700Y-56426100D02*
X132715000Y-54279800D01*
X132715000Y-54279800D02*
X132715000Y-52705000D01*
X130407598Y-69921171D02*
X130407598Y-69917498D01*
X130407598Y-69917498D02*
X129616200Y-69126100D01*
X131445000Y-51435000D02*
X130175000Y-50165000D01*
X131445000Y-53936900D02*
X131445000Y-51435000D01*
X129616200Y-55765700D02*
X131445000Y-53936900D01*
X129616200Y-69126100D02*
X129616200Y-55765700D01*
X130124755Y-70204014D02*
X130122614Y-70204014D01*
X130122614Y-70204014D02*
X128905000Y-68986400D01*
X128905000Y-53975000D02*
X130175000Y-52705000D01*
X128905000Y-68986400D02*
X128905000Y-53975000D01*
X129841913Y-70486856D02*
X129841913Y-70482113D01*
X129841913Y-70482113D02*
X127635000Y-68275200D01*
X127635000Y-68275200D02*
X127635000Y-52705000D01*
X129559070Y-70769699D02*
X129557999Y-70769699D01*
X129557999Y-70769699D02*
X126377700Y-67589400D01*
X126377700Y-67589400D02*
X126377700Y-51447700D01*
X126377700Y-51447700D02*
X125095000Y-50165000D01*
X129276227Y-71052542D02*
X129276227Y-71046727D01*
X129276227Y-71046727D02*
X125095000Y-66865500D01*
X125095000Y-66865500D02*
X125095000Y-52705000D01*
X128993385Y-71335385D02*
X128980685Y-71335385D01*
X128980685Y-71335385D02*
X123825000Y-66179700D01*
X123825000Y-66179700D02*
X123825000Y-51435000D01*
X123825000Y-51435000D02*
X122555000Y-50165000D01*
X120015000Y-50165000D02*
X121285000Y-51435000D01*
X121285000Y-64185800D02*
X121285000Y-51435000D01*
X121285000Y-64185800D02*
X128710542Y-71611342D01*
X128710542Y-71618227D02*
X128710542Y-71611342D01*
X128427699Y-71901070D02*
X128427699Y-71899999D01*
X128427699Y-71899999D02*
X120015000Y-63487300D01*
X120015000Y-63487300D02*
X120015000Y-52705000D01*
X118757700Y-51460400D02*
X118757700Y-51447700D01*
X118757700Y-62788800D02*
X118757700Y-51460400D01*
X128144856Y-72175956D02*
X118757700Y-62788800D01*
X118757700Y-51447700D02*
X117475000Y-50165000D01*
X128144856Y-72183913D02*
X128144856Y-72175956D01*
X127862014Y-72466755D02*
X127862014Y-72451914D01*
X127862014Y-72451914D02*
X116205000Y-60794900D01*
X116205000Y-60794900D02*
X116205000Y-51435000D01*
X116205000Y-51435000D02*
X114935000Y-50165000D01*
X127579171Y-72749598D02*
X127579171Y-72740571D01*
X127579171Y-72740571D02*
X114935000Y-60096400D01*
X114935000Y-60096400D02*
X114935000Y-52705000D01*
X127296328Y-73032441D02*
X127296328Y-73029228D01*
X127296328Y-73029228D02*
X113957100Y-59690000D01*
X113957100Y-59690000D02*
X113621089Y-59347494D01*
X113621089Y-59347494D02*
X113629703Y-51447800D01*
X113629703Y-51447800D02*
X112420400Y-50165000D01*
X112420400Y-50165000D02*
X112395000Y-50165000D01*
X126447800Y-73880969D02*
X126446269Y-73880969D01*
X126446269Y-73880969D02*
X112433100Y-59867800D01*
X112433100Y-59867800D02*
X112433100Y-52743100D01*
X112433100Y-52743100D02*
X112395000Y-52705000D01*
X126164957Y-74163812D02*
X126157612Y-74163812D01*
X126157612Y-74163812D02*
X109893100Y-57899300D01*
X109893100Y-57899300D02*
X109893100Y-52743100D01*
X109893100Y-52743100D02*
X109855000Y-52705000D01*
X162560000Y-95250000D02*
X162560000Y-95821500D01*
X162560000Y-95821500D02*
X161315400Y-97066100D01*
X162560000Y-99618800D02*
X162560000Y-116840000D01*
X161315400Y-98374200D02*
X162560000Y-99618800D01*
X161315400Y-97066100D02*
X161315400Y-98374200D01*
X141297043Y-77982188D02*
X141304388Y-77982188D01*
X141304388Y-77982188D02*
X153860500Y-90538300D01*
X153860500Y-90538300D02*
X159486600Y-90538300D01*
X159486600Y-90538300D02*
X162560000Y-93611700D01*
X162560000Y-93611700D02*
X162560000Y-95250000D01*
X162560000Y-97790000D02*
X162560000Y-97955100D01*
X162560000Y-97955100D02*
X164096700Y-99491800D01*
X164096700Y-117843300D02*
X162560000Y-119380000D01*
X164096700Y-99491800D02*
X164096700Y-117843300D01*
X141579885Y-77699346D02*
X141579885Y-77720281D01*
X141579885Y-77720281D02*
X154016904Y-90157300D01*
X154016904Y-90157300D02*
X160820100Y-90157300D01*
X160820100Y-90157300D02*
X164096700Y-93433900D01*
X164096700Y-93433900D02*
X164096700Y-96253300D01*
X164096700Y-96253300D02*
X162560000Y-97790000D01*
X160020000Y-95250000D02*
X160020000Y-95885000D01*
X160020000Y-95885000D02*
X158737300Y-97167700D01*
X160020000Y-99580700D02*
X160020000Y-116840000D01*
X158737300Y-98298000D02*
X160020000Y-99580700D01*
X158737300Y-97167700D02*
X158737300Y-98298000D01*
X140731357Y-78547874D02*
X140731357Y-78552157D01*
X140731357Y-78552157D02*
X153479500Y-91300300D01*
X153479500Y-91300300D02*
X157187900Y-91300300D01*
X157187900Y-91300300D02*
X160020000Y-94132400D01*
X160020000Y-94132400D02*
X160020000Y-95250000D01*
X141014200Y-78265031D02*
X141015731Y-78265031D01*
X141015731Y-78265031D02*
X153670000Y-90919300D01*
X161277300Y-96532700D02*
X160020000Y-97790000D01*
X161277300Y-94068900D02*
X161277300Y-96532700D01*
X158127700Y-90919300D02*
X161277300Y-94068900D01*
X153670000Y-90919300D02*
X158127700Y-90919300D01*
X157480000Y-97790000D02*
X157480000Y-98272600D01*
X157480000Y-98272600D02*
X158762700Y-99555300D01*
X158762700Y-118097300D02*
X157480000Y-119380000D01*
X158762700Y-99555300D02*
X158762700Y-118097300D01*
X140448514Y-78830716D02*
X140451116Y-78830716D01*
X140451116Y-78830716D02*
X153314400Y-91694000D01*
X153314400Y-91694000D02*
X156006800Y-91694000D01*
X156006800Y-91694000D02*
X158750000Y-94437200D01*
X158750000Y-94437200D02*
X158750000Y-96520000D01*
X158750000Y-96520000D02*
X157480000Y-97790000D01*
X154940000Y-95250000D02*
X154940000Y-95859600D01*
X154940000Y-95859600D02*
X153670000Y-97129600D01*
X154940000Y-99631500D02*
X154940000Y-116840000D01*
X153670000Y-98361500D02*
X154940000Y-99631500D01*
X153670000Y-97129600D02*
X153670000Y-98361500D01*
X154940000Y-94056200D02*
X154940000Y-95250000D01*
X139317144Y-79962087D02*
X139334587Y-79962087D01*
X139334587Y-79962087D02*
X151892000Y-92519500D01*
X151892000Y-92519500D02*
X153403300Y-92519500D01*
X153403300Y-92519500D02*
X154940000Y-94056200D01*
X154940000Y-97790000D02*
X154940000Y-98348800D01*
X154940000Y-98348800D02*
X156210000Y-99618800D01*
X156210000Y-118110000D02*
X154940000Y-119380000D01*
X156210000Y-99618800D02*
X156210000Y-118110000D01*
X156210000Y-96520000D02*
X154940000Y-97790000D01*
X139599986Y-79679245D02*
X139599986Y-79681386D01*
X139599986Y-79681386D02*
X152031700Y-92113100D01*
X152031700Y-92113100D02*
X154089100Y-92113100D01*
X154089100Y-92113100D02*
X156210000Y-94234000D01*
X156210000Y-94234000D02*
X156210000Y-96520000D01*
X152400000Y-95250000D02*
X152400000Y-95834200D01*
X152400000Y-95834200D02*
X151104600Y-97129600D01*
X152400000Y-99542600D02*
X152400000Y-116840000D01*
X151104600Y-98247200D02*
X152400000Y-99542600D01*
X151104600Y-97129600D02*
X151104600Y-98247200D01*
X138751458Y-80527773D02*
X138751458Y-80543354D01*
X138751458Y-80543354D02*
X152400000Y-94191896D01*
X152400000Y-94191896D02*
X152400000Y-95250000D01*
X152400000Y-97790000D02*
X152400000Y-98209100D01*
X152400000Y-98209100D02*
X153644600Y-99453700D01*
X153644600Y-118135400D02*
X152400000Y-119380000D01*
X153644600Y-99453700D02*
X153644600Y-118135400D01*
X139034301Y-80244930D02*
X139045930Y-80244930D01*
X139045930Y-80244930D02*
X151726900Y-92925900D01*
X151726900Y-92925900D02*
X152222200Y-92925900D01*
X152222200Y-92925900D02*
X153670000Y-94373700D01*
X153670000Y-94373700D02*
X153670000Y-96520000D01*
X153670000Y-96520000D02*
X152400000Y-97790000D01*
X149860000Y-95250000D02*
X149860000Y-95897700D01*
X149860000Y-95897700D02*
X148590000Y-97167700D01*
X149860000Y-99568000D02*
X149860000Y-116840000D01*
X148590000Y-98298000D02*
X149860000Y-99568000D01*
X148590000Y-97167700D02*
X148590000Y-98298000D01*
X138185773Y-81093458D02*
X138192658Y-81093458D01*
X138192658Y-81093458D02*
X149860000Y-92760800D01*
X149860000Y-92760800D02*
X149860000Y-95250000D01*
X149860000Y-97790000D02*
X149860000Y-98298000D01*
X149860000Y-98298000D02*
X151130000Y-99568000D01*
X151130000Y-118110000D02*
X149860000Y-119380000D01*
X151130000Y-99568000D02*
X151130000Y-118110000D01*
X138468615Y-80810615D02*
X138481315Y-80810615D01*
X138481315Y-80810615D02*
X151117300Y-93446600D01*
X151117300Y-93446600D02*
X151117300Y-96532700D01*
X151117300Y-96532700D02*
X149860000Y-97790000D01*
X147320000Y-95250000D02*
X147320000Y-95859600D01*
X147320000Y-95859600D02*
X146024600Y-97155000D01*
X147320000Y-99555300D02*
X147320000Y-116840000D01*
X146024600Y-98259900D02*
X147320000Y-99555300D01*
X146024600Y-97155000D02*
X146024600Y-98259900D01*
X137620087Y-81659144D02*
X137620087Y-81663887D01*
X137620087Y-81663887D02*
X147320000Y-91363800D01*
X147320000Y-91363800D02*
X147320000Y-95250000D01*
X147320000Y-97790000D02*
X147320000Y-98272600D01*
X147320000Y-98272600D02*
X148602700Y-99555300D01*
X148602700Y-118097300D02*
X147320000Y-119380000D01*
X148602700Y-99555300D02*
X148602700Y-118097300D01*
X137902930Y-81376301D02*
X137916701Y-81376301D01*
X137916701Y-81376301D02*
X148590000Y-92049600D01*
X148590000Y-92049600D02*
X148590000Y-96520000D01*
X148590000Y-96520000D02*
X147320000Y-97790000D01*
X144780000Y-116840000D02*
X144780000Y-99593400D01*
X143484600Y-97155000D02*
X143484600Y-98298000D01*
X143484600Y-98298000D02*
X144780000Y-99593400D01*
X143484600Y-97155000D02*
X144780000Y-95859600D01*
X144780000Y-95250000D02*
X144780000Y-95859600D01*
X137337245Y-81941986D02*
X137339386Y-81941986D01*
X137339386Y-81941986D02*
X144780000Y-89382600D01*
X144780000Y-89382600D02*
X144780000Y-95250000D01*
X142240000Y-116840000D02*
X142240000Y-99631500D01*
X140957300Y-97142300D02*
X140957300Y-98348800D01*
X140957300Y-98348800D02*
X142240000Y-99631500D01*
X140957300Y-97142300D02*
X142240000Y-95859600D01*
X142240000Y-95250000D02*
X142240000Y-95859600D01*
X136771559Y-82507672D02*
X136774772Y-82507672D01*
X136774772Y-82507672D02*
X142240000Y-87972900D01*
X142240000Y-87972900D02*
X142240000Y-95250000D01*
X142240000Y-97790000D02*
X142240000Y-98285300D01*
X142240000Y-98285300D02*
X143510000Y-99555300D01*
X143510000Y-118110000D02*
X142240000Y-119380000D01*
X143510000Y-99555300D02*
X143510000Y-118110000D01*
X137054402Y-82224829D02*
X137063429Y-82224829D01*
X137063429Y-82224829D02*
X143522700Y-88684100D01*
X143522700Y-88684100D02*
X143522700Y-96507300D01*
X143522700Y-96507300D02*
X142240000Y-97790000D01*
X139700000Y-95250000D02*
X139700000Y-95935800D01*
X139700000Y-95935800D02*
X138442700Y-97193100D01*
X139700000Y-99580700D02*
X139700000Y-116840000D01*
X138442700Y-98323400D02*
X139700000Y-99580700D01*
X138442700Y-97193100D02*
X138442700Y-98323400D01*
X135640188Y-83639043D02*
X135658243Y-83639043D01*
X135658243Y-83639043D02*
X139700000Y-87680800D01*
X139700000Y-87680800D02*
X139700000Y-95250000D01*
X139700000Y-97790000D02*
X139700000Y-98310700D01*
X139700000Y-98310700D02*
X140970000Y-99580700D01*
X140970000Y-118110000D02*
X139700000Y-119380000D01*
X140970000Y-99580700D02*
X140970000Y-118110000D01*
X136488716Y-82790514D02*
X136488716Y-82793116D01*
X136488716Y-82793116D02*
X140957300Y-87261700D01*
X140957300Y-87261700D02*
X140957300Y-96532700D01*
X140957300Y-96532700D02*
X139700000Y-97790000D01*
X137160000Y-95250000D02*
X137160000Y-95910400D01*
X137160000Y-95910400D02*
X135890000Y-97180400D01*
X137160000Y-99682300D02*
X137160000Y-116840000D01*
X135890000Y-98412300D02*
X137160000Y-99682300D01*
X135890000Y-97180400D02*
X135890000Y-98412300D01*
X135074503Y-84204728D02*
X135074503Y-84211003D01*
X135074503Y-84211003D02*
X137160000Y-86296500D01*
X137160000Y-86296500D02*
X137160000Y-95250000D01*
X137160000Y-97790000D02*
X137160000Y-98234500D01*
X137160000Y-98234500D02*
X138442700Y-99517200D01*
X138442700Y-118097300D02*
X137160000Y-119380000D01*
X138442700Y-99517200D02*
X138442700Y-118097300D01*
X135357346Y-83921885D02*
X135357346Y-83922346D01*
X135357346Y-83922346D02*
X138417300Y-86982300D01*
X138417300Y-86982300D02*
X138417300Y-96532700D01*
X138417300Y-96532700D02*
X137160000Y-97790000D01*
X134620000Y-95250000D02*
X134620000Y-95859600D01*
X134620000Y-95859600D02*
X133350000Y-97129600D01*
X134620000Y-99618800D02*
X134620000Y-116840000D01*
X133350000Y-98348800D02*
X134620000Y-99618800D01*
X133350000Y-97129600D02*
X133350000Y-98348800D01*
X132104654Y-83921885D02*
X132092415Y-83921885D01*
X132092415Y-83921885D02*
X131089400Y-84924900D01*
X131089400Y-84924900D02*
X131089400Y-91719400D01*
X131089400Y-91719400D02*
X134620000Y-95250000D01*
X134620000Y-97790000D02*
X134620000Y-98374200D01*
X134620000Y-98374200D02*
X135940800Y-99695000D01*
X135940800Y-118059200D02*
X134620000Y-119380000D01*
X135940800Y-99695000D02*
X135940800Y-118059200D01*
X132387497Y-84204728D02*
X132368372Y-84204728D01*
X132368372Y-84204728D02*
X131699000Y-84874100D01*
X131699000Y-84874100D02*
X131699000Y-90258900D01*
X131699000Y-90258900D02*
X135902700Y-94462600D01*
X135902700Y-94462600D02*
X135902700Y-96507300D01*
X135902700Y-96507300D02*
X134620000Y-97790000D01*
X132080000Y-95250000D02*
X132080000Y-95935800D01*
X132080000Y-95935800D02*
X130822700Y-97193100D01*
X132080000Y-99618800D02*
X132080000Y-116840000D01*
X130822700Y-98361500D02*
X132080000Y-99618800D01*
X130822700Y-97193100D02*
X130822700Y-98361500D01*
X131538969Y-83356200D02*
X131527800Y-83356200D01*
X131527800Y-83356200D02*
X130313702Y-84570298D01*
X130313702Y-84570298D02*
X130313702Y-92709002D01*
X130313702Y-92709002D02*
X132080000Y-94475300D01*
X132080000Y-94475300D02*
X132080000Y-95250000D01*
X132080000Y-97790000D02*
X132080000Y-98247200D01*
X132080000Y-98247200D02*
X133337300Y-99504500D01*
X133337300Y-118122700D02*
X132080000Y-119380000D01*
X133337300Y-99504500D02*
X133337300Y-118122700D01*
X131821812Y-83639043D02*
X131821812Y-83646388D01*
X131821812Y-83646388D02*
X130693704Y-84774496D01*
X130693704Y-84774496D02*
X130693704Y-91920604D01*
X130693704Y-91920604D02*
X133362700Y-94589600D01*
X133362700Y-94589600D02*
X133362700Y-96507300D01*
X133362700Y-96507300D02*
X132080000Y-97790000D01*
X129540000Y-95250000D02*
X129540000Y-96037400D01*
X129540000Y-96037400D02*
X128244600Y-97332800D01*
X129540000Y-99656900D02*
X129540000Y-116840000D01*
X128244600Y-98361500D02*
X129540000Y-99656900D01*
X128244600Y-97332800D02*
X128244600Y-98361500D01*
X130973284Y-82790514D02*
X130973284Y-82793116D01*
X130973284Y-82793116D02*
X129540000Y-84226400D01*
X129540000Y-84226400D02*
X129540000Y-95250000D01*
X129540000Y-97790000D02*
X129540000Y-98221800D01*
X129540000Y-98221800D02*
X130822700Y-99504500D01*
X130822700Y-118097300D02*
X129540000Y-119380000D01*
X130822700Y-99504500D02*
X130822700Y-118097300D01*
X131256126Y-83073357D02*
X131251843Y-83073357D01*
X131251843Y-83073357D02*
X129933700Y-84391500D01*
X129933700Y-84391500D02*
X129933700Y-93103700D01*
X129933700Y-93103700D02*
X130822700Y-93992700D01*
X130822700Y-93992700D02*
X130822700Y-96507300D01*
X130822700Y-96507300D02*
X129540000Y-97790000D01*
X127000000Y-95250000D02*
X127000000Y-95973900D01*
X127000000Y-95973900D02*
X125742700Y-97231200D01*
X127000000Y-99720400D02*
X127000000Y-116840000D01*
X125742700Y-98463100D02*
X127000000Y-99720400D01*
X125742700Y-97231200D02*
X125742700Y-98463100D01*
X130407598Y-82224829D02*
X130407598Y-82228502D01*
X130407598Y-82228502D02*
X127000000Y-85636100D01*
X127000000Y-85636100D02*
X127000000Y-95250000D01*
X127000000Y-97790000D02*
X127000000Y-98412300D01*
X127000000Y-98412300D02*
X128244600Y-99656900D01*
X128244600Y-118135400D02*
X127000000Y-119380000D01*
X128244600Y-99656900D02*
X128244600Y-118135400D01*
X130690441Y-82507672D02*
X130687228Y-82507672D01*
X130687228Y-82507672D02*
X128270000Y-84924900D01*
X128270000Y-84924900D02*
X128270000Y-96520000D01*
X128270000Y-96520000D02*
X127000000Y-97790000D01*
X124460000Y-95250000D02*
X124460000Y-95897700D01*
X124460000Y-95897700D02*
X123164600Y-97193100D01*
X124460000Y-99695000D02*
X124460000Y-116840000D01*
X123164600Y-98399600D02*
X124460000Y-99695000D01*
X123164600Y-97193100D02*
X123164600Y-98399600D01*
X129841913Y-81659144D02*
X129841913Y-81663887D01*
X129841913Y-81663887D02*
X124460000Y-87045800D01*
X124460000Y-87045800D02*
X124460000Y-95250000D01*
X129841913Y-81659144D02*
X129833956Y-81659144D01*
X124460000Y-97790000D02*
X124460000Y-98209100D01*
X124460000Y-98209100D02*
X125730000Y-99479100D01*
X125730000Y-118110000D02*
X124460000Y-119380000D01*
X125730000Y-99479100D02*
X125730000Y-118110000D01*
X130124755Y-81941986D02*
X130122614Y-81941986D01*
X130122614Y-81941986D02*
X125730000Y-86334600D01*
X125730000Y-96520000D02*
X124460000Y-97790000D01*
X125730000Y-86334600D02*
X125730000Y-96520000D01*
X121920000Y-95250000D02*
X121920000Y-95897700D01*
X121920000Y-95897700D02*
X120650000Y-97167700D01*
X121920000Y-99606100D02*
X121920000Y-116840000D01*
X120650000Y-98336100D02*
X121920000Y-99606100D01*
X120650000Y-97167700D02*
X120650000Y-98336100D01*
X128427699Y-80244930D02*
X128427699Y-80246001D01*
X128427699Y-80246001D02*
X121920000Y-86753700D01*
X121920000Y-86753700D02*
X121920000Y-95250000D01*
X121920000Y-97790000D02*
X121920000Y-98196400D01*
X121920000Y-98196400D02*
X123190000Y-99466400D01*
X123190000Y-118110000D02*
X121920000Y-119380000D01*
X123190000Y-99466400D02*
X123190000Y-118110000D01*
X128710542Y-80527773D02*
X128710542Y-80534658D01*
X128710542Y-80534658D02*
X123190000Y-86055200D01*
X123190000Y-96520000D02*
X121920000Y-97790000D01*
X123190000Y-86055200D02*
X123190000Y-96520000D01*
X128710542Y-80527773D02*
X128704727Y-80527773D01*
X119380000Y-95250000D02*
X119380000Y-95973900D01*
X119380000Y-95973900D02*
X118110000Y-97243900D01*
X119380000Y-99669600D02*
X119380000Y-116840000D01*
X118110000Y-98399600D02*
X119380000Y-99669600D01*
X118110000Y-97243900D02*
X118110000Y-98399600D01*
X127296328Y-79113559D02*
X127296328Y-79116772D01*
X127296328Y-79116772D02*
X119380000Y-87033100D01*
X119380000Y-87033100D02*
X119380000Y-95250000D01*
X119380000Y-97790000D02*
X119380000Y-98196400D01*
X119380000Y-98196400D02*
X120650000Y-99466400D01*
X120650000Y-118110000D02*
X119380000Y-119380000D01*
X120650000Y-99466400D02*
X120650000Y-118110000D01*
X127579171Y-79396402D02*
X127575498Y-79396402D01*
X127575498Y-79396402D02*
X120650000Y-86321900D01*
X120650000Y-96520000D02*
X119380000Y-97790000D01*
X120650000Y-86321900D02*
X120650000Y-96520000D01*
X126730643Y-78547874D02*
X126730643Y-78552157D01*
X126730643Y-78552157D02*
X116840000Y-88442800D01*
X116840000Y-88442800D02*
X116840000Y-95250000D01*
X116840000Y-95250000D02*
X116840000Y-95719900D01*
X116840000Y-95719900D02*
X115595400Y-96964500D01*
X115595400Y-96964500D02*
X115595400Y-98234500D01*
X115595400Y-98234500D02*
X116840000Y-99479100D01*
X116840000Y-99479100D02*
X116840000Y-116840000D01*
X127013486Y-78830716D02*
X127010884Y-78830716D01*
X127010884Y-78830716D02*
X118122700Y-87718900D01*
X118122700Y-96507300D02*
X116840000Y-97790000D01*
X118122700Y-87718900D02*
X118122700Y-96507300D01*
X116840000Y-97790000D02*
X116840000Y-98234500D01*
X116840000Y-98234500D02*
X118148100Y-99542600D01*
X118148100Y-99542600D02*
X118148100Y-118071900D01*
X118148100Y-118071900D02*
X116840000Y-119380000D01*
X114300000Y-95250000D02*
X114300000Y-95787404D01*
X114300000Y-95787404D02*
X113042700Y-97044704D01*
X113042700Y-115582700D02*
X114300000Y-116840000D01*
X113042700Y-97044704D02*
X113042700Y-115582700D01*
X126164957Y-77982188D02*
X126157612Y-77982188D01*
X126157612Y-77982188D02*
X114300000Y-89839800D01*
X114300000Y-89839800D02*
X114300000Y-95250000D01*
X126164957Y-77982188D02*
X126164957Y-77987543D01*
X114579400Y-96888300D02*
X114579400Y-97510600D01*
X114579400Y-97510600D02*
X114300000Y-97790000D01*
X126447800Y-78265031D02*
X126446269Y-78265031D01*
X126446269Y-78265031D02*
X115557300Y-89154000D01*
X115557300Y-95910400D02*
X114579400Y-96888300D01*
X114579400Y-96888300D02*
X114566700Y-96901000D01*
X115557300Y-89154000D02*
X115557300Y-95910400D01*
X114300000Y-97790000D02*
X114300000Y-97878900D01*
X114300000Y-97878900D02*
X115582700Y-99161600D01*
X115582700Y-99161600D02*
X115582700Y-118097300D01*
X115582700Y-118097300D02*
X114300000Y-119380000D01*
X125882115Y-77699346D02*
X125881654Y-77699346D01*
X125881654Y-77699346D02*
X113030000Y-90551000D01*
X113030000Y-96520000D02*
X111760000Y-97790000D01*
X113030000Y-90551000D02*
X113030000Y-96520000D01*
X111760000Y-97790000D02*
X111760000Y-97802700D01*
X111760000Y-97802700D02*
X110490000Y-99072700D01*
X110490000Y-118110000D02*
X111760000Y-119380000D01*
X110490000Y-99072700D02*
X110490000Y-118110000D01*
X109220000Y-97790000D02*
X109220000Y-98221800D01*
X109220000Y-98221800D02*
X107899200Y-99542600D01*
X107899200Y-118059200D02*
X109220000Y-119380000D01*
X107899200Y-99542600D02*
X107899200Y-118059200D01*
X125599272Y-77416503D02*
X125592997Y-77416503D01*
X125592997Y-77416503D02*
X110490000Y-92519500D01*
X110490000Y-96520000D02*
X109220000Y-97790000D01*
X110490000Y-92519500D02*
X110490000Y-96520000D01*
X125599272Y-74729497D02*
X125599272Y-74723072D01*
X125599272Y-74723072D02*
X123190000Y-72390000D01*
X123190000Y-72390000D02*
X109093000Y-72390000D01*
X109093000Y-72390000D02*
X107962581Y-73558386D01*
X107962581Y-73558386D02*
X107950000Y-96520000D01*
X107950000Y-96520000D02*
X106680000Y-97790000D01*
X125882115Y-74446654D02*
X125881654Y-74446654D01*
X125881654Y-74446654D02*
X122516900Y-71081900D01*
X122516900Y-71081900D02*
X106946700Y-71081900D01*
X106946700Y-71081900D02*
X105448100Y-72580500D01*
X105448100Y-72580500D02*
X105448100Y-118148100D01*
X105448100Y-118148100D02*
X106680000Y-119380000D01*
X136488716Y-69355486D02*
X136488716Y-69352884D01*
X136488716Y-69352884D02*
X138811000Y-67030600D01*
X138811000Y-67030600D02*
X138811000Y-57061100D01*
X138811000Y-57061100D02*
X141592300Y-54279800D01*
X141592300Y-54279800D02*
X141592300Y-51422300D01*
X141592300Y-51422300D02*
X140335000Y-50165000D01*
X163804600Y-74668200D02*
X162618600Y-74668200D01*
X159359600Y-74371200D02*
X158064200Y-75666600D01*
X162321600Y-74371200D02*
X159359600Y-74371200D01*
X162618600Y-74668200D02*
X162321600Y-74371200D01*
X135923031Y-68789800D02*
X135923031Y-68800969D01*
X135923031Y-68800969D02*
X135255000Y-69469000D01*
X135255000Y-69469000D02*
X135255000Y-75539600D01*
X135255000Y-75539600D02*
X135369300Y-75628500D01*
X135369300Y-75628500D02*
X157848300Y-75628500D01*
X157848300Y-75628500D02*
X158064200Y-75666600D01*
X163855400Y-81694200D02*
X163855400Y-82804000D01*
X158064200Y-82689700D02*
X158064200Y-80746600D01*
X158470600Y-83096100D02*
X158064200Y-82689700D01*
X163563300Y-83096100D02*
X158470600Y-83096100D01*
X163855400Y-82804000D02*
X163563300Y-83096100D01*
X135640188Y-68506957D02*
X135640188Y-68512312D01*
X135640188Y-68512312D02*
X134848600Y-69303900D01*
X134848600Y-69303900D02*
X134835900Y-75844400D01*
X134835900Y-75844400D02*
X135088902Y-76033902D01*
X135088902Y-76033902D02*
X153605502Y-76033902D01*
X153605502Y-76033902D02*
X158064200Y-80746600D01*
X136296400Y-67284600D02*
X136334500Y-67284600D01*
X136296400Y-67284600D02*
X135357346Y-68223654D01*
X135357346Y-68224115D02*
X135357346Y-68223654D01*
X163804600Y-72143800D02*
X162361700Y-72143800D01*
X159334200Y-71856600D02*
X158064200Y-73126600D01*
X162074500Y-71856600D02*
X159334200Y-71856600D01*
X162361700Y-72143800D02*
X162074500Y-71856600D01*
X135074503Y-67941272D02*
X135074503Y-67947697D01*
X135074503Y-67947697D02*
X133921500Y-69100700D01*
X133921500Y-69100700D02*
X133921500Y-74358500D01*
X142252700Y-69811900D02*
X142224918Y-69811900D01*
X142224918Y-69811900D02*
X142213409Y-69823409D01*
X134423150Y-81286350D02*
X134359650Y-81286350D01*
X134359650Y-81286350D02*
X134329249Y-81316751D01*
X128962150Y-75253850D02*
X128901348Y-75253850D01*
X128901348Y-75253850D02*
X128868249Y-75220751D01*
X132143500Y-70548500D02*
X132842000Y-71247000D01*
X139599986Y-72466755D02*
X139599986Y-72464614D01*
X139599986Y-72464614D02*
X142252700Y-69811900D01*
X142252700Y-69811900D02*
X145542000Y-66522600D01*
X145542000Y-66522600D02*
X145542000Y-66471800D01*
X138468615Y-71335385D02*
X139077700Y-70726300D01*
X139077700Y-70459600D02*
X144183100Y-65354200D01*
X139077700Y-70726300D02*
X139077700Y-70459600D01*
X140165672Y-79113559D02*
X140165672Y-79104072D01*
X140165672Y-79104072D02*
X138442700Y-77381100D01*
X138442700Y-77381100D02*
X137528300Y-76466700D01*
X137528300Y-76466700D02*
X137566400Y-76466700D01*
X136205874Y-83073357D02*
X136205874Y-83069074D01*
X136205874Y-83069074D02*
X134423150Y-81286350D01*
X134423150Y-81286350D02*
X133756400Y-80619600D01*
X133756400Y-80619600D02*
X133756400Y-76454000D01*
X128993385Y-80810615D02*
X129006085Y-80810615D01*
X129006085Y-80810615D02*
X132080000Y-77736700D01*
X132080000Y-77736700D02*
X132080000Y-76454000D01*
X127862014Y-79679245D02*
X127864155Y-79679245D01*
X127864155Y-79679245D02*
X130162300Y-77381100D01*
X127013486Y-73315284D02*
X127023584Y-73315284D01*
X127023584Y-73315284D02*
X128962150Y-75253850D01*
X128962150Y-75253850D02*
X130162300Y-76454000D01*
X132080000Y-76454000D02*
X133756400Y-76454000D01*
X133756400Y-76454000D02*
X133871179Y-76454000D01*
D19*
X133235700Y-71628000D02*
X133223000Y-71628000D01*
D18*
X131699000Y-70104000D02*
X131699000Y-70091300D01*
X133223000Y-71628000D02*
X132143500Y-70548500D01*
X132143500Y-70548500D02*
X131699000Y-70104000D01*
X130973284Y-69355486D02*
X130973284Y-69365584D01*
X130973284Y-69365584D02*
X131699000Y-70091300D01*
D19*
X133235700Y-71628000D02*
X133235700Y-75793600D01*
X133235700Y-75793600D02*
X133871179Y-76454000D01*
X133871179Y-76454000D02*
X133883400Y-76466700D01*
X133883400Y-76466700D02*
X137566400Y-76466700D01*
X137566400Y-76466700D02*
X151193500Y-76466700D01*
X151193500Y-76466700D02*
X158229300Y-83553300D01*
X158229300Y-83553300D02*
X164261800Y-83553300D01*
X164261800Y-83553300D02*
X165049200Y-82689700D01*
X165049200Y-82689700D02*
X165049200Y-80688000D01*
X165049200Y-80688000D02*
X163855400Y-79494200D01*
X160604200Y-73126600D02*
X162217100Y-73126600D01*
X162217100Y-73126600D02*
X162458400Y-73367900D01*
X162458400Y-73367900D02*
X165100000Y-73367900D01*
X163804600Y-76868200D02*
X163804600Y-79443400D01*
D18*
X163804600Y-79443400D02*
X163855400Y-79494200D01*
D19*
X158115000Y-50165000D02*
X159385000Y-50165000D01*
X159385000Y-50165000D02*
X160434200Y-51214200D01*
X160434200Y-65392300D02*
X160434200Y-67386200D01*
D18*
X160434200Y-67386200D02*
X160510400Y-67310000D01*
D19*
X160510400Y-67310000D02*
X162560000Y-67310000D01*
X163804600Y-68554600D02*
X163804600Y-69824600D01*
X162560000Y-67310000D02*
X163804600Y-68554600D01*
X163804600Y-69824600D02*
X165100000Y-71120000D01*
X165100000Y-71120000D02*
X165100000Y-73367900D01*
X165100000Y-73367900D02*
X165100000Y-75572800D01*
X165100000Y-75572800D02*
X163804600Y-76868200D01*
X160434200Y-51214200D02*
X160434200Y-65392300D01*
D18*
X130162300Y-76454000D02*
X132080000Y-76454000D01*
X130162300Y-77381100D02*
X130162300Y-76454000D01*
X130690441Y-69638328D02*
X130690441Y-69641541D01*
X130690441Y-69641541D02*
X131343400Y-70294500D01*
X131343400Y-70294500D02*
X131343400Y-71107300D01*
X128144856Y-79962087D02*
X128144856Y-79970044D01*
X128144856Y-79970044D02*
X127076200Y-81038700D01*
X127076200Y-81038700D02*
X126784100Y-81038700D01*
X135923031Y-83356200D02*
X135923031Y-83357731D01*
X135923031Y-83357731D02*
X136969500Y-84404200D01*
X136969500Y-84404200D02*
X137248900Y-84404200D01*
X139992100Y-71183500D02*
X140017500Y-71183500D01*
X140017500Y-71183500D02*
X140601700Y-70599300D01*
X139317144Y-72183913D02*
X139321887Y-72183913D01*
X139321887Y-72183913D02*
X139992100Y-71513700D01*
X139992100Y-71513700D02*
X139992100Y-71183500D01*
X139992100Y-71183500D02*
X139992100Y-71170800D01*
X139034301Y-71901070D02*
X139034301Y-71899999D01*
X139034301Y-71899999D02*
X139763500Y-71170800D01*
X139763500Y-71170800D02*
X139992100Y-71170800D01*
X139992100Y-71170800D02*
X140030200Y-71170800D01*
X140601700Y-70599300D02*
X140423900Y-70777100D01*
X139882829Y-79396402D02*
X139886502Y-79396402D01*
X139886502Y-79396402D02*
X140855700Y-80365600D01*
X140855700Y-80365600D02*
X141135100Y-80365600D01*
X129559070Y-81376301D02*
X129557999Y-81376301D01*
X129557999Y-81376301D02*
X128460500Y-82473800D01*
X128460500Y-82473800D02*
X127914400Y-82473800D01*
X153035000Y-52705000D02*
X153035000Y-52095400D01*
X153035000Y-52095400D02*
X151765000Y-50825400D01*
X151765000Y-50825400D02*
X151765000Y-49225200D01*
X142875000Y-52705000D02*
X142875000Y-52082700D01*
X142875000Y-52082700D02*
X141617700Y-50825400D01*
X141617700Y-50825400D02*
X141617700Y-49225200D01*
X111760000Y-95250000D02*
X111760000Y-95821500D01*
X126730643Y-73598126D02*
X126734926Y-73598126D01*
X126734926Y-73598126D02*
X127533400Y-74396600D01*
X127533400Y-74396600D02*
X127533400Y-74752200D01*
X135255000Y-52705000D02*
X135255000Y-52070000D01*
X135255000Y-52070000D02*
X133985000Y-50800000D01*
X133985000Y-50800000D02*
X133985000Y-49149000D01*
X122555000Y-52705000D02*
X122555000Y-52070000D01*
X122555000Y-52070000D02*
X121285000Y-50800000D01*
X121285000Y-50800000D02*
X121285000Y-49149000D01*
X117475000Y-52705000D02*
X117475000Y-52070000D01*
X117475000Y-52070000D02*
X116205000Y-50800000D01*
X116205000Y-50800000D02*
X116205000Y-49276000D01*
X139882829Y-72749598D02*
X139886502Y-72749598D01*
D20*
X101600000Y-95250000D02*
X101600000Y-94488000D01*
X101600000Y-94488000D02*
X100965000Y-93853000D01*
X100965000Y-93853000D02*
X100965000Y-69215000D01*
X101600000Y-116840000D02*
X98298000Y-116840000D01*
X98298000Y-116840000D02*
X98171000Y-116713000D01*
X98171000Y-116713000D02*
X98171000Y-64135000D01*
X98171000Y-64135000D02*
X100965000Y-64135000D01*
D21*
G36*
X168835000Y-125655000D02*
X93547000Y-125655000D01*
X93547000Y-116713000D01*
X97285999Y-116713000D01*
X97336524Y-116967000D01*
X97353367Y-117051675D01*
X97451824Y-117199027D01*
X97545210Y-117338790D01*
X97672208Y-117465787D01*
X97672210Y-117465790D01*
X97877525Y-117602976D01*
X97959325Y-117657633D01*
X98298000Y-117725001D01*
X98298005Y-117725000D01*
X100404002Y-117725000D01*
X100540330Y-117929029D01*
X100811172Y-118110000D01*
X100540330Y-118290971D01*
X100215474Y-118777152D01*
X100101400Y-119350641D01*
X100101400Y-119409359D01*
X100215474Y-119982848D01*
X100540330Y-120469029D01*
X101026511Y-120793885D01*
X101600000Y-120907959D01*
X102173489Y-120793885D01*
X102659670Y-120469029D01*
X102870000Y-120154248D01*
X103080330Y-120469029D01*
X103566511Y-120793885D01*
X104140000Y-120907959D01*
X104713489Y-120793885D01*
X105199670Y-120469029D01*
X105410000Y-120154248D01*
X105620330Y-120469029D01*
X106106511Y-120793885D01*
X106680000Y-120907959D01*
X107253489Y-120793885D01*
X107739670Y-120469029D01*
X107950000Y-120154248D01*
X108160330Y-120469029D01*
X108646511Y-120793885D01*
X109220000Y-120907959D01*
X109793489Y-120793885D01*
X110279670Y-120469029D01*
X110490000Y-120154248D01*
X110700330Y-120469029D01*
X111186511Y-120793885D01*
X111760000Y-120907959D01*
X112333489Y-120793885D01*
X112819670Y-120469029D01*
X113030000Y-120154248D01*
X113240330Y-120469029D01*
X113726511Y-120793885D01*
X114300000Y-120907959D01*
X114873489Y-120793885D01*
X115359670Y-120469029D01*
X115570000Y-120154248D01*
X115780330Y-120469029D01*
X116266511Y-120793885D01*
X116840000Y-120907959D01*
X117413489Y-120793885D01*
X117899670Y-120469029D01*
X118110000Y-120154248D01*
X118320330Y-120469029D01*
X118806511Y-120793885D01*
X119380000Y-120907959D01*
X119953489Y-120793885D01*
X120439670Y-120469029D01*
X120650000Y-120154248D01*
X120860330Y-120469029D01*
X121346511Y-120793885D01*
X121920000Y-120907959D01*
X122493489Y-120793885D01*
X122979670Y-120469029D01*
X123190000Y-120154248D01*
X123400330Y-120469029D01*
X123886511Y-120793885D01*
X124460000Y-120907959D01*
X125033489Y-120793885D01*
X125519670Y-120469029D01*
X125730000Y-120154248D01*
X125940330Y-120469029D01*
X126426511Y-120793885D01*
X127000000Y-120907959D01*
X127573489Y-120793885D01*
X128059670Y-120469029D01*
X128270000Y-120154248D01*
X128480330Y-120469029D01*
X128966511Y-120793885D01*
X129540000Y-120907959D01*
X130113489Y-120793885D01*
X130599670Y-120469029D01*
X130810000Y-120154248D01*
X131020330Y-120469029D01*
X131506511Y-120793885D01*
X132080000Y-120907959D01*
X132653489Y-120793885D01*
X133139670Y-120469029D01*
X133350000Y-120154248D01*
X133560330Y-120469029D01*
X134046511Y-120793885D01*
X134620000Y-120907959D01*
X135193489Y-120793885D01*
X135679670Y-120469029D01*
X135890000Y-120154248D01*
X136100330Y-120469029D01*
X136586511Y-120793885D01*
X137160000Y-120907959D01*
X137733489Y-120793885D01*
X138219670Y-120469029D01*
X138430000Y-120154248D01*
X138640330Y-120469029D01*
X139126511Y-120793885D01*
X139700000Y-120907959D01*
X140273489Y-120793885D01*
X140759670Y-120469029D01*
X140970000Y-120154248D01*
X141180330Y-120469029D01*
X141666511Y-120793885D01*
X142240000Y-120907959D01*
X142813489Y-120793885D01*
X143299670Y-120469029D01*
X143510000Y-120154248D01*
X143720330Y-120469029D01*
X144206511Y-120793885D01*
X144780000Y-120907959D01*
X145353489Y-120793885D01*
X145839670Y-120469029D01*
X146050000Y-120154248D01*
X146260330Y-120469029D01*
X146746511Y-120793885D01*
X147320000Y-120907959D01*
X147893489Y-120793885D01*
X148379670Y-120469029D01*
X148590000Y-120154248D01*
X148800330Y-120469029D01*
X149286511Y-120793885D01*
X149860000Y-120907959D01*
X150433489Y-120793885D01*
X150919670Y-120469029D01*
X151130000Y-120154248D01*
X151340330Y-120469029D01*
X151826511Y-120793885D01*
X152400000Y-120907959D01*
X152973489Y-120793885D01*
X153459670Y-120469029D01*
X153670000Y-120154248D01*
X153880330Y-120469029D01*
X154366511Y-120793885D01*
X154940000Y-120907959D01*
X155513489Y-120793885D01*
X155999670Y-120469029D01*
X156210000Y-120154248D01*
X156420330Y-120469029D01*
X156906511Y-120793885D01*
X157480000Y-120907959D01*
X158053489Y-120793885D01*
X158539670Y-120469029D01*
X158750000Y-120154248D01*
X158960330Y-120469029D01*
X159446511Y-120793885D01*
X160020000Y-120907959D01*
X160427463Y-120826910D01*
X161303677Y-121703124D01*
X161542128Y-121862451D01*
X161823400Y-121918400D01*
X164287200Y-121918400D01*
X164568472Y-121862451D01*
X164806923Y-121703123D01*
X165759423Y-120750624D01*
X165918751Y-120512173D01*
X165931436Y-120448400D01*
X165974700Y-120230900D01*
X165974700Y-93370400D01*
X165918751Y-93089128D01*
X165852699Y-92990274D01*
X165759424Y-92850677D01*
X162127223Y-89218477D01*
X161888772Y-89059149D01*
X161607500Y-89003200D01*
X154495146Y-89003200D01*
X142943866Y-77451920D01*
X142921578Y-77418313D01*
X142754965Y-77251700D01*
X150866687Y-77251700D01*
X157672228Y-84106378D01*
X157673421Y-84107181D01*
X157674221Y-84108379D01*
X157800477Y-84192740D01*
X157926286Y-84277459D01*
X157927696Y-84277745D01*
X157928894Y-84278545D01*
X158077783Y-84308161D01*
X158226476Y-84338295D01*
X158227889Y-84338019D01*
X158229300Y-84338300D01*
X164261800Y-84338300D01*
X164279824Y-84334715D01*
X164297992Y-84337465D01*
X164429412Y-84304960D01*
X164562206Y-84278545D01*
X164577487Y-84268335D01*
X164595324Y-84263923D01*
X164704300Y-84183602D01*
X164816879Y-84108379D01*
X164827089Y-84093099D01*
X164841880Y-84082197D01*
X165629280Y-83218597D01*
X165699228Y-83102676D01*
X165774445Y-82990106D01*
X165778030Y-82972084D01*
X165787524Y-82956350D01*
X165807787Y-82822488D01*
X165834200Y-82689700D01*
X165834200Y-80688000D01*
X165824911Y-80641301D01*
X165774445Y-80387593D01*
X165604279Y-80132921D01*
X164952840Y-79481482D01*
X164952840Y-78894200D01*
X164908562Y-78658883D01*
X164769490Y-78442759D01*
X164589600Y-78319845D01*
X164589600Y-78007218D01*
X164706041Y-77932290D01*
X164851031Y-77720090D01*
X164902040Y-77468200D01*
X164902040Y-76880918D01*
X165655079Y-76127879D01*
X165825245Y-75873207D01*
X165885000Y-75572800D01*
X165885000Y-71120000D01*
X165862700Y-71007890D01*
X165825245Y-70819593D01*
X165655079Y-70564921D01*
X164902040Y-69811882D01*
X164902040Y-69343800D01*
X164857762Y-69108483D01*
X164718690Y-68892359D01*
X164589600Y-68804156D01*
X164589600Y-68554600D01*
X164535226Y-68281245D01*
X164529845Y-68254193D01*
X164359679Y-67999521D01*
X163115079Y-66754921D01*
X162860407Y-66584755D01*
X162560000Y-66525000D01*
X161524184Y-66525000D01*
X161498290Y-66484759D01*
X161286090Y-66339769D01*
X161219200Y-66326223D01*
X161219200Y-51214200D01*
X161159445Y-50913794D01*
X160989279Y-50659121D01*
X159940079Y-49609921D01*
X159685407Y-49439755D01*
X159626040Y-49427946D01*
X159626040Y-49301400D01*
X159581762Y-49066083D01*
X159442690Y-48849959D01*
X159230490Y-48704969D01*
X158978600Y-48653960D01*
X157251400Y-48653960D01*
X157016083Y-48698238D01*
X156799959Y-48837310D01*
X156654969Y-49049510D01*
X156646092Y-49093345D01*
X156177848Y-48780474D01*
X155604359Y-48666400D01*
X155545641Y-48666400D01*
X154972152Y-48780474D01*
X154485971Y-49105330D01*
X154305000Y-49376172D01*
X154124029Y-49105330D01*
X153637848Y-48780474D01*
X153064359Y-48666400D01*
X153005641Y-48666400D01*
X152432152Y-48780474D01*
X151945971Y-49105330D01*
X151765000Y-49376172D01*
X151584029Y-49105330D01*
X151097848Y-48780474D01*
X150524359Y-48666400D01*
X150465641Y-48666400D01*
X149892152Y-48780474D01*
X149405971Y-49105330D01*
X149225008Y-49376161D01*
X148843490Y-48958179D01*
X148314027Y-48710032D01*
X148082000Y-48830531D01*
X148082000Y-50038000D01*
X148102000Y-50038000D01*
X148102000Y-50292000D01*
X148082000Y-50292000D01*
X148082000Y-50312000D01*
X147828000Y-50312000D01*
X147828000Y-50292000D01*
X147808000Y-50292000D01*
X147808000Y-50038000D01*
X147828000Y-50038000D01*
X147828000Y-48830531D01*
X147595973Y-48710032D01*
X147066510Y-48958179D01*
X146684992Y-49376161D01*
X146504029Y-49105330D01*
X146017848Y-48780474D01*
X145444359Y-48666400D01*
X145385641Y-48666400D01*
X144812152Y-48780474D01*
X144325971Y-49105330D01*
X144145000Y-49376172D01*
X143964029Y-49105330D01*
X143477848Y-48780474D01*
X142904359Y-48666400D01*
X142845641Y-48666400D01*
X142272152Y-48780474D01*
X141785971Y-49105330D01*
X141605000Y-49376172D01*
X141424029Y-49105330D01*
X140937848Y-48780474D01*
X140364359Y-48666400D01*
X140305641Y-48666400D01*
X139732152Y-48780474D01*
X139245971Y-49105330D01*
X139065000Y-49376172D01*
X138884029Y-49105330D01*
X138397848Y-48780474D01*
X137824359Y-48666400D01*
X137765641Y-48666400D01*
X137192152Y-48780474D01*
X136705971Y-49105330D01*
X136525000Y-49376172D01*
X136344029Y-49105330D01*
X135857848Y-48780474D01*
X135284359Y-48666400D01*
X135225641Y-48666400D01*
X134652152Y-48780474D01*
X134165971Y-49105330D01*
X133985000Y-49376172D01*
X133804029Y-49105330D01*
X133317848Y-48780474D01*
X132744359Y-48666400D01*
X132685641Y-48666400D01*
X132112152Y-48780474D01*
X131625971Y-49105330D01*
X131445000Y-49376172D01*
X131264029Y-49105330D01*
X130777848Y-48780474D01*
X130204359Y-48666400D01*
X130145641Y-48666400D01*
X129572152Y-48780474D01*
X129085971Y-49105330D01*
X128905008Y-49376161D01*
X128523490Y-48958179D01*
X127994027Y-48710032D01*
X127762000Y-48830531D01*
X127762000Y-50038000D01*
X127782000Y-50038000D01*
X127782000Y-50292000D01*
X127762000Y-50292000D01*
X127762000Y-50312000D01*
X127508000Y-50312000D01*
X127508000Y-50292000D01*
X127488000Y-50292000D01*
X127488000Y-50038000D01*
X127508000Y-50038000D01*
X127508000Y-48830531D01*
X127275973Y-48710032D01*
X126746510Y-48958179D01*
X126364992Y-49376161D01*
X126184029Y-49105330D01*
X125697848Y-48780474D01*
X125124359Y-48666400D01*
X125065641Y-48666400D01*
X124492152Y-48780474D01*
X124005971Y-49105330D01*
X123825000Y-49376172D01*
X123644029Y-49105330D01*
X123157848Y-48780474D01*
X122584359Y-48666400D01*
X122525641Y-48666400D01*
X121952152Y-48780474D01*
X121465971Y-49105330D01*
X121285000Y-49376172D01*
X121104029Y-49105330D01*
X120617848Y-48780474D01*
X120044359Y-48666400D01*
X119985641Y-48666400D01*
X119412152Y-48780474D01*
X118925971Y-49105330D01*
X118745000Y-49376172D01*
X118564029Y-49105330D01*
X118077848Y-48780474D01*
X117504359Y-48666400D01*
X117445641Y-48666400D01*
X116872152Y-48780474D01*
X116385971Y-49105330D01*
X116205000Y-49376172D01*
X116024029Y-49105330D01*
X115537848Y-48780474D01*
X114964359Y-48666400D01*
X114905641Y-48666400D01*
X114332152Y-48780474D01*
X113845971Y-49105330D01*
X113665000Y-49376172D01*
X113484029Y-49105330D01*
X112997848Y-48780474D01*
X112424359Y-48666400D01*
X112365641Y-48666400D01*
X111792152Y-48780474D01*
X111305971Y-49105330D01*
X111125008Y-49376161D01*
X110743490Y-48958179D01*
X110214027Y-48710032D01*
X109982000Y-48830531D01*
X109982000Y-50038000D01*
X110002000Y-50038000D01*
X110002000Y-50292000D01*
X109982000Y-50292000D01*
X109982000Y-50312000D01*
X109728000Y-50312000D01*
X109728000Y-50292000D01*
X108521183Y-50292000D01*
X108400042Y-50524026D01*
X108572312Y-50939947D01*
X108966510Y-51371821D01*
X109089228Y-51429336D01*
X108765971Y-51645330D01*
X108441115Y-52131511D01*
X108327041Y-52705000D01*
X108441115Y-53278489D01*
X108765971Y-53764670D01*
X109158100Y-54026682D01*
X109158100Y-57899300D01*
X109208943Y-58154901D01*
X109214049Y-58180572D01*
X109373377Y-58419023D01*
X121301253Y-70346900D01*
X106946700Y-70346900D01*
X106731361Y-70389734D01*
X106665427Y-70402849D01*
X106426976Y-70562177D01*
X104928377Y-72060777D01*
X104769049Y-72299228D01*
X104713100Y-72580500D01*
X104713100Y-93836038D01*
X104140000Y-93722041D01*
X103566511Y-93836115D01*
X103080330Y-94160971D01*
X102870000Y-94475752D01*
X102659670Y-94160971D01*
X102236475Y-93878201D01*
X102225790Y-93862210D01*
X102225787Y-93862208D01*
X101850000Y-93486420D01*
X101850000Y-70514824D01*
X102209415Y-70274670D01*
X102534271Y-69788489D01*
X102648345Y-69215000D01*
X102534271Y-68641511D01*
X102209415Y-68155330D01*
X101899931Y-67948539D01*
X102315732Y-67577036D01*
X102569709Y-67049791D01*
X102572358Y-67034026D01*
X102451217Y-66802000D01*
X101092000Y-66802000D01*
X101092000Y-66822000D01*
X100838000Y-66822000D01*
X100838000Y-66802000D01*
X99478783Y-66802000D01*
X99357642Y-67034026D01*
X99360291Y-67049791D01*
X99614268Y-67577036D01*
X100030069Y-67948539D01*
X99720585Y-68155330D01*
X99395729Y-68641511D01*
X99281655Y-69215000D01*
X99395729Y-69788489D01*
X99720585Y-70274670D01*
X100080000Y-70514824D01*
X100080000Y-93852995D01*
X100079999Y-93853000D01*
X100123140Y-94069877D01*
X100147367Y-94191675D01*
X100295700Y-94413672D01*
X100333590Y-94470379D01*
X100215474Y-94647152D01*
X100101400Y-95220641D01*
X100101400Y-95279359D01*
X100215474Y-95852848D01*
X100540330Y-96339029D01*
X100811172Y-96520000D01*
X100540330Y-96700971D01*
X100215474Y-97187152D01*
X100101400Y-97760641D01*
X100101400Y-97819359D01*
X100215474Y-98392848D01*
X100540330Y-98879029D01*
X101026511Y-99203885D01*
X101600000Y-99317959D01*
X102173489Y-99203885D01*
X102659670Y-98879029D01*
X102870000Y-98564248D01*
X103080330Y-98879029D01*
X103566511Y-99203885D01*
X104140000Y-99317959D01*
X104713100Y-99203962D01*
X104713100Y-115426038D01*
X104140000Y-115312041D01*
X103566511Y-115426115D01*
X103080330Y-115750971D01*
X102870000Y-116065752D01*
X102659670Y-115750971D01*
X102173489Y-115426115D01*
X101600000Y-115312041D01*
X101026511Y-115426115D01*
X100540330Y-115750971D01*
X100404002Y-115955000D01*
X99056000Y-115955000D01*
X99056000Y-65020000D01*
X99305587Y-65020000D01*
X99345838Y-65233917D01*
X99484910Y-65450041D01*
X99697110Y-65595031D01*
X99791927Y-65614232D01*
X99614268Y-65772964D01*
X99360291Y-66300209D01*
X99357642Y-66315974D01*
X99478783Y-66548000D01*
X100838000Y-66548000D01*
X100838000Y-66528000D01*
X101092000Y-66528000D01*
X101092000Y-66548000D01*
X102451217Y-66548000D01*
X102572358Y-66315974D01*
X102569709Y-66300209D01*
X102315732Y-65772964D01*
X102140155Y-65616093D01*
X102216317Y-65601762D01*
X102432441Y-65462690D01*
X102577431Y-65250490D01*
X102628440Y-64998600D01*
X102628440Y-63271400D01*
X102584162Y-63036083D01*
X102445090Y-62819959D01*
X102232890Y-62674969D01*
X101981000Y-62623960D01*
X99949000Y-62623960D01*
X99713683Y-62668238D01*
X99497559Y-62807310D01*
X99352569Y-63019510D01*
X99305894Y-63250000D01*
X98171000Y-63250000D01*
X97832325Y-63317367D01*
X97545210Y-63509210D01*
X97353367Y-63796325D01*
X97286000Y-64135000D01*
X97286000Y-116712995D01*
X97285999Y-116713000D01*
X93547000Y-116713000D01*
X93547000Y-57225000D01*
X104775000Y-57225000D01*
X105046705Y-57170954D01*
X105277046Y-57017046D01*
X105430954Y-56786705D01*
X105485000Y-56515000D01*
X105485000Y-49805974D01*
X108400042Y-49805974D01*
X108521183Y-50038000D01*
X109728000Y-50038000D01*
X109728000Y-48830531D01*
X109495973Y-48710032D01*
X108966510Y-48958179D01*
X108572312Y-49390053D01*
X108400042Y-49805974D01*
X105485000Y-49805974D01*
X105485000Y-47065000D01*
X168835000Y-47065000D01*
X168835000Y-125655000D01*
X168835000Y-125655000D01*
G37*
X168835000Y-125655000D02*
X93547000Y-125655000D01*
X93547000Y-116713000D01*
X97285999Y-116713000D01*
X97336524Y-116967000D01*
X97353367Y-117051675D01*
X97451824Y-117199027D01*
X97545210Y-117338790D01*
X97672208Y-117465787D01*
X97672210Y-117465790D01*
X97877525Y-117602976D01*
X97959325Y-117657633D01*
X98298000Y-117725001D01*
X98298005Y-117725000D01*
X100404002Y-117725000D01*
X100540330Y-117929029D01*
X100811172Y-118110000D01*
X100540330Y-118290971D01*
X100215474Y-118777152D01*
X100101400Y-119350641D01*
X100101400Y-119409359D01*
X100215474Y-119982848D01*
X100540330Y-120469029D01*
X101026511Y-120793885D01*
X101600000Y-120907959D01*
X102173489Y-120793885D01*
X102659670Y-120469029D01*
X102870000Y-120154248D01*
X103080330Y-120469029D01*
X103566511Y-120793885D01*
X104140000Y-120907959D01*
X104713489Y-120793885D01*
X105199670Y-120469029D01*
X105410000Y-120154248D01*
X105620330Y-120469029D01*
X106106511Y-120793885D01*
X106680000Y-120907959D01*
X107253489Y-120793885D01*
X107739670Y-120469029D01*
X107950000Y-120154248D01*
X108160330Y-120469029D01*
X108646511Y-120793885D01*
X109220000Y-120907959D01*
X109793489Y-120793885D01*
X110279670Y-120469029D01*
X110490000Y-120154248D01*
X110700330Y-120469029D01*
X111186511Y-120793885D01*
X111760000Y-120907959D01*
X112333489Y-120793885D01*
X112819670Y-120469029D01*
X113030000Y-120154248D01*
X113240330Y-120469029D01*
X113726511Y-120793885D01*
X114300000Y-120907959D01*
X114873489Y-120793885D01*
X115359670Y-120469029D01*
X115570000Y-120154248D01*
X115780330Y-120469029D01*
X116266511Y-120793885D01*
X116840000Y-120907959D01*
X117413489Y-120793885D01*
X117899670Y-120469029D01*
X118110000Y-120154248D01*
X118320330Y-120469029D01*
X118806511Y-120793885D01*
X119380000Y-120907959D01*
X119953489Y-120793885D01*
X120439670Y-120469029D01*
X120650000Y-120154248D01*
X120860330Y-120469029D01*
X121346511Y-120793885D01*
X121920000Y-120907959D01*
X122493489Y-120793885D01*
X122979670Y-120469029D01*
X123190000Y-120154248D01*
X123400330Y-120469029D01*
X123886511Y-120793885D01*
X124460000Y-120907959D01*
X125033489Y-120793885D01*
X125519670Y-120469029D01*
X125730000Y-120154248D01*
X125940330Y-120469029D01*
X126426511Y-120793885D01*
X127000000Y-120907959D01*
X127573489Y-120793885D01*
X128059670Y-120469029D01*
X128270000Y-120154248D01*
X128480330Y-120469029D01*
X128966511Y-120793885D01*
X129540000Y-120907959D01*
X130113489Y-120793885D01*
X130599670Y-120469029D01*
X130810000Y-120154248D01*
X131020330Y-120469029D01*
X131506511Y-120793885D01*
X132080000Y-120907959D01*
X132653489Y-120793885D01*
X133139670Y-120469029D01*
X133350000Y-120154248D01*
X133560330Y-120469029D01*
X134046511Y-120793885D01*
X134620000Y-120907959D01*
X135193489Y-120793885D01*
X135679670Y-120469029D01*
X135890000Y-120154248D01*
X136100330Y-120469029D01*
X136586511Y-120793885D01*
X137160000Y-120907959D01*
X137733489Y-120793885D01*
X138219670Y-120469029D01*
X138430000Y-120154248D01*
X138640330Y-120469029D01*
X139126511Y-120793885D01*
X139700000Y-120907959D01*
X140273489Y-120793885D01*
X140759670Y-120469029D01*
X140970000Y-120154248D01*
X141180330Y-120469029D01*
X141666511Y-120793885D01*
X142240000Y-120907959D01*
X142813489Y-120793885D01*
X143299670Y-120469029D01*
X143510000Y-120154248D01*
X143720330Y-120469029D01*
X144206511Y-120793885D01*
X144780000Y-120907959D01*
X145353489Y-120793885D01*
X145839670Y-120469029D01*
X146050000Y-120154248D01*
X146260330Y-120469029D01*
X146746511Y-120793885D01*
X147320000Y-120907959D01*
X147893489Y-120793885D01*
X148379670Y-120469029D01*
X148590000Y-120154248D01*
X148800330Y-120469029D01*
X149286511Y-120793885D01*
X149860000Y-120907959D01*
X150433489Y-120793885D01*
X150919670Y-120469029D01*
X151130000Y-120154248D01*
X151340330Y-120469029D01*
X151826511Y-120793885D01*
X152400000Y-120907959D01*
X152973489Y-120793885D01*
X153459670Y-120469029D01*
X153670000Y-120154248D01*
X153880330Y-120469029D01*
X154366511Y-120793885D01*
X154940000Y-120907959D01*
X155513489Y-120793885D01*
X155999670Y-120469029D01*
X156210000Y-120154248D01*
X156420330Y-120469029D01*
X156906511Y-120793885D01*
X157480000Y-120907959D01*
X158053489Y-120793885D01*
X158539670Y-120469029D01*
X158750000Y-120154248D01*
X158960330Y-120469029D01*
X159446511Y-120793885D01*
X160020000Y-120907959D01*
X160427463Y-120826910D01*
X161303677Y-121703124D01*
X161542128Y-121862451D01*
X161823400Y-121918400D01*
X164287200Y-121918400D01*
X164568472Y-121862451D01*
X164806923Y-121703123D01*
X165759423Y-120750624D01*
X165918751Y-120512173D01*
X165931436Y-120448400D01*
X165974700Y-120230900D01*
X165974700Y-93370400D01*
X165918751Y-93089128D01*
X165852699Y-92990274D01*
X165759424Y-92850677D01*
X162127223Y-89218477D01*
X161888772Y-89059149D01*
X161607500Y-89003200D01*
X154495146Y-89003200D01*
X142943866Y-77451920D01*
X142921578Y-77418313D01*
X142754965Y-77251700D01*
X150866687Y-77251700D01*
X157672228Y-84106378D01*
X157673421Y-84107181D01*
X157674221Y-84108379D01*
X157800477Y-84192740D01*
X157926286Y-84277459D01*
X157927696Y-84277745D01*
X157928894Y-84278545D01*
X158077783Y-84308161D01*
X158226476Y-84338295D01*
X158227889Y-84338019D01*
X158229300Y-84338300D01*
X164261800Y-84338300D01*
X164279824Y-84334715D01*
X164297992Y-84337465D01*
X164429412Y-84304960D01*
X164562206Y-84278545D01*
X164577487Y-84268335D01*
X164595324Y-84263923D01*
X164704300Y-84183602D01*
X164816879Y-84108379D01*
X164827089Y-84093099D01*
X164841880Y-84082197D01*
X165629280Y-83218597D01*
X165699228Y-83102676D01*
X165774445Y-82990106D01*
X165778030Y-82972084D01*
X165787524Y-82956350D01*
X165807787Y-82822488D01*
X165834200Y-82689700D01*
X165834200Y-80688000D01*
X165824911Y-80641301D01*
X165774445Y-80387593D01*
X165604279Y-80132921D01*
X164952840Y-79481482D01*
X164952840Y-78894200D01*
X164908562Y-78658883D01*
X164769490Y-78442759D01*
X164589600Y-78319845D01*
X164589600Y-78007218D01*
X164706041Y-77932290D01*
X164851031Y-77720090D01*
X164902040Y-77468200D01*
X164902040Y-76880918D01*
X165655079Y-76127879D01*
X165825245Y-75873207D01*
X165885000Y-75572800D01*
X165885000Y-71120000D01*
X165862700Y-71007890D01*
X165825245Y-70819593D01*
X165655079Y-70564921D01*
X164902040Y-69811882D01*
X164902040Y-69343800D01*
X164857762Y-69108483D01*
X164718690Y-68892359D01*
X164589600Y-68804156D01*
X164589600Y-68554600D01*
X164535226Y-68281245D01*
X164529845Y-68254193D01*
X164359679Y-67999521D01*
X163115079Y-66754921D01*
X162860407Y-66584755D01*
X162560000Y-66525000D01*
X161524184Y-66525000D01*
X161498290Y-66484759D01*
X161286090Y-66339769D01*
X161219200Y-66326223D01*
X161219200Y-51214200D01*
X161159445Y-50913794D01*
X160989279Y-50659121D01*
X159940079Y-49609921D01*
X159685407Y-49439755D01*
X159626040Y-49427946D01*
X159626040Y-49301400D01*
X159581762Y-49066083D01*
X159442690Y-48849959D01*
X159230490Y-48704969D01*
X158978600Y-48653960D01*
X157251400Y-48653960D01*
X157016083Y-48698238D01*
X156799959Y-48837310D01*
X156654969Y-49049510D01*
X156646092Y-49093345D01*
X156177848Y-48780474D01*
X155604359Y-48666400D01*
X155545641Y-48666400D01*
X154972152Y-48780474D01*
X154485971Y-49105330D01*
X154305000Y-49376172D01*
X154124029Y-49105330D01*
X153637848Y-48780474D01*
X153064359Y-48666400D01*
X153005641Y-48666400D01*
X152432152Y-48780474D01*
X151945971Y-49105330D01*
X151765000Y-49376172D01*
X151584029Y-49105330D01*
X151097848Y-48780474D01*
X150524359Y-48666400D01*
X150465641Y-48666400D01*
X149892152Y-48780474D01*
X149405971Y-49105330D01*
X149225008Y-49376161D01*
X148843490Y-48958179D01*
X148314027Y-48710032D01*
X148082000Y-48830531D01*
X148082000Y-50038000D01*
X148102000Y-50038000D01*
X148102000Y-50292000D01*
X148082000Y-50292000D01*
X148082000Y-50312000D01*
X147828000Y-50312000D01*
X147828000Y-50292000D01*
X147808000Y-50292000D01*
X147808000Y-50038000D01*
X147828000Y-50038000D01*
X147828000Y-48830531D01*
X147595973Y-48710032D01*
X147066510Y-48958179D01*
X146684992Y-49376161D01*
X146504029Y-49105330D01*
X146017848Y-48780474D01*
X145444359Y-48666400D01*
X145385641Y-48666400D01*
X144812152Y-48780474D01*
X144325971Y-49105330D01*
X144145000Y-49376172D01*
X143964029Y-49105330D01*
X143477848Y-48780474D01*
X142904359Y-48666400D01*
X142845641Y-48666400D01*
X142272152Y-48780474D01*
X141785971Y-49105330D01*
X141605000Y-49376172D01*
X141424029Y-49105330D01*
X140937848Y-48780474D01*
X140364359Y-48666400D01*
X140305641Y-48666400D01*
X139732152Y-48780474D01*
X139245971Y-49105330D01*
X139065000Y-49376172D01*
X138884029Y-49105330D01*
X138397848Y-48780474D01*
X137824359Y-48666400D01*
X137765641Y-48666400D01*
X137192152Y-48780474D01*
X136705971Y-49105330D01*
X136525000Y-49376172D01*
X136344029Y-49105330D01*
X135857848Y-48780474D01*
X135284359Y-48666400D01*
X135225641Y-48666400D01*
X134652152Y-48780474D01*
X134165971Y-49105330D01*
X133985000Y-49376172D01*
X133804029Y-49105330D01*
X133317848Y-48780474D01*
X132744359Y-48666400D01*
X132685641Y-48666400D01*
X132112152Y-48780474D01*
X131625971Y-49105330D01*
X131445000Y-49376172D01*
X131264029Y-49105330D01*
X130777848Y-48780474D01*
X130204359Y-48666400D01*
X130145641Y-48666400D01*
X129572152Y-48780474D01*
X129085971Y-49105330D01*
X128905008Y-49376161D01*
X128523490Y-48958179D01*
X127994027Y-48710032D01*
X127762000Y-48830531D01*
X127762000Y-50038000D01*
X127782000Y-50038000D01*
X127782000Y-50292000D01*
X127762000Y-50292000D01*
X127762000Y-50312000D01*
X127508000Y-50312000D01*
X127508000Y-50292000D01*
X127488000Y-50292000D01*
X127488000Y-50038000D01*
X127508000Y-50038000D01*
X127508000Y-48830531D01*
X127275973Y-48710032D01*
X126746510Y-48958179D01*
X126364992Y-49376161D01*
X126184029Y-49105330D01*
X125697848Y-48780474D01*
X125124359Y-48666400D01*
X125065641Y-48666400D01*
X124492152Y-48780474D01*
X124005971Y-49105330D01*
X123825000Y-49376172D01*
X123644029Y-49105330D01*
X123157848Y-48780474D01*
X122584359Y-48666400D01*
X122525641Y-48666400D01*
X121952152Y-48780474D01*
X121465971Y-49105330D01*
X121285000Y-49376172D01*
X121104029Y-49105330D01*
X120617848Y-48780474D01*
X120044359Y-48666400D01*
X119985641Y-48666400D01*
X119412152Y-48780474D01*
X118925971Y-49105330D01*
X118745000Y-49376172D01*
X118564029Y-49105330D01*
X118077848Y-48780474D01*
X117504359Y-48666400D01*
X117445641Y-48666400D01*
X116872152Y-48780474D01*
X116385971Y-49105330D01*
X116205000Y-49376172D01*
X116024029Y-49105330D01*
X115537848Y-48780474D01*
X114964359Y-48666400D01*
X114905641Y-48666400D01*
X114332152Y-48780474D01*
X113845971Y-49105330D01*
X113665000Y-49376172D01*
X113484029Y-49105330D01*
X112997848Y-48780474D01*
X112424359Y-48666400D01*
X112365641Y-48666400D01*
X111792152Y-48780474D01*
X111305971Y-49105330D01*
X111125008Y-49376161D01*
X110743490Y-48958179D01*
X110214027Y-48710032D01*
X109982000Y-48830531D01*
X109982000Y-50038000D01*
X110002000Y-50038000D01*
X110002000Y-50292000D01*
X109982000Y-50292000D01*
X109982000Y-50312000D01*
X109728000Y-50312000D01*
X109728000Y-50292000D01*
X108521183Y-50292000D01*
X108400042Y-50524026D01*
X108572312Y-50939947D01*
X108966510Y-51371821D01*
X109089228Y-51429336D01*
X108765971Y-51645330D01*
X108441115Y-52131511D01*
X108327041Y-52705000D01*
X108441115Y-53278489D01*
X108765971Y-53764670D01*
X109158100Y-54026682D01*
X109158100Y-57899300D01*
X109208943Y-58154901D01*
X109214049Y-58180572D01*
X109373377Y-58419023D01*
X121301253Y-70346900D01*
X106946700Y-70346900D01*
X106731361Y-70389734D01*
X106665427Y-70402849D01*
X106426976Y-70562177D01*
X104928377Y-72060777D01*
X104769049Y-72299228D01*
X104713100Y-72580500D01*
X104713100Y-93836038D01*
X104140000Y-93722041D01*
X103566511Y-93836115D01*
X103080330Y-94160971D01*
X102870000Y-94475752D01*
X102659670Y-94160971D01*
X102236475Y-93878201D01*
X102225790Y-93862210D01*
X102225787Y-93862208D01*
X101850000Y-93486420D01*
X101850000Y-70514824D01*
X102209415Y-70274670D01*
X102534271Y-69788489D01*
X102648345Y-69215000D01*
X102534271Y-68641511D01*
X102209415Y-68155330D01*
X101899931Y-67948539D01*
X102315732Y-67577036D01*
X102569709Y-67049791D01*
X102572358Y-67034026D01*
X102451217Y-66802000D01*
X101092000Y-66802000D01*
X101092000Y-66822000D01*
X100838000Y-66822000D01*
X100838000Y-66802000D01*
X99478783Y-66802000D01*
X99357642Y-67034026D01*
X99360291Y-67049791D01*
X99614268Y-67577036D01*
X100030069Y-67948539D01*
X99720585Y-68155330D01*
X99395729Y-68641511D01*
X99281655Y-69215000D01*
X99395729Y-69788489D01*
X99720585Y-70274670D01*
X100080000Y-70514824D01*
X100080000Y-93852995D01*
X100079999Y-93853000D01*
X100123140Y-94069877D01*
X100147367Y-94191675D01*
X100295700Y-94413672D01*
X100333590Y-94470379D01*
X100215474Y-94647152D01*
X100101400Y-95220641D01*
X100101400Y-95279359D01*
X100215474Y-95852848D01*
X100540330Y-96339029D01*
X100811172Y-96520000D01*
X100540330Y-96700971D01*
X100215474Y-97187152D01*
X100101400Y-97760641D01*
X100101400Y-97819359D01*
X100215474Y-98392848D01*
X100540330Y-98879029D01*
X101026511Y-99203885D01*
X101600000Y-99317959D01*
X102173489Y-99203885D01*
X102659670Y-98879029D01*
X102870000Y-98564248D01*
X103080330Y-98879029D01*
X103566511Y-99203885D01*
X104140000Y-99317959D01*
X104713100Y-99203962D01*
X104713100Y-115426038D01*
X104140000Y-115312041D01*
X103566511Y-115426115D01*
X103080330Y-115750971D01*
X102870000Y-116065752D01*
X102659670Y-115750971D01*
X102173489Y-115426115D01*
X101600000Y-115312041D01*
X101026511Y-115426115D01*
X100540330Y-115750971D01*
X100404002Y-115955000D01*
X99056000Y-115955000D01*
X99056000Y-65020000D01*
X99305587Y-65020000D01*
X99345838Y-65233917D01*
X99484910Y-65450041D01*
X99697110Y-65595031D01*
X99791927Y-65614232D01*
X99614268Y-65772964D01*
X99360291Y-66300209D01*
X99357642Y-66315974D01*
X99478783Y-66548000D01*
X100838000Y-66548000D01*
X100838000Y-66528000D01*
X101092000Y-66528000D01*
X101092000Y-66548000D01*
X102451217Y-66548000D01*
X102572358Y-66315974D01*
X102569709Y-66300209D01*
X102315732Y-65772964D01*
X102140155Y-65616093D01*
X102216317Y-65601762D01*
X102432441Y-65462690D01*
X102577431Y-65250490D01*
X102628440Y-64998600D01*
X102628440Y-63271400D01*
X102584162Y-63036083D01*
X102445090Y-62819959D01*
X102232890Y-62674969D01*
X101981000Y-62623960D01*
X99949000Y-62623960D01*
X99713683Y-62668238D01*
X99497559Y-62807310D01*
X99352569Y-63019510D01*
X99305894Y-63250000D01*
X98171000Y-63250000D01*
X97832325Y-63317367D01*
X97545210Y-63509210D01*
X97353367Y-63796325D01*
X97286000Y-64135000D01*
X97286000Y-116712995D01*
X97285999Y-116713000D01*
X93547000Y-116713000D01*
X93547000Y-57225000D01*
X104775000Y-57225000D01*
X105046705Y-57170954D01*
X105277046Y-57017046D01*
X105430954Y-56786705D01*
X105485000Y-56515000D01*
X105485000Y-49805974D01*
X108400042Y-49805974D01*
X108521183Y-50038000D01*
X109728000Y-50038000D01*
X109728000Y-48830531D01*
X109495973Y-48710032D01*
X108966510Y-48958179D01*
X108572312Y-49390053D01*
X108400042Y-49805974D01*
X105485000Y-49805974D01*
X105485000Y-47065000D01*
X168835000Y-47065000D01*
X168835000Y-125655000D01*
G36*
X109755000Y-115457929D02*
X109579026Y-115385042D01*
X109347000Y-115506183D01*
X109347000Y-116713000D01*
X109367000Y-116713000D01*
X109367000Y-116967000D01*
X109347000Y-116967000D01*
X109347000Y-116987000D01*
X109093000Y-116987000D01*
X109093000Y-116967000D01*
X109073000Y-116967000D01*
X109073000Y-116713000D01*
X109093000Y-116713000D01*
X109093000Y-115506183D01*
X108860974Y-115385042D01*
X108634200Y-115478969D01*
X108634200Y-99847046D01*
X109172697Y-99308550D01*
X109220000Y-99317959D01*
X109755000Y-99211541D01*
X109755000Y-115457929D01*
X109755000Y-115457929D01*
G37*
X109755000Y-115457929D02*
X109579026Y-115385042D01*
X109347000Y-115506183D01*
X109347000Y-116713000D01*
X109367000Y-116713000D01*
X109367000Y-116967000D01*
X109347000Y-116967000D01*
X109347000Y-116987000D01*
X109093000Y-116987000D01*
X109093000Y-116967000D01*
X109073000Y-116967000D01*
X109073000Y-116713000D01*
X109093000Y-116713000D01*
X109093000Y-115506183D01*
X108860974Y-115385042D01*
X108634200Y-115478969D01*
X108634200Y-99847046D01*
X109172697Y-99308550D01*
X109220000Y-99317959D01*
X109755000Y-99211541D01*
X109755000Y-115457929D01*
G36*
X112307700Y-115463189D02*
X112119026Y-115385042D01*
X111887000Y-115506183D01*
X111887000Y-116713000D01*
X111907000Y-116713000D01*
X111907000Y-116967000D01*
X111887000Y-116967000D01*
X111887000Y-116987000D01*
X111633000Y-116987000D01*
X111633000Y-116967000D01*
X111613000Y-116967000D01*
X111613000Y-116713000D01*
X111633000Y-116713000D01*
X111633000Y-115506183D01*
X111400974Y-115385042D01*
X111225000Y-115457929D01*
X111225000Y-99377146D01*
X111363130Y-99239017D01*
X111760000Y-99317959D01*
X112307700Y-99209015D01*
X112307700Y-115463189D01*
X112307700Y-115463189D01*
G37*
X112307700Y-115463189D02*
X112119026Y-115385042D01*
X111887000Y-115506183D01*
X111887000Y-116713000D01*
X111907000Y-116713000D01*
X111907000Y-116967000D01*
X111887000Y-116967000D01*
X111887000Y-116987000D01*
X111633000Y-116987000D01*
X111633000Y-116967000D01*
X111613000Y-116967000D01*
X111613000Y-116713000D01*
X111633000Y-116713000D01*
X111633000Y-115506183D01*
X111400974Y-115385042D01*
X111225000Y-115457929D01*
X111225000Y-99377146D01*
X111363130Y-99239017D01*
X111760000Y-99317959D01*
X112307700Y-99209015D01*
X112307700Y-115463189D01*
G36*
X124527753Y-74708585D02*
X124540422Y-74727687D01*
X125601082Y-75788347D01*
X125798785Y-75923432D01*
X126049947Y-75977916D01*
X126302518Y-75930392D01*
X126516700Y-75788347D01*
X126658122Y-75646925D01*
X126717635Y-75559825D01*
X126799543Y-75505504D01*
X126940965Y-75364082D01*
X127000477Y-75276983D01*
X127082385Y-75222662D01*
X127223807Y-75081240D01*
X127283320Y-74994140D01*
X127365228Y-74939819D01*
X127486950Y-74818097D01*
X127933210Y-75264357D01*
X127933087Y-75405918D01*
X128075132Y-75749694D01*
X128337922Y-76012943D01*
X128681450Y-76155589D01*
X128824567Y-76155714D01*
X129427300Y-76758447D01*
X129427300Y-77076653D01*
X128331500Y-78172453D01*
X128213756Y-78054709D01*
X128126658Y-77995197D01*
X128072336Y-77913288D01*
X127930914Y-77771866D01*
X127843813Y-77712352D01*
X127789493Y-77630446D01*
X127648071Y-77489024D01*
X127560971Y-77429511D01*
X127506650Y-77347603D01*
X127365228Y-77206181D01*
X127278128Y-77146668D01*
X127223807Y-77064760D01*
X127082385Y-76923338D01*
X126995286Y-76863826D01*
X126940965Y-76781918D01*
X126799543Y-76640496D01*
X126712443Y-76580983D01*
X126658122Y-76499075D01*
X126516700Y-76357653D01*
X126318997Y-76222568D01*
X126067835Y-76168084D01*
X125815264Y-76215608D01*
X125601082Y-76357653D01*
X124540422Y-77418313D01*
X124516006Y-77454047D01*
X109970277Y-91999777D01*
X109810949Y-92238228D01*
X109755000Y-92519500D01*
X109755000Y-93867929D01*
X109579026Y-93795042D01*
X109347000Y-93916183D01*
X109347000Y-95123000D01*
X109367000Y-95123000D01*
X109367000Y-95377000D01*
X109347000Y-95377000D01*
X109347000Y-95397000D01*
X109093000Y-95397000D01*
X109093000Y-95377000D01*
X109073000Y-95377000D01*
X109073000Y-95123000D01*
X109093000Y-95123000D01*
X109093000Y-93916183D01*
X108860974Y-93795042D01*
X108686454Y-93867326D01*
X108697418Y-73855915D01*
X109404582Y-73125000D01*
X122892448Y-73125000D01*
X124527753Y-74708585D01*
X124527753Y-74708585D01*
G37*
X124527753Y-74708585D02*
X124540422Y-74727687D01*
X125601082Y-75788347D01*
X125798785Y-75923432D01*
X126049947Y-75977916D01*
X126302518Y-75930392D01*
X126516700Y-75788347D01*
X126658122Y-75646925D01*
X126717635Y-75559825D01*
X126799543Y-75505504D01*
X126940965Y-75364082D01*
X127000477Y-75276983D01*
X127082385Y-75222662D01*
X127223807Y-75081240D01*
X127283320Y-74994140D01*
X127365228Y-74939819D01*
X127486950Y-74818097D01*
X127933210Y-75264357D01*
X127933087Y-75405918D01*
X128075132Y-75749694D01*
X128337922Y-76012943D01*
X128681450Y-76155589D01*
X128824567Y-76155714D01*
X129427300Y-76758447D01*
X129427300Y-77076653D01*
X128331500Y-78172453D01*
X128213756Y-78054709D01*
X128126658Y-77995197D01*
X128072336Y-77913288D01*
X127930914Y-77771866D01*
X127843813Y-77712352D01*
X127789493Y-77630446D01*
X127648071Y-77489024D01*
X127560971Y-77429511D01*
X127506650Y-77347603D01*
X127365228Y-77206181D01*
X127278128Y-77146668D01*
X127223807Y-77064760D01*
X127082385Y-76923338D01*
X126995286Y-76863826D01*
X126940965Y-76781918D01*
X126799543Y-76640496D01*
X126712443Y-76580983D01*
X126658122Y-76499075D01*
X126516700Y-76357653D01*
X126318997Y-76222568D01*
X126067835Y-76168084D01*
X125815264Y-76215608D01*
X125601082Y-76357653D01*
X124540422Y-77418313D01*
X124516006Y-77454047D01*
X109970277Y-91999777D01*
X109810949Y-92238228D01*
X109755000Y-92519500D01*
X109755000Y-93867929D01*
X109579026Y-93795042D01*
X109347000Y-93916183D01*
X109347000Y-95123000D01*
X109367000Y-95123000D01*
X109367000Y-95377000D01*
X109347000Y-95377000D01*
X109347000Y-95397000D01*
X109093000Y-95397000D01*
X109093000Y-95377000D01*
X109073000Y-95377000D01*
X109073000Y-95123000D01*
X109093000Y-95123000D01*
X109093000Y-93916183D01*
X108860974Y-93795042D01*
X108686454Y-93867326D01*
X108697418Y-73855915D01*
X109404582Y-73125000D01*
X122892448Y-73125000D01*
X124527753Y-74708585D01*
G36*
X112295000Y-93867929D02*
X112119026Y-93795042D01*
X111887000Y-93916183D01*
X111887000Y-95123000D01*
X111907000Y-95123000D01*
X111907000Y-95377000D01*
X111887000Y-95377000D01*
X111887000Y-95397000D01*
X111633000Y-95397000D01*
X111633000Y-95377000D01*
X111613000Y-95377000D01*
X111613000Y-95123000D01*
X111633000Y-95123000D01*
X111633000Y-93916183D01*
X111400974Y-93795042D01*
X111225000Y-93867929D01*
X111225000Y-92823946D01*
X112295000Y-91753946D01*
X112295000Y-93867929D01*
X112295000Y-93867929D01*
G37*
X112295000Y-93867929D02*
X112119026Y-93795042D01*
X111887000Y-93916183D01*
X111887000Y-95123000D01*
X111907000Y-95123000D01*
X111907000Y-95377000D01*
X111887000Y-95377000D01*
X111887000Y-95397000D01*
X111633000Y-95397000D01*
X111633000Y-95377000D01*
X111613000Y-95377000D01*
X111613000Y-95123000D01*
X111633000Y-95123000D01*
X111633000Y-93916183D01*
X111400974Y-93795042D01*
X111225000Y-93867929D01*
X111225000Y-92823946D01*
X112295000Y-91753946D01*
X112295000Y-93867929D01*
G36*
X128336422Y-82129931D02*
X123940277Y-86526077D01*
X123925000Y-86548941D01*
X123925000Y-86359646D01*
X128245569Y-82039078D01*
X128336422Y-82129931D01*
X128336422Y-82129931D01*
G37*
X128336422Y-82129931D02*
X123940277Y-86526077D01*
X123925000Y-86548941D01*
X123925000Y-86359646D01*
X128245569Y-82039078D01*
X128336422Y-82129931D01*
G36*
X162098876Y-75187923D02*
X162337327Y-75347251D01*
X162375535Y-75354851D01*
X162618600Y-75403200D01*
X162732562Y-75403200D01*
X162751438Y-75503517D01*
X162890510Y-75719641D01*
X162960311Y-75767334D01*
X162903159Y-75804110D01*
X162758169Y-76016310D01*
X162707160Y-76268200D01*
X162707160Y-77468200D01*
X162751438Y-77703517D01*
X162890510Y-77919641D01*
X163019600Y-78007844D01*
X163019600Y-78387871D01*
X162953959Y-78430110D01*
X162808969Y-78642310D01*
X162757960Y-78894200D01*
X162757960Y-80094200D01*
X162802238Y-80329517D01*
X162941310Y-80545641D01*
X163011111Y-80593334D01*
X162953959Y-80630110D01*
X162808969Y-80842310D01*
X162757960Y-81094200D01*
X162757960Y-82294200D01*
X162770548Y-82361100D01*
X158799200Y-82361100D01*
X158799200Y-82042825D01*
X159153229Y-81806270D01*
X159334192Y-81535439D01*
X159715710Y-81953421D01*
X160245173Y-82201568D01*
X160477200Y-82081069D01*
X160477200Y-80873600D01*
X160731200Y-80873600D01*
X160731200Y-82081069D01*
X160963227Y-82201568D01*
X161492690Y-81953421D01*
X161886888Y-81521547D01*
X162059158Y-81105626D01*
X161938017Y-80873600D01*
X160731200Y-80873600D01*
X160477200Y-80873600D01*
X160457200Y-80873600D01*
X160457200Y-80619600D01*
X160477200Y-80619600D01*
X160477200Y-80599600D01*
X160731200Y-80599600D01*
X160731200Y-80619600D01*
X161938017Y-80619600D01*
X162059158Y-80387574D01*
X161886888Y-79971653D01*
X161492690Y-79539779D01*
X161369972Y-79482264D01*
X161693229Y-79266270D01*
X162018085Y-78780089D01*
X162132159Y-78206600D01*
X162018085Y-77633111D01*
X161693229Y-77146930D01*
X161378448Y-76936600D01*
X161693229Y-76726270D01*
X162018085Y-76240089D01*
X162132159Y-75666600D01*
X162021566Y-75110613D01*
X162098876Y-75187923D01*
X162098876Y-75187923D01*
G37*
X162098876Y-75187923D02*
X162337327Y-75347251D01*
X162375535Y-75354851D01*
X162618600Y-75403200D01*
X162732562Y-75403200D01*
X162751438Y-75503517D01*
X162890510Y-75719641D01*
X162960311Y-75767334D01*
X162903159Y-75804110D01*
X162758169Y-76016310D01*
X162707160Y-76268200D01*
X162707160Y-77468200D01*
X162751438Y-77703517D01*
X162890510Y-77919641D01*
X163019600Y-78007844D01*
X163019600Y-78387871D01*
X162953959Y-78430110D01*
X162808969Y-78642310D01*
X162757960Y-78894200D01*
X162757960Y-80094200D01*
X162802238Y-80329517D01*
X162941310Y-80545641D01*
X163011111Y-80593334D01*
X162953959Y-80630110D01*
X162808969Y-80842310D01*
X162757960Y-81094200D01*
X162757960Y-82294200D01*
X162770548Y-82361100D01*
X158799200Y-82361100D01*
X158799200Y-82042825D01*
X159153229Y-81806270D01*
X159334192Y-81535439D01*
X159715710Y-81953421D01*
X160245173Y-82201568D01*
X160477200Y-82081069D01*
X160477200Y-80873600D01*
X160731200Y-80873600D01*
X160731200Y-82081069D01*
X160963227Y-82201568D01*
X161492690Y-81953421D01*
X161886888Y-81521547D01*
X162059158Y-81105626D01*
X161938017Y-80873600D01*
X160731200Y-80873600D01*
X160477200Y-80873600D01*
X160457200Y-80873600D01*
X160457200Y-80619600D01*
X160477200Y-80619600D01*
X160477200Y-80599600D01*
X160731200Y-80599600D01*
X160731200Y-80619600D01*
X161938017Y-80619600D01*
X162059158Y-80387574D01*
X161886888Y-79971653D01*
X161492690Y-79539779D01*
X161369972Y-79482264D01*
X161693229Y-79266270D01*
X162018085Y-78780089D01*
X162132159Y-78206600D01*
X162018085Y-77633111D01*
X161693229Y-77146930D01*
X161378448Y-76936600D01*
X161693229Y-76726270D01*
X162018085Y-76240089D01*
X162132159Y-75666600D01*
X162021566Y-75110613D01*
X162098876Y-75187923D01*
G36*
X131623777Y-71068224D02*
X131623780Y-71068226D01*
X131906908Y-71351355D01*
X131906838Y-71432167D01*
X132048883Y-71775943D01*
X132311673Y-72039192D01*
X132450700Y-72096921D01*
X132450700Y-75719000D01*
X130466747Y-75719000D01*
X129803394Y-75055647D01*
X129803411Y-75035584D01*
X129661366Y-74691808D01*
X129398576Y-74428559D01*
X129055048Y-74285913D01*
X129033641Y-74285894D01*
X128526397Y-73778650D01*
X128638021Y-73667026D01*
X128697534Y-73579926D01*
X128779442Y-73525605D01*
X128920864Y-73384183D01*
X128980376Y-73297084D01*
X129062284Y-73242763D01*
X129203706Y-73101341D01*
X129263219Y-73014241D01*
X129345127Y-72959920D01*
X129486549Y-72818498D01*
X129546062Y-72731398D01*
X129627970Y-72677077D01*
X129769392Y-72535655D01*
X129828904Y-72448557D01*
X129910813Y-72394235D01*
X130052235Y-72252813D01*
X130111749Y-72165712D01*
X130193655Y-72111392D01*
X130335077Y-71969970D01*
X130394590Y-71882870D01*
X130476498Y-71828549D01*
X130617920Y-71687127D01*
X130677433Y-71600027D01*
X130759341Y-71545706D01*
X130900763Y-71404284D01*
X130960275Y-71317185D01*
X131042183Y-71262864D01*
X131183605Y-71121442D01*
X131243118Y-71034342D01*
X131325026Y-70980021D01*
X131430300Y-70874747D01*
X131623777Y-71068224D01*
X131623777Y-71068224D01*
G37*
X131623777Y-71068224D02*
X131623780Y-71068226D01*
X131906908Y-71351355D01*
X131906838Y-71432167D01*
X132048883Y-71775943D01*
X132311673Y-72039192D01*
X132450700Y-72096921D01*
X132450700Y-75719000D01*
X130466747Y-75719000D01*
X129803394Y-75055647D01*
X129803411Y-75035584D01*
X129661366Y-74691808D01*
X129398576Y-74428559D01*
X129055048Y-74285913D01*
X129033641Y-74285894D01*
X128526397Y-73778650D01*
X128638021Y-73667026D01*
X128697534Y-73579926D01*
X128779442Y-73525605D01*
X128920864Y-73384183D01*
X128980376Y-73297084D01*
X129062284Y-73242763D01*
X129203706Y-73101341D01*
X129263219Y-73014241D01*
X129345127Y-72959920D01*
X129486549Y-72818498D01*
X129546062Y-72731398D01*
X129627970Y-72677077D01*
X129769392Y-72535655D01*
X129828904Y-72448557D01*
X129910813Y-72394235D01*
X130052235Y-72252813D01*
X130111749Y-72165712D01*
X130193655Y-72111392D01*
X130335077Y-71969970D01*
X130394590Y-71882870D01*
X130476498Y-71828549D01*
X130617920Y-71687127D01*
X130677433Y-71600027D01*
X130759341Y-71545706D01*
X130900763Y-71404284D01*
X130960275Y-71317185D01*
X131042183Y-71262864D01*
X131183605Y-71121442D01*
X131243118Y-71034342D01*
X131325026Y-70980021D01*
X131430300Y-70874747D01*
X131623777Y-71068224D01*
G36*
X159649200Y-51539358D02*
X159649200Y-66323570D01*
X159598883Y-66333038D01*
X159382759Y-66472110D01*
X159335066Y-66541911D01*
X159298290Y-66484759D01*
X159086090Y-66339769D01*
X158834200Y-66288760D01*
X157634200Y-66288760D01*
X157398883Y-66333038D01*
X157182759Y-66472110D01*
X157037769Y-66684310D01*
X156986760Y-66936200D01*
X156986760Y-67836200D01*
X157031038Y-68071517D01*
X157170110Y-68287641D01*
X157382310Y-68432631D01*
X157634200Y-68483640D01*
X158834200Y-68483640D01*
X159069517Y-68439362D01*
X159285641Y-68300290D01*
X159333334Y-68230489D01*
X159370110Y-68287641D01*
X159582310Y-68432631D01*
X159834200Y-68483640D01*
X161034200Y-68483640D01*
X161269517Y-68439362D01*
X161485641Y-68300290D01*
X161625910Y-68095000D01*
X162234842Y-68095000D01*
X162973980Y-68834138D01*
X162903159Y-68879710D01*
X162758169Y-69091910D01*
X162707160Y-69343800D01*
X162707160Y-70543800D01*
X162751438Y-70779117D01*
X162890510Y-70995241D01*
X162960311Y-71042934D01*
X162903159Y-71079710D01*
X162758169Y-71291910D01*
X162734498Y-71408800D01*
X162666146Y-71408800D01*
X162594223Y-71336877D01*
X162355772Y-71177549D01*
X162074500Y-71121600D01*
X161986271Y-71121600D01*
X162059158Y-70945626D01*
X161938017Y-70713600D01*
X160731200Y-70713600D01*
X160731200Y-70733600D01*
X160477200Y-70733600D01*
X160477200Y-70713600D01*
X160457200Y-70713600D01*
X160457200Y-70459600D01*
X160477200Y-70459600D01*
X160477200Y-69252131D01*
X160731200Y-69252131D01*
X160731200Y-70459600D01*
X161938017Y-70459600D01*
X162059158Y-70227574D01*
X161886888Y-69811653D01*
X161492690Y-69379779D01*
X160963227Y-69131632D01*
X160731200Y-69252131D01*
X160477200Y-69252131D01*
X160245173Y-69131632D01*
X159715710Y-69379779D01*
X159545705Y-69566033D01*
X159530962Y-69487683D01*
X159391890Y-69271559D01*
X159179690Y-69126569D01*
X158927800Y-69075560D01*
X157200600Y-69075560D01*
X156965283Y-69119838D01*
X156749159Y-69258910D01*
X156604169Y-69471110D01*
X156553160Y-69723000D01*
X156553160Y-71450200D01*
X156597438Y-71685517D01*
X156736510Y-71901641D01*
X156948710Y-72046631D01*
X156992331Y-72055464D01*
X156975171Y-72066930D01*
X156650315Y-72553111D01*
X156536241Y-73126600D01*
X156650315Y-73700089D01*
X156975171Y-74186270D01*
X157289952Y-74396600D01*
X156975171Y-74606930D01*
X156783691Y-74893500D01*
X142755765Y-74893500D01*
X142921578Y-74727687D01*
X143056663Y-74529984D01*
X143111147Y-74278822D01*
X143063623Y-74026251D01*
X142921578Y-73812069D01*
X142780156Y-73670647D01*
X142693056Y-73611134D01*
X142638735Y-73529226D01*
X142497313Y-73387804D01*
X142410214Y-73328292D01*
X142355893Y-73246384D01*
X142214471Y-73104962D01*
X142127371Y-73045449D01*
X142073050Y-72963541D01*
X141957678Y-72848169D01*
X157364723Y-57441124D01*
X157524051Y-57202672D01*
X157530360Y-57170954D01*
X157580000Y-56921400D01*
X157580000Y-54103022D01*
X158085641Y-54203600D01*
X158144359Y-54203600D01*
X158717848Y-54089526D01*
X159204029Y-53764670D01*
X159528885Y-53278489D01*
X159642959Y-52705000D01*
X159528885Y-52131511D01*
X159204029Y-51645330D01*
X159190358Y-51636195D01*
X159213917Y-51631762D01*
X159430041Y-51492690D01*
X159500058Y-51390216D01*
X159649200Y-51539358D01*
X159649200Y-51539358D01*
G37*
X159649200Y-51539358D02*
X159649200Y-66323570D01*
X159598883Y-66333038D01*
X159382759Y-66472110D01*
X159335066Y-66541911D01*
X159298290Y-66484759D01*
X159086090Y-66339769D01*
X158834200Y-66288760D01*
X157634200Y-66288760D01*
X157398883Y-66333038D01*
X157182759Y-66472110D01*
X157037769Y-66684310D01*
X156986760Y-66936200D01*
X156986760Y-67836200D01*
X157031038Y-68071517D01*
X157170110Y-68287641D01*
X157382310Y-68432631D01*
X157634200Y-68483640D01*
X158834200Y-68483640D01*
X159069517Y-68439362D01*
X159285641Y-68300290D01*
X159333334Y-68230489D01*
X159370110Y-68287641D01*
X159582310Y-68432631D01*
X159834200Y-68483640D01*
X161034200Y-68483640D01*
X161269517Y-68439362D01*
X161485641Y-68300290D01*
X161625910Y-68095000D01*
X162234842Y-68095000D01*
X162973980Y-68834138D01*
X162903159Y-68879710D01*
X162758169Y-69091910D01*
X162707160Y-69343800D01*
X162707160Y-70543800D01*
X162751438Y-70779117D01*
X162890510Y-70995241D01*
X162960311Y-71042934D01*
X162903159Y-71079710D01*
X162758169Y-71291910D01*
X162734498Y-71408800D01*
X162666146Y-71408800D01*
X162594223Y-71336877D01*
X162355772Y-71177549D01*
X162074500Y-71121600D01*
X161986271Y-71121600D01*
X162059158Y-70945626D01*
X161938017Y-70713600D01*
X160731200Y-70713600D01*
X160731200Y-70733600D01*
X160477200Y-70733600D01*
X160477200Y-70713600D01*
X160457200Y-70713600D01*
X160457200Y-70459600D01*
X160477200Y-70459600D01*
X160477200Y-69252131D01*
X160731200Y-69252131D01*
X160731200Y-70459600D01*
X161938017Y-70459600D01*
X162059158Y-70227574D01*
X161886888Y-69811653D01*
X161492690Y-69379779D01*
X160963227Y-69131632D01*
X160731200Y-69252131D01*
X160477200Y-69252131D01*
X160245173Y-69131632D01*
X159715710Y-69379779D01*
X159545705Y-69566033D01*
X159530962Y-69487683D01*
X159391890Y-69271559D01*
X159179690Y-69126569D01*
X158927800Y-69075560D01*
X157200600Y-69075560D01*
X156965283Y-69119838D01*
X156749159Y-69258910D01*
X156604169Y-69471110D01*
X156553160Y-69723000D01*
X156553160Y-71450200D01*
X156597438Y-71685517D01*
X156736510Y-71901641D01*
X156948710Y-72046631D01*
X156992331Y-72055464D01*
X156975171Y-72066930D01*
X156650315Y-72553111D01*
X156536241Y-73126600D01*
X156650315Y-73700089D01*
X156975171Y-74186270D01*
X157289952Y-74396600D01*
X156975171Y-74606930D01*
X156783691Y-74893500D01*
X142755765Y-74893500D01*
X142921578Y-74727687D01*
X143056663Y-74529984D01*
X143111147Y-74278822D01*
X143063623Y-74026251D01*
X142921578Y-73812069D01*
X142780156Y-73670647D01*
X142693056Y-73611134D01*
X142638735Y-73529226D01*
X142497313Y-73387804D01*
X142410214Y-73328292D01*
X142355893Y-73246384D01*
X142214471Y-73104962D01*
X142127371Y-73045449D01*
X142073050Y-72963541D01*
X141957678Y-72848169D01*
X157364723Y-57441124D01*
X157524051Y-57202672D01*
X157530360Y-57170954D01*
X157580000Y-56921400D01*
X157580000Y-54103022D01*
X158085641Y-54203600D01*
X158144359Y-54203600D01*
X158717848Y-54089526D01*
X159204029Y-53764670D01*
X159528885Y-53278489D01*
X159642959Y-52705000D01*
X159528885Y-52131511D01*
X159204029Y-51645330D01*
X159190358Y-51636195D01*
X159213917Y-51631762D01*
X159430041Y-51492690D01*
X159500058Y-51390216D01*
X159649200Y-51539358D01*
G36*
X153162000Y-52578000D02*
X153182000Y-52578000D01*
X153182000Y-52832000D01*
X153162000Y-52832000D01*
X153162000Y-54039469D01*
X153394027Y-54159968D01*
X153570000Y-54077494D01*
X153570000Y-58585453D01*
X146273910Y-65881543D01*
X146072327Y-65679608D01*
X145834213Y-65580734D01*
X152284724Y-59130223D01*
X152444051Y-58891772D01*
X152450818Y-58857751D01*
X152500000Y-58610500D01*
X152500000Y-54077494D01*
X152675973Y-54159968D01*
X152908000Y-54039469D01*
X152908000Y-52832000D01*
X152888000Y-52832000D01*
X152888000Y-52578000D01*
X152908000Y-52578000D01*
X152908000Y-52558000D01*
X153162000Y-52558000D01*
X153162000Y-52578000D01*
X153162000Y-52578000D01*
G37*
X153162000Y-52578000D02*
X153182000Y-52578000D01*
X153182000Y-52832000D01*
X153162000Y-52832000D01*
X153162000Y-54039469D01*
X153394027Y-54159968D01*
X153570000Y-54077494D01*
X153570000Y-58585453D01*
X146273910Y-65881543D01*
X146072327Y-65679608D01*
X145834213Y-65580734D01*
X152284724Y-59130223D01*
X152444051Y-58891772D01*
X152450818Y-58857751D01*
X152500000Y-58610500D01*
X152500000Y-54077494D01*
X152675973Y-54159968D01*
X152908000Y-54039469D01*
X152908000Y-52832000D01*
X152888000Y-52832000D01*
X152888000Y-52578000D01*
X152908000Y-52578000D01*
X152908000Y-52558000D01*
X153162000Y-52558000D01*
X153162000Y-52578000D01*
G36*
X122682000Y-52578000D02*
X122702000Y-52578000D01*
X122702000Y-52832000D01*
X122682000Y-52832000D01*
X122682000Y-54039469D01*
X122914027Y-54159968D01*
X123090000Y-54077494D01*
X123090000Y-64951354D01*
X122020000Y-63881354D01*
X122020000Y-54077494D01*
X122195973Y-54159968D01*
X122428000Y-54039469D01*
X122428000Y-52832000D01*
X122408000Y-52832000D01*
X122408000Y-52578000D01*
X122428000Y-52578000D01*
X122428000Y-52558000D01*
X122682000Y-52558000D01*
X122682000Y-52578000D01*
X122682000Y-52578000D01*
G37*
X122682000Y-52578000D02*
X122702000Y-52578000D01*
X122702000Y-52832000D01*
X122682000Y-52832000D01*
X122682000Y-54039469D01*
X122914027Y-54159968D01*
X123090000Y-54077494D01*
X123090000Y-64951354D01*
X122020000Y-63881354D01*
X122020000Y-54077494D01*
X122195973Y-54159968D01*
X122428000Y-54039469D01*
X122428000Y-52832000D01*
X122408000Y-52832000D01*
X122408000Y-52578000D01*
X122428000Y-52578000D01*
X122428000Y-52558000D01*
X122682000Y-52558000D01*
X122682000Y-52578000D01*
G36*
X117602000Y-52578000D02*
X117622000Y-52578000D01*
X117622000Y-52832000D01*
X117602000Y-52832000D01*
X117602000Y-54039469D01*
X117834027Y-54159968D01*
X118022700Y-54071541D01*
X118022700Y-61573154D01*
X116940000Y-60490454D01*
X116940000Y-54077494D01*
X117115973Y-54159968D01*
X117348000Y-54039469D01*
X117348000Y-52832000D01*
X117328000Y-52832000D01*
X117328000Y-52578000D01*
X117348000Y-52578000D01*
X117348000Y-52558000D01*
X117602000Y-52558000D01*
X117602000Y-52578000D01*
X117602000Y-52578000D01*
G37*
X117602000Y-52578000D02*
X117622000Y-52578000D01*
X117622000Y-52832000D01*
X117602000Y-52832000D01*
X117602000Y-54039469D01*
X117834027Y-54159968D01*
X118022700Y-54071541D01*
X118022700Y-61573154D01*
X116940000Y-60490454D01*
X116940000Y-54077494D01*
X117115973Y-54159968D01*
X117348000Y-54039469D01*
X117348000Y-52832000D01*
X117328000Y-52832000D01*
X117328000Y-52578000D01*
X117348000Y-52578000D01*
X117348000Y-52558000D01*
X117602000Y-52558000D01*
X117602000Y-52578000D01*
G36*
X143002000Y-52578000D02*
X143022000Y-52578000D01*
X143022000Y-52832000D01*
X143002000Y-52832000D01*
X143002000Y-52852000D01*
X142748000Y-52852000D01*
X142748000Y-52832000D01*
X142728000Y-52832000D01*
X142728000Y-52578000D01*
X142748000Y-52578000D01*
X142748000Y-52558000D01*
X143002000Y-52558000D01*
X143002000Y-52578000D01*
X143002000Y-52578000D01*
G37*
X143002000Y-52578000D02*
X143022000Y-52578000D01*
X143022000Y-52832000D01*
X143002000Y-52832000D01*
X143002000Y-52852000D01*
X142748000Y-52852000D01*
X142748000Y-52832000D01*
X142728000Y-52832000D01*
X142728000Y-52578000D01*
X142748000Y-52578000D01*
X142748000Y-52558000D01*
X143002000Y-52558000D01*
X143002000Y-52578000D01*
G36*
X135382000Y-52578000D02*
X135402000Y-52578000D01*
X135402000Y-52832000D01*
X135382000Y-52832000D01*
X135382000Y-52852000D01*
X135128000Y-52852000D01*
X135128000Y-52832000D01*
X135108000Y-52832000D01*
X135108000Y-52578000D01*
X135128000Y-52578000D01*
X135128000Y-52558000D01*
X135382000Y-52558000D01*
X135382000Y-52578000D01*
X135382000Y-52578000D01*
G37*
X135382000Y-52578000D02*
X135402000Y-52578000D01*
X135402000Y-52832000D01*
X135382000Y-52832000D01*
X135382000Y-52852000D01*
X135128000Y-52852000D01*
X135128000Y-52832000D01*
X135108000Y-52832000D01*
X135108000Y-52578000D01*
X135128000Y-52578000D01*
X135128000Y-52558000D01*
X135382000Y-52558000D01*
X135382000Y-52578000D01*
M02*
