M48
;DRILL file {KiCad 4.0.2-stable} date 2016-03-21 오전 2:06:40
;FORMAT={-:-/ absolute / inch / decimal}
FMAT,2
INCH,TZ
T1C0.016
T2C0.040
T3C0.120
%
G90
G05
M72
T1
X4.9423Y-3.2196
X4.9673Y-2.9921
X5.0484Y-2.9735
X5.1028Y-3.0956
X5.2437Y-2.7782
X5.2688Y-3.2976
X5.2748Y-2.6996
X5.2866Y-3.2044
X5.3948Y-2.5596
X5.4324Y-2.8792
X5.4612Y-3.0307
X5.9173Y-3.0496
X6.3125Y-2.5659
T2
X3.975Y-2.5984
X3.975Y-2.6984
X3.975Y-2.7984
X4.Y-3.75
X4.Y-3.85
X4.Y-4.9213
X4.Y-5.0213
X4.1Y-3.75
X4.1Y-3.85
X4.1Y-4.9213
X4.1Y-5.0213
X4.2Y-3.75
X4.2Y-3.85
X4.2Y-4.9213
X4.2Y-5.0213
X4.3Y-3.75
X4.3Y-3.85
X4.3Y-4.9213
X4.3Y-5.0213
X4.325Y-1.975
X4.325Y-2.075
X4.4Y-3.75
X4.4Y-3.85
X4.4Y-4.9213
X4.4Y-5.0213
X4.425Y-1.975
X4.425Y-2.075
X4.5Y-3.75
X4.5Y-3.85
X4.5Y-4.9213
X4.5Y-5.0213
X4.525Y-1.975
X4.525Y-2.075
X4.6Y-3.75
X4.6Y-3.85
X4.6Y-4.9213
X4.6Y-5.0213
X4.625Y-1.975
X4.625Y-2.075
X4.7Y-3.75
X4.7Y-3.85
X4.7Y-4.9213
X4.7Y-5.0213
X4.725Y-1.975
X4.725Y-2.075
X4.8Y-3.75
X4.8Y-3.85
X4.8Y-4.9213
X4.8Y-5.0213
X4.825Y-1.975
X4.825Y-2.075
X4.9Y-3.75
X4.9Y-3.85
X4.9Y-4.9213
X4.9Y-5.0213
X4.925Y-1.975
X4.925Y-2.075
X5.Y-3.75
X5.Y-3.85
X5.Y-4.9213
X5.Y-5.0213
X5.025Y-1.975
X5.025Y-2.075
X5.1Y-3.75
X5.1Y-3.85
X5.1Y-4.9213
X5.1Y-5.0213
X5.125Y-1.975
X5.125Y-2.075
X5.2Y-3.75
X5.2Y-3.85
X5.2Y-4.9213
X5.2Y-5.0213
X5.225Y-1.975
X5.225Y-2.075
X5.3Y-3.75
X5.3Y-3.85
X5.3Y-4.9213
X5.3Y-5.0213
X5.325Y-1.975
X5.325Y-2.075
X5.4Y-3.75
X5.4Y-3.85
X5.4Y-4.9213
X5.4Y-5.0213
X5.425Y-1.975
X5.425Y-2.075
X5.5Y-3.75
X5.5Y-3.85
X5.5Y-4.9213
X5.5Y-5.0213
X5.525Y-1.975
X5.525Y-2.075
X5.6Y-3.75
X5.6Y-3.85
X5.6Y-4.9213
X5.6Y-5.0213
X5.625Y-1.975
X5.625Y-2.075
X5.7Y-3.75
X5.7Y-3.85
X5.7Y-4.9213
X5.7Y-5.0213
X5.725Y-1.975
X5.725Y-2.075
X5.8Y-3.75
X5.8Y-3.85
X5.8Y-4.9213
X5.8Y-5.0213
X5.825Y-1.975
X5.825Y-2.075
X5.9Y-3.75
X5.9Y-3.85
X5.9Y-4.9213
X5.9Y-5.0213
X5.925Y-1.975
X5.925Y-2.075
X6.Y-3.75
X6.Y-3.85
X6.Y-4.9213
X6.Y-5.0213
X6.025Y-1.975
X6.025Y-2.075
X6.1Y-3.75
X6.1Y-3.85
X6.1Y-4.9213
X6.1Y-5.0213
X6.125Y-1.975
X6.125Y-2.075
X6.2Y-3.75
X6.2Y-3.85
X6.2Y-4.9213
X6.2Y-5.0213
X6.223Y-2.779
X6.223Y-2.879
X6.223Y-2.979
X6.223Y-3.079
X6.223Y-3.179
X6.225Y-1.975
X6.225Y-2.075
X6.3Y-3.75
X6.3Y-3.85
X6.3Y-4.9213
X6.3Y-5.0213
X6.323Y-2.779
X6.323Y-2.879
X6.323Y-2.979
X6.323Y-3.079
X6.323Y-3.179
X6.4Y-3.75
X6.4Y-3.85
X6.4Y-4.9213
X6.4Y-5.0213
T3
X3.7842Y-2.4366
X3.7842Y-5.4331
X6.5551Y-2.4366
X6.5551Y-5.4331
T0
M30
