G04 #@! TF.FileFunction,Legend,Top*
%FSLAX46Y46*%
G04 Gerber Fmt 4.6, Leading zero omitted, Abs format (unit mm)*
G04 Created by KiCad (PCBNEW 4.0.2-stable) date 2016-03-18 오후 4:15:19*
%MOMM*%
G01*
G04 APERTURE LIST*
%ADD10C,0.100000*%
%ADD11C,0.300000*%
%ADD12C,0.250000*%
%ADD13C,0.150000*%
%ADD14C,0.010000*%
G04 APERTURE END LIST*
D10*
D11*
X106987431Y-125265571D02*
X106487431Y-124551286D01*
X106130288Y-125265571D02*
X106130288Y-123765571D01*
X106701716Y-123765571D01*
X106844574Y-123837000D01*
X106916002Y-123908429D01*
X106987431Y-124051286D01*
X106987431Y-124265571D01*
X106916002Y-124408429D01*
X106844574Y-124479857D01*
X106701716Y-124551286D01*
X106130288Y-124551286D01*
X107630288Y-125265571D02*
X107630288Y-123765571D01*
X108201716Y-123765571D01*
X108344574Y-123837000D01*
X108416002Y-123908429D01*
X108487431Y-124051286D01*
X108487431Y-124265571D01*
X108416002Y-124408429D01*
X108344574Y-124479857D01*
X108201716Y-124551286D01*
X107630288Y-124551286D01*
X109130288Y-125265571D02*
X109130288Y-123765571D01*
X109630288Y-124837000D01*
X110130288Y-123765571D01*
X110130288Y-125265571D01*
X111701717Y-125122714D02*
X111630288Y-125194143D01*
X111416002Y-125265571D01*
X111273145Y-125265571D01*
X111058860Y-125194143D01*
X110916002Y-125051286D01*
X110844574Y-124908429D01*
X110773145Y-124622714D01*
X110773145Y-124408429D01*
X110844574Y-124122714D01*
X110916002Y-123979857D01*
X111058860Y-123837000D01*
X111273145Y-123765571D01*
X111416002Y-123765571D01*
X111630288Y-123837000D01*
X111701717Y-123908429D01*
X113416002Y-125194143D02*
X113630288Y-125265571D01*
X113987431Y-125265571D01*
X114130288Y-125194143D01*
X114201717Y-125122714D01*
X114273145Y-124979857D01*
X114273145Y-124837000D01*
X114201717Y-124694143D01*
X114130288Y-124622714D01*
X113987431Y-124551286D01*
X113701717Y-124479857D01*
X113558859Y-124408429D01*
X113487431Y-124337000D01*
X113416002Y-124194143D01*
X113416002Y-124051286D01*
X113487431Y-123908429D01*
X113558859Y-123837000D01*
X113701717Y-123765571D01*
X114058859Y-123765571D01*
X114273145Y-123837000D01*
X115130288Y-125265571D02*
X114987430Y-125194143D01*
X114916002Y-125051286D01*
X114916002Y-123765571D01*
X115916002Y-125265571D02*
X115773144Y-125194143D01*
X115701716Y-125122714D01*
X115630287Y-124979857D01*
X115630287Y-124551286D01*
X115701716Y-124408429D01*
X115773144Y-124337000D01*
X115916002Y-124265571D01*
X116130287Y-124265571D01*
X116273144Y-124337000D01*
X116344573Y-124408429D01*
X116416002Y-124551286D01*
X116416002Y-124979857D01*
X116344573Y-125122714D01*
X116273144Y-125194143D01*
X116130287Y-125265571D01*
X115916002Y-125265571D01*
X116844573Y-124265571D02*
X117416002Y-124265571D01*
X117058859Y-123765571D02*
X117058859Y-125051286D01*
X117130287Y-125194143D01*
X117273145Y-125265571D01*
X117416002Y-125265571D01*
X118844573Y-123765571D02*
X119344573Y-125265571D01*
X119844573Y-123765571D01*
X120630287Y-123765571D02*
X120773144Y-123765571D01*
X120916001Y-123837000D01*
X120987430Y-123908429D01*
X121058859Y-124051286D01*
X121130287Y-124337000D01*
X121130287Y-124694143D01*
X121058859Y-124979857D01*
X120987430Y-125122714D01*
X120916001Y-125194143D01*
X120773144Y-125265571D01*
X120630287Y-125265571D01*
X120487430Y-125194143D01*
X120416001Y-125122714D01*
X120344573Y-124979857D01*
X120273144Y-124694143D01*
X120273144Y-124337000D01*
X120344573Y-124051286D01*
X120416001Y-123908429D01*
X120487430Y-123837000D01*
X120630287Y-123765571D01*
X121773144Y-125122714D02*
X121844572Y-125194143D01*
X121773144Y-125265571D01*
X121701715Y-125194143D01*
X121773144Y-125122714D01*
X121773144Y-125265571D01*
X123201716Y-123765571D02*
X122487430Y-123765571D01*
X122416001Y-124479857D01*
X122487430Y-124408429D01*
X122630287Y-124337000D01*
X122987430Y-124337000D01*
X123130287Y-124408429D01*
X123201716Y-124479857D01*
X123273144Y-124622714D01*
X123273144Y-124979857D01*
X123201716Y-125122714D01*
X123130287Y-125194143D01*
X122987430Y-125265571D01*
X122630287Y-125265571D01*
X122487430Y-125194143D01*
X122416001Y-125122714D01*
X124987429Y-123908429D02*
X125058858Y-123837000D01*
X125201715Y-123765571D01*
X125558858Y-123765571D01*
X125701715Y-123837000D01*
X125773144Y-123908429D01*
X125844572Y-124051286D01*
X125844572Y-124194143D01*
X125773144Y-124408429D01*
X124916001Y-125265571D01*
X125844572Y-125265571D01*
X126773143Y-123765571D02*
X126916000Y-123765571D01*
X127058857Y-123837000D01*
X127130286Y-123908429D01*
X127201715Y-124051286D01*
X127273143Y-124337000D01*
X127273143Y-124694143D01*
X127201715Y-124979857D01*
X127130286Y-125122714D01*
X127058857Y-125194143D01*
X126916000Y-125265571D01*
X126773143Y-125265571D01*
X126630286Y-125194143D01*
X126558857Y-125122714D01*
X126487429Y-124979857D01*
X126416000Y-124694143D01*
X126416000Y-124337000D01*
X126487429Y-124051286D01*
X126558857Y-123908429D01*
X126630286Y-123837000D01*
X126773143Y-123765571D01*
X128701714Y-125265571D02*
X127844571Y-125265571D01*
X128273143Y-125265571D02*
X128273143Y-123765571D01*
X128130286Y-123979857D01*
X127987428Y-124122714D01*
X127844571Y-124194143D01*
X129987428Y-123765571D02*
X129701714Y-123765571D01*
X129558857Y-123837000D01*
X129487428Y-123908429D01*
X129344571Y-124122714D01*
X129273142Y-124408429D01*
X129273142Y-124979857D01*
X129344571Y-125122714D01*
X129415999Y-125194143D01*
X129558857Y-125265571D01*
X129844571Y-125265571D01*
X129987428Y-125194143D01*
X130058857Y-125122714D01*
X130130285Y-124979857D01*
X130130285Y-124622714D01*
X130058857Y-124479857D01*
X129987428Y-124408429D01*
X129844571Y-124337000D01*
X129558857Y-124337000D01*
X129415999Y-124408429D01*
X129344571Y-124479857D01*
X129273142Y-124622714D01*
X130773142Y-125122714D02*
X130844570Y-125194143D01*
X130773142Y-125265571D01*
X130701713Y-125194143D01*
X130773142Y-125122714D01*
X130773142Y-125265571D01*
X131773142Y-123765571D02*
X131915999Y-123765571D01*
X132058856Y-123837000D01*
X132130285Y-123908429D01*
X132201714Y-124051286D01*
X132273142Y-124337000D01*
X132273142Y-124694143D01*
X132201714Y-124979857D01*
X132130285Y-125122714D01*
X132058856Y-125194143D01*
X131915999Y-125265571D01*
X131773142Y-125265571D01*
X131630285Y-125194143D01*
X131558856Y-125122714D01*
X131487428Y-124979857D01*
X131415999Y-124694143D01*
X131415999Y-124337000D01*
X131487428Y-124051286D01*
X131558856Y-123908429D01*
X131630285Y-123837000D01*
X131773142Y-123765571D01*
X132773142Y-123765571D02*
X133701713Y-123765571D01*
X133201713Y-124337000D01*
X133415999Y-124337000D01*
X133558856Y-124408429D01*
X133630285Y-124479857D01*
X133701713Y-124622714D01*
X133701713Y-124979857D01*
X133630285Y-125122714D01*
X133558856Y-125194143D01*
X133415999Y-125265571D01*
X132987427Y-125265571D01*
X132844570Y-125194143D01*
X132773142Y-125122714D01*
X134344570Y-125122714D02*
X134415998Y-125194143D01*
X134344570Y-125265571D01*
X134273141Y-125194143D01*
X134344570Y-125122714D01*
X134344570Y-125265571D01*
X135844570Y-125265571D02*
X134987427Y-125265571D01*
X135415999Y-125265571D02*
X135415999Y-123765571D01*
X135273142Y-123979857D01*
X135130284Y-124122714D01*
X134987427Y-124194143D01*
X137201713Y-123765571D02*
X136487427Y-123765571D01*
X136415998Y-124479857D01*
X136487427Y-124408429D01*
X136630284Y-124337000D01*
X136987427Y-124337000D01*
X137130284Y-124408429D01*
X137201713Y-124479857D01*
X137273141Y-124622714D01*
X137273141Y-124979857D01*
X137201713Y-125122714D01*
X137130284Y-125194143D01*
X136987427Y-125265571D01*
X136630284Y-125265571D01*
X136487427Y-125194143D01*
X136415998Y-125122714D01*
D12*
X147397429Y-124785381D02*
X147397429Y-124118714D01*
X147397429Y-124213952D02*
X147454572Y-124166333D01*
X147568858Y-124118714D01*
X147740286Y-124118714D01*
X147854572Y-124166333D01*
X147911715Y-124261571D01*
X147911715Y-124785381D01*
X147911715Y-124261571D02*
X147968858Y-124166333D01*
X148083144Y-124118714D01*
X148254572Y-124118714D01*
X148368858Y-124166333D01*
X148426001Y-124261571D01*
X148426001Y-124785381D01*
X149454572Y-124737762D02*
X149340286Y-124785381D01*
X149111715Y-124785381D01*
X148997429Y-124737762D01*
X148940286Y-124642524D01*
X148940286Y-124261571D01*
X148997429Y-124166333D01*
X149111715Y-124118714D01*
X149340286Y-124118714D01*
X149454572Y-124166333D01*
X149511715Y-124261571D01*
X149511715Y-124356810D01*
X148940286Y-124452048D01*
X150483143Y-124737762D02*
X150368857Y-124785381D01*
X150140286Y-124785381D01*
X150026000Y-124737762D01*
X149968857Y-124642524D01*
X149968857Y-124261571D01*
X150026000Y-124166333D01*
X150140286Y-124118714D01*
X150368857Y-124118714D01*
X150483143Y-124166333D01*
X150540286Y-124261571D01*
X150540286Y-124356810D01*
X149968857Y-124452048D01*
X150997428Y-124737762D02*
X151111714Y-124785381D01*
X151340286Y-124785381D01*
X151454571Y-124737762D01*
X151511714Y-124642524D01*
X151511714Y-124594905D01*
X151454571Y-124499667D01*
X151340286Y-124452048D01*
X151168857Y-124452048D01*
X151054571Y-124404429D01*
X150997428Y-124309190D01*
X150997428Y-124261571D01*
X151054571Y-124166333D01*
X151168857Y-124118714D01*
X151340286Y-124118714D01*
X151454571Y-124166333D01*
X152197429Y-124785381D02*
X152083143Y-124737762D01*
X152026000Y-124690143D01*
X151968857Y-124594905D01*
X151968857Y-124309190D01*
X152026000Y-124213952D01*
X152083143Y-124166333D01*
X152197429Y-124118714D01*
X152368857Y-124118714D01*
X152483143Y-124166333D01*
X152540286Y-124213952D01*
X152597429Y-124309190D01*
X152597429Y-124594905D01*
X152540286Y-124690143D01*
X152483143Y-124737762D01*
X152368857Y-124785381D01*
X152197429Y-124785381D01*
X153111714Y-124690143D02*
X153168857Y-124737762D01*
X153111714Y-124785381D01*
X153054571Y-124737762D01*
X153111714Y-124690143D01*
X153111714Y-124785381D01*
X153683143Y-124785381D02*
X153683143Y-123785381D01*
X153797429Y-124404429D02*
X154140286Y-124785381D01*
X154140286Y-124118714D02*
X153683143Y-124499667D01*
X154654572Y-124785381D02*
X154654572Y-124118714D01*
X154654572Y-123785381D02*
X154597429Y-123833000D01*
X154654572Y-123880619D01*
X154711715Y-123833000D01*
X154654572Y-123785381D01*
X154654572Y-123880619D01*
X155226001Y-124785381D02*
X155226001Y-124118714D01*
X155226001Y-124213952D02*
X155283144Y-124166333D01*
X155397430Y-124118714D01*
X155568858Y-124118714D01*
X155683144Y-124166333D01*
X155740287Y-124261571D01*
X155740287Y-124785381D01*
X155740287Y-124261571D02*
X155797430Y-124166333D01*
X155911716Y-124118714D01*
X156083144Y-124118714D01*
X156197430Y-124166333D01*
X156254573Y-124261571D01*
X156254573Y-124785381D01*
X157568858Y-124309190D02*
X157511716Y-124261571D01*
X157397430Y-124213952D01*
X157283144Y-124213952D01*
X157168858Y-124261571D01*
X157111716Y-124309190D01*
X157054573Y-124404429D01*
X157054573Y-124499667D01*
X157111716Y-124594905D01*
X157168858Y-124642524D01*
X157283144Y-124690143D01*
X157397430Y-124690143D01*
X157511716Y-124642524D01*
X157568858Y-124594905D01*
X157568858Y-124213952D02*
X157568858Y-124594905D01*
X157626001Y-124642524D01*
X157683144Y-124642524D01*
X157797430Y-124594905D01*
X157854573Y-124499667D01*
X157854573Y-124261571D01*
X157740287Y-124118714D01*
X157568858Y-124023476D01*
X157340287Y-123975857D01*
X157111716Y-124023476D01*
X156940287Y-124118714D01*
X156826001Y-124261571D01*
X156768858Y-124452048D01*
X156826001Y-124642524D01*
X156940287Y-124785381D01*
X157111716Y-124880619D01*
X157340287Y-124928238D01*
X157568858Y-124880619D01*
X157740287Y-124785381D01*
X158883144Y-124118714D02*
X158883144Y-124928238D01*
X158826001Y-125023476D01*
X158768858Y-125071095D01*
X158654573Y-125118714D01*
X158483144Y-125118714D01*
X158368858Y-125071095D01*
X158883144Y-124737762D02*
X158768858Y-124785381D01*
X158540287Y-124785381D01*
X158426001Y-124737762D01*
X158368858Y-124690143D01*
X158311715Y-124594905D01*
X158311715Y-124309190D01*
X158368858Y-124213952D01*
X158426001Y-124166333D01*
X158540287Y-124118714D01*
X158768858Y-124118714D01*
X158883144Y-124166333D01*
X159454572Y-124785381D02*
X159454572Y-124118714D01*
X159454572Y-124213952D02*
X159511715Y-124166333D01*
X159626001Y-124118714D01*
X159797429Y-124118714D01*
X159911715Y-124166333D01*
X159968858Y-124261571D01*
X159968858Y-124785381D01*
X159968858Y-124261571D02*
X160026001Y-124166333D01*
X160140287Y-124118714D01*
X160311715Y-124118714D01*
X160426001Y-124166333D01*
X160483144Y-124261571D01*
X160483144Y-124785381D01*
X161568858Y-124785381D02*
X161568858Y-124261571D01*
X161511715Y-124166333D01*
X161397429Y-124118714D01*
X161168858Y-124118714D01*
X161054572Y-124166333D01*
X161568858Y-124737762D02*
X161454572Y-124785381D01*
X161168858Y-124785381D01*
X161054572Y-124737762D01*
X160997429Y-124642524D01*
X160997429Y-124547286D01*
X161054572Y-124452048D01*
X161168858Y-124404429D01*
X161454572Y-124404429D01*
X161568858Y-124356810D01*
X162140286Y-124785381D02*
X162140286Y-124118714D01*
X162140286Y-123785381D02*
X162083143Y-123833000D01*
X162140286Y-123880619D01*
X162197429Y-123833000D01*
X162140286Y-123785381D01*
X162140286Y-123880619D01*
X162883144Y-124785381D02*
X162768858Y-124737762D01*
X162711715Y-124642524D01*
X162711715Y-123785381D01*
X163340286Y-124690143D02*
X163397429Y-124737762D01*
X163340286Y-124785381D01*
X163283143Y-124737762D01*
X163340286Y-124690143D01*
X163340286Y-124785381D01*
X164426001Y-124737762D02*
X164311715Y-124785381D01*
X164083144Y-124785381D01*
X163968858Y-124737762D01*
X163911715Y-124690143D01*
X163854572Y-124594905D01*
X163854572Y-124309190D01*
X163911715Y-124213952D01*
X163968858Y-124166333D01*
X164083144Y-124118714D01*
X164311715Y-124118714D01*
X164426001Y-124166333D01*
X165111715Y-124785381D02*
X164997429Y-124737762D01*
X164940286Y-124690143D01*
X164883143Y-124594905D01*
X164883143Y-124309190D01*
X164940286Y-124213952D01*
X164997429Y-124166333D01*
X165111715Y-124118714D01*
X165283143Y-124118714D01*
X165397429Y-124166333D01*
X165454572Y-124213952D01*
X165511715Y-124309190D01*
X165511715Y-124594905D01*
X165454572Y-124690143D01*
X165397429Y-124737762D01*
X165283143Y-124785381D01*
X165111715Y-124785381D01*
X166026000Y-124785381D02*
X166026000Y-124118714D01*
X166026000Y-124213952D02*
X166083143Y-124166333D01*
X166197429Y-124118714D01*
X166368857Y-124118714D01*
X166483143Y-124166333D01*
X166540286Y-124261571D01*
X166540286Y-124785381D01*
X166540286Y-124261571D02*
X166597429Y-124166333D01*
X166711715Y-124118714D01*
X166883143Y-124118714D01*
X166997429Y-124166333D01*
X167054572Y-124261571D01*
X167054572Y-124785381D01*
D13*
X161290000Y-93980000D02*
X100330000Y-93980000D01*
X100330000Y-99060000D02*
X163830000Y-99060000D01*
X100330000Y-99060000D02*
X100330000Y-93980000D01*
X163830000Y-99060000D02*
X163830000Y-96520000D01*
X164110000Y-95250000D02*
X164110000Y-93700000D01*
X163830000Y-96520000D02*
X161290000Y-96520000D01*
X161290000Y-96520000D02*
X161290000Y-93980000D01*
X164110000Y-93700000D02*
X162560000Y-93700000D01*
X161290000Y-115570000D02*
X100330000Y-115570000D01*
X100330000Y-120650000D02*
X163830000Y-120650000D01*
X100330000Y-120650000D02*
X100330000Y-115570000D01*
X163830000Y-120650000D02*
X163830000Y-118110000D01*
X164110000Y-116840000D02*
X164110000Y-115290000D01*
X163830000Y-118110000D02*
X161290000Y-118110000D01*
X161290000Y-118110000D02*
X161290000Y-115570000D01*
X164110000Y-115290000D02*
X162560000Y-115290000D01*
X142463769Y-76073000D02*
X141721307Y-75330538D01*
X133731000Y-84805769D02*
X132988538Y-84063307D01*
X124998231Y-76073000D02*
X125740693Y-76815462D01*
X133731000Y-67340231D02*
X134473462Y-68082693D01*
X142463769Y-76073000D02*
X141721307Y-76815462D01*
X133731000Y-67340231D02*
X132988538Y-68082693D01*
X124998231Y-76073000D02*
X125740693Y-75330538D01*
X133731000Y-84805769D02*
X134473462Y-84063307D01*
X141721307Y-75330538D02*
X142622868Y-74428977D01*
X163195000Y-55985000D02*
X104775000Y-55985000D01*
X162655000Y-55435000D02*
X105335000Y-55435000D01*
X163195000Y-46885000D02*
X104775000Y-46885000D01*
X162655000Y-47435000D02*
X136235000Y-47435000D01*
X131735000Y-47435000D02*
X105335000Y-47435000D01*
X136235000Y-47435000D02*
X136235000Y-46885000D01*
X131735000Y-47435000D02*
X131735000Y-46885000D01*
X163195000Y-55985000D02*
X163195000Y-46885000D01*
X162655000Y-55435000D02*
X162655000Y-47435000D01*
X104775000Y-55985000D02*
X104775000Y-46885000D01*
X105335000Y-55435000D02*
X105335000Y-47435000D01*
X163195000Y-55985000D02*
X162655000Y-55435000D01*
X104775000Y-55985000D02*
X105335000Y-55435000D01*
X163195000Y-46885000D02*
X162655000Y-47435000D01*
X104775000Y-46885000D02*
X105335000Y-47435000D01*
X99695000Y-65405000D02*
X99695000Y-70485000D01*
X99695000Y-70485000D02*
X102235000Y-70485000D01*
X102235000Y-70485000D02*
X102235000Y-65405000D01*
X102515000Y-62585000D02*
X102515000Y-64135000D01*
X102235000Y-65405000D02*
X99695000Y-65405000D01*
X99415000Y-64135000D02*
X99415000Y-62585000D01*
X99415000Y-62585000D02*
X102515000Y-62585000D01*
X161874200Y-69316600D02*
X161874200Y-82016600D01*
X161874200Y-82016600D02*
X156794200Y-82016600D01*
X156794200Y-82016600D02*
X156794200Y-71856600D01*
X161874200Y-69316600D02*
X159334200Y-69316600D01*
X158064200Y-69036600D02*
X156514200Y-69036600D01*
X159334200Y-69316600D02*
X159334200Y-71856600D01*
X159334200Y-71856600D02*
X156794200Y-71856600D01*
X156514200Y-69036600D02*
X156514200Y-70586600D01*
X158834200Y-66711200D02*
X159834200Y-66711200D01*
X159834200Y-68061200D02*
X158834200Y-68061200D01*
X163129600Y-71543800D02*
X163129600Y-70543800D01*
X164479600Y-70543800D02*
X164479600Y-71543800D01*
X164479600Y-75268200D02*
X164479600Y-76268200D01*
X163129600Y-76268200D02*
X163129600Y-75268200D01*
X163180400Y-81094200D02*
X163180400Y-80094200D01*
X164530400Y-80094200D02*
X164530400Y-81094200D01*
D14*
G36*
X104469815Y-121535384D02*
X104555072Y-121536082D01*
X104636666Y-121536797D01*
X104713710Y-121537520D01*
X104785314Y-121538239D01*
X104850591Y-121538945D01*
X104908652Y-121539627D01*
X104958610Y-121540273D01*
X104999574Y-121540875D01*
X105030658Y-121541421D01*
X105050973Y-121541900D01*
X105059631Y-121542303D01*
X105059881Y-121542364D01*
X105056509Y-121547699D01*
X105046139Y-121562851D01*
X105029142Y-121587294D01*
X105005889Y-121620503D01*
X104976754Y-121661951D01*
X104942107Y-121711113D01*
X104902320Y-121767463D01*
X104857766Y-121830477D01*
X104808815Y-121899627D01*
X104755840Y-121974388D01*
X104699212Y-122054235D01*
X104639304Y-122138641D01*
X104576487Y-122227082D01*
X104511132Y-122319031D01*
X104443612Y-122413963D01*
X104419511Y-122447833D01*
X104351237Y-122543793D01*
X104284941Y-122637013D01*
X104221001Y-122726962D01*
X104159791Y-122813111D01*
X104101688Y-122894928D01*
X104047068Y-122971883D01*
X103996306Y-123043446D01*
X103949778Y-123109088D01*
X103907860Y-123168277D01*
X103870929Y-123220483D01*
X103839359Y-123265176D01*
X103813527Y-123301825D01*
X103793808Y-123329901D01*
X103780578Y-123348872D01*
X103774214Y-123358209D01*
X103773682Y-123359094D01*
X103776979Y-123365026D01*
X103787282Y-123380795D01*
X103804231Y-123405889D01*
X103827468Y-123439796D01*
X103856636Y-123482005D01*
X103891374Y-123532004D01*
X103931327Y-123589282D01*
X103976134Y-123653327D01*
X104025438Y-123723628D01*
X104078881Y-123799673D01*
X104136104Y-123880952D01*
X104196749Y-123966951D01*
X104260458Y-124057161D01*
X104326873Y-124151068D01*
X104395635Y-124248163D01*
X104458965Y-124337475D01*
X104529707Y-124437187D01*
X104598564Y-124534258D01*
X104665169Y-124628168D01*
X104729154Y-124718397D01*
X104790152Y-124804429D01*
X104847795Y-124885743D01*
X104901715Y-124961822D01*
X104951546Y-125032146D01*
X104996919Y-125096197D01*
X105037467Y-125153456D01*
X105072823Y-125203405D01*
X105102619Y-125245524D01*
X105126488Y-125279295D01*
X105144062Y-125304200D01*
X105154974Y-125319719D01*
X105158764Y-125325187D01*
X105170160Y-125342650D01*
X104920192Y-125341118D01*
X104861219Y-125340758D01*
X104792183Y-125340338D01*
X104715722Y-125339874D01*
X104634471Y-125339382D01*
X104551069Y-125338878D01*
X104468152Y-125338378D01*
X104388357Y-125337898D01*
X104330500Y-125337551D01*
X103990775Y-125335514D01*
X103584907Y-124770451D01*
X103519451Y-124679378D01*
X103460987Y-124598164D01*
X103409147Y-124526318D01*
X103363568Y-124463345D01*
X103323881Y-124408755D01*
X103289722Y-124362054D01*
X103260725Y-124322750D01*
X103236523Y-124290351D01*
X103216751Y-124264364D01*
X103201042Y-124244297D01*
X103189030Y-124229657D01*
X103180350Y-124219952D01*
X103174636Y-124214690D01*
X103171521Y-124213377D01*
X103171083Y-124213631D01*
X103166476Y-124219904D01*
X103155188Y-124235965D01*
X103137700Y-124261113D01*
X103114494Y-124294650D01*
X103086051Y-124335875D01*
X103052853Y-124384089D01*
X103015381Y-124438593D01*
X102974117Y-124498685D01*
X102929542Y-124563668D01*
X102882137Y-124632840D01*
X102832384Y-124705502D01*
X102787471Y-124771150D01*
X102736069Y-124846277D01*
X102686601Y-124918519D01*
X102639545Y-124987177D01*
X102595385Y-125051553D01*
X102554600Y-125110946D01*
X102517671Y-125164657D01*
X102485081Y-125211987D01*
X102457309Y-125252237D01*
X102434838Y-125284708D01*
X102418147Y-125308700D01*
X102407718Y-125323514D01*
X102404111Y-125328395D01*
X102400367Y-125329783D01*
X102391562Y-125330996D01*
X102377049Y-125332040D01*
X102356179Y-125332921D01*
X102328305Y-125333648D01*
X102292779Y-125334225D01*
X102248954Y-125334661D01*
X102196181Y-125334962D01*
X102133812Y-125335135D01*
X102061201Y-125335186D01*
X101977699Y-125335123D01*
X101882658Y-125334952D01*
X101798741Y-125334745D01*
X101201076Y-125333125D01*
X101874255Y-124371100D01*
X101943849Y-124271640D01*
X102011559Y-124174870D01*
X102077017Y-124081311D01*
X102139860Y-123991485D01*
X102199721Y-123905916D01*
X102256236Y-123825124D01*
X102309039Y-123749632D01*
X102357765Y-123679964D01*
X102402048Y-123616640D01*
X102441524Y-123560183D01*
X102475828Y-123511115D01*
X102504593Y-123469959D01*
X102527455Y-123437238D01*
X102544048Y-123413472D01*
X102554008Y-123399185D01*
X102556930Y-123394965D01*
X102558411Y-123392063D01*
X102558886Y-123388345D01*
X102557910Y-123383117D01*
X102555035Y-123375685D01*
X102549815Y-123365353D01*
X102541805Y-123351428D01*
X102530557Y-123333214D01*
X102515626Y-123310017D01*
X102496565Y-123281142D01*
X102472929Y-123245894D01*
X102444269Y-123203580D01*
X102410142Y-123153503D01*
X102370099Y-123094970D01*
X102323695Y-123027285D01*
X102276989Y-122959231D01*
X102231775Y-122893408D01*
X102188453Y-122830416D01*
X102147586Y-122771071D01*
X102109738Y-122716185D01*
X102075470Y-122666575D01*
X102045347Y-122623053D01*
X102019932Y-122586433D01*
X101999788Y-122557532D01*
X101985478Y-122537161D01*
X101977565Y-122526137D01*
X101976338Y-122524549D01*
X101965125Y-122511493D01*
X99425125Y-122520097D01*
X99392803Y-122537141D01*
X99353847Y-122564103D01*
X99323629Y-122598091D01*
X99302043Y-122637353D01*
X99288982Y-122680134D01*
X99284339Y-122724682D01*
X99288008Y-122769242D01*
X99299883Y-122812063D01*
X99319857Y-122851390D01*
X99347823Y-122885469D01*
X99383674Y-122912549D01*
X99416528Y-122927506D01*
X99423273Y-122929189D01*
X99433816Y-122930743D01*
X99448897Y-122932193D01*
X99469257Y-122933560D01*
X99495634Y-122934867D01*
X99528769Y-122936138D01*
X99569402Y-122937394D01*
X99618273Y-122938659D01*
X99676120Y-122939956D01*
X99743685Y-122941307D01*
X99821707Y-122942736D01*
X99910926Y-122944264D01*
X100012081Y-122945916D01*
X100015362Y-122945968D01*
X100119182Y-122947639D01*
X100211189Y-122949170D01*
X100292268Y-122950624D01*
X100363304Y-122952062D01*
X100425183Y-122953546D01*
X100478789Y-122955139D01*
X100525009Y-122956902D01*
X100564727Y-122958898D01*
X100598829Y-122961188D01*
X100628199Y-122963834D01*
X100653723Y-122966898D01*
X100676287Y-122970442D01*
X100696775Y-122974528D01*
X100716072Y-122979219D01*
X100735065Y-122984576D01*
X100754638Y-122990660D01*
X100775677Y-122997535D01*
X100782015Y-122999631D01*
X100890903Y-123042247D01*
X100994588Y-123095919D01*
X101092334Y-123159810D01*
X101183400Y-123233086D01*
X101267050Y-123314912D01*
X101342545Y-123404453D01*
X101409146Y-123500874D01*
X101466116Y-123603340D01*
X101512716Y-123711016D01*
X101548208Y-123823067D01*
X101561765Y-123881488D01*
X101572593Y-123949227D01*
X101579663Y-124025472D01*
X101582923Y-124106581D01*
X101582321Y-124188911D01*
X101577806Y-124268821D01*
X101569327Y-124342670D01*
X101568371Y-124348875D01*
X101543705Y-124464873D01*
X101507010Y-124577831D01*
X101458817Y-124686585D01*
X101399660Y-124789974D01*
X101330068Y-124886832D01*
X101312968Y-124907675D01*
X101230505Y-124996331D01*
X101139482Y-125076713D01*
X101041234Y-125147914D01*
X100937095Y-125209027D01*
X100828401Y-125259146D01*
X100757741Y-125284812D01*
X100743242Y-125289636D01*
X100730164Y-125294095D01*
X100717989Y-125298205D01*
X100706197Y-125301981D01*
X100694270Y-125305439D01*
X100681690Y-125308595D01*
X100667938Y-125311464D01*
X100652496Y-125314062D01*
X100634846Y-125316404D01*
X100614468Y-125318507D01*
X100590845Y-125320385D01*
X100563457Y-125322055D01*
X100531787Y-125323532D01*
X100495317Y-125324832D01*
X100453526Y-125325970D01*
X100405898Y-125326963D01*
X100351913Y-125327825D01*
X100291053Y-125328573D01*
X100222800Y-125329221D01*
X100146635Y-125329787D01*
X100062040Y-125330285D01*
X99968496Y-125330731D01*
X99865485Y-125331140D01*
X99752488Y-125331529D01*
X99628986Y-125331913D01*
X99494463Y-125332307D01*
X99348397Y-125332728D01*
X99190273Y-125333191D01*
X99151334Y-125333307D01*
X97734544Y-125337566D01*
X97730071Y-125319470D01*
X97726678Y-125306247D01*
X97720356Y-125282128D01*
X97711333Y-125247971D01*
X97699840Y-125204631D01*
X97686105Y-125152964D01*
X97670359Y-125093827D01*
X97652829Y-125028076D01*
X97633746Y-124956567D01*
X97613340Y-124880157D01*
X97591838Y-124799701D01*
X97569472Y-124716057D01*
X97546469Y-124630079D01*
X97523060Y-124542625D01*
X97499474Y-124454550D01*
X97475939Y-124366711D01*
X97452686Y-124279964D01*
X97429944Y-124195165D01*
X97407943Y-124113171D01*
X97386910Y-124034837D01*
X97367077Y-123961020D01*
X97348672Y-123892576D01*
X97331924Y-123830362D01*
X97317064Y-123775233D01*
X97304319Y-123728046D01*
X97293921Y-123689657D01*
X97286097Y-123660922D01*
X97281078Y-123642697D01*
X97279092Y-123635839D01*
X97279075Y-123635809D01*
X97275979Y-123639462D01*
X97271587Y-123651680D01*
X97270776Y-123654542D01*
X97268457Y-123663158D01*
X97263053Y-123683312D01*
X97254759Y-123714272D01*
X97243772Y-123755305D01*
X97230287Y-123805680D01*
X97214501Y-123864665D01*
X97196608Y-123931529D01*
X97176805Y-124005540D01*
X97155287Y-124085966D01*
X97132251Y-124172076D01*
X97107892Y-124263137D01*
X97082406Y-124358419D01*
X97055988Y-124457189D01*
X97043773Y-124502862D01*
X96822568Y-125329950D01*
X95956619Y-125329950D01*
X95947169Y-125296612D01*
X95944317Y-125286494D01*
X95938244Y-125264898D01*
X95929161Y-125232576D01*
X95917277Y-125190276D01*
X95902804Y-125138750D01*
X95885952Y-125078746D01*
X95866932Y-125011016D01*
X95845954Y-124936310D01*
X95823230Y-124855377D01*
X95798969Y-124768968D01*
X95773383Y-124677833D01*
X95746682Y-124582721D01*
X95719077Y-124484385D01*
X95710063Y-124452274D01*
X95682397Y-124353793D01*
X95655661Y-124258770D01*
X95630055Y-124167913D01*
X95605783Y-124081932D01*
X95583043Y-124001533D01*
X95562039Y-123927426D01*
X95542972Y-123860318D01*
X95526042Y-123800919D01*
X95511451Y-123749935D01*
X95499401Y-123708076D01*
X95490093Y-123676049D01*
X95483728Y-123654563D01*
X95480507Y-123644326D01*
X95480148Y-123643534D01*
X95478387Y-123649857D01*
X95473770Y-123667804D01*
X95466472Y-123696667D01*
X95456671Y-123735739D01*
X95444540Y-123784309D01*
X95430257Y-123841671D01*
X95413998Y-123907116D01*
X95395937Y-123979935D01*
X95376252Y-124059420D01*
X95355118Y-124144863D01*
X95332710Y-124235556D01*
X95309205Y-124330790D01*
X95284779Y-124429857D01*
X95270095Y-124489459D01*
X95062302Y-125333125D01*
X95010101Y-125332957D01*
X94995033Y-125332909D01*
X94968435Y-125332825D01*
X94931480Y-125332708D01*
X94885336Y-125332563D01*
X94831174Y-125332392D01*
X94770166Y-125332199D01*
X94703482Y-125331989D01*
X94632292Y-125331765D01*
X94557768Y-125331530D01*
X94507050Y-125331370D01*
X94420348Y-125331082D01*
X94345483Y-125330786D01*
X94281592Y-125330461D01*
X94227812Y-125330081D01*
X94183281Y-125329624D01*
X94147134Y-125329065D01*
X94118510Y-125328382D01*
X94096545Y-125327551D01*
X94080376Y-125326548D01*
X94069140Y-125325349D01*
X94061974Y-125323932D01*
X94058016Y-125322272D01*
X94056402Y-125320345D01*
X94056200Y-125319061D01*
X94057738Y-125312414D01*
X94062256Y-125294033D01*
X94069608Y-125264494D01*
X94079647Y-125224373D01*
X94092229Y-125174246D01*
X94107206Y-125114689D01*
X94124434Y-125046276D01*
X94143766Y-124969585D01*
X94165057Y-124885191D01*
X94188161Y-124793669D01*
X94212931Y-124695596D01*
X94239222Y-124591546D01*
X94266888Y-124482097D01*
X94295783Y-124367824D01*
X94325762Y-124249302D01*
X94356678Y-124127107D01*
X94388385Y-124001816D01*
X94420739Y-123874003D01*
X94453592Y-123744245D01*
X94486799Y-123613117D01*
X94520214Y-123481196D01*
X94553692Y-123349057D01*
X94587086Y-123217275D01*
X94620250Y-123086427D01*
X94653039Y-122957089D01*
X94685307Y-122829835D01*
X94716908Y-122705243D01*
X94747695Y-122583887D01*
X94777524Y-122466343D01*
X94806248Y-122353188D01*
X94833722Y-122244997D01*
X94859799Y-122142346D01*
X94884334Y-122045810D01*
X94907181Y-121955966D01*
X94928194Y-121873389D01*
X94947226Y-121798655D01*
X94964133Y-121732339D01*
X94978769Y-121675018D01*
X94990987Y-121627268D01*
X95000641Y-121589663D01*
X95007587Y-121562780D01*
X95011677Y-121547195D01*
X95012623Y-121543762D01*
X95013833Y-121541617D01*
X95016690Y-121539766D01*
X95022069Y-121538188D01*
X95030844Y-121536861D01*
X95043891Y-121535764D01*
X95062085Y-121534874D01*
X95086302Y-121534171D01*
X95117415Y-121533633D01*
X95156302Y-121533237D01*
X95203835Y-121532963D01*
X95260892Y-121532789D01*
X95328347Y-121532694D01*
X95407075Y-121532655D01*
X95462884Y-121532650D01*
X95909862Y-121532649D01*
X95922463Y-121575512D01*
X95925738Y-121586938D01*
X95932217Y-121609812D01*
X95941680Y-121643352D01*
X95953908Y-121686775D01*
X95968681Y-121739301D01*
X95985780Y-121800147D01*
X96004985Y-121868531D01*
X96026077Y-121943671D01*
X96048835Y-122024785D01*
X96073040Y-122111091D01*
X96098473Y-122201807D01*
X96124913Y-122296152D01*
X96152067Y-122393075D01*
X96179092Y-122489498D01*
X96205209Y-122582576D01*
X96230210Y-122671574D01*
X96253888Y-122755754D01*
X96276034Y-122834380D01*
X96296439Y-122906715D01*
X96314896Y-122972023D01*
X96331196Y-123029566D01*
X96345131Y-123078608D01*
X96356493Y-123118413D01*
X96365074Y-123148243D01*
X96370665Y-123167362D01*
X96373058Y-123175034D01*
X96373097Y-123175117D01*
X96375328Y-123170053D01*
X96380873Y-123153500D01*
X96389518Y-123126167D01*
X96401052Y-123088766D01*
X96415262Y-123042009D01*
X96431937Y-122986605D01*
X96450863Y-122923266D01*
X96471828Y-122852702D01*
X96494621Y-122775625D01*
X96519029Y-122692746D01*
X96544839Y-122604776D01*
X96571840Y-122512424D01*
X96599818Y-122416404D01*
X96605390Y-122397242D01*
X96633774Y-122299609D01*
X96661323Y-122204861D01*
X96687811Y-122113768D01*
X96713017Y-122027099D01*
X96736715Y-121945622D01*
X96758683Y-121870106D01*
X96778697Y-121801319D01*
X96796533Y-121740031D01*
X96811967Y-121687009D01*
X96824777Y-121643023D01*
X96834737Y-121608841D01*
X96841625Y-121585232D01*
X96845217Y-121572965D01*
X96845403Y-121572337D01*
X96857150Y-121532650D01*
X97279125Y-121532650D01*
X97351050Y-121532686D01*
X97419110Y-121532790D01*
X97482262Y-121532957D01*
X97539463Y-121533180D01*
X97589671Y-121533453D01*
X97631841Y-121533770D01*
X97664933Y-121534124D01*
X97687902Y-121534511D01*
X97699705Y-121534922D01*
X97701099Y-121535124D01*
X97702795Y-121541412D01*
X97707755Y-121559258D01*
X97715793Y-121587998D01*
X97726722Y-121626968D01*
X97740354Y-121675504D01*
X97756501Y-121732941D01*
X97774978Y-121798616D01*
X97795595Y-121871865D01*
X97818167Y-121952024D01*
X97842505Y-122038429D01*
X97868422Y-122130415D01*
X97895732Y-122227320D01*
X97924246Y-122328478D01*
X97953777Y-122433227D01*
X97984138Y-122540901D01*
X98015142Y-122650838D01*
X98046601Y-122762372D01*
X98078328Y-122874841D01*
X98110135Y-122987579D01*
X98141836Y-123099924D01*
X98173243Y-123211211D01*
X98204169Y-123320776D01*
X98234425Y-123427955D01*
X98263826Y-123532084D01*
X98292184Y-123632500D01*
X98319311Y-123728537D01*
X98345019Y-123819533D01*
X98369123Y-123904824D01*
X98391434Y-123983744D01*
X98411765Y-124055631D01*
X98429928Y-124119820D01*
X98445737Y-124175647D01*
X98459004Y-124222449D01*
X98469542Y-124259561D01*
X98477163Y-124286320D01*
X98481680Y-124302060D01*
X98482876Y-124306110D01*
X98489549Y-124326846D01*
X99468512Y-124325160D01*
X100447475Y-124323475D01*
X100474094Y-124309246D01*
X100494521Y-124295512D01*
X100512773Y-124278738D01*
X100516766Y-124273971D01*
X100541988Y-124232410D01*
X100558538Y-124186771D01*
X100566705Y-124138979D01*
X100566778Y-124090961D01*
X100559047Y-124044645D01*
X100543799Y-124001955D01*
X100521325Y-123964821D01*
X100491914Y-123935166D01*
X100463350Y-123918018D01*
X100458206Y-123915871D01*
X100452395Y-123913959D01*
X100445132Y-123912259D01*
X100435630Y-123910742D01*
X100423103Y-123909385D01*
X100406765Y-123908160D01*
X100385830Y-123907041D01*
X100359512Y-123906003D01*
X100327026Y-123905020D01*
X100287584Y-123904065D01*
X100240401Y-123903114D01*
X100184691Y-123902139D01*
X100119668Y-123901115D01*
X100044545Y-123900016D01*
X99958538Y-123898816D01*
X99860859Y-123897489D01*
X99828350Y-123897052D01*
X99722958Y-123895605D01*
X99629484Y-123894253D01*
X99547146Y-123892973D01*
X99475162Y-123891744D01*
X99412751Y-123890544D01*
X99359131Y-123889353D01*
X99313521Y-123888147D01*
X99275138Y-123886907D01*
X99243201Y-123885610D01*
X99216928Y-123884235D01*
X99195538Y-123882760D01*
X99178248Y-123881164D01*
X99164278Y-123879426D01*
X99159126Y-123878634D01*
X99064938Y-123856914D01*
X98972681Y-123823228D01*
X98883189Y-123778262D01*
X98797292Y-123722702D01*
X98715823Y-123657234D01*
X98639613Y-123582544D01*
X98569493Y-123499319D01*
X98506297Y-123408244D01*
X98450856Y-123310005D01*
X98438054Y-123283880D01*
X98390697Y-123170010D01*
X98354275Y-123051393D01*
X98328979Y-122929561D01*
X98315002Y-122806046D01*
X98312535Y-122682382D01*
X98321770Y-122560100D01*
X98336310Y-122471109D01*
X98364947Y-122361446D01*
X98405287Y-122255610D01*
X98456713Y-122154344D01*
X98518607Y-122058386D01*
X98590354Y-121968479D01*
X98671337Y-121885363D01*
X98760939Y-121809779D01*
X98858544Y-121742467D01*
X98963535Y-121684169D01*
X99009200Y-121662765D01*
X99098453Y-121626949D01*
X99192330Y-121597032D01*
X99293266Y-121572340D01*
X99403696Y-121552195D01*
X99412425Y-121550850D01*
X99421401Y-121549947D01*
X99436361Y-121549100D01*
X99457679Y-121548306D01*
X99485730Y-121547561D01*
X99520890Y-121546865D01*
X99563533Y-121546214D01*
X99614034Y-121545606D01*
X99672769Y-121545039D01*
X99740113Y-121544509D01*
X99816440Y-121544015D01*
X99902126Y-121543555D01*
X99997545Y-121543125D01*
X100103074Y-121542723D01*
X100219086Y-121542347D01*
X100345957Y-121541994D01*
X100484063Y-121541663D01*
X100633777Y-121541349D01*
X100795475Y-121541052D01*
X100953105Y-121540794D01*
X102442986Y-121538477D01*
X102800955Y-122025672D01*
X102852301Y-122095551D01*
X102901578Y-122162613D01*
X102948259Y-122226137D01*
X102991814Y-122285405D01*
X103031715Y-122339698D01*
X103067434Y-122388296D01*
X103098442Y-122430481D01*
X103124211Y-122465534D01*
X103144212Y-122492735D01*
X103157917Y-122511366D01*
X103164796Y-122520707D01*
X103165465Y-122521610D01*
X103168263Y-122520805D01*
X103174467Y-122514852D01*
X103184414Y-122503293D01*
X103198442Y-122485667D01*
X103216890Y-122461516D01*
X103240096Y-122430379D01*
X103268399Y-122391799D01*
X103302136Y-122345314D01*
X103341645Y-122290467D01*
X103387266Y-122226797D01*
X103439335Y-122153846D01*
X103498192Y-122071153D01*
X103527048Y-122030549D01*
X103882090Y-121530745D01*
X104469815Y-121535384D01*
X104469815Y-121535384D01*
G37*
X104469815Y-121535384D02*
X104555072Y-121536082D01*
X104636666Y-121536797D01*
X104713710Y-121537520D01*
X104785314Y-121538239D01*
X104850591Y-121538945D01*
X104908652Y-121539627D01*
X104958610Y-121540273D01*
X104999574Y-121540875D01*
X105030658Y-121541421D01*
X105050973Y-121541900D01*
X105059631Y-121542303D01*
X105059881Y-121542364D01*
X105056509Y-121547699D01*
X105046139Y-121562851D01*
X105029142Y-121587294D01*
X105005889Y-121620503D01*
X104976754Y-121661951D01*
X104942107Y-121711113D01*
X104902320Y-121767463D01*
X104857766Y-121830477D01*
X104808815Y-121899627D01*
X104755840Y-121974388D01*
X104699212Y-122054235D01*
X104639304Y-122138641D01*
X104576487Y-122227082D01*
X104511132Y-122319031D01*
X104443612Y-122413963D01*
X104419511Y-122447833D01*
X104351237Y-122543793D01*
X104284941Y-122637013D01*
X104221001Y-122726962D01*
X104159791Y-122813111D01*
X104101688Y-122894928D01*
X104047068Y-122971883D01*
X103996306Y-123043446D01*
X103949778Y-123109088D01*
X103907860Y-123168277D01*
X103870929Y-123220483D01*
X103839359Y-123265176D01*
X103813527Y-123301825D01*
X103793808Y-123329901D01*
X103780578Y-123348872D01*
X103774214Y-123358209D01*
X103773682Y-123359094D01*
X103776979Y-123365026D01*
X103787282Y-123380795D01*
X103804231Y-123405889D01*
X103827468Y-123439796D01*
X103856636Y-123482005D01*
X103891374Y-123532004D01*
X103931327Y-123589282D01*
X103976134Y-123653327D01*
X104025438Y-123723628D01*
X104078881Y-123799673D01*
X104136104Y-123880952D01*
X104196749Y-123966951D01*
X104260458Y-124057161D01*
X104326873Y-124151068D01*
X104395635Y-124248163D01*
X104458965Y-124337475D01*
X104529707Y-124437187D01*
X104598564Y-124534258D01*
X104665169Y-124628168D01*
X104729154Y-124718397D01*
X104790152Y-124804429D01*
X104847795Y-124885743D01*
X104901715Y-124961822D01*
X104951546Y-125032146D01*
X104996919Y-125096197D01*
X105037467Y-125153456D01*
X105072823Y-125203405D01*
X105102619Y-125245524D01*
X105126488Y-125279295D01*
X105144062Y-125304200D01*
X105154974Y-125319719D01*
X105158764Y-125325187D01*
X105170160Y-125342650D01*
X104920192Y-125341118D01*
X104861219Y-125340758D01*
X104792183Y-125340338D01*
X104715722Y-125339874D01*
X104634471Y-125339382D01*
X104551069Y-125338878D01*
X104468152Y-125338378D01*
X104388357Y-125337898D01*
X104330500Y-125337551D01*
X103990775Y-125335514D01*
X103584907Y-124770451D01*
X103519451Y-124679378D01*
X103460987Y-124598164D01*
X103409147Y-124526318D01*
X103363568Y-124463345D01*
X103323881Y-124408755D01*
X103289722Y-124362054D01*
X103260725Y-124322750D01*
X103236523Y-124290351D01*
X103216751Y-124264364D01*
X103201042Y-124244297D01*
X103189030Y-124229657D01*
X103180350Y-124219952D01*
X103174636Y-124214690D01*
X103171521Y-124213377D01*
X103171083Y-124213631D01*
X103166476Y-124219904D01*
X103155188Y-124235965D01*
X103137700Y-124261113D01*
X103114494Y-124294650D01*
X103086051Y-124335875D01*
X103052853Y-124384089D01*
X103015381Y-124438593D01*
X102974117Y-124498685D01*
X102929542Y-124563668D01*
X102882137Y-124632840D01*
X102832384Y-124705502D01*
X102787471Y-124771150D01*
X102736069Y-124846277D01*
X102686601Y-124918519D01*
X102639545Y-124987177D01*
X102595385Y-125051553D01*
X102554600Y-125110946D01*
X102517671Y-125164657D01*
X102485081Y-125211987D01*
X102457309Y-125252237D01*
X102434838Y-125284708D01*
X102418147Y-125308700D01*
X102407718Y-125323514D01*
X102404111Y-125328395D01*
X102400367Y-125329783D01*
X102391562Y-125330996D01*
X102377049Y-125332040D01*
X102356179Y-125332921D01*
X102328305Y-125333648D01*
X102292779Y-125334225D01*
X102248954Y-125334661D01*
X102196181Y-125334962D01*
X102133812Y-125335135D01*
X102061201Y-125335186D01*
X101977699Y-125335123D01*
X101882658Y-125334952D01*
X101798741Y-125334745D01*
X101201076Y-125333125D01*
X101874255Y-124371100D01*
X101943849Y-124271640D01*
X102011559Y-124174870D01*
X102077017Y-124081311D01*
X102139860Y-123991485D01*
X102199721Y-123905916D01*
X102256236Y-123825124D01*
X102309039Y-123749632D01*
X102357765Y-123679964D01*
X102402048Y-123616640D01*
X102441524Y-123560183D01*
X102475828Y-123511115D01*
X102504593Y-123469959D01*
X102527455Y-123437238D01*
X102544048Y-123413472D01*
X102554008Y-123399185D01*
X102556930Y-123394965D01*
X102558411Y-123392063D01*
X102558886Y-123388345D01*
X102557910Y-123383117D01*
X102555035Y-123375685D01*
X102549815Y-123365353D01*
X102541805Y-123351428D01*
X102530557Y-123333214D01*
X102515626Y-123310017D01*
X102496565Y-123281142D01*
X102472929Y-123245894D01*
X102444269Y-123203580D01*
X102410142Y-123153503D01*
X102370099Y-123094970D01*
X102323695Y-123027285D01*
X102276989Y-122959231D01*
X102231775Y-122893408D01*
X102188453Y-122830416D01*
X102147586Y-122771071D01*
X102109738Y-122716185D01*
X102075470Y-122666575D01*
X102045347Y-122623053D01*
X102019932Y-122586433D01*
X101999788Y-122557532D01*
X101985478Y-122537161D01*
X101977565Y-122526137D01*
X101976338Y-122524549D01*
X101965125Y-122511493D01*
X99425125Y-122520097D01*
X99392803Y-122537141D01*
X99353847Y-122564103D01*
X99323629Y-122598091D01*
X99302043Y-122637353D01*
X99288982Y-122680134D01*
X99284339Y-122724682D01*
X99288008Y-122769242D01*
X99299883Y-122812063D01*
X99319857Y-122851390D01*
X99347823Y-122885469D01*
X99383674Y-122912549D01*
X99416528Y-122927506D01*
X99423273Y-122929189D01*
X99433816Y-122930743D01*
X99448897Y-122932193D01*
X99469257Y-122933560D01*
X99495634Y-122934867D01*
X99528769Y-122936138D01*
X99569402Y-122937394D01*
X99618273Y-122938659D01*
X99676120Y-122939956D01*
X99743685Y-122941307D01*
X99821707Y-122942736D01*
X99910926Y-122944264D01*
X100012081Y-122945916D01*
X100015362Y-122945968D01*
X100119182Y-122947639D01*
X100211189Y-122949170D01*
X100292268Y-122950624D01*
X100363304Y-122952062D01*
X100425183Y-122953546D01*
X100478789Y-122955139D01*
X100525009Y-122956902D01*
X100564727Y-122958898D01*
X100598829Y-122961188D01*
X100628199Y-122963834D01*
X100653723Y-122966898D01*
X100676287Y-122970442D01*
X100696775Y-122974528D01*
X100716072Y-122979219D01*
X100735065Y-122984576D01*
X100754638Y-122990660D01*
X100775677Y-122997535D01*
X100782015Y-122999631D01*
X100890903Y-123042247D01*
X100994588Y-123095919D01*
X101092334Y-123159810D01*
X101183400Y-123233086D01*
X101267050Y-123314912D01*
X101342545Y-123404453D01*
X101409146Y-123500874D01*
X101466116Y-123603340D01*
X101512716Y-123711016D01*
X101548208Y-123823067D01*
X101561765Y-123881488D01*
X101572593Y-123949227D01*
X101579663Y-124025472D01*
X101582923Y-124106581D01*
X101582321Y-124188911D01*
X101577806Y-124268821D01*
X101569327Y-124342670D01*
X101568371Y-124348875D01*
X101543705Y-124464873D01*
X101507010Y-124577831D01*
X101458817Y-124686585D01*
X101399660Y-124789974D01*
X101330068Y-124886832D01*
X101312968Y-124907675D01*
X101230505Y-124996331D01*
X101139482Y-125076713D01*
X101041234Y-125147914D01*
X100937095Y-125209027D01*
X100828401Y-125259146D01*
X100757741Y-125284812D01*
X100743242Y-125289636D01*
X100730164Y-125294095D01*
X100717989Y-125298205D01*
X100706197Y-125301981D01*
X100694270Y-125305439D01*
X100681690Y-125308595D01*
X100667938Y-125311464D01*
X100652496Y-125314062D01*
X100634846Y-125316404D01*
X100614468Y-125318507D01*
X100590845Y-125320385D01*
X100563457Y-125322055D01*
X100531787Y-125323532D01*
X100495317Y-125324832D01*
X100453526Y-125325970D01*
X100405898Y-125326963D01*
X100351913Y-125327825D01*
X100291053Y-125328573D01*
X100222800Y-125329221D01*
X100146635Y-125329787D01*
X100062040Y-125330285D01*
X99968496Y-125330731D01*
X99865485Y-125331140D01*
X99752488Y-125331529D01*
X99628986Y-125331913D01*
X99494463Y-125332307D01*
X99348397Y-125332728D01*
X99190273Y-125333191D01*
X99151334Y-125333307D01*
X97734544Y-125337566D01*
X97730071Y-125319470D01*
X97726678Y-125306247D01*
X97720356Y-125282128D01*
X97711333Y-125247971D01*
X97699840Y-125204631D01*
X97686105Y-125152964D01*
X97670359Y-125093827D01*
X97652829Y-125028076D01*
X97633746Y-124956567D01*
X97613340Y-124880157D01*
X97591838Y-124799701D01*
X97569472Y-124716057D01*
X97546469Y-124630079D01*
X97523060Y-124542625D01*
X97499474Y-124454550D01*
X97475939Y-124366711D01*
X97452686Y-124279964D01*
X97429944Y-124195165D01*
X97407943Y-124113171D01*
X97386910Y-124034837D01*
X97367077Y-123961020D01*
X97348672Y-123892576D01*
X97331924Y-123830362D01*
X97317064Y-123775233D01*
X97304319Y-123728046D01*
X97293921Y-123689657D01*
X97286097Y-123660922D01*
X97281078Y-123642697D01*
X97279092Y-123635839D01*
X97279075Y-123635809D01*
X97275979Y-123639462D01*
X97271587Y-123651680D01*
X97270776Y-123654542D01*
X97268457Y-123663158D01*
X97263053Y-123683312D01*
X97254759Y-123714272D01*
X97243772Y-123755305D01*
X97230287Y-123805680D01*
X97214501Y-123864665D01*
X97196608Y-123931529D01*
X97176805Y-124005540D01*
X97155287Y-124085966D01*
X97132251Y-124172076D01*
X97107892Y-124263137D01*
X97082406Y-124358419D01*
X97055988Y-124457189D01*
X97043773Y-124502862D01*
X96822568Y-125329950D01*
X95956619Y-125329950D01*
X95947169Y-125296612D01*
X95944317Y-125286494D01*
X95938244Y-125264898D01*
X95929161Y-125232576D01*
X95917277Y-125190276D01*
X95902804Y-125138750D01*
X95885952Y-125078746D01*
X95866932Y-125011016D01*
X95845954Y-124936310D01*
X95823230Y-124855377D01*
X95798969Y-124768968D01*
X95773383Y-124677833D01*
X95746682Y-124582721D01*
X95719077Y-124484385D01*
X95710063Y-124452274D01*
X95682397Y-124353793D01*
X95655661Y-124258770D01*
X95630055Y-124167913D01*
X95605783Y-124081932D01*
X95583043Y-124001533D01*
X95562039Y-123927426D01*
X95542972Y-123860318D01*
X95526042Y-123800919D01*
X95511451Y-123749935D01*
X95499401Y-123708076D01*
X95490093Y-123676049D01*
X95483728Y-123654563D01*
X95480507Y-123644326D01*
X95480148Y-123643534D01*
X95478387Y-123649857D01*
X95473770Y-123667804D01*
X95466472Y-123696667D01*
X95456671Y-123735739D01*
X95444540Y-123784309D01*
X95430257Y-123841671D01*
X95413998Y-123907116D01*
X95395937Y-123979935D01*
X95376252Y-124059420D01*
X95355118Y-124144863D01*
X95332710Y-124235556D01*
X95309205Y-124330790D01*
X95284779Y-124429857D01*
X95270095Y-124489459D01*
X95062302Y-125333125D01*
X95010101Y-125332957D01*
X94995033Y-125332909D01*
X94968435Y-125332825D01*
X94931480Y-125332708D01*
X94885336Y-125332563D01*
X94831174Y-125332392D01*
X94770166Y-125332199D01*
X94703482Y-125331989D01*
X94632292Y-125331765D01*
X94557768Y-125331530D01*
X94507050Y-125331370D01*
X94420348Y-125331082D01*
X94345483Y-125330786D01*
X94281592Y-125330461D01*
X94227812Y-125330081D01*
X94183281Y-125329624D01*
X94147134Y-125329065D01*
X94118510Y-125328382D01*
X94096545Y-125327551D01*
X94080376Y-125326548D01*
X94069140Y-125325349D01*
X94061974Y-125323932D01*
X94058016Y-125322272D01*
X94056402Y-125320345D01*
X94056200Y-125319061D01*
X94057738Y-125312414D01*
X94062256Y-125294033D01*
X94069608Y-125264494D01*
X94079647Y-125224373D01*
X94092229Y-125174246D01*
X94107206Y-125114689D01*
X94124434Y-125046276D01*
X94143766Y-124969585D01*
X94165057Y-124885191D01*
X94188161Y-124793669D01*
X94212931Y-124695596D01*
X94239222Y-124591546D01*
X94266888Y-124482097D01*
X94295783Y-124367824D01*
X94325762Y-124249302D01*
X94356678Y-124127107D01*
X94388385Y-124001816D01*
X94420739Y-123874003D01*
X94453592Y-123744245D01*
X94486799Y-123613117D01*
X94520214Y-123481196D01*
X94553692Y-123349057D01*
X94587086Y-123217275D01*
X94620250Y-123086427D01*
X94653039Y-122957089D01*
X94685307Y-122829835D01*
X94716908Y-122705243D01*
X94747695Y-122583887D01*
X94777524Y-122466343D01*
X94806248Y-122353188D01*
X94833722Y-122244997D01*
X94859799Y-122142346D01*
X94884334Y-122045810D01*
X94907181Y-121955966D01*
X94928194Y-121873389D01*
X94947226Y-121798655D01*
X94964133Y-121732339D01*
X94978769Y-121675018D01*
X94990987Y-121627268D01*
X95000641Y-121589663D01*
X95007587Y-121562780D01*
X95011677Y-121547195D01*
X95012623Y-121543762D01*
X95013833Y-121541617D01*
X95016690Y-121539766D01*
X95022069Y-121538188D01*
X95030844Y-121536861D01*
X95043891Y-121535764D01*
X95062085Y-121534874D01*
X95086302Y-121534171D01*
X95117415Y-121533633D01*
X95156302Y-121533237D01*
X95203835Y-121532963D01*
X95260892Y-121532789D01*
X95328347Y-121532694D01*
X95407075Y-121532655D01*
X95462884Y-121532650D01*
X95909862Y-121532649D01*
X95922463Y-121575512D01*
X95925738Y-121586938D01*
X95932217Y-121609812D01*
X95941680Y-121643352D01*
X95953908Y-121686775D01*
X95968681Y-121739301D01*
X95985780Y-121800147D01*
X96004985Y-121868531D01*
X96026077Y-121943671D01*
X96048835Y-122024785D01*
X96073040Y-122111091D01*
X96098473Y-122201807D01*
X96124913Y-122296152D01*
X96152067Y-122393075D01*
X96179092Y-122489498D01*
X96205209Y-122582576D01*
X96230210Y-122671574D01*
X96253888Y-122755754D01*
X96276034Y-122834380D01*
X96296439Y-122906715D01*
X96314896Y-122972023D01*
X96331196Y-123029566D01*
X96345131Y-123078608D01*
X96356493Y-123118413D01*
X96365074Y-123148243D01*
X96370665Y-123167362D01*
X96373058Y-123175034D01*
X96373097Y-123175117D01*
X96375328Y-123170053D01*
X96380873Y-123153500D01*
X96389518Y-123126167D01*
X96401052Y-123088766D01*
X96415262Y-123042009D01*
X96431937Y-122986605D01*
X96450863Y-122923266D01*
X96471828Y-122852702D01*
X96494621Y-122775625D01*
X96519029Y-122692746D01*
X96544839Y-122604776D01*
X96571840Y-122512424D01*
X96599818Y-122416404D01*
X96605390Y-122397242D01*
X96633774Y-122299609D01*
X96661323Y-122204861D01*
X96687811Y-122113768D01*
X96713017Y-122027099D01*
X96736715Y-121945622D01*
X96758683Y-121870106D01*
X96778697Y-121801319D01*
X96796533Y-121740031D01*
X96811967Y-121687009D01*
X96824777Y-121643023D01*
X96834737Y-121608841D01*
X96841625Y-121585232D01*
X96845217Y-121572965D01*
X96845403Y-121572337D01*
X96857150Y-121532650D01*
X97279125Y-121532650D01*
X97351050Y-121532686D01*
X97419110Y-121532790D01*
X97482262Y-121532957D01*
X97539463Y-121533180D01*
X97589671Y-121533453D01*
X97631841Y-121533770D01*
X97664933Y-121534124D01*
X97687902Y-121534511D01*
X97699705Y-121534922D01*
X97701099Y-121535124D01*
X97702795Y-121541412D01*
X97707755Y-121559258D01*
X97715793Y-121587998D01*
X97726722Y-121626968D01*
X97740354Y-121675504D01*
X97756501Y-121732941D01*
X97774978Y-121798616D01*
X97795595Y-121871865D01*
X97818167Y-121952024D01*
X97842505Y-122038429D01*
X97868422Y-122130415D01*
X97895732Y-122227320D01*
X97924246Y-122328478D01*
X97953777Y-122433227D01*
X97984138Y-122540901D01*
X98015142Y-122650838D01*
X98046601Y-122762372D01*
X98078328Y-122874841D01*
X98110135Y-122987579D01*
X98141836Y-123099924D01*
X98173243Y-123211211D01*
X98204169Y-123320776D01*
X98234425Y-123427955D01*
X98263826Y-123532084D01*
X98292184Y-123632500D01*
X98319311Y-123728537D01*
X98345019Y-123819533D01*
X98369123Y-123904824D01*
X98391434Y-123983744D01*
X98411765Y-124055631D01*
X98429928Y-124119820D01*
X98445737Y-124175647D01*
X98459004Y-124222449D01*
X98469542Y-124259561D01*
X98477163Y-124286320D01*
X98481680Y-124302060D01*
X98482876Y-124306110D01*
X98489549Y-124326846D01*
X99468512Y-124325160D01*
X100447475Y-124323475D01*
X100474094Y-124309246D01*
X100494521Y-124295512D01*
X100512773Y-124278738D01*
X100516766Y-124273971D01*
X100541988Y-124232410D01*
X100558538Y-124186771D01*
X100566705Y-124138979D01*
X100566778Y-124090961D01*
X100559047Y-124044645D01*
X100543799Y-124001955D01*
X100521325Y-123964821D01*
X100491914Y-123935166D01*
X100463350Y-123918018D01*
X100458206Y-123915871D01*
X100452395Y-123913959D01*
X100445132Y-123912259D01*
X100435630Y-123910742D01*
X100423103Y-123909385D01*
X100406765Y-123908160D01*
X100385830Y-123907041D01*
X100359512Y-123906003D01*
X100327026Y-123905020D01*
X100287584Y-123904065D01*
X100240401Y-123903114D01*
X100184691Y-123902139D01*
X100119668Y-123901115D01*
X100044545Y-123900016D01*
X99958538Y-123898816D01*
X99860859Y-123897489D01*
X99828350Y-123897052D01*
X99722958Y-123895605D01*
X99629484Y-123894253D01*
X99547146Y-123892973D01*
X99475162Y-123891744D01*
X99412751Y-123890544D01*
X99359131Y-123889353D01*
X99313521Y-123888147D01*
X99275138Y-123886907D01*
X99243201Y-123885610D01*
X99216928Y-123884235D01*
X99195538Y-123882760D01*
X99178248Y-123881164D01*
X99164278Y-123879426D01*
X99159126Y-123878634D01*
X99064938Y-123856914D01*
X98972681Y-123823228D01*
X98883189Y-123778262D01*
X98797292Y-123722702D01*
X98715823Y-123657234D01*
X98639613Y-123582544D01*
X98569493Y-123499319D01*
X98506297Y-123408244D01*
X98450856Y-123310005D01*
X98438054Y-123283880D01*
X98390697Y-123170010D01*
X98354275Y-123051393D01*
X98328979Y-122929561D01*
X98315002Y-122806046D01*
X98312535Y-122682382D01*
X98321770Y-122560100D01*
X98336310Y-122471109D01*
X98364947Y-122361446D01*
X98405287Y-122255610D01*
X98456713Y-122154344D01*
X98518607Y-122058386D01*
X98590354Y-121968479D01*
X98671337Y-121885363D01*
X98760939Y-121809779D01*
X98858544Y-121742467D01*
X98963535Y-121684169D01*
X99009200Y-121662765D01*
X99098453Y-121626949D01*
X99192330Y-121597032D01*
X99293266Y-121572340D01*
X99403696Y-121552195D01*
X99412425Y-121550850D01*
X99421401Y-121549947D01*
X99436361Y-121549100D01*
X99457679Y-121548306D01*
X99485730Y-121547561D01*
X99520890Y-121546865D01*
X99563533Y-121546214D01*
X99614034Y-121545606D01*
X99672769Y-121545039D01*
X99740113Y-121544509D01*
X99816440Y-121544015D01*
X99902126Y-121543555D01*
X99997545Y-121543125D01*
X100103074Y-121542723D01*
X100219086Y-121542347D01*
X100345957Y-121541994D01*
X100484063Y-121541663D01*
X100633777Y-121541349D01*
X100795475Y-121541052D01*
X100953105Y-121540794D01*
X102442986Y-121538477D01*
X102800955Y-122025672D01*
X102852301Y-122095551D01*
X102901578Y-122162613D01*
X102948259Y-122226137D01*
X102991814Y-122285405D01*
X103031715Y-122339698D01*
X103067434Y-122388296D01*
X103098442Y-122430481D01*
X103124211Y-122465534D01*
X103144212Y-122492735D01*
X103157917Y-122511366D01*
X103164796Y-122520707D01*
X103165465Y-122521610D01*
X103168263Y-122520805D01*
X103174467Y-122514852D01*
X103184414Y-122503293D01*
X103198442Y-122485667D01*
X103216890Y-122461516D01*
X103240096Y-122430379D01*
X103268399Y-122391799D01*
X103302136Y-122345314D01*
X103341645Y-122290467D01*
X103387266Y-122226797D01*
X103439335Y-122153846D01*
X103498192Y-122071153D01*
X103527048Y-122030549D01*
X103882090Y-121530745D01*
X104469815Y-121535384D01*
D13*
X160107571Y-100988762D02*
X160250428Y-101036381D01*
X160488524Y-101036381D01*
X160583762Y-100988762D01*
X160631381Y-100941143D01*
X160679000Y-100845905D01*
X160679000Y-100750667D01*
X160631381Y-100655429D01*
X160583762Y-100607810D01*
X160488524Y-100560190D01*
X160298047Y-100512571D01*
X160202809Y-100464952D01*
X160155190Y-100417333D01*
X160107571Y-100322095D01*
X160107571Y-100226857D01*
X160155190Y-100131619D01*
X160202809Y-100084000D01*
X160298047Y-100036381D01*
X160536143Y-100036381D01*
X160679000Y-100084000D01*
X161583762Y-101036381D02*
X161107571Y-101036381D01*
X161107571Y-100036381D01*
X162107571Y-100036381D02*
X162298048Y-100036381D01*
X162393286Y-100084000D01*
X162488524Y-100179238D01*
X162536143Y-100369714D01*
X162536143Y-100703048D01*
X162488524Y-100893524D01*
X162393286Y-100988762D01*
X162298048Y-101036381D01*
X162107571Y-101036381D01*
X162012333Y-100988762D01*
X161917095Y-100893524D01*
X161869476Y-100703048D01*
X161869476Y-100369714D01*
X161917095Y-100179238D01*
X162012333Y-100084000D01*
X162107571Y-100036381D01*
X162821857Y-100036381D02*
X163393286Y-100036381D01*
X163107571Y-101036381D02*
X163107571Y-100036381D01*
X163679000Y-100131619D02*
X163726619Y-100084000D01*
X163821857Y-100036381D01*
X164059953Y-100036381D01*
X164155191Y-100084000D01*
X164202810Y-100131619D01*
X164250429Y-100226857D01*
X164250429Y-100322095D01*
X164202810Y-100464952D01*
X163631381Y-101036381D01*
X164250429Y-101036381D01*
X159980571Y-122324762D02*
X160123428Y-122372381D01*
X160361524Y-122372381D01*
X160456762Y-122324762D01*
X160504381Y-122277143D01*
X160552000Y-122181905D01*
X160552000Y-122086667D01*
X160504381Y-121991429D01*
X160456762Y-121943810D01*
X160361524Y-121896190D01*
X160171047Y-121848571D01*
X160075809Y-121800952D01*
X160028190Y-121753333D01*
X159980571Y-121658095D01*
X159980571Y-121562857D01*
X160028190Y-121467619D01*
X160075809Y-121420000D01*
X160171047Y-121372381D01*
X160409143Y-121372381D01*
X160552000Y-121420000D01*
X161456762Y-122372381D02*
X160980571Y-122372381D01*
X160980571Y-121372381D01*
X161980571Y-121372381D02*
X162171048Y-121372381D01*
X162266286Y-121420000D01*
X162361524Y-121515238D01*
X162409143Y-121705714D01*
X162409143Y-122039048D01*
X162361524Y-122229524D01*
X162266286Y-122324762D01*
X162171048Y-122372381D01*
X161980571Y-122372381D01*
X161885333Y-122324762D01*
X161790095Y-122229524D01*
X161742476Y-122039048D01*
X161742476Y-121705714D01*
X161790095Y-121515238D01*
X161885333Y-121420000D01*
X161980571Y-121372381D01*
X162694857Y-121372381D02*
X163266286Y-121372381D01*
X162980571Y-122372381D02*
X162980571Y-121372381D01*
X164123429Y-122372381D02*
X163552000Y-122372381D01*
X163837714Y-122372381D02*
X163837714Y-121372381D01*
X163742476Y-121515238D01*
X163647238Y-121610476D01*
X163552000Y-121658095D01*
X138780079Y-82199575D02*
X139352499Y-82771995D01*
X139453514Y-82805667D01*
X139520857Y-82805667D01*
X139621872Y-82771995D01*
X139756560Y-82637307D01*
X139790232Y-82536292D01*
X139790232Y-82468949D01*
X139756560Y-82367934D01*
X139184140Y-81795514D01*
X140598354Y-81795514D02*
X140194292Y-82199575D01*
X140396323Y-81997545D02*
X139689216Y-81290438D01*
X139722888Y-81458797D01*
X139722888Y-81593483D01*
X139689216Y-81694499D01*
X162496667Y-57856381D02*
X162163333Y-57380190D01*
X161925238Y-57856381D02*
X161925238Y-56856381D01*
X162306191Y-56856381D01*
X162401429Y-56904000D01*
X162449048Y-56951619D01*
X162496667Y-57046857D01*
X162496667Y-57189714D01*
X162449048Y-57284952D01*
X162401429Y-57332571D01*
X162306191Y-57380190D01*
X161925238Y-57380190D01*
X162877619Y-57570667D02*
X163353810Y-57570667D01*
X162782381Y-57856381D02*
X163115714Y-56856381D01*
X163449048Y-57856381D01*
X163734762Y-57808762D02*
X163877619Y-57856381D01*
X164115715Y-57856381D01*
X164210953Y-57808762D01*
X164258572Y-57761143D01*
X164306191Y-57665905D01*
X164306191Y-57570667D01*
X164258572Y-57475429D01*
X164210953Y-57427810D01*
X164115715Y-57380190D01*
X163925238Y-57332571D01*
X163830000Y-57284952D01*
X163782381Y-57237333D01*
X163734762Y-57142095D01*
X163734762Y-57046857D01*
X163782381Y-56951619D01*
X163830000Y-56904000D01*
X163925238Y-56856381D01*
X164163334Y-56856381D01*
X164306191Y-56904000D01*
X164734762Y-57856381D02*
X164734762Y-56856381D01*
X165115715Y-56856381D01*
X165210953Y-56904000D01*
X165258572Y-56951619D01*
X165306191Y-57046857D01*
X165306191Y-57189714D01*
X165258572Y-57284952D01*
X165210953Y-57332571D01*
X165115715Y-57380190D01*
X164734762Y-57380190D01*
X165734762Y-57856381D02*
X165734762Y-56856381D01*
X97718953Y-61618762D02*
X97861810Y-61666381D01*
X98099906Y-61666381D01*
X98195144Y-61618762D01*
X98242763Y-61571143D01*
X98290382Y-61475905D01*
X98290382Y-61380667D01*
X98242763Y-61285429D01*
X98195144Y-61237810D01*
X98099906Y-61190190D01*
X97909429Y-61142571D01*
X97814191Y-61094952D01*
X97766572Y-61047333D01*
X97718953Y-60952095D01*
X97718953Y-60856857D01*
X97766572Y-60761619D01*
X97814191Y-60714000D01*
X97909429Y-60666381D01*
X98147525Y-60666381D01*
X98290382Y-60714000D01*
X98909429Y-60666381D02*
X99099906Y-60666381D01*
X99195144Y-60714000D01*
X99290382Y-60809238D01*
X99338001Y-60999714D01*
X99338001Y-61333048D01*
X99290382Y-61523524D01*
X99195144Y-61618762D01*
X99099906Y-61666381D01*
X98909429Y-61666381D01*
X98814191Y-61618762D01*
X98718953Y-61523524D01*
X98671334Y-61333048D01*
X98671334Y-60999714D01*
X98718953Y-60809238D01*
X98814191Y-60714000D01*
X98909429Y-60666381D01*
X99766572Y-60666381D02*
X99766572Y-61475905D01*
X99814191Y-61571143D01*
X99861810Y-61618762D01*
X99957048Y-61666381D01*
X100147525Y-61666381D01*
X100242763Y-61618762D01*
X100290382Y-61571143D01*
X100338001Y-61475905D01*
X100338001Y-60666381D01*
X100814191Y-61666381D02*
X100814191Y-60666381D01*
X101385620Y-61666381D01*
X101385620Y-60666381D01*
X101861810Y-61666381D02*
X101861810Y-60666381D01*
X102099905Y-60666381D01*
X102242763Y-60714000D01*
X102338001Y-60809238D01*
X102385620Y-60904476D01*
X102433239Y-61094952D01*
X102433239Y-61237810D01*
X102385620Y-61428286D01*
X102338001Y-61523524D01*
X102242763Y-61618762D01*
X102099905Y-61666381D01*
X101861810Y-61666381D01*
X102861810Y-61666381D02*
X102861810Y-60666381D01*
X103338000Y-61666381D02*
X103338000Y-60666381D01*
X103909429Y-61666381D01*
X103909429Y-60666381D01*
X158980334Y-84796381D02*
X158980334Y-85510667D01*
X158932714Y-85653524D01*
X158837476Y-85748762D01*
X158694619Y-85796381D01*
X158599381Y-85796381D01*
X159313667Y-84796381D02*
X159885096Y-84796381D01*
X159599381Y-85796381D02*
X159599381Y-84796381D01*
X160170810Y-85510667D02*
X160647001Y-85510667D01*
X160075572Y-85796381D02*
X160408905Y-84796381D01*
X160742239Y-85796381D01*
X161599382Y-84844000D02*
X161504144Y-84796381D01*
X161361287Y-84796381D01*
X161218429Y-84844000D01*
X161123191Y-84939238D01*
X161075572Y-85034476D01*
X161027953Y-85224952D01*
X161027953Y-85367810D01*
X161075572Y-85558286D01*
X161123191Y-85653524D01*
X161218429Y-85748762D01*
X161361287Y-85796381D01*
X161456525Y-85796381D01*
X161599382Y-85748762D01*
X161647001Y-85701143D01*
X161647001Y-85367810D01*
X161456525Y-85367810D01*
X162634634Y-67762381D02*
X162301300Y-67286190D01*
X162063205Y-67762381D02*
X162063205Y-66762381D01*
X162444158Y-66762381D01*
X162539396Y-66810000D01*
X162587015Y-66857619D01*
X162634634Y-66952857D01*
X162634634Y-67095714D01*
X162587015Y-67190952D01*
X162539396Y-67238571D01*
X162444158Y-67286190D01*
X162063205Y-67286190D01*
X163587015Y-67762381D02*
X163015586Y-67762381D01*
X163301300Y-67762381D02*
X163301300Y-66762381D01*
X163206062Y-66905238D01*
X163110824Y-67000476D01*
X163015586Y-67048095D01*
X166156981Y-71210466D02*
X165680790Y-71543800D01*
X166156981Y-71781895D02*
X165156981Y-71781895D01*
X165156981Y-71400942D01*
X165204600Y-71305704D01*
X165252219Y-71258085D01*
X165347457Y-71210466D01*
X165490314Y-71210466D01*
X165585552Y-71258085D01*
X165633171Y-71305704D01*
X165680790Y-71400942D01*
X165680790Y-71781895D01*
X165252219Y-70829514D02*
X165204600Y-70781895D01*
X165156981Y-70686657D01*
X165156981Y-70448561D01*
X165204600Y-70353323D01*
X165252219Y-70305704D01*
X165347457Y-70258085D01*
X165442695Y-70258085D01*
X165585552Y-70305704D01*
X166156981Y-70877133D01*
X166156981Y-70258085D01*
X166225481Y-75960266D02*
X165749290Y-76293600D01*
X166225481Y-76531695D02*
X165225481Y-76531695D01*
X165225481Y-76150742D01*
X165273100Y-76055504D01*
X165320719Y-76007885D01*
X165415957Y-75960266D01*
X165558814Y-75960266D01*
X165654052Y-76007885D01*
X165701671Y-76055504D01*
X165749290Y-76150742D01*
X165749290Y-76531695D01*
X165225481Y-75626933D02*
X165225481Y-75007885D01*
X165606433Y-75341219D01*
X165606433Y-75198361D01*
X165654052Y-75103123D01*
X165701671Y-75055504D01*
X165796910Y-75007885D01*
X166035005Y-75007885D01*
X166130243Y-75055504D01*
X166177862Y-75103123D01*
X166225481Y-75198361D01*
X166225481Y-75484076D01*
X166177862Y-75579314D01*
X166130243Y-75626933D01*
X166207781Y-80760866D02*
X165731590Y-81094200D01*
X166207781Y-81332295D02*
X165207781Y-81332295D01*
X165207781Y-80951342D01*
X165255400Y-80856104D01*
X165303019Y-80808485D01*
X165398257Y-80760866D01*
X165541114Y-80760866D01*
X165636352Y-80808485D01*
X165683971Y-80856104D01*
X165731590Y-80951342D01*
X165731590Y-81332295D01*
X165541114Y-79903723D02*
X166207781Y-79903723D01*
X165160162Y-80141819D02*
X165874448Y-80379914D01*
X165874448Y-79760866D01*
M02*
