G04 #@! TF.FileFunction,Copper,L1,Top,Signal*
%FSLAX46Y46*%
G04 Gerber Fmt 4.6, Leading zero omitted, Abs format (unit mm)*
G04 Created by KiCad (PCBNEW 4.0.7) date 01/21/18 21:35:54*
%MOMM*%
%LPD*%
G01*
G04 APERTURE LIST*
%ADD10C,0.100000*%
%ADD11R,1.700000X1.700000*%
%ADD12O,1.700000X1.700000*%
%ADD13R,1.727200X1.727200*%
%ADD14O,1.727200X1.727200*%
%ADD15C,0.600000*%
%ADD16C,0.250000*%
%ADD17C,0.254000*%
G04 APERTURE END LIST*
D10*
D11*
X166116000Y-88011000D03*
D12*
X166116000Y-90551000D03*
X163576000Y-88011000D03*
X163576000Y-90551000D03*
X161036000Y-88011000D03*
X161036000Y-90551000D03*
X158496000Y-88011000D03*
X158496000Y-90551000D03*
X155956000Y-88011000D03*
X155956000Y-90551000D03*
X153416000Y-88011000D03*
X153416000Y-90551000D03*
X150876000Y-88011000D03*
X150876000Y-90551000D03*
X148336000Y-88011000D03*
X148336000Y-90551000D03*
X145796000Y-88011000D03*
X145796000Y-90551000D03*
X143256000Y-88011000D03*
X143256000Y-90551000D03*
X140716000Y-88011000D03*
X140716000Y-90551000D03*
X138176000Y-88011000D03*
X138176000Y-90551000D03*
X135636000Y-88011000D03*
X135636000Y-90551000D03*
X133096000Y-88011000D03*
X133096000Y-90551000D03*
X130556000Y-88011000D03*
X130556000Y-90551000D03*
X128016000Y-88011000D03*
X128016000Y-90551000D03*
X125476000Y-88011000D03*
X125476000Y-90551000D03*
X122936000Y-88011000D03*
X122936000Y-90551000D03*
X120396000Y-88011000D03*
X120396000Y-90551000D03*
X117856000Y-88011000D03*
X117856000Y-90551000D03*
D13*
X162560000Y-46990000D03*
D14*
X162560000Y-49530000D03*
X160020000Y-46990000D03*
X160020000Y-49530000D03*
X157480000Y-46990000D03*
X157480000Y-49530000D03*
X154940000Y-46990000D03*
X154940000Y-49530000D03*
X152400000Y-46990000D03*
X152400000Y-49530000D03*
X149860000Y-46990000D03*
X149860000Y-49530000D03*
X147320000Y-46990000D03*
X147320000Y-49530000D03*
X144780000Y-46990000D03*
X144780000Y-49530000D03*
X142240000Y-46990000D03*
X142240000Y-49530000D03*
X139700000Y-46990000D03*
X139700000Y-49530000D03*
X137160000Y-46990000D03*
X137160000Y-49530000D03*
X134620000Y-46990000D03*
X134620000Y-49530000D03*
X132080000Y-46990000D03*
X132080000Y-49530000D03*
X129540000Y-46990000D03*
X129540000Y-49530000D03*
X127000000Y-46990000D03*
X127000000Y-49530000D03*
X124460000Y-46990000D03*
X124460000Y-49530000D03*
X121920000Y-46990000D03*
X121920000Y-49530000D03*
D15*
X139192000Y-57150000D03*
X146558000Y-77216000D03*
X129286000Y-67818000D03*
X125730000Y-74676000D03*
X129540000Y-84328000D03*
X128016000Y-81534000D03*
X155881800Y-70093400D03*
X154648000Y-70529300D03*
X137406400Y-86430000D03*
X138558000Y-81651500D03*
X154330500Y-64560400D03*
X143337400Y-70608200D03*
X143420100Y-72886200D03*
X137836000Y-74101200D03*
D16*
X130556000Y-90551000D02*
X130810000Y-90551000D01*
X130810000Y-90551000D02*
X132080000Y-89281000D01*
X132080000Y-89281000D02*
X134366000Y-89281000D01*
X134366000Y-89281000D02*
X135636000Y-88011000D01*
X138430000Y-48260000D02*
X137160000Y-46990000D01*
X138430000Y-56388000D02*
X138430000Y-48260000D01*
X139192000Y-57150000D02*
X138430000Y-56388000D01*
X129286000Y-67818000D02*
X136652000Y-67818000D01*
X125476000Y-90551000D02*
X125476000Y-90424000D01*
X125476000Y-90424000D02*
X126746000Y-89154000D01*
X126746000Y-89154000D02*
X126746000Y-87122000D01*
X126746000Y-87122000D02*
X129540000Y-84328000D01*
X125476000Y-90424000D02*
X126746000Y-89154000D01*
X126746000Y-89154000D02*
X126746000Y-86868000D01*
X158750000Y-67225200D02*
X155881800Y-70093400D01*
X158750000Y-49096700D02*
X158750000Y-67225200D01*
X157994300Y-48341000D02*
X158750000Y-49096700D01*
X156129000Y-48341000D02*
X157994300Y-48341000D01*
X154940000Y-49530000D02*
X156129000Y-48341000D01*
X163576000Y-90551000D02*
X166116000Y-90551000D01*
X163576000Y-79457300D02*
X154648000Y-70529300D01*
X163576000Y-88011000D02*
X163576000Y-79457300D01*
X157320700Y-90183600D02*
X157320700Y-90551000D01*
X156512800Y-89375700D02*
X157320700Y-90183600D01*
X140325400Y-89375700D02*
X156512800Y-89375700D01*
X139540600Y-88590900D02*
X140325400Y-89375700D01*
X139540600Y-87703500D02*
X139540600Y-88590900D01*
X138267100Y-86430000D02*
X139540600Y-87703500D01*
X137406400Y-86430000D02*
X138267100Y-86430000D01*
X158496000Y-90551000D02*
X157320700Y-90551000D01*
X138176000Y-90551000D02*
X138176000Y-89375700D01*
X137808600Y-89375700D02*
X138176000Y-89375700D01*
X137000700Y-88567800D02*
X137808600Y-89375700D01*
X137000700Y-86908600D02*
X137000700Y-88567800D01*
X136781100Y-86689000D02*
X137000700Y-86908600D01*
X136781100Y-83428400D02*
X136781100Y-86689000D01*
X138558000Y-81651500D02*
X136781100Y-83428400D01*
X133096000Y-85794900D02*
X133096000Y-88011000D01*
X154330500Y-64560400D02*
X133096000Y-85794900D01*
X144046300Y-73345400D02*
X130556000Y-86835700D01*
X144046300Y-71317100D02*
X144046300Y-73345400D01*
X143337400Y-70608200D02*
X144046300Y-71317100D01*
X130556000Y-88011000D02*
X130556000Y-86835700D01*
X129191300Y-87115000D02*
X129191300Y-88011000D01*
X143420100Y-72886200D02*
X129191300Y-87115000D01*
X128016000Y-88011000D02*
X129191300Y-88011000D01*
X123303400Y-89375700D02*
X122936000Y-89375700D01*
X124111300Y-88567800D02*
X123303400Y-89375700D01*
X124111300Y-87676200D02*
X124111300Y-88567800D01*
X137686300Y-74101200D02*
X124111300Y-87676200D01*
X137836000Y-74101200D02*
X137686300Y-74101200D01*
X122936000Y-90551000D02*
X122936000Y-89375700D01*
D17*
G36*
X172500865Y-37416800D02*
X173182832Y-37894727D01*
X173629991Y-38597249D01*
X173788000Y-39495473D01*
X173788000Y-90155599D01*
X173593700Y-91030365D01*
X173115773Y-91712332D01*
X172413251Y-92159491D01*
X171515027Y-92317500D01*
X112345901Y-92317500D01*
X111471135Y-92123200D01*
X110789168Y-91645273D01*
X110342009Y-90942751D01*
X110184000Y-90044527D01*
X110184000Y-89281000D01*
X110820955Y-89281000D01*
X110985225Y-90106840D01*
X111453025Y-90806953D01*
X112153138Y-91274753D01*
X112978978Y-91439023D01*
X113804818Y-91274753D01*
X114504931Y-90806953D01*
X114695392Y-90521907D01*
X116371000Y-90521907D01*
X116371000Y-90580093D01*
X116484039Y-91148378D01*
X116805946Y-91630147D01*
X117287715Y-91952054D01*
X117856000Y-92065093D01*
X118424285Y-91952054D01*
X118906054Y-91630147D01*
X119126000Y-91300974D01*
X119345946Y-91630147D01*
X119827715Y-91952054D01*
X120396000Y-92065093D01*
X120964285Y-91952054D01*
X121446054Y-91630147D01*
X121666000Y-91300974D01*
X121885946Y-91630147D01*
X122367715Y-91952054D01*
X122936000Y-92065093D01*
X123504285Y-91952054D01*
X123986054Y-91630147D01*
X124213702Y-91289447D01*
X124280817Y-91432358D01*
X124709076Y-91822645D01*
X125119110Y-91992476D01*
X125349000Y-91871155D01*
X125349000Y-90678000D01*
X125329000Y-90678000D01*
X125329000Y-90424000D01*
X125349000Y-90424000D01*
X125349000Y-90404000D01*
X125603000Y-90404000D01*
X125603000Y-90424000D01*
X125623000Y-90424000D01*
X125623000Y-90678000D01*
X125603000Y-90678000D01*
X125603000Y-91871155D01*
X125832890Y-91992476D01*
X126242924Y-91822645D01*
X126671183Y-91432358D01*
X126738298Y-91289447D01*
X126965946Y-91630147D01*
X127447715Y-91952054D01*
X128016000Y-92065093D01*
X128584285Y-91952054D01*
X129066054Y-91630147D01*
X129293702Y-91289447D01*
X129360817Y-91432358D01*
X129789076Y-91822645D01*
X130199110Y-91992476D01*
X130429000Y-91871155D01*
X130429000Y-90678000D01*
X130409000Y-90678000D01*
X130409000Y-90424000D01*
X130429000Y-90424000D01*
X130429000Y-90404000D01*
X130683000Y-90404000D01*
X130683000Y-90424000D01*
X130703000Y-90424000D01*
X130703000Y-90678000D01*
X130683000Y-90678000D01*
X130683000Y-91871155D01*
X130912890Y-91992476D01*
X131322924Y-91822645D01*
X131751183Y-91432358D01*
X131818298Y-91289447D01*
X132045946Y-91630147D01*
X132527715Y-91952054D01*
X133096000Y-92065093D01*
X133664285Y-91952054D01*
X134146054Y-91630147D01*
X134366000Y-91300974D01*
X134585946Y-91630147D01*
X135067715Y-91952054D01*
X135636000Y-92065093D01*
X136204285Y-91952054D01*
X136686054Y-91630147D01*
X136906000Y-91300974D01*
X137125946Y-91630147D01*
X137607715Y-91952054D01*
X138176000Y-92065093D01*
X138744285Y-91952054D01*
X139226054Y-91630147D01*
X139446000Y-91300974D01*
X139665946Y-91630147D01*
X140147715Y-91952054D01*
X140716000Y-92065093D01*
X141284285Y-91952054D01*
X141766054Y-91630147D01*
X141993702Y-91289447D01*
X142060817Y-91432358D01*
X142489076Y-91822645D01*
X142899110Y-91992476D01*
X143129000Y-91871155D01*
X143129000Y-90678000D01*
X143109000Y-90678000D01*
X143109000Y-90424000D01*
X143129000Y-90424000D01*
X143129000Y-90404000D01*
X143383000Y-90404000D01*
X143383000Y-90424000D01*
X143403000Y-90424000D01*
X143403000Y-90678000D01*
X143383000Y-90678000D01*
X143383000Y-91871155D01*
X143612890Y-91992476D01*
X144022924Y-91822645D01*
X144451183Y-91432358D01*
X144518298Y-91289447D01*
X144745946Y-91630147D01*
X145227715Y-91952054D01*
X145796000Y-92065093D01*
X146364285Y-91952054D01*
X146846054Y-91630147D01*
X147066000Y-91300974D01*
X147285946Y-91630147D01*
X147767715Y-91952054D01*
X148336000Y-92065093D01*
X148904285Y-91952054D01*
X149386054Y-91630147D01*
X149613702Y-91289447D01*
X149680817Y-91432358D01*
X150109076Y-91822645D01*
X150519110Y-91992476D01*
X150749000Y-91871155D01*
X150749000Y-90678000D01*
X150729000Y-90678000D01*
X150729000Y-90424000D01*
X150749000Y-90424000D01*
X150749000Y-90404000D01*
X151003000Y-90404000D01*
X151003000Y-90424000D01*
X151023000Y-90424000D01*
X151023000Y-90678000D01*
X151003000Y-90678000D01*
X151003000Y-91871155D01*
X151232890Y-91992476D01*
X151642924Y-91822645D01*
X152071183Y-91432358D01*
X152138298Y-91289447D01*
X152365946Y-91630147D01*
X152847715Y-91952054D01*
X153416000Y-92065093D01*
X153984285Y-91952054D01*
X154466054Y-91630147D01*
X154686000Y-91300974D01*
X154905946Y-91630147D01*
X155387715Y-91952054D01*
X155956000Y-92065093D01*
X156524285Y-91952054D01*
X157006054Y-91630147D01*
X157226000Y-91300974D01*
X157445946Y-91630147D01*
X157927715Y-91952054D01*
X158496000Y-92065093D01*
X159064285Y-91952054D01*
X159546054Y-91630147D01*
X159773702Y-91289447D01*
X159840817Y-91432358D01*
X160269076Y-91822645D01*
X160679110Y-91992476D01*
X160909000Y-91871155D01*
X160909000Y-90678000D01*
X160889000Y-90678000D01*
X160889000Y-90424000D01*
X160909000Y-90424000D01*
X160909000Y-90404000D01*
X161163000Y-90404000D01*
X161163000Y-90424000D01*
X161183000Y-90424000D01*
X161183000Y-90678000D01*
X161163000Y-90678000D01*
X161163000Y-91871155D01*
X161392890Y-91992476D01*
X161802924Y-91822645D01*
X162231183Y-91432358D01*
X162298298Y-91289447D01*
X162525946Y-91630147D01*
X163007715Y-91952054D01*
X163576000Y-92065093D01*
X164144285Y-91952054D01*
X164626054Y-91630147D01*
X164839301Y-91311000D01*
X164852699Y-91311000D01*
X165065946Y-91630147D01*
X165547715Y-91952054D01*
X166116000Y-92065093D01*
X166684285Y-91952054D01*
X167166054Y-91630147D01*
X167487961Y-91148378D01*
X167601000Y-90580093D01*
X167601000Y-90521907D01*
X167487961Y-89953622D01*
X167166054Y-89471853D01*
X167164821Y-89471029D01*
X167201317Y-89464162D01*
X167417441Y-89325090D01*
X167456092Y-89268522D01*
X168847477Y-89268522D01*
X169011747Y-90094362D01*
X169479547Y-90794475D01*
X170179660Y-91262275D01*
X171005500Y-91426545D01*
X171831340Y-91262275D01*
X172531453Y-90794475D01*
X172999253Y-90094362D01*
X173163523Y-89268522D01*
X172999253Y-88442682D01*
X172531453Y-87742569D01*
X171831340Y-87274769D01*
X171005500Y-87110499D01*
X170179660Y-87274769D01*
X169479547Y-87742569D01*
X169011747Y-88442682D01*
X168847477Y-89268522D01*
X167456092Y-89268522D01*
X167562431Y-89112890D01*
X167613440Y-88861000D01*
X167613440Y-87161000D01*
X167569162Y-86925683D01*
X167430090Y-86709559D01*
X167217890Y-86564569D01*
X166966000Y-86513560D01*
X165266000Y-86513560D01*
X165030683Y-86557838D01*
X164814559Y-86696910D01*
X164669569Y-86909110D01*
X164655914Y-86976541D01*
X164626054Y-86931853D01*
X164336000Y-86738046D01*
X164336000Y-79457300D01*
X164278148Y-79166461D01*
X164113401Y-78919899D01*
X156176717Y-70983215D01*
X156410743Y-70886517D01*
X156673992Y-70623727D01*
X156816638Y-70280199D01*
X156816679Y-70233323D01*
X159287401Y-67762601D01*
X159452148Y-67516040D01*
X159510000Y-67225200D01*
X159510000Y-50956514D01*
X160020000Y-51057959D01*
X160593489Y-50943885D01*
X161079670Y-50619029D01*
X161290000Y-50304248D01*
X161500330Y-50619029D01*
X161986511Y-50943885D01*
X162560000Y-51057959D01*
X163133489Y-50943885D01*
X163619670Y-50619029D01*
X163944526Y-50132848D01*
X164058600Y-49559359D01*
X164058600Y-49500641D01*
X163944526Y-48927152D01*
X163629474Y-48455644D01*
X163783299Y-48391927D01*
X163961927Y-48213298D01*
X164058600Y-47979909D01*
X164058600Y-47275750D01*
X163899850Y-47117000D01*
X162687000Y-47117000D01*
X162687000Y-47137000D01*
X162433000Y-47137000D01*
X162433000Y-47117000D01*
X160147000Y-47117000D01*
X160147000Y-47137000D01*
X159893000Y-47137000D01*
X159893000Y-47117000D01*
X157607000Y-47117000D01*
X157607000Y-47137000D01*
X157353000Y-47137000D01*
X157353000Y-47117000D01*
X155067000Y-47117000D01*
X155067000Y-47137000D01*
X154813000Y-47137000D01*
X154813000Y-47117000D01*
X152527000Y-47117000D01*
X152527000Y-47137000D01*
X152273000Y-47137000D01*
X152273000Y-47117000D01*
X149987000Y-47117000D01*
X149987000Y-47137000D01*
X149733000Y-47137000D01*
X149733000Y-47117000D01*
X147447000Y-47117000D01*
X147447000Y-47137000D01*
X147193000Y-47137000D01*
X147193000Y-47117000D01*
X144907000Y-47117000D01*
X144907000Y-47137000D01*
X144653000Y-47137000D01*
X144653000Y-47117000D01*
X142367000Y-47117000D01*
X142367000Y-47137000D01*
X142113000Y-47137000D01*
X142113000Y-47117000D01*
X139827000Y-47117000D01*
X139827000Y-47137000D01*
X139573000Y-47137000D01*
X139573000Y-47117000D01*
X137287000Y-47117000D01*
X137287000Y-47137000D01*
X137033000Y-47137000D01*
X137033000Y-47117000D01*
X134747000Y-47117000D01*
X134747000Y-47137000D01*
X134493000Y-47137000D01*
X134493000Y-47117000D01*
X132207000Y-47117000D01*
X132207000Y-47137000D01*
X131953000Y-47137000D01*
X131953000Y-47117000D01*
X129667000Y-47117000D01*
X129667000Y-47137000D01*
X129413000Y-47137000D01*
X129413000Y-47117000D01*
X127127000Y-47117000D01*
X127127000Y-47137000D01*
X126873000Y-47137000D01*
X126873000Y-47117000D01*
X124587000Y-47117000D01*
X124587000Y-47137000D01*
X124333000Y-47137000D01*
X124333000Y-47117000D01*
X122047000Y-47117000D01*
X122047000Y-47137000D01*
X121793000Y-47137000D01*
X121793000Y-47117000D01*
X120585531Y-47117000D01*
X120465032Y-47349027D01*
X120713179Y-47878490D01*
X121131161Y-48260008D01*
X120860330Y-48440971D01*
X120535474Y-48927152D01*
X120421400Y-49500641D01*
X120421400Y-49559359D01*
X120535474Y-50132848D01*
X120860330Y-50619029D01*
X121346511Y-50943885D01*
X121920000Y-51057959D01*
X122493489Y-50943885D01*
X122979670Y-50619029D01*
X123190000Y-50304248D01*
X123400330Y-50619029D01*
X123886511Y-50943885D01*
X124460000Y-51057959D01*
X125033489Y-50943885D01*
X125519670Y-50619029D01*
X125730000Y-50304248D01*
X125940330Y-50619029D01*
X126426511Y-50943885D01*
X127000000Y-51057959D01*
X127573489Y-50943885D01*
X128059670Y-50619029D01*
X128270000Y-50304248D01*
X128480330Y-50619029D01*
X128966511Y-50943885D01*
X129540000Y-51057959D01*
X130113489Y-50943885D01*
X130599670Y-50619029D01*
X130810000Y-50304248D01*
X131020330Y-50619029D01*
X131506511Y-50943885D01*
X132080000Y-51057959D01*
X132653489Y-50943885D01*
X133139670Y-50619029D01*
X133350000Y-50304248D01*
X133560330Y-50619029D01*
X134046511Y-50943885D01*
X134620000Y-51057959D01*
X135193489Y-50943885D01*
X135679670Y-50619029D01*
X135890000Y-50304248D01*
X136100330Y-50619029D01*
X136586511Y-50943885D01*
X137160000Y-51057959D01*
X137733489Y-50943885D01*
X138219670Y-50619029D01*
X138430000Y-50304248D01*
X138640330Y-50619029D01*
X139126511Y-50943885D01*
X139700000Y-51057959D01*
X140273489Y-50943885D01*
X140759670Y-50619029D01*
X140970000Y-50304248D01*
X141180330Y-50619029D01*
X141666511Y-50943885D01*
X142240000Y-51057959D01*
X142813489Y-50943885D01*
X143299670Y-50619029D01*
X143510000Y-50304248D01*
X143720330Y-50619029D01*
X144206511Y-50943885D01*
X144780000Y-51057959D01*
X145353489Y-50943885D01*
X145839670Y-50619029D01*
X146050000Y-50304248D01*
X146260330Y-50619029D01*
X146746511Y-50943885D01*
X147320000Y-51057959D01*
X147893489Y-50943885D01*
X148379670Y-50619029D01*
X148590000Y-50304248D01*
X148800330Y-50619029D01*
X149286511Y-50943885D01*
X149860000Y-51057959D01*
X150433489Y-50943885D01*
X150919670Y-50619029D01*
X151130000Y-50304248D01*
X151340330Y-50619029D01*
X151826511Y-50943885D01*
X152400000Y-51057959D01*
X152973489Y-50943885D01*
X153459670Y-50619029D01*
X153670000Y-50304248D01*
X153880330Y-50619029D01*
X154366511Y-50943885D01*
X154940000Y-51057959D01*
X155513489Y-50943885D01*
X155999670Y-50619029D01*
X156210000Y-50304248D01*
X156420330Y-50619029D01*
X156906511Y-50943885D01*
X157480000Y-51057959D01*
X157990000Y-50956514D01*
X157990000Y-66910398D01*
X155742120Y-69158278D01*
X155696633Y-69158238D01*
X155352857Y-69300283D01*
X155089608Y-69563073D01*
X155041017Y-69680092D01*
X154834799Y-69594462D01*
X154462833Y-69594138D01*
X154119057Y-69736183D01*
X153855808Y-69998973D01*
X153713162Y-70342501D01*
X153712838Y-70714467D01*
X153854883Y-71058243D01*
X154117673Y-71321492D01*
X154461201Y-71464138D01*
X154508077Y-71464179D01*
X162816000Y-79772102D01*
X162816000Y-86738046D01*
X162525946Y-86931853D01*
X162306000Y-87261026D01*
X162086054Y-86931853D01*
X161604285Y-86609946D01*
X161036000Y-86496907D01*
X160467715Y-86609946D01*
X159985946Y-86931853D01*
X159766000Y-87261026D01*
X159546054Y-86931853D01*
X159064285Y-86609946D01*
X158496000Y-86496907D01*
X157927715Y-86609946D01*
X157445946Y-86931853D01*
X157218298Y-87272553D01*
X157151183Y-87129642D01*
X156722924Y-86739355D01*
X156312890Y-86569524D01*
X156083000Y-86690845D01*
X156083000Y-87884000D01*
X156103000Y-87884000D01*
X156103000Y-88138000D01*
X156083000Y-88138000D01*
X156083000Y-88158000D01*
X155829000Y-88158000D01*
X155829000Y-88138000D01*
X155809000Y-88138000D01*
X155809000Y-87884000D01*
X155829000Y-87884000D01*
X155829000Y-86690845D01*
X155599110Y-86569524D01*
X155189076Y-86739355D01*
X154760817Y-87129642D01*
X154693702Y-87272553D01*
X154466054Y-86931853D01*
X153984285Y-86609946D01*
X153416000Y-86496907D01*
X152847715Y-86609946D01*
X152365946Y-86931853D01*
X152146000Y-87261026D01*
X151926054Y-86931853D01*
X151444285Y-86609946D01*
X150876000Y-86496907D01*
X150307715Y-86609946D01*
X149825946Y-86931853D01*
X149606000Y-87261026D01*
X149386054Y-86931853D01*
X148904285Y-86609946D01*
X148336000Y-86496907D01*
X147767715Y-86609946D01*
X147285946Y-86931853D01*
X147066000Y-87261026D01*
X146846054Y-86931853D01*
X146364285Y-86609946D01*
X145796000Y-86496907D01*
X145227715Y-86609946D01*
X144745946Y-86931853D01*
X144526000Y-87261026D01*
X144306054Y-86931853D01*
X143824285Y-86609946D01*
X143256000Y-86496907D01*
X142687715Y-86609946D01*
X142205946Y-86931853D01*
X141986000Y-87261026D01*
X141766054Y-86931853D01*
X141284285Y-86609946D01*
X140716000Y-86496907D01*
X140147715Y-86609946D01*
X139772535Y-86860633D01*
X138804501Y-85892599D01*
X138557939Y-85727852D01*
X138267100Y-85670000D01*
X137968863Y-85670000D01*
X137936727Y-85637808D01*
X137593199Y-85495162D01*
X137541100Y-85495117D01*
X137541100Y-83743202D01*
X138697680Y-82586622D01*
X138743167Y-82586662D01*
X139086943Y-82444617D01*
X139350192Y-82181827D01*
X139492838Y-81838299D01*
X139493162Y-81466333D01*
X139351117Y-81122557D01*
X139097353Y-80868349D01*
X154470180Y-65495522D01*
X154515667Y-65495562D01*
X154859443Y-65353517D01*
X155122692Y-65090727D01*
X155265338Y-64747199D01*
X155265662Y-64375233D01*
X155123617Y-64031457D01*
X154860827Y-63768208D01*
X154517299Y-63625562D01*
X154145333Y-63625238D01*
X153801557Y-63767283D01*
X153538308Y-64030073D01*
X153395662Y-64373601D01*
X153395621Y-64420477D01*
X144806300Y-73009798D01*
X144806300Y-71317100D01*
X144748448Y-71026261D01*
X144583701Y-70779699D01*
X144272522Y-70468520D01*
X144272562Y-70423033D01*
X144130517Y-70079257D01*
X143867727Y-69816008D01*
X143524199Y-69673362D01*
X143152233Y-69673038D01*
X142808457Y-69815083D01*
X142545208Y-70077873D01*
X142402562Y-70421401D01*
X142402238Y-70793367D01*
X142544283Y-71137143D01*
X142807073Y-71400392D01*
X143150601Y-71543038D01*
X143197477Y-71543079D01*
X143286300Y-71631902D01*
X143286300Y-71951083D01*
X143234933Y-71951038D01*
X142891157Y-72093083D01*
X142627908Y-72355873D01*
X142485262Y-72699401D01*
X142485221Y-72746277D01*
X128653899Y-86577599D01*
X128617470Y-86632119D01*
X128584285Y-86609946D01*
X128016000Y-86496907D01*
X127447715Y-86609946D01*
X126965946Y-86931853D01*
X126746000Y-87261026D01*
X126526054Y-86931853D01*
X126169015Y-86693287D01*
X137826110Y-75036192D01*
X138021167Y-75036362D01*
X138364943Y-74894317D01*
X138628192Y-74631527D01*
X138770838Y-74287999D01*
X138771162Y-73916033D01*
X138629117Y-73572257D01*
X138366327Y-73309008D01*
X138022799Y-73166362D01*
X137650833Y-73166038D01*
X137307057Y-73308083D01*
X137043808Y-73570873D01*
X136974206Y-73738492D01*
X123863040Y-86849658D01*
X123504285Y-86609946D01*
X122936000Y-86496907D01*
X122367715Y-86609946D01*
X121885946Y-86931853D01*
X121666000Y-87261026D01*
X121446054Y-86931853D01*
X120964285Y-86609946D01*
X120396000Y-86496907D01*
X119827715Y-86609946D01*
X119345946Y-86931853D01*
X119118298Y-87272553D01*
X119051183Y-87129642D01*
X118622924Y-86739355D01*
X118212890Y-86569524D01*
X117983000Y-86690845D01*
X117983000Y-87884000D01*
X118003000Y-87884000D01*
X118003000Y-88138000D01*
X117983000Y-88138000D01*
X117983000Y-88158000D01*
X117729000Y-88158000D01*
X117729000Y-88138000D01*
X116535181Y-88138000D01*
X116414514Y-88367892D01*
X116660817Y-88892358D01*
X117089076Y-89282645D01*
X117089101Y-89282655D01*
X116805946Y-89471853D01*
X116484039Y-89953622D01*
X116371000Y-90521907D01*
X114695392Y-90521907D01*
X114972731Y-90106840D01*
X115137001Y-89281000D01*
X114972731Y-88455160D01*
X114504931Y-87755047D01*
X114353865Y-87654108D01*
X116414514Y-87654108D01*
X116535181Y-87884000D01*
X117729000Y-87884000D01*
X117729000Y-86690845D01*
X117499110Y-86569524D01*
X117089076Y-86739355D01*
X116660817Y-87129642D01*
X116414514Y-87654108D01*
X114353865Y-87654108D01*
X113804818Y-87287247D01*
X112978978Y-87122977D01*
X112153138Y-87287247D01*
X111453025Y-87755047D01*
X110985225Y-88455160D01*
X110820955Y-89281000D01*
X110184000Y-89281000D01*
X110184000Y-46630973D01*
X120465032Y-46630973D01*
X120585531Y-46863000D01*
X121793000Y-46863000D01*
X121793000Y-45656183D01*
X122047000Y-45656183D01*
X122047000Y-46863000D01*
X124333000Y-46863000D01*
X124333000Y-45656183D01*
X124587000Y-45656183D01*
X124587000Y-46863000D01*
X126873000Y-46863000D01*
X126873000Y-45656183D01*
X127127000Y-45656183D01*
X127127000Y-46863000D01*
X129413000Y-46863000D01*
X129413000Y-45656183D01*
X129667000Y-45656183D01*
X129667000Y-46863000D01*
X131953000Y-46863000D01*
X131953000Y-45656183D01*
X132207000Y-45656183D01*
X132207000Y-46863000D01*
X134493000Y-46863000D01*
X134493000Y-45656183D01*
X134747000Y-45656183D01*
X134747000Y-46863000D01*
X137033000Y-46863000D01*
X137033000Y-45656183D01*
X137287000Y-45656183D01*
X137287000Y-46863000D01*
X139573000Y-46863000D01*
X139573000Y-45656183D01*
X139827000Y-45656183D01*
X139827000Y-46863000D01*
X142113000Y-46863000D01*
X142113000Y-45656183D01*
X142367000Y-45656183D01*
X142367000Y-46863000D01*
X144653000Y-46863000D01*
X144653000Y-45656183D01*
X144907000Y-45656183D01*
X144907000Y-46863000D01*
X147193000Y-46863000D01*
X147193000Y-45656183D01*
X147447000Y-45656183D01*
X147447000Y-46863000D01*
X149733000Y-46863000D01*
X149733000Y-45656183D01*
X149987000Y-45656183D01*
X149987000Y-46863000D01*
X152273000Y-46863000D01*
X152273000Y-45656183D01*
X152527000Y-45656183D01*
X152527000Y-46863000D01*
X154813000Y-46863000D01*
X154813000Y-45656183D01*
X155067000Y-45656183D01*
X155067000Y-46863000D01*
X157353000Y-46863000D01*
X157353000Y-45656183D01*
X157607000Y-45656183D01*
X157607000Y-46863000D01*
X159893000Y-46863000D01*
X159893000Y-45656183D01*
X160147000Y-45656183D01*
X160147000Y-46863000D01*
X162433000Y-46863000D01*
X162433000Y-45650150D01*
X162687000Y-45650150D01*
X162687000Y-46863000D01*
X163899850Y-46863000D01*
X164058600Y-46704250D01*
X164058600Y-46000091D01*
X163961927Y-45766702D01*
X163783299Y-45588073D01*
X163549910Y-45491400D01*
X162845750Y-45491400D01*
X162687000Y-45650150D01*
X162433000Y-45650150D01*
X162274250Y-45491400D01*
X161570090Y-45491400D01*
X161336701Y-45588073D01*
X161158073Y-45766702D01*
X161076300Y-45964120D01*
X160794947Y-45707312D01*
X160379026Y-45535042D01*
X160147000Y-45656183D01*
X159893000Y-45656183D01*
X159660974Y-45535042D01*
X159245053Y-45707312D01*
X158813179Y-46101510D01*
X158750000Y-46236313D01*
X158686821Y-46101510D01*
X158254947Y-45707312D01*
X157839026Y-45535042D01*
X157607000Y-45656183D01*
X157353000Y-45656183D01*
X157120974Y-45535042D01*
X156705053Y-45707312D01*
X156273179Y-46101510D01*
X156210000Y-46236313D01*
X156146821Y-46101510D01*
X155714947Y-45707312D01*
X155299026Y-45535042D01*
X155067000Y-45656183D01*
X154813000Y-45656183D01*
X154580974Y-45535042D01*
X154165053Y-45707312D01*
X153733179Y-46101510D01*
X153670000Y-46236313D01*
X153606821Y-46101510D01*
X153174947Y-45707312D01*
X152759026Y-45535042D01*
X152527000Y-45656183D01*
X152273000Y-45656183D01*
X152040974Y-45535042D01*
X151625053Y-45707312D01*
X151193179Y-46101510D01*
X151130000Y-46236313D01*
X151066821Y-46101510D01*
X150634947Y-45707312D01*
X150219026Y-45535042D01*
X149987000Y-45656183D01*
X149733000Y-45656183D01*
X149500974Y-45535042D01*
X149085053Y-45707312D01*
X148653179Y-46101510D01*
X148590000Y-46236313D01*
X148526821Y-46101510D01*
X148094947Y-45707312D01*
X147679026Y-45535042D01*
X147447000Y-45656183D01*
X147193000Y-45656183D01*
X146960974Y-45535042D01*
X146545053Y-45707312D01*
X146113179Y-46101510D01*
X146050000Y-46236313D01*
X145986821Y-46101510D01*
X145554947Y-45707312D01*
X145139026Y-45535042D01*
X144907000Y-45656183D01*
X144653000Y-45656183D01*
X144420974Y-45535042D01*
X144005053Y-45707312D01*
X143573179Y-46101510D01*
X143510000Y-46236313D01*
X143446821Y-46101510D01*
X143014947Y-45707312D01*
X142599026Y-45535042D01*
X142367000Y-45656183D01*
X142113000Y-45656183D01*
X141880974Y-45535042D01*
X141465053Y-45707312D01*
X141033179Y-46101510D01*
X140970000Y-46236313D01*
X140906821Y-46101510D01*
X140474947Y-45707312D01*
X140059026Y-45535042D01*
X139827000Y-45656183D01*
X139573000Y-45656183D01*
X139340974Y-45535042D01*
X138925053Y-45707312D01*
X138493179Y-46101510D01*
X138430000Y-46236313D01*
X138366821Y-46101510D01*
X137934947Y-45707312D01*
X137519026Y-45535042D01*
X137287000Y-45656183D01*
X137033000Y-45656183D01*
X136800974Y-45535042D01*
X136385053Y-45707312D01*
X135953179Y-46101510D01*
X135890000Y-46236313D01*
X135826821Y-46101510D01*
X135394947Y-45707312D01*
X134979026Y-45535042D01*
X134747000Y-45656183D01*
X134493000Y-45656183D01*
X134260974Y-45535042D01*
X133845053Y-45707312D01*
X133413179Y-46101510D01*
X133350000Y-46236313D01*
X133286821Y-46101510D01*
X132854947Y-45707312D01*
X132439026Y-45535042D01*
X132207000Y-45656183D01*
X131953000Y-45656183D01*
X131720974Y-45535042D01*
X131305053Y-45707312D01*
X130873179Y-46101510D01*
X130810000Y-46236313D01*
X130746821Y-46101510D01*
X130314947Y-45707312D01*
X129899026Y-45535042D01*
X129667000Y-45656183D01*
X129413000Y-45656183D01*
X129180974Y-45535042D01*
X128765053Y-45707312D01*
X128333179Y-46101510D01*
X128270000Y-46236313D01*
X128206821Y-46101510D01*
X127774947Y-45707312D01*
X127359026Y-45535042D01*
X127127000Y-45656183D01*
X126873000Y-45656183D01*
X126640974Y-45535042D01*
X126225053Y-45707312D01*
X125793179Y-46101510D01*
X125730000Y-46236313D01*
X125666821Y-46101510D01*
X125234947Y-45707312D01*
X124819026Y-45535042D01*
X124587000Y-45656183D01*
X124333000Y-45656183D01*
X124100974Y-45535042D01*
X123685053Y-45707312D01*
X123253179Y-46101510D01*
X123190000Y-46236313D01*
X123126821Y-46101510D01*
X122694947Y-45707312D01*
X122279026Y-45535042D01*
X122047000Y-45656183D01*
X121793000Y-45656183D01*
X121560974Y-45535042D01*
X121145053Y-45707312D01*
X120713179Y-46101510D01*
X120465032Y-46630973D01*
X110184000Y-46630973D01*
X110184000Y-40246522D01*
X110820955Y-40246522D01*
X110985225Y-41072362D01*
X111453025Y-41772475D01*
X112153138Y-42240275D01*
X112978978Y-42404545D01*
X113804818Y-42240275D01*
X114504931Y-41772475D01*
X114972731Y-41072362D01*
X115134518Y-40259000D01*
X168796455Y-40259000D01*
X168960725Y-41084840D01*
X169428525Y-41784953D01*
X170128638Y-42252753D01*
X170954478Y-42417023D01*
X171780318Y-42252753D01*
X172480431Y-41784953D01*
X172948231Y-41084840D01*
X173112501Y-40259000D01*
X172948231Y-39433160D01*
X172480431Y-38733047D01*
X171780318Y-38265247D01*
X170954478Y-38100977D01*
X170128638Y-38265247D01*
X169428525Y-38733047D01*
X168960725Y-39433160D01*
X168796455Y-40259000D01*
X115134518Y-40259000D01*
X115137001Y-40246522D01*
X114972731Y-39420682D01*
X114504931Y-38720569D01*
X113804818Y-38252769D01*
X112978978Y-38088499D01*
X112153138Y-38252769D01*
X111453025Y-38720569D01*
X110985225Y-39420682D01*
X110820955Y-40246522D01*
X110184000Y-40246522D01*
X110184000Y-39384401D01*
X110378300Y-38509635D01*
X110856227Y-37827668D01*
X111558749Y-37380509D01*
X112456973Y-37222500D01*
X171626099Y-37222500D01*
X172500865Y-37416800D01*
X172500865Y-37416800D01*
G37*
X172500865Y-37416800D02*
X173182832Y-37894727D01*
X173629991Y-38597249D01*
X173788000Y-39495473D01*
X173788000Y-90155599D01*
X173593700Y-91030365D01*
X173115773Y-91712332D01*
X172413251Y-92159491D01*
X171515027Y-92317500D01*
X112345901Y-92317500D01*
X111471135Y-92123200D01*
X110789168Y-91645273D01*
X110342009Y-90942751D01*
X110184000Y-90044527D01*
X110184000Y-89281000D01*
X110820955Y-89281000D01*
X110985225Y-90106840D01*
X111453025Y-90806953D01*
X112153138Y-91274753D01*
X112978978Y-91439023D01*
X113804818Y-91274753D01*
X114504931Y-90806953D01*
X114695392Y-90521907D01*
X116371000Y-90521907D01*
X116371000Y-90580093D01*
X116484039Y-91148378D01*
X116805946Y-91630147D01*
X117287715Y-91952054D01*
X117856000Y-92065093D01*
X118424285Y-91952054D01*
X118906054Y-91630147D01*
X119126000Y-91300974D01*
X119345946Y-91630147D01*
X119827715Y-91952054D01*
X120396000Y-92065093D01*
X120964285Y-91952054D01*
X121446054Y-91630147D01*
X121666000Y-91300974D01*
X121885946Y-91630147D01*
X122367715Y-91952054D01*
X122936000Y-92065093D01*
X123504285Y-91952054D01*
X123986054Y-91630147D01*
X124213702Y-91289447D01*
X124280817Y-91432358D01*
X124709076Y-91822645D01*
X125119110Y-91992476D01*
X125349000Y-91871155D01*
X125349000Y-90678000D01*
X125329000Y-90678000D01*
X125329000Y-90424000D01*
X125349000Y-90424000D01*
X125349000Y-90404000D01*
X125603000Y-90404000D01*
X125603000Y-90424000D01*
X125623000Y-90424000D01*
X125623000Y-90678000D01*
X125603000Y-90678000D01*
X125603000Y-91871155D01*
X125832890Y-91992476D01*
X126242924Y-91822645D01*
X126671183Y-91432358D01*
X126738298Y-91289447D01*
X126965946Y-91630147D01*
X127447715Y-91952054D01*
X128016000Y-92065093D01*
X128584285Y-91952054D01*
X129066054Y-91630147D01*
X129293702Y-91289447D01*
X129360817Y-91432358D01*
X129789076Y-91822645D01*
X130199110Y-91992476D01*
X130429000Y-91871155D01*
X130429000Y-90678000D01*
X130409000Y-90678000D01*
X130409000Y-90424000D01*
X130429000Y-90424000D01*
X130429000Y-90404000D01*
X130683000Y-90404000D01*
X130683000Y-90424000D01*
X130703000Y-90424000D01*
X130703000Y-90678000D01*
X130683000Y-90678000D01*
X130683000Y-91871155D01*
X130912890Y-91992476D01*
X131322924Y-91822645D01*
X131751183Y-91432358D01*
X131818298Y-91289447D01*
X132045946Y-91630147D01*
X132527715Y-91952054D01*
X133096000Y-92065093D01*
X133664285Y-91952054D01*
X134146054Y-91630147D01*
X134366000Y-91300974D01*
X134585946Y-91630147D01*
X135067715Y-91952054D01*
X135636000Y-92065093D01*
X136204285Y-91952054D01*
X136686054Y-91630147D01*
X136906000Y-91300974D01*
X137125946Y-91630147D01*
X137607715Y-91952054D01*
X138176000Y-92065093D01*
X138744285Y-91952054D01*
X139226054Y-91630147D01*
X139446000Y-91300974D01*
X139665946Y-91630147D01*
X140147715Y-91952054D01*
X140716000Y-92065093D01*
X141284285Y-91952054D01*
X141766054Y-91630147D01*
X141993702Y-91289447D01*
X142060817Y-91432358D01*
X142489076Y-91822645D01*
X142899110Y-91992476D01*
X143129000Y-91871155D01*
X143129000Y-90678000D01*
X143109000Y-90678000D01*
X143109000Y-90424000D01*
X143129000Y-90424000D01*
X143129000Y-90404000D01*
X143383000Y-90404000D01*
X143383000Y-90424000D01*
X143403000Y-90424000D01*
X143403000Y-90678000D01*
X143383000Y-90678000D01*
X143383000Y-91871155D01*
X143612890Y-91992476D01*
X144022924Y-91822645D01*
X144451183Y-91432358D01*
X144518298Y-91289447D01*
X144745946Y-91630147D01*
X145227715Y-91952054D01*
X145796000Y-92065093D01*
X146364285Y-91952054D01*
X146846054Y-91630147D01*
X147066000Y-91300974D01*
X147285946Y-91630147D01*
X147767715Y-91952054D01*
X148336000Y-92065093D01*
X148904285Y-91952054D01*
X149386054Y-91630147D01*
X149613702Y-91289447D01*
X149680817Y-91432358D01*
X150109076Y-91822645D01*
X150519110Y-91992476D01*
X150749000Y-91871155D01*
X150749000Y-90678000D01*
X150729000Y-90678000D01*
X150729000Y-90424000D01*
X150749000Y-90424000D01*
X150749000Y-90404000D01*
X151003000Y-90404000D01*
X151003000Y-90424000D01*
X151023000Y-90424000D01*
X151023000Y-90678000D01*
X151003000Y-90678000D01*
X151003000Y-91871155D01*
X151232890Y-91992476D01*
X151642924Y-91822645D01*
X152071183Y-91432358D01*
X152138298Y-91289447D01*
X152365946Y-91630147D01*
X152847715Y-91952054D01*
X153416000Y-92065093D01*
X153984285Y-91952054D01*
X154466054Y-91630147D01*
X154686000Y-91300974D01*
X154905946Y-91630147D01*
X155387715Y-91952054D01*
X155956000Y-92065093D01*
X156524285Y-91952054D01*
X157006054Y-91630147D01*
X157226000Y-91300974D01*
X157445946Y-91630147D01*
X157927715Y-91952054D01*
X158496000Y-92065093D01*
X159064285Y-91952054D01*
X159546054Y-91630147D01*
X159773702Y-91289447D01*
X159840817Y-91432358D01*
X160269076Y-91822645D01*
X160679110Y-91992476D01*
X160909000Y-91871155D01*
X160909000Y-90678000D01*
X160889000Y-90678000D01*
X160889000Y-90424000D01*
X160909000Y-90424000D01*
X160909000Y-90404000D01*
X161163000Y-90404000D01*
X161163000Y-90424000D01*
X161183000Y-90424000D01*
X161183000Y-90678000D01*
X161163000Y-90678000D01*
X161163000Y-91871155D01*
X161392890Y-91992476D01*
X161802924Y-91822645D01*
X162231183Y-91432358D01*
X162298298Y-91289447D01*
X162525946Y-91630147D01*
X163007715Y-91952054D01*
X163576000Y-92065093D01*
X164144285Y-91952054D01*
X164626054Y-91630147D01*
X164839301Y-91311000D01*
X164852699Y-91311000D01*
X165065946Y-91630147D01*
X165547715Y-91952054D01*
X166116000Y-92065093D01*
X166684285Y-91952054D01*
X167166054Y-91630147D01*
X167487961Y-91148378D01*
X167601000Y-90580093D01*
X167601000Y-90521907D01*
X167487961Y-89953622D01*
X167166054Y-89471853D01*
X167164821Y-89471029D01*
X167201317Y-89464162D01*
X167417441Y-89325090D01*
X167456092Y-89268522D01*
X168847477Y-89268522D01*
X169011747Y-90094362D01*
X169479547Y-90794475D01*
X170179660Y-91262275D01*
X171005500Y-91426545D01*
X171831340Y-91262275D01*
X172531453Y-90794475D01*
X172999253Y-90094362D01*
X173163523Y-89268522D01*
X172999253Y-88442682D01*
X172531453Y-87742569D01*
X171831340Y-87274769D01*
X171005500Y-87110499D01*
X170179660Y-87274769D01*
X169479547Y-87742569D01*
X169011747Y-88442682D01*
X168847477Y-89268522D01*
X167456092Y-89268522D01*
X167562431Y-89112890D01*
X167613440Y-88861000D01*
X167613440Y-87161000D01*
X167569162Y-86925683D01*
X167430090Y-86709559D01*
X167217890Y-86564569D01*
X166966000Y-86513560D01*
X165266000Y-86513560D01*
X165030683Y-86557838D01*
X164814559Y-86696910D01*
X164669569Y-86909110D01*
X164655914Y-86976541D01*
X164626054Y-86931853D01*
X164336000Y-86738046D01*
X164336000Y-79457300D01*
X164278148Y-79166461D01*
X164113401Y-78919899D01*
X156176717Y-70983215D01*
X156410743Y-70886517D01*
X156673992Y-70623727D01*
X156816638Y-70280199D01*
X156816679Y-70233323D01*
X159287401Y-67762601D01*
X159452148Y-67516040D01*
X159510000Y-67225200D01*
X159510000Y-50956514D01*
X160020000Y-51057959D01*
X160593489Y-50943885D01*
X161079670Y-50619029D01*
X161290000Y-50304248D01*
X161500330Y-50619029D01*
X161986511Y-50943885D01*
X162560000Y-51057959D01*
X163133489Y-50943885D01*
X163619670Y-50619029D01*
X163944526Y-50132848D01*
X164058600Y-49559359D01*
X164058600Y-49500641D01*
X163944526Y-48927152D01*
X163629474Y-48455644D01*
X163783299Y-48391927D01*
X163961927Y-48213298D01*
X164058600Y-47979909D01*
X164058600Y-47275750D01*
X163899850Y-47117000D01*
X162687000Y-47117000D01*
X162687000Y-47137000D01*
X162433000Y-47137000D01*
X162433000Y-47117000D01*
X160147000Y-47117000D01*
X160147000Y-47137000D01*
X159893000Y-47137000D01*
X159893000Y-47117000D01*
X157607000Y-47117000D01*
X157607000Y-47137000D01*
X157353000Y-47137000D01*
X157353000Y-47117000D01*
X155067000Y-47117000D01*
X155067000Y-47137000D01*
X154813000Y-47137000D01*
X154813000Y-47117000D01*
X152527000Y-47117000D01*
X152527000Y-47137000D01*
X152273000Y-47137000D01*
X152273000Y-47117000D01*
X149987000Y-47117000D01*
X149987000Y-47137000D01*
X149733000Y-47137000D01*
X149733000Y-47117000D01*
X147447000Y-47117000D01*
X147447000Y-47137000D01*
X147193000Y-47137000D01*
X147193000Y-47117000D01*
X144907000Y-47117000D01*
X144907000Y-47137000D01*
X144653000Y-47137000D01*
X144653000Y-47117000D01*
X142367000Y-47117000D01*
X142367000Y-47137000D01*
X142113000Y-47137000D01*
X142113000Y-47117000D01*
X139827000Y-47117000D01*
X139827000Y-47137000D01*
X139573000Y-47137000D01*
X139573000Y-47117000D01*
X137287000Y-47117000D01*
X137287000Y-47137000D01*
X137033000Y-47137000D01*
X137033000Y-47117000D01*
X134747000Y-47117000D01*
X134747000Y-47137000D01*
X134493000Y-47137000D01*
X134493000Y-47117000D01*
X132207000Y-47117000D01*
X132207000Y-47137000D01*
X131953000Y-47137000D01*
X131953000Y-47117000D01*
X129667000Y-47117000D01*
X129667000Y-47137000D01*
X129413000Y-47137000D01*
X129413000Y-47117000D01*
X127127000Y-47117000D01*
X127127000Y-47137000D01*
X126873000Y-47137000D01*
X126873000Y-47117000D01*
X124587000Y-47117000D01*
X124587000Y-47137000D01*
X124333000Y-47137000D01*
X124333000Y-47117000D01*
X122047000Y-47117000D01*
X122047000Y-47137000D01*
X121793000Y-47137000D01*
X121793000Y-47117000D01*
X120585531Y-47117000D01*
X120465032Y-47349027D01*
X120713179Y-47878490D01*
X121131161Y-48260008D01*
X120860330Y-48440971D01*
X120535474Y-48927152D01*
X120421400Y-49500641D01*
X120421400Y-49559359D01*
X120535474Y-50132848D01*
X120860330Y-50619029D01*
X121346511Y-50943885D01*
X121920000Y-51057959D01*
X122493489Y-50943885D01*
X122979670Y-50619029D01*
X123190000Y-50304248D01*
X123400330Y-50619029D01*
X123886511Y-50943885D01*
X124460000Y-51057959D01*
X125033489Y-50943885D01*
X125519670Y-50619029D01*
X125730000Y-50304248D01*
X125940330Y-50619029D01*
X126426511Y-50943885D01*
X127000000Y-51057959D01*
X127573489Y-50943885D01*
X128059670Y-50619029D01*
X128270000Y-50304248D01*
X128480330Y-50619029D01*
X128966511Y-50943885D01*
X129540000Y-51057959D01*
X130113489Y-50943885D01*
X130599670Y-50619029D01*
X130810000Y-50304248D01*
X131020330Y-50619029D01*
X131506511Y-50943885D01*
X132080000Y-51057959D01*
X132653489Y-50943885D01*
X133139670Y-50619029D01*
X133350000Y-50304248D01*
X133560330Y-50619029D01*
X134046511Y-50943885D01*
X134620000Y-51057959D01*
X135193489Y-50943885D01*
X135679670Y-50619029D01*
X135890000Y-50304248D01*
X136100330Y-50619029D01*
X136586511Y-50943885D01*
X137160000Y-51057959D01*
X137733489Y-50943885D01*
X138219670Y-50619029D01*
X138430000Y-50304248D01*
X138640330Y-50619029D01*
X139126511Y-50943885D01*
X139700000Y-51057959D01*
X140273489Y-50943885D01*
X140759670Y-50619029D01*
X140970000Y-50304248D01*
X141180330Y-50619029D01*
X141666511Y-50943885D01*
X142240000Y-51057959D01*
X142813489Y-50943885D01*
X143299670Y-50619029D01*
X143510000Y-50304248D01*
X143720330Y-50619029D01*
X144206511Y-50943885D01*
X144780000Y-51057959D01*
X145353489Y-50943885D01*
X145839670Y-50619029D01*
X146050000Y-50304248D01*
X146260330Y-50619029D01*
X146746511Y-50943885D01*
X147320000Y-51057959D01*
X147893489Y-50943885D01*
X148379670Y-50619029D01*
X148590000Y-50304248D01*
X148800330Y-50619029D01*
X149286511Y-50943885D01*
X149860000Y-51057959D01*
X150433489Y-50943885D01*
X150919670Y-50619029D01*
X151130000Y-50304248D01*
X151340330Y-50619029D01*
X151826511Y-50943885D01*
X152400000Y-51057959D01*
X152973489Y-50943885D01*
X153459670Y-50619029D01*
X153670000Y-50304248D01*
X153880330Y-50619029D01*
X154366511Y-50943885D01*
X154940000Y-51057959D01*
X155513489Y-50943885D01*
X155999670Y-50619029D01*
X156210000Y-50304248D01*
X156420330Y-50619029D01*
X156906511Y-50943885D01*
X157480000Y-51057959D01*
X157990000Y-50956514D01*
X157990000Y-66910398D01*
X155742120Y-69158278D01*
X155696633Y-69158238D01*
X155352857Y-69300283D01*
X155089608Y-69563073D01*
X155041017Y-69680092D01*
X154834799Y-69594462D01*
X154462833Y-69594138D01*
X154119057Y-69736183D01*
X153855808Y-69998973D01*
X153713162Y-70342501D01*
X153712838Y-70714467D01*
X153854883Y-71058243D01*
X154117673Y-71321492D01*
X154461201Y-71464138D01*
X154508077Y-71464179D01*
X162816000Y-79772102D01*
X162816000Y-86738046D01*
X162525946Y-86931853D01*
X162306000Y-87261026D01*
X162086054Y-86931853D01*
X161604285Y-86609946D01*
X161036000Y-86496907D01*
X160467715Y-86609946D01*
X159985946Y-86931853D01*
X159766000Y-87261026D01*
X159546054Y-86931853D01*
X159064285Y-86609946D01*
X158496000Y-86496907D01*
X157927715Y-86609946D01*
X157445946Y-86931853D01*
X157218298Y-87272553D01*
X157151183Y-87129642D01*
X156722924Y-86739355D01*
X156312890Y-86569524D01*
X156083000Y-86690845D01*
X156083000Y-87884000D01*
X156103000Y-87884000D01*
X156103000Y-88138000D01*
X156083000Y-88138000D01*
X156083000Y-88158000D01*
X155829000Y-88158000D01*
X155829000Y-88138000D01*
X155809000Y-88138000D01*
X155809000Y-87884000D01*
X155829000Y-87884000D01*
X155829000Y-86690845D01*
X155599110Y-86569524D01*
X155189076Y-86739355D01*
X154760817Y-87129642D01*
X154693702Y-87272553D01*
X154466054Y-86931853D01*
X153984285Y-86609946D01*
X153416000Y-86496907D01*
X152847715Y-86609946D01*
X152365946Y-86931853D01*
X152146000Y-87261026D01*
X151926054Y-86931853D01*
X151444285Y-86609946D01*
X150876000Y-86496907D01*
X150307715Y-86609946D01*
X149825946Y-86931853D01*
X149606000Y-87261026D01*
X149386054Y-86931853D01*
X148904285Y-86609946D01*
X148336000Y-86496907D01*
X147767715Y-86609946D01*
X147285946Y-86931853D01*
X147066000Y-87261026D01*
X146846054Y-86931853D01*
X146364285Y-86609946D01*
X145796000Y-86496907D01*
X145227715Y-86609946D01*
X144745946Y-86931853D01*
X144526000Y-87261026D01*
X144306054Y-86931853D01*
X143824285Y-86609946D01*
X143256000Y-86496907D01*
X142687715Y-86609946D01*
X142205946Y-86931853D01*
X141986000Y-87261026D01*
X141766054Y-86931853D01*
X141284285Y-86609946D01*
X140716000Y-86496907D01*
X140147715Y-86609946D01*
X139772535Y-86860633D01*
X138804501Y-85892599D01*
X138557939Y-85727852D01*
X138267100Y-85670000D01*
X137968863Y-85670000D01*
X137936727Y-85637808D01*
X137593199Y-85495162D01*
X137541100Y-85495117D01*
X137541100Y-83743202D01*
X138697680Y-82586622D01*
X138743167Y-82586662D01*
X139086943Y-82444617D01*
X139350192Y-82181827D01*
X139492838Y-81838299D01*
X139493162Y-81466333D01*
X139351117Y-81122557D01*
X139097353Y-80868349D01*
X154470180Y-65495522D01*
X154515667Y-65495562D01*
X154859443Y-65353517D01*
X155122692Y-65090727D01*
X155265338Y-64747199D01*
X155265662Y-64375233D01*
X155123617Y-64031457D01*
X154860827Y-63768208D01*
X154517299Y-63625562D01*
X154145333Y-63625238D01*
X153801557Y-63767283D01*
X153538308Y-64030073D01*
X153395662Y-64373601D01*
X153395621Y-64420477D01*
X144806300Y-73009798D01*
X144806300Y-71317100D01*
X144748448Y-71026261D01*
X144583701Y-70779699D01*
X144272522Y-70468520D01*
X144272562Y-70423033D01*
X144130517Y-70079257D01*
X143867727Y-69816008D01*
X143524199Y-69673362D01*
X143152233Y-69673038D01*
X142808457Y-69815083D01*
X142545208Y-70077873D01*
X142402562Y-70421401D01*
X142402238Y-70793367D01*
X142544283Y-71137143D01*
X142807073Y-71400392D01*
X143150601Y-71543038D01*
X143197477Y-71543079D01*
X143286300Y-71631902D01*
X143286300Y-71951083D01*
X143234933Y-71951038D01*
X142891157Y-72093083D01*
X142627908Y-72355873D01*
X142485262Y-72699401D01*
X142485221Y-72746277D01*
X128653899Y-86577599D01*
X128617470Y-86632119D01*
X128584285Y-86609946D01*
X128016000Y-86496907D01*
X127447715Y-86609946D01*
X126965946Y-86931853D01*
X126746000Y-87261026D01*
X126526054Y-86931853D01*
X126169015Y-86693287D01*
X137826110Y-75036192D01*
X138021167Y-75036362D01*
X138364943Y-74894317D01*
X138628192Y-74631527D01*
X138770838Y-74287999D01*
X138771162Y-73916033D01*
X138629117Y-73572257D01*
X138366327Y-73309008D01*
X138022799Y-73166362D01*
X137650833Y-73166038D01*
X137307057Y-73308083D01*
X137043808Y-73570873D01*
X136974206Y-73738492D01*
X123863040Y-86849658D01*
X123504285Y-86609946D01*
X122936000Y-86496907D01*
X122367715Y-86609946D01*
X121885946Y-86931853D01*
X121666000Y-87261026D01*
X121446054Y-86931853D01*
X120964285Y-86609946D01*
X120396000Y-86496907D01*
X119827715Y-86609946D01*
X119345946Y-86931853D01*
X119118298Y-87272553D01*
X119051183Y-87129642D01*
X118622924Y-86739355D01*
X118212890Y-86569524D01*
X117983000Y-86690845D01*
X117983000Y-87884000D01*
X118003000Y-87884000D01*
X118003000Y-88138000D01*
X117983000Y-88138000D01*
X117983000Y-88158000D01*
X117729000Y-88158000D01*
X117729000Y-88138000D01*
X116535181Y-88138000D01*
X116414514Y-88367892D01*
X116660817Y-88892358D01*
X117089076Y-89282645D01*
X117089101Y-89282655D01*
X116805946Y-89471853D01*
X116484039Y-89953622D01*
X116371000Y-90521907D01*
X114695392Y-90521907D01*
X114972731Y-90106840D01*
X115137001Y-89281000D01*
X114972731Y-88455160D01*
X114504931Y-87755047D01*
X114353865Y-87654108D01*
X116414514Y-87654108D01*
X116535181Y-87884000D01*
X117729000Y-87884000D01*
X117729000Y-86690845D01*
X117499110Y-86569524D01*
X117089076Y-86739355D01*
X116660817Y-87129642D01*
X116414514Y-87654108D01*
X114353865Y-87654108D01*
X113804818Y-87287247D01*
X112978978Y-87122977D01*
X112153138Y-87287247D01*
X111453025Y-87755047D01*
X110985225Y-88455160D01*
X110820955Y-89281000D01*
X110184000Y-89281000D01*
X110184000Y-46630973D01*
X120465032Y-46630973D01*
X120585531Y-46863000D01*
X121793000Y-46863000D01*
X121793000Y-45656183D01*
X122047000Y-45656183D01*
X122047000Y-46863000D01*
X124333000Y-46863000D01*
X124333000Y-45656183D01*
X124587000Y-45656183D01*
X124587000Y-46863000D01*
X126873000Y-46863000D01*
X126873000Y-45656183D01*
X127127000Y-45656183D01*
X127127000Y-46863000D01*
X129413000Y-46863000D01*
X129413000Y-45656183D01*
X129667000Y-45656183D01*
X129667000Y-46863000D01*
X131953000Y-46863000D01*
X131953000Y-45656183D01*
X132207000Y-45656183D01*
X132207000Y-46863000D01*
X134493000Y-46863000D01*
X134493000Y-45656183D01*
X134747000Y-45656183D01*
X134747000Y-46863000D01*
X137033000Y-46863000D01*
X137033000Y-45656183D01*
X137287000Y-45656183D01*
X137287000Y-46863000D01*
X139573000Y-46863000D01*
X139573000Y-45656183D01*
X139827000Y-45656183D01*
X139827000Y-46863000D01*
X142113000Y-46863000D01*
X142113000Y-45656183D01*
X142367000Y-45656183D01*
X142367000Y-46863000D01*
X144653000Y-46863000D01*
X144653000Y-45656183D01*
X144907000Y-45656183D01*
X144907000Y-46863000D01*
X147193000Y-46863000D01*
X147193000Y-45656183D01*
X147447000Y-45656183D01*
X147447000Y-46863000D01*
X149733000Y-46863000D01*
X149733000Y-45656183D01*
X149987000Y-45656183D01*
X149987000Y-46863000D01*
X152273000Y-46863000D01*
X152273000Y-45656183D01*
X152527000Y-45656183D01*
X152527000Y-46863000D01*
X154813000Y-46863000D01*
X154813000Y-45656183D01*
X155067000Y-45656183D01*
X155067000Y-46863000D01*
X157353000Y-46863000D01*
X157353000Y-45656183D01*
X157607000Y-45656183D01*
X157607000Y-46863000D01*
X159893000Y-46863000D01*
X159893000Y-45656183D01*
X160147000Y-45656183D01*
X160147000Y-46863000D01*
X162433000Y-46863000D01*
X162433000Y-45650150D01*
X162687000Y-45650150D01*
X162687000Y-46863000D01*
X163899850Y-46863000D01*
X164058600Y-46704250D01*
X164058600Y-46000091D01*
X163961927Y-45766702D01*
X163783299Y-45588073D01*
X163549910Y-45491400D01*
X162845750Y-45491400D01*
X162687000Y-45650150D01*
X162433000Y-45650150D01*
X162274250Y-45491400D01*
X161570090Y-45491400D01*
X161336701Y-45588073D01*
X161158073Y-45766702D01*
X161076300Y-45964120D01*
X160794947Y-45707312D01*
X160379026Y-45535042D01*
X160147000Y-45656183D01*
X159893000Y-45656183D01*
X159660974Y-45535042D01*
X159245053Y-45707312D01*
X158813179Y-46101510D01*
X158750000Y-46236313D01*
X158686821Y-46101510D01*
X158254947Y-45707312D01*
X157839026Y-45535042D01*
X157607000Y-45656183D01*
X157353000Y-45656183D01*
X157120974Y-45535042D01*
X156705053Y-45707312D01*
X156273179Y-46101510D01*
X156210000Y-46236313D01*
X156146821Y-46101510D01*
X155714947Y-45707312D01*
X155299026Y-45535042D01*
X155067000Y-45656183D01*
X154813000Y-45656183D01*
X154580974Y-45535042D01*
X154165053Y-45707312D01*
X153733179Y-46101510D01*
X153670000Y-46236313D01*
X153606821Y-46101510D01*
X153174947Y-45707312D01*
X152759026Y-45535042D01*
X152527000Y-45656183D01*
X152273000Y-45656183D01*
X152040974Y-45535042D01*
X151625053Y-45707312D01*
X151193179Y-46101510D01*
X151130000Y-46236313D01*
X151066821Y-46101510D01*
X150634947Y-45707312D01*
X150219026Y-45535042D01*
X149987000Y-45656183D01*
X149733000Y-45656183D01*
X149500974Y-45535042D01*
X149085053Y-45707312D01*
X148653179Y-46101510D01*
X148590000Y-46236313D01*
X148526821Y-46101510D01*
X148094947Y-45707312D01*
X147679026Y-45535042D01*
X147447000Y-45656183D01*
X147193000Y-45656183D01*
X146960974Y-45535042D01*
X146545053Y-45707312D01*
X146113179Y-46101510D01*
X146050000Y-46236313D01*
X145986821Y-46101510D01*
X145554947Y-45707312D01*
X145139026Y-45535042D01*
X144907000Y-45656183D01*
X144653000Y-45656183D01*
X144420974Y-45535042D01*
X144005053Y-45707312D01*
X143573179Y-46101510D01*
X143510000Y-46236313D01*
X143446821Y-46101510D01*
X143014947Y-45707312D01*
X142599026Y-45535042D01*
X142367000Y-45656183D01*
X142113000Y-45656183D01*
X141880974Y-45535042D01*
X141465053Y-45707312D01*
X141033179Y-46101510D01*
X140970000Y-46236313D01*
X140906821Y-46101510D01*
X140474947Y-45707312D01*
X140059026Y-45535042D01*
X139827000Y-45656183D01*
X139573000Y-45656183D01*
X139340974Y-45535042D01*
X138925053Y-45707312D01*
X138493179Y-46101510D01*
X138430000Y-46236313D01*
X138366821Y-46101510D01*
X137934947Y-45707312D01*
X137519026Y-45535042D01*
X137287000Y-45656183D01*
X137033000Y-45656183D01*
X136800974Y-45535042D01*
X136385053Y-45707312D01*
X135953179Y-46101510D01*
X135890000Y-46236313D01*
X135826821Y-46101510D01*
X135394947Y-45707312D01*
X134979026Y-45535042D01*
X134747000Y-45656183D01*
X134493000Y-45656183D01*
X134260974Y-45535042D01*
X133845053Y-45707312D01*
X133413179Y-46101510D01*
X133350000Y-46236313D01*
X133286821Y-46101510D01*
X132854947Y-45707312D01*
X132439026Y-45535042D01*
X132207000Y-45656183D01*
X131953000Y-45656183D01*
X131720974Y-45535042D01*
X131305053Y-45707312D01*
X130873179Y-46101510D01*
X130810000Y-46236313D01*
X130746821Y-46101510D01*
X130314947Y-45707312D01*
X129899026Y-45535042D01*
X129667000Y-45656183D01*
X129413000Y-45656183D01*
X129180974Y-45535042D01*
X128765053Y-45707312D01*
X128333179Y-46101510D01*
X128270000Y-46236313D01*
X128206821Y-46101510D01*
X127774947Y-45707312D01*
X127359026Y-45535042D01*
X127127000Y-45656183D01*
X126873000Y-45656183D01*
X126640974Y-45535042D01*
X126225053Y-45707312D01*
X125793179Y-46101510D01*
X125730000Y-46236313D01*
X125666821Y-46101510D01*
X125234947Y-45707312D01*
X124819026Y-45535042D01*
X124587000Y-45656183D01*
X124333000Y-45656183D01*
X124100974Y-45535042D01*
X123685053Y-45707312D01*
X123253179Y-46101510D01*
X123190000Y-46236313D01*
X123126821Y-46101510D01*
X122694947Y-45707312D01*
X122279026Y-45535042D01*
X122047000Y-45656183D01*
X121793000Y-45656183D01*
X121560974Y-45535042D01*
X121145053Y-45707312D01*
X120713179Y-46101510D01*
X120465032Y-46630973D01*
X110184000Y-46630973D01*
X110184000Y-40246522D01*
X110820955Y-40246522D01*
X110985225Y-41072362D01*
X111453025Y-41772475D01*
X112153138Y-42240275D01*
X112978978Y-42404545D01*
X113804818Y-42240275D01*
X114504931Y-41772475D01*
X114972731Y-41072362D01*
X115134518Y-40259000D01*
X168796455Y-40259000D01*
X168960725Y-41084840D01*
X169428525Y-41784953D01*
X170128638Y-42252753D01*
X170954478Y-42417023D01*
X171780318Y-42252753D01*
X172480431Y-41784953D01*
X172948231Y-41084840D01*
X173112501Y-40259000D01*
X172948231Y-39433160D01*
X172480431Y-38733047D01*
X171780318Y-38265247D01*
X170954478Y-38100977D01*
X170128638Y-38265247D01*
X169428525Y-38733047D01*
X168960725Y-39433160D01*
X168796455Y-40259000D01*
X115134518Y-40259000D01*
X115137001Y-40246522D01*
X114972731Y-39420682D01*
X114504931Y-38720569D01*
X113804818Y-38252769D01*
X112978978Y-38088499D01*
X112153138Y-38252769D01*
X111453025Y-38720569D01*
X110985225Y-39420682D01*
X110820955Y-40246522D01*
X110184000Y-40246522D01*
X110184000Y-39384401D01*
X110378300Y-38509635D01*
X110856227Y-37827668D01*
X111558749Y-37380509D01*
X112456973Y-37222500D01*
X171626099Y-37222500D01*
X172500865Y-37416800D01*
G36*
X126965946Y-89090147D02*
X127251578Y-89281000D01*
X126965946Y-89471853D01*
X126738298Y-89812553D01*
X126671183Y-89669642D01*
X126242924Y-89279355D01*
X126242899Y-89279345D01*
X126526054Y-89090147D01*
X126746000Y-88760974D01*
X126965946Y-89090147D01*
X126965946Y-89090147D01*
G37*
X126965946Y-89090147D02*
X127251578Y-89281000D01*
X126965946Y-89471853D01*
X126738298Y-89812553D01*
X126671183Y-89669642D01*
X126242924Y-89279355D01*
X126242899Y-89279345D01*
X126526054Y-89090147D01*
X126746000Y-88760974D01*
X126965946Y-89090147D01*
G36*
X132045946Y-89090147D02*
X132331578Y-89281000D01*
X132045946Y-89471853D01*
X131818298Y-89812553D01*
X131751183Y-89669642D01*
X131322924Y-89279355D01*
X131322899Y-89279345D01*
X131606054Y-89090147D01*
X131826000Y-88760974D01*
X132045946Y-89090147D01*
X132045946Y-89090147D01*
G37*
X132045946Y-89090147D02*
X132331578Y-89281000D01*
X132045946Y-89471853D01*
X131818298Y-89812553D01*
X131751183Y-89669642D01*
X131322924Y-89279355D01*
X131322899Y-89279345D01*
X131606054Y-89090147D01*
X131826000Y-88760974D01*
X132045946Y-89090147D01*
G36*
X134440817Y-88892358D02*
X134869076Y-89282645D01*
X134869101Y-89282655D01*
X134585946Y-89471853D01*
X134366000Y-89801026D01*
X134146054Y-89471853D01*
X133860422Y-89281000D01*
X134146054Y-89090147D01*
X134373702Y-88749447D01*
X134440817Y-88892358D01*
X134440817Y-88892358D01*
G37*
X134440817Y-88892358D02*
X134869076Y-89282645D01*
X134869101Y-89282655D01*
X134585946Y-89471853D01*
X134366000Y-89801026D01*
X134146054Y-89471853D01*
X133860422Y-89281000D01*
X134146054Y-89090147D01*
X134373702Y-88749447D01*
X134440817Y-88892358D01*
G36*
X136021100Y-86581208D02*
X135992890Y-86569524D01*
X135763000Y-86690845D01*
X135763000Y-87884000D01*
X135783000Y-87884000D01*
X135783000Y-88138000D01*
X135763000Y-88138000D01*
X135763000Y-88158000D01*
X135509000Y-88158000D01*
X135509000Y-88138000D01*
X135489000Y-88138000D01*
X135489000Y-87884000D01*
X135509000Y-87884000D01*
X135509000Y-86690845D01*
X135279110Y-86569524D01*
X134869076Y-86739355D01*
X134440817Y-87129642D01*
X134373702Y-87272553D01*
X134146054Y-86931853D01*
X133856000Y-86738046D01*
X133856000Y-86109702D01*
X136021100Y-83944602D01*
X136021100Y-86581208D01*
X136021100Y-86581208D01*
G37*
X136021100Y-86581208D02*
X135992890Y-86569524D01*
X135763000Y-86690845D01*
X135763000Y-87884000D01*
X135783000Y-87884000D01*
X135783000Y-88138000D01*
X135763000Y-88138000D01*
X135763000Y-88158000D01*
X135509000Y-88158000D01*
X135509000Y-88138000D01*
X135489000Y-88138000D01*
X135489000Y-87884000D01*
X135509000Y-87884000D01*
X135509000Y-86690845D01*
X135279110Y-86569524D01*
X134869076Y-86739355D01*
X134440817Y-87129642D01*
X134373702Y-87272553D01*
X134146054Y-86931853D01*
X133856000Y-86738046D01*
X133856000Y-86109702D01*
X136021100Y-83944602D01*
X136021100Y-86581208D01*
G36*
X138493179Y-47878490D02*
X138911161Y-48260008D01*
X138640330Y-48440971D01*
X138430000Y-48755752D01*
X138219670Y-48440971D01*
X137948839Y-48260008D01*
X138366821Y-47878490D01*
X138430000Y-47743687D01*
X138493179Y-47878490D01*
X138493179Y-47878490D01*
G37*
X138493179Y-47878490D02*
X138911161Y-48260008D01*
X138640330Y-48440971D01*
X138430000Y-48755752D01*
X138219670Y-48440971D01*
X137948839Y-48260008D01*
X138366821Y-47878490D01*
X138430000Y-47743687D01*
X138493179Y-47878490D01*
M02*
