G04 #@! TF.FileFunction,Legend,Bot*
%FSLAX46Y46*%
G04 Gerber Fmt 4.6, Leading zero omitted, Abs format (unit mm)*
G04 Created by KiCad (PCBNEW 4.0.7) date 08/27/18 14:38:30*
%MOMM*%
%LPD*%
G01*
G04 APERTURE LIST*
%ADD10C,0.100000*%
%ADD11C,0.300000*%
%ADD12C,0.200000*%
%ADD13C,0.120000*%
%ADD14C,0.150000*%
%ADD15C,0.010000*%
G04 APERTURE END LIST*
D10*
D11*
X126641143Y-98338856D02*
X126641143Y-97538856D01*
X125441143Y-98053142D01*
X126241143Y-96567428D02*
X125441143Y-96567428D01*
X126698286Y-96853142D02*
X125841143Y-97138857D01*
X125841143Y-96395999D01*
X125441143Y-95938857D02*
X126641143Y-95938857D01*
X126069714Y-95938857D02*
X126069714Y-95253142D01*
X125441143Y-95253142D02*
X126641143Y-95253142D01*
X125555429Y-93995999D02*
X125498286Y-94053142D01*
X125441143Y-94224571D01*
X125441143Y-94338857D01*
X125498286Y-94510285D01*
X125612571Y-94624571D01*
X125726857Y-94681714D01*
X125955429Y-94738857D01*
X126126857Y-94738857D01*
X126355429Y-94681714D01*
X126469714Y-94624571D01*
X126584000Y-94510285D01*
X126641143Y-94338857D01*
X126641143Y-94224571D01*
X126584000Y-94053142D01*
X126526857Y-93995999D01*
X126641143Y-93253142D02*
X126641143Y-93138857D01*
X126584000Y-93024571D01*
X126526857Y-92967428D01*
X126412571Y-92910285D01*
X126184000Y-92853142D01*
X125898286Y-92853142D01*
X125669714Y-92910285D01*
X125555429Y-92967428D01*
X125498286Y-93024571D01*
X125441143Y-93138857D01*
X125441143Y-93253142D01*
X125498286Y-93367428D01*
X125555429Y-93424571D01*
X125669714Y-93481714D01*
X125898286Y-93538857D01*
X126184000Y-93538857D01*
X126412571Y-93481714D01*
X126526857Y-93424571D01*
X126584000Y-93367428D01*
X126641143Y-93253142D01*
X126641143Y-92453142D02*
X126641143Y-91653142D01*
X125441143Y-92167428D01*
D12*
X107081609Y-101600000D02*
G75*
G03X107081609Y-101600000I-401609J0D01*
G01*
X125496609Y-99060000D02*
G75*
G03X125496609Y-99060000I-401609J0D01*
G01*
X140101609Y-101579391D02*
G75*
G03X140101609Y-101579391I-401609J0D01*
G01*
D11*
X138650714Y-72306571D02*
X138650714Y-71306571D01*
X138650714Y-71449429D02*
X138579286Y-71378000D01*
X138436428Y-71306571D01*
X138222143Y-71306571D01*
X138079286Y-71378000D01*
X138007857Y-71520857D01*
X138007857Y-72306571D01*
X138007857Y-71520857D02*
X137936428Y-71378000D01*
X137793571Y-71306571D01*
X137579286Y-71306571D01*
X137436428Y-71378000D01*
X137365000Y-71520857D01*
X137365000Y-72306571D01*
X136079286Y-72235143D02*
X136222143Y-72306571D01*
X136507857Y-72306571D01*
X136650714Y-72235143D01*
X136722143Y-72092286D01*
X136722143Y-71520857D01*
X136650714Y-71378000D01*
X136507857Y-71306571D01*
X136222143Y-71306571D01*
X136079286Y-71378000D01*
X136007857Y-71520857D01*
X136007857Y-71663714D01*
X136722143Y-71806571D01*
X134793572Y-72235143D02*
X134936429Y-72306571D01*
X135222143Y-72306571D01*
X135365000Y-72235143D01*
X135436429Y-72092286D01*
X135436429Y-71520857D01*
X135365000Y-71378000D01*
X135222143Y-71306571D01*
X134936429Y-71306571D01*
X134793572Y-71378000D01*
X134722143Y-71520857D01*
X134722143Y-71663714D01*
X135436429Y-71806571D01*
X134150715Y-72235143D02*
X134007858Y-72306571D01*
X133722143Y-72306571D01*
X133579286Y-72235143D01*
X133507858Y-72092286D01*
X133507858Y-72020857D01*
X133579286Y-71878000D01*
X133722143Y-71806571D01*
X133936429Y-71806571D01*
X134079286Y-71735143D01*
X134150715Y-71592286D01*
X134150715Y-71520857D01*
X134079286Y-71378000D01*
X133936429Y-71306571D01*
X133722143Y-71306571D01*
X133579286Y-71378000D01*
X132650714Y-72306571D02*
X132793572Y-72235143D01*
X132865000Y-72163714D01*
X132936429Y-72020857D01*
X132936429Y-71592286D01*
X132865000Y-71449429D01*
X132793572Y-71378000D01*
X132650714Y-71306571D01*
X132436429Y-71306571D01*
X132293572Y-71378000D01*
X132222143Y-71449429D01*
X132150714Y-71592286D01*
X132150714Y-72020857D01*
X132222143Y-72163714D01*
X132293572Y-72235143D01*
X132436429Y-72306571D01*
X132650714Y-72306571D01*
X131507857Y-72163714D02*
X131436429Y-72235143D01*
X131507857Y-72306571D01*
X131579286Y-72235143D01*
X131507857Y-72163714D01*
X131507857Y-72306571D01*
X130793571Y-72306571D02*
X130793571Y-70806571D01*
X130650714Y-71735143D02*
X130222143Y-72306571D01*
X130222143Y-71306571D02*
X130793571Y-71878000D01*
X129579285Y-72306571D02*
X129579285Y-71306571D01*
X129579285Y-70806571D02*
X129650714Y-70878000D01*
X129579285Y-70949429D01*
X129507857Y-70878000D01*
X129579285Y-70806571D01*
X129579285Y-70949429D01*
X128864999Y-72306571D02*
X128864999Y-71306571D01*
X128864999Y-71449429D02*
X128793571Y-71378000D01*
X128650713Y-71306571D01*
X128436428Y-71306571D01*
X128293571Y-71378000D01*
X128222142Y-71520857D01*
X128222142Y-72306571D01*
X128222142Y-71520857D02*
X128150713Y-71378000D01*
X128007856Y-71306571D01*
X127793571Y-71306571D01*
X127650713Y-71378000D01*
X127579285Y-71520857D01*
X127579285Y-72306571D01*
X125936428Y-71592286D02*
X126007856Y-71520857D01*
X126150713Y-71449429D01*
X126293571Y-71449429D01*
X126436428Y-71520857D01*
X126507856Y-71592286D01*
X126579285Y-71735143D01*
X126579285Y-71878000D01*
X126507856Y-72020857D01*
X126436428Y-72092286D01*
X126293571Y-72163714D01*
X126150713Y-72163714D01*
X126007856Y-72092286D01*
X125936428Y-72020857D01*
X125936428Y-71449429D02*
X125936428Y-72020857D01*
X125864999Y-72092286D01*
X125793571Y-72092286D01*
X125650713Y-72020857D01*
X125579285Y-71878000D01*
X125579285Y-71520857D01*
X125722142Y-71306571D01*
X125936428Y-71163714D01*
X126222142Y-71092286D01*
X126507856Y-71163714D01*
X126722142Y-71306571D01*
X126864999Y-71520857D01*
X126936428Y-71806571D01*
X126864999Y-72092286D01*
X126722142Y-72306571D01*
X126507856Y-72449429D01*
X126222142Y-72520857D01*
X125936428Y-72449429D01*
X125722142Y-72306571D01*
X124293571Y-71306571D02*
X124293571Y-72520857D01*
X124365000Y-72663714D01*
X124436428Y-72735143D01*
X124579285Y-72806571D01*
X124793571Y-72806571D01*
X124936428Y-72735143D01*
X124293571Y-72235143D02*
X124436428Y-72306571D01*
X124722142Y-72306571D01*
X124865000Y-72235143D01*
X124936428Y-72163714D01*
X125007857Y-72020857D01*
X125007857Y-71592286D01*
X124936428Y-71449429D01*
X124865000Y-71378000D01*
X124722142Y-71306571D01*
X124436428Y-71306571D01*
X124293571Y-71378000D01*
X123579285Y-72306571D02*
X123579285Y-71306571D01*
X123579285Y-71449429D02*
X123507857Y-71378000D01*
X123364999Y-71306571D01*
X123150714Y-71306571D01*
X123007857Y-71378000D01*
X122936428Y-71520857D01*
X122936428Y-72306571D01*
X122936428Y-71520857D02*
X122864999Y-71378000D01*
X122722142Y-71306571D01*
X122507857Y-71306571D01*
X122364999Y-71378000D01*
X122293571Y-71520857D01*
X122293571Y-72306571D01*
X120936428Y-72306571D02*
X120936428Y-71520857D01*
X121007857Y-71378000D01*
X121150714Y-71306571D01*
X121436428Y-71306571D01*
X121579285Y-71378000D01*
X120936428Y-72235143D02*
X121079285Y-72306571D01*
X121436428Y-72306571D01*
X121579285Y-72235143D01*
X121650714Y-72092286D01*
X121650714Y-71949429D01*
X121579285Y-71806571D01*
X121436428Y-71735143D01*
X121079285Y-71735143D01*
X120936428Y-71663714D01*
X120222142Y-72306571D02*
X120222142Y-71306571D01*
X120222142Y-70806571D02*
X120293571Y-70878000D01*
X120222142Y-70949429D01*
X120150714Y-70878000D01*
X120222142Y-70806571D01*
X120222142Y-70949429D01*
X119293570Y-72306571D02*
X119436428Y-72235143D01*
X119507856Y-72092286D01*
X119507856Y-70806571D01*
X118722142Y-72163714D02*
X118650714Y-72235143D01*
X118722142Y-72306571D01*
X118793571Y-72235143D01*
X118722142Y-72163714D01*
X118722142Y-72306571D01*
X117364999Y-72235143D02*
X117507856Y-72306571D01*
X117793570Y-72306571D01*
X117936428Y-72235143D01*
X118007856Y-72163714D01*
X118079285Y-72020857D01*
X118079285Y-71592286D01*
X118007856Y-71449429D01*
X117936428Y-71378000D01*
X117793570Y-71306571D01*
X117507856Y-71306571D01*
X117364999Y-71378000D01*
X116507856Y-72306571D02*
X116650714Y-72235143D01*
X116722142Y-72163714D01*
X116793571Y-72020857D01*
X116793571Y-71592286D01*
X116722142Y-71449429D01*
X116650714Y-71378000D01*
X116507856Y-71306571D01*
X116293571Y-71306571D01*
X116150714Y-71378000D01*
X116079285Y-71449429D01*
X116007856Y-71592286D01*
X116007856Y-72020857D01*
X116079285Y-72163714D01*
X116150714Y-72235143D01*
X116293571Y-72306571D01*
X116507856Y-72306571D01*
X115364999Y-72306571D02*
X115364999Y-71306571D01*
X115364999Y-71449429D02*
X115293571Y-71378000D01*
X115150713Y-71306571D01*
X114936428Y-71306571D01*
X114793571Y-71378000D01*
X114722142Y-71520857D01*
X114722142Y-72306571D01*
X114722142Y-71520857D02*
X114650713Y-71378000D01*
X114507856Y-71306571D01*
X114293571Y-71306571D01*
X114150713Y-71378000D01*
X114079285Y-71520857D01*
X114079285Y-72306571D01*
X110041429Y-100650856D02*
X110041429Y-99650856D01*
X108541429Y-100293713D01*
X109541429Y-98436571D02*
X108541429Y-98436571D01*
X110112857Y-98793714D02*
X109041429Y-99150857D01*
X109041429Y-98222285D01*
X108541429Y-97650857D02*
X110041429Y-97650857D01*
X109327143Y-97650857D02*
X109327143Y-96793714D01*
X108541429Y-96793714D02*
X110041429Y-96793714D01*
X108684286Y-95222285D02*
X108612857Y-95293714D01*
X108541429Y-95508000D01*
X108541429Y-95650857D01*
X108612857Y-95865142D01*
X108755714Y-96008000D01*
X108898571Y-96079428D01*
X109184286Y-96150857D01*
X109398571Y-96150857D01*
X109684286Y-96079428D01*
X109827143Y-96008000D01*
X109970000Y-95865142D01*
X110041429Y-95650857D01*
X110041429Y-95508000D01*
X109970000Y-95293714D01*
X109898571Y-95222285D01*
X109898571Y-94650857D02*
X109970000Y-94579428D01*
X110041429Y-94436571D01*
X110041429Y-94079428D01*
X109970000Y-93936571D01*
X109898571Y-93865142D01*
X109755714Y-93793714D01*
X109612857Y-93793714D01*
X109398571Y-93865142D01*
X108541429Y-94722285D01*
X108541429Y-93793714D01*
X109541429Y-92508000D02*
X108541429Y-92508000D01*
X110112857Y-92865143D02*
X109041429Y-93222286D01*
X109041429Y-92293714D01*
X109541429Y-91079429D02*
X108541429Y-91079429D01*
X110112857Y-91436572D02*
X109041429Y-91793715D01*
X109041429Y-90865143D01*
X143569429Y-100777856D02*
X143569429Y-99777856D01*
X142069429Y-100420713D01*
X143069429Y-98563571D02*
X142069429Y-98563571D01*
X143640857Y-98920714D02*
X142569429Y-99277857D01*
X142569429Y-98349285D01*
X142069429Y-97777857D02*
X143569429Y-97777857D01*
X142855143Y-97777857D02*
X142855143Y-96920714D01*
X142069429Y-96920714D02*
X143569429Y-96920714D01*
X142212286Y-95349285D02*
X142140857Y-95420714D01*
X142069429Y-95635000D01*
X142069429Y-95777857D01*
X142140857Y-95992142D01*
X142283714Y-96135000D01*
X142426571Y-96206428D01*
X142712286Y-96277857D01*
X142926571Y-96277857D01*
X143212286Y-96206428D01*
X143355143Y-96135000D01*
X143498000Y-95992142D01*
X143569429Y-95777857D01*
X143569429Y-95635000D01*
X143498000Y-95420714D01*
X143426571Y-95349285D01*
X143426571Y-94777857D02*
X143498000Y-94706428D01*
X143569429Y-94563571D01*
X143569429Y-94206428D01*
X143498000Y-94063571D01*
X143426571Y-93992142D01*
X143283714Y-93920714D01*
X143140857Y-93920714D01*
X142926571Y-93992142D01*
X142069429Y-94849285D01*
X142069429Y-93920714D01*
X143069429Y-92635000D02*
X142069429Y-92635000D01*
X143640857Y-92992143D02*
X142569429Y-93349286D01*
X142569429Y-92420714D01*
X143069429Y-91206429D02*
X142069429Y-91206429D01*
X143640857Y-91563572D02*
X142569429Y-91920715D01*
X142569429Y-90992143D01*
D13*
X148184000Y-111548000D02*
X99864000Y-111548000D01*
X99864000Y-111548000D02*
X99864000Y-116748000D01*
X99864000Y-116748000D02*
X150784000Y-116748000D01*
X150784000Y-116748000D02*
X150784000Y-114148000D01*
X150784000Y-114148000D02*
X148184000Y-114148000D01*
X148184000Y-114148000D02*
X148184000Y-111548000D01*
X149454000Y-111548000D02*
X150784000Y-111548000D01*
X150784000Y-111548000D02*
X150784000Y-112818000D01*
D14*
X124130000Y-99700000D02*
X124130000Y-99675000D01*
X128280000Y-99700000D02*
X128280000Y-99585000D01*
X128280000Y-90800000D02*
X128280000Y-90915000D01*
X124130000Y-90800000D02*
X124130000Y-90915000D01*
X124130000Y-99700000D02*
X128280000Y-99700000D01*
X124130000Y-90800000D02*
X128280000Y-90800000D01*
X124130000Y-99675000D02*
X122755000Y-99675000D01*
D13*
X154880000Y-74659600D02*
X153680000Y-74659600D01*
X153680000Y-76419600D02*
X154880000Y-76419600D01*
X97221600Y-70240000D02*
X96021600Y-70240000D01*
X96021600Y-72000000D02*
X97221600Y-72000000D01*
X97120000Y-74608800D02*
X95920000Y-74608800D01*
X95920000Y-76368800D02*
X97120000Y-76368800D01*
X154930000Y-70290800D02*
X153730000Y-70290800D01*
X153730000Y-72050800D02*
X154930000Y-72050800D01*
D14*
X138620000Y-102460000D02*
X138620000Y-102210000D01*
X146370000Y-102460000D02*
X146370000Y-102125000D01*
X146370000Y-89310000D02*
X146370000Y-89645000D01*
X138620000Y-89310000D02*
X138620000Y-89645000D01*
X138620000Y-102460000D02*
X146370000Y-102460000D01*
X138620000Y-89310000D02*
X146370000Y-89310000D01*
X138620000Y-102210000D02*
X136820000Y-102210000D01*
X105725000Y-102460000D02*
X105725000Y-102210000D01*
X113475000Y-102460000D02*
X113475000Y-102125000D01*
X113475000Y-89310000D02*
X113475000Y-89645000D01*
X105725000Y-89310000D02*
X105725000Y-89645000D01*
X105725000Y-102460000D02*
X113475000Y-102460000D01*
X105725000Y-89310000D02*
X113475000Y-89310000D01*
X105725000Y-102210000D02*
X103925000Y-102210000D01*
D15*
G36*
X125240990Y-82019463D02*
X124626222Y-82020592D01*
X124115540Y-82024137D01*
X123697487Y-82031460D01*
X123360607Y-82043922D01*
X123093443Y-82062884D01*
X122884537Y-82089706D01*
X122722434Y-82125750D01*
X122595676Y-82172377D01*
X122492806Y-82230949D01*
X122402368Y-82302825D01*
X122312906Y-82389369D01*
X122241739Y-82462476D01*
X122148244Y-82560884D01*
X122070474Y-82654878D01*
X122007068Y-82756592D01*
X121956666Y-82878163D01*
X121917907Y-83031725D01*
X121889430Y-83229415D01*
X121869874Y-83483367D01*
X121857879Y-83805717D01*
X121852084Y-84208601D01*
X121851128Y-84704153D01*
X121853650Y-85304510D01*
X121857404Y-85890100D01*
X121875550Y-88588850D01*
X122055253Y-88853647D01*
X122226158Y-89058950D01*
X122435101Y-89250551D01*
X122499753Y-89298147D01*
X122764550Y-89477850D01*
X125881399Y-89495436D01*
X128998247Y-89513022D01*
X129341168Y-89333878D01*
X129621647Y-89150180D01*
X129829575Y-88915801D01*
X129875570Y-88845121D01*
X130067050Y-88535509D01*
X130078025Y-87048151D01*
X128631511Y-87048151D01*
X128604751Y-87100569D01*
X128511300Y-87160100D01*
X128446577Y-87210429D01*
X128408219Y-87295290D01*
X128389668Y-87444090D01*
X128384360Y-87686232D01*
X128384300Y-87729298D01*
X128380494Y-87997546D01*
X128356498Y-88186777D01*
X128293449Y-88310776D01*
X128172485Y-88383326D01*
X127974740Y-88418213D01*
X127681351Y-88429220D01*
X127425272Y-88430100D01*
X127093467Y-88427428D01*
X126868048Y-88417731D01*
X126728480Y-88398484D01*
X126654231Y-88367163D01*
X126628213Y-88332111D01*
X126615660Y-88225865D01*
X126629869Y-88194864D01*
X126705649Y-88180176D01*
X126880803Y-88170560D01*
X127127771Y-88166973D01*
X127367964Y-88169267D01*
X128066800Y-88182928D01*
X128066800Y-87799865D01*
X127480151Y-87781607D01*
X127198899Y-87769593D01*
X127020849Y-87751387D01*
X126922211Y-87721925D01*
X126879191Y-87676143D01*
X126872245Y-87652225D01*
X126874489Y-87600598D01*
X126919896Y-87567877D01*
X127030629Y-87549863D01*
X127228850Y-87542358D01*
X127458894Y-87541100D01*
X127739648Y-87540019D01*
X127917100Y-87532650D01*
X128014947Y-87512805D01*
X128056888Y-87474296D01*
X128066619Y-87410934D01*
X128066800Y-87382350D01*
X128066411Y-87375089D01*
X125442388Y-87375089D01*
X125345190Y-87483170D01*
X125226039Y-87549951D01*
X125063459Y-87574418D01*
X124842961Y-87565787D01*
X124645497Y-87553049D01*
X124556827Y-87558939D01*
X124559622Y-87587198D01*
X124600478Y-87618125D01*
X124828451Y-87819588D01*
X124947764Y-88035003D01*
X124954417Y-88248209D01*
X124844410Y-88443044D01*
X124812425Y-88474448D01*
X124584940Y-88632006D01*
X124354158Y-88676603D01*
X124085828Y-88613683D01*
X124043450Y-88596660D01*
X123838077Y-88455592D01*
X123732389Y-88264861D01*
X123726127Y-88053167D01*
X123819030Y-87849206D01*
X124010841Y-87681677D01*
X124051911Y-87659560D01*
X124171581Y-87583628D01*
X124178087Y-87529508D01*
X124067716Y-87495368D01*
X123836759Y-87479372D01*
X123683855Y-87477600D01*
X123422150Y-87460223D01*
X123281879Y-87408243D01*
X123263387Y-87321886D01*
X123321986Y-87242200D01*
X123379983Y-87200476D01*
X123466556Y-87179227D01*
X123607005Y-87177903D01*
X123826633Y-87195959D01*
X124089837Y-87225585D01*
X124408318Y-87256036D01*
X124717202Y-87273029D01*
X124971743Y-87274666D01*
X125078869Y-87267593D01*
X125307236Y-87259147D01*
X125430428Y-87296614D01*
X125442388Y-87375089D01*
X128066411Y-87375089D01*
X128062936Y-87310307D01*
X128035885Y-87264219D01*
X127962459Y-87238286D01*
X127819473Y-87226714D01*
X127583740Y-87223705D01*
X127431800Y-87223600D01*
X127142788Y-87221856D01*
X126957774Y-87213562D01*
X126853771Y-87194120D01*
X126807793Y-87158932D01*
X126796852Y-87103401D01*
X126796800Y-87096600D01*
X126803213Y-87047083D01*
X126835239Y-87012438D01*
X126912061Y-86990018D01*
X127052864Y-86977176D01*
X127276830Y-86971267D01*
X127603144Y-86969646D01*
X127717550Y-86969600D01*
X128115655Y-86973521D01*
X128395196Y-86986603D01*
X128564404Y-87010821D01*
X128631511Y-87048151D01*
X130078025Y-87048151D01*
X130079779Y-86810341D01*
X124829337Y-86810341D01*
X124778441Y-86914958D01*
X124687171Y-86997749D01*
X124513068Y-87067955D01*
X124292900Y-87093973D01*
X124089986Y-87071992D01*
X124009422Y-87038536D01*
X123936011Y-86949694D01*
X123970176Y-86864397D01*
X124093374Y-86801121D01*
X124270683Y-86778232D01*
X124478393Y-86768717D01*
X124654239Y-86746186D01*
X124685425Y-86739076D01*
X124798263Y-86741441D01*
X124829337Y-86810341D01*
X130079779Y-86810341D01*
X130086533Y-85895179D01*
X130090582Y-85127361D01*
X130090426Y-84482951D01*
X130086004Y-83958422D01*
X130077253Y-83550250D01*
X130064109Y-83254909D01*
X130061764Y-83230117D01*
X128697075Y-83230117D01*
X128647252Y-83305374D01*
X128582060Y-83346215D01*
X128513793Y-83409357D01*
X128470975Y-83528658D01*
X128445160Y-83733483D01*
X128437549Y-83848660D01*
X128420637Y-84090105D01*
X128388842Y-84262169D01*
X128323100Y-84376603D01*
X128204350Y-84445161D01*
X128013529Y-84479595D01*
X127731575Y-84491657D01*
X127392275Y-84493100D01*
X127049261Y-84491959D01*
X126813346Y-84486633D01*
X126664639Y-84474267D01*
X126583246Y-84452003D01*
X126549274Y-84416987D01*
X126542800Y-84371145D01*
X126597692Y-84267255D01*
X126737258Y-84206983D01*
X126923836Y-84199846D01*
X127075653Y-84236477D01*
X127232150Y-84271796D01*
X127460157Y-84295787D01*
X127658184Y-84302600D01*
X128066800Y-84302600D01*
X128066800Y-83853925D01*
X128076682Y-83544770D01*
X128113826Y-83341221D01*
X128189482Y-83222897D01*
X128191714Y-83221945D01*
X125463300Y-83221945D01*
X125443282Y-83260376D01*
X125351752Y-83346561D01*
X125341743Y-83354963D01*
X125263541Y-83411076D01*
X125173981Y-83445160D01*
X125045435Y-83459976D01*
X124850275Y-83458286D01*
X124560872Y-83442852D01*
X124500368Y-83439063D01*
X123812300Y-83395524D01*
X123812300Y-84039562D01*
X123809325Y-84337296D01*
X123798290Y-84529155D01*
X123776034Y-84636166D01*
X123739396Y-84679359D01*
X123715479Y-84683600D01*
X123623855Y-84630427D01*
X123556729Y-84520716D01*
X123528962Y-84385151D01*
X123507635Y-84161999D01*
X123496008Y-83890631D01*
X123494800Y-83772511D01*
X123494800Y-83187190D01*
X124463175Y-83201878D01*
X124800692Y-83207302D01*
X125091248Y-83212550D01*
X125312115Y-83217165D01*
X125440564Y-83220691D01*
X125463300Y-83221945D01*
X128191714Y-83221945D01*
X128314898Y-83169417D01*
X128450035Y-83159600D01*
X128629309Y-83178661D01*
X128697075Y-83230117D01*
X130061764Y-83230117D01*
X130046509Y-83068873D01*
X130035176Y-83012777D01*
X129909926Y-82751708D01*
X129702840Y-82487538D01*
X129451124Y-82261413D01*
X129241550Y-82135069D01*
X129174843Y-82108167D01*
X129095650Y-82085766D01*
X128992440Y-82067458D01*
X128853684Y-82052835D01*
X128667849Y-82041489D01*
X128423407Y-82033012D01*
X128108826Y-82026996D01*
X127712575Y-82023034D01*
X127223124Y-82020718D01*
X126628943Y-82019639D01*
X125971300Y-82019389D01*
X125240990Y-82019463D01*
X125240990Y-82019463D01*
G37*
X125240990Y-82019463D02*
X124626222Y-82020592D01*
X124115540Y-82024137D01*
X123697487Y-82031460D01*
X123360607Y-82043922D01*
X123093443Y-82062884D01*
X122884537Y-82089706D01*
X122722434Y-82125750D01*
X122595676Y-82172377D01*
X122492806Y-82230949D01*
X122402368Y-82302825D01*
X122312906Y-82389369D01*
X122241739Y-82462476D01*
X122148244Y-82560884D01*
X122070474Y-82654878D01*
X122007068Y-82756592D01*
X121956666Y-82878163D01*
X121917907Y-83031725D01*
X121889430Y-83229415D01*
X121869874Y-83483367D01*
X121857879Y-83805717D01*
X121852084Y-84208601D01*
X121851128Y-84704153D01*
X121853650Y-85304510D01*
X121857404Y-85890100D01*
X121875550Y-88588850D01*
X122055253Y-88853647D01*
X122226158Y-89058950D01*
X122435101Y-89250551D01*
X122499753Y-89298147D01*
X122764550Y-89477850D01*
X125881399Y-89495436D01*
X128998247Y-89513022D01*
X129341168Y-89333878D01*
X129621647Y-89150180D01*
X129829575Y-88915801D01*
X129875570Y-88845121D01*
X130067050Y-88535509D01*
X130078025Y-87048151D01*
X128631511Y-87048151D01*
X128604751Y-87100569D01*
X128511300Y-87160100D01*
X128446577Y-87210429D01*
X128408219Y-87295290D01*
X128389668Y-87444090D01*
X128384360Y-87686232D01*
X128384300Y-87729298D01*
X128380494Y-87997546D01*
X128356498Y-88186777D01*
X128293449Y-88310776D01*
X128172485Y-88383326D01*
X127974740Y-88418213D01*
X127681351Y-88429220D01*
X127425272Y-88430100D01*
X127093467Y-88427428D01*
X126868048Y-88417731D01*
X126728480Y-88398484D01*
X126654231Y-88367163D01*
X126628213Y-88332111D01*
X126615660Y-88225865D01*
X126629869Y-88194864D01*
X126705649Y-88180176D01*
X126880803Y-88170560D01*
X127127771Y-88166973D01*
X127367964Y-88169267D01*
X128066800Y-88182928D01*
X128066800Y-87799865D01*
X127480151Y-87781607D01*
X127198899Y-87769593D01*
X127020849Y-87751387D01*
X126922211Y-87721925D01*
X126879191Y-87676143D01*
X126872245Y-87652225D01*
X126874489Y-87600598D01*
X126919896Y-87567877D01*
X127030629Y-87549863D01*
X127228850Y-87542358D01*
X127458894Y-87541100D01*
X127739648Y-87540019D01*
X127917100Y-87532650D01*
X128014947Y-87512805D01*
X128056888Y-87474296D01*
X128066619Y-87410934D01*
X128066800Y-87382350D01*
X128066411Y-87375089D01*
X125442388Y-87375089D01*
X125345190Y-87483170D01*
X125226039Y-87549951D01*
X125063459Y-87574418D01*
X124842961Y-87565787D01*
X124645497Y-87553049D01*
X124556827Y-87558939D01*
X124559622Y-87587198D01*
X124600478Y-87618125D01*
X124828451Y-87819588D01*
X124947764Y-88035003D01*
X124954417Y-88248209D01*
X124844410Y-88443044D01*
X124812425Y-88474448D01*
X124584940Y-88632006D01*
X124354158Y-88676603D01*
X124085828Y-88613683D01*
X124043450Y-88596660D01*
X123838077Y-88455592D01*
X123732389Y-88264861D01*
X123726127Y-88053167D01*
X123819030Y-87849206D01*
X124010841Y-87681677D01*
X124051911Y-87659560D01*
X124171581Y-87583628D01*
X124178087Y-87529508D01*
X124067716Y-87495368D01*
X123836759Y-87479372D01*
X123683855Y-87477600D01*
X123422150Y-87460223D01*
X123281879Y-87408243D01*
X123263387Y-87321886D01*
X123321986Y-87242200D01*
X123379983Y-87200476D01*
X123466556Y-87179227D01*
X123607005Y-87177903D01*
X123826633Y-87195959D01*
X124089837Y-87225585D01*
X124408318Y-87256036D01*
X124717202Y-87273029D01*
X124971743Y-87274666D01*
X125078869Y-87267593D01*
X125307236Y-87259147D01*
X125430428Y-87296614D01*
X125442388Y-87375089D01*
X128066411Y-87375089D01*
X128062936Y-87310307D01*
X128035885Y-87264219D01*
X127962459Y-87238286D01*
X127819473Y-87226714D01*
X127583740Y-87223705D01*
X127431800Y-87223600D01*
X127142788Y-87221856D01*
X126957774Y-87213562D01*
X126853771Y-87194120D01*
X126807793Y-87158932D01*
X126796852Y-87103401D01*
X126796800Y-87096600D01*
X126803213Y-87047083D01*
X126835239Y-87012438D01*
X126912061Y-86990018D01*
X127052864Y-86977176D01*
X127276830Y-86971267D01*
X127603144Y-86969646D01*
X127717550Y-86969600D01*
X128115655Y-86973521D01*
X128395196Y-86986603D01*
X128564404Y-87010821D01*
X128631511Y-87048151D01*
X130078025Y-87048151D01*
X130079779Y-86810341D01*
X124829337Y-86810341D01*
X124778441Y-86914958D01*
X124687171Y-86997749D01*
X124513068Y-87067955D01*
X124292900Y-87093973D01*
X124089986Y-87071992D01*
X124009422Y-87038536D01*
X123936011Y-86949694D01*
X123970176Y-86864397D01*
X124093374Y-86801121D01*
X124270683Y-86778232D01*
X124478393Y-86768717D01*
X124654239Y-86746186D01*
X124685425Y-86739076D01*
X124798263Y-86741441D01*
X124829337Y-86810341D01*
X130079779Y-86810341D01*
X130086533Y-85895179D01*
X130090582Y-85127361D01*
X130090426Y-84482951D01*
X130086004Y-83958422D01*
X130077253Y-83550250D01*
X130064109Y-83254909D01*
X130061764Y-83230117D01*
X128697075Y-83230117D01*
X128647252Y-83305374D01*
X128582060Y-83346215D01*
X128513793Y-83409357D01*
X128470975Y-83528658D01*
X128445160Y-83733483D01*
X128437549Y-83848660D01*
X128420637Y-84090105D01*
X128388842Y-84262169D01*
X128323100Y-84376603D01*
X128204350Y-84445161D01*
X128013529Y-84479595D01*
X127731575Y-84491657D01*
X127392275Y-84493100D01*
X127049261Y-84491959D01*
X126813346Y-84486633D01*
X126664639Y-84474267D01*
X126583246Y-84452003D01*
X126549274Y-84416987D01*
X126542800Y-84371145D01*
X126597692Y-84267255D01*
X126737258Y-84206983D01*
X126923836Y-84199846D01*
X127075653Y-84236477D01*
X127232150Y-84271796D01*
X127460157Y-84295787D01*
X127658184Y-84302600D01*
X128066800Y-84302600D01*
X128066800Y-83853925D01*
X128076682Y-83544770D01*
X128113826Y-83341221D01*
X128189482Y-83222897D01*
X128191714Y-83221945D01*
X125463300Y-83221945D01*
X125443282Y-83260376D01*
X125351752Y-83346561D01*
X125341743Y-83354963D01*
X125263541Y-83411076D01*
X125173981Y-83445160D01*
X125045435Y-83459976D01*
X124850275Y-83458286D01*
X124560872Y-83442852D01*
X124500368Y-83439063D01*
X123812300Y-83395524D01*
X123812300Y-84039562D01*
X123809325Y-84337296D01*
X123798290Y-84529155D01*
X123776034Y-84636166D01*
X123739396Y-84679359D01*
X123715479Y-84683600D01*
X123623855Y-84630427D01*
X123556729Y-84520716D01*
X123528962Y-84385151D01*
X123507635Y-84161999D01*
X123496008Y-83890631D01*
X123494800Y-83772511D01*
X123494800Y-83187190D01*
X124463175Y-83201878D01*
X124800692Y-83207302D01*
X125091248Y-83212550D01*
X125312115Y-83217165D01*
X125440564Y-83220691D01*
X125463300Y-83221945D01*
X128191714Y-83221945D01*
X128314898Y-83169417D01*
X128450035Y-83159600D01*
X128629309Y-83178661D01*
X128697075Y-83230117D01*
X130061764Y-83230117D01*
X130046509Y-83068873D01*
X130035176Y-83012777D01*
X129909926Y-82751708D01*
X129702840Y-82487538D01*
X129451124Y-82261413D01*
X129241550Y-82135069D01*
X129174843Y-82108167D01*
X129095650Y-82085766D01*
X128992440Y-82067458D01*
X128853684Y-82052835D01*
X128667849Y-82041489D01*
X128423407Y-82033012D01*
X128108826Y-82026996D01*
X127712575Y-82023034D01*
X127223124Y-82020718D01*
X126628943Y-82019639D01*
X125971300Y-82019389D01*
X125240990Y-82019463D01*
G36*
X124242936Y-87836993D02*
X124118885Y-87933742D01*
X124024677Y-88041945D01*
X124002800Y-88098470D01*
X124035865Y-88182447D01*
X124101651Y-88288970D01*
X124242355Y-88401239D01*
X124413608Y-88424903D01*
X124561600Y-88353900D01*
X124630302Y-88209656D01*
X124614977Y-88039707D01*
X124532807Y-87888898D01*
X124400971Y-87802075D01*
X124347515Y-87795100D01*
X124242936Y-87836993D01*
X124242936Y-87836993D01*
G37*
X124242936Y-87836993D02*
X124118885Y-87933742D01*
X124024677Y-88041945D01*
X124002800Y-88098470D01*
X124035865Y-88182447D01*
X124101651Y-88288970D01*
X124242355Y-88401239D01*
X124413608Y-88424903D01*
X124561600Y-88353900D01*
X124630302Y-88209656D01*
X124614977Y-88039707D01*
X124532807Y-87888898D01*
X124400971Y-87802075D01*
X124347515Y-87795100D01*
X124242936Y-87836993D01*
D14*
X151236381Y-113814667D02*
X151950667Y-113814667D01*
X152093524Y-113767047D01*
X152188762Y-113671809D01*
X152236381Y-113528952D01*
X152236381Y-113433714D01*
X152236381Y-114814667D02*
X152236381Y-114243238D01*
X152236381Y-114528952D02*
X151236381Y-114528952D01*
X151379238Y-114433714D01*
X151474476Y-114338476D01*
X151522095Y-114243238D01*
X126966905Y-100077381D02*
X126966905Y-100886905D01*
X126919286Y-100982143D01*
X126871667Y-101029762D01*
X126776429Y-101077381D01*
X126585952Y-101077381D01*
X126490714Y-101029762D01*
X126443095Y-100982143D01*
X126395476Y-100886905D01*
X126395476Y-100077381D01*
X126014524Y-100077381D02*
X125347857Y-100077381D01*
X125776429Y-101077381D01*
X154446666Y-77691981D02*
X154780000Y-77215790D01*
X155018095Y-77691981D02*
X155018095Y-76691981D01*
X154637142Y-76691981D01*
X154541904Y-76739600D01*
X154494285Y-76787219D01*
X154446666Y-76882457D01*
X154446666Y-77025314D01*
X154494285Y-77120552D01*
X154541904Y-77168171D01*
X154637142Y-77215790D01*
X155018095Y-77215790D01*
X153494285Y-77691981D02*
X154065714Y-77691981D01*
X153780000Y-77691981D02*
X153780000Y-76691981D01*
X153875238Y-76834838D01*
X153970476Y-76930076D01*
X154065714Y-76977695D01*
X96788266Y-73272381D02*
X97121600Y-72796190D01*
X97359695Y-73272381D02*
X97359695Y-72272381D01*
X96978742Y-72272381D01*
X96883504Y-72320000D01*
X96835885Y-72367619D01*
X96788266Y-72462857D01*
X96788266Y-72605714D01*
X96835885Y-72700952D01*
X96883504Y-72748571D01*
X96978742Y-72796190D01*
X97359695Y-72796190D01*
X96407314Y-72367619D02*
X96359695Y-72320000D01*
X96264457Y-72272381D01*
X96026361Y-72272381D01*
X95931123Y-72320000D01*
X95883504Y-72367619D01*
X95835885Y-72462857D01*
X95835885Y-72558095D01*
X95883504Y-72700952D01*
X96454933Y-73272381D01*
X95835885Y-73272381D01*
X96686666Y-77641181D02*
X97020000Y-77164990D01*
X97258095Y-77641181D02*
X97258095Y-76641181D01*
X96877142Y-76641181D01*
X96781904Y-76688800D01*
X96734285Y-76736419D01*
X96686666Y-76831657D01*
X96686666Y-76974514D01*
X96734285Y-77069752D01*
X96781904Y-77117371D01*
X96877142Y-77164990D01*
X97258095Y-77164990D01*
X96353333Y-76641181D02*
X95734285Y-76641181D01*
X96067619Y-77022133D01*
X95924761Y-77022133D01*
X95829523Y-77069752D01*
X95781904Y-77117371D01*
X95734285Y-77212610D01*
X95734285Y-77450705D01*
X95781904Y-77545943D01*
X95829523Y-77593562D01*
X95924761Y-77641181D01*
X96210476Y-77641181D01*
X96305714Y-77593562D01*
X96353333Y-77545943D01*
X154496666Y-73323181D02*
X154830000Y-72846990D01*
X155068095Y-73323181D02*
X155068095Y-72323181D01*
X154687142Y-72323181D01*
X154591904Y-72370800D01*
X154544285Y-72418419D01*
X154496666Y-72513657D01*
X154496666Y-72656514D01*
X154544285Y-72751752D01*
X154591904Y-72799371D01*
X154687142Y-72846990D01*
X155068095Y-72846990D01*
X153639523Y-72656514D02*
X153639523Y-73323181D01*
X153877619Y-72275562D02*
X154115714Y-72989848D01*
X153496666Y-72989848D01*
X143256905Y-102837381D02*
X143256905Y-103646905D01*
X143209286Y-103742143D01*
X143161667Y-103789762D01*
X143066429Y-103837381D01*
X142875952Y-103837381D01*
X142780714Y-103789762D01*
X142733095Y-103742143D01*
X142685476Y-103646905D01*
X142685476Y-102837381D01*
X142256905Y-102932619D02*
X142209286Y-102885000D01*
X142114048Y-102837381D01*
X141875952Y-102837381D01*
X141780714Y-102885000D01*
X141733095Y-102932619D01*
X141685476Y-103027857D01*
X141685476Y-103123095D01*
X141733095Y-103265952D01*
X142304524Y-103837381D01*
X141685476Y-103837381D01*
X110361905Y-102837381D02*
X110361905Y-103646905D01*
X110314286Y-103742143D01*
X110266667Y-103789762D01*
X110171429Y-103837381D01*
X109980952Y-103837381D01*
X109885714Y-103789762D01*
X109838095Y-103742143D01*
X109790476Y-103646905D01*
X109790476Y-102837381D01*
X109409524Y-102837381D02*
X108790476Y-102837381D01*
X109123810Y-103218333D01*
X108980952Y-103218333D01*
X108885714Y-103265952D01*
X108838095Y-103313571D01*
X108790476Y-103408810D01*
X108790476Y-103646905D01*
X108838095Y-103742143D01*
X108885714Y-103789762D01*
X108980952Y-103837381D01*
X109266667Y-103837381D01*
X109361905Y-103789762D01*
X109409524Y-103742143D01*
M02*
