G04 #@! TF.FileFunction,Soldermask,Bot*
%FSLAX46Y46*%
G04 Gerber Fmt 4.6, Leading zero omitted, Abs format (unit mm)*
G04 Created by KiCad (PCBNEW 4.0.7) date 11/27/18 00:48:43*
%MOMM*%
%LPD*%
G01*
G04 APERTURE LIST*
%ADD10C,0.100000*%
%ADD11R,2.100000X2.400000*%
%ADD12O,2.100000X2.400000*%
%ADD13R,2.100000X2.100000*%
%ADD14O,2.100000X2.100000*%
%ADD15R,1.900000X1.000000*%
%ADD16R,1.700000X1.900000*%
%ADD17R,2.350000X1.000000*%
G04 APERTURE END LIST*
D10*
D11*
X101079000Y-79832200D03*
D12*
X149339000Y-64592200D03*
X103619000Y-79832200D03*
X146799000Y-64592200D03*
X106159000Y-79832200D03*
X144259000Y-64592200D03*
X108699000Y-79832200D03*
X141719000Y-64592200D03*
X111239000Y-79832200D03*
X139179000Y-64592200D03*
X113779000Y-79832200D03*
X136639000Y-64592200D03*
X116319000Y-79832200D03*
X134099000Y-64592200D03*
X118859000Y-79832200D03*
X131559000Y-64592200D03*
X121399000Y-79832200D03*
X129019000Y-64592200D03*
X123939000Y-79832200D03*
X126479000Y-64592200D03*
X126479000Y-79832200D03*
X123939000Y-64592200D03*
X129019000Y-79832200D03*
X121399000Y-64592200D03*
X131559000Y-79832200D03*
X118859000Y-64592200D03*
X134099000Y-79832200D03*
X116319000Y-64592200D03*
X136639000Y-79832200D03*
X113779000Y-64592200D03*
X139179000Y-79832200D03*
X111239000Y-64592200D03*
X141719000Y-79832200D03*
X108699000Y-64592200D03*
X144259000Y-79832200D03*
X106159000Y-64592200D03*
X146799000Y-79832200D03*
X103619000Y-64592200D03*
X149339000Y-79832200D03*
X101079000Y-64592200D03*
D13*
X149454000Y-112878000D03*
D14*
X149454000Y-115418000D03*
X146914000Y-112878000D03*
X146914000Y-115418000D03*
X144374000Y-112878000D03*
X144374000Y-115418000D03*
X141834000Y-112878000D03*
X141834000Y-115418000D03*
X139294000Y-112878000D03*
X139294000Y-115418000D03*
X136754000Y-112878000D03*
X136754000Y-115418000D03*
X134214000Y-112878000D03*
X134214000Y-115418000D03*
X131674000Y-112878000D03*
X131674000Y-115418000D03*
X129134000Y-112878000D03*
X129134000Y-115418000D03*
X126594000Y-112878000D03*
X126594000Y-115418000D03*
X124054000Y-112878000D03*
X124054000Y-115418000D03*
X121514000Y-112878000D03*
X121514000Y-115418000D03*
X118974000Y-112878000D03*
X118974000Y-115418000D03*
X116434000Y-112878000D03*
X116434000Y-115418000D03*
X113894000Y-112878000D03*
X113894000Y-115418000D03*
X111354000Y-112878000D03*
X111354000Y-115418000D03*
X108814000Y-112878000D03*
X108814000Y-115418000D03*
X106274000Y-112878000D03*
X106274000Y-115418000D03*
X103734000Y-112878000D03*
X103734000Y-115418000D03*
X101194000Y-112878000D03*
X101194000Y-115418000D03*
D15*
X123505000Y-99060000D03*
X123505000Y-97790000D03*
X123505000Y-96520000D03*
X123505000Y-95250000D03*
X123505000Y-93980000D03*
X123505000Y-92710000D03*
X123505000Y-91440000D03*
X128905000Y-91440000D03*
X128905000Y-92710000D03*
X128905000Y-93980000D03*
X128905000Y-95250000D03*
X128905000Y-96520000D03*
X128905000Y-97790000D03*
X128905000Y-99060000D03*
D16*
X154432000Y-79582000D03*
X154432000Y-76882000D03*
X96266000Y-72343000D03*
X96266000Y-69643000D03*
X96266000Y-79582000D03*
X96266000Y-76882000D03*
X154432000Y-72470000D03*
X154432000Y-69770000D03*
D17*
X137795000Y-101600000D03*
X137795000Y-100330000D03*
X137795000Y-99060000D03*
X137795000Y-97790000D03*
X137795000Y-96520000D03*
X137795000Y-95250000D03*
X137795000Y-93980000D03*
X137795000Y-92710000D03*
X137795000Y-91440000D03*
X137795000Y-90170000D03*
X147195000Y-90170000D03*
X147195000Y-91440000D03*
X147195000Y-92710000D03*
X147195000Y-93980000D03*
X147195000Y-95250000D03*
X147195000Y-96520000D03*
X147195000Y-97790000D03*
X147195000Y-99060000D03*
X147195000Y-100330000D03*
X147195000Y-101600000D03*
X104900000Y-101600000D03*
X104900000Y-100330000D03*
X104900000Y-99060000D03*
X104900000Y-97790000D03*
X104900000Y-96520000D03*
X104900000Y-95250000D03*
X104900000Y-93980000D03*
X104900000Y-92710000D03*
X104900000Y-91440000D03*
X104900000Y-90170000D03*
X114300000Y-90170000D03*
X114300000Y-91440000D03*
X114300000Y-92710000D03*
X114300000Y-93980000D03*
X114300000Y-95250000D03*
X114300000Y-96520000D03*
X114300000Y-97790000D03*
X114300000Y-99060000D03*
X114300000Y-100330000D03*
X114300000Y-101600000D03*
M02*
