M48
; DRILL file {KiCad 5.1.5+dfsg1-2} date Mon 06 Apr 2020 06:03:36 PM PDT
; FORMAT={-:-/ absolute / inch / decimal}
; #@! TF.CreationDate,2020-04-06T18:03:36-07:00
; #@! TF.GenerationSoftware,Kicad,Pcbnew,5.1.5+dfsg1-2
; #@! TF.FileFunction,Plated,1,2,PTH
FMAT,2
INCH
T1C0.0157
T2C0.0305
T3C0.0315
%
G90
G05
T1
X4.6371Y-2.2689
X4.6756Y-2.0611
X4.6756Y-2.195
X4.6758Y-2.1281
X5.209Y-2.3249
X5.2849Y-3.328
X5.3273Y-3.8122
X5.4344Y-3.2847
X5.4502Y-4.1277
X5.4839Y-3.6407
X5.4846Y-3.6759
X5.555Y-3.4242
X5.5732Y-4.1276
X5.575Y-3.6754
X5.5909Y-3.2859
X5.6143Y-3.2635
X5.6563Y-2.2361
X5.6742Y-4.1286
X5.675Y-3.6749
X5.7367Y-3.5018
X5.7609Y-3.6753
X5.7737Y-4.133
X5.798Y-3.1202
X5.8002Y-3.8233
X5.8043Y-3.1557
X5.8247Y-3.0711
X5.847Y-3.0934
X5.8597Y-3.5274
X5.8601Y-3.6088
X5.9142Y-3.4531
X5.9142Y-3.4901
X5.9238Y-3.5316
X5.9422Y-3.2235
X5.9508Y-4.1499
X6.0504Y-4.1087
X6.1712Y-3.959
X6.1889Y-3.9092
X6.1927Y-3.5348
X6.2162Y-3.9343
X6.277Y-3.5127
X6.3692Y-4.1282
X6.4284Y-3.1627
X6.4778Y-3.1753
X6.5178Y-3.9273
X6.5326Y-2.2529
X6.5331Y-3.2543
X6.5352Y-3.1355
X6.5363Y-4.0241
X6.5755Y-2.1796
X6.5844Y-4.0784
X6.5875Y-2.6232
X6.5885Y-3.2957
X6.6052Y-2.6774
X6.6271Y-4.1433
X6.6383Y-4.0158
X6.6674Y-3.7932
X6.6737Y-3.9501
X6.6791Y-3.987
X6.6993Y-3.8439
X6.7316Y-3.987
X6.7492Y-3.7976
X6.7668Y-2.6219
X6.8241Y-4.1449
X6.8405Y-3.569
X6.8433Y-3.878
X6.8539Y-3.2234
X6.8792Y-3.4419
X6.8882Y-3.8356
X6.9124Y-4.0574
X6.925Y-3.442
X6.9584Y-3.4846
X6.9671Y-3.543
X7.0303Y-4.0931
X7.0372Y-3.2165
X7.0431Y-3.4593
X7.0645Y-3.1992
X7.1163Y-3.004
X7.1249Y-3.6766
X7.3784Y-2.2359
X7.4414Y-2.1557
T2
X4.265Y-2.075
X4.265Y-2.175
X4.265Y-2.275
X4.265Y-2.375
T3
X4.5985Y-3.865
X4.7954Y-3.865
T0
M30
