G04 #@! TF.GenerationSoftware,KiCad,Pcbnew,5.1.5+dfsg1-2*
G04 #@! TF.CreationDate,2020-04-06T18:03:34-07:00*
G04 #@! TF.ProjectId,rpmpv1,72706d70-7631-42e6-9b69-6361645f7063,rev?*
G04 #@! TF.SameCoordinates,Original*
G04 #@! TF.FileFunction,Legend,Top*
G04 #@! TF.FilePolarity,Positive*
%FSLAX46Y46*%
G04 Gerber Fmt 4.6, Leading zero omitted, Abs format (unit mm)*
G04 Created by KiCad (PCBNEW 5.1.5+dfsg1-2) date 2020-04-06 18:03:34*
%MOMM*%
%LPD*%
G04 APERTURE LIST*
%ADD10C,0.300000*%
%ADD11C,0.150000*%
%ADD12C,0.120000*%
%ADD13C,0.010000*%
G04 APERTURE END LIST*
D10*
X109328628Y-85579828D02*
X109400057Y-85508400D01*
X109542914Y-85436971D01*
X109900057Y-85436971D01*
X110042914Y-85508400D01*
X110114342Y-85579828D01*
X110185771Y-85722685D01*
X110185771Y-85865542D01*
X110114342Y-86079828D01*
X109257200Y-86936971D01*
X110185771Y-86936971D01*
X111114342Y-85436971D02*
X111257200Y-85436971D01*
X111400057Y-85508400D01*
X111471485Y-85579828D01*
X111542914Y-85722685D01*
X111614342Y-86008400D01*
X111614342Y-86365542D01*
X111542914Y-86651257D01*
X111471485Y-86794114D01*
X111400057Y-86865542D01*
X111257200Y-86936971D01*
X111114342Y-86936971D01*
X110971485Y-86865542D01*
X110900057Y-86794114D01*
X110828628Y-86651257D01*
X110757200Y-86365542D01*
X110757200Y-86008400D01*
X110828628Y-85722685D01*
X110900057Y-85579828D01*
X110971485Y-85508400D01*
X111114342Y-85436971D01*
X112185771Y-85579828D02*
X112257200Y-85508400D01*
X112400057Y-85436971D01*
X112757200Y-85436971D01*
X112900057Y-85508400D01*
X112971485Y-85579828D01*
X113042914Y-85722685D01*
X113042914Y-85865542D01*
X112971485Y-86079828D01*
X112114342Y-86936971D01*
X113042914Y-86936971D01*
X113971485Y-85436971D02*
X114114342Y-85436971D01*
X114257200Y-85508400D01*
X114328628Y-85579828D01*
X114400057Y-85722685D01*
X114471485Y-86008400D01*
X114471485Y-86365542D01*
X114400057Y-86651257D01*
X114328628Y-86794114D01*
X114257200Y-86865542D01*
X114114342Y-86936971D01*
X113971485Y-86936971D01*
X113828628Y-86865542D01*
X113757200Y-86794114D01*
X113685771Y-86651257D01*
X113614342Y-86365542D01*
X113614342Y-86008400D01*
X113685771Y-85722685D01*
X113757200Y-85579828D01*
X113828628Y-85508400D01*
X113971485Y-85436971D01*
X115114342Y-86794114D02*
X115185771Y-86865542D01*
X115114342Y-86936971D01*
X115042914Y-86865542D01*
X115114342Y-86794114D01*
X115114342Y-86936971D01*
X115685771Y-85436971D02*
X116614342Y-85436971D01*
X116114342Y-86008400D01*
X116328628Y-86008400D01*
X116471485Y-86079828D01*
X116542914Y-86151257D01*
X116614342Y-86294114D01*
X116614342Y-86651257D01*
X116542914Y-86794114D01*
X116471485Y-86865542D01*
X116328628Y-86936971D01*
X115900057Y-86936971D01*
X115757200Y-86865542D01*
X115685771Y-86794114D01*
X117257200Y-86794114D02*
X117328628Y-86865542D01*
X117257200Y-86936971D01*
X117185771Y-86865542D01*
X117257200Y-86794114D01*
X117257200Y-86936971D01*
X118757200Y-86936971D02*
X117900057Y-86936971D01*
X118328628Y-86936971D02*
X118328628Y-85436971D01*
X118185771Y-85651257D01*
X118042914Y-85794114D01*
X117900057Y-85865542D01*
X120042914Y-85436971D02*
X119757200Y-85436971D01*
X119614342Y-85508400D01*
X119542914Y-85579828D01*
X119400057Y-85794114D01*
X119328628Y-86079828D01*
X119328628Y-86651257D01*
X119400057Y-86794114D01*
X119471485Y-86865542D01*
X119614342Y-86936971D01*
X119900057Y-86936971D01*
X120042914Y-86865542D01*
X120114342Y-86794114D01*
X120185771Y-86651257D01*
X120185771Y-86294114D01*
X120114342Y-86151257D01*
X120042914Y-86079828D01*
X119900057Y-86008400D01*
X119614342Y-86008400D01*
X119471485Y-86079828D01*
X119400057Y-86151257D01*
X119328628Y-86294114D01*
X131803857Y-69048142D02*
X130803857Y-67619571D01*
X130089571Y-69048142D02*
X130089571Y-66048142D01*
X131232428Y-66048142D01*
X131518142Y-66191000D01*
X131661000Y-66333857D01*
X131803857Y-66619571D01*
X131803857Y-67048142D01*
X131661000Y-67333857D01*
X131518142Y-67476714D01*
X131232428Y-67619571D01*
X130089571Y-67619571D01*
X133089571Y-69048142D02*
X133089571Y-66048142D01*
X134232428Y-66048142D01*
X134518142Y-66191000D01*
X134661000Y-66333857D01*
X134803857Y-66619571D01*
X134803857Y-67048142D01*
X134661000Y-67333857D01*
X134518142Y-67476714D01*
X134232428Y-67619571D01*
X133089571Y-67619571D01*
X136089571Y-69048142D02*
X136089571Y-66048142D01*
X137089571Y-68191000D01*
X138089571Y-66048142D01*
X138089571Y-69048142D01*
X139518142Y-69048142D02*
X139518142Y-66048142D01*
X140661000Y-66048142D01*
X140946714Y-66191000D01*
X141089571Y-66333857D01*
X141232428Y-66619571D01*
X141232428Y-67048142D01*
X141089571Y-67333857D01*
X140946714Y-67476714D01*
X140661000Y-67619571D01*
X139518142Y-67619571D01*
X142518142Y-67905285D02*
X144803857Y-67905285D01*
X147661000Y-69048142D02*
X146232428Y-69048142D01*
X146232428Y-66048142D01*
X148661000Y-69048142D02*
X148661000Y-66048142D01*
X151803857Y-68762428D02*
X151661000Y-68905285D01*
X151232428Y-69048142D01*
X150946714Y-69048142D01*
X150518142Y-68905285D01*
X150232428Y-68619571D01*
X150089571Y-68333857D01*
X149946714Y-67762428D01*
X149946714Y-67333857D01*
X150089571Y-66762428D01*
X150232428Y-66476714D01*
X150518142Y-66191000D01*
X150946714Y-66048142D01*
X151232428Y-66048142D01*
X151661000Y-66191000D01*
X151803857Y-66333857D01*
X153089571Y-69048142D02*
X153089571Y-66048142D01*
X153089571Y-67476714D02*
X154803857Y-67476714D01*
X154803857Y-69048142D02*
X154803857Y-66048142D01*
X156232428Y-67476714D02*
X157232428Y-67476714D01*
X157661000Y-69048142D02*
X156232428Y-69048142D01*
X156232428Y-66048142D01*
X157661000Y-66048142D01*
X158946714Y-67476714D02*
X159946714Y-67476714D01*
X160375285Y-69048142D02*
X158946714Y-69048142D01*
X158946714Y-66048142D01*
X160375285Y-66048142D01*
D11*
X203085700Y-78511400D02*
X170085700Y-78511400D01*
X203085700Y-53111400D02*
X170085700Y-53111400D01*
X170078400Y-78511400D02*
X170078400Y-53111400D01*
X203085700Y-78511400D02*
X203085700Y-53111400D01*
D12*
X114269000Y-51353000D02*
X120369000Y-51353000D01*
X114269000Y-52453000D02*
X114269000Y-51353000D01*
X120369000Y-56753000D02*
X115369000Y-56753000D01*
D11*
X168685000Y-94045000D02*
X168935000Y-94045000D01*
X168685000Y-86295000D02*
X169020000Y-86295000D01*
X181835000Y-86295000D02*
X181500000Y-86295000D01*
X181835000Y-94045000D02*
X181500000Y-94045000D01*
X168685000Y-94045000D02*
X168685000Y-86295000D01*
X181835000Y-94045000D02*
X181835000Y-86295000D01*
X168935000Y-94045000D02*
X168935000Y-95845000D01*
X135665000Y-94045000D02*
X135915000Y-94045000D01*
X135665000Y-86295000D02*
X136000000Y-86295000D01*
X148815000Y-86295000D02*
X148480000Y-86295000D01*
X148815000Y-94045000D02*
X148480000Y-94045000D01*
X135665000Y-94045000D02*
X135665000Y-86295000D01*
X148815000Y-94045000D02*
X148815000Y-86295000D01*
X135915000Y-94045000D02*
X135915000Y-95845000D01*
D13*
G36*
X151680333Y-59224333D02*
G01*
X138133667Y-59224333D01*
X138133667Y-58367083D01*
X139032541Y-58367083D01*
X139044332Y-58389782D01*
X139105308Y-58405402D01*
X139225355Y-58414934D01*
X139414359Y-58419370D01*
X139559934Y-58420000D01*
X140106260Y-58420000D01*
X140315880Y-57552735D01*
X140379068Y-57295411D01*
X140436715Y-57068382D01*
X140485608Y-56883679D01*
X140522536Y-56753335D01*
X140544285Y-56689384D01*
X140547586Y-56684901D01*
X140565903Y-56723226D01*
X140601564Y-56829124D01*
X140650136Y-56988350D01*
X140707184Y-57186660D01*
X140735188Y-57287583D01*
X140801618Y-57528056D01*
X140867653Y-57764238D01*
X140926565Y-57972248D01*
X140971626Y-58128206D01*
X140979686Y-58155416D01*
X141058667Y-58420000D01*
X141522333Y-58420000D01*
X141709041Y-58419098D01*
X141859820Y-58416656D01*
X141957542Y-58413062D01*
X141986096Y-58409416D01*
X141996705Y-58362127D01*
X142025719Y-58248703D01*
X142069169Y-58083751D01*
X142123089Y-57881878D01*
X142183511Y-57657692D01*
X142246467Y-57425798D01*
X142307991Y-57200805D01*
X142364114Y-56997319D01*
X142410869Y-56829948D01*
X142444289Y-56713298D01*
X142460406Y-56661976D01*
X142461020Y-56660868D01*
X142475834Y-56695220D01*
X142508693Y-56799913D01*
X142556256Y-56963368D01*
X142615185Y-57174004D01*
X142682141Y-57420241D01*
X142709387Y-57522214D01*
X142942481Y-58398833D01*
X144526490Y-58409941D01*
X146110498Y-58421048D01*
X146330462Y-58313430D01*
X146605523Y-58134760D01*
X146817747Y-57902062D01*
X146962639Y-57622663D01*
X147035707Y-57303887D01*
X147043957Y-57150000D01*
X147007164Y-56817897D01*
X146894724Y-56523766D01*
X146706451Y-56267187D01*
X146616775Y-56181018D01*
X146483468Y-56074397D01*
X146349811Y-55995635D01*
X146199860Y-55940785D01*
X146017673Y-55905905D01*
X145787307Y-55887048D01*
X145492819Y-55880270D01*
X145400209Y-55879999D01*
X145120698Y-55877255D01*
X144914907Y-55866860D01*
X144772003Y-55845571D01*
X144681155Y-55810146D01*
X144631529Y-55757341D01*
X144612294Y-55683914D01*
X144610666Y-55643629D01*
X144612642Y-55583113D01*
X144624045Y-55534306D01*
X144653094Y-55495949D01*
X144708006Y-55466783D01*
X144796998Y-55445551D01*
X144928288Y-55430993D01*
X145110092Y-55421851D01*
X145350628Y-55416866D01*
X145658114Y-55414781D01*
X146040765Y-55414336D01*
X146107813Y-55414333D01*
X147471913Y-55414333D01*
X147779430Y-55864190D01*
X147895422Y-56040852D01*
X147987020Y-56194000D01*
X148046100Y-56309067D01*
X148064540Y-56371487D01*
X148063851Y-56374234D01*
X148034338Y-56423540D01*
X147962587Y-56532607D01*
X147855060Y-56691935D01*
X147718221Y-56892025D01*
X147558530Y-57123379D01*
X147382452Y-57376499D01*
X147362878Y-57404523D01*
X147186929Y-57657101D01*
X147027967Y-57886792D01*
X146892163Y-58084557D01*
X146785690Y-58241355D01*
X146714720Y-58348149D01*
X146685425Y-58395897D01*
X146685000Y-58397313D01*
X146724878Y-58405254D01*
X146834696Y-58411981D01*
X146999732Y-58416963D01*
X147205261Y-58419667D01*
X147312227Y-58420000D01*
X147939455Y-58420000D01*
X148753237Y-57227242D01*
X148981171Y-57537871D01*
X149117225Y-57724578D01*
X149265582Y-57930172D01*
X149396832Y-58113872D01*
X149411268Y-58134250D01*
X149613432Y-58419999D01*
X150223549Y-58420000D01*
X150439875Y-58418269D01*
X150622458Y-58413511D01*
X150756372Y-58406372D01*
X150826687Y-58397502D01*
X150833667Y-58393504D01*
X150810187Y-58353400D01*
X150743868Y-58253257D01*
X150640890Y-58102066D01*
X150507433Y-57908823D01*
X150349677Y-57682519D01*
X150173804Y-57432148D01*
X150142724Y-57388088D01*
X149962817Y-57132912D01*
X149798287Y-56899005D01*
X149655643Y-56695663D01*
X149541394Y-56532182D01*
X149462048Y-56417859D01*
X149424114Y-56361988D01*
X149422411Y-56359247D01*
X149438018Y-56311709D01*
X149498862Y-56203755D01*
X149599945Y-56043122D01*
X149736266Y-55837545D01*
X149902825Y-55594760D01*
X150071021Y-55355660D01*
X150247962Y-55105970D01*
X150407682Y-54879045D01*
X150543903Y-54683932D01*
X150650344Y-54529678D01*
X150720724Y-54425329D01*
X150748766Y-54379931D01*
X150749000Y-54378996D01*
X150709128Y-54371021D01*
X150599350Y-54364442D01*
X150434423Y-54359769D01*
X150229101Y-54357511D01*
X150124583Y-54357425D01*
X149500167Y-54358851D01*
X149211756Y-54772816D01*
X149088792Y-54947840D01*
X148974426Y-55108001D01*
X148882369Y-55234252D01*
X148830756Y-55302108D01*
X148738167Y-55417434D01*
X148357167Y-54886148D01*
X147976167Y-54354861D01*
X146282833Y-54366013D01*
X144589500Y-54377166D01*
X144351586Y-54488721D01*
X144051350Y-54665719D01*
X143826153Y-54881110D01*
X143674362Y-55137370D01*
X143594348Y-55436971D01*
X143580063Y-55658832D01*
X143586573Y-55840370D01*
X143611473Y-55982139D01*
X143664850Y-56125133D01*
X143725433Y-56249621D01*
X143895619Y-56511450D01*
X144102775Y-56709605D01*
X144337136Y-56835232D01*
X144389486Y-56851735D01*
X144486947Y-56867123D01*
X144649730Y-56880178D01*
X144858500Y-56889857D01*
X145093920Y-56895116D01*
X145205450Y-56895763D01*
X145497176Y-56898719D01*
X145709039Y-56907570D01*
X145845661Y-56922648D01*
X145911662Y-56944285D01*
X145914533Y-56946800D01*
X145959497Y-57039300D01*
X145963836Y-57158660D01*
X145930875Y-57266821D01*
X145882037Y-57318599D01*
X145807845Y-57333946D01*
X145653119Y-57345030D01*
X145421888Y-57351733D01*
X145118185Y-57353931D01*
X144775255Y-57351839D01*
X143751768Y-57340500D01*
X143376642Y-56007000D01*
X143284003Y-55677584D01*
X143196951Y-55367843D01*
X143118610Y-55088903D01*
X143052101Y-54851889D01*
X143000547Y-54667924D01*
X142967070Y-54548134D01*
X142957413Y-54513338D01*
X142913309Y-54353176D01*
X142009057Y-54377166D01*
X141773953Y-55181500D01*
X141700485Y-55432069D01*
X141634122Y-55656945D01*
X141578874Y-55842649D01*
X141538754Y-55975705D01*
X141517774Y-56042637D01*
X141516693Y-56045695D01*
X141499319Y-56025715D01*
X141463763Y-55935111D01*
X141413715Y-55785054D01*
X141352866Y-55586712D01*
X141284904Y-55351255D01*
X141271941Y-55304862D01*
X141201958Y-55053260D01*
X141138772Y-54826353D01*
X141086258Y-54638033D01*
X141048290Y-54502191D01*
X141028743Y-54432719D01*
X141027987Y-54430083D01*
X141009238Y-54397588D01*
X140965462Y-54376133D01*
X140881851Y-54363518D01*
X140743594Y-54357541D01*
X140535883Y-54356000D01*
X140052549Y-54356000D01*
X139552011Y-56335083D01*
X139451613Y-56731606D01*
X139357162Y-57103786D01*
X139270755Y-57443424D01*
X139194487Y-57742322D01*
X139130455Y-57992280D01*
X139080754Y-58185099D01*
X139047481Y-58312582D01*
X139032731Y-58366528D01*
X139032541Y-58367083D01*
X138133667Y-58367083D01*
X138133667Y-53594000D01*
X151680333Y-53594000D01*
X151680333Y-59224333D01*
G37*
X151680333Y-59224333D02*
X138133667Y-59224333D01*
X138133667Y-58367083D01*
X139032541Y-58367083D01*
X139044332Y-58389782D01*
X139105308Y-58405402D01*
X139225355Y-58414934D01*
X139414359Y-58419370D01*
X139559934Y-58420000D01*
X140106260Y-58420000D01*
X140315880Y-57552735D01*
X140379068Y-57295411D01*
X140436715Y-57068382D01*
X140485608Y-56883679D01*
X140522536Y-56753335D01*
X140544285Y-56689384D01*
X140547586Y-56684901D01*
X140565903Y-56723226D01*
X140601564Y-56829124D01*
X140650136Y-56988350D01*
X140707184Y-57186660D01*
X140735188Y-57287583D01*
X140801618Y-57528056D01*
X140867653Y-57764238D01*
X140926565Y-57972248D01*
X140971626Y-58128206D01*
X140979686Y-58155416D01*
X141058667Y-58420000D01*
X141522333Y-58420000D01*
X141709041Y-58419098D01*
X141859820Y-58416656D01*
X141957542Y-58413062D01*
X141986096Y-58409416D01*
X141996705Y-58362127D01*
X142025719Y-58248703D01*
X142069169Y-58083751D01*
X142123089Y-57881878D01*
X142183511Y-57657692D01*
X142246467Y-57425798D01*
X142307991Y-57200805D01*
X142364114Y-56997319D01*
X142410869Y-56829948D01*
X142444289Y-56713298D01*
X142460406Y-56661976D01*
X142461020Y-56660868D01*
X142475834Y-56695220D01*
X142508693Y-56799913D01*
X142556256Y-56963368D01*
X142615185Y-57174004D01*
X142682141Y-57420241D01*
X142709387Y-57522214D01*
X142942481Y-58398833D01*
X144526490Y-58409941D01*
X146110498Y-58421048D01*
X146330462Y-58313430D01*
X146605523Y-58134760D01*
X146817747Y-57902062D01*
X146962639Y-57622663D01*
X147035707Y-57303887D01*
X147043957Y-57150000D01*
X147007164Y-56817897D01*
X146894724Y-56523766D01*
X146706451Y-56267187D01*
X146616775Y-56181018D01*
X146483468Y-56074397D01*
X146349811Y-55995635D01*
X146199860Y-55940785D01*
X146017673Y-55905905D01*
X145787307Y-55887048D01*
X145492819Y-55880270D01*
X145400209Y-55879999D01*
X145120698Y-55877255D01*
X144914907Y-55866860D01*
X144772003Y-55845571D01*
X144681155Y-55810146D01*
X144631529Y-55757341D01*
X144612294Y-55683914D01*
X144610666Y-55643629D01*
X144612642Y-55583113D01*
X144624045Y-55534306D01*
X144653094Y-55495949D01*
X144708006Y-55466783D01*
X144796998Y-55445551D01*
X144928288Y-55430993D01*
X145110092Y-55421851D01*
X145350628Y-55416866D01*
X145658114Y-55414781D01*
X146040765Y-55414336D01*
X146107813Y-55414333D01*
X147471913Y-55414333D01*
X147779430Y-55864190D01*
X147895422Y-56040852D01*
X147987020Y-56194000D01*
X148046100Y-56309067D01*
X148064540Y-56371487D01*
X148063851Y-56374234D01*
X148034338Y-56423540D01*
X147962587Y-56532607D01*
X147855060Y-56691935D01*
X147718221Y-56892025D01*
X147558530Y-57123379D01*
X147382452Y-57376499D01*
X147362878Y-57404523D01*
X147186929Y-57657101D01*
X147027967Y-57886792D01*
X146892163Y-58084557D01*
X146785690Y-58241355D01*
X146714720Y-58348149D01*
X146685425Y-58395897D01*
X146685000Y-58397313D01*
X146724878Y-58405254D01*
X146834696Y-58411981D01*
X146999732Y-58416963D01*
X147205261Y-58419667D01*
X147312227Y-58420000D01*
X147939455Y-58420000D01*
X148753237Y-57227242D01*
X148981171Y-57537871D01*
X149117225Y-57724578D01*
X149265582Y-57930172D01*
X149396832Y-58113872D01*
X149411268Y-58134250D01*
X149613432Y-58419999D01*
X150223549Y-58420000D01*
X150439875Y-58418269D01*
X150622458Y-58413511D01*
X150756372Y-58406372D01*
X150826687Y-58397502D01*
X150833667Y-58393504D01*
X150810187Y-58353400D01*
X150743868Y-58253257D01*
X150640890Y-58102066D01*
X150507433Y-57908823D01*
X150349677Y-57682519D01*
X150173804Y-57432148D01*
X150142724Y-57388088D01*
X149962817Y-57132912D01*
X149798287Y-56899005D01*
X149655643Y-56695663D01*
X149541394Y-56532182D01*
X149462048Y-56417859D01*
X149424114Y-56361988D01*
X149422411Y-56359247D01*
X149438018Y-56311709D01*
X149498862Y-56203755D01*
X149599945Y-56043122D01*
X149736266Y-55837545D01*
X149902825Y-55594760D01*
X150071021Y-55355660D01*
X150247962Y-55105970D01*
X150407682Y-54879045D01*
X150543903Y-54683932D01*
X150650344Y-54529678D01*
X150720724Y-54425329D01*
X150748766Y-54379931D01*
X150749000Y-54378996D01*
X150709128Y-54371021D01*
X150599350Y-54364442D01*
X150434423Y-54359769D01*
X150229101Y-54357511D01*
X150124583Y-54357425D01*
X149500167Y-54358851D01*
X149211756Y-54772816D01*
X149088792Y-54947840D01*
X148974426Y-55108001D01*
X148882369Y-55234252D01*
X148830756Y-55302108D01*
X148738167Y-55417434D01*
X148357167Y-54886148D01*
X147976167Y-54354861D01*
X146282833Y-54366013D01*
X144589500Y-54377166D01*
X144351586Y-54488721D01*
X144051350Y-54665719D01*
X143826153Y-54881110D01*
X143674362Y-55137370D01*
X143594348Y-55436971D01*
X143580063Y-55658832D01*
X143586573Y-55840370D01*
X143611473Y-55982139D01*
X143664850Y-56125133D01*
X143725433Y-56249621D01*
X143895619Y-56511450D01*
X144102775Y-56709605D01*
X144337136Y-56835232D01*
X144389486Y-56851735D01*
X144486947Y-56867123D01*
X144649730Y-56880178D01*
X144858500Y-56889857D01*
X145093920Y-56895116D01*
X145205450Y-56895763D01*
X145497176Y-56898719D01*
X145709039Y-56907570D01*
X145845661Y-56922648D01*
X145911662Y-56944285D01*
X145914533Y-56946800D01*
X145959497Y-57039300D01*
X145963836Y-57158660D01*
X145930875Y-57266821D01*
X145882037Y-57318599D01*
X145807845Y-57333946D01*
X145653119Y-57345030D01*
X145421888Y-57351733D01*
X145118185Y-57353931D01*
X144775255Y-57351839D01*
X143751768Y-57340500D01*
X143376642Y-56007000D01*
X143284003Y-55677584D01*
X143196951Y-55367843D01*
X143118610Y-55088903D01*
X143052101Y-54851889D01*
X143000547Y-54667924D01*
X142967070Y-54548134D01*
X142957413Y-54513338D01*
X142913309Y-54353176D01*
X142009057Y-54377166D01*
X141773953Y-55181500D01*
X141700485Y-55432069D01*
X141634122Y-55656945D01*
X141578874Y-55842649D01*
X141538754Y-55975705D01*
X141517774Y-56042637D01*
X141516693Y-56045695D01*
X141499319Y-56025715D01*
X141463763Y-55935111D01*
X141413715Y-55785054D01*
X141352866Y-55586712D01*
X141284904Y-55351255D01*
X141271941Y-55304862D01*
X141201958Y-55053260D01*
X141138772Y-54826353D01*
X141086258Y-54638033D01*
X141048290Y-54502191D01*
X141028743Y-54432719D01*
X141027987Y-54430083D01*
X141009238Y-54397588D01*
X140965462Y-54376133D01*
X140881851Y-54363518D01*
X140743594Y-54357541D01*
X140535883Y-54356000D01*
X140052549Y-54356000D01*
X139552011Y-56335083D01*
X139451613Y-56731606D01*
X139357162Y-57103786D01*
X139270755Y-57443424D01*
X139194487Y-57742322D01*
X139130455Y-57992280D01*
X139080754Y-58185099D01*
X139047481Y-58312582D01*
X139032731Y-58366528D01*
X139032541Y-58367083D01*
X138133667Y-58367083D01*
X138133667Y-53594000D01*
X151680333Y-53594000D01*
X151680333Y-59224333D01*
G36*
X115265248Y-75452990D02*
G01*
X115757062Y-75453893D01*
X116165608Y-75456730D01*
X116500050Y-75462588D01*
X116769554Y-75472558D01*
X116983286Y-75487727D01*
X117150410Y-75509185D01*
X117280093Y-75538020D01*
X117381499Y-75575322D01*
X117463795Y-75622179D01*
X117536145Y-75679680D01*
X117607715Y-75748915D01*
X117664649Y-75807401D01*
X117739445Y-75886127D01*
X117801661Y-75961322D01*
X117852385Y-76042693D01*
X117892707Y-76139950D01*
X117923714Y-76262800D01*
X117946496Y-76420952D01*
X117962141Y-76624114D01*
X117971737Y-76881994D01*
X117976373Y-77204301D01*
X117977138Y-77600743D01*
X117975120Y-78081028D01*
X117972117Y-78549500D01*
X117957600Y-80708500D01*
X117813837Y-80920337D01*
X117677114Y-81084580D01*
X117509959Y-81237861D01*
X117458237Y-81275937D01*
X117246400Y-81419700D01*
X114752921Y-81433768D01*
X112259442Y-81447837D01*
X111985105Y-81304522D01*
X111760723Y-81157564D01*
X111594380Y-80970061D01*
X111557584Y-80913517D01*
X111404400Y-80665827D01*
X111395620Y-79475941D01*
X112552831Y-79475941D01*
X112574239Y-79517875D01*
X112649000Y-79565500D01*
X112700778Y-79605763D01*
X112731464Y-79673652D01*
X112746306Y-79792692D01*
X112750552Y-79986405D01*
X112750600Y-80020858D01*
X112753645Y-80235457D01*
X112772842Y-80386842D01*
X112823280Y-80486041D01*
X112920052Y-80544081D01*
X113078248Y-80571990D01*
X113312959Y-80580796D01*
X113517822Y-80581500D01*
X113783267Y-80579362D01*
X113963602Y-80571605D01*
X114075256Y-80556207D01*
X114134655Y-80531150D01*
X114155470Y-80503109D01*
X114165512Y-80418112D01*
X114154145Y-80393311D01*
X114093521Y-80381561D01*
X113953398Y-80373868D01*
X113755823Y-80370998D01*
X113563669Y-80372834D01*
X113004600Y-80383762D01*
X113004600Y-80077312D01*
X113473919Y-80062706D01*
X113698921Y-80053095D01*
X113841360Y-80038529D01*
X113920271Y-80014960D01*
X113954687Y-79978334D01*
X113960244Y-79959200D01*
X113958449Y-79917899D01*
X113922123Y-79891722D01*
X113833536Y-79877311D01*
X113674960Y-79871307D01*
X113490924Y-79870300D01*
X113266321Y-79869435D01*
X113124360Y-79863540D01*
X113046082Y-79847664D01*
X113012530Y-79816857D01*
X113004745Y-79766167D01*
X113004600Y-79743300D01*
X113004911Y-79737491D01*
X115104129Y-79737491D01*
X115181888Y-79823956D01*
X115277209Y-79877381D01*
X115407273Y-79896954D01*
X115583671Y-79890049D01*
X115741642Y-79879859D01*
X115812578Y-79884571D01*
X115810342Y-79907178D01*
X115777657Y-79931920D01*
X115595279Y-80093091D01*
X115499829Y-80265423D01*
X115494507Y-80435987D01*
X115582512Y-80591855D01*
X115608100Y-80616978D01*
X115790088Y-80743025D01*
X115974713Y-80778702D01*
X116189377Y-80728366D01*
X116223280Y-80714748D01*
X116387578Y-80601893D01*
X116472128Y-80449309D01*
X116477139Y-80279953D01*
X116402816Y-80116785D01*
X116249367Y-79982761D01*
X116216511Y-79965068D01*
X116120775Y-79904322D01*
X116115571Y-79861026D01*
X116203867Y-79833714D01*
X116388633Y-79820917D01*
X116510956Y-79819500D01*
X116720320Y-79805598D01*
X116832537Y-79764015D01*
X116847330Y-79694929D01*
X116800451Y-79631180D01*
X116754054Y-79597801D01*
X116684795Y-79580801D01*
X116572436Y-79579743D01*
X116396734Y-79594187D01*
X116186171Y-79617888D01*
X115931386Y-79642249D01*
X115684278Y-79655843D01*
X115480645Y-79657153D01*
X115394945Y-79651494D01*
X115212251Y-79644738D01*
X115113697Y-79674711D01*
X115104129Y-79737491D01*
X113004911Y-79737491D01*
X113007691Y-79685666D01*
X113029332Y-79648795D01*
X113088072Y-79628049D01*
X113202461Y-79618791D01*
X113391048Y-79616384D01*
X113512600Y-79616300D01*
X113743809Y-79614905D01*
X113891821Y-79608270D01*
X113975023Y-79592716D01*
X114011806Y-79564566D01*
X114020558Y-79520141D01*
X114020600Y-79514700D01*
X114015470Y-79475087D01*
X113989849Y-79447370D01*
X113928391Y-79429434D01*
X113815749Y-79419161D01*
X113636576Y-79414434D01*
X113375525Y-79413136D01*
X113284000Y-79413100D01*
X112965516Y-79416237D01*
X112741883Y-79426702D01*
X112606517Y-79446077D01*
X112552831Y-79475941D01*
X111395620Y-79475941D01*
X111394216Y-79285692D01*
X115594570Y-79285692D01*
X115635287Y-79369387D01*
X115708303Y-79435619D01*
X115847585Y-79491784D01*
X116023720Y-79512599D01*
X116186051Y-79495014D01*
X116250502Y-79468249D01*
X116309231Y-79397175D01*
X116281899Y-79328938D01*
X116183341Y-79278317D01*
X116041494Y-79260006D01*
X115875326Y-79252394D01*
X115734649Y-79234369D01*
X115709700Y-79228681D01*
X115619430Y-79230572D01*
X115594570Y-79285692D01*
X111394216Y-79285692D01*
X111388813Y-78553563D01*
X111385575Y-77939309D01*
X111385699Y-77423780D01*
X111389236Y-77004157D01*
X111396238Y-76677620D01*
X111406753Y-76441347D01*
X111408629Y-76421514D01*
X112500380Y-76421514D01*
X112540238Y-76481719D01*
X112592392Y-76514392D01*
X112647006Y-76564906D01*
X112681260Y-76660346D01*
X112701912Y-76824207D01*
X112708001Y-76916348D01*
X112721530Y-77109504D01*
X112746967Y-77247155D01*
X112799560Y-77338702D01*
X112894560Y-77393549D01*
X113047216Y-77421096D01*
X113272780Y-77430746D01*
X113544220Y-77431900D01*
X113818631Y-77430987D01*
X114007363Y-77426727D01*
X114126329Y-77416833D01*
X114191443Y-77399022D01*
X114218621Y-77371009D01*
X114223800Y-77334336D01*
X114179886Y-77251224D01*
X114068234Y-77203006D01*
X113918971Y-77197297D01*
X113797518Y-77226602D01*
X113672320Y-77254856D01*
X113489914Y-77274049D01*
X113331492Y-77279500D01*
X113004600Y-77279500D01*
X113004600Y-76920560D01*
X112996694Y-76673236D01*
X112966979Y-76510397D01*
X112906455Y-76415738D01*
X112904669Y-76414976D01*
X115087400Y-76414976D01*
X115103415Y-76445720D01*
X115176638Y-76514669D01*
X115184645Y-76521390D01*
X115247207Y-76566281D01*
X115318855Y-76593548D01*
X115421692Y-76605401D01*
X115577820Y-76604049D01*
X115809342Y-76591701D01*
X115857745Y-76588670D01*
X116408200Y-76553839D01*
X116408200Y-77069069D01*
X116410580Y-77307257D01*
X116419408Y-77460744D01*
X116437213Y-77546353D01*
X116466523Y-77580907D01*
X116485657Y-77584300D01*
X116558956Y-77541762D01*
X116612657Y-77453992D01*
X116634871Y-77345541D01*
X116651932Y-77167019D01*
X116661234Y-76949924D01*
X116662200Y-76855429D01*
X116662200Y-76387172D01*
X115887500Y-76398922D01*
X115617486Y-76403262D01*
X115385042Y-76407460D01*
X115208348Y-76411152D01*
X115105589Y-76413973D01*
X115087400Y-76414976D01*
X112904669Y-76414976D01*
X112806121Y-76372953D01*
X112698012Y-76365100D01*
X112554593Y-76380349D01*
X112500380Y-76421514D01*
X111408629Y-76421514D01*
X111420832Y-76292519D01*
X111429899Y-76247641D01*
X111530099Y-76038787D01*
X111695768Y-75827450D01*
X111897141Y-75646550D01*
X112064800Y-75545475D01*
X112118165Y-75523954D01*
X112181520Y-75506033D01*
X112264088Y-75491386D01*
X112375093Y-75479688D01*
X112523760Y-75470611D01*
X112719314Y-75463829D01*
X112970979Y-75459017D01*
X113287980Y-75455847D01*
X113679540Y-75453994D01*
X114154885Y-75453131D01*
X114681000Y-75452931D01*
X115265248Y-75452990D01*
G37*
X115265248Y-75452990D02*
X115757062Y-75453893D01*
X116165608Y-75456730D01*
X116500050Y-75462588D01*
X116769554Y-75472558D01*
X116983286Y-75487727D01*
X117150410Y-75509185D01*
X117280093Y-75538020D01*
X117381499Y-75575322D01*
X117463795Y-75622179D01*
X117536145Y-75679680D01*
X117607715Y-75748915D01*
X117664649Y-75807401D01*
X117739445Y-75886127D01*
X117801661Y-75961322D01*
X117852385Y-76042693D01*
X117892707Y-76139950D01*
X117923714Y-76262800D01*
X117946496Y-76420952D01*
X117962141Y-76624114D01*
X117971737Y-76881994D01*
X117976373Y-77204301D01*
X117977138Y-77600743D01*
X117975120Y-78081028D01*
X117972117Y-78549500D01*
X117957600Y-80708500D01*
X117813837Y-80920337D01*
X117677114Y-81084580D01*
X117509959Y-81237861D01*
X117458237Y-81275937D01*
X117246400Y-81419700D01*
X114752921Y-81433768D01*
X112259442Y-81447837D01*
X111985105Y-81304522D01*
X111760723Y-81157564D01*
X111594380Y-80970061D01*
X111557584Y-80913517D01*
X111404400Y-80665827D01*
X111395620Y-79475941D01*
X112552831Y-79475941D01*
X112574239Y-79517875D01*
X112649000Y-79565500D01*
X112700778Y-79605763D01*
X112731464Y-79673652D01*
X112746306Y-79792692D01*
X112750552Y-79986405D01*
X112750600Y-80020858D01*
X112753645Y-80235457D01*
X112772842Y-80386842D01*
X112823280Y-80486041D01*
X112920052Y-80544081D01*
X113078248Y-80571990D01*
X113312959Y-80580796D01*
X113517822Y-80581500D01*
X113783267Y-80579362D01*
X113963602Y-80571605D01*
X114075256Y-80556207D01*
X114134655Y-80531150D01*
X114155470Y-80503109D01*
X114165512Y-80418112D01*
X114154145Y-80393311D01*
X114093521Y-80381561D01*
X113953398Y-80373868D01*
X113755823Y-80370998D01*
X113563669Y-80372834D01*
X113004600Y-80383762D01*
X113004600Y-80077312D01*
X113473919Y-80062706D01*
X113698921Y-80053095D01*
X113841360Y-80038529D01*
X113920271Y-80014960D01*
X113954687Y-79978334D01*
X113960244Y-79959200D01*
X113958449Y-79917899D01*
X113922123Y-79891722D01*
X113833536Y-79877311D01*
X113674960Y-79871307D01*
X113490924Y-79870300D01*
X113266321Y-79869435D01*
X113124360Y-79863540D01*
X113046082Y-79847664D01*
X113012530Y-79816857D01*
X113004745Y-79766167D01*
X113004600Y-79743300D01*
X113004911Y-79737491D01*
X115104129Y-79737491D01*
X115181888Y-79823956D01*
X115277209Y-79877381D01*
X115407273Y-79896954D01*
X115583671Y-79890049D01*
X115741642Y-79879859D01*
X115812578Y-79884571D01*
X115810342Y-79907178D01*
X115777657Y-79931920D01*
X115595279Y-80093091D01*
X115499829Y-80265423D01*
X115494507Y-80435987D01*
X115582512Y-80591855D01*
X115608100Y-80616978D01*
X115790088Y-80743025D01*
X115974713Y-80778702D01*
X116189377Y-80728366D01*
X116223280Y-80714748D01*
X116387578Y-80601893D01*
X116472128Y-80449309D01*
X116477139Y-80279953D01*
X116402816Y-80116785D01*
X116249367Y-79982761D01*
X116216511Y-79965068D01*
X116120775Y-79904322D01*
X116115571Y-79861026D01*
X116203867Y-79833714D01*
X116388633Y-79820917D01*
X116510956Y-79819500D01*
X116720320Y-79805598D01*
X116832537Y-79764015D01*
X116847330Y-79694929D01*
X116800451Y-79631180D01*
X116754054Y-79597801D01*
X116684795Y-79580801D01*
X116572436Y-79579743D01*
X116396734Y-79594187D01*
X116186171Y-79617888D01*
X115931386Y-79642249D01*
X115684278Y-79655843D01*
X115480645Y-79657153D01*
X115394945Y-79651494D01*
X115212251Y-79644738D01*
X115113697Y-79674711D01*
X115104129Y-79737491D01*
X113004911Y-79737491D01*
X113007691Y-79685666D01*
X113029332Y-79648795D01*
X113088072Y-79628049D01*
X113202461Y-79618791D01*
X113391048Y-79616384D01*
X113512600Y-79616300D01*
X113743809Y-79614905D01*
X113891821Y-79608270D01*
X113975023Y-79592716D01*
X114011806Y-79564566D01*
X114020558Y-79520141D01*
X114020600Y-79514700D01*
X114015470Y-79475087D01*
X113989849Y-79447370D01*
X113928391Y-79429434D01*
X113815749Y-79419161D01*
X113636576Y-79414434D01*
X113375525Y-79413136D01*
X113284000Y-79413100D01*
X112965516Y-79416237D01*
X112741883Y-79426702D01*
X112606517Y-79446077D01*
X112552831Y-79475941D01*
X111395620Y-79475941D01*
X111394216Y-79285692D01*
X115594570Y-79285692D01*
X115635287Y-79369387D01*
X115708303Y-79435619D01*
X115847585Y-79491784D01*
X116023720Y-79512599D01*
X116186051Y-79495014D01*
X116250502Y-79468249D01*
X116309231Y-79397175D01*
X116281899Y-79328938D01*
X116183341Y-79278317D01*
X116041494Y-79260006D01*
X115875326Y-79252394D01*
X115734649Y-79234369D01*
X115709700Y-79228681D01*
X115619430Y-79230572D01*
X115594570Y-79285692D01*
X111394216Y-79285692D01*
X111388813Y-78553563D01*
X111385575Y-77939309D01*
X111385699Y-77423780D01*
X111389236Y-77004157D01*
X111396238Y-76677620D01*
X111406753Y-76441347D01*
X111408629Y-76421514D01*
X112500380Y-76421514D01*
X112540238Y-76481719D01*
X112592392Y-76514392D01*
X112647006Y-76564906D01*
X112681260Y-76660346D01*
X112701912Y-76824207D01*
X112708001Y-76916348D01*
X112721530Y-77109504D01*
X112746967Y-77247155D01*
X112799560Y-77338702D01*
X112894560Y-77393549D01*
X113047216Y-77421096D01*
X113272780Y-77430746D01*
X113544220Y-77431900D01*
X113818631Y-77430987D01*
X114007363Y-77426727D01*
X114126329Y-77416833D01*
X114191443Y-77399022D01*
X114218621Y-77371009D01*
X114223800Y-77334336D01*
X114179886Y-77251224D01*
X114068234Y-77203006D01*
X113918971Y-77197297D01*
X113797518Y-77226602D01*
X113672320Y-77254856D01*
X113489914Y-77274049D01*
X113331492Y-77279500D01*
X113004600Y-77279500D01*
X113004600Y-76920560D01*
X112996694Y-76673236D01*
X112966979Y-76510397D01*
X112906455Y-76415738D01*
X112904669Y-76414976D01*
X115087400Y-76414976D01*
X115103415Y-76445720D01*
X115176638Y-76514669D01*
X115184645Y-76521390D01*
X115247207Y-76566281D01*
X115318855Y-76593548D01*
X115421692Y-76605401D01*
X115577820Y-76604049D01*
X115809342Y-76591701D01*
X115857745Y-76588670D01*
X116408200Y-76553839D01*
X116408200Y-77069069D01*
X116410580Y-77307257D01*
X116419408Y-77460744D01*
X116437213Y-77546353D01*
X116466523Y-77580907D01*
X116485657Y-77584300D01*
X116558956Y-77541762D01*
X116612657Y-77453992D01*
X116634871Y-77345541D01*
X116651932Y-77167019D01*
X116661234Y-76949924D01*
X116662200Y-76855429D01*
X116662200Y-76387172D01*
X115887500Y-76398922D01*
X115617486Y-76403262D01*
X115385042Y-76407460D01*
X115208348Y-76411152D01*
X115105589Y-76413973D01*
X115087400Y-76414976D01*
X112904669Y-76414976D01*
X112806121Y-76372953D01*
X112698012Y-76365100D01*
X112554593Y-76380349D01*
X112500380Y-76421514D01*
X111408629Y-76421514D01*
X111420832Y-76292519D01*
X111429899Y-76247641D01*
X111530099Y-76038787D01*
X111695768Y-75827450D01*
X111897141Y-75646550D01*
X112064800Y-75545475D01*
X112118165Y-75523954D01*
X112181520Y-75506033D01*
X112264088Y-75491386D01*
X112375093Y-75479688D01*
X112523760Y-75470611D01*
X112719314Y-75463829D01*
X112970979Y-75459017D01*
X113287980Y-75455847D01*
X113679540Y-75453994D01*
X114154885Y-75453131D01*
X114681000Y-75452931D01*
X115265248Y-75452990D01*
G36*
X116063691Y-80107015D02*
G01*
X116162932Y-80184413D01*
X116238298Y-80270976D01*
X116255800Y-80316196D01*
X116229348Y-80383377D01*
X116176719Y-80468596D01*
X116064156Y-80558411D01*
X115927154Y-80577342D01*
X115808760Y-80520540D01*
X115753798Y-80405145D01*
X115766058Y-80269185D01*
X115831795Y-80148538D01*
X115937263Y-80079080D01*
X115980028Y-80073500D01*
X116063691Y-80107015D01*
G37*
X116063691Y-80107015D02*
X116162932Y-80184413D01*
X116238298Y-80270976D01*
X116255800Y-80316196D01*
X116229348Y-80383377D01*
X116176719Y-80468596D01*
X116064156Y-80558411D01*
X115927154Y-80577342D01*
X115808760Y-80520540D01*
X115753798Y-80405145D01*
X115766058Y-80269185D01*
X115831795Y-80148538D01*
X115937263Y-80079080D01*
X115980028Y-80073500D01*
X116063691Y-80107015D01*
D12*
X109771000Y-51375000D02*
X109771000Y-61655000D01*
X109771000Y-61655000D02*
X112431000Y-61655000D01*
X112431000Y-61655000D02*
X112431000Y-51375000D01*
X112431000Y-51375000D02*
X109771000Y-51375000D01*
X112431000Y-52325000D02*
X118431000Y-52325000D01*
X118431000Y-52325000D02*
X118431000Y-53085000D01*
X118431000Y-53085000D02*
X112431000Y-53085000D01*
X112431000Y-52385000D02*
X118431000Y-52385000D01*
X112431000Y-52505000D02*
X118431000Y-52505000D01*
X112431000Y-52625000D02*
X118431000Y-52625000D01*
X112431000Y-52745000D02*
X118431000Y-52745000D01*
X112431000Y-52865000D02*
X118431000Y-52865000D01*
X112431000Y-52985000D02*
X118431000Y-52985000D01*
X109441000Y-52325000D02*
X109771000Y-52325000D01*
X109441000Y-53085000D02*
X109771000Y-53085000D01*
X109771000Y-53975000D02*
X112431000Y-53975000D01*
X112431000Y-54865000D02*
X118431000Y-54865000D01*
X118431000Y-54865000D02*
X118431000Y-55625000D01*
X118431000Y-55625000D02*
X112431000Y-55625000D01*
X109373929Y-54865000D02*
X109771000Y-54865000D01*
X109373929Y-55625000D02*
X109771000Y-55625000D01*
X109771000Y-56515000D02*
X112431000Y-56515000D01*
X112431000Y-57405000D02*
X118431000Y-57405000D01*
X118431000Y-57405000D02*
X118431000Y-58165000D01*
X118431000Y-58165000D02*
X112431000Y-58165000D01*
X109373929Y-57405000D02*
X109771000Y-57405000D01*
X109373929Y-58165000D02*
X109771000Y-58165000D01*
X109771000Y-59055000D02*
X112431000Y-59055000D01*
X112431000Y-59945000D02*
X118431000Y-59945000D01*
X118431000Y-59945000D02*
X118431000Y-60705000D01*
X118431000Y-60705000D02*
X112431000Y-60705000D01*
X109373929Y-59945000D02*
X109771000Y-59945000D01*
X109373929Y-60705000D02*
X109771000Y-60705000D01*
X107061000Y-52705000D02*
X107061000Y-51435000D01*
X107061000Y-51435000D02*
X108331000Y-51435000D01*
X121697997Y-97111000D02*
G75*
G03X116906003Y-97111000I-2395997J-1060000D01*
G01*
X121697997Y-99231000D02*
G75*
G02X116906003Y-99231000I-2395997J1060000D01*
G01*
X116497225Y-96696000D02*
X116997225Y-96696000D01*
X116747225Y-96446000D02*
X116747225Y-96946000D01*
D11*
X186575795Y-68413380D02*
X186575795Y-69222904D01*
X186623414Y-69318142D01*
X186671033Y-69365761D01*
X186766271Y-69413380D01*
X186956747Y-69413380D01*
X187051985Y-69365761D01*
X187099604Y-69318142D01*
X187147223Y-69222904D01*
X187147223Y-68413380D01*
X188051985Y-68413380D02*
X187861509Y-68413380D01*
X187766271Y-68461000D01*
X187718652Y-68508619D01*
X187623414Y-68651476D01*
X187575795Y-68841952D01*
X187575795Y-69222904D01*
X187623414Y-69318142D01*
X187671033Y-69365761D01*
X187766271Y-69413380D01*
X187956747Y-69413380D01*
X188051985Y-69365761D01*
X188099604Y-69318142D01*
X188147223Y-69222904D01*
X188147223Y-68984809D01*
X188099604Y-68889571D01*
X188051985Y-68841952D01*
X187956747Y-68794333D01*
X187766271Y-68794333D01*
X187671033Y-68841952D01*
X187623414Y-68889571D01*
X187575795Y-68984809D01*
X117117904Y-51061880D02*
X117117904Y-50061880D01*
X117356000Y-50061880D01*
X117498857Y-50109500D01*
X117594095Y-50204738D01*
X117641714Y-50299976D01*
X117689333Y-50490452D01*
X117689333Y-50633309D01*
X117641714Y-50823785D01*
X117594095Y-50919023D01*
X117498857Y-51014261D01*
X117356000Y-51061880D01*
X117117904Y-51061880D01*
X118641714Y-51061880D02*
X118070285Y-51061880D01*
X118356000Y-51061880D02*
X118356000Y-50061880D01*
X118260761Y-50204738D01*
X118165523Y-50299976D01*
X118070285Y-50347595D01*
X167212380Y-90931904D02*
X168021904Y-90931904D01*
X168117142Y-90884285D01*
X168164761Y-90836666D01*
X168212380Y-90741428D01*
X168212380Y-90550952D01*
X168164761Y-90455714D01*
X168117142Y-90408095D01*
X168021904Y-90360476D01*
X167212380Y-90360476D01*
X168212380Y-89360476D02*
X168212380Y-89931904D01*
X168212380Y-89646190D02*
X167212380Y-89646190D01*
X167355238Y-89741428D01*
X167450476Y-89836666D01*
X167498095Y-89931904D01*
X134192380Y-90931904D02*
X135001904Y-90931904D01*
X135097142Y-90884285D01*
X135144761Y-90836666D01*
X135192380Y-90741428D01*
X135192380Y-90550952D01*
X135144761Y-90455714D01*
X135097142Y-90408095D01*
X135001904Y-90360476D01*
X134192380Y-90360476D01*
X134287619Y-89931904D02*
X134240000Y-89884285D01*
X134192380Y-89789047D01*
X134192380Y-89550952D01*
X134240000Y-89455714D01*
X134287619Y-89408095D01*
X134382857Y-89360476D01*
X134478095Y-89360476D01*
X134620952Y-89408095D01*
X135192380Y-89979523D01*
X135192380Y-89360476D01*
X112382666Y-49887380D02*
X112382666Y-50601666D01*
X112335047Y-50744523D01*
X112239809Y-50839761D01*
X112096952Y-50887380D01*
X112001714Y-50887380D01*
X112811238Y-49982619D02*
X112858857Y-49935000D01*
X112954095Y-49887380D01*
X113192190Y-49887380D01*
X113287428Y-49935000D01*
X113335047Y-49982619D01*
X113382666Y-50077857D01*
X113382666Y-50173095D01*
X113335047Y-50315952D01*
X112763619Y-50887380D01*
X113382666Y-50887380D01*
X119135333Y-94778142D02*
X119087714Y-94825761D01*
X118944857Y-94873380D01*
X118849619Y-94873380D01*
X118706761Y-94825761D01*
X118611523Y-94730523D01*
X118563904Y-94635285D01*
X118516285Y-94444809D01*
X118516285Y-94301952D01*
X118563904Y-94111476D01*
X118611523Y-94016238D01*
X118706761Y-93921000D01*
X118849619Y-93873380D01*
X118944857Y-93873380D01*
X119087714Y-93921000D01*
X119135333Y-93968619D01*
X120087714Y-94873380D02*
X119516285Y-94873380D01*
X119802000Y-94873380D02*
X119802000Y-93873380D01*
X119706761Y-94016238D01*
X119611523Y-94111476D01*
X119516285Y-94159095D01*
M02*
