G04 #@! TF.FileFunction,Copper,L2,Bot,Mixed*
%FSLAX46Y46*%
G04 Gerber Fmt 4.6, Leading zero omitted, Abs format (unit mm)*
G04 Created by KiCad (PCBNEW 4.0.7) date 12/29/17 01:52:09*
%MOMM*%
%LPD*%
G01*
G04 APERTURE LIST*
%ADD10C,0.100000*%
%ADD11R,1.700000X1.700000*%
%ADD12O,1.700000X1.700000*%
%ADD13R,1.800000X8.000000*%
%ADD14R,0.600000X1.950000*%
%ADD15C,0.600000*%
%ADD16C,0.250000*%
%ADD17C,0.400000*%
%ADD18C,0.254000*%
G04 APERTURE END LIST*
D10*
D11*
X181635000Y-59563000D03*
D12*
X181635000Y-57023000D03*
X179095000Y-59563000D03*
X179095000Y-57023000D03*
X176555000Y-59563000D03*
X176555000Y-57023000D03*
X174015000Y-59563000D03*
X174015000Y-57023000D03*
X171475000Y-59563000D03*
X171475000Y-57023000D03*
X168935000Y-59563000D03*
X168935000Y-57023000D03*
X166395000Y-59563000D03*
X166395000Y-57023000D03*
X163855000Y-59563000D03*
X163855000Y-57023000D03*
X161315000Y-59563000D03*
X161315000Y-57023000D03*
X158775000Y-59563000D03*
X158775000Y-57023000D03*
X156235000Y-59563000D03*
X156235000Y-57023000D03*
X153695000Y-59563000D03*
X153695000Y-57023000D03*
X151155000Y-59563000D03*
X151155000Y-57023000D03*
X148615000Y-59563000D03*
X148615000Y-57023000D03*
X146075000Y-59563000D03*
X146075000Y-57023000D03*
X143535000Y-59563000D03*
X143535000Y-57023000D03*
X140995000Y-59563000D03*
X140995000Y-57023000D03*
X138455000Y-59563000D03*
X138455000Y-57023000D03*
X135915000Y-59563000D03*
X135915000Y-57023000D03*
X133375000Y-59563000D03*
X133375000Y-57023000D03*
D13*
X187949840Y-109827440D03*
X185409840Y-109827440D03*
X182869840Y-109827440D03*
X180329840Y-109827440D03*
X177789840Y-109827440D03*
X175249840Y-109827440D03*
X172709840Y-109827440D03*
X170169840Y-109827440D03*
X167629840Y-109827440D03*
X165089840Y-109827440D03*
X162549840Y-109827440D03*
X160009840Y-109827440D03*
X157469840Y-109827440D03*
X154929840Y-109827440D03*
X152389840Y-109827440D03*
X149849840Y-109827440D03*
X147309840Y-109827440D03*
X144769840Y-109827440D03*
X142229840Y-109827440D03*
X139689840Y-109827440D03*
X137149840Y-109827440D03*
X134609840Y-109827440D03*
X132069840Y-109827440D03*
X129529840Y-109827440D03*
X126989840Y-109827440D03*
D14*
X152044000Y-75335400D03*
X153314000Y-75335400D03*
X154584000Y-75335400D03*
X155854000Y-75335400D03*
X157124000Y-75335400D03*
X158394000Y-75335400D03*
X159664000Y-75335400D03*
X160934000Y-75335400D03*
X162204000Y-75335400D03*
X163474000Y-75335400D03*
X163474000Y-84735400D03*
X162204000Y-84735400D03*
X160934000Y-84735400D03*
X159664000Y-84735400D03*
X158394000Y-84735400D03*
X157124000Y-84735400D03*
X155854000Y-84735400D03*
X154584000Y-84735400D03*
X153314000Y-84735400D03*
X152044000Y-84735400D03*
X133706000Y-75335400D03*
X134976000Y-75335400D03*
X136246000Y-75335400D03*
X137516000Y-75335400D03*
X138786000Y-75335400D03*
X140056000Y-75335400D03*
X141326000Y-75335400D03*
X142596000Y-75335400D03*
X143866000Y-75335400D03*
X145136000Y-75335400D03*
X145136000Y-84735400D03*
X143866000Y-84735400D03*
X142596000Y-84735400D03*
X141326000Y-84735400D03*
X140056000Y-84735400D03*
X138786000Y-84735400D03*
X137516000Y-84735400D03*
X136246000Y-84735400D03*
X134976000Y-84735400D03*
X133706000Y-84735400D03*
D15*
X166903400Y-63728600D03*
X142280640Y-60716160D03*
X169774000Y-75335400D03*
X171775120Y-72029320D03*
X179934000Y-84735400D03*
X181204000Y-75335400D03*
X134589520Y-101285040D03*
X150749000Y-70739000D03*
X135148320Y-66771520D03*
X152628600Y-58343800D03*
X168224200Y-65252600D03*
X172694600Y-58089800D03*
X172694600Y-65252600D03*
X146341200Y-81720000D03*
X142090800Y-76864000D03*
X138151000Y-73868900D03*
X136882100Y-77160500D03*
X157486500Y-78585500D03*
X140029200Y-77240600D03*
X178733700Y-87141600D03*
X173862000Y-104641600D03*
X171211400Y-104416100D03*
X149473000Y-84223700D03*
X168961400Y-104523800D03*
X163260100Y-97553600D03*
X163171700Y-102869100D03*
X160308900Y-104523800D03*
X136161100Y-82256700D03*
X148233100Y-85062000D03*
X156625100Y-93631200D03*
X154890600Y-91893500D03*
X145482200Y-87207200D03*
X145226100Y-89591400D03*
X148378300Y-104104700D03*
X144087200Y-100196500D03*
X141596900Y-98226500D03*
X139471600Y-96667000D03*
X136458600Y-87217000D03*
X149178300Y-75932800D03*
X140182300Y-78951900D03*
X177021900Y-71734700D03*
X155988400Y-76821400D03*
X158324000Y-77073500D03*
X156453000Y-80244800D03*
X156900700Y-76969100D03*
X153139100Y-73370900D03*
X154016500Y-73791400D03*
D16*
X166883080Y-63708280D02*
X166903400Y-63728600D01*
X171775120Y-72141080D02*
X171775120Y-72029320D01*
X169773000Y-74143200D02*
X171775120Y-72141080D01*
X169773000Y-75336400D02*
X169773000Y-74143200D01*
X169773000Y-75336400D02*
X169774000Y-75335400D01*
X181213160Y-75326240D02*
X181204000Y-75335400D01*
X181213760Y-75326240D02*
X181213160Y-75326240D01*
X181204000Y-78922480D02*
X181204000Y-75335400D01*
X179933600Y-80192880D02*
X181204000Y-78922480D01*
X179933600Y-84735800D02*
X179933600Y-80192880D01*
X179933600Y-84735800D02*
X179934000Y-84735400D01*
X134609840Y-109827440D02*
X134609840Y-101305360D01*
X134609840Y-101305360D02*
X134589520Y-101285040D01*
X145136000Y-75335400D02*
X145136000Y-74020280D01*
X148417280Y-70739000D02*
X150749000Y-70739000D01*
X145136000Y-74020280D02*
X148417280Y-70739000D01*
X135148320Y-66771520D02*
X139674600Y-62245240D01*
X139674600Y-62245240D02*
X139674600Y-58343400D01*
X140995000Y-57023000D02*
X139674600Y-58343400D01*
X158775000Y-57023000D02*
X158673800Y-57023000D01*
X158673800Y-57023000D02*
X157353000Y-58343800D01*
X157353000Y-58343800D02*
X152628600Y-58343800D01*
X158673800Y-57023000D02*
X157454600Y-58242200D01*
X157454600Y-58242200D02*
X157454600Y-60579000D01*
X166395000Y-57023000D02*
X166395000Y-57125000D01*
X166395000Y-57125000D02*
X165125400Y-58394600D01*
X165125400Y-58394600D02*
X165125400Y-61950600D01*
X165125400Y-61950600D02*
X166883080Y-63708280D01*
X171475000Y-59563000D02*
X171475000Y-59309400D01*
X171475000Y-59309400D02*
X172694600Y-58089800D01*
X163474000Y-75335400D02*
X163474000Y-74473200D01*
X163474000Y-74473200D02*
X172694600Y-65252600D01*
D17*
X152044000Y-75335400D02*
X152044000Y-76710700D01*
X179095000Y-57023000D02*
X181635000Y-57023000D01*
X133706000Y-84735400D02*
X133706000Y-86110700D01*
X129529800Y-105427100D02*
X132069800Y-105427100D01*
X129529800Y-109827400D02*
X129529800Y-105427100D01*
X132069800Y-109827400D02*
X132069800Y-105427100D01*
X132069800Y-87746900D02*
X132069800Y-105427100D01*
X133706000Y-86110700D02*
X132069800Y-87746900D01*
X152044000Y-84679600D02*
X152044000Y-83360100D01*
X152044000Y-84679600D02*
X152044000Y-84735400D01*
X133706000Y-84735400D02*
X133706000Y-83360100D01*
X152044000Y-76710700D02*
X152044000Y-83360100D01*
X146157500Y-81903700D02*
X146341200Y-81720000D01*
X149225600Y-84971800D02*
X146157500Y-81903700D01*
X151807600Y-84971800D02*
X149225600Y-84971800D01*
X152044000Y-84735400D02*
X151807600Y-84971800D01*
X135509700Y-81556400D02*
X133706000Y-83360100D01*
X136451200Y-81556400D02*
X135509700Y-81556400D01*
X136798500Y-81903700D02*
X136451200Y-81556400D01*
X146157500Y-81903700D02*
X136798500Y-81903700D01*
D16*
X141326000Y-75335400D02*
X141326000Y-76635700D01*
X142090800Y-76864000D02*
X142090800Y-76752700D01*
X141973800Y-76635700D02*
X142090800Y-76752700D01*
X141326000Y-76635700D02*
X141973800Y-76635700D01*
X176555000Y-63990500D02*
X176555000Y-59563000D01*
X162833000Y-77712500D02*
X176555000Y-63990500D01*
X153938900Y-77712500D02*
X162833000Y-77712500D01*
X152682100Y-76455700D02*
X153938900Y-77712500D01*
X152682100Y-74208400D02*
X152682100Y-76455700D01*
X152464300Y-73990600D02*
X152682100Y-74208400D01*
X150214200Y-73990600D02*
X152464300Y-73990600D01*
X147452100Y-76752700D02*
X150214200Y-73990600D01*
X142090800Y-76752700D02*
X147452100Y-76752700D01*
X135733200Y-74035100D02*
X137516000Y-74035100D01*
X135601400Y-74166900D02*
X135733200Y-74035100D01*
X135601400Y-76507600D02*
X135601400Y-74166900D01*
X135473200Y-76635800D02*
X135601400Y-76507600D01*
X134490900Y-76635800D02*
X135473200Y-76635800D01*
X134350600Y-76495500D02*
X134490900Y-76635800D01*
X134350600Y-64592400D02*
X134350600Y-76495500D01*
X137185000Y-61758000D02*
X134350600Y-64592400D01*
X137185000Y-56589800D02*
X137185000Y-61758000D01*
X138399400Y-55375400D02*
X137185000Y-56589800D01*
X174083700Y-55375400D02*
X138399400Y-55375400D01*
X175200800Y-56492500D02*
X174083700Y-55375400D01*
X175200800Y-58377200D02*
X175200800Y-56492500D01*
X174015000Y-59563000D02*
X175200800Y-58377200D01*
X138151000Y-73868900D02*
X137516000Y-74503900D01*
X137516000Y-75335400D02*
X137516000Y-74503900D01*
X137516000Y-74503900D02*
X137516000Y-74035100D01*
X134976000Y-69297300D02*
X134976000Y-75335400D01*
X143535000Y-60738300D02*
X134976000Y-69297300D01*
X143535000Y-59563000D02*
X143535000Y-60738300D01*
X136357300Y-76635700D02*
X136246000Y-76635700D01*
X136882100Y-77160500D02*
X136357300Y-76635700D01*
X136246000Y-75335400D02*
X136246000Y-76635700D01*
X142596000Y-66757300D02*
X148615000Y-60738300D01*
X142596000Y-75335400D02*
X142596000Y-66757300D01*
X148615000Y-59563000D02*
X148615000Y-60738300D01*
X143866000Y-72904800D02*
X143866000Y-75335400D01*
X149790400Y-66980400D02*
X143866000Y-72904800D01*
X149790400Y-59006400D02*
X149790400Y-66980400D01*
X148982300Y-58198300D02*
X149790400Y-59006400D01*
X148615000Y-58198300D02*
X148982300Y-58198300D01*
X148615000Y-57023000D02*
X148615000Y-58198300D01*
X179095000Y-62107300D02*
X179095000Y-60738300D01*
X162616800Y-78585500D02*
X179095000Y-62107300D01*
X157486500Y-78585500D02*
X162616800Y-78585500D01*
X179095000Y-59563000D02*
X179095000Y-60738300D01*
X140056000Y-77213800D02*
X140056000Y-75335400D01*
X140029200Y-77240600D02*
X140056000Y-77213800D01*
X138786000Y-68027300D02*
X138786000Y-75335400D01*
X146075000Y-60738300D02*
X138786000Y-68027300D01*
X146075000Y-59563000D02*
X146075000Y-60738300D01*
X180329800Y-88737700D02*
X180329800Y-109827400D01*
X178733700Y-87141600D02*
X180329800Y-88737700D01*
X174722500Y-105502100D02*
X175249800Y-105502100D01*
X173862000Y-104641600D02*
X174722500Y-105502100D01*
X175249800Y-109827400D02*
X175249800Y-105502100D01*
X172297400Y-105502100D02*
X172709800Y-105502100D01*
X171211400Y-104416100D02*
X172297400Y-105502100D01*
X172709800Y-109827400D02*
X172709800Y-105502100D01*
X133706000Y-75335400D02*
X133706000Y-76635700D01*
X149473000Y-83967400D02*
X149473000Y-84223700D01*
X146569100Y-81063500D02*
X149473000Y-83967400D01*
X138133800Y-81063500D02*
X146569100Y-81063500D01*
X133706000Y-76635700D02*
X138133800Y-81063500D01*
X169939700Y-105502100D02*
X170169800Y-105502100D01*
X168961400Y-104523800D02*
X169939700Y-105502100D01*
X170169800Y-109827400D02*
X170169800Y-105502100D01*
X167629800Y-109827400D02*
X167629800Y-105502100D01*
X162204000Y-84735400D02*
X162204000Y-86035700D01*
X162204000Y-100076300D02*
X167629800Y-105502100D01*
X162204000Y-86035700D02*
X162204000Y-100076300D01*
X163474000Y-97339700D02*
X163260100Y-97553600D01*
X163474000Y-84735400D02*
X163474000Y-97339700D01*
X160934000Y-84735400D02*
X160934000Y-86035700D01*
X160934000Y-99747000D02*
X160934000Y-86035700D01*
X165089800Y-103902800D02*
X160934000Y-99747000D01*
X165089800Y-109827400D02*
X165089800Y-103902800D01*
X159664000Y-99361400D02*
X163171700Y-102869100D01*
X159664000Y-84735400D02*
X159664000Y-99361400D01*
X161287200Y-105502100D02*
X162549800Y-105502100D01*
X160308900Y-104523800D02*
X161287200Y-105502100D01*
X162549800Y-109827400D02*
X162549800Y-105502100D01*
X145704300Y-82533200D02*
X148233100Y-85062000D01*
X136437600Y-82533200D02*
X145704300Y-82533200D01*
X136161100Y-82256700D02*
X136437600Y-82533200D01*
X158394000Y-84735400D02*
X158394000Y-86035700D01*
X158394000Y-103886300D02*
X160009800Y-105502100D01*
X158394000Y-86035700D02*
X158394000Y-103886300D01*
X160009800Y-109827400D02*
X160009800Y-105502100D01*
X157124000Y-93132300D02*
X157124000Y-84735400D01*
X156625100Y-93631200D02*
X157124000Y-93132300D01*
X157469800Y-102359100D02*
X157469800Y-109827400D01*
X155854000Y-100743300D02*
X157469800Y-102359100D01*
X155854000Y-84735400D02*
X155854000Y-100743300D01*
X154890600Y-86342300D02*
X154584000Y-86035700D01*
X154890600Y-91893500D02*
X154890600Y-86342300D01*
X154584000Y-84735400D02*
X154584000Y-86035700D01*
X154929800Y-96654800D02*
X154929800Y-109827400D01*
X145482200Y-87207200D02*
X154929800Y-96654800D01*
X152389800Y-96755100D02*
X152389800Y-109827400D01*
X145226100Y-89591400D02*
X152389800Y-96755100D01*
X149775700Y-105502100D02*
X149849800Y-105502100D01*
X148378300Y-104104700D02*
X149775700Y-105502100D01*
X149849800Y-109827400D02*
X149849800Y-105502100D01*
X147309800Y-109827400D02*
X147309800Y-105502100D01*
X145136000Y-84735400D02*
X145136000Y-86035700D01*
X147309800Y-92559400D02*
X147309800Y-105502100D01*
X144600800Y-89850400D02*
X147309800Y-92559400D01*
X144600800Y-86570900D02*
X144600800Y-89850400D01*
X145136000Y-86035700D02*
X144600800Y-86570900D01*
X143866000Y-99975300D02*
X144087200Y-100196500D01*
X143866000Y-84735400D02*
X143866000Y-99975300D01*
X144769800Y-109827400D02*
X144769800Y-105502100D01*
X142596000Y-84735400D02*
X142596000Y-86035700D01*
X142596000Y-103328300D02*
X144769800Y-105502100D01*
X142596000Y-86035700D02*
X142596000Y-103328300D01*
X141326000Y-97955600D02*
X141596900Y-98226500D01*
X141326000Y-84735400D02*
X141326000Y-97955600D01*
X140252900Y-103525200D02*
X142229800Y-105502100D01*
X140252900Y-86232600D02*
X140252900Y-103525200D01*
X140056000Y-86035700D02*
X140252900Y-86232600D01*
X140056000Y-84735400D02*
X140056000Y-86035700D01*
X142229800Y-109827400D02*
X142229800Y-105502100D01*
X138786000Y-95981400D02*
X139471600Y-96667000D01*
X138786000Y-86035700D02*
X138786000Y-95981400D01*
X138786000Y-84735400D02*
X138786000Y-86035700D01*
X137516000Y-103328300D02*
X139689800Y-105502100D01*
X137516000Y-84735400D02*
X137516000Y-103328300D01*
X139689800Y-109827400D02*
X139689800Y-105502100D01*
X136246000Y-87004400D02*
X136458600Y-87217000D01*
X136246000Y-84735400D02*
X136246000Y-87004400D01*
X146159200Y-78951900D02*
X140182300Y-78951900D01*
X149178300Y-75932800D02*
X146159200Y-78951900D01*
X138029900Y-54908100D02*
X135915000Y-57023000D01*
X176176800Y-54908100D02*
X138029900Y-54908100D01*
X177825000Y-56556300D02*
X176176800Y-54908100D01*
X177825000Y-57454000D02*
X177825000Y-56556300D01*
X178569400Y-58198400D02*
X177825000Y-57454000D01*
X179478700Y-58198400D02*
X178569400Y-58198400D01*
X180309600Y-59029300D02*
X179478700Y-58198400D01*
X180309600Y-68447000D02*
X180309600Y-59029300D01*
X177021900Y-71734700D02*
X180309600Y-68447000D01*
X155854000Y-75335400D02*
X155854000Y-76635700D01*
X155988400Y-76770100D02*
X155988400Y-76821400D01*
X155854000Y-76635700D02*
X155988400Y-76770100D01*
X158324000Y-76705700D02*
X158324000Y-77073500D01*
X158394000Y-76635700D02*
X158324000Y-76705700D01*
X158394000Y-75335400D02*
X158394000Y-76635700D01*
X159664000Y-66707300D02*
X159664000Y-75335400D01*
X153695000Y-60738300D02*
X159664000Y-66707300D01*
X153695000Y-59563000D02*
X153695000Y-60738300D01*
X171475000Y-57023000D02*
X171475000Y-58198300D01*
X162204000Y-69448100D02*
X162204000Y-74035100D01*
X170299700Y-61352400D02*
X162204000Y-69448100D01*
X170299700Y-59006200D02*
X170299700Y-61352400D01*
X171107600Y-58198300D02*
X170299700Y-59006200D01*
X171475000Y-58198300D02*
X171107600Y-58198300D01*
X162204000Y-75335400D02*
X162204000Y-74035100D01*
X153314000Y-83383800D02*
X156453000Y-80244800D01*
X153314000Y-84735400D02*
X153314000Y-83383800D01*
X148203900Y-86035700D02*
X153314000Y-86035700D01*
X145603300Y-83435100D02*
X148203900Y-86035700D01*
X134976000Y-83435100D02*
X145603300Y-83435100D01*
X134976000Y-84735400D02*
X134976000Y-83435100D01*
X153314000Y-84735400D02*
X153314000Y-86035700D01*
X157124000Y-76745800D02*
X157124000Y-75335400D01*
X156900700Y-76969100D02*
X157124000Y-76745800D01*
X156235000Y-59563000D02*
X156235000Y-60738300D01*
X160934000Y-75335400D02*
X160934000Y-74035100D01*
X160934000Y-65437300D02*
X156235000Y-60738300D01*
X160934000Y-74035100D02*
X160934000Y-65437300D01*
X153314000Y-75335400D02*
X153314000Y-74035100D01*
X153139100Y-73860200D02*
X153139100Y-73370900D01*
X153314000Y-74035100D02*
X153139100Y-73860200D01*
X142170300Y-59195600D02*
X142170300Y-59563000D01*
X142978200Y-58387700D02*
X142170300Y-59195600D01*
X146469000Y-58387700D02*
X142978200Y-58387700D01*
X147250400Y-57606300D02*
X146469000Y-58387700D01*
X147250400Y-56723200D02*
X147250400Y-57606300D01*
X148126000Y-55847600D02*
X147250400Y-56723200D01*
X149198400Y-55847600D02*
X148126000Y-55847600D01*
X149885000Y-56534200D02*
X149198400Y-55847600D01*
X149885000Y-57417200D02*
X149885000Y-56534200D01*
X150855400Y-58387600D02*
X149885000Y-57417200D01*
X151703000Y-58387600D02*
X150855400Y-58387600D01*
X152425000Y-59109600D02*
X151703000Y-58387600D01*
X152425000Y-72656800D02*
X152425000Y-59109600D01*
X153139100Y-73370900D02*
X152425000Y-72656800D01*
X140995000Y-59563000D02*
X142170300Y-59563000D01*
X154260200Y-74035100D02*
X154584000Y-74035100D01*
X154016500Y-73791400D02*
X154260200Y-74035100D01*
X154584000Y-75335400D02*
X154584000Y-74147700D01*
X154584000Y-74147700D02*
X154584000Y-74035100D01*
X174015000Y-57023000D02*
X174015000Y-58198300D01*
X158870900Y-74035100D02*
X154584000Y-74035100D01*
X159019400Y-74183600D02*
X158870900Y-74035100D01*
X159019400Y-76482500D02*
X159019400Y-74183600D01*
X159172700Y-76635800D02*
X159019400Y-76482500D01*
X162638700Y-76635800D02*
X159172700Y-76635800D01*
X162839000Y-76435500D02*
X162638700Y-76635800D01*
X162839000Y-72743000D02*
X162839000Y-76435500D01*
X172839700Y-62742300D02*
X162839000Y-72743000D01*
X172839700Y-59006200D02*
X172839700Y-62742300D01*
X173647600Y-58198300D02*
X172839700Y-59006200D01*
X174015000Y-58198300D02*
X173647600Y-58198300D01*
D18*
G36*
X135486000Y-87004400D02*
X135523620Y-87193525D01*
X135523438Y-87402167D01*
X135665483Y-87745943D01*
X135928273Y-88009192D01*
X136271801Y-88151838D01*
X136643767Y-88152162D01*
X136756000Y-88105788D01*
X136756000Y-103328300D01*
X136813852Y-103619139D01*
X136978599Y-103865701D01*
X138396689Y-105283791D01*
X138176149Y-105192440D01*
X137435590Y-105192440D01*
X137276840Y-105351190D01*
X137276840Y-109700440D01*
X137296840Y-109700440D01*
X137296840Y-109954440D01*
X137276840Y-109954440D01*
X137276840Y-109974440D01*
X137022840Y-109974440D01*
X137022840Y-109954440D01*
X134736840Y-109954440D01*
X134736840Y-109974440D01*
X134482840Y-109974440D01*
X134482840Y-109954440D01*
X134462840Y-109954440D01*
X134462840Y-109700440D01*
X134482840Y-109700440D01*
X134482840Y-105351190D01*
X134736840Y-105351190D01*
X134736840Y-109700440D01*
X137022840Y-109700440D01*
X137022840Y-105351190D01*
X136864090Y-105192440D01*
X136123531Y-105192440D01*
X135890142Y-105289113D01*
X135879840Y-105299415D01*
X135869538Y-105289113D01*
X135636149Y-105192440D01*
X134895590Y-105192440D01*
X134736840Y-105351190D01*
X134482840Y-105351190D01*
X134324090Y-105192440D01*
X133583531Y-105192440D01*
X133350142Y-105289113D01*
X133332536Y-105306719D01*
X133221730Y-105231009D01*
X132969840Y-105180000D01*
X132904800Y-105180000D01*
X132904800Y-88092768D01*
X134296434Y-86701134D01*
X134381983Y-86573101D01*
X134477439Y-86430241D01*
X134498971Y-86321991D01*
X134676000Y-86357840D01*
X135276000Y-86357840D01*
X135486000Y-86318326D01*
X135486000Y-87004400D01*
X135486000Y-87004400D01*
G37*
X135486000Y-87004400D02*
X135523620Y-87193525D01*
X135523438Y-87402167D01*
X135665483Y-87745943D01*
X135928273Y-88009192D01*
X136271801Y-88151838D01*
X136643767Y-88152162D01*
X136756000Y-88105788D01*
X136756000Y-103328300D01*
X136813852Y-103619139D01*
X136978599Y-103865701D01*
X138396689Y-105283791D01*
X138176149Y-105192440D01*
X137435590Y-105192440D01*
X137276840Y-105351190D01*
X137276840Y-109700440D01*
X137296840Y-109700440D01*
X137296840Y-109954440D01*
X137276840Y-109954440D01*
X137276840Y-109974440D01*
X137022840Y-109974440D01*
X137022840Y-109954440D01*
X134736840Y-109954440D01*
X134736840Y-109974440D01*
X134482840Y-109974440D01*
X134482840Y-109954440D01*
X134462840Y-109954440D01*
X134462840Y-109700440D01*
X134482840Y-109700440D01*
X134482840Y-105351190D01*
X134736840Y-105351190D01*
X134736840Y-109700440D01*
X137022840Y-109700440D01*
X137022840Y-105351190D01*
X136864090Y-105192440D01*
X136123531Y-105192440D01*
X135890142Y-105289113D01*
X135879840Y-105299415D01*
X135869538Y-105289113D01*
X135636149Y-105192440D01*
X134895590Y-105192440D01*
X134736840Y-105351190D01*
X134482840Y-105351190D01*
X134324090Y-105192440D01*
X133583531Y-105192440D01*
X133350142Y-105289113D01*
X133332536Y-105306719D01*
X133221730Y-105231009D01*
X132969840Y-105180000D01*
X132904800Y-105180000D01*
X132904800Y-88092768D01*
X134296434Y-86701134D01*
X134381983Y-86573101D01*
X134477439Y-86430241D01*
X134498971Y-86321991D01*
X134676000Y-86357840D01*
X135276000Y-86357840D01*
X135486000Y-86318326D01*
X135486000Y-87004400D01*
G36*
X189370900Y-105464533D02*
X189313930Y-105375999D01*
X189101730Y-105231009D01*
X188849840Y-105180000D01*
X187049840Y-105180000D01*
X186814523Y-105224278D01*
X186679263Y-105311316D01*
X186561730Y-105231009D01*
X186309840Y-105180000D01*
X184509840Y-105180000D01*
X184274523Y-105224278D01*
X184139263Y-105311316D01*
X184021730Y-105231009D01*
X183769840Y-105180000D01*
X181969840Y-105180000D01*
X181734523Y-105224278D01*
X181599263Y-105311316D01*
X181481730Y-105231009D01*
X181229840Y-105180000D01*
X181089800Y-105180000D01*
X181089800Y-98894900D01*
X182374463Y-98894900D01*
X182598557Y-100021496D01*
X183236722Y-100976578D01*
X184191804Y-101614743D01*
X185318400Y-101838837D01*
X186444996Y-101614743D01*
X187400078Y-100976578D01*
X188038243Y-100021496D01*
X188262337Y-98894900D01*
X188038243Y-97768304D01*
X187400078Y-96813222D01*
X186444996Y-96175057D01*
X185318400Y-95950963D01*
X184191804Y-96175057D01*
X183236722Y-96813222D01*
X182598557Y-97768304D01*
X182374463Y-98894900D01*
X181089800Y-98894900D01*
X181089800Y-88737700D01*
X181031948Y-88446861D01*
X181031948Y-88446860D01*
X180867201Y-88200299D01*
X179668822Y-87001920D01*
X179668862Y-86956433D01*
X179526817Y-86612657D01*
X179264027Y-86349408D01*
X178920499Y-86206762D01*
X178548533Y-86206438D01*
X178204757Y-86348483D01*
X177941508Y-86611273D01*
X177798862Y-86954801D01*
X177798538Y-87326767D01*
X177940583Y-87670543D01*
X178203373Y-87933792D01*
X178546901Y-88076438D01*
X178593777Y-88076479D01*
X179569800Y-89052502D01*
X179569800Y-105180000D01*
X179429840Y-105180000D01*
X179194523Y-105224278D01*
X179059263Y-105311316D01*
X178941730Y-105231009D01*
X178689840Y-105180000D01*
X176889840Y-105180000D01*
X176654523Y-105224278D01*
X176519263Y-105311316D01*
X176401730Y-105231009D01*
X176149840Y-105180000D01*
X175931060Y-105180000D01*
X175787201Y-104964699D01*
X175540639Y-104799952D01*
X175249800Y-104742100D01*
X175037302Y-104742100D01*
X174797122Y-104501920D01*
X174797162Y-104456433D01*
X174655117Y-104112657D01*
X174392327Y-103849408D01*
X174048799Y-103706762D01*
X173676833Y-103706438D01*
X173333057Y-103848483D01*
X173069808Y-104111273D01*
X172927162Y-104454801D01*
X172926874Y-104785279D01*
X172709800Y-104742100D01*
X172612202Y-104742100D01*
X172146522Y-104276420D01*
X172146562Y-104230933D01*
X172004517Y-103887157D01*
X171741727Y-103623908D01*
X171398199Y-103481262D01*
X171026233Y-103480938D01*
X170682457Y-103622983D01*
X170419208Y-103885773D01*
X170276562Y-104229301D01*
X170276238Y-104601267D01*
X170349171Y-104777779D01*
X170275534Y-104763132D01*
X169896522Y-104384120D01*
X169896562Y-104338633D01*
X169754517Y-103994857D01*
X169491727Y-103731608D01*
X169148199Y-103588962D01*
X168776233Y-103588638D01*
X168432457Y-103730683D01*
X168169208Y-103993473D01*
X168026562Y-104337001D01*
X168026238Y-104708967D01*
X168107050Y-104904548D01*
X162964000Y-99761498D01*
X162964000Y-98443052D01*
X163073301Y-98488438D01*
X163445267Y-98488762D01*
X163789043Y-98346717D01*
X164052292Y-98083927D01*
X164194938Y-97740399D01*
X164195117Y-97535178D01*
X164234000Y-97339700D01*
X164234000Y-86161963D01*
X164370431Y-85962290D01*
X164421440Y-85710400D01*
X164421440Y-83760400D01*
X164377162Y-83525083D01*
X164238090Y-83308959D01*
X164025890Y-83163969D01*
X163774000Y-83112960D01*
X163174000Y-83112960D01*
X162938683Y-83157238D01*
X162839472Y-83221078D01*
X162755890Y-83163969D01*
X162504000Y-83112960D01*
X161904000Y-83112960D01*
X161668683Y-83157238D01*
X161569472Y-83221078D01*
X161485890Y-83163969D01*
X161234000Y-83112960D01*
X160634000Y-83112960D01*
X160398683Y-83157238D01*
X160299472Y-83221078D01*
X160215890Y-83163969D01*
X159964000Y-83112960D01*
X159364000Y-83112960D01*
X159128683Y-83157238D01*
X159029472Y-83221078D01*
X158945890Y-83163969D01*
X158694000Y-83112960D01*
X158094000Y-83112960D01*
X157858683Y-83157238D01*
X157759472Y-83221078D01*
X157675890Y-83163969D01*
X157424000Y-83112960D01*
X156824000Y-83112960D01*
X156588683Y-83157238D01*
X156489472Y-83221078D01*
X156405890Y-83163969D01*
X156154000Y-83112960D01*
X155554000Y-83112960D01*
X155318683Y-83157238D01*
X155219472Y-83221078D01*
X155135890Y-83163969D01*
X154884000Y-83112960D01*
X154659642Y-83112960D01*
X156592680Y-81179922D01*
X156638167Y-81179962D01*
X156981943Y-81037917D01*
X157245192Y-80775127D01*
X157387838Y-80431599D01*
X157388162Y-80059633D01*
X157246117Y-79715857D01*
X156983327Y-79452608D01*
X156639799Y-79309962D01*
X156267833Y-79309638D01*
X155924057Y-79451683D01*
X155660808Y-79714473D01*
X155518162Y-80058001D01*
X155518121Y-80104877D01*
X152879000Y-82743998D01*
X152879000Y-77727402D01*
X153401499Y-78249901D01*
X153648061Y-78414648D01*
X153938900Y-78472500D01*
X156551598Y-78472500D01*
X156551338Y-78770667D01*
X156693383Y-79114443D01*
X156956173Y-79377692D01*
X157299701Y-79520338D01*
X157671667Y-79520662D01*
X158015443Y-79378617D01*
X158048618Y-79345500D01*
X162616800Y-79345500D01*
X162907639Y-79287648D01*
X163154201Y-79122901D01*
X179549600Y-62727502D01*
X179549600Y-68132198D01*
X176882220Y-70799578D01*
X176836733Y-70799538D01*
X176492957Y-70941583D01*
X176229708Y-71204373D01*
X176087062Y-71547901D01*
X176086738Y-71919867D01*
X176228783Y-72263643D01*
X176491573Y-72526892D01*
X176835101Y-72669538D01*
X177207067Y-72669862D01*
X177550843Y-72527817D01*
X177814092Y-72265027D01*
X177956738Y-71921499D01*
X177956779Y-71874623D01*
X180847001Y-68984401D01*
X181011748Y-68737839D01*
X181069600Y-68447000D01*
X181069600Y-61060440D01*
X182485000Y-61060440D01*
X182720317Y-61016162D01*
X182936441Y-60877090D01*
X183081431Y-60664890D01*
X183132440Y-60413000D01*
X183132440Y-58713000D01*
X183088162Y-58477683D01*
X182949090Y-58261559D01*
X182736890Y-58116569D01*
X182680546Y-58105159D01*
X182685054Y-58102147D01*
X183006961Y-57620378D01*
X183120000Y-57052093D01*
X183120000Y-56993907D01*
X183006961Y-56425622D01*
X182685054Y-55943853D01*
X182203285Y-55621946D01*
X181635000Y-55508907D01*
X181066715Y-55621946D01*
X180584946Y-55943853D01*
X180421813Y-56188000D01*
X180308187Y-56188000D01*
X180145054Y-55943853D01*
X179663285Y-55621946D01*
X179095000Y-55508907D01*
X178526715Y-55621946D01*
X178190260Y-55846758D01*
X176714201Y-54370699D01*
X176467639Y-54205952D01*
X176176800Y-54148100D01*
X138029900Y-54148100D01*
X137739060Y-54205952D01*
X137492499Y-54370699D01*
X136281408Y-55581790D01*
X135915000Y-55508907D01*
X135346715Y-55621946D01*
X134864946Y-55943853D01*
X134645000Y-56273026D01*
X134425054Y-55943853D01*
X133943285Y-55621946D01*
X133375000Y-55508907D01*
X132806715Y-55621946D01*
X132324946Y-55943853D01*
X132003039Y-56425622D01*
X131890000Y-56993907D01*
X131890000Y-57052093D01*
X132003039Y-57620378D01*
X132324946Y-58102147D01*
X132608101Y-58291345D01*
X132608076Y-58291355D01*
X132179817Y-58681642D01*
X131933514Y-59206108D01*
X132054181Y-59436000D01*
X133248000Y-59436000D01*
X133248000Y-59416000D01*
X133502000Y-59416000D01*
X133502000Y-59436000D01*
X133522000Y-59436000D01*
X133522000Y-59690000D01*
X133502000Y-59690000D01*
X133502000Y-60883155D01*
X133731890Y-61004476D01*
X134141924Y-60834645D01*
X134570183Y-60444358D01*
X134637298Y-60301447D01*
X134864946Y-60642147D01*
X135346715Y-60964054D01*
X135915000Y-61077093D01*
X136425000Y-60975648D01*
X136425000Y-61443198D01*
X133813199Y-64054999D01*
X133648452Y-64301561D01*
X133590600Y-64592400D01*
X133590600Y-73712960D01*
X133406000Y-73712960D01*
X133170683Y-73757238D01*
X132954559Y-73896310D01*
X132809569Y-74108510D01*
X132758560Y-74360400D01*
X132758560Y-76310400D01*
X132802838Y-76545717D01*
X132941910Y-76761841D01*
X132975681Y-76784916D01*
X133003852Y-76926539D01*
X133168599Y-77173101D01*
X136800028Y-80804530D01*
X136770741Y-80784961D01*
X136451200Y-80721400D01*
X135509700Y-80721400D01*
X135190159Y-80784961D01*
X134919266Y-80965966D01*
X133115566Y-82769666D01*
X132934561Y-83040559D01*
X132871000Y-83360100D01*
X132871000Y-83418603D01*
X132809569Y-83508510D01*
X132758560Y-83760400D01*
X132758560Y-85710400D01*
X132784987Y-85850845D01*
X131479366Y-87156466D01*
X131298361Y-87427359D01*
X131234800Y-87746900D01*
X131234800Y-91445766D01*
X130461568Y-90929109D01*
X129324100Y-90702853D01*
X128186632Y-90929109D01*
X127222333Y-91573433D01*
X126578009Y-92537732D01*
X126351753Y-93675200D01*
X126578009Y-94812668D01*
X127222333Y-95776967D01*
X128186632Y-96421291D01*
X129324100Y-96647547D01*
X130461568Y-96421291D01*
X131234800Y-95904634D01*
X131234800Y-104592100D01*
X129529800Y-104592100D01*
X129210259Y-104655661D01*
X128939366Y-104836666D01*
X128758361Y-105107559D01*
X128743952Y-105180000D01*
X128629840Y-105180000D01*
X128394523Y-105224278D01*
X128259263Y-105311316D01*
X128141730Y-105231009D01*
X127889840Y-105180000D01*
X126089840Y-105180000D01*
X125854523Y-105224278D01*
X125652600Y-105354212D01*
X125652600Y-59919892D01*
X131933514Y-59919892D01*
X132179817Y-60444358D01*
X132608076Y-60834645D01*
X133018110Y-61004476D01*
X133248000Y-60883155D01*
X133248000Y-59690000D01*
X132054181Y-59690000D01*
X131933514Y-59919892D01*
X125652600Y-59919892D01*
X125652600Y-50405100D01*
X189370900Y-50405100D01*
X189370900Y-105464533D01*
X189370900Y-105464533D01*
G37*
X189370900Y-105464533D02*
X189313930Y-105375999D01*
X189101730Y-105231009D01*
X188849840Y-105180000D01*
X187049840Y-105180000D01*
X186814523Y-105224278D01*
X186679263Y-105311316D01*
X186561730Y-105231009D01*
X186309840Y-105180000D01*
X184509840Y-105180000D01*
X184274523Y-105224278D01*
X184139263Y-105311316D01*
X184021730Y-105231009D01*
X183769840Y-105180000D01*
X181969840Y-105180000D01*
X181734523Y-105224278D01*
X181599263Y-105311316D01*
X181481730Y-105231009D01*
X181229840Y-105180000D01*
X181089800Y-105180000D01*
X181089800Y-98894900D01*
X182374463Y-98894900D01*
X182598557Y-100021496D01*
X183236722Y-100976578D01*
X184191804Y-101614743D01*
X185318400Y-101838837D01*
X186444996Y-101614743D01*
X187400078Y-100976578D01*
X188038243Y-100021496D01*
X188262337Y-98894900D01*
X188038243Y-97768304D01*
X187400078Y-96813222D01*
X186444996Y-96175057D01*
X185318400Y-95950963D01*
X184191804Y-96175057D01*
X183236722Y-96813222D01*
X182598557Y-97768304D01*
X182374463Y-98894900D01*
X181089800Y-98894900D01*
X181089800Y-88737700D01*
X181031948Y-88446861D01*
X181031948Y-88446860D01*
X180867201Y-88200299D01*
X179668822Y-87001920D01*
X179668862Y-86956433D01*
X179526817Y-86612657D01*
X179264027Y-86349408D01*
X178920499Y-86206762D01*
X178548533Y-86206438D01*
X178204757Y-86348483D01*
X177941508Y-86611273D01*
X177798862Y-86954801D01*
X177798538Y-87326767D01*
X177940583Y-87670543D01*
X178203373Y-87933792D01*
X178546901Y-88076438D01*
X178593777Y-88076479D01*
X179569800Y-89052502D01*
X179569800Y-105180000D01*
X179429840Y-105180000D01*
X179194523Y-105224278D01*
X179059263Y-105311316D01*
X178941730Y-105231009D01*
X178689840Y-105180000D01*
X176889840Y-105180000D01*
X176654523Y-105224278D01*
X176519263Y-105311316D01*
X176401730Y-105231009D01*
X176149840Y-105180000D01*
X175931060Y-105180000D01*
X175787201Y-104964699D01*
X175540639Y-104799952D01*
X175249800Y-104742100D01*
X175037302Y-104742100D01*
X174797122Y-104501920D01*
X174797162Y-104456433D01*
X174655117Y-104112657D01*
X174392327Y-103849408D01*
X174048799Y-103706762D01*
X173676833Y-103706438D01*
X173333057Y-103848483D01*
X173069808Y-104111273D01*
X172927162Y-104454801D01*
X172926874Y-104785279D01*
X172709800Y-104742100D01*
X172612202Y-104742100D01*
X172146522Y-104276420D01*
X172146562Y-104230933D01*
X172004517Y-103887157D01*
X171741727Y-103623908D01*
X171398199Y-103481262D01*
X171026233Y-103480938D01*
X170682457Y-103622983D01*
X170419208Y-103885773D01*
X170276562Y-104229301D01*
X170276238Y-104601267D01*
X170349171Y-104777779D01*
X170275534Y-104763132D01*
X169896522Y-104384120D01*
X169896562Y-104338633D01*
X169754517Y-103994857D01*
X169491727Y-103731608D01*
X169148199Y-103588962D01*
X168776233Y-103588638D01*
X168432457Y-103730683D01*
X168169208Y-103993473D01*
X168026562Y-104337001D01*
X168026238Y-104708967D01*
X168107050Y-104904548D01*
X162964000Y-99761498D01*
X162964000Y-98443052D01*
X163073301Y-98488438D01*
X163445267Y-98488762D01*
X163789043Y-98346717D01*
X164052292Y-98083927D01*
X164194938Y-97740399D01*
X164195117Y-97535178D01*
X164234000Y-97339700D01*
X164234000Y-86161963D01*
X164370431Y-85962290D01*
X164421440Y-85710400D01*
X164421440Y-83760400D01*
X164377162Y-83525083D01*
X164238090Y-83308959D01*
X164025890Y-83163969D01*
X163774000Y-83112960D01*
X163174000Y-83112960D01*
X162938683Y-83157238D01*
X162839472Y-83221078D01*
X162755890Y-83163969D01*
X162504000Y-83112960D01*
X161904000Y-83112960D01*
X161668683Y-83157238D01*
X161569472Y-83221078D01*
X161485890Y-83163969D01*
X161234000Y-83112960D01*
X160634000Y-83112960D01*
X160398683Y-83157238D01*
X160299472Y-83221078D01*
X160215890Y-83163969D01*
X159964000Y-83112960D01*
X159364000Y-83112960D01*
X159128683Y-83157238D01*
X159029472Y-83221078D01*
X158945890Y-83163969D01*
X158694000Y-83112960D01*
X158094000Y-83112960D01*
X157858683Y-83157238D01*
X157759472Y-83221078D01*
X157675890Y-83163969D01*
X157424000Y-83112960D01*
X156824000Y-83112960D01*
X156588683Y-83157238D01*
X156489472Y-83221078D01*
X156405890Y-83163969D01*
X156154000Y-83112960D01*
X155554000Y-83112960D01*
X155318683Y-83157238D01*
X155219472Y-83221078D01*
X155135890Y-83163969D01*
X154884000Y-83112960D01*
X154659642Y-83112960D01*
X156592680Y-81179922D01*
X156638167Y-81179962D01*
X156981943Y-81037917D01*
X157245192Y-80775127D01*
X157387838Y-80431599D01*
X157388162Y-80059633D01*
X157246117Y-79715857D01*
X156983327Y-79452608D01*
X156639799Y-79309962D01*
X156267833Y-79309638D01*
X155924057Y-79451683D01*
X155660808Y-79714473D01*
X155518162Y-80058001D01*
X155518121Y-80104877D01*
X152879000Y-82743998D01*
X152879000Y-77727402D01*
X153401499Y-78249901D01*
X153648061Y-78414648D01*
X153938900Y-78472500D01*
X156551598Y-78472500D01*
X156551338Y-78770667D01*
X156693383Y-79114443D01*
X156956173Y-79377692D01*
X157299701Y-79520338D01*
X157671667Y-79520662D01*
X158015443Y-79378617D01*
X158048618Y-79345500D01*
X162616800Y-79345500D01*
X162907639Y-79287648D01*
X163154201Y-79122901D01*
X179549600Y-62727502D01*
X179549600Y-68132198D01*
X176882220Y-70799578D01*
X176836733Y-70799538D01*
X176492957Y-70941583D01*
X176229708Y-71204373D01*
X176087062Y-71547901D01*
X176086738Y-71919867D01*
X176228783Y-72263643D01*
X176491573Y-72526892D01*
X176835101Y-72669538D01*
X177207067Y-72669862D01*
X177550843Y-72527817D01*
X177814092Y-72265027D01*
X177956738Y-71921499D01*
X177956779Y-71874623D01*
X180847001Y-68984401D01*
X181011748Y-68737839D01*
X181069600Y-68447000D01*
X181069600Y-61060440D01*
X182485000Y-61060440D01*
X182720317Y-61016162D01*
X182936441Y-60877090D01*
X183081431Y-60664890D01*
X183132440Y-60413000D01*
X183132440Y-58713000D01*
X183088162Y-58477683D01*
X182949090Y-58261559D01*
X182736890Y-58116569D01*
X182680546Y-58105159D01*
X182685054Y-58102147D01*
X183006961Y-57620378D01*
X183120000Y-57052093D01*
X183120000Y-56993907D01*
X183006961Y-56425622D01*
X182685054Y-55943853D01*
X182203285Y-55621946D01*
X181635000Y-55508907D01*
X181066715Y-55621946D01*
X180584946Y-55943853D01*
X180421813Y-56188000D01*
X180308187Y-56188000D01*
X180145054Y-55943853D01*
X179663285Y-55621946D01*
X179095000Y-55508907D01*
X178526715Y-55621946D01*
X178190260Y-55846758D01*
X176714201Y-54370699D01*
X176467639Y-54205952D01*
X176176800Y-54148100D01*
X138029900Y-54148100D01*
X137739060Y-54205952D01*
X137492499Y-54370699D01*
X136281408Y-55581790D01*
X135915000Y-55508907D01*
X135346715Y-55621946D01*
X134864946Y-55943853D01*
X134645000Y-56273026D01*
X134425054Y-55943853D01*
X133943285Y-55621946D01*
X133375000Y-55508907D01*
X132806715Y-55621946D01*
X132324946Y-55943853D01*
X132003039Y-56425622D01*
X131890000Y-56993907D01*
X131890000Y-57052093D01*
X132003039Y-57620378D01*
X132324946Y-58102147D01*
X132608101Y-58291345D01*
X132608076Y-58291355D01*
X132179817Y-58681642D01*
X131933514Y-59206108D01*
X132054181Y-59436000D01*
X133248000Y-59436000D01*
X133248000Y-59416000D01*
X133502000Y-59416000D01*
X133502000Y-59436000D01*
X133522000Y-59436000D01*
X133522000Y-59690000D01*
X133502000Y-59690000D01*
X133502000Y-60883155D01*
X133731890Y-61004476D01*
X134141924Y-60834645D01*
X134570183Y-60444358D01*
X134637298Y-60301447D01*
X134864946Y-60642147D01*
X135346715Y-60964054D01*
X135915000Y-61077093D01*
X136425000Y-60975648D01*
X136425000Y-61443198D01*
X133813199Y-64054999D01*
X133648452Y-64301561D01*
X133590600Y-64592400D01*
X133590600Y-73712960D01*
X133406000Y-73712960D01*
X133170683Y-73757238D01*
X132954559Y-73896310D01*
X132809569Y-74108510D01*
X132758560Y-74360400D01*
X132758560Y-76310400D01*
X132802838Y-76545717D01*
X132941910Y-76761841D01*
X132975681Y-76784916D01*
X133003852Y-76926539D01*
X133168599Y-77173101D01*
X136800028Y-80804530D01*
X136770741Y-80784961D01*
X136451200Y-80721400D01*
X135509700Y-80721400D01*
X135190159Y-80784961D01*
X134919266Y-80965966D01*
X133115566Y-82769666D01*
X132934561Y-83040559D01*
X132871000Y-83360100D01*
X132871000Y-83418603D01*
X132809569Y-83508510D01*
X132758560Y-83760400D01*
X132758560Y-85710400D01*
X132784987Y-85850845D01*
X131479366Y-87156466D01*
X131298361Y-87427359D01*
X131234800Y-87746900D01*
X131234800Y-91445766D01*
X130461568Y-90929109D01*
X129324100Y-90702853D01*
X128186632Y-90929109D01*
X127222333Y-91573433D01*
X126578009Y-92537732D01*
X126351753Y-93675200D01*
X126578009Y-94812668D01*
X127222333Y-95776967D01*
X128186632Y-96421291D01*
X129324100Y-96647547D01*
X130461568Y-96421291D01*
X131234800Y-95904634D01*
X131234800Y-104592100D01*
X129529800Y-104592100D01*
X129210259Y-104655661D01*
X128939366Y-104836666D01*
X128758361Y-105107559D01*
X128743952Y-105180000D01*
X128629840Y-105180000D01*
X128394523Y-105224278D01*
X128259263Y-105311316D01*
X128141730Y-105231009D01*
X127889840Y-105180000D01*
X126089840Y-105180000D01*
X125854523Y-105224278D01*
X125652600Y-105354212D01*
X125652600Y-59919892D01*
X131933514Y-59919892D01*
X132179817Y-60444358D01*
X132608076Y-60834645D01*
X133018110Y-61004476D01*
X133248000Y-60883155D01*
X133248000Y-59690000D01*
X132054181Y-59690000D01*
X131933514Y-59919892D01*
X125652600Y-59919892D01*
X125652600Y-50405100D01*
X189370900Y-50405100D01*
X189370900Y-105464533D01*
G36*
X151282000Y-59436000D02*
X151302000Y-59436000D01*
X151302000Y-59690000D01*
X151282000Y-59690000D01*
X151282000Y-60883155D01*
X151511890Y-61004476D01*
X151665000Y-60941060D01*
X151665000Y-72656800D01*
X151722852Y-72947639D01*
X151887599Y-73194201D01*
X151923998Y-73230600D01*
X150214200Y-73230600D01*
X149923360Y-73288452D01*
X149676799Y-73453199D01*
X147137298Y-75992700D01*
X146071000Y-75992700D01*
X146071000Y-75621150D01*
X145912250Y-75462400D01*
X145263000Y-75462400D01*
X145263000Y-75482400D01*
X145009000Y-75482400D01*
X145009000Y-75462400D01*
X144989000Y-75462400D01*
X144989000Y-75208400D01*
X145009000Y-75208400D01*
X145009000Y-73884150D01*
X145263000Y-73884150D01*
X145263000Y-75208400D01*
X145912250Y-75208400D01*
X146071000Y-75049650D01*
X146071000Y-74234091D01*
X145974327Y-74000702D01*
X145795699Y-73822073D01*
X145562310Y-73725400D01*
X145421750Y-73725400D01*
X145263000Y-73884150D01*
X145009000Y-73884150D01*
X144850250Y-73725400D01*
X144709690Y-73725400D01*
X144626000Y-73760066D01*
X144626000Y-73219602D01*
X150327801Y-67517801D01*
X150492548Y-67271239D01*
X150550400Y-66980400D01*
X150550400Y-60901878D01*
X150798110Y-61004476D01*
X151028000Y-60883155D01*
X151028000Y-59690000D01*
X151008000Y-59690000D01*
X151008000Y-59436000D01*
X151028000Y-59436000D01*
X151028000Y-59416000D01*
X151282000Y-59416000D01*
X151282000Y-59436000D01*
X151282000Y-59436000D01*
G37*
X151282000Y-59436000D02*
X151302000Y-59436000D01*
X151302000Y-59690000D01*
X151282000Y-59690000D01*
X151282000Y-60883155D01*
X151511890Y-61004476D01*
X151665000Y-60941060D01*
X151665000Y-72656800D01*
X151722852Y-72947639D01*
X151887599Y-73194201D01*
X151923998Y-73230600D01*
X150214200Y-73230600D01*
X149923360Y-73288452D01*
X149676799Y-73453199D01*
X147137298Y-75992700D01*
X146071000Y-75992700D01*
X146071000Y-75621150D01*
X145912250Y-75462400D01*
X145263000Y-75462400D01*
X145263000Y-75482400D01*
X145009000Y-75482400D01*
X145009000Y-75462400D01*
X144989000Y-75462400D01*
X144989000Y-75208400D01*
X145009000Y-75208400D01*
X145009000Y-73884150D01*
X145263000Y-73884150D01*
X145263000Y-75208400D01*
X145912250Y-75208400D01*
X146071000Y-75049650D01*
X146071000Y-74234091D01*
X145974327Y-74000702D01*
X145795699Y-73822073D01*
X145562310Y-73725400D01*
X145421750Y-73725400D01*
X145263000Y-73884150D01*
X145009000Y-73884150D01*
X144850250Y-73725400D01*
X144709690Y-73725400D01*
X144626000Y-73760066D01*
X144626000Y-73219602D01*
X150327801Y-67517801D01*
X150492548Y-67271239D01*
X150550400Y-66980400D01*
X150550400Y-60901878D01*
X150798110Y-61004476D01*
X151028000Y-60883155D01*
X151028000Y-59690000D01*
X151008000Y-59690000D01*
X151008000Y-59436000D01*
X151028000Y-59436000D01*
X151028000Y-59416000D01*
X151282000Y-59416000D01*
X151282000Y-59436000D01*
G36*
X175504946Y-60642147D02*
X175795000Y-60835954D01*
X175795000Y-63675697D01*
X164262300Y-75208398D01*
X164250252Y-75208398D01*
X164409000Y-75049650D01*
X164409000Y-74234091D01*
X164312327Y-74000702D01*
X164133699Y-73822073D01*
X163900310Y-73725400D01*
X163759750Y-73725400D01*
X163601002Y-73884148D01*
X163601002Y-73725400D01*
X163599000Y-73725400D01*
X163599000Y-73057802D01*
X173377101Y-63279701D01*
X173541848Y-63033139D01*
X173599700Y-62742300D01*
X173599700Y-60994485D01*
X174015000Y-61077093D01*
X174583285Y-60964054D01*
X175065054Y-60642147D01*
X175285000Y-60312974D01*
X175504946Y-60642147D01*
X175504946Y-60642147D01*
G37*
X175504946Y-60642147D02*
X175795000Y-60835954D01*
X175795000Y-63675697D01*
X164262300Y-75208398D01*
X164250252Y-75208398D01*
X164409000Y-75049650D01*
X164409000Y-74234091D01*
X164312327Y-74000702D01*
X164133699Y-73822073D01*
X163900310Y-73725400D01*
X163759750Y-73725400D01*
X163601002Y-73884148D01*
X163601002Y-73725400D01*
X163599000Y-73725400D01*
X163599000Y-73057802D01*
X173377101Y-63279701D01*
X173541848Y-63033139D01*
X173599700Y-62742300D01*
X173599700Y-60994485D01*
X174015000Y-61077093D01*
X174583285Y-60964054D01*
X175065054Y-60642147D01*
X175285000Y-60312974D01*
X175504946Y-60642147D01*
G36*
X171602000Y-59436000D02*
X171622000Y-59436000D01*
X171622000Y-59690000D01*
X171602000Y-59690000D01*
X171602000Y-60883155D01*
X171831890Y-61004476D01*
X172079700Y-60901836D01*
X172079700Y-62427498D01*
X162964000Y-71543198D01*
X162964000Y-69762902D01*
X170837101Y-61889801D01*
X171001848Y-61643239D01*
X171059700Y-61352400D01*
X171059700Y-60980283D01*
X171118110Y-61004476D01*
X171348000Y-60883155D01*
X171348000Y-59690000D01*
X171328000Y-59690000D01*
X171328000Y-59436000D01*
X171348000Y-59436000D01*
X171348000Y-59416000D01*
X171602000Y-59416000D01*
X171602000Y-59436000D01*
X171602000Y-59436000D01*
G37*
X171602000Y-59436000D02*
X171622000Y-59436000D01*
X171622000Y-59690000D01*
X171602000Y-59690000D01*
X171602000Y-60883155D01*
X171831890Y-61004476D01*
X172079700Y-60901836D01*
X172079700Y-62427498D01*
X162964000Y-71543198D01*
X162964000Y-69762902D01*
X170837101Y-61889801D01*
X171001848Y-61643239D01*
X171059700Y-61352400D01*
X171059700Y-60980283D01*
X171118110Y-61004476D01*
X171348000Y-60883155D01*
X171348000Y-59690000D01*
X171328000Y-59690000D01*
X171328000Y-59436000D01*
X171348000Y-59436000D01*
X171348000Y-59416000D01*
X171602000Y-59416000D01*
X171602000Y-59436000D01*
G36*
X167884946Y-60642147D02*
X168366715Y-60964054D01*
X168935000Y-61077093D01*
X169503285Y-60964054D01*
X169539700Y-60939722D01*
X169539700Y-61037598D01*
X161694000Y-68883298D01*
X161694000Y-65437300D01*
X161636148Y-65146461D01*
X161471401Y-64899899D01*
X157242250Y-60670748D01*
X157285054Y-60642147D01*
X157505000Y-60312974D01*
X157724946Y-60642147D01*
X158206715Y-60964054D01*
X158775000Y-61077093D01*
X159343285Y-60964054D01*
X159825054Y-60642147D01*
X160045000Y-60312974D01*
X160264946Y-60642147D01*
X160746715Y-60964054D01*
X161315000Y-61077093D01*
X161883285Y-60964054D01*
X162365054Y-60642147D01*
X162585000Y-60312974D01*
X162804946Y-60642147D01*
X163286715Y-60964054D01*
X163855000Y-61077093D01*
X164423285Y-60964054D01*
X164905054Y-60642147D01*
X165125000Y-60312974D01*
X165344946Y-60642147D01*
X165826715Y-60964054D01*
X166395000Y-61077093D01*
X166963285Y-60964054D01*
X167445054Y-60642147D01*
X167665000Y-60312974D01*
X167884946Y-60642147D01*
X167884946Y-60642147D01*
G37*
X167884946Y-60642147D02*
X168366715Y-60964054D01*
X168935000Y-61077093D01*
X169503285Y-60964054D01*
X169539700Y-60939722D01*
X169539700Y-61037598D01*
X161694000Y-68883298D01*
X161694000Y-65437300D01*
X161636148Y-65146461D01*
X161471401Y-64899899D01*
X157242250Y-60670748D01*
X157285054Y-60642147D01*
X157505000Y-60312974D01*
X157724946Y-60642147D01*
X158206715Y-60964054D01*
X158775000Y-61077093D01*
X159343285Y-60964054D01*
X159825054Y-60642147D01*
X160045000Y-60312974D01*
X160264946Y-60642147D01*
X160746715Y-60964054D01*
X161315000Y-61077093D01*
X161883285Y-60964054D01*
X162365054Y-60642147D01*
X162585000Y-60312974D01*
X162804946Y-60642147D01*
X163286715Y-60964054D01*
X163855000Y-61077093D01*
X164423285Y-60964054D01*
X164905054Y-60642147D01*
X165125000Y-60312974D01*
X165344946Y-60642147D01*
X165826715Y-60964054D01*
X166395000Y-61077093D01*
X166963285Y-60964054D01*
X167445054Y-60642147D01*
X167665000Y-60312974D01*
X167884946Y-60642147D01*
G36*
X142484946Y-60642147D02*
X142527750Y-60670748D01*
X135110600Y-68087898D01*
X135110600Y-64907202D01*
X137722401Y-62295401D01*
X137887148Y-62048839D01*
X137945000Y-61758000D01*
X137945000Y-60975648D01*
X138455000Y-61077093D01*
X139023285Y-60964054D01*
X139505054Y-60642147D01*
X139725000Y-60312974D01*
X139944946Y-60642147D01*
X140426715Y-60964054D01*
X140995000Y-61077093D01*
X141563285Y-60964054D01*
X142045054Y-60642147D01*
X142265000Y-60312974D01*
X142484946Y-60642147D01*
X142484946Y-60642147D01*
G37*
X142484946Y-60642147D02*
X142527750Y-60670748D01*
X135110600Y-68087898D01*
X135110600Y-64907202D01*
X137722401Y-62295401D01*
X137887148Y-62048839D01*
X137945000Y-61758000D01*
X137945000Y-60975648D01*
X138455000Y-61077093D01*
X139023285Y-60964054D01*
X139505054Y-60642147D01*
X139725000Y-60312974D01*
X139944946Y-60642147D01*
X140426715Y-60964054D01*
X140995000Y-61077093D01*
X141563285Y-60964054D01*
X142045054Y-60642147D01*
X142265000Y-60312974D01*
X142484946Y-60642147D01*
G36*
X165199817Y-57904358D02*
X165628076Y-58294645D01*
X165628101Y-58294655D01*
X165344946Y-58483853D01*
X165125000Y-58813026D01*
X164905054Y-58483853D01*
X164619422Y-58293000D01*
X164905054Y-58102147D01*
X165132702Y-57761447D01*
X165199817Y-57904358D01*
X165199817Y-57904358D01*
G37*
X165199817Y-57904358D02*
X165628076Y-58294645D01*
X165628101Y-58294655D01*
X165344946Y-58483853D01*
X165125000Y-58813026D01*
X164905054Y-58483853D01*
X164619422Y-58293000D01*
X164905054Y-58102147D01*
X165132702Y-57761447D01*
X165199817Y-57904358D01*
G36*
X139799817Y-57904358D02*
X140228076Y-58294645D01*
X140228101Y-58294655D01*
X139944946Y-58483853D01*
X139725000Y-58813026D01*
X139505054Y-58483853D01*
X139219422Y-58293000D01*
X139505054Y-58102147D01*
X139732702Y-57761447D01*
X139799817Y-57904358D01*
X139799817Y-57904358D01*
G37*
X139799817Y-57904358D02*
X140228076Y-58294645D01*
X140228101Y-58294655D01*
X139944946Y-58483853D01*
X139725000Y-58813026D01*
X139505054Y-58483853D01*
X139219422Y-58293000D01*
X139505054Y-58102147D01*
X139732702Y-57761447D01*
X139799817Y-57904358D01*
G36*
X157579817Y-57904358D02*
X158008076Y-58294645D01*
X158008101Y-58294655D01*
X157724946Y-58483853D01*
X157505000Y-58813026D01*
X157285054Y-58483853D01*
X156999422Y-58293000D01*
X157285054Y-58102147D01*
X157512702Y-57761447D01*
X157579817Y-57904358D01*
X157579817Y-57904358D01*
G37*
X157579817Y-57904358D02*
X158008076Y-58294645D01*
X158008101Y-58294655D01*
X157724946Y-58483853D01*
X157505000Y-58813026D01*
X157285054Y-58483853D01*
X156999422Y-58293000D01*
X157285054Y-58102147D01*
X157512702Y-57761447D01*
X157579817Y-57904358D01*
G36*
X176682000Y-56896000D02*
X176702000Y-56896000D01*
X176702000Y-57150000D01*
X176682000Y-57150000D01*
X176682000Y-57170000D01*
X176428000Y-57170000D01*
X176428000Y-57150000D01*
X176408000Y-57150000D01*
X176408000Y-56896000D01*
X176428000Y-56896000D01*
X176428000Y-56876000D01*
X176682000Y-56876000D01*
X176682000Y-56896000D01*
X176682000Y-56896000D01*
G37*
X176682000Y-56896000D02*
X176702000Y-56896000D01*
X176702000Y-57150000D01*
X176682000Y-57150000D01*
X176682000Y-57170000D01*
X176428000Y-57170000D01*
X176428000Y-57150000D01*
X176408000Y-57150000D01*
X176408000Y-56896000D01*
X176428000Y-56896000D01*
X176428000Y-56876000D01*
X176682000Y-56876000D01*
X176682000Y-56896000D01*
G36*
X166522000Y-56896000D02*
X166542000Y-56896000D01*
X166542000Y-57150000D01*
X166522000Y-57150000D01*
X166522000Y-57170000D01*
X166268000Y-57170000D01*
X166268000Y-57150000D01*
X166248000Y-57150000D01*
X166248000Y-56896000D01*
X166268000Y-56896000D01*
X166268000Y-56876000D01*
X166522000Y-56876000D01*
X166522000Y-56896000D01*
X166522000Y-56896000D01*
G37*
X166522000Y-56896000D02*
X166542000Y-56896000D01*
X166542000Y-57150000D01*
X166522000Y-57150000D01*
X166522000Y-57170000D01*
X166268000Y-57170000D01*
X166268000Y-57150000D01*
X166248000Y-57150000D01*
X166248000Y-56896000D01*
X166268000Y-56896000D01*
X166268000Y-56876000D01*
X166522000Y-56876000D01*
X166522000Y-56896000D01*
G36*
X158902000Y-56896000D02*
X158922000Y-56896000D01*
X158922000Y-57150000D01*
X158902000Y-57150000D01*
X158902000Y-57170000D01*
X158648000Y-57170000D01*
X158648000Y-57150000D01*
X158628000Y-57150000D01*
X158628000Y-56896000D01*
X158648000Y-56896000D01*
X158648000Y-56876000D01*
X158902000Y-56876000D01*
X158902000Y-56896000D01*
X158902000Y-56896000D01*
G37*
X158902000Y-56896000D02*
X158922000Y-56896000D01*
X158922000Y-57150000D01*
X158902000Y-57150000D01*
X158902000Y-57170000D01*
X158648000Y-57170000D01*
X158648000Y-57150000D01*
X158628000Y-57150000D01*
X158628000Y-56896000D01*
X158648000Y-56896000D01*
X158648000Y-56876000D01*
X158902000Y-56876000D01*
X158902000Y-56896000D01*
G36*
X146202000Y-56896000D02*
X146222000Y-56896000D01*
X146222000Y-57150000D01*
X146202000Y-57150000D01*
X146202000Y-57170000D01*
X145948000Y-57170000D01*
X145948000Y-57150000D01*
X145928000Y-57150000D01*
X145928000Y-56896000D01*
X145948000Y-56896000D01*
X145948000Y-56876000D01*
X146202000Y-56876000D01*
X146202000Y-56896000D01*
X146202000Y-56896000D01*
G37*
X146202000Y-56896000D02*
X146222000Y-56896000D01*
X146222000Y-57150000D01*
X146202000Y-57150000D01*
X146202000Y-57170000D01*
X145948000Y-57170000D01*
X145948000Y-57150000D01*
X145928000Y-57150000D01*
X145928000Y-56896000D01*
X145948000Y-56896000D01*
X145948000Y-56876000D01*
X146202000Y-56876000D01*
X146202000Y-56896000D01*
G36*
X141122000Y-56896000D02*
X141142000Y-56896000D01*
X141142000Y-57150000D01*
X141122000Y-57150000D01*
X141122000Y-57170000D01*
X140868000Y-57170000D01*
X140868000Y-57150000D01*
X140848000Y-57150000D01*
X140848000Y-56896000D01*
X140868000Y-56896000D01*
X140868000Y-56876000D01*
X141122000Y-56876000D01*
X141122000Y-56896000D01*
X141122000Y-56896000D01*
G37*
X141122000Y-56896000D02*
X141142000Y-56896000D01*
X141142000Y-57150000D01*
X141122000Y-57150000D01*
X141122000Y-57170000D01*
X140868000Y-57170000D01*
X140868000Y-57150000D01*
X140848000Y-57150000D01*
X140848000Y-56896000D01*
X140868000Y-56896000D01*
X140868000Y-56876000D01*
X141122000Y-56876000D01*
X141122000Y-56896000D01*
M02*
