M48
;DRILL file {KiCad 4.0.7} date 08/27/18 14:38:32
;FORMAT={-:-/ absolute / inch / decimal}
FMAT,2
INCH,TZ
T1C0.016
T2C0.031
T3C0.039
%
G90
G05
M72
T1
X3.8551Y-2.8475
X3.8958Y-3.7255
X3.9069Y-2.6748
X3.9128Y-3.7567
X3.9129Y-3.6738
X3.958Y-2.968
X3.9849Y-2.4834
X4.0295Y-4.1477
X4.0672Y-4.1132
X4.1792Y-4.3681
X4.1876Y-3.9719
X4.2347Y-3.7075
X4.238Y-3.4567
X4.2515Y-3.8974
X4.2548Y-3.6613
X4.2819Y-3.949
X4.2962Y-3.7413
X4.3068Y-3.2348
X4.3187Y-3.6305
X4.3337Y-3.9446
X4.3407Y-3.776
X4.3838Y-3.3718
X4.4102Y-3.3964
X4.4143Y-3.4567
X4.4309Y-3.5179
X4.4503Y-4.0284
X4.5423Y-3.5184
X4.5478Y-4.078
X4.5668Y-4.3122
X4.5707Y-3.6042
X4.6171Y-3.6508
X4.6352Y-4.0033
X4.6381Y-4.2959
X4.6385Y-4.078
X4.6422Y-4.492
X4.6467Y-3.7971
X4.6572Y-3.8476
X4.6671Y-3.7729
X4.6857Y-3.5439
X4.7057Y-3.9
X4.7499Y-2.7938
X4.7707Y-3.5159
X4.7797Y-4.2029
X4.7986Y-3.4912
X4.8193Y-4.075
X4.8249Y-3.95
X4.8523Y-4.113
X4.873Y-4.0853
X4.9019Y-4.136
X4.9122Y-3.75
X4.9303Y-4.
X4.9562Y-3.6753
X4.9686Y-4.2026
X4.9745Y-4.1711
X5.0116Y-4.2716
X5.0192Y-3.9923
X5.0228Y-3.8055
X5.0292Y-3.9246
X5.0335Y-3.957
X5.0425Y-4.0746
X5.0606Y-3.4761
X5.2333Y-3.867
X5.2372Y-4.0398
X5.2573Y-3.5334
X5.2631Y-4.1472
X5.2631Y-4.2673
X5.2767Y-4.077
X5.2819Y-3.5535
X5.3297Y-4.1983
X5.3444Y-3.8736
X5.357Y-3.5523
X5.3574Y-3.8247
X5.3608Y-3.604
X5.3612Y-4.1896
X5.3853Y-4.0647
X5.4089Y-2.8947
X5.4147Y-3.2321
X5.4306Y-3.5176
X5.5048Y-4.164
X5.5334Y-4.1422
X5.5609Y-3.525
X5.5609Y-3.9
X5.5615Y-3.0367
X5.5937Y-3.0912
X5.6209Y-3.6471
X5.7089Y-3.6374
X5.7238Y-3.4405
X5.7296Y-3.7643
X5.7369Y-3.8384
X5.7487Y-3.2446
X5.7795Y-3.4575
X5.8406Y-3.4317
X5.847Y-4.0336
X5.8756Y-3.5185
X5.8851Y-3.4142
X5.8905Y-4.0316
X5.9042Y-2.9566
X5.9982Y-3.0492
X6.1792Y-2.8182
T2
X3.9795Y-2.543
X3.9795Y-3.143
X3.984Y-4.444
X3.984Y-4.544
X4.0795Y-2.543
X4.0795Y-3.143
X4.084Y-4.444
X4.084Y-4.544
X4.1795Y-2.543
X4.1795Y-3.143
X4.184Y-4.444
X4.184Y-4.544
X4.2795Y-2.543
X4.2795Y-3.143
X4.284Y-4.444
X4.284Y-4.544
X4.3795Y-2.543
X4.3795Y-3.143
X4.384Y-4.444
X4.384Y-4.544
X4.4795Y-2.543
X4.4795Y-3.143
X4.484Y-4.444
X4.484Y-4.544
X4.5795Y-2.543
X4.5795Y-3.143
X4.584Y-4.444
X4.584Y-4.544
X4.6795Y-2.543
X4.6795Y-3.143
X4.684Y-4.444
X4.684Y-4.544
X4.7795Y-2.543
X4.7795Y-3.143
X4.784Y-4.444
X4.784Y-4.544
X4.8795Y-2.543
X4.8795Y-3.143
X4.884Y-4.444
X4.884Y-4.544
X4.9795Y-2.543
X4.9795Y-3.143
X4.984Y-4.444
X4.984Y-4.544
X5.0795Y-2.543
X5.0795Y-3.143
X5.084Y-4.444
X5.084Y-4.544
X5.1795Y-2.543
X5.1795Y-3.143
X5.184Y-4.444
X5.184Y-4.544
X5.2795Y-2.543
X5.2795Y-3.143
X5.284Y-4.444
X5.284Y-4.544
X5.3795Y-2.543
X5.3795Y-3.143
X5.384Y-4.444
X5.384Y-4.544
X5.4795Y-2.543
X5.4795Y-3.143
X5.484Y-4.444
X5.484Y-4.544
X5.5795Y-2.543
X5.5795Y-3.143
X5.584Y-4.444
X5.584Y-4.544
X5.6795Y-2.543
X5.6795Y-3.143
X5.684Y-4.444
X5.684Y-4.544
X5.7795Y-2.543
X5.7795Y-3.143
X5.784Y-4.444
X5.784Y-4.544
X5.8795Y-2.543
X5.8795Y-3.143
X5.884Y-4.544
T3
X5.884Y-4.444
T0
M30
