%FSLAX45Y45*%
G04 Gerber Fmt 4.5, Leading zero omitted, Abs format (unit mm)*
G04 Created by KiCad (PCBNEW 4.0.4-stable) date 01/09/17 01:48:18*
%MOMM*%
%LPD*%
G01*
G04 APERTURE LIST*
%ADD10C,0.127000*%
%ADD11C,0.150000*%
%ADD12C,0.200000*%
%ADD13C,0.300000*%
G04 APERTURE END LIST*
D10*
D11*
X17907000Y-11379200D02*
G75*
G03X17983200Y-11303000I0J76200D01*
G01*
X11480800Y-11269980D02*
G75*
G03X11584940Y-11379200I106680J-2540D01*
G01*
X10782300Y-7795260D02*
X10543540Y-8036560D01*
X10678160Y-8656320D02*
X10678160Y-8658860D01*
X10464800Y-8442960D02*
X10678100Y-8656320D01*
X9644380Y-8608060D02*
X9806940Y-8442960D01*
X10678100Y-8656320D02*
X10678100Y-10261600D01*
X9806940Y-8442960D02*
X10464800Y-8442960D01*
X9644380Y-9156700D02*
X9644380Y-8608060D01*
X18450560Y-7399020D02*
X19380200Y-7399020D01*
X18450560Y-10261600D02*
X18450560Y-7399020D01*
X9380500Y-4051300D02*
X9380500Y-3500000D01*
X10782300Y-4051300D02*
X9380500Y-4051300D01*
X9380500Y-9156700D02*
X9644380Y-9156700D01*
X9380500Y-7988300D02*
X9380500Y-9156700D01*
X9644380Y-8036560D02*
X10543540Y-8036560D01*
X9644380Y-7988300D02*
X9644380Y-8036560D01*
X9380500Y-7988300D02*
X9644380Y-7988300D01*
X10782300Y-4051300D02*
X10782300Y-7795260D01*
X19380200Y-3500000D02*
X9380500Y-3500000D01*
X19380200Y-7399020D02*
X19380200Y-3500000D01*
X17983200Y-10261600D02*
X18450560Y-10261600D01*
X17983200Y-11303000D02*
X17983200Y-10261600D01*
X11607800Y-11379200D02*
X17907000Y-11379200D01*
X11584940Y-11379200D02*
X11607800Y-11379200D01*
X11480800Y-10261600D02*
X11480800Y-11269900D01*
X10678100Y-10261600D02*
X11480800Y-10261600D01*
D12*
X12052900Y-3874300D02*
X12152900Y-3974300D01*
X12152900Y-3874300D02*
X12052900Y-3974300D01*
X12850900Y-3874300D02*
X12950900Y-3974300D01*
X12950900Y-3874300D02*
X12850900Y-3974300D01*
X12182426Y-9242552D02*
G75*
G03X12182426Y-9242552I-265000J0D01*
G01*
X17782364Y-9762744D02*
G75*
G03X17782364Y-9762744I-265000J0D01*
G01*
D13*
X9644429Y-11852414D02*
X9644429Y-11552414D01*
X9715857Y-11552414D01*
X9758714Y-11566700D01*
X9787286Y-11595271D01*
X9801571Y-11623843D01*
X9815857Y-11680986D01*
X9815857Y-11723843D01*
X9801571Y-11780986D01*
X9787286Y-11809557D01*
X9758714Y-11838129D01*
X9715857Y-11852414D01*
X9644429Y-11852414D01*
X9944429Y-11852414D02*
X9944429Y-11652414D01*
X9944429Y-11709557D02*
X9958714Y-11680986D01*
X9973000Y-11666700D01*
X10001571Y-11652414D01*
X10030143Y-11652414D01*
X10130143Y-11852414D02*
X10130143Y-11652414D01*
X10130143Y-11552414D02*
X10115857Y-11566700D01*
X10130143Y-11580986D01*
X10144429Y-11566700D01*
X10130143Y-11552414D01*
X10130143Y-11580986D01*
X10315857Y-11852414D02*
X10287286Y-11838129D01*
X10273000Y-11809557D01*
X10273000Y-11552414D01*
X10473000Y-11852414D02*
X10444429Y-11838129D01*
X10430143Y-11809557D01*
X10430143Y-11552414D01*
X10815857Y-11852414D02*
X10815857Y-11552414D01*
X10915857Y-11766700D01*
X11015857Y-11552414D01*
X11015857Y-11852414D01*
X11287286Y-11852414D02*
X11287286Y-11695271D01*
X11273000Y-11666700D01*
X11244428Y-11652414D01*
X11187286Y-11652414D01*
X11158714Y-11666700D01*
X11287286Y-11838129D02*
X11258714Y-11852414D01*
X11187286Y-11852414D01*
X11158714Y-11838129D01*
X11144429Y-11809557D01*
X11144429Y-11780986D01*
X11158714Y-11752414D01*
X11187286Y-11738129D01*
X11258714Y-11738129D01*
X11287286Y-11723843D01*
X11430143Y-11652414D02*
X11430143Y-11952414D01*
X11430143Y-11666700D02*
X11458714Y-11652414D01*
X11515857Y-11652414D01*
X11544428Y-11666700D01*
X11558714Y-11680986D01*
X11573000Y-11709557D01*
X11573000Y-11795271D01*
X11558714Y-11823843D01*
X11544428Y-11838129D01*
X11515857Y-11852414D01*
X11458714Y-11852414D01*
X11430143Y-11838129D01*
X11701571Y-11823843D02*
X11715857Y-11838129D01*
X11701571Y-11852414D01*
X11687286Y-11838129D01*
X11701571Y-11823843D01*
X11701571Y-11852414D01*
X11701571Y-11666700D02*
X11715857Y-11680986D01*
X11701571Y-11695271D01*
X11687286Y-11680986D01*
X11701571Y-11666700D01*
X11701571Y-11695271D01*
X9273000Y-12296700D02*
X9373000Y-12396700D01*
X9373000Y-12296700D02*
X9273000Y-12396700D01*
X9801571Y-12482414D02*
X9630143Y-12482414D01*
X9715857Y-12482414D02*
X9715857Y-12182414D01*
X9687286Y-12225271D01*
X9658714Y-12253843D01*
X9630143Y-12268129D01*
X9930143Y-12453843D02*
X9944429Y-12468129D01*
X9930143Y-12482414D01*
X9915857Y-12468129D01*
X9930143Y-12453843D01*
X9930143Y-12482414D01*
X10130143Y-12182414D02*
X10158714Y-12182414D01*
X10187286Y-12196700D01*
X10201571Y-12210986D01*
X10215857Y-12239557D01*
X10230143Y-12296700D01*
X10230143Y-12368129D01*
X10215857Y-12425271D01*
X10201571Y-12453843D01*
X10187286Y-12468129D01*
X10158714Y-12482414D01*
X10130143Y-12482414D01*
X10101571Y-12468129D01*
X10087286Y-12453843D01*
X10073000Y-12425271D01*
X10058714Y-12368129D01*
X10058714Y-12296700D01*
X10073000Y-12239557D01*
X10087286Y-12210986D01*
X10101571Y-12196700D01*
X10130143Y-12182414D01*
X10415857Y-12182414D02*
X10444429Y-12182414D01*
X10473000Y-12196700D01*
X10487286Y-12210986D01*
X10501571Y-12239557D01*
X10515857Y-12296700D01*
X10515857Y-12368129D01*
X10501571Y-12425271D01*
X10487286Y-12453843D01*
X10473000Y-12468129D01*
X10444429Y-12482414D01*
X10415857Y-12482414D01*
X10387286Y-12468129D01*
X10373000Y-12453843D01*
X10358714Y-12425271D01*
X10344429Y-12368129D01*
X10344429Y-12296700D01*
X10358714Y-12239557D01*
X10373000Y-12210986D01*
X10387286Y-12196700D01*
X10415857Y-12182414D01*
X10644429Y-12482414D02*
X10644429Y-12282414D01*
X10644429Y-12310986D02*
X10658714Y-12296700D01*
X10687286Y-12282414D01*
X10730143Y-12282414D01*
X10758714Y-12296700D01*
X10773000Y-12325271D01*
X10773000Y-12482414D01*
X10773000Y-12325271D02*
X10787286Y-12296700D01*
X10815857Y-12282414D01*
X10858714Y-12282414D01*
X10887286Y-12296700D01*
X10901571Y-12325271D01*
X10901571Y-12482414D01*
X11044429Y-12482414D02*
X11044429Y-12282414D01*
X11044429Y-12310986D02*
X11058714Y-12296700D01*
X11087286Y-12282414D01*
X11130143Y-12282414D01*
X11158714Y-12296700D01*
X11173000Y-12325271D01*
X11173000Y-12482414D01*
X11173000Y-12325271D02*
X11187286Y-12296700D01*
X11215857Y-12282414D01*
X11258714Y-12282414D01*
X11287286Y-12296700D01*
X11301571Y-12325271D01*
X11301571Y-12482414D01*
X11887286Y-12168129D02*
X11630143Y-12553843D01*
X12273000Y-12182414D02*
X12301571Y-12182414D01*
X12330143Y-12196700D01*
X12344428Y-12210986D01*
X12358714Y-12239557D01*
X12373000Y-12296700D01*
X12373000Y-12368129D01*
X12358714Y-12425271D01*
X12344428Y-12453843D01*
X12330143Y-12468129D01*
X12301571Y-12482414D01*
X12273000Y-12482414D01*
X12244428Y-12468129D01*
X12230143Y-12453843D01*
X12215857Y-12425271D01*
X12201571Y-12368129D01*
X12201571Y-12296700D01*
X12215857Y-12239557D01*
X12230143Y-12210986D01*
X12244428Y-12196700D01*
X12273000Y-12182414D01*
X12501571Y-12453843D02*
X12515857Y-12468129D01*
X12501571Y-12482414D01*
X12487286Y-12468129D01*
X12501571Y-12453843D01*
X12501571Y-12482414D01*
X12701571Y-12182414D02*
X12730143Y-12182414D01*
X12758714Y-12196700D01*
X12773000Y-12210986D01*
X12787285Y-12239557D01*
X12801571Y-12296700D01*
X12801571Y-12368129D01*
X12787285Y-12425271D01*
X12773000Y-12453843D01*
X12758714Y-12468129D01*
X12730143Y-12482414D01*
X12701571Y-12482414D01*
X12673000Y-12468129D01*
X12658714Y-12453843D01*
X12644428Y-12425271D01*
X12630143Y-12368129D01*
X12630143Y-12296700D01*
X12644428Y-12239557D01*
X12658714Y-12210986D01*
X12673000Y-12196700D01*
X12701571Y-12182414D01*
X12901571Y-12182414D02*
X13087285Y-12182414D01*
X12987285Y-12296700D01*
X13030143Y-12296700D01*
X13058714Y-12310986D01*
X13073000Y-12325271D01*
X13087285Y-12353843D01*
X13087285Y-12425271D01*
X13073000Y-12453843D01*
X13058714Y-12468129D01*
X13030143Y-12482414D01*
X12944428Y-12482414D01*
X12915857Y-12468129D01*
X12901571Y-12453843D01*
X13230143Y-12482414D02*
X13287285Y-12482414D01*
X13315857Y-12468129D01*
X13330143Y-12453843D01*
X13358714Y-12410986D01*
X13373000Y-12353843D01*
X13373000Y-12239557D01*
X13358714Y-12210986D01*
X13344428Y-12196700D01*
X13315857Y-12182414D01*
X13258714Y-12182414D01*
X13230143Y-12196700D01*
X13215857Y-12210986D01*
X13201571Y-12239557D01*
X13201571Y-12310986D01*
X13215857Y-12339557D01*
X13230143Y-12353843D01*
X13258714Y-12368129D01*
X13315857Y-12368129D01*
X13344428Y-12353843D01*
X13358714Y-12339557D01*
X13373000Y-12310986D01*
X13487286Y-12182414D02*
X13487286Y-12239557D01*
X13601571Y-12182414D02*
X13601571Y-12239557D01*
X14044428Y-12596700D02*
X14030143Y-12582414D01*
X14001571Y-12539557D01*
X13987285Y-12510986D01*
X13973000Y-12468129D01*
X13958714Y-12396700D01*
X13958714Y-12339557D01*
X13973000Y-12268129D01*
X13987285Y-12225271D01*
X14001571Y-12196700D01*
X14030143Y-12153843D01*
X14044428Y-12139557D01*
X14144428Y-12210986D02*
X14158714Y-12196700D01*
X14187285Y-12182414D01*
X14258714Y-12182414D01*
X14287285Y-12196700D01*
X14301571Y-12210986D01*
X14315857Y-12239557D01*
X14315857Y-12268129D01*
X14301571Y-12310986D01*
X14130143Y-12482414D01*
X14315857Y-12482414D01*
X14673000Y-12482414D02*
X14673000Y-12182414D01*
X14801571Y-12482414D02*
X14801571Y-12325271D01*
X14787285Y-12296700D01*
X14758714Y-12282414D01*
X14715857Y-12282414D01*
X14687285Y-12296700D01*
X14673000Y-12310986D01*
X14987285Y-12482414D02*
X14958714Y-12468129D01*
X14944428Y-12453843D01*
X14930143Y-12425271D01*
X14930143Y-12339557D01*
X14944428Y-12310986D01*
X14958714Y-12296700D01*
X14987285Y-12282414D01*
X15030143Y-12282414D01*
X15058714Y-12296700D01*
X15073000Y-12310986D01*
X15087285Y-12339557D01*
X15087285Y-12425271D01*
X15073000Y-12453843D01*
X15058714Y-12468129D01*
X15030143Y-12482414D01*
X14987285Y-12482414D01*
X15258714Y-12482414D02*
X15230143Y-12468129D01*
X15215857Y-12439557D01*
X15215857Y-12182414D01*
X15487286Y-12468129D02*
X15458714Y-12482414D01*
X15401571Y-12482414D01*
X15373000Y-12468129D01*
X15358714Y-12439557D01*
X15358714Y-12325271D01*
X15373000Y-12296700D01*
X15401571Y-12282414D01*
X15458714Y-12282414D01*
X15487286Y-12296700D01*
X15501571Y-12325271D01*
X15501571Y-12353843D01*
X15358714Y-12382414D01*
X15615857Y-12468129D02*
X15644428Y-12482414D01*
X15701571Y-12482414D01*
X15730143Y-12468129D01*
X15744428Y-12439557D01*
X15744428Y-12425271D01*
X15730143Y-12396700D01*
X15701571Y-12382414D01*
X15658714Y-12382414D01*
X15630143Y-12368129D01*
X15615857Y-12339557D01*
X15615857Y-12325271D01*
X15630143Y-12296700D01*
X15658714Y-12282414D01*
X15701571Y-12282414D01*
X15730143Y-12296700D01*
X15844428Y-12596700D02*
X15858714Y-12582414D01*
X15887286Y-12539557D01*
X15901571Y-12510986D01*
X15915857Y-12468129D01*
X15930143Y-12396700D01*
X15930143Y-12339557D01*
X15915857Y-12268129D01*
X15901571Y-12225271D01*
X15887286Y-12196700D01*
X15858714Y-12153843D01*
X15844428Y-12139557D01*
X16387286Y-12596700D02*
X16373000Y-12582414D01*
X16344428Y-12539557D01*
X16330143Y-12510986D01*
X16315857Y-12468129D01*
X16301571Y-12396700D01*
X16301571Y-12339557D01*
X16315857Y-12268129D01*
X16330143Y-12225271D01*
X16344428Y-12196700D01*
X16373000Y-12153843D01*
X16387286Y-12139557D01*
X16501571Y-12282414D02*
X16501571Y-12482414D01*
X16501571Y-12310986D02*
X16515857Y-12296700D01*
X16544428Y-12282414D01*
X16587286Y-12282414D01*
X16615857Y-12296700D01*
X16630143Y-12325271D01*
X16630143Y-12482414D01*
X16815857Y-12482414D02*
X16787286Y-12468129D01*
X16773000Y-12453843D01*
X16758714Y-12425271D01*
X16758714Y-12339557D01*
X16773000Y-12310986D01*
X16787286Y-12296700D01*
X16815857Y-12282414D01*
X16858714Y-12282414D01*
X16887286Y-12296700D01*
X16901571Y-12310986D01*
X16915857Y-12339557D01*
X16915857Y-12425271D01*
X16901571Y-12453843D01*
X16887286Y-12468129D01*
X16858714Y-12482414D01*
X16815857Y-12482414D01*
X17001571Y-12282414D02*
X17115857Y-12282414D01*
X17044429Y-12182414D02*
X17044429Y-12439557D01*
X17058714Y-12468129D01*
X17087286Y-12482414D01*
X17115857Y-12482414D01*
X17444429Y-12282414D02*
X17444429Y-12582414D01*
X17444429Y-12296700D02*
X17473000Y-12282414D01*
X17530143Y-12282414D01*
X17558714Y-12296700D01*
X17573000Y-12310986D01*
X17587286Y-12339557D01*
X17587286Y-12425271D01*
X17573000Y-12453843D01*
X17558714Y-12468129D01*
X17530143Y-12482414D01*
X17473000Y-12482414D01*
X17444429Y-12468129D01*
X17758714Y-12482414D02*
X17730143Y-12468129D01*
X17715857Y-12439557D01*
X17715857Y-12182414D01*
X18001571Y-12482414D02*
X18001571Y-12325271D01*
X17987286Y-12296700D01*
X17958714Y-12282414D01*
X17901571Y-12282414D01*
X17873000Y-12296700D01*
X18001571Y-12468129D02*
X17973000Y-12482414D01*
X17901571Y-12482414D01*
X17873000Y-12468129D01*
X17858714Y-12439557D01*
X17858714Y-12410986D01*
X17873000Y-12382414D01*
X17901571Y-12368129D01*
X17973000Y-12368129D01*
X18001571Y-12353843D01*
X18101571Y-12282414D02*
X18215857Y-12282414D01*
X18144429Y-12182414D02*
X18144429Y-12439557D01*
X18158714Y-12468129D01*
X18187286Y-12482414D01*
X18215857Y-12482414D01*
X18430143Y-12468129D02*
X18401572Y-12482414D01*
X18344429Y-12482414D01*
X18315857Y-12468129D01*
X18301572Y-12439557D01*
X18301572Y-12325271D01*
X18315857Y-12296700D01*
X18344429Y-12282414D01*
X18401572Y-12282414D01*
X18430143Y-12296700D01*
X18444429Y-12325271D01*
X18444429Y-12353843D01*
X18301572Y-12382414D01*
X18701572Y-12482414D02*
X18701572Y-12182414D01*
X18701572Y-12468129D02*
X18673000Y-12482414D01*
X18615857Y-12482414D01*
X18587286Y-12468129D01*
X18573000Y-12453843D01*
X18558714Y-12425271D01*
X18558714Y-12339557D01*
X18573000Y-12310986D01*
X18587286Y-12296700D01*
X18615857Y-12282414D01*
X18673000Y-12282414D01*
X18701572Y-12296700D01*
X18815857Y-12596700D02*
X18830143Y-12582414D01*
X18858714Y-12539557D01*
X18873000Y-12510986D01*
X18887286Y-12468129D01*
X18901572Y-12396700D01*
X18901572Y-12339557D01*
X18887286Y-12268129D01*
X18873000Y-12225271D01*
X18858714Y-12196700D01*
X18830143Y-12153843D01*
X18815857Y-12139557D01*
X9373000Y-12742700D02*
G75*
G03X9373000Y-12742700I-265000J0D01*
G01*
X9787286Y-12578414D02*
X9644429Y-12578414D01*
X9630143Y-12721271D01*
X9644429Y-12706986D01*
X9673000Y-12692700D01*
X9744429Y-12692700D01*
X9773000Y-12706986D01*
X9787286Y-12721271D01*
X9801571Y-12749843D01*
X9801571Y-12821271D01*
X9787286Y-12849843D01*
X9773000Y-12864129D01*
X9744429Y-12878414D01*
X9673000Y-12878414D01*
X9644429Y-12864129D01*
X9630143Y-12849843D01*
X9930143Y-12849843D02*
X9944429Y-12864129D01*
X9930143Y-12878414D01*
X9915857Y-12864129D01*
X9930143Y-12849843D01*
X9930143Y-12878414D01*
X10044428Y-12578414D02*
X10230143Y-12578414D01*
X10130143Y-12692700D01*
X10173000Y-12692700D01*
X10201571Y-12706986D01*
X10215857Y-12721271D01*
X10230143Y-12749843D01*
X10230143Y-12821271D01*
X10215857Y-12849843D01*
X10201571Y-12864129D01*
X10173000Y-12878414D01*
X10087286Y-12878414D01*
X10058714Y-12864129D01*
X10044428Y-12849843D01*
X10415857Y-12578414D02*
X10444429Y-12578414D01*
X10473000Y-12592700D01*
X10487286Y-12606986D01*
X10501571Y-12635557D01*
X10515857Y-12692700D01*
X10515857Y-12764129D01*
X10501571Y-12821271D01*
X10487286Y-12849843D01*
X10473000Y-12864129D01*
X10444429Y-12878414D01*
X10415857Y-12878414D01*
X10387286Y-12864129D01*
X10373000Y-12849843D01*
X10358714Y-12821271D01*
X10344429Y-12764129D01*
X10344429Y-12692700D01*
X10358714Y-12635557D01*
X10373000Y-12606986D01*
X10387286Y-12592700D01*
X10415857Y-12578414D01*
X10644429Y-12878414D02*
X10644429Y-12678414D01*
X10644429Y-12706986D02*
X10658714Y-12692700D01*
X10687286Y-12678414D01*
X10730143Y-12678414D01*
X10758714Y-12692700D01*
X10773000Y-12721271D01*
X10773000Y-12878414D01*
X10773000Y-12721271D02*
X10787286Y-12692700D01*
X10815857Y-12678414D01*
X10858714Y-12678414D01*
X10887286Y-12692700D01*
X10901571Y-12721271D01*
X10901571Y-12878414D01*
X11044429Y-12878414D02*
X11044429Y-12678414D01*
X11044429Y-12706986D02*
X11058714Y-12692700D01*
X11087286Y-12678414D01*
X11130143Y-12678414D01*
X11158714Y-12692700D01*
X11173000Y-12721271D01*
X11173000Y-12878414D01*
X11173000Y-12721271D02*
X11187286Y-12692700D01*
X11215857Y-12678414D01*
X11258714Y-12678414D01*
X11287286Y-12692700D01*
X11301571Y-12721271D01*
X11301571Y-12878414D01*
X11887286Y-12564129D02*
X11630143Y-12949843D01*
X12273000Y-12578414D02*
X12301571Y-12578414D01*
X12330143Y-12592700D01*
X12344428Y-12606986D01*
X12358714Y-12635557D01*
X12373000Y-12692700D01*
X12373000Y-12764129D01*
X12358714Y-12821271D01*
X12344428Y-12849843D01*
X12330143Y-12864129D01*
X12301571Y-12878414D01*
X12273000Y-12878414D01*
X12244428Y-12864129D01*
X12230143Y-12849843D01*
X12215857Y-12821271D01*
X12201571Y-12764129D01*
X12201571Y-12692700D01*
X12215857Y-12635557D01*
X12230143Y-12606986D01*
X12244428Y-12592700D01*
X12273000Y-12578414D01*
X12501571Y-12849843D02*
X12515857Y-12864129D01*
X12501571Y-12878414D01*
X12487286Y-12864129D01*
X12501571Y-12849843D01*
X12501571Y-12878414D01*
X12630143Y-12606986D02*
X12644428Y-12592700D01*
X12673000Y-12578414D01*
X12744428Y-12578414D01*
X12773000Y-12592700D01*
X12787285Y-12606986D01*
X12801571Y-12635557D01*
X12801571Y-12664129D01*
X12787285Y-12706986D01*
X12615857Y-12878414D01*
X12801571Y-12878414D01*
X12987285Y-12578414D02*
X13015857Y-12578414D01*
X13044428Y-12592700D01*
X13058714Y-12606986D01*
X13073000Y-12635557D01*
X13087285Y-12692700D01*
X13087285Y-12764129D01*
X13073000Y-12821271D01*
X13058714Y-12849843D01*
X13044428Y-12864129D01*
X13015857Y-12878414D01*
X12987285Y-12878414D01*
X12958714Y-12864129D01*
X12944428Y-12849843D01*
X12930143Y-12821271D01*
X12915857Y-12764129D01*
X12915857Y-12692700D01*
X12930143Y-12635557D01*
X12944428Y-12606986D01*
X12958714Y-12592700D01*
X12987285Y-12578414D01*
X13230143Y-12878414D02*
X13287285Y-12878414D01*
X13315857Y-12864129D01*
X13330143Y-12849843D01*
X13358714Y-12806986D01*
X13373000Y-12749843D01*
X13373000Y-12635557D01*
X13358714Y-12606986D01*
X13344428Y-12592700D01*
X13315857Y-12578414D01*
X13258714Y-12578414D01*
X13230143Y-12592700D01*
X13215857Y-12606986D01*
X13201571Y-12635557D01*
X13201571Y-12706986D01*
X13215857Y-12735557D01*
X13230143Y-12749843D01*
X13258714Y-12764129D01*
X13315857Y-12764129D01*
X13344428Y-12749843D01*
X13358714Y-12735557D01*
X13373000Y-12706986D01*
X13487286Y-12578414D02*
X13487286Y-12635557D01*
X13601571Y-12578414D02*
X13601571Y-12635557D01*
X14044428Y-12992700D02*
X14030143Y-12978414D01*
X14001571Y-12935557D01*
X13987285Y-12906986D01*
X13973000Y-12864129D01*
X13958714Y-12792700D01*
X13958714Y-12735557D01*
X13973000Y-12664129D01*
X13987285Y-12621271D01*
X14001571Y-12592700D01*
X14030143Y-12549843D01*
X14044428Y-12535557D01*
X14144428Y-12606986D02*
X14158714Y-12592700D01*
X14187285Y-12578414D01*
X14258714Y-12578414D01*
X14287285Y-12592700D01*
X14301571Y-12606986D01*
X14315857Y-12635557D01*
X14315857Y-12664129D01*
X14301571Y-12706986D01*
X14130143Y-12878414D01*
X14315857Y-12878414D01*
X14673000Y-12878414D02*
X14673000Y-12578414D01*
X14801571Y-12878414D02*
X14801571Y-12721271D01*
X14787285Y-12692700D01*
X14758714Y-12678414D01*
X14715857Y-12678414D01*
X14687285Y-12692700D01*
X14673000Y-12706986D01*
X14987285Y-12878414D02*
X14958714Y-12864129D01*
X14944428Y-12849843D01*
X14930143Y-12821271D01*
X14930143Y-12735557D01*
X14944428Y-12706986D01*
X14958714Y-12692700D01*
X14987285Y-12678414D01*
X15030143Y-12678414D01*
X15058714Y-12692700D01*
X15073000Y-12706986D01*
X15087285Y-12735557D01*
X15087285Y-12821271D01*
X15073000Y-12849843D01*
X15058714Y-12864129D01*
X15030143Y-12878414D01*
X14987285Y-12878414D01*
X15258714Y-12878414D02*
X15230143Y-12864129D01*
X15215857Y-12835557D01*
X15215857Y-12578414D01*
X15487286Y-12864129D02*
X15458714Y-12878414D01*
X15401571Y-12878414D01*
X15373000Y-12864129D01*
X15358714Y-12835557D01*
X15358714Y-12721271D01*
X15373000Y-12692700D01*
X15401571Y-12678414D01*
X15458714Y-12678414D01*
X15487286Y-12692700D01*
X15501571Y-12721271D01*
X15501571Y-12749843D01*
X15358714Y-12778414D01*
X15615857Y-12864129D02*
X15644428Y-12878414D01*
X15701571Y-12878414D01*
X15730143Y-12864129D01*
X15744428Y-12835557D01*
X15744428Y-12821271D01*
X15730143Y-12792700D01*
X15701571Y-12778414D01*
X15658714Y-12778414D01*
X15630143Y-12764129D01*
X15615857Y-12735557D01*
X15615857Y-12721271D01*
X15630143Y-12692700D01*
X15658714Y-12678414D01*
X15701571Y-12678414D01*
X15730143Y-12692700D01*
X15844428Y-12992700D02*
X15858714Y-12978414D01*
X15887286Y-12935557D01*
X15901571Y-12906986D01*
X15915857Y-12864129D01*
X15930143Y-12792700D01*
X15930143Y-12735557D01*
X15915857Y-12664129D01*
X15901571Y-12621271D01*
X15887286Y-12592700D01*
X15858714Y-12549843D01*
X15844428Y-12535557D01*
X16387286Y-12992700D02*
X16373000Y-12978414D01*
X16344428Y-12935557D01*
X16330143Y-12906986D01*
X16315857Y-12864129D01*
X16301571Y-12792700D01*
X16301571Y-12735557D01*
X16315857Y-12664129D01*
X16330143Y-12621271D01*
X16344428Y-12592700D01*
X16373000Y-12549843D01*
X16387286Y-12535557D01*
X16501571Y-12678414D02*
X16501571Y-12878414D01*
X16501571Y-12706986D02*
X16515857Y-12692700D01*
X16544428Y-12678414D01*
X16587286Y-12678414D01*
X16615857Y-12692700D01*
X16630143Y-12721271D01*
X16630143Y-12878414D01*
X16815857Y-12878414D02*
X16787286Y-12864129D01*
X16773000Y-12849843D01*
X16758714Y-12821271D01*
X16758714Y-12735557D01*
X16773000Y-12706986D01*
X16787286Y-12692700D01*
X16815857Y-12678414D01*
X16858714Y-12678414D01*
X16887286Y-12692700D01*
X16901571Y-12706986D01*
X16915857Y-12735557D01*
X16915857Y-12821271D01*
X16901571Y-12849843D01*
X16887286Y-12864129D01*
X16858714Y-12878414D01*
X16815857Y-12878414D01*
X17001571Y-12678414D02*
X17115857Y-12678414D01*
X17044429Y-12578414D02*
X17044429Y-12835557D01*
X17058714Y-12864129D01*
X17087286Y-12878414D01*
X17115857Y-12878414D01*
X17444429Y-12678414D02*
X17444429Y-12978414D01*
X17444429Y-12692700D02*
X17473000Y-12678414D01*
X17530143Y-12678414D01*
X17558714Y-12692700D01*
X17573000Y-12706986D01*
X17587286Y-12735557D01*
X17587286Y-12821271D01*
X17573000Y-12849843D01*
X17558714Y-12864129D01*
X17530143Y-12878414D01*
X17473000Y-12878414D01*
X17444429Y-12864129D01*
X17758714Y-12878414D02*
X17730143Y-12864129D01*
X17715857Y-12835557D01*
X17715857Y-12578414D01*
X18001571Y-12878414D02*
X18001571Y-12721271D01*
X17987286Y-12692700D01*
X17958714Y-12678414D01*
X17901571Y-12678414D01*
X17873000Y-12692700D01*
X18001571Y-12864129D02*
X17973000Y-12878414D01*
X17901571Y-12878414D01*
X17873000Y-12864129D01*
X17858714Y-12835557D01*
X17858714Y-12806986D01*
X17873000Y-12778414D01*
X17901571Y-12764129D01*
X17973000Y-12764129D01*
X18001571Y-12749843D01*
X18101571Y-12678414D02*
X18215857Y-12678414D01*
X18144429Y-12578414D02*
X18144429Y-12835557D01*
X18158714Y-12864129D01*
X18187286Y-12878414D01*
X18215857Y-12878414D01*
X18430143Y-12864129D02*
X18401572Y-12878414D01*
X18344429Y-12878414D01*
X18315857Y-12864129D01*
X18301572Y-12835557D01*
X18301572Y-12721271D01*
X18315857Y-12692700D01*
X18344429Y-12678414D01*
X18401572Y-12678414D01*
X18430143Y-12692700D01*
X18444429Y-12721271D01*
X18444429Y-12749843D01*
X18301572Y-12778414D01*
X18701572Y-12878414D02*
X18701572Y-12578414D01*
X18701572Y-12864129D02*
X18673000Y-12878414D01*
X18615857Y-12878414D01*
X18587286Y-12864129D01*
X18573000Y-12849843D01*
X18558714Y-12821271D01*
X18558714Y-12735557D01*
X18573000Y-12706986D01*
X18587286Y-12692700D01*
X18615857Y-12678414D01*
X18673000Y-12678414D01*
X18701572Y-12692700D01*
X18815857Y-12992700D02*
X18830143Y-12978414D01*
X18858714Y-12935557D01*
X18873000Y-12906986D01*
X18887286Y-12864129D01*
X18901572Y-12792700D01*
X18901572Y-12735557D01*
X18887286Y-12664129D01*
X18873000Y-12621271D01*
X18858714Y-12592700D01*
X18830143Y-12549843D01*
X18815857Y-12535557D01*
M02*
