G04 #@! TF.FileFunction,Copper,L1,Top,Signal*
%FSLAX46Y46*%
G04 Gerber Fmt 4.6, Leading zero omitted, Abs format (unit mm)*
G04 Created by KiCad (PCBNEW 4.0.4-stable) date 01/08/17 23:41:58*
%MOMM*%
%LPD*%
G01*
G04 APERTURE LIST*
%ADD10C,0.100000*%
%ADD11C,1.524000*%
%ADD12R,1.800000X8.000000*%
%ADD13R,1.800000X7.000000*%
%ADD14R,1.200000X2.200000*%
%ADD15R,1.600000X1.400000*%
%ADD16R,1.200000X1.400000*%
%ADD17R,0.700000X1.600000*%
%ADD18R,1.300000X1.500000*%
%ADD19C,1.800000*%
%ADD20C,3.000000*%
%ADD21R,0.485000X1.510000*%
%ADD22R,0.458000X1.510000*%
%ADD23R,1.250000X1.500000*%
%ADD24R,1.500000X1.300000*%
%ADD25R,1.600000X1.600000*%
%ADD26O,1.600000X1.600000*%
%ADD27C,0.600000*%
%ADD28C,0.300000*%
%ADD29C,0.250000*%
%ADD30C,0.254000*%
G04 APERTURE END LIST*
D10*
D11*
X136398000Y-37465000D03*
X136398000Y-40005000D03*
X136398000Y-42545000D03*
X136398000Y-45085000D03*
D12*
X177789840Y-108557440D03*
X175249840Y-108557440D03*
X172709840Y-108557440D03*
X170169840Y-108557440D03*
X167629840Y-108557440D03*
X165089840Y-108557440D03*
X162549840Y-108557440D03*
X160009840Y-108557440D03*
X157469840Y-108557440D03*
X154929840Y-108557440D03*
X152389840Y-108557440D03*
X149849840Y-108557440D03*
X147309840Y-108557440D03*
X144769840Y-108557440D03*
X142229840Y-108557440D03*
X139689840Y-108557440D03*
X137149840Y-108557440D03*
X134609840Y-108557440D03*
X132069840Y-108557440D03*
X129529840Y-108557440D03*
X126989840Y-108557440D03*
D13*
X124444760Y-108064680D03*
D12*
X121909840Y-108557440D03*
X119369840Y-108557440D03*
X116829840Y-108557440D03*
D11*
X126238000Y-91948000D03*
X126238000Y-89408000D03*
X128778000Y-91948000D03*
X128778000Y-89408000D03*
X131318000Y-91948000D03*
X131318000Y-89408000D03*
X133858000Y-91948000D03*
X133858000Y-89408000D03*
X136398000Y-91948000D03*
X136398000Y-89408000D03*
X138938000Y-91948000D03*
X138938000Y-89408000D03*
X141478000Y-91948000D03*
X141478000Y-89408000D03*
X144018000Y-91948000D03*
X144018000Y-89408000D03*
X146558000Y-91948000D03*
X146558000Y-89408000D03*
X149098000Y-91948000D03*
X149098000Y-89408000D03*
X151638000Y-91948000D03*
X151638000Y-89408000D03*
X154178000Y-91948000D03*
X154178000Y-89408000D03*
X156718000Y-91948000D03*
X156718000Y-89408000D03*
X159258000Y-91948000D03*
X159258000Y-89408000D03*
X161798000Y-91948000D03*
X161798000Y-89408000D03*
X164338000Y-91948000D03*
X164338000Y-89408000D03*
X166878000Y-91948000D03*
X166878000Y-89408000D03*
X169418000Y-91948000D03*
X169418000Y-89408000D03*
X171958000Y-91948000D03*
X171958000Y-89408000D03*
X174498000Y-91948000D03*
X174498000Y-89408000D03*
X177038000Y-91948000D03*
X177038000Y-89408000D03*
X179578000Y-91948000D03*
X179578000Y-89408000D03*
X179578000Y-56388000D03*
X179578000Y-58928000D03*
X177038000Y-56388000D03*
X177038000Y-58928000D03*
X174498000Y-56388000D03*
X174498000Y-58928000D03*
X171958000Y-56388000D03*
X171958000Y-58928000D03*
X169418000Y-56388000D03*
X169418000Y-58928000D03*
X166878000Y-56388000D03*
X166878000Y-58928000D03*
X164338000Y-56388000D03*
X164338000Y-58928000D03*
X161798000Y-56388000D03*
X161798000Y-58928000D03*
X159258000Y-56388000D03*
X159258000Y-58928000D03*
X156718000Y-56388000D03*
X156718000Y-58928000D03*
X154178000Y-56388000D03*
X154178000Y-58928000D03*
X151638000Y-56388000D03*
X151638000Y-58928000D03*
X149098000Y-56388000D03*
X149098000Y-58928000D03*
X146558000Y-56388000D03*
X146558000Y-58928000D03*
X144018000Y-56388000D03*
X144018000Y-58928000D03*
X141478000Y-56388000D03*
X141478000Y-58928000D03*
X138938000Y-56388000D03*
X138938000Y-58928000D03*
X136398000Y-56388000D03*
X136398000Y-58928000D03*
X133858000Y-56388000D03*
X133858000Y-58928000D03*
X131318000Y-56388000D03*
X131318000Y-58928000D03*
X128778000Y-56388000D03*
X128778000Y-58928000D03*
X126238000Y-56388000D03*
X126238000Y-58928000D03*
X191008000Y-57023000D03*
X191008000Y-59563000D03*
X109855000Y-88900000D03*
X109855000Y-86360000D03*
X109855000Y-83820000D03*
X109855000Y-81280000D03*
X109855000Y-78740000D03*
X109855000Y-76200000D03*
X109855000Y-73660000D03*
X109855000Y-71120000D03*
X109855000Y-68580000D03*
X109855000Y-66040000D03*
X109855000Y-63500000D03*
X109855000Y-60960000D03*
X109855000Y-58420000D03*
X109855000Y-55880000D03*
X109855000Y-53340000D03*
X109855000Y-50800000D03*
X109855000Y-48260000D03*
X109855000Y-45720000D03*
X109855000Y-43180000D03*
X109855000Y-40640000D03*
X94615000Y-40640000D03*
X94615000Y-43180000D03*
X94615000Y-45720000D03*
X94615000Y-48260000D03*
X94615000Y-50800000D03*
X94615000Y-53340000D03*
X94615000Y-55880000D03*
X94615000Y-58420000D03*
X94615000Y-60960000D03*
X94615000Y-63500000D03*
X94615000Y-66040000D03*
X94615000Y-68580000D03*
X94615000Y-71120000D03*
X94615000Y-73660000D03*
X94615000Y-76200000D03*
X94615000Y-78740000D03*
X94615000Y-81280000D03*
X94615000Y-83820000D03*
X94615000Y-86360000D03*
X94615000Y-88900000D03*
X98425000Y-44450000D03*
X100965000Y-44450000D03*
X103505000Y-44450000D03*
X106045000Y-44450000D03*
D14*
X116329000Y-39643000D03*
X131829000Y-39643000D03*
D15*
X117229000Y-49243000D03*
D16*
X131829000Y-49243000D03*
D17*
X130679000Y-49743000D03*
X128479000Y-49743000D03*
X129579000Y-49743000D03*
X127379000Y-49743000D03*
X126279000Y-49743000D03*
X125179000Y-49743000D03*
X121879000Y-49743000D03*
X122979000Y-49743000D03*
X124079000Y-49743000D03*
D18*
X137160000Y-102442000D03*
X137160000Y-99742000D03*
X134620000Y-102442000D03*
X134620000Y-99742000D03*
X132080000Y-102442000D03*
X132080000Y-99742000D03*
X129540000Y-102442000D03*
X129540000Y-99742000D03*
D19*
X182970800Y-36865800D03*
X182970800Y-51365800D03*
X185470800Y-51365800D03*
X187970800Y-51365800D03*
X187970800Y-36865800D03*
D20*
X191070800Y-43865800D03*
X179870800Y-43865800D03*
D21*
X180072460Y-64845580D03*
X179272460Y-64845580D03*
X178472460Y-64845580D03*
X177672460Y-64845580D03*
X176872460Y-64845580D03*
X176072460Y-64845580D03*
X175272460Y-64845580D03*
X174472460Y-64845580D03*
X173672460Y-64845580D03*
X172872460Y-64845580D03*
X172072460Y-64845580D03*
X171272460Y-64845580D03*
X170472460Y-64845580D03*
X169672460Y-64845580D03*
X168872460Y-64845580D03*
X168072460Y-64845580D03*
X167272460Y-64845580D03*
X166472460Y-64845580D03*
X165672460Y-64845580D03*
X164872460Y-64845580D03*
X164072460Y-64845580D03*
X163272460Y-64845580D03*
X162472460Y-64845580D03*
X161672460Y-64845580D03*
X160872460Y-64845580D03*
X160072460Y-64845580D03*
X159272460Y-64845580D03*
X159272460Y-76515580D03*
X160072460Y-76515580D03*
X160872460Y-76515580D03*
X161672460Y-76515580D03*
X162472460Y-76515580D03*
X163272460Y-76515580D03*
X164072460Y-76515580D03*
X164872460Y-76515580D03*
X165672460Y-76515580D03*
X166472460Y-76515580D03*
X167272460Y-76515580D03*
X168072460Y-76515580D03*
X168872460Y-76515580D03*
X169672460Y-76515580D03*
X170472460Y-76515580D03*
X171272460Y-76515580D03*
X172072460Y-76515580D03*
X172872460Y-76515580D03*
X173672460Y-76515580D03*
X174472460Y-76515580D03*
X175272460Y-76515580D03*
X176072460Y-76515580D03*
X176872460Y-76515580D03*
X177672460Y-76515580D03*
X178472460Y-76515580D03*
X179272460Y-76515580D03*
D22*
X180072460Y-76515580D03*
D23*
X182143400Y-67061400D03*
X182143400Y-64561400D03*
X171323000Y-79395000D03*
X171323000Y-81895000D03*
D24*
X119460000Y-71120000D03*
X116760000Y-71120000D03*
X119460000Y-73660000D03*
X116760000Y-73660000D03*
D25*
X155575000Y-38100000D03*
D26*
X163195000Y-45720000D03*
X158115000Y-38100000D03*
X160655000Y-45720000D03*
X160655000Y-38100000D03*
X158115000Y-45720000D03*
X163195000Y-38100000D03*
X155575000Y-45720000D03*
D27*
X122478800Y-97739200D03*
X121310400Y-99110800D03*
X131829000Y-39643000D03*
X131749800Y-43967400D03*
X170027600Y-78079600D03*
X173672500Y-76530200D03*
X177546000Y-78257400D03*
X176085500Y-64858900D03*
X171284900Y-64833500D03*
X159232600Y-76530200D03*
X178435000Y-69850000D03*
X177609500Y-69850000D03*
X176771300Y-69888100D03*
X175958500Y-69913500D03*
X174117000Y-69913500D03*
X173228000Y-69913500D03*
X172402500Y-69913500D03*
X171577000Y-69913500D03*
X171640500Y-71589900D03*
X172453300Y-71564500D03*
X173266100Y-71501000D03*
X174066200Y-71539100D03*
X175971200Y-71526400D03*
X176784000Y-71526400D03*
X177596800Y-71539100D03*
X178447700Y-71564500D03*
X123901200Y-60960000D03*
X124714000Y-59207400D03*
X122326400Y-66040000D03*
X119460000Y-58420000D03*
X114960400Y-55880000D03*
X114871500Y-53314600D03*
X116760000Y-66040000D03*
X116624100Y-63588900D03*
X116738400Y-60934600D03*
X116878100Y-58420000D03*
X125171200Y-43662600D03*
X180162200Y-67030600D03*
X128625600Y-72136000D03*
X159258000Y-64909700D03*
X180073300Y-64846200D03*
X178485800Y-64871600D03*
X173672500Y-64871600D03*
X169684700Y-64935100D03*
X178790600Y-37211000D03*
X176530000Y-51816000D03*
X143052800Y-77520800D03*
X116760000Y-73660000D03*
X150723600Y-77190600D03*
X116760000Y-71120000D03*
D28*
X122605800Y-73660000D02*
X122682000Y-73736200D01*
D29*
X136398000Y-45085000D02*
X136575800Y-45085000D01*
X136575800Y-45085000D02*
X138125200Y-46634400D01*
X138125200Y-46634400D02*
X138125200Y-49276000D01*
X131829000Y-49243000D02*
X131829000Y-44046600D01*
X131829000Y-44046600D02*
X131749800Y-43967400D01*
X173672460Y-76530160D02*
X173672500Y-76530200D01*
X176085500Y-64858900D02*
X176072460Y-64845860D01*
X176072460Y-64845860D02*
X176072460Y-64845580D01*
X171284900Y-64833500D02*
X171272820Y-64845580D01*
X171272820Y-64845580D02*
X171272460Y-64845580D01*
X180072460Y-76515580D02*
X180072460Y-77926360D01*
X180072460Y-77926360D02*
X180086000Y-77939900D01*
X178472460Y-76515580D02*
X178472460Y-77913860D01*
X178472460Y-77913860D02*
X178498500Y-77939900D01*
X173672460Y-76530160D02*
X173672460Y-76515580D01*
X169672460Y-76515580D02*
X169672460Y-77990240D01*
X169672460Y-77990240D02*
X169621200Y-78041500D01*
X159232600Y-76530200D02*
X159247220Y-76515580D01*
X159247220Y-76515580D02*
X159272460Y-76515580D01*
X179272460Y-64845580D02*
X179272460Y-67234540D01*
X178435000Y-68072000D02*
X178435000Y-69850000D01*
X179272460Y-67234540D02*
X178435000Y-68072000D01*
X179578000Y-58928000D02*
X179578000Y-62103000D01*
X179272460Y-62408540D02*
X179272460Y-64845580D01*
X179578000Y-62103000D02*
X179272460Y-62408540D01*
X177672460Y-64845580D02*
X177735960Y-69723540D01*
X177735960Y-69723540D02*
X177609500Y-69850000D01*
X177038000Y-56388000D02*
X178308000Y-57658000D01*
X177672460Y-62230540D02*
X177672460Y-64845580D01*
X178308000Y-61595000D02*
X177672460Y-62230540D01*
X178308000Y-57658000D02*
X178308000Y-61595000D01*
X176872460Y-64845580D02*
X176872460Y-69786940D01*
X176872460Y-69786940D02*
X176771300Y-69888100D01*
X176771300Y-69888100D02*
X176768760Y-69890640D01*
X177038000Y-58928000D02*
X177038000Y-62189360D01*
X176872460Y-62354900D02*
X176872460Y-64845580D01*
X177038000Y-62189360D02*
X176872460Y-62354900D01*
X175272460Y-64845580D02*
X175272460Y-67004960D01*
X175958500Y-67691000D02*
X175958500Y-69913500D01*
X175272460Y-67004960D02*
X175958500Y-67691000D01*
X174498000Y-56388000D02*
X175768000Y-57658000D01*
X175272460Y-63043040D02*
X175272460Y-64845580D01*
X175768000Y-62547500D02*
X175272460Y-63043040D01*
X175768000Y-57658000D02*
X175768000Y-62547500D01*
X174472460Y-64845580D02*
X174472460Y-67780040D01*
X174117000Y-68135500D02*
X174117000Y-69913500D01*
X174472460Y-67780040D02*
X174117000Y-68135500D01*
X174498000Y-58928000D02*
X174498000Y-64820040D01*
X174498000Y-64820040D02*
X174472460Y-64845580D01*
X172872460Y-64845580D02*
X172872460Y-67652960D01*
X173228000Y-68008500D02*
X173228000Y-69913500D01*
X172872460Y-67652960D02*
X173228000Y-68008500D01*
X171958000Y-56388000D02*
X172085000Y-56388000D01*
X172085000Y-56388000D02*
X173228000Y-57531000D01*
X173228000Y-57531000D02*
X173228000Y-63246000D01*
X173228000Y-63246000D02*
X172872460Y-63601540D01*
X172872460Y-63601540D02*
X172872460Y-64845580D01*
X172072460Y-64845580D02*
X172072460Y-67741960D01*
X172402500Y-68072000D02*
X172402500Y-69913500D01*
X172072460Y-67741960D02*
X172402500Y-68072000D01*
X171958000Y-58928000D02*
X171958000Y-63182500D01*
X172072460Y-63296960D02*
X172072460Y-64845580D01*
X171958000Y-63182500D02*
X172072460Y-63296960D01*
X170472460Y-64845580D02*
X170472460Y-67284960D01*
X171577000Y-68389500D02*
X171577000Y-69913500D01*
X170472460Y-67284960D02*
X171577000Y-68389500D01*
X169418000Y-56388000D02*
X170688000Y-57658000D01*
X170472460Y-63461540D02*
X170472460Y-64845580D01*
X170688000Y-63246000D02*
X170472460Y-63461540D01*
X170688000Y-57658000D02*
X170688000Y-63246000D01*
X169418000Y-58928000D02*
X169418000Y-62865000D01*
X168872460Y-63410540D02*
X168872460Y-64845580D01*
X169418000Y-62865000D02*
X168872460Y-63410540D01*
X166878000Y-56388000D02*
X168148000Y-57658000D01*
X168072460Y-63258040D02*
X168072460Y-64845580D01*
X168148000Y-63182500D02*
X168072460Y-63258040D01*
X168148000Y-57658000D02*
X168148000Y-63182500D01*
X166878000Y-58928000D02*
X166878000Y-63119000D01*
X167272460Y-63513460D02*
X167272460Y-64845580D01*
X166878000Y-63119000D02*
X167272460Y-63513460D01*
X164338000Y-56388000D02*
X165608000Y-57658000D01*
X166472460Y-63411960D02*
X166472460Y-64845580D01*
X165608000Y-62547500D02*
X166472460Y-63411960D01*
X165608000Y-57658000D02*
X165608000Y-62547500D01*
X164338000Y-58928000D02*
X164338000Y-62230000D01*
X165672460Y-63564460D02*
X165672460Y-64845580D01*
X164338000Y-62230000D02*
X165672460Y-63564460D01*
X161798000Y-56388000D02*
X163068000Y-57658000D01*
X164872460Y-63628060D02*
X164872460Y-64845580D01*
X163068000Y-61823600D02*
X164872460Y-63628060D01*
X163068000Y-57658000D02*
X163068000Y-61823600D01*
X161798000Y-58928000D02*
X161798000Y-61391800D01*
X164072460Y-63666260D02*
X164072460Y-64845580D01*
X161798000Y-61391800D02*
X164072460Y-63666260D01*
X159258000Y-91948000D02*
X159258000Y-94742000D01*
X154929840Y-99070160D02*
X154929840Y-108557440D01*
X159258000Y-94742000D02*
X154929840Y-99070160D01*
X149098000Y-91948000D02*
X149098000Y-97917000D01*
X144769840Y-102245160D02*
X144769840Y-108557440D01*
X149098000Y-97917000D02*
X144769840Y-102245160D01*
X146558000Y-91948000D02*
X146558000Y-97790000D01*
X142229840Y-102118160D02*
X142229840Y-108557440D01*
X146558000Y-97790000D02*
X142229840Y-102118160D01*
X144018000Y-91948000D02*
X144018000Y-97790000D01*
X139689840Y-102118160D02*
X139689840Y-108557440D01*
X144018000Y-97790000D02*
X139689840Y-102118160D01*
X156718000Y-91948000D02*
X156718000Y-96012000D01*
X152389840Y-100340160D02*
X152389840Y-108557440D01*
X156718000Y-96012000D02*
X152389840Y-100340160D01*
X154178000Y-91948000D02*
X154178000Y-96774000D01*
X149849840Y-101102160D02*
X149849840Y-108557440D01*
X154178000Y-96774000D02*
X149849840Y-101102160D01*
X166472460Y-76515580D02*
X166472460Y-73711660D01*
X151638000Y-62865000D02*
X151638000Y-58928000D01*
X157962600Y-69189600D02*
X151638000Y-62865000D01*
X161950400Y-69189600D02*
X157962600Y-69189600D01*
X166472460Y-73711660D02*
X161950400Y-69189600D01*
X167272460Y-76515580D02*
X167272460Y-73495660D01*
X152908000Y-57658000D02*
X151638000Y-56388000D01*
X152908000Y-62839600D02*
X152908000Y-57658000D01*
X158597600Y-68529200D02*
X152908000Y-62839600D01*
X162306000Y-68529200D02*
X158597600Y-68529200D01*
X167272460Y-73495660D02*
X162306000Y-68529200D01*
X168072460Y-76515580D02*
X168072460Y-73279660D01*
X154178000Y-62788800D02*
X154178000Y-58928000D01*
X159207200Y-67818000D02*
X154178000Y-62788800D01*
X162610800Y-67818000D02*
X159207200Y-67818000D01*
X168072460Y-73279660D02*
X162610800Y-67818000D01*
X170472460Y-76515580D02*
X170472460Y-74053340D01*
X171640500Y-72885300D02*
X171640500Y-71589900D01*
X170472460Y-74053340D02*
X171640500Y-72885300D01*
X172072460Y-76515580D02*
X172072460Y-73710640D01*
X172453300Y-73329800D02*
X172453300Y-71564500D01*
X172072460Y-73710640D02*
X172453300Y-73329800D01*
X172872460Y-76515580D02*
X172872460Y-74053640D01*
X173266100Y-73660000D02*
X173266100Y-71501000D01*
X172872460Y-74053640D02*
X173266100Y-73660000D01*
X174472460Y-76515580D02*
X174472460Y-74015460D01*
X174066200Y-73609200D02*
X174066200Y-71539100D01*
X174472460Y-74015460D02*
X174066200Y-73609200D01*
X175272460Y-76515580D02*
X175272460Y-74142840D01*
X175971200Y-73444100D02*
X175971200Y-71526400D01*
X175272460Y-74142840D02*
X175971200Y-73444100D01*
X176872460Y-76515580D02*
X176872460Y-73876340D01*
X176784000Y-73787880D02*
X176784000Y-71526400D01*
X176872460Y-73876340D02*
X176784000Y-73787880D01*
X177672460Y-76515580D02*
X177672460Y-73926160D01*
X177596800Y-73850500D02*
X177596800Y-71539100D01*
X177672460Y-73926160D02*
X177596800Y-73850500D01*
X179272460Y-76515580D02*
X179272460Y-73722760D01*
X178447700Y-72898000D02*
X178447700Y-71564500D01*
X179272460Y-73722760D02*
X178447700Y-72898000D01*
X128479000Y-49743000D02*
X128479000Y-51085200D01*
X130022600Y-52628800D02*
X128479000Y-51085200D01*
X130022600Y-60477400D02*
X130022600Y-52628800D01*
X129565400Y-60934600D02*
X130022600Y-60477400D01*
X123926600Y-60934600D02*
X129565400Y-60934600D01*
X123901200Y-60960000D02*
X123926600Y-60934600D01*
X126279000Y-49743000D02*
X126279000Y-50428800D01*
X126279000Y-50428800D02*
X124714000Y-51993800D01*
X124714000Y-51993800D02*
X124714000Y-59207400D01*
X122979000Y-51011000D02*
X122979000Y-49743000D01*
X122428000Y-51562000D02*
X122979000Y-51011000D01*
X122428000Y-65938400D02*
X122428000Y-51562000D01*
X122326400Y-66040000D02*
X122428000Y-65938400D01*
X124079000Y-49743000D02*
X124079000Y-47802800D01*
X123393200Y-47117000D02*
X124079000Y-47802800D01*
X120853200Y-47117000D02*
X123393200Y-47117000D01*
X119913400Y-48056800D02*
X120853200Y-47117000D01*
X119913400Y-57966600D02*
X119913400Y-48056800D01*
X119913400Y-57966600D02*
X119460000Y-58420000D01*
X177038000Y-89408000D02*
X178308000Y-90678000D01*
X177673000Y-102870000D02*
X177673000Y-108440600D01*
X180975000Y-99568000D02*
X177673000Y-102870000D01*
X180975000Y-96012000D02*
X180975000Y-99568000D01*
X178308000Y-93345000D02*
X180975000Y-96012000D01*
X178308000Y-90678000D02*
X178308000Y-93345000D01*
X177673000Y-108440600D02*
X177789840Y-108557440D01*
X174498000Y-89408000D02*
X175768000Y-90678000D01*
X179197000Y-96520000D02*
X179197000Y-99695000D01*
X179197000Y-99695000D02*
X175768000Y-103124000D01*
X175768000Y-103124000D02*
X175768000Y-108039280D01*
X179197000Y-96164400D02*
X179197000Y-96520000D01*
X175768000Y-92735400D02*
X179197000Y-96164400D01*
X175768000Y-90678000D02*
X175768000Y-92735400D01*
X175768000Y-108039280D02*
X175249840Y-108557440D01*
X171958000Y-89408000D02*
X171958000Y-89535000D01*
X171958000Y-89535000D02*
X170688000Y-90805000D01*
X170688000Y-90805000D02*
X170688000Y-93218000D01*
X170688000Y-93218000D02*
X170169840Y-93736160D01*
X170169840Y-93736160D02*
X170169840Y-108557440D01*
X169418000Y-89408000D02*
X168148000Y-90678000D01*
X167629840Y-93863160D02*
X167629840Y-108557440D01*
X168148000Y-93345000D02*
X167629840Y-93863160D01*
X168148000Y-90678000D02*
X168148000Y-93345000D01*
X166878000Y-89408000D02*
X165608000Y-90678000D01*
X165089840Y-94371160D02*
X165089840Y-108557440D01*
X165608000Y-93853000D02*
X165089840Y-94371160D01*
X165608000Y-90678000D02*
X165608000Y-93853000D01*
X164338000Y-89408000D02*
X163068000Y-90678000D01*
X162549840Y-95006160D02*
X162549840Y-108557440D01*
X163068000Y-94488000D02*
X162549840Y-95006160D01*
X163068000Y-90678000D02*
X163068000Y-94488000D01*
X161798000Y-91948000D02*
X161798000Y-95123000D01*
X157469840Y-99451160D02*
X157469840Y-108557440D01*
X161798000Y-95123000D02*
X157469840Y-99451160D01*
X151638000Y-91948000D02*
X151638000Y-97409000D01*
X147309840Y-101737160D02*
X147309840Y-108557440D01*
X151638000Y-97409000D02*
X147309840Y-101737160D01*
X137160000Y-102442000D02*
X137160000Y-108547280D01*
X137160000Y-108547280D02*
X137149840Y-108557440D01*
X134620000Y-102442000D02*
X134620000Y-108547280D01*
X134620000Y-108547280D02*
X134609840Y-108557440D01*
X132080000Y-102442000D02*
X132080000Y-108547280D01*
X132080000Y-108547280D02*
X132069840Y-108557440D01*
X129413000Y-102442000D02*
X129540000Y-102489000D01*
X129540000Y-102489000D02*
X129529840Y-108557440D01*
X131318000Y-89408000D02*
X130048000Y-90678000D01*
X126989840Y-96276160D02*
X126989840Y-108557440D01*
X130048000Y-93218000D02*
X126989840Y-96276160D01*
X130048000Y-90678000D02*
X130048000Y-93218000D01*
X121909840Y-108557440D02*
X121909840Y-103642160D01*
X124444760Y-103616760D02*
X124444760Y-108064680D01*
X123952000Y-103124000D02*
X124444760Y-103616760D01*
X122428000Y-103124000D02*
X123952000Y-103124000D01*
X121909840Y-103642160D02*
X122428000Y-103124000D01*
X109855000Y-55880000D02*
X114960400Y-55880000D01*
X136398000Y-58788300D02*
X136398000Y-58928000D01*
X136398000Y-58928000D02*
X136398000Y-58559700D01*
X114846100Y-53340000D02*
X109855000Y-53340000D01*
X114871500Y-53314600D02*
X114846100Y-53340000D01*
X116760000Y-66040000D02*
X116636800Y-66040000D01*
X116636800Y-66040000D02*
X116763800Y-66040000D01*
X116763800Y-66040000D02*
X116763800Y-65913000D01*
X109855000Y-66040000D02*
X116636800Y-66040000D01*
X116636800Y-66040000D02*
X116763800Y-65913000D01*
X116763800Y-65913000D02*
X116789200Y-65887600D01*
X109855000Y-63500000D02*
X116535200Y-63500000D01*
X116535200Y-63500000D02*
X116624100Y-63588900D01*
X116535200Y-63500000D02*
X116624100Y-63588900D01*
X109855000Y-60960000D02*
X116713000Y-60960000D01*
X116713000Y-60960000D02*
X116738400Y-60934600D01*
X109855000Y-58420000D02*
X116878100Y-58420000D01*
X116878100Y-58420000D02*
X116903500Y-58394600D01*
X133858000Y-91948000D02*
X133858000Y-93599000D01*
X129540000Y-97917000D02*
X129540000Y-99742000D01*
X133858000Y-93599000D02*
X129540000Y-97917000D01*
X136398000Y-91948000D02*
X136398000Y-93726000D01*
X132080000Y-98044000D02*
X132080000Y-99742000D01*
X136398000Y-93726000D02*
X132080000Y-98044000D01*
X138938000Y-91948000D02*
X138938000Y-93472000D01*
X134620000Y-97790000D02*
X134620000Y-99742000D01*
X138938000Y-93472000D02*
X134620000Y-97790000D01*
X141478000Y-91948000D02*
X141478000Y-93853000D01*
X137160000Y-98171000D02*
X137160000Y-99742000D01*
X141478000Y-93853000D02*
X137160000Y-98171000D01*
X136398000Y-37465000D02*
X151765000Y-37465000D01*
X160655000Y-41910000D02*
X160655000Y-45720000D01*
X159385000Y-40640000D02*
X160655000Y-41910000D01*
X154940000Y-40640000D02*
X159385000Y-40640000D01*
X151765000Y-37465000D02*
X154940000Y-40640000D01*
X109855000Y-48260000D02*
X112725200Y-48260000D01*
X119557800Y-37465000D02*
X136398000Y-37465000D01*
X118795800Y-38227000D02*
X119557800Y-37465000D01*
X118795800Y-45262800D02*
X118795800Y-38227000D01*
X118186200Y-45872400D02*
X118795800Y-45262800D01*
X115112800Y-45872400D02*
X118186200Y-45872400D01*
X112725200Y-48260000D02*
X115112800Y-45872400D01*
X136398000Y-40005000D02*
X151130000Y-40005000D01*
X163195000Y-46990000D02*
X163195000Y-45720000D01*
X162560000Y-47625000D02*
X163195000Y-46990000D01*
X153670000Y-47625000D02*
X162560000Y-47625000D01*
X152400000Y-46355000D02*
X153670000Y-47625000D01*
X152400000Y-41275000D02*
X152400000Y-46355000D01*
X151130000Y-40005000D02*
X152400000Y-41275000D01*
X109855000Y-50800000D02*
X113258600Y-50800000D01*
X134975600Y-40005000D02*
X136398000Y-40005000D01*
X132892800Y-42087800D02*
X134975600Y-40005000D01*
X121183400Y-42087800D02*
X132892800Y-42087800D01*
X120370600Y-42900600D02*
X121183400Y-42087800D01*
X120370600Y-45313600D02*
X120370600Y-42900600D01*
X118922800Y-46761400D02*
X120370600Y-45313600D01*
X116281200Y-46761400D02*
X118922800Y-46761400D01*
X115011200Y-48031400D02*
X116281200Y-46761400D01*
X115011200Y-49047400D02*
X115011200Y-48031400D01*
X113258600Y-50800000D02*
X115011200Y-49047400D01*
X159258000Y-56388000D02*
X160528000Y-57658000D01*
X163272460Y-63679060D02*
X163272460Y-64845580D01*
X160528000Y-60934600D02*
X163272460Y-63679060D01*
X160528000Y-57658000D02*
X160528000Y-60934600D01*
X159258000Y-58928000D02*
X159258000Y-60528200D01*
X162472460Y-63742660D02*
X162472460Y-64845580D01*
X159258000Y-60528200D02*
X162472460Y-63742660D01*
X156718000Y-56388000D02*
X157988000Y-57658000D01*
X161672460Y-63679260D02*
X161672460Y-64845580D01*
X157988000Y-59994800D02*
X161672460Y-63679260D01*
X157988000Y-57658000D02*
X157988000Y-59994800D01*
X156718000Y-58928000D02*
X156718000Y-59588400D01*
X156718000Y-59588400D02*
X160872460Y-63742860D01*
X160872460Y-63742860D02*
X160872460Y-64845580D01*
X154178000Y-56388000D02*
X155448000Y-57658000D01*
X160072460Y-63654060D02*
X160072460Y-64845580D01*
X159766000Y-63347600D02*
X160072460Y-63654060D01*
X159004000Y-63347600D02*
X159766000Y-63347600D01*
X155448000Y-59791600D02*
X159004000Y-63347600D01*
X155448000Y-57658000D02*
X155448000Y-59791600D01*
X160072460Y-76515580D02*
X160072460Y-75236460D01*
X142697200Y-57607200D02*
X141478000Y-56388000D01*
X142697200Y-62433200D02*
X142697200Y-57607200D01*
X154559000Y-74295000D02*
X142697200Y-62433200D01*
X159131000Y-74295000D02*
X154559000Y-74295000D01*
X160072460Y-75236460D02*
X159131000Y-74295000D01*
X160872460Y-76515580D02*
X160872460Y-74918860D01*
X144018000Y-62331600D02*
X144018000Y-58928000D01*
X155194000Y-73507600D02*
X144018000Y-62331600D01*
X159461200Y-73507600D02*
X155194000Y-73507600D01*
X160872460Y-74918860D02*
X159461200Y-73507600D01*
X144018000Y-58928000D02*
X144018000Y-59118500D01*
X161672460Y-76515580D02*
X161672460Y-74601260D01*
X145288000Y-57658000D02*
X144018000Y-56388000D01*
X145288000Y-62458600D02*
X145288000Y-57658000D01*
X155727400Y-72898000D02*
X145288000Y-62458600D01*
X159969200Y-72898000D02*
X155727400Y-72898000D01*
X161672460Y-74601260D02*
X159969200Y-72898000D01*
X162472460Y-76515580D02*
X162472460Y-74385260D01*
X146558000Y-62661800D02*
X146558000Y-58928000D01*
X156108400Y-72212200D02*
X146558000Y-62661800D01*
X160299400Y-72212200D02*
X156108400Y-72212200D01*
X162472460Y-74385260D02*
X160299400Y-72212200D01*
X146558000Y-58928000D02*
X146558000Y-59499500D01*
X163272460Y-76515580D02*
X163272460Y-74118460D01*
X147853400Y-57683400D02*
X146558000Y-56388000D01*
X147853400Y-62712600D02*
X147853400Y-57683400D01*
X156641800Y-71501000D02*
X147853400Y-62712600D01*
X160655000Y-71501000D02*
X156641800Y-71501000D01*
X163272460Y-74118460D02*
X160655000Y-71501000D01*
X164072460Y-76515580D02*
X164072460Y-73877060D01*
X149098000Y-62890400D02*
X149098000Y-58928000D01*
X156997400Y-70789800D02*
X149098000Y-62890400D01*
X160985200Y-70789800D02*
X156997400Y-70789800D01*
X164072460Y-73877060D02*
X160985200Y-70789800D01*
X164872460Y-76515580D02*
X164872460Y-73661060D01*
X150393400Y-57683400D02*
X149098000Y-56388000D01*
X150393400Y-62611000D02*
X150393400Y-57683400D01*
X157886400Y-70104000D02*
X150393400Y-62611000D01*
X161315400Y-70104000D02*
X157886400Y-70104000D01*
X164872460Y-73661060D02*
X161315400Y-70104000D01*
D28*
X107632500Y-83832700D02*
X108889800Y-85090000D01*
X121107200Y-87604600D02*
X124180600Y-90678000D01*
X124180600Y-90678000D02*
X127508000Y-90678000D01*
X127508000Y-90678000D02*
X128778000Y-91948000D01*
X118592600Y-85090000D02*
X121107200Y-87604600D01*
X108889800Y-85090000D02*
X118592600Y-85090000D01*
X94615000Y-83820000D02*
X95554800Y-83820000D01*
X106603800Y-82804000D02*
X107632500Y-83832700D01*
X107632500Y-83832700D02*
X107670600Y-83870800D01*
X96570800Y-82804000D02*
X106603800Y-82804000D01*
X95554800Y-83820000D02*
X96570800Y-82804000D01*
X125171200Y-43662600D02*
X125171200Y-43180000D01*
X125171200Y-43180000D02*
X125145800Y-43154600D01*
X125179000Y-43670400D02*
X125179000Y-49743000D01*
X125171200Y-43662600D02*
X125179000Y-43670400D01*
X180193000Y-67061400D02*
X182143400Y-67061400D01*
X180162200Y-67030600D02*
X180193000Y-67061400D01*
X178816000Y-79395000D02*
X178816000Y-83997800D01*
X181381400Y-90144600D02*
X179578000Y-91948000D01*
X181381400Y-86563200D02*
X181381400Y-90144600D01*
X178816000Y-83997800D02*
X181381400Y-86563200D01*
X180701000Y-67061400D02*
X182143400Y-67061400D01*
D29*
X182118000Y-78181200D02*
X182118000Y-67284600D01*
D28*
X175183800Y-79395000D02*
X178816000Y-79395000D01*
X178816000Y-79395000D02*
X180904200Y-79395000D01*
X180904200Y-79395000D02*
X182118000Y-78181200D01*
X125179000Y-49743000D02*
X125179000Y-50335000D01*
X125179000Y-50335000D02*
X123774200Y-51739800D01*
X127584200Y-60121800D02*
X128778000Y-58928000D01*
X124282200Y-60121800D02*
X127584200Y-60121800D01*
X123774200Y-59613800D02*
X124282200Y-60121800D01*
X123774200Y-51739800D02*
X123774200Y-59613800D01*
X125882400Y-75717400D02*
X125882400Y-75336400D01*
X125882400Y-75336400D02*
X128625600Y-72593200D01*
X128625600Y-72593200D02*
X128625600Y-72136000D01*
X119460000Y-71120000D02*
X122275600Y-71120000D01*
X119460000Y-73660000D02*
X119460000Y-75162400D01*
X144551400Y-75717400D02*
X148229000Y-79395000D01*
X120015000Y-75717400D02*
X125882400Y-75717400D01*
X125882400Y-75717400D02*
X144551400Y-75717400D01*
X119460000Y-75162400D02*
X120015000Y-75717400D01*
X128778000Y-91948000D02*
X128778000Y-91160600D01*
X128778000Y-91160600D02*
X130048000Y-89890600D01*
X130048000Y-89890600D02*
X130048000Y-86512400D01*
X130048000Y-86512400D02*
X137165400Y-79395000D01*
X137165400Y-79395000D02*
X148229000Y-79395000D01*
X148229000Y-79395000D02*
X171323000Y-79395000D01*
D29*
X159258000Y-64909700D02*
X159272460Y-64895240D01*
X119460000Y-73660000D02*
X119460000Y-71120000D01*
X180073300Y-64846200D02*
X180072680Y-64845580D01*
X180072680Y-64845580D02*
X180072460Y-64845580D01*
X178485800Y-64871600D02*
X178472460Y-64858260D01*
X178472460Y-64858260D02*
X178472460Y-64845580D01*
X173672500Y-64871600D02*
X173672460Y-64871560D01*
X173672460Y-64871560D02*
X173672460Y-64845580D01*
X169684700Y-64935100D02*
X169672460Y-64922860D01*
X169672460Y-64922860D02*
X169672460Y-64845580D01*
X159272460Y-64895240D02*
X159272460Y-64845580D01*
X171323000Y-79395000D02*
X175183800Y-79395000D01*
X175183800Y-79395000D02*
X175392400Y-79395000D01*
X175392400Y-79395000D02*
X176072460Y-78714940D01*
X176072460Y-78714940D02*
X176072460Y-76515580D01*
X171323000Y-79395000D02*
X171323000Y-76566120D01*
X171323000Y-76566120D02*
X171272460Y-76515580D01*
D28*
X122275600Y-71120000D02*
X122301000Y-71145400D01*
D29*
X178790600Y-39395400D02*
X178790600Y-37211000D01*
X178790600Y-37211000D02*
X178790600Y-37160200D01*
X176911000Y-41275000D02*
X178790600Y-39395400D01*
X176911000Y-51435000D02*
X176911000Y-41275000D01*
X176530000Y-51816000D02*
X176911000Y-51435000D01*
X116760000Y-74850000D02*
X116760000Y-76856600D01*
X116760000Y-73660000D02*
X116760000Y-74850000D01*
X117424200Y-77520800D02*
X143052800Y-77520800D01*
X116760000Y-76856600D02*
X117424200Y-77520800D01*
X109855000Y-73660000D02*
X116760000Y-73660000D01*
X118795800Y-68834000D02*
X142367000Y-68834000D01*
X142367000Y-68834000D02*
X150723600Y-77190600D01*
X116760000Y-70869800D02*
X118795800Y-68834000D01*
X116760000Y-71120000D02*
X116760000Y-70869800D01*
X109855000Y-71120000D02*
X116760000Y-71120000D01*
X123444000Y-82524600D02*
X107645200Y-82524600D01*
X123444000Y-82524600D02*
X128752600Y-87833200D01*
X128752600Y-89382600D02*
X128752600Y-87833200D01*
X106400600Y-81280000D02*
X94615000Y-81280000D01*
X107645200Y-82524600D02*
X106400600Y-81280000D01*
X128752600Y-89382600D02*
X128778000Y-89408000D01*
D30*
G36*
X93218243Y-81000900D02*
X93217758Y-81556661D01*
X93429990Y-82070303D01*
X93822630Y-82463629D01*
X94030512Y-82549949D01*
X93824697Y-82634990D01*
X93431371Y-83027630D01*
X93218243Y-83540900D01*
X93217758Y-84096661D01*
X93429990Y-84610303D01*
X93822630Y-85003629D01*
X94014727Y-85083395D01*
X93883857Y-85137603D01*
X93814392Y-85379787D01*
X94615000Y-86180395D01*
X95415608Y-85379787D01*
X95346143Y-85137603D01*
X95205682Y-85087491D01*
X95405303Y-85005010D01*
X95798629Y-84612370D01*
X95823917Y-84551469D01*
X95855207Y-84545245D01*
X96109879Y-84375079D01*
X96895958Y-83589000D01*
X106278642Y-83589000D01*
X107077419Y-84387776D01*
X107077421Y-84387779D01*
X108334721Y-85645079D01*
X108573079Y-85804344D01*
X108458243Y-86080900D01*
X108457758Y-86636661D01*
X108669990Y-87150303D01*
X109062630Y-87543629D01*
X109270512Y-87629949D01*
X109064697Y-87714990D01*
X108671371Y-88107630D01*
X108458243Y-88620900D01*
X108457758Y-89176661D01*
X108669990Y-89690303D01*
X109062630Y-90083629D01*
X109575900Y-90296757D01*
X110131661Y-90297242D01*
X110645303Y-90085010D01*
X111038629Y-89692370D01*
X111251757Y-89179100D01*
X111252242Y-88623339D01*
X111040010Y-88109697D01*
X110647370Y-87716371D01*
X110439488Y-87630051D01*
X110645303Y-87545010D01*
X111038629Y-87152370D01*
X111251757Y-86639100D01*
X111252242Y-86083339D01*
X111166158Y-85875000D01*
X118267442Y-85875000D01*
X123625521Y-91233079D01*
X123880193Y-91403245D01*
X124180600Y-91463000D01*
X124926740Y-91463000D01*
X124841243Y-91668900D01*
X124840758Y-92224661D01*
X125052990Y-92738303D01*
X125445630Y-93131629D01*
X125958900Y-93344757D01*
X126514661Y-93345242D01*
X127028303Y-93133010D01*
X127421629Y-92740370D01*
X127507949Y-92532488D01*
X127592990Y-92738303D01*
X127985630Y-93131629D01*
X128498900Y-93344757D01*
X128846138Y-93345060D01*
X126452439Y-95738759D01*
X126287692Y-95985321D01*
X126229840Y-96276160D01*
X126229840Y-103910000D01*
X126089840Y-103910000D01*
X125854523Y-103954278D01*
X125711190Y-104046511D01*
X125596650Y-103968249D01*
X125344760Y-103917240D01*
X125204760Y-103917240D01*
X125204760Y-103616760D01*
X125146908Y-103325921D01*
X124982161Y-103079359D01*
X124489401Y-102586599D01*
X124242839Y-102421852D01*
X123952000Y-102364000D01*
X122428000Y-102364000D01*
X122137161Y-102421852D01*
X121890599Y-102586599D01*
X121372439Y-103104759D01*
X121207692Y-103351321D01*
X121149840Y-103642160D01*
X121149840Y-103910000D01*
X121009840Y-103910000D01*
X120774523Y-103954278D01*
X120639263Y-104041316D01*
X120521730Y-103961009D01*
X120269840Y-103910000D01*
X118469840Y-103910000D01*
X118234523Y-103954278D01*
X118099263Y-104041316D01*
X117981730Y-103961009D01*
X117729840Y-103910000D01*
X115929840Y-103910000D01*
X115694523Y-103954278D01*
X115518000Y-104067867D01*
X115518000Y-102616000D01*
X115463954Y-102344295D01*
X115310046Y-102113954D01*
X115079705Y-101960046D01*
X114808000Y-101906000D01*
X107491000Y-101906000D01*
X107491000Y-93173516D01*
X115396606Y-93173516D01*
X115970408Y-94562224D01*
X117031968Y-95625638D01*
X118419672Y-96201863D01*
X119922256Y-96203174D01*
X121310964Y-95629372D01*
X122374378Y-94567812D01*
X122950603Y-93180108D01*
X122951914Y-91677524D01*
X122378112Y-90288816D01*
X121316552Y-89225402D01*
X119928848Y-88649177D01*
X118426264Y-88647866D01*
X117037556Y-89221668D01*
X115974142Y-90283228D01*
X115397917Y-91670932D01*
X115396606Y-93173516D01*
X107491000Y-93173516D01*
X107491000Y-86591616D01*
X107491600Y-86588600D01*
X107491600Y-86563200D01*
X107437554Y-86291495D01*
X107283646Y-86061154D01*
X107281839Y-86059947D01*
X105150116Y-83927625D01*
X105150075Y-83927598D01*
X105150046Y-83927554D01*
X105033132Y-83849435D01*
X104919797Y-83773684D01*
X104919747Y-83773674D01*
X104919705Y-83773646D01*
X104784606Y-83746773D01*
X104648100Y-83719600D01*
X104648050Y-83719610D01*
X104648000Y-83719600D01*
X98069400Y-83719600D01*
X98066651Y-83720147D01*
X98063897Y-83719621D01*
X97930902Y-83747149D01*
X97797695Y-83773646D01*
X97795363Y-83775204D01*
X97792619Y-83775772D01*
X97680333Y-83852064D01*
X97567354Y-83927554D01*
X97565796Y-83929886D01*
X97563478Y-83931461D01*
X95937878Y-85582461D01*
X95864463Y-85694200D01*
X95837397Y-85628857D01*
X95595213Y-85559392D01*
X94794605Y-86360000D01*
X95595213Y-87160608D01*
X95733800Y-87120857D01*
X95733800Y-88139143D01*
X95595213Y-88099392D01*
X94794605Y-88900000D01*
X95595213Y-89700608D01*
X95733800Y-89660857D01*
X95733800Y-90857000D01*
X91515000Y-90857000D01*
X91515000Y-89880213D01*
X93814392Y-89880213D01*
X93883857Y-90122397D01*
X94407302Y-90309144D01*
X94962368Y-90281362D01*
X95346143Y-90122397D01*
X95415608Y-89880213D01*
X94615000Y-89079605D01*
X93814392Y-89880213D01*
X91515000Y-89880213D01*
X91515000Y-88692302D01*
X93205856Y-88692302D01*
X93233638Y-89247368D01*
X93392603Y-89631143D01*
X93634787Y-89700608D01*
X94435395Y-88900000D01*
X93634787Y-88099392D01*
X93392603Y-88168857D01*
X93205856Y-88692302D01*
X91515000Y-88692302D01*
X91515000Y-87340213D01*
X93814392Y-87340213D01*
X93883857Y-87582397D01*
X94007344Y-87626453D01*
X93883857Y-87677603D01*
X93814392Y-87919787D01*
X94615000Y-88720395D01*
X95415608Y-87919787D01*
X95346143Y-87677603D01*
X95222656Y-87633547D01*
X95346143Y-87582397D01*
X95415608Y-87340213D01*
X94615000Y-86539605D01*
X93814392Y-87340213D01*
X91515000Y-87340213D01*
X91515000Y-86152302D01*
X93205856Y-86152302D01*
X93233638Y-86707368D01*
X93392603Y-87091143D01*
X93634787Y-87160608D01*
X94435395Y-86360000D01*
X93634787Y-85559392D01*
X93392603Y-85628857D01*
X93205856Y-86152302D01*
X91515000Y-86152302D01*
X91515000Y-80593000D01*
X93387618Y-80593000D01*
X93218243Y-81000900D01*
X93218243Y-81000900D01*
G37*
X93218243Y-81000900D02*
X93217758Y-81556661D01*
X93429990Y-82070303D01*
X93822630Y-82463629D01*
X94030512Y-82549949D01*
X93824697Y-82634990D01*
X93431371Y-83027630D01*
X93218243Y-83540900D01*
X93217758Y-84096661D01*
X93429990Y-84610303D01*
X93822630Y-85003629D01*
X94014727Y-85083395D01*
X93883857Y-85137603D01*
X93814392Y-85379787D01*
X94615000Y-86180395D01*
X95415608Y-85379787D01*
X95346143Y-85137603D01*
X95205682Y-85087491D01*
X95405303Y-85005010D01*
X95798629Y-84612370D01*
X95823917Y-84551469D01*
X95855207Y-84545245D01*
X96109879Y-84375079D01*
X96895958Y-83589000D01*
X106278642Y-83589000D01*
X107077419Y-84387776D01*
X107077421Y-84387779D01*
X108334721Y-85645079D01*
X108573079Y-85804344D01*
X108458243Y-86080900D01*
X108457758Y-86636661D01*
X108669990Y-87150303D01*
X109062630Y-87543629D01*
X109270512Y-87629949D01*
X109064697Y-87714990D01*
X108671371Y-88107630D01*
X108458243Y-88620900D01*
X108457758Y-89176661D01*
X108669990Y-89690303D01*
X109062630Y-90083629D01*
X109575900Y-90296757D01*
X110131661Y-90297242D01*
X110645303Y-90085010D01*
X111038629Y-89692370D01*
X111251757Y-89179100D01*
X111252242Y-88623339D01*
X111040010Y-88109697D01*
X110647370Y-87716371D01*
X110439488Y-87630051D01*
X110645303Y-87545010D01*
X111038629Y-87152370D01*
X111251757Y-86639100D01*
X111252242Y-86083339D01*
X111166158Y-85875000D01*
X118267442Y-85875000D01*
X123625521Y-91233079D01*
X123880193Y-91403245D01*
X124180600Y-91463000D01*
X124926740Y-91463000D01*
X124841243Y-91668900D01*
X124840758Y-92224661D01*
X125052990Y-92738303D01*
X125445630Y-93131629D01*
X125958900Y-93344757D01*
X126514661Y-93345242D01*
X127028303Y-93133010D01*
X127421629Y-92740370D01*
X127507949Y-92532488D01*
X127592990Y-92738303D01*
X127985630Y-93131629D01*
X128498900Y-93344757D01*
X128846138Y-93345060D01*
X126452439Y-95738759D01*
X126287692Y-95985321D01*
X126229840Y-96276160D01*
X126229840Y-103910000D01*
X126089840Y-103910000D01*
X125854523Y-103954278D01*
X125711190Y-104046511D01*
X125596650Y-103968249D01*
X125344760Y-103917240D01*
X125204760Y-103917240D01*
X125204760Y-103616760D01*
X125146908Y-103325921D01*
X124982161Y-103079359D01*
X124489401Y-102586599D01*
X124242839Y-102421852D01*
X123952000Y-102364000D01*
X122428000Y-102364000D01*
X122137161Y-102421852D01*
X121890599Y-102586599D01*
X121372439Y-103104759D01*
X121207692Y-103351321D01*
X121149840Y-103642160D01*
X121149840Y-103910000D01*
X121009840Y-103910000D01*
X120774523Y-103954278D01*
X120639263Y-104041316D01*
X120521730Y-103961009D01*
X120269840Y-103910000D01*
X118469840Y-103910000D01*
X118234523Y-103954278D01*
X118099263Y-104041316D01*
X117981730Y-103961009D01*
X117729840Y-103910000D01*
X115929840Y-103910000D01*
X115694523Y-103954278D01*
X115518000Y-104067867D01*
X115518000Y-102616000D01*
X115463954Y-102344295D01*
X115310046Y-102113954D01*
X115079705Y-101960046D01*
X114808000Y-101906000D01*
X107491000Y-101906000D01*
X107491000Y-93173516D01*
X115396606Y-93173516D01*
X115970408Y-94562224D01*
X117031968Y-95625638D01*
X118419672Y-96201863D01*
X119922256Y-96203174D01*
X121310964Y-95629372D01*
X122374378Y-94567812D01*
X122950603Y-93180108D01*
X122951914Y-91677524D01*
X122378112Y-90288816D01*
X121316552Y-89225402D01*
X119928848Y-88649177D01*
X118426264Y-88647866D01*
X117037556Y-89221668D01*
X115974142Y-90283228D01*
X115397917Y-91670932D01*
X115396606Y-93173516D01*
X107491000Y-93173516D01*
X107491000Y-86591616D01*
X107491600Y-86588600D01*
X107491600Y-86563200D01*
X107437554Y-86291495D01*
X107283646Y-86061154D01*
X107281839Y-86059947D01*
X105150116Y-83927625D01*
X105150075Y-83927598D01*
X105150046Y-83927554D01*
X105033132Y-83849435D01*
X104919797Y-83773684D01*
X104919747Y-83773674D01*
X104919705Y-83773646D01*
X104784606Y-83746773D01*
X104648100Y-83719600D01*
X104648050Y-83719610D01*
X104648000Y-83719600D01*
X98069400Y-83719600D01*
X98066651Y-83720147D01*
X98063897Y-83719621D01*
X97930902Y-83747149D01*
X97797695Y-83773646D01*
X97795363Y-83775204D01*
X97792619Y-83775772D01*
X97680333Y-83852064D01*
X97567354Y-83927554D01*
X97565796Y-83929886D01*
X97563478Y-83931461D01*
X95937878Y-85582461D01*
X95864463Y-85694200D01*
X95837397Y-85628857D01*
X95595213Y-85559392D01*
X94794605Y-86360000D01*
X95595213Y-87160608D01*
X95733800Y-87120857D01*
X95733800Y-88139143D01*
X95595213Y-88099392D01*
X94794605Y-88900000D01*
X95595213Y-89700608D01*
X95733800Y-89660857D01*
X95733800Y-90857000D01*
X91515000Y-90857000D01*
X91515000Y-89880213D01*
X93814392Y-89880213D01*
X93883857Y-90122397D01*
X94407302Y-90309144D01*
X94962368Y-90281362D01*
X95346143Y-90122397D01*
X95415608Y-89880213D01*
X94615000Y-89079605D01*
X93814392Y-89880213D01*
X91515000Y-89880213D01*
X91515000Y-88692302D01*
X93205856Y-88692302D01*
X93233638Y-89247368D01*
X93392603Y-89631143D01*
X93634787Y-89700608D01*
X94435395Y-88900000D01*
X93634787Y-88099392D01*
X93392603Y-88168857D01*
X93205856Y-88692302D01*
X91515000Y-88692302D01*
X91515000Y-87340213D01*
X93814392Y-87340213D01*
X93883857Y-87582397D01*
X94007344Y-87626453D01*
X93883857Y-87677603D01*
X93814392Y-87919787D01*
X94615000Y-88720395D01*
X95415608Y-87919787D01*
X95346143Y-87677603D01*
X95222656Y-87633547D01*
X95346143Y-87582397D01*
X95415608Y-87340213D01*
X94615000Y-86539605D01*
X93814392Y-87340213D01*
X91515000Y-87340213D01*
X91515000Y-86152302D01*
X93205856Y-86152302D01*
X93233638Y-86707368D01*
X93392603Y-87091143D01*
X93634787Y-87160608D01*
X94435395Y-86360000D01*
X93634787Y-85559392D01*
X93392603Y-85628857D01*
X93205856Y-86152302D01*
X91515000Y-86152302D01*
X91515000Y-80593000D01*
X93387618Y-80593000D01*
X93218243Y-81000900D01*
G36*
X181670249Y-35995157D02*
X181436067Y-36559130D01*
X181435535Y-37169791D01*
X181668732Y-37734171D01*
X182100157Y-38166351D01*
X182664130Y-38400533D01*
X183274791Y-38401065D01*
X183839171Y-38167868D01*
X184061468Y-37945959D01*
X187070246Y-37945959D01*
X187156652Y-38202443D01*
X187730136Y-38412258D01*
X188340260Y-38386639D01*
X188784948Y-38202443D01*
X188871354Y-37945959D01*
X187970800Y-37045405D01*
X187070246Y-37945959D01*
X184061468Y-37945959D01*
X184271351Y-37736443D01*
X184505533Y-37172470D01*
X184506009Y-36625136D01*
X186424342Y-36625136D01*
X186449961Y-37235260D01*
X186634157Y-37679948D01*
X186890641Y-37766354D01*
X187791195Y-36865800D01*
X188150405Y-36865800D01*
X189050959Y-37766354D01*
X189307443Y-37679948D01*
X189517258Y-37106464D01*
X189491639Y-36496340D01*
X189307443Y-36051652D01*
X189050959Y-35965246D01*
X188150405Y-36865800D01*
X187791195Y-36865800D01*
X186890641Y-35965246D01*
X186634157Y-36051652D01*
X186424342Y-36625136D01*
X184506009Y-36625136D01*
X184506065Y-36561809D01*
X184272868Y-35997429D01*
X183985941Y-35710000D01*
X187095728Y-35710000D01*
X187070246Y-35785641D01*
X187970800Y-36686195D01*
X188871354Y-35785641D01*
X188845872Y-35710000D01*
X193092000Y-35710000D01*
X193092000Y-43166673D01*
X192881820Y-42658000D01*
X192281759Y-42056891D01*
X191497341Y-41731172D01*
X190647985Y-41730430D01*
X189863000Y-42054780D01*
X189261891Y-42654841D01*
X188936172Y-43439259D01*
X188935430Y-44288615D01*
X189259780Y-45073600D01*
X189859841Y-45674709D01*
X190644259Y-46000428D01*
X191493615Y-46001170D01*
X192278600Y-45676820D01*
X192879709Y-45076759D01*
X193092000Y-44565506D01*
X193092000Y-73280200D01*
X184505600Y-73280200D01*
X184233895Y-73334246D01*
X184003554Y-73488154D01*
X183849646Y-73718495D01*
X183795600Y-73990200D01*
X183795600Y-101906000D01*
X179832000Y-101906000D01*
X179681956Y-101935846D01*
X181512401Y-100105401D01*
X181677148Y-99858840D01*
X181735000Y-99568000D01*
X181735000Y-96012000D01*
X181677148Y-95721161D01*
X181512401Y-95474599D01*
X179382632Y-93344830D01*
X179854661Y-93345242D01*
X180368303Y-93133010D01*
X180761629Y-92740370D01*
X180974757Y-92227100D01*
X180975242Y-91671339D01*
X180972195Y-91663963D01*
X181936479Y-90699679D01*
X182106645Y-90445006D01*
X182166400Y-90144600D01*
X182166400Y-86563200D01*
X182106645Y-86262794D01*
X181936479Y-86008121D01*
X181936476Y-86008119D01*
X179601000Y-83672642D01*
X179601000Y-80180000D01*
X180904200Y-80180000D01*
X181204607Y-80120245D01*
X181459279Y-79950079D01*
X182673079Y-78736279D01*
X182843244Y-78481607D01*
X182903000Y-78181200D01*
X182878000Y-78055520D01*
X182878000Y-68438217D01*
X183003717Y-68414562D01*
X183219841Y-68275490D01*
X183364831Y-68063290D01*
X183415840Y-67811400D01*
X183415840Y-66311400D01*
X183371562Y-66076083D01*
X183232490Y-65859959D01*
X183164394Y-65813431D01*
X183306727Y-65671098D01*
X183403400Y-65437709D01*
X183403400Y-64847150D01*
X183244650Y-64688400D01*
X182270400Y-64688400D01*
X182270400Y-64708400D01*
X182016400Y-64708400D01*
X182016400Y-64688400D01*
X181996400Y-64688400D01*
X181996400Y-64434400D01*
X182016400Y-64434400D01*
X182016400Y-63335150D01*
X182270400Y-63335150D01*
X182270400Y-64434400D01*
X183244650Y-64434400D01*
X183403400Y-64275650D01*
X183403400Y-63685091D01*
X183306727Y-63451702D01*
X183128099Y-63273073D01*
X182894710Y-63176400D01*
X182429150Y-63176400D01*
X182270400Y-63335150D01*
X182016400Y-63335150D01*
X181857650Y-63176400D01*
X181392090Y-63176400D01*
X181158701Y-63273073D01*
X180980073Y-63451702D01*
X180883400Y-63685091D01*
X180883400Y-63801303D01*
X180779050Y-63639139D01*
X180566850Y-63494149D01*
X180314960Y-63443140D01*
X180032460Y-63443140D01*
X180032460Y-62723342D01*
X180115401Y-62640401D01*
X180280148Y-62393839D01*
X180338000Y-62103000D01*
X180338000Y-60125531D01*
X180368303Y-60113010D01*
X180642129Y-59839661D01*
X189610758Y-59839661D01*
X189822990Y-60353303D01*
X190215630Y-60746629D01*
X190728900Y-60959757D01*
X191284661Y-60960242D01*
X191798303Y-60748010D01*
X192191629Y-60355370D01*
X192404757Y-59842100D01*
X192405242Y-59286339D01*
X192193010Y-58772697D01*
X191800370Y-58379371D01*
X191608273Y-58299605D01*
X191739143Y-58245397D01*
X191808608Y-58003213D01*
X191008000Y-57202605D01*
X190207392Y-58003213D01*
X190276857Y-58245397D01*
X190417318Y-58295509D01*
X190217697Y-58377990D01*
X189824371Y-58770630D01*
X189611243Y-59283900D01*
X189610758Y-59839661D01*
X180642129Y-59839661D01*
X180761629Y-59720370D01*
X180974757Y-59207100D01*
X180975242Y-58651339D01*
X180763010Y-58137697D01*
X180370370Y-57744371D01*
X180178273Y-57664605D01*
X180309143Y-57610397D01*
X180378608Y-57368213D01*
X179578000Y-56567605D01*
X179563858Y-56581748D01*
X179384253Y-56402143D01*
X179398395Y-56388000D01*
X179757605Y-56388000D01*
X180558213Y-57188608D01*
X180800397Y-57119143D01*
X180908796Y-56815302D01*
X189598856Y-56815302D01*
X189626638Y-57370368D01*
X189785603Y-57754143D01*
X190027787Y-57823608D01*
X190828395Y-57023000D01*
X191187605Y-57023000D01*
X191988213Y-57823608D01*
X192230397Y-57754143D01*
X192417144Y-57230698D01*
X192389362Y-56675632D01*
X192230397Y-56291857D01*
X191988213Y-56222392D01*
X191187605Y-57023000D01*
X190828395Y-57023000D01*
X190027787Y-56222392D01*
X189785603Y-56291857D01*
X189598856Y-56815302D01*
X180908796Y-56815302D01*
X180987144Y-56595698D01*
X180959470Y-56042787D01*
X190207392Y-56042787D01*
X191008000Y-56843395D01*
X191808608Y-56042787D01*
X191739143Y-55800603D01*
X191215698Y-55613856D01*
X190660632Y-55641638D01*
X190276857Y-55800603D01*
X190207392Y-56042787D01*
X180959470Y-56042787D01*
X180959362Y-56040632D01*
X180800397Y-55656857D01*
X180558213Y-55587392D01*
X179757605Y-56388000D01*
X179398395Y-56388000D01*
X178597787Y-55587392D01*
X178355603Y-55656857D01*
X178305491Y-55797318D01*
X178223010Y-55597697D01*
X178033432Y-55407787D01*
X178777392Y-55407787D01*
X179578000Y-56208395D01*
X180378608Y-55407787D01*
X180309143Y-55165603D01*
X179785698Y-54978856D01*
X179230632Y-55006638D01*
X178846857Y-55165603D01*
X178777392Y-55407787D01*
X178033432Y-55407787D01*
X177830370Y-55204371D01*
X177317100Y-54991243D01*
X176761339Y-54990758D01*
X176247697Y-55202990D01*
X175854371Y-55595630D01*
X175768051Y-55803512D01*
X175683010Y-55597697D01*
X175290370Y-55204371D01*
X174777100Y-54991243D01*
X174221339Y-54990758D01*
X173707697Y-55202990D01*
X173314371Y-55595630D01*
X173228051Y-55803512D01*
X173143010Y-55597697D01*
X172750370Y-55204371D01*
X172237100Y-54991243D01*
X171681339Y-54990758D01*
X171167697Y-55202990D01*
X170774371Y-55595630D01*
X170688051Y-55803512D01*
X170603010Y-55597697D01*
X170210370Y-55204371D01*
X169697100Y-54991243D01*
X169141339Y-54990758D01*
X168627697Y-55202990D01*
X168234371Y-55595630D01*
X168148051Y-55803512D01*
X168063010Y-55597697D01*
X167670370Y-55204371D01*
X167157100Y-54991243D01*
X166601339Y-54990758D01*
X166087697Y-55202990D01*
X165694371Y-55595630D01*
X165608051Y-55803512D01*
X165523010Y-55597697D01*
X165130370Y-55204371D01*
X164617100Y-54991243D01*
X164061339Y-54990758D01*
X163547697Y-55202990D01*
X163154371Y-55595630D01*
X163068051Y-55803512D01*
X162983010Y-55597697D01*
X162590370Y-55204371D01*
X162077100Y-54991243D01*
X161521339Y-54990758D01*
X161007697Y-55202990D01*
X160614371Y-55595630D01*
X160528051Y-55803512D01*
X160443010Y-55597697D01*
X160050370Y-55204371D01*
X159537100Y-54991243D01*
X158981339Y-54990758D01*
X158467697Y-55202990D01*
X158074371Y-55595630D01*
X157988051Y-55803512D01*
X157903010Y-55597697D01*
X157510370Y-55204371D01*
X156997100Y-54991243D01*
X156441339Y-54990758D01*
X155927697Y-55202990D01*
X155534371Y-55595630D01*
X155448051Y-55803512D01*
X155363010Y-55597697D01*
X154970370Y-55204371D01*
X154457100Y-54991243D01*
X153901339Y-54990758D01*
X153387697Y-55202990D01*
X152994371Y-55595630D01*
X152908051Y-55803512D01*
X152823010Y-55597697D01*
X152430370Y-55204371D01*
X151917100Y-54991243D01*
X151361339Y-54990758D01*
X150847697Y-55202990D01*
X150454371Y-55595630D01*
X150368051Y-55803512D01*
X150283010Y-55597697D01*
X149890370Y-55204371D01*
X149377100Y-54991243D01*
X148821339Y-54990758D01*
X148307697Y-55202990D01*
X147914371Y-55595630D01*
X147828051Y-55803512D01*
X147743010Y-55597697D01*
X147350370Y-55204371D01*
X146837100Y-54991243D01*
X146281339Y-54990758D01*
X145767697Y-55202990D01*
X145374371Y-55595630D01*
X145288051Y-55803512D01*
X145203010Y-55597697D01*
X144810370Y-55204371D01*
X144297100Y-54991243D01*
X143741339Y-54990758D01*
X143227697Y-55202990D01*
X142834371Y-55595630D01*
X142748051Y-55803512D01*
X142663010Y-55597697D01*
X142270370Y-55204371D01*
X141757100Y-54991243D01*
X141201339Y-54990758D01*
X140687697Y-55202990D01*
X140294371Y-55595630D01*
X140208051Y-55803512D01*
X140123010Y-55597697D01*
X139730370Y-55204371D01*
X139217100Y-54991243D01*
X138661339Y-54990758D01*
X138147697Y-55202990D01*
X137754371Y-55595630D01*
X137668051Y-55803512D01*
X137583010Y-55597697D01*
X137190370Y-55204371D01*
X136677100Y-54991243D01*
X136121339Y-54990758D01*
X135607697Y-55202990D01*
X135214371Y-55595630D01*
X135128051Y-55803512D01*
X135043010Y-55597697D01*
X134650370Y-55204371D01*
X134137100Y-54991243D01*
X133581339Y-54990758D01*
X133067697Y-55202990D01*
X132674371Y-55595630D01*
X132588051Y-55803512D01*
X132503010Y-55597697D01*
X132110370Y-55204371D01*
X131597100Y-54991243D01*
X131041339Y-54990758D01*
X130782600Y-55097666D01*
X130782600Y-52628800D01*
X130724748Y-52337961D01*
X130560001Y-52091399D01*
X130469769Y-52001167D01*
X175594838Y-52001167D01*
X175736883Y-52344943D01*
X175999673Y-52608192D01*
X176343201Y-52750838D01*
X176715167Y-52751162D01*
X177058943Y-52609117D01*
X177322192Y-52346327D01*
X177464838Y-52002799D01*
X177464886Y-51947730D01*
X177613148Y-51725840D01*
X177624296Y-51669791D01*
X181435535Y-51669791D01*
X181668732Y-52234171D01*
X182100157Y-52666351D01*
X182664130Y-52900533D01*
X183274791Y-52901065D01*
X183839171Y-52667868D01*
X184221088Y-52286618D01*
X184600157Y-52666351D01*
X185164130Y-52900533D01*
X185774791Y-52901065D01*
X186339171Y-52667868D01*
X186721088Y-52286618D01*
X187100157Y-52666351D01*
X187664130Y-52900533D01*
X188274791Y-52901065D01*
X188839171Y-52667868D01*
X189271351Y-52236443D01*
X189505533Y-51672470D01*
X189506065Y-51061809D01*
X189272868Y-50497429D01*
X188841443Y-50065249D01*
X188277470Y-49831067D01*
X187666809Y-49830535D01*
X187102429Y-50063732D01*
X186720512Y-50444982D01*
X186341443Y-50065249D01*
X185777470Y-49831067D01*
X185166809Y-49830535D01*
X184602429Y-50063732D01*
X184220512Y-50444982D01*
X183841443Y-50065249D01*
X183277470Y-49831067D01*
X182666809Y-49830535D01*
X182102429Y-50063732D01*
X181670249Y-50495157D01*
X181436067Y-51059130D01*
X181435535Y-51669791D01*
X177624296Y-51669791D01*
X177671000Y-51435000D01*
X177671000Y-44288615D01*
X177735430Y-44288615D01*
X178059780Y-45073600D01*
X178659841Y-45674709D01*
X179444259Y-46000428D01*
X180293615Y-46001170D01*
X181078600Y-45676820D01*
X181679709Y-45076759D01*
X182005428Y-44292341D01*
X182006170Y-43442985D01*
X181681820Y-42658000D01*
X181081759Y-42056891D01*
X180297341Y-41731172D01*
X179447985Y-41730430D01*
X178663000Y-42054780D01*
X178061891Y-42654841D01*
X177736172Y-43439259D01*
X177735430Y-44288615D01*
X177671000Y-44288615D01*
X177671000Y-41589802D01*
X179328001Y-39932801D01*
X179492748Y-39686239D01*
X179550600Y-39395400D01*
X179550600Y-37773463D01*
X179582792Y-37741327D01*
X179725438Y-37397799D01*
X179725762Y-37025833D01*
X179583717Y-36682057D01*
X179320927Y-36418808D01*
X178977399Y-36276162D01*
X178605433Y-36275838D01*
X178261657Y-36417883D01*
X177998408Y-36680673D01*
X177855762Y-37024201D01*
X177855438Y-37396167D01*
X177997483Y-37739943D01*
X178030600Y-37773118D01*
X178030600Y-39080598D01*
X176373599Y-40737599D01*
X176208852Y-40984161D01*
X176151000Y-41275000D01*
X176151000Y-50960928D01*
X176001057Y-51022883D01*
X175737808Y-51285673D01*
X175595162Y-51629201D01*
X175594838Y-52001167D01*
X130469769Y-52001167D01*
X129659042Y-51190440D01*
X129929000Y-51190440D01*
X130136342Y-51151426D01*
X130329000Y-51190440D01*
X131029000Y-51190440D01*
X131264317Y-51146162D01*
X131480441Y-51007090D01*
X131625431Y-50794890D01*
X131676440Y-50543000D01*
X131676440Y-50444810D01*
X131702000Y-50419250D01*
X131702000Y-49370000D01*
X131956000Y-49370000D01*
X131956000Y-50419250D01*
X132114750Y-50578000D01*
X132555309Y-50578000D01*
X132788698Y-50481327D01*
X132967327Y-50302699D01*
X133064000Y-50069310D01*
X133064000Y-49528750D01*
X132905250Y-49370000D01*
X131956000Y-49370000D01*
X131702000Y-49370000D01*
X131682000Y-49370000D01*
X131682000Y-49116000D01*
X131702000Y-49116000D01*
X131702000Y-48066750D01*
X131956000Y-48066750D01*
X131956000Y-49116000D01*
X132905250Y-49116000D01*
X133064000Y-48957250D01*
X133064000Y-48416690D01*
X132967327Y-48183301D01*
X132788698Y-48004673D01*
X132555309Y-47908000D01*
X132114750Y-47908000D01*
X131956000Y-48066750D01*
X131702000Y-48066750D01*
X131543250Y-47908000D01*
X131102691Y-47908000D01*
X130869302Y-48004673D01*
X130690673Y-48183301D01*
X130644174Y-48295560D01*
X130329000Y-48295560D01*
X130121658Y-48334574D01*
X129929000Y-48295560D01*
X129229000Y-48295560D01*
X129021658Y-48334574D01*
X128829000Y-48295560D01*
X128129000Y-48295560D01*
X127920150Y-48334858D01*
X127855309Y-48308000D01*
X127664750Y-48308000D01*
X127506000Y-48466750D01*
X127506000Y-48822312D01*
X127481560Y-48943000D01*
X127481560Y-50543000D01*
X127506000Y-50672887D01*
X127506000Y-51019250D01*
X127664750Y-51178000D01*
X127737459Y-51178000D01*
X127776852Y-51376039D01*
X127941599Y-51622601D01*
X129262600Y-52943602D01*
X129262600Y-55076574D01*
X129057100Y-54991243D01*
X128501339Y-54990758D01*
X127987697Y-55202990D01*
X127594371Y-55595630D01*
X127514605Y-55787727D01*
X127460397Y-55656857D01*
X127218213Y-55587392D01*
X126417605Y-56388000D01*
X127218213Y-57188608D01*
X127460397Y-57119143D01*
X127510509Y-56978682D01*
X127592990Y-57178303D01*
X127985630Y-57571629D01*
X128193512Y-57657949D01*
X127987697Y-57742990D01*
X127594371Y-58135630D01*
X127508051Y-58343512D01*
X127423010Y-58137697D01*
X127030370Y-57744371D01*
X126838273Y-57664605D01*
X126969143Y-57610397D01*
X127038608Y-57368213D01*
X126238000Y-56567605D01*
X126223858Y-56581748D01*
X126044253Y-56402143D01*
X126058395Y-56388000D01*
X126044253Y-56373858D01*
X126223858Y-56194253D01*
X126238000Y-56208395D01*
X127038608Y-55407787D01*
X126969143Y-55165603D01*
X126445698Y-54978856D01*
X125890632Y-55006638D01*
X125506857Y-55165603D01*
X125474000Y-55280156D01*
X125474000Y-52308602D01*
X126592162Y-51190440D01*
X126629000Y-51190440D01*
X126837850Y-51151142D01*
X126902691Y-51178000D01*
X127093250Y-51178000D01*
X127252000Y-51019250D01*
X127252000Y-50663688D01*
X127276440Y-50543000D01*
X127276440Y-48943000D01*
X127252000Y-48813113D01*
X127252000Y-48466750D01*
X127093250Y-48308000D01*
X126902691Y-48308000D01*
X126832993Y-48336870D01*
X126629000Y-48295560D01*
X125964000Y-48295560D01*
X125964000Y-46065213D01*
X135597392Y-46065213D01*
X135666857Y-46307397D01*
X136190302Y-46494144D01*
X136745368Y-46466362D01*
X137129143Y-46307397D01*
X137198608Y-46065213D01*
X136398000Y-45264605D01*
X135597392Y-46065213D01*
X125964000Y-46065213D01*
X125964000Y-44877302D01*
X134988856Y-44877302D01*
X135016638Y-45432368D01*
X135175603Y-45816143D01*
X135417787Y-45885608D01*
X136218395Y-45085000D01*
X136577605Y-45085000D01*
X137378213Y-45885608D01*
X137620397Y-45816143D01*
X137807144Y-45292698D01*
X137779362Y-44737632D01*
X137620397Y-44353857D01*
X137378213Y-44284392D01*
X136577605Y-45085000D01*
X136218395Y-45085000D01*
X135417787Y-44284392D01*
X135175603Y-44353857D01*
X134988856Y-44877302D01*
X125964000Y-44877302D01*
X125964000Y-44191463D01*
X126106038Y-43849399D01*
X126106362Y-43477433D01*
X125964317Y-43133657D01*
X125942668Y-43111970D01*
X125909486Y-42945155D01*
X125896445Y-42879593D01*
X125875202Y-42847800D01*
X132892800Y-42847800D01*
X133183639Y-42789948D01*
X133430201Y-42625201D01*
X135236524Y-40818878D01*
X135605630Y-41188629D01*
X135813512Y-41274949D01*
X135607697Y-41359990D01*
X135214371Y-41752630D01*
X135001243Y-42265900D01*
X135000758Y-42821661D01*
X135212990Y-43335303D01*
X135605630Y-43728629D01*
X135797727Y-43808395D01*
X135666857Y-43862603D01*
X135597392Y-44104787D01*
X136398000Y-44905395D01*
X137198608Y-44104787D01*
X137129143Y-43862603D01*
X136988682Y-43812491D01*
X137188303Y-43730010D01*
X137581629Y-43337370D01*
X137794757Y-42824100D01*
X137795242Y-42268339D01*
X137583010Y-41754697D01*
X137190370Y-41361371D01*
X136982488Y-41275051D01*
X137188303Y-41190010D01*
X137581629Y-40797370D01*
X137595070Y-40765000D01*
X150815198Y-40765000D01*
X151640000Y-41589802D01*
X151640000Y-46355000D01*
X151697852Y-46645839D01*
X151862599Y-46892401D01*
X153132599Y-48162401D01*
X153379160Y-48327148D01*
X153670000Y-48385000D01*
X162560000Y-48385000D01*
X162850839Y-48327148D01*
X163097401Y-48162401D01*
X163732401Y-47527401D01*
X163897148Y-47280839D01*
X163955000Y-46990000D01*
X163955000Y-46932995D01*
X164209698Y-46762811D01*
X164520767Y-46297264D01*
X164630000Y-45748113D01*
X164630000Y-45691887D01*
X164520767Y-45142736D01*
X164209698Y-44677189D01*
X163744151Y-44366120D01*
X163195000Y-44256887D01*
X162645849Y-44366120D01*
X162180302Y-44677189D01*
X161925000Y-45059275D01*
X161669698Y-44677189D01*
X161415000Y-44507005D01*
X161415000Y-41910000D01*
X161357148Y-41619161D01*
X161357148Y-41619160D01*
X161192401Y-41372599D01*
X159922401Y-40102599D01*
X159675839Y-39937852D01*
X159385000Y-39880000D01*
X155254802Y-39880000D01*
X154922242Y-39547440D01*
X156375000Y-39547440D01*
X156610317Y-39503162D01*
X156826441Y-39364090D01*
X156971431Y-39151890D01*
X157002815Y-38996911D01*
X157100302Y-39142811D01*
X157565849Y-39453880D01*
X158115000Y-39563113D01*
X158664151Y-39453880D01*
X159129698Y-39142811D01*
X159399986Y-38738297D01*
X159502611Y-38955134D01*
X159917577Y-39331041D01*
X160305961Y-39491904D01*
X160528000Y-39369915D01*
X160528000Y-38227000D01*
X160782000Y-38227000D01*
X160782000Y-39369915D01*
X161004039Y-39491904D01*
X161392423Y-39331041D01*
X161807389Y-38955134D01*
X161925000Y-38706633D01*
X162042611Y-38955134D01*
X162457577Y-39331041D01*
X162845961Y-39491904D01*
X163068000Y-39369915D01*
X163068000Y-38227000D01*
X163322000Y-38227000D01*
X163322000Y-39369915D01*
X163544039Y-39491904D01*
X163932423Y-39331041D01*
X164347389Y-38955134D01*
X164586914Y-38449041D01*
X164465629Y-38227000D01*
X163322000Y-38227000D01*
X163068000Y-38227000D01*
X160782000Y-38227000D01*
X160528000Y-38227000D01*
X160508000Y-38227000D01*
X160508000Y-37973000D01*
X160528000Y-37973000D01*
X160528000Y-36830085D01*
X160782000Y-36830085D01*
X160782000Y-37973000D01*
X163068000Y-37973000D01*
X163068000Y-36830085D01*
X163322000Y-36830085D01*
X163322000Y-37973000D01*
X164465629Y-37973000D01*
X164586914Y-37750959D01*
X164347389Y-37244866D01*
X163932423Y-36868959D01*
X163544039Y-36708096D01*
X163322000Y-36830085D01*
X163068000Y-36830085D01*
X162845961Y-36708096D01*
X162457577Y-36868959D01*
X162042611Y-37244866D01*
X161925000Y-37493367D01*
X161807389Y-37244866D01*
X161392423Y-36868959D01*
X161004039Y-36708096D01*
X160782000Y-36830085D01*
X160528000Y-36830085D01*
X160305961Y-36708096D01*
X159917577Y-36868959D01*
X159502611Y-37244866D01*
X159399986Y-37461703D01*
X159129698Y-37057189D01*
X158664151Y-36746120D01*
X158115000Y-36636887D01*
X157565849Y-36746120D01*
X157100302Y-37057189D01*
X157003899Y-37201465D01*
X156978162Y-37064683D01*
X156839090Y-36848559D01*
X156626890Y-36703569D01*
X156375000Y-36652560D01*
X154775000Y-36652560D01*
X154539683Y-36696838D01*
X154323559Y-36835910D01*
X154178569Y-37048110D01*
X154127560Y-37300000D01*
X154127560Y-38752758D01*
X152302401Y-36927599D01*
X152055839Y-36762852D01*
X151765000Y-36705000D01*
X137595531Y-36705000D01*
X137583010Y-36674697D01*
X137190370Y-36281371D01*
X136677100Y-36068243D01*
X136121339Y-36067758D01*
X135607697Y-36279990D01*
X135214371Y-36672630D01*
X135200930Y-36705000D01*
X119557800Y-36705000D01*
X119266961Y-36762852D01*
X119020399Y-36927599D01*
X118258399Y-37689599D01*
X118093652Y-37936161D01*
X118035800Y-38227000D01*
X118035800Y-44947998D01*
X117871398Y-45112400D01*
X115112800Y-45112400D01*
X114821960Y-45170252D01*
X114575399Y-45334999D01*
X112410398Y-47500000D01*
X111052531Y-47500000D01*
X111040010Y-47469697D01*
X110647370Y-47076371D01*
X110439488Y-46990051D01*
X110645303Y-46905010D01*
X111038629Y-46512370D01*
X111251757Y-45999100D01*
X111252242Y-45443339D01*
X111040010Y-44929697D01*
X110647370Y-44536371D01*
X110455273Y-44456605D01*
X110586143Y-44402397D01*
X110655608Y-44160213D01*
X109855000Y-43359605D01*
X109054392Y-44160213D01*
X109123857Y-44402397D01*
X109264318Y-44452509D01*
X109064697Y-44534990D01*
X108671371Y-44927630D01*
X108533000Y-45260865D01*
X108533000Y-43670680D01*
X108632603Y-43911143D01*
X108874787Y-43980608D01*
X109675395Y-43180000D01*
X110034605Y-43180000D01*
X110835213Y-43980608D01*
X111077397Y-43911143D01*
X111264144Y-43387698D01*
X111236362Y-42832632D01*
X111077397Y-42448857D01*
X110835213Y-42379392D01*
X110034605Y-43180000D01*
X109675395Y-43180000D01*
X108874787Y-42379392D01*
X108632603Y-42448857D01*
X108533000Y-42728041D01*
X108533000Y-41098761D01*
X108669990Y-41430303D01*
X109062630Y-41823629D01*
X109254727Y-41903395D01*
X109123857Y-41957603D01*
X109054392Y-42199787D01*
X109855000Y-43000395D01*
X110655608Y-42199787D01*
X110586143Y-41957603D01*
X110445682Y-41907491D01*
X110645303Y-41825010D01*
X111038629Y-41432370D01*
X111251757Y-40919100D01*
X111252242Y-40363339D01*
X111072674Y-39928750D01*
X115094000Y-39928750D01*
X115094000Y-40869310D01*
X115190673Y-41102699D01*
X115369302Y-41281327D01*
X115602691Y-41378000D01*
X116043250Y-41378000D01*
X116202000Y-41219250D01*
X116202000Y-39770000D01*
X116456000Y-39770000D01*
X116456000Y-41219250D01*
X116614750Y-41378000D01*
X117055309Y-41378000D01*
X117288698Y-41281327D01*
X117467327Y-41102699D01*
X117564000Y-40869310D01*
X117564000Y-39928750D01*
X117405250Y-39770000D01*
X116456000Y-39770000D01*
X116202000Y-39770000D01*
X115252750Y-39770000D01*
X115094000Y-39928750D01*
X111072674Y-39928750D01*
X111040010Y-39849697D01*
X110647370Y-39456371D01*
X110134100Y-39243243D01*
X109578339Y-39242758D01*
X109064697Y-39454990D01*
X108671371Y-39847630D01*
X108488332Y-40288439D01*
X108478954Y-40241295D01*
X108325046Y-40010954D01*
X108094705Y-39857046D01*
X107823000Y-39803000D01*
X95753394Y-39803000D01*
X95407370Y-39456371D01*
X94894100Y-39243243D01*
X94338339Y-39242758D01*
X93824697Y-39454990D01*
X93476079Y-39803000D01*
X91515000Y-39803000D01*
X91515000Y-38416690D01*
X115094000Y-38416690D01*
X115094000Y-39357250D01*
X115252750Y-39516000D01*
X116202000Y-39516000D01*
X116202000Y-38066750D01*
X116456000Y-38066750D01*
X116456000Y-39516000D01*
X117405250Y-39516000D01*
X117564000Y-39357250D01*
X117564000Y-38416690D01*
X117467327Y-38183301D01*
X117288698Y-38004673D01*
X117055309Y-37908000D01*
X116614750Y-37908000D01*
X116456000Y-38066750D01*
X116202000Y-38066750D01*
X116043250Y-37908000D01*
X115602691Y-37908000D01*
X115369302Y-38004673D01*
X115190673Y-38183301D01*
X115094000Y-38416690D01*
X91515000Y-38416690D01*
X91515000Y-35710000D01*
X181955905Y-35710000D01*
X181670249Y-35995157D01*
X181670249Y-35995157D01*
G37*
X181670249Y-35995157D02*
X181436067Y-36559130D01*
X181435535Y-37169791D01*
X181668732Y-37734171D01*
X182100157Y-38166351D01*
X182664130Y-38400533D01*
X183274791Y-38401065D01*
X183839171Y-38167868D01*
X184061468Y-37945959D01*
X187070246Y-37945959D01*
X187156652Y-38202443D01*
X187730136Y-38412258D01*
X188340260Y-38386639D01*
X188784948Y-38202443D01*
X188871354Y-37945959D01*
X187970800Y-37045405D01*
X187070246Y-37945959D01*
X184061468Y-37945959D01*
X184271351Y-37736443D01*
X184505533Y-37172470D01*
X184506009Y-36625136D01*
X186424342Y-36625136D01*
X186449961Y-37235260D01*
X186634157Y-37679948D01*
X186890641Y-37766354D01*
X187791195Y-36865800D01*
X188150405Y-36865800D01*
X189050959Y-37766354D01*
X189307443Y-37679948D01*
X189517258Y-37106464D01*
X189491639Y-36496340D01*
X189307443Y-36051652D01*
X189050959Y-35965246D01*
X188150405Y-36865800D01*
X187791195Y-36865800D01*
X186890641Y-35965246D01*
X186634157Y-36051652D01*
X186424342Y-36625136D01*
X184506009Y-36625136D01*
X184506065Y-36561809D01*
X184272868Y-35997429D01*
X183985941Y-35710000D01*
X187095728Y-35710000D01*
X187070246Y-35785641D01*
X187970800Y-36686195D01*
X188871354Y-35785641D01*
X188845872Y-35710000D01*
X193092000Y-35710000D01*
X193092000Y-43166673D01*
X192881820Y-42658000D01*
X192281759Y-42056891D01*
X191497341Y-41731172D01*
X190647985Y-41730430D01*
X189863000Y-42054780D01*
X189261891Y-42654841D01*
X188936172Y-43439259D01*
X188935430Y-44288615D01*
X189259780Y-45073600D01*
X189859841Y-45674709D01*
X190644259Y-46000428D01*
X191493615Y-46001170D01*
X192278600Y-45676820D01*
X192879709Y-45076759D01*
X193092000Y-44565506D01*
X193092000Y-73280200D01*
X184505600Y-73280200D01*
X184233895Y-73334246D01*
X184003554Y-73488154D01*
X183849646Y-73718495D01*
X183795600Y-73990200D01*
X183795600Y-101906000D01*
X179832000Y-101906000D01*
X179681956Y-101935846D01*
X181512401Y-100105401D01*
X181677148Y-99858840D01*
X181735000Y-99568000D01*
X181735000Y-96012000D01*
X181677148Y-95721161D01*
X181512401Y-95474599D01*
X179382632Y-93344830D01*
X179854661Y-93345242D01*
X180368303Y-93133010D01*
X180761629Y-92740370D01*
X180974757Y-92227100D01*
X180975242Y-91671339D01*
X180972195Y-91663963D01*
X181936479Y-90699679D01*
X182106645Y-90445006D01*
X182166400Y-90144600D01*
X182166400Y-86563200D01*
X182106645Y-86262794D01*
X181936479Y-86008121D01*
X181936476Y-86008119D01*
X179601000Y-83672642D01*
X179601000Y-80180000D01*
X180904200Y-80180000D01*
X181204607Y-80120245D01*
X181459279Y-79950079D01*
X182673079Y-78736279D01*
X182843244Y-78481607D01*
X182903000Y-78181200D01*
X182878000Y-78055520D01*
X182878000Y-68438217D01*
X183003717Y-68414562D01*
X183219841Y-68275490D01*
X183364831Y-68063290D01*
X183415840Y-67811400D01*
X183415840Y-66311400D01*
X183371562Y-66076083D01*
X183232490Y-65859959D01*
X183164394Y-65813431D01*
X183306727Y-65671098D01*
X183403400Y-65437709D01*
X183403400Y-64847150D01*
X183244650Y-64688400D01*
X182270400Y-64688400D01*
X182270400Y-64708400D01*
X182016400Y-64708400D01*
X182016400Y-64688400D01*
X181996400Y-64688400D01*
X181996400Y-64434400D01*
X182016400Y-64434400D01*
X182016400Y-63335150D01*
X182270400Y-63335150D01*
X182270400Y-64434400D01*
X183244650Y-64434400D01*
X183403400Y-64275650D01*
X183403400Y-63685091D01*
X183306727Y-63451702D01*
X183128099Y-63273073D01*
X182894710Y-63176400D01*
X182429150Y-63176400D01*
X182270400Y-63335150D01*
X182016400Y-63335150D01*
X181857650Y-63176400D01*
X181392090Y-63176400D01*
X181158701Y-63273073D01*
X180980073Y-63451702D01*
X180883400Y-63685091D01*
X180883400Y-63801303D01*
X180779050Y-63639139D01*
X180566850Y-63494149D01*
X180314960Y-63443140D01*
X180032460Y-63443140D01*
X180032460Y-62723342D01*
X180115401Y-62640401D01*
X180280148Y-62393839D01*
X180338000Y-62103000D01*
X180338000Y-60125531D01*
X180368303Y-60113010D01*
X180642129Y-59839661D01*
X189610758Y-59839661D01*
X189822990Y-60353303D01*
X190215630Y-60746629D01*
X190728900Y-60959757D01*
X191284661Y-60960242D01*
X191798303Y-60748010D01*
X192191629Y-60355370D01*
X192404757Y-59842100D01*
X192405242Y-59286339D01*
X192193010Y-58772697D01*
X191800370Y-58379371D01*
X191608273Y-58299605D01*
X191739143Y-58245397D01*
X191808608Y-58003213D01*
X191008000Y-57202605D01*
X190207392Y-58003213D01*
X190276857Y-58245397D01*
X190417318Y-58295509D01*
X190217697Y-58377990D01*
X189824371Y-58770630D01*
X189611243Y-59283900D01*
X189610758Y-59839661D01*
X180642129Y-59839661D01*
X180761629Y-59720370D01*
X180974757Y-59207100D01*
X180975242Y-58651339D01*
X180763010Y-58137697D01*
X180370370Y-57744371D01*
X180178273Y-57664605D01*
X180309143Y-57610397D01*
X180378608Y-57368213D01*
X179578000Y-56567605D01*
X179563858Y-56581748D01*
X179384253Y-56402143D01*
X179398395Y-56388000D01*
X179757605Y-56388000D01*
X180558213Y-57188608D01*
X180800397Y-57119143D01*
X180908796Y-56815302D01*
X189598856Y-56815302D01*
X189626638Y-57370368D01*
X189785603Y-57754143D01*
X190027787Y-57823608D01*
X190828395Y-57023000D01*
X191187605Y-57023000D01*
X191988213Y-57823608D01*
X192230397Y-57754143D01*
X192417144Y-57230698D01*
X192389362Y-56675632D01*
X192230397Y-56291857D01*
X191988213Y-56222392D01*
X191187605Y-57023000D01*
X190828395Y-57023000D01*
X190027787Y-56222392D01*
X189785603Y-56291857D01*
X189598856Y-56815302D01*
X180908796Y-56815302D01*
X180987144Y-56595698D01*
X180959470Y-56042787D01*
X190207392Y-56042787D01*
X191008000Y-56843395D01*
X191808608Y-56042787D01*
X191739143Y-55800603D01*
X191215698Y-55613856D01*
X190660632Y-55641638D01*
X190276857Y-55800603D01*
X190207392Y-56042787D01*
X180959470Y-56042787D01*
X180959362Y-56040632D01*
X180800397Y-55656857D01*
X180558213Y-55587392D01*
X179757605Y-56388000D01*
X179398395Y-56388000D01*
X178597787Y-55587392D01*
X178355603Y-55656857D01*
X178305491Y-55797318D01*
X178223010Y-55597697D01*
X178033432Y-55407787D01*
X178777392Y-55407787D01*
X179578000Y-56208395D01*
X180378608Y-55407787D01*
X180309143Y-55165603D01*
X179785698Y-54978856D01*
X179230632Y-55006638D01*
X178846857Y-55165603D01*
X178777392Y-55407787D01*
X178033432Y-55407787D01*
X177830370Y-55204371D01*
X177317100Y-54991243D01*
X176761339Y-54990758D01*
X176247697Y-55202990D01*
X175854371Y-55595630D01*
X175768051Y-55803512D01*
X175683010Y-55597697D01*
X175290370Y-55204371D01*
X174777100Y-54991243D01*
X174221339Y-54990758D01*
X173707697Y-55202990D01*
X173314371Y-55595630D01*
X173228051Y-55803512D01*
X173143010Y-55597697D01*
X172750370Y-55204371D01*
X172237100Y-54991243D01*
X171681339Y-54990758D01*
X171167697Y-55202990D01*
X170774371Y-55595630D01*
X170688051Y-55803512D01*
X170603010Y-55597697D01*
X170210370Y-55204371D01*
X169697100Y-54991243D01*
X169141339Y-54990758D01*
X168627697Y-55202990D01*
X168234371Y-55595630D01*
X168148051Y-55803512D01*
X168063010Y-55597697D01*
X167670370Y-55204371D01*
X167157100Y-54991243D01*
X166601339Y-54990758D01*
X166087697Y-55202990D01*
X165694371Y-55595630D01*
X165608051Y-55803512D01*
X165523010Y-55597697D01*
X165130370Y-55204371D01*
X164617100Y-54991243D01*
X164061339Y-54990758D01*
X163547697Y-55202990D01*
X163154371Y-55595630D01*
X163068051Y-55803512D01*
X162983010Y-55597697D01*
X162590370Y-55204371D01*
X162077100Y-54991243D01*
X161521339Y-54990758D01*
X161007697Y-55202990D01*
X160614371Y-55595630D01*
X160528051Y-55803512D01*
X160443010Y-55597697D01*
X160050370Y-55204371D01*
X159537100Y-54991243D01*
X158981339Y-54990758D01*
X158467697Y-55202990D01*
X158074371Y-55595630D01*
X157988051Y-55803512D01*
X157903010Y-55597697D01*
X157510370Y-55204371D01*
X156997100Y-54991243D01*
X156441339Y-54990758D01*
X155927697Y-55202990D01*
X155534371Y-55595630D01*
X155448051Y-55803512D01*
X155363010Y-55597697D01*
X154970370Y-55204371D01*
X154457100Y-54991243D01*
X153901339Y-54990758D01*
X153387697Y-55202990D01*
X152994371Y-55595630D01*
X152908051Y-55803512D01*
X152823010Y-55597697D01*
X152430370Y-55204371D01*
X151917100Y-54991243D01*
X151361339Y-54990758D01*
X150847697Y-55202990D01*
X150454371Y-55595630D01*
X150368051Y-55803512D01*
X150283010Y-55597697D01*
X149890370Y-55204371D01*
X149377100Y-54991243D01*
X148821339Y-54990758D01*
X148307697Y-55202990D01*
X147914371Y-55595630D01*
X147828051Y-55803512D01*
X147743010Y-55597697D01*
X147350370Y-55204371D01*
X146837100Y-54991243D01*
X146281339Y-54990758D01*
X145767697Y-55202990D01*
X145374371Y-55595630D01*
X145288051Y-55803512D01*
X145203010Y-55597697D01*
X144810370Y-55204371D01*
X144297100Y-54991243D01*
X143741339Y-54990758D01*
X143227697Y-55202990D01*
X142834371Y-55595630D01*
X142748051Y-55803512D01*
X142663010Y-55597697D01*
X142270370Y-55204371D01*
X141757100Y-54991243D01*
X141201339Y-54990758D01*
X140687697Y-55202990D01*
X140294371Y-55595630D01*
X140208051Y-55803512D01*
X140123010Y-55597697D01*
X139730370Y-55204371D01*
X139217100Y-54991243D01*
X138661339Y-54990758D01*
X138147697Y-55202990D01*
X137754371Y-55595630D01*
X137668051Y-55803512D01*
X137583010Y-55597697D01*
X137190370Y-55204371D01*
X136677100Y-54991243D01*
X136121339Y-54990758D01*
X135607697Y-55202990D01*
X135214371Y-55595630D01*
X135128051Y-55803512D01*
X135043010Y-55597697D01*
X134650370Y-55204371D01*
X134137100Y-54991243D01*
X133581339Y-54990758D01*
X133067697Y-55202990D01*
X132674371Y-55595630D01*
X132588051Y-55803512D01*
X132503010Y-55597697D01*
X132110370Y-55204371D01*
X131597100Y-54991243D01*
X131041339Y-54990758D01*
X130782600Y-55097666D01*
X130782600Y-52628800D01*
X130724748Y-52337961D01*
X130560001Y-52091399D01*
X130469769Y-52001167D01*
X175594838Y-52001167D01*
X175736883Y-52344943D01*
X175999673Y-52608192D01*
X176343201Y-52750838D01*
X176715167Y-52751162D01*
X177058943Y-52609117D01*
X177322192Y-52346327D01*
X177464838Y-52002799D01*
X177464886Y-51947730D01*
X177613148Y-51725840D01*
X177624296Y-51669791D01*
X181435535Y-51669791D01*
X181668732Y-52234171D01*
X182100157Y-52666351D01*
X182664130Y-52900533D01*
X183274791Y-52901065D01*
X183839171Y-52667868D01*
X184221088Y-52286618D01*
X184600157Y-52666351D01*
X185164130Y-52900533D01*
X185774791Y-52901065D01*
X186339171Y-52667868D01*
X186721088Y-52286618D01*
X187100157Y-52666351D01*
X187664130Y-52900533D01*
X188274791Y-52901065D01*
X188839171Y-52667868D01*
X189271351Y-52236443D01*
X189505533Y-51672470D01*
X189506065Y-51061809D01*
X189272868Y-50497429D01*
X188841443Y-50065249D01*
X188277470Y-49831067D01*
X187666809Y-49830535D01*
X187102429Y-50063732D01*
X186720512Y-50444982D01*
X186341443Y-50065249D01*
X185777470Y-49831067D01*
X185166809Y-49830535D01*
X184602429Y-50063732D01*
X184220512Y-50444982D01*
X183841443Y-50065249D01*
X183277470Y-49831067D01*
X182666809Y-49830535D01*
X182102429Y-50063732D01*
X181670249Y-50495157D01*
X181436067Y-51059130D01*
X181435535Y-51669791D01*
X177624296Y-51669791D01*
X177671000Y-51435000D01*
X177671000Y-44288615D01*
X177735430Y-44288615D01*
X178059780Y-45073600D01*
X178659841Y-45674709D01*
X179444259Y-46000428D01*
X180293615Y-46001170D01*
X181078600Y-45676820D01*
X181679709Y-45076759D01*
X182005428Y-44292341D01*
X182006170Y-43442985D01*
X181681820Y-42658000D01*
X181081759Y-42056891D01*
X180297341Y-41731172D01*
X179447985Y-41730430D01*
X178663000Y-42054780D01*
X178061891Y-42654841D01*
X177736172Y-43439259D01*
X177735430Y-44288615D01*
X177671000Y-44288615D01*
X177671000Y-41589802D01*
X179328001Y-39932801D01*
X179492748Y-39686239D01*
X179550600Y-39395400D01*
X179550600Y-37773463D01*
X179582792Y-37741327D01*
X179725438Y-37397799D01*
X179725762Y-37025833D01*
X179583717Y-36682057D01*
X179320927Y-36418808D01*
X178977399Y-36276162D01*
X178605433Y-36275838D01*
X178261657Y-36417883D01*
X177998408Y-36680673D01*
X177855762Y-37024201D01*
X177855438Y-37396167D01*
X177997483Y-37739943D01*
X178030600Y-37773118D01*
X178030600Y-39080598D01*
X176373599Y-40737599D01*
X176208852Y-40984161D01*
X176151000Y-41275000D01*
X176151000Y-50960928D01*
X176001057Y-51022883D01*
X175737808Y-51285673D01*
X175595162Y-51629201D01*
X175594838Y-52001167D01*
X130469769Y-52001167D01*
X129659042Y-51190440D01*
X129929000Y-51190440D01*
X130136342Y-51151426D01*
X130329000Y-51190440D01*
X131029000Y-51190440D01*
X131264317Y-51146162D01*
X131480441Y-51007090D01*
X131625431Y-50794890D01*
X131676440Y-50543000D01*
X131676440Y-50444810D01*
X131702000Y-50419250D01*
X131702000Y-49370000D01*
X131956000Y-49370000D01*
X131956000Y-50419250D01*
X132114750Y-50578000D01*
X132555309Y-50578000D01*
X132788698Y-50481327D01*
X132967327Y-50302699D01*
X133064000Y-50069310D01*
X133064000Y-49528750D01*
X132905250Y-49370000D01*
X131956000Y-49370000D01*
X131702000Y-49370000D01*
X131682000Y-49370000D01*
X131682000Y-49116000D01*
X131702000Y-49116000D01*
X131702000Y-48066750D01*
X131956000Y-48066750D01*
X131956000Y-49116000D01*
X132905250Y-49116000D01*
X133064000Y-48957250D01*
X133064000Y-48416690D01*
X132967327Y-48183301D01*
X132788698Y-48004673D01*
X132555309Y-47908000D01*
X132114750Y-47908000D01*
X131956000Y-48066750D01*
X131702000Y-48066750D01*
X131543250Y-47908000D01*
X131102691Y-47908000D01*
X130869302Y-48004673D01*
X130690673Y-48183301D01*
X130644174Y-48295560D01*
X130329000Y-48295560D01*
X130121658Y-48334574D01*
X129929000Y-48295560D01*
X129229000Y-48295560D01*
X129021658Y-48334574D01*
X128829000Y-48295560D01*
X128129000Y-48295560D01*
X127920150Y-48334858D01*
X127855309Y-48308000D01*
X127664750Y-48308000D01*
X127506000Y-48466750D01*
X127506000Y-48822312D01*
X127481560Y-48943000D01*
X127481560Y-50543000D01*
X127506000Y-50672887D01*
X127506000Y-51019250D01*
X127664750Y-51178000D01*
X127737459Y-51178000D01*
X127776852Y-51376039D01*
X127941599Y-51622601D01*
X129262600Y-52943602D01*
X129262600Y-55076574D01*
X129057100Y-54991243D01*
X128501339Y-54990758D01*
X127987697Y-55202990D01*
X127594371Y-55595630D01*
X127514605Y-55787727D01*
X127460397Y-55656857D01*
X127218213Y-55587392D01*
X126417605Y-56388000D01*
X127218213Y-57188608D01*
X127460397Y-57119143D01*
X127510509Y-56978682D01*
X127592990Y-57178303D01*
X127985630Y-57571629D01*
X128193512Y-57657949D01*
X127987697Y-57742990D01*
X127594371Y-58135630D01*
X127508051Y-58343512D01*
X127423010Y-58137697D01*
X127030370Y-57744371D01*
X126838273Y-57664605D01*
X126969143Y-57610397D01*
X127038608Y-57368213D01*
X126238000Y-56567605D01*
X126223858Y-56581748D01*
X126044253Y-56402143D01*
X126058395Y-56388000D01*
X126044253Y-56373858D01*
X126223858Y-56194253D01*
X126238000Y-56208395D01*
X127038608Y-55407787D01*
X126969143Y-55165603D01*
X126445698Y-54978856D01*
X125890632Y-55006638D01*
X125506857Y-55165603D01*
X125474000Y-55280156D01*
X125474000Y-52308602D01*
X126592162Y-51190440D01*
X126629000Y-51190440D01*
X126837850Y-51151142D01*
X126902691Y-51178000D01*
X127093250Y-51178000D01*
X127252000Y-51019250D01*
X127252000Y-50663688D01*
X127276440Y-50543000D01*
X127276440Y-48943000D01*
X127252000Y-48813113D01*
X127252000Y-48466750D01*
X127093250Y-48308000D01*
X126902691Y-48308000D01*
X126832993Y-48336870D01*
X126629000Y-48295560D01*
X125964000Y-48295560D01*
X125964000Y-46065213D01*
X135597392Y-46065213D01*
X135666857Y-46307397D01*
X136190302Y-46494144D01*
X136745368Y-46466362D01*
X137129143Y-46307397D01*
X137198608Y-46065213D01*
X136398000Y-45264605D01*
X135597392Y-46065213D01*
X125964000Y-46065213D01*
X125964000Y-44877302D01*
X134988856Y-44877302D01*
X135016638Y-45432368D01*
X135175603Y-45816143D01*
X135417787Y-45885608D01*
X136218395Y-45085000D01*
X136577605Y-45085000D01*
X137378213Y-45885608D01*
X137620397Y-45816143D01*
X137807144Y-45292698D01*
X137779362Y-44737632D01*
X137620397Y-44353857D01*
X137378213Y-44284392D01*
X136577605Y-45085000D01*
X136218395Y-45085000D01*
X135417787Y-44284392D01*
X135175603Y-44353857D01*
X134988856Y-44877302D01*
X125964000Y-44877302D01*
X125964000Y-44191463D01*
X126106038Y-43849399D01*
X126106362Y-43477433D01*
X125964317Y-43133657D01*
X125942668Y-43111970D01*
X125909486Y-42945155D01*
X125896445Y-42879593D01*
X125875202Y-42847800D01*
X132892800Y-42847800D01*
X133183639Y-42789948D01*
X133430201Y-42625201D01*
X135236524Y-40818878D01*
X135605630Y-41188629D01*
X135813512Y-41274949D01*
X135607697Y-41359990D01*
X135214371Y-41752630D01*
X135001243Y-42265900D01*
X135000758Y-42821661D01*
X135212990Y-43335303D01*
X135605630Y-43728629D01*
X135797727Y-43808395D01*
X135666857Y-43862603D01*
X135597392Y-44104787D01*
X136398000Y-44905395D01*
X137198608Y-44104787D01*
X137129143Y-43862603D01*
X136988682Y-43812491D01*
X137188303Y-43730010D01*
X137581629Y-43337370D01*
X137794757Y-42824100D01*
X137795242Y-42268339D01*
X137583010Y-41754697D01*
X137190370Y-41361371D01*
X136982488Y-41275051D01*
X137188303Y-41190010D01*
X137581629Y-40797370D01*
X137595070Y-40765000D01*
X150815198Y-40765000D01*
X151640000Y-41589802D01*
X151640000Y-46355000D01*
X151697852Y-46645839D01*
X151862599Y-46892401D01*
X153132599Y-48162401D01*
X153379160Y-48327148D01*
X153670000Y-48385000D01*
X162560000Y-48385000D01*
X162850839Y-48327148D01*
X163097401Y-48162401D01*
X163732401Y-47527401D01*
X163897148Y-47280839D01*
X163955000Y-46990000D01*
X163955000Y-46932995D01*
X164209698Y-46762811D01*
X164520767Y-46297264D01*
X164630000Y-45748113D01*
X164630000Y-45691887D01*
X164520767Y-45142736D01*
X164209698Y-44677189D01*
X163744151Y-44366120D01*
X163195000Y-44256887D01*
X162645849Y-44366120D01*
X162180302Y-44677189D01*
X161925000Y-45059275D01*
X161669698Y-44677189D01*
X161415000Y-44507005D01*
X161415000Y-41910000D01*
X161357148Y-41619161D01*
X161357148Y-41619160D01*
X161192401Y-41372599D01*
X159922401Y-40102599D01*
X159675839Y-39937852D01*
X159385000Y-39880000D01*
X155254802Y-39880000D01*
X154922242Y-39547440D01*
X156375000Y-39547440D01*
X156610317Y-39503162D01*
X156826441Y-39364090D01*
X156971431Y-39151890D01*
X157002815Y-38996911D01*
X157100302Y-39142811D01*
X157565849Y-39453880D01*
X158115000Y-39563113D01*
X158664151Y-39453880D01*
X159129698Y-39142811D01*
X159399986Y-38738297D01*
X159502611Y-38955134D01*
X159917577Y-39331041D01*
X160305961Y-39491904D01*
X160528000Y-39369915D01*
X160528000Y-38227000D01*
X160782000Y-38227000D01*
X160782000Y-39369915D01*
X161004039Y-39491904D01*
X161392423Y-39331041D01*
X161807389Y-38955134D01*
X161925000Y-38706633D01*
X162042611Y-38955134D01*
X162457577Y-39331041D01*
X162845961Y-39491904D01*
X163068000Y-39369915D01*
X163068000Y-38227000D01*
X163322000Y-38227000D01*
X163322000Y-39369915D01*
X163544039Y-39491904D01*
X163932423Y-39331041D01*
X164347389Y-38955134D01*
X164586914Y-38449041D01*
X164465629Y-38227000D01*
X163322000Y-38227000D01*
X163068000Y-38227000D01*
X160782000Y-38227000D01*
X160528000Y-38227000D01*
X160508000Y-38227000D01*
X160508000Y-37973000D01*
X160528000Y-37973000D01*
X160528000Y-36830085D01*
X160782000Y-36830085D01*
X160782000Y-37973000D01*
X163068000Y-37973000D01*
X163068000Y-36830085D01*
X163322000Y-36830085D01*
X163322000Y-37973000D01*
X164465629Y-37973000D01*
X164586914Y-37750959D01*
X164347389Y-37244866D01*
X163932423Y-36868959D01*
X163544039Y-36708096D01*
X163322000Y-36830085D01*
X163068000Y-36830085D01*
X162845961Y-36708096D01*
X162457577Y-36868959D01*
X162042611Y-37244866D01*
X161925000Y-37493367D01*
X161807389Y-37244866D01*
X161392423Y-36868959D01*
X161004039Y-36708096D01*
X160782000Y-36830085D01*
X160528000Y-36830085D01*
X160305961Y-36708096D01*
X159917577Y-36868959D01*
X159502611Y-37244866D01*
X159399986Y-37461703D01*
X159129698Y-37057189D01*
X158664151Y-36746120D01*
X158115000Y-36636887D01*
X157565849Y-36746120D01*
X157100302Y-37057189D01*
X157003899Y-37201465D01*
X156978162Y-37064683D01*
X156839090Y-36848559D01*
X156626890Y-36703569D01*
X156375000Y-36652560D01*
X154775000Y-36652560D01*
X154539683Y-36696838D01*
X154323559Y-36835910D01*
X154178569Y-37048110D01*
X154127560Y-37300000D01*
X154127560Y-38752758D01*
X152302401Y-36927599D01*
X152055839Y-36762852D01*
X151765000Y-36705000D01*
X137595531Y-36705000D01*
X137583010Y-36674697D01*
X137190370Y-36281371D01*
X136677100Y-36068243D01*
X136121339Y-36067758D01*
X135607697Y-36279990D01*
X135214371Y-36672630D01*
X135200930Y-36705000D01*
X119557800Y-36705000D01*
X119266961Y-36762852D01*
X119020399Y-36927599D01*
X118258399Y-37689599D01*
X118093652Y-37936161D01*
X118035800Y-38227000D01*
X118035800Y-44947998D01*
X117871398Y-45112400D01*
X115112800Y-45112400D01*
X114821960Y-45170252D01*
X114575399Y-45334999D01*
X112410398Y-47500000D01*
X111052531Y-47500000D01*
X111040010Y-47469697D01*
X110647370Y-47076371D01*
X110439488Y-46990051D01*
X110645303Y-46905010D01*
X111038629Y-46512370D01*
X111251757Y-45999100D01*
X111252242Y-45443339D01*
X111040010Y-44929697D01*
X110647370Y-44536371D01*
X110455273Y-44456605D01*
X110586143Y-44402397D01*
X110655608Y-44160213D01*
X109855000Y-43359605D01*
X109054392Y-44160213D01*
X109123857Y-44402397D01*
X109264318Y-44452509D01*
X109064697Y-44534990D01*
X108671371Y-44927630D01*
X108533000Y-45260865D01*
X108533000Y-43670680D01*
X108632603Y-43911143D01*
X108874787Y-43980608D01*
X109675395Y-43180000D01*
X110034605Y-43180000D01*
X110835213Y-43980608D01*
X111077397Y-43911143D01*
X111264144Y-43387698D01*
X111236362Y-42832632D01*
X111077397Y-42448857D01*
X110835213Y-42379392D01*
X110034605Y-43180000D01*
X109675395Y-43180000D01*
X108874787Y-42379392D01*
X108632603Y-42448857D01*
X108533000Y-42728041D01*
X108533000Y-41098761D01*
X108669990Y-41430303D01*
X109062630Y-41823629D01*
X109254727Y-41903395D01*
X109123857Y-41957603D01*
X109054392Y-42199787D01*
X109855000Y-43000395D01*
X110655608Y-42199787D01*
X110586143Y-41957603D01*
X110445682Y-41907491D01*
X110645303Y-41825010D01*
X111038629Y-41432370D01*
X111251757Y-40919100D01*
X111252242Y-40363339D01*
X111072674Y-39928750D01*
X115094000Y-39928750D01*
X115094000Y-40869310D01*
X115190673Y-41102699D01*
X115369302Y-41281327D01*
X115602691Y-41378000D01*
X116043250Y-41378000D01*
X116202000Y-41219250D01*
X116202000Y-39770000D01*
X116456000Y-39770000D01*
X116456000Y-41219250D01*
X116614750Y-41378000D01*
X117055309Y-41378000D01*
X117288698Y-41281327D01*
X117467327Y-41102699D01*
X117564000Y-40869310D01*
X117564000Y-39928750D01*
X117405250Y-39770000D01*
X116456000Y-39770000D01*
X116202000Y-39770000D01*
X115252750Y-39770000D01*
X115094000Y-39928750D01*
X111072674Y-39928750D01*
X111040010Y-39849697D01*
X110647370Y-39456371D01*
X110134100Y-39243243D01*
X109578339Y-39242758D01*
X109064697Y-39454990D01*
X108671371Y-39847630D01*
X108488332Y-40288439D01*
X108478954Y-40241295D01*
X108325046Y-40010954D01*
X108094705Y-39857046D01*
X107823000Y-39803000D01*
X95753394Y-39803000D01*
X95407370Y-39456371D01*
X94894100Y-39243243D01*
X94338339Y-39242758D01*
X93824697Y-39454990D01*
X93476079Y-39803000D01*
X91515000Y-39803000D01*
X91515000Y-38416690D01*
X115094000Y-38416690D01*
X115094000Y-39357250D01*
X115252750Y-39516000D01*
X116202000Y-39516000D01*
X116202000Y-38066750D01*
X116456000Y-38066750D01*
X116456000Y-39516000D01*
X117405250Y-39516000D01*
X117564000Y-39357250D01*
X117564000Y-38416690D01*
X117467327Y-38183301D01*
X117288698Y-38004673D01*
X117055309Y-37908000D01*
X116614750Y-37908000D01*
X116456000Y-38066750D01*
X116202000Y-38066750D01*
X116043250Y-37908000D01*
X115602691Y-37908000D01*
X115369302Y-38004673D01*
X115190673Y-38183301D01*
X115094000Y-38416690D01*
X91515000Y-38416690D01*
X91515000Y-35710000D01*
X181955905Y-35710000D01*
X181670249Y-35995157D01*
G36*
X127992600Y-88148002D02*
X127992600Y-88220964D01*
X127987697Y-88222990D01*
X127594371Y-88615630D01*
X127514605Y-88807727D01*
X127460397Y-88676857D01*
X127218213Y-88607392D01*
X126417605Y-89408000D01*
X126431748Y-89422143D01*
X126252143Y-89601748D01*
X126238000Y-89587605D01*
X126223858Y-89601748D01*
X126044253Y-89422143D01*
X126058395Y-89408000D01*
X125257787Y-88607392D01*
X125015603Y-88676857D01*
X124828856Y-89200302D01*
X124856638Y-89755368D01*
X124913647Y-89893000D01*
X124505758Y-89893000D01*
X123040545Y-88427787D01*
X125437392Y-88427787D01*
X126238000Y-89228395D01*
X127038608Y-88427787D01*
X126969143Y-88185603D01*
X126445698Y-87998856D01*
X125890632Y-88026638D01*
X125506857Y-88185603D01*
X125437392Y-88427787D01*
X123040545Y-88427787D01*
X119147679Y-84534921D01*
X118893007Y-84364755D01*
X118592600Y-84305000D01*
X111166260Y-84305000D01*
X111251757Y-84099100D01*
X111252242Y-83543339D01*
X111145334Y-83284600D01*
X123129198Y-83284600D01*
X127992600Y-88148002D01*
X127992600Y-88148002D01*
G37*
X127992600Y-88148002D02*
X127992600Y-88220964D01*
X127987697Y-88222990D01*
X127594371Y-88615630D01*
X127514605Y-88807727D01*
X127460397Y-88676857D01*
X127218213Y-88607392D01*
X126417605Y-89408000D01*
X126431748Y-89422143D01*
X126252143Y-89601748D01*
X126238000Y-89587605D01*
X126223858Y-89601748D01*
X126044253Y-89422143D01*
X126058395Y-89408000D01*
X125257787Y-88607392D01*
X125015603Y-88676857D01*
X124828856Y-89200302D01*
X124856638Y-89755368D01*
X124913647Y-89893000D01*
X124505758Y-89893000D01*
X123040545Y-88427787D01*
X125437392Y-88427787D01*
X126238000Y-89228395D01*
X127038608Y-88427787D01*
X126969143Y-88185603D01*
X126445698Y-87998856D01*
X125890632Y-88026638D01*
X125506857Y-88185603D01*
X125437392Y-88427787D01*
X123040545Y-88427787D01*
X119147679Y-84534921D01*
X118893007Y-84364755D01*
X118592600Y-84305000D01*
X111166260Y-84305000D01*
X111251757Y-84099100D01*
X111252242Y-83543339D01*
X111145334Y-83284600D01*
X123129198Y-83284600D01*
X127992600Y-88148002D01*
G36*
X175183800Y-80180000D02*
X178031000Y-80180000D01*
X178031000Y-83997800D01*
X178090755Y-84298207D01*
X178260921Y-84552879D01*
X180596400Y-86888357D01*
X180596400Y-88618345D01*
X180558213Y-88607392D01*
X179757605Y-89408000D01*
X179771748Y-89422143D01*
X179592143Y-89601748D01*
X179578000Y-89587605D01*
X179563858Y-89601748D01*
X179384253Y-89422143D01*
X179398395Y-89408000D01*
X178597787Y-88607392D01*
X178355603Y-88676857D01*
X178305491Y-88817318D01*
X178223010Y-88617697D01*
X178033432Y-88427787D01*
X178777392Y-88427787D01*
X179578000Y-89228395D01*
X180378608Y-88427787D01*
X180309143Y-88185603D01*
X179785698Y-87998856D01*
X179230632Y-88026638D01*
X178846857Y-88185603D01*
X178777392Y-88427787D01*
X178033432Y-88427787D01*
X177830370Y-88224371D01*
X177317100Y-88011243D01*
X176761339Y-88010758D01*
X176247697Y-88222990D01*
X175854371Y-88615630D01*
X175768051Y-88823512D01*
X175683010Y-88617697D01*
X175290370Y-88224371D01*
X174777100Y-88011243D01*
X174221339Y-88010758D01*
X173707697Y-88222990D01*
X173314371Y-88615630D01*
X173228051Y-88823512D01*
X173143010Y-88617697D01*
X172750370Y-88224371D01*
X172237100Y-88011243D01*
X171681339Y-88010758D01*
X171167697Y-88222990D01*
X170774371Y-88615630D01*
X170688051Y-88823512D01*
X170603010Y-88617697D01*
X170210370Y-88224371D01*
X169697100Y-88011243D01*
X169141339Y-88010758D01*
X168627697Y-88222990D01*
X168234371Y-88615630D01*
X168148051Y-88823512D01*
X168063010Y-88617697D01*
X167670370Y-88224371D01*
X167157100Y-88011243D01*
X166601339Y-88010758D01*
X166087697Y-88222990D01*
X165694371Y-88615630D01*
X165608051Y-88823512D01*
X165523010Y-88617697D01*
X165130370Y-88224371D01*
X164617100Y-88011243D01*
X164061339Y-88010758D01*
X163547697Y-88222990D01*
X163154371Y-88615630D01*
X163068051Y-88823512D01*
X162983010Y-88617697D01*
X162590370Y-88224371D01*
X162077100Y-88011243D01*
X161521339Y-88010758D01*
X161007697Y-88222990D01*
X160614371Y-88615630D01*
X160528051Y-88823512D01*
X160443010Y-88617697D01*
X160050370Y-88224371D01*
X159537100Y-88011243D01*
X158981339Y-88010758D01*
X158467697Y-88222990D01*
X158074371Y-88615630D01*
X157988051Y-88823512D01*
X157903010Y-88617697D01*
X157510370Y-88224371D01*
X156997100Y-88011243D01*
X156441339Y-88010758D01*
X155927697Y-88222990D01*
X155534371Y-88615630D01*
X155448051Y-88823512D01*
X155363010Y-88617697D01*
X154970370Y-88224371D01*
X154457100Y-88011243D01*
X153901339Y-88010758D01*
X153387697Y-88222990D01*
X152994371Y-88615630D01*
X152908051Y-88823512D01*
X152823010Y-88617697D01*
X152430370Y-88224371D01*
X151917100Y-88011243D01*
X151361339Y-88010758D01*
X150847697Y-88222990D01*
X150454371Y-88615630D01*
X150368051Y-88823512D01*
X150283010Y-88617697D01*
X149890370Y-88224371D01*
X149377100Y-88011243D01*
X148821339Y-88010758D01*
X148307697Y-88222990D01*
X147914371Y-88615630D01*
X147828051Y-88823512D01*
X147743010Y-88617697D01*
X147350370Y-88224371D01*
X146837100Y-88011243D01*
X146281339Y-88010758D01*
X145767697Y-88222990D01*
X145374371Y-88615630D01*
X145288051Y-88823512D01*
X145203010Y-88617697D01*
X144810370Y-88224371D01*
X144297100Y-88011243D01*
X143741339Y-88010758D01*
X143227697Y-88222990D01*
X142834371Y-88615630D01*
X142748051Y-88823512D01*
X142663010Y-88617697D01*
X142270370Y-88224371D01*
X141757100Y-88011243D01*
X141201339Y-88010758D01*
X140687697Y-88222990D01*
X140294371Y-88615630D01*
X140208051Y-88823512D01*
X140123010Y-88617697D01*
X139730370Y-88224371D01*
X139217100Y-88011243D01*
X138661339Y-88010758D01*
X138147697Y-88222990D01*
X137754371Y-88615630D01*
X137668051Y-88823512D01*
X137583010Y-88617697D01*
X137190370Y-88224371D01*
X136677100Y-88011243D01*
X136121339Y-88010758D01*
X135607697Y-88222990D01*
X135214371Y-88615630D01*
X135128051Y-88823512D01*
X135043010Y-88617697D01*
X134650370Y-88224371D01*
X134137100Y-88011243D01*
X133581339Y-88010758D01*
X133067697Y-88222990D01*
X132674371Y-88615630D01*
X132588051Y-88823512D01*
X132503010Y-88617697D01*
X132110370Y-88224371D01*
X131597100Y-88011243D01*
X131041339Y-88010758D01*
X130833000Y-88096842D01*
X130833000Y-86837558D01*
X135489808Y-82180750D01*
X170063000Y-82180750D01*
X170063000Y-82771309D01*
X170159673Y-83004698D01*
X170338301Y-83183327D01*
X170571690Y-83280000D01*
X171037250Y-83280000D01*
X171196000Y-83121250D01*
X171196000Y-82022000D01*
X171450000Y-82022000D01*
X171450000Y-83121250D01*
X171608750Y-83280000D01*
X172074310Y-83280000D01*
X172307699Y-83183327D01*
X172486327Y-83004698D01*
X172583000Y-82771309D01*
X172583000Y-82180750D01*
X172424250Y-82022000D01*
X171450000Y-82022000D01*
X171196000Y-82022000D01*
X170221750Y-82022000D01*
X170063000Y-82180750D01*
X135489808Y-82180750D01*
X137490558Y-80180000D01*
X170057146Y-80180000D01*
X170094838Y-80380317D01*
X170233910Y-80596441D01*
X170302006Y-80642969D01*
X170159673Y-80785302D01*
X170063000Y-81018691D01*
X170063000Y-81609250D01*
X170221750Y-81768000D01*
X171196000Y-81768000D01*
X171196000Y-81748000D01*
X171450000Y-81748000D01*
X171450000Y-81768000D01*
X172424250Y-81768000D01*
X172583000Y-81609250D01*
X172583000Y-81018691D01*
X172486327Y-80785302D01*
X172345090Y-80644064D01*
X172399441Y-80609090D01*
X172544431Y-80396890D01*
X172593415Y-80155000D01*
X175058118Y-80155000D01*
X175183800Y-80180000D01*
X175183800Y-80180000D01*
G37*
X175183800Y-80180000D02*
X178031000Y-80180000D01*
X178031000Y-83997800D01*
X178090755Y-84298207D01*
X178260921Y-84552879D01*
X180596400Y-86888357D01*
X180596400Y-88618345D01*
X180558213Y-88607392D01*
X179757605Y-89408000D01*
X179771748Y-89422143D01*
X179592143Y-89601748D01*
X179578000Y-89587605D01*
X179563858Y-89601748D01*
X179384253Y-89422143D01*
X179398395Y-89408000D01*
X178597787Y-88607392D01*
X178355603Y-88676857D01*
X178305491Y-88817318D01*
X178223010Y-88617697D01*
X178033432Y-88427787D01*
X178777392Y-88427787D01*
X179578000Y-89228395D01*
X180378608Y-88427787D01*
X180309143Y-88185603D01*
X179785698Y-87998856D01*
X179230632Y-88026638D01*
X178846857Y-88185603D01*
X178777392Y-88427787D01*
X178033432Y-88427787D01*
X177830370Y-88224371D01*
X177317100Y-88011243D01*
X176761339Y-88010758D01*
X176247697Y-88222990D01*
X175854371Y-88615630D01*
X175768051Y-88823512D01*
X175683010Y-88617697D01*
X175290370Y-88224371D01*
X174777100Y-88011243D01*
X174221339Y-88010758D01*
X173707697Y-88222990D01*
X173314371Y-88615630D01*
X173228051Y-88823512D01*
X173143010Y-88617697D01*
X172750370Y-88224371D01*
X172237100Y-88011243D01*
X171681339Y-88010758D01*
X171167697Y-88222990D01*
X170774371Y-88615630D01*
X170688051Y-88823512D01*
X170603010Y-88617697D01*
X170210370Y-88224371D01*
X169697100Y-88011243D01*
X169141339Y-88010758D01*
X168627697Y-88222990D01*
X168234371Y-88615630D01*
X168148051Y-88823512D01*
X168063010Y-88617697D01*
X167670370Y-88224371D01*
X167157100Y-88011243D01*
X166601339Y-88010758D01*
X166087697Y-88222990D01*
X165694371Y-88615630D01*
X165608051Y-88823512D01*
X165523010Y-88617697D01*
X165130370Y-88224371D01*
X164617100Y-88011243D01*
X164061339Y-88010758D01*
X163547697Y-88222990D01*
X163154371Y-88615630D01*
X163068051Y-88823512D01*
X162983010Y-88617697D01*
X162590370Y-88224371D01*
X162077100Y-88011243D01*
X161521339Y-88010758D01*
X161007697Y-88222990D01*
X160614371Y-88615630D01*
X160528051Y-88823512D01*
X160443010Y-88617697D01*
X160050370Y-88224371D01*
X159537100Y-88011243D01*
X158981339Y-88010758D01*
X158467697Y-88222990D01*
X158074371Y-88615630D01*
X157988051Y-88823512D01*
X157903010Y-88617697D01*
X157510370Y-88224371D01*
X156997100Y-88011243D01*
X156441339Y-88010758D01*
X155927697Y-88222990D01*
X155534371Y-88615630D01*
X155448051Y-88823512D01*
X155363010Y-88617697D01*
X154970370Y-88224371D01*
X154457100Y-88011243D01*
X153901339Y-88010758D01*
X153387697Y-88222990D01*
X152994371Y-88615630D01*
X152908051Y-88823512D01*
X152823010Y-88617697D01*
X152430370Y-88224371D01*
X151917100Y-88011243D01*
X151361339Y-88010758D01*
X150847697Y-88222990D01*
X150454371Y-88615630D01*
X150368051Y-88823512D01*
X150283010Y-88617697D01*
X149890370Y-88224371D01*
X149377100Y-88011243D01*
X148821339Y-88010758D01*
X148307697Y-88222990D01*
X147914371Y-88615630D01*
X147828051Y-88823512D01*
X147743010Y-88617697D01*
X147350370Y-88224371D01*
X146837100Y-88011243D01*
X146281339Y-88010758D01*
X145767697Y-88222990D01*
X145374371Y-88615630D01*
X145288051Y-88823512D01*
X145203010Y-88617697D01*
X144810370Y-88224371D01*
X144297100Y-88011243D01*
X143741339Y-88010758D01*
X143227697Y-88222990D01*
X142834371Y-88615630D01*
X142748051Y-88823512D01*
X142663010Y-88617697D01*
X142270370Y-88224371D01*
X141757100Y-88011243D01*
X141201339Y-88010758D01*
X140687697Y-88222990D01*
X140294371Y-88615630D01*
X140208051Y-88823512D01*
X140123010Y-88617697D01*
X139730370Y-88224371D01*
X139217100Y-88011243D01*
X138661339Y-88010758D01*
X138147697Y-88222990D01*
X137754371Y-88615630D01*
X137668051Y-88823512D01*
X137583010Y-88617697D01*
X137190370Y-88224371D01*
X136677100Y-88011243D01*
X136121339Y-88010758D01*
X135607697Y-88222990D01*
X135214371Y-88615630D01*
X135128051Y-88823512D01*
X135043010Y-88617697D01*
X134650370Y-88224371D01*
X134137100Y-88011243D01*
X133581339Y-88010758D01*
X133067697Y-88222990D01*
X132674371Y-88615630D01*
X132588051Y-88823512D01*
X132503010Y-88617697D01*
X132110370Y-88224371D01*
X131597100Y-88011243D01*
X131041339Y-88010758D01*
X130833000Y-88096842D01*
X130833000Y-86837558D01*
X135489808Y-82180750D01*
X170063000Y-82180750D01*
X170063000Y-82771309D01*
X170159673Y-83004698D01*
X170338301Y-83183327D01*
X170571690Y-83280000D01*
X171037250Y-83280000D01*
X171196000Y-83121250D01*
X171196000Y-82022000D01*
X171450000Y-82022000D01*
X171450000Y-83121250D01*
X171608750Y-83280000D01*
X172074310Y-83280000D01*
X172307699Y-83183327D01*
X172486327Y-83004698D01*
X172583000Y-82771309D01*
X172583000Y-82180750D01*
X172424250Y-82022000D01*
X171450000Y-82022000D01*
X171196000Y-82022000D01*
X170221750Y-82022000D01*
X170063000Y-82180750D01*
X135489808Y-82180750D01*
X137490558Y-80180000D01*
X170057146Y-80180000D01*
X170094838Y-80380317D01*
X170233910Y-80596441D01*
X170302006Y-80642969D01*
X170159673Y-80785302D01*
X170063000Y-81018691D01*
X170063000Y-81609250D01*
X170221750Y-81768000D01*
X171196000Y-81768000D01*
X171196000Y-81748000D01*
X171450000Y-81748000D01*
X171450000Y-81768000D01*
X172424250Y-81768000D01*
X172583000Y-81609250D01*
X172583000Y-81018691D01*
X172486327Y-80785302D01*
X172345090Y-80644064D01*
X172399441Y-80609090D01*
X172544431Y-80396890D01*
X172593415Y-80155000D01*
X175058118Y-80155000D01*
X175183800Y-80180000D01*
G36*
X107113000Y-43542483D02*
X106837370Y-43266371D01*
X106324100Y-43053243D01*
X105768339Y-43052758D01*
X105254697Y-43264990D01*
X104861371Y-43657630D01*
X104775051Y-43865512D01*
X104690010Y-43659697D01*
X104297370Y-43266371D01*
X103784100Y-43053243D01*
X103228339Y-43052758D01*
X102714697Y-43264990D01*
X102321371Y-43657630D01*
X102235051Y-43865512D01*
X102150010Y-43659697D01*
X101757370Y-43266371D01*
X101244100Y-43053243D01*
X100688339Y-43052758D01*
X100174697Y-43264990D01*
X99781371Y-43657630D01*
X99701605Y-43849727D01*
X99647397Y-43718857D01*
X99405213Y-43649392D01*
X98604605Y-44450000D01*
X99405213Y-45250608D01*
X99647397Y-45181143D01*
X99697509Y-45040682D01*
X99779990Y-45240303D01*
X100172630Y-45633629D01*
X100685900Y-45846757D01*
X101241661Y-45847242D01*
X101755303Y-45635010D01*
X102148629Y-45242370D01*
X102234949Y-45034488D01*
X102319990Y-45240303D01*
X102712630Y-45633629D01*
X103225900Y-45846757D01*
X103781661Y-45847242D01*
X104295303Y-45635010D01*
X104688629Y-45242370D01*
X104774949Y-45034488D01*
X104859990Y-45240303D01*
X105252630Y-45633629D01*
X105765900Y-45846757D01*
X106321661Y-45847242D01*
X106835303Y-45635010D01*
X107113000Y-45357797D01*
X107113000Y-77660707D01*
X105139106Y-79655600D01*
X97108567Y-79655600D01*
X97099754Y-79611295D01*
X96945846Y-79380954D01*
X96715505Y-79227046D01*
X96443800Y-79173000D01*
X95947852Y-79173000D01*
X96011757Y-79019100D01*
X96012242Y-78463339D01*
X95800010Y-77949697D01*
X95407370Y-77556371D01*
X95199488Y-77470051D01*
X95405303Y-77385010D01*
X95798629Y-76992370D01*
X96011757Y-76479100D01*
X96012242Y-75923339D01*
X95800010Y-75409697D01*
X95407370Y-75016371D01*
X95199488Y-74930051D01*
X95405303Y-74845010D01*
X95798629Y-74452370D01*
X96011757Y-73939100D01*
X96012242Y-73383339D01*
X95800010Y-72869697D01*
X95407370Y-72476371D01*
X95199488Y-72390051D01*
X95405303Y-72305010D01*
X95798629Y-71912370D01*
X96011757Y-71399100D01*
X96012242Y-70843339D01*
X95800010Y-70329697D01*
X95407370Y-69936371D01*
X95199488Y-69850051D01*
X95405303Y-69765010D01*
X95798629Y-69372370D01*
X96011757Y-68859100D01*
X96012242Y-68303339D01*
X95800010Y-67789697D01*
X95407370Y-67396371D01*
X95199488Y-67310051D01*
X95405303Y-67225010D01*
X95798629Y-66832370D01*
X96011757Y-66319100D01*
X96012242Y-65763339D01*
X95800010Y-65249697D01*
X95407370Y-64856371D01*
X95199488Y-64770051D01*
X95405303Y-64685010D01*
X95798629Y-64292370D01*
X96011757Y-63779100D01*
X96012242Y-63223339D01*
X95800010Y-62709697D01*
X95407370Y-62316371D01*
X95199488Y-62230051D01*
X95405303Y-62145010D01*
X95798629Y-61752370D01*
X96011757Y-61239100D01*
X96012242Y-60683339D01*
X95800010Y-60169697D01*
X95407370Y-59776371D01*
X95199488Y-59690051D01*
X95405303Y-59605010D01*
X95798629Y-59212370D01*
X96011757Y-58699100D01*
X96012242Y-58143339D01*
X95800010Y-57629697D01*
X95407370Y-57236371D01*
X95199488Y-57150051D01*
X95405303Y-57065010D01*
X95798629Y-56672370D01*
X96011757Y-56159100D01*
X96012242Y-55603339D01*
X95800010Y-55089697D01*
X95407370Y-54696371D01*
X95199488Y-54610051D01*
X95405303Y-54525010D01*
X95798629Y-54132370D01*
X96011757Y-53619100D01*
X96012242Y-53063339D01*
X95800010Y-52549697D01*
X95407370Y-52156371D01*
X95199488Y-52070051D01*
X95405303Y-51985010D01*
X95798629Y-51592370D01*
X96011757Y-51079100D01*
X96012242Y-50523339D01*
X95800010Y-50009697D01*
X95407370Y-49616371D01*
X95199488Y-49530051D01*
X95405303Y-49445010D01*
X95798629Y-49052370D01*
X96011757Y-48539100D01*
X96012242Y-47983339D01*
X95800010Y-47469697D01*
X95407370Y-47076371D01*
X95199488Y-46990051D01*
X95405303Y-46905010D01*
X95798629Y-46512370D01*
X96011757Y-45999100D01*
X96012242Y-45443339D01*
X96006819Y-45430213D01*
X97624392Y-45430213D01*
X97693857Y-45672397D01*
X98217302Y-45859144D01*
X98772368Y-45831362D01*
X99156143Y-45672397D01*
X99225608Y-45430213D01*
X98425000Y-44629605D01*
X97624392Y-45430213D01*
X96006819Y-45430213D01*
X95800010Y-44929697D01*
X95407370Y-44536371D01*
X95199488Y-44450051D01*
X95405303Y-44365010D01*
X95528225Y-44242302D01*
X97015856Y-44242302D01*
X97043638Y-44797368D01*
X97202603Y-45181143D01*
X97444787Y-45250608D01*
X98245395Y-44450000D01*
X97444787Y-43649392D01*
X97202603Y-43718857D01*
X97015856Y-44242302D01*
X95528225Y-44242302D01*
X95798629Y-43972370D01*
X96007319Y-43469787D01*
X97624392Y-43469787D01*
X98425000Y-44270395D01*
X99225608Y-43469787D01*
X99156143Y-43227603D01*
X98632698Y-43040856D01*
X98077632Y-43068638D01*
X97693857Y-43227603D01*
X97624392Y-43469787D01*
X96007319Y-43469787D01*
X96011757Y-43459100D01*
X96012242Y-42903339D01*
X95800010Y-42389697D01*
X95407370Y-41996371D01*
X95199488Y-41910051D01*
X95405303Y-41825010D01*
X95798629Y-41432370D01*
X95885567Y-41223000D01*
X107113000Y-41223000D01*
X107113000Y-43542483D01*
X107113000Y-43542483D01*
G37*
X107113000Y-43542483D02*
X106837370Y-43266371D01*
X106324100Y-43053243D01*
X105768339Y-43052758D01*
X105254697Y-43264990D01*
X104861371Y-43657630D01*
X104775051Y-43865512D01*
X104690010Y-43659697D01*
X104297370Y-43266371D01*
X103784100Y-43053243D01*
X103228339Y-43052758D01*
X102714697Y-43264990D01*
X102321371Y-43657630D01*
X102235051Y-43865512D01*
X102150010Y-43659697D01*
X101757370Y-43266371D01*
X101244100Y-43053243D01*
X100688339Y-43052758D01*
X100174697Y-43264990D01*
X99781371Y-43657630D01*
X99701605Y-43849727D01*
X99647397Y-43718857D01*
X99405213Y-43649392D01*
X98604605Y-44450000D01*
X99405213Y-45250608D01*
X99647397Y-45181143D01*
X99697509Y-45040682D01*
X99779990Y-45240303D01*
X100172630Y-45633629D01*
X100685900Y-45846757D01*
X101241661Y-45847242D01*
X101755303Y-45635010D01*
X102148629Y-45242370D01*
X102234949Y-45034488D01*
X102319990Y-45240303D01*
X102712630Y-45633629D01*
X103225900Y-45846757D01*
X103781661Y-45847242D01*
X104295303Y-45635010D01*
X104688629Y-45242370D01*
X104774949Y-45034488D01*
X104859990Y-45240303D01*
X105252630Y-45633629D01*
X105765900Y-45846757D01*
X106321661Y-45847242D01*
X106835303Y-45635010D01*
X107113000Y-45357797D01*
X107113000Y-77660707D01*
X105139106Y-79655600D01*
X97108567Y-79655600D01*
X97099754Y-79611295D01*
X96945846Y-79380954D01*
X96715505Y-79227046D01*
X96443800Y-79173000D01*
X95947852Y-79173000D01*
X96011757Y-79019100D01*
X96012242Y-78463339D01*
X95800010Y-77949697D01*
X95407370Y-77556371D01*
X95199488Y-77470051D01*
X95405303Y-77385010D01*
X95798629Y-76992370D01*
X96011757Y-76479100D01*
X96012242Y-75923339D01*
X95800010Y-75409697D01*
X95407370Y-75016371D01*
X95199488Y-74930051D01*
X95405303Y-74845010D01*
X95798629Y-74452370D01*
X96011757Y-73939100D01*
X96012242Y-73383339D01*
X95800010Y-72869697D01*
X95407370Y-72476371D01*
X95199488Y-72390051D01*
X95405303Y-72305010D01*
X95798629Y-71912370D01*
X96011757Y-71399100D01*
X96012242Y-70843339D01*
X95800010Y-70329697D01*
X95407370Y-69936371D01*
X95199488Y-69850051D01*
X95405303Y-69765010D01*
X95798629Y-69372370D01*
X96011757Y-68859100D01*
X96012242Y-68303339D01*
X95800010Y-67789697D01*
X95407370Y-67396371D01*
X95199488Y-67310051D01*
X95405303Y-67225010D01*
X95798629Y-66832370D01*
X96011757Y-66319100D01*
X96012242Y-65763339D01*
X95800010Y-65249697D01*
X95407370Y-64856371D01*
X95199488Y-64770051D01*
X95405303Y-64685010D01*
X95798629Y-64292370D01*
X96011757Y-63779100D01*
X96012242Y-63223339D01*
X95800010Y-62709697D01*
X95407370Y-62316371D01*
X95199488Y-62230051D01*
X95405303Y-62145010D01*
X95798629Y-61752370D01*
X96011757Y-61239100D01*
X96012242Y-60683339D01*
X95800010Y-60169697D01*
X95407370Y-59776371D01*
X95199488Y-59690051D01*
X95405303Y-59605010D01*
X95798629Y-59212370D01*
X96011757Y-58699100D01*
X96012242Y-58143339D01*
X95800010Y-57629697D01*
X95407370Y-57236371D01*
X95199488Y-57150051D01*
X95405303Y-57065010D01*
X95798629Y-56672370D01*
X96011757Y-56159100D01*
X96012242Y-55603339D01*
X95800010Y-55089697D01*
X95407370Y-54696371D01*
X95199488Y-54610051D01*
X95405303Y-54525010D01*
X95798629Y-54132370D01*
X96011757Y-53619100D01*
X96012242Y-53063339D01*
X95800010Y-52549697D01*
X95407370Y-52156371D01*
X95199488Y-52070051D01*
X95405303Y-51985010D01*
X95798629Y-51592370D01*
X96011757Y-51079100D01*
X96012242Y-50523339D01*
X95800010Y-50009697D01*
X95407370Y-49616371D01*
X95199488Y-49530051D01*
X95405303Y-49445010D01*
X95798629Y-49052370D01*
X96011757Y-48539100D01*
X96012242Y-47983339D01*
X95800010Y-47469697D01*
X95407370Y-47076371D01*
X95199488Y-46990051D01*
X95405303Y-46905010D01*
X95798629Y-46512370D01*
X96011757Y-45999100D01*
X96012242Y-45443339D01*
X96006819Y-45430213D01*
X97624392Y-45430213D01*
X97693857Y-45672397D01*
X98217302Y-45859144D01*
X98772368Y-45831362D01*
X99156143Y-45672397D01*
X99225608Y-45430213D01*
X98425000Y-44629605D01*
X97624392Y-45430213D01*
X96006819Y-45430213D01*
X95800010Y-44929697D01*
X95407370Y-44536371D01*
X95199488Y-44450051D01*
X95405303Y-44365010D01*
X95528225Y-44242302D01*
X97015856Y-44242302D01*
X97043638Y-44797368D01*
X97202603Y-45181143D01*
X97444787Y-45250608D01*
X98245395Y-44450000D01*
X97444787Y-43649392D01*
X97202603Y-43718857D01*
X97015856Y-44242302D01*
X95528225Y-44242302D01*
X95798629Y-43972370D01*
X96007319Y-43469787D01*
X97624392Y-43469787D01*
X98425000Y-44270395D01*
X99225608Y-43469787D01*
X99156143Y-43227603D01*
X98632698Y-43040856D01*
X98077632Y-43068638D01*
X97693857Y-43227603D01*
X97624392Y-43469787D01*
X96007319Y-43469787D01*
X96011757Y-43459100D01*
X96012242Y-42903339D01*
X95800010Y-42389697D01*
X95407370Y-41996371D01*
X95199488Y-41910051D01*
X95405303Y-41825010D01*
X95798629Y-41432370D01*
X95885567Y-41223000D01*
X107113000Y-41223000D01*
X107113000Y-43542483D01*
G36*
X180915238Y-68046717D02*
X181054310Y-68262841D01*
X181266510Y-68407831D01*
X181358000Y-68426358D01*
X181358000Y-77831042D01*
X180579042Y-78610000D01*
X176832460Y-78610000D01*
X176832460Y-77918020D01*
X177114960Y-77918020D01*
X177278242Y-77887296D01*
X177429960Y-77918020D01*
X177914960Y-77918020D01*
X178065361Y-77889720D01*
X178103650Y-77905580D01*
X178192460Y-77905580D01*
X178351210Y-77746830D01*
X178351210Y-77744445D01*
X178366401Y-77734670D01*
X178473318Y-77578191D01*
X178565870Y-77722021D01*
X178593710Y-77741043D01*
X178593710Y-77746830D01*
X178752460Y-77905580D01*
X178841270Y-77905580D01*
X178883057Y-77888271D01*
X179029960Y-77918020D01*
X179514960Y-77918020D01*
X179674644Y-77887973D01*
X179717150Y-77905580D01*
X179799210Y-77905580D01*
X179957960Y-77746830D01*
X179957960Y-77740102D01*
X179966401Y-77734670D01*
X180111391Y-77522470D01*
X180162400Y-77270580D01*
X180162400Y-76642580D01*
X180186960Y-76642580D01*
X180186960Y-77746830D01*
X180345710Y-77905580D01*
X180427770Y-77905580D01*
X180661159Y-77808907D01*
X180839787Y-77630278D01*
X180936460Y-77396889D01*
X180936460Y-76801330D01*
X180777710Y-76642580D01*
X180186960Y-76642580D01*
X180162400Y-76642580D01*
X180162400Y-75760580D01*
X180118122Y-75525263D01*
X180032460Y-75392140D01*
X180032460Y-75284330D01*
X180186960Y-75284330D01*
X180186960Y-76388580D01*
X180777710Y-76388580D01*
X180936460Y-76229830D01*
X180936460Y-75634271D01*
X180839787Y-75400882D01*
X180661159Y-75222253D01*
X180427770Y-75125580D01*
X180345710Y-75125580D01*
X180186960Y-75284330D01*
X180032460Y-75284330D01*
X180032460Y-73722760D01*
X179974608Y-73431921D01*
X179809861Y-73185359D01*
X179207700Y-72583198D01*
X179207700Y-72126963D01*
X179239892Y-72094827D01*
X179382538Y-71751299D01*
X179382862Y-71379333D01*
X179240817Y-71035557D01*
X178978027Y-70772308D01*
X178815055Y-70704636D01*
X178963943Y-70643117D01*
X179227192Y-70380327D01*
X179369838Y-70036799D01*
X179370162Y-69664833D01*
X179228117Y-69321057D01*
X179195000Y-69287882D01*
X179195000Y-68386802D01*
X179721707Y-67860095D01*
X179975401Y-67965438D01*
X180347367Y-67965762D01*
X180636246Y-67846400D01*
X180877546Y-67846400D01*
X180915238Y-68046717D01*
X180915238Y-68046717D01*
G37*
X180915238Y-68046717D02*
X181054310Y-68262841D01*
X181266510Y-68407831D01*
X181358000Y-68426358D01*
X181358000Y-77831042D01*
X180579042Y-78610000D01*
X176832460Y-78610000D01*
X176832460Y-77918020D01*
X177114960Y-77918020D01*
X177278242Y-77887296D01*
X177429960Y-77918020D01*
X177914960Y-77918020D01*
X178065361Y-77889720D01*
X178103650Y-77905580D01*
X178192460Y-77905580D01*
X178351210Y-77746830D01*
X178351210Y-77744445D01*
X178366401Y-77734670D01*
X178473318Y-77578191D01*
X178565870Y-77722021D01*
X178593710Y-77741043D01*
X178593710Y-77746830D01*
X178752460Y-77905580D01*
X178841270Y-77905580D01*
X178883057Y-77888271D01*
X179029960Y-77918020D01*
X179514960Y-77918020D01*
X179674644Y-77887973D01*
X179717150Y-77905580D01*
X179799210Y-77905580D01*
X179957960Y-77746830D01*
X179957960Y-77740102D01*
X179966401Y-77734670D01*
X180111391Y-77522470D01*
X180162400Y-77270580D01*
X180162400Y-76642580D01*
X180186960Y-76642580D01*
X180186960Y-77746830D01*
X180345710Y-77905580D01*
X180427770Y-77905580D01*
X180661159Y-77808907D01*
X180839787Y-77630278D01*
X180936460Y-77396889D01*
X180936460Y-76801330D01*
X180777710Y-76642580D01*
X180186960Y-76642580D01*
X180162400Y-76642580D01*
X180162400Y-75760580D01*
X180118122Y-75525263D01*
X180032460Y-75392140D01*
X180032460Y-75284330D01*
X180186960Y-75284330D01*
X180186960Y-76388580D01*
X180777710Y-76388580D01*
X180936460Y-76229830D01*
X180936460Y-75634271D01*
X180839787Y-75400882D01*
X180661159Y-75222253D01*
X180427770Y-75125580D01*
X180345710Y-75125580D01*
X180186960Y-75284330D01*
X180032460Y-75284330D01*
X180032460Y-73722760D01*
X179974608Y-73431921D01*
X179809861Y-73185359D01*
X179207700Y-72583198D01*
X179207700Y-72126963D01*
X179239892Y-72094827D01*
X179382538Y-71751299D01*
X179382862Y-71379333D01*
X179240817Y-71035557D01*
X178978027Y-70772308D01*
X178815055Y-70704636D01*
X178963943Y-70643117D01*
X179227192Y-70380327D01*
X179369838Y-70036799D01*
X179370162Y-69664833D01*
X179228117Y-69321057D01*
X179195000Y-69287882D01*
X179195000Y-68386802D01*
X179721707Y-67860095D01*
X179975401Y-67965438D01*
X180347367Y-67965762D01*
X180636246Y-67846400D01*
X180877546Y-67846400D01*
X180915238Y-68046717D01*
G36*
X124420555Y-42854193D02*
X124360800Y-43154600D01*
X124363695Y-43169152D01*
X124236362Y-43475801D01*
X124236038Y-43847767D01*
X124378083Y-44191543D01*
X124394000Y-44207488D01*
X124394000Y-47042998D01*
X123930601Y-46579599D01*
X123684039Y-46414852D01*
X123393200Y-46357000D01*
X120853200Y-46357000D01*
X120562361Y-46414852D01*
X120315799Y-46579599D01*
X119375999Y-47519399D01*
X119211252Y-47765961D01*
X119153400Y-48056800D01*
X119153400Y-57535013D01*
X118931057Y-57626883D01*
X118667808Y-57889673D01*
X118525162Y-58233201D01*
X118524838Y-58605167D01*
X118666883Y-58948943D01*
X118929673Y-59212192D01*
X119273201Y-59354838D01*
X119645167Y-59355162D01*
X119988943Y-59213117D01*
X120252192Y-58950327D01*
X120394838Y-58606799D01*
X120394879Y-58559923D01*
X120450801Y-58504001D01*
X120615548Y-58257440D01*
X120633688Y-58166243D01*
X120673400Y-57966600D01*
X120673400Y-48371602D01*
X121168002Y-47877000D01*
X123078398Y-47877000D01*
X123319000Y-48117602D01*
X123319000Y-48295560D01*
X122629000Y-48295560D01*
X122421658Y-48334574D01*
X122229000Y-48295560D01*
X121529000Y-48295560D01*
X121293683Y-48339838D01*
X121077559Y-48478910D01*
X120932569Y-48691110D01*
X120881560Y-48943000D01*
X120881560Y-50543000D01*
X120925838Y-50778317D01*
X121064910Y-50994441D01*
X121277110Y-51139431D01*
X121529000Y-51190440D01*
X121779788Y-51190440D01*
X121725852Y-51271161D01*
X121668000Y-51562000D01*
X121668000Y-65376114D01*
X121534208Y-65509673D01*
X121391562Y-65853201D01*
X121391238Y-66225167D01*
X121533283Y-66568943D01*
X121796073Y-66832192D01*
X122139601Y-66974838D01*
X122511567Y-66975162D01*
X122855343Y-66833117D01*
X123118592Y-66570327D01*
X123261238Y-66226799D01*
X123261562Y-65854833D01*
X123188000Y-65676799D01*
X123188000Y-61569000D01*
X123370873Y-61752192D01*
X123714401Y-61894838D01*
X124086367Y-61895162D01*
X124430143Y-61753117D01*
X124488762Y-61694600D01*
X129565400Y-61694600D01*
X129856239Y-61636748D01*
X130102801Y-61472001D01*
X130560001Y-61014801D01*
X130724748Y-60768240D01*
X130749508Y-60643761D01*
X130782600Y-60477400D01*
X130782600Y-60218332D01*
X131038900Y-60324757D01*
X131594661Y-60325242D01*
X132108303Y-60113010D01*
X132501629Y-59720370D01*
X132587949Y-59512488D01*
X132672990Y-59718303D01*
X133065630Y-60111629D01*
X133578900Y-60324757D01*
X134134661Y-60325242D01*
X134648303Y-60113010D01*
X135041629Y-59720370D01*
X135127949Y-59512488D01*
X135212990Y-59718303D01*
X135605630Y-60111629D01*
X136118900Y-60324757D01*
X136674661Y-60325242D01*
X137188303Y-60113010D01*
X137581629Y-59720370D01*
X137667949Y-59512488D01*
X137752990Y-59718303D01*
X138145630Y-60111629D01*
X138658900Y-60324757D01*
X139214661Y-60325242D01*
X139728303Y-60113010D01*
X140121629Y-59720370D01*
X140207949Y-59512488D01*
X140292990Y-59718303D01*
X140685630Y-60111629D01*
X141198900Y-60324757D01*
X141754661Y-60325242D01*
X141937200Y-60249819D01*
X141937200Y-62433200D01*
X141995052Y-62724039D01*
X142159799Y-62970601D01*
X154021599Y-74832401D01*
X154268160Y-74997148D01*
X154316414Y-75006746D01*
X154559000Y-75055000D01*
X158816198Y-75055000D01*
X158891719Y-75130522D01*
X158670261Y-75222253D01*
X158491633Y-75400882D01*
X158394960Y-75634271D01*
X158394960Y-76229830D01*
X158553710Y-76388580D01*
X159151210Y-76388580D01*
X159151210Y-76368580D01*
X159182520Y-76368580D01*
X159182520Y-77270580D01*
X159226798Y-77505897D01*
X159365870Y-77722021D01*
X159393710Y-77741043D01*
X159393710Y-77746830D01*
X159552460Y-77905580D01*
X159641270Y-77905580D01*
X159683057Y-77888271D01*
X159829960Y-77918020D01*
X160314960Y-77918020D01*
X160478242Y-77887296D01*
X160629960Y-77918020D01*
X161114960Y-77918020D01*
X161278242Y-77887296D01*
X161429960Y-77918020D01*
X161914960Y-77918020D01*
X162078242Y-77887296D01*
X162229960Y-77918020D01*
X162714960Y-77918020D01*
X162878242Y-77887296D01*
X163029960Y-77918020D01*
X163514960Y-77918020D01*
X163678242Y-77887296D01*
X163829960Y-77918020D01*
X164314960Y-77918020D01*
X164478242Y-77887296D01*
X164629960Y-77918020D01*
X165114960Y-77918020D01*
X165278242Y-77887296D01*
X165429960Y-77918020D01*
X165914960Y-77918020D01*
X166078242Y-77887296D01*
X166229960Y-77918020D01*
X166714960Y-77918020D01*
X166878242Y-77887296D01*
X167029960Y-77918020D01*
X167514960Y-77918020D01*
X167678242Y-77887296D01*
X167829960Y-77918020D01*
X168314960Y-77918020D01*
X168478242Y-77887296D01*
X168629960Y-77918020D01*
X169114960Y-77918020D01*
X169265361Y-77889720D01*
X169303650Y-77905580D01*
X169392460Y-77905580D01*
X169551210Y-77746830D01*
X169551210Y-77744445D01*
X169566401Y-77734670D01*
X169673318Y-77578191D01*
X169765870Y-77722021D01*
X169793710Y-77741043D01*
X169793710Y-77746830D01*
X169952460Y-77905580D01*
X170041270Y-77905580D01*
X170083057Y-77888271D01*
X170229960Y-77918020D01*
X170563000Y-77918020D01*
X170563000Y-78022962D01*
X170462683Y-78041838D01*
X170246559Y-78180910D01*
X170101569Y-78393110D01*
X170057648Y-78610000D01*
X148554158Y-78610000D01*
X145106479Y-75162321D01*
X144851807Y-74992155D01*
X144551400Y-74932400D01*
X127396558Y-74932400D01*
X129180679Y-73148279D01*
X129350845Y-72893606D01*
X129390669Y-72693403D01*
X129417792Y-72666327D01*
X129560438Y-72322799D01*
X129560762Y-71950833D01*
X129418717Y-71607057D01*
X129155927Y-71343808D01*
X128812399Y-71201162D01*
X128440433Y-71200838D01*
X128096657Y-71342883D01*
X127833408Y-71605673D01*
X127690762Y-71949201D01*
X127690438Y-72321167D01*
X127718810Y-72389832D01*
X125327321Y-74781321D01*
X125226373Y-74932400D01*
X120343076Y-74932400D01*
X120445317Y-74913162D01*
X120661441Y-74774090D01*
X120806431Y-74561890D01*
X120857440Y-74310000D01*
X120857440Y-73660000D01*
X121820800Y-73660000D01*
X121880555Y-73960407D01*
X122050721Y-74215079D01*
X122126921Y-74291279D01*
X122381593Y-74461445D01*
X122682000Y-74521200D01*
X122982406Y-74461445D01*
X123237079Y-74291279D01*
X123407245Y-74036606D01*
X123467000Y-73736200D01*
X123407245Y-73435793D01*
X123237079Y-73181121D01*
X123160879Y-73104921D01*
X122906207Y-72934755D01*
X122605800Y-72875000D01*
X122305393Y-72934755D01*
X122050721Y-73104921D01*
X121880555Y-73359593D01*
X121820800Y-73660000D01*
X120857440Y-73660000D01*
X120857440Y-73010000D01*
X120813162Y-72774683D01*
X120674090Y-72558559D01*
X120461890Y-72413569D01*
X120350477Y-72391007D01*
X120445317Y-72373162D01*
X120661441Y-72234090D01*
X120806431Y-72021890D01*
X120830102Y-71905000D01*
X122173306Y-71905000D01*
X122301000Y-71930400D01*
X122601407Y-71870645D01*
X122856079Y-71700479D01*
X123026245Y-71445807D01*
X123086000Y-71145400D01*
X123026245Y-70844993D01*
X122856079Y-70590321D01*
X122830679Y-70564921D01*
X122576007Y-70394755D01*
X122275600Y-70335000D01*
X120832038Y-70335000D01*
X120813162Y-70234683D01*
X120674090Y-70018559D01*
X120461890Y-69873569D01*
X120210000Y-69822560D01*
X118882042Y-69822560D01*
X119110602Y-69594000D01*
X142052198Y-69594000D01*
X149788478Y-77330280D01*
X149788438Y-77375767D01*
X149930483Y-77719543D01*
X150193273Y-77982792D01*
X150536801Y-78125438D01*
X150908767Y-78125762D01*
X151252543Y-77983717D01*
X151515792Y-77720927D01*
X151658438Y-77377399D01*
X151658762Y-77005433D01*
X151574429Y-76801330D01*
X158394960Y-76801330D01*
X158394960Y-77396889D01*
X158491633Y-77630278D01*
X158670261Y-77808907D01*
X158903650Y-77905580D01*
X158992460Y-77905580D01*
X159151210Y-77746830D01*
X159151210Y-76642580D01*
X158553710Y-76642580D01*
X158394960Y-76801330D01*
X151574429Y-76801330D01*
X151516717Y-76661657D01*
X151253927Y-76398408D01*
X150910399Y-76255762D01*
X150863523Y-76255721D01*
X142904401Y-68296599D01*
X142657839Y-68131852D01*
X142367000Y-68074000D01*
X118795800Y-68074000D01*
X118504961Y-68131852D01*
X118258399Y-68296599D01*
X116732438Y-69822560D01*
X116010000Y-69822560D01*
X115774683Y-69866838D01*
X115558559Y-70005910D01*
X115413569Y-70218110D01*
X115384836Y-70360000D01*
X111052531Y-70360000D01*
X111040010Y-70329697D01*
X110647370Y-69936371D01*
X110439488Y-69850051D01*
X110645303Y-69765010D01*
X111038629Y-69372370D01*
X111251757Y-68859100D01*
X111252242Y-68303339D01*
X111040010Y-67789697D01*
X110647370Y-67396371D01*
X110439488Y-67310051D01*
X110645303Y-67225010D01*
X111038629Y-66832370D01*
X111052070Y-66800000D01*
X116197537Y-66800000D01*
X116229673Y-66832192D01*
X116573201Y-66974838D01*
X116945167Y-66975162D01*
X117288943Y-66833117D01*
X117552192Y-66570327D01*
X117694838Y-66226799D01*
X117695162Y-65854833D01*
X117553117Y-65511057D01*
X117290327Y-65247808D01*
X116946799Y-65105162D01*
X116574833Y-65104838D01*
X116231057Y-65246883D01*
X116197882Y-65280000D01*
X111052531Y-65280000D01*
X111040010Y-65249697D01*
X110647370Y-64856371D01*
X110439488Y-64770051D01*
X110645303Y-64685010D01*
X111038629Y-64292370D01*
X111052070Y-64260000D01*
X115972892Y-64260000D01*
X116093773Y-64381092D01*
X116437301Y-64523738D01*
X116809267Y-64524062D01*
X117153043Y-64382017D01*
X117416292Y-64119227D01*
X117558938Y-63775699D01*
X117559262Y-63403733D01*
X117417217Y-63059957D01*
X117154427Y-62796708D01*
X116810899Y-62654062D01*
X116438933Y-62653738D01*
X116230163Y-62740000D01*
X111052531Y-62740000D01*
X111040010Y-62709697D01*
X110647370Y-62316371D01*
X110439488Y-62230051D01*
X110645303Y-62145010D01*
X111038629Y-61752370D01*
X111052070Y-61720000D01*
X116201293Y-61720000D01*
X116208073Y-61726792D01*
X116551601Y-61869438D01*
X116923567Y-61869762D01*
X117267343Y-61727717D01*
X117530592Y-61464927D01*
X117673238Y-61121399D01*
X117673562Y-60749433D01*
X117531517Y-60405657D01*
X117268727Y-60142408D01*
X116925199Y-59999762D01*
X116553233Y-59999438D01*
X116209457Y-60141483D01*
X116150838Y-60200000D01*
X111052531Y-60200000D01*
X111040010Y-60169697D01*
X110647370Y-59776371D01*
X110439488Y-59690051D01*
X110645303Y-59605010D01*
X111038629Y-59212370D01*
X111052070Y-59180000D01*
X116315637Y-59180000D01*
X116347773Y-59212192D01*
X116691301Y-59354838D01*
X117063267Y-59355162D01*
X117407043Y-59213117D01*
X117670292Y-58950327D01*
X117812938Y-58606799D01*
X117813262Y-58234833D01*
X117671217Y-57891057D01*
X117408427Y-57627808D01*
X117064899Y-57485162D01*
X116692933Y-57484838D01*
X116349157Y-57626883D01*
X116315982Y-57660000D01*
X111052531Y-57660000D01*
X111040010Y-57629697D01*
X110647370Y-57236371D01*
X110439488Y-57150051D01*
X110645303Y-57065010D01*
X111038629Y-56672370D01*
X111052070Y-56640000D01*
X114397937Y-56640000D01*
X114430073Y-56672192D01*
X114773601Y-56814838D01*
X115145567Y-56815162D01*
X115489343Y-56673117D01*
X115752592Y-56410327D01*
X115895238Y-56066799D01*
X115895562Y-55694833D01*
X115753517Y-55351057D01*
X115490727Y-55087808D01*
X115147199Y-54945162D01*
X114775233Y-54944838D01*
X114431457Y-55086883D01*
X114398282Y-55120000D01*
X111052531Y-55120000D01*
X111040010Y-55089697D01*
X110647370Y-54696371D01*
X110439488Y-54610051D01*
X110645303Y-54525010D01*
X111038629Y-54132370D01*
X111052070Y-54100000D01*
X114334393Y-54100000D01*
X114341173Y-54106792D01*
X114684701Y-54249438D01*
X115056667Y-54249762D01*
X115400443Y-54107717D01*
X115663692Y-53844927D01*
X115806338Y-53501399D01*
X115806662Y-53129433D01*
X115664617Y-52785657D01*
X115401827Y-52522408D01*
X115058299Y-52379762D01*
X114686333Y-52379438D01*
X114342557Y-52521483D01*
X114283938Y-52580000D01*
X111052531Y-52580000D01*
X111040010Y-52549697D01*
X110647370Y-52156371D01*
X110439488Y-52070051D01*
X110645303Y-51985010D01*
X111038629Y-51592370D01*
X111052070Y-51560000D01*
X113258600Y-51560000D01*
X113549439Y-51502148D01*
X113796001Y-51337401D01*
X115548601Y-49584801D01*
X115586052Y-49528750D01*
X115794000Y-49528750D01*
X115794000Y-50069310D01*
X115890673Y-50302699D01*
X116069302Y-50481327D01*
X116302691Y-50578000D01*
X116943250Y-50578000D01*
X117102000Y-50419250D01*
X117102000Y-49370000D01*
X117356000Y-49370000D01*
X117356000Y-50419250D01*
X117514750Y-50578000D01*
X118155309Y-50578000D01*
X118388698Y-50481327D01*
X118567327Y-50302699D01*
X118664000Y-50069310D01*
X118664000Y-49528750D01*
X118505250Y-49370000D01*
X117356000Y-49370000D01*
X117102000Y-49370000D01*
X115952750Y-49370000D01*
X115794000Y-49528750D01*
X115586052Y-49528750D01*
X115713348Y-49338239D01*
X115771200Y-49047400D01*
X115771200Y-48346202D01*
X115859965Y-48257437D01*
X115794000Y-48416690D01*
X115794000Y-48957250D01*
X115952750Y-49116000D01*
X117102000Y-49116000D01*
X117102000Y-48066750D01*
X117356000Y-48066750D01*
X117356000Y-49116000D01*
X118505250Y-49116000D01*
X118664000Y-48957250D01*
X118664000Y-48416690D01*
X118567327Y-48183301D01*
X118388698Y-48004673D01*
X118155309Y-47908000D01*
X117514750Y-47908000D01*
X117356000Y-48066750D01*
X117102000Y-48066750D01*
X116943250Y-47908000D01*
X116302691Y-47908000D01*
X116143437Y-47973965D01*
X116596002Y-47521400D01*
X118922800Y-47521400D01*
X119213639Y-47463548D01*
X119460201Y-47298801D01*
X120908001Y-45851001D01*
X121072748Y-45604440D01*
X121130600Y-45313600D01*
X121130600Y-43215402D01*
X121498202Y-42847800D01*
X124424827Y-42847800D01*
X124420555Y-42854193D01*
X124420555Y-42854193D01*
G37*
X124420555Y-42854193D02*
X124360800Y-43154600D01*
X124363695Y-43169152D01*
X124236362Y-43475801D01*
X124236038Y-43847767D01*
X124378083Y-44191543D01*
X124394000Y-44207488D01*
X124394000Y-47042998D01*
X123930601Y-46579599D01*
X123684039Y-46414852D01*
X123393200Y-46357000D01*
X120853200Y-46357000D01*
X120562361Y-46414852D01*
X120315799Y-46579599D01*
X119375999Y-47519399D01*
X119211252Y-47765961D01*
X119153400Y-48056800D01*
X119153400Y-57535013D01*
X118931057Y-57626883D01*
X118667808Y-57889673D01*
X118525162Y-58233201D01*
X118524838Y-58605167D01*
X118666883Y-58948943D01*
X118929673Y-59212192D01*
X119273201Y-59354838D01*
X119645167Y-59355162D01*
X119988943Y-59213117D01*
X120252192Y-58950327D01*
X120394838Y-58606799D01*
X120394879Y-58559923D01*
X120450801Y-58504001D01*
X120615548Y-58257440D01*
X120633688Y-58166243D01*
X120673400Y-57966600D01*
X120673400Y-48371602D01*
X121168002Y-47877000D01*
X123078398Y-47877000D01*
X123319000Y-48117602D01*
X123319000Y-48295560D01*
X122629000Y-48295560D01*
X122421658Y-48334574D01*
X122229000Y-48295560D01*
X121529000Y-48295560D01*
X121293683Y-48339838D01*
X121077559Y-48478910D01*
X120932569Y-48691110D01*
X120881560Y-48943000D01*
X120881560Y-50543000D01*
X120925838Y-50778317D01*
X121064910Y-50994441D01*
X121277110Y-51139431D01*
X121529000Y-51190440D01*
X121779788Y-51190440D01*
X121725852Y-51271161D01*
X121668000Y-51562000D01*
X121668000Y-65376114D01*
X121534208Y-65509673D01*
X121391562Y-65853201D01*
X121391238Y-66225167D01*
X121533283Y-66568943D01*
X121796073Y-66832192D01*
X122139601Y-66974838D01*
X122511567Y-66975162D01*
X122855343Y-66833117D01*
X123118592Y-66570327D01*
X123261238Y-66226799D01*
X123261562Y-65854833D01*
X123188000Y-65676799D01*
X123188000Y-61569000D01*
X123370873Y-61752192D01*
X123714401Y-61894838D01*
X124086367Y-61895162D01*
X124430143Y-61753117D01*
X124488762Y-61694600D01*
X129565400Y-61694600D01*
X129856239Y-61636748D01*
X130102801Y-61472001D01*
X130560001Y-61014801D01*
X130724748Y-60768240D01*
X130749508Y-60643761D01*
X130782600Y-60477400D01*
X130782600Y-60218332D01*
X131038900Y-60324757D01*
X131594661Y-60325242D01*
X132108303Y-60113010D01*
X132501629Y-59720370D01*
X132587949Y-59512488D01*
X132672990Y-59718303D01*
X133065630Y-60111629D01*
X133578900Y-60324757D01*
X134134661Y-60325242D01*
X134648303Y-60113010D01*
X135041629Y-59720370D01*
X135127949Y-59512488D01*
X135212990Y-59718303D01*
X135605630Y-60111629D01*
X136118900Y-60324757D01*
X136674661Y-60325242D01*
X137188303Y-60113010D01*
X137581629Y-59720370D01*
X137667949Y-59512488D01*
X137752990Y-59718303D01*
X138145630Y-60111629D01*
X138658900Y-60324757D01*
X139214661Y-60325242D01*
X139728303Y-60113010D01*
X140121629Y-59720370D01*
X140207949Y-59512488D01*
X140292990Y-59718303D01*
X140685630Y-60111629D01*
X141198900Y-60324757D01*
X141754661Y-60325242D01*
X141937200Y-60249819D01*
X141937200Y-62433200D01*
X141995052Y-62724039D01*
X142159799Y-62970601D01*
X154021599Y-74832401D01*
X154268160Y-74997148D01*
X154316414Y-75006746D01*
X154559000Y-75055000D01*
X158816198Y-75055000D01*
X158891719Y-75130522D01*
X158670261Y-75222253D01*
X158491633Y-75400882D01*
X158394960Y-75634271D01*
X158394960Y-76229830D01*
X158553710Y-76388580D01*
X159151210Y-76388580D01*
X159151210Y-76368580D01*
X159182520Y-76368580D01*
X159182520Y-77270580D01*
X159226798Y-77505897D01*
X159365870Y-77722021D01*
X159393710Y-77741043D01*
X159393710Y-77746830D01*
X159552460Y-77905580D01*
X159641270Y-77905580D01*
X159683057Y-77888271D01*
X159829960Y-77918020D01*
X160314960Y-77918020D01*
X160478242Y-77887296D01*
X160629960Y-77918020D01*
X161114960Y-77918020D01*
X161278242Y-77887296D01*
X161429960Y-77918020D01*
X161914960Y-77918020D01*
X162078242Y-77887296D01*
X162229960Y-77918020D01*
X162714960Y-77918020D01*
X162878242Y-77887296D01*
X163029960Y-77918020D01*
X163514960Y-77918020D01*
X163678242Y-77887296D01*
X163829960Y-77918020D01*
X164314960Y-77918020D01*
X164478242Y-77887296D01*
X164629960Y-77918020D01*
X165114960Y-77918020D01*
X165278242Y-77887296D01*
X165429960Y-77918020D01*
X165914960Y-77918020D01*
X166078242Y-77887296D01*
X166229960Y-77918020D01*
X166714960Y-77918020D01*
X166878242Y-77887296D01*
X167029960Y-77918020D01*
X167514960Y-77918020D01*
X167678242Y-77887296D01*
X167829960Y-77918020D01*
X168314960Y-77918020D01*
X168478242Y-77887296D01*
X168629960Y-77918020D01*
X169114960Y-77918020D01*
X169265361Y-77889720D01*
X169303650Y-77905580D01*
X169392460Y-77905580D01*
X169551210Y-77746830D01*
X169551210Y-77744445D01*
X169566401Y-77734670D01*
X169673318Y-77578191D01*
X169765870Y-77722021D01*
X169793710Y-77741043D01*
X169793710Y-77746830D01*
X169952460Y-77905580D01*
X170041270Y-77905580D01*
X170083057Y-77888271D01*
X170229960Y-77918020D01*
X170563000Y-77918020D01*
X170563000Y-78022962D01*
X170462683Y-78041838D01*
X170246559Y-78180910D01*
X170101569Y-78393110D01*
X170057648Y-78610000D01*
X148554158Y-78610000D01*
X145106479Y-75162321D01*
X144851807Y-74992155D01*
X144551400Y-74932400D01*
X127396558Y-74932400D01*
X129180679Y-73148279D01*
X129350845Y-72893606D01*
X129390669Y-72693403D01*
X129417792Y-72666327D01*
X129560438Y-72322799D01*
X129560762Y-71950833D01*
X129418717Y-71607057D01*
X129155927Y-71343808D01*
X128812399Y-71201162D01*
X128440433Y-71200838D01*
X128096657Y-71342883D01*
X127833408Y-71605673D01*
X127690762Y-71949201D01*
X127690438Y-72321167D01*
X127718810Y-72389832D01*
X125327321Y-74781321D01*
X125226373Y-74932400D01*
X120343076Y-74932400D01*
X120445317Y-74913162D01*
X120661441Y-74774090D01*
X120806431Y-74561890D01*
X120857440Y-74310000D01*
X120857440Y-73660000D01*
X121820800Y-73660000D01*
X121880555Y-73960407D01*
X122050721Y-74215079D01*
X122126921Y-74291279D01*
X122381593Y-74461445D01*
X122682000Y-74521200D01*
X122982406Y-74461445D01*
X123237079Y-74291279D01*
X123407245Y-74036606D01*
X123467000Y-73736200D01*
X123407245Y-73435793D01*
X123237079Y-73181121D01*
X123160879Y-73104921D01*
X122906207Y-72934755D01*
X122605800Y-72875000D01*
X122305393Y-72934755D01*
X122050721Y-73104921D01*
X121880555Y-73359593D01*
X121820800Y-73660000D01*
X120857440Y-73660000D01*
X120857440Y-73010000D01*
X120813162Y-72774683D01*
X120674090Y-72558559D01*
X120461890Y-72413569D01*
X120350477Y-72391007D01*
X120445317Y-72373162D01*
X120661441Y-72234090D01*
X120806431Y-72021890D01*
X120830102Y-71905000D01*
X122173306Y-71905000D01*
X122301000Y-71930400D01*
X122601407Y-71870645D01*
X122856079Y-71700479D01*
X123026245Y-71445807D01*
X123086000Y-71145400D01*
X123026245Y-70844993D01*
X122856079Y-70590321D01*
X122830679Y-70564921D01*
X122576007Y-70394755D01*
X122275600Y-70335000D01*
X120832038Y-70335000D01*
X120813162Y-70234683D01*
X120674090Y-70018559D01*
X120461890Y-69873569D01*
X120210000Y-69822560D01*
X118882042Y-69822560D01*
X119110602Y-69594000D01*
X142052198Y-69594000D01*
X149788478Y-77330280D01*
X149788438Y-77375767D01*
X149930483Y-77719543D01*
X150193273Y-77982792D01*
X150536801Y-78125438D01*
X150908767Y-78125762D01*
X151252543Y-77983717D01*
X151515792Y-77720927D01*
X151658438Y-77377399D01*
X151658762Y-77005433D01*
X151574429Y-76801330D01*
X158394960Y-76801330D01*
X158394960Y-77396889D01*
X158491633Y-77630278D01*
X158670261Y-77808907D01*
X158903650Y-77905580D01*
X158992460Y-77905580D01*
X159151210Y-77746830D01*
X159151210Y-76642580D01*
X158553710Y-76642580D01*
X158394960Y-76801330D01*
X151574429Y-76801330D01*
X151516717Y-76661657D01*
X151253927Y-76398408D01*
X150910399Y-76255762D01*
X150863523Y-76255721D01*
X142904401Y-68296599D01*
X142657839Y-68131852D01*
X142367000Y-68074000D01*
X118795800Y-68074000D01*
X118504961Y-68131852D01*
X118258399Y-68296599D01*
X116732438Y-69822560D01*
X116010000Y-69822560D01*
X115774683Y-69866838D01*
X115558559Y-70005910D01*
X115413569Y-70218110D01*
X115384836Y-70360000D01*
X111052531Y-70360000D01*
X111040010Y-70329697D01*
X110647370Y-69936371D01*
X110439488Y-69850051D01*
X110645303Y-69765010D01*
X111038629Y-69372370D01*
X111251757Y-68859100D01*
X111252242Y-68303339D01*
X111040010Y-67789697D01*
X110647370Y-67396371D01*
X110439488Y-67310051D01*
X110645303Y-67225010D01*
X111038629Y-66832370D01*
X111052070Y-66800000D01*
X116197537Y-66800000D01*
X116229673Y-66832192D01*
X116573201Y-66974838D01*
X116945167Y-66975162D01*
X117288943Y-66833117D01*
X117552192Y-66570327D01*
X117694838Y-66226799D01*
X117695162Y-65854833D01*
X117553117Y-65511057D01*
X117290327Y-65247808D01*
X116946799Y-65105162D01*
X116574833Y-65104838D01*
X116231057Y-65246883D01*
X116197882Y-65280000D01*
X111052531Y-65280000D01*
X111040010Y-65249697D01*
X110647370Y-64856371D01*
X110439488Y-64770051D01*
X110645303Y-64685010D01*
X111038629Y-64292370D01*
X111052070Y-64260000D01*
X115972892Y-64260000D01*
X116093773Y-64381092D01*
X116437301Y-64523738D01*
X116809267Y-64524062D01*
X117153043Y-64382017D01*
X117416292Y-64119227D01*
X117558938Y-63775699D01*
X117559262Y-63403733D01*
X117417217Y-63059957D01*
X117154427Y-62796708D01*
X116810899Y-62654062D01*
X116438933Y-62653738D01*
X116230163Y-62740000D01*
X111052531Y-62740000D01*
X111040010Y-62709697D01*
X110647370Y-62316371D01*
X110439488Y-62230051D01*
X110645303Y-62145010D01*
X111038629Y-61752370D01*
X111052070Y-61720000D01*
X116201293Y-61720000D01*
X116208073Y-61726792D01*
X116551601Y-61869438D01*
X116923567Y-61869762D01*
X117267343Y-61727717D01*
X117530592Y-61464927D01*
X117673238Y-61121399D01*
X117673562Y-60749433D01*
X117531517Y-60405657D01*
X117268727Y-60142408D01*
X116925199Y-59999762D01*
X116553233Y-59999438D01*
X116209457Y-60141483D01*
X116150838Y-60200000D01*
X111052531Y-60200000D01*
X111040010Y-60169697D01*
X110647370Y-59776371D01*
X110439488Y-59690051D01*
X110645303Y-59605010D01*
X111038629Y-59212370D01*
X111052070Y-59180000D01*
X116315637Y-59180000D01*
X116347773Y-59212192D01*
X116691301Y-59354838D01*
X117063267Y-59355162D01*
X117407043Y-59213117D01*
X117670292Y-58950327D01*
X117812938Y-58606799D01*
X117813262Y-58234833D01*
X117671217Y-57891057D01*
X117408427Y-57627808D01*
X117064899Y-57485162D01*
X116692933Y-57484838D01*
X116349157Y-57626883D01*
X116315982Y-57660000D01*
X111052531Y-57660000D01*
X111040010Y-57629697D01*
X110647370Y-57236371D01*
X110439488Y-57150051D01*
X110645303Y-57065010D01*
X111038629Y-56672370D01*
X111052070Y-56640000D01*
X114397937Y-56640000D01*
X114430073Y-56672192D01*
X114773601Y-56814838D01*
X115145567Y-56815162D01*
X115489343Y-56673117D01*
X115752592Y-56410327D01*
X115895238Y-56066799D01*
X115895562Y-55694833D01*
X115753517Y-55351057D01*
X115490727Y-55087808D01*
X115147199Y-54945162D01*
X114775233Y-54944838D01*
X114431457Y-55086883D01*
X114398282Y-55120000D01*
X111052531Y-55120000D01*
X111040010Y-55089697D01*
X110647370Y-54696371D01*
X110439488Y-54610051D01*
X110645303Y-54525010D01*
X111038629Y-54132370D01*
X111052070Y-54100000D01*
X114334393Y-54100000D01*
X114341173Y-54106792D01*
X114684701Y-54249438D01*
X115056667Y-54249762D01*
X115400443Y-54107717D01*
X115663692Y-53844927D01*
X115806338Y-53501399D01*
X115806662Y-53129433D01*
X115664617Y-52785657D01*
X115401827Y-52522408D01*
X115058299Y-52379762D01*
X114686333Y-52379438D01*
X114342557Y-52521483D01*
X114283938Y-52580000D01*
X111052531Y-52580000D01*
X111040010Y-52549697D01*
X110647370Y-52156371D01*
X110439488Y-52070051D01*
X110645303Y-51985010D01*
X111038629Y-51592370D01*
X111052070Y-51560000D01*
X113258600Y-51560000D01*
X113549439Y-51502148D01*
X113796001Y-51337401D01*
X115548601Y-49584801D01*
X115586052Y-49528750D01*
X115794000Y-49528750D01*
X115794000Y-50069310D01*
X115890673Y-50302699D01*
X116069302Y-50481327D01*
X116302691Y-50578000D01*
X116943250Y-50578000D01*
X117102000Y-50419250D01*
X117102000Y-49370000D01*
X117356000Y-49370000D01*
X117356000Y-50419250D01*
X117514750Y-50578000D01*
X118155309Y-50578000D01*
X118388698Y-50481327D01*
X118567327Y-50302699D01*
X118664000Y-50069310D01*
X118664000Y-49528750D01*
X118505250Y-49370000D01*
X117356000Y-49370000D01*
X117102000Y-49370000D01*
X115952750Y-49370000D01*
X115794000Y-49528750D01*
X115586052Y-49528750D01*
X115713348Y-49338239D01*
X115771200Y-49047400D01*
X115771200Y-48346202D01*
X115859965Y-48257437D01*
X115794000Y-48416690D01*
X115794000Y-48957250D01*
X115952750Y-49116000D01*
X117102000Y-49116000D01*
X117102000Y-48066750D01*
X117356000Y-48066750D01*
X117356000Y-49116000D01*
X118505250Y-49116000D01*
X118664000Y-48957250D01*
X118664000Y-48416690D01*
X118567327Y-48183301D01*
X118388698Y-48004673D01*
X118155309Y-47908000D01*
X117514750Y-47908000D01*
X117356000Y-48066750D01*
X117102000Y-48066750D01*
X116943250Y-47908000D01*
X116302691Y-47908000D01*
X116143437Y-47973965D01*
X116596002Y-47521400D01*
X118922800Y-47521400D01*
X119213639Y-47463548D01*
X119460201Y-47298801D01*
X120908001Y-45851001D01*
X121072748Y-45604440D01*
X121130600Y-45313600D01*
X121130600Y-43215402D01*
X121498202Y-42847800D01*
X124424827Y-42847800D01*
X124420555Y-42854193D01*
G36*
X120386914Y-38280233D02*
X120067355Y-38599235D01*
X119894197Y-39016244D01*
X119893803Y-39467775D01*
X120066233Y-39885086D01*
X120385235Y-40204645D01*
X120802244Y-40377803D01*
X121253775Y-40378197D01*
X121671086Y-40205767D01*
X121990645Y-39886765D01*
X122163803Y-39469756D01*
X122164197Y-39018225D01*
X121991767Y-38600914D01*
X121672765Y-38281355D01*
X121537048Y-38225000D01*
X128500588Y-38225000D01*
X128366914Y-38280233D01*
X128047355Y-38599235D01*
X127874197Y-39016244D01*
X127873803Y-39467775D01*
X128046233Y-39885086D01*
X128365235Y-40204645D01*
X128782244Y-40377803D01*
X129233775Y-40378197D01*
X129651086Y-40205767D01*
X129970645Y-39886765D01*
X130143803Y-39469756D01*
X130144197Y-39018225D01*
X129971767Y-38600914D01*
X129652765Y-38281355D01*
X129517048Y-38225000D01*
X130673401Y-38225000D01*
X130594000Y-38416690D01*
X130594000Y-39357250D01*
X130752750Y-39516000D01*
X131702000Y-39516000D01*
X131702000Y-39496000D01*
X131956000Y-39496000D01*
X131956000Y-39516000D01*
X132905250Y-39516000D01*
X133064000Y-39357250D01*
X133064000Y-38416690D01*
X132984599Y-38225000D01*
X135200469Y-38225000D01*
X135212990Y-38255303D01*
X135605630Y-38648629D01*
X135813512Y-38734949D01*
X135607697Y-38819990D01*
X135214371Y-39212630D01*
X135200930Y-39245000D01*
X134975600Y-39245000D01*
X134684761Y-39302852D01*
X134438199Y-39467599D01*
X133064000Y-40841798D01*
X133064000Y-39928750D01*
X132905250Y-39770000D01*
X131956000Y-39770000D01*
X131956000Y-39790000D01*
X131702000Y-39790000D01*
X131702000Y-39770000D01*
X130752750Y-39770000D01*
X130594000Y-39928750D01*
X130594000Y-40869310D01*
X130690673Y-41102699D01*
X130869302Y-41281327D01*
X130981498Y-41327800D01*
X121183400Y-41327800D01*
X120892561Y-41385652D01*
X120645999Y-41550399D01*
X119833199Y-42363199D01*
X119668452Y-42609761D01*
X119610600Y-42900600D01*
X119610600Y-44998798D01*
X119555800Y-45053598D01*
X119555800Y-38541802D01*
X119872602Y-38225000D01*
X120520588Y-38225000D01*
X120386914Y-38280233D01*
X120386914Y-38280233D01*
G37*
X120386914Y-38280233D02*
X120067355Y-38599235D01*
X119894197Y-39016244D01*
X119893803Y-39467775D01*
X120066233Y-39885086D01*
X120385235Y-40204645D01*
X120802244Y-40377803D01*
X121253775Y-40378197D01*
X121671086Y-40205767D01*
X121990645Y-39886765D01*
X122163803Y-39469756D01*
X122164197Y-39018225D01*
X121991767Y-38600914D01*
X121672765Y-38281355D01*
X121537048Y-38225000D01*
X128500588Y-38225000D01*
X128366914Y-38280233D01*
X128047355Y-38599235D01*
X127874197Y-39016244D01*
X127873803Y-39467775D01*
X128046233Y-39885086D01*
X128365235Y-40204645D01*
X128782244Y-40377803D01*
X129233775Y-40378197D01*
X129651086Y-40205767D01*
X129970645Y-39886765D01*
X130143803Y-39469756D01*
X130144197Y-39018225D01*
X129971767Y-38600914D01*
X129652765Y-38281355D01*
X129517048Y-38225000D01*
X130673401Y-38225000D01*
X130594000Y-38416690D01*
X130594000Y-39357250D01*
X130752750Y-39516000D01*
X131702000Y-39516000D01*
X131702000Y-39496000D01*
X131956000Y-39496000D01*
X131956000Y-39516000D01*
X132905250Y-39516000D01*
X133064000Y-39357250D01*
X133064000Y-38416690D01*
X132984599Y-38225000D01*
X135200469Y-38225000D01*
X135212990Y-38255303D01*
X135605630Y-38648629D01*
X135813512Y-38734949D01*
X135607697Y-38819990D01*
X135214371Y-39212630D01*
X135200930Y-39245000D01*
X134975600Y-39245000D01*
X134684761Y-39302852D01*
X134438199Y-39467599D01*
X133064000Y-40841798D01*
X133064000Y-39928750D01*
X132905250Y-39770000D01*
X131956000Y-39770000D01*
X131956000Y-39790000D01*
X131702000Y-39790000D01*
X131702000Y-39770000D01*
X130752750Y-39770000D01*
X130594000Y-39928750D01*
X130594000Y-40869310D01*
X130690673Y-41102699D01*
X130869302Y-41281327D01*
X130981498Y-41327800D01*
X121183400Y-41327800D01*
X120892561Y-41385652D01*
X120645999Y-41550399D01*
X119833199Y-42363199D01*
X119668452Y-42609761D01*
X119610600Y-42900600D01*
X119610600Y-44998798D01*
X119555800Y-45053598D01*
X119555800Y-38541802D01*
X119872602Y-38225000D01*
X120520588Y-38225000D01*
X120386914Y-38280233D01*
M02*
