G04 #@! TF.FileFunction,Profile,NP*
%FSLAX46Y46*%
G04 Gerber Fmt 4.6, Leading zero omitted, Abs format (unit mm)*
G04 Created by KiCad (PCBNEW 4.0.7) date 01/15/20 01:12:04*
%MOMM*%
%LPD*%
G01*
G04 APERTURE LIST*
%ADD10C,0.100000*%
%ADD11C,0.150000*%
G04 APERTURE END LIST*
D10*
D11*
X145351500Y-50800000D02*
G75*
G03X144208500Y-49657000I-1143000J0D01*
G01*
X145351500Y-69850000D02*
G75*
G03X146494500Y-70993000I1143000J0D01*
G01*
X203708000Y-72136000D02*
G75*
G03X202565000Y-70993000I-1143000J0D01*
G01*
X145351500Y-69850000D02*
X145351500Y-50800000D01*
X202565000Y-70993000D02*
X146494500Y-70993000D01*
X113284000Y-94107000D02*
G75*
G03X112141000Y-92964000I-1143000J0D01*
G01*
X104711500Y-91821000D02*
G75*
G03X105854500Y-92964000I1143000J0D01*
G01*
X105854500Y-92964000D02*
X112141000Y-92964000D01*
X104711500Y-50800000D02*
X104711500Y-91821000D01*
X124942600Y-112915700D02*
X124942600Y-105041700D01*
X114427000Y-103886000D02*
X123799600Y-103898700D01*
X113284000Y-102743000D02*
G75*
G03X114427000Y-103886000I1143000J0D01*
G01*
X124942600Y-105041700D02*
G75*
G03X123799600Y-103898700I-1143000J0D01*
G01*
X191223900Y-103886000D02*
X202565000Y-103886000D01*
X203708000Y-102743000D02*
G75*
G02X202565000Y-103886000I-1143000J0D01*
G01*
X190080900Y-112915700D02*
X190080900Y-105029000D01*
X190080900Y-105029000D02*
G75*
G02X191223900Y-103886000I1143000J0D01*
G01*
X131549518Y-93687900D02*
G75*
G03X131549518Y-93687900I-2212718J0D01*
G01*
X187601866Y-98894900D02*
G75*
G03X187601866Y-98894900I-2258066J0D01*
G01*
X105854500Y-49657000D02*
G75*
G03X104711500Y-50800000I0J-1143000D01*
G01*
X190080900Y-112915700D02*
G75*
G02X188937900Y-114058700I-1143000J0D01*
G01*
X124942600Y-112915700D02*
G75*
G03X126085600Y-114058700I1143000J0D01*
G01*
X203708000Y-102743000D02*
X203708000Y-72130000D01*
X126085600Y-114058700D02*
X188937900Y-114058700D01*
X113284000Y-94100000D02*
X113284000Y-102743000D01*
X144200000Y-49657000D02*
X105860000Y-49657000D01*
M02*
