G04 #@! TF.GenerationSoftware,KiCad,Pcbnew,5.1.5-52549c5~86~ubuntu18.04.1*
G04 #@! TF.CreationDate,2020-05-20T13:59:01+09:00*
G04 #@! TF.ProjectId,rpmpv1,72706d70-7631-42e6-9b69-6361645f7063,rev?*
G04 #@! TF.SameCoordinates,Original*
G04 #@! TF.FileFunction,Soldermask,Top*
G04 #@! TF.FilePolarity,Negative*
%FSLAX46Y46*%
G04 Gerber Fmt 4.6, Leading zero omitted, Abs format (unit mm)*
G04 Created by KiCad (PCBNEW 5.1.5-52549c5~86~ubuntu18.04.1) date 2020-05-20 13:59:01*
%MOMM*%
%LPD*%
G04 APERTURE LIST*
%ADD10C,4.900000*%
%ADD11R,2.200000X8.400000*%
%ADD12R,2.200000X7.400000*%
%ADD13R,2.400000X1.500000*%
%ADD14R,1.000000X2.350000*%
%ADD15R,1.000000X1.900000*%
%ADD16C,3.400000*%
%ADD17R,2.100000X2.100000*%
%ADD18O,2.100000X2.100000*%
%ADD19C,0.100000*%
%ADD20C,1.400000*%
G04 APERTURE END LIST*
D10*
X185356640Y-98869440D03*
D11*
X187972840Y-109799440D03*
X185432840Y-109799440D03*
X182892840Y-109799440D03*
X180352840Y-109799440D03*
X177812840Y-109799440D03*
X175272840Y-109799440D03*
X172732840Y-109799440D03*
X170192840Y-109799440D03*
X167652840Y-109799440D03*
X165112840Y-109799440D03*
X162572840Y-109799440D03*
X160032840Y-109799440D03*
X157492840Y-109799440D03*
X154952840Y-109799440D03*
X152412840Y-109799440D03*
X149872840Y-109799440D03*
X147332840Y-109799440D03*
X144792840Y-109799440D03*
X142252840Y-109799440D03*
X139712840Y-109799440D03*
X137172840Y-109799440D03*
D12*
X134627760Y-109306680D03*
D11*
X132092840Y-109799440D03*
X129552840Y-109799440D03*
X127012840Y-109799440D03*
D10*
X129357260Y-93667520D03*
D13*
X107061000Y-53291000D03*
X107061000Y-54991000D03*
X107061000Y-56691000D03*
X111861000Y-56691000D03*
X111861000Y-54991000D03*
X111861000Y-53291000D03*
D14*
X138049000Y-98871500D03*
X139319000Y-98871500D03*
X140589000Y-98871500D03*
X141859000Y-98871500D03*
X143129000Y-98871500D03*
X144399000Y-98871500D03*
X145669000Y-98871500D03*
X146939000Y-98871500D03*
X148209000Y-98871500D03*
X149479000Y-98871500D03*
X149479000Y-89471500D03*
X148209000Y-89471500D03*
X146939000Y-89471500D03*
X145669000Y-89471500D03*
X144399000Y-89471500D03*
X143129000Y-89471500D03*
X141859000Y-89471500D03*
X140589000Y-89471500D03*
X139319000Y-89471500D03*
X138049000Y-89471500D03*
D15*
X154686000Y-96776500D03*
X155956000Y-96776500D03*
X157226000Y-96776500D03*
X158496000Y-96776500D03*
X159766000Y-96776500D03*
X161036000Y-96776500D03*
X162306000Y-96776500D03*
X162306000Y-91376500D03*
X161036000Y-91376500D03*
X159766000Y-91376500D03*
X158496000Y-91376500D03*
X157226000Y-91376500D03*
X155956000Y-91376500D03*
X154686000Y-91376500D03*
D14*
X167132000Y-98871500D03*
X168402000Y-98871500D03*
X169672000Y-98871500D03*
X170942000Y-98871500D03*
X172212000Y-98871500D03*
X173482000Y-98871500D03*
X174752000Y-98871500D03*
X176022000Y-98871500D03*
X177292000Y-98871500D03*
X178562000Y-98871500D03*
X178562000Y-89471500D03*
X177292000Y-89471500D03*
X176022000Y-89471500D03*
X174752000Y-89471500D03*
X173482000Y-89471500D03*
X172212000Y-89471500D03*
X170942000Y-89471500D03*
X169672000Y-89471500D03*
X168402000Y-89471500D03*
X167132000Y-89471500D03*
D16*
X200279000Y-76200000D03*
D17*
X195199000Y-75057000D03*
D18*
X195199000Y-77597000D03*
X192659000Y-75057000D03*
X192659000Y-77597000D03*
X190119000Y-75057000D03*
X190119000Y-77597000D03*
X187579000Y-75057000D03*
X187579000Y-77597000D03*
X185039000Y-75057000D03*
X185039000Y-77597000D03*
X182499000Y-75057000D03*
X182499000Y-77597000D03*
X179959000Y-75057000D03*
X179959000Y-77597000D03*
X177419000Y-75057000D03*
X177419000Y-77597000D03*
X174879000Y-75057000D03*
X174879000Y-77597000D03*
X172339000Y-75057000D03*
X172339000Y-77597000D03*
X169799000Y-75057000D03*
X169799000Y-77597000D03*
X167259000Y-75057000D03*
X167259000Y-77597000D03*
X164719000Y-75057000D03*
X164719000Y-77597000D03*
X162179000Y-75057000D03*
X162179000Y-77597000D03*
X159639000Y-75057000D03*
X159639000Y-77597000D03*
X157099000Y-75057000D03*
X157099000Y-77597000D03*
X154559000Y-75057000D03*
X154559000Y-77597000D03*
X152019000Y-75057000D03*
X152019000Y-77597000D03*
X149479000Y-75057000D03*
X149479000Y-77597000D03*
X146939000Y-75057000D03*
X146939000Y-77597000D03*
D19*
G36*
X116529493Y-93052535D02*
G01*
X116560435Y-93057125D01*
X116590778Y-93064725D01*
X116620230Y-93075263D01*
X116648508Y-93088638D01*
X116675338Y-93104719D01*
X116700463Y-93123353D01*
X116723640Y-93144360D01*
X116744647Y-93167537D01*
X116763281Y-93192662D01*
X116779362Y-93219492D01*
X116792737Y-93247770D01*
X116803275Y-93277222D01*
X116810875Y-93307565D01*
X116815465Y-93338507D01*
X116817000Y-93369750D01*
X116817000Y-94082250D01*
X116815465Y-94113493D01*
X116810875Y-94144435D01*
X116803275Y-94174778D01*
X116792737Y-94204230D01*
X116779362Y-94232508D01*
X116763281Y-94259338D01*
X116744647Y-94284463D01*
X116723640Y-94307640D01*
X116700463Y-94328647D01*
X116675338Y-94347281D01*
X116648508Y-94363362D01*
X116620230Y-94376737D01*
X116590778Y-94387275D01*
X116560435Y-94394875D01*
X116529493Y-94399465D01*
X116498250Y-94401000D01*
X115860750Y-94401000D01*
X115829507Y-94399465D01*
X115798565Y-94394875D01*
X115768222Y-94387275D01*
X115738770Y-94376737D01*
X115710492Y-94363362D01*
X115683662Y-94347281D01*
X115658537Y-94328647D01*
X115635360Y-94307640D01*
X115614353Y-94284463D01*
X115595719Y-94259338D01*
X115579638Y-94232508D01*
X115566263Y-94204230D01*
X115555725Y-94174778D01*
X115548125Y-94144435D01*
X115543535Y-94113493D01*
X115542000Y-94082250D01*
X115542000Y-93369750D01*
X115543535Y-93338507D01*
X115548125Y-93307565D01*
X115555725Y-93277222D01*
X115566263Y-93247770D01*
X115579638Y-93219492D01*
X115595719Y-93192662D01*
X115614353Y-93167537D01*
X115635360Y-93144360D01*
X115658537Y-93123353D01*
X115683662Y-93104719D01*
X115710492Y-93088638D01*
X115738770Y-93075263D01*
X115768222Y-93064725D01*
X115798565Y-93057125D01*
X115829507Y-93052535D01*
X115860750Y-93051000D01*
X116498250Y-93051000D01*
X116529493Y-93052535D01*
G37*
G36*
X118104493Y-93052535D02*
G01*
X118135435Y-93057125D01*
X118165778Y-93064725D01*
X118195230Y-93075263D01*
X118223508Y-93088638D01*
X118250338Y-93104719D01*
X118275463Y-93123353D01*
X118298640Y-93144360D01*
X118319647Y-93167537D01*
X118338281Y-93192662D01*
X118354362Y-93219492D01*
X118367737Y-93247770D01*
X118378275Y-93277222D01*
X118385875Y-93307565D01*
X118390465Y-93338507D01*
X118392000Y-93369750D01*
X118392000Y-94082250D01*
X118390465Y-94113493D01*
X118385875Y-94144435D01*
X118378275Y-94174778D01*
X118367737Y-94204230D01*
X118354362Y-94232508D01*
X118338281Y-94259338D01*
X118319647Y-94284463D01*
X118298640Y-94307640D01*
X118275463Y-94328647D01*
X118250338Y-94347281D01*
X118223508Y-94363362D01*
X118195230Y-94376737D01*
X118165778Y-94387275D01*
X118135435Y-94394875D01*
X118104493Y-94399465D01*
X118073250Y-94401000D01*
X117435750Y-94401000D01*
X117404507Y-94399465D01*
X117373565Y-94394875D01*
X117343222Y-94387275D01*
X117313770Y-94376737D01*
X117285492Y-94363362D01*
X117258662Y-94347281D01*
X117233537Y-94328647D01*
X117210360Y-94307640D01*
X117189353Y-94284463D01*
X117170719Y-94259338D01*
X117154638Y-94232508D01*
X117141263Y-94204230D01*
X117130725Y-94174778D01*
X117123125Y-94144435D01*
X117118535Y-94113493D01*
X117117000Y-94082250D01*
X117117000Y-93369750D01*
X117118535Y-93338507D01*
X117123125Y-93307565D01*
X117130725Y-93277222D01*
X117141263Y-93247770D01*
X117154638Y-93219492D01*
X117170719Y-93192662D01*
X117189353Y-93167537D01*
X117210360Y-93144360D01*
X117233537Y-93123353D01*
X117258662Y-93104719D01*
X117285492Y-93088638D01*
X117313770Y-93075263D01*
X117343222Y-93064725D01*
X117373565Y-93057125D01*
X117404507Y-93052535D01*
X117435750Y-93051000D01*
X118073250Y-93051000D01*
X118104493Y-93052535D01*
G37*
G36*
X118925130Y-98442505D02*
G01*
X118955466Y-98447005D01*
X118985214Y-98454456D01*
X119014089Y-98464788D01*
X119041811Y-98477900D01*
X119068116Y-98493666D01*
X119092748Y-98511934D01*
X119115471Y-98532529D01*
X119136066Y-98555252D01*
X119154334Y-98579884D01*
X119170100Y-98606189D01*
X119183212Y-98633911D01*
X119193544Y-98662786D01*
X119200995Y-98692534D01*
X119205495Y-98722870D01*
X119207000Y-98753500D01*
X119207000Y-100128500D01*
X119205495Y-100159130D01*
X119200995Y-100189466D01*
X119193544Y-100219214D01*
X119183212Y-100248089D01*
X119170100Y-100275811D01*
X119154334Y-100302116D01*
X119136066Y-100326748D01*
X119115471Y-100349471D01*
X119092748Y-100370066D01*
X119068116Y-100388334D01*
X119041811Y-100404100D01*
X119014089Y-100417212D01*
X118985214Y-100427544D01*
X118955466Y-100434995D01*
X118925130Y-100439495D01*
X118894500Y-100441000D01*
X116519500Y-100441000D01*
X116488870Y-100439495D01*
X116458534Y-100434995D01*
X116428786Y-100427544D01*
X116399911Y-100417212D01*
X116372189Y-100404100D01*
X116345884Y-100388334D01*
X116321252Y-100370066D01*
X116298529Y-100349471D01*
X116277934Y-100326748D01*
X116259666Y-100302116D01*
X116243900Y-100275811D01*
X116230788Y-100248089D01*
X116220456Y-100219214D01*
X116213005Y-100189466D01*
X116208505Y-100159130D01*
X116207000Y-100128500D01*
X116207000Y-98753500D01*
X116208505Y-98722870D01*
X116213005Y-98692534D01*
X116220456Y-98662786D01*
X116230788Y-98633911D01*
X116243900Y-98606189D01*
X116259666Y-98579884D01*
X116277934Y-98555252D01*
X116298529Y-98532529D01*
X116321252Y-98511934D01*
X116345884Y-98493666D01*
X116372189Y-98477900D01*
X116399911Y-98464788D01*
X116428786Y-98454456D01*
X116458534Y-98447005D01*
X116488870Y-98442505D01*
X116519500Y-98441000D01*
X118894500Y-98441000D01*
X118925130Y-98442505D01*
G37*
G36*
X122525130Y-98442505D02*
G01*
X122555466Y-98447005D01*
X122585214Y-98454456D01*
X122614089Y-98464788D01*
X122641811Y-98477900D01*
X122668116Y-98493666D01*
X122692748Y-98511934D01*
X122715471Y-98532529D01*
X122736066Y-98555252D01*
X122754334Y-98579884D01*
X122770100Y-98606189D01*
X122783212Y-98633911D01*
X122793544Y-98662786D01*
X122800995Y-98692534D01*
X122805495Y-98722870D01*
X122807000Y-98753500D01*
X122807000Y-100128500D01*
X122805495Y-100159130D01*
X122800995Y-100189466D01*
X122793544Y-100219214D01*
X122783212Y-100248089D01*
X122770100Y-100275811D01*
X122754334Y-100302116D01*
X122736066Y-100326748D01*
X122715471Y-100349471D01*
X122692748Y-100370066D01*
X122668116Y-100388334D01*
X122641811Y-100404100D01*
X122614089Y-100417212D01*
X122585214Y-100427544D01*
X122555466Y-100434995D01*
X122525130Y-100439495D01*
X122494500Y-100441000D01*
X120119500Y-100441000D01*
X120088870Y-100439495D01*
X120058534Y-100434995D01*
X120028786Y-100427544D01*
X119999911Y-100417212D01*
X119972189Y-100404100D01*
X119945884Y-100388334D01*
X119921252Y-100370066D01*
X119898529Y-100349471D01*
X119877934Y-100326748D01*
X119859666Y-100302116D01*
X119843900Y-100275811D01*
X119830788Y-100248089D01*
X119820456Y-100219214D01*
X119813005Y-100189466D01*
X119808505Y-100159130D01*
X119807000Y-100128500D01*
X119807000Y-98753500D01*
X119808505Y-98722870D01*
X119813005Y-98692534D01*
X119820456Y-98662786D01*
X119830788Y-98633911D01*
X119843900Y-98606189D01*
X119859666Y-98579884D01*
X119877934Y-98555252D01*
X119898529Y-98532529D01*
X119921252Y-98511934D01*
X119945884Y-98493666D01*
X119972189Y-98477900D01*
X119999911Y-98464788D01*
X120028786Y-98454456D01*
X120058534Y-98447005D01*
X120088870Y-98442505D01*
X120119500Y-98441000D01*
X122494500Y-98441000D01*
X122525130Y-98442505D01*
G37*
G36*
X112782493Y-88365535D02*
G01*
X112813435Y-88370125D01*
X112843778Y-88377725D01*
X112873230Y-88388263D01*
X112901508Y-88401638D01*
X112928338Y-88417719D01*
X112953463Y-88436353D01*
X112976640Y-88457360D01*
X112997647Y-88480537D01*
X113016281Y-88505662D01*
X113032362Y-88532492D01*
X113045737Y-88560770D01*
X113056275Y-88590222D01*
X113063875Y-88620565D01*
X113068465Y-88651507D01*
X113070000Y-88682750D01*
X113070000Y-89320250D01*
X113068465Y-89351493D01*
X113063875Y-89382435D01*
X113056275Y-89412778D01*
X113045737Y-89442230D01*
X113032362Y-89470508D01*
X113016281Y-89497338D01*
X112997647Y-89522463D01*
X112976640Y-89545640D01*
X112953463Y-89566647D01*
X112928338Y-89585281D01*
X112901508Y-89601362D01*
X112873230Y-89614737D01*
X112843778Y-89625275D01*
X112813435Y-89632875D01*
X112782493Y-89637465D01*
X112751250Y-89639000D01*
X112038750Y-89639000D01*
X112007507Y-89637465D01*
X111976565Y-89632875D01*
X111946222Y-89625275D01*
X111916770Y-89614737D01*
X111888492Y-89601362D01*
X111861662Y-89585281D01*
X111836537Y-89566647D01*
X111813360Y-89545640D01*
X111792353Y-89522463D01*
X111773719Y-89497338D01*
X111757638Y-89470508D01*
X111744263Y-89442230D01*
X111733725Y-89412778D01*
X111726125Y-89382435D01*
X111721535Y-89351493D01*
X111720000Y-89320250D01*
X111720000Y-88682750D01*
X111721535Y-88651507D01*
X111726125Y-88620565D01*
X111733725Y-88590222D01*
X111744263Y-88560770D01*
X111757638Y-88532492D01*
X111773719Y-88505662D01*
X111792353Y-88480537D01*
X111813360Y-88457360D01*
X111836537Y-88436353D01*
X111861662Y-88417719D01*
X111888492Y-88401638D01*
X111916770Y-88388263D01*
X111946222Y-88377725D01*
X111976565Y-88370125D01*
X112007507Y-88365535D01*
X112038750Y-88364000D01*
X112751250Y-88364000D01*
X112782493Y-88365535D01*
G37*
G36*
X112782493Y-89940535D02*
G01*
X112813435Y-89945125D01*
X112843778Y-89952725D01*
X112873230Y-89963263D01*
X112901508Y-89976638D01*
X112928338Y-89992719D01*
X112953463Y-90011353D01*
X112976640Y-90032360D01*
X112997647Y-90055537D01*
X113016281Y-90080662D01*
X113032362Y-90107492D01*
X113045737Y-90135770D01*
X113056275Y-90165222D01*
X113063875Y-90195565D01*
X113068465Y-90226507D01*
X113070000Y-90257750D01*
X113070000Y-90895250D01*
X113068465Y-90926493D01*
X113063875Y-90957435D01*
X113056275Y-90987778D01*
X113045737Y-91017230D01*
X113032362Y-91045508D01*
X113016281Y-91072338D01*
X112997647Y-91097463D01*
X112976640Y-91120640D01*
X112953463Y-91141647D01*
X112928338Y-91160281D01*
X112901508Y-91176362D01*
X112873230Y-91189737D01*
X112843778Y-91200275D01*
X112813435Y-91207875D01*
X112782493Y-91212465D01*
X112751250Y-91214000D01*
X112038750Y-91214000D01*
X112007507Y-91212465D01*
X111976565Y-91207875D01*
X111946222Y-91200275D01*
X111916770Y-91189737D01*
X111888492Y-91176362D01*
X111861662Y-91160281D01*
X111836537Y-91141647D01*
X111813360Y-91120640D01*
X111792353Y-91097463D01*
X111773719Y-91072338D01*
X111757638Y-91045508D01*
X111744263Y-91017230D01*
X111733725Y-90987778D01*
X111726125Y-90957435D01*
X111721535Y-90926493D01*
X111720000Y-90895250D01*
X111720000Y-90257750D01*
X111721535Y-90226507D01*
X111726125Y-90195565D01*
X111733725Y-90165222D01*
X111744263Y-90135770D01*
X111757638Y-90107492D01*
X111773719Y-90080662D01*
X111792353Y-90055537D01*
X111813360Y-90032360D01*
X111836537Y-90011353D01*
X111861662Y-89992719D01*
X111888492Y-89976638D01*
X111916770Y-89963263D01*
X111946222Y-89952725D01*
X111976565Y-89945125D01*
X112007507Y-89940535D01*
X112038750Y-89939000D01*
X112751250Y-89939000D01*
X112782493Y-89940535D01*
G37*
G36*
X123184493Y-93052535D02*
G01*
X123215435Y-93057125D01*
X123245778Y-93064725D01*
X123275230Y-93075263D01*
X123303508Y-93088638D01*
X123330338Y-93104719D01*
X123355463Y-93123353D01*
X123378640Y-93144360D01*
X123399647Y-93167537D01*
X123418281Y-93192662D01*
X123434362Y-93219492D01*
X123447737Y-93247770D01*
X123458275Y-93277222D01*
X123465875Y-93307565D01*
X123470465Y-93338507D01*
X123472000Y-93369750D01*
X123472000Y-94082250D01*
X123470465Y-94113493D01*
X123465875Y-94144435D01*
X123458275Y-94174778D01*
X123447737Y-94204230D01*
X123434362Y-94232508D01*
X123418281Y-94259338D01*
X123399647Y-94284463D01*
X123378640Y-94307640D01*
X123355463Y-94328647D01*
X123330338Y-94347281D01*
X123303508Y-94363362D01*
X123275230Y-94376737D01*
X123245778Y-94387275D01*
X123215435Y-94394875D01*
X123184493Y-94399465D01*
X123153250Y-94401000D01*
X122515750Y-94401000D01*
X122484507Y-94399465D01*
X122453565Y-94394875D01*
X122423222Y-94387275D01*
X122393770Y-94376737D01*
X122365492Y-94363362D01*
X122338662Y-94347281D01*
X122313537Y-94328647D01*
X122290360Y-94307640D01*
X122269353Y-94284463D01*
X122250719Y-94259338D01*
X122234638Y-94232508D01*
X122221263Y-94204230D01*
X122210725Y-94174778D01*
X122203125Y-94144435D01*
X122198535Y-94113493D01*
X122197000Y-94082250D01*
X122197000Y-93369750D01*
X122198535Y-93338507D01*
X122203125Y-93307565D01*
X122210725Y-93277222D01*
X122221263Y-93247770D01*
X122234638Y-93219492D01*
X122250719Y-93192662D01*
X122269353Y-93167537D01*
X122290360Y-93144360D01*
X122313537Y-93123353D01*
X122338662Y-93104719D01*
X122365492Y-93088638D01*
X122393770Y-93075263D01*
X122423222Y-93064725D01*
X122453565Y-93057125D01*
X122484507Y-93052535D01*
X122515750Y-93051000D01*
X123153250Y-93051000D01*
X123184493Y-93052535D01*
G37*
G36*
X121609493Y-93052535D02*
G01*
X121640435Y-93057125D01*
X121670778Y-93064725D01*
X121700230Y-93075263D01*
X121728508Y-93088638D01*
X121755338Y-93104719D01*
X121780463Y-93123353D01*
X121803640Y-93144360D01*
X121824647Y-93167537D01*
X121843281Y-93192662D01*
X121859362Y-93219492D01*
X121872737Y-93247770D01*
X121883275Y-93277222D01*
X121890875Y-93307565D01*
X121895465Y-93338507D01*
X121897000Y-93369750D01*
X121897000Y-94082250D01*
X121895465Y-94113493D01*
X121890875Y-94144435D01*
X121883275Y-94174778D01*
X121872737Y-94204230D01*
X121859362Y-94232508D01*
X121843281Y-94259338D01*
X121824647Y-94284463D01*
X121803640Y-94307640D01*
X121780463Y-94328647D01*
X121755338Y-94347281D01*
X121728508Y-94363362D01*
X121700230Y-94376737D01*
X121670778Y-94387275D01*
X121640435Y-94394875D01*
X121609493Y-94399465D01*
X121578250Y-94401000D01*
X120940750Y-94401000D01*
X120909507Y-94399465D01*
X120878565Y-94394875D01*
X120848222Y-94387275D01*
X120818770Y-94376737D01*
X120790492Y-94363362D01*
X120763662Y-94347281D01*
X120738537Y-94328647D01*
X120715360Y-94307640D01*
X120694353Y-94284463D01*
X120675719Y-94259338D01*
X120659638Y-94232508D01*
X120646263Y-94204230D01*
X120635725Y-94174778D01*
X120628125Y-94144435D01*
X120623535Y-94113493D01*
X120622000Y-94082250D01*
X120622000Y-93369750D01*
X120623535Y-93338507D01*
X120628125Y-93307565D01*
X120635725Y-93277222D01*
X120646263Y-93247770D01*
X120659638Y-93219492D01*
X120675719Y-93192662D01*
X120694353Y-93167537D01*
X120715360Y-93144360D01*
X120738537Y-93123353D01*
X120763662Y-93104719D01*
X120790492Y-93088638D01*
X120818770Y-93075263D01*
X120848222Y-93064725D01*
X120878565Y-93057125D01*
X120909507Y-93052535D01*
X120940750Y-93051000D01*
X121578250Y-93051000D01*
X121609493Y-93052535D01*
G37*
G36*
X122931504Y-88528204D02*
G01*
X122955773Y-88531804D01*
X122979571Y-88537765D01*
X123002671Y-88546030D01*
X123024849Y-88556520D01*
X123045893Y-88569133D01*
X123065598Y-88583747D01*
X123083777Y-88600223D01*
X123100253Y-88618402D01*
X123114867Y-88638107D01*
X123127480Y-88659151D01*
X123137970Y-88681329D01*
X123146235Y-88704429D01*
X123152196Y-88728227D01*
X123155796Y-88752496D01*
X123157000Y-88777000D01*
X123157000Y-89277000D01*
X123155796Y-89301504D01*
X123152196Y-89325773D01*
X123146235Y-89349571D01*
X123137970Y-89372671D01*
X123127480Y-89394849D01*
X123114867Y-89415893D01*
X123100253Y-89435598D01*
X123083777Y-89453777D01*
X123065598Y-89470253D01*
X123045893Y-89484867D01*
X123024849Y-89497480D01*
X123002671Y-89507970D01*
X122979571Y-89516235D01*
X122955773Y-89522196D01*
X122931504Y-89525796D01*
X122907000Y-89527000D01*
X121057000Y-89527000D01*
X121032496Y-89525796D01*
X121008227Y-89522196D01*
X120984429Y-89516235D01*
X120961329Y-89507970D01*
X120939151Y-89497480D01*
X120918107Y-89484867D01*
X120898402Y-89470253D01*
X120880223Y-89453777D01*
X120863747Y-89435598D01*
X120849133Y-89415893D01*
X120836520Y-89394849D01*
X120826030Y-89372671D01*
X120817765Y-89349571D01*
X120811804Y-89325773D01*
X120808204Y-89301504D01*
X120807000Y-89277000D01*
X120807000Y-88777000D01*
X120808204Y-88752496D01*
X120811804Y-88728227D01*
X120817765Y-88704429D01*
X120826030Y-88681329D01*
X120836520Y-88659151D01*
X120849133Y-88638107D01*
X120863747Y-88618402D01*
X120880223Y-88600223D01*
X120898402Y-88583747D01*
X120918107Y-88569133D01*
X120939151Y-88556520D01*
X120961329Y-88546030D01*
X120984429Y-88537765D01*
X121008227Y-88531804D01*
X121032496Y-88528204D01*
X121057000Y-88527000D01*
X122907000Y-88527000D01*
X122931504Y-88528204D01*
G37*
G36*
X122931504Y-87258204D02*
G01*
X122955773Y-87261804D01*
X122979571Y-87267765D01*
X123002671Y-87276030D01*
X123024849Y-87286520D01*
X123045893Y-87299133D01*
X123065598Y-87313747D01*
X123083777Y-87330223D01*
X123100253Y-87348402D01*
X123114867Y-87368107D01*
X123127480Y-87389151D01*
X123137970Y-87411329D01*
X123146235Y-87434429D01*
X123152196Y-87458227D01*
X123155796Y-87482496D01*
X123157000Y-87507000D01*
X123157000Y-88007000D01*
X123155796Y-88031504D01*
X123152196Y-88055773D01*
X123146235Y-88079571D01*
X123137970Y-88102671D01*
X123127480Y-88124849D01*
X123114867Y-88145893D01*
X123100253Y-88165598D01*
X123083777Y-88183777D01*
X123065598Y-88200253D01*
X123045893Y-88214867D01*
X123024849Y-88227480D01*
X123002671Y-88237970D01*
X122979571Y-88246235D01*
X122955773Y-88252196D01*
X122931504Y-88255796D01*
X122907000Y-88257000D01*
X121057000Y-88257000D01*
X121032496Y-88255796D01*
X121008227Y-88252196D01*
X120984429Y-88246235D01*
X120961329Y-88237970D01*
X120939151Y-88227480D01*
X120918107Y-88214867D01*
X120898402Y-88200253D01*
X120880223Y-88183777D01*
X120863747Y-88165598D01*
X120849133Y-88145893D01*
X120836520Y-88124849D01*
X120826030Y-88102671D01*
X120817765Y-88079571D01*
X120811804Y-88055773D01*
X120808204Y-88031504D01*
X120807000Y-88007000D01*
X120807000Y-87507000D01*
X120808204Y-87482496D01*
X120811804Y-87458227D01*
X120817765Y-87434429D01*
X120826030Y-87411329D01*
X120836520Y-87389151D01*
X120849133Y-87368107D01*
X120863747Y-87348402D01*
X120880223Y-87330223D01*
X120898402Y-87313747D01*
X120918107Y-87299133D01*
X120939151Y-87286520D01*
X120961329Y-87276030D01*
X120984429Y-87267765D01*
X121008227Y-87261804D01*
X121032496Y-87258204D01*
X121057000Y-87257000D01*
X122907000Y-87257000D01*
X122931504Y-87258204D01*
G37*
G36*
X122931504Y-85988204D02*
G01*
X122955773Y-85991804D01*
X122979571Y-85997765D01*
X123002671Y-86006030D01*
X123024849Y-86016520D01*
X123045893Y-86029133D01*
X123065598Y-86043747D01*
X123083777Y-86060223D01*
X123100253Y-86078402D01*
X123114867Y-86098107D01*
X123127480Y-86119151D01*
X123137970Y-86141329D01*
X123146235Y-86164429D01*
X123152196Y-86188227D01*
X123155796Y-86212496D01*
X123157000Y-86237000D01*
X123157000Y-86737000D01*
X123155796Y-86761504D01*
X123152196Y-86785773D01*
X123146235Y-86809571D01*
X123137970Y-86832671D01*
X123127480Y-86854849D01*
X123114867Y-86875893D01*
X123100253Y-86895598D01*
X123083777Y-86913777D01*
X123065598Y-86930253D01*
X123045893Y-86944867D01*
X123024849Y-86957480D01*
X123002671Y-86967970D01*
X122979571Y-86976235D01*
X122955773Y-86982196D01*
X122931504Y-86985796D01*
X122907000Y-86987000D01*
X121057000Y-86987000D01*
X121032496Y-86985796D01*
X121008227Y-86982196D01*
X120984429Y-86976235D01*
X120961329Y-86967970D01*
X120939151Y-86957480D01*
X120918107Y-86944867D01*
X120898402Y-86930253D01*
X120880223Y-86913777D01*
X120863747Y-86895598D01*
X120849133Y-86875893D01*
X120836520Y-86854849D01*
X120826030Y-86832671D01*
X120817765Y-86809571D01*
X120811804Y-86785773D01*
X120808204Y-86761504D01*
X120807000Y-86737000D01*
X120807000Y-86237000D01*
X120808204Y-86212496D01*
X120811804Y-86188227D01*
X120817765Y-86164429D01*
X120826030Y-86141329D01*
X120836520Y-86119151D01*
X120849133Y-86098107D01*
X120863747Y-86078402D01*
X120880223Y-86060223D01*
X120898402Y-86043747D01*
X120918107Y-86029133D01*
X120939151Y-86016520D01*
X120961329Y-86006030D01*
X120984429Y-85997765D01*
X121008227Y-85991804D01*
X121032496Y-85988204D01*
X121057000Y-85987000D01*
X122907000Y-85987000D01*
X122931504Y-85988204D01*
G37*
G36*
X122931504Y-84718204D02*
G01*
X122955773Y-84721804D01*
X122979571Y-84727765D01*
X123002671Y-84736030D01*
X123024849Y-84746520D01*
X123045893Y-84759133D01*
X123065598Y-84773747D01*
X123083777Y-84790223D01*
X123100253Y-84808402D01*
X123114867Y-84828107D01*
X123127480Y-84849151D01*
X123137970Y-84871329D01*
X123146235Y-84894429D01*
X123152196Y-84918227D01*
X123155796Y-84942496D01*
X123157000Y-84967000D01*
X123157000Y-85467000D01*
X123155796Y-85491504D01*
X123152196Y-85515773D01*
X123146235Y-85539571D01*
X123137970Y-85562671D01*
X123127480Y-85584849D01*
X123114867Y-85605893D01*
X123100253Y-85625598D01*
X123083777Y-85643777D01*
X123065598Y-85660253D01*
X123045893Y-85674867D01*
X123024849Y-85687480D01*
X123002671Y-85697970D01*
X122979571Y-85706235D01*
X122955773Y-85712196D01*
X122931504Y-85715796D01*
X122907000Y-85717000D01*
X121057000Y-85717000D01*
X121032496Y-85715796D01*
X121008227Y-85712196D01*
X120984429Y-85706235D01*
X120961329Y-85697970D01*
X120939151Y-85687480D01*
X120918107Y-85674867D01*
X120898402Y-85660253D01*
X120880223Y-85643777D01*
X120863747Y-85625598D01*
X120849133Y-85605893D01*
X120836520Y-85584849D01*
X120826030Y-85562671D01*
X120817765Y-85539571D01*
X120811804Y-85515773D01*
X120808204Y-85491504D01*
X120807000Y-85467000D01*
X120807000Y-84967000D01*
X120808204Y-84942496D01*
X120811804Y-84918227D01*
X120817765Y-84894429D01*
X120826030Y-84871329D01*
X120836520Y-84849151D01*
X120849133Y-84828107D01*
X120863747Y-84808402D01*
X120880223Y-84790223D01*
X120898402Y-84773747D01*
X120918107Y-84759133D01*
X120939151Y-84746520D01*
X120961329Y-84736030D01*
X120984429Y-84727765D01*
X121008227Y-84721804D01*
X121032496Y-84718204D01*
X121057000Y-84717000D01*
X122907000Y-84717000D01*
X122931504Y-84718204D01*
G37*
G36*
X117981504Y-84718204D02*
G01*
X118005773Y-84721804D01*
X118029571Y-84727765D01*
X118052671Y-84736030D01*
X118074849Y-84746520D01*
X118095893Y-84759133D01*
X118115598Y-84773747D01*
X118133777Y-84790223D01*
X118150253Y-84808402D01*
X118164867Y-84828107D01*
X118177480Y-84849151D01*
X118187970Y-84871329D01*
X118196235Y-84894429D01*
X118202196Y-84918227D01*
X118205796Y-84942496D01*
X118207000Y-84967000D01*
X118207000Y-85467000D01*
X118205796Y-85491504D01*
X118202196Y-85515773D01*
X118196235Y-85539571D01*
X118187970Y-85562671D01*
X118177480Y-85584849D01*
X118164867Y-85605893D01*
X118150253Y-85625598D01*
X118133777Y-85643777D01*
X118115598Y-85660253D01*
X118095893Y-85674867D01*
X118074849Y-85687480D01*
X118052671Y-85697970D01*
X118029571Y-85706235D01*
X118005773Y-85712196D01*
X117981504Y-85715796D01*
X117957000Y-85717000D01*
X116107000Y-85717000D01*
X116082496Y-85715796D01*
X116058227Y-85712196D01*
X116034429Y-85706235D01*
X116011329Y-85697970D01*
X115989151Y-85687480D01*
X115968107Y-85674867D01*
X115948402Y-85660253D01*
X115930223Y-85643777D01*
X115913747Y-85625598D01*
X115899133Y-85605893D01*
X115886520Y-85584849D01*
X115876030Y-85562671D01*
X115867765Y-85539571D01*
X115861804Y-85515773D01*
X115858204Y-85491504D01*
X115857000Y-85467000D01*
X115857000Y-84967000D01*
X115858204Y-84942496D01*
X115861804Y-84918227D01*
X115867765Y-84894429D01*
X115876030Y-84871329D01*
X115886520Y-84849151D01*
X115899133Y-84828107D01*
X115913747Y-84808402D01*
X115930223Y-84790223D01*
X115948402Y-84773747D01*
X115968107Y-84759133D01*
X115989151Y-84746520D01*
X116011329Y-84736030D01*
X116034429Y-84727765D01*
X116058227Y-84721804D01*
X116082496Y-84718204D01*
X116107000Y-84717000D01*
X117957000Y-84717000D01*
X117981504Y-84718204D01*
G37*
G36*
X117981504Y-85988204D02*
G01*
X118005773Y-85991804D01*
X118029571Y-85997765D01*
X118052671Y-86006030D01*
X118074849Y-86016520D01*
X118095893Y-86029133D01*
X118115598Y-86043747D01*
X118133777Y-86060223D01*
X118150253Y-86078402D01*
X118164867Y-86098107D01*
X118177480Y-86119151D01*
X118187970Y-86141329D01*
X118196235Y-86164429D01*
X118202196Y-86188227D01*
X118205796Y-86212496D01*
X118207000Y-86237000D01*
X118207000Y-86737000D01*
X118205796Y-86761504D01*
X118202196Y-86785773D01*
X118196235Y-86809571D01*
X118187970Y-86832671D01*
X118177480Y-86854849D01*
X118164867Y-86875893D01*
X118150253Y-86895598D01*
X118133777Y-86913777D01*
X118115598Y-86930253D01*
X118095893Y-86944867D01*
X118074849Y-86957480D01*
X118052671Y-86967970D01*
X118029571Y-86976235D01*
X118005773Y-86982196D01*
X117981504Y-86985796D01*
X117957000Y-86987000D01*
X116107000Y-86987000D01*
X116082496Y-86985796D01*
X116058227Y-86982196D01*
X116034429Y-86976235D01*
X116011329Y-86967970D01*
X115989151Y-86957480D01*
X115968107Y-86944867D01*
X115948402Y-86930253D01*
X115930223Y-86913777D01*
X115913747Y-86895598D01*
X115899133Y-86875893D01*
X115886520Y-86854849D01*
X115876030Y-86832671D01*
X115867765Y-86809571D01*
X115861804Y-86785773D01*
X115858204Y-86761504D01*
X115857000Y-86737000D01*
X115857000Y-86237000D01*
X115858204Y-86212496D01*
X115861804Y-86188227D01*
X115867765Y-86164429D01*
X115876030Y-86141329D01*
X115886520Y-86119151D01*
X115899133Y-86098107D01*
X115913747Y-86078402D01*
X115930223Y-86060223D01*
X115948402Y-86043747D01*
X115968107Y-86029133D01*
X115989151Y-86016520D01*
X116011329Y-86006030D01*
X116034429Y-85997765D01*
X116058227Y-85991804D01*
X116082496Y-85988204D01*
X116107000Y-85987000D01*
X117957000Y-85987000D01*
X117981504Y-85988204D01*
G37*
G36*
X117981504Y-87258204D02*
G01*
X118005773Y-87261804D01*
X118029571Y-87267765D01*
X118052671Y-87276030D01*
X118074849Y-87286520D01*
X118095893Y-87299133D01*
X118115598Y-87313747D01*
X118133777Y-87330223D01*
X118150253Y-87348402D01*
X118164867Y-87368107D01*
X118177480Y-87389151D01*
X118187970Y-87411329D01*
X118196235Y-87434429D01*
X118202196Y-87458227D01*
X118205796Y-87482496D01*
X118207000Y-87507000D01*
X118207000Y-88007000D01*
X118205796Y-88031504D01*
X118202196Y-88055773D01*
X118196235Y-88079571D01*
X118187970Y-88102671D01*
X118177480Y-88124849D01*
X118164867Y-88145893D01*
X118150253Y-88165598D01*
X118133777Y-88183777D01*
X118115598Y-88200253D01*
X118095893Y-88214867D01*
X118074849Y-88227480D01*
X118052671Y-88237970D01*
X118029571Y-88246235D01*
X118005773Y-88252196D01*
X117981504Y-88255796D01*
X117957000Y-88257000D01*
X116107000Y-88257000D01*
X116082496Y-88255796D01*
X116058227Y-88252196D01*
X116034429Y-88246235D01*
X116011329Y-88237970D01*
X115989151Y-88227480D01*
X115968107Y-88214867D01*
X115948402Y-88200253D01*
X115930223Y-88183777D01*
X115913747Y-88165598D01*
X115899133Y-88145893D01*
X115886520Y-88124849D01*
X115876030Y-88102671D01*
X115867765Y-88079571D01*
X115861804Y-88055773D01*
X115858204Y-88031504D01*
X115857000Y-88007000D01*
X115857000Y-87507000D01*
X115858204Y-87482496D01*
X115861804Y-87458227D01*
X115867765Y-87434429D01*
X115876030Y-87411329D01*
X115886520Y-87389151D01*
X115899133Y-87368107D01*
X115913747Y-87348402D01*
X115930223Y-87330223D01*
X115948402Y-87313747D01*
X115968107Y-87299133D01*
X115989151Y-87286520D01*
X116011329Y-87276030D01*
X116034429Y-87267765D01*
X116058227Y-87261804D01*
X116082496Y-87258204D01*
X116107000Y-87257000D01*
X117957000Y-87257000D01*
X117981504Y-87258204D01*
G37*
G36*
X117981504Y-88528204D02*
G01*
X118005773Y-88531804D01*
X118029571Y-88537765D01*
X118052671Y-88546030D01*
X118074849Y-88556520D01*
X118095893Y-88569133D01*
X118115598Y-88583747D01*
X118133777Y-88600223D01*
X118150253Y-88618402D01*
X118164867Y-88638107D01*
X118177480Y-88659151D01*
X118187970Y-88681329D01*
X118196235Y-88704429D01*
X118202196Y-88728227D01*
X118205796Y-88752496D01*
X118207000Y-88777000D01*
X118207000Y-89277000D01*
X118205796Y-89301504D01*
X118202196Y-89325773D01*
X118196235Y-89349571D01*
X118187970Y-89372671D01*
X118177480Y-89394849D01*
X118164867Y-89415893D01*
X118150253Y-89435598D01*
X118133777Y-89453777D01*
X118115598Y-89470253D01*
X118095893Y-89484867D01*
X118074849Y-89497480D01*
X118052671Y-89507970D01*
X118029571Y-89516235D01*
X118005773Y-89522196D01*
X117981504Y-89525796D01*
X117957000Y-89527000D01*
X116107000Y-89527000D01*
X116082496Y-89525796D01*
X116058227Y-89522196D01*
X116034429Y-89516235D01*
X116011329Y-89507970D01*
X115989151Y-89497480D01*
X115968107Y-89484867D01*
X115948402Y-89470253D01*
X115930223Y-89453777D01*
X115913747Y-89435598D01*
X115899133Y-89415893D01*
X115886520Y-89394849D01*
X115876030Y-89372671D01*
X115867765Y-89349571D01*
X115861804Y-89325773D01*
X115858204Y-89301504D01*
X115857000Y-89277000D01*
X115857000Y-88777000D01*
X115858204Y-88752496D01*
X115861804Y-88728227D01*
X115867765Y-88704429D01*
X115876030Y-88681329D01*
X115886520Y-88659151D01*
X115899133Y-88638107D01*
X115913747Y-88618402D01*
X115930223Y-88600223D01*
X115948402Y-88583747D01*
X115968107Y-88569133D01*
X115989151Y-88556520D01*
X116011329Y-88546030D01*
X116034429Y-88537765D01*
X116058227Y-88531804D01*
X116082496Y-88528204D01*
X116107000Y-88527000D01*
X117957000Y-88527000D01*
X117981504Y-88528204D01*
G37*
D20*
X112385000Y-84742000D03*
X112395160Y-85978980D03*
M02*
