G04 #@! TF.FileFunction,Copper,L2,Bot,Mixed*
%FSLAX46Y46*%
G04 Gerber Fmt 4.6, Leading zero omitted, Abs format (unit mm)*
G04 Created by KiCad (PCBNEW 4.0.7) date 01/15/20 01:18:49*
%MOMM*%
%LPD*%
G01*
G04 APERTURE LIST*
%ADD10C,0.100000*%
%ADD11R,1.700000X1.700000*%
%ADD12O,1.700000X1.700000*%
%ADD13R,1.800000X8.000000*%
%ADD14R,1.200000X0.750000*%
%ADD15R,1.200000X0.900000*%
%ADD16R,1.500000X0.600000*%
%ADD17R,0.600000X1.950000*%
%ADD18R,0.600000X2.000000*%
%ADD19C,0.600000*%
%ADD20C,0.250000*%
%ADD21C,0.400000*%
%ADD22C,0.254000*%
G04 APERTURE END LIST*
D10*
D11*
X195199000Y-94297500D03*
D12*
X195199000Y-91757500D03*
X192659000Y-94297500D03*
X192659000Y-91757500D03*
X190119000Y-94297500D03*
X190119000Y-91757500D03*
X187579000Y-94297500D03*
X187579000Y-91757500D03*
X185039000Y-94297500D03*
X185039000Y-91757500D03*
X182499000Y-94297500D03*
X182499000Y-91757500D03*
X179959000Y-94297500D03*
X179959000Y-91757500D03*
X177419000Y-94297500D03*
X177419000Y-91757500D03*
X174879000Y-94297500D03*
X174879000Y-91757500D03*
X172339000Y-94297500D03*
X172339000Y-91757500D03*
X169799000Y-94297500D03*
X169799000Y-91757500D03*
X167259000Y-94297500D03*
X167259000Y-91757500D03*
X164719000Y-94297500D03*
X164719000Y-91757500D03*
X162179000Y-94297500D03*
X162179000Y-91757500D03*
X159639000Y-94297500D03*
X159639000Y-91757500D03*
X157099000Y-94297500D03*
X157099000Y-91757500D03*
X154559000Y-94297500D03*
X154559000Y-91757500D03*
X152019000Y-94297500D03*
X152019000Y-91757500D03*
X149479000Y-94297500D03*
X149479000Y-91757500D03*
X146939000Y-94297500D03*
X146939000Y-91757500D03*
D13*
X187939840Y-109827440D03*
X185399840Y-109827440D03*
X182859840Y-109827440D03*
X180319840Y-109827440D03*
X177779840Y-109827440D03*
X175239840Y-109827440D03*
X172699840Y-109827440D03*
X170159840Y-109827440D03*
X167619840Y-109827440D03*
X165079840Y-109827440D03*
X162539840Y-109827440D03*
X159999840Y-109827440D03*
X157459840Y-109827440D03*
X154919840Y-109827440D03*
X152379840Y-109827440D03*
X149839840Y-109827440D03*
X147299840Y-109827440D03*
X144759840Y-109827440D03*
X142219840Y-109827440D03*
X139679840Y-109827440D03*
X137139840Y-109827440D03*
X134599840Y-109827440D03*
X132059840Y-109827440D03*
X129519840Y-109827440D03*
X126979840Y-109827440D03*
D14*
X115951000Y-101346000D03*
X117851000Y-101346000D03*
D15*
X120502000Y-52324000D03*
X122702000Y-52324000D03*
X120502000Y-54038500D03*
X122702000Y-54038500D03*
X120502000Y-55753000D03*
X122702000Y-55753000D03*
X120228000Y-101346000D03*
X122428000Y-101346000D03*
X117878000Y-97218500D03*
X120078000Y-97218500D03*
D16*
X126710000Y-62839600D03*
X126710000Y-64109600D03*
X126710000Y-65379600D03*
X126710000Y-66649600D03*
X126710000Y-67919600D03*
X126710000Y-69189600D03*
X126710000Y-70459600D03*
X121310000Y-70459600D03*
X121310000Y-69189600D03*
X121310000Y-67919600D03*
X121310000Y-66649600D03*
X121310000Y-65379600D03*
X121310000Y-64109600D03*
X121310000Y-62839600D03*
D17*
X137922000Y-86412800D03*
X136652000Y-86412800D03*
X135382000Y-86412800D03*
X134112000Y-86412800D03*
X132842000Y-86412800D03*
X131572000Y-86412800D03*
X130302000Y-86412800D03*
X129032000Y-86412800D03*
X127762000Y-86412800D03*
X126492000Y-86412800D03*
X126492000Y-77012800D03*
X127762000Y-77012800D03*
X129032000Y-77012800D03*
X130302000Y-77012800D03*
X131572000Y-77012800D03*
X132842000Y-77012800D03*
X134112000Y-77012800D03*
X135382000Y-77012800D03*
X136652000Y-77012800D03*
X137922000Y-77012800D03*
D18*
X121869000Y-86463600D03*
X120599000Y-86463600D03*
X119329000Y-86463600D03*
X118059000Y-86463600D03*
X116789000Y-86463600D03*
X115519000Y-86463600D03*
X114249000Y-86463600D03*
X112979000Y-86463600D03*
X111709000Y-86463600D03*
X110439000Y-86463600D03*
X109169000Y-86463600D03*
X107899000Y-86463600D03*
X107899000Y-77063600D03*
X109169000Y-77063600D03*
X110439000Y-77063600D03*
X111709000Y-77063600D03*
X112979000Y-77063600D03*
X114249000Y-77063600D03*
X115519000Y-77063600D03*
X116789000Y-77063600D03*
X118059000Y-77063600D03*
X119329000Y-77063600D03*
X120599000Y-77063600D03*
X121869000Y-77063600D03*
D11*
X108331000Y-52768500D03*
D12*
X108331000Y-55308500D03*
X108331000Y-57848500D03*
X108331000Y-60388500D03*
D19*
X111799800Y-78676800D03*
X137952500Y-81010400D03*
X123295600Y-80393300D03*
X133804400Y-99775600D03*
X130952900Y-103788200D03*
X143933500Y-101011400D03*
X139590400Y-101494400D03*
X115431500Y-79667800D03*
X113875800Y-74979100D03*
X111820900Y-74072000D03*
X144902900Y-93668000D03*
X129145500Y-78943800D03*
X112709400Y-75045100D03*
X117441700Y-79899700D03*
X119567800Y-79883600D03*
X112864900Y-79684100D03*
X119954900Y-84908700D03*
X115045300Y-74092200D03*
X131486400Y-68222600D03*
X130897100Y-69403900D03*
X141782500Y-86273800D03*
X170360300Y-96882600D03*
X157217400Y-101711700D03*
X155625600Y-102973800D03*
X171081000Y-104093500D03*
X153414900Y-102337100D03*
X142079100Y-97976200D03*
X168519600Y-99851000D03*
X160469800Y-89230300D03*
X167883800Y-104840900D03*
X176144200Y-82476800D03*
X162464500Y-96690300D03*
X137259900Y-79821400D03*
X157735300Y-103517500D03*
X160480400Y-100210800D03*
X154489100Y-84333300D03*
X134748700Y-87950300D03*
X157737300Y-104857300D03*
X135179700Y-73382500D03*
X131844300Y-73480300D03*
X156797300Y-105290800D03*
X123921000Y-75940400D03*
X118581300Y-73472600D03*
X138742700Y-99776500D03*
X116803500Y-73684000D03*
X119873300Y-82893500D03*
X116824400Y-82814200D03*
X128204500Y-98699900D03*
X137459600Y-102543000D03*
X143748100Y-105458600D03*
X113570200Y-88061000D03*
X111813100Y-89112500D03*
X137474800Y-89657400D03*
X118027000Y-84927300D03*
X135016400Y-103498100D03*
X173700200Y-85133500D03*
X124921000Y-69925300D03*
X160460200Y-84958700D03*
X139175000Y-76586900D03*
X149236400Y-88425100D03*
X128925700Y-75380200D03*
X141262000Y-96239800D03*
X171684500Y-99142800D03*
X132996000Y-90235400D03*
X123960600Y-53953900D03*
X122321700Y-100279900D03*
X142765200Y-94024000D03*
X121518600Y-98539600D03*
X120265800Y-56805600D03*
X118767000Y-54053000D03*
X118734400Y-52324000D03*
X117902700Y-53188500D03*
X125844000Y-84389600D03*
X118708700Y-68275100D03*
X125345800Y-65294000D03*
X172979100Y-85655300D03*
X117262000Y-98534500D03*
X165628100Y-83396500D03*
X163186400Y-83412700D03*
D20*
X188943700Y-92115000D02*
X188943700Y-91757500D01*
X187936500Y-93122200D02*
X188943700Y-92115000D01*
X187022200Y-93122200D02*
X187936500Y-93122200D01*
X186214300Y-93930100D02*
X187022200Y-93122200D01*
X186214300Y-94297500D02*
X186214300Y-93930100D01*
X185039000Y-94297500D02*
X186214300Y-94297500D01*
X190119000Y-91757500D02*
X188943700Y-91757500D01*
X107899000Y-86463600D02*
X107899000Y-85800900D01*
X107899000Y-77063600D02*
X107899000Y-78388900D01*
X107923500Y-78388900D02*
X108561600Y-79027000D01*
X107899000Y-78388900D02*
X107923500Y-78388900D01*
X109223700Y-87788900D02*
X109169000Y-87788900D01*
X117878000Y-96443200D02*
X109223700Y-87788900D01*
X115951000Y-98220200D02*
X115951000Y-101346000D01*
X116952700Y-97218500D02*
X115951000Y-98220200D01*
X117878000Y-97218500D02*
X116952700Y-97218500D01*
X109169000Y-86463600D02*
X109169000Y-87788900D01*
X117878000Y-97218500D02*
X117878000Y-96555800D01*
X117878000Y-96555800D02*
X117878000Y-96443200D01*
X108561600Y-85138300D02*
X109169000Y-85138300D01*
X108561600Y-79027000D02*
X108561600Y-85138300D01*
X108561600Y-85138300D02*
X107899000Y-85800900D01*
X109169000Y-86463600D02*
X109169000Y-85138300D01*
X137922000Y-86412800D02*
X137922000Y-87713100D01*
X146939000Y-94297500D02*
X145763700Y-94297500D01*
X108911800Y-78676800D02*
X111799800Y-78676800D01*
X108561600Y-79027000D02*
X108911800Y-78676800D01*
X134863800Y-109827400D02*
X137403800Y-109827400D01*
X144506400Y-94297500D02*
X137922000Y-87713100D01*
X145763700Y-94297500D02*
X144506400Y-94297500D01*
X136652000Y-77012800D02*
X136652000Y-78313100D01*
X171971600Y-92932800D02*
X172339000Y-92932800D01*
X171163700Y-93740700D02*
X171971600Y-92932800D01*
X171163700Y-94595100D02*
X171163700Y-93740700D01*
X170255200Y-95503600D02*
X171163700Y-94595100D01*
X166733100Y-95503600D02*
X170255200Y-95503600D01*
X165894300Y-94664800D02*
X166733100Y-95503600D01*
X165894300Y-94297500D02*
X165894300Y-94664800D01*
X164719000Y-94297500D02*
X165894300Y-94297500D01*
X172339000Y-91757500D02*
X172339000Y-92932800D01*
X136652000Y-77012800D02*
X136652000Y-75712500D01*
X126710000Y-70459600D02*
X127785300Y-70459600D01*
X126710000Y-70459600D02*
X125634700Y-70459600D01*
X154559000Y-91757500D02*
X154559000Y-90582200D01*
X126492000Y-83589700D02*
X123295600Y-80393300D01*
X126492000Y-86412800D02*
X126492000Y-83589700D01*
X125634700Y-71096500D02*
X125634700Y-70459600D01*
X123295600Y-73435600D02*
X125634700Y-71096500D01*
X123295600Y-80393300D02*
X123295600Y-73435600D01*
X134863800Y-106814500D02*
X134863800Y-109827400D01*
X130829800Y-102780500D02*
X134863800Y-106814500D01*
X127210300Y-102780500D02*
X130829800Y-102780500D01*
X120873000Y-96443200D02*
X127210300Y-102780500D01*
X117878000Y-96443200D02*
X120873000Y-96443200D01*
X137562100Y-81010400D02*
X137952500Y-81010400D01*
X136583100Y-80031400D02*
X137562100Y-81010400D01*
X136583100Y-78382000D02*
X136583100Y-80031400D01*
X136652000Y-78313100D02*
X136583100Y-78382000D01*
X135738800Y-75712500D02*
X136652000Y-75712500D01*
X130936200Y-70909900D02*
X135738800Y-75712500D01*
X128235600Y-70909900D02*
X130936200Y-70909900D01*
X127785300Y-70459600D02*
X128235600Y-70909900D01*
X107899000Y-61956800D02*
X107899000Y-77063600D01*
X107506000Y-61563800D02*
X107899000Y-61956800D01*
X138494600Y-81010400D02*
X137952500Y-81010400D01*
X142920500Y-85436300D02*
X138494600Y-81010400D01*
X149413100Y-85436300D02*
X142920500Y-85436300D01*
X154559000Y-90582200D02*
X149413100Y-85436300D01*
D21*
X121869000Y-86463600D02*
X121869000Y-87863900D01*
X132323800Y-109827400D02*
X132323800Y-105427100D01*
X129783800Y-109827400D02*
X129783800Y-105427100D01*
X130825400Y-96796600D02*
X133804400Y-99775600D01*
X128090400Y-96796600D02*
X130825400Y-96796600D01*
X121869000Y-90575200D02*
X128090400Y-96796600D01*
X121869000Y-87863900D02*
X121869000Y-90575200D01*
X130952900Y-105427100D02*
X130952900Y-103788200D01*
X129783800Y-105427100D02*
X130952900Y-105427100D01*
X130952900Y-105427100D02*
X132323800Y-105427100D01*
X140073400Y-101011400D02*
X143933500Y-101011400D01*
X139590400Y-101494400D02*
X140073400Y-101011400D01*
D20*
X108331000Y-55308500D02*
X108331000Y-55689500D01*
X108331000Y-55689500D02*
X115697000Y-63055500D01*
X115697000Y-63055500D02*
X115697000Y-64516000D01*
X115697000Y-64516000D02*
X115671400Y-64516000D01*
X115519000Y-77063600D02*
X115519000Y-78388900D01*
X115671400Y-75585900D02*
X115519000Y-75738300D01*
X115671400Y-64281900D02*
X115671400Y-64516000D01*
X115671400Y-64516000D02*
X115671400Y-75585900D01*
X115519000Y-77063600D02*
X115519000Y-75738300D01*
X115431500Y-78476400D02*
X115431500Y-79667800D01*
X115519000Y-78388900D02*
X115431500Y-78476400D01*
X113116600Y-75738300D02*
X111709000Y-75738300D01*
X113875800Y-74979100D02*
X113116600Y-75738300D01*
X111709000Y-77063600D02*
X111709000Y-75738300D01*
X110835300Y-74072000D02*
X111820900Y-74072000D01*
X109169000Y-75738300D02*
X110835300Y-74072000D01*
X109169000Y-77063600D02*
X109169000Y-75738300D01*
X139023100Y-87788200D02*
X144902900Y-93668000D01*
X139023100Y-85767300D02*
X139023100Y-87788200D01*
X137200600Y-83944800D02*
X139023100Y-85767300D01*
X136688800Y-83944800D02*
X137200600Y-83944800D01*
X131687800Y-78943800D02*
X136688800Y-83944800D01*
X129145500Y-78943800D02*
X131687800Y-78943800D01*
X110439000Y-77063600D02*
X110439000Y-75738300D01*
X111132200Y-75045100D02*
X112709400Y-75045100D01*
X110439000Y-75738300D02*
X111132200Y-75045100D01*
X116789000Y-79247000D02*
X117441700Y-79899700D01*
X116789000Y-77063600D02*
X116789000Y-79247000D01*
X118059000Y-77063600D02*
X118059000Y-78388900D01*
X118073100Y-78388900D02*
X119567800Y-79883600D01*
X118059000Y-78388900D02*
X118073100Y-78388900D01*
X114324300Y-65532000D02*
X114324300Y-64159300D01*
X114324300Y-64159300D02*
X114300000Y-64135000D01*
X107886500Y-59118500D02*
X109283500Y-59118500D01*
X114249000Y-75738300D02*
X114249000Y-75490300D01*
X114249000Y-75490300D02*
X114501100Y-75238200D01*
X114501100Y-75238200D02*
X114501100Y-74514800D01*
X114501100Y-74514800D02*
X114324300Y-74338000D01*
X114324300Y-74338000D02*
X114324300Y-65532000D01*
X114249000Y-75738300D02*
X114249000Y-77063600D01*
X109283500Y-59118500D02*
X114300000Y-64135000D01*
X107506000Y-53911500D02*
X107506000Y-53593500D01*
X107506000Y-53593500D02*
X108331000Y-52768500D01*
X114249000Y-78388900D02*
X114160100Y-78388900D01*
X114160100Y-78388900D02*
X112864900Y-79684100D01*
X114249000Y-77063600D02*
X114249000Y-78388900D01*
X107506000Y-53911500D02*
X107506000Y-53943800D01*
X107138700Y-53943800D02*
X107506000Y-53943800D01*
X106327600Y-54754900D02*
X107138700Y-53943800D01*
X106327600Y-58357400D02*
X106327600Y-54754900D01*
X107088700Y-59118500D02*
X106327600Y-58357400D01*
X107922700Y-59118500D02*
X107886500Y-59118500D01*
X107886500Y-59118500D02*
X107088700Y-59118500D01*
X112979000Y-77063600D02*
X112979000Y-78388900D01*
X112551500Y-80326800D02*
X114795700Y-80326800D01*
X112206200Y-79981500D02*
X112551500Y-80326800D01*
X112206200Y-79161700D02*
X112206200Y-79981500D01*
X112979000Y-78388900D02*
X112206200Y-79161700D01*
X115373000Y-80326800D02*
X119954900Y-84908700D01*
X114795700Y-80326800D02*
X115373000Y-80326800D01*
X115045300Y-75378100D02*
X115045300Y-74092200D01*
X114884700Y-75538700D02*
X115045300Y-75378100D01*
X114884700Y-79327600D02*
X114884700Y-75538700D01*
X114795700Y-79416600D02*
X114884700Y-79327600D01*
X114795700Y-80326800D02*
X114795700Y-79416600D01*
X182640700Y-105488200D02*
X182992300Y-105488200D01*
X191389000Y-96456500D02*
X191294600Y-96456500D01*
X191294600Y-96550900D02*
X191389000Y-96456500D01*
X191294600Y-97185900D02*
X191294600Y-96550900D01*
X182992300Y-105488200D02*
X191294600Y-97185900D01*
X121310000Y-70459600D02*
X120234700Y-70459600D01*
X180583800Y-109827400D02*
X180583800Y-105502100D01*
X119784400Y-70009300D02*
X120234700Y-70459600D01*
X119784400Y-62612400D02*
X119784400Y-70009300D01*
X121427400Y-60969400D02*
X119784400Y-62612400D01*
X121427400Y-52072800D02*
X121427400Y-60969400D01*
X121951600Y-51548600D02*
X121427400Y-52072800D01*
X123514900Y-51548600D02*
X121951600Y-51548600D01*
X144026900Y-72060600D02*
X123514900Y-51548600D01*
X144026900Y-80004200D02*
X144026900Y-72060600D01*
X144939600Y-80916900D02*
X144026900Y-80004200D01*
X180999000Y-80916900D02*
X144939600Y-80916900D01*
X191294600Y-91212500D02*
X180999000Y-80916900D01*
X191294600Y-96456500D02*
X191294600Y-91212500D01*
X182626800Y-105502100D02*
X182640700Y-105488200D01*
X180583800Y-105502100D02*
X182626800Y-105502100D01*
X127785300Y-64521500D02*
X127785300Y-64109600D01*
X131486400Y-68222600D02*
X127785300Y-64521500D01*
X126710000Y-64109600D02*
X127785300Y-64109600D01*
X128142800Y-66649600D02*
X130897100Y-69403900D01*
X126710000Y-66649600D02*
X128142800Y-66649600D01*
X170360300Y-99905000D02*
X170360300Y-96882600D01*
X175503800Y-105048500D02*
X170360300Y-99905000D01*
X175503800Y-109827400D02*
X175503800Y-105048500D01*
X141522000Y-86273800D02*
X141782500Y-86273800D01*
X134112000Y-78863800D02*
X141522000Y-86273800D01*
X134112000Y-77012800D02*
X134112000Y-78863800D01*
X131572000Y-77012800D02*
X131572000Y-75712500D01*
X153289000Y-97783300D02*
X157217400Y-101711700D01*
X153289000Y-93883300D02*
X153289000Y-97783300D01*
X152466600Y-93060900D02*
X153289000Y-93883300D01*
X151621400Y-93060900D02*
X152466600Y-93060900D01*
X150843600Y-92283100D02*
X151621400Y-93060900D01*
X150843600Y-91456900D02*
X150843600Y-92283100D01*
X148437100Y-89050400D02*
X150843600Y-91456900D01*
X145897700Y-89050400D02*
X148437100Y-89050400D01*
X142415100Y-85567800D02*
X145897700Y-89050400D01*
X141477400Y-85567800D02*
X142415100Y-85567800D01*
X134739200Y-78829600D02*
X141477400Y-85567800D01*
X134739200Y-75893200D02*
X134739200Y-78829600D01*
X134558500Y-75712500D02*
X134739200Y-75893200D01*
X131572000Y-75712500D02*
X134558500Y-75712500D01*
X172489600Y-105502100D02*
X171081000Y-104093500D01*
X172963800Y-105502100D02*
X172489600Y-105502100D01*
X172963800Y-109827400D02*
X172963800Y-105502100D01*
X131572000Y-86412800D02*
X131572000Y-87713100D01*
X131995000Y-87713100D02*
X131572000Y-87713100D01*
X134071600Y-89789700D02*
X131995000Y-87713100D01*
X134071600Y-89936700D02*
X134071600Y-89789700D01*
X141037500Y-96902600D02*
X134071600Y-89936700D01*
X149663800Y-96902600D02*
X141037500Y-96902600D01*
X155625600Y-102864400D02*
X149663800Y-96902600D01*
X155625600Y-102973800D02*
X155625600Y-102864400D01*
X129032000Y-86412800D02*
X129032000Y-87713100D01*
X150439500Y-99361700D02*
X153414900Y-102337100D01*
X140479300Y-99361700D02*
X150439500Y-99361700D01*
X129032000Y-87914400D02*
X140479300Y-99361700D01*
X129032000Y-87713100D02*
X129032000Y-87914400D01*
X170423800Y-109827400D02*
X170423800Y-105502100D01*
X170423800Y-101755200D02*
X168519600Y-99851000D01*
X170423800Y-105502100D02*
X170423800Y-101755200D01*
X126492000Y-78909400D02*
X126492000Y-77012800D01*
X130946600Y-83364000D02*
X126492000Y-78909400D01*
X130946600Y-87725500D02*
X130946600Y-83364000D01*
X132712800Y-89491700D02*
X130946600Y-87725500D01*
X133136700Y-89491700D02*
X132712800Y-89491700D01*
X133621300Y-89976300D02*
X133136700Y-89491700D01*
X133621300Y-90133800D02*
X133621300Y-89976300D01*
X141463700Y-97976200D02*
X133621300Y-90133800D01*
X142079100Y-97976200D02*
X141463700Y-97976200D01*
X167883800Y-109827400D02*
X167883800Y-105502100D01*
X161325500Y-89230300D02*
X160469800Y-89230300D01*
X163449000Y-91353800D02*
X161325500Y-89230300D01*
X163449000Y-101290500D02*
X163449000Y-91353800D01*
X167660600Y-105502100D02*
X163449000Y-101290500D01*
X167883800Y-105502100D02*
X167660600Y-105502100D01*
X183680100Y-90012700D02*
X176144200Y-82476800D01*
X183680100Y-94783100D02*
X183680100Y-90012700D01*
X182245700Y-96217500D02*
X183680100Y-94783100D01*
X170134700Y-96217500D02*
X182245700Y-96217500D01*
X167883800Y-98468400D02*
X170134700Y-96217500D01*
X167883800Y-104840900D02*
X167883800Y-98468400D01*
X162464500Y-102622800D02*
X162464500Y-96690300D01*
X165343800Y-105502100D02*
X162464500Y-102622800D01*
X165343800Y-109827400D02*
X165343800Y-105502100D01*
X157861100Y-103391700D02*
X157735300Y-103517500D01*
X157861100Y-97440400D02*
X157861100Y-103391700D01*
X155829000Y-95408300D02*
X157861100Y-97440400D01*
X155829000Y-91147900D02*
X155829000Y-95408300D01*
X149396200Y-84715100D02*
X155829000Y-91147900D01*
X142991600Y-84715100D02*
X149396200Y-84715100D01*
X138097900Y-79821400D02*
X142991600Y-84715100D01*
X137259900Y-79821400D02*
X138097900Y-79821400D01*
X162803800Y-109827400D02*
X162803800Y-105502100D01*
X160480400Y-103178700D02*
X160480400Y-100210800D01*
X162803800Y-105502100D02*
X160480400Y-103178700D01*
X160263800Y-109827400D02*
X160263800Y-105502100D01*
X160856100Y-90700300D02*
X154489100Y-84333300D01*
X160856100Y-96618900D02*
X160856100Y-90700300D01*
X159853000Y-97622000D02*
X160856100Y-96618900D01*
X159853000Y-105091300D02*
X159853000Y-97622000D01*
X160263800Y-105502100D02*
X159853000Y-105091300D01*
X156420900Y-103540900D02*
X157737300Y-104857300D01*
X156420900Y-102884000D02*
X156420900Y-103540900D01*
X149913200Y-96376300D02*
X156420900Y-102884000D01*
X142944300Y-96376300D02*
X149913200Y-96376300D01*
X140749300Y-94181300D02*
X142944300Y-96376300D01*
X139840400Y-94181300D02*
X140749300Y-94181300D01*
X134748700Y-89089600D02*
X139840400Y-94181300D01*
X134748700Y-87950300D02*
X134748700Y-89089600D01*
X157723800Y-109827400D02*
X157723800Y-105502100D01*
X136026800Y-73382500D02*
X135179700Y-73382500D01*
X138547300Y-75903000D02*
X136026800Y-73382500D01*
X138547300Y-79116000D02*
X138547300Y-75903000D01*
X143696000Y-84264700D02*
X138547300Y-79116000D01*
X151288700Y-84264700D02*
X143696000Y-84264700D01*
X158395400Y-91371400D02*
X151288700Y-84264700D01*
X158395400Y-105103800D02*
X158395400Y-91371400D01*
X157997100Y-105502100D02*
X158395400Y-105103800D01*
X157723800Y-105502100D02*
X157997100Y-105502100D01*
X128239200Y-73480300D02*
X131844300Y-73480300D01*
X125849300Y-75870200D02*
X128239200Y-73480300D01*
X125849300Y-80263000D02*
X125849300Y-75870200D01*
X129666900Y-84080600D02*
X125849300Y-80263000D01*
X129666900Y-87861700D02*
X129666900Y-84080600D01*
X140430400Y-98625200D02*
X129666900Y-87861700D01*
X150658800Y-98625200D02*
X140430400Y-98625200D01*
X154474300Y-102440700D02*
X150658800Y-98625200D01*
X154474300Y-102967800D02*
X154474300Y-102440700D01*
X156797300Y-105290800D02*
X154474300Y-102967800D01*
X155183800Y-109827400D02*
X155183800Y-105502100D01*
X149571000Y-99889300D02*
X155183800Y-105502100D01*
X140160400Y-99889300D02*
X149571000Y-99889300D01*
X129822200Y-89551100D02*
X140160400Y-99889300D01*
X129081200Y-89551100D02*
X129822200Y-89551100D01*
X127117400Y-87587300D02*
X129081200Y-89551100D01*
X127117400Y-82206400D02*
X127117400Y-87587300D01*
X123921000Y-79010000D02*
X127117400Y-82206400D01*
X123921000Y-75940400D02*
X123921000Y-79010000D01*
X130164902Y-90530200D02*
X130164902Y-90555502D01*
X118581300Y-73472600D02*
X118684400Y-73575700D01*
X118684400Y-73575700D02*
X118684400Y-78193200D01*
X118684400Y-78193200D02*
X118880200Y-78389000D01*
X118880200Y-78389000D02*
X118989400Y-78389000D01*
X118989400Y-78389000D02*
X124114500Y-83514100D01*
X124114500Y-83514100D02*
X124114500Y-85782400D01*
X124114500Y-85782400D02*
X128862300Y-90530200D01*
X128862300Y-90530200D02*
X130027200Y-90530200D01*
X130027200Y-90530200D02*
X130164902Y-90530200D01*
X130164902Y-90555502D02*
X130673300Y-91063900D01*
X138742700Y-99133300D02*
X138742700Y-99776500D01*
X130673300Y-91063900D02*
X138742700Y-99133300D01*
X152643800Y-109827400D02*
X152643800Y-105502100D01*
X117423800Y-74304300D02*
X116803500Y-73684000D01*
X117423800Y-78908000D02*
X117423800Y-74304300D01*
X122572700Y-84056900D02*
X117423800Y-78908000D01*
X122572700Y-90527500D02*
X122572700Y-84056900D01*
X128316500Y-96271300D02*
X122572700Y-90527500D01*
X133467400Y-96271300D02*
X128316500Y-96271300D01*
X139789400Y-102593300D02*
X133467400Y-96271300D01*
X149735000Y-102593300D02*
X139789400Y-102593300D01*
X152643800Y-105502100D02*
X149735000Y-102593300D01*
X150103800Y-109827400D02*
X150103800Y-105502100D01*
X121224300Y-84244500D02*
X119873300Y-82893500D01*
X121224300Y-90682800D02*
X121224300Y-84244500D01*
X127863500Y-97322000D02*
X121224300Y-90682800D01*
X130466600Y-97322000D02*
X127863500Y-97322000D01*
X130466600Y-97322100D02*
X130466600Y-97322000D01*
X133545400Y-100400900D02*
X130466600Y-97322100D01*
X136960100Y-100400900D02*
X133545400Y-100400900D01*
X139760000Y-103200800D02*
X136960100Y-100400900D01*
X147802500Y-103200800D02*
X139760000Y-103200800D01*
X150103800Y-105502100D02*
X147802500Y-103200800D01*
X118684300Y-84674100D02*
X116824400Y-82814200D01*
X118684300Y-89431100D02*
X118684300Y-84674100D01*
X127953100Y-98699900D02*
X118684300Y-89431100D01*
X128204500Y-98699900D02*
X127953100Y-98699900D01*
X147563800Y-109827400D02*
X147563800Y-105502100D01*
X119329000Y-86463600D02*
X119329000Y-87788900D01*
X145712800Y-103651100D02*
X147563800Y-105502100D01*
X139491800Y-103651100D02*
X145712800Y-103651100D01*
X136691900Y-100851200D02*
X139491800Y-103651100D01*
X133358800Y-100851200D02*
X136691900Y-100851200D01*
X130505000Y-97997400D02*
X133358800Y-100851200D01*
X127902000Y-97997400D02*
X130505000Y-97997400D01*
X119329000Y-89424400D02*
X127902000Y-97997400D01*
X119329000Y-87788900D02*
X119329000Y-89424400D01*
X134413700Y-102543000D02*
X137459600Y-102543000D01*
X131453500Y-99582800D02*
X134413700Y-102543000D01*
X128199100Y-99582800D02*
X131453500Y-99582800D01*
X118059000Y-89442700D02*
X128199100Y-99582800D01*
X118059000Y-86463600D02*
X118059000Y-89442700D01*
X145023800Y-109827400D02*
X145023800Y-105502100D01*
X116789000Y-86463600D02*
X116789000Y-87788900D01*
X143672900Y-104151200D02*
X145023800Y-105502100D01*
X134748100Y-104151200D02*
X143672900Y-104151200D01*
X131482700Y-100885800D02*
X134748100Y-104151200D01*
X128228300Y-100885800D02*
X131482700Y-100885800D01*
X116789000Y-89446500D02*
X128228300Y-100885800D01*
X116789000Y-87788900D02*
X116789000Y-89446500D01*
X142891000Y-104601500D02*
X143748100Y-105458600D01*
X134561500Y-104601500D02*
X142891000Y-104601500D01*
X131296100Y-101336100D02*
X134561500Y-104601500D01*
X128041700Y-101336100D02*
X131296100Y-101336100D01*
X115519000Y-88813400D02*
X128041700Y-101336100D01*
X115519000Y-86463600D02*
X115519000Y-88813400D01*
X142483800Y-109827400D02*
X142483800Y-105502100D01*
X114249000Y-86463600D02*
X114249000Y-87788900D01*
X142033500Y-105051800D02*
X142483800Y-105502100D01*
X134374900Y-105051800D02*
X142033500Y-105051800D01*
X131109500Y-101786400D02*
X134374900Y-105051800D01*
X127855100Y-101786400D02*
X131109500Y-101786400D01*
X114249000Y-88180300D02*
X127855100Y-101786400D01*
X114249000Y-87788900D02*
X114249000Y-88180300D01*
X113298100Y-87788900D02*
X113570200Y-88061000D01*
X112979000Y-87788900D02*
X113298100Y-87788900D01*
X112979000Y-86463600D02*
X112979000Y-87788900D01*
X139943800Y-109827400D02*
X139943800Y-105502100D01*
X111709000Y-86463600D02*
X111709000Y-87788900D01*
X134188300Y-105502100D02*
X139943800Y-105502100D01*
X130922900Y-102236700D02*
X134188300Y-105502100D01*
X127423000Y-102236700D02*
X130922900Y-102236700D01*
X120745100Y-95558800D02*
X127423000Y-102236700D01*
X119478900Y-95558800D02*
X120745100Y-95558800D01*
X111709000Y-87788900D02*
X119478900Y-95558800D01*
X110489500Y-87788900D02*
X111813100Y-89112500D01*
X110439000Y-87788900D02*
X110489500Y-87788900D01*
X110439000Y-86463600D02*
X110439000Y-87788900D01*
X134731900Y-103498100D02*
X135016400Y-103498100D01*
X131669300Y-100435500D02*
X134731900Y-103498100D01*
X128414900Y-100435500D02*
X131669300Y-100435500D01*
X117414700Y-89435300D02*
X128414900Y-100435500D01*
X117414700Y-85345300D02*
X117414700Y-89435300D01*
X117832700Y-84927300D02*
X117414700Y-85345300D01*
X118027000Y-84927300D02*
X117832700Y-84927300D01*
X136652000Y-88834600D02*
X136652000Y-86412800D01*
X137474800Y-89657400D02*
X136652000Y-88834600D01*
X122702000Y-55753000D02*
X122702000Y-56528300D01*
X122702000Y-55753000D02*
X122702000Y-54038500D01*
X122702000Y-54038500D02*
X122702000Y-52324000D01*
X121310000Y-62839600D02*
X122385300Y-62839600D01*
X123869900Y-61355000D02*
X122385300Y-62839600D01*
X122702000Y-60187100D02*
X122702000Y-56528300D01*
X123869900Y-61355000D02*
X122702000Y-60187100D01*
X121310000Y-62839600D02*
X120234700Y-62839600D01*
X174879000Y-94297500D02*
X176054300Y-94297500D01*
X175055900Y-85133500D02*
X173700200Y-85133500D01*
X181142700Y-91220300D02*
X175055900Y-85133500D01*
X181142700Y-94868500D02*
X181142700Y-91220300D01*
X180538400Y-95472800D02*
X181142700Y-94868500D01*
X176862200Y-95472800D02*
X180538400Y-95472800D01*
X176054300Y-94664900D02*
X176862200Y-95472800D01*
X176054300Y-94297500D02*
X176054300Y-94664900D01*
X123658300Y-71188000D02*
X124921000Y-69925300D01*
X122971700Y-70501500D02*
X123658300Y-71188000D01*
X122971600Y-70501500D02*
X122971700Y-70501500D01*
X122285100Y-69815000D02*
X122971600Y-70501500D01*
X120425200Y-69815000D02*
X122285100Y-69815000D01*
X120234700Y-69624500D02*
X120425200Y-69815000D01*
X120234700Y-62839600D02*
X120234700Y-69624500D01*
X120599000Y-77063600D02*
X120599000Y-75738300D01*
X121869000Y-75738300D02*
X120599000Y-75738300D01*
X121869000Y-73907000D02*
X121869000Y-75738300D01*
X123658300Y-72117700D02*
X121869000Y-73907000D01*
X123658300Y-71188100D02*
X123658300Y-72117700D01*
X123658300Y-71188000D02*
X123658300Y-71188100D01*
X121869000Y-75738300D02*
X121869000Y-77063600D01*
X126993300Y-61355000D02*
X123869900Y-61355000D01*
X142450900Y-76812600D02*
X126993300Y-61355000D01*
X142450900Y-79721600D02*
X142450900Y-76812600D01*
X144557700Y-81828400D02*
X142450900Y-79721600D01*
X170395100Y-81828400D02*
X144557700Y-81828400D01*
X173700200Y-85133500D02*
X170395100Y-81828400D01*
X137922000Y-76293100D02*
X137922000Y-77012800D01*
X136845500Y-75216600D02*
X137922000Y-76293100D01*
X135879800Y-75216600D02*
X136845500Y-75216600D01*
X130897700Y-70234500D02*
X135879800Y-75216600D01*
X130712300Y-70234500D02*
X130897700Y-70234500D01*
X130312000Y-69834200D02*
X130712300Y-70234500D01*
X125012100Y-69834200D02*
X130312000Y-69834200D01*
X124921000Y-69925300D02*
X125012100Y-69834200D01*
X167259000Y-91757500D02*
X160460200Y-84958700D01*
X167259000Y-94297500D02*
X167259000Y-93122200D01*
X139175000Y-79022100D02*
X139175000Y-76586900D01*
X143860900Y-83708000D02*
X139175000Y-79022100D01*
X154748200Y-83708000D02*
X143860900Y-83708000D01*
X157441500Y-86401300D02*
X154748200Y-83708000D01*
X161099000Y-86401300D02*
X157441500Y-86401300D01*
X166083700Y-91386000D02*
X161099000Y-86401300D01*
X166083700Y-92314300D02*
X166083700Y-91386000D01*
X166891600Y-93122200D02*
X166083700Y-92314300D01*
X167259000Y-93122200D02*
X166891600Y-93122200D01*
X154559000Y-94297500D02*
X154559000Y-93122200D01*
X150358000Y-88425100D02*
X149236400Y-88425100D01*
X153383700Y-91450800D02*
X150358000Y-88425100D01*
X153383700Y-92314300D02*
X153383700Y-91450800D01*
X154191600Y-93122200D02*
X153383700Y-92314300D01*
X154559000Y-93122200D02*
X154191600Y-93122200D01*
X128925700Y-75606200D02*
X128925700Y-75380200D01*
X129032000Y-75712500D02*
X128925700Y-75606200D01*
X129032000Y-77012800D02*
X129032000Y-75712500D01*
X178043800Y-109827400D02*
X178043800Y-105502100D01*
X134112000Y-86412800D02*
X134112000Y-87713100D01*
X178043800Y-105502100D02*
X171684500Y-99142800D01*
X134112000Y-89089800D02*
X134112000Y-87713100D01*
X141262000Y-96239800D02*
X134112000Y-89089800D01*
X130302000Y-87755400D02*
X130302000Y-86412800D01*
X132782000Y-90235400D02*
X130302000Y-87755400D01*
X132996000Y-90235400D02*
X132782000Y-90235400D01*
X182499000Y-91757500D02*
X182499000Y-90582200D01*
X143576500Y-73569800D02*
X123960600Y-53953900D01*
X143576500Y-80190700D02*
X143576500Y-73569800D01*
X144763900Y-81378100D02*
X143576500Y-80190700D01*
X173294900Y-81378100D02*
X144763900Y-81378100D01*
X182499000Y-90582200D02*
X173294900Y-81378100D01*
X122428000Y-100386200D02*
X122428000Y-101346000D01*
X122321700Y-100279900D02*
X122428000Y-100386200D01*
X130302000Y-77012800D02*
X130302000Y-75712500D01*
X129335100Y-74745600D02*
X130302000Y-75712500D01*
X128263500Y-74745600D02*
X129335100Y-74745600D01*
X127136600Y-75872500D02*
X128263500Y-74745600D01*
X127136600Y-78372200D02*
X127136600Y-75872500D01*
X130028000Y-81263600D02*
X127136600Y-78372200D01*
X133287600Y-81263600D02*
X130028000Y-81263600D01*
X137296600Y-85272600D02*
X133287600Y-81263600D01*
X137296600Y-88555400D02*
X137296600Y-85272600D01*
X142765200Y-94024000D02*
X137296600Y-88555400D01*
X177419000Y-91757500D02*
X176243700Y-91757500D01*
X176243700Y-91390200D02*
X176243700Y-91757500D01*
X167160800Y-82307300D02*
X176243700Y-91390200D01*
X144386800Y-82307300D02*
X167160800Y-82307300D01*
X142000600Y-79921100D02*
X144386800Y-82307300D01*
X142000600Y-77037700D02*
X142000600Y-79921100D01*
X127802500Y-62839600D02*
X142000600Y-77037700D01*
X126710000Y-62839600D02*
X127802500Y-62839600D01*
X122385300Y-66875500D02*
X122385300Y-69189600D01*
X125786200Y-63474600D02*
X122385300Y-66875500D01*
X127799900Y-63474600D02*
X125786200Y-63474600D01*
X141380100Y-77054800D02*
X127799900Y-63474600D01*
X141380100Y-79953400D02*
X141380100Y-77054800D01*
X144197000Y-82770300D02*
X141380100Y-79953400D01*
X165891800Y-82770300D02*
X144197000Y-82770300D01*
X174879000Y-91757500D02*
X165891800Y-82770300D01*
X121310000Y-69189600D02*
X122385300Y-69189600D01*
X152019000Y-94297500D02*
X150843700Y-94297500D01*
X135382000Y-86412800D02*
X135382000Y-87713100D01*
X150843700Y-94664800D02*
X150843700Y-94297500D01*
X149582500Y-95926000D02*
X150843700Y-94664800D01*
X143130900Y-95926000D02*
X149582500Y-95926000D01*
X138829000Y-91624100D02*
X143130900Y-95926000D01*
X137920100Y-91624100D02*
X138829000Y-91624100D01*
X135382000Y-89086000D02*
X137920100Y-91624100D01*
X135382000Y-87713100D02*
X135382000Y-89086000D01*
X135824200Y-85112500D02*
X132842000Y-85112500D01*
X136026600Y-85314900D02*
X135824200Y-85112500D01*
X136026600Y-89093700D02*
X136026600Y-85314900D01*
X137656400Y-90723500D02*
X136026600Y-89093700D01*
X138565300Y-90723500D02*
X137656400Y-90723500D01*
X143317400Y-95475600D02*
X138565300Y-90723500D01*
X147492900Y-95475600D02*
X143317400Y-95475600D01*
X148303700Y-94664800D02*
X147492900Y-95475600D01*
X148303700Y-94297500D02*
X148303700Y-94664800D01*
X149479000Y-94297500D02*
X148303700Y-94297500D01*
X132842000Y-86412800D02*
X132842000Y-85112500D01*
X127243800Y-109827400D02*
X127243800Y-105502100D01*
X127243800Y-104264800D02*
X121518600Y-98539600D01*
X127243800Y-105502100D02*
X127243800Y-104264800D01*
X120502000Y-55753000D02*
X120502000Y-56528300D01*
X120265800Y-56764500D02*
X120265800Y-56805600D01*
X120502000Y-56528300D02*
X120265800Y-56764500D01*
X118781500Y-54038500D02*
X118767000Y-54053000D01*
X120502000Y-54038500D02*
X118781500Y-54038500D01*
X120502000Y-52324000D02*
X118734400Y-52324000D01*
X119329000Y-76400900D02*
X119329000Y-75738300D01*
X119329000Y-76400900D02*
X119329000Y-77063600D01*
X119334100Y-75733200D02*
X119329000Y-75738300D01*
X119334100Y-66995400D02*
X119334100Y-75733200D01*
X117902700Y-65564000D02*
X119334100Y-66995400D01*
X117902700Y-53188500D02*
X117902700Y-65564000D01*
X119329000Y-77874600D02*
X125844000Y-84389600D01*
X119329000Y-77063600D02*
X119329000Y-77874600D01*
X120599000Y-86463600D02*
X120599000Y-85138300D01*
X125431400Y-65379600D02*
X125345800Y-65294000D01*
X126710000Y-65379600D02*
X125431400Y-65379600D01*
X116163700Y-70820100D02*
X118708700Y-68275100D01*
X116163700Y-80129500D02*
X116163700Y-70820100D01*
X120599000Y-84564800D02*
X116163700Y-80129500D01*
X120599000Y-85138300D02*
X120599000Y-84564800D01*
X169799000Y-91757500D02*
X168623700Y-91757500D01*
X126710000Y-65379600D02*
X127785300Y-65379600D01*
X127785300Y-65406700D02*
X127785300Y-65379600D01*
X132666900Y-70288300D02*
X127785300Y-65406700D01*
X133778800Y-70288300D02*
X132666900Y-70288300D01*
X140524400Y-77033900D02*
X133778800Y-70288300D01*
X140524400Y-79734600D02*
X140524400Y-77033900D01*
X144047500Y-83257700D02*
X140524400Y-79734600D01*
X160491200Y-83257700D02*
X144047500Y-83257700D01*
X168623700Y-91390200D02*
X160491200Y-83257700D01*
X168623700Y-91757500D02*
X168623700Y-91390200D01*
X132847100Y-78313100D02*
X132842000Y-78313100D01*
X145763700Y-91229700D02*
X132847100Y-78313100D01*
X145763700Y-91757500D02*
X145763700Y-91229700D01*
X146939000Y-91757500D02*
X145763700Y-91757500D01*
X132842000Y-77012800D02*
X132842000Y-78313100D01*
X177419000Y-94297500D02*
X177419000Y-93122200D01*
X178637900Y-91314100D02*
X172979100Y-85655300D01*
X178637900Y-92270600D02*
X178637900Y-91314100D01*
X177786300Y-93122200D02*
X178637900Y-92270600D01*
X177419000Y-93122200D02*
X177786300Y-93122200D01*
X120078000Y-97218500D02*
X120078000Y-97993800D01*
X117851000Y-101346000D02*
X117851000Y-100995800D01*
X117851000Y-100995800D02*
X117851000Y-100645700D01*
X118952500Y-100995800D02*
X119302700Y-101346000D01*
X117851000Y-100995800D02*
X118952500Y-100995800D01*
X120228000Y-101346000D02*
X119302700Y-101346000D01*
X117878900Y-99151400D02*
X117262000Y-98534500D01*
X117851000Y-99179300D02*
X117878900Y-99151400D01*
X117851000Y-100645700D02*
X117851000Y-99179300D01*
X119036500Y-97993800D02*
X120078000Y-97993800D01*
X117878900Y-99151400D02*
X119036500Y-97993800D01*
X165705100Y-83396500D02*
X165628100Y-83396500D01*
X173554300Y-91245700D02*
X165705100Y-83396500D01*
X173554300Y-93082200D02*
X173554300Y-91245700D01*
X172339000Y-94297500D02*
X173554300Y-93082200D01*
X169799000Y-94297500D02*
X169799000Y-93122200D01*
X171014300Y-91240600D02*
X163186400Y-83412700D01*
X171014300Y-92274200D02*
X171014300Y-91240600D01*
X170166300Y-93122200D02*
X171014300Y-92274200D01*
X169799000Y-93122200D02*
X170166300Y-93122200D01*
X149479000Y-91757500D02*
X148303700Y-91757500D01*
X127762000Y-77012800D02*
X127762000Y-78313100D01*
X148303700Y-92124800D02*
X148303700Y-91757500D01*
X147480400Y-92948100D02*
X148303700Y-92124800D01*
X146305600Y-92948100D02*
X147480400Y-92948100D01*
X139632400Y-86274900D02*
X146305600Y-92948100D01*
X139632400Y-85739700D02*
X139632400Y-86274900D01*
X137387200Y-83494500D02*
X139632400Y-85739700D01*
X137142700Y-83494500D02*
X137387200Y-83494500D01*
X131961300Y-78313100D02*
X137142700Y-83494500D01*
X127762000Y-78313100D02*
X131961300Y-78313100D01*
D22*
G36*
X134726840Y-109700440D02*
X137012840Y-109700440D01*
X137012840Y-109680440D01*
X137266840Y-109680440D01*
X137266840Y-109700440D01*
X137286840Y-109700440D01*
X137286840Y-109954440D01*
X137266840Y-109954440D01*
X137266840Y-109974440D01*
X137012840Y-109974440D01*
X137012840Y-109954440D01*
X134726840Y-109954440D01*
X134726840Y-109974440D01*
X134472840Y-109974440D01*
X134472840Y-109954440D01*
X134452840Y-109954440D01*
X134452840Y-109700440D01*
X134472840Y-109700440D01*
X134472840Y-109680440D01*
X134726840Y-109680440D01*
X134726840Y-109700440D01*
X134726840Y-109700440D01*
G37*
X134726840Y-109700440D02*
X137012840Y-109700440D01*
X137012840Y-109680440D01*
X137266840Y-109680440D01*
X137266840Y-109700440D01*
X137286840Y-109700440D01*
X137286840Y-109954440D01*
X137266840Y-109954440D01*
X137266840Y-109974440D01*
X137012840Y-109974440D01*
X137012840Y-109954440D01*
X134726840Y-109954440D01*
X134726840Y-109974440D01*
X134472840Y-109974440D01*
X134472840Y-109954440D01*
X134452840Y-109954440D01*
X134452840Y-109700440D01*
X134472840Y-109700440D01*
X134472840Y-109680440D01*
X134726840Y-109680440D01*
X134726840Y-109700440D01*
G36*
X143479877Y-50412811D02*
X143615841Y-50503658D01*
X143706689Y-50639622D01*
X143752500Y-50869931D01*
X143752500Y-70711398D01*
X124052301Y-51011199D01*
X123805739Y-50846452D01*
X123514900Y-50788600D01*
X121951600Y-50788600D01*
X121660761Y-50846452D01*
X121414199Y-51011199D01*
X121182530Y-51242868D01*
X121102000Y-51226560D01*
X119902000Y-51226560D01*
X119666683Y-51270838D01*
X119450559Y-51409910D01*
X119345274Y-51564000D01*
X119296863Y-51564000D01*
X119264727Y-51531808D01*
X118921199Y-51389162D01*
X118549233Y-51388838D01*
X118205457Y-51530883D01*
X117942208Y-51793673D01*
X117799562Y-52137201D01*
X117799461Y-52253409D01*
X117717533Y-52253338D01*
X117373757Y-52395383D01*
X117110508Y-52658173D01*
X116967862Y-53001701D01*
X116967538Y-53373667D01*
X117109583Y-53717443D01*
X117142700Y-53750618D01*
X117142700Y-65564000D01*
X117200552Y-65854839D01*
X117365299Y-66101401D01*
X118574100Y-67310202D01*
X118574100Y-67339982D01*
X118523533Y-67339938D01*
X118179757Y-67481983D01*
X117916508Y-67744773D01*
X117773862Y-68088301D01*
X117773821Y-68135177D01*
X116431400Y-69477598D01*
X116431400Y-64644699D01*
X116457000Y-64516000D01*
X116457000Y-63055500D01*
X116399148Y-62764661D01*
X116234401Y-62518099D01*
X109676392Y-55960090D01*
X109732054Y-55876785D01*
X109845093Y-55308500D01*
X109732054Y-54740215D01*
X109410147Y-54258446D01*
X109368548Y-54230650D01*
X109416317Y-54221662D01*
X109632441Y-54082590D01*
X109777431Y-53870390D01*
X109828440Y-53618500D01*
X109828440Y-51918500D01*
X109784162Y-51683183D01*
X109645090Y-51467059D01*
X109432890Y-51322069D01*
X109181000Y-51271060D01*
X107481000Y-51271060D01*
X107245683Y-51315338D01*
X107029559Y-51454410D01*
X106884569Y-51666610D01*
X106833560Y-51918500D01*
X106833560Y-53251208D01*
X106601299Y-53406399D01*
X105790199Y-54217499D01*
X105625452Y-54464061D01*
X105567600Y-54754900D01*
X105567600Y-58357400D01*
X105625452Y-58648239D01*
X105790199Y-58894801D01*
X106551299Y-59655901D01*
X106797861Y-59820648D01*
X106963274Y-59853551D01*
X106889524Y-60031610D01*
X107010845Y-60261500D01*
X108204000Y-60261500D01*
X108204000Y-60241500D01*
X108458000Y-60241500D01*
X108458000Y-60261500D01*
X108478000Y-60261500D01*
X108478000Y-60515500D01*
X108458000Y-60515500D01*
X108458000Y-61709319D01*
X108687892Y-61829986D01*
X109212358Y-61583683D01*
X109602645Y-61155424D01*
X109772476Y-60745390D01*
X109701951Y-60611753D01*
X113564300Y-64474102D01*
X113564300Y-74096138D01*
X113346857Y-74185983D01*
X113259736Y-74272952D01*
X113239727Y-74252908D01*
X112896199Y-74110262D01*
X112755867Y-74110140D01*
X112756062Y-73886833D01*
X112614017Y-73543057D01*
X112351227Y-73279808D01*
X112007699Y-73137162D01*
X111635733Y-73136838D01*
X111291957Y-73278883D01*
X111258782Y-73312000D01*
X110835300Y-73312000D01*
X110544461Y-73369852D01*
X110297899Y-73534599D01*
X108631599Y-75200899D01*
X108466852Y-75447461D01*
X108459544Y-75484202D01*
X108325310Y-75428600D01*
X108184750Y-75428600D01*
X108026000Y-75587350D01*
X108026000Y-76936600D01*
X108046000Y-76936600D01*
X108046000Y-77190600D01*
X108026000Y-77190600D01*
X108026000Y-78539850D01*
X108184750Y-78698600D01*
X108325310Y-78698600D01*
X108542122Y-78608794D01*
X108617110Y-78660031D01*
X108869000Y-78711040D01*
X109469000Y-78711040D01*
X109704317Y-78666762D01*
X109803528Y-78602922D01*
X109887110Y-78660031D01*
X110139000Y-78711040D01*
X110739000Y-78711040D01*
X110974317Y-78666762D01*
X111073528Y-78602922D01*
X111157110Y-78660031D01*
X111409000Y-78711040D01*
X111610841Y-78711040D01*
X111504052Y-78870861D01*
X111446200Y-79161700D01*
X111446200Y-79981500D01*
X111504052Y-80272339D01*
X111668799Y-80518901D01*
X112014099Y-80864201D01*
X112260661Y-81028948D01*
X112551500Y-81086800D01*
X115058198Y-81086800D01*
X116143837Y-82172439D01*
X116032208Y-82283873D01*
X115889562Y-82627401D01*
X115889238Y-82999367D01*
X116031283Y-83343143D01*
X116294073Y-83606392D01*
X116637601Y-83749038D01*
X116684477Y-83749079D01*
X117283632Y-84348234D01*
X117234808Y-84396973D01*
X117196877Y-84488321D01*
X116877299Y-84807899D01*
X116871779Y-84816160D01*
X116489000Y-84816160D01*
X116253683Y-84860438D01*
X116154472Y-84924278D01*
X116070890Y-84867169D01*
X115819000Y-84816160D01*
X115219000Y-84816160D01*
X114983683Y-84860438D01*
X114884472Y-84924278D01*
X114800890Y-84867169D01*
X114549000Y-84816160D01*
X113949000Y-84816160D01*
X113713683Y-84860438D01*
X113614472Y-84924278D01*
X113530890Y-84867169D01*
X113279000Y-84816160D01*
X112679000Y-84816160D01*
X112443683Y-84860438D01*
X112344472Y-84924278D01*
X112260890Y-84867169D01*
X112009000Y-84816160D01*
X111409000Y-84816160D01*
X111173683Y-84860438D01*
X111074472Y-84924278D01*
X110990890Y-84867169D01*
X110739000Y-84816160D01*
X110139000Y-84816160D01*
X109903683Y-84860438D01*
X109813020Y-84918778D01*
X109595310Y-84828600D01*
X109454750Y-84828600D01*
X109296000Y-84987350D01*
X109296000Y-86336600D01*
X109316000Y-86336600D01*
X109316000Y-86590600D01*
X109296000Y-86590600D01*
X109296000Y-87939850D01*
X109454750Y-88098600D01*
X109595310Y-88098600D01*
X109729544Y-88042998D01*
X109736852Y-88079739D01*
X109901599Y-88326301D01*
X110053788Y-88427990D01*
X110877978Y-89252180D01*
X110877938Y-89297667D01*
X111019983Y-89641443D01*
X111282773Y-89904692D01*
X111626301Y-90047338D01*
X111998267Y-90047662D01*
X112342043Y-89905617D01*
X112546657Y-89701359D01*
X118941499Y-96096201D01*
X119141965Y-96230148D01*
X119026559Y-96304410D01*
X118980031Y-96372506D01*
X118837698Y-96230173D01*
X118604309Y-96133500D01*
X118163750Y-96133500D01*
X118005000Y-96292250D01*
X118005000Y-97091500D01*
X118025000Y-97091500D01*
X118025000Y-97345500D01*
X118005000Y-97345500D01*
X118005000Y-97365500D01*
X117751000Y-97365500D01*
X117751000Y-97345500D01*
X116801750Y-97345500D01*
X116643000Y-97504250D01*
X116643000Y-97794810D01*
X116653688Y-97820613D01*
X116469808Y-98004173D01*
X116327162Y-98347701D01*
X116326838Y-98719667D01*
X116468883Y-99063443D01*
X116731673Y-99326692D01*
X117075201Y-99469338D01*
X117091000Y-99469352D01*
X117091000Y-100353666D01*
X117015683Y-100367838D01*
X116912354Y-100434329D01*
X116910698Y-100432673D01*
X116677309Y-100336000D01*
X116236750Y-100336000D01*
X116078000Y-100494750D01*
X116078000Y-101219000D01*
X116098000Y-101219000D01*
X116098000Y-101473000D01*
X116078000Y-101473000D01*
X116078000Y-102197250D01*
X116236750Y-102356000D01*
X116677309Y-102356000D01*
X116910698Y-102259327D01*
X116912068Y-102257957D01*
X116999110Y-102317431D01*
X117251000Y-102368440D01*
X118451000Y-102368440D01*
X118686317Y-102324162D01*
X118902441Y-102185090D01*
X119000978Y-102040876D01*
X119011861Y-102048148D01*
X119039163Y-102053579D01*
X119163910Y-102247441D01*
X119376110Y-102392431D01*
X119628000Y-102443440D01*
X120828000Y-102443440D01*
X121063317Y-102399162D01*
X121279441Y-102260090D01*
X121327134Y-102190289D01*
X121363910Y-102247441D01*
X121576110Y-102392431D01*
X121828000Y-102443440D01*
X123028000Y-102443440D01*
X123263317Y-102399162D01*
X123479441Y-102260090D01*
X123624431Y-102047890D01*
X123675440Y-101796000D01*
X123675440Y-101771242D01*
X126483800Y-104579602D01*
X126483800Y-105180000D01*
X126079840Y-105180000D01*
X125844523Y-105224278D01*
X125652600Y-105347777D01*
X125652600Y-105041700D01*
X125638957Y-104973113D01*
X125638957Y-104903185D01*
X125551951Y-104465778D01*
X125445937Y-104209838D01*
X125198167Y-103839022D01*
X125002278Y-103643134D01*
X125002277Y-103643133D01*
X124631462Y-103395362D01*
X124503492Y-103342356D01*
X124375521Y-103289348D01*
X123938115Y-103202343D01*
X123868662Y-103202343D01*
X123800562Y-103188701D01*
X114497409Y-103176095D01*
X114266622Y-103130189D01*
X114130658Y-103039341D01*
X114039811Y-102903377D01*
X113994000Y-102673073D01*
X113994000Y-101631750D01*
X114716000Y-101631750D01*
X114716000Y-101847310D01*
X114812673Y-102080699D01*
X114991302Y-102259327D01*
X115224691Y-102356000D01*
X115665250Y-102356000D01*
X115824000Y-102197250D01*
X115824000Y-101473000D01*
X114874750Y-101473000D01*
X114716000Y-101631750D01*
X113994000Y-101631750D01*
X113994000Y-100844690D01*
X114716000Y-100844690D01*
X114716000Y-101060250D01*
X114874750Y-101219000D01*
X115824000Y-101219000D01*
X115824000Y-100494750D01*
X115665250Y-100336000D01*
X115224691Y-100336000D01*
X114991302Y-100432673D01*
X114812673Y-100611301D01*
X114716000Y-100844690D01*
X113994000Y-100844690D01*
X113994000Y-96642190D01*
X116643000Y-96642190D01*
X116643000Y-96932750D01*
X116801750Y-97091500D01*
X117751000Y-97091500D01*
X117751000Y-96292250D01*
X117592250Y-96133500D01*
X117151691Y-96133500D01*
X116918302Y-96230173D01*
X116739673Y-96408801D01*
X116643000Y-96642190D01*
X113994000Y-96642190D01*
X113994000Y-93916500D01*
X113980357Y-93847913D01*
X113980357Y-93777985D01*
X113893351Y-93340578D01*
X113787337Y-93084638D01*
X113539567Y-92713822D01*
X113343678Y-92517934D01*
X113343677Y-92517933D01*
X112972862Y-92270162D01*
X112818976Y-92206421D01*
X112716921Y-92164148D01*
X112279515Y-92077143D01*
X112209587Y-92077143D01*
X112141000Y-92063500D01*
X105543431Y-92063500D01*
X105313122Y-92017689D01*
X105177158Y-91926841D01*
X105086311Y-91790877D01*
X105040500Y-91560573D01*
X105040500Y-86749350D01*
X106964000Y-86749350D01*
X106964000Y-87589909D01*
X107060673Y-87823298D01*
X107239301Y-88001927D01*
X107472690Y-88098600D01*
X107613250Y-88098600D01*
X107772000Y-87939850D01*
X107772000Y-86590600D01*
X108026000Y-86590600D01*
X108026000Y-87939850D01*
X108184750Y-88098600D01*
X108325310Y-88098600D01*
X108534000Y-88012158D01*
X108742690Y-88098600D01*
X108883250Y-88098600D01*
X109042000Y-87939850D01*
X109042000Y-86590600D01*
X108026000Y-86590600D01*
X107772000Y-86590600D01*
X107122750Y-86590600D01*
X106964000Y-86749350D01*
X105040500Y-86749350D01*
X105040500Y-85337291D01*
X106964000Y-85337291D01*
X106964000Y-86177850D01*
X107122750Y-86336600D01*
X107772000Y-86336600D01*
X107772000Y-84987350D01*
X108026000Y-84987350D01*
X108026000Y-86336600D01*
X109042000Y-86336600D01*
X109042000Y-84987350D01*
X108883250Y-84828600D01*
X108742690Y-84828600D01*
X108534000Y-84915042D01*
X108325310Y-84828600D01*
X108184750Y-84828600D01*
X108026000Y-84987350D01*
X107772000Y-84987350D01*
X107613250Y-84828600D01*
X107472690Y-84828600D01*
X107239301Y-84925273D01*
X107060673Y-85103902D01*
X106964000Y-85337291D01*
X105040500Y-85337291D01*
X105040500Y-77349350D01*
X106964000Y-77349350D01*
X106964000Y-78189909D01*
X107060673Y-78423298D01*
X107239301Y-78601927D01*
X107472690Y-78698600D01*
X107613250Y-78698600D01*
X107772000Y-78539850D01*
X107772000Y-77190600D01*
X107122750Y-77190600D01*
X106964000Y-77349350D01*
X105040500Y-77349350D01*
X105040500Y-75937291D01*
X106964000Y-75937291D01*
X106964000Y-76777850D01*
X107122750Y-76936600D01*
X107772000Y-76936600D01*
X107772000Y-75587350D01*
X107613250Y-75428600D01*
X107472690Y-75428600D01*
X107239301Y-75525273D01*
X107060673Y-75703902D01*
X106964000Y-75937291D01*
X105040500Y-75937291D01*
X105040500Y-60745390D01*
X106889524Y-60745390D01*
X107059355Y-61155424D01*
X107449642Y-61583683D01*
X107974108Y-61829986D01*
X108204000Y-61709319D01*
X108204000Y-60515500D01*
X107010845Y-60515500D01*
X106889524Y-60745390D01*
X105040500Y-60745390D01*
X105040500Y-50869927D01*
X105086311Y-50639623D01*
X105177158Y-50503659D01*
X105313122Y-50412811D01*
X105543431Y-50367000D01*
X143249573Y-50367000D01*
X143479877Y-50412811D01*
X143479877Y-50412811D01*
G37*
X143479877Y-50412811D02*
X143615841Y-50503658D01*
X143706689Y-50639622D01*
X143752500Y-50869931D01*
X143752500Y-70711398D01*
X124052301Y-51011199D01*
X123805739Y-50846452D01*
X123514900Y-50788600D01*
X121951600Y-50788600D01*
X121660761Y-50846452D01*
X121414199Y-51011199D01*
X121182530Y-51242868D01*
X121102000Y-51226560D01*
X119902000Y-51226560D01*
X119666683Y-51270838D01*
X119450559Y-51409910D01*
X119345274Y-51564000D01*
X119296863Y-51564000D01*
X119264727Y-51531808D01*
X118921199Y-51389162D01*
X118549233Y-51388838D01*
X118205457Y-51530883D01*
X117942208Y-51793673D01*
X117799562Y-52137201D01*
X117799461Y-52253409D01*
X117717533Y-52253338D01*
X117373757Y-52395383D01*
X117110508Y-52658173D01*
X116967862Y-53001701D01*
X116967538Y-53373667D01*
X117109583Y-53717443D01*
X117142700Y-53750618D01*
X117142700Y-65564000D01*
X117200552Y-65854839D01*
X117365299Y-66101401D01*
X118574100Y-67310202D01*
X118574100Y-67339982D01*
X118523533Y-67339938D01*
X118179757Y-67481983D01*
X117916508Y-67744773D01*
X117773862Y-68088301D01*
X117773821Y-68135177D01*
X116431400Y-69477598D01*
X116431400Y-64644699D01*
X116457000Y-64516000D01*
X116457000Y-63055500D01*
X116399148Y-62764661D01*
X116234401Y-62518099D01*
X109676392Y-55960090D01*
X109732054Y-55876785D01*
X109845093Y-55308500D01*
X109732054Y-54740215D01*
X109410147Y-54258446D01*
X109368548Y-54230650D01*
X109416317Y-54221662D01*
X109632441Y-54082590D01*
X109777431Y-53870390D01*
X109828440Y-53618500D01*
X109828440Y-51918500D01*
X109784162Y-51683183D01*
X109645090Y-51467059D01*
X109432890Y-51322069D01*
X109181000Y-51271060D01*
X107481000Y-51271060D01*
X107245683Y-51315338D01*
X107029559Y-51454410D01*
X106884569Y-51666610D01*
X106833560Y-51918500D01*
X106833560Y-53251208D01*
X106601299Y-53406399D01*
X105790199Y-54217499D01*
X105625452Y-54464061D01*
X105567600Y-54754900D01*
X105567600Y-58357400D01*
X105625452Y-58648239D01*
X105790199Y-58894801D01*
X106551299Y-59655901D01*
X106797861Y-59820648D01*
X106963274Y-59853551D01*
X106889524Y-60031610D01*
X107010845Y-60261500D01*
X108204000Y-60261500D01*
X108204000Y-60241500D01*
X108458000Y-60241500D01*
X108458000Y-60261500D01*
X108478000Y-60261500D01*
X108478000Y-60515500D01*
X108458000Y-60515500D01*
X108458000Y-61709319D01*
X108687892Y-61829986D01*
X109212358Y-61583683D01*
X109602645Y-61155424D01*
X109772476Y-60745390D01*
X109701951Y-60611753D01*
X113564300Y-64474102D01*
X113564300Y-74096138D01*
X113346857Y-74185983D01*
X113259736Y-74272952D01*
X113239727Y-74252908D01*
X112896199Y-74110262D01*
X112755867Y-74110140D01*
X112756062Y-73886833D01*
X112614017Y-73543057D01*
X112351227Y-73279808D01*
X112007699Y-73137162D01*
X111635733Y-73136838D01*
X111291957Y-73278883D01*
X111258782Y-73312000D01*
X110835300Y-73312000D01*
X110544461Y-73369852D01*
X110297899Y-73534599D01*
X108631599Y-75200899D01*
X108466852Y-75447461D01*
X108459544Y-75484202D01*
X108325310Y-75428600D01*
X108184750Y-75428600D01*
X108026000Y-75587350D01*
X108026000Y-76936600D01*
X108046000Y-76936600D01*
X108046000Y-77190600D01*
X108026000Y-77190600D01*
X108026000Y-78539850D01*
X108184750Y-78698600D01*
X108325310Y-78698600D01*
X108542122Y-78608794D01*
X108617110Y-78660031D01*
X108869000Y-78711040D01*
X109469000Y-78711040D01*
X109704317Y-78666762D01*
X109803528Y-78602922D01*
X109887110Y-78660031D01*
X110139000Y-78711040D01*
X110739000Y-78711040D01*
X110974317Y-78666762D01*
X111073528Y-78602922D01*
X111157110Y-78660031D01*
X111409000Y-78711040D01*
X111610841Y-78711040D01*
X111504052Y-78870861D01*
X111446200Y-79161700D01*
X111446200Y-79981500D01*
X111504052Y-80272339D01*
X111668799Y-80518901D01*
X112014099Y-80864201D01*
X112260661Y-81028948D01*
X112551500Y-81086800D01*
X115058198Y-81086800D01*
X116143837Y-82172439D01*
X116032208Y-82283873D01*
X115889562Y-82627401D01*
X115889238Y-82999367D01*
X116031283Y-83343143D01*
X116294073Y-83606392D01*
X116637601Y-83749038D01*
X116684477Y-83749079D01*
X117283632Y-84348234D01*
X117234808Y-84396973D01*
X117196877Y-84488321D01*
X116877299Y-84807899D01*
X116871779Y-84816160D01*
X116489000Y-84816160D01*
X116253683Y-84860438D01*
X116154472Y-84924278D01*
X116070890Y-84867169D01*
X115819000Y-84816160D01*
X115219000Y-84816160D01*
X114983683Y-84860438D01*
X114884472Y-84924278D01*
X114800890Y-84867169D01*
X114549000Y-84816160D01*
X113949000Y-84816160D01*
X113713683Y-84860438D01*
X113614472Y-84924278D01*
X113530890Y-84867169D01*
X113279000Y-84816160D01*
X112679000Y-84816160D01*
X112443683Y-84860438D01*
X112344472Y-84924278D01*
X112260890Y-84867169D01*
X112009000Y-84816160D01*
X111409000Y-84816160D01*
X111173683Y-84860438D01*
X111074472Y-84924278D01*
X110990890Y-84867169D01*
X110739000Y-84816160D01*
X110139000Y-84816160D01*
X109903683Y-84860438D01*
X109813020Y-84918778D01*
X109595310Y-84828600D01*
X109454750Y-84828600D01*
X109296000Y-84987350D01*
X109296000Y-86336600D01*
X109316000Y-86336600D01*
X109316000Y-86590600D01*
X109296000Y-86590600D01*
X109296000Y-87939850D01*
X109454750Y-88098600D01*
X109595310Y-88098600D01*
X109729544Y-88042998D01*
X109736852Y-88079739D01*
X109901599Y-88326301D01*
X110053788Y-88427990D01*
X110877978Y-89252180D01*
X110877938Y-89297667D01*
X111019983Y-89641443D01*
X111282773Y-89904692D01*
X111626301Y-90047338D01*
X111998267Y-90047662D01*
X112342043Y-89905617D01*
X112546657Y-89701359D01*
X118941499Y-96096201D01*
X119141965Y-96230148D01*
X119026559Y-96304410D01*
X118980031Y-96372506D01*
X118837698Y-96230173D01*
X118604309Y-96133500D01*
X118163750Y-96133500D01*
X118005000Y-96292250D01*
X118005000Y-97091500D01*
X118025000Y-97091500D01*
X118025000Y-97345500D01*
X118005000Y-97345500D01*
X118005000Y-97365500D01*
X117751000Y-97365500D01*
X117751000Y-97345500D01*
X116801750Y-97345500D01*
X116643000Y-97504250D01*
X116643000Y-97794810D01*
X116653688Y-97820613D01*
X116469808Y-98004173D01*
X116327162Y-98347701D01*
X116326838Y-98719667D01*
X116468883Y-99063443D01*
X116731673Y-99326692D01*
X117075201Y-99469338D01*
X117091000Y-99469352D01*
X117091000Y-100353666D01*
X117015683Y-100367838D01*
X116912354Y-100434329D01*
X116910698Y-100432673D01*
X116677309Y-100336000D01*
X116236750Y-100336000D01*
X116078000Y-100494750D01*
X116078000Y-101219000D01*
X116098000Y-101219000D01*
X116098000Y-101473000D01*
X116078000Y-101473000D01*
X116078000Y-102197250D01*
X116236750Y-102356000D01*
X116677309Y-102356000D01*
X116910698Y-102259327D01*
X116912068Y-102257957D01*
X116999110Y-102317431D01*
X117251000Y-102368440D01*
X118451000Y-102368440D01*
X118686317Y-102324162D01*
X118902441Y-102185090D01*
X119000978Y-102040876D01*
X119011861Y-102048148D01*
X119039163Y-102053579D01*
X119163910Y-102247441D01*
X119376110Y-102392431D01*
X119628000Y-102443440D01*
X120828000Y-102443440D01*
X121063317Y-102399162D01*
X121279441Y-102260090D01*
X121327134Y-102190289D01*
X121363910Y-102247441D01*
X121576110Y-102392431D01*
X121828000Y-102443440D01*
X123028000Y-102443440D01*
X123263317Y-102399162D01*
X123479441Y-102260090D01*
X123624431Y-102047890D01*
X123675440Y-101796000D01*
X123675440Y-101771242D01*
X126483800Y-104579602D01*
X126483800Y-105180000D01*
X126079840Y-105180000D01*
X125844523Y-105224278D01*
X125652600Y-105347777D01*
X125652600Y-105041700D01*
X125638957Y-104973113D01*
X125638957Y-104903185D01*
X125551951Y-104465778D01*
X125445937Y-104209838D01*
X125198167Y-103839022D01*
X125002278Y-103643134D01*
X125002277Y-103643133D01*
X124631462Y-103395362D01*
X124503492Y-103342356D01*
X124375521Y-103289348D01*
X123938115Y-103202343D01*
X123868662Y-103202343D01*
X123800562Y-103188701D01*
X114497409Y-103176095D01*
X114266622Y-103130189D01*
X114130658Y-103039341D01*
X114039811Y-102903377D01*
X113994000Y-102673073D01*
X113994000Y-101631750D01*
X114716000Y-101631750D01*
X114716000Y-101847310D01*
X114812673Y-102080699D01*
X114991302Y-102259327D01*
X115224691Y-102356000D01*
X115665250Y-102356000D01*
X115824000Y-102197250D01*
X115824000Y-101473000D01*
X114874750Y-101473000D01*
X114716000Y-101631750D01*
X113994000Y-101631750D01*
X113994000Y-100844690D01*
X114716000Y-100844690D01*
X114716000Y-101060250D01*
X114874750Y-101219000D01*
X115824000Y-101219000D01*
X115824000Y-100494750D01*
X115665250Y-100336000D01*
X115224691Y-100336000D01*
X114991302Y-100432673D01*
X114812673Y-100611301D01*
X114716000Y-100844690D01*
X113994000Y-100844690D01*
X113994000Y-96642190D01*
X116643000Y-96642190D01*
X116643000Y-96932750D01*
X116801750Y-97091500D01*
X117751000Y-97091500D01*
X117751000Y-96292250D01*
X117592250Y-96133500D01*
X117151691Y-96133500D01*
X116918302Y-96230173D01*
X116739673Y-96408801D01*
X116643000Y-96642190D01*
X113994000Y-96642190D01*
X113994000Y-93916500D01*
X113980357Y-93847913D01*
X113980357Y-93777985D01*
X113893351Y-93340578D01*
X113787337Y-93084638D01*
X113539567Y-92713822D01*
X113343678Y-92517934D01*
X113343677Y-92517933D01*
X112972862Y-92270162D01*
X112818976Y-92206421D01*
X112716921Y-92164148D01*
X112279515Y-92077143D01*
X112209587Y-92077143D01*
X112141000Y-92063500D01*
X105543431Y-92063500D01*
X105313122Y-92017689D01*
X105177158Y-91926841D01*
X105086311Y-91790877D01*
X105040500Y-91560573D01*
X105040500Y-86749350D01*
X106964000Y-86749350D01*
X106964000Y-87589909D01*
X107060673Y-87823298D01*
X107239301Y-88001927D01*
X107472690Y-88098600D01*
X107613250Y-88098600D01*
X107772000Y-87939850D01*
X107772000Y-86590600D01*
X108026000Y-86590600D01*
X108026000Y-87939850D01*
X108184750Y-88098600D01*
X108325310Y-88098600D01*
X108534000Y-88012158D01*
X108742690Y-88098600D01*
X108883250Y-88098600D01*
X109042000Y-87939850D01*
X109042000Y-86590600D01*
X108026000Y-86590600D01*
X107772000Y-86590600D01*
X107122750Y-86590600D01*
X106964000Y-86749350D01*
X105040500Y-86749350D01*
X105040500Y-85337291D01*
X106964000Y-85337291D01*
X106964000Y-86177850D01*
X107122750Y-86336600D01*
X107772000Y-86336600D01*
X107772000Y-84987350D01*
X108026000Y-84987350D01*
X108026000Y-86336600D01*
X109042000Y-86336600D01*
X109042000Y-84987350D01*
X108883250Y-84828600D01*
X108742690Y-84828600D01*
X108534000Y-84915042D01*
X108325310Y-84828600D01*
X108184750Y-84828600D01*
X108026000Y-84987350D01*
X107772000Y-84987350D01*
X107613250Y-84828600D01*
X107472690Y-84828600D01*
X107239301Y-84925273D01*
X107060673Y-85103902D01*
X106964000Y-85337291D01*
X105040500Y-85337291D01*
X105040500Y-77349350D01*
X106964000Y-77349350D01*
X106964000Y-78189909D01*
X107060673Y-78423298D01*
X107239301Y-78601927D01*
X107472690Y-78698600D01*
X107613250Y-78698600D01*
X107772000Y-78539850D01*
X107772000Y-77190600D01*
X107122750Y-77190600D01*
X106964000Y-77349350D01*
X105040500Y-77349350D01*
X105040500Y-75937291D01*
X106964000Y-75937291D01*
X106964000Y-76777850D01*
X107122750Y-76936600D01*
X107772000Y-76936600D01*
X107772000Y-75587350D01*
X107613250Y-75428600D01*
X107472690Y-75428600D01*
X107239301Y-75525273D01*
X107060673Y-75703902D01*
X106964000Y-75937291D01*
X105040500Y-75937291D01*
X105040500Y-60745390D01*
X106889524Y-60745390D01*
X107059355Y-61155424D01*
X107449642Y-61583683D01*
X107974108Y-61829986D01*
X108204000Y-61709319D01*
X108204000Y-60515500D01*
X107010845Y-60515500D01*
X106889524Y-60745390D01*
X105040500Y-60745390D01*
X105040500Y-50869927D01*
X105086311Y-50639623D01*
X105177158Y-50503659D01*
X105313122Y-50412811D01*
X105543431Y-50367000D01*
X143249573Y-50367000D01*
X143479877Y-50412811D01*
G36*
X185166000Y-94170500D02*
X185186000Y-94170500D01*
X185186000Y-94424500D01*
X185166000Y-94424500D01*
X185166000Y-95617655D01*
X185395890Y-95738976D01*
X185805924Y-95569145D01*
X186234183Y-95178858D01*
X186301298Y-95035947D01*
X186528946Y-95376647D01*
X187010715Y-95698554D01*
X187579000Y-95811593D01*
X188147285Y-95698554D01*
X188629054Y-95376647D01*
X188849000Y-95047474D01*
X189068946Y-95376647D01*
X189550715Y-95698554D01*
X190119000Y-95811593D01*
X190534600Y-95728925D01*
X190534600Y-96456500D01*
X190543989Y-96503700D01*
X190534600Y-96550900D01*
X190534600Y-96871098D01*
X188262471Y-99143227D01*
X188311866Y-98894900D01*
X188209094Y-98378229D01*
X188209139Y-98326096D01*
X188189055Y-98277489D01*
X188085935Y-97759070D01*
X187794841Y-97323416D01*
X187770850Y-97265354D01*
X187726075Y-97220501D01*
X187442540Y-96796160D01*
X187021905Y-96515101D01*
X186959995Y-96453083D01*
X186878351Y-96419181D01*
X186479630Y-96152765D01*
X186013420Y-96060030D01*
X185900020Y-96012942D01*
X185776150Y-96012834D01*
X185343800Y-95926834D01*
X184915225Y-96012083D01*
X184752296Y-96011941D01*
X184600388Y-96074708D01*
X184207970Y-96152765D01*
X183878202Y-96373109D01*
X183691554Y-96450230D01*
X183547368Y-96594164D01*
X183245060Y-96796160D01*
X183044828Y-97095828D01*
X182879283Y-97261085D01*
X182788788Y-97479020D01*
X182601665Y-97759070D01*
X182536530Y-98086523D01*
X182439142Y-98321060D01*
X182438919Y-98577250D01*
X182375734Y-98894900D01*
X182438367Y-99209776D01*
X182438141Y-99468784D01*
X182537922Y-99710273D01*
X182601665Y-100030730D01*
X182781603Y-100300026D01*
X182876430Y-100529526D01*
X183053410Y-100706815D01*
X183245060Y-100993640D01*
X183529380Y-101183616D01*
X183687285Y-101341797D01*
X183895524Y-101428266D01*
X184207970Y-101637035D01*
X184573302Y-101709704D01*
X184747260Y-101781938D01*
X184937279Y-101782104D01*
X185343800Y-101862966D01*
X185592127Y-101813571D01*
X182677498Y-104728200D01*
X182640700Y-104728200D01*
X182570821Y-104742100D01*
X180583800Y-104742100D01*
X180292961Y-104799952D01*
X180046399Y-104964699D01*
X179902540Y-105180000D01*
X179419840Y-105180000D01*
X179184523Y-105224278D01*
X179049263Y-105311316D01*
X178931730Y-105231009D01*
X178732137Y-105190590D01*
X178581201Y-104964699D01*
X172619622Y-99003120D01*
X172619662Y-98957633D01*
X172477617Y-98613857D01*
X172214827Y-98350608D01*
X171871299Y-98207962D01*
X171499333Y-98207638D01*
X171155557Y-98349683D01*
X171120300Y-98384879D01*
X171120300Y-97445063D01*
X171152492Y-97412927D01*
X171295138Y-97069399D01*
X171295218Y-96977500D01*
X182245700Y-96977500D01*
X182536539Y-96919648D01*
X182783101Y-96754901D01*
X184113433Y-95424569D01*
X184272076Y-95569145D01*
X184682110Y-95738976D01*
X184912000Y-95617655D01*
X184912000Y-94424500D01*
X184892000Y-94424500D01*
X184892000Y-94170500D01*
X184912000Y-94170500D01*
X184912000Y-94150500D01*
X185166000Y-94150500D01*
X185166000Y-94170500D01*
X185166000Y-94170500D01*
G37*
X185166000Y-94170500D02*
X185186000Y-94170500D01*
X185186000Y-94424500D01*
X185166000Y-94424500D01*
X185166000Y-95617655D01*
X185395890Y-95738976D01*
X185805924Y-95569145D01*
X186234183Y-95178858D01*
X186301298Y-95035947D01*
X186528946Y-95376647D01*
X187010715Y-95698554D01*
X187579000Y-95811593D01*
X188147285Y-95698554D01*
X188629054Y-95376647D01*
X188849000Y-95047474D01*
X189068946Y-95376647D01*
X189550715Y-95698554D01*
X190119000Y-95811593D01*
X190534600Y-95728925D01*
X190534600Y-96456500D01*
X190543989Y-96503700D01*
X190534600Y-96550900D01*
X190534600Y-96871098D01*
X188262471Y-99143227D01*
X188311866Y-98894900D01*
X188209094Y-98378229D01*
X188209139Y-98326096D01*
X188189055Y-98277489D01*
X188085935Y-97759070D01*
X187794841Y-97323416D01*
X187770850Y-97265354D01*
X187726075Y-97220501D01*
X187442540Y-96796160D01*
X187021905Y-96515101D01*
X186959995Y-96453083D01*
X186878351Y-96419181D01*
X186479630Y-96152765D01*
X186013420Y-96060030D01*
X185900020Y-96012942D01*
X185776150Y-96012834D01*
X185343800Y-95926834D01*
X184915225Y-96012083D01*
X184752296Y-96011941D01*
X184600388Y-96074708D01*
X184207970Y-96152765D01*
X183878202Y-96373109D01*
X183691554Y-96450230D01*
X183547368Y-96594164D01*
X183245060Y-96796160D01*
X183044828Y-97095828D01*
X182879283Y-97261085D01*
X182788788Y-97479020D01*
X182601665Y-97759070D01*
X182536530Y-98086523D01*
X182439142Y-98321060D01*
X182438919Y-98577250D01*
X182375734Y-98894900D01*
X182438367Y-99209776D01*
X182438141Y-99468784D01*
X182537922Y-99710273D01*
X182601665Y-100030730D01*
X182781603Y-100300026D01*
X182876430Y-100529526D01*
X183053410Y-100706815D01*
X183245060Y-100993640D01*
X183529380Y-101183616D01*
X183687285Y-101341797D01*
X183895524Y-101428266D01*
X184207970Y-101637035D01*
X184573302Y-101709704D01*
X184747260Y-101781938D01*
X184937279Y-101782104D01*
X185343800Y-101862966D01*
X185592127Y-101813571D01*
X182677498Y-104728200D01*
X182640700Y-104728200D01*
X182570821Y-104742100D01*
X180583800Y-104742100D01*
X180292961Y-104799952D01*
X180046399Y-104964699D01*
X179902540Y-105180000D01*
X179419840Y-105180000D01*
X179184523Y-105224278D01*
X179049263Y-105311316D01*
X178931730Y-105231009D01*
X178732137Y-105190590D01*
X178581201Y-104964699D01*
X172619622Y-99003120D01*
X172619662Y-98957633D01*
X172477617Y-98613857D01*
X172214827Y-98350608D01*
X171871299Y-98207962D01*
X171499333Y-98207638D01*
X171155557Y-98349683D01*
X171120300Y-98384879D01*
X171120300Y-97445063D01*
X171152492Y-97412927D01*
X171295138Y-97069399D01*
X171295218Y-96977500D01*
X182245700Y-96977500D01*
X182536539Y-96919648D01*
X182783101Y-96754901D01*
X184113433Y-95424569D01*
X184272076Y-95569145D01*
X184682110Y-95738976D01*
X184912000Y-95617655D01*
X184912000Y-94424500D01*
X184892000Y-94424500D01*
X184892000Y-94170500D01*
X184912000Y-94170500D01*
X184912000Y-94150500D01*
X185166000Y-94150500D01*
X185166000Y-94170500D01*
G36*
X164846000Y-94170500D02*
X164866000Y-94170500D01*
X164866000Y-94424500D01*
X164846000Y-94424500D01*
X164846000Y-95617655D01*
X165075890Y-95738976D01*
X165485924Y-95569145D01*
X165914183Y-95178858D01*
X165981298Y-95035947D01*
X166208946Y-95376647D01*
X166690715Y-95698554D01*
X167259000Y-95811593D01*
X167827285Y-95698554D01*
X168309054Y-95376647D01*
X168529000Y-95047474D01*
X168748946Y-95376647D01*
X169230715Y-95698554D01*
X169521086Y-95756312D01*
X167346399Y-97930999D01*
X167181652Y-98177561D01*
X167123800Y-98468400D01*
X167123800Y-103890498D01*
X164209000Y-100975698D01*
X164209000Y-95675560D01*
X164362110Y-95738976D01*
X164592000Y-95617655D01*
X164592000Y-94424500D01*
X164572000Y-94424500D01*
X164572000Y-94170500D01*
X164592000Y-94170500D01*
X164592000Y-94150500D01*
X164846000Y-94150500D01*
X164846000Y-94170500D01*
X164846000Y-94170500D01*
G37*
X164846000Y-94170500D02*
X164866000Y-94170500D01*
X164866000Y-94424500D01*
X164846000Y-94424500D01*
X164846000Y-95617655D01*
X165075890Y-95738976D01*
X165485924Y-95569145D01*
X165914183Y-95178858D01*
X165981298Y-95035947D01*
X166208946Y-95376647D01*
X166690715Y-95698554D01*
X167259000Y-95811593D01*
X167827285Y-95698554D01*
X168309054Y-95376647D01*
X168529000Y-95047474D01*
X168748946Y-95376647D01*
X169230715Y-95698554D01*
X169521086Y-95756312D01*
X167346399Y-97930999D01*
X167181652Y-98177561D01*
X167123800Y-98468400D01*
X167123800Y-103890498D01*
X164209000Y-100975698D01*
X164209000Y-95675560D01*
X164362110Y-95738976D01*
X164592000Y-95617655D01*
X164592000Y-94424500D01*
X164572000Y-94424500D01*
X164572000Y-94170500D01*
X164592000Y-94170500D01*
X164592000Y-94150500D01*
X164846000Y-94150500D01*
X164846000Y-94170500D01*
G36*
X147066000Y-94170500D02*
X147086000Y-94170500D01*
X147086000Y-94424500D01*
X147066000Y-94424500D01*
X147066000Y-94444500D01*
X146812000Y-94444500D01*
X146812000Y-94424500D01*
X146792000Y-94424500D01*
X146792000Y-94170500D01*
X146812000Y-94170500D01*
X146812000Y-94150500D01*
X147066000Y-94150500D01*
X147066000Y-94170500D01*
X147066000Y-94170500D01*
G37*
X147066000Y-94170500D02*
X147086000Y-94170500D01*
X147086000Y-94424500D01*
X147066000Y-94424500D01*
X147066000Y-94444500D01*
X146812000Y-94444500D01*
X146812000Y-94424500D01*
X146792000Y-94424500D01*
X146792000Y-94170500D01*
X146812000Y-94170500D01*
X146812000Y-94150500D01*
X147066000Y-94150500D01*
X147066000Y-94170500D01*
G36*
X172466000Y-91630500D02*
X172486000Y-91630500D01*
X172486000Y-91884500D01*
X172466000Y-91884500D01*
X172466000Y-91904500D01*
X172212000Y-91904500D01*
X172212000Y-91884500D01*
X172192000Y-91884500D01*
X172192000Y-91630500D01*
X172212000Y-91630500D01*
X172212000Y-91610500D01*
X172466000Y-91610500D01*
X172466000Y-91630500D01*
X172466000Y-91630500D01*
G37*
X172466000Y-91630500D02*
X172486000Y-91630500D01*
X172486000Y-91884500D01*
X172466000Y-91884500D01*
X172466000Y-91904500D01*
X172212000Y-91904500D01*
X172212000Y-91884500D01*
X172192000Y-91884500D01*
X172192000Y-91630500D01*
X172212000Y-91630500D01*
X172212000Y-91610500D01*
X172466000Y-91610500D01*
X172466000Y-91630500D01*
G36*
X180086000Y-91630500D02*
X180106000Y-91630500D01*
X180106000Y-91884500D01*
X180086000Y-91884500D01*
X180086000Y-91904500D01*
X179832000Y-91904500D01*
X179832000Y-91884500D01*
X179812000Y-91884500D01*
X179812000Y-91630500D01*
X179832000Y-91630500D01*
X179832000Y-91610500D01*
X180086000Y-91610500D01*
X180086000Y-91630500D01*
X180086000Y-91630500D01*
G37*
X180086000Y-91630500D02*
X180106000Y-91630500D01*
X180106000Y-91884500D01*
X180086000Y-91884500D01*
X180086000Y-91904500D01*
X179832000Y-91904500D01*
X179832000Y-91884500D01*
X179812000Y-91884500D01*
X179812000Y-91630500D01*
X179832000Y-91630500D01*
X179832000Y-91610500D01*
X180086000Y-91610500D01*
X180086000Y-91630500D01*
G36*
X190246000Y-91630500D02*
X190266000Y-91630500D01*
X190266000Y-91884500D01*
X190246000Y-91884500D01*
X190246000Y-91904500D01*
X189992000Y-91904500D01*
X189992000Y-91884500D01*
X189972000Y-91884500D01*
X189972000Y-91630500D01*
X189992000Y-91630500D01*
X189992000Y-91610500D01*
X190246000Y-91610500D01*
X190246000Y-91630500D01*
X190246000Y-91630500D01*
G37*
X190246000Y-91630500D02*
X190266000Y-91630500D01*
X190266000Y-91884500D01*
X190246000Y-91884500D01*
X190246000Y-91904500D01*
X189992000Y-91904500D01*
X189992000Y-91884500D01*
X189972000Y-91884500D01*
X189972000Y-91630500D01*
X189992000Y-91630500D01*
X189992000Y-91610500D01*
X190246000Y-91610500D01*
X190246000Y-91630500D01*
G36*
X159766000Y-91630500D02*
X159786000Y-91630500D01*
X159786000Y-91884500D01*
X159766000Y-91884500D01*
X159766000Y-91904500D01*
X159512000Y-91904500D01*
X159512000Y-91884500D01*
X159492000Y-91884500D01*
X159492000Y-91630500D01*
X159512000Y-91630500D01*
X159512000Y-91610500D01*
X159766000Y-91610500D01*
X159766000Y-91630500D01*
X159766000Y-91630500D01*
G37*
X159766000Y-91630500D02*
X159786000Y-91630500D01*
X159786000Y-91884500D01*
X159766000Y-91884500D01*
X159766000Y-91904500D01*
X159512000Y-91904500D01*
X159512000Y-91884500D01*
X159492000Y-91884500D01*
X159492000Y-91630500D01*
X159512000Y-91630500D01*
X159512000Y-91610500D01*
X159766000Y-91610500D01*
X159766000Y-91630500D01*
G36*
X154686000Y-91630500D02*
X154706000Y-91630500D01*
X154706000Y-91884500D01*
X154686000Y-91884500D01*
X154686000Y-91904500D01*
X154432000Y-91904500D01*
X154432000Y-91884500D01*
X154412000Y-91884500D01*
X154412000Y-91630500D01*
X154432000Y-91630500D01*
X154432000Y-91610500D01*
X154686000Y-91610500D01*
X154686000Y-91630500D01*
X154686000Y-91630500D01*
G37*
X154686000Y-91630500D02*
X154706000Y-91630500D01*
X154706000Y-91884500D01*
X154686000Y-91884500D01*
X154686000Y-91904500D01*
X154432000Y-91904500D01*
X154432000Y-91884500D01*
X154412000Y-91884500D01*
X154412000Y-91630500D01*
X154432000Y-91630500D01*
X154432000Y-91610500D01*
X154686000Y-91610500D01*
X154686000Y-91630500D01*
G36*
X126837000Y-71235850D02*
X126995750Y-71394600D01*
X127586309Y-71394600D01*
X127819698Y-71297927D01*
X127998327Y-71119299D01*
X128095000Y-70885910D01*
X128095000Y-70745350D01*
X127943850Y-70594200D01*
X129997198Y-70594200D01*
X130174899Y-70771901D01*
X130421461Y-70936648D01*
X130550767Y-70962369D01*
X132206830Y-72618432D01*
X132031099Y-72545462D01*
X131659133Y-72545138D01*
X131315357Y-72687183D01*
X131282182Y-72720300D01*
X128239200Y-72720300D01*
X127948361Y-72778152D01*
X127701799Y-72942899D01*
X125311899Y-75332799D01*
X125147152Y-75579361D01*
X125089300Y-75870200D01*
X125089300Y-79103498D01*
X124681000Y-78695198D01*
X124681000Y-76502863D01*
X124713192Y-76470727D01*
X124855838Y-76127199D01*
X124856162Y-75755233D01*
X124714117Y-75411457D01*
X124451327Y-75148208D01*
X124107799Y-75005562D01*
X123735833Y-75005238D01*
X123392057Y-75147283D01*
X123128808Y-75410073D01*
X122986162Y-75753601D01*
X122985838Y-76125567D01*
X123127883Y-76469343D01*
X123161000Y-76502518D01*
X123161000Y-79010000D01*
X123218852Y-79300839D01*
X123383599Y-79547401D01*
X126357400Y-82521202D01*
X126357400Y-83590379D01*
X126030799Y-83454762D01*
X125983923Y-83454721D01*
X121171827Y-78642625D01*
X121233528Y-78602922D01*
X121317110Y-78660031D01*
X121569000Y-78711040D01*
X122169000Y-78711040D01*
X122404317Y-78666762D01*
X122620441Y-78527690D01*
X122765431Y-78315490D01*
X122816440Y-78063600D01*
X122816440Y-76063600D01*
X122772162Y-75828283D01*
X122633090Y-75612159D01*
X122629000Y-75609364D01*
X122629000Y-74221802D01*
X124195701Y-72655101D01*
X124360448Y-72408540D01*
X124418300Y-72117700D01*
X124418300Y-71502802D01*
X125060680Y-70860422D01*
X125106167Y-70860462D01*
X125325000Y-70770042D01*
X125325000Y-70885910D01*
X125421673Y-71119299D01*
X125600302Y-71297927D01*
X125833691Y-71394600D01*
X126424250Y-71394600D01*
X126583000Y-71235850D01*
X126583000Y-70594200D01*
X126837000Y-70594200D01*
X126837000Y-71235850D01*
X126837000Y-71235850D01*
G37*
X126837000Y-71235850D02*
X126995750Y-71394600D01*
X127586309Y-71394600D01*
X127819698Y-71297927D01*
X127998327Y-71119299D01*
X128095000Y-70885910D01*
X128095000Y-70745350D01*
X127943850Y-70594200D01*
X129997198Y-70594200D01*
X130174899Y-70771901D01*
X130421461Y-70936648D01*
X130550767Y-70962369D01*
X132206830Y-72618432D01*
X132031099Y-72545462D01*
X131659133Y-72545138D01*
X131315357Y-72687183D01*
X131282182Y-72720300D01*
X128239200Y-72720300D01*
X127948361Y-72778152D01*
X127701799Y-72942899D01*
X125311899Y-75332799D01*
X125147152Y-75579361D01*
X125089300Y-75870200D01*
X125089300Y-79103498D01*
X124681000Y-78695198D01*
X124681000Y-76502863D01*
X124713192Y-76470727D01*
X124855838Y-76127199D01*
X124856162Y-75755233D01*
X124714117Y-75411457D01*
X124451327Y-75148208D01*
X124107799Y-75005562D01*
X123735833Y-75005238D01*
X123392057Y-75147283D01*
X123128808Y-75410073D01*
X122986162Y-75753601D01*
X122985838Y-76125567D01*
X123127883Y-76469343D01*
X123161000Y-76502518D01*
X123161000Y-79010000D01*
X123218852Y-79300839D01*
X123383599Y-79547401D01*
X126357400Y-82521202D01*
X126357400Y-83590379D01*
X126030799Y-83454762D01*
X125983923Y-83454721D01*
X121171827Y-78642625D01*
X121233528Y-78602922D01*
X121317110Y-78660031D01*
X121569000Y-78711040D01*
X122169000Y-78711040D01*
X122404317Y-78666762D01*
X122620441Y-78527690D01*
X122765431Y-78315490D01*
X122816440Y-78063600D01*
X122816440Y-76063600D01*
X122772162Y-75828283D01*
X122633090Y-75612159D01*
X122629000Y-75609364D01*
X122629000Y-74221802D01*
X124195701Y-72655101D01*
X124360448Y-72408540D01*
X124418300Y-72117700D01*
X124418300Y-71502802D01*
X125060680Y-70860422D01*
X125106167Y-70860462D01*
X125325000Y-70770042D01*
X125325000Y-70885910D01*
X125421673Y-71119299D01*
X125600302Y-71297927D01*
X125833691Y-71394600D01*
X126424250Y-71394600D01*
X126583000Y-71235850D01*
X126583000Y-70594200D01*
X126837000Y-70594200D01*
X126837000Y-71235850D01*
G36*
X136779000Y-76885800D02*
X136799000Y-76885800D01*
X136799000Y-77139800D01*
X136779000Y-77139800D01*
X136779000Y-78464050D01*
X136937750Y-78622800D01*
X137078310Y-78622800D01*
X137295122Y-78532994D01*
X137370110Y-78584231D01*
X137622000Y-78635240D01*
X137787300Y-78635240D01*
X137787300Y-79027993D01*
X137446699Y-78886562D01*
X137074733Y-78886238D01*
X136730957Y-79028283D01*
X136467708Y-79291073D01*
X136411306Y-79426904D01*
X135619642Y-78635240D01*
X135682000Y-78635240D01*
X135917317Y-78590962D01*
X136007980Y-78532622D01*
X136225690Y-78622800D01*
X136366250Y-78622800D01*
X136525000Y-78464050D01*
X136525000Y-77139800D01*
X136505000Y-77139800D01*
X136505000Y-76885800D01*
X136525000Y-76885800D01*
X136525000Y-76865800D01*
X136779000Y-76865800D01*
X136779000Y-76885800D01*
X136779000Y-76885800D01*
G37*
X136779000Y-76885800D02*
X136799000Y-76885800D01*
X136799000Y-77139800D01*
X136779000Y-77139800D01*
X136779000Y-78464050D01*
X136937750Y-78622800D01*
X137078310Y-78622800D01*
X137295122Y-78532994D01*
X137370110Y-78584231D01*
X137622000Y-78635240D01*
X137787300Y-78635240D01*
X137787300Y-79027993D01*
X137446699Y-78886562D01*
X137074733Y-78886238D01*
X136730957Y-79028283D01*
X136467708Y-79291073D01*
X136411306Y-79426904D01*
X135619642Y-78635240D01*
X135682000Y-78635240D01*
X135917317Y-78590962D01*
X136007980Y-78532622D01*
X136225690Y-78622800D01*
X136366250Y-78622800D01*
X136525000Y-78464050D01*
X136525000Y-77139800D01*
X136505000Y-77139800D01*
X136505000Y-76885800D01*
X136525000Y-76885800D01*
X136525000Y-76865800D01*
X136779000Y-76865800D01*
X136779000Y-76885800D01*
M02*
