G04 #@! TF.FileFunction,Legend,Top*
%FSLAX46Y46*%
G04 Gerber Fmt 4.6, Leading zero omitted, Abs format (unit mm)*
G04 Created by KiCad (PCBNEW 4.0.7) date 01/15/20 01:18:49*
%MOMM*%
%LPD*%
G01*
G04 APERTURE LIST*
%ADD10C,0.100000*%
%ADD11C,0.300000*%
%ADD12C,0.120000*%
%ADD13C,0.150000*%
%ADD14C,0.010000*%
G04 APERTURE END LIST*
D10*
D11*
X111030430Y-85554429D02*
X111101859Y-85483000D01*
X111244716Y-85411571D01*
X111601859Y-85411571D01*
X111744716Y-85483000D01*
X111816145Y-85554429D01*
X111887573Y-85697286D01*
X111887573Y-85840143D01*
X111816145Y-86054429D01*
X110959002Y-86911571D01*
X111887573Y-86911571D01*
X112816144Y-85411571D02*
X112959001Y-85411571D01*
X113101858Y-85483000D01*
X113173287Y-85554429D01*
X113244716Y-85697286D01*
X113316144Y-85983000D01*
X113316144Y-86340143D01*
X113244716Y-86625857D01*
X113173287Y-86768714D01*
X113101858Y-86840143D01*
X112959001Y-86911571D01*
X112816144Y-86911571D01*
X112673287Y-86840143D01*
X112601858Y-86768714D01*
X112530430Y-86625857D01*
X112459001Y-86340143D01*
X112459001Y-85983000D01*
X112530430Y-85697286D01*
X112601858Y-85554429D01*
X112673287Y-85483000D01*
X112816144Y-85411571D01*
X113887572Y-85554429D02*
X113959001Y-85483000D01*
X114101858Y-85411571D01*
X114459001Y-85411571D01*
X114601858Y-85483000D01*
X114673287Y-85554429D01*
X114744715Y-85697286D01*
X114744715Y-85840143D01*
X114673287Y-86054429D01*
X113816144Y-86911571D01*
X114744715Y-86911571D01*
X115673286Y-85411571D02*
X115816143Y-85411571D01*
X115959000Y-85483000D01*
X116030429Y-85554429D01*
X116101858Y-85697286D01*
X116173286Y-85983000D01*
X116173286Y-86340143D01*
X116101858Y-86625857D01*
X116030429Y-86768714D01*
X115959000Y-86840143D01*
X115816143Y-86911571D01*
X115673286Y-86911571D01*
X115530429Y-86840143D01*
X115459000Y-86768714D01*
X115387572Y-86625857D01*
X115316143Y-86340143D01*
X115316143Y-85983000D01*
X115387572Y-85697286D01*
X115459000Y-85554429D01*
X115530429Y-85483000D01*
X115673286Y-85411571D01*
X116816143Y-86768714D02*
X116887571Y-86840143D01*
X116816143Y-86911571D01*
X116744714Y-86840143D01*
X116816143Y-86768714D01*
X116816143Y-86911571D01*
X118316143Y-86911571D02*
X117459000Y-86911571D01*
X117887572Y-86911571D02*
X117887572Y-85411571D01*
X117744715Y-85625857D01*
X117601857Y-85768714D01*
X117459000Y-85840143D01*
X118959000Y-86768714D02*
X119030428Y-86840143D01*
X118959000Y-86911571D01*
X118887571Y-86840143D01*
X118959000Y-86768714D01*
X118959000Y-86911571D01*
X120459000Y-86911571D02*
X119601857Y-86911571D01*
X120030429Y-86911571D02*
X120030429Y-85411571D01*
X119887572Y-85625857D01*
X119744714Y-85768714D01*
X119601857Y-85840143D01*
X121744714Y-85911571D02*
X121744714Y-86911571D01*
X121387571Y-85340143D02*
X121030428Y-86411571D01*
X121959000Y-86411571D01*
X129107086Y-67701943D02*
X128107086Y-66273371D01*
X127392801Y-67701943D02*
X127392801Y-64701943D01*
X128535658Y-64701943D01*
X128821372Y-64844800D01*
X128964229Y-64987657D01*
X129107086Y-65273371D01*
X129107086Y-65701943D01*
X128964229Y-65987657D01*
X128821372Y-66130514D01*
X128535658Y-66273371D01*
X127392801Y-66273371D01*
X130392801Y-67701943D02*
X130392801Y-64701943D01*
X131535658Y-64701943D01*
X131821372Y-64844800D01*
X131964229Y-64987657D01*
X132107086Y-65273371D01*
X132107086Y-65701943D01*
X131964229Y-65987657D01*
X131821372Y-66130514D01*
X131535658Y-66273371D01*
X130392801Y-66273371D01*
X133392801Y-67701943D02*
X133392801Y-64701943D01*
X134392801Y-66844800D01*
X135392801Y-64701943D01*
X135392801Y-67701943D01*
X136821372Y-67701943D02*
X136821372Y-64701943D01*
X137964229Y-64701943D01*
X138249943Y-64844800D01*
X138392800Y-64987657D01*
X138535657Y-65273371D01*
X138535657Y-65701943D01*
X138392800Y-65987657D01*
X138249943Y-66130514D01*
X137964229Y-66273371D01*
X136821372Y-66273371D01*
D12*
X196529000Y-90297500D02*
X193929000Y-90297500D01*
X193929000Y-90297500D02*
X193929000Y-81667500D01*
X193929000Y-81667500D02*
X196529000Y-81667500D01*
X196529000Y-81667500D02*
X196529000Y-90297500D01*
X195579000Y-90727500D02*
X195579000Y-90297500D01*
X194819000Y-90727500D02*
X194819000Y-90297500D01*
X195579000Y-93267500D02*
X195579000Y-92787500D01*
X194819000Y-93267500D02*
X194819000Y-92787500D01*
X196349000Y-90297500D02*
X196349000Y-81667500D01*
X196229000Y-90297500D02*
X196229000Y-81667500D01*
X196109000Y-90297500D02*
X196109000Y-81667500D01*
X195989000Y-90297500D02*
X195989000Y-81667500D01*
X195869000Y-90297500D02*
X195869000Y-81667500D01*
X195749000Y-90297500D02*
X195749000Y-81667500D01*
X195629000Y-90297500D02*
X195629000Y-81667500D01*
X195509000Y-90297500D02*
X195509000Y-81667500D01*
X195389000Y-90297500D02*
X195389000Y-81667500D01*
X195269000Y-90297500D02*
X195269000Y-81667500D01*
X195149000Y-90297500D02*
X195149000Y-81667500D01*
X195029000Y-90297500D02*
X195029000Y-81667500D01*
X194909000Y-90297500D02*
X194909000Y-81667500D01*
X194789000Y-90297500D02*
X194789000Y-81667500D01*
X194669000Y-90297500D02*
X194669000Y-81667500D01*
X194549000Y-90297500D02*
X194549000Y-81667500D01*
X194429000Y-90297500D02*
X194429000Y-81667500D01*
X194309000Y-90297500D02*
X194309000Y-81667500D01*
X194189000Y-90297500D02*
X194189000Y-81667500D01*
X194069000Y-90297500D02*
X194069000Y-81667500D01*
X193949000Y-90297500D02*
X193949000Y-81667500D01*
X193829000Y-90297500D02*
X193829000Y-81667500D01*
X193929000Y-90297500D02*
X191389000Y-90297500D01*
X191389000Y-90297500D02*
X191389000Y-81667500D01*
X191389000Y-81667500D02*
X193929000Y-81667500D01*
X193929000Y-81667500D02*
X193929000Y-90297500D01*
X193039000Y-90727500D02*
X193039000Y-90297500D01*
X192279000Y-90727500D02*
X192279000Y-90297500D01*
X193039000Y-93267500D02*
X193039000Y-92787500D01*
X192279000Y-93267500D02*
X192279000Y-92787500D01*
X191389000Y-90297500D02*
X188849000Y-90297500D01*
X188849000Y-90297500D02*
X188849000Y-81667500D01*
X188849000Y-81667500D02*
X191389000Y-81667500D01*
X191389000Y-81667500D02*
X191389000Y-90297500D01*
X190499000Y-90727500D02*
X190499000Y-90297500D01*
X189739000Y-90727500D02*
X189739000Y-90297500D01*
X190499000Y-93267500D02*
X190499000Y-92787500D01*
X189739000Y-93267500D02*
X189739000Y-92787500D01*
X188849000Y-90297500D02*
X186309000Y-90297500D01*
X186309000Y-90297500D02*
X186309000Y-81667500D01*
X186309000Y-81667500D02*
X188849000Y-81667500D01*
X188849000Y-81667500D02*
X188849000Y-90297500D01*
X187959000Y-90727500D02*
X187959000Y-90297500D01*
X187199000Y-90727500D02*
X187199000Y-90297500D01*
X187959000Y-93267500D02*
X187959000Y-92787500D01*
X187199000Y-93267500D02*
X187199000Y-92787500D01*
X186309000Y-90297500D02*
X183769000Y-90297500D01*
X183769000Y-90297500D02*
X183769000Y-81667500D01*
X183769000Y-81667500D02*
X186309000Y-81667500D01*
X186309000Y-81667500D02*
X186309000Y-90297500D01*
X185419000Y-90727500D02*
X185419000Y-90297500D01*
X184659000Y-90727500D02*
X184659000Y-90297500D01*
X185419000Y-93267500D02*
X185419000Y-92787500D01*
X184659000Y-93267500D02*
X184659000Y-92787500D01*
X183769000Y-90297500D02*
X181229000Y-90297500D01*
X181229000Y-90297500D02*
X181229000Y-81667500D01*
X181229000Y-81667500D02*
X183769000Y-81667500D01*
X183769000Y-81667500D02*
X183769000Y-90297500D01*
X182879000Y-90727500D02*
X182879000Y-90297500D01*
X182119000Y-90727500D02*
X182119000Y-90297500D01*
X182879000Y-93267500D02*
X182879000Y-92787500D01*
X182119000Y-93267500D02*
X182119000Y-92787500D01*
X181229000Y-90297500D02*
X178689000Y-90297500D01*
X178689000Y-90297500D02*
X178689000Y-81667500D01*
X178689000Y-81667500D02*
X181229000Y-81667500D01*
X181229000Y-81667500D02*
X181229000Y-90297500D01*
X180339000Y-90727500D02*
X180339000Y-90297500D01*
X179579000Y-90727500D02*
X179579000Y-90297500D01*
X180339000Y-93267500D02*
X180339000Y-92787500D01*
X179579000Y-93267500D02*
X179579000Y-92787500D01*
X178689000Y-90297500D02*
X176149000Y-90297500D01*
X176149000Y-90297500D02*
X176149000Y-81667500D01*
X176149000Y-81667500D02*
X178689000Y-81667500D01*
X178689000Y-81667500D02*
X178689000Y-90297500D01*
X177799000Y-90727500D02*
X177799000Y-90297500D01*
X177039000Y-90727500D02*
X177039000Y-90297500D01*
X177799000Y-93267500D02*
X177799000Y-92787500D01*
X177039000Y-93267500D02*
X177039000Y-92787500D01*
X176149000Y-90297500D02*
X173609000Y-90297500D01*
X173609000Y-90297500D02*
X173609000Y-81667500D01*
X173609000Y-81667500D02*
X176149000Y-81667500D01*
X176149000Y-81667500D02*
X176149000Y-90297500D01*
X175259000Y-90727500D02*
X175259000Y-90297500D01*
X174499000Y-90727500D02*
X174499000Y-90297500D01*
X175259000Y-93267500D02*
X175259000Y-92787500D01*
X174499000Y-93267500D02*
X174499000Y-92787500D01*
X173609000Y-90297500D02*
X171069000Y-90297500D01*
X171069000Y-90297500D02*
X171069000Y-81667500D01*
X171069000Y-81667500D02*
X173609000Y-81667500D01*
X173609000Y-81667500D02*
X173609000Y-90297500D01*
X172719000Y-90727500D02*
X172719000Y-90297500D01*
X171959000Y-90727500D02*
X171959000Y-90297500D01*
X172719000Y-93267500D02*
X172719000Y-92787500D01*
X171959000Y-93267500D02*
X171959000Y-92787500D01*
X171069000Y-90297500D02*
X168529000Y-90297500D01*
X168529000Y-90297500D02*
X168529000Y-81667500D01*
X168529000Y-81667500D02*
X171069000Y-81667500D01*
X171069000Y-81667500D02*
X171069000Y-90297500D01*
X170179000Y-90727500D02*
X170179000Y-90297500D01*
X169419000Y-90727500D02*
X169419000Y-90297500D01*
X170179000Y-93267500D02*
X170179000Y-92787500D01*
X169419000Y-93267500D02*
X169419000Y-92787500D01*
X168529000Y-90297500D02*
X165989000Y-90297500D01*
X165989000Y-90297500D02*
X165989000Y-81667500D01*
X165989000Y-81667500D02*
X168529000Y-81667500D01*
X168529000Y-81667500D02*
X168529000Y-90297500D01*
X167639000Y-90727500D02*
X167639000Y-90297500D01*
X166879000Y-90727500D02*
X166879000Y-90297500D01*
X167639000Y-93267500D02*
X167639000Y-92787500D01*
X166879000Y-93267500D02*
X166879000Y-92787500D01*
X165989000Y-90297500D02*
X163449000Y-90297500D01*
X163449000Y-90297500D02*
X163449000Y-81667500D01*
X163449000Y-81667500D02*
X165989000Y-81667500D01*
X165989000Y-81667500D02*
X165989000Y-90297500D01*
X165099000Y-90727500D02*
X165099000Y-90297500D01*
X164339000Y-90727500D02*
X164339000Y-90297500D01*
X165099000Y-93267500D02*
X165099000Y-92787500D01*
X164339000Y-93267500D02*
X164339000Y-92787500D01*
X163449000Y-90297500D02*
X160909000Y-90297500D01*
X160909000Y-90297500D02*
X160909000Y-81667500D01*
X160909000Y-81667500D02*
X163449000Y-81667500D01*
X163449000Y-81667500D02*
X163449000Y-90297500D01*
X162559000Y-90727500D02*
X162559000Y-90297500D01*
X161799000Y-90727500D02*
X161799000Y-90297500D01*
X162559000Y-93267500D02*
X162559000Y-92787500D01*
X161799000Y-93267500D02*
X161799000Y-92787500D01*
X160909000Y-90297500D02*
X158369000Y-90297500D01*
X158369000Y-90297500D02*
X158369000Y-81667500D01*
X158369000Y-81667500D02*
X160909000Y-81667500D01*
X160909000Y-81667500D02*
X160909000Y-90297500D01*
X160019000Y-90727500D02*
X160019000Y-90297500D01*
X159259000Y-90727500D02*
X159259000Y-90297500D01*
X160019000Y-93267500D02*
X160019000Y-92787500D01*
X159259000Y-93267500D02*
X159259000Y-92787500D01*
X158369000Y-90297500D02*
X155829000Y-90297500D01*
X155829000Y-90297500D02*
X155829000Y-81667500D01*
X155829000Y-81667500D02*
X158369000Y-81667500D01*
X158369000Y-81667500D02*
X158369000Y-90297500D01*
X157479000Y-90727500D02*
X157479000Y-90297500D01*
X156719000Y-90727500D02*
X156719000Y-90297500D01*
X157479000Y-93267500D02*
X157479000Y-92787500D01*
X156719000Y-93267500D02*
X156719000Y-92787500D01*
X155829000Y-90297500D02*
X153289000Y-90297500D01*
X153289000Y-90297500D02*
X153289000Y-81667500D01*
X153289000Y-81667500D02*
X155829000Y-81667500D01*
X155829000Y-81667500D02*
X155829000Y-90297500D01*
X154939000Y-90727500D02*
X154939000Y-90297500D01*
X154179000Y-90727500D02*
X154179000Y-90297500D01*
X154939000Y-93267500D02*
X154939000Y-92787500D01*
X154179000Y-93267500D02*
X154179000Y-92787500D01*
X153289000Y-90297500D02*
X150749000Y-90297500D01*
X150749000Y-90297500D02*
X150749000Y-81667500D01*
X150749000Y-81667500D02*
X153289000Y-81667500D01*
X153289000Y-81667500D02*
X153289000Y-90297500D01*
X152399000Y-90727500D02*
X152399000Y-90297500D01*
X151639000Y-90727500D02*
X151639000Y-90297500D01*
X152399000Y-93267500D02*
X152399000Y-92787500D01*
X151639000Y-93267500D02*
X151639000Y-92787500D01*
X150749000Y-90297500D02*
X148209000Y-90297500D01*
X148209000Y-90297500D02*
X148209000Y-81667500D01*
X148209000Y-81667500D02*
X150749000Y-81667500D01*
X150749000Y-81667500D02*
X150749000Y-90297500D01*
X149859000Y-90727500D02*
X149859000Y-90297500D01*
X149099000Y-90727500D02*
X149099000Y-90297500D01*
X149859000Y-93267500D02*
X149859000Y-92787500D01*
X149099000Y-93267500D02*
X149099000Y-92787500D01*
X148209000Y-90297500D02*
X145609000Y-90297500D01*
X145609000Y-90297500D02*
X145609000Y-81667500D01*
X145609000Y-81667500D02*
X148209000Y-81667500D01*
X148209000Y-81667500D02*
X148209000Y-90297500D01*
X147319000Y-90727500D02*
X147319000Y-90297500D01*
X146559000Y-90727500D02*
X146559000Y-90297500D01*
X147319000Y-93267500D02*
X147319000Y-92787500D01*
X146559000Y-93267500D02*
X146559000Y-92787500D01*
X196469000Y-94297500D02*
X196469000Y-95567500D01*
X196469000Y-95567500D02*
X195199000Y-95567500D01*
X121352000Y-94918500D02*
X121352000Y-96088500D01*
X121352000Y-99488500D02*
X121352000Y-98318500D01*
X116772000Y-98728500D02*
X116772000Y-98318500D01*
X116772000Y-95678500D02*
X116772000Y-96088500D01*
X117542000Y-94918500D02*
X121352000Y-94918500D01*
X117542000Y-94918500D02*
X116772000Y-95678500D01*
X117542000Y-99488500D02*
X121352000Y-99488500D01*
X117542000Y-99488500D02*
X116772000Y-98728500D01*
X114269000Y-51353000D02*
X120369000Y-51353000D01*
X114269000Y-52453000D02*
X114269000Y-51353000D01*
X120369000Y-56753000D02*
X115369000Y-56753000D01*
D13*
X124819000Y-80558600D02*
X125069000Y-80558600D01*
X124819000Y-72808600D02*
X125154000Y-72808600D01*
X137969000Y-72808600D02*
X137634000Y-72808600D01*
X137969000Y-80558600D02*
X137634000Y-80558600D01*
X124819000Y-80558600D02*
X124819000Y-72808600D01*
X137969000Y-80558600D02*
X137969000Y-72808600D01*
X125069000Y-80558600D02*
X125069000Y-82358600D01*
X109020000Y-80558600D02*
X109270000Y-80558600D01*
X109020000Y-72808600D02*
X109355000Y-72808600D01*
X122170000Y-72808600D02*
X121835000Y-72808600D01*
X122170000Y-80558600D02*
X121835000Y-80558600D01*
X109020000Y-80558600D02*
X109020000Y-72808600D01*
X122170000Y-80558600D02*
X122170000Y-72808600D01*
X109270000Y-80558600D02*
X109270000Y-82358600D01*
D12*
X107001000Y-61718500D02*
X109661000Y-61718500D01*
X107001000Y-54038500D02*
X107001000Y-61718500D01*
X109661000Y-54038500D02*
X109661000Y-61718500D01*
X107001000Y-54038500D02*
X109661000Y-54038500D01*
X107001000Y-52768500D02*
X107001000Y-51438500D01*
X107001000Y-51438500D02*
X108331000Y-51438500D01*
D14*
G36*
X123511733Y-69231933D02*
X109965067Y-69231933D01*
X109965067Y-68374683D01*
X110863941Y-68374683D01*
X110875732Y-68397382D01*
X110936708Y-68413002D01*
X111056755Y-68422534D01*
X111245759Y-68426970D01*
X111391334Y-68427600D01*
X111937660Y-68427600D01*
X112147280Y-67560335D01*
X112210468Y-67303011D01*
X112268115Y-67075982D01*
X112317008Y-66891279D01*
X112353936Y-66760935D01*
X112375685Y-66696984D01*
X112378986Y-66692501D01*
X112397303Y-66730826D01*
X112432964Y-66836724D01*
X112481536Y-66995950D01*
X112538584Y-67194260D01*
X112566588Y-67295183D01*
X112633018Y-67535656D01*
X112699053Y-67771838D01*
X112757965Y-67979848D01*
X112803026Y-68135806D01*
X112811086Y-68163016D01*
X112890067Y-68427600D01*
X113353733Y-68427600D01*
X113540441Y-68426698D01*
X113691220Y-68424256D01*
X113788942Y-68420662D01*
X113817496Y-68417016D01*
X113828105Y-68369727D01*
X113857119Y-68256303D01*
X113900569Y-68091351D01*
X113954489Y-67889478D01*
X114014911Y-67665292D01*
X114077867Y-67433398D01*
X114139391Y-67208405D01*
X114195514Y-67004919D01*
X114242269Y-66837548D01*
X114275689Y-66720898D01*
X114291806Y-66669576D01*
X114292420Y-66668468D01*
X114307234Y-66702820D01*
X114340093Y-66807513D01*
X114387656Y-66970968D01*
X114446585Y-67181604D01*
X114513541Y-67427841D01*
X114540787Y-67529814D01*
X114773881Y-68406433D01*
X116357890Y-68417541D01*
X117941898Y-68428648D01*
X118161862Y-68321030D01*
X118436923Y-68142360D01*
X118649147Y-67909662D01*
X118794039Y-67630263D01*
X118867107Y-67311487D01*
X118875357Y-67157600D01*
X118838564Y-66825497D01*
X118726124Y-66531366D01*
X118537851Y-66274787D01*
X118448175Y-66188618D01*
X118314868Y-66081997D01*
X118181211Y-66003235D01*
X118031260Y-65948385D01*
X117849073Y-65913505D01*
X117618707Y-65894648D01*
X117324219Y-65887870D01*
X117231609Y-65887599D01*
X116952098Y-65884855D01*
X116746307Y-65874460D01*
X116603403Y-65853171D01*
X116512555Y-65817746D01*
X116462929Y-65764941D01*
X116443694Y-65691514D01*
X116442066Y-65651229D01*
X116444042Y-65590713D01*
X116455445Y-65541906D01*
X116484494Y-65503549D01*
X116539406Y-65474383D01*
X116628398Y-65453151D01*
X116759688Y-65438593D01*
X116941492Y-65429451D01*
X117182028Y-65424466D01*
X117489514Y-65422381D01*
X117872165Y-65421936D01*
X117939213Y-65421933D01*
X119303313Y-65421933D01*
X119610830Y-65871790D01*
X119726822Y-66048452D01*
X119818420Y-66201600D01*
X119877500Y-66316667D01*
X119895940Y-66379087D01*
X119895251Y-66381834D01*
X119865738Y-66431140D01*
X119793987Y-66540207D01*
X119686460Y-66699535D01*
X119549621Y-66899625D01*
X119389930Y-67130979D01*
X119213852Y-67384099D01*
X119194278Y-67412123D01*
X119018329Y-67664701D01*
X118859367Y-67894392D01*
X118723563Y-68092157D01*
X118617090Y-68248955D01*
X118546120Y-68355749D01*
X118516825Y-68403497D01*
X118516400Y-68404913D01*
X118556278Y-68412854D01*
X118666096Y-68419581D01*
X118831132Y-68424563D01*
X119036661Y-68427267D01*
X119143627Y-68427600D01*
X119770855Y-68427600D01*
X120584637Y-67234842D01*
X120812571Y-67545471D01*
X120948625Y-67732178D01*
X121096982Y-67937772D01*
X121228232Y-68121472D01*
X121242668Y-68141850D01*
X121444832Y-68427599D01*
X122054949Y-68427600D01*
X122271275Y-68425869D01*
X122453858Y-68421111D01*
X122587772Y-68413972D01*
X122658087Y-68405102D01*
X122665067Y-68401104D01*
X122641587Y-68361000D01*
X122575268Y-68260857D01*
X122472290Y-68109666D01*
X122338833Y-67916423D01*
X122181077Y-67690119D01*
X122005204Y-67439748D01*
X121974124Y-67395688D01*
X121794217Y-67140512D01*
X121629687Y-66906605D01*
X121487043Y-66703263D01*
X121372794Y-66539782D01*
X121293448Y-66425459D01*
X121255514Y-66369588D01*
X121253811Y-66366847D01*
X121269418Y-66319309D01*
X121330262Y-66211355D01*
X121431345Y-66050722D01*
X121567666Y-65845145D01*
X121734225Y-65602360D01*
X121902421Y-65363260D01*
X122079362Y-65113570D01*
X122239082Y-64886645D01*
X122375303Y-64691532D01*
X122481744Y-64537278D01*
X122552124Y-64432929D01*
X122580166Y-64387531D01*
X122580400Y-64386596D01*
X122540528Y-64378621D01*
X122430750Y-64372042D01*
X122265823Y-64367369D01*
X122060501Y-64365111D01*
X121955983Y-64365025D01*
X121331567Y-64366451D01*
X121043156Y-64780416D01*
X120920192Y-64955440D01*
X120805826Y-65115601D01*
X120713769Y-65241852D01*
X120662156Y-65309708D01*
X120569567Y-65425034D01*
X120188567Y-64893748D01*
X119807567Y-64362461D01*
X118114233Y-64373613D01*
X116420900Y-64384766D01*
X116182986Y-64496321D01*
X115882750Y-64673319D01*
X115657553Y-64888710D01*
X115505762Y-65144970D01*
X115425748Y-65444571D01*
X115411463Y-65666432D01*
X115417973Y-65847970D01*
X115442873Y-65989739D01*
X115496250Y-66132733D01*
X115556833Y-66257221D01*
X115727019Y-66519050D01*
X115934175Y-66717205D01*
X116168536Y-66842832D01*
X116220886Y-66859335D01*
X116318347Y-66874723D01*
X116481130Y-66887778D01*
X116689900Y-66897457D01*
X116925320Y-66902716D01*
X117036850Y-66903363D01*
X117328576Y-66906319D01*
X117540439Y-66915170D01*
X117677061Y-66930248D01*
X117743062Y-66951885D01*
X117745933Y-66954400D01*
X117790897Y-67046900D01*
X117795236Y-67166260D01*
X117762275Y-67274421D01*
X117713437Y-67326199D01*
X117639245Y-67341546D01*
X117484519Y-67352630D01*
X117253288Y-67359333D01*
X116949585Y-67361531D01*
X116606655Y-67359439D01*
X115583168Y-67348100D01*
X115208042Y-66014600D01*
X115115403Y-65685184D01*
X115028351Y-65375443D01*
X114950010Y-65096503D01*
X114883501Y-64859489D01*
X114831947Y-64675524D01*
X114798470Y-64555734D01*
X114788813Y-64520938D01*
X114744709Y-64360776D01*
X113840457Y-64384766D01*
X113605353Y-65189100D01*
X113531885Y-65439669D01*
X113465522Y-65664545D01*
X113410274Y-65850249D01*
X113370154Y-65983305D01*
X113349174Y-66050237D01*
X113348093Y-66053295D01*
X113330719Y-66033315D01*
X113295163Y-65942711D01*
X113245115Y-65792654D01*
X113184266Y-65594312D01*
X113116304Y-65358855D01*
X113103341Y-65312462D01*
X113033358Y-65060860D01*
X112970172Y-64833953D01*
X112917658Y-64645633D01*
X112879690Y-64509791D01*
X112860143Y-64440319D01*
X112859387Y-64437683D01*
X112840638Y-64405188D01*
X112796862Y-64383733D01*
X112713251Y-64371118D01*
X112574994Y-64365141D01*
X112367283Y-64363600D01*
X111883949Y-64363600D01*
X111383411Y-66342683D01*
X111283013Y-66739206D01*
X111188562Y-67111386D01*
X111102155Y-67451024D01*
X111025887Y-67749922D01*
X110961855Y-67999880D01*
X110912154Y-68192699D01*
X110878881Y-68320182D01*
X110864131Y-68374128D01*
X110863941Y-68374683D01*
X109965067Y-68374683D01*
X109965067Y-63601600D01*
X123511733Y-63601600D01*
X123511733Y-69231933D01*
X123511733Y-69231933D01*
G37*
X123511733Y-69231933D02*
X109965067Y-69231933D01*
X109965067Y-68374683D01*
X110863941Y-68374683D01*
X110875732Y-68397382D01*
X110936708Y-68413002D01*
X111056755Y-68422534D01*
X111245759Y-68426970D01*
X111391334Y-68427600D01*
X111937660Y-68427600D01*
X112147280Y-67560335D01*
X112210468Y-67303011D01*
X112268115Y-67075982D01*
X112317008Y-66891279D01*
X112353936Y-66760935D01*
X112375685Y-66696984D01*
X112378986Y-66692501D01*
X112397303Y-66730826D01*
X112432964Y-66836724D01*
X112481536Y-66995950D01*
X112538584Y-67194260D01*
X112566588Y-67295183D01*
X112633018Y-67535656D01*
X112699053Y-67771838D01*
X112757965Y-67979848D01*
X112803026Y-68135806D01*
X112811086Y-68163016D01*
X112890067Y-68427600D01*
X113353733Y-68427600D01*
X113540441Y-68426698D01*
X113691220Y-68424256D01*
X113788942Y-68420662D01*
X113817496Y-68417016D01*
X113828105Y-68369727D01*
X113857119Y-68256303D01*
X113900569Y-68091351D01*
X113954489Y-67889478D01*
X114014911Y-67665292D01*
X114077867Y-67433398D01*
X114139391Y-67208405D01*
X114195514Y-67004919D01*
X114242269Y-66837548D01*
X114275689Y-66720898D01*
X114291806Y-66669576D01*
X114292420Y-66668468D01*
X114307234Y-66702820D01*
X114340093Y-66807513D01*
X114387656Y-66970968D01*
X114446585Y-67181604D01*
X114513541Y-67427841D01*
X114540787Y-67529814D01*
X114773881Y-68406433D01*
X116357890Y-68417541D01*
X117941898Y-68428648D01*
X118161862Y-68321030D01*
X118436923Y-68142360D01*
X118649147Y-67909662D01*
X118794039Y-67630263D01*
X118867107Y-67311487D01*
X118875357Y-67157600D01*
X118838564Y-66825497D01*
X118726124Y-66531366D01*
X118537851Y-66274787D01*
X118448175Y-66188618D01*
X118314868Y-66081997D01*
X118181211Y-66003235D01*
X118031260Y-65948385D01*
X117849073Y-65913505D01*
X117618707Y-65894648D01*
X117324219Y-65887870D01*
X117231609Y-65887599D01*
X116952098Y-65884855D01*
X116746307Y-65874460D01*
X116603403Y-65853171D01*
X116512555Y-65817746D01*
X116462929Y-65764941D01*
X116443694Y-65691514D01*
X116442066Y-65651229D01*
X116444042Y-65590713D01*
X116455445Y-65541906D01*
X116484494Y-65503549D01*
X116539406Y-65474383D01*
X116628398Y-65453151D01*
X116759688Y-65438593D01*
X116941492Y-65429451D01*
X117182028Y-65424466D01*
X117489514Y-65422381D01*
X117872165Y-65421936D01*
X117939213Y-65421933D01*
X119303313Y-65421933D01*
X119610830Y-65871790D01*
X119726822Y-66048452D01*
X119818420Y-66201600D01*
X119877500Y-66316667D01*
X119895940Y-66379087D01*
X119895251Y-66381834D01*
X119865738Y-66431140D01*
X119793987Y-66540207D01*
X119686460Y-66699535D01*
X119549621Y-66899625D01*
X119389930Y-67130979D01*
X119213852Y-67384099D01*
X119194278Y-67412123D01*
X119018329Y-67664701D01*
X118859367Y-67894392D01*
X118723563Y-68092157D01*
X118617090Y-68248955D01*
X118546120Y-68355749D01*
X118516825Y-68403497D01*
X118516400Y-68404913D01*
X118556278Y-68412854D01*
X118666096Y-68419581D01*
X118831132Y-68424563D01*
X119036661Y-68427267D01*
X119143627Y-68427600D01*
X119770855Y-68427600D01*
X120584637Y-67234842D01*
X120812571Y-67545471D01*
X120948625Y-67732178D01*
X121096982Y-67937772D01*
X121228232Y-68121472D01*
X121242668Y-68141850D01*
X121444832Y-68427599D01*
X122054949Y-68427600D01*
X122271275Y-68425869D01*
X122453858Y-68421111D01*
X122587772Y-68413972D01*
X122658087Y-68405102D01*
X122665067Y-68401104D01*
X122641587Y-68361000D01*
X122575268Y-68260857D01*
X122472290Y-68109666D01*
X122338833Y-67916423D01*
X122181077Y-67690119D01*
X122005204Y-67439748D01*
X121974124Y-67395688D01*
X121794217Y-67140512D01*
X121629687Y-66906605D01*
X121487043Y-66703263D01*
X121372794Y-66539782D01*
X121293448Y-66425459D01*
X121255514Y-66369588D01*
X121253811Y-66366847D01*
X121269418Y-66319309D01*
X121330262Y-66211355D01*
X121431345Y-66050722D01*
X121567666Y-65845145D01*
X121734225Y-65602360D01*
X121902421Y-65363260D01*
X122079362Y-65113570D01*
X122239082Y-64886645D01*
X122375303Y-64691532D01*
X122481744Y-64537278D01*
X122552124Y-64432929D01*
X122580166Y-64387531D01*
X122580400Y-64386596D01*
X122540528Y-64378621D01*
X122430750Y-64372042D01*
X122265823Y-64367369D01*
X122060501Y-64365111D01*
X121955983Y-64365025D01*
X121331567Y-64366451D01*
X121043156Y-64780416D01*
X120920192Y-64955440D01*
X120805826Y-65115601D01*
X120713769Y-65241852D01*
X120662156Y-65309708D01*
X120569567Y-65425034D01*
X120188567Y-64893748D01*
X119807567Y-64362461D01*
X118114233Y-64373613D01*
X116420900Y-64384766D01*
X116182986Y-64496321D01*
X115882750Y-64673319D01*
X115657553Y-64888710D01*
X115505762Y-65144970D01*
X115425748Y-65444571D01*
X115411463Y-65666432D01*
X115417973Y-65847970D01*
X115442873Y-65989739D01*
X115496250Y-66132733D01*
X115556833Y-66257221D01*
X115727019Y-66519050D01*
X115934175Y-66717205D01*
X116168536Y-66842832D01*
X116220886Y-66859335D01*
X116318347Y-66874723D01*
X116481130Y-66887778D01*
X116689900Y-66897457D01*
X116925320Y-66902716D01*
X117036850Y-66903363D01*
X117328576Y-66906319D01*
X117540439Y-66915170D01*
X117677061Y-66930248D01*
X117743062Y-66951885D01*
X117745933Y-66954400D01*
X117790897Y-67046900D01*
X117795236Y-67166260D01*
X117762275Y-67274421D01*
X117713437Y-67326199D01*
X117639245Y-67341546D01*
X117484519Y-67352630D01*
X117253288Y-67359333D01*
X116949585Y-67361531D01*
X116606655Y-67359439D01*
X115583168Y-67348100D01*
X115208042Y-66014600D01*
X115115403Y-65685184D01*
X115028351Y-65375443D01*
X114950010Y-65096503D01*
X114883501Y-64859489D01*
X114831947Y-64675524D01*
X114798470Y-64555734D01*
X114788813Y-64520938D01*
X114744709Y-64360776D01*
X113840457Y-64384766D01*
X113605353Y-65189100D01*
X113531885Y-65439669D01*
X113465522Y-65664545D01*
X113410274Y-65850249D01*
X113370154Y-65983305D01*
X113349174Y-66050237D01*
X113348093Y-66053295D01*
X113330719Y-66033315D01*
X113295163Y-65942711D01*
X113245115Y-65792654D01*
X113184266Y-65594312D01*
X113116304Y-65358855D01*
X113103341Y-65312462D01*
X113033358Y-65060860D01*
X112970172Y-64833953D01*
X112917658Y-64645633D01*
X112879690Y-64509791D01*
X112860143Y-64440319D01*
X112859387Y-64437683D01*
X112840638Y-64405188D01*
X112796862Y-64383733D01*
X112713251Y-64371118D01*
X112574994Y-64365141D01*
X112367283Y-64363600D01*
X111883949Y-64363600D01*
X111383411Y-66342683D01*
X111283013Y-66739206D01*
X111188562Y-67111386D01*
X111102155Y-67451024D01*
X111025887Y-67749922D01*
X110961855Y-67999880D01*
X110912154Y-68192699D01*
X110878881Y-68320182D01*
X110864131Y-68374128D01*
X110863941Y-68374683D01*
X109965067Y-68374683D01*
X109965067Y-63601600D01*
X123511733Y-63601600D01*
X123511733Y-69231933D01*
G36*
X140081026Y-91674871D02*
X140127520Y-91693189D01*
X140153012Y-91706855D01*
X140175631Y-91711319D01*
X140205461Y-91707182D01*
X140235470Y-91699642D01*
X140322788Y-91683911D01*
X140403270Y-91683871D01*
X140471035Y-91699362D01*
X140487044Y-91706518D01*
X140519275Y-91724856D01*
X140540944Y-91740661D01*
X140544437Y-91744618D01*
X140560270Y-91751075D01*
X140594198Y-91755697D01*
X140638933Y-91757499D01*
X140639722Y-91757499D01*
X140712811Y-91761318D01*
X140767625Y-91773931D01*
X140810290Y-91797078D01*
X140826106Y-91810402D01*
X140846891Y-91824632D01*
X140876438Y-91833513D01*
X140921325Y-91838593D01*
X140953106Y-91840253D01*
X141041353Y-91846736D01*
X141109875Y-91859200D01*
X141163980Y-91879342D01*
X141208979Y-91908859D01*
X141231185Y-91929116D01*
X141264349Y-91959755D01*
X141289265Y-91974567D01*
X141313652Y-91977481D01*
X141323975Y-91976347D01*
X141403132Y-91976213D01*
X141476061Y-91998012D01*
X141538151Y-92039498D01*
X141584791Y-92098427D01*
X141588396Y-92105130D01*
X141604338Y-92156496D01*
X141608630Y-92218432D01*
X141601250Y-92278923D01*
X141588794Y-92314642D01*
X141575735Y-92344155D01*
X141575781Y-92364618D01*
X141589966Y-92389163D01*
X141595256Y-92396652D01*
X141616784Y-92442124D01*
X141627290Y-92504919D01*
X141627810Y-92512609D01*
X141628527Y-92561307D01*
X141621840Y-92600432D01*
X141604945Y-92642801D01*
X141594859Y-92663217D01*
X141574208Y-92706942D01*
X141564849Y-92738395D01*
X141564797Y-92766960D01*
X141568587Y-92787416D01*
X141572774Y-92855177D01*
X141554305Y-92924150D01*
X141512414Y-92996632D01*
X141488850Y-93027218D01*
X141466825Y-93058666D01*
X141455941Y-93090485D01*
X141452657Y-93134063D01*
X141452600Y-93143866D01*
X141449569Y-93203692D01*
X141437908Y-93250104D01*
X141413760Y-93292558D01*
X141373269Y-93340508D01*
X141371719Y-93342175D01*
X141337909Y-93382222D01*
X141318632Y-93417328D01*
X141308404Y-93458182D01*
X141306891Y-93468503D01*
X141291101Y-93529794D01*
X141259432Y-93585961D01*
X141208942Y-93641062D01*
X141142847Y-93694660D01*
X141098373Y-93729230D01*
X141072139Y-93755192D01*
X141060433Y-93776707D01*
X141058834Y-93788774D01*
X141049754Y-93827657D01*
X141026275Y-93873257D01*
X140993849Y-93916444D01*
X140968044Y-93940898D01*
X140938790Y-93960148D01*
X140896162Y-93984065D01*
X140855202Y-94004650D01*
X140808840Y-94028881D01*
X140779554Y-94051483D01*
X140760232Y-94078572D01*
X140753765Y-94091887D01*
X140715708Y-94147016D01*
X140655674Y-94194423D01*
X140576317Y-94232582D01*
X140480292Y-94259969D01*
X140451768Y-94265332D01*
X140419151Y-94272817D01*
X140400330Y-94280959D01*
X140398500Y-94283699D01*
X140408520Y-94294205D01*
X140435331Y-94314400D01*
X140474054Y-94340716D01*
X140494302Y-94353755D01*
X140570010Y-94407625D01*
X140652576Y-94476279D01*
X140735008Y-94553207D01*
X140810313Y-94631903D01*
X140868737Y-94702185D01*
X140924578Y-94785538D01*
X140980218Y-94885441D01*
X141031566Y-94993342D01*
X141074532Y-95100690D01*
X141103464Y-95192850D01*
X141118628Y-95261071D01*
X141132879Y-95342909D01*
X141144316Y-95426600D01*
X141149446Y-95477692D01*
X141158327Y-95564780D01*
X141170399Y-95631695D01*
X141188002Y-95683650D01*
X141213477Y-95725858D01*
X141249165Y-95763531D01*
X141293850Y-95799270D01*
X141426180Y-95911903D01*
X141545154Y-96043560D01*
X141647707Y-96190048D01*
X141730775Y-96347171D01*
X141774309Y-96457188D01*
X141822113Y-96634997D01*
X141845569Y-96816208D01*
X141845051Y-96998388D01*
X141820932Y-97179104D01*
X141773585Y-97355922D01*
X141703382Y-97526409D01*
X141610697Y-97688131D01*
X141578454Y-97734727D01*
X141547415Y-97778916D01*
X141524402Y-97816106D01*
X141506522Y-97852969D01*
X141490880Y-97896174D01*
X141474584Y-97952394D01*
X141460020Y-98007777D01*
X141442134Y-98075487D01*
X141424520Y-98139388D01*
X141409048Y-98192869D01*
X141397589Y-98229318D01*
X141396327Y-98232921D01*
X141385644Y-98276153D01*
X141378411Y-98331138D01*
X141376400Y-98374133D01*
X141365888Y-98520454D01*
X141335516Y-98674789D01*
X141287029Y-98831796D01*
X141222172Y-98986134D01*
X141142692Y-99132460D01*
X141113871Y-99177599D01*
X141014117Y-99307530D01*
X140894014Y-99430120D01*
X140758345Y-99541701D01*
X140611895Y-99638606D01*
X140459448Y-99717166D01*
X140357944Y-99757160D01*
X140320762Y-99773613D01*
X140269653Y-99801172D01*
X140211262Y-99836044D01*
X140152233Y-99874433D01*
X140150316Y-99875740D01*
X139926262Y-100015604D01*
X139688659Y-100139238D01*
X139631954Y-100165333D01*
X139568034Y-100195637D01*
X139518786Y-100224071D01*
X139474873Y-100257047D01*
X139426955Y-100300979D01*
X139409704Y-100317947D01*
X139260310Y-100450124D01*
X139102087Y-100558498D01*
X138934844Y-100643152D01*
X138758394Y-100704167D01*
X138572546Y-100741626D01*
X138404600Y-100755075D01*
X138337673Y-100756451D01*
X138276843Y-100756837D01*
X138228206Y-100756253D01*
X138197857Y-100754719D01*
X138195050Y-100754379D01*
X138161339Y-100749122D01*
X138114763Y-100741322D01*
X138080750Y-100735383D01*
X137907600Y-100692347D01*
X137737014Y-100626390D01*
X137573562Y-100539913D01*
X137421816Y-100435315D01*
X137293350Y-100322032D01*
X137251030Y-100282424D01*
X137211263Y-100252678D01*
X137165405Y-100227328D01*
X137104815Y-100200910D01*
X137096500Y-100197552D01*
X136987582Y-100150242D01*
X136870296Y-100093090D01*
X136750334Y-100029323D01*
X136633388Y-99962172D01*
X136572771Y-99924476D01*
X137364665Y-99924476D01*
X137367608Y-99939436D01*
X137383745Y-99973143D01*
X137416131Y-100017999D01*
X137460837Y-100069726D01*
X137513935Y-100124043D01*
X137571496Y-100176673D01*
X137625360Y-100220181D01*
X137774373Y-100317917D01*
X137928931Y-100391267D01*
X138090682Y-100440941D01*
X138172356Y-100456743D01*
X138253213Y-100464342D01*
X138349251Y-100465251D01*
X138451304Y-100460023D01*
X138550207Y-100449209D01*
X138636796Y-100433363D01*
X138660296Y-100427350D01*
X138826382Y-100367982D01*
X138981267Y-100286373D01*
X139122825Y-100183956D01*
X139248927Y-100062165D01*
X139308089Y-99991130D01*
X139348519Y-99924929D01*
X139364436Y-99862714D01*
X139355728Y-99804329D01*
X139322285Y-99749620D01*
X139263996Y-99698432D01*
X139180750Y-99650611D01*
X139072438Y-99606000D01*
X139020550Y-99588535D01*
X138923190Y-99560751D01*
X138825209Y-99539939D01*
X138721232Y-99525449D01*
X138605886Y-99516635D01*
X138473795Y-99512846D01*
X138391900Y-99512671D01*
X138289477Y-99513809D01*
X138206335Y-99516306D01*
X138136370Y-99520594D01*
X138073478Y-99527106D01*
X138011556Y-99536276D01*
X137979150Y-99541975D01*
X137839212Y-99572598D01*
X137714507Y-99609953D01*
X137606437Y-99653132D01*
X137516404Y-99701221D01*
X137445808Y-99753311D01*
X137396052Y-99808491D01*
X137368537Y-99865850D01*
X137364665Y-99924476D01*
X136572771Y-99924476D01*
X136525153Y-99894864D01*
X136431319Y-99830629D01*
X136378950Y-99790598D01*
X136342635Y-99765398D01*
X136292566Y-99736026D01*
X136238427Y-99708092D01*
X136228053Y-99703213D01*
X136060218Y-99612016D01*
X135906752Y-99500754D01*
X135769022Y-99371182D01*
X135648395Y-99225057D01*
X135546237Y-99064134D01*
X135463916Y-98890167D01*
X135402798Y-98704912D01*
X135382349Y-98617214D01*
X135367757Y-98554177D01*
X135350356Y-98491697D01*
X135333050Y-98439825D01*
X135326274Y-98423089D01*
X135306379Y-98373492D01*
X135296764Y-98346753D01*
X135650144Y-98346753D01*
X135653140Y-98435801D01*
X135660806Y-98515312D01*
X135666889Y-98551522D01*
X135714345Y-98725024D01*
X135783351Y-98886670D01*
X135872619Y-99034895D01*
X135980858Y-99168136D01*
X136106781Y-99284828D01*
X136249098Y-99383409D01*
X136406521Y-99462315D01*
X136423128Y-99469096D01*
X136531468Y-99506327D01*
X136640436Y-99532496D01*
X136745305Y-99547121D01*
X136841345Y-99549720D01*
X136923829Y-99539809D01*
X136971298Y-99525032D01*
X137015422Y-99497386D01*
X137062734Y-99453864D01*
X137106844Y-99401907D01*
X137141361Y-99348954D01*
X137158939Y-99306599D01*
X137179727Y-99172077D01*
X137175992Y-99031160D01*
X137147757Y-98883985D01*
X137095046Y-98730692D01*
X137044498Y-98621582D01*
X136994890Y-98527338D01*
X136949633Y-98449471D01*
X136903706Y-98380750D01*
X136852087Y-98313944D01*
X136799889Y-98253550D01*
X137357138Y-98253550D01*
X137358625Y-98347600D01*
X137364476Y-98423821D01*
X137376259Y-98489627D01*
X137395542Y-98552434D01*
X137423895Y-98619659D01*
X137442963Y-98659268D01*
X137517747Y-98782453D01*
X137612892Y-98894192D01*
X137725036Y-98992110D01*
X137850815Y-99073830D01*
X137986864Y-99136975D01*
X138129822Y-99179169D01*
X138195050Y-99190625D01*
X138255561Y-99195882D01*
X138330769Y-99197879D01*
X138412149Y-99196831D01*
X138491173Y-99192951D01*
X138559316Y-99186454D01*
X138595582Y-99180548D01*
X138751237Y-99136062D01*
X138863537Y-99085609D01*
X139498608Y-99085609D01*
X139501129Y-99149453D01*
X139506051Y-99210409D01*
X139513270Y-99266474D01*
X139521653Y-99309862D01*
X139527049Y-99327253D01*
X139575068Y-99412941D01*
X139638699Y-99478595D01*
X139717935Y-99524209D01*
X139772827Y-99541922D01*
X139824112Y-99548286D01*
X139893167Y-99548060D01*
X139973386Y-99541792D01*
X140058163Y-99530027D01*
X140140892Y-99513314D01*
X140152359Y-99510503D01*
X140320591Y-99455601D01*
X140476206Y-99379259D01*
X140617826Y-99282812D01*
X140744074Y-99167599D01*
X140853572Y-99034957D01*
X140944943Y-98886223D01*
X141016810Y-98722734D01*
X141041665Y-98647250D01*
X141054699Y-98601126D01*
X141063982Y-98560362D01*
X141070173Y-98518886D01*
X141073931Y-98470626D01*
X141075915Y-98409513D01*
X141076785Y-98329473D01*
X141076819Y-98323400D01*
X141076805Y-98240021D01*
X141075384Y-98176020D01*
X141072025Y-98125386D01*
X141066198Y-98082113D01*
X141057374Y-98040191D01*
X141048972Y-98007858D01*
X141012686Y-97897383D01*
X140969792Y-97810246D01*
X140918628Y-97744868D01*
X140857531Y-97699673D01*
X140784837Y-97673084D01*
X140698884Y-97663522D01*
X140685828Y-97663452D01*
X140562982Y-97676768D01*
X140438988Y-97715060D01*
X140314592Y-97777976D01*
X140190535Y-97865163D01*
X140106400Y-97938463D01*
X140078647Y-97962999D01*
X140058350Y-97978100D01*
X140053091Y-97980389D01*
X140036606Y-97990607D01*
X140008666Y-98018833D01*
X139971693Y-98061799D01*
X139928104Y-98116236D01*
X139880318Y-98178875D01*
X139830753Y-98246447D01*
X139781830Y-98315685D01*
X139735966Y-98383317D01*
X139695580Y-98446077D01*
X139663091Y-98500695D01*
X139649835Y-98525354D01*
X139606319Y-98621745D01*
X139565802Y-98732054D01*
X139532303Y-98844820D01*
X139520238Y-98894900D01*
X139506861Y-98963270D01*
X139499949Y-99022864D01*
X139498608Y-99085609D01*
X138863537Y-99085609D01*
X138894857Y-99071538D01*
X139024695Y-98988718D01*
X139139007Y-98889345D01*
X139236046Y-98775160D01*
X139314066Y-98647906D01*
X139371322Y-98509324D01*
X139404094Y-98373711D01*
X139413051Y-98315242D01*
X139417574Y-98269682D01*
X139417637Y-98227742D01*
X139413216Y-98180129D01*
X139404285Y-98117555D01*
X139403381Y-98111663D01*
X139368175Y-97963914D01*
X139309912Y-97826342D01*
X139229246Y-97700025D01*
X139126836Y-97586039D01*
X139036910Y-97509864D01*
X138913023Y-97427589D01*
X138786289Y-97367155D01*
X138652363Y-97327180D01*
X138506899Y-97306277D01*
X138385550Y-97302298D01*
X138268644Y-97306932D01*
X138166979Y-97320354D01*
X138071488Y-97344740D01*
X137973108Y-97382267D01*
X137890250Y-97421204D01*
X137759248Y-97496434D01*
X137648933Y-97582351D01*
X137555577Y-97682642D01*
X137475451Y-97800994D01*
X137440140Y-97866200D01*
X137407990Y-97933462D01*
X137385231Y-97992227D01*
X137370316Y-98049707D01*
X137361701Y-98113119D01*
X137357839Y-98189674D01*
X137357138Y-98253550D01*
X136799889Y-98253550D01*
X136789753Y-98241823D01*
X136751886Y-98200306D01*
X136632055Y-98079242D01*
X136517005Y-97981477D01*
X136404659Y-97905854D01*
X136292938Y-97851215D01*
X136179763Y-97816402D01*
X136063058Y-97800260D01*
X136031202Y-97798963D01*
X135970429Y-97798521D01*
X135927702Y-97800994D01*
X135895732Y-97807443D01*
X135867232Y-97818930D01*
X135856621Y-97824394D01*
X135794678Y-97868983D01*
X135738483Y-97930203D01*
X135695345Y-97999334D01*
X135681060Y-98033837D01*
X135667275Y-98091709D01*
X135657401Y-98167774D01*
X135651628Y-98255100D01*
X135650144Y-98346753D01*
X135296764Y-98346753D01*
X135282225Y-98306324D01*
X135256055Y-98228566D01*
X135230108Y-98147202D01*
X135206626Y-98069215D01*
X135187850Y-98001587D01*
X135178115Y-97961450D01*
X135158425Y-97898944D01*
X135130949Y-97849890D01*
X135126501Y-97844403D01*
X135044925Y-97735579D01*
X134970216Y-97609065D01*
X134906336Y-97472404D01*
X134857248Y-97333141D01*
X134856403Y-97330235D01*
X134818338Y-97154131D01*
X134803935Y-96973618D01*
X134806563Y-96918980D01*
X135094753Y-96918980D01*
X135098107Y-97047058D01*
X135101277Y-97073345D01*
X135132743Y-97227010D01*
X135182196Y-97373151D01*
X135247701Y-97507595D01*
X135327323Y-97626168D01*
X135390708Y-97697776D01*
X135430402Y-97733107D01*
X135462753Y-97748580D01*
X135494637Y-97745383D01*
X135532928Y-97724705D01*
X135535696Y-97722856D01*
X135571064Y-97691058D01*
X135610909Y-97642808D01*
X135650304Y-97585252D01*
X135684323Y-97525532D01*
X135706502Y-97475197D01*
X135722536Y-97430694D01*
X135742511Y-97375593D01*
X135758800Y-97330883D01*
X135794796Y-97213656D01*
X135825067Y-97077794D01*
X135849031Y-96929537D01*
X135866102Y-96775124D01*
X135875696Y-96620794D01*
X135876148Y-96577150D01*
X136202546Y-96577150D01*
X136203444Y-96678391D01*
X136208723Y-96761267D01*
X136219779Y-96832638D01*
X136238010Y-96899363D01*
X136264812Y-96968301D01*
X136295665Y-97034350D01*
X136368612Y-97155116D01*
X136459435Y-97259403D01*
X136565769Y-97346074D01*
X136685250Y-97413995D01*
X136815512Y-97462030D01*
X136954192Y-97489044D01*
X137098923Y-97493901D01*
X137223826Y-97479960D01*
X137365470Y-97442256D01*
X137504081Y-97381396D01*
X137636862Y-97299620D01*
X137761019Y-97199171D01*
X137873755Y-97082292D01*
X137972275Y-96951223D01*
X138048744Y-96818450D01*
X138083175Y-96745059D01*
X138109085Y-96678154D01*
X138129185Y-96608941D01*
X138146184Y-96528624D01*
X138156388Y-96469200D01*
X138172498Y-96324511D01*
X138171865Y-96271742D01*
X138574463Y-96271742D01*
X138575472Y-96291400D01*
X138585023Y-96401763D01*
X138601113Y-96497382D01*
X138626193Y-96587674D01*
X138662715Y-96682060D01*
X138696083Y-96754950D01*
X138779711Y-96908430D01*
X138874075Y-97040593D01*
X138981628Y-97154136D01*
X139104825Y-97251752D01*
X139204982Y-97313908D01*
X139281363Y-97355248D01*
X139345160Y-97385310D01*
X139404803Y-97407089D01*
X139468717Y-97423581D01*
X139545330Y-97437780D01*
X139560300Y-97440194D01*
X139634178Y-97451014D01*
X139691330Y-97456499D01*
X139739860Y-97456663D01*
X139787871Y-97451516D01*
X139843469Y-97441072D01*
X139845559Y-97440631D01*
X139987076Y-97399716D01*
X140111594Y-97340221D01*
X140220130Y-97261466D01*
X140313702Y-97162773D01*
X140360662Y-97097447D01*
X140425240Y-96977865D01*
X140469784Y-96847196D01*
X140494919Y-96703112D01*
X140501484Y-96573958D01*
X140490405Y-96414739D01*
X140766817Y-96414739D01*
X140769275Y-96486573D01*
X140776185Y-96577195D01*
X140786824Y-96680526D01*
X140800470Y-96790485D01*
X140816398Y-96900995D01*
X140833886Y-97005974D01*
X140842776Y-97053400D01*
X140869933Y-97172918D01*
X140903444Y-97289122D01*
X140941771Y-97398382D01*
X140983379Y-97497069D01*
X141026732Y-97581553D01*
X141070295Y-97648204D01*
X141112531Y-97693393D01*
X141114108Y-97694653D01*
X141144925Y-97717212D01*
X141166504Y-97724528D01*
X141188945Y-97717826D01*
X141209340Y-97706194D01*
X141239387Y-97681540D01*
X141278041Y-97640472D01*
X141320954Y-97588423D01*
X141363779Y-97530828D01*
X141402169Y-97473120D01*
X141420231Y-97442563D01*
X141444401Y-97394235D01*
X141471454Y-97332340D01*
X141496806Y-97267592D01*
X141505236Y-97243900D01*
X141520897Y-97197167D01*
X141532036Y-97158786D01*
X141539439Y-97122710D01*
X141543889Y-97082894D01*
X141546171Y-97033292D01*
X141547071Y-96967858D01*
X141547269Y-96920050D01*
X141546213Y-96819544D01*
X141541633Y-96737799D01*
X141532375Y-96668286D01*
X141517283Y-96604475D01*
X141495202Y-96539837D01*
X141468765Y-96476391D01*
X141399130Y-96345426D01*
X141310180Y-96221198D01*
X141206650Y-96109314D01*
X141093273Y-96015377D01*
X141060544Y-95993142D01*
X140999718Y-95956103D01*
X140953934Y-95934397D01*
X140918991Y-95926779D01*
X140890687Y-95932002D01*
X140877801Y-95938982D01*
X140852986Y-95967461D01*
X140829521Y-96017107D01*
X140808393Y-96083688D01*
X140790588Y-96162972D01*
X140777094Y-96250729D01*
X140768897Y-96342727D01*
X140766817Y-96414739D01*
X140490405Y-96414739D01*
X140489553Y-96402508D01*
X140453510Y-96234972D01*
X140394612Y-96073952D01*
X140314113Y-95922053D01*
X140213269Y-95781877D01*
X140093335Y-95656027D01*
X140034495Y-95605584D01*
X139912792Y-95517466D01*
X139790772Y-95450253D01*
X139661120Y-95400434D01*
X139543594Y-95370017D01*
X139414061Y-95352437D01*
X139288974Y-95356772D01*
X139164001Y-95383606D01*
X139034808Y-95433525D01*
X139019667Y-95440684D01*
X138954607Y-95473647D01*
X138905537Y-95503396D01*
X138864594Y-95535447D01*
X138823917Y-95575318D01*
X138816467Y-95583265D01*
X138722529Y-95701025D01*
X138651725Y-95827678D01*
X138603690Y-95964299D01*
X138578058Y-96111962D01*
X138574463Y-96271742D01*
X138171865Y-96271742D01*
X138170913Y-96192452D01*
X138151012Y-96066848D01*
X138112173Y-95941523D01*
X138100281Y-95911567D01*
X138033834Y-95781968D01*
X137948981Y-95668187D01*
X137847965Y-95571744D01*
X137733031Y-95494155D01*
X137606421Y-95436940D01*
X137470380Y-95401616D01*
X137328883Y-95389700D01*
X137170306Y-95402154D01*
X137016879Y-95439308D01*
X136869326Y-95500851D01*
X136728375Y-95586470D01*
X136594752Y-95695853D01*
X136577588Y-95712159D01*
X136457275Y-95845677D01*
X136357830Y-95993636D01*
X136279190Y-96156139D01*
X136237532Y-96275120D01*
X136223903Y-96323315D01*
X136214416Y-96366406D01*
X136208290Y-96411121D01*
X136204746Y-96464187D01*
X136203006Y-96532331D01*
X136202546Y-96577150D01*
X135876148Y-96577150D01*
X135877230Y-96472788D01*
X135870120Y-96337345D01*
X135859666Y-96253222D01*
X135844290Y-96173278D01*
X135826213Y-96112412D01*
X135802901Y-96064302D01*
X135771821Y-96022627D01*
X135763706Y-96013711D01*
X135731637Y-95986853D01*
X135698604Y-95977377D01*
X135659772Y-95985642D01*
X135610307Y-96012008D01*
X135587775Y-96026808D01*
X135456864Y-96128993D01*
X135345768Y-96244992D01*
X135250981Y-96378549D01*
X135237522Y-96401065D01*
X135181392Y-96516632D01*
X135137890Y-96646390D01*
X135108513Y-96782965D01*
X135094753Y-96918980D01*
X134806563Y-96918980D01*
X134812670Y-96792040D01*
X134844016Y-96612743D01*
X134897448Y-96439071D01*
X134972442Y-96274369D01*
X135039713Y-96162890D01*
X135083677Y-96104077D01*
X135140412Y-96037386D01*
X135203770Y-95969306D01*
X135267607Y-95906324D01*
X135325775Y-95854927D01*
X135347607Y-95837935D01*
X135399678Y-95792200D01*
X135436903Y-95740308D01*
X135461385Y-95677347D01*
X135475228Y-95598404D01*
X135478942Y-95542004D01*
X135771778Y-95542004D01*
X135771815Y-95593305D01*
X135774033Y-95635614D01*
X135777989Y-95661915D01*
X135779624Y-95665925D01*
X135802600Y-95679757D01*
X135843908Y-95677882D01*
X135904185Y-95660233D01*
X135931148Y-95649803D01*
X136018556Y-95608451D01*
X136120313Y-95550160D01*
X136233761Y-95476854D01*
X136356239Y-95390457D01*
X136485087Y-95292894D01*
X136617645Y-95186088D01*
X136751254Y-95071964D01*
X136840340Y-94992088D01*
X136931583Y-94905484D01*
X137014317Y-94820768D01*
X137019227Y-94815307D01*
X137427839Y-94815307D01*
X137431951Y-94848343D01*
X137444792Y-94884531D01*
X137465472Y-94927475D01*
X137504996Y-94992141D01*
X137551156Y-95047224D01*
X137565695Y-95060748D01*
X137621863Y-95101635D01*
X137696127Y-95144828D01*
X137781804Y-95187049D01*
X137872210Y-95225022D01*
X137960663Y-95255472D01*
X137966450Y-95257190D01*
X138080612Y-95283082D01*
X138211593Y-95299910D01*
X138352423Y-95307512D01*
X138496129Y-95305726D01*
X138635743Y-95294390D01*
X138753850Y-95275536D01*
X138850574Y-95250131D01*
X138948155Y-95214600D01*
X139040370Y-95171892D01*
X139121000Y-95124953D01*
X139183824Y-95076733D01*
X139193912Y-95066985D01*
X139251882Y-94999020D01*
X139287678Y-94933362D01*
X139303464Y-94865037D01*
X139303835Y-94813979D01*
X139296054Y-94753193D01*
X139279565Y-94701072D01*
X139251022Y-94651209D01*
X139207078Y-94597197D01*
X139170535Y-94558716D01*
X139085961Y-94484614D01*
X139385046Y-94484614D01*
X139395438Y-94521971D01*
X139420740Y-94571554D01*
X139459472Y-94630452D01*
X139509324Y-94694759D01*
X139588559Y-94785436D01*
X139678379Y-94879884D01*
X139776641Y-94976445D01*
X139881204Y-95073458D01*
X139989924Y-95169264D01*
X140100662Y-95262204D01*
X140211273Y-95350616D01*
X140319617Y-95432843D01*
X140423551Y-95507224D01*
X140520933Y-95572099D01*
X140609622Y-95625810D01*
X140687474Y-95666695D01*
X140752348Y-95693097D01*
X140802103Y-95703354D01*
X140810968Y-95703269D01*
X140834792Y-95699217D01*
X140847970Y-95686314D01*
X140856173Y-95657483D01*
X140858679Y-95643700D01*
X140862248Y-95594159D01*
X140860154Y-95527211D01*
X140853160Y-95450021D01*
X140842029Y-95369755D01*
X140827525Y-95293579D01*
X140816752Y-95250020D01*
X140764029Y-95104836D01*
X140689157Y-94964921D01*
X140595364Y-94834519D01*
X140485880Y-94717874D01*
X140363934Y-94619231D01*
X140310393Y-94584560D01*
X140182872Y-94519233D01*
X140043859Y-94468245D01*
X139899983Y-94433234D01*
X139757870Y-94415838D01*
X139632329Y-94416969D01*
X139562999Y-94424202D01*
X139498726Y-94433544D01*
X139444845Y-94443990D01*
X139406690Y-94454535D01*
X139391047Y-94462393D01*
X139385046Y-94484614D01*
X139085961Y-94484614D01*
X139042083Y-94446169D01*
X138899705Y-94354641D01*
X138745012Y-94285061D01*
X138636891Y-94251597D01*
X138585038Y-94238900D01*
X138541049Y-94230318D01*
X138498034Y-94225271D01*
X138449105Y-94223177D01*
X138387373Y-94223457D01*
X138322050Y-94225059D01*
X138223442Y-94229277D01*
X138143116Y-94236637D01*
X138074000Y-94248677D01*
X138009026Y-94266929D01*
X137941126Y-94292931D01*
X137877056Y-94321696D01*
X137771969Y-94376851D01*
X137675255Y-94439046D01*
X137590743Y-94505205D01*
X137522266Y-94572247D01*
X137473653Y-94637095D01*
X137464935Y-94652834D01*
X137446886Y-94699209D01*
X137433406Y-94753409D01*
X137430167Y-94775572D01*
X137427839Y-94815307D01*
X137019227Y-94815307D01*
X137086902Y-94740047D01*
X137147700Y-94665425D01*
X137195071Y-94599009D01*
X137227375Y-94542904D01*
X137242974Y-94499217D01*
X137242566Y-94475351D01*
X137223244Y-94455407D01*
X137179943Y-94439554D01*
X137113781Y-94427989D01*
X137025880Y-94420909D01*
X136918700Y-94418511D01*
X136793686Y-94422889D01*
X136683895Y-94437370D01*
X136580523Y-94463805D01*
X136474771Y-94504045D01*
X136441750Y-94518862D01*
X136294553Y-94600466D01*
X136162575Y-94701200D01*
X136047269Y-94818845D01*
X135950085Y-94951188D01*
X135872474Y-95096012D01*
X135815887Y-95251102D01*
X135781774Y-95414241D01*
X135771778Y-95542004D01*
X135478942Y-95542004D01*
X135479773Y-95529400D01*
X135499213Y-95333781D01*
X135543446Y-95142719D01*
X135612018Y-94957983D01*
X135643247Y-94892026D01*
X135716667Y-94768149D01*
X135810427Y-94645375D01*
X135919764Y-94528656D01*
X136039910Y-94422947D01*
X136166102Y-94333200D01*
X136201437Y-94311857D01*
X136286383Y-94262577D01*
X136224028Y-94247618D01*
X136141374Y-94219562D01*
X136072827Y-94179651D01*
X136022675Y-94130737D01*
X136004905Y-94101900D01*
X135987670Y-94071148D01*
X135966750Y-94047697D01*
X135935723Y-94026091D01*
X135888165Y-94000877D01*
X135882838Y-93998236D01*
X135803453Y-93951957D01*
X135746720Y-93901796D01*
X135709915Y-93844953D01*
X135696342Y-93806774D01*
X135680176Y-93764721D01*
X135653255Y-93731161D01*
X135623557Y-93706865D01*
X135546198Y-93643467D01*
X135491879Y-93583870D01*
X135458981Y-93525781D01*
X135445885Y-93466905D01*
X135445500Y-93454395D01*
X135440519Y-93424616D01*
X135423016Y-93393473D01*
X135389148Y-93354239D01*
X135387035Y-93352027D01*
X135337118Y-93292264D01*
X135307457Y-93235745D01*
X135295058Y-93175489D01*
X135294571Y-93136657D01*
X135294510Y-93098210D01*
X135288159Y-93069128D01*
X135271892Y-93039727D01*
X135244855Y-93003819D01*
X135203973Y-92942096D01*
X135183287Y-92882017D01*
X135180070Y-92814288D01*
X135182201Y-92790219D01*
X135183459Y-92751553D01*
X135176195Y-92713876D01*
X135158190Y-92667439D01*
X135150359Y-92650337D01*
X135129290Y-92601468D01*
X135119017Y-92564280D01*
X135117967Y-92541353D01*
X135356600Y-92541353D01*
X135365816Y-92565534D01*
X135390820Y-92601372D01*
X135427643Y-92644560D01*
X135472315Y-92690791D01*
X135520868Y-92735758D01*
X135569332Y-92775154D01*
X135577735Y-92781318D01*
X135603289Y-92805541D01*
X135607046Y-92827540D01*
X135606061Y-92830508D01*
X135598176Y-92842310D01*
X135582149Y-92848205D01*
X135552060Y-92849185D01*
X135509046Y-92846755D01*
X135420692Y-92840433D01*
X135442621Y-92878266D01*
X135460572Y-92902067D01*
X135492583Y-92937846D01*
X135533912Y-92980504D01*
X135573944Y-93019424D01*
X135616877Y-93060844D01*
X135652239Y-93096611D01*
X135676293Y-93122829D01*
X135685284Y-93135450D01*
X135674791Y-93142924D01*
X135645485Y-93149911D01*
X135607640Y-93154516D01*
X135528050Y-93160883D01*
X135591550Y-93221642D01*
X135633325Y-93258467D01*
X135686328Y-93300853D01*
X135740366Y-93340712D01*
X135750300Y-93347599D01*
X135792964Y-93376886D01*
X135827179Y-93400526D01*
X135847885Y-93415018D01*
X135851532Y-93417689D01*
X135851413Y-93427428D01*
X135831538Y-93436538D01*
X135797531Y-93443396D01*
X135755015Y-93446383D01*
X135751919Y-93446405D01*
X135713342Y-93447236D01*
X135695703Y-93450692D01*
X135694553Y-93458652D01*
X135701119Y-93467840D01*
X135724904Y-93489365D01*
X135765871Y-93519044D01*
X135818594Y-93553460D01*
X135877645Y-93589197D01*
X135937596Y-93622838D01*
X135989042Y-93649078D01*
X136031735Y-93670632D01*
X136063785Y-93688984D01*
X136079688Y-93700915D01*
X136080500Y-93702606D01*
X136068813Y-93718178D01*
X136037806Y-93731234D01*
X135993556Y-93739487D01*
X135979452Y-93740635D01*
X135925167Y-93743838D01*
X135956708Y-93770969D01*
X135979268Y-93784052D01*
X136020293Y-93802338D01*
X136073921Y-93823727D01*
X136134288Y-93846119D01*
X136195530Y-93867417D01*
X136251786Y-93885519D01*
X136297193Y-93898329D01*
X136325886Y-93903745D01*
X136327711Y-93903800D01*
X136344667Y-93909115D01*
X136341492Y-93922837D01*
X136320576Y-93941623D01*
X136286807Y-93960950D01*
X136256192Y-93978465D01*
X136238986Y-93993864D01*
X136237483Y-93999050D01*
X136252280Y-94010306D01*
X136287887Y-94022861D01*
X136339816Y-94035731D01*
X136403580Y-94047936D01*
X136474690Y-94058492D01*
X136543146Y-94065940D01*
X136599192Y-94071558D01*
X136645460Y-94077432D01*
X136676325Y-94082772D01*
X136686038Y-94086004D01*
X136684862Y-94100497D01*
X136667522Y-94122840D01*
X136639395Y-94147429D01*
X136607579Y-94167764D01*
X136569450Y-94187828D01*
X136601200Y-94196948D01*
X136652891Y-94205095D01*
X136724549Y-94206515D01*
X136811679Y-94201322D01*
X136909787Y-94189632D01*
X136914669Y-94188913D01*
X137090490Y-94155421D01*
X137244161Y-94110285D01*
X137376276Y-94053171D01*
X137487427Y-93983750D01*
X137578206Y-93901687D01*
X137649206Y-93806652D01*
X137672537Y-93764261D01*
X137698302Y-93710837D01*
X137713327Y-93669737D01*
X137716214Y-93635806D01*
X137705563Y-93603887D01*
X137679978Y-93568822D01*
X137638060Y-93525455D01*
X137597207Y-93486410D01*
X137470569Y-93374032D01*
X137322993Y-93256191D01*
X137157759Y-93135098D01*
X136978142Y-93012961D01*
X136787421Y-92891990D01*
X136588871Y-92774396D01*
X136385770Y-92662388D01*
X136337675Y-92637084D01*
X136276629Y-92605008D01*
X136224375Y-92577058D01*
X136184684Y-92555291D01*
X136161331Y-92541766D01*
X136156700Y-92538366D01*
X136167859Y-92540048D01*
X136198928Y-92549966D01*
X136246294Y-92566776D01*
X136306343Y-92589133D01*
X136375462Y-92615692D01*
X136450036Y-92645108D01*
X136525000Y-92675440D01*
X136677826Y-92741453D01*
X136835789Y-92815866D01*
X136995373Y-92896645D01*
X137153059Y-92981753D01*
X137305332Y-93069155D01*
X137448674Y-93156815D01*
X137579568Y-93242698D01*
X137694498Y-93324767D01*
X137789947Y-93400987D01*
X137812126Y-93420484D01*
X137861003Y-93464517D01*
X137929050Y-93428890D01*
X138017010Y-93369396D01*
X138088361Y-93293547D01*
X138141225Y-93205073D01*
X138173727Y-93107704D01*
X138178416Y-93060848D01*
X138572853Y-93060848D01*
X138593749Y-93164509D01*
X138637716Y-93257767D01*
X138704715Y-93340426D01*
X138706693Y-93342363D01*
X138749163Y-93379689D01*
X138795243Y-93414113D01*
X138826195Y-93433243D01*
X138883731Y-93463766D01*
X138977540Y-93387207D01*
X139134758Y-93267674D01*
X139313502Y-93147438D01*
X139510042Y-93028520D01*
X139720650Y-92912939D01*
X139941599Y-92802716D01*
X140169158Y-92699869D01*
X140399601Y-92606420D01*
X140462149Y-92582944D01*
X140507891Y-92566616D01*
X140542918Y-92555137D01*
X140561791Y-92550245D01*
X140563600Y-92550513D01*
X140553044Y-92557966D01*
X140524133Y-92574890D01*
X140480997Y-92598946D01*
X140427771Y-92627796D01*
X140414375Y-92634949D01*
X140236567Y-92732642D01*
X140058853Y-92836006D01*
X139885540Y-92942295D01*
X139720936Y-93048763D01*
X139569347Y-93152665D01*
X139435082Y-93251254D01*
X139380000Y-93294323D01*
X139311658Y-93350605D01*
X139244659Y-93408662D01*
X139181838Y-93465746D01*
X139126032Y-93519107D01*
X139080077Y-93565996D01*
X139046811Y-93603664D01*
X139029069Y-93629361D01*
X139026900Y-93636576D01*
X139033887Y-93666688D01*
X139052550Y-93710926D01*
X139079441Y-93763012D01*
X139111111Y-93816666D01*
X139144114Y-93865606D01*
X139171258Y-93899499D01*
X139241656Y-93967385D01*
X139322124Y-94024721D01*
X139416503Y-94073507D01*
X139528639Y-94115747D01*
X139655543Y-94151742D01*
X139796792Y-94182517D01*
X139925174Y-94201179D01*
X140037762Y-94207432D01*
X140131626Y-94200980D01*
X140136109Y-94200264D01*
X140184869Y-94192208D01*
X140126584Y-94155930D01*
X140093981Y-94132402D01*
X140072828Y-94110926D01*
X140068300Y-94100868D01*
X140071606Y-94089628D01*
X140084126Y-94081213D01*
X140109761Y-94074683D01*
X140152411Y-94069100D01*
X140215978Y-94063526D01*
X140227050Y-94062672D01*
X140291384Y-94055901D01*
X140358321Y-94045756D01*
X140421063Y-94033575D01*
X140472815Y-94020693D01*
X140506782Y-94008446D01*
X140509087Y-94007224D01*
X140514805Y-93998200D01*
X140501753Y-93985459D01*
X140467403Y-93966560D01*
X140466444Y-93966084D01*
X140425456Y-93943261D01*
X140407901Y-93926141D01*
X140412941Y-93912942D01*
X140436600Y-93902796D01*
X140552098Y-93867145D01*
X140647608Y-93835147D01*
X140722462Y-93807137D01*
X140775991Y-93783453D01*
X140807525Y-93764431D01*
X140816395Y-93750407D01*
X140801933Y-93741718D01*
X140763470Y-93738700D01*
X140762877Y-93738700D01*
X140728119Y-93734917D01*
X140695316Y-93725495D01*
X140671263Y-93713324D01*
X140662755Y-93701293D01*
X140665219Y-93697173D01*
X140679247Y-93689494D01*
X140709740Y-93674795D01*
X140747750Y-93657324D01*
X140807915Y-93627655D01*
X140872008Y-93591844D01*
X140933749Y-93553815D01*
X140986859Y-93517488D01*
X141025058Y-93486789D01*
X141032538Y-93479405D01*
X141063327Y-93446600D01*
X140994438Y-93446405D01*
X140952345Y-93443669D01*
X140918483Y-93436874D01*
X140897666Y-93427759D01*
X140894707Y-93418066D01*
X140902402Y-93413132D01*
X140928110Y-93398712D01*
X140967718Y-93372084D01*
X141015684Y-93337388D01*
X141066466Y-93298759D01*
X141114523Y-93260337D01*
X141154311Y-93226260D01*
X141161448Y-93219717D01*
X141230350Y-93155468D01*
X141158363Y-93154984D01*
X141115212Y-93153486D01*
X141080832Y-93150148D01*
X141067449Y-93147236D01*
X141065772Y-93138148D01*
X141079515Y-93116945D01*
X141109761Y-93082325D01*
X141157594Y-93032989D01*
X141187060Y-93003757D01*
X141235060Y-92955772D01*
X141275845Y-92913491D01*
X141306270Y-92880298D01*
X141323186Y-92859574D01*
X141325600Y-92854843D01*
X141313710Y-92848477D01*
X141280745Y-92846165D01*
X141242052Y-92847466D01*
X141193636Y-92848412D01*
X141158710Y-92844869D01*
X141145114Y-92839394D01*
X141146157Y-92826774D01*
X141163569Y-92801717D01*
X141198357Y-92763011D01*
X141251529Y-92709446D01*
X141260411Y-92700776D01*
X141306999Y-92653858D01*
X141346038Y-92611522D01*
X141374203Y-92577605D01*
X141388171Y-92555943D01*
X141389100Y-92552233D01*
X141386833Y-92540249D01*
X141376443Y-92534261D01*
X141352543Y-92533388D01*
X141309749Y-92536748D01*
X141300200Y-92537678D01*
X141256512Y-92540926D01*
X141224789Y-92541271D01*
X141211390Y-92538668D01*
X141211300Y-92538310D01*
X141216735Y-92516347D01*
X141231098Y-92478397D01*
X141251477Y-92430941D01*
X141274957Y-92380462D01*
X141298626Y-92333442D01*
X141319571Y-92296365D01*
X141321165Y-92293828D01*
X141343357Y-92258010D01*
X141358746Y-92231446D01*
X141363700Y-92220803D01*
X141351841Y-92218386D01*
X141319627Y-92216422D01*
X141272104Y-92215123D01*
X141219422Y-92214700D01*
X141154319Y-92213961D01*
X141092091Y-92211965D01*
X141040982Y-92209043D01*
X141015385Y-92206508D01*
X140955625Y-92198317D01*
X141009467Y-92143456D01*
X141038410Y-92112524D01*
X141050729Y-92094217D01*
X141048643Y-92084128D01*
X141041340Y-92080164D01*
X141012221Y-92075500D01*
X140964660Y-92074741D01*
X140905223Y-92077350D01*
X140840476Y-92082790D01*
X140776986Y-92090522D01*
X140721318Y-92100010D01*
X140683934Y-92109411D01*
X140641542Y-92121545D01*
X140607804Y-92128453D01*
X140591859Y-92128869D01*
X140577209Y-92113419D01*
X140580292Y-92086464D01*
X140599595Y-92053077D01*
X140621654Y-92028874D01*
X140667008Y-91986100D01*
X140624574Y-91986100D01*
X140587745Y-91990088D01*
X140534220Y-92000841D01*
X140471209Y-92016540D01*
X140405920Y-92035369D01*
X140345564Y-92055510D01*
X140337585Y-92058455D01*
X140294804Y-92070419D01*
X140271361Y-92067148D01*
X140270438Y-92066318D01*
X140263990Y-92043459D01*
X140276052Y-92011204D01*
X140304113Y-91974409D01*
X140330855Y-91949439D01*
X140379450Y-91909330D01*
X140335000Y-91917123D01*
X140253720Y-91936613D01*
X140164197Y-91966555D01*
X140078806Y-92002570D01*
X140044153Y-92020061D01*
X139999561Y-92042731D01*
X139971827Y-92052802D01*
X139956549Y-92051577D01*
X139952273Y-92047240D01*
X139942279Y-92016676D01*
X139950797Y-91980933D01*
X139972044Y-91944340D01*
X140002788Y-91899036D01*
X139954437Y-91916095D01*
X139899375Y-91937966D01*
X139850094Y-91964022D01*
X139798135Y-91999248D01*
X139749620Y-92036851D01*
X139710828Y-92066208D01*
X139678710Y-92087270D01*
X139658861Y-92096464D01*
X139656322Y-92096444D01*
X139638476Y-92078729D01*
X139628134Y-92045964D01*
X139627389Y-92007916D01*
X139632642Y-91986021D01*
X139646708Y-91948754D01*
X139600329Y-91972536D01*
X139570923Y-91992156D01*
X139530898Y-92024850D01*
X139486874Y-92065042D01*
X139465591Y-92086044D01*
X139424944Y-92126741D01*
X139397722Y-92151579D01*
X139379841Y-92163095D01*
X139367218Y-92163832D01*
X139355767Y-92156329D01*
X139354466Y-92155166D01*
X139336310Y-92122157D01*
X139331700Y-92079381D01*
X139329459Y-92045983D01*
X139323811Y-92026368D01*
X139320788Y-92024199D01*
X139302193Y-92033359D01*
X139270993Y-92058486D01*
X139230863Y-92096054D01*
X139185482Y-92142536D01*
X139138525Y-92194405D01*
X139116617Y-92220046D01*
X139079453Y-92264044D01*
X139054940Y-92290957D01*
X139039527Y-92303262D01*
X139029664Y-92303436D01*
X139021801Y-92293957D01*
X139018642Y-92288418D01*
X139005706Y-92254753D01*
X139001950Y-92231324D01*
X138998066Y-92206474D01*
X138986128Y-92199586D01*
X138964074Y-92211366D01*
X138929840Y-92242518D01*
X138910328Y-92262605D01*
X138805286Y-92390729D01*
X138715186Y-92537293D01*
X138641864Y-92698980D01*
X138600435Y-92823088D01*
X138575069Y-92946976D01*
X138572853Y-93060848D01*
X138178416Y-93060848D01*
X138183988Y-93005169D01*
X138177453Y-92935245D01*
X138143869Y-92796308D01*
X138092512Y-92655254D01*
X138026551Y-92518429D01*
X137949153Y-92392175D01*
X137863486Y-92282839D01*
X137838291Y-92255959D01*
X137766790Y-92182950D01*
X137748943Y-92242650D01*
X137733718Y-92286357D01*
X137719928Y-92306551D01*
X137705176Y-92304831D01*
X137687576Y-92283570D01*
X137665723Y-92255228D01*
X137630713Y-92215128D01*
X137587825Y-92168775D01*
X137542333Y-92121675D01*
X137499517Y-92079334D01*
X137464652Y-92047256D01*
X137449090Y-92034756D01*
X137412882Y-92008974D01*
X137421167Y-92041987D01*
X137423560Y-92092846D01*
X137407617Y-92139115D01*
X137394146Y-92156538D01*
X137382890Y-92164555D01*
X137370076Y-92162978D01*
X137351419Y-92149088D01*
X137322635Y-92120166D01*
X137302090Y-92098117D01*
X137259915Y-92055626D01*
X137215416Y-92015839D01*
X137177405Y-91986572D01*
X137173388Y-91983940D01*
X137136254Y-91962135D01*
X137109912Y-91950121D01*
X137097782Y-91948959D01*
X137103285Y-91959709D01*
X137106659Y-91963239D01*
X137117861Y-91986461D01*
X137121859Y-92020330D01*
X137119372Y-92056271D01*
X137111115Y-92085710D01*
X137097804Y-92100073D01*
X137095205Y-92100400D01*
X137080560Y-92092930D01*
X137052045Y-92073162D01*
X137015304Y-92045058D01*
X137007767Y-92039028D01*
X136941187Y-91990752D01*
X136869751Y-91947919D01*
X136802137Y-91915432D01*
X136766952Y-91902929D01*
X136735854Y-91893886D01*
X136770127Y-91934617D01*
X136791485Y-91969129D01*
X136803266Y-92006316D01*
X136803845Y-92037947D01*
X136793804Y-92054649D01*
X136778430Y-92052157D01*
X136746724Y-92039810D01*
X136704599Y-92020013D01*
X136689029Y-92012052D01*
X136596566Y-91969469D01*
X136498538Y-91936609D01*
X136417050Y-91916490D01*
X136378950Y-91908163D01*
X136432925Y-91963487D01*
X136463066Y-91998951D01*
X136482416Y-92030781D01*
X136486900Y-92046905D01*
X136483750Y-92068986D01*
X136478688Y-92075000D01*
X136463817Y-92071351D01*
X136430401Y-92061528D01*
X136384052Y-92047212D01*
X136350560Y-92036587D01*
X136288196Y-92018421D01*
X136224421Y-92002827D01*
X136169779Y-91992287D01*
X136152731Y-91990031D01*
X136074818Y-91981887D01*
X136122109Y-92023409D01*
X136153207Y-92057692D01*
X136168604Y-92089295D01*
X136168179Y-92113838D01*
X136151811Y-92126937D01*
X136124950Y-92125722D01*
X136107087Y-92121121D01*
X136072003Y-92111909D01*
X136027019Y-92100010D01*
X136023350Y-92099036D01*
X135976528Y-92089386D01*
X135920509Y-92081981D01*
X135861121Y-92077061D01*
X135804190Y-92074866D01*
X135755547Y-92075635D01*
X135721018Y-92079607D01*
X135706877Y-92086037D01*
X135711134Y-92100501D01*
X135729356Y-92125916D01*
X135747402Y-92146041D01*
X135794750Y-92195006D01*
X135743950Y-92204121D01*
X135711134Y-92207775D01*
X135660084Y-92210864D01*
X135597966Y-92213047D01*
X135536327Y-92213968D01*
X135379505Y-92214700D01*
X135407051Y-92255975D01*
X135430518Y-92295137D01*
X135457657Y-92346366D01*
X135484834Y-92402071D01*
X135508417Y-92454661D01*
X135524772Y-92496546D01*
X135529057Y-92510902D01*
X135537619Y-92546755D01*
X135447109Y-92537836D01*
X135396413Y-92534489D01*
X135365383Y-92536116D01*
X135356600Y-92541353D01*
X135117967Y-92541353D01*
X135117383Y-92528604D01*
X135119501Y-92504949D01*
X135129513Y-92457462D01*
X135145821Y-92412937D01*
X135152936Y-92399599D01*
X135169077Y-92369786D01*
X135171551Y-92346568D01*
X135161446Y-92315994D01*
X135159781Y-92311983D01*
X135143168Y-92244673D01*
X135144287Y-92172656D01*
X135162821Y-92107108D01*
X135165745Y-92101094D01*
X135210121Y-92039615D01*
X135269689Y-91998113D01*
X135343159Y-91977240D01*
X135413423Y-91976020D01*
X135453508Y-91978074D01*
X135477292Y-91973813D01*
X135493643Y-91960337D01*
X135503643Y-91946521D01*
X135530694Y-91916953D01*
X135566888Y-91889383D01*
X135573417Y-91885510D01*
X135613189Y-91869580D01*
X135669317Y-91855005D01*
X135732760Y-91843418D01*
X135794477Y-91836453D01*
X135845427Y-91835744D01*
X135847828Y-91835926D01*
X135885998Y-91831763D01*
X135911328Y-91818960D01*
X135960615Y-91785033D01*
X136017958Y-91765349D01*
X136090309Y-91757760D01*
X136110064Y-91757500D01*
X136165070Y-91755809D01*
X136199762Y-91750152D01*
X136219039Y-91739648D01*
X136220894Y-91737612D01*
X136264420Y-91704445D01*
X136326165Y-91685846D01*
X136403281Y-91682198D01*
X136492918Y-91693882D01*
X136513259Y-91698366D01*
X136555997Y-91707161D01*
X136584724Y-91708111D01*
X136609773Y-91700622D01*
X136627361Y-91691817D01*
X136687458Y-91672380D01*
X136760409Y-91669164D01*
X136839705Y-91681951D01*
X136896727Y-91700805D01*
X136942159Y-91718045D01*
X136974718Y-91725676D01*
X137004468Y-91724996D01*
X137035614Y-91718723D01*
X137090429Y-91710741D01*
X137142866Y-91715805D01*
X137200788Y-91735383D01*
X137248900Y-91758558D01*
X137291973Y-91779113D01*
X137323328Y-91787822D01*
X137352482Y-91786774D01*
X137365474Y-91784133D01*
X137427565Y-91777234D01*
X137487075Y-91787669D01*
X137548043Y-91817030D01*
X137614512Y-91866910D01*
X137644977Y-91894302D01*
X137681653Y-91926251D01*
X137710920Y-91943732D01*
X137742190Y-91951314D01*
X137765940Y-91953016D01*
X137825939Y-91961568D01*
X137880997Y-91984041D01*
X137936426Y-92023414D01*
X137997539Y-92082665D01*
X137997997Y-92083155D01*
X138104501Y-92211425D01*
X138201359Y-92356300D01*
X138283845Y-92509852D01*
X138347233Y-92664150D01*
X138351089Y-92675543D01*
X138375573Y-92749036D01*
X138410445Y-92650143D01*
X138481877Y-92479312D01*
X138571119Y-92319201D01*
X138675326Y-92174465D01*
X138755654Y-92084793D01*
X138808942Y-92032754D01*
X138851931Y-91996928D01*
X138890422Y-91973881D01*
X138930215Y-91960182D01*
X138977112Y-91952398D01*
X138979957Y-91952080D01*
X139031474Y-91941568D01*
X139071679Y-91919682D01*
X139090400Y-91903888D01*
X139162932Y-91843235D01*
X139227795Y-91803337D01*
X139289159Y-91782477D01*
X139351200Y-91778941D01*
X139384055Y-91783184D01*
X139419769Y-91787139D01*
X139450523Y-91782075D01*
X139487400Y-91765584D01*
X139502402Y-91757445D01*
X139568190Y-91726091D01*
X139625302Y-91711923D01*
X139682225Y-91713406D01*
X139712643Y-91719386D01*
X139748447Y-91726543D01*
X139777636Y-91726867D01*
X139810021Y-91719142D01*
X139855412Y-91702152D01*
X139857123Y-91701468D01*
X139937031Y-91677207D01*
X140013586Y-91668283D01*
X140081026Y-91674871D01*
X140081026Y-91674871D01*
G37*
X140081026Y-91674871D02*
X140127520Y-91693189D01*
X140153012Y-91706855D01*
X140175631Y-91711319D01*
X140205461Y-91707182D01*
X140235470Y-91699642D01*
X140322788Y-91683911D01*
X140403270Y-91683871D01*
X140471035Y-91699362D01*
X140487044Y-91706518D01*
X140519275Y-91724856D01*
X140540944Y-91740661D01*
X140544437Y-91744618D01*
X140560270Y-91751075D01*
X140594198Y-91755697D01*
X140638933Y-91757499D01*
X140639722Y-91757499D01*
X140712811Y-91761318D01*
X140767625Y-91773931D01*
X140810290Y-91797078D01*
X140826106Y-91810402D01*
X140846891Y-91824632D01*
X140876438Y-91833513D01*
X140921325Y-91838593D01*
X140953106Y-91840253D01*
X141041353Y-91846736D01*
X141109875Y-91859200D01*
X141163980Y-91879342D01*
X141208979Y-91908859D01*
X141231185Y-91929116D01*
X141264349Y-91959755D01*
X141289265Y-91974567D01*
X141313652Y-91977481D01*
X141323975Y-91976347D01*
X141403132Y-91976213D01*
X141476061Y-91998012D01*
X141538151Y-92039498D01*
X141584791Y-92098427D01*
X141588396Y-92105130D01*
X141604338Y-92156496D01*
X141608630Y-92218432D01*
X141601250Y-92278923D01*
X141588794Y-92314642D01*
X141575735Y-92344155D01*
X141575781Y-92364618D01*
X141589966Y-92389163D01*
X141595256Y-92396652D01*
X141616784Y-92442124D01*
X141627290Y-92504919D01*
X141627810Y-92512609D01*
X141628527Y-92561307D01*
X141621840Y-92600432D01*
X141604945Y-92642801D01*
X141594859Y-92663217D01*
X141574208Y-92706942D01*
X141564849Y-92738395D01*
X141564797Y-92766960D01*
X141568587Y-92787416D01*
X141572774Y-92855177D01*
X141554305Y-92924150D01*
X141512414Y-92996632D01*
X141488850Y-93027218D01*
X141466825Y-93058666D01*
X141455941Y-93090485D01*
X141452657Y-93134063D01*
X141452600Y-93143866D01*
X141449569Y-93203692D01*
X141437908Y-93250104D01*
X141413760Y-93292558D01*
X141373269Y-93340508D01*
X141371719Y-93342175D01*
X141337909Y-93382222D01*
X141318632Y-93417328D01*
X141308404Y-93458182D01*
X141306891Y-93468503D01*
X141291101Y-93529794D01*
X141259432Y-93585961D01*
X141208942Y-93641062D01*
X141142847Y-93694660D01*
X141098373Y-93729230D01*
X141072139Y-93755192D01*
X141060433Y-93776707D01*
X141058834Y-93788774D01*
X141049754Y-93827657D01*
X141026275Y-93873257D01*
X140993849Y-93916444D01*
X140968044Y-93940898D01*
X140938790Y-93960148D01*
X140896162Y-93984065D01*
X140855202Y-94004650D01*
X140808840Y-94028881D01*
X140779554Y-94051483D01*
X140760232Y-94078572D01*
X140753765Y-94091887D01*
X140715708Y-94147016D01*
X140655674Y-94194423D01*
X140576317Y-94232582D01*
X140480292Y-94259969D01*
X140451768Y-94265332D01*
X140419151Y-94272817D01*
X140400330Y-94280959D01*
X140398500Y-94283699D01*
X140408520Y-94294205D01*
X140435331Y-94314400D01*
X140474054Y-94340716D01*
X140494302Y-94353755D01*
X140570010Y-94407625D01*
X140652576Y-94476279D01*
X140735008Y-94553207D01*
X140810313Y-94631903D01*
X140868737Y-94702185D01*
X140924578Y-94785538D01*
X140980218Y-94885441D01*
X141031566Y-94993342D01*
X141074532Y-95100690D01*
X141103464Y-95192850D01*
X141118628Y-95261071D01*
X141132879Y-95342909D01*
X141144316Y-95426600D01*
X141149446Y-95477692D01*
X141158327Y-95564780D01*
X141170399Y-95631695D01*
X141188002Y-95683650D01*
X141213477Y-95725858D01*
X141249165Y-95763531D01*
X141293850Y-95799270D01*
X141426180Y-95911903D01*
X141545154Y-96043560D01*
X141647707Y-96190048D01*
X141730775Y-96347171D01*
X141774309Y-96457188D01*
X141822113Y-96634997D01*
X141845569Y-96816208D01*
X141845051Y-96998388D01*
X141820932Y-97179104D01*
X141773585Y-97355922D01*
X141703382Y-97526409D01*
X141610697Y-97688131D01*
X141578454Y-97734727D01*
X141547415Y-97778916D01*
X141524402Y-97816106D01*
X141506522Y-97852969D01*
X141490880Y-97896174D01*
X141474584Y-97952394D01*
X141460020Y-98007777D01*
X141442134Y-98075487D01*
X141424520Y-98139388D01*
X141409048Y-98192869D01*
X141397589Y-98229318D01*
X141396327Y-98232921D01*
X141385644Y-98276153D01*
X141378411Y-98331138D01*
X141376400Y-98374133D01*
X141365888Y-98520454D01*
X141335516Y-98674789D01*
X141287029Y-98831796D01*
X141222172Y-98986134D01*
X141142692Y-99132460D01*
X141113871Y-99177599D01*
X141014117Y-99307530D01*
X140894014Y-99430120D01*
X140758345Y-99541701D01*
X140611895Y-99638606D01*
X140459448Y-99717166D01*
X140357944Y-99757160D01*
X140320762Y-99773613D01*
X140269653Y-99801172D01*
X140211262Y-99836044D01*
X140152233Y-99874433D01*
X140150316Y-99875740D01*
X139926262Y-100015604D01*
X139688659Y-100139238D01*
X139631954Y-100165333D01*
X139568034Y-100195637D01*
X139518786Y-100224071D01*
X139474873Y-100257047D01*
X139426955Y-100300979D01*
X139409704Y-100317947D01*
X139260310Y-100450124D01*
X139102087Y-100558498D01*
X138934844Y-100643152D01*
X138758394Y-100704167D01*
X138572546Y-100741626D01*
X138404600Y-100755075D01*
X138337673Y-100756451D01*
X138276843Y-100756837D01*
X138228206Y-100756253D01*
X138197857Y-100754719D01*
X138195050Y-100754379D01*
X138161339Y-100749122D01*
X138114763Y-100741322D01*
X138080750Y-100735383D01*
X137907600Y-100692347D01*
X137737014Y-100626390D01*
X137573562Y-100539913D01*
X137421816Y-100435315D01*
X137293350Y-100322032D01*
X137251030Y-100282424D01*
X137211263Y-100252678D01*
X137165405Y-100227328D01*
X137104815Y-100200910D01*
X137096500Y-100197552D01*
X136987582Y-100150242D01*
X136870296Y-100093090D01*
X136750334Y-100029323D01*
X136633388Y-99962172D01*
X136572771Y-99924476D01*
X137364665Y-99924476D01*
X137367608Y-99939436D01*
X137383745Y-99973143D01*
X137416131Y-100017999D01*
X137460837Y-100069726D01*
X137513935Y-100124043D01*
X137571496Y-100176673D01*
X137625360Y-100220181D01*
X137774373Y-100317917D01*
X137928931Y-100391267D01*
X138090682Y-100440941D01*
X138172356Y-100456743D01*
X138253213Y-100464342D01*
X138349251Y-100465251D01*
X138451304Y-100460023D01*
X138550207Y-100449209D01*
X138636796Y-100433363D01*
X138660296Y-100427350D01*
X138826382Y-100367982D01*
X138981267Y-100286373D01*
X139122825Y-100183956D01*
X139248927Y-100062165D01*
X139308089Y-99991130D01*
X139348519Y-99924929D01*
X139364436Y-99862714D01*
X139355728Y-99804329D01*
X139322285Y-99749620D01*
X139263996Y-99698432D01*
X139180750Y-99650611D01*
X139072438Y-99606000D01*
X139020550Y-99588535D01*
X138923190Y-99560751D01*
X138825209Y-99539939D01*
X138721232Y-99525449D01*
X138605886Y-99516635D01*
X138473795Y-99512846D01*
X138391900Y-99512671D01*
X138289477Y-99513809D01*
X138206335Y-99516306D01*
X138136370Y-99520594D01*
X138073478Y-99527106D01*
X138011556Y-99536276D01*
X137979150Y-99541975D01*
X137839212Y-99572598D01*
X137714507Y-99609953D01*
X137606437Y-99653132D01*
X137516404Y-99701221D01*
X137445808Y-99753311D01*
X137396052Y-99808491D01*
X137368537Y-99865850D01*
X137364665Y-99924476D01*
X136572771Y-99924476D01*
X136525153Y-99894864D01*
X136431319Y-99830629D01*
X136378950Y-99790598D01*
X136342635Y-99765398D01*
X136292566Y-99736026D01*
X136238427Y-99708092D01*
X136228053Y-99703213D01*
X136060218Y-99612016D01*
X135906752Y-99500754D01*
X135769022Y-99371182D01*
X135648395Y-99225057D01*
X135546237Y-99064134D01*
X135463916Y-98890167D01*
X135402798Y-98704912D01*
X135382349Y-98617214D01*
X135367757Y-98554177D01*
X135350356Y-98491697D01*
X135333050Y-98439825D01*
X135326274Y-98423089D01*
X135306379Y-98373492D01*
X135296764Y-98346753D01*
X135650144Y-98346753D01*
X135653140Y-98435801D01*
X135660806Y-98515312D01*
X135666889Y-98551522D01*
X135714345Y-98725024D01*
X135783351Y-98886670D01*
X135872619Y-99034895D01*
X135980858Y-99168136D01*
X136106781Y-99284828D01*
X136249098Y-99383409D01*
X136406521Y-99462315D01*
X136423128Y-99469096D01*
X136531468Y-99506327D01*
X136640436Y-99532496D01*
X136745305Y-99547121D01*
X136841345Y-99549720D01*
X136923829Y-99539809D01*
X136971298Y-99525032D01*
X137015422Y-99497386D01*
X137062734Y-99453864D01*
X137106844Y-99401907D01*
X137141361Y-99348954D01*
X137158939Y-99306599D01*
X137179727Y-99172077D01*
X137175992Y-99031160D01*
X137147757Y-98883985D01*
X137095046Y-98730692D01*
X137044498Y-98621582D01*
X136994890Y-98527338D01*
X136949633Y-98449471D01*
X136903706Y-98380750D01*
X136852087Y-98313944D01*
X136799889Y-98253550D01*
X137357138Y-98253550D01*
X137358625Y-98347600D01*
X137364476Y-98423821D01*
X137376259Y-98489627D01*
X137395542Y-98552434D01*
X137423895Y-98619659D01*
X137442963Y-98659268D01*
X137517747Y-98782453D01*
X137612892Y-98894192D01*
X137725036Y-98992110D01*
X137850815Y-99073830D01*
X137986864Y-99136975D01*
X138129822Y-99179169D01*
X138195050Y-99190625D01*
X138255561Y-99195882D01*
X138330769Y-99197879D01*
X138412149Y-99196831D01*
X138491173Y-99192951D01*
X138559316Y-99186454D01*
X138595582Y-99180548D01*
X138751237Y-99136062D01*
X138863537Y-99085609D01*
X139498608Y-99085609D01*
X139501129Y-99149453D01*
X139506051Y-99210409D01*
X139513270Y-99266474D01*
X139521653Y-99309862D01*
X139527049Y-99327253D01*
X139575068Y-99412941D01*
X139638699Y-99478595D01*
X139717935Y-99524209D01*
X139772827Y-99541922D01*
X139824112Y-99548286D01*
X139893167Y-99548060D01*
X139973386Y-99541792D01*
X140058163Y-99530027D01*
X140140892Y-99513314D01*
X140152359Y-99510503D01*
X140320591Y-99455601D01*
X140476206Y-99379259D01*
X140617826Y-99282812D01*
X140744074Y-99167599D01*
X140853572Y-99034957D01*
X140944943Y-98886223D01*
X141016810Y-98722734D01*
X141041665Y-98647250D01*
X141054699Y-98601126D01*
X141063982Y-98560362D01*
X141070173Y-98518886D01*
X141073931Y-98470626D01*
X141075915Y-98409513D01*
X141076785Y-98329473D01*
X141076819Y-98323400D01*
X141076805Y-98240021D01*
X141075384Y-98176020D01*
X141072025Y-98125386D01*
X141066198Y-98082113D01*
X141057374Y-98040191D01*
X141048972Y-98007858D01*
X141012686Y-97897383D01*
X140969792Y-97810246D01*
X140918628Y-97744868D01*
X140857531Y-97699673D01*
X140784837Y-97673084D01*
X140698884Y-97663522D01*
X140685828Y-97663452D01*
X140562982Y-97676768D01*
X140438988Y-97715060D01*
X140314592Y-97777976D01*
X140190535Y-97865163D01*
X140106400Y-97938463D01*
X140078647Y-97962999D01*
X140058350Y-97978100D01*
X140053091Y-97980389D01*
X140036606Y-97990607D01*
X140008666Y-98018833D01*
X139971693Y-98061799D01*
X139928104Y-98116236D01*
X139880318Y-98178875D01*
X139830753Y-98246447D01*
X139781830Y-98315685D01*
X139735966Y-98383317D01*
X139695580Y-98446077D01*
X139663091Y-98500695D01*
X139649835Y-98525354D01*
X139606319Y-98621745D01*
X139565802Y-98732054D01*
X139532303Y-98844820D01*
X139520238Y-98894900D01*
X139506861Y-98963270D01*
X139499949Y-99022864D01*
X139498608Y-99085609D01*
X138863537Y-99085609D01*
X138894857Y-99071538D01*
X139024695Y-98988718D01*
X139139007Y-98889345D01*
X139236046Y-98775160D01*
X139314066Y-98647906D01*
X139371322Y-98509324D01*
X139404094Y-98373711D01*
X139413051Y-98315242D01*
X139417574Y-98269682D01*
X139417637Y-98227742D01*
X139413216Y-98180129D01*
X139404285Y-98117555D01*
X139403381Y-98111663D01*
X139368175Y-97963914D01*
X139309912Y-97826342D01*
X139229246Y-97700025D01*
X139126836Y-97586039D01*
X139036910Y-97509864D01*
X138913023Y-97427589D01*
X138786289Y-97367155D01*
X138652363Y-97327180D01*
X138506899Y-97306277D01*
X138385550Y-97302298D01*
X138268644Y-97306932D01*
X138166979Y-97320354D01*
X138071488Y-97344740D01*
X137973108Y-97382267D01*
X137890250Y-97421204D01*
X137759248Y-97496434D01*
X137648933Y-97582351D01*
X137555577Y-97682642D01*
X137475451Y-97800994D01*
X137440140Y-97866200D01*
X137407990Y-97933462D01*
X137385231Y-97992227D01*
X137370316Y-98049707D01*
X137361701Y-98113119D01*
X137357839Y-98189674D01*
X137357138Y-98253550D01*
X136799889Y-98253550D01*
X136789753Y-98241823D01*
X136751886Y-98200306D01*
X136632055Y-98079242D01*
X136517005Y-97981477D01*
X136404659Y-97905854D01*
X136292938Y-97851215D01*
X136179763Y-97816402D01*
X136063058Y-97800260D01*
X136031202Y-97798963D01*
X135970429Y-97798521D01*
X135927702Y-97800994D01*
X135895732Y-97807443D01*
X135867232Y-97818930D01*
X135856621Y-97824394D01*
X135794678Y-97868983D01*
X135738483Y-97930203D01*
X135695345Y-97999334D01*
X135681060Y-98033837D01*
X135667275Y-98091709D01*
X135657401Y-98167774D01*
X135651628Y-98255100D01*
X135650144Y-98346753D01*
X135296764Y-98346753D01*
X135282225Y-98306324D01*
X135256055Y-98228566D01*
X135230108Y-98147202D01*
X135206626Y-98069215D01*
X135187850Y-98001587D01*
X135178115Y-97961450D01*
X135158425Y-97898944D01*
X135130949Y-97849890D01*
X135126501Y-97844403D01*
X135044925Y-97735579D01*
X134970216Y-97609065D01*
X134906336Y-97472404D01*
X134857248Y-97333141D01*
X134856403Y-97330235D01*
X134818338Y-97154131D01*
X134803935Y-96973618D01*
X134806563Y-96918980D01*
X135094753Y-96918980D01*
X135098107Y-97047058D01*
X135101277Y-97073345D01*
X135132743Y-97227010D01*
X135182196Y-97373151D01*
X135247701Y-97507595D01*
X135327323Y-97626168D01*
X135390708Y-97697776D01*
X135430402Y-97733107D01*
X135462753Y-97748580D01*
X135494637Y-97745383D01*
X135532928Y-97724705D01*
X135535696Y-97722856D01*
X135571064Y-97691058D01*
X135610909Y-97642808D01*
X135650304Y-97585252D01*
X135684323Y-97525532D01*
X135706502Y-97475197D01*
X135722536Y-97430694D01*
X135742511Y-97375593D01*
X135758800Y-97330883D01*
X135794796Y-97213656D01*
X135825067Y-97077794D01*
X135849031Y-96929537D01*
X135866102Y-96775124D01*
X135875696Y-96620794D01*
X135876148Y-96577150D01*
X136202546Y-96577150D01*
X136203444Y-96678391D01*
X136208723Y-96761267D01*
X136219779Y-96832638D01*
X136238010Y-96899363D01*
X136264812Y-96968301D01*
X136295665Y-97034350D01*
X136368612Y-97155116D01*
X136459435Y-97259403D01*
X136565769Y-97346074D01*
X136685250Y-97413995D01*
X136815512Y-97462030D01*
X136954192Y-97489044D01*
X137098923Y-97493901D01*
X137223826Y-97479960D01*
X137365470Y-97442256D01*
X137504081Y-97381396D01*
X137636862Y-97299620D01*
X137761019Y-97199171D01*
X137873755Y-97082292D01*
X137972275Y-96951223D01*
X138048744Y-96818450D01*
X138083175Y-96745059D01*
X138109085Y-96678154D01*
X138129185Y-96608941D01*
X138146184Y-96528624D01*
X138156388Y-96469200D01*
X138172498Y-96324511D01*
X138171865Y-96271742D01*
X138574463Y-96271742D01*
X138575472Y-96291400D01*
X138585023Y-96401763D01*
X138601113Y-96497382D01*
X138626193Y-96587674D01*
X138662715Y-96682060D01*
X138696083Y-96754950D01*
X138779711Y-96908430D01*
X138874075Y-97040593D01*
X138981628Y-97154136D01*
X139104825Y-97251752D01*
X139204982Y-97313908D01*
X139281363Y-97355248D01*
X139345160Y-97385310D01*
X139404803Y-97407089D01*
X139468717Y-97423581D01*
X139545330Y-97437780D01*
X139560300Y-97440194D01*
X139634178Y-97451014D01*
X139691330Y-97456499D01*
X139739860Y-97456663D01*
X139787871Y-97451516D01*
X139843469Y-97441072D01*
X139845559Y-97440631D01*
X139987076Y-97399716D01*
X140111594Y-97340221D01*
X140220130Y-97261466D01*
X140313702Y-97162773D01*
X140360662Y-97097447D01*
X140425240Y-96977865D01*
X140469784Y-96847196D01*
X140494919Y-96703112D01*
X140501484Y-96573958D01*
X140490405Y-96414739D01*
X140766817Y-96414739D01*
X140769275Y-96486573D01*
X140776185Y-96577195D01*
X140786824Y-96680526D01*
X140800470Y-96790485D01*
X140816398Y-96900995D01*
X140833886Y-97005974D01*
X140842776Y-97053400D01*
X140869933Y-97172918D01*
X140903444Y-97289122D01*
X140941771Y-97398382D01*
X140983379Y-97497069D01*
X141026732Y-97581553D01*
X141070295Y-97648204D01*
X141112531Y-97693393D01*
X141114108Y-97694653D01*
X141144925Y-97717212D01*
X141166504Y-97724528D01*
X141188945Y-97717826D01*
X141209340Y-97706194D01*
X141239387Y-97681540D01*
X141278041Y-97640472D01*
X141320954Y-97588423D01*
X141363779Y-97530828D01*
X141402169Y-97473120D01*
X141420231Y-97442563D01*
X141444401Y-97394235D01*
X141471454Y-97332340D01*
X141496806Y-97267592D01*
X141505236Y-97243900D01*
X141520897Y-97197167D01*
X141532036Y-97158786D01*
X141539439Y-97122710D01*
X141543889Y-97082894D01*
X141546171Y-97033292D01*
X141547071Y-96967858D01*
X141547269Y-96920050D01*
X141546213Y-96819544D01*
X141541633Y-96737799D01*
X141532375Y-96668286D01*
X141517283Y-96604475D01*
X141495202Y-96539837D01*
X141468765Y-96476391D01*
X141399130Y-96345426D01*
X141310180Y-96221198D01*
X141206650Y-96109314D01*
X141093273Y-96015377D01*
X141060544Y-95993142D01*
X140999718Y-95956103D01*
X140953934Y-95934397D01*
X140918991Y-95926779D01*
X140890687Y-95932002D01*
X140877801Y-95938982D01*
X140852986Y-95967461D01*
X140829521Y-96017107D01*
X140808393Y-96083688D01*
X140790588Y-96162972D01*
X140777094Y-96250729D01*
X140768897Y-96342727D01*
X140766817Y-96414739D01*
X140490405Y-96414739D01*
X140489553Y-96402508D01*
X140453510Y-96234972D01*
X140394612Y-96073952D01*
X140314113Y-95922053D01*
X140213269Y-95781877D01*
X140093335Y-95656027D01*
X140034495Y-95605584D01*
X139912792Y-95517466D01*
X139790772Y-95450253D01*
X139661120Y-95400434D01*
X139543594Y-95370017D01*
X139414061Y-95352437D01*
X139288974Y-95356772D01*
X139164001Y-95383606D01*
X139034808Y-95433525D01*
X139019667Y-95440684D01*
X138954607Y-95473647D01*
X138905537Y-95503396D01*
X138864594Y-95535447D01*
X138823917Y-95575318D01*
X138816467Y-95583265D01*
X138722529Y-95701025D01*
X138651725Y-95827678D01*
X138603690Y-95964299D01*
X138578058Y-96111962D01*
X138574463Y-96271742D01*
X138171865Y-96271742D01*
X138170913Y-96192452D01*
X138151012Y-96066848D01*
X138112173Y-95941523D01*
X138100281Y-95911567D01*
X138033834Y-95781968D01*
X137948981Y-95668187D01*
X137847965Y-95571744D01*
X137733031Y-95494155D01*
X137606421Y-95436940D01*
X137470380Y-95401616D01*
X137328883Y-95389700D01*
X137170306Y-95402154D01*
X137016879Y-95439308D01*
X136869326Y-95500851D01*
X136728375Y-95586470D01*
X136594752Y-95695853D01*
X136577588Y-95712159D01*
X136457275Y-95845677D01*
X136357830Y-95993636D01*
X136279190Y-96156139D01*
X136237532Y-96275120D01*
X136223903Y-96323315D01*
X136214416Y-96366406D01*
X136208290Y-96411121D01*
X136204746Y-96464187D01*
X136203006Y-96532331D01*
X136202546Y-96577150D01*
X135876148Y-96577150D01*
X135877230Y-96472788D01*
X135870120Y-96337345D01*
X135859666Y-96253222D01*
X135844290Y-96173278D01*
X135826213Y-96112412D01*
X135802901Y-96064302D01*
X135771821Y-96022627D01*
X135763706Y-96013711D01*
X135731637Y-95986853D01*
X135698604Y-95977377D01*
X135659772Y-95985642D01*
X135610307Y-96012008D01*
X135587775Y-96026808D01*
X135456864Y-96128993D01*
X135345768Y-96244992D01*
X135250981Y-96378549D01*
X135237522Y-96401065D01*
X135181392Y-96516632D01*
X135137890Y-96646390D01*
X135108513Y-96782965D01*
X135094753Y-96918980D01*
X134806563Y-96918980D01*
X134812670Y-96792040D01*
X134844016Y-96612743D01*
X134897448Y-96439071D01*
X134972442Y-96274369D01*
X135039713Y-96162890D01*
X135083677Y-96104077D01*
X135140412Y-96037386D01*
X135203770Y-95969306D01*
X135267607Y-95906324D01*
X135325775Y-95854927D01*
X135347607Y-95837935D01*
X135399678Y-95792200D01*
X135436903Y-95740308D01*
X135461385Y-95677347D01*
X135475228Y-95598404D01*
X135478942Y-95542004D01*
X135771778Y-95542004D01*
X135771815Y-95593305D01*
X135774033Y-95635614D01*
X135777989Y-95661915D01*
X135779624Y-95665925D01*
X135802600Y-95679757D01*
X135843908Y-95677882D01*
X135904185Y-95660233D01*
X135931148Y-95649803D01*
X136018556Y-95608451D01*
X136120313Y-95550160D01*
X136233761Y-95476854D01*
X136356239Y-95390457D01*
X136485087Y-95292894D01*
X136617645Y-95186088D01*
X136751254Y-95071964D01*
X136840340Y-94992088D01*
X136931583Y-94905484D01*
X137014317Y-94820768D01*
X137019227Y-94815307D01*
X137427839Y-94815307D01*
X137431951Y-94848343D01*
X137444792Y-94884531D01*
X137465472Y-94927475D01*
X137504996Y-94992141D01*
X137551156Y-95047224D01*
X137565695Y-95060748D01*
X137621863Y-95101635D01*
X137696127Y-95144828D01*
X137781804Y-95187049D01*
X137872210Y-95225022D01*
X137960663Y-95255472D01*
X137966450Y-95257190D01*
X138080612Y-95283082D01*
X138211593Y-95299910D01*
X138352423Y-95307512D01*
X138496129Y-95305726D01*
X138635743Y-95294390D01*
X138753850Y-95275536D01*
X138850574Y-95250131D01*
X138948155Y-95214600D01*
X139040370Y-95171892D01*
X139121000Y-95124953D01*
X139183824Y-95076733D01*
X139193912Y-95066985D01*
X139251882Y-94999020D01*
X139287678Y-94933362D01*
X139303464Y-94865037D01*
X139303835Y-94813979D01*
X139296054Y-94753193D01*
X139279565Y-94701072D01*
X139251022Y-94651209D01*
X139207078Y-94597197D01*
X139170535Y-94558716D01*
X139085961Y-94484614D01*
X139385046Y-94484614D01*
X139395438Y-94521971D01*
X139420740Y-94571554D01*
X139459472Y-94630452D01*
X139509324Y-94694759D01*
X139588559Y-94785436D01*
X139678379Y-94879884D01*
X139776641Y-94976445D01*
X139881204Y-95073458D01*
X139989924Y-95169264D01*
X140100662Y-95262204D01*
X140211273Y-95350616D01*
X140319617Y-95432843D01*
X140423551Y-95507224D01*
X140520933Y-95572099D01*
X140609622Y-95625810D01*
X140687474Y-95666695D01*
X140752348Y-95693097D01*
X140802103Y-95703354D01*
X140810968Y-95703269D01*
X140834792Y-95699217D01*
X140847970Y-95686314D01*
X140856173Y-95657483D01*
X140858679Y-95643700D01*
X140862248Y-95594159D01*
X140860154Y-95527211D01*
X140853160Y-95450021D01*
X140842029Y-95369755D01*
X140827525Y-95293579D01*
X140816752Y-95250020D01*
X140764029Y-95104836D01*
X140689157Y-94964921D01*
X140595364Y-94834519D01*
X140485880Y-94717874D01*
X140363934Y-94619231D01*
X140310393Y-94584560D01*
X140182872Y-94519233D01*
X140043859Y-94468245D01*
X139899983Y-94433234D01*
X139757870Y-94415838D01*
X139632329Y-94416969D01*
X139562999Y-94424202D01*
X139498726Y-94433544D01*
X139444845Y-94443990D01*
X139406690Y-94454535D01*
X139391047Y-94462393D01*
X139385046Y-94484614D01*
X139085961Y-94484614D01*
X139042083Y-94446169D01*
X138899705Y-94354641D01*
X138745012Y-94285061D01*
X138636891Y-94251597D01*
X138585038Y-94238900D01*
X138541049Y-94230318D01*
X138498034Y-94225271D01*
X138449105Y-94223177D01*
X138387373Y-94223457D01*
X138322050Y-94225059D01*
X138223442Y-94229277D01*
X138143116Y-94236637D01*
X138074000Y-94248677D01*
X138009026Y-94266929D01*
X137941126Y-94292931D01*
X137877056Y-94321696D01*
X137771969Y-94376851D01*
X137675255Y-94439046D01*
X137590743Y-94505205D01*
X137522266Y-94572247D01*
X137473653Y-94637095D01*
X137464935Y-94652834D01*
X137446886Y-94699209D01*
X137433406Y-94753409D01*
X137430167Y-94775572D01*
X137427839Y-94815307D01*
X137019227Y-94815307D01*
X137086902Y-94740047D01*
X137147700Y-94665425D01*
X137195071Y-94599009D01*
X137227375Y-94542904D01*
X137242974Y-94499217D01*
X137242566Y-94475351D01*
X137223244Y-94455407D01*
X137179943Y-94439554D01*
X137113781Y-94427989D01*
X137025880Y-94420909D01*
X136918700Y-94418511D01*
X136793686Y-94422889D01*
X136683895Y-94437370D01*
X136580523Y-94463805D01*
X136474771Y-94504045D01*
X136441750Y-94518862D01*
X136294553Y-94600466D01*
X136162575Y-94701200D01*
X136047269Y-94818845D01*
X135950085Y-94951188D01*
X135872474Y-95096012D01*
X135815887Y-95251102D01*
X135781774Y-95414241D01*
X135771778Y-95542004D01*
X135478942Y-95542004D01*
X135479773Y-95529400D01*
X135499213Y-95333781D01*
X135543446Y-95142719D01*
X135612018Y-94957983D01*
X135643247Y-94892026D01*
X135716667Y-94768149D01*
X135810427Y-94645375D01*
X135919764Y-94528656D01*
X136039910Y-94422947D01*
X136166102Y-94333200D01*
X136201437Y-94311857D01*
X136286383Y-94262577D01*
X136224028Y-94247618D01*
X136141374Y-94219562D01*
X136072827Y-94179651D01*
X136022675Y-94130737D01*
X136004905Y-94101900D01*
X135987670Y-94071148D01*
X135966750Y-94047697D01*
X135935723Y-94026091D01*
X135888165Y-94000877D01*
X135882838Y-93998236D01*
X135803453Y-93951957D01*
X135746720Y-93901796D01*
X135709915Y-93844953D01*
X135696342Y-93806774D01*
X135680176Y-93764721D01*
X135653255Y-93731161D01*
X135623557Y-93706865D01*
X135546198Y-93643467D01*
X135491879Y-93583870D01*
X135458981Y-93525781D01*
X135445885Y-93466905D01*
X135445500Y-93454395D01*
X135440519Y-93424616D01*
X135423016Y-93393473D01*
X135389148Y-93354239D01*
X135387035Y-93352027D01*
X135337118Y-93292264D01*
X135307457Y-93235745D01*
X135295058Y-93175489D01*
X135294571Y-93136657D01*
X135294510Y-93098210D01*
X135288159Y-93069128D01*
X135271892Y-93039727D01*
X135244855Y-93003819D01*
X135203973Y-92942096D01*
X135183287Y-92882017D01*
X135180070Y-92814288D01*
X135182201Y-92790219D01*
X135183459Y-92751553D01*
X135176195Y-92713876D01*
X135158190Y-92667439D01*
X135150359Y-92650337D01*
X135129290Y-92601468D01*
X135119017Y-92564280D01*
X135117967Y-92541353D01*
X135356600Y-92541353D01*
X135365816Y-92565534D01*
X135390820Y-92601372D01*
X135427643Y-92644560D01*
X135472315Y-92690791D01*
X135520868Y-92735758D01*
X135569332Y-92775154D01*
X135577735Y-92781318D01*
X135603289Y-92805541D01*
X135607046Y-92827540D01*
X135606061Y-92830508D01*
X135598176Y-92842310D01*
X135582149Y-92848205D01*
X135552060Y-92849185D01*
X135509046Y-92846755D01*
X135420692Y-92840433D01*
X135442621Y-92878266D01*
X135460572Y-92902067D01*
X135492583Y-92937846D01*
X135533912Y-92980504D01*
X135573944Y-93019424D01*
X135616877Y-93060844D01*
X135652239Y-93096611D01*
X135676293Y-93122829D01*
X135685284Y-93135450D01*
X135674791Y-93142924D01*
X135645485Y-93149911D01*
X135607640Y-93154516D01*
X135528050Y-93160883D01*
X135591550Y-93221642D01*
X135633325Y-93258467D01*
X135686328Y-93300853D01*
X135740366Y-93340712D01*
X135750300Y-93347599D01*
X135792964Y-93376886D01*
X135827179Y-93400526D01*
X135847885Y-93415018D01*
X135851532Y-93417689D01*
X135851413Y-93427428D01*
X135831538Y-93436538D01*
X135797531Y-93443396D01*
X135755015Y-93446383D01*
X135751919Y-93446405D01*
X135713342Y-93447236D01*
X135695703Y-93450692D01*
X135694553Y-93458652D01*
X135701119Y-93467840D01*
X135724904Y-93489365D01*
X135765871Y-93519044D01*
X135818594Y-93553460D01*
X135877645Y-93589197D01*
X135937596Y-93622838D01*
X135989042Y-93649078D01*
X136031735Y-93670632D01*
X136063785Y-93688984D01*
X136079688Y-93700915D01*
X136080500Y-93702606D01*
X136068813Y-93718178D01*
X136037806Y-93731234D01*
X135993556Y-93739487D01*
X135979452Y-93740635D01*
X135925167Y-93743838D01*
X135956708Y-93770969D01*
X135979268Y-93784052D01*
X136020293Y-93802338D01*
X136073921Y-93823727D01*
X136134288Y-93846119D01*
X136195530Y-93867417D01*
X136251786Y-93885519D01*
X136297193Y-93898329D01*
X136325886Y-93903745D01*
X136327711Y-93903800D01*
X136344667Y-93909115D01*
X136341492Y-93922837D01*
X136320576Y-93941623D01*
X136286807Y-93960950D01*
X136256192Y-93978465D01*
X136238986Y-93993864D01*
X136237483Y-93999050D01*
X136252280Y-94010306D01*
X136287887Y-94022861D01*
X136339816Y-94035731D01*
X136403580Y-94047936D01*
X136474690Y-94058492D01*
X136543146Y-94065940D01*
X136599192Y-94071558D01*
X136645460Y-94077432D01*
X136676325Y-94082772D01*
X136686038Y-94086004D01*
X136684862Y-94100497D01*
X136667522Y-94122840D01*
X136639395Y-94147429D01*
X136607579Y-94167764D01*
X136569450Y-94187828D01*
X136601200Y-94196948D01*
X136652891Y-94205095D01*
X136724549Y-94206515D01*
X136811679Y-94201322D01*
X136909787Y-94189632D01*
X136914669Y-94188913D01*
X137090490Y-94155421D01*
X137244161Y-94110285D01*
X137376276Y-94053171D01*
X137487427Y-93983750D01*
X137578206Y-93901687D01*
X137649206Y-93806652D01*
X137672537Y-93764261D01*
X137698302Y-93710837D01*
X137713327Y-93669737D01*
X137716214Y-93635806D01*
X137705563Y-93603887D01*
X137679978Y-93568822D01*
X137638060Y-93525455D01*
X137597207Y-93486410D01*
X137470569Y-93374032D01*
X137322993Y-93256191D01*
X137157759Y-93135098D01*
X136978142Y-93012961D01*
X136787421Y-92891990D01*
X136588871Y-92774396D01*
X136385770Y-92662388D01*
X136337675Y-92637084D01*
X136276629Y-92605008D01*
X136224375Y-92577058D01*
X136184684Y-92555291D01*
X136161331Y-92541766D01*
X136156700Y-92538366D01*
X136167859Y-92540048D01*
X136198928Y-92549966D01*
X136246294Y-92566776D01*
X136306343Y-92589133D01*
X136375462Y-92615692D01*
X136450036Y-92645108D01*
X136525000Y-92675440D01*
X136677826Y-92741453D01*
X136835789Y-92815866D01*
X136995373Y-92896645D01*
X137153059Y-92981753D01*
X137305332Y-93069155D01*
X137448674Y-93156815D01*
X137579568Y-93242698D01*
X137694498Y-93324767D01*
X137789947Y-93400987D01*
X137812126Y-93420484D01*
X137861003Y-93464517D01*
X137929050Y-93428890D01*
X138017010Y-93369396D01*
X138088361Y-93293547D01*
X138141225Y-93205073D01*
X138173727Y-93107704D01*
X138178416Y-93060848D01*
X138572853Y-93060848D01*
X138593749Y-93164509D01*
X138637716Y-93257767D01*
X138704715Y-93340426D01*
X138706693Y-93342363D01*
X138749163Y-93379689D01*
X138795243Y-93414113D01*
X138826195Y-93433243D01*
X138883731Y-93463766D01*
X138977540Y-93387207D01*
X139134758Y-93267674D01*
X139313502Y-93147438D01*
X139510042Y-93028520D01*
X139720650Y-92912939D01*
X139941599Y-92802716D01*
X140169158Y-92699869D01*
X140399601Y-92606420D01*
X140462149Y-92582944D01*
X140507891Y-92566616D01*
X140542918Y-92555137D01*
X140561791Y-92550245D01*
X140563600Y-92550513D01*
X140553044Y-92557966D01*
X140524133Y-92574890D01*
X140480997Y-92598946D01*
X140427771Y-92627796D01*
X140414375Y-92634949D01*
X140236567Y-92732642D01*
X140058853Y-92836006D01*
X139885540Y-92942295D01*
X139720936Y-93048763D01*
X139569347Y-93152665D01*
X139435082Y-93251254D01*
X139380000Y-93294323D01*
X139311658Y-93350605D01*
X139244659Y-93408662D01*
X139181838Y-93465746D01*
X139126032Y-93519107D01*
X139080077Y-93565996D01*
X139046811Y-93603664D01*
X139029069Y-93629361D01*
X139026900Y-93636576D01*
X139033887Y-93666688D01*
X139052550Y-93710926D01*
X139079441Y-93763012D01*
X139111111Y-93816666D01*
X139144114Y-93865606D01*
X139171258Y-93899499D01*
X139241656Y-93967385D01*
X139322124Y-94024721D01*
X139416503Y-94073507D01*
X139528639Y-94115747D01*
X139655543Y-94151742D01*
X139796792Y-94182517D01*
X139925174Y-94201179D01*
X140037762Y-94207432D01*
X140131626Y-94200980D01*
X140136109Y-94200264D01*
X140184869Y-94192208D01*
X140126584Y-94155930D01*
X140093981Y-94132402D01*
X140072828Y-94110926D01*
X140068300Y-94100868D01*
X140071606Y-94089628D01*
X140084126Y-94081213D01*
X140109761Y-94074683D01*
X140152411Y-94069100D01*
X140215978Y-94063526D01*
X140227050Y-94062672D01*
X140291384Y-94055901D01*
X140358321Y-94045756D01*
X140421063Y-94033575D01*
X140472815Y-94020693D01*
X140506782Y-94008446D01*
X140509087Y-94007224D01*
X140514805Y-93998200D01*
X140501753Y-93985459D01*
X140467403Y-93966560D01*
X140466444Y-93966084D01*
X140425456Y-93943261D01*
X140407901Y-93926141D01*
X140412941Y-93912942D01*
X140436600Y-93902796D01*
X140552098Y-93867145D01*
X140647608Y-93835147D01*
X140722462Y-93807137D01*
X140775991Y-93783453D01*
X140807525Y-93764431D01*
X140816395Y-93750407D01*
X140801933Y-93741718D01*
X140763470Y-93738700D01*
X140762877Y-93738700D01*
X140728119Y-93734917D01*
X140695316Y-93725495D01*
X140671263Y-93713324D01*
X140662755Y-93701293D01*
X140665219Y-93697173D01*
X140679247Y-93689494D01*
X140709740Y-93674795D01*
X140747750Y-93657324D01*
X140807915Y-93627655D01*
X140872008Y-93591844D01*
X140933749Y-93553815D01*
X140986859Y-93517488D01*
X141025058Y-93486789D01*
X141032538Y-93479405D01*
X141063327Y-93446600D01*
X140994438Y-93446405D01*
X140952345Y-93443669D01*
X140918483Y-93436874D01*
X140897666Y-93427759D01*
X140894707Y-93418066D01*
X140902402Y-93413132D01*
X140928110Y-93398712D01*
X140967718Y-93372084D01*
X141015684Y-93337388D01*
X141066466Y-93298759D01*
X141114523Y-93260337D01*
X141154311Y-93226260D01*
X141161448Y-93219717D01*
X141230350Y-93155468D01*
X141158363Y-93154984D01*
X141115212Y-93153486D01*
X141080832Y-93150148D01*
X141067449Y-93147236D01*
X141065772Y-93138148D01*
X141079515Y-93116945D01*
X141109761Y-93082325D01*
X141157594Y-93032989D01*
X141187060Y-93003757D01*
X141235060Y-92955772D01*
X141275845Y-92913491D01*
X141306270Y-92880298D01*
X141323186Y-92859574D01*
X141325600Y-92854843D01*
X141313710Y-92848477D01*
X141280745Y-92846165D01*
X141242052Y-92847466D01*
X141193636Y-92848412D01*
X141158710Y-92844869D01*
X141145114Y-92839394D01*
X141146157Y-92826774D01*
X141163569Y-92801717D01*
X141198357Y-92763011D01*
X141251529Y-92709446D01*
X141260411Y-92700776D01*
X141306999Y-92653858D01*
X141346038Y-92611522D01*
X141374203Y-92577605D01*
X141388171Y-92555943D01*
X141389100Y-92552233D01*
X141386833Y-92540249D01*
X141376443Y-92534261D01*
X141352543Y-92533388D01*
X141309749Y-92536748D01*
X141300200Y-92537678D01*
X141256512Y-92540926D01*
X141224789Y-92541271D01*
X141211390Y-92538668D01*
X141211300Y-92538310D01*
X141216735Y-92516347D01*
X141231098Y-92478397D01*
X141251477Y-92430941D01*
X141274957Y-92380462D01*
X141298626Y-92333442D01*
X141319571Y-92296365D01*
X141321165Y-92293828D01*
X141343357Y-92258010D01*
X141358746Y-92231446D01*
X141363700Y-92220803D01*
X141351841Y-92218386D01*
X141319627Y-92216422D01*
X141272104Y-92215123D01*
X141219422Y-92214700D01*
X141154319Y-92213961D01*
X141092091Y-92211965D01*
X141040982Y-92209043D01*
X141015385Y-92206508D01*
X140955625Y-92198317D01*
X141009467Y-92143456D01*
X141038410Y-92112524D01*
X141050729Y-92094217D01*
X141048643Y-92084128D01*
X141041340Y-92080164D01*
X141012221Y-92075500D01*
X140964660Y-92074741D01*
X140905223Y-92077350D01*
X140840476Y-92082790D01*
X140776986Y-92090522D01*
X140721318Y-92100010D01*
X140683934Y-92109411D01*
X140641542Y-92121545D01*
X140607804Y-92128453D01*
X140591859Y-92128869D01*
X140577209Y-92113419D01*
X140580292Y-92086464D01*
X140599595Y-92053077D01*
X140621654Y-92028874D01*
X140667008Y-91986100D01*
X140624574Y-91986100D01*
X140587745Y-91990088D01*
X140534220Y-92000841D01*
X140471209Y-92016540D01*
X140405920Y-92035369D01*
X140345564Y-92055510D01*
X140337585Y-92058455D01*
X140294804Y-92070419D01*
X140271361Y-92067148D01*
X140270438Y-92066318D01*
X140263990Y-92043459D01*
X140276052Y-92011204D01*
X140304113Y-91974409D01*
X140330855Y-91949439D01*
X140379450Y-91909330D01*
X140335000Y-91917123D01*
X140253720Y-91936613D01*
X140164197Y-91966555D01*
X140078806Y-92002570D01*
X140044153Y-92020061D01*
X139999561Y-92042731D01*
X139971827Y-92052802D01*
X139956549Y-92051577D01*
X139952273Y-92047240D01*
X139942279Y-92016676D01*
X139950797Y-91980933D01*
X139972044Y-91944340D01*
X140002788Y-91899036D01*
X139954437Y-91916095D01*
X139899375Y-91937966D01*
X139850094Y-91964022D01*
X139798135Y-91999248D01*
X139749620Y-92036851D01*
X139710828Y-92066208D01*
X139678710Y-92087270D01*
X139658861Y-92096464D01*
X139656322Y-92096444D01*
X139638476Y-92078729D01*
X139628134Y-92045964D01*
X139627389Y-92007916D01*
X139632642Y-91986021D01*
X139646708Y-91948754D01*
X139600329Y-91972536D01*
X139570923Y-91992156D01*
X139530898Y-92024850D01*
X139486874Y-92065042D01*
X139465591Y-92086044D01*
X139424944Y-92126741D01*
X139397722Y-92151579D01*
X139379841Y-92163095D01*
X139367218Y-92163832D01*
X139355767Y-92156329D01*
X139354466Y-92155166D01*
X139336310Y-92122157D01*
X139331700Y-92079381D01*
X139329459Y-92045983D01*
X139323811Y-92026368D01*
X139320788Y-92024199D01*
X139302193Y-92033359D01*
X139270993Y-92058486D01*
X139230863Y-92096054D01*
X139185482Y-92142536D01*
X139138525Y-92194405D01*
X139116617Y-92220046D01*
X139079453Y-92264044D01*
X139054940Y-92290957D01*
X139039527Y-92303262D01*
X139029664Y-92303436D01*
X139021801Y-92293957D01*
X139018642Y-92288418D01*
X139005706Y-92254753D01*
X139001950Y-92231324D01*
X138998066Y-92206474D01*
X138986128Y-92199586D01*
X138964074Y-92211366D01*
X138929840Y-92242518D01*
X138910328Y-92262605D01*
X138805286Y-92390729D01*
X138715186Y-92537293D01*
X138641864Y-92698980D01*
X138600435Y-92823088D01*
X138575069Y-92946976D01*
X138572853Y-93060848D01*
X138178416Y-93060848D01*
X138183988Y-93005169D01*
X138177453Y-92935245D01*
X138143869Y-92796308D01*
X138092512Y-92655254D01*
X138026551Y-92518429D01*
X137949153Y-92392175D01*
X137863486Y-92282839D01*
X137838291Y-92255959D01*
X137766790Y-92182950D01*
X137748943Y-92242650D01*
X137733718Y-92286357D01*
X137719928Y-92306551D01*
X137705176Y-92304831D01*
X137687576Y-92283570D01*
X137665723Y-92255228D01*
X137630713Y-92215128D01*
X137587825Y-92168775D01*
X137542333Y-92121675D01*
X137499517Y-92079334D01*
X137464652Y-92047256D01*
X137449090Y-92034756D01*
X137412882Y-92008974D01*
X137421167Y-92041987D01*
X137423560Y-92092846D01*
X137407617Y-92139115D01*
X137394146Y-92156538D01*
X137382890Y-92164555D01*
X137370076Y-92162978D01*
X137351419Y-92149088D01*
X137322635Y-92120166D01*
X137302090Y-92098117D01*
X137259915Y-92055626D01*
X137215416Y-92015839D01*
X137177405Y-91986572D01*
X137173388Y-91983940D01*
X137136254Y-91962135D01*
X137109912Y-91950121D01*
X137097782Y-91948959D01*
X137103285Y-91959709D01*
X137106659Y-91963239D01*
X137117861Y-91986461D01*
X137121859Y-92020330D01*
X137119372Y-92056271D01*
X137111115Y-92085710D01*
X137097804Y-92100073D01*
X137095205Y-92100400D01*
X137080560Y-92092930D01*
X137052045Y-92073162D01*
X137015304Y-92045058D01*
X137007767Y-92039028D01*
X136941187Y-91990752D01*
X136869751Y-91947919D01*
X136802137Y-91915432D01*
X136766952Y-91902929D01*
X136735854Y-91893886D01*
X136770127Y-91934617D01*
X136791485Y-91969129D01*
X136803266Y-92006316D01*
X136803845Y-92037947D01*
X136793804Y-92054649D01*
X136778430Y-92052157D01*
X136746724Y-92039810D01*
X136704599Y-92020013D01*
X136689029Y-92012052D01*
X136596566Y-91969469D01*
X136498538Y-91936609D01*
X136417050Y-91916490D01*
X136378950Y-91908163D01*
X136432925Y-91963487D01*
X136463066Y-91998951D01*
X136482416Y-92030781D01*
X136486900Y-92046905D01*
X136483750Y-92068986D01*
X136478688Y-92075000D01*
X136463817Y-92071351D01*
X136430401Y-92061528D01*
X136384052Y-92047212D01*
X136350560Y-92036587D01*
X136288196Y-92018421D01*
X136224421Y-92002827D01*
X136169779Y-91992287D01*
X136152731Y-91990031D01*
X136074818Y-91981887D01*
X136122109Y-92023409D01*
X136153207Y-92057692D01*
X136168604Y-92089295D01*
X136168179Y-92113838D01*
X136151811Y-92126937D01*
X136124950Y-92125722D01*
X136107087Y-92121121D01*
X136072003Y-92111909D01*
X136027019Y-92100010D01*
X136023350Y-92099036D01*
X135976528Y-92089386D01*
X135920509Y-92081981D01*
X135861121Y-92077061D01*
X135804190Y-92074866D01*
X135755547Y-92075635D01*
X135721018Y-92079607D01*
X135706877Y-92086037D01*
X135711134Y-92100501D01*
X135729356Y-92125916D01*
X135747402Y-92146041D01*
X135794750Y-92195006D01*
X135743950Y-92204121D01*
X135711134Y-92207775D01*
X135660084Y-92210864D01*
X135597966Y-92213047D01*
X135536327Y-92213968D01*
X135379505Y-92214700D01*
X135407051Y-92255975D01*
X135430518Y-92295137D01*
X135457657Y-92346366D01*
X135484834Y-92402071D01*
X135508417Y-92454661D01*
X135524772Y-92496546D01*
X135529057Y-92510902D01*
X135537619Y-92546755D01*
X135447109Y-92537836D01*
X135396413Y-92534489D01*
X135365383Y-92536116D01*
X135356600Y-92541353D01*
X135117967Y-92541353D01*
X135117383Y-92528604D01*
X135119501Y-92504949D01*
X135129513Y-92457462D01*
X135145821Y-92412937D01*
X135152936Y-92399599D01*
X135169077Y-92369786D01*
X135171551Y-92346568D01*
X135161446Y-92315994D01*
X135159781Y-92311983D01*
X135143168Y-92244673D01*
X135144287Y-92172656D01*
X135162821Y-92107108D01*
X135165745Y-92101094D01*
X135210121Y-92039615D01*
X135269689Y-91998113D01*
X135343159Y-91977240D01*
X135413423Y-91976020D01*
X135453508Y-91978074D01*
X135477292Y-91973813D01*
X135493643Y-91960337D01*
X135503643Y-91946521D01*
X135530694Y-91916953D01*
X135566888Y-91889383D01*
X135573417Y-91885510D01*
X135613189Y-91869580D01*
X135669317Y-91855005D01*
X135732760Y-91843418D01*
X135794477Y-91836453D01*
X135845427Y-91835744D01*
X135847828Y-91835926D01*
X135885998Y-91831763D01*
X135911328Y-91818960D01*
X135960615Y-91785033D01*
X136017958Y-91765349D01*
X136090309Y-91757760D01*
X136110064Y-91757500D01*
X136165070Y-91755809D01*
X136199762Y-91750152D01*
X136219039Y-91739648D01*
X136220894Y-91737612D01*
X136264420Y-91704445D01*
X136326165Y-91685846D01*
X136403281Y-91682198D01*
X136492918Y-91693882D01*
X136513259Y-91698366D01*
X136555997Y-91707161D01*
X136584724Y-91708111D01*
X136609773Y-91700622D01*
X136627361Y-91691817D01*
X136687458Y-91672380D01*
X136760409Y-91669164D01*
X136839705Y-91681951D01*
X136896727Y-91700805D01*
X136942159Y-91718045D01*
X136974718Y-91725676D01*
X137004468Y-91724996D01*
X137035614Y-91718723D01*
X137090429Y-91710741D01*
X137142866Y-91715805D01*
X137200788Y-91735383D01*
X137248900Y-91758558D01*
X137291973Y-91779113D01*
X137323328Y-91787822D01*
X137352482Y-91786774D01*
X137365474Y-91784133D01*
X137427565Y-91777234D01*
X137487075Y-91787669D01*
X137548043Y-91817030D01*
X137614512Y-91866910D01*
X137644977Y-91894302D01*
X137681653Y-91926251D01*
X137710920Y-91943732D01*
X137742190Y-91951314D01*
X137765940Y-91953016D01*
X137825939Y-91961568D01*
X137880997Y-91984041D01*
X137936426Y-92023414D01*
X137997539Y-92082665D01*
X137997997Y-92083155D01*
X138104501Y-92211425D01*
X138201359Y-92356300D01*
X138283845Y-92509852D01*
X138347233Y-92664150D01*
X138351089Y-92675543D01*
X138375573Y-92749036D01*
X138410445Y-92650143D01*
X138481877Y-92479312D01*
X138571119Y-92319201D01*
X138675326Y-92174465D01*
X138755654Y-92084793D01*
X138808942Y-92032754D01*
X138851931Y-91996928D01*
X138890422Y-91973881D01*
X138930215Y-91960182D01*
X138977112Y-91952398D01*
X138979957Y-91952080D01*
X139031474Y-91941568D01*
X139071679Y-91919682D01*
X139090400Y-91903888D01*
X139162932Y-91843235D01*
X139227795Y-91803337D01*
X139289159Y-91782477D01*
X139351200Y-91778941D01*
X139384055Y-91783184D01*
X139419769Y-91787139D01*
X139450523Y-91782075D01*
X139487400Y-91765584D01*
X139502402Y-91757445D01*
X139568190Y-91726091D01*
X139625302Y-91711923D01*
X139682225Y-91713406D01*
X139712643Y-91719386D01*
X139748447Y-91726543D01*
X139777636Y-91726867D01*
X139810021Y-91719142D01*
X139855412Y-91702152D01*
X139857123Y-91701468D01*
X139937031Y-91677207D01*
X140013586Y-91668283D01*
X140081026Y-91674871D01*
G36*
X138557048Y-52123090D02*
X139048862Y-52123993D01*
X139457408Y-52126830D01*
X139791850Y-52132688D01*
X140061354Y-52142658D01*
X140275086Y-52157827D01*
X140442210Y-52179285D01*
X140571893Y-52208120D01*
X140673299Y-52245422D01*
X140755595Y-52292279D01*
X140827945Y-52349780D01*
X140899515Y-52419015D01*
X140956449Y-52477501D01*
X141031245Y-52556227D01*
X141093461Y-52631422D01*
X141144185Y-52712793D01*
X141184507Y-52810050D01*
X141215514Y-52932900D01*
X141238296Y-53091052D01*
X141253941Y-53294214D01*
X141263537Y-53552094D01*
X141268173Y-53874401D01*
X141268938Y-54270843D01*
X141266920Y-54751128D01*
X141263917Y-55219600D01*
X141249400Y-57378600D01*
X141105637Y-57590437D01*
X140968914Y-57754680D01*
X140801759Y-57907961D01*
X140750037Y-57946037D01*
X140538200Y-58089800D01*
X138044721Y-58103868D01*
X135551242Y-58117937D01*
X135276905Y-57974622D01*
X135052523Y-57827664D01*
X134886180Y-57640161D01*
X134849384Y-57583617D01*
X134696200Y-57335927D01*
X134687420Y-56146041D01*
X135844631Y-56146041D01*
X135866039Y-56187975D01*
X135940800Y-56235600D01*
X135992578Y-56275863D01*
X136023264Y-56343752D01*
X136038106Y-56462792D01*
X136042352Y-56656505D01*
X136042400Y-56690958D01*
X136045445Y-56905557D01*
X136064642Y-57056942D01*
X136115080Y-57156141D01*
X136211852Y-57214181D01*
X136370048Y-57242090D01*
X136604759Y-57250896D01*
X136809622Y-57251600D01*
X137075067Y-57249462D01*
X137255402Y-57241705D01*
X137367056Y-57226307D01*
X137426455Y-57201250D01*
X137447270Y-57173209D01*
X137457312Y-57088212D01*
X137445945Y-57063411D01*
X137385321Y-57051661D01*
X137245198Y-57043968D01*
X137047623Y-57041098D01*
X136855469Y-57042934D01*
X136296400Y-57053862D01*
X136296400Y-56747412D01*
X136765719Y-56732806D01*
X136990721Y-56723195D01*
X137133160Y-56708629D01*
X137212071Y-56685060D01*
X137246487Y-56648434D01*
X137252044Y-56629300D01*
X137250249Y-56587999D01*
X137213923Y-56561822D01*
X137125336Y-56547411D01*
X136966760Y-56541407D01*
X136782724Y-56540400D01*
X136558121Y-56539535D01*
X136416160Y-56533640D01*
X136337882Y-56517764D01*
X136304330Y-56486957D01*
X136296545Y-56436267D01*
X136296400Y-56413400D01*
X136296711Y-56407591D01*
X138395929Y-56407591D01*
X138473688Y-56494056D01*
X138569009Y-56547481D01*
X138699073Y-56567054D01*
X138875471Y-56560149D01*
X139033442Y-56549959D01*
X139104378Y-56554671D01*
X139102142Y-56577278D01*
X139069457Y-56602020D01*
X138887079Y-56763191D01*
X138791629Y-56935523D01*
X138786307Y-57106087D01*
X138874312Y-57261955D01*
X138899900Y-57287078D01*
X139081888Y-57413125D01*
X139266513Y-57448802D01*
X139481177Y-57398466D01*
X139515080Y-57384848D01*
X139679378Y-57271993D01*
X139763928Y-57119409D01*
X139768939Y-56950053D01*
X139694616Y-56786885D01*
X139541167Y-56652861D01*
X139508311Y-56635168D01*
X139412575Y-56574422D01*
X139407371Y-56531126D01*
X139495667Y-56503814D01*
X139680433Y-56491017D01*
X139802756Y-56489600D01*
X140012120Y-56475698D01*
X140124337Y-56434115D01*
X140139130Y-56365029D01*
X140092251Y-56301280D01*
X140045854Y-56267901D01*
X139976595Y-56250901D01*
X139864236Y-56249843D01*
X139688534Y-56264287D01*
X139477971Y-56287988D01*
X139223186Y-56312349D01*
X138976078Y-56325943D01*
X138772445Y-56327253D01*
X138686745Y-56321594D01*
X138504051Y-56314838D01*
X138405497Y-56344811D01*
X138395929Y-56407591D01*
X136296711Y-56407591D01*
X136299491Y-56355766D01*
X136321132Y-56318895D01*
X136379872Y-56298149D01*
X136494261Y-56288891D01*
X136682848Y-56286484D01*
X136804400Y-56286400D01*
X137035609Y-56285005D01*
X137183621Y-56278370D01*
X137266823Y-56262816D01*
X137303606Y-56234666D01*
X137312358Y-56190241D01*
X137312400Y-56184800D01*
X137307270Y-56145187D01*
X137281649Y-56117470D01*
X137220191Y-56099534D01*
X137107549Y-56089261D01*
X136928376Y-56084534D01*
X136667325Y-56083236D01*
X136575800Y-56083200D01*
X136257316Y-56086337D01*
X136033683Y-56096802D01*
X135898317Y-56116177D01*
X135844631Y-56146041D01*
X134687420Y-56146041D01*
X134686016Y-55955792D01*
X138886370Y-55955792D01*
X138927087Y-56039487D01*
X139000103Y-56105719D01*
X139139385Y-56161884D01*
X139315520Y-56182699D01*
X139477851Y-56165114D01*
X139542302Y-56138349D01*
X139601031Y-56067275D01*
X139573699Y-55999038D01*
X139475141Y-55948417D01*
X139333294Y-55930106D01*
X139167126Y-55922494D01*
X139026449Y-55904469D01*
X139001500Y-55898781D01*
X138911230Y-55900672D01*
X138886370Y-55955792D01*
X134686016Y-55955792D01*
X134680613Y-55223663D01*
X134677375Y-54609409D01*
X134677499Y-54093880D01*
X134681036Y-53674257D01*
X134688038Y-53347720D01*
X134698553Y-53111447D01*
X134700429Y-53091614D01*
X135792180Y-53091614D01*
X135832038Y-53151819D01*
X135884192Y-53184492D01*
X135938806Y-53235006D01*
X135973060Y-53330446D01*
X135993712Y-53494307D01*
X135999801Y-53586448D01*
X136013330Y-53779604D01*
X136038767Y-53917255D01*
X136091360Y-54008802D01*
X136186360Y-54063649D01*
X136339016Y-54091196D01*
X136564580Y-54100846D01*
X136836020Y-54102000D01*
X137110431Y-54101087D01*
X137299163Y-54096827D01*
X137418129Y-54086933D01*
X137483243Y-54069122D01*
X137510421Y-54041109D01*
X137515600Y-54004436D01*
X137471686Y-53921324D01*
X137360034Y-53873106D01*
X137210771Y-53867397D01*
X137089318Y-53896702D01*
X136964120Y-53924956D01*
X136781714Y-53944149D01*
X136623292Y-53949600D01*
X136296400Y-53949600D01*
X136296400Y-53590660D01*
X136288494Y-53343336D01*
X136258779Y-53180497D01*
X136198255Y-53085838D01*
X136196469Y-53085076D01*
X138379200Y-53085076D01*
X138395215Y-53115820D01*
X138468438Y-53184769D01*
X138476445Y-53191490D01*
X138539007Y-53236381D01*
X138610655Y-53263648D01*
X138713492Y-53275501D01*
X138869620Y-53274149D01*
X139101142Y-53261801D01*
X139149545Y-53258770D01*
X139700000Y-53223939D01*
X139700000Y-53739169D01*
X139702380Y-53977357D01*
X139711208Y-54130844D01*
X139729013Y-54216453D01*
X139758323Y-54251007D01*
X139777457Y-54254400D01*
X139850756Y-54211862D01*
X139904457Y-54124092D01*
X139926671Y-54015641D01*
X139943732Y-53837119D01*
X139953034Y-53620024D01*
X139954000Y-53525529D01*
X139954000Y-53057272D01*
X139179300Y-53069022D01*
X138909286Y-53073362D01*
X138676842Y-53077560D01*
X138500148Y-53081252D01*
X138397389Y-53084073D01*
X138379200Y-53085076D01*
X136196469Y-53085076D01*
X136097921Y-53043053D01*
X135989812Y-53035200D01*
X135846393Y-53050449D01*
X135792180Y-53091614D01*
X134700429Y-53091614D01*
X134712632Y-52962619D01*
X134721699Y-52917741D01*
X134821899Y-52708887D01*
X134987568Y-52497550D01*
X135188941Y-52316650D01*
X135356600Y-52215575D01*
X135409965Y-52194054D01*
X135473320Y-52176133D01*
X135555888Y-52161486D01*
X135666893Y-52149788D01*
X135815560Y-52140711D01*
X136011114Y-52133929D01*
X136262779Y-52129117D01*
X136579780Y-52125947D01*
X136971340Y-52124094D01*
X137446685Y-52123231D01*
X137972800Y-52123031D01*
X138557048Y-52123090D01*
X138557048Y-52123090D01*
G37*
X138557048Y-52123090D02*
X139048862Y-52123993D01*
X139457408Y-52126830D01*
X139791850Y-52132688D01*
X140061354Y-52142658D01*
X140275086Y-52157827D01*
X140442210Y-52179285D01*
X140571893Y-52208120D01*
X140673299Y-52245422D01*
X140755595Y-52292279D01*
X140827945Y-52349780D01*
X140899515Y-52419015D01*
X140956449Y-52477501D01*
X141031245Y-52556227D01*
X141093461Y-52631422D01*
X141144185Y-52712793D01*
X141184507Y-52810050D01*
X141215514Y-52932900D01*
X141238296Y-53091052D01*
X141253941Y-53294214D01*
X141263537Y-53552094D01*
X141268173Y-53874401D01*
X141268938Y-54270843D01*
X141266920Y-54751128D01*
X141263917Y-55219600D01*
X141249400Y-57378600D01*
X141105637Y-57590437D01*
X140968914Y-57754680D01*
X140801759Y-57907961D01*
X140750037Y-57946037D01*
X140538200Y-58089800D01*
X138044721Y-58103868D01*
X135551242Y-58117937D01*
X135276905Y-57974622D01*
X135052523Y-57827664D01*
X134886180Y-57640161D01*
X134849384Y-57583617D01*
X134696200Y-57335927D01*
X134687420Y-56146041D01*
X135844631Y-56146041D01*
X135866039Y-56187975D01*
X135940800Y-56235600D01*
X135992578Y-56275863D01*
X136023264Y-56343752D01*
X136038106Y-56462792D01*
X136042352Y-56656505D01*
X136042400Y-56690958D01*
X136045445Y-56905557D01*
X136064642Y-57056942D01*
X136115080Y-57156141D01*
X136211852Y-57214181D01*
X136370048Y-57242090D01*
X136604759Y-57250896D01*
X136809622Y-57251600D01*
X137075067Y-57249462D01*
X137255402Y-57241705D01*
X137367056Y-57226307D01*
X137426455Y-57201250D01*
X137447270Y-57173209D01*
X137457312Y-57088212D01*
X137445945Y-57063411D01*
X137385321Y-57051661D01*
X137245198Y-57043968D01*
X137047623Y-57041098D01*
X136855469Y-57042934D01*
X136296400Y-57053862D01*
X136296400Y-56747412D01*
X136765719Y-56732806D01*
X136990721Y-56723195D01*
X137133160Y-56708629D01*
X137212071Y-56685060D01*
X137246487Y-56648434D01*
X137252044Y-56629300D01*
X137250249Y-56587999D01*
X137213923Y-56561822D01*
X137125336Y-56547411D01*
X136966760Y-56541407D01*
X136782724Y-56540400D01*
X136558121Y-56539535D01*
X136416160Y-56533640D01*
X136337882Y-56517764D01*
X136304330Y-56486957D01*
X136296545Y-56436267D01*
X136296400Y-56413400D01*
X136296711Y-56407591D01*
X138395929Y-56407591D01*
X138473688Y-56494056D01*
X138569009Y-56547481D01*
X138699073Y-56567054D01*
X138875471Y-56560149D01*
X139033442Y-56549959D01*
X139104378Y-56554671D01*
X139102142Y-56577278D01*
X139069457Y-56602020D01*
X138887079Y-56763191D01*
X138791629Y-56935523D01*
X138786307Y-57106087D01*
X138874312Y-57261955D01*
X138899900Y-57287078D01*
X139081888Y-57413125D01*
X139266513Y-57448802D01*
X139481177Y-57398466D01*
X139515080Y-57384848D01*
X139679378Y-57271993D01*
X139763928Y-57119409D01*
X139768939Y-56950053D01*
X139694616Y-56786885D01*
X139541167Y-56652861D01*
X139508311Y-56635168D01*
X139412575Y-56574422D01*
X139407371Y-56531126D01*
X139495667Y-56503814D01*
X139680433Y-56491017D01*
X139802756Y-56489600D01*
X140012120Y-56475698D01*
X140124337Y-56434115D01*
X140139130Y-56365029D01*
X140092251Y-56301280D01*
X140045854Y-56267901D01*
X139976595Y-56250901D01*
X139864236Y-56249843D01*
X139688534Y-56264287D01*
X139477971Y-56287988D01*
X139223186Y-56312349D01*
X138976078Y-56325943D01*
X138772445Y-56327253D01*
X138686745Y-56321594D01*
X138504051Y-56314838D01*
X138405497Y-56344811D01*
X138395929Y-56407591D01*
X136296711Y-56407591D01*
X136299491Y-56355766D01*
X136321132Y-56318895D01*
X136379872Y-56298149D01*
X136494261Y-56288891D01*
X136682848Y-56286484D01*
X136804400Y-56286400D01*
X137035609Y-56285005D01*
X137183621Y-56278370D01*
X137266823Y-56262816D01*
X137303606Y-56234666D01*
X137312358Y-56190241D01*
X137312400Y-56184800D01*
X137307270Y-56145187D01*
X137281649Y-56117470D01*
X137220191Y-56099534D01*
X137107549Y-56089261D01*
X136928376Y-56084534D01*
X136667325Y-56083236D01*
X136575800Y-56083200D01*
X136257316Y-56086337D01*
X136033683Y-56096802D01*
X135898317Y-56116177D01*
X135844631Y-56146041D01*
X134687420Y-56146041D01*
X134686016Y-55955792D01*
X138886370Y-55955792D01*
X138927087Y-56039487D01*
X139000103Y-56105719D01*
X139139385Y-56161884D01*
X139315520Y-56182699D01*
X139477851Y-56165114D01*
X139542302Y-56138349D01*
X139601031Y-56067275D01*
X139573699Y-55999038D01*
X139475141Y-55948417D01*
X139333294Y-55930106D01*
X139167126Y-55922494D01*
X139026449Y-55904469D01*
X139001500Y-55898781D01*
X138911230Y-55900672D01*
X138886370Y-55955792D01*
X134686016Y-55955792D01*
X134680613Y-55223663D01*
X134677375Y-54609409D01*
X134677499Y-54093880D01*
X134681036Y-53674257D01*
X134688038Y-53347720D01*
X134698553Y-53111447D01*
X134700429Y-53091614D01*
X135792180Y-53091614D01*
X135832038Y-53151819D01*
X135884192Y-53184492D01*
X135938806Y-53235006D01*
X135973060Y-53330446D01*
X135993712Y-53494307D01*
X135999801Y-53586448D01*
X136013330Y-53779604D01*
X136038767Y-53917255D01*
X136091360Y-54008802D01*
X136186360Y-54063649D01*
X136339016Y-54091196D01*
X136564580Y-54100846D01*
X136836020Y-54102000D01*
X137110431Y-54101087D01*
X137299163Y-54096827D01*
X137418129Y-54086933D01*
X137483243Y-54069122D01*
X137510421Y-54041109D01*
X137515600Y-54004436D01*
X137471686Y-53921324D01*
X137360034Y-53873106D01*
X137210771Y-53867397D01*
X137089318Y-53896702D01*
X136964120Y-53924956D01*
X136781714Y-53944149D01*
X136623292Y-53949600D01*
X136296400Y-53949600D01*
X136296400Y-53590660D01*
X136288494Y-53343336D01*
X136258779Y-53180497D01*
X136198255Y-53085838D01*
X136196469Y-53085076D01*
X138379200Y-53085076D01*
X138395215Y-53115820D01*
X138468438Y-53184769D01*
X138476445Y-53191490D01*
X138539007Y-53236381D01*
X138610655Y-53263648D01*
X138713492Y-53275501D01*
X138869620Y-53274149D01*
X139101142Y-53261801D01*
X139149545Y-53258770D01*
X139700000Y-53223939D01*
X139700000Y-53739169D01*
X139702380Y-53977357D01*
X139711208Y-54130844D01*
X139729013Y-54216453D01*
X139758323Y-54251007D01*
X139777457Y-54254400D01*
X139850756Y-54211862D01*
X139904457Y-54124092D01*
X139926671Y-54015641D01*
X139943732Y-53837119D01*
X139953034Y-53620024D01*
X139954000Y-53525529D01*
X139954000Y-53057272D01*
X139179300Y-53069022D01*
X138909286Y-53073362D01*
X138676842Y-53077560D01*
X138500148Y-53081252D01*
X138397389Y-53084073D01*
X138379200Y-53085076D01*
X136196469Y-53085076D01*
X136097921Y-53043053D01*
X135989812Y-53035200D01*
X135846393Y-53050449D01*
X135792180Y-53091614D01*
X134700429Y-53091614D01*
X134712632Y-52962619D01*
X134721699Y-52917741D01*
X134821899Y-52708887D01*
X134987568Y-52497550D01*
X135188941Y-52316650D01*
X135356600Y-52215575D01*
X135409965Y-52194054D01*
X135473320Y-52176133D01*
X135555888Y-52161486D01*
X135666893Y-52149788D01*
X135815560Y-52140711D01*
X136011114Y-52133929D01*
X136262779Y-52129117D01*
X136579780Y-52125947D01*
X136971340Y-52124094D01*
X137446685Y-52123231D01*
X137972800Y-52123031D01*
X138557048Y-52123090D01*
G36*
X139355491Y-56777115D02*
X139454732Y-56854513D01*
X139530098Y-56941076D01*
X139547600Y-56986296D01*
X139521148Y-57053477D01*
X139468519Y-57138696D01*
X139355956Y-57228511D01*
X139218954Y-57247442D01*
X139100560Y-57190640D01*
X139045598Y-57075245D01*
X139057858Y-56939285D01*
X139123595Y-56818638D01*
X139229063Y-56749180D01*
X139271828Y-56743600D01*
X139355491Y-56777115D01*
X139355491Y-56777115D01*
G37*
X139355491Y-56777115D02*
X139454732Y-56854513D01*
X139530098Y-56941076D01*
X139547600Y-56986296D01*
X139521148Y-57053477D01*
X139468519Y-57138696D01*
X139355956Y-57228511D01*
X139218954Y-57247442D01*
X139100560Y-57190640D01*
X139045598Y-57075245D01*
X139057858Y-56939285D01*
X139123595Y-56818638D01*
X139229063Y-56749180D01*
X139271828Y-56743600D01*
X139355491Y-56777115D01*
D13*
X196921381Y-88980833D02*
X197635667Y-88980833D01*
X197778524Y-89028453D01*
X197873762Y-89123691D01*
X197921381Y-89266548D01*
X197921381Y-89361786D01*
X197921381Y-87980833D02*
X197921381Y-88552262D01*
X197921381Y-88266548D02*
X196921381Y-88266548D01*
X197064238Y-88361786D01*
X197159476Y-88457024D01*
X197207095Y-88552262D01*
X118895334Y-101155643D02*
X118847715Y-101203262D01*
X118704858Y-101250881D01*
X118609620Y-101250881D01*
X118466762Y-101203262D01*
X118371524Y-101108024D01*
X118323905Y-101012786D01*
X118276286Y-100822310D01*
X118276286Y-100679452D01*
X118323905Y-100488976D01*
X118371524Y-100393738D01*
X118466762Y-100298500D01*
X118609620Y-100250881D01*
X118704858Y-100250881D01*
X118847715Y-100298500D01*
X118895334Y-100346119D01*
X119847715Y-101250881D02*
X119276286Y-101250881D01*
X119562000Y-101250881D02*
X119562000Y-100250881D01*
X119466762Y-100393738D01*
X119371524Y-100488976D01*
X119276286Y-100536595D01*
X115901048Y-99279929D02*
X116662953Y-99279929D01*
X116282001Y-99660881D02*
X116282001Y-98898976D01*
X117117905Y-51061881D02*
X117117905Y-50061881D01*
X117356000Y-50061881D01*
X117498858Y-50109500D01*
X117594096Y-50204738D01*
X117641715Y-50299976D01*
X117689334Y-50490452D01*
X117689334Y-50633310D01*
X117641715Y-50823786D01*
X117594096Y-50919024D01*
X117498858Y-51014262D01*
X117356000Y-51061881D01*
X117117905Y-51061881D01*
X118641715Y-51061881D02*
X118070286Y-51061881D01*
X118356000Y-51061881D02*
X118356000Y-50061881D01*
X118260762Y-50204738D01*
X118165524Y-50299976D01*
X118070286Y-50347595D01*
X123346381Y-77445505D02*
X124155905Y-77445505D01*
X124251143Y-77397886D01*
X124298762Y-77350267D01*
X124346381Y-77255029D01*
X124346381Y-77064552D01*
X124298762Y-76969314D01*
X124251143Y-76921695D01*
X124155905Y-76874076D01*
X123346381Y-76874076D01*
X124346381Y-75874076D02*
X124346381Y-76445505D01*
X124346381Y-76159791D02*
X123346381Y-76159791D01*
X123489238Y-76255029D01*
X123584476Y-76350267D01*
X123632095Y-76445505D01*
X107547381Y-77445505D02*
X108356905Y-77445505D01*
X108452143Y-77397886D01*
X108499762Y-77350267D01*
X108547381Y-77255029D01*
X108547381Y-77064552D01*
X108499762Y-76969314D01*
X108452143Y-76921695D01*
X108356905Y-76874076D01*
X107547381Y-76874076D01*
X107642619Y-76445505D02*
X107595000Y-76397886D01*
X107547381Y-76302648D01*
X107547381Y-76064552D01*
X107595000Y-75969314D01*
X107642619Y-75921695D01*
X107737857Y-75874076D01*
X107833095Y-75874076D01*
X107975952Y-75921695D01*
X108547381Y-76493124D01*
X108547381Y-75874076D01*
X107997667Y-50125381D02*
X107997667Y-50839667D01*
X107950047Y-50982524D01*
X107854809Y-51077762D01*
X107711952Y-51125381D01*
X107616714Y-51125381D01*
X108426238Y-50220619D02*
X108473857Y-50173000D01*
X108569095Y-50125381D01*
X108807191Y-50125381D01*
X108902429Y-50173000D01*
X108950048Y-50220619D01*
X108997667Y-50315857D01*
X108997667Y-50411095D01*
X108950048Y-50553952D01*
X108378619Y-51125381D01*
X108997667Y-51125381D01*
M02*
