G04 #@! TF.FileFunction,Soldermask,Top*
%FSLAX46Y46*%
G04 Gerber Fmt 4.6, Leading zero omitted, Abs format (unit mm)*
G04 Created by KiCad (PCBNEW 4.0.7) date 01/21/18 21:57:34*
%MOMM*%
%LPD*%
G01*
G04 APERTURE LIST*
%ADD10C,0.100000*%
%ADD11R,1.924000X1.924000*%
%ADD12C,1.924000*%
%ADD13C,6.400000*%
%ADD14C,2.400000*%
%ADD15R,2.100000X2.100000*%
%ADD16O,2.100000X2.100000*%
G04 APERTURE END LIST*
D10*
D11*
X133350000Y-111760000D03*
D12*
X133350000Y-116840000D03*
X135890000Y-111760000D03*
X135890000Y-116840000D03*
X138430000Y-111760000D03*
X138430000Y-116840000D03*
X140970000Y-111760000D03*
X140970000Y-116840000D03*
X143510000Y-111760000D03*
X143510000Y-116840000D03*
X146050000Y-111760000D03*
X146050000Y-116840000D03*
X148590000Y-111760000D03*
X148590000Y-116840000D03*
X151130000Y-111760000D03*
X151130000Y-116840000D03*
X153670000Y-111760000D03*
X153670000Y-116840000D03*
X156210000Y-111760000D03*
X156210000Y-116840000D03*
X158750000Y-111760000D03*
X158750000Y-116840000D03*
X161290000Y-111760000D03*
X161290000Y-116840000D03*
X163830000Y-111760000D03*
X163830000Y-116840000D03*
X166370000Y-111760000D03*
X166370000Y-116840000D03*
X168910000Y-111760000D03*
X168910000Y-116840000D03*
X171450000Y-111760000D03*
X171450000Y-116840000D03*
X173990000Y-111760000D03*
X173990000Y-116840000D03*
D13*
X124404000Y-114915000D03*
D14*
X124404000Y-91915000D03*
X182404000Y-91915000D03*
D13*
X182404000Y-114915000D03*
X182404000Y-114915000D03*
D14*
X182404000Y-91915000D03*
X124404000Y-91915000D03*
D13*
X124404000Y-114915000D03*
D15*
X129261000Y-92938600D03*
D16*
X129261000Y-90398600D03*
X131801000Y-92938600D03*
X131801000Y-90398600D03*
X134341000Y-92938600D03*
X134341000Y-90398600D03*
X136881000Y-92938600D03*
X136881000Y-90398600D03*
X139421000Y-92938600D03*
X139421000Y-90398600D03*
X141961000Y-92938600D03*
X141961000Y-90398600D03*
X144501000Y-92938600D03*
X144501000Y-90398600D03*
X147041000Y-92938600D03*
X147041000Y-90398600D03*
X149581000Y-92938600D03*
X149581000Y-90398600D03*
X152121000Y-92938600D03*
X152121000Y-90398600D03*
X154661000Y-92938600D03*
X154661000Y-90398600D03*
X157201000Y-92938600D03*
X157201000Y-90398600D03*
X159741000Y-92938600D03*
X159741000Y-90398600D03*
X162281000Y-92938600D03*
X162281000Y-90398600D03*
X164821000Y-92938600D03*
X164821000Y-90398600D03*
X167361000Y-92938600D03*
X167361000Y-90398600D03*
X169901000Y-92938600D03*
X169901000Y-90398600D03*
X172441000Y-92938600D03*
X172441000Y-90398600D03*
X174981000Y-92938600D03*
X174981000Y-90398600D03*
X177521000Y-92938600D03*
X177521000Y-90398600D03*
M02*
