M48
;DRILL file {KiCad 4.0.7} date 08/27/18 14:46:59
;FORMAT={-:-/ absolute / inch / decimal}
FMAT,2
INCH,TZ
T1C0.016
T2C0.031
T3C0.035
T4C0.087
%
G90
G05
M72
T1
X5.4779Y-3.0947
X5.4796Y-3.1357
X5.5035Y-3.0604
X5.5048Y-3.1603
X5.5322Y-2.9949
X5.7811Y-2.8287
X5.8271Y-2.9694
X5.8424Y-2.8544
X5.9604Y-2.6573
X6.11Y-3.0405
X6.1804Y-2.6863
X6.2117Y-2.7583
X6.2297Y-2.6822
X6.327Y-2.6537
X6.3883Y-2.919
X6.4176Y-2.8544
X6.4444Y-2.8743
X6.5096Y-3.2854
X6.6044Y-4.9356
X6.6174Y-4.8944
X6.6314Y-2.9731
X6.714Y-2.9361
X6.8208Y-3.584
X6.9354Y-3.4113
X6.939Y-2.4591
X6.9528Y-2.6245
X6.9997Y-3.4752
X7.01Y-2.5714
X7.0359Y-3.3665
X7.093Y-2.3975
X7.1476Y-2.3446
X7.1848Y-2.7896
X7.2007Y-2.5452
X7.21Y-2.6698
X7.2843Y-2.9343
X7.2991Y-2.9703
X7.2993Y-3.2079
X7.3111Y-2.7978
X7.3362Y-3.0332
X7.3908Y-3.2553
X7.3943Y-2.4837
X7.4533Y-2.5048
X7.473Y-2.4628
X7.5178Y-3.1633
X7.5984Y-3.0394
X7.6931Y-2.9889
X7.7638Y-3.0279
T2
X5.3642Y-3.54
X5.3642Y-3.74
X5.3642Y-4.45
X5.3642Y-4.65
X5.4642Y-3.54
X5.4642Y-3.74
X5.4642Y-4.45
X5.4642Y-4.65
X5.5642Y-3.54
X5.5642Y-3.74
X5.5642Y-4.45
X5.5642Y-4.65
X5.6642Y-3.54
X5.6642Y-3.74
X5.6642Y-4.45
X5.6642Y-4.65
X5.7642Y-3.54
X5.7642Y-3.74
X5.7642Y-4.45
X5.7642Y-4.65
X5.8642Y-3.54
X5.8642Y-3.74
X5.8642Y-4.45
X5.8642Y-4.65
X5.9642Y-3.54
X5.9642Y-3.74
X5.9642Y-4.45
X5.9642Y-4.65
X6.0642Y-3.54
X6.0642Y-3.74
X6.0642Y-4.45
X6.0642Y-4.65
X6.1642Y-3.54
X6.1642Y-3.74
X6.1642Y-4.45
X6.1642Y-4.65
X6.1934Y-2.194
X6.1934Y-2.294
X6.2642Y-3.54
X6.2642Y-3.74
X6.2642Y-4.45
X6.2642Y-4.65
X6.2934Y-2.194
X6.2934Y-2.294
X6.3642Y-3.54
X6.3642Y-3.74
X6.3642Y-4.45
X6.3642Y-4.65
X6.3934Y-2.194
X6.3934Y-2.294
X6.4642Y-3.54
X6.4642Y-3.74
X6.4642Y-4.45
X6.4642Y-4.65
X6.4934Y-2.194
X6.4934Y-2.294
X6.5642Y-3.54
X6.5642Y-3.74
X6.5642Y-4.45
X6.5642Y-4.65
X6.5934Y-2.194
X6.5934Y-2.294
X6.6642Y-3.54
X6.6642Y-3.74
X6.6642Y-4.45
X6.6642Y-4.65
X6.6934Y-2.194
X6.6934Y-2.294
X6.7642Y-3.54
X6.7642Y-3.74
X6.7642Y-4.45
X6.7642Y-4.65
X6.7934Y-2.194
X6.7934Y-2.294
X6.8642Y-3.54
X6.8642Y-3.74
X6.8642Y-4.45
X6.8642Y-4.65
X6.8934Y-2.194
X6.8934Y-2.294
X6.9642Y-3.54
X6.9642Y-3.74
X6.9642Y-4.45
X6.9642Y-4.65
X6.9934Y-2.194
X6.9934Y-2.294
X7.0642Y-3.54
X7.0642Y-3.74
X7.0642Y-4.45
X7.0642Y-4.65
X7.0934Y-2.194
X7.0934Y-2.294
X7.1642Y-3.54
X7.1642Y-3.74
X7.1642Y-4.45
X7.1642Y-4.65
X7.1934Y-2.194
X7.1934Y-2.294
X7.2642Y-3.54
X7.2642Y-3.74
X7.2642Y-4.45
X7.2642Y-4.65
X7.2934Y-2.194
X7.2934Y-2.294
X7.3642Y-3.54
X7.3642Y-3.74
X7.3642Y-4.45
X7.3642Y-4.65
X7.3934Y-2.194
X7.3934Y-2.294
X7.4642Y-3.54
X7.4642Y-3.74
X7.4642Y-4.45
X7.4642Y-4.65
X7.4934Y-2.194
X7.4934Y-2.294
X7.5642Y-3.54
X7.5642Y-3.74
X7.5642Y-4.45
X7.5642Y-4.65
X7.5934Y-2.194
X7.5934Y-2.294
X7.6642Y-3.54
X7.6642Y-3.74
X7.6642Y-4.45
X7.6642Y-4.65
X7.6934Y-2.194
X7.6934Y-2.294
X7.7642Y-3.54
X7.7642Y-3.74
X7.7642Y-4.45
X7.7642Y-4.65
X7.7934Y-2.194
X7.7934Y-2.294
X7.8934Y-2.194
X7.8934Y-2.294
X7.9934Y-2.194
X7.9934Y-2.294
X8.0934Y-2.194
X8.0934Y-2.294
T3
X4.95Y-5.15
X5.05Y-5.15
X5.2Y-5.15
X5.3Y-5.15
X5.45Y-5.15
X5.55Y-5.15
X5.7Y-5.15
X5.8Y-5.15
X7.2Y-5.15
X7.3Y-5.15
X7.45Y-5.15
X7.55Y-5.14
X7.7Y-5.15
X7.8Y-5.14
X7.95Y-5.15
X8.05Y-5.14
T4
X4.6947Y-2.65
X4.7047Y-5.1575
X8.2795Y-2.65
X8.2795Y-5.1575
T0
M30
