G04 #@! TF.FileFunction,Copper,L1,Top,Signal*
%FSLAX46Y46*%
G04 Gerber Fmt 4.6, Leading zero omitted, Abs format (unit mm)*
G04 Created by KiCad (PCBNEW 4.0.7) date 08/17/18 03:28:31*
%MOMM*%
%LPD*%
G01*
G04 APERTURE LIST*
%ADD10C,0.100000*%
%ADD11C,4.400000*%
%ADD12C,1.524000*%
%ADD13R,1.700000X1.700000*%
%ADD14O,1.700000X1.700000*%
%ADD15R,1.800000X1.800000*%
%ADD16C,1.800000*%
%ADD17C,0.600000*%
%ADD18C,0.250000*%
%ADD19C,0.400000*%
%ADD20C,0.254000*%
G04 APERTURE END LIST*
D10*
D11*
X210693000Y-67564000D03*
X132588000Y-67564000D03*
X132588000Y-128397000D03*
D12*
X201676000Y-110561000D03*
X201676000Y-115641000D03*
X199136000Y-110561000D03*
X199136000Y-115641000D03*
X196596000Y-110561000D03*
X196596000Y-115641000D03*
X194056000Y-110561000D03*
X194056000Y-115641000D03*
X191516000Y-110561000D03*
X191516000Y-115641000D03*
X188976000Y-110561000D03*
X188976000Y-115641000D03*
X186436000Y-110561000D03*
X186436000Y-115641000D03*
X183896000Y-110561000D03*
X183896000Y-115641000D03*
X181356000Y-110561000D03*
X181356000Y-115641000D03*
X178816000Y-110561000D03*
X178816000Y-115641000D03*
X176276000Y-110561000D03*
X176276000Y-115641000D03*
X173736000Y-110561000D03*
X173736000Y-115641000D03*
X171196000Y-110561000D03*
X171196000Y-115641000D03*
X168656000Y-110561000D03*
X168656000Y-115641000D03*
X166116000Y-110561000D03*
X166116000Y-115641000D03*
X163576000Y-110561000D03*
X163576000Y-115641000D03*
X161036000Y-110561000D03*
X161036000Y-115641000D03*
X158496000Y-110561000D03*
X158496000Y-115641000D03*
X155956000Y-110561000D03*
X155956000Y-115641000D03*
X153416000Y-110561000D03*
X153416000Y-115641000D03*
X150876000Y-110561000D03*
X150876000Y-115641000D03*
X148336000Y-110561000D03*
X148336000Y-115641000D03*
X145796000Y-110561000D03*
X145796000Y-115641000D03*
X143256000Y-110561000D03*
X143256000Y-115641000D03*
X140716000Y-110561000D03*
X140716000Y-115641000D03*
X201676000Y-89916000D03*
X201676000Y-94996000D03*
X199136000Y-89916000D03*
X199136000Y-94996000D03*
X196596000Y-89916000D03*
X196596000Y-94996000D03*
X194056000Y-89916000D03*
X194056000Y-94996000D03*
X191516000Y-89916000D03*
X191516000Y-94996000D03*
X188976000Y-89916000D03*
X188976000Y-94996000D03*
X186436000Y-89916000D03*
X186436000Y-94996000D03*
X183896000Y-89916000D03*
X183896000Y-94996000D03*
X181356000Y-89916000D03*
X181356000Y-94996000D03*
X178816000Y-89916000D03*
X178816000Y-94996000D03*
X176276000Y-89916000D03*
X176276000Y-94996000D03*
X173736000Y-89916000D03*
X173736000Y-94996000D03*
X171196000Y-89916000D03*
X171196000Y-94996000D03*
X168656000Y-89916000D03*
X168656000Y-94996000D03*
X166116000Y-89916000D03*
X166116000Y-94996000D03*
X163576000Y-89916000D03*
X163576000Y-94996000D03*
X161036000Y-89916000D03*
X161036000Y-94996000D03*
X158496000Y-89916000D03*
X158496000Y-94996000D03*
X155956000Y-89916000D03*
X155956000Y-94996000D03*
X153416000Y-89916000D03*
X153416000Y-94996000D03*
X150876000Y-89916000D03*
X150876000Y-94996000D03*
X148336000Y-89916000D03*
X148336000Y-94996000D03*
X145796000Y-89916000D03*
X145796000Y-94996000D03*
X143256000Y-89916000D03*
X143256000Y-94996000D03*
X140716000Y-89916000D03*
X140716000Y-94996000D03*
D13*
X205572000Y-55727600D03*
D14*
X205572000Y-58267600D03*
X203032000Y-55727600D03*
X203032000Y-58267600D03*
X200492000Y-55727600D03*
X200492000Y-58267600D03*
X197952000Y-55727600D03*
X197952000Y-58267600D03*
X195412000Y-55727600D03*
X195412000Y-58267600D03*
X192872000Y-55727600D03*
X192872000Y-58267600D03*
X190332000Y-55727600D03*
X190332000Y-58267600D03*
X187792000Y-55727600D03*
X187792000Y-58267600D03*
X185252000Y-55727600D03*
X185252000Y-58267600D03*
X182712000Y-55727600D03*
X182712000Y-58267600D03*
X180172000Y-55727600D03*
X180172000Y-58267600D03*
X177632000Y-55727600D03*
X177632000Y-58267600D03*
X175092000Y-55727600D03*
X175092000Y-58267600D03*
X172552000Y-55727600D03*
X172552000Y-58267600D03*
X170012000Y-55727600D03*
X170012000Y-58267600D03*
X167472000Y-55727600D03*
X167472000Y-58267600D03*
X164932000Y-55727600D03*
X164932000Y-58267600D03*
X162392000Y-55727600D03*
X162392000Y-58267600D03*
X159852000Y-55727600D03*
X159852000Y-58267600D03*
X157312000Y-55727600D03*
X157312000Y-58267600D03*
D15*
X203200000Y-129540000D03*
D16*
X205740000Y-129540000D03*
D15*
X196850000Y-129540000D03*
D16*
X199390000Y-129540000D03*
D15*
X144780000Y-129540000D03*
D16*
X147320000Y-129540000D03*
D15*
X151130000Y-129540000D03*
D16*
X153670000Y-129540000D03*
D15*
X190500000Y-129540000D03*
D16*
X193040000Y-129540000D03*
D15*
X138430000Y-129540000D03*
D16*
X140970000Y-129540000D03*
D11*
X210693000Y-128397000D03*
D17*
X161480300Y-76673600D03*
X191347500Y-67455400D03*
X176958200Y-71271600D03*
X168910000Y-70864400D03*
X168910000Y-72618700D03*
X150117800Y-66744300D03*
X173183800Y-75494100D03*
X152304400Y-72261900D03*
X172365200Y-75218800D03*
X167912200Y-71043100D03*
X144832600Y-77657200D03*
X193594800Y-82832200D03*
X144126300Y-78346800D03*
X143483400Y-79379100D03*
X184925600Y-82527000D03*
X207029300Y-80649700D03*
X164992900Y-80092300D03*
X141660900Y-81162900D03*
X178080000Y-86790900D03*
X183318000Y-86986300D03*
X182546200Y-85989200D03*
X179394700Y-88421200D03*
X175885300Y-82897500D03*
X172075300Y-84970400D03*
X165008400Y-86208800D03*
X141653200Y-85520300D03*
X199679700Y-86176200D03*
X166277300Y-62020700D03*
X191025900Y-75263800D03*
X203375900Y-76604500D03*
X180401800Y-71671700D03*
X199196000Y-76779600D03*
X185006200Y-76203500D03*
X197906700Y-76846400D03*
X182853600Y-76708800D03*
X179575200Y-64354900D03*
X189809900Y-62013900D03*
X183934700Y-56738500D03*
X203200000Y-79948600D03*
X187960000Y-79948600D03*
X198821100Y-70385700D03*
X184154000Y-70504600D03*
X188156200Y-67410100D03*
X174371000Y-121100400D03*
X171837100Y-61373800D03*
X183201600Y-82133900D03*
X164849300Y-67455400D03*
X179421900Y-67509000D03*
D18*
X182712000Y-58267600D02*
X181536700Y-58267600D01*
X182712000Y-58267600D02*
X183887300Y-58267600D01*
X190332000Y-58267600D02*
X190332000Y-57092300D01*
X148336000Y-92456000D02*
X148336000Y-89916000D01*
X145796000Y-94996000D02*
X148336000Y-92456000D01*
X148336000Y-110561000D02*
X150876000Y-110561000D01*
X145796000Y-108021000D02*
X145796000Y-94996000D01*
X148336000Y-110561000D02*
X145796000Y-108021000D01*
X158487300Y-56095000D02*
X158487300Y-55727600D01*
X159295200Y-56902900D02*
X158487300Y-56095000D01*
X162759400Y-56902900D02*
X159295200Y-56902900D01*
X163756700Y-57900200D02*
X162759400Y-56902900D01*
X163756700Y-58267600D02*
X163756700Y-57900200D01*
X164932000Y-58267600D02*
X163756700Y-58267600D01*
X157312000Y-55727600D02*
X158487300Y-55727600D01*
X170012000Y-58267600D02*
X171187300Y-58267600D01*
X171187300Y-57900200D02*
X171187300Y-58267600D01*
X171995200Y-57092300D02*
X171187300Y-57900200D01*
X174314900Y-57092300D02*
X171995200Y-57092300D01*
X175092000Y-56315200D02*
X174314900Y-57092300D01*
X175092000Y-55727600D02*
X175092000Y-56315200D01*
X181536700Y-57900200D02*
X181536700Y-58267600D01*
X180728800Y-57092300D02*
X181536700Y-57900200D01*
X175869100Y-57092300D02*
X180728800Y-57092300D01*
X175092000Y-56315200D02*
X175869100Y-57092300D01*
X184695200Y-57092300D02*
X190332000Y-57092300D01*
X183887300Y-57900200D02*
X184695200Y-57092300D01*
X183887300Y-58267600D02*
X183887300Y-57900200D01*
X194236700Y-56094900D02*
X194236700Y-55727600D01*
X193239300Y-57092300D02*
X194236700Y-56094900D01*
X190332000Y-57092300D02*
X193239300Y-57092300D01*
X195412000Y-55727600D02*
X194236700Y-55727600D01*
D19*
X205572000Y-58267600D02*
X204321700Y-58267600D01*
X203032000Y-58267600D02*
X204321700Y-58267600D01*
X144605400Y-109370400D02*
X145796000Y-110561000D01*
X144446600Y-109370400D02*
X144605400Y-109370400D01*
X144446600Y-89916000D02*
X144446600Y-109370400D01*
X144446600Y-109370400D02*
X143256000Y-110561000D01*
X145796000Y-89916000D02*
X144446600Y-89916000D01*
X144446600Y-89916000D02*
X143256000Y-89916000D01*
X193844200Y-67455400D02*
X191347500Y-67455400D01*
X203032000Y-58267600D02*
X193844200Y-67455400D01*
X188998700Y-69804200D02*
X191347500Y-67455400D01*
X178425600Y-69804200D02*
X188998700Y-69804200D01*
X176958200Y-71271600D02*
X178425600Y-69804200D01*
X176958200Y-72735400D02*
X176958200Y-71271600D01*
X173020000Y-76673600D02*
X176958200Y-72735400D01*
X161480300Y-76673600D02*
X173020000Y-76673600D01*
X140952900Y-87612900D02*
X143256000Y-89916000D01*
X140952900Y-80480300D02*
X140952900Y-87612900D01*
X144759600Y-76673600D02*
X140952900Y-80480300D01*
X161480300Y-76673600D02*
X144759600Y-76673600D01*
D18*
X200492000Y-55727600D02*
X199316700Y-55727600D01*
X199316700Y-56095000D02*
X199316700Y-55727600D01*
X198508800Y-56902900D02*
X199316700Y-56095000D01*
X197626200Y-56902900D02*
X198508800Y-56902900D01*
X196682000Y-57847100D02*
X197626200Y-56902900D01*
X196682000Y-58688400D02*
X196682000Y-57847100D01*
X195288000Y-60082400D02*
X196682000Y-58688400D01*
X193262700Y-60082400D02*
X195288000Y-60082400D01*
X184677600Y-68667500D02*
X193262700Y-60082400D01*
X171106900Y-68667500D02*
X184677600Y-68667500D01*
X168910000Y-70864400D02*
X171106900Y-68667500D01*
X197952000Y-55727600D02*
X196776700Y-55727600D01*
X196776700Y-56095000D02*
X196776700Y-55727600D01*
X195968800Y-56902900D02*
X196776700Y-56095000D01*
X195048500Y-56902900D02*
X195968800Y-56902900D01*
X194175400Y-57776000D02*
X195048500Y-56902900D01*
X194175400Y-58712400D02*
X194175400Y-57776000D01*
X193350400Y-59537400D02*
X194175400Y-58712400D01*
X193170800Y-59537400D02*
X193350400Y-59537400D01*
X184491000Y-68217200D02*
X193170800Y-59537400D01*
X169847000Y-68217200D02*
X184491000Y-68217200D01*
X167247800Y-70816400D02*
X169847000Y-68217200D01*
X167247800Y-71334800D02*
X167247800Y-70816400D01*
X168531700Y-72618700D02*
X167247800Y-71334800D01*
X168910000Y-72618700D02*
X168531700Y-72618700D01*
X167472000Y-55727600D02*
X166296700Y-55727600D01*
X150117800Y-66744300D02*
X156078000Y-66744300D01*
X166296700Y-55360200D02*
X166296700Y-55727600D01*
X165488800Y-54552300D02*
X166296700Y-55360200D01*
X156736300Y-54552300D02*
X165488800Y-54552300D01*
X156078000Y-55210600D02*
X156736300Y-54552300D01*
X156078000Y-66744300D02*
X156078000Y-55210600D01*
X173183800Y-75148200D02*
X173183800Y-75494100D01*
X172629000Y-74593400D02*
X173183800Y-75148200D01*
X163927100Y-74593400D02*
X172629000Y-74593400D01*
X156078000Y-66744300D02*
X163927100Y-74593400D01*
X155261300Y-75218800D02*
X172365200Y-75218800D01*
X152304400Y-72261900D02*
X155261300Y-75218800D01*
X203032000Y-55727600D02*
X203032000Y-56902900D01*
X202664600Y-56902900D02*
X203032000Y-56902900D01*
X201856700Y-57710800D02*
X202664600Y-56902900D01*
X201856700Y-58601900D02*
X201856700Y-57710800D01*
X198436800Y-62021800D02*
X201856700Y-58601900D01*
X194772400Y-62021800D02*
X198436800Y-62021800D01*
X187676400Y-69117800D02*
X194772400Y-62021800D01*
X172715700Y-69117800D02*
X187676400Y-69117800D01*
X170340600Y-71492900D02*
X172715700Y-69117800D01*
X168362000Y-71492900D02*
X170340600Y-71492900D01*
X167912200Y-71043100D02*
X168362000Y-71492900D01*
X192558700Y-80798700D02*
X201676000Y-89916000D01*
X187871400Y-80798700D02*
X192558700Y-80798700D01*
X184729900Y-77657200D02*
X187871400Y-80798700D01*
X144832600Y-77657200D02*
X184729900Y-77657200D01*
X200406000Y-89643400D02*
X193594800Y-82832200D01*
X200406000Y-93726000D02*
X200406000Y-89643400D01*
X201676000Y-94996000D02*
X200406000Y-93726000D01*
X189268000Y-82832200D02*
X193594800Y-82832200D01*
X184782600Y-78346800D02*
X189268000Y-82832200D01*
X144126300Y-78346800D02*
X184782600Y-78346800D01*
X192677600Y-83457600D02*
X199136000Y-89916000D01*
X187252300Y-83457600D02*
X192677600Y-83457600D01*
X183173800Y-79379100D02*
X187252300Y-83457600D01*
X143483400Y-79379100D02*
X183173800Y-79379100D01*
X195167200Y-93884800D02*
X194056000Y-94996000D01*
X195167200Y-89442200D02*
X195167200Y-93884800D01*
X191629300Y-85904300D02*
X195167200Y-89442200D01*
X188302900Y-85904300D02*
X191629300Y-85904300D01*
X184925600Y-82527000D02*
X188302900Y-85904300D01*
X190122500Y-96142500D02*
X188976000Y-94996000D01*
X202074000Y-96142500D02*
X190122500Y-96142500D01*
X207029300Y-91187200D02*
X202074000Y-96142500D01*
X207029300Y-80649700D02*
X207029300Y-91187200D01*
X185346500Y-109471500D02*
X186436000Y-110561000D01*
X185346500Y-91005500D02*
X185346500Y-109471500D01*
X186436000Y-89916000D02*
X185346500Y-91005500D01*
X186436000Y-88327400D02*
X186436000Y-89916000D01*
X178200900Y-80092300D02*
X186436000Y-88327400D01*
X164992900Y-80092300D02*
X178200900Y-80092300D01*
X178631900Y-81162900D02*
X141660900Y-81162900D01*
X183967700Y-86498700D02*
X178631900Y-81162900D01*
X183967700Y-89844300D02*
X183967700Y-86498700D01*
X183896000Y-89916000D02*
X183967700Y-89844300D01*
X182467200Y-109449800D02*
X181356000Y-110561000D01*
X182467200Y-91027200D02*
X182467200Y-109449800D01*
X181356000Y-89916000D02*
X182467200Y-91027200D01*
X176861100Y-86790900D02*
X173736000Y-89916000D01*
X178080000Y-86790900D02*
X176861100Y-86790900D01*
X174847200Y-114529800D02*
X173736000Y-115641000D01*
X174847200Y-94996000D02*
X174847200Y-114529800D01*
X173736000Y-94996000D02*
X174847200Y-94996000D01*
X182747600Y-86986300D02*
X183318000Y-86986300D01*
X180086000Y-89647900D02*
X182747600Y-86986300D01*
X180086000Y-90232500D02*
X180086000Y-89647900D01*
X176592500Y-93726000D02*
X180086000Y-90232500D01*
X175958300Y-93726000D02*
X176592500Y-93726000D01*
X174847200Y-94837100D02*
X175958300Y-93726000D01*
X174847200Y-94996000D02*
X174847200Y-94837100D01*
X175122800Y-85989200D02*
X182546200Y-85989200D01*
X171196000Y-89916000D02*
X175122800Y-85989200D01*
X172307200Y-114529800D02*
X171196000Y-115641000D01*
X172307200Y-94996000D02*
X172307200Y-114529800D01*
X172307200Y-94996000D02*
X171196000Y-94996000D01*
X172307200Y-94874200D02*
X172307200Y-94996000D01*
X174131500Y-93049900D02*
X172307200Y-94874200D01*
X174695000Y-93049900D02*
X174131500Y-93049900D01*
X177546000Y-90198900D02*
X174695000Y-93049900D01*
X177546000Y-89640000D02*
X177546000Y-90198900D01*
X178764800Y-88421200D02*
X177546000Y-89640000D01*
X179394700Y-88421200D02*
X178764800Y-88421200D01*
X175674500Y-82897500D02*
X175885300Y-82897500D01*
X168656000Y-89916000D02*
X175674500Y-82897500D01*
X171987800Y-84970400D02*
X172075300Y-84970400D01*
X167567300Y-89390900D02*
X171987800Y-84970400D01*
X167567300Y-93907300D02*
X167567300Y-89390900D01*
X168656000Y-94996000D02*
X167567300Y-93907300D01*
X165008400Y-93888400D02*
X166116000Y-94996000D01*
X165008400Y-86208800D02*
X165008400Y-93888400D01*
X154527200Y-109449800D02*
X153416000Y-110561000D01*
X154527200Y-91027200D02*
X154527200Y-109449800D01*
X153416000Y-89916000D02*
X154527200Y-91027200D01*
X151987200Y-114529800D02*
X150876000Y-115641000D01*
X151987200Y-96107200D02*
X151987200Y-114529800D01*
X150876000Y-94996000D02*
X151987200Y-96107200D01*
X149423400Y-93543400D02*
X150876000Y-94996000D01*
X149423400Y-89443600D02*
X149423400Y-93543400D01*
X145500100Y-85520300D02*
X149423400Y-89443600D01*
X141653200Y-85520300D02*
X145500100Y-85520300D01*
X140716000Y-94996000D02*
X142144700Y-94996000D01*
X142144700Y-94996000D02*
X143256000Y-94996000D01*
X142144700Y-94996000D02*
X142144700Y-114778900D01*
X141578100Y-114778900D02*
X142144700Y-114778900D01*
X140716000Y-115641000D02*
X141578100Y-114778900D01*
X142393900Y-114778900D02*
X143256000Y-115641000D01*
X142144700Y-114778900D02*
X142393900Y-114778900D01*
X205572000Y-55727600D02*
X205278200Y-55727600D01*
X205278200Y-55727600D02*
X204984400Y-55727600D01*
X186427300Y-55360200D02*
X186427300Y-55727600D01*
X187235200Y-54552300D02*
X186427300Y-55360200D01*
X203809100Y-54552300D02*
X187235200Y-54552300D01*
X204984400Y-55727600D02*
X203809100Y-54552300D01*
X185252000Y-55727600D02*
X184076700Y-55727600D01*
X185252000Y-55727600D02*
X186427300Y-55727600D01*
X166277300Y-57795300D02*
X166277300Y-62020700D01*
X167075000Y-56997600D02*
X166277300Y-57795300D01*
X170426200Y-56997600D02*
X167075000Y-56997600D01*
X171248600Y-56175200D02*
X170426200Y-56997600D01*
X171248600Y-55368500D02*
X171248600Y-56175200D01*
X172098300Y-54518800D02*
X171248600Y-55368500D01*
X183235200Y-54518800D02*
X172098300Y-54518800D01*
X184076700Y-55360300D02*
X183235200Y-54518800D01*
X184076700Y-55727600D02*
X184076700Y-55360300D01*
X206749500Y-79106400D02*
X199679700Y-86176200D01*
X206749500Y-57198900D02*
X206749500Y-79106400D01*
X205278200Y-55727600D02*
X206749500Y-57198900D01*
X202035200Y-75263800D02*
X191025900Y-75263800D01*
X203375900Y-76604500D02*
X202035200Y-75263800D01*
X183993900Y-75263800D02*
X180401800Y-71671700D01*
X191025900Y-75263800D02*
X183993900Y-75263800D01*
X198619900Y-76203500D02*
X185006200Y-76203500D01*
X199196000Y-76779600D02*
X198619900Y-76203500D01*
X182991200Y-76846400D02*
X197906700Y-76846400D01*
X182853600Y-76708800D02*
X182991200Y-76846400D01*
X167472000Y-58267600D02*
X168647300Y-58267600D01*
X173933900Y-64354900D02*
X179575200Y-64354900D01*
X168647300Y-59068300D02*
X173933900Y-64354900D01*
X168647300Y-58267600D02*
X168647300Y-59068300D01*
X181916200Y-62013900D02*
X179575200Y-64354900D01*
X189809900Y-62013900D02*
X181916200Y-62013900D01*
X181347300Y-56095000D02*
X181347300Y-55727600D01*
X182155200Y-56902900D02*
X181347300Y-56095000D01*
X183770300Y-56902900D02*
X182155200Y-56902900D01*
X183934700Y-56738500D02*
X183770300Y-56902900D01*
X180172000Y-55727600D02*
X181347300Y-55727600D01*
X187960000Y-79948600D02*
X203200000Y-79948600D01*
X198702200Y-70504600D02*
X184154000Y-70504600D01*
X198821100Y-70385700D02*
X198702200Y-70504600D01*
X194439000Y-61127300D02*
X188156200Y-67410100D01*
X195092300Y-61127300D02*
X194439000Y-61127300D01*
X197952000Y-58267600D02*
X195092300Y-61127300D01*
X169631900Y-125839500D02*
X174371000Y-121100400D01*
X144670500Y-125839500D02*
X169631900Y-125839500D01*
X140970000Y-129540000D02*
X144670500Y-125839500D01*
X191696700Y-58593000D02*
X191696700Y-58267600D01*
X188915900Y-61373800D02*
X191696700Y-58593000D01*
X171837100Y-61373800D02*
X188915900Y-61373800D01*
X192872000Y-58267600D02*
X191696700Y-58267600D01*
X192090900Y-91881100D02*
X194056000Y-89916000D01*
X190495900Y-91881100D02*
X192090900Y-91881100D01*
X187887600Y-94489400D02*
X190495900Y-91881100D01*
X187887600Y-104392600D02*
X187887600Y-94489400D01*
X194056000Y-110561000D02*
X187887600Y-104392600D01*
X190944900Y-86804900D02*
X194056000Y-89916000D01*
X187872600Y-86804900D02*
X190944900Y-86804900D01*
X183201600Y-82133900D02*
X187872600Y-86804900D01*
X162392000Y-64998100D02*
X162392000Y-58267600D01*
X164849300Y-67455400D02*
X162392000Y-64998100D01*
X164902900Y-67509000D02*
X164849300Y-67455400D01*
X179421900Y-67509000D02*
X164902900Y-67509000D01*
D20*
G36*
X207472979Y-52962478D02*
X207650145Y-53080856D01*
X207768521Y-53258019D01*
X207824000Y-53536931D01*
X207824000Y-61976000D01*
X207837643Y-62044587D01*
X207837643Y-62114514D01*
X207953651Y-62697725D01*
X207988476Y-62781800D01*
X208059664Y-62953664D01*
X208390025Y-63448086D01*
X208493854Y-63551914D01*
X208585915Y-63643975D01*
X209080336Y-63974336D01*
X209204037Y-64025574D01*
X209336276Y-64080349D01*
X209919486Y-64196358D01*
X209989416Y-64196358D01*
X210058000Y-64210000D01*
X212401073Y-64210000D01*
X212777182Y-64284814D01*
X213036749Y-64458250D01*
X213210188Y-64717820D01*
X213285000Y-65093927D01*
X213285000Y-66413263D01*
X213097798Y-65960199D01*
X212300995Y-65162005D01*
X211259390Y-64729493D01*
X210131558Y-64728509D01*
X209089199Y-65159202D01*
X208291005Y-65956005D01*
X207858493Y-66997610D01*
X207857509Y-68125442D01*
X208288202Y-69167801D01*
X209085005Y-69965995D01*
X210126610Y-70398507D01*
X211254442Y-70399491D01*
X212296801Y-69968798D01*
X213094995Y-69171995D01*
X213285000Y-68714412D01*
X213285000Y-127246263D01*
X213097798Y-126793199D01*
X212300995Y-125995005D01*
X211259390Y-125562493D01*
X210131558Y-125561509D01*
X209089199Y-125992202D01*
X208291005Y-126789005D01*
X207858493Y-127830610D01*
X207857509Y-128958442D01*
X208288202Y-130000801D01*
X209085005Y-130798995D01*
X210126610Y-131231507D01*
X210804887Y-131232099D01*
X210114760Y-131370000D01*
X132784931Y-131370000D01*
X132088975Y-131231566D01*
X133149442Y-131232491D01*
X134191801Y-130801798D01*
X134989995Y-130004995D01*
X135422507Y-128963390D01*
X135422789Y-128640000D01*
X136882560Y-128640000D01*
X136882560Y-130440000D01*
X136926838Y-130675317D01*
X137065910Y-130891441D01*
X137278110Y-131036431D01*
X137530000Y-131087440D01*
X139330000Y-131087440D01*
X139565317Y-131043162D01*
X139781441Y-130904090D01*
X139926431Y-130691890D01*
X139930567Y-130671466D01*
X140099357Y-130840551D01*
X140663330Y-131074733D01*
X141273991Y-131075265D01*
X141838371Y-130842068D01*
X142270551Y-130410643D01*
X142504733Y-129846670D01*
X142505265Y-129236009D01*
X142459515Y-129125287D01*
X142944802Y-128640000D01*
X143232560Y-128640000D01*
X143232560Y-130440000D01*
X143276838Y-130675317D01*
X143415910Y-130891441D01*
X143628110Y-131036431D01*
X143880000Y-131087440D01*
X145680000Y-131087440D01*
X145915317Y-131043162D01*
X146131441Y-130904090D01*
X146276431Y-130691890D01*
X146280567Y-130671466D01*
X146449357Y-130840551D01*
X147013330Y-131074733D01*
X147623991Y-131075265D01*
X148188371Y-130842068D01*
X148620551Y-130410643D01*
X148854733Y-129846670D01*
X148855265Y-129236009D01*
X148622068Y-128671629D01*
X148590495Y-128640000D01*
X149582560Y-128640000D01*
X149582560Y-130440000D01*
X149626838Y-130675317D01*
X149765910Y-130891441D01*
X149978110Y-131036431D01*
X150230000Y-131087440D01*
X152030000Y-131087440D01*
X152265317Y-131043162D01*
X152481441Y-130904090D01*
X152626431Y-130691890D01*
X152630567Y-130671466D01*
X152799357Y-130840551D01*
X153363330Y-131074733D01*
X153973991Y-131075265D01*
X154538371Y-130842068D01*
X154970551Y-130410643D01*
X155204733Y-129846670D01*
X155205265Y-129236009D01*
X154972068Y-128671629D01*
X154940495Y-128640000D01*
X188952560Y-128640000D01*
X188952560Y-130440000D01*
X188996838Y-130675317D01*
X189135910Y-130891441D01*
X189348110Y-131036431D01*
X189600000Y-131087440D01*
X191400000Y-131087440D01*
X191635317Y-131043162D01*
X191851441Y-130904090D01*
X191996431Y-130691890D01*
X192000567Y-130671466D01*
X192169357Y-130840551D01*
X192733330Y-131074733D01*
X193343991Y-131075265D01*
X193908371Y-130842068D01*
X194340551Y-130410643D01*
X194574733Y-129846670D01*
X194575265Y-129236009D01*
X194342068Y-128671629D01*
X194310495Y-128640000D01*
X195302560Y-128640000D01*
X195302560Y-130440000D01*
X195346838Y-130675317D01*
X195485910Y-130891441D01*
X195698110Y-131036431D01*
X195950000Y-131087440D01*
X197750000Y-131087440D01*
X197985317Y-131043162D01*
X198201441Y-130904090D01*
X198346431Y-130691890D01*
X198350567Y-130671466D01*
X198519357Y-130840551D01*
X199083330Y-131074733D01*
X199693991Y-131075265D01*
X200258371Y-130842068D01*
X200690551Y-130410643D01*
X200924733Y-129846670D01*
X200925265Y-129236009D01*
X200692068Y-128671629D01*
X200660495Y-128640000D01*
X201652560Y-128640000D01*
X201652560Y-130440000D01*
X201696838Y-130675317D01*
X201835910Y-130891441D01*
X202048110Y-131036431D01*
X202300000Y-131087440D01*
X204100000Y-131087440D01*
X204335317Y-131043162D01*
X204551441Y-130904090D01*
X204696431Y-130691890D01*
X204700567Y-130671466D01*
X204869357Y-130840551D01*
X205433330Y-131074733D01*
X206043991Y-131075265D01*
X206608371Y-130842068D01*
X207040551Y-130410643D01*
X207274733Y-129846670D01*
X207275265Y-129236009D01*
X207042068Y-128671629D01*
X206610643Y-128239449D01*
X206046670Y-128005267D01*
X205436009Y-128004735D01*
X204871629Y-128237932D01*
X204703387Y-128405880D01*
X204703162Y-128404683D01*
X204564090Y-128188559D01*
X204351890Y-128043569D01*
X204100000Y-127992560D01*
X202300000Y-127992560D01*
X202064683Y-128036838D01*
X201848559Y-128175910D01*
X201703569Y-128388110D01*
X201652560Y-128640000D01*
X200660495Y-128640000D01*
X200260643Y-128239449D01*
X199696670Y-128005267D01*
X199086009Y-128004735D01*
X198521629Y-128237932D01*
X198353387Y-128405880D01*
X198353162Y-128404683D01*
X198214090Y-128188559D01*
X198001890Y-128043569D01*
X197750000Y-127992560D01*
X195950000Y-127992560D01*
X195714683Y-128036838D01*
X195498559Y-128175910D01*
X195353569Y-128388110D01*
X195302560Y-128640000D01*
X194310495Y-128640000D01*
X193910643Y-128239449D01*
X193346670Y-128005267D01*
X192736009Y-128004735D01*
X192171629Y-128237932D01*
X192003387Y-128405880D01*
X192003162Y-128404683D01*
X191864090Y-128188559D01*
X191651890Y-128043569D01*
X191400000Y-127992560D01*
X189600000Y-127992560D01*
X189364683Y-128036838D01*
X189148559Y-128175910D01*
X189003569Y-128388110D01*
X188952560Y-128640000D01*
X154940495Y-128640000D01*
X154540643Y-128239449D01*
X153976670Y-128005267D01*
X153366009Y-128004735D01*
X152801629Y-128237932D01*
X152633387Y-128405880D01*
X152633162Y-128404683D01*
X152494090Y-128188559D01*
X152281890Y-128043569D01*
X152030000Y-127992560D01*
X150230000Y-127992560D01*
X149994683Y-128036838D01*
X149778559Y-128175910D01*
X149633569Y-128388110D01*
X149582560Y-128640000D01*
X148590495Y-128640000D01*
X148190643Y-128239449D01*
X147626670Y-128005267D01*
X147016009Y-128004735D01*
X146451629Y-128237932D01*
X146283387Y-128405880D01*
X146283162Y-128404683D01*
X146144090Y-128188559D01*
X145931890Y-128043569D01*
X145680000Y-127992560D01*
X143880000Y-127992560D01*
X143644683Y-128036838D01*
X143428559Y-128175910D01*
X143283569Y-128388110D01*
X143232560Y-128640000D01*
X142944802Y-128640000D01*
X144985302Y-126599500D01*
X169631900Y-126599500D01*
X169922739Y-126541648D01*
X170169301Y-126376901D01*
X174510681Y-122035522D01*
X174556167Y-122035562D01*
X174899943Y-121893517D01*
X175163192Y-121630727D01*
X175305838Y-121287199D01*
X175306162Y-120915233D01*
X175164117Y-120571457D01*
X174901327Y-120308208D01*
X174557799Y-120165562D01*
X174185833Y-120165238D01*
X173842057Y-120307283D01*
X173578808Y-120570073D01*
X173436162Y-120913601D01*
X173436121Y-120960476D01*
X169317098Y-125079500D01*
X144670500Y-125079500D01*
X144379660Y-125137352D01*
X144133099Y-125302099D01*
X141384964Y-128050234D01*
X141276670Y-128005267D01*
X140666009Y-128004735D01*
X140101629Y-128237932D01*
X139933387Y-128405880D01*
X139933162Y-128404683D01*
X139794090Y-128188559D01*
X139581890Y-128043569D01*
X139330000Y-127992560D01*
X137530000Y-127992560D01*
X137294683Y-128036838D01*
X137078559Y-128175910D01*
X136933569Y-128388110D01*
X136882560Y-128640000D01*
X135422789Y-128640000D01*
X135423491Y-127835558D01*
X134992798Y-126793199D01*
X134195995Y-125995005D01*
X133154390Y-125562493D01*
X132026558Y-125561509D01*
X130984199Y-125992202D01*
X130186005Y-126789005D01*
X129753493Y-127830610D01*
X129752565Y-128894821D01*
X129615000Y-128206380D01*
X129615000Y-68125442D01*
X129752509Y-68125442D01*
X130183202Y-69167801D01*
X130980005Y-69965995D01*
X132021610Y-70398507D01*
X133149442Y-70399491D01*
X134191801Y-69968798D01*
X134989995Y-69171995D01*
X135422507Y-68130390D01*
X135423491Y-67002558D01*
X134992798Y-65960199D01*
X134195995Y-65162005D01*
X133154390Y-64729493D01*
X132026558Y-64728509D01*
X130984199Y-65159202D01*
X130186005Y-65956005D01*
X129753493Y-66997610D01*
X129752509Y-68125442D01*
X129615000Y-68125442D01*
X129615000Y-67379925D01*
X129863824Y-66128999D01*
X130532804Y-65127798D01*
X131534274Y-64458639D01*
X132778590Y-64210000D01*
X153162000Y-64210000D01*
X153230587Y-64196357D01*
X153300514Y-64196357D01*
X153883725Y-64080349D01*
X153989738Y-64036437D01*
X154139664Y-63974336D01*
X154634086Y-63643975D01*
X154829974Y-63448086D01*
X154829975Y-63448085D01*
X155160336Y-62953664D01*
X155234796Y-62773900D01*
X155266349Y-62697724D01*
X155318000Y-62438060D01*
X155318000Y-65984300D01*
X150680263Y-65984300D01*
X150648127Y-65952108D01*
X150304599Y-65809462D01*
X149932633Y-65809138D01*
X149588857Y-65951183D01*
X149325608Y-66213973D01*
X149182962Y-66557501D01*
X149182638Y-66929467D01*
X149324683Y-67273243D01*
X149587473Y-67536492D01*
X149931001Y-67679138D01*
X150302967Y-67679462D01*
X150646743Y-67537417D01*
X150679918Y-67504300D01*
X155763198Y-67504300D01*
X162717698Y-74458800D01*
X155576102Y-74458800D01*
X153239522Y-72122220D01*
X153239562Y-72076733D01*
X153097517Y-71732957D01*
X152834727Y-71469708D01*
X152491199Y-71327062D01*
X152119233Y-71326738D01*
X151775457Y-71468783D01*
X151512208Y-71731573D01*
X151369562Y-72075101D01*
X151369238Y-72447067D01*
X151511283Y-72790843D01*
X151774073Y-73054092D01*
X152117601Y-73196738D01*
X152164477Y-73196779D01*
X154723899Y-75756201D01*
X154847218Y-75838600D01*
X144759600Y-75838600D01*
X144440060Y-75902160D01*
X144169166Y-76083166D01*
X140362466Y-79889866D01*
X140181461Y-80160759D01*
X140117900Y-80480300D01*
X140117900Y-87612900D01*
X140181461Y-87932441D01*
X140251032Y-88036561D01*
X140362466Y-88203334D01*
X140678098Y-88518966D01*
X140439339Y-88518758D01*
X139925697Y-88730990D01*
X139532371Y-89123630D01*
X139319243Y-89636900D01*
X139318758Y-90192661D01*
X139530990Y-90706303D01*
X139923630Y-91099629D01*
X140436900Y-91312757D01*
X140992661Y-91313242D01*
X141506303Y-91101010D01*
X141899629Y-90708370D01*
X141985949Y-90500488D01*
X142070990Y-90706303D01*
X142463630Y-91099629D01*
X142976900Y-91312757D01*
X143532661Y-91313242D01*
X143611600Y-91280625D01*
X143611600Y-93631009D01*
X143535100Y-93599243D01*
X142979339Y-93598758D01*
X142465697Y-93810990D01*
X142072371Y-94203630D01*
X142058930Y-94236000D01*
X141913531Y-94236000D01*
X141901010Y-94205697D01*
X141508370Y-93812371D01*
X140995100Y-93599243D01*
X140439339Y-93598758D01*
X139925697Y-93810990D01*
X139532371Y-94203630D01*
X139319243Y-94716900D01*
X139318758Y-95272661D01*
X139530990Y-95786303D01*
X139923630Y-96179629D01*
X140436900Y-96392757D01*
X140992661Y-96393242D01*
X141384700Y-96231255D01*
X141384700Y-109326019D01*
X140995100Y-109164243D01*
X140439339Y-109163758D01*
X139925697Y-109375990D01*
X139532371Y-109768630D01*
X139319243Y-110281900D01*
X139318758Y-110837661D01*
X139530990Y-111351303D01*
X139923630Y-111744629D01*
X140436900Y-111957757D01*
X140992661Y-111958242D01*
X141384700Y-111796255D01*
X141384700Y-114057370D01*
X141287261Y-114076752D01*
X141040699Y-114241499D01*
X141025381Y-114256817D01*
X140995100Y-114244243D01*
X140439339Y-114243758D01*
X139925697Y-114455990D01*
X139532371Y-114848630D01*
X139319243Y-115361900D01*
X139318758Y-115917661D01*
X139530990Y-116431303D01*
X139923630Y-116824629D01*
X140436900Y-117037757D01*
X140992661Y-117038242D01*
X141506303Y-116826010D01*
X141899629Y-116433370D01*
X141985949Y-116225488D01*
X142070990Y-116431303D01*
X142463630Y-116824629D01*
X142976900Y-117037757D01*
X143532661Y-117038242D01*
X144046303Y-116826010D01*
X144251457Y-116621213D01*
X144995392Y-116621213D01*
X145064857Y-116863397D01*
X145588302Y-117050144D01*
X146143368Y-117022362D01*
X146527143Y-116863397D01*
X146596608Y-116621213D01*
X145796000Y-115820605D01*
X144995392Y-116621213D01*
X144251457Y-116621213D01*
X144439629Y-116433370D01*
X144519395Y-116241273D01*
X144573603Y-116372143D01*
X144815787Y-116441608D01*
X145616395Y-115641000D01*
X144815787Y-114840392D01*
X144573603Y-114909857D01*
X144523491Y-115050318D01*
X144441010Y-114850697D01*
X144251432Y-114660787D01*
X144995392Y-114660787D01*
X145796000Y-115461395D01*
X146596608Y-114660787D01*
X146527143Y-114418603D01*
X146003698Y-114231856D01*
X145448632Y-114259638D01*
X145064857Y-114418603D01*
X144995392Y-114660787D01*
X144251432Y-114660787D01*
X144048370Y-114457371D01*
X143535100Y-114244243D01*
X142979339Y-114243758D01*
X142946945Y-114257143D01*
X142931301Y-114241499D01*
X142904700Y-114223725D01*
X142904700Y-111927777D01*
X142976900Y-111957757D01*
X143532661Y-111958242D01*
X144046303Y-111746010D01*
X144439629Y-111353370D01*
X144525949Y-111145488D01*
X144610990Y-111351303D01*
X145003630Y-111744629D01*
X145516900Y-111957757D01*
X146072661Y-111958242D01*
X146586303Y-111746010D01*
X146791457Y-111541213D01*
X147535392Y-111541213D01*
X147604857Y-111783397D01*
X148128302Y-111970144D01*
X148683368Y-111942362D01*
X149067143Y-111783397D01*
X149136608Y-111541213D01*
X148336000Y-110740605D01*
X147535392Y-111541213D01*
X146791457Y-111541213D01*
X146979629Y-111353370D01*
X147059395Y-111161273D01*
X147113603Y-111292143D01*
X147355787Y-111361608D01*
X148156395Y-110561000D01*
X148515605Y-110561000D01*
X149316213Y-111361608D01*
X149558397Y-111292143D01*
X149602453Y-111168656D01*
X149653603Y-111292143D01*
X149895787Y-111361608D01*
X150696395Y-110561000D01*
X149895787Y-109760392D01*
X149653603Y-109829857D01*
X149609547Y-109953344D01*
X149558397Y-109829857D01*
X149316213Y-109760392D01*
X148515605Y-110561000D01*
X148156395Y-110561000D01*
X147355787Y-109760392D01*
X147113603Y-109829857D01*
X147063491Y-109970318D01*
X146981010Y-109770697D01*
X146791432Y-109580787D01*
X147535392Y-109580787D01*
X148336000Y-110381395D01*
X149136608Y-109580787D01*
X149067143Y-109338603D01*
X148543698Y-109151856D01*
X147988632Y-109179638D01*
X147604857Y-109338603D01*
X147535392Y-109580787D01*
X146791432Y-109580787D01*
X146588370Y-109377371D01*
X146075100Y-109164243D01*
X145579679Y-109163811D01*
X145281600Y-108865732D01*
X145281600Y-96295723D01*
X145588302Y-96405144D01*
X146143368Y-96377362D01*
X146527143Y-96218397D01*
X146596608Y-95976213D01*
X145796000Y-95175605D01*
X145781858Y-95189748D01*
X145602253Y-95010143D01*
X145616395Y-94996000D01*
X145602253Y-94981858D01*
X145781858Y-94802253D01*
X145796000Y-94816395D01*
X146596608Y-94015787D01*
X146527143Y-93773603D01*
X146003698Y-93586856D01*
X145448632Y-93614638D01*
X145281600Y-93683825D01*
X145281600Y-91215052D01*
X145516900Y-91312757D01*
X146072661Y-91313242D01*
X146586303Y-91101010D01*
X146979629Y-90708370D01*
X147059395Y-90516273D01*
X147113603Y-90647143D01*
X147355787Y-90716608D01*
X148156395Y-89916000D01*
X147355787Y-89115392D01*
X147113603Y-89184857D01*
X147063491Y-89325318D01*
X146981010Y-89125697D01*
X146588370Y-88732371D01*
X146075100Y-88519243D01*
X145519339Y-88518758D01*
X145005697Y-88730990D01*
X144655075Y-89081000D01*
X144396391Y-89081000D01*
X144048370Y-88732371D01*
X143535100Y-88519243D01*
X143039679Y-88518811D01*
X141787900Y-87267032D01*
X141787900Y-86455418D01*
X141838367Y-86455462D01*
X142182143Y-86313417D01*
X142215318Y-86280300D01*
X145185298Y-86280300D01*
X147603463Y-88698465D01*
X147535392Y-88935787D01*
X148336000Y-89736395D01*
X148350143Y-89722253D01*
X148529748Y-89901858D01*
X148515605Y-89916000D01*
X148529748Y-89930143D01*
X148350143Y-90109748D01*
X148336000Y-90095605D01*
X147535392Y-90896213D01*
X147604857Y-91138397D01*
X148128302Y-91325144D01*
X148663400Y-91298361D01*
X148663400Y-93543400D01*
X148679857Y-93626132D01*
X148615100Y-93599243D01*
X148059339Y-93598758D01*
X147545697Y-93810990D01*
X147152371Y-94203630D01*
X147072605Y-94395727D01*
X147018397Y-94264857D01*
X146776213Y-94195392D01*
X145975605Y-94996000D01*
X146776213Y-95796608D01*
X147018397Y-95727143D01*
X147068509Y-95586682D01*
X147150990Y-95786303D01*
X147543630Y-96179629D01*
X148056900Y-96392757D01*
X148612661Y-96393242D01*
X149126303Y-96181010D01*
X149519629Y-95788370D01*
X149605949Y-95580488D01*
X149690990Y-95786303D01*
X150083630Y-96179629D01*
X150596900Y-96392757D01*
X151152661Y-96393242D01*
X151185055Y-96379857D01*
X151227200Y-96422002D01*
X151227200Y-109203053D01*
X151083698Y-109151856D01*
X150528632Y-109179638D01*
X150144857Y-109338603D01*
X150075392Y-109580787D01*
X150876000Y-110381395D01*
X150890143Y-110367253D01*
X151069748Y-110546858D01*
X151055605Y-110561000D01*
X151069748Y-110575143D01*
X150890143Y-110754748D01*
X150876000Y-110740605D01*
X150075392Y-111541213D01*
X150144857Y-111783397D01*
X150668302Y-111970144D01*
X151223368Y-111942362D01*
X151227200Y-111940775D01*
X151227200Y-114214998D01*
X151185381Y-114256817D01*
X151155100Y-114244243D01*
X150599339Y-114243758D01*
X150085697Y-114455990D01*
X149692371Y-114848630D01*
X149606051Y-115056512D01*
X149521010Y-114850697D01*
X149128370Y-114457371D01*
X148615100Y-114244243D01*
X148059339Y-114243758D01*
X147545697Y-114455990D01*
X147152371Y-114848630D01*
X147072605Y-115040727D01*
X147018397Y-114909857D01*
X146776213Y-114840392D01*
X145975605Y-115641000D01*
X146776213Y-116441608D01*
X147018397Y-116372143D01*
X147068509Y-116231682D01*
X147150990Y-116431303D01*
X147543630Y-116824629D01*
X148056900Y-117037757D01*
X148612661Y-117038242D01*
X149126303Y-116826010D01*
X149519629Y-116433370D01*
X149605949Y-116225488D01*
X149690990Y-116431303D01*
X150083630Y-116824629D01*
X150596900Y-117037757D01*
X151152661Y-117038242D01*
X151666303Y-116826010D01*
X152059629Y-116433370D01*
X152145949Y-116225488D01*
X152230990Y-116431303D01*
X152623630Y-116824629D01*
X153136900Y-117037757D01*
X153692661Y-117038242D01*
X154206303Y-116826010D01*
X154599629Y-116433370D01*
X154685949Y-116225488D01*
X154770990Y-116431303D01*
X155163630Y-116824629D01*
X155676900Y-117037757D01*
X156232661Y-117038242D01*
X156746303Y-116826010D01*
X157139629Y-116433370D01*
X157225949Y-116225488D01*
X157310990Y-116431303D01*
X157703630Y-116824629D01*
X158216900Y-117037757D01*
X158772661Y-117038242D01*
X159286303Y-116826010D01*
X159679629Y-116433370D01*
X159765949Y-116225488D01*
X159850990Y-116431303D01*
X160243630Y-116824629D01*
X160756900Y-117037757D01*
X161312661Y-117038242D01*
X161826303Y-116826010D01*
X162219629Y-116433370D01*
X162305949Y-116225488D01*
X162390990Y-116431303D01*
X162783630Y-116824629D01*
X163296900Y-117037757D01*
X163852661Y-117038242D01*
X164366303Y-116826010D01*
X164759629Y-116433370D01*
X164845949Y-116225488D01*
X164930990Y-116431303D01*
X165323630Y-116824629D01*
X165836900Y-117037757D01*
X166392661Y-117038242D01*
X166906303Y-116826010D01*
X167299629Y-116433370D01*
X167385949Y-116225488D01*
X167470990Y-116431303D01*
X167863630Y-116824629D01*
X168376900Y-117037757D01*
X168932661Y-117038242D01*
X169446303Y-116826010D01*
X169839629Y-116433370D01*
X169925949Y-116225488D01*
X170010990Y-116431303D01*
X170403630Y-116824629D01*
X170916900Y-117037757D01*
X171472661Y-117038242D01*
X171986303Y-116826010D01*
X172379629Y-116433370D01*
X172465949Y-116225488D01*
X172550990Y-116431303D01*
X172943630Y-116824629D01*
X173456900Y-117037757D01*
X174012661Y-117038242D01*
X174526303Y-116826010D01*
X174919629Y-116433370D01*
X175005949Y-116225488D01*
X175090990Y-116431303D01*
X175483630Y-116824629D01*
X175996900Y-117037757D01*
X176552661Y-117038242D01*
X177066303Y-116826010D01*
X177459629Y-116433370D01*
X177545949Y-116225488D01*
X177630990Y-116431303D01*
X178023630Y-116824629D01*
X178536900Y-117037757D01*
X179092661Y-117038242D01*
X179606303Y-116826010D01*
X179999629Y-116433370D01*
X180085949Y-116225488D01*
X180170990Y-116431303D01*
X180563630Y-116824629D01*
X181076900Y-117037757D01*
X181632661Y-117038242D01*
X182146303Y-116826010D01*
X182539629Y-116433370D01*
X182625949Y-116225488D01*
X182710990Y-116431303D01*
X183103630Y-116824629D01*
X183616900Y-117037757D01*
X184172661Y-117038242D01*
X184686303Y-116826010D01*
X185079629Y-116433370D01*
X185165949Y-116225488D01*
X185250990Y-116431303D01*
X185643630Y-116824629D01*
X186156900Y-117037757D01*
X186712661Y-117038242D01*
X187226303Y-116826010D01*
X187619629Y-116433370D01*
X187705949Y-116225488D01*
X187790990Y-116431303D01*
X188183630Y-116824629D01*
X188696900Y-117037757D01*
X189252661Y-117038242D01*
X189766303Y-116826010D01*
X190159629Y-116433370D01*
X190245949Y-116225488D01*
X190330990Y-116431303D01*
X190723630Y-116824629D01*
X191236900Y-117037757D01*
X191792661Y-117038242D01*
X192306303Y-116826010D01*
X192699629Y-116433370D01*
X192785949Y-116225488D01*
X192870990Y-116431303D01*
X193263630Y-116824629D01*
X193776900Y-117037757D01*
X194332661Y-117038242D01*
X194846303Y-116826010D01*
X195239629Y-116433370D01*
X195325949Y-116225488D01*
X195410990Y-116431303D01*
X195803630Y-116824629D01*
X196316900Y-117037757D01*
X196872661Y-117038242D01*
X197386303Y-116826010D01*
X197779629Y-116433370D01*
X197865949Y-116225488D01*
X197950990Y-116431303D01*
X198343630Y-116824629D01*
X198856900Y-117037757D01*
X199412661Y-117038242D01*
X199926303Y-116826010D01*
X200319629Y-116433370D01*
X200405949Y-116225488D01*
X200490990Y-116431303D01*
X200883630Y-116824629D01*
X201396900Y-117037757D01*
X201952661Y-117038242D01*
X202466303Y-116826010D01*
X202859629Y-116433370D01*
X203072757Y-115920100D01*
X203073242Y-115364339D01*
X202861010Y-114850697D01*
X202468370Y-114457371D01*
X201955100Y-114244243D01*
X201399339Y-114243758D01*
X200885697Y-114455990D01*
X200492371Y-114848630D01*
X200406051Y-115056512D01*
X200321010Y-114850697D01*
X199928370Y-114457371D01*
X199415100Y-114244243D01*
X198859339Y-114243758D01*
X198345697Y-114455990D01*
X197952371Y-114848630D01*
X197866051Y-115056512D01*
X197781010Y-114850697D01*
X197388370Y-114457371D01*
X196875100Y-114244243D01*
X196319339Y-114243758D01*
X195805697Y-114455990D01*
X195412371Y-114848630D01*
X195326051Y-115056512D01*
X195241010Y-114850697D01*
X194848370Y-114457371D01*
X194335100Y-114244243D01*
X193779339Y-114243758D01*
X193265697Y-114455990D01*
X192872371Y-114848630D01*
X192786051Y-115056512D01*
X192701010Y-114850697D01*
X192308370Y-114457371D01*
X191795100Y-114244243D01*
X191239339Y-114243758D01*
X190725697Y-114455990D01*
X190332371Y-114848630D01*
X190246051Y-115056512D01*
X190161010Y-114850697D01*
X189768370Y-114457371D01*
X189255100Y-114244243D01*
X188699339Y-114243758D01*
X188185697Y-114455990D01*
X187792371Y-114848630D01*
X187706051Y-115056512D01*
X187621010Y-114850697D01*
X187228370Y-114457371D01*
X186715100Y-114244243D01*
X186159339Y-114243758D01*
X185645697Y-114455990D01*
X185252371Y-114848630D01*
X185166051Y-115056512D01*
X185081010Y-114850697D01*
X184688370Y-114457371D01*
X184175100Y-114244243D01*
X183619339Y-114243758D01*
X183105697Y-114455990D01*
X182712371Y-114848630D01*
X182626051Y-115056512D01*
X182541010Y-114850697D01*
X182148370Y-114457371D01*
X181635100Y-114244243D01*
X181079339Y-114243758D01*
X180565697Y-114455990D01*
X180172371Y-114848630D01*
X180086051Y-115056512D01*
X180001010Y-114850697D01*
X179608370Y-114457371D01*
X179095100Y-114244243D01*
X178539339Y-114243758D01*
X178025697Y-114455990D01*
X177632371Y-114848630D01*
X177546051Y-115056512D01*
X177461010Y-114850697D01*
X177068370Y-114457371D01*
X176555100Y-114244243D01*
X175999339Y-114243758D01*
X175607200Y-114405786D01*
X175607200Y-111795940D01*
X175996900Y-111957757D01*
X176552661Y-111958242D01*
X177066303Y-111746010D01*
X177459629Y-111353370D01*
X177545949Y-111145488D01*
X177630990Y-111351303D01*
X178023630Y-111744629D01*
X178536900Y-111957757D01*
X179092661Y-111958242D01*
X179606303Y-111746010D01*
X179999629Y-111353370D01*
X180085949Y-111145488D01*
X180170990Y-111351303D01*
X180563630Y-111744629D01*
X181076900Y-111957757D01*
X181632661Y-111958242D01*
X182146303Y-111746010D01*
X182539629Y-111353370D01*
X182625949Y-111145488D01*
X182710990Y-111351303D01*
X183103630Y-111744629D01*
X183616900Y-111957757D01*
X184172661Y-111958242D01*
X184686303Y-111746010D01*
X185079629Y-111353370D01*
X185165949Y-111145488D01*
X185250990Y-111351303D01*
X185643630Y-111744629D01*
X186156900Y-111957757D01*
X186712661Y-111958242D01*
X187226303Y-111746010D01*
X187619629Y-111353370D01*
X187705949Y-111145488D01*
X187790990Y-111351303D01*
X188183630Y-111744629D01*
X188696900Y-111957757D01*
X189252661Y-111958242D01*
X189766303Y-111746010D01*
X190159629Y-111353370D01*
X190245949Y-111145488D01*
X190330990Y-111351303D01*
X190723630Y-111744629D01*
X191236900Y-111957757D01*
X191792661Y-111958242D01*
X192306303Y-111746010D01*
X192699629Y-111353370D01*
X192785949Y-111145488D01*
X192870990Y-111351303D01*
X193263630Y-111744629D01*
X193776900Y-111957757D01*
X194332661Y-111958242D01*
X194846303Y-111746010D01*
X195239629Y-111353370D01*
X195325949Y-111145488D01*
X195410990Y-111351303D01*
X195803630Y-111744629D01*
X196316900Y-111957757D01*
X196872661Y-111958242D01*
X197386303Y-111746010D01*
X197779629Y-111353370D01*
X197865949Y-111145488D01*
X197950990Y-111351303D01*
X198343630Y-111744629D01*
X198856900Y-111957757D01*
X199412661Y-111958242D01*
X199926303Y-111746010D01*
X200319629Y-111353370D01*
X200405949Y-111145488D01*
X200490990Y-111351303D01*
X200883630Y-111744629D01*
X201396900Y-111957757D01*
X201952661Y-111958242D01*
X202466303Y-111746010D01*
X202859629Y-111353370D01*
X203072757Y-110840100D01*
X203073242Y-110284339D01*
X202861010Y-109770697D01*
X202468370Y-109377371D01*
X201955100Y-109164243D01*
X201399339Y-109163758D01*
X200885697Y-109375990D01*
X200492371Y-109768630D01*
X200406051Y-109976512D01*
X200321010Y-109770697D01*
X199928370Y-109377371D01*
X199415100Y-109164243D01*
X198859339Y-109163758D01*
X198345697Y-109375990D01*
X197952371Y-109768630D01*
X197866051Y-109976512D01*
X197781010Y-109770697D01*
X197388370Y-109377371D01*
X196875100Y-109164243D01*
X196319339Y-109163758D01*
X195805697Y-109375990D01*
X195412371Y-109768630D01*
X195326051Y-109976512D01*
X195241010Y-109770697D01*
X194848370Y-109377371D01*
X194335100Y-109164243D01*
X193779339Y-109163758D01*
X193746945Y-109177143D01*
X188647600Y-104077798D01*
X188647600Y-96372286D01*
X188696900Y-96392757D01*
X189252661Y-96393242D01*
X189285055Y-96379857D01*
X189585099Y-96679901D01*
X189831661Y-96844648D01*
X190122500Y-96902500D01*
X202074000Y-96902500D01*
X202364839Y-96844648D01*
X202611401Y-96679901D01*
X207566701Y-91724601D01*
X207731448Y-91478040D01*
X207764228Y-91313242D01*
X207789300Y-91187200D01*
X207789300Y-81212163D01*
X207821492Y-81180027D01*
X207964138Y-80836499D01*
X207964462Y-80464533D01*
X207822417Y-80120757D01*
X207559627Y-79857508D01*
X207216099Y-79714862D01*
X207215840Y-79714862D01*
X207286901Y-79643801D01*
X207451648Y-79397239D01*
X207509500Y-79106400D01*
X207509500Y-57198900D01*
X207451648Y-56908061D01*
X207451648Y-56908060D01*
X207286901Y-56661499D01*
X207069440Y-56444038D01*
X207069440Y-54877600D01*
X207025162Y-54642283D01*
X206886090Y-54426159D01*
X206673890Y-54281169D01*
X206422000Y-54230160D01*
X204722000Y-54230160D01*
X204587138Y-54255536D01*
X204346501Y-54014899D01*
X204099939Y-53850152D01*
X203809100Y-53792300D01*
X187235200Y-53792300D01*
X186944361Y-53850152D01*
X186697799Y-54014899D01*
X186159498Y-54553200D01*
X185820285Y-54326546D01*
X185252000Y-54213507D01*
X184683715Y-54326546D01*
X184344442Y-54553240D01*
X183772601Y-53981399D01*
X183526039Y-53816652D01*
X183235200Y-53758800D01*
X172098300Y-53758800D01*
X171807460Y-53816652D01*
X171560899Y-53981399D01*
X170961220Y-54581078D01*
X170580285Y-54326546D01*
X170012000Y-54213507D01*
X169443715Y-54326546D01*
X168961946Y-54648453D01*
X168742000Y-54977626D01*
X168522054Y-54648453D01*
X168040285Y-54326546D01*
X167472000Y-54213507D01*
X166903715Y-54326546D01*
X166564502Y-54553200D01*
X166026201Y-54014899D01*
X165779639Y-53850152D01*
X165488800Y-53792300D01*
X156736300Y-53792300D01*
X156445461Y-53850152D01*
X156198899Y-54014899D01*
X155540599Y-54673199D01*
X155396000Y-54889607D01*
X155396000Y-53536930D01*
X155451478Y-53258021D01*
X155569856Y-53080855D01*
X155747019Y-52962479D01*
X156025931Y-52907000D01*
X207194070Y-52907000D01*
X207472979Y-52962478D01*
X207472979Y-52962478D01*
G37*
X207472979Y-52962478D02*
X207650145Y-53080856D01*
X207768521Y-53258019D01*
X207824000Y-53536931D01*
X207824000Y-61976000D01*
X207837643Y-62044587D01*
X207837643Y-62114514D01*
X207953651Y-62697725D01*
X207988476Y-62781800D01*
X208059664Y-62953664D01*
X208390025Y-63448086D01*
X208493854Y-63551914D01*
X208585915Y-63643975D01*
X209080336Y-63974336D01*
X209204037Y-64025574D01*
X209336276Y-64080349D01*
X209919486Y-64196358D01*
X209989416Y-64196358D01*
X210058000Y-64210000D01*
X212401073Y-64210000D01*
X212777182Y-64284814D01*
X213036749Y-64458250D01*
X213210188Y-64717820D01*
X213285000Y-65093927D01*
X213285000Y-66413263D01*
X213097798Y-65960199D01*
X212300995Y-65162005D01*
X211259390Y-64729493D01*
X210131558Y-64728509D01*
X209089199Y-65159202D01*
X208291005Y-65956005D01*
X207858493Y-66997610D01*
X207857509Y-68125442D01*
X208288202Y-69167801D01*
X209085005Y-69965995D01*
X210126610Y-70398507D01*
X211254442Y-70399491D01*
X212296801Y-69968798D01*
X213094995Y-69171995D01*
X213285000Y-68714412D01*
X213285000Y-127246263D01*
X213097798Y-126793199D01*
X212300995Y-125995005D01*
X211259390Y-125562493D01*
X210131558Y-125561509D01*
X209089199Y-125992202D01*
X208291005Y-126789005D01*
X207858493Y-127830610D01*
X207857509Y-128958442D01*
X208288202Y-130000801D01*
X209085005Y-130798995D01*
X210126610Y-131231507D01*
X210804887Y-131232099D01*
X210114760Y-131370000D01*
X132784931Y-131370000D01*
X132088975Y-131231566D01*
X133149442Y-131232491D01*
X134191801Y-130801798D01*
X134989995Y-130004995D01*
X135422507Y-128963390D01*
X135422789Y-128640000D01*
X136882560Y-128640000D01*
X136882560Y-130440000D01*
X136926838Y-130675317D01*
X137065910Y-130891441D01*
X137278110Y-131036431D01*
X137530000Y-131087440D01*
X139330000Y-131087440D01*
X139565317Y-131043162D01*
X139781441Y-130904090D01*
X139926431Y-130691890D01*
X139930567Y-130671466D01*
X140099357Y-130840551D01*
X140663330Y-131074733D01*
X141273991Y-131075265D01*
X141838371Y-130842068D01*
X142270551Y-130410643D01*
X142504733Y-129846670D01*
X142505265Y-129236009D01*
X142459515Y-129125287D01*
X142944802Y-128640000D01*
X143232560Y-128640000D01*
X143232560Y-130440000D01*
X143276838Y-130675317D01*
X143415910Y-130891441D01*
X143628110Y-131036431D01*
X143880000Y-131087440D01*
X145680000Y-131087440D01*
X145915317Y-131043162D01*
X146131441Y-130904090D01*
X146276431Y-130691890D01*
X146280567Y-130671466D01*
X146449357Y-130840551D01*
X147013330Y-131074733D01*
X147623991Y-131075265D01*
X148188371Y-130842068D01*
X148620551Y-130410643D01*
X148854733Y-129846670D01*
X148855265Y-129236009D01*
X148622068Y-128671629D01*
X148590495Y-128640000D01*
X149582560Y-128640000D01*
X149582560Y-130440000D01*
X149626838Y-130675317D01*
X149765910Y-130891441D01*
X149978110Y-131036431D01*
X150230000Y-131087440D01*
X152030000Y-131087440D01*
X152265317Y-131043162D01*
X152481441Y-130904090D01*
X152626431Y-130691890D01*
X152630567Y-130671466D01*
X152799357Y-130840551D01*
X153363330Y-131074733D01*
X153973991Y-131075265D01*
X154538371Y-130842068D01*
X154970551Y-130410643D01*
X155204733Y-129846670D01*
X155205265Y-129236009D01*
X154972068Y-128671629D01*
X154940495Y-128640000D01*
X188952560Y-128640000D01*
X188952560Y-130440000D01*
X188996838Y-130675317D01*
X189135910Y-130891441D01*
X189348110Y-131036431D01*
X189600000Y-131087440D01*
X191400000Y-131087440D01*
X191635317Y-131043162D01*
X191851441Y-130904090D01*
X191996431Y-130691890D01*
X192000567Y-130671466D01*
X192169357Y-130840551D01*
X192733330Y-131074733D01*
X193343991Y-131075265D01*
X193908371Y-130842068D01*
X194340551Y-130410643D01*
X194574733Y-129846670D01*
X194575265Y-129236009D01*
X194342068Y-128671629D01*
X194310495Y-128640000D01*
X195302560Y-128640000D01*
X195302560Y-130440000D01*
X195346838Y-130675317D01*
X195485910Y-130891441D01*
X195698110Y-131036431D01*
X195950000Y-131087440D01*
X197750000Y-131087440D01*
X197985317Y-131043162D01*
X198201441Y-130904090D01*
X198346431Y-130691890D01*
X198350567Y-130671466D01*
X198519357Y-130840551D01*
X199083330Y-131074733D01*
X199693991Y-131075265D01*
X200258371Y-130842068D01*
X200690551Y-130410643D01*
X200924733Y-129846670D01*
X200925265Y-129236009D01*
X200692068Y-128671629D01*
X200660495Y-128640000D01*
X201652560Y-128640000D01*
X201652560Y-130440000D01*
X201696838Y-130675317D01*
X201835910Y-130891441D01*
X202048110Y-131036431D01*
X202300000Y-131087440D01*
X204100000Y-131087440D01*
X204335317Y-131043162D01*
X204551441Y-130904090D01*
X204696431Y-130691890D01*
X204700567Y-130671466D01*
X204869357Y-130840551D01*
X205433330Y-131074733D01*
X206043991Y-131075265D01*
X206608371Y-130842068D01*
X207040551Y-130410643D01*
X207274733Y-129846670D01*
X207275265Y-129236009D01*
X207042068Y-128671629D01*
X206610643Y-128239449D01*
X206046670Y-128005267D01*
X205436009Y-128004735D01*
X204871629Y-128237932D01*
X204703387Y-128405880D01*
X204703162Y-128404683D01*
X204564090Y-128188559D01*
X204351890Y-128043569D01*
X204100000Y-127992560D01*
X202300000Y-127992560D01*
X202064683Y-128036838D01*
X201848559Y-128175910D01*
X201703569Y-128388110D01*
X201652560Y-128640000D01*
X200660495Y-128640000D01*
X200260643Y-128239449D01*
X199696670Y-128005267D01*
X199086009Y-128004735D01*
X198521629Y-128237932D01*
X198353387Y-128405880D01*
X198353162Y-128404683D01*
X198214090Y-128188559D01*
X198001890Y-128043569D01*
X197750000Y-127992560D01*
X195950000Y-127992560D01*
X195714683Y-128036838D01*
X195498559Y-128175910D01*
X195353569Y-128388110D01*
X195302560Y-128640000D01*
X194310495Y-128640000D01*
X193910643Y-128239449D01*
X193346670Y-128005267D01*
X192736009Y-128004735D01*
X192171629Y-128237932D01*
X192003387Y-128405880D01*
X192003162Y-128404683D01*
X191864090Y-128188559D01*
X191651890Y-128043569D01*
X191400000Y-127992560D01*
X189600000Y-127992560D01*
X189364683Y-128036838D01*
X189148559Y-128175910D01*
X189003569Y-128388110D01*
X188952560Y-128640000D01*
X154940495Y-128640000D01*
X154540643Y-128239449D01*
X153976670Y-128005267D01*
X153366009Y-128004735D01*
X152801629Y-128237932D01*
X152633387Y-128405880D01*
X152633162Y-128404683D01*
X152494090Y-128188559D01*
X152281890Y-128043569D01*
X152030000Y-127992560D01*
X150230000Y-127992560D01*
X149994683Y-128036838D01*
X149778559Y-128175910D01*
X149633569Y-128388110D01*
X149582560Y-128640000D01*
X148590495Y-128640000D01*
X148190643Y-128239449D01*
X147626670Y-128005267D01*
X147016009Y-128004735D01*
X146451629Y-128237932D01*
X146283387Y-128405880D01*
X146283162Y-128404683D01*
X146144090Y-128188559D01*
X145931890Y-128043569D01*
X145680000Y-127992560D01*
X143880000Y-127992560D01*
X143644683Y-128036838D01*
X143428559Y-128175910D01*
X143283569Y-128388110D01*
X143232560Y-128640000D01*
X142944802Y-128640000D01*
X144985302Y-126599500D01*
X169631900Y-126599500D01*
X169922739Y-126541648D01*
X170169301Y-126376901D01*
X174510681Y-122035522D01*
X174556167Y-122035562D01*
X174899943Y-121893517D01*
X175163192Y-121630727D01*
X175305838Y-121287199D01*
X175306162Y-120915233D01*
X175164117Y-120571457D01*
X174901327Y-120308208D01*
X174557799Y-120165562D01*
X174185833Y-120165238D01*
X173842057Y-120307283D01*
X173578808Y-120570073D01*
X173436162Y-120913601D01*
X173436121Y-120960476D01*
X169317098Y-125079500D01*
X144670500Y-125079500D01*
X144379660Y-125137352D01*
X144133099Y-125302099D01*
X141384964Y-128050234D01*
X141276670Y-128005267D01*
X140666009Y-128004735D01*
X140101629Y-128237932D01*
X139933387Y-128405880D01*
X139933162Y-128404683D01*
X139794090Y-128188559D01*
X139581890Y-128043569D01*
X139330000Y-127992560D01*
X137530000Y-127992560D01*
X137294683Y-128036838D01*
X137078559Y-128175910D01*
X136933569Y-128388110D01*
X136882560Y-128640000D01*
X135422789Y-128640000D01*
X135423491Y-127835558D01*
X134992798Y-126793199D01*
X134195995Y-125995005D01*
X133154390Y-125562493D01*
X132026558Y-125561509D01*
X130984199Y-125992202D01*
X130186005Y-126789005D01*
X129753493Y-127830610D01*
X129752565Y-128894821D01*
X129615000Y-128206380D01*
X129615000Y-68125442D01*
X129752509Y-68125442D01*
X130183202Y-69167801D01*
X130980005Y-69965995D01*
X132021610Y-70398507D01*
X133149442Y-70399491D01*
X134191801Y-69968798D01*
X134989995Y-69171995D01*
X135422507Y-68130390D01*
X135423491Y-67002558D01*
X134992798Y-65960199D01*
X134195995Y-65162005D01*
X133154390Y-64729493D01*
X132026558Y-64728509D01*
X130984199Y-65159202D01*
X130186005Y-65956005D01*
X129753493Y-66997610D01*
X129752509Y-68125442D01*
X129615000Y-68125442D01*
X129615000Y-67379925D01*
X129863824Y-66128999D01*
X130532804Y-65127798D01*
X131534274Y-64458639D01*
X132778590Y-64210000D01*
X153162000Y-64210000D01*
X153230587Y-64196357D01*
X153300514Y-64196357D01*
X153883725Y-64080349D01*
X153989738Y-64036437D01*
X154139664Y-63974336D01*
X154634086Y-63643975D01*
X154829974Y-63448086D01*
X154829975Y-63448085D01*
X155160336Y-62953664D01*
X155234796Y-62773900D01*
X155266349Y-62697724D01*
X155318000Y-62438060D01*
X155318000Y-65984300D01*
X150680263Y-65984300D01*
X150648127Y-65952108D01*
X150304599Y-65809462D01*
X149932633Y-65809138D01*
X149588857Y-65951183D01*
X149325608Y-66213973D01*
X149182962Y-66557501D01*
X149182638Y-66929467D01*
X149324683Y-67273243D01*
X149587473Y-67536492D01*
X149931001Y-67679138D01*
X150302967Y-67679462D01*
X150646743Y-67537417D01*
X150679918Y-67504300D01*
X155763198Y-67504300D01*
X162717698Y-74458800D01*
X155576102Y-74458800D01*
X153239522Y-72122220D01*
X153239562Y-72076733D01*
X153097517Y-71732957D01*
X152834727Y-71469708D01*
X152491199Y-71327062D01*
X152119233Y-71326738D01*
X151775457Y-71468783D01*
X151512208Y-71731573D01*
X151369562Y-72075101D01*
X151369238Y-72447067D01*
X151511283Y-72790843D01*
X151774073Y-73054092D01*
X152117601Y-73196738D01*
X152164477Y-73196779D01*
X154723899Y-75756201D01*
X154847218Y-75838600D01*
X144759600Y-75838600D01*
X144440060Y-75902160D01*
X144169166Y-76083166D01*
X140362466Y-79889866D01*
X140181461Y-80160759D01*
X140117900Y-80480300D01*
X140117900Y-87612900D01*
X140181461Y-87932441D01*
X140251032Y-88036561D01*
X140362466Y-88203334D01*
X140678098Y-88518966D01*
X140439339Y-88518758D01*
X139925697Y-88730990D01*
X139532371Y-89123630D01*
X139319243Y-89636900D01*
X139318758Y-90192661D01*
X139530990Y-90706303D01*
X139923630Y-91099629D01*
X140436900Y-91312757D01*
X140992661Y-91313242D01*
X141506303Y-91101010D01*
X141899629Y-90708370D01*
X141985949Y-90500488D01*
X142070990Y-90706303D01*
X142463630Y-91099629D01*
X142976900Y-91312757D01*
X143532661Y-91313242D01*
X143611600Y-91280625D01*
X143611600Y-93631009D01*
X143535100Y-93599243D01*
X142979339Y-93598758D01*
X142465697Y-93810990D01*
X142072371Y-94203630D01*
X142058930Y-94236000D01*
X141913531Y-94236000D01*
X141901010Y-94205697D01*
X141508370Y-93812371D01*
X140995100Y-93599243D01*
X140439339Y-93598758D01*
X139925697Y-93810990D01*
X139532371Y-94203630D01*
X139319243Y-94716900D01*
X139318758Y-95272661D01*
X139530990Y-95786303D01*
X139923630Y-96179629D01*
X140436900Y-96392757D01*
X140992661Y-96393242D01*
X141384700Y-96231255D01*
X141384700Y-109326019D01*
X140995100Y-109164243D01*
X140439339Y-109163758D01*
X139925697Y-109375990D01*
X139532371Y-109768630D01*
X139319243Y-110281900D01*
X139318758Y-110837661D01*
X139530990Y-111351303D01*
X139923630Y-111744629D01*
X140436900Y-111957757D01*
X140992661Y-111958242D01*
X141384700Y-111796255D01*
X141384700Y-114057370D01*
X141287261Y-114076752D01*
X141040699Y-114241499D01*
X141025381Y-114256817D01*
X140995100Y-114244243D01*
X140439339Y-114243758D01*
X139925697Y-114455990D01*
X139532371Y-114848630D01*
X139319243Y-115361900D01*
X139318758Y-115917661D01*
X139530990Y-116431303D01*
X139923630Y-116824629D01*
X140436900Y-117037757D01*
X140992661Y-117038242D01*
X141506303Y-116826010D01*
X141899629Y-116433370D01*
X141985949Y-116225488D01*
X142070990Y-116431303D01*
X142463630Y-116824629D01*
X142976900Y-117037757D01*
X143532661Y-117038242D01*
X144046303Y-116826010D01*
X144251457Y-116621213D01*
X144995392Y-116621213D01*
X145064857Y-116863397D01*
X145588302Y-117050144D01*
X146143368Y-117022362D01*
X146527143Y-116863397D01*
X146596608Y-116621213D01*
X145796000Y-115820605D01*
X144995392Y-116621213D01*
X144251457Y-116621213D01*
X144439629Y-116433370D01*
X144519395Y-116241273D01*
X144573603Y-116372143D01*
X144815787Y-116441608D01*
X145616395Y-115641000D01*
X144815787Y-114840392D01*
X144573603Y-114909857D01*
X144523491Y-115050318D01*
X144441010Y-114850697D01*
X144251432Y-114660787D01*
X144995392Y-114660787D01*
X145796000Y-115461395D01*
X146596608Y-114660787D01*
X146527143Y-114418603D01*
X146003698Y-114231856D01*
X145448632Y-114259638D01*
X145064857Y-114418603D01*
X144995392Y-114660787D01*
X144251432Y-114660787D01*
X144048370Y-114457371D01*
X143535100Y-114244243D01*
X142979339Y-114243758D01*
X142946945Y-114257143D01*
X142931301Y-114241499D01*
X142904700Y-114223725D01*
X142904700Y-111927777D01*
X142976900Y-111957757D01*
X143532661Y-111958242D01*
X144046303Y-111746010D01*
X144439629Y-111353370D01*
X144525949Y-111145488D01*
X144610990Y-111351303D01*
X145003630Y-111744629D01*
X145516900Y-111957757D01*
X146072661Y-111958242D01*
X146586303Y-111746010D01*
X146791457Y-111541213D01*
X147535392Y-111541213D01*
X147604857Y-111783397D01*
X148128302Y-111970144D01*
X148683368Y-111942362D01*
X149067143Y-111783397D01*
X149136608Y-111541213D01*
X148336000Y-110740605D01*
X147535392Y-111541213D01*
X146791457Y-111541213D01*
X146979629Y-111353370D01*
X147059395Y-111161273D01*
X147113603Y-111292143D01*
X147355787Y-111361608D01*
X148156395Y-110561000D01*
X148515605Y-110561000D01*
X149316213Y-111361608D01*
X149558397Y-111292143D01*
X149602453Y-111168656D01*
X149653603Y-111292143D01*
X149895787Y-111361608D01*
X150696395Y-110561000D01*
X149895787Y-109760392D01*
X149653603Y-109829857D01*
X149609547Y-109953344D01*
X149558397Y-109829857D01*
X149316213Y-109760392D01*
X148515605Y-110561000D01*
X148156395Y-110561000D01*
X147355787Y-109760392D01*
X147113603Y-109829857D01*
X147063491Y-109970318D01*
X146981010Y-109770697D01*
X146791432Y-109580787D01*
X147535392Y-109580787D01*
X148336000Y-110381395D01*
X149136608Y-109580787D01*
X149067143Y-109338603D01*
X148543698Y-109151856D01*
X147988632Y-109179638D01*
X147604857Y-109338603D01*
X147535392Y-109580787D01*
X146791432Y-109580787D01*
X146588370Y-109377371D01*
X146075100Y-109164243D01*
X145579679Y-109163811D01*
X145281600Y-108865732D01*
X145281600Y-96295723D01*
X145588302Y-96405144D01*
X146143368Y-96377362D01*
X146527143Y-96218397D01*
X146596608Y-95976213D01*
X145796000Y-95175605D01*
X145781858Y-95189748D01*
X145602253Y-95010143D01*
X145616395Y-94996000D01*
X145602253Y-94981858D01*
X145781858Y-94802253D01*
X145796000Y-94816395D01*
X146596608Y-94015787D01*
X146527143Y-93773603D01*
X146003698Y-93586856D01*
X145448632Y-93614638D01*
X145281600Y-93683825D01*
X145281600Y-91215052D01*
X145516900Y-91312757D01*
X146072661Y-91313242D01*
X146586303Y-91101010D01*
X146979629Y-90708370D01*
X147059395Y-90516273D01*
X147113603Y-90647143D01*
X147355787Y-90716608D01*
X148156395Y-89916000D01*
X147355787Y-89115392D01*
X147113603Y-89184857D01*
X147063491Y-89325318D01*
X146981010Y-89125697D01*
X146588370Y-88732371D01*
X146075100Y-88519243D01*
X145519339Y-88518758D01*
X145005697Y-88730990D01*
X144655075Y-89081000D01*
X144396391Y-89081000D01*
X144048370Y-88732371D01*
X143535100Y-88519243D01*
X143039679Y-88518811D01*
X141787900Y-87267032D01*
X141787900Y-86455418D01*
X141838367Y-86455462D01*
X142182143Y-86313417D01*
X142215318Y-86280300D01*
X145185298Y-86280300D01*
X147603463Y-88698465D01*
X147535392Y-88935787D01*
X148336000Y-89736395D01*
X148350143Y-89722253D01*
X148529748Y-89901858D01*
X148515605Y-89916000D01*
X148529748Y-89930143D01*
X148350143Y-90109748D01*
X148336000Y-90095605D01*
X147535392Y-90896213D01*
X147604857Y-91138397D01*
X148128302Y-91325144D01*
X148663400Y-91298361D01*
X148663400Y-93543400D01*
X148679857Y-93626132D01*
X148615100Y-93599243D01*
X148059339Y-93598758D01*
X147545697Y-93810990D01*
X147152371Y-94203630D01*
X147072605Y-94395727D01*
X147018397Y-94264857D01*
X146776213Y-94195392D01*
X145975605Y-94996000D01*
X146776213Y-95796608D01*
X147018397Y-95727143D01*
X147068509Y-95586682D01*
X147150990Y-95786303D01*
X147543630Y-96179629D01*
X148056900Y-96392757D01*
X148612661Y-96393242D01*
X149126303Y-96181010D01*
X149519629Y-95788370D01*
X149605949Y-95580488D01*
X149690990Y-95786303D01*
X150083630Y-96179629D01*
X150596900Y-96392757D01*
X151152661Y-96393242D01*
X151185055Y-96379857D01*
X151227200Y-96422002D01*
X151227200Y-109203053D01*
X151083698Y-109151856D01*
X150528632Y-109179638D01*
X150144857Y-109338603D01*
X150075392Y-109580787D01*
X150876000Y-110381395D01*
X150890143Y-110367253D01*
X151069748Y-110546858D01*
X151055605Y-110561000D01*
X151069748Y-110575143D01*
X150890143Y-110754748D01*
X150876000Y-110740605D01*
X150075392Y-111541213D01*
X150144857Y-111783397D01*
X150668302Y-111970144D01*
X151223368Y-111942362D01*
X151227200Y-111940775D01*
X151227200Y-114214998D01*
X151185381Y-114256817D01*
X151155100Y-114244243D01*
X150599339Y-114243758D01*
X150085697Y-114455990D01*
X149692371Y-114848630D01*
X149606051Y-115056512D01*
X149521010Y-114850697D01*
X149128370Y-114457371D01*
X148615100Y-114244243D01*
X148059339Y-114243758D01*
X147545697Y-114455990D01*
X147152371Y-114848630D01*
X147072605Y-115040727D01*
X147018397Y-114909857D01*
X146776213Y-114840392D01*
X145975605Y-115641000D01*
X146776213Y-116441608D01*
X147018397Y-116372143D01*
X147068509Y-116231682D01*
X147150990Y-116431303D01*
X147543630Y-116824629D01*
X148056900Y-117037757D01*
X148612661Y-117038242D01*
X149126303Y-116826010D01*
X149519629Y-116433370D01*
X149605949Y-116225488D01*
X149690990Y-116431303D01*
X150083630Y-116824629D01*
X150596900Y-117037757D01*
X151152661Y-117038242D01*
X151666303Y-116826010D01*
X152059629Y-116433370D01*
X152145949Y-116225488D01*
X152230990Y-116431303D01*
X152623630Y-116824629D01*
X153136900Y-117037757D01*
X153692661Y-117038242D01*
X154206303Y-116826010D01*
X154599629Y-116433370D01*
X154685949Y-116225488D01*
X154770990Y-116431303D01*
X155163630Y-116824629D01*
X155676900Y-117037757D01*
X156232661Y-117038242D01*
X156746303Y-116826010D01*
X157139629Y-116433370D01*
X157225949Y-116225488D01*
X157310990Y-116431303D01*
X157703630Y-116824629D01*
X158216900Y-117037757D01*
X158772661Y-117038242D01*
X159286303Y-116826010D01*
X159679629Y-116433370D01*
X159765949Y-116225488D01*
X159850990Y-116431303D01*
X160243630Y-116824629D01*
X160756900Y-117037757D01*
X161312661Y-117038242D01*
X161826303Y-116826010D01*
X162219629Y-116433370D01*
X162305949Y-116225488D01*
X162390990Y-116431303D01*
X162783630Y-116824629D01*
X163296900Y-117037757D01*
X163852661Y-117038242D01*
X164366303Y-116826010D01*
X164759629Y-116433370D01*
X164845949Y-116225488D01*
X164930990Y-116431303D01*
X165323630Y-116824629D01*
X165836900Y-117037757D01*
X166392661Y-117038242D01*
X166906303Y-116826010D01*
X167299629Y-116433370D01*
X167385949Y-116225488D01*
X167470990Y-116431303D01*
X167863630Y-116824629D01*
X168376900Y-117037757D01*
X168932661Y-117038242D01*
X169446303Y-116826010D01*
X169839629Y-116433370D01*
X169925949Y-116225488D01*
X170010990Y-116431303D01*
X170403630Y-116824629D01*
X170916900Y-117037757D01*
X171472661Y-117038242D01*
X171986303Y-116826010D01*
X172379629Y-116433370D01*
X172465949Y-116225488D01*
X172550990Y-116431303D01*
X172943630Y-116824629D01*
X173456900Y-117037757D01*
X174012661Y-117038242D01*
X174526303Y-116826010D01*
X174919629Y-116433370D01*
X175005949Y-116225488D01*
X175090990Y-116431303D01*
X175483630Y-116824629D01*
X175996900Y-117037757D01*
X176552661Y-117038242D01*
X177066303Y-116826010D01*
X177459629Y-116433370D01*
X177545949Y-116225488D01*
X177630990Y-116431303D01*
X178023630Y-116824629D01*
X178536900Y-117037757D01*
X179092661Y-117038242D01*
X179606303Y-116826010D01*
X179999629Y-116433370D01*
X180085949Y-116225488D01*
X180170990Y-116431303D01*
X180563630Y-116824629D01*
X181076900Y-117037757D01*
X181632661Y-117038242D01*
X182146303Y-116826010D01*
X182539629Y-116433370D01*
X182625949Y-116225488D01*
X182710990Y-116431303D01*
X183103630Y-116824629D01*
X183616900Y-117037757D01*
X184172661Y-117038242D01*
X184686303Y-116826010D01*
X185079629Y-116433370D01*
X185165949Y-116225488D01*
X185250990Y-116431303D01*
X185643630Y-116824629D01*
X186156900Y-117037757D01*
X186712661Y-117038242D01*
X187226303Y-116826010D01*
X187619629Y-116433370D01*
X187705949Y-116225488D01*
X187790990Y-116431303D01*
X188183630Y-116824629D01*
X188696900Y-117037757D01*
X189252661Y-117038242D01*
X189766303Y-116826010D01*
X190159629Y-116433370D01*
X190245949Y-116225488D01*
X190330990Y-116431303D01*
X190723630Y-116824629D01*
X191236900Y-117037757D01*
X191792661Y-117038242D01*
X192306303Y-116826010D01*
X192699629Y-116433370D01*
X192785949Y-116225488D01*
X192870990Y-116431303D01*
X193263630Y-116824629D01*
X193776900Y-117037757D01*
X194332661Y-117038242D01*
X194846303Y-116826010D01*
X195239629Y-116433370D01*
X195325949Y-116225488D01*
X195410990Y-116431303D01*
X195803630Y-116824629D01*
X196316900Y-117037757D01*
X196872661Y-117038242D01*
X197386303Y-116826010D01*
X197779629Y-116433370D01*
X197865949Y-116225488D01*
X197950990Y-116431303D01*
X198343630Y-116824629D01*
X198856900Y-117037757D01*
X199412661Y-117038242D01*
X199926303Y-116826010D01*
X200319629Y-116433370D01*
X200405949Y-116225488D01*
X200490990Y-116431303D01*
X200883630Y-116824629D01*
X201396900Y-117037757D01*
X201952661Y-117038242D01*
X202466303Y-116826010D01*
X202859629Y-116433370D01*
X203072757Y-115920100D01*
X203073242Y-115364339D01*
X202861010Y-114850697D01*
X202468370Y-114457371D01*
X201955100Y-114244243D01*
X201399339Y-114243758D01*
X200885697Y-114455990D01*
X200492371Y-114848630D01*
X200406051Y-115056512D01*
X200321010Y-114850697D01*
X199928370Y-114457371D01*
X199415100Y-114244243D01*
X198859339Y-114243758D01*
X198345697Y-114455990D01*
X197952371Y-114848630D01*
X197866051Y-115056512D01*
X197781010Y-114850697D01*
X197388370Y-114457371D01*
X196875100Y-114244243D01*
X196319339Y-114243758D01*
X195805697Y-114455990D01*
X195412371Y-114848630D01*
X195326051Y-115056512D01*
X195241010Y-114850697D01*
X194848370Y-114457371D01*
X194335100Y-114244243D01*
X193779339Y-114243758D01*
X193265697Y-114455990D01*
X192872371Y-114848630D01*
X192786051Y-115056512D01*
X192701010Y-114850697D01*
X192308370Y-114457371D01*
X191795100Y-114244243D01*
X191239339Y-114243758D01*
X190725697Y-114455990D01*
X190332371Y-114848630D01*
X190246051Y-115056512D01*
X190161010Y-114850697D01*
X189768370Y-114457371D01*
X189255100Y-114244243D01*
X188699339Y-114243758D01*
X188185697Y-114455990D01*
X187792371Y-114848630D01*
X187706051Y-115056512D01*
X187621010Y-114850697D01*
X187228370Y-114457371D01*
X186715100Y-114244243D01*
X186159339Y-114243758D01*
X185645697Y-114455990D01*
X185252371Y-114848630D01*
X185166051Y-115056512D01*
X185081010Y-114850697D01*
X184688370Y-114457371D01*
X184175100Y-114244243D01*
X183619339Y-114243758D01*
X183105697Y-114455990D01*
X182712371Y-114848630D01*
X182626051Y-115056512D01*
X182541010Y-114850697D01*
X182148370Y-114457371D01*
X181635100Y-114244243D01*
X181079339Y-114243758D01*
X180565697Y-114455990D01*
X180172371Y-114848630D01*
X180086051Y-115056512D01*
X180001010Y-114850697D01*
X179608370Y-114457371D01*
X179095100Y-114244243D01*
X178539339Y-114243758D01*
X178025697Y-114455990D01*
X177632371Y-114848630D01*
X177546051Y-115056512D01*
X177461010Y-114850697D01*
X177068370Y-114457371D01*
X176555100Y-114244243D01*
X175999339Y-114243758D01*
X175607200Y-114405786D01*
X175607200Y-111795940D01*
X175996900Y-111957757D01*
X176552661Y-111958242D01*
X177066303Y-111746010D01*
X177459629Y-111353370D01*
X177545949Y-111145488D01*
X177630990Y-111351303D01*
X178023630Y-111744629D01*
X178536900Y-111957757D01*
X179092661Y-111958242D01*
X179606303Y-111746010D01*
X179999629Y-111353370D01*
X180085949Y-111145488D01*
X180170990Y-111351303D01*
X180563630Y-111744629D01*
X181076900Y-111957757D01*
X181632661Y-111958242D01*
X182146303Y-111746010D01*
X182539629Y-111353370D01*
X182625949Y-111145488D01*
X182710990Y-111351303D01*
X183103630Y-111744629D01*
X183616900Y-111957757D01*
X184172661Y-111958242D01*
X184686303Y-111746010D01*
X185079629Y-111353370D01*
X185165949Y-111145488D01*
X185250990Y-111351303D01*
X185643630Y-111744629D01*
X186156900Y-111957757D01*
X186712661Y-111958242D01*
X187226303Y-111746010D01*
X187619629Y-111353370D01*
X187705949Y-111145488D01*
X187790990Y-111351303D01*
X188183630Y-111744629D01*
X188696900Y-111957757D01*
X189252661Y-111958242D01*
X189766303Y-111746010D01*
X190159629Y-111353370D01*
X190245949Y-111145488D01*
X190330990Y-111351303D01*
X190723630Y-111744629D01*
X191236900Y-111957757D01*
X191792661Y-111958242D01*
X192306303Y-111746010D01*
X192699629Y-111353370D01*
X192785949Y-111145488D01*
X192870990Y-111351303D01*
X193263630Y-111744629D01*
X193776900Y-111957757D01*
X194332661Y-111958242D01*
X194846303Y-111746010D01*
X195239629Y-111353370D01*
X195325949Y-111145488D01*
X195410990Y-111351303D01*
X195803630Y-111744629D01*
X196316900Y-111957757D01*
X196872661Y-111958242D01*
X197386303Y-111746010D01*
X197779629Y-111353370D01*
X197865949Y-111145488D01*
X197950990Y-111351303D01*
X198343630Y-111744629D01*
X198856900Y-111957757D01*
X199412661Y-111958242D01*
X199926303Y-111746010D01*
X200319629Y-111353370D01*
X200405949Y-111145488D01*
X200490990Y-111351303D01*
X200883630Y-111744629D01*
X201396900Y-111957757D01*
X201952661Y-111958242D01*
X202466303Y-111746010D01*
X202859629Y-111353370D01*
X203072757Y-110840100D01*
X203073242Y-110284339D01*
X202861010Y-109770697D01*
X202468370Y-109377371D01*
X201955100Y-109164243D01*
X201399339Y-109163758D01*
X200885697Y-109375990D01*
X200492371Y-109768630D01*
X200406051Y-109976512D01*
X200321010Y-109770697D01*
X199928370Y-109377371D01*
X199415100Y-109164243D01*
X198859339Y-109163758D01*
X198345697Y-109375990D01*
X197952371Y-109768630D01*
X197866051Y-109976512D01*
X197781010Y-109770697D01*
X197388370Y-109377371D01*
X196875100Y-109164243D01*
X196319339Y-109163758D01*
X195805697Y-109375990D01*
X195412371Y-109768630D01*
X195326051Y-109976512D01*
X195241010Y-109770697D01*
X194848370Y-109377371D01*
X194335100Y-109164243D01*
X193779339Y-109163758D01*
X193746945Y-109177143D01*
X188647600Y-104077798D01*
X188647600Y-96372286D01*
X188696900Y-96392757D01*
X189252661Y-96393242D01*
X189285055Y-96379857D01*
X189585099Y-96679901D01*
X189831661Y-96844648D01*
X190122500Y-96902500D01*
X202074000Y-96902500D01*
X202364839Y-96844648D01*
X202611401Y-96679901D01*
X207566701Y-91724601D01*
X207731448Y-91478040D01*
X207764228Y-91313242D01*
X207789300Y-91187200D01*
X207789300Y-81212163D01*
X207821492Y-81180027D01*
X207964138Y-80836499D01*
X207964462Y-80464533D01*
X207822417Y-80120757D01*
X207559627Y-79857508D01*
X207216099Y-79714862D01*
X207215840Y-79714862D01*
X207286901Y-79643801D01*
X207451648Y-79397239D01*
X207509500Y-79106400D01*
X207509500Y-57198900D01*
X207451648Y-56908061D01*
X207451648Y-56908060D01*
X207286901Y-56661499D01*
X207069440Y-56444038D01*
X207069440Y-54877600D01*
X207025162Y-54642283D01*
X206886090Y-54426159D01*
X206673890Y-54281169D01*
X206422000Y-54230160D01*
X204722000Y-54230160D01*
X204587138Y-54255536D01*
X204346501Y-54014899D01*
X204099939Y-53850152D01*
X203809100Y-53792300D01*
X187235200Y-53792300D01*
X186944361Y-53850152D01*
X186697799Y-54014899D01*
X186159498Y-54553200D01*
X185820285Y-54326546D01*
X185252000Y-54213507D01*
X184683715Y-54326546D01*
X184344442Y-54553240D01*
X183772601Y-53981399D01*
X183526039Y-53816652D01*
X183235200Y-53758800D01*
X172098300Y-53758800D01*
X171807460Y-53816652D01*
X171560899Y-53981399D01*
X170961220Y-54581078D01*
X170580285Y-54326546D01*
X170012000Y-54213507D01*
X169443715Y-54326546D01*
X168961946Y-54648453D01*
X168742000Y-54977626D01*
X168522054Y-54648453D01*
X168040285Y-54326546D01*
X167472000Y-54213507D01*
X166903715Y-54326546D01*
X166564502Y-54553200D01*
X166026201Y-54014899D01*
X165779639Y-53850152D01*
X165488800Y-53792300D01*
X156736300Y-53792300D01*
X156445461Y-53850152D01*
X156198899Y-54014899D01*
X155540599Y-54673199D01*
X155396000Y-54889607D01*
X155396000Y-53536930D01*
X155451478Y-53258021D01*
X155569856Y-53080855D01*
X155747019Y-52962479D01*
X156025931Y-52907000D01*
X207194070Y-52907000D01*
X207472979Y-52962478D01*
G36*
X181623398Y-85229200D02*
X175122800Y-85229200D01*
X174831961Y-85287052D01*
X174585399Y-85451799D01*
X171505381Y-88531817D01*
X171475100Y-88519243D01*
X171127862Y-88518940D01*
X175814363Y-83832439D01*
X176070467Y-83832662D01*
X176414243Y-83690617D01*
X176677492Y-83427827D01*
X176820138Y-83084299D01*
X176820462Y-82712333D01*
X176678417Y-82368557D01*
X176415627Y-82105308D01*
X176072099Y-81962662D01*
X175700133Y-81962338D01*
X175356357Y-82104383D01*
X175093108Y-82367173D01*
X175066893Y-82430305D01*
X172923187Y-84574011D01*
X172868417Y-84441457D01*
X172605627Y-84178208D01*
X172262099Y-84035562D01*
X171890133Y-84035238D01*
X171546357Y-84177283D01*
X171283108Y-84440073D01*
X171169338Y-84714060D01*
X167029899Y-88853499D01*
X167029654Y-88853866D01*
X166908370Y-88732371D01*
X166395100Y-88519243D01*
X165839339Y-88518758D01*
X165768400Y-88548069D01*
X165768400Y-86771263D01*
X165800592Y-86739127D01*
X165943238Y-86395599D01*
X165943562Y-86023633D01*
X165801517Y-85679857D01*
X165538727Y-85416608D01*
X165195199Y-85273962D01*
X164823233Y-85273638D01*
X164479457Y-85415683D01*
X164216208Y-85678473D01*
X164073562Y-86022001D01*
X164073238Y-86393967D01*
X164215283Y-86737743D01*
X164248400Y-86770918D01*
X164248400Y-88682555D01*
X163855100Y-88519243D01*
X163299339Y-88518758D01*
X162785697Y-88730990D01*
X162392371Y-89123630D01*
X162306051Y-89331512D01*
X162221010Y-89125697D01*
X161828370Y-88732371D01*
X161315100Y-88519243D01*
X160759339Y-88518758D01*
X160245697Y-88730990D01*
X159852371Y-89123630D01*
X159766051Y-89331512D01*
X159681010Y-89125697D01*
X159288370Y-88732371D01*
X158775100Y-88519243D01*
X158219339Y-88518758D01*
X157705697Y-88730990D01*
X157312371Y-89123630D01*
X157226051Y-89331512D01*
X157141010Y-89125697D01*
X156748370Y-88732371D01*
X156235100Y-88519243D01*
X155679339Y-88518758D01*
X155165697Y-88730990D01*
X154772371Y-89123630D01*
X154686051Y-89331512D01*
X154601010Y-89125697D01*
X154208370Y-88732371D01*
X153695100Y-88519243D01*
X153139339Y-88518758D01*
X152625697Y-88730990D01*
X152232371Y-89123630D01*
X152152605Y-89315727D01*
X152098397Y-89184857D01*
X151856213Y-89115392D01*
X151055605Y-89916000D01*
X151856213Y-90716608D01*
X152098397Y-90647143D01*
X152148509Y-90506682D01*
X152230990Y-90706303D01*
X152623630Y-91099629D01*
X153136900Y-91312757D01*
X153692661Y-91313242D01*
X153725055Y-91299857D01*
X153767200Y-91342002D01*
X153767200Y-93629181D01*
X153695100Y-93599243D01*
X153139339Y-93598758D01*
X152625697Y-93810990D01*
X152232371Y-94203630D01*
X152146051Y-94411512D01*
X152061010Y-94205697D01*
X151668370Y-93812371D01*
X151155100Y-93599243D01*
X150599339Y-93598758D01*
X150566945Y-93612143D01*
X150183400Y-93228598D01*
X150183400Y-91152148D01*
X150668302Y-91325144D01*
X151223368Y-91297362D01*
X151607143Y-91138397D01*
X151676608Y-90896213D01*
X150876000Y-90095605D01*
X150861858Y-90109748D01*
X150682253Y-89930143D01*
X150696395Y-89916000D01*
X150682253Y-89901858D01*
X150861858Y-89722253D01*
X150876000Y-89736395D01*
X151676608Y-88935787D01*
X151607143Y-88693603D01*
X151083698Y-88506856D01*
X150528632Y-88534638D01*
X150144857Y-88693603D01*
X150075393Y-88935785D01*
X149960382Y-88820774D01*
X149917879Y-88863277D01*
X146037501Y-84982899D01*
X145790939Y-84818152D01*
X145500100Y-84760300D01*
X142215663Y-84760300D01*
X142183527Y-84728108D01*
X141839999Y-84585462D01*
X141787900Y-84585417D01*
X141787900Y-82098011D01*
X141846067Y-82098062D01*
X142189843Y-81956017D01*
X142223018Y-81922900D01*
X178317098Y-81922900D01*
X181623398Y-85229200D01*
X181623398Y-85229200D01*
G37*
X181623398Y-85229200D02*
X175122800Y-85229200D01*
X174831961Y-85287052D01*
X174585399Y-85451799D01*
X171505381Y-88531817D01*
X171475100Y-88519243D01*
X171127862Y-88518940D01*
X175814363Y-83832439D01*
X176070467Y-83832662D01*
X176414243Y-83690617D01*
X176677492Y-83427827D01*
X176820138Y-83084299D01*
X176820462Y-82712333D01*
X176678417Y-82368557D01*
X176415627Y-82105308D01*
X176072099Y-81962662D01*
X175700133Y-81962338D01*
X175356357Y-82104383D01*
X175093108Y-82367173D01*
X175066893Y-82430305D01*
X172923187Y-84574011D01*
X172868417Y-84441457D01*
X172605627Y-84178208D01*
X172262099Y-84035562D01*
X171890133Y-84035238D01*
X171546357Y-84177283D01*
X171283108Y-84440073D01*
X171169338Y-84714060D01*
X167029899Y-88853499D01*
X167029654Y-88853866D01*
X166908370Y-88732371D01*
X166395100Y-88519243D01*
X165839339Y-88518758D01*
X165768400Y-88548069D01*
X165768400Y-86771263D01*
X165800592Y-86739127D01*
X165943238Y-86395599D01*
X165943562Y-86023633D01*
X165801517Y-85679857D01*
X165538727Y-85416608D01*
X165195199Y-85273962D01*
X164823233Y-85273638D01*
X164479457Y-85415683D01*
X164216208Y-85678473D01*
X164073562Y-86022001D01*
X164073238Y-86393967D01*
X164215283Y-86737743D01*
X164248400Y-86770918D01*
X164248400Y-88682555D01*
X163855100Y-88519243D01*
X163299339Y-88518758D01*
X162785697Y-88730990D01*
X162392371Y-89123630D01*
X162306051Y-89331512D01*
X162221010Y-89125697D01*
X161828370Y-88732371D01*
X161315100Y-88519243D01*
X160759339Y-88518758D01*
X160245697Y-88730990D01*
X159852371Y-89123630D01*
X159766051Y-89331512D01*
X159681010Y-89125697D01*
X159288370Y-88732371D01*
X158775100Y-88519243D01*
X158219339Y-88518758D01*
X157705697Y-88730990D01*
X157312371Y-89123630D01*
X157226051Y-89331512D01*
X157141010Y-89125697D01*
X156748370Y-88732371D01*
X156235100Y-88519243D01*
X155679339Y-88518758D01*
X155165697Y-88730990D01*
X154772371Y-89123630D01*
X154686051Y-89331512D01*
X154601010Y-89125697D01*
X154208370Y-88732371D01*
X153695100Y-88519243D01*
X153139339Y-88518758D01*
X152625697Y-88730990D01*
X152232371Y-89123630D01*
X152152605Y-89315727D01*
X152098397Y-89184857D01*
X151856213Y-89115392D01*
X151055605Y-89916000D01*
X151856213Y-90716608D01*
X152098397Y-90647143D01*
X152148509Y-90506682D01*
X152230990Y-90706303D01*
X152623630Y-91099629D01*
X153136900Y-91312757D01*
X153692661Y-91313242D01*
X153725055Y-91299857D01*
X153767200Y-91342002D01*
X153767200Y-93629181D01*
X153695100Y-93599243D01*
X153139339Y-93598758D01*
X152625697Y-93810990D01*
X152232371Y-94203630D01*
X152146051Y-94411512D01*
X152061010Y-94205697D01*
X151668370Y-93812371D01*
X151155100Y-93599243D01*
X150599339Y-93598758D01*
X150566945Y-93612143D01*
X150183400Y-93228598D01*
X150183400Y-91152148D01*
X150668302Y-91325144D01*
X151223368Y-91297362D01*
X151607143Y-91138397D01*
X151676608Y-90896213D01*
X150876000Y-90095605D01*
X150861858Y-90109748D01*
X150682253Y-89930143D01*
X150696395Y-89916000D01*
X150682253Y-89901858D01*
X150861858Y-89722253D01*
X150876000Y-89736395D01*
X151676608Y-88935787D01*
X151607143Y-88693603D01*
X151083698Y-88506856D01*
X150528632Y-88534638D01*
X150144857Y-88693603D01*
X150075393Y-88935785D01*
X149960382Y-88820774D01*
X149917879Y-88863277D01*
X146037501Y-84982899D01*
X145790939Y-84818152D01*
X145500100Y-84760300D01*
X142215663Y-84760300D01*
X142183527Y-84728108D01*
X141839999Y-84585462D01*
X141787900Y-84585417D01*
X141787900Y-82098011D01*
X141846067Y-82098062D01*
X142189843Y-81956017D01*
X142223018Y-81922900D01*
X178317098Y-81922900D01*
X181623398Y-85229200D01*
G36*
X165059000Y-58140600D02*
X165079000Y-58140600D01*
X165079000Y-58394600D01*
X165059000Y-58394600D01*
X165059000Y-59587755D01*
X165288890Y-59709076D01*
X165517300Y-59614471D01*
X165517300Y-61458237D01*
X165485108Y-61490373D01*
X165342462Y-61833901D01*
X165342138Y-62205867D01*
X165484183Y-62549643D01*
X165746973Y-62812892D01*
X166090501Y-62955538D01*
X166462467Y-62955862D01*
X166806243Y-62813817D01*
X167069492Y-62551027D01*
X167212138Y-62207499D01*
X167212462Y-61835533D01*
X167070417Y-61491757D01*
X167037300Y-61458582D01*
X167037300Y-59695226D01*
X167472000Y-59781693D01*
X168040285Y-59668654D01*
X168119753Y-59615555D01*
X173396499Y-64892301D01*
X173643060Y-65057048D01*
X173691314Y-65066646D01*
X173933900Y-65114900D01*
X179012737Y-65114900D01*
X179044873Y-65147092D01*
X179388401Y-65289738D01*
X179760367Y-65290062D01*
X180104143Y-65148017D01*
X180367392Y-64885227D01*
X180510038Y-64541699D01*
X180510079Y-64494823D01*
X182231002Y-62773900D01*
X188859498Y-62773900D01*
X184176198Y-67457200D01*
X180356946Y-67457200D01*
X180357062Y-67323833D01*
X180215017Y-66980057D01*
X179952227Y-66716808D01*
X179608699Y-66574162D01*
X179236733Y-66573838D01*
X178892957Y-66715883D01*
X178859782Y-66749000D01*
X165465269Y-66749000D01*
X165379627Y-66663208D01*
X165036099Y-66520562D01*
X164989223Y-66520521D01*
X163152000Y-64683298D01*
X163152000Y-59540554D01*
X163442054Y-59346747D01*
X163669702Y-59006047D01*
X163736817Y-59148958D01*
X164165076Y-59539245D01*
X164575110Y-59709076D01*
X164805000Y-59587755D01*
X164805000Y-58394600D01*
X164785000Y-58394600D01*
X164785000Y-58140600D01*
X164805000Y-58140600D01*
X164805000Y-58120600D01*
X165059000Y-58120600D01*
X165059000Y-58140600D01*
X165059000Y-58140600D01*
G37*
X165059000Y-58140600D02*
X165079000Y-58140600D01*
X165079000Y-58394600D01*
X165059000Y-58394600D01*
X165059000Y-59587755D01*
X165288890Y-59709076D01*
X165517300Y-59614471D01*
X165517300Y-61458237D01*
X165485108Y-61490373D01*
X165342462Y-61833901D01*
X165342138Y-62205867D01*
X165484183Y-62549643D01*
X165746973Y-62812892D01*
X166090501Y-62955538D01*
X166462467Y-62955862D01*
X166806243Y-62813817D01*
X167069492Y-62551027D01*
X167212138Y-62207499D01*
X167212462Y-61835533D01*
X167070417Y-61491757D01*
X167037300Y-61458582D01*
X167037300Y-59695226D01*
X167472000Y-59781693D01*
X168040285Y-59668654D01*
X168119753Y-59615555D01*
X173396499Y-64892301D01*
X173643060Y-65057048D01*
X173691314Y-65066646D01*
X173933900Y-65114900D01*
X179012737Y-65114900D01*
X179044873Y-65147092D01*
X179388401Y-65289738D01*
X179760367Y-65290062D01*
X180104143Y-65148017D01*
X180367392Y-64885227D01*
X180510038Y-64541699D01*
X180510079Y-64494823D01*
X182231002Y-62773900D01*
X188859498Y-62773900D01*
X184176198Y-67457200D01*
X180356946Y-67457200D01*
X180357062Y-67323833D01*
X180215017Y-66980057D01*
X179952227Y-66716808D01*
X179608699Y-66574162D01*
X179236733Y-66573838D01*
X178892957Y-66715883D01*
X178859782Y-66749000D01*
X165465269Y-66749000D01*
X165379627Y-66663208D01*
X165036099Y-66520562D01*
X164989223Y-66520521D01*
X163152000Y-64683298D01*
X163152000Y-59540554D01*
X163442054Y-59346747D01*
X163669702Y-59006047D01*
X163736817Y-59148958D01*
X164165076Y-59539245D01*
X164575110Y-59709076D01*
X164805000Y-59587755D01*
X164805000Y-58394600D01*
X164785000Y-58394600D01*
X164785000Y-58140600D01*
X164805000Y-58140600D01*
X164805000Y-58120600D01*
X165059000Y-58120600D01*
X165059000Y-58140600D01*
G36*
X182839000Y-58140600D02*
X182859000Y-58140600D01*
X182859000Y-58394600D01*
X182839000Y-58394600D01*
X182839000Y-59587755D01*
X183068890Y-59709076D01*
X183478924Y-59539245D01*
X183907183Y-59148958D01*
X183974298Y-59006047D01*
X184201946Y-59346747D01*
X184683715Y-59668654D01*
X185252000Y-59781693D01*
X185820285Y-59668654D01*
X186302054Y-59346747D01*
X186522000Y-59017574D01*
X186741946Y-59346747D01*
X187223715Y-59668654D01*
X187792000Y-59781693D01*
X188360285Y-59668654D01*
X188842054Y-59346747D01*
X189069702Y-59006047D01*
X189136817Y-59148958D01*
X189565076Y-59539245D01*
X189643267Y-59571631D01*
X188601098Y-60613800D01*
X172399563Y-60613800D01*
X172367427Y-60581608D01*
X172023899Y-60438962D01*
X171651933Y-60438638D01*
X171308157Y-60580683D01*
X171271289Y-60617487D01*
X170356160Y-59702358D01*
X170368890Y-59709076D01*
X170778924Y-59539245D01*
X171207183Y-59148958D01*
X171274298Y-59006047D01*
X171501946Y-59346747D01*
X171983715Y-59668654D01*
X172552000Y-59781693D01*
X173120285Y-59668654D01*
X173602054Y-59346747D01*
X173822000Y-59017574D01*
X174041946Y-59346747D01*
X174523715Y-59668654D01*
X175092000Y-59781693D01*
X175660285Y-59668654D01*
X176142054Y-59346747D01*
X176362000Y-59017574D01*
X176581946Y-59346747D01*
X177063715Y-59668654D01*
X177632000Y-59781693D01*
X178200285Y-59668654D01*
X178682054Y-59346747D01*
X178902000Y-59017574D01*
X179121946Y-59346747D01*
X179603715Y-59668654D01*
X180172000Y-59781693D01*
X180740285Y-59668654D01*
X181222054Y-59346747D01*
X181449702Y-59006047D01*
X181516817Y-59148958D01*
X181945076Y-59539245D01*
X182355110Y-59709076D01*
X182585000Y-59587755D01*
X182585000Y-58394600D01*
X182565000Y-58394600D01*
X182565000Y-58140600D01*
X182585000Y-58140600D01*
X182585000Y-58120600D01*
X182839000Y-58120600D01*
X182839000Y-58140600D01*
X182839000Y-58140600D01*
G37*
X182839000Y-58140600D02*
X182859000Y-58140600D01*
X182859000Y-58394600D01*
X182839000Y-58394600D01*
X182839000Y-59587755D01*
X183068890Y-59709076D01*
X183478924Y-59539245D01*
X183907183Y-59148958D01*
X183974298Y-59006047D01*
X184201946Y-59346747D01*
X184683715Y-59668654D01*
X185252000Y-59781693D01*
X185820285Y-59668654D01*
X186302054Y-59346747D01*
X186522000Y-59017574D01*
X186741946Y-59346747D01*
X187223715Y-59668654D01*
X187792000Y-59781693D01*
X188360285Y-59668654D01*
X188842054Y-59346747D01*
X189069702Y-59006047D01*
X189136817Y-59148958D01*
X189565076Y-59539245D01*
X189643267Y-59571631D01*
X188601098Y-60613800D01*
X172399563Y-60613800D01*
X172367427Y-60581608D01*
X172023899Y-60438962D01*
X171651933Y-60438638D01*
X171308157Y-60580683D01*
X171271289Y-60617487D01*
X170356160Y-59702358D01*
X170368890Y-59709076D01*
X170778924Y-59539245D01*
X171207183Y-59148958D01*
X171274298Y-59006047D01*
X171501946Y-59346747D01*
X171983715Y-59668654D01*
X172552000Y-59781693D01*
X173120285Y-59668654D01*
X173602054Y-59346747D01*
X173822000Y-59017574D01*
X174041946Y-59346747D01*
X174523715Y-59668654D01*
X175092000Y-59781693D01*
X175660285Y-59668654D01*
X176142054Y-59346747D01*
X176362000Y-59017574D01*
X176581946Y-59346747D01*
X177063715Y-59668654D01*
X177632000Y-59781693D01*
X178200285Y-59668654D01*
X178682054Y-59346747D01*
X178902000Y-59017574D01*
X179121946Y-59346747D01*
X179603715Y-59668654D01*
X180172000Y-59781693D01*
X180740285Y-59668654D01*
X181222054Y-59346747D01*
X181449702Y-59006047D01*
X181516817Y-59148958D01*
X181945076Y-59539245D01*
X182355110Y-59709076D01*
X182585000Y-59587755D01*
X182585000Y-58394600D01*
X182565000Y-58394600D01*
X182565000Y-58140600D01*
X182585000Y-58140600D01*
X182585000Y-58120600D01*
X182839000Y-58120600D01*
X182839000Y-58140600D01*
G36*
X200619000Y-58140600D02*
X200639000Y-58140600D01*
X200639000Y-58394600D01*
X200619000Y-58394600D01*
X200619000Y-58414600D01*
X200365000Y-58414600D01*
X200365000Y-58394600D01*
X200345000Y-58394600D01*
X200345000Y-58140600D01*
X200365000Y-58140600D01*
X200365000Y-58120600D01*
X200619000Y-58120600D01*
X200619000Y-58140600D01*
X200619000Y-58140600D01*
G37*
X200619000Y-58140600D02*
X200639000Y-58140600D01*
X200639000Y-58394600D01*
X200619000Y-58394600D01*
X200619000Y-58414600D01*
X200365000Y-58414600D01*
X200365000Y-58394600D01*
X200345000Y-58394600D01*
X200345000Y-58140600D01*
X200365000Y-58140600D01*
X200365000Y-58120600D01*
X200619000Y-58120600D01*
X200619000Y-58140600D01*
G36*
X190459000Y-58140600D02*
X190479000Y-58140600D01*
X190479000Y-58394600D01*
X190459000Y-58394600D01*
X190459000Y-58414600D01*
X190205000Y-58414600D01*
X190205000Y-58394600D01*
X190185000Y-58394600D01*
X190185000Y-58140600D01*
X190205000Y-58140600D01*
X190205000Y-58120600D01*
X190459000Y-58120600D01*
X190459000Y-58140600D01*
X190459000Y-58140600D01*
G37*
X190459000Y-58140600D02*
X190479000Y-58140600D01*
X190479000Y-58394600D01*
X190459000Y-58394600D01*
X190459000Y-58414600D01*
X190205000Y-58414600D01*
X190205000Y-58394600D01*
X190185000Y-58394600D01*
X190185000Y-58140600D01*
X190205000Y-58140600D01*
X190205000Y-58120600D01*
X190459000Y-58120600D01*
X190459000Y-58140600D01*
G36*
X170139000Y-58140600D02*
X170159000Y-58140600D01*
X170159000Y-58394600D01*
X170139000Y-58394600D01*
X170139000Y-58414600D01*
X169885000Y-58414600D01*
X169885000Y-58394600D01*
X169865000Y-58394600D01*
X169865000Y-58140600D01*
X169885000Y-58140600D01*
X169885000Y-58120600D01*
X170139000Y-58120600D01*
X170139000Y-58140600D01*
X170139000Y-58140600D01*
G37*
X170139000Y-58140600D02*
X170159000Y-58140600D01*
X170159000Y-58394600D01*
X170139000Y-58394600D01*
X170139000Y-58414600D01*
X169885000Y-58414600D01*
X169885000Y-58394600D01*
X169865000Y-58394600D01*
X169865000Y-58140600D01*
X169885000Y-58140600D01*
X169885000Y-58120600D01*
X170139000Y-58120600D01*
X170139000Y-58140600D01*
G36*
X195539000Y-55600600D02*
X195559000Y-55600600D01*
X195559000Y-55854600D01*
X195539000Y-55854600D01*
X195539000Y-55874600D01*
X195285000Y-55874600D01*
X195285000Y-55854600D01*
X195265000Y-55854600D01*
X195265000Y-55600600D01*
X195285000Y-55600600D01*
X195285000Y-55580600D01*
X195539000Y-55580600D01*
X195539000Y-55600600D01*
X195539000Y-55600600D01*
G37*
X195539000Y-55600600D02*
X195559000Y-55600600D01*
X195559000Y-55854600D01*
X195539000Y-55854600D01*
X195539000Y-55874600D01*
X195285000Y-55874600D01*
X195285000Y-55854600D01*
X195265000Y-55854600D01*
X195265000Y-55600600D01*
X195285000Y-55600600D01*
X195285000Y-55580600D01*
X195539000Y-55580600D01*
X195539000Y-55600600D01*
G36*
X175219000Y-55600600D02*
X175239000Y-55600600D01*
X175239000Y-55854600D01*
X175219000Y-55854600D01*
X175219000Y-55874600D01*
X174965000Y-55874600D01*
X174965000Y-55854600D01*
X174945000Y-55854600D01*
X174945000Y-55600600D01*
X174965000Y-55600600D01*
X174965000Y-55580600D01*
X175219000Y-55580600D01*
X175219000Y-55600600D01*
X175219000Y-55600600D01*
G37*
X175219000Y-55600600D02*
X175239000Y-55600600D01*
X175239000Y-55854600D01*
X175219000Y-55854600D01*
X175219000Y-55874600D01*
X174965000Y-55874600D01*
X174965000Y-55854600D01*
X174945000Y-55854600D01*
X174945000Y-55600600D01*
X174965000Y-55600600D01*
X174965000Y-55580600D01*
X175219000Y-55580600D01*
X175219000Y-55600600D01*
G36*
X157439000Y-55600600D02*
X157459000Y-55600600D01*
X157459000Y-55854600D01*
X157439000Y-55854600D01*
X157439000Y-55874600D01*
X157185000Y-55874600D01*
X157185000Y-55854600D01*
X157165000Y-55854600D01*
X157165000Y-55600600D01*
X157185000Y-55600600D01*
X157185000Y-55580600D01*
X157439000Y-55580600D01*
X157439000Y-55600600D01*
X157439000Y-55600600D01*
G37*
X157439000Y-55600600D02*
X157459000Y-55600600D01*
X157459000Y-55854600D01*
X157439000Y-55854600D01*
X157439000Y-55874600D01*
X157185000Y-55874600D01*
X157185000Y-55854600D01*
X157165000Y-55854600D01*
X157165000Y-55600600D01*
X157185000Y-55600600D01*
X157185000Y-55580600D01*
X157439000Y-55580600D01*
X157439000Y-55600600D01*
M02*
