G04 #@! TF.FileFunction,Soldermask,Top*
%FSLAX46Y46*%
G04 Gerber Fmt 4.6, Leading zero omitted, Abs format (unit mm)*
G04 Created by KiCad (PCBNEW 4.0.7) date 08/17/18 03:28:31*
%MOMM*%
%LPD*%
G01*
G04 APERTURE LIST*
%ADD10C,0.100000*%
%ADD11C,4.800000*%
%ADD12C,1.924000*%
%ADD13R,2.100000X2.100000*%
%ADD14O,2.100000X2.100000*%
%ADD15R,2.200000X2.200000*%
%ADD16C,2.200000*%
G04 APERTURE END LIST*
D10*
D11*
X210693000Y-67564000D03*
X132588000Y-67564000D03*
X132588000Y-128397000D03*
D12*
X201676000Y-110561000D03*
X201676000Y-115641000D03*
X199136000Y-110561000D03*
X199136000Y-115641000D03*
X196596000Y-110561000D03*
X196596000Y-115641000D03*
X194056000Y-110561000D03*
X194056000Y-115641000D03*
X191516000Y-110561000D03*
X191516000Y-115641000D03*
X188976000Y-110561000D03*
X188976000Y-115641000D03*
X186436000Y-110561000D03*
X186436000Y-115641000D03*
X183896000Y-110561000D03*
X183896000Y-115641000D03*
X181356000Y-110561000D03*
X181356000Y-115641000D03*
X178816000Y-110561000D03*
X178816000Y-115641000D03*
X176276000Y-110561000D03*
X176276000Y-115641000D03*
X173736000Y-110561000D03*
X173736000Y-115641000D03*
X171196000Y-110561000D03*
X171196000Y-115641000D03*
X168656000Y-110561000D03*
X168656000Y-115641000D03*
X166116000Y-110561000D03*
X166116000Y-115641000D03*
X163576000Y-110561000D03*
X163576000Y-115641000D03*
X161036000Y-110561000D03*
X161036000Y-115641000D03*
X158496000Y-110561000D03*
X158496000Y-115641000D03*
X155956000Y-110561000D03*
X155956000Y-115641000D03*
X153416000Y-110561000D03*
X153416000Y-115641000D03*
X150876000Y-110561000D03*
X150876000Y-115641000D03*
X148336000Y-110561000D03*
X148336000Y-115641000D03*
X145796000Y-110561000D03*
X145796000Y-115641000D03*
X143256000Y-110561000D03*
X143256000Y-115641000D03*
X140716000Y-110561000D03*
X140716000Y-115641000D03*
X201676000Y-89916000D03*
X201676000Y-94996000D03*
X199136000Y-89916000D03*
X199136000Y-94996000D03*
X196596000Y-89916000D03*
X196596000Y-94996000D03*
X194056000Y-89916000D03*
X194056000Y-94996000D03*
X191516000Y-89916000D03*
X191516000Y-94996000D03*
X188976000Y-89916000D03*
X188976000Y-94996000D03*
X186436000Y-89916000D03*
X186436000Y-94996000D03*
X183896000Y-89916000D03*
X183896000Y-94996000D03*
X181356000Y-89916000D03*
X181356000Y-94996000D03*
X178816000Y-89916000D03*
X178816000Y-94996000D03*
X176276000Y-89916000D03*
X176276000Y-94996000D03*
X173736000Y-89916000D03*
X173736000Y-94996000D03*
X171196000Y-89916000D03*
X171196000Y-94996000D03*
X168656000Y-89916000D03*
X168656000Y-94996000D03*
X166116000Y-89916000D03*
X166116000Y-94996000D03*
X163576000Y-89916000D03*
X163576000Y-94996000D03*
X161036000Y-89916000D03*
X161036000Y-94996000D03*
X158496000Y-89916000D03*
X158496000Y-94996000D03*
X155956000Y-89916000D03*
X155956000Y-94996000D03*
X153416000Y-89916000D03*
X153416000Y-94996000D03*
X150876000Y-89916000D03*
X150876000Y-94996000D03*
X148336000Y-89916000D03*
X148336000Y-94996000D03*
X145796000Y-89916000D03*
X145796000Y-94996000D03*
X143256000Y-89916000D03*
X143256000Y-94996000D03*
X140716000Y-89916000D03*
X140716000Y-94996000D03*
D13*
X205572000Y-55727600D03*
D14*
X205572000Y-58267600D03*
X203032000Y-55727600D03*
X203032000Y-58267600D03*
X200492000Y-55727600D03*
X200492000Y-58267600D03*
X197952000Y-55727600D03*
X197952000Y-58267600D03*
X195412000Y-55727600D03*
X195412000Y-58267600D03*
X192872000Y-55727600D03*
X192872000Y-58267600D03*
X190332000Y-55727600D03*
X190332000Y-58267600D03*
X187792000Y-55727600D03*
X187792000Y-58267600D03*
X185252000Y-55727600D03*
X185252000Y-58267600D03*
X182712000Y-55727600D03*
X182712000Y-58267600D03*
X180172000Y-55727600D03*
X180172000Y-58267600D03*
X177632000Y-55727600D03*
X177632000Y-58267600D03*
X175092000Y-55727600D03*
X175092000Y-58267600D03*
X172552000Y-55727600D03*
X172552000Y-58267600D03*
X170012000Y-55727600D03*
X170012000Y-58267600D03*
X167472000Y-55727600D03*
X167472000Y-58267600D03*
X164932000Y-55727600D03*
X164932000Y-58267600D03*
X162392000Y-55727600D03*
X162392000Y-58267600D03*
X159852000Y-55727600D03*
X159852000Y-58267600D03*
X157312000Y-55727600D03*
X157312000Y-58267600D03*
D15*
X203200000Y-129540000D03*
D16*
X205740000Y-129540000D03*
D15*
X196850000Y-129540000D03*
D16*
X199390000Y-129540000D03*
D15*
X144780000Y-129540000D03*
D16*
X147320000Y-129540000D03*
D15*
X151130000Y-129540000D03*
D16*
X153670000Y-129540000D03*
D15*
X190500000Y-129540000D03*
D16*
X193040000Y-129540000D03*
D15*
X138430000Y-129540000D03*
D16*
X140970000Y-129540000D03*
D11*
X210693000Y-128397000D03*
M02*
