  0
SECTION
  2
HEADER
  9
$ANGBASE
  50
0.0
  9
$ANGDIR
  70
  1
  9
$MEASUREMENT
  70
0
  0
ENDSEC
  0
SECTION
  2
TABLES
  0
TABLE
  2
LTYPE
  70
1
  0
LTYPE
  2
CONTINUOUS
  70
0
  3
Solid line
  72
65
  73
0
  40
0.0
  0
ENDTAB
  0
TABLE
  2
STYLE
  70
4
  0
STYLE
  2
KICAD
  70
0
  40
0
  41
1
  42
1
  50
0
  71
0
  3
isocp.shx
  0
STYLE
  2
KICADB
  70
0
  40
0
  41
1
  42
1
  50
0
  71
0
  3
isocp.shx
  0
STYLE
  2
KICADI
  70
0
  40
0
  41
1
  42
1
  50
15
  71
0
  3
isocp.shx
  0
STYLE
  2
KICADBI
  70
0
  40
0
  41
1
  42
1
  50
15
  71
0
  3
isocp.shx
  0
ENDTAB
  0
TABLE
  2
LAYER
  70
30
  0
LAYER
  2
BLACK
  70
0
  62
7
  6
CONTINUOUS
  0
LAYER
  2
GRAY1
  70
0
  62
251
  6
CONTINUOUS
  0
LAYER
  2
GRAY2
  70
0
  62
8
  6
CONTINUOUS
  0
LAYER
  2
GRAY3
  70
0
  62
9
  6
CONTINUOUS
  0
LAYER
  2
WHITE
  70
0
  62
7
  6
CONTINUOUS
  0
LAYER
  2
LYELLOW
  70
0
  62
51
  6
CONTINUOUS
  0
LAYER
  2
BLUE1
  70
0
  62
178
  6
CONTINUOUS
  0
LAYER
  2
GREEN1
  70
0
  62
98
  6
CONTINUOUS
  0
LAYER
  2
CYAN1
  70
0
  62
138
  6
CONTINUOUS
  0
LAYER
  2
RED1
  70
0
  62
18
  6
CONTINUOUS
  0
LAYER
  2
MAGENTA1
  70
0
  62
228
  6
CONTINUOUS
  0
LAYER
  2
BROWN1
  70
0
  62
58
  6
CONTINUOUS
  0
LAYER
  2
BLUE2
  70
0
  62
5
  6
CONTINUOUS
  0
LAYER
  2
GREEN2
  70
0
  62
3
  6
CONTINUOUS
  0
LAYER
  2
CYAN2
  70
0
  62
4
  6
CONTINUOUS
  0
LAYER
  2
RED2
  70
0
  62
1
  6
CONTINUOUS
  0
LAYER
  2
MAGENTA2
  70
0
  62
6
  6
CONTINUOUS
  0
LAYER
  2
BROWN2
  70
0
  62
54
  6
CONTINUOUS
  0
LAYER
  2
BLUE3
  70
0
  62
171
  6
CONTINUOUS
  0
LAYER
  2
GREEN3
  70
0
  62
91
  6
CONTINUOUS
  0
LAYER
  2
CYAN3
  70
0
  62
131
  6
CONTINUOUS
  0
LAYER
  2
RED3
  70
0
  62
11
  6
CONTINUOUS
  0
LAYER
  2
MAGENTA3
  70
0
  62
221
  6
CONTINUOUS
  0
LAYER
  2
YELLOW3
  70
0
  62
2
  6
CONTINUOUS
  0
LAYER
  2
BLUE4
  70
0
  62
5
  6
CONTINUOUS
  0
LAYER
  2
GREEN4
  70
0
  62
3
  6
CONTINUOUS
  0
LAYER
  2
CYAN4
  70
0
  62
4
  6
CONTINUOUS
  0
LAYER
  2
RED4
  70
0
  62
1
  6
CONTINUOUS
  0
LAYER
  2
MAGENTA4
  70
0
  62
6
  6
CONTINUOUS
  0
LAYER
  2
YELLOW4
  70
0
  62
2
  6
CONTINUOUS
  0
ENDTAB
  0
ENDSEC
  0
SECTION
  2
ENTITIES
0
LINE
8
Black
10
207.27
20
-52.8851
11
207.277
21
-52.8851
0
LINE
8
Black
10
207.277
20
-52.8851
11
207.711
21
-52.9617
0
LINE
8
Black
10
207.711
20
-52.9617
11
207.736
21
-52.9706
0
LINE
8
Black
10
207.736
20
-52.9706
11
207.736
21
-52.9706
0
LINE
8
Black
10
207.736
20
-52.9706
11
208.118
21
-53.1912
0
LINE
8
Black
10
208.118
20
-53.1912
11
208.138
21
-53.2079
0
LINE
8
Black
10
208.138
20
-53.2079
11
208.138
21
-53.2079
0
LINE
8
Black
10
208.138
20
-53.2079
11
208.421
21
-53.5458
0
LINE
8
Black
10
208.421
20
-53.5458
11
208.421
21
-53.5458
0
LINE
8
Black
10
208.421
20
-53.5458
11
208.434
21
-53.5683
0
LINE
8
Black
10
208.434
20
-53.5683
11
208.585
21
-53.9828
0
LINE
8
Black
10
208.585
20
-53.9828
11
208.587
21
-53.9925
0
LINE
8
Black
10
208.587
20
-53.9925
11
208.589
21
-54.0019
0
LINE
8
Black
10
208.589
20
-54.0019
11
208.609
21
-54.2225
0
LINE
8
Black
10
208.609
20
-54.2225
11
208.608
21
-54.2258
0
LINE
8
Black
10
208.608
20
-54.2258
11
208.609
21
-54.229
0
LINE
8
Black
10
208.609
20
-54.229
11
208.609
21
-61.9727
0
LINE
8
Black
10
208.609
20
-61.9727
11
208.631
21
-62.2243
0
LINE
8
Black
10
208.631
20
-62.2243
11
208.804
21
-62.6999
0
LINE
8
Black
10
208.804
20
-62.6999
11
209.127
21
-63.0851
0
LINE
8
Black
10
209.127
20
-63.0851
11
209.563
21
-63.3365
0
LINE
8
Black
10
209.563
20
-63.3365
11
210.071
21
-63.4261
0
LINE
8
Black
10
210.071
20
-63.4261
11
210.079
21
-63.4292
0
LINE
8
Black
10
210.079
20
-63.4292
11
211.371
21
-63.6127
0
LINE
8
Black
10
211.371
20
-63.6127
11
211.371
21
-63.6127
0
LINE
8
Black
10
211.371
20
-63.6127
11
211.387
21
-63.6182
0
LINE
8
Black
10
211.387
20
-63.6182
11
211.395
21
-63.6208
0
LINE
8
Black
10
211.395
20
-63.6208
11
211.395
21
-63.6208
0
LINE
8
Black
10
211.395
20
-63.6208
11
212.563
21
-64.2442
0
LINE
8
Black
10
212.563
20
-64.2442
11
212.563
21
-64.2442
0
LINE
8
Black
10
212.563
20
-64.2442
11
212.574
21
-64.2523
0
LINE
8
Black
10
212.574
20
-64.2523
11
212.584
21
-64.2603
0
LINE
8
Black
10
212.584
20
-64.2603
11
212.584
21
-64.2603
0
LINE
8
Black
10
212.584
20
-64.2603
11
213.468
21
-65.2456
0
LINE
8
Black
10
213.468
20
-65.2456
11
213.468
21
-65.2456
0
LINE
8
Black
10
213.468
20
-65.2456
11
213.47
21
-65.2494
0
LINE
8
Black
10
213.47
20
-65.2494
11
213.482
21
-65.2677
0
LINE
8
Black
10
213.482
20
-65.2677
11
213.482
21
-65.2677
0
LINE
8
Black
10
213.482
20
-65.2677
11
213.976
21
-66.496
0
LINE
8
Black
10
213.976
20
-66.496
11
213.978
21
-66.5062
0
LINE
8
Black
10
213.978
20
-66.5062
11
213.981
21
-66.5161
0
LINE
8
Black
10
213.981
20
-66.5161
11
214.063
21
-67.2962
0
LINE
8
Black
10
214.063
20
-67.2962
11
214.063
21
-67.3001
0
LINE
8
Black
10
214.063
20
-67.3001
11
214.063
21
-67.304
0
LINE
8
Black
10
214.063
20
-67.304
11
214.063
21
-131.064
0
LINE
8
Black
10
214.063
20
-131.064
11
214.062
21
-131.07
0
LINE
8
Black
10
214.062
20
-131.07
11
214.062
21
-131.077
0
LINE
8
Black
10
214.062
20
-131.077
11
213.832
21
-132.38
0
LINE
8
Black
10
213.832
20
-132.38
11
213.824
21
-132.405
0
LINE
8
Black
10
213.824
20
-132.405
11
213.162
21
-133.551
0
LINE
8
Black
10
213.162
20
-133.551
11
213.145
21
-133.57
0
LINE
8
Black
10
213.145
20
-133.57
11
213.145
21
-133.57
0
LINE
8
Black
10
213.145
20
-133.57
11
212.132
21
-134.421
0
LINE
8
Black
10
212.132
20
-134.421
11
212.132
21
-134.421
0
LINE
8
Black
10
212.132
20
-134.421
11
212.109
21
-134.434
0
LINE
8
Black
10
212.109
20
-134.434
11
210.866
21
-134.887
0
LINE
8
Black
10
210.866
20
-134.887
11
210.856
21
-134.888
0
LINE
8
Black
10
210.856
20
-134.888
11
210.847
21
-134.891
0
LINE
8
Black
10
210.847
20
-134.891
11
210.192
21
-134.949
0
LINE
8
Black
10
210.192
20
-134.949
11
210.188
21
-134.948
0
LINE
8
Black
10
210.188
20
-134.948
11
210.185
21
-134.949
0
LINE
8
Black
10
210.185
20
-134.949
11
119.634
21
-134.949
0
LINE
8
Black
10
119.634
20
-134.949
11
119.628
21
-134.948
0
LINE
8
Black
10
119.628
20
-134.948
11
119.621
21
-134.948
0
LINE
8
Black
10
119.621
20
-134.948
11
118.318
21
-134.718
0
LINE
8
Black
10
118.318
20
-134.718
11
118.293
21
-134.709
0
LINE
8
Black
10
118.293
20
-134.709
11
117.147
21
-134.048
0
LINE
8
Black
10
117.147
20
-134.048
11
117.128
21
-134.031
0
LINE
8
Black
10
117.128
20
-134.031
11
117.128
21
-134.031
0
LINE
8
Black
10
117.128
20
-134.031
11
116.277
21
-133.017
0
LINE
8
Black
10
116.277
20
-133.017
11
116.277
21
-133.017
0
LINE
8
Black
10
116.277
20
-133.017
11
116.264
21
-132.995
0
LINE
8
Black
10
116.264
20
-132.995
11
115.811
21
-131.751
0
LINE
8
Black
10
115.811
20
-131.751
11
115.81
21
-131.742
0
LINE
8
Black
10
115.81
20
-131.742
11
115.807
21
-131.732
0
LINE
8
Black
10
115.807
20
-131.732
11
115.749
21
-131.077
0
LINE
8
Black
10
115.749
20
-131.077
11
115.75
21
-131.074
0
LINE
8
Black
10
115.75
20
-131.074
11
115.749
21
-131.07
0
LINE
8
Black
10
115.749
20
-131.07
11
115.749
21
-67.31
0
LINE
8
Black
10
115.749
20
-67.31
11
115.754
21
-67.2843
0
LINE
8
Black
10
115.754
20
-67.2843
11
115.761
21
-67.2707
0
LINE
8
Black
10
115.761
20
-67.2707
11
115.987
21
-65.9939
0
LINE
8
Black
10
115.987
20
-65.9939
11
115.995
21
-65.9694
0
LINE
8
Black
10
115.995
20
-65.9694
11
116.657
21
-64.8235
0
LINE
8
Black
10
116.657
20
-64.8235
11
116.674
21
-64.8035
0
LINE
8
Black
10
116.674
20
-64.8035
11
116.674
21
-64.8035
0
LINE
8
Black
10
116.674
20
-64.8035
11
117.687
21
-63.953
0
LINE
8
Black
10
117.687
20
-63.953
11
117.687
21
-63.953
0
LINE
8
Black
10
117.687
20
-63.953
11
117.71
21
-63.94
0
LINE
8
Black
10
117.71
20
-63.94
11
118.953
21
-63.4874
0
LINE
8
Black
10
118.953
20
-63.4874
11
118.963
21
-63.4857
0
LINE
8
Black
10
118.963
20
-63.4857
11
118.972
21
-63.4832
0
LINE
8
Black
10
118.972
20
-63.4832
11
119.627
21
-63.4253
0
LINE
8
Black
10
119.627
20
-63.4253
11
119.631
21
-63.4256
0
LINE
8
Black
10
119.631
20
-63.4256
11
119.634
21
-63.425
0
LINE
8
Black
10
119.634
20
-63.425
11
153.159
21
-63.425
0
LINE
8
Black
10
153.159
20
-63.425
11
153.41
21
-63.403
0
LINE
8
Black
10
153.41
20
-63.403
11
153.886
21
-63.2299
0
LINE
8
Black
10
153.886
20
-63.2299
11
154.271
21
-62.9067
0
LINE
8
Black
10
154.271
20
-62.9067
11
154.523
21
-62.4712
0
LINE
8
Black
10
154.523
20
-62.4712
11
154.611
21
-61.9694
0
LINE
8
Black
10
154.611
20
-61.9694
11
154.611
21
-54.227
0
LINE
8
Black
10
154.611
20
-54.227
11
154.612
21
-54.2205
0
LINE
8
Black
10
154.612
20
-54.2205
11
154.612
21
-54.216
0
LINE
8
Black
10
154.612
20
-54.216
11
154.689
21
-53.7816
0
LINE
8
Black
10
154.689
20
-53.7816
11
154.698
21
-53.7571
0
LINE
8
Black
10
154.698
20
-53.7571
11
154.698
21
-53.7571
0
LINE
8
Black
10
154.698
20
-53.7571
11
154.918
21
-53.3752
0
LINE
8
Black
10
154.918
20
-53.3752
11
154.935
21
-53.3552
0
LINE
8
Black
10
154.935
20
-53.3552
11
154.935
21
-53.3552
0
LINE
8
Black
10
154.935
20
-53.3552
11
155.273
21
-53.0717
0
LINE
8
Black
10
155.273
20
-53.0717
11
155.273
21
-53.0717
0
LINE
8
Black
10
155.273
20
-53.0717
11
155.295
21
-53.0587
0
LINE
8
Black
10
155.295
20
-53.0587
11
155.71
21
-52.9078
0
LINE
8
Black
10
155.71
20
-52.9078
11
155.719
21
-52.9061
0
LINE
8
Black
10
155.719
20
-52.9061
11
155.729
21
-52.9036
0
LINE
8
Black
10
155.729
20
-52.9036
11
155.949
21
-52.8843
0
LINE
8
Black
10
155.949
20
-52.8843
11
155.953
21
-52.8846
0
LINE
8
Black
10
155.953
20
-52.8846
11
155.956
21
-52.884
0
LINE
8
Black
10
155.956
20
-52.884
11
207.264
21
-52.884
0
LINE
8
Black
10
207.264
20
-52.884
11
207.27
21
-52.8851
0
LINE
8
Black
10
155.959
20
-53.034
11
155.752
21
-53.0521
0
LINE
8
Black
10
155.752
20
-53.0521
11
155.359
21
-53.1951
0
LINE
8
Black
10
155.359
20
-53.1951
11
155.041
21
-53.4616
0
LINE
8
Black
10
155.041
20
-53.4616
11
154.834
21
-53.8207
0
LINE
8
Black
10
154.834
20
-53.8207
11
154.761
21
-54.2356
0
LINE
8
Black
10
154.761
20
-54.2356
11
154.761
21
-61.976
0
LINE
8
Black
10
154.761
20
-61.976
11
154.76
21
-61.9825
0
LINE
8
Black
10
154.76
20
-61.9825
11
154.76
21
-61.989
0
LINE
8
Black
10
154.76
20
-61.989
11
154.668
21
-62.5103
0
LINE
8
Black
10
154.668
20
-62.5103
11
154.659
21
-62.5347
0
LINE
8
Black
10
154.659
20
-62.5347
11
154.394
21
-62.9931
0
LINE
8
Black
10
154.394
20
-62.9931
11
154.378
21
-63.0131
0
LINE
8
Black
10
154.378
20
-63.0131
11
154.378
21
-63.0131
0
LINE
8
Black
10
154.378
20
-63.0131
11
153.972
21
-63.3533
0
LINE
8
Black
10
153.972
20
-63.3533
11
153.95
21
-63.3663
0
LINE
8
Black
10
153.95
20
-63.3663
11
153.452
21
-63.5473
0
LINE
8
Black
10
153.452
20
-63.5473
11
153.443
21
-63.549
0
LINE
8
Black
10
153.443
20
-63.549
11
153.433
21
-63.5516
0
LINE
8
Black
10
153.433
20
-63.5516
11
153.169
21
-63.5747
0
LINE
8
Black
10
153.169
20
-63.5747
11
153.165
21
-63.5744
0
LINE
8
Black
10
153.165
20
-63.5744
11
153.162
21
-63.575
0
LINE
8
Black
10
153.162
20
-63.575
11
119.637
21
-63.575
0
LINE
8
Black
10
119.637
20
-63.575
11
118.995
21
-63.6317
0
LINE
8
Black
10
118.995
20
-63.6317
11
117.774
21
-64.0764
0
LINE
8
Black
10
117.774
20
-64.0764
11
116.78
21
-64.9099
0
LINE
8
Black
10
116.78
20
-64.9099
11
116.132
21
-66.0329
0
LINE
8
Black
10
116.132
20
-66.0329
11
115.905
21
-67.323
0
LINE
8
Black
10
115.905
20
-67.323
11
115.899
21
-67.3382
0
LINE
8
Black
10
115.899
20
-67.3382
11
115.899
21
-131.067
0
LINE
8
Black
10
115.899
20
-131.067
11
115.956
21
-131.709
0
LINE
8
Black
10
115.956
20
-131.709
11
116.4
21
-132.931
0
LINE
8
Black
10
116.4
20
-132.931
11
117.234
21
-133.924
0
LINE
8
Black
10
117.234
20
-133.924
11
118.357
21
-134.573
0
LINE
8
Black
10
118.357
20
-134.573
11
119.641
21
-134.799
0
LINE
8
Black
10
119.641
20
-134.799
11
210.182
21
-134.799
0
LINE
8
Black
10
210.182
20
-134.799
11
210.824
21
-134.742
0
LINE
8
Black
10
210.824
20
-134.742
11
212.045
21
-134.298
0
LINE
8
Black
10
212.045
20
-134.298
11
213.039
21
-133.464
0
LINE
8
Black
10
213.039
20
-133.464
11
213.687
21
-132.341
0
LINE
8
Black
10
213.687
20
-132.341
11
213.913
21
-131.057
0
LINE
8
Black
10
213.913
20
-131.057
11
213.913
21
-67.3079
0
LINE
8
Black
10
213.913
20
-67.3079
11
213.833
21
-66.5422
0
LINE
8
Black
10
213.833
20
-66.5422
11
213.348
21
-65.3359
0
LINE
8
Black
10
213.348
20
-65.3359
11
212.481
21
-64.3703
0
LINE
8
Black
10
212.481
20
-64.3703
11
211.336
21
-63.7594
0
LINE
8
Black
10
211.336
20
-63.7594
11
210.039
21
-63.5749
0
LINE
8
Black
10
210.039
20
-63.5749
11
210.024
21
-63.5702
0
LINE
8
Black
10
210.024
20
-63.5702
11
209.524
21
-63.482
0
LINE
8
Black
10
209.524
20
-63.482
11
209.499
21
-63.473
0
LINE
8
Black
10
209.499
20
-63.473
11
209.041
21
-63.2084
0
LINE
8
Black
10
209.041
20
-63.2084
11
209.021
21
-63.1917
0
LINE
8
Black
10
209.021
20
-63.1917
11
209.021
21
-63.1917
0
LINE
8
Black
10
209.021
20
-63.1917
11
208.681
21
-62.7862
0
LINE
8
Black
10
208.681
20
-62.7862
11
208.668
21
-62.7637
0
LINE
8
Black
10
208.668
20
-62.7637
11
208.487
21
-62.2663
0
LINE
8
Black
10
208.487
20
-62.2663
11
208.485
21
-62.2566
0
LINE
8
Black
10
208.485
20
-62.2566
11
208.482
21
-62.2472
0
LINE
8
Black
10
208.482
20
-62.2472
11
208.459
21
-61.9825
0
LINE
8
Black
10
208.459
20
-61.9825
11
208.46
21
-61.9792
0
LINE
8
Black
10
208.46
20
-61.9792
11
208.459
21
-61.976
0
LINE
8
Black
10
208.459
20
-61.976
11
208.459
21
-54.2323
0
LINE
8
Black
10
208.459
20
-54.2323
11
208.441
21
-54.0248
0
LINE
8
Black
10
208.441
20
-54.0248
11
208.298
21
-53.6321
0
LINE
8
Black
10
208.298
20
-53.6321
11
208.031
21
-53.3145
0
LINE
8
Black
10
208.031
20
-53.3145
11
207.672
21
-53.1072
0
LINE
8
Black
10
207.672
20
-53.1072
11
207.257
21
-53.034
0
LINE
8
Black
10
207.257
20
-53.034
11
155.959
21
-53.034
  0
ENDSEC
  0
EOF
