G04 #@! TF.FileFunction,Soldermask,Top*
%FSLAX46Y46*%
G04 Gerber Fmt 4.6, Leading zero omitted, Abs format (unit mm)*
G04 Created by KiCad (PCBNEW 4.0.7) date 03/28/18 13:44:51*
%MOMM*%
%LPD*%
G01*
G04 APERTURE LIST*
%ADD10C,0.100000*%
%ADD11C,5.400000*%
%ADD12R,2.200000X8.400000*%
%ADD13R,2.200000X7.400000*%
%ADD14R,1.900000X0.700000*%
%ADD15R,0.700000X1.900000*%
%ADD16R,1.000000X2.350000*%
%ADD17R,1.900000X1.000000*%
%ADD18R,1.900000X1.650000*%
%ADD19R,1.650000X1.900000*%
%ADD20R,2.100000X2.100000*%
%ADD21O,2.100000X2.100000*%
%ADD22R,2.432000X2.127200*%
%ADD23O,2.432000X2.127200*%
%ADD24R,2.400000X1.500000*%
G04 APERTURE END LIST*
D10*
D11*
X185333640Y-98897440D03*
D12*
X187949840Y-109827440D03*
X185409840Y-109827440D03*
X182869840Y-109827440D03*
X180329840Y-109827440D03*
X177789840Y-109827440D03*
X175249840Y-109827440D03*
X172709840Y-109827440D03*
X170169840Y-109827440D03*
X167629840Y-109827440D03*
X165089840Y-109827440D03*
X162549840Y-109827440D03*
X160009840Y-109827440D03*
X157469840Y-109827440D03*
X154929840Y-109827440D03*
X152389840Y-109827440D03*
X149849840Y-109827440D03*
X147309840Y-109827440D03*
X144769840Y-109827440D03*
X142229840Y-109827440D03*
X139689840Y-109827440D03*
X137149840Y-109827440D03*
D13*
X134604760Y-109334680D03*
D12*
X132069840Y-109827440D03*
X129529840Y-109827440D03*
X126989840Y-109827440D03*
D11*
X129334260Y-93695520D03*
D14*
X119046000Y-65297800D03*
X119046000Y-65797800D03*
X119046000Y-66297800D03*
X119046000Y-66797800D03*
X119046000Y-67297800D03*
X119046000Y-67797800D03*
X119046000Y-68297800D03*
X119046000Y-68797800D03*
X119046000Y-69297800D03*
X119046000Y-69797800D03*
X119046000Y-70297800D03*
X119046000Y-70797800D03*
X119046000Y-71297800D03*
X119046000Y-71797800D03*
X119046000Y-72297800D03*
X119046000Y-72797800D03*
X119046000Y-73297800D03*
X119046000Y-73797800D03*
X119046000Y-74297800D03*
X119046000Y-74797800D03*
X119046000Y-75297800D03*
X119046000Y-75797800D03*
X119046000Y-76297800D03*
X119046000Y-76797800D03*
X119046000Y-77297800D03*
D15*
X120746000Y-78997800D03*
X121246000Y-78997800D03*
X121746000Y-78997800D03*
X122246000Y-78997800D03*
X122746000Y-78997800D03*
X123246000Y-78997800D03*
X123746000Y-78997800D03*
X124246000Y-78997800D03*
X124746000Y-78997800D03*
X125246000Y-78997800D03*
X125746000Y-78997800D03*
X126246000Y-78997800D03*
X126746000Y-78997800D03*
X127246000Y-78997800D03*
X127746000Y-78997800D03*
X128246000Y-78997800D03*
X128746000Y-78997800D03*
X129246000Y-78997800D03*
X129746000Y-78997800D03*
X130246000Y-78997800D03*
X130746000Y-78997800D03*
X131246000Y-78997800D03*
X131746000Y-78997800D03*
X132246000Y-78997800D03*
X132746000Y-78997800D03*
D14*
X134446000Y-77297800D03*
X134446000Y-76797800D03*
X134446000Y-76297800D03*
X134446000Y-75797800D03*
X134446000Y-75297800D03*
X134446000Y-74797800D03*
X134446000Y-74297800D03*
X134446000Y-73797800D03*
X134446000Y-73297800D03*
X134446000Y-72797800D03*
X134446000Y-72297800D03*
X134446000Y-71797800D03*
X134446000Y-71297800D03*
X134446000Y-70797800D03*
X134446000Y-70297800D03*
X134446000Y-69797800D03*
X134446000Y-69297800D03*
X134446000Y-68797800D03*
X134446000Y-68297800D03*
X134446000Y-67797800D03*
X134446000Y-67297800D03*
X134446000Y-66797800D03*
X134446000Y-66297800D03*
X134446000Y-65797800D03*
X134446000Y-65297800D03*
D15*
X132746000Y-63597800D03*
X132246000Y-63597800D03*
X131746000Y-63597800D03*
X131246000Y-63597800D03*
X130746000Y-63597800D03*
X130246000Y-63597800D03*
X129746000Y-63597800D03*
X129246000Y-63597800D03*
X128746000Y-63597800D03*
X128246000Y-63597800D03*
X127746000Y-63597800D03*
X127246000Y-63597800D03*
X126746000Y-63597800D03*
X126246000Y-63597800D03*
X125746000Y-63597800D03*
X125246000Y-63597800D03*
X124746000Y-63597800D03*
X124246000Y-63597800D03*
X123746000Y-63597800D03*
X123246000Y-63597800D03*
X122746000Y-63597800D03*
X122246000Y-63597800D03*
X121746000Y-63597800D03*
X121246000Y-63597800D03*
X120746000Y-63597800D03*
D16*
X166116000Y-89916000D03*
X164846000Y-89916000D03*
X163576000Y-89916000D03*
X162306000Y-89916000D03*
X161036000Y-89916000D03*
X159766000Y-89916000D03*
X158496000Y-89916000D03*
X157226000Y-89916000D03*
X155956000Y-89916000D03*
X154686000Y-89916000D03*
X154686000Y-99316000D03*
X155956000Y-99316000D03*
X157226000Y-99316000D03*
X158496000Y-99316000D03*
X159766000Y-99316000D03*
X161036000Y-99316000D03*
X162306000Y-99316000D03*
X163576000Y-99316000D03*
X164846000Y-99316000D03*
X166116000Y-99316000D03*
X146685000Y-89916000D03*
X145415000Y-89916000D03*
X144145000Y-89916000D03*
X142875000Y-89916000D03*
X141605000Y-89916000D03*
X140335000Y-89916000D03*
X139065000Y-89916000D03*
X137795000Y-89916000D03*
X136525000Y-89916000D03*
X135255000Y-89916000D03*
X135255000Y-99316000D03*
X136525000Y-99316000D03*
X137795000Y-99316000D03*
X139065000Y-99316000D03*
X140335000Y-99316000D03*
X141605000Y-99316000D03*
X142875000Y-99316000D03*
X144145000Y-99316000D03*
X145415000Y-99316000D03*
X146685000Y-99316000D03*
D17*
X191661000Y-90449400D03*
X191661000Y-91719400D03*
X191661000Y-92989400D03*
X191661000Y-94259400D03*
X191661000Y-95529400D03*
X191661000Y-96799400D03*
X191661000Y-98069400D03*
X197061000Y-98069400D03*
X197061000Y-96799400D03*
X197061000Y-95529400D03*
X197061000Y-94259400D03*
X197061000Y-92989400D03*
X197061000Y-91719400D03*
X197061000Y-90449400D03*
D18*
X130688400Y-99314000D03*
X128188400Y-99314000D03*
X130663000Y-102616000D03*
X128163000Y-102616000D03*
D19*
X150672800Y-98303400D03*
X150672800Y-95803400D03*
D18*
X195941000Y-87312500D03*
X193441000Y-87312500D03*
D20*
X195326000Y-76327000D03*
D21*
X195326000Y-78867000D03*
X192786000Y-76327000D03*
X192786000Y-78867000D03*
X190246000Y-76327000D03*
X190246000Y-78867000D03*
X187706000Y-76327000D03*
X187706000Y-78867000D03*
X185166000Y-76327000D03*
X185166000Y-78867000D03*
X182626000Y-76327000D03*
X182626000Y-78867000D03*
X180086000Y-76327000D03*
X180086000Y-78867000D03*
X177546000Y-76327000D03*
X177546000Y-78867000D03*
X175006000Y-76327000D03*
X175006000Y-78867000D03*
X172466000Y-76327000D03*
X172466000Y-78867000D03*
X169926000Y-76327000D03*
X169926000Y-78867000D03*
X167386000Y-76327000D03*
X167386000Y-78867000D03*
X164846000Y-76327000D03*
X164846000Y-78867000D03*
X162306000Y-76327000D03*
X162306000Y-78867000D03*
X159766000Y-76327000D03*
X159766000Y-78867000D03*
X157226000Y-76327000D03*
X157226000Y-78867000D03*
X154686000Y-76327000D03*
X154686000Y-78867000D03*
X152146000Y-76327000D03*
X152146000Y-78867000D03*
X149606000Y-76327000D03*
X149606000Y-78867000D03*
X147066000Y-76327000D03*
X147066000Y-78867000D03*
D22*
X112268000Y-90424000D03*
D23*
X112268000Y-87884000D03*
X112268000Y-85344000D03*
X112268000Y-82804000D03*
X112268000Y-80264000D03*
X112268000Y-77724000D03*
X112268000Y-75184000D03*
D24*
X109614000Y-54180000D03*
X109614000Y-55880000D03*
X109614000Y-57580000D03*
X114414000Y-57580000D03*
X114414000Y-55880000D03*
X114414000Y-54180000D03*
M02*
