M48
;DRILL file {KiCad 4.0.7} date 03/26/18 01:39:37
;FORMAT={-:-/ absolute / inch / decimal}
FMAT,2
INCH,TZ
T1C0.016
T2C0.030
%
G90
G05
M72
T1
X4.4933Y-2.13
X4.4933Y-2.27
X4.4945Y-2.2
X4.6049Y-3.0096
X4.6363Y-2.8149
X4.7431Y-2.9692
X4.7487Y-3.1599
X4.7729Y-2.6819
X4.8269Y-3.0597
X4.8922Y-3.0583
X4.9113Y-3.1695
X4.9339Y-2.5753
X4.964Y-3.0605
X5.0411Y-3.06
X5.0838Y-3.0597
X5.1038Y-2.5756
X5.138Y-2.6251
X5.1388Y-2.5539
X5.142Y-4.037
X5.144Y-3.91
X5.1475Y-3.0279
X5.2434Y-2.7676
X5.2568Y-3.4879
X5.3492Y-2.8721
X5.3525Y-3.8393
X5.4266Y-4.1464
X5.4392Y-4.0145
X5.4828Y-3.8338
X5.5184Y-4.0149
X5.5736Y-2.6363
X5.5902Y-3.4818
X5.6161Y-4.079
X5.6415Y-3.1796
X5.6731Y-3.1733
X5.677Y-2.6261
X5.6785Y-3.0272
X5.7629Y-4.0791
X5.775Y-3.8182
X5.8443Y-2.6261
X5.8476Y-4.0815
X5.8779Y-4.0136
X6.1139Y-3.9862
X6.1591Y-3.3785
X6.1654Y-4.0416
X6.259Y-3.9696
X6.3347Y-3.3009
X6.3504Y-4.1519
X6.4136Y-3.9676
X6.45Y-3.8192
X6.5122Y-3.2462
X6.5328Y-3.2223
X6.5361Y-3.5987
X6.5545Y-3.1995
X6.5561Y-3.852
X6.6121Y-3.1971
X6.6541Y-3.7191
X6.7598Y-4.0868
X6.8534Y-4.1479
X7.1356Y-4.1338
X7.4961Y-3.611
X7.545Y-3.6027
X7.5457Y-3.561
X7.5457Y-3.661
X7.5457Y-3.811
X7.546Y-3.7683
X7.547Y-3.716
X7.6125Y-3.435
T2
X4.42Y-2.96
X4.42Y-3.06
X4.42Y-3.16
X4.42Y-3.26
X4.42Y-3.36
X4.42Y-3.46
X4.42Y-3.56
X5.79Y-3.005
X5.79Y-3.105
X5.89Y-3.005
X5.89Y-3.105
X5.99Y-3.005
X5.99Y-3.105
X6.09Y-3.005
X6.09Y-3.105
X6.19Y-3.005
X6.19Y-3.105
X6.29Y-3.005
X6.29Y-3.105
X6.39Y-3.005
X6.39Y-3.105
X6.49Y-3.005
X6.49Y-3.105
X6.59Y-3.005
X6.59Y-3.105
X6.69Y-3.005
X6.69Y-3.105
X6.79Y-3.005
X6.79Y-3.105
X6.89Y-3.005
X6.89Y-3.105
X6.99Y-3.005
X6.99Y-3.105
X7.09Y-3.005
X7.09Y-3.105
X7.19Y-3.005
X7.19Y-3.105
X7.29Y-3.005
X7.29Y-3.105
X7.39Y-3.005
X7.39Y-3.105
X7.49Y-3.005
X7.49Y-3.105
X7.59Y-3.005
X7.59Y-3.105
X7.69Y-3.005
X7.69Y-3.105
T0
M30
