G04 #@! TF.FileFunction,Profile,NP*
%FSLAX46Y46*%
G04 Gerber Fmt 4.6, Leading zero omitted, Abs format (unit mm)*
G04 Created by KiCad (PCBNEW 4.0.7) date 03/28/18 13:44:51*
%MOMM*%
%LPD*%
G01*
G04 APERTURE LIST*
%ADD10C,0.100000*%
%ADD11C,0.150000*%
G04 APERTURE END LIST*
D10*
D11*
X106934000Y-92837000D02*
X113157000Y-92837000D01*
X114300000Y-102743000D02*
X114300000Y-93980000D01*
X114300000Y-93980000D02*
G75*
G03X113157000Y-92837000I-1143000J0D01*
G01*
X105791000Y-91694000D02*
G75*
G03X106934000Y-92837000I1143000J0D01*
G01*
X124942600Y-112915700D02*
X124942600Y-105041700D01*
X115443000Y-103886000D02*
X123799600Y-103898700D01*
X114300000Y-102743000D02*
G75*
G03X115443000Y-103886000I1143000J0D01*
G01*
X124942600Y-105041700D02*
G75*
G03X123799600Y-103898700I-1143000J0D01*
G01*
X191223900Y-103886000D02*
X200787000Y-103886000D01*
X201930000Y-102743000D02*
G75*
G02X200787000Y-103886000I-1143000J0D01*
G01*
X190080900Y-112915700D02*
X190080900Y-105029000D01*
X190080900Y-105029000D02*
G75*
G02X191223900Y-103886000I1143000J0D01*
G01*
X201930000Y-50800000D02*
G75*
G03X200787000Y-49657000I-1143000J0D01*
G01*
X106934000Y-49657000D02*
G75*
G03X105791000Y-50800000I0J-1143000D01*
G01*
X190080900Y-112915700D02*
G75*
G02X188937900Y-114058700I-1143000J0D01*
G01*
X124942600Y-112915700D02*
G75*
G03X126085600Y-114058700I1143000J0D01*
G01*
X201930000Y-102743000D02*
X201930000Y-50800000D01*
X126085600Y-114058700D02*
X188937900Y-114058700D01*
X105791000Y-50800000D02*
X105791000Y-91694000D01*
X200787000Y-49657000D02*
X106934000Y-49657000D01*
M02*
