M48
;DRILL file {KiCad 4.0.7} date 03/28/18 09:23:36
;FORMAT={-:-/ absolute / inch / decimal}
FMAT,2
INCH,TZ
T1C0.016
T2C0.030
T3C0.031
%
G90
G05
M72
T1
X5.9031Y-3.6876
X6.0331Y-3.6736
X6.2351Y-3.8374
X6.3073Y-3.3278
X6.3376Y-4.1819
X6.341Y-4.2664
X6.3572Y-4.1569
X6.3615Y-4.1254
X6.3863Y-3.2424
X6.4143Y-4.062
X6.4245Y-3.8154
X6.4805Y-4.105
X6.4993Y-3.9306
X6.5031Y-4.0437
X6.5647Y-4.0803
X6.5707Y-3.4831
X6.6002Y-4.305
X6.6343Y-4.0463
X6.6984Y-3.9215
X6.717Y-3.6732
X6.7453Y-4.1912
X6.7558Y-4.3954
X6.8655Y-3.8325
X6.8926Y-3.8817
X6.9789Y-4.5025
X7.0568Y-3.9254
X7.0888Y-4.3747
X7.0903Y-3.6742
X7.1171Y-3.9259
X7.1224Y-4.352
X7.2267Y-3.9267
X7.3497Y-4.3229
X7.3568Y-3.9252
X7.6354Y-4.1706
X7.6912Y-4.0157
T2
X5.6125Y-4.46
X5.6125Y-4.56
X5.7125Y-4.46
X5.7125Y-4.56
X5.8125Y-4.46
X5.8125Y-4.56
X5.9125Y-4.46
X5.9125Y-4.56
X6.0125Y-4.46
X6.0125Y-4.56
X6.1125Y-4.46
X6.1125Y-4.56
X6.2125Y-4.46
X6.2125Y-4.56
X6.3125Y-4.46
X6.3125Y-4.56
X6.4125Y-4.46
X6.4125Y-4.56
X6.5125Y-4.46
X6.5125Y-4.56
X6.6125Y-4.46
X6.6125Y-4.56
X6.7125Y-4.46
X6.7125Y-4.56
X6.8125Y-4.46
X6.8125Y-4.56
X6.9125Y-4.46
X6.9125Y-4.56
X7.0125Y-4.46
X7.0125Y-4.56
X7.1125Y-4.46
X7.1125Y-4.56
X7.2125Y-4.46
X7.2125Y-4.56
X7.3125Y-4.46
X7.3125Y-4.56
X7.4125Y-4.46
X7.4125Y-4.56
X7.5125Y-4.46
X7.5125Y-4.56
T3
X5.6125Y-2.57
X5.6125Y-3.17
X5.7125Y-2.57
X5.7125Y-3.17
X5.8125Y-2.57
X5.8125Y-3.17
X5.9125Y-2.57
X5.9125Y-3.17
X6.0125Y-2.57
X6.0125Y-3.17
X6.1125Y-2.57
X6.1125Y-3.17
X6.2125Y-2.57
X6.2125Y-3.17
X6.3125Y-2.57
X6.3125Y-3.17
X6.4125Y-2.57
X6.4125Y-3.17
X6.5125Y-2.57
X6.5125Y-3.17
X6.6125Y-2.57
X6.6125Y-3.17
X6.7125Y-2.57
X6.7125Y-3.17
X6.8125Y-2.57
X6.8125Y-3.17
X6.9125Y-2.57
X6.9125Y-3.17
X7.0125Y-2.57
X7.0125Y-3.17
X7.1125Y-2.57
X7.1125Y-3.17
X7.2125Y-2.57
X7.2125Y-3.17
X7.3125Y-2.57
X7.3125Y-3.17
X7.4125Y-2.57
X7.4125Y-3.17
X7.5125Y-2.57
X7.5125Y-3.17
T0
M30
