G04 #@! TF.FileFunction,Soldermask,Bot*
%FSLAX46Y46*%
G04 Gerber Fmt 4.6, Leading zero omitted, Abs format (unit mm)*
G04 Created by KiCad (PCBNEW 4.0.7) date 03/28/18 09:23:34*
%MOMM*%
%LPD*%
G01*
G04 APERTURE LIST*
%ADD10C,0.100000*%
%ADD11R,2.127200X2.127200*%
%ADD12O,2.127200X2.127200*%
%ADD13C,3.150000*%
%ADD14R,2.000000X2.800000*%
%ADD15O,2.000000X2.800000*%
%ADD16R,1.150000X1.600000*%
%ADD17R,1.600000X1.150000*%
%ADD18R,1.000000X2.350000*%
G04 APERTURE END LIST*
D10*
D11*
X190818000Y-113284000D03*
D12*
X190818000Y-115824000D03*
X188278000Y-113284000D03*
X188278000Y-115824000D03*
X185738000Y-113284000D03*
X185738000Y-115824000D03*
X183198000Y-113284000D03*
X183198000Y-115824000D03*
X180658000Y-113284000D03*
X180658000Y-115824000D03*
X178118000Y-113284000D03*
X178118000Y-115824000D03*
X175578000Y-113284000D03*
X175578000Y-115824000D03*
X173038000Y-113284000D03*
X173038000Y-115824000D03*
X170498000Y-113284000D03*
X170498000Y-115824000D03*
X167958000Y-113284000D03*
X167958000Y-115824000D03*
X165418000Y-113284000D03*
X165418000Y-115824000D03*
X162878000Y-113284000D03*
X162878000Y-115824000D03*
X160338000Y-113284000D03*
X160338000Y-115824000D03*
X157798000Y-113284000D03*
X157798000Y-115824000D03*
X155258000Y-113284000D03*
X155258000Y-115824000D03*
X152718000Y-113284000D03*
X152718000Y-115824000D03*
X150178000Y-113284000D03*
X150178000Y-115824000D03*
X147638000Y-113284000D03*
X147638000Y-115824000D03*
X145098000Y-113284000D03*
X145098000Y-115824000D03*
X142558000Y-113284000D03*
X142558000Y-115824000D03*
D13*
X195668000Y-65554000D03*
X137668000Y-114554000D03*
X195668000Y-114554000D03*
X137668000Y-65554000D03*
D14*
X142558000Y-80518000D03*
D15*
X190818000Y-65278000D03*
X145098000Y-80518000D03*
X188278000Y-65278000D03*
X147638000Y-80518000D03*
X185738000Y-65278000D03*
X150178000Y-80518000D03*
X183198000Y-65278000D03*
X152718000Y-80518000D03*
X180658000Y-65278000D03*
X155258000Y-80518000D03*
X178118000Y-65278000D03*
X157798000Y-80518000D03*
X175578000Y-65278000D03*
X160338000Y-80518000D03*
X173038000Y-65278000D03*
X162878000Y-80518000D03*
X170498000Y-65278000D03*
X165418000Y-80518000D03*
X167958000Y-65278000D03*
X167958000Y-80518000D03*
X165418000Y-65278000D03*
X170498000Y-80518000D03*
X162878000Y-65278000D03*
X173038000Y-80518000D03*
X160338000Y-65278000D03*
X175578000Y-80518000D03*
X157798000Y-65278000D03*
X178118000Y-80518000D03*
X155258000Y-65278000D03*
X180658000Y-80518000D03*
X152718000Y-65278000D03*
X183198000Y-80518000D03*
X150178000Y-65278000D03*
X185738000Y-80518000D03*
X147638000Y-65278000D03*
X188278000Y-80518000D03*
X145098000Y-65278000D03*
X190818000Y-80518000D03*
X142558000Y-65278000D03*
D16*
X157480000Y-95570000D03*
X157480000Y-97470000D03*
X175260000Y-95570000D03*
X175260000Y-97470000D03*
D17*
X159700000Y-77470000D03*
X157800000Y-77470000D03*
X193360000Y-104140000D03*
X195260000Y-104140000D03*
X137480000Y-104140000D03*
X139380000Y-104140000D03*
D18*
X160655000Y-91820000D03*
X161925000Y-91820000D03*
X163195000Y-91820000D03*
X164465000Y-91820000D03*
X165735000Y-91820000D03*
X167005000Y-91820000D03*
X168275000Y-91820000D03*
X169545000Y-91820000D03*
X170815000Y-91820000D03*
X172085000Y-91820000D03*
X172085000Y-101220000D03*
X170815000Y-101220000D03*
X169545000Y-101220000D03*
X168275000Y-101220000D03*
X167005000Y-101220000D03*
X165735000Y-101220000D03*
X164465000Y-101220000D03*
X163195000Y-101220000D03*
X161925000Y-101220000D03*
X160655000Y-101220000D03*
M02*
