M48
;DRILL file {KiCad 4.0.7} date 09/05/18 01:08:01
;FORMAT={-:-/ absolute / inch / decimal}
FMAT,2
INCH,TZ
T1C0.016
T2C0.031
T3C0.035
%
G90
G05
M72
T1
X5.1139Y-3.0715
X5.3001Y-2.9513
X5.417Y-2.8101
X5.4513Y-3.3847
X5.4722Y-3.7693
X5.4996Y-4.1466
X5.5094Y-3.5743
X5.5348Y-3.8254
X5.5737Y-4.1417
X5.6095Y-3.4483
X5.625Y-3.8258
X5.6387Y-3.3919
X5.661Y-3.437
X5.6725Y-3.2653
X5.7289Y-4.1457
X5.7326Y-3.8255
X5.7844Y-4.1451
X5.7914Y-3.3633
X5.8168Y-4.0368
X5.8242Y-3.8251
X5.8635Y-3.6589
X5.8863Y-4.0105
X5.9346Y-3.7544
X5.9609Y-3.7268
X5.9658Y-3.6953
X5.9848Y-3.2923
X6.0398Y-4.1455
X6.0785Y-3.7254
X6.2133Y-3.5754
X6.2238Y-3.3794
X6.2603Y-3.5675
X6.286Y-3.5324
X6.2869Y-3.8246
X6.309Y-4.1465
X6.3212Y-3.2079
X6.334Y-4.037
X6.3492Y-4.0879
X6.3658Y-2.698
X6.3824Y-3.2716
X6.416Y-3.1783
X6.4162Y-3.3075
X6.4207Y-3.2325
X6.4243Y-3.6506
X6.4306Y-3.7752
X6.4408Y-3.944
X6.4834Y-2.4669
X6.509Y-3.3279
X6.5258Y-3.7807
X6.5777Y-4.0248
X6.6035Y-3.6892
X6.6109Y-3.756
X6.6173Y-3.9739
X6.6225Y-2.6313
X6.6479Y-3.7341
X6.6561Y-4.1188
X6.6667Y-3.1853
X6.6732Y-2.4423
X6.675Y-3.4441
X6.6823Y-4.0893
X6.6902Y-2.6797
X6.7219Y-2.6551
X6.7394Y-4.0505
X6.7395Y-3.4212
X6.7506Y-3.6163
X6.8016Y-3.283
X6.8145Y-3.9971
X6.8147Y-4.0356
X6.815Y-3.7325
X6.832Y-3.3794
X6.843Y-3.3078
X6.875Y-3.9432
X6.9603Y-3.7864
X6.9725Y-3.8244
X7.0226Y-3.5877
X7.0463Y-3.1608
X7.0508Y-3.8098
X7.39Y-3.1763
X7.7522Y-2.1082
X7.9795Y-2.1774
T2
X5.255Y-2.12
X5.255Y-2.22
X5.355Y-2.12
X5.355Y-2.22
X5.455Y-2.12
X5.455Y-2.22
X5.555Y-2.12
X5.555Y-2.22
X5.655Y-2.12
X5.655Y-2.22
X5.755Y-2.12
X5.755Y-2.22
X5.79Y-3.005
X5.79Y-3.105
X5.855Y-2.12
X5.855Y-2.22
X5.89Y-3.005
X5.89Y-3.105
X5.955Y-2.12
X5.955Y-2.22
X5.99Y-3.005
X5.99Y-3.105
X6.055Y-2.12
X6.055Y-2.22
X6.09Y-3.005
X6.09Y-3.105
X6.155Y-2.12
X6.155Y-2.22
X6.19Y-3.005
X6.19Y-3.105
X6.255Y-2.12
X6.255Y-2.22
X6.29Y-3.005
X6.29Y-3.105
X6.355Y-2.12
X6.355Y-2.22
X6.39Y-3.005
X6.39Y-3.105
X6.455Y-2.12
X6.455Y-2.22
X6.49Y-3.005
X6.49Y-3.105
X6.555Y-2.12
X6.555Y-2.22
X6.59Y-3.005
X6.59Y-3.105
X6.655Y-2.12
X6.655Y-2.22
X6.69Y-3.005
X6.69Y-3.105
X6.755Y-2.12
X6.755Y-2.22
X6.79Y-3.005
X6.79Y-3.105
X6.855Y-2.12
X6.855Y-2.22
X6.89Y-3.005
X6.89Y-3.105
X6.955Y-2.12
X6.955Y-2.22
X6.99Y-3.005
X6.99Y-3.105
X7.055Y-2.12
X7.055Y-2.22
X7.09Y-3.105
X7.155Y-2.12
X7.155Y-2.22
X7.19Y-3.005
X7.19Y-3.105
X7.29Y-3.005
X7.29Y-3.105
X7.39Y-3.005
X7.39Y-3.105
X7.49Y-3.005
X7.49Y-3.105
X7.59Y-3.005
X7.59Y-3.105
X7.69Y-3.005
X7.69Y-3.105
T3
X7.09Y-3.005
T0
M30
