G04 #@! TF.FileFunction,Copper,L2,Bot,Mixed*
%FSLAX46Y46*%
G04 Gerber Fmt 4.6, Leading zero omitted, Abs format (unit mm)*
G04 Created by KiCad (PCBNEW 4.0.7) date 11/27/18 00:25:29*
%MOMM*%
%LPD*%
G01*
G04 APERTURE LIST*
%ADD10C,0.100000*%
%ADD11R,1.800000X8.000000*%
%ADD12R,1.700000X1.700000*%
%ADD13O,1.700000X1.700000*%
%ADD14R,1.200000X0.900000*%
%ADD15R,1.200000X0.750000*%
%ADD16R,0.600000X1.950000*%
%ADD17R,0.600000X2.000000*%
%ADD18R,2.600000X1.600000*%
%ADD19C,0.600000*%
%ADD20C,0.250000*%
%ADD21C,0.400000*%
%ADD22C,0.254000*%
G04 APERTURE END LIST*
D10*
D11*
X187949840Y-109827440D03*
X185409840Y-109827440D03*
X182869840Y-109827440D03*
X180329840Y-109827440D03*
X177789840Y-109827440D03*
X175249840Y-109827440D03*
X172709840Y-109827440D03*
X170169840Y-109827440D03*
X167629840Y-109827440D03*
X165089840Y-109827440D03*
X162549840Y-109827440D03*
X160009840Y-109827440D03*
X157469840Y-109827440D03*
X154929840Y-109827440D03*
X152389840Y-109827440D03*
X149849840Y-109827440D03*
X147309840Y-109827440D03*
X144769840Y-109827440D03*
X142229840Y-109827440D03*
X139689840Y-109827440D03*
X137149840Y-109827440D03*
X134609840Y-109827440D03*
X132069840Y-109827440D03*
X129529840Y-109827440D03*
X126989840Y-109827440D03*
D12*
X181737000Y-56388000D03*
D13*
X181737000Y-53848000D03*
X179197000Y-56388000D03*
X179197000Y-53848000D03*
X176657000Y-56388000D03*
X176657000Y-53848000D03*
X174117000Y-56388000D03*
X174117000Y-53848000D03*
X171577000Y-56388000D03*
X171577000Y-53848000D03*
X169037000Y-56388000D03*
X169037000Y-53848000D03*
X166497000Y-56388000D03*
X166497000Y-53848000D03*
X163957000Y-56388000D03*
X163957000Y-53848000D03*
X161417000Y-56388000D03*
X161417000Y-53848000D03*
X158877000Y-56388000D03*
X158877000Y-53848000D03*
X156337000Y-56388000D03*
X156337000Y-53848000D03*
X153797000Y-56388000D03*
X153797000Y-53848000D03*
X151257000Y-56388000D03*
X151257000Y-53848000D03*
X148717000Y-56388000D03*
X148717000Y-53848000D03*
X146177000Y-56388000D03*
X146177000Y-53848000D03*
X143637000Y-56388000D03*
X143637000Y-53848000D03*
X141097000Y-56388000D03*
X141097000Y-53848000D03*
X138557000Y-56388000D03*
X138557000Y-53848000D03*
X136017000Y-56388000D03*
X136017000Y-53848000D03*
X133477000Y-56388000D03*
X133477000Y-53848000D03*
D12*
X195326000Y-76327000D03*
D13*
X195326000Y-78867000D03*
X192786000Y-76327000D03*
X192786000Y-78867000D03*
X190246000Y-76327000D03*
X190246000Y-78867000D03*
X187706000Y-76327000D03*
X187706000Y-78867000D03*
X185166000Y-76327000D03*
X185166000Y-78867000D03*
X182626000Y-76327000D03*
X182626000Y-78867000D03*
X180086000Y-76327000D03*
X180086000Y-78867000D03*
X177546000Y-76327000D03*
X177546000Y-78867000D03*
X175006000Y-76327000D03*
X175006000Y-78867000D03*
X172466000Y-76327000D03*
X172466000Y-78867000D03*
X169926000Y-76327000D03*
X169926000Y-78867000D03*
X167386000Y-76327000D03*
X167386000Y-78867000D03*
X164846000Y-76327000D03*
X164846000Y-78867000D03*
X162306000Y-76327000D03*
X162306000Y-78867000D03*
X159766000Y-76327000D03*
X159766000Y-78867000D03*
X157226000Y-76327000D03*
X157226000Y-78867000D03*
X154686000Y-76327000D03*
X154686000Y-78867000D03*
X152146000Y-76327000D03*
X152146000Y-78867000D03*
X149606000Y-76327000D03*
X149606000Y-78867000D03*
X147066000Y-76327000D03*
X147066000Y-78867000D03*
D14*
X201574000Y-53340000D03*
X199374000Y-53340000D03*
X130132000Y-78994000D03*
X127932000Y-78994000D03*
D15*
X149865000Y-87122000D03*
X151765000Y-87122000D03*
D14*
X201574000Y-55118000D03*
X199374000Y-55118000D03*
X201574000Y-56896000D03*
X199374000Y-56896000D03*
X130132000Y-74295000D03*
X127932000Y-74295000D03*
D16*
X175006000Y-98680000D03*
X173736000Y-98680000D03*
X172466000Y-98680000D03*
X171196000Y-98680000D03*
X169926000Y-98680000D03*
X168656000Y-98680000D03*
X167386000Y-98680000D03*
X166116000Y-98680000D03*
X164846000Y-98680000D03*
X163576000Y-98680000D03*
X163576000Y-89280000D03*
X164846000Y-89280000D03*
X166116000Y-89280000D03*
X167386000Y-89280000D03*
X168656000Y-89280000D03*
X169926000Y-89280000D03*
X171196000Y-89280000D03*
X172466000Y-89280000D03*
X173736000Y-89280000D03*
X175006000Y-89280000D03*
D14*
X158834000Y-95123000D03*
X156634000Y-95123000D03*
D17*
X151892000Y-98681000D03*
X150622000Y-98681000D03*
X149352000Y-98681000D03*
X148082000Y-98681000D03*
X146812000Y-98681000D03*
X145542000Y-98681000D03*
X144272000Y-98681000D03*
X143002000Y-98681000D03*
X141732000Y-98681000D03*
X140462000Y-98681000D03*
X139192000Y-98681000D03*
X137922000Y-98681000D03*
X137922000Y-89281000D03*
X139192000Y-89281000D03*
X140462000Y-89281000D03*
X141732000Y-89281000D03*
X143002000Y-89281000D03*
X144272000Y-89281000D03*
X145542000Y-89281000D03*
X146812000Y-89281000D03*
X148082000Y-89281000D03*
X149352000Y-89281000D03*
X150622000Y-89281000D03*
X151892000Y-89281000D03*
D15*
X129921000Y-76708000D03*
X128021000Y-76708000D03*
X175067000Y-86868000D03*
X173167000Y-86868000D03*
D18*
X130959000Y-83693000D03*
X127359000Y-83693000D03*
D15*
X149738000Y-100965000D03*
X151638000Y-100965000D03*
D14*
X156634000Y-91567000D03*
X158834000Y-91567000D03*
D19*
X152890300Y-87187400D03*
X163427600Y-97171200D03*
X151981600Y-102303500D03*
X138069200Y-79355900D03*
X144452500Y-96069000D03*
X144715300Y-74237300D03*
X142564200Y-87123500D03*
X143022600Y-83048300D03*
X139122100Y-62078200D03*
X139692800Y-91097500D03*
X141013100Y-87773400D03*
X157868000Y-85845000D03*
X146299100Y-96109000D03*
X146752400Y-82694600D03*
X145424300Y-80358000D03*
X145498800Y-96024700D03*
X141695800Y-96125300D03*
X144948600Y-72178100D03*
X143497700Y-87048700D03*
X143454100Y-66401400D03*
X176515200Y-96159300D03*
X169620000Y-101889700D03*
X171291600Y-103561300D03*
X172945600Y-104856400D03*
X170854300Y-104472900D03*
X173587300Y-104231100D03*
X171667900Y-104354900D03*
X167121400Y-86407200D03*
X177143300Y-92373700D03*
X175623400Y-101797600D03*
X167839200Y-104633000D03*
X161579000Y-104923000D03*
X164844100Y-100668400D03*
X167838200Y-92858300D03*
X160826800Y-105316300D03*
X168639600Y-92523900D03*
X163157600Y-101246800D03*
X158739800Y-105451700D03*
X150418400Y-91239100D03*
X149844400Y-91813100D03*
X154268200Y-105327000D03*
X148848400Y-92741600D03*
X150613100Y-93894600D03*
X152301900Y-105318900D03*
X149093200Y-102068000D03*
X147737000Y-105312400D03*
X145518500Y-105305200D03*
X142888600Y-105305800D03*
X138410300Y-105477200D03*
X157580400Y-90481600D03*
X149882500Y-85301300D03*
X131442300Y-78212500D03*
X162667300Y-94487400D03*
X177270300Y-97173100D03*
X163201300Y-93371300D03*
X177765900Y-96304800D03*
X185409800Y-105311100D03*
X189397300Y-56234600D03*
X165527600Y-93504700D03*
X179444100Y-94918800D03*
X163826600Y-93877900D03*
X174997700Y-100643200D03*
X169580700Y-93389700D03*
X175627800Y-92970200D03*
X164837000Y-86818700D03*
X155460200Y-82577600D03*
X155390700Y-77625900D03*
X196622900Y-56469700D03*
X133559900Y-77026200D03*
X202683400Y-53355000D03*
X156828700Y-96592500D03*
X145718700Y-69070400D03*
X147438500Y-83466400D03*
X163271900Y-85828500D03*
X154555100Y-87978600D03*
X196706800Y-57654200D03*
X137461000Y-78427000D03*
X159266700Y-92690800D03*
D20*
X139192000Y-98681000D02*
X139192000Y-97355700D01*
X137922000Y-104729900D02*
X137149800Y-105502100D01*
X137922000Y-98681000D02*
X137922000Y-104729900D01*
X137149800Y-109827400D02*
X137149800Y-105502100D01*
X128021000Y-76708000D02*
X128021000Y-76007700D01*
X127932000Y-75918700D02*
X127932000Y-74295000D01*
X128021000Y-76007700D02*
X127932000Y-75918700D01*
X151765000Y-87122000D02*
X152690300Y-87122000D01*
X134609800Y-105502100D02*
X137149800Y-105502100D01*
X134609800Y-109827400D02*
X134609800Y-105502100D01*
X149861300Y-97355700D02*
X139192000Y-97355700D01*
X149977400Y-97471800D02*
X149861300Y-97355700D01*
X149977400Y-100025300D02*
X149977400Y-97471800D01*
X149738000Y-100264700D02*
X149977400Y-100025300D01*
X149738000Y-100614800D02*
X149738000Y-100264700D01*
X149738000Y-100614800D02*
X149738000Y-100965000D01*
X137922000Y-98681000D02*
X137922000Y-97355700D01*
X127932000Y-74295000D02*
X127932000Y-73519700D01*
X137922000Y-89281000D02*
X137922000Y-87955700D01*
X133477000Y-56388000D02*
X133477000Y-57563300D01*
X133477000Y-72882400D02*
X133477000Y-57563300D01*
X128569300Y-72882400D02*
X127932000Y-73519700D01*
X133477000Y-72882400D02*
X128569300Y-72882400D01*
X138694500Y-78099900D02*
X133477000Y-72882400D01*
X138694500Y-87183200D02*
X138694500Y-78099900D01*
X137922000Y-87955700D02*
X138694500Y-87183200D01*
X139192000Y-97355700D02*
X137922000Y-97355700D01*
X173324600Y-87568300D02*
X173736000Y-87979700D01*
X173167000Y-87568300D02*
X173324600Y-87568300D01*
X173736000Y-89280000D02*
X173736000Y-87979700D01*
X173167000Y-86868000D02*
X173167000Y-87568300D01*
X152755700Y-87187400D02*
X152890300Y-87187400D01*
X152690300Y-87122000D02*
X152755700Y-87187400D01*
X163576000Y-98680000D02*
X163576000Y-97379700D01*
X185166000Y-71152300D02*
X185166000Y-76327000D01*
X171577000Y-57563300D02*
X185166000Y-71152300D01*
X171577000Y-56388000D02*
X171577000Y-57563300D01*
X163427600Y-97231300D02*
X163576000Y-97379700D01*
X163427600Y-97171200D02*
X163427600Y-97231300D01*
X158590700Y-79234400D02*
X158590700Y-78867000D01*
X157782800Y-80042300D02*
X158590700Y-79234400D01*
X156669300Y-80042300D02*
X157782800Y-80042300D01*
X155861300Y-79234300D02*
X156669300Y-80042300D01*
X155861300Y-78867000D02*
X155861300Y-79234300D01*
X154686000Y-78867000D02*
X155861300Y-78867000D01*
X159766000Y-78867000D02*
X158590700Y-78867000D01*
X160941300Y-79234400D02*
X160941300Y-78867000D01*
X161749200Y-80042300D02*
X160941300Y-79234400D01*
X162808900Y-80042300D02*
X161749200Y-80042300D01*
X163576000Y-79275200D02*
X162808900Y-80042300D01*
X163576000Y-77597000D02*
X163576000Y-79275200D01*
X164846000Y-76327000D02*
X163576000Y-77597000D01*
X159766000Y-78867000D02*
X160941300Y-78867000D01*
X175002500Y-97376200D02*
X175006000Y-97379700D01*
X175002500Y-92711200D02*
X175002500Y-97376200D01*
X180086000Y-87627700D02*
X175002500Y-92711200D01*
X180086000Y-78867000D02*
X180086000Y-87627700D01*
X175006000Y-98680000D02*
X175006000Y-97379700D01*
X173167000Y-80743300D02*
X173167000Y-86868000D01*
X172466000Y-80042300D02*
X173167000Y-80743300D01*
X172466000Y-78867000D02*
X172466000Y-80042300D01*
X149738000Y-100965000D02*
X149738000Y-101665300D01*
X159306300Y-97171200D02*
X163427600Y-97171200D01*
X157619000Y-95483900D02*
X159306300Y-97171200D01*
X157619000Y-94428900D02*
X157619000Y-95483900D01*
X152890300Y-89700200D02*
X157619000Y-94428900D01*
X152890300Y-87187400D02*
X152890300Y-89700200D01*
X150376200Y-102303500D02*
X151981600Y-102303500D01*
X149738000Y-101665300D02*
X150376200Y-102303500D01*
D21*
X151746400Y-100081300D02*
X151638000Y-100189700D01*
X151892000Y-100081300D02*
X151746400Y-100081300D01*
X151638000Y-100965000D02*
X151638000Y-100189700D01*
X151892000Y-99381100D02*
X151892000Y-100081300D01*
X129529800Y-105427100D02*
X132069800Y-105427100D01*
X129529800Y-109827400D02*
X129529800Y-105427100D01*
X132069800Y-109827400D02*
X132069800Y-105427100D01*
X151892000Y-99381100D02*
X151892000Y-98681000D01*
X151892000Y-98681000D02*
X151892000Y-97280700D01*
X132069800Y-102411200D02*
X132069800Y-105427100D01*
X137650700Y-96830300D02*
X132069800Y-102411200D01*
X151441600Y-96830300D02*
X137650700Y-96830300D01*
X151892000Y-97280700D02*
X151441600Y-96830300D01*
X137196500Y-80228600D02*
X138069200Y-79355900D01*
X137196500Y-96376100D02*
X137196500Y-80228600D01*
X137650700Y-96830300D02*
X137196500Y-96376100D01*
D20*
X145542000Y-89943600D02*
X145542000Y-90606300D01*
X145542000Y-89943600D02*
X145542000Y-89281000D01*
X145542000Y-94979500D02*
X144452500Y-96069000D01*
X145542000Y-90606300D02*
X145542000Y-94979500D01*
X145542000Y-89281000D02*
X145542000Y-87955700D01*
X144715300Y-82342300D02*
X144715300Y-74237300D01*
X145542000Y-83169000D02*
X144715300Y-82342300D01*
X145542000Y-87955700D02*
X145542000Y-83169000D01*
X190246000Y-71152300D02*
X176657000Y-57563300D01*
X190246000Y-76327000D02*
X190246000Y-71152300D01*
X176657000Y-56388000D02*
X176657000Y-57563300D01*
X174117000Y-56388000D02*
X174117000Y-57563300D01*
X141732000Y-89281000D02*
X141732000Y-87955700D01*
X187706000Y-71152300D02*
X187706000Y-76327000D01*
X174117000Y-57563300D02*
X187706000Y-71152300D01*
X141732000Y-87955700D02*
X142564200Y-87123500D01*
X142564200Y-83506700D02*
X143022600Y-83048300D01*
X142564200Y-87123500D02*
X142564200Y-83506700D01*
X143637000Y-56388000D02*
X143637000Y-57563300D01*
X139192000Y-62148100D02*
X139122100Y-62078200D01*
X139192000Y-87955700D02*
X139192000Y-62148100D01*
X139192000Y-88618300D02*
X139192000Y-87955700D01*
X139192000Y-88618300D02*
X139192000Y-89281000D01*
X139192000Y-89281000D02*
X139192000Y-90606300D01*
X139201600Y-90606300D02*
X139692800Y-91097500D01*
X139192000Y-90606300D02*
X139201600Y-90606300D01*
X157226000Y-71152300D02*
X157226000Y-76327000D01*
X143637000Y-57563300D02*
X157226000Y-71152300D01*
X140462000Y-89281000D02*
X140462000Y-87955700D01*
X140830800Y-87955700D02*
X141013100Y-87773400D01*
X140462000Y-87955700D02*
X140830800Y-87955700D01*
X151624400Y-55023300D02*
X151257000Y-55023300D01*
X152432300Y-55831200D02*
X151624400Y-55023300D01*
X152432300Y-58570500D02*
X152432300Y-55831200D01*
X166045300Y-72183500D02*
X152432300Y-58570500D01*
X166045300Y-76859700D02*
X166045300Y-72183500D01*
X165213300Y-77691700D02*
X166045300Y-76859700D01*
X164846000Y-77691700D02*
X165213300Y-77691700D01*
X164846000Y-78867000D02*
X164846000Y-77691700D01*
X151257000Y-53848000D02*
X151257000Y-55023300D01*
X164846000Y-78867000D02*
X164846000Y-80042300D01*
X163670700Y-80042300D02*
X157868000Y-85845000D01*
X164846000Y-80042300D02*
X163670700Y-80042300D01*
X148717000Y-56388000D02*
X148717000Y-57563300D01*
X162306000Y-75739300D02*
X162306000Y-76305200D01*
X162306000Y-76327000D02*
X162306000Y-76305200D01*
X162306000Y-75739300D02*
X162306000Y-75151700D01*
X162306000Y-71152300D02*
X162306000Y-75151700D01*
X148717000Y-57563300D02*
X162306000Y-71152300D01*
X146812000Y-95596100D02*
X146812000Y-89281000D01*
X146299100Y-96109000D02*
X146812000Y-95596100D01*
X146812000Y-82754200D02*
X146752400Y-82694600D01*
X146812000Y-89281000D02*
X146812000Y-82754200D01*
X162306000Y-78867000D02*
X162306000Y-77691700D01*
X148717000Y-53848000D02*
X148717000Y-55023300D01*
X148349600Y-55023300D02*
X148717000Y-55023300D01*
X147541700Y-55831200D02*
X148349600Y-55023300D01*
X147541700Y-57171400D02*
X147541700Y-55831200D01*
X161130700Y-70760400D02*
X147541700Y-57171400D01*
X161130700Y-76883800D02*
X161130700Y-70760400D01*
X161938600Y-77691700D02*
X161130700Y-76883800D01*
X162306000Y-77691700D02*
X161938600Y-77691700D01*
X148082000Y-83130800D02*
X148082000Y-89281000D01*
X146982300Y-82031100D02*
X148082000Y-83130800D01*
X146177000Y-82031100D02*
X146982300Y-82031100D01*
X146177000Y-81110700D02*
X146177000Y-82031100D01*
X145424300Y-80358000D02*
X146177000Y-81110700D01*
X146177000Y-95346500D02*
X145498800Y-96024700D01*
X146177000Y-83069700D02*
X146177000Y-95346500D01*
X146127100Y-83019800D02*
X146177000Y-83069700D01*
X146127100Y-82081000D02*
X146127100Y-83019800D01*
X146177000Y-82031100D02*
X146127100Y-82081000D01*
X192786000Y-71152300D02*
X179197000Y-57563300D01*
X192786000Y-76327000D02*
X192786000Y-71152300D01*
X179197000Y-56388000D02*
X179197000Y-57563300D01*
X144272000Y-93549100D02*
X144272000Y-89281000D01*
X141695800Y-96125300D02*
X144272000Y-93549100D01*
X144272000Y-89281000D02*
X144272000Y-87955700D01*
X144089900Y-73036800D02*
X144948600Y-72178100D01*
X144089900Y-82353800D02*
X144089900Y-73036800D01*
X144272000Y-82535900D02*
X144089900Y-82353800D01*
X144272000Y-87955700D02*
X144272000Y-82535900D01*
X143497700Y-87460000D02*
X143497700Y-87048700D01*
X143002000Y-87955700D02*
X143497700Y-87460000D01*
X143002000Y-89281000D02*
X143002000Y-87955700D01*
X159766000Y-71152300D02*
X159766000Y-76327000D01*
X146177000Y-57563300D02*
X159766000Y-71152300D01*
X146177000Y-56388000D02*
X146177000Y-57563300D01*
X143454100Y-82595300D02*
X143454100Y-66401400D01*
X143691600Y-82832800D02*
X143454100Y-82595300D01*
X143691600Y-86854800D02*
X143691600Y-82832800D01*
X143497700Y-87048700D02*
X143691600Y-86854800D01*
X180329800Y-109827400D02*
X180329800Y-105502100D01*
X176515200Y-101687500D02*
X176515200Y-96159300D01*
X180329800Y-105502100D02*
X176515200Y-101687500D01*
X171291600Y-103561300D02*
X169620000Y-101889700D01*
X171196000Y-89280000D02*
X171196000Y-90580300D01*
X175249800Y-109827400D02*
X175249800Y-105502100D01*
X174361300Y-104613600D02*
X175249800Y-105502100D01*
X174361300Y-93745600D02*
X174361300Y-104613600D01*
X171196000Y-90580300D02*
X174361300Y-93745600D01*
X168656000Y-89280000D02*
X168656000Y-90580300D01*
X172945600Y-101104600D02*
X172945600Y-104856400D01*
X171821400Y-99980400D02*
X172945600Y-101104600D01*
X171821400Y-93398800D02*
X171821400Y-99980400D01*
X169453200Y-91030600D02*
X171821400Y-93398800D01*
X169304600Y-91030600D02*
X169453200Y-91030600D01*
X168854300Y-90580300D02*
X169304600Y-91030600D01*
X168656000Y-90580300D02*
X168854300Y-90580300D01*
X172709800Y-109827400D02*
X172709800Y-105502100D01*
X171196000Y-98680000D02*
X171196000Y-99980300D01*
X172707000Y-105502100D02*
X172709800Y-105502100D01*
X172320300Y-105115400D02*
X172707000Y-105502100D01*
X172320300Y-102378300D02*
X172320300Y-105115400D01*
X171196000Y-101254000D02*
X172320300Y-102378300D01*
X171196000Y-99980300D02*
X171196000Y-101254000D01*
X168656000Y-102274600D02*
X170854300Y-104472900D01*
X168656000Y-98680000D02*
X168656000Y-102274600D01*
X170169800Y-109827400D02*
X170169800Y-105502100D01*
X173736000Y-98680000D02*
X173736000Y-99980300D01*
X173736000Y-104082400D02*
X173587300Y-104231100D01*
X173736000Y-99980300D02*
X173736000Y-104082400D01*
X171667900Y-104563800D02*
X171667900Y-104354900D01*
X170729600Y-105502100D02*
X171667900Y-104563800D01*
X170169800Y-105502100D02*
X170729600Y-105502100D01*
X167629800Y-109827400D02*
X167629800Y-105502100D01*
X166741300Y-86787300D02*
X167121400Y-86407200D01*
X166741300Y-90372500D02*
X166741300Y-86787300D01*
X167399600Y-91030800D02*
X166741300Y-90372500D01*
X168667900Y-91030800D02*
X167399600Y-91030800D01*
X169118000Y-91480900D02*
X168667900Y-91030800D01*
X169228600Y-91480900D02*
X169118000Y-91480900D01*
X170672400Y-92924700D02*
X169228600Y-91480900D01*
X170672400Y-93829400D02*
X170672400Y-92924700D01*
X170570700Y-93931100D02*
X170672400Y-93829400D01*
X170570700Y-99844400D02*
X170570700Y-93931100D01*
X170360700Y-100054400D02*
X170570700Y-99844400D01*
X169452100Y-100054400D02*
X170360700Y-100054400D01*
X169300600Y-99902900D02*
X169452100Y-100054400D01*
X169300600Y-97581400D02*
X169300600Y-99902900D01*
X169098800Y-97379600D02*
X169300600Y-97581400D01*
X168164100Y-97379600D02*
X169098800Y-97379600D01*
X168030600Y-97513100D02*
X168164100Y-97379600D01*
X168030600Y-103609200D02*
X168030600Y-97513100D01*
X168474000Y-104052600D02*
X168030600Y-103609200D01*
X168474000Y-104894400D02*
X168474000Y-104052600D01*
X167866300Y-105502100D02*
X168474000Y-104894400D01*
X167629800Y-105502100D02*
X167866300Y-105502100D01*
X175631500Y-93885500D02*
X177143300Y-92373700D01*
X175631500Y-101789500D02*
X175631500Y-93885500D01*
X175623400Y-101797600D02*
X175631500Y-101789500D01*
X165089800Y-109827400D02*
X165089800Y-105502100D01*
X166970100Y-105502100D02*
X167839200Y-104633000D01*
X165089800Y-105502100D02*
X166970100Y-105502100D01*
X162158100Y-105502100D02*
X162549800Y-105502100D01*
X161579000Y-104923000D02*
X162158100Y-105502100D01*
X162549800Y-109827400D02*
X162549800Y-105502100D01*
X160009800Y-109827400D02*
X160009800Y-105502100D01*
X160009800Y-104939400D02*
X160009800Y-105502100D01*
X161546400Y-103402800D02*
X160009800Y-104939400D01*
X162109700Y-103402800D02*
X161546400Y-103402800D01*
X164844100Y-100668400D02*
X162109700Y-103402800D01*
X160826800Y-104759300D02*
X160826800Y-105316300D01*
X161350900Y-104235200D02*
X160826800Y-104759300D01*
X162369400Y-104235200D02*
X161350900Y-104235200D01*
X166760500Y-99844100D02*
X162369400Y-104235200D01*
X166760500Y-95534900D02*
X166760500Y-99844100D01*
X167838200Y-94457200D02*
X166760500Y-95534900D01*
X167838200Y-92858300D02*
X167838200Y-94457200D01*
X157469800Y-109827400D02*
X157469800Y-105502100D01*
X162541300Y-100430600D02*
X157469800Y-105502100D01*
X164197400Y-100430600D02*
X162541300Y-100430600D01*
X164622000Y-100006000D02*
X164197400Y-100430600D01*
X165274400Y-100006000D02*
X164622000Y-100006000D01*
X165490600Y-99789800D02*
X165274400Y-100006000D01*
X165490600Y-95259000D02*
X165490600Y-99789800D01*
X167053600Y-93696000D02*
X165490600Y-95259000D01*
X167053600Y-92715400D02*
X167053600Y-93696000D01*
X167536000Y-92233000D02*
X167053600Y-92715400D01*
X168348700Y-92233000D02*
X167536000Y-92233000D01*
X168639600Y-92523900D02*
X168348700Y-92233000D01*
X162944700Y-101246800D02*
X163157600Y-101246800D01*
X158739800Y-105451700D02*
X162944700Y-101246800D01*
X154929800Y-109827400D02*
X154929800Y-105502100D01*
X154929800Y-95750500D02*
X150418400Y-91239100D01*
X154929800Y-105502100D02*
X154929800Y-95750500D01*
X154268200Y-96236900D02*
X154268200Y-105327000D01*
X149844400Y-91813100D02*
X154268200Y-96236900D01*
X151660300Y-109097900D02*
X152389800Y-109827400D01*
X151660300Y-103521900D02*
X151660300Y-109097900D01*
X153035000Y-102147200D02*
X151660300Y-103521900D01*
X153035000Y-96966600D02*
X153035000Y-102147200D01*
X150973500Y-94905100D02*
X153035000Y-96966600D01*
X150721200Y-94905100D02*
X150973500Y-94905100D01*
X148848400Y-93032300D02*
X150721200Y-94905100D01*
X148848400Y-92741600D02*
X148848400Y-93032300D01*
X153485300Y-96766800D02*
X150613100Y-93894600D01*
X153485300Y-104135500D02*
X153485300Y-96766800D01*
X152301900Y-105318900D02*
X153485300Y-104135500D01*
X149093200Y-104745500D02*
X149093200Y-102068000D01*
X149849800Y-105502100D02*
X149093200Y-104745500D01*
X149849800Y-109827400D02*
X149849800Y-105502100D01*
X149352000Y-98681000D02*
X149352000Y-100006300D01*
X148457800Y-108679400D02*
X147309800Y-109827400D01*
X148457800Y-100765600D02*
X148457800Y-108679400D01*
X149217100Y-100006300D02*
X148457800Y-100765600D01*
X149352000Y-100006300D02*
X149217100Y-100006300D01*
X147737000Y-100351300D02*
X147737000Y-105312400D01*
X148082000Y-100006300D02*
X147737000Y-100351300D01*
X148082000Y-98681000D02*
X148082000Y-100006300D01*
X146812000Y-104896100D02*
X146812000Y-98681000D01*
X144769800Y-106938300D02*
X146812000Y-104896100D01*
X144769800Y-109827400D02*
X144769800Y-106938300D01*
X145542000Y-105281700D02*
X145518500Y-105305200D01*
X145542000Y-98681000D02*
X145542000Y-105281700D01*
X144272000Y-98681000D02*
X144272000Y-100006300D01*
X144272000Y-104866600D02*
X144272000Y-100006300D01*
X142229800Y-106908800D02*
X144272000Y-104866600D01*
X142229800Y-109827400D02*
X142229800Y-106908800D01*
X143002000Y-105192400D02*
X142888600Y-105305800D01*
X143002000Y-98681000D02*
X143002000Y-105192400D01*
X139689800Y-105082200D02*
X139689800Y-109827400D01*
X141732000Y-103040000D02*
X139689800Y-105082200D01*
X141732000Y-98681000D02*
X141732000Y-103040000D01*
X140462000Y-103425500D02*
X138410300Y-105477200D01*
X140462000Y-98681000D02*
X140462000Y-103425500D01*
X199374000Y-55118000D02*
X199374000Y-53340000D01*
X199374000Y-55118000D02*
X198448700Y-55118000D01*
X181737000Y-56388000D02*
X182912300Y-56388000D01*
X195326000Y-76327000D02*
X195326000Y-56001900D01*
X196209900Y-55118000D02*
X198448700Y-55118000D01*
X195326000Y-56001900D02*
X196209900Y-55118000D01*
X175006000Y-89280000D02*
X175006000Y-87979700D01*
X175067000Y-87918700D02*
X175067000Y-86868000D01*
X175006000Y-87979700D02*
X175067000Y-87918700D01*
X175067000Y-86868000D02*
X175067000Y-86167700D01*
X183693000Y-55607300D02*
X182912300Y-56388000D01*
X194931400Y-55607300D02*
X183693000Y-55607300D01*
X195326000Y-56001900D02*
X194931400Y-55607300D01*
X175373400Y-77502300D02*
X175006000Y-77502300D01*
X176181300Y-78310200D02*
X175373400Y-77502300D01*
X176181300Y-85053400D02*
X176181300Y-78310200D01*
X175067000Y-86167700D02*
X176181300Y-85053400D01*
X175006000Y-76327000D02*
X175006000Y-77502300D01*
X161417000Y-56388000D02*
X161417000Y-57563300D01*
X149865000Y-87122000D02*
X149865000Y-86421700D01*
X149865000Y-87122000D02*
X149865000Y-87822300D01*
X151892000Y-89281000D02*
X150622000Y-89281000D01*
X149998400Y-87955700D02*
X149865000Y-87822300D01*
X150622000Y-87955700D02*
X149998400Y-87955700D01*
X150622000Y-89281000D02*
X150622000Y-87955700D01*
X175006000Y-71152300D02*
X175006000Y-76327000D01*
X161417000Y-57563300D02*
X175006000Y-71152300D01*
X129921000Y-76708000D02*
X129921000Y-77408300D01*
X127932000Y-78994000D02*
X127932000Y-78218700D01*
X129921000Y-77408300D02*
X129921000Y-77810400D01*
X130323100Y-78212500D02*
X129921000Y-77810400D01*
X131442300Y-78212500D02*
X130323100Y-78212500D01*
X128340300Y-77810400D02*
X127932000Y-78218700D01*
X129921000Y-77810400D02*
X128340300Y-77810400D01*
X149882500Y-86421700D02*
X149882500Y-85301300D01*
X149882500Y-86421700D02*
X149865000Y-86421700D01*
X158639400Y-94347700D02*
X158834000Y-94347700D01*
X156634000Y-92342300D02*
X158639400Y-94347700D01*
X156634000Y-91567000D02*
X156634000Y-92342300D01*
X156634000Y-91567000D02*
X156634000Y-90791700D01*
X153014600Y-86421700D02*
X149882500Y-86421700D01*
X153849800Y-87256900D02*
X153014600Y-86421700D01*
X153849800Y-88157600D02*
X153849800Y-87256900D01*
X156483900Y-90791700D02*
X153849800Y-88157600D01*
X156634000Y-90791700D02*
X156483900Y-90791700D01*
X156944100Y-90481600D02*
X156634000Y-90791700D01*
X157580400Y-90481600D02*
X156944100Y-90481600D01*
X158834000Y-95123000D02*
X158834000Y-94347700D01*
X153797000Y-53848000D02*
X153797000Y-55023300D01*
X167386000Y-78279300D02*
X167386000Y-77691700D01*
X167386000Y-78279300D02*
X167386000Y-78867000D01*
X167753400Y-77691700D02*
X167386000Y-77691700D01*
X168561300Y-76883800D02*
X167753400Y-77691700D01*
X168561300Y-71071900D02*
X168561300Y-76883800D01*
X154972300Y-57482900D02*
X168561300Y-71071900D01*
X154972300Y-55831200D02*
X154972300Y-57482900D01*
X154164400Y-55023300D02*
X154972300Y-55831200D01*
X153797000Y-55023300D02*
X154164400Y-55023300D01*
X167386000Y-78867000D02*
X167386000Y-80042300D01*
X162186500Y-94006600D02*
X162667300Y-94487400D01*
X162186500Y-85241800D02*
X162186500Y-94006600D01*
X167386000Y-80042300D02*
X162186500Y-85241800D01*
X158877000Y-56388000D02*
X158877000Y-57563300D01*
X172466000Y-72429100D02*
X172466000Y-76327000D01*
X158877000Y-58840100D02*
X172466000Y-72429100D01*
X158877000Y-57563300D02*
X158877000Y-58840100D01*
X153797000Y-56388000D02*
X153797000Y-57563300D01*
X167386000Y-71152300D02*
X167386000Y-76327000D01*
X153797000Y-57563300D02*
X167386000Y-71152300D01*
X171577000Y-53848000D02*
X171577000Y-55023300D01*
X185166000Y-78867000D02*
X185166000Y-77691700D01*
X171944400Y-55023300D02*
X171577000Y-55023300D01*
X172752300Y-55831200D02*
X171944400Y-55023300D01*
X172752300Y-57110700D02*
X172752300Y-55831200D01*
X186341300Y-70699700D02*
X172752300Y-57110700D01*
X186341300Y-76883800D02*
X186341300Y-70699700D01*
X185533400Y-77691700D02*
X186341300Y-76883800D01*
X185166000Y-77691700D02*
X185533400Y-77691700D01*
X185166000Y-84930100D02*
X185166000Y-78867000D01*
X177768600Y-92327500D02*
X185166000Y-84930100D01*
X177768600Y-92724600D02*
X177768600Y-92327500D01*
X177140500Y-93352700D02*
X177768600Y-92724600D01*
X177140500Y-97043300D02*
X177140500Y-93352700D01*
X177270300Y-97173100D02*
X177140500Y-97043300D01*
X157226000Y-78867000D02*
X157226000Y-77691700D01*
X143637000Y-53848000D02*
X143637000Y-55023300D01*
X157593300Y-77691700D02*
X157226000Y-77691700D01*
X158430700Y-76854300D02*
X157593300Y-77691700D01*
X158430700Y-71500800D02*
X158430700Y-76854300D01*
X144812300Y-57882400D02*
X158430700Y-71500800D01*
X144812300Y-55831200D02*
X144812300Y-57882400D01*
X144004400Y-55023300D02*
X144812300Y-55831200D01*
X143637000Y-55023300D02*
X144004400Y-55023300D01*
X156337000Y-56388000D02*
X156337000Y-57563300D01*
X169926000Y-76327000D02*
X169926000Y-75151700D01*
X169926000Y-71426500D02*
X169926000Y-75151700D01*
X156337000Y-57837500D02*
X169926000Y-71426500D01*
X156337000Y-57563300D02*
X156337000Y-57837500D01*
X169926000Y-76327000D02*
X169926000Y-77502300D01*
X162636800Y-92806800D02*
X163201300Y-93371300D01*
X162636800Y-85506300D02*
X162636800Y-92806800D01*
X168750700Y-79392400D02*
X162636800Y-85506300D01*
X168750700Y-78310200D02*
X168750700Y-79392400D01*
X169558600Y-77502300D02*
X168750700Y-78310200D01*
X169926000Y-77502300D02*
X169558600Y-77502300D01*
X141097000Y-56388000D02*
X141097000Y-57563300D01*
X154686000Y-76327000D02*
X154686000Y-75151700D01*
X154686000Y-71152300D02*
X141097000Y-57563300D01*
X154686000Y-75151700D02*
X154686000Y-71152300D01*
X174117000Y-53848000D02*
X174117000Y-55023300D01*
X187706000Y-78867000D02*
X187706000Y-77691700D01*
X187706000Y-83071600D02*
X187706000Y-78867000D01*
X178218900Y-92558700D02*
X187706000Y-83071600D01*
X178218900Y-95851800D02*
X178218900Y-92558700D01*
X177765900Y-96304800D02*
X178218900Y-95851800D01*
X188073400Y-77691700D02*
X187706000Y-77691700D01*
X188881300Y-76883800D02*
X188073400Y-77691700D01*
X188881300Y-71060900D02*
X188881300Y-76883800D01*
X175292300Y-57471900D02*
X188881300Y-71060900D01*
X175292300Y-55831200D02*
X175292300Y-57471900D01*
X174484400Y-55023300D02*
X175292300Y-55831200D01*
X174117000Y-55023300D02*
X174484400Y-55023300D01*
X166116000Y-89280000D02*
X166116000Y-90580300D01*
X166116000Y-92916300D02*
X165527600Y-93504700D01*
X166116000Y-90580300D02*
X166116000Y-92916300D01*
X193983200Y-81771000D02*
X180835400Y-94918800D01*
X193983200Y-60820500D02*
X193983200Y-81771000D01*
X189397300Y-56234600D02*
X193983200Y-60820500D01*
X180835400Y-100736700D02*
X185409800Y-105311100D01*
X180835400Y-94918800D02*
X180835400Y-100736700D01*
X180835400Y-94918800D02*
X179444100Y-94918800D01*
X177789800Y-105117900D02*
X177789800Y-109827400D01*
X174997700Y-102325800D02*
X177789800Y-105117900D01*
X174997700Y-100643200D02*
X174997700Y-102325800D01*
X163826600Y-93023100D02*
X163826600Y-93877900D01*
X163576000Y-92772500D02*
X163826600Y-93023100D01*
X163576000Y-89280000D02*
X163576000Y-92772500D01*
X169037000Y-56388000D02*
X169037000Y-57563300D01*
X182626000Y-76327000D02*
X182626000Y-75151700D01*
X182626000Y-71152300D02*
X182626000Y-75151700D01*
X169037000Y-57563300D02*
X182626000Y-71152300D01*
X182258600Y-77502300D02*
X182626000Y-77502300D01*
X181450700Y-78310200D02*
X182258600Y-77502300D01*
X181450700Y-87147300D02*
X181450700Y-78310200D01*
X175627800Y-92970200D02*
X181450700Y-87147300D01*
X167386000Y-95584400D02*
X169580700Y-93389700D01*
X167386000Y-98680000D02*
X167386000Y-95584400D01*
X182626000Y-76327000D02*
X182626000Y-77502300D01*
X170212300Y-53480700D02*
X170212300Y-53848000D01*
X171144100Y-52548900D02*
X170212300Y-53480700D01*
X200121900Y-52548900D02*
X171144100Y-52548900D01*
X200648600Y-53075600D02*
X200121900Y-52548900D01*
X200648600Y-53927500D02*
X200648600Y-53075600D01*
X201063700Y-54342600D02*
X200648600Y-53927500D01*
X202352400Y-54342600D02*
X201063700Y-54342600D01*
X202510000Y-54500200D02*
X202352400Y-54342600D01*
X202510000Y-55960000D02*
X202510000Y-54500200D01*
X201574000Y-56896000D02*
X202510000Y-55960000D01*
X169037000Y-53848000D02*
X170212300Y-53848000D01*
X183830700Y-77662300D02*
X182626000Y-78867000D01*
X183830700Y-71500800D02*
X183830700Y-77662300D01*
X170212300Y-57882400D02*
X183830700Y-71500800D01*
X170212300Y-53848000D02*
X170212300Y-57882400D01*
X166497000Y-56388000D02*
X166497000Y-57563300D01*
X180086000Y-71152300D02*
X180086000Y-76327000D01*
X166497000Y-57563300D02*
X180086000Y-71152300D01*
X179718600Y-77502300D02*
X180086000Y-77502300D01*
X178910700Y-78310200D02*
X179718600Y-77502300D01*
X178910700Y-87137200D02*
X178910700Y-78310200D01*
X175467500Y-90580400D02*
X178910700Y-87137200D01*
X171986400Y-90580400D02*
X175467500Y-90580400D01*
X171833000Y-90427000D02*
X171986400Y-90580400D01*
X171833000Y-88126500D02*
X171833000Y-90427000D01*
X171686200Y-87979700D02*
X171833000Y-88126500D01*
X169926000Y-87979700D02*
X171686200Y-87979700D01*
X169926000Y-89280000D02*
X169926000Y-87979700D01*
X180086000Y-76327000D02*
X180086000Y-77502300D01*
X163589600Y-55023300D02*
X163957000Y-55023300D01*
X162781700Y-55831200D02*
X163589600Y-55023300D01*
X162781700Y-57112900D02*
X162781700Y-55831200D01*
X176370700Y-70701900D02*
X162781700Y-57112900D01*
X176370700Y-76883800D02*
X176370700Y-70701900D01*
X177178600Y-77691700D02*
X176370700Y-76883800D01*
X177546000Y-77691700D02*
X177178600Y-77691700D01*
X177546000Y-78867000D02*
X177546000Y-77691700D01*
X163957000Y-53848000D02*
X163957000Y-55023300D01*
X161049600Y-55023300D02*
X161417000Y-55023300D01*
X160241700Y-55831200D02*
X161049600Y-55023300D01*
X160241700Y-58446700D02*
X160241700Y-55831200D01*
X173736000Y-71941000D02*
X160241700Y-58446700D01*
X173736000Y-77597000D02*
X173736000Y-71941000D01*
X175006000Y-78867000D02*
X173736000Y-77597000D01*
X161417000Y-53848000D02*
X161417000Y-55023300D01*
X138557000Y-56388000D02*
X138557000Y-57563300D01*
X152146000Y-76327000D02*
X152146000Y-75151700D01*
X152146000Y-71152300D02*
X152146000Y-75151700D01*
X138557000Y-57563300D02*
X152146000Y-71152300D01*
X154254000Y-77625900D02*
X155390700Y-77625900D01*
X153502100Y-78377800D02*
X154254000Y-77625900D01*
X153502100Y-80619500D02*
X153502100Y-78377800D01*
X155460200Y-82577600D02*
X153502100Y-80619500D01*
X172466000Y-93387300D02*
X172466000Y-98680000D01*
X169659000Y-90580300D02*
X172466000Y-93387300D01*
X169491200Y-90580300D02*
X169659000Y-90580300D01*
X169300600Y-90389700D02*
X169491200Y-90580300D01*
X169300600Y-87029900D02*
X169300600Y-90389700D01*
X167602200Y-85331500D02*
X169300600Y-87029900D01*
X166324200Y-85331500D02*
X167602200Y-85331500D01*
X164837000Y-86818700D02*
X166324200Y-85331500D01*
X138557000Y-53848000D02*
X138557000Y-55023300D01*
X138924400Y-55023300D02*
X138557000Y-55023300D01*
X139732300Y-55831200D02*
X138924400Y-55023300D01*
X139732300Y-57618900D02*
X139732300Y-55831200D01*
X153350700Y-71237300D02*
X139732300Y-57618900D01*
X153350700Y-76854300D02*
X153350700Y-71237300D01*
X152513300Y-77691700D02*
X153350700Y-76854300D01*
X152146000Y-77691700D02*
X152513300Y-77691700D01*
X152146000Y-78867000D02*
X152146000Y-77691700D01*
X172466000Y-89280000D02*
X172466000Y-87979700D01*
X152146000Y-81526200D02*
X152146000Y-78867000D01*
X161367800Y-90748000D02*
X152146000Y-81526200D01*
X161367800Y-94072200D02*
X161367800Y-90748000D01*
X162441900Y-95146300D02*
X161367800Y-94072200D01*
X163509400Y-95146300D02*
X162441900Y-95146300D01*
X164452000Y-94203700D02*
X163509400Y-95146300D01*
X164452000Y-92809300D02*
X164452000Y-94203700D01*
X164201400Y-92558700D02*
X164452000Y-92809300D01*
X164201400Y-86568400D02*
X164201400Y-92558700D01*
X165910800Y-84859000D02*
X164201400Y-86568400D01*
X169345300Y-84859000D02*
X165910800Y-84859000D01*
X172466000Y-87979700D02*
X169345300Y-84859000D01*
X149606000Y-76327000D02*
X149606000Y-75151700D01*
X169926000Y-98680000D02*
X169926000Y-97379700D01*
X149606000Y-76327000D02*
X149606000Y-77502300D01*
X169926000Y-93938900D02*
X169926000Y-97379700D01*
X170222100Y-93642800D02*
X169926000Y-93938900D01*
X170222100Y-93111300D02*
X170222100Y-93642800D01*
X169042000Y-91931200D02*
X170222100Y-93111300D01*
X168931400Y-91931200D02*
X169042000Y-91931200D01*
X168782900Y-91782700D02*
X168931400Y-91931200D01*
X167233300Y-91782700D02*
X168782900Y-91782700D01*
X166603300Y-92412700D02*
X167233300Y-91782700D01*
X166603300Y-93372300D02*
X166603300Y-92412700D01*
X163928700Y-96046900D02*
X166603300Y-93372300D01*
X162068700Y-96046900D02*
X163928700Y-96046900D01*
X160467200Y-94445400D02*
X162068700Y-96046900D01*
X160467200Y-91404200D02*
X160467200Y-94445400D01*
X148420300Y-79357300D02*
X160467200Y-91404200D01*
X148420300Y-78320700D02*
X148420300Y-79357300D01*
X149238700Y-77502300D02*
X148420300Y-78320700D01*
X149606000Y-77502300D02*
X149238700Y-77502300D01*
X149606000Y-70590800D02*
X149606000Y-75151700D01*
X136017000Y-57001800D02*
X149606000Y-70590800D01*
X136017000Y-56388000D02*
X136017000Y-57001800D01*
X167386000Y-89280000D02*
X167386000Y-87979700D01*
X136017000Y-53848000D02*
X136017000Y-55023300D01*
X149606000Y-79748800D02*
X149606000Y-78867000D01*
X160917500Y-91060300D02*
X149606000Y-79748800D01*
X160917500Y-94258800D02*
X160917500Y-91060300D01*
X162255300Y-95596600D02*
X160917500Y-94258800D01*
X163696000Y-95596600D02*
X162255300Y-95596600D01*
X164902300Y-94390300D02*
X163696000Y-95596600D01*
X164902300Y-93245700D02*
X164902300Y-94390300D01*
X165490700Y-92657300D02*
X164902300Y-93245700D01*
X165490700Y-87131100D02*
X165490700Y-92657300D01*
X166840000Y-85781800D02*
X165490700Y-87131100D01*
X167389800Y-85781800D02*
X166840000Y-85781800D01*
X167746800Y-86138800D02*
X167389800Y-85781800D01*
X167746800Y-87618900D02*
X167746800Y-86138800D01*
X167386000Y-87979700D02*
X167746800Y-87618900D01*
X136384400Y-55023300D02*
X136017000Y-55023300D01*
X137192300Y-55831200D02*
X136384400Y-55023300D01*
X137192300Y-57338200D02*
X137192300Y-55831200D01*
X150810700Y-70956600D02*
X137192300Y-57338200D01*
X150810700Y-77662300D02*
X150810700Y-70956600D01*
X149606000Y-78867000D02*
X150810700Y-77662300D01*
X126722400Y-105234700D02*
X126722400Y-105132400D01*
X126238000Y-84814000D02*
X127359000Y-83693000D01*
X126238000Y-104648000D02*
X126238000Y-84814000D01*
X126722400Y-105132400D02*
X126238000Y-104648000D01*
X126722400Y-105234700D02*
X126989800Y-105502100D01*
X126989800Y-109827400D02*
X126989800Y-105502100D01*
X197199300Y-55893300D02*
X201574000Y-55893300D01*
X196622900Y-56469700D02*
X197199300Y-55893300D01*
X201574000Y-55118000D02*
X201574000Y-55893300D01*
X130132000Y-78994000D02*
X131057300Y-78994000D01*
X131592100Y-78994000D02*
X133559900Y-77026200D01*
X131057300Y-78994000D02*
X131592100Y-78994000D01*
X202514300Y-53355000D02*
X202499300Y-53340000D01*
X202683400Y-53355000D02*
X202514300Y-53355000D01*
X201574000Y-53340000D02*
X202499300Y-53340000D01*
X149352000Y-89281000D02*
X149352000Y-87955700D01*
X149352000Y-89281000D02*
X149352000Y-90606300D01*
X156634000Y-96397800D02*
X156828700Y-96592500D01*
X156634000Y-95123000D02*
X156634000Y-96397800D01*
X152892600Y-90606300D02*
X149352000Y-90606300D01*
X156634000Y-94347700D02*
X152892600Y-90606300D01*
X156634000Y-95123000D02*
X156634000Y-94347700D01*
X145718700Y-72292400D02*
X145718700Y-69070400D01*
X145376800Y-72634300D02*
X145718700Y-72292400D01*
X145376800Y-79415400D02*
X145376800Y-72634300D01*
X148769600Y-82808200D02*
X145376800Y-79415400D01*
X148769600Y-87519000D02*
X148769600Y-82808200D01*
X149206300Y-87955700D02*
X148769600Y-87519000D01*
X149352000Y-87955700D02*
X149206300Y-87955700D01*
X171111700Y-77681300D02*
X169926000Y-78867000D01*
X171111700Y-71711700D02*
X171111700Y-77681300D01*
X157512300Y-58112300D02*
X171111700Y-71711700D01*
X157512300Y-55831200D02*
X157512300Y-58112300D01*
X156704400Y-55023300D02*
X157512300Y-55831200D01*
X156337000Y-55023300D02*
X156704400Y-55023300D01*
X156337000Y-53848000D02*
X156337000Y-55023300D01*
X169058100Y-80042300D02*
X163271900Y-85828500D01*
X169926000Y-80042300D02*
X169058100Y-80042300D01*
X169926000Y-78867000D02*
X169926000Y-80042300D01*
X150622000Y-98681000D02*
X150622000Y-100006300D01*
X150705600Y-100089900D02*
X150622000Y-100006300D01*
X150705600Y-101556400D02*
X150705600Y-100089900D01*
X150815800Y-101666600D02*
X150705600Y-101556400D01*
X152457900Y-101666600D02*
X150815800Y-101666600D01*
X152566300Y-101558200D02*
X152457900Y-101666600D01*
X152566300Y-97148100D02*
X152566300Y-101558200D01*
X150932900Y-95514700D02*
X152566300Y-97148100D01*
X150614500Y-95514700D02*
X150932900Y-95514700D01*
X147438500Y-92338700D02*
X150614500Y-95514700D01*
X147438500Y-83466400D02*
X147438500Y-92338700D01*
X147066000Y-78867000D02*
X147066000Y-77691700D01*
X133477000Y-53848000D02*
X133477000Y-55023300D01*
X147275500Y-80042300D02*
X147066000Y-80042300D01*
X154555100Y-87321900D02*
X147275500Y-80042300D01*
X154555100Y-87978600D02*
X154555100Y-87321900D01*
X147066000Y-78867000D02*
X147066000Y-80042300D01*
X133844400Y-55023300D02*
X133477000Y-55023300D01*
X134652300Y-55831200D02*
X133844400Y-55023300D01*
X134652300Y-56695800D02*
X134652300Y-55831200D01*
X146344000Y-68387500D02*
X134652300Y-56695800D01*
X146344000Y-72304000D02*
X146344000Y-68387500D01*
X145890700Y-72757300D02*
X146344000Y-72304000D01*
X145890700Y-76883800D02*
X145890700Y-72757300D01*
X146698600Y-77691700D02*
X145890700Y-76883800D01*
X147066000Y-77691700D02*
X146698600Y-77691700D01*
X177546000Y-71152300D02*
X177546000Y-76327000D01*
X163957000Y-57563300D02*
X177546000Y-71152300D01*
X163957000Y-56388000D02*
X163957000Y-57563300D01*
X197690500Y-57654200D02*
X198448700Y-56896000D01*
X196706800Y-57654200D02*
X197690500Y-57654200D01*
X199374000Y-56896000D02*
X198448700Y-56896000D01*
X130959000Y-83693000D02*
X130959000Y-82567700D01*
X130132000Y-74295000D02*
X131057300Y-74295000D01*
X134185200Y-78427000D02*
X137461000Y-78427000D01*
X134185200Y-79341500D02*
X134185200Y-78427000D01*
X130959000Y-82567700D02*
X134185200Y-79341500D01*
X131713100Y-74295000D02*
X131057300Y-74295000D01*
X134185200Y-76767100D02*
X131713100Y-74295000D01*
X134185200Y-78427000D02*
X134185200Y-76767100D01*
X158918200Y-92342300D02*
X159266700Y-92690800D01*
X158834000Y-92342300D02*
X158918200Y-92342300D01*
X158834000Y-91567000D02*
X158834000Y-92342300D01*
D22*
G36*
X138049000Y-98554000D02*
X139065000Y-98554000D01*
X139065000Y-98534000D01*
X139319000Y-98534000D01*
X139319000Y-98554000D01*
X139339000Y-98554000D01*
X139339000Y-98808000D01*
X139319000Y-98808000D01*
X139319000Y-100157250D01*
X139477750Y-100316000D01*
X139618310Y-100316000D01*
X139702000Y-100281334D01*
X139702000Y-103110698D01*
X138270620Y-104542078D01*
X138225133Y-104542038D01*
X137881357Y-104684083D01*
X137618108Y-104946873D01*
X137516139Y-105192440D01*
X137435590Y-105192440D01*
X137276840Y-105351190D01*
X137276840Y-109700440D01*
X137296840Y-109700440D01*
X137296840Y-109954440D01*
X137276840Y-109954440D01*
X137276840Y-109974440D01*
X137022840Y-109974440D01*
X137022840Y-109954440D01*
X134736840Y-109954440D01*
X134736840Y-109974440D01*
X134482840Y-109974440D01*
X134482840Y-109954440D01*
X134462840Y-109954440D01*
X134462840Y-109700440D01*
X134482840Y-109700440D01*
X134482840Y-105351190D01*
X134736840Y-105351190D01*
X134736840Y-109700440D01*
X137022840Y-109700440D01*
X137022840Y-105351190D01*
X136864090Y-105192440D01*
X136123531Y-105192440D01*
X135890142Y-105289113D01*
X135879840Y-105299415D01*
X135869538Y-105289113D01*
X135636149Y-105192440D01*
X134895590Y-105192440D01*
X134736840Y-105351190D01*
X134482840Y-105351190D01*
X134324090Y-105192440D01*
X133583531Y-105192440D01*
X133350142Y-105289113D01*
X133332536Y-105306719D01*
X133221730Y-105231009D01*
X132969840Y-105180000D01*
X132904800Y-105180000D01*
X132904800Y-102757068D01*
X136695118Y-98966750D01*
X136987000Y-98966750D01*
X136987000Y-99807309D01*
X137083673Y-100040698D01*
X137262301Y-100219327D01*
X137495690Y-100316000D01*
X137636250Y-100316000D01*
X137795000Y-100157250D01*
X137795000Y-98808000D01*
X138049000Y-98808000D01*
X138049000Y-100157250D01*
X138207750Y-100316000D01*
X138348310Y-100316000D01*
X138557000Y-100229558D01*
X138765690Y-100316000D01*
X138906250Y-100316000D01*
X139065000Y-100157250D01*
X139065000Y-98808000D01*
X138049000Y-98808000D01*
X137795000Y-98808000D01*
X137145750Y-98808000D01*
X136987000Y-98966750D01*
X136695118Y-98966750D01*
X137126809Y-98535059D01*
X137145750Y-98554000D01*
X137795000Y-98554000D01*
X137795000Y-98534000D01*
X138049000Y-98534000D01*
X138049000Y-98554000D01*
X138049000Y-98554000D01*
G37*
X138049000Y-98554000D02*
X139065000Y-98554000D01*
X139065000Y-98534000D01*
X139319000Y-98534000D01*
X139319000Y-98554000D01*
X139339000Y-98554000D01*
X139339000Y-98808000D01*
X139319000Y-98808000D01*
X139319000Y-100157250D01*
X139477750Y-100316000D01*
X139618310Y-100316000D01*
X139702000Y-100281334D01*
X139702000Y-103110698D01*
X138270620Y-104542078D01*
X138225133Y-104542038D01*
X137881357Y-104684083D01*
X137618108Y-104946873D01*
X137516139Y-105192440D01*
X137435590Y-105192440D01*
X137276840Y-105351190D01*
X137276840Y-109700440D01*
X137296840Y-109700440D01*
X137296840Y-109954440D01*
X137276840Y-109954440D01*
X137276840Y-109974440D01*
X137022840Y-109974440D01*
X137022840Y-109954440D01*
X134736840Y-109954440D01*
X134736840Y-109974440D01*
X134482840Y-109974440D01*
X134482840Y-109954440D01*
X134462840Y-109954440D01*
X134462840Y-109700440D01*
X134482840Y-109700440D01*
X134482840Y-105351190D01*
X134736840Y-105351190D01*
X134736840Y-109700440D01*
X137022840Y-109700440D01*
X137022840Y-105351190D01*
X136864090Y-105192440D01*
X136123531Y-105192440D01*
X135890142Y-105289113D01*
X135879840Y-105299415D01*
X135869538Y-105289113D01*
X135636149Y-105192440D01*
X134895590Y-105192440D01*
X134736840Y-105351190D01*
X134482840Y-105351190D01*
X134324090Y-105192440D01*
X133583531Y-105192440D01*
X133350142Y-105289113D01*
X133332536Y-105306719D01*
X133221730Y-105231009D01*
X132969840Y-105180000D01*
X132904800Y-105180000D01*
X132904800Y-102757068D01*
X136695118Y-98966750D01*
X136987000Y-98966750D01*
X136987000Y-99807309D01*
X137083673Y-100040698D01*
X137262301Y-100219327D01*
X137495690Y-100316000D01*
X137636250Y-100316000D01*
X137795000Y-100157250D01*
X137795000Y-98808000D01*
X138049000Y-98808000D01*
X138049000Y-100157250D01*
X138207750Y-100316000D01*
X138348310Y-100316000D01*
X138557000Y-100229558D01*
X138765690Y-100316000D01*
X138906250Y-100316000D01*
X139065000Y-100157250D01*
X139065000Y-98808000D01*
X138049000Y-98808000D01*
X137795000Y-98808000D01*
X137145750Y-98808000D01*
X136987000Y-98966750D01*
X136695118Y-98966750D01*
X137126809Y-98535059D01*
X137145750Y-98554000D01*
X137795000Y-98554000D01*
X137795000Y-98534000D01*
X138049000Y-98534000D01*
X138049000Y-98554000D01*
G36*
X161531299Y-96584301D02*
X161777861Y-96749048D01*
X162068700Y-96806900D01*
X163928700Y-96806900D01*
X164219539Y-96749048D01*
X164466101Y-96584301D01*
X164730600Y-96319802D01*
X164730600Y-97057560D01*
X164546000Y-97057560D01*
X164310683Y-97101838D01*
X164220020Y-97160178D01*
X164002310Y-97070000D01*
X163861750Y-97070000D01*
X163703000Y-97228750D01*
X163703000Y-98553000D01*
X163723000Y-98553000D01*
X163723000Y-98807000D01*
X163703000Y-98807000D01*
X163703000Y-98827000D01*
X163449000Y-98827000D01*
X163449000Y-98807000D01*
X162799750Y-98807000D01*
X162641000Y-98965750D01*
X162641000Y-99670600D01*
X162541300Y-99670600D01*
X162250461Y-99728452D01*
X162003899Y-99893199D01*
X156932399Y-104964699D01*
X156788540Y-105180000D01*
X156569840Y-105180000D01*
X156334523Y-105224278D01*
X156199263Y-105311316D01*
X156081730Y-105231009D01*
X155829840Y-105180000D01*
X155689800Y-105180000D01*
X155689800Y-97578691D01*
X162641000Y-97578691D01*
X162641000Y-98394250D01*
X162799750Y-98553000D01*
X163449000Y-98553000D01*
X163449000Y-97228750D01*
X163290250Y-97070000D01*
X163149690Y-97070000D01*
X162916301Y-97166673D01*
X162737673Y-97345302D01*
X162641000Y-97578691D01*
X155689800Y-97578691D01*
X155689800Y-96106358D01*
X155782110Y-96169431D01*
X155874000Y-96188039D01*
X155874000Y-96397800D01*
X155893782Y-96497251D01*
X155893538Y-96777667D01*
X156035583Y-97121443D01*
X156298373Y-97384692D01*
X156641901Y-97527338D01*
X157013867Y-97527662D01*
X157357643Y-97385617D01*
X157620892Y-97122827D01*
X157763538Y-96779299D01*
X157763862Y-96407333D01*
X157626541Y-96074991D01*
X157685441Y-96037090D01*
X157733134Y-95967289D01*
X157769910Y-96024441D01*
X157982110Y-96169431D01*
X158234000Y-96220440D01*
X159434000Y-96220440D01*
X159669317Y-96176162D01*
X159885441Y-96037090D01*
X160030431Y-95824890D01*
X160081440Y-95573000D01*
X160081440Y-95134442D01*
X161531299Y-96584301D01*
X161531299Y-96584301D01*
G37*
X161531299Y-96584301D02*
X161777861Y-96749048D01*
X162068700Y-96806900D01*
X163928700Y-96806900D01*
X164219539Y-96749048D01*
X164466101Y-96584301D01*
X164730600Y-96319802D01*
X164730600Y-97057560D01*
X164546000Y-97057560D01*
X164310683Y-97101838D01*
X164220020Y-97160178D01*
X164002310Y-97070000D01*
X163861750Y-97070000D01*
X163703000Y-97228750D01*
X163703000Y-98553000D01*
X163723000Y-98553000D01*
X163723000Y-98807000D01*
X163703000Y-98807000D01*
X163703000Y-98827000D01*
X163449000Y-98827000D01*
X163449000Y-98807000D01*
X162799750Y-98807000D01*
X162641000Y-98965750D01*
X162641000Y-99670600D01*
X162541300Y-99670600D01*
X162250461Y-99728452D01*
X162003899Y-99893199D01*
X156932399Y-104964699D01*
X156788540Y-105180000D01*
X156569840Y-105180000D01*
X156334523Y-105224278D01*
X156199263Y-105311316D01*
X156081730Y-105231009D01*
X155829840Y-105180000D01*
X155689800Y-105180000D01*
X155689800Y-97578691D01*
X162641000Y-97578691D01*
X162641000Y-98394250D01*
X162799750Y-98553000D01*
X163449000Y-98553000D01*
X163449000Y-97228750D01*
X163290250Y-97070000D01*
X163149690Y-97070000D01*
X162916301Y-97166673D01*
X162737673Y-97345302D01*
X162641000Y-97578691D01*
X155689800Y-97578691D01*
X155689800Y-96106358D01*
X155782110Y-96169431D01*
X155874000Y-96188039D01*
X155874000Y-96397800D01*
X155893782Y-96497251D01*
X155893538Y-96777667D01*
X156035583Y-97121443D01*
X156298373Y-97384692D01*
X156641901Y-97527338D01*
X157013867Y-97527662D01*
X157357643Y-97385617D01*
X157620892Y-97122827D01*
X157763538Y-96779299D01*
X157763862Y-96407333D01*
X157626541Y-96074991D01*
X157685441Y-96037090D01*
X157733134Y-95967289D01*
X157769910Y-96024441D01*
X157982110Y-96169431D01*
X158234000Y-96220440D01*
X159434000Y-96220440D01*
X159669317Y-96176162D01*
X159885441Y-96037090D01*
X160030431Y-95824890D01*
X160081440Y-95573000D01*
X160081440Y-95134442D01*
X161531299Y-96584301D01*
G36*
X150168199Y-102093801D02*
X150278399Y-102204001D01*
X150524960Y-102368748D01*
X150815800Y-102426600D01*
X151680798Y-102426600D01*
X151122899Y-102984499D01*
X150958152Y-103231061D01*
X150900300Y-103521900D01*
X150900300Y-105210469D01*
X150749840Y-105180000D01*
X150531060Y-105180000D01*
X150387201Y-104964699D01*
X149853200Y-104430698D01*
X149853200Y-102630463D01*
X149885392Y-102598327D01*
X150028038Y-102254799D01*
X150028282Y-101975000D01*
X150088819Y-101975000D01*
X150168199Y-102093801D01*
X150168199Y-102093801D01*
G37*
X150168199Y-102093801D02*
X150278399Y-102204001D01*
X150524960Y-102368748D01*
X150815800Y-102426600D01*
X151680798Y-102426600D01*
X151122899Y-102984499D01*
X150958152Y-103231061D01*
X150900300Y-103521900D01*
X150900300Y-105210469D01*
X150749840Y-105180000D01*
X150531060Y-105180000D01*
X150387201Y-104964699D01*
X149853200Y-104430698D01*
X149853200Y-102630463D01*
X149885392Y-102598327D01*
X150028038Y-102254799D01*
X150028282Y-101975000D01*
X150088819Y-101975000D01*
X150168199Y-102093801D01*
G36*
X202725377Y-50412811D02*
X202861341Y-50503658D01*
X202952189Y-50639622D01*
X202998000Y-50869931D01*
X202998000Y-52473230D01*
X202870199Y-52420162D01*
X202610834Y-52419936D01*
X202425890Y-52293569D01*
X202174000Y-52242560D01*
X200974000Y-52242560D01*
X200903607Y-52255805D01*
X200659301Y-52011499D01*
X200412739Y-51846752D01*
X200121900Y-51788900D01*
X171144100Y-51788900D01*
X170853260Y-51846752D01*
X170606699Y-52011499D01*
X169944558Y-52673640D01*
X169605285Y-52446946D01*
X169037000Y-52333907D01*
X168468715Y-52446946D01*
X167986946Y-52768853D01*
X167759298Y-53109553D01*
X167692183Y-52966642D01*
X167263924Y-52576355D01*
X166853890Y-52406524D01*
X166624000Y-52527845D01*
X166624000Y-53721000D01*
X166644000Y-53721000D01*
X166644000Y-53975000D01*
X166624000Y-53975000D01*
X166624000Y-53995000D01*
X166370000Y-53995000D01*
X166370000Y-53975000D01*
X166350000Y-53975000D01*
X166350000Y-53721000D01*
X166370000Y-53721000D01*
X166370000Y-52527845D01*
X166140110Y-52406524D01*
X165730076Y-52576355D01*
X165301817Y-52966642D01*
X165234702Y-53109553D01*
X165007054Y-52768853D01*
X164525285Y-52446946D01*
X163957000Y-52333907D01*
X163388715Y-52446946D01*
X162906946Y-52768853D01*
X162687000Y-53098026D01*
X162467054Y-52768853D01*
X161985285Y-52446946D01*
X161417000Y-52333907D01*
X160848715Y-52446946D01*
X160366946Y-52768853D01*
X160139298Y-53109553D01*
X160072183Y-52966642D01*
X159643924Y-52576355D01*
X159233890Y-52406524D01*
X159004000Y-52527845D01*
X159004000Y-53721000D01*
X159024000Y-53721000D01*
X159024000Y-53975000D01*
X159004000Y-53975000D01*
X159004000Y-53995000D01*
X158750000Y-53995000D01*
X158750000Y-53975000D01*
X158730000Y-53975000D01*
X158730000Y-53721000D01*
X158750000Y-53721000D01*
X158750000Y-52527845D01*
X158520110Y-52406524D01*
X158110076Y-52576355D01*
X157681817Y-52966642D01*
X157614702Y-53109553D01*
X157387054Y-52768853D01*
X156905285Y-52446946D01*
X156337000Y-52333907D01*
X155768715Y-52446946D01*
X155286946Y-52768853D01*
X155067000Y-53098026D01*
X154847054Y-52768853D01*
X154365285Y-52446946D01*
X153797000Y-52333907D01*
X153228715Y-52446946D01*
X152746946Y-52768853D01*
X152527000Y-53098026D01*
X152307054Y-52768853D01*
X151825285Y-52446946D01*
X151257000Y-52333907D01*
X150688715Y-52446946D01*
X150206946Y-52768853D01*
X149987000Y-53098026D01*
X149767054Y-52768853D01*
X149285285Y-52446946D01*
X148717000Y-52333907D01*
X148148715Y-52446946D01*
X147666946Y-52768853D01*
X147439298Y-53109553D01*
X147372183Y-52966642D01*
X146943924Y-52576355D01*
X146533890Y-52406524D01*
X146304000Y-52527845D01*
X146304000Y-53721000D01*
X146324000Y-53721000D01*
X146324000Y-53975000D01*
X146304000Y-53975000D01*
X146304000Y-53995000D01*
X146050000Y-53995000D01*
X146050000Y-53975000D01*
X146030000Y-53975000D01*
X146030000Y-53721000D01*
X146050000Y-53721000D01*
X146050000Y-52527845D01*
X145820110Y-52406524D01*
X145410076Y-52576355D01*
X144981817Y-52966642D01*
X144914702Y-53109553D01*
X144687054Y-52768853D01*
X144205285Y-52446946D01*
X143637000Y-52333907D01*
X143068715Y-52446946D01*
X142586946Y-52768853D01*
X142359298Y-53109553D01*
X142292183Y-52966642D01*
X141863924Y-52576355D01*
X141453890Y-52406524D01*
X141224000Y-52527845D01*
X141224000Y-53721000D01*
X141244000Y-53721000D01*
X141244000Y-53975000D01*
X141224000Y-53975000D01*
X141224000Y-53995000D01*
X140970000Y-53995000D01*
X140970000Y-53975000D01*
X140950000Y-53975000D01*
X140950000Y-53721000D01*
X140970000Y-53721000D01*
X140970000Y-52527845D01*
X140740110Y-52406524D01*
X140330076Y-52576355D01*
X139901817Y-52966642D01*
X139834702Y-53109553D01*
X139607054Y-52768853D01*
X139125285Y-52446946D01*
X138557000Y-52333907D01*
X137988715Y-52446946D01*
X137506946Y-52768853D01*
X137287000Y-53098026D01*
X137067054Y-52768853D01*
X136585285Y-52446946D01*
X136017000Y-52333907D01*
X135448715Y-52446946D01*
X134966946Y-52768853D01*
X134747000Y-53098026D01*
X134527054Y-52768853D01*
X134045285Y-52446946D01*
X133477000Y-52333907D01*
X132908715Y-52446946D01*
X132426946Y-52768853D01*
X132105039Y-53250622D01*
X131992000Y-53818907D01*
X131992000Y-53877093D01*
X132105039Y-54445378D01*
X132426946Y-54927147D01*
X132710101Y-55116345D01*
X132710076Y-55116355D01*
X132281817Y-55506642D01*
X132035514Y-56031108D01*
X132156181Y-56261000D01*
X133350000Y-56261000D01*
X133350000Y-56241000D01*
X133604000Y-56241000D01*
X133604000Y-56261000D01*
X133624000Y-56261000D01*
X133624000Y-56515000D01*
X133604000Y-56515000D01*
X133604000Y-57708155D01*
X133833890Y-57829476D01*
X134243924Y-57659645D01*
X134399532Y-57517834D01*
X138379783Y-61498085D01*
X138329908Y-61547873D01*
X138187262Y-61891401D01*
X138186938Y-62263367D01*
X138328983Y-62607143D01*
X138432000Y-62710340D01*
X138432000Y-78494144D01*
X138395955Y-78479177D01*
X138396162Y-78241833D01*
X138254117Y-77898057D01*
X137991327Y-77634808D01*
X137647799Y-77492162D01*
X137275833Y-77491838D01*
X136932057Y-77633883D01*
X136898882Y-77667000D01*
X134945200Y-77667000D01*
X134945200Y-76767100D01*
X134891931Y-76499300D01*
X134887348Y-76476260D01*
X134722601Y-76229699D01*
X132250501Y-73757599D01*
X132003939Y-73592852D01*
X131713100Y-73535000D01*
X131287105Y-73535000D01*
X131196090Y-73393559D01*
X130983890Y-73248569D01*
X130732000Y-73197560D01*
X129532000Y-73197560D01*
X129296683Y-73241838D01*
X129080559Y-73380910D01*
X129034031Y-73449006D01*
X128891698Y-73306673D01*
X128658309Y-73210000D01*
X128217750Y-73210000D01*
X128059000Y-73368750D01*
X128059000Y-74168000D01*
X128079000Y-74168000D01*
X128079000Y-74422000D01*
X128059000Y-74422000D01*
X128059000Y-75221250D01*
X128217750Y-75380000D01*
X128658309Y-75380000D01*
X128891698Y-75283327D01*
X129032936Y-75142090D01*
X129067910Y-75196441D01*
X129280110Y-75341431D01*
X129532000Y-75392440D01*
X130732000Y-75392440D01*
X130967317Y-75348162D01*
X131183441Y-75209090D01*
X131288726Y-75055000D01*
X131398298Y-75055000D01*
X132803471Y-76460173D01*
X132767708Y-76495873D01*
X132625062Y-76839401D01*
X132625021Y-76886277D01*
X132031757Y-77479541D01*
X131972627Y-77420308D01*
X131629099Y-77277662D01*
X131257133Y-77277338D01*
X131117268Y-77335129D01*
X131117431Y-77334890D01*
X131168440Y-77083000D01*
X131168440Y-76333000D01*
X131124162Y-76097683D01*
X130985090Y-75881559D01*
X130772890Y-75736569D01*
X130521000Y-75685560D01*
X129321000Y-75685560D01*
X129085683Y-75729838D01*
X128982354Y-75796329D01*
X128980698Y-75794673D01*
X128747309Y-75698000D01*
X128306750Y-75698000D01*
X128148000Y-75856750D01*
X128148000Y-76581000D01*
X128168000Y-76581000D01*
X128168000Y-76835000D01*
X128148000Y-76835000D01*
X128148000Y-76855000D01*
X127894000Y-76855000D01*
X127894000Y-76835000D01*
X126944750Y-76835000D01*
X126786000Y-76993750D01*
X126786000Y-77209310D01*
X126882673Y-77442699D01*
X127061302Y-77621327D01*
X127294691Y-77718000D01*
X127370076Y-77718000D01*
X127239085Y-77914043D01*
X127096683Y-77940838D01*
X126880559Y-78079910D01*
X126735569Y-78292110D01*
X126684560Y-78544000D01*
X126684560Y-79444000D01*
X126728838Y-79679317D01*
X126867910Y-79895441D01*
X127080110Y-80040431D01*
X127332000Y-80091440D01*
X128532000Y-80091440D01*
X128767317Y-80047162D01*
X128983441Y-79908090D01*
X129031134Y-79838289D01*
X129067910Y-79895441D01*
X129280110Y-80040431D01*
X129532000Y-80091440D01*
X130732000Y-80091440D01*
X130967317Y-80047162D01*
X131183441Y-79908090D01*
X131288726Y-79754000D01*
X131592100Y-79754000D01*
X131882939Y-79696148D01*
X132129501Y-79531401D01*
X133425200Y-78235702D01*
X133425200Y-79026698D01*
X130421599Y-82030299D01*
X130277767Y-82245560D01*
X129659000Y-82245560D01*
X129423683Y-82289838D01*
X129207559Y-82428910D01*
X129159866Y-82498711D01*
X129123090Y-82441559D01*
X128910890Y-82296569D01*
X128659000Y-82245560D01*
X126059000Y-82245560D01*
X125823683Y-82289838D01*
X125607559Y-82428910D01*
X125462569Y-82641110D01*
X125411560Y-82893000D01*
X125411560Y-84493000D01*
X125455838Y-84728317D01*
X125485786Y-84774858D01*
X125478000Y-84814000D01*
X125478000Y-104287245D01*
X125445937Y-104209838D01*
X125198167Y-103839022D01*
X125002278Y-103643134D01*
X125002277Y-103643133D01*
X124631462Y-103395362D01*
X124475688Y-103330839D01*
X124375521Y-103289348D01*
X123938115Y-103202343D01*
X123868662Y-103202343D01*
X123800562Y-103188701D01*
X114497409Y-103176095D01*
X114266622Y-103130189D01*
X114130658Y-103039341D01*
X114039811Y-102903377D01*
X113994000Y-102673073D01*
X113994000Y-76206690D01*
X126786000Y-76206690D01*
X126786000Y-76422250D01*
X126944750Y-76581000D01*
X127894000Y-76581000D01*
X127894000Y-75856750D01*
X127735250Y-75698000D01*
X127294691Y-75698000D01*
X127061302Y-75794673D01*
X126882673Y-75973301D01*
X126786000Y-76206690D01*
X113994000Y-76206690D01*
X113994000Y-74580750D01*
X126697000Y-74580750D01*
X126697000Y-74871310D01*
X126793673Y-75104699D01*
X126972302Y-75283327D01*
X127205691Y-75380000D01*
X127646250Y-75380000D01*
X127805000Y-75221250D01*
X127805000Y-74422000D01*
X126855750Y-74422000D01*
X126697000Y-74580750D01*
X113994000Y-74580750D01*
X113994000Y-73718690D01*
X126697000Y-73718690D01*
X126697000Y-74009250D01*
X126855750Y-74168000D01*
X127805000Y-74168000D01*
X127805000Y-73368750D01*
X127646250Y-73210000D01*
X127205691Y-73210000D01*
X126972302Y-73306673D01*
X126793673Y-73485301D01*
X126697000Y-73718690D01*
X113994000Y-73718690D01*
X113994000Y-56744892D01*
X132035514Y-56744892D01*
X132281817Y-57269358D01*
X132710076Y-57659645D01*
X133120110Y-57829476D01*
X133350000Y-57708155D01*
X133350000Y-56515000D01*
X132156181Y-56515000D01*
X132035514Y-56744892D01*
X113994000Y-56744892D01*
X113994000Y-50869927D01*
X114039811Y-50639623D01*
X114130658Y-50503659D01*
X114266622Y-50412811D01*
X114496931Y-50367000D01*
X202495073Y-50367000D01*
X202725377Y-50412811D01*
X202725377Y-50412811D01*
G37*
X202725377Y-50412811D02*
X202861341Y-50503658D01*
X202952189Y-50639622D01*
X202998000Y-50869931D01*
X202998000Y-52473230D01*
X202870199Y-52420162D01*
X202610834Y-52419936D01*
X202425890Y-52293569D01*
X202174000Y-52242560D01*
X200974000Y-52242560D01*
X200903607Y-52255805D01*
X200659301Y-52011499D01*
X200412739Y-51846752D01*
X200121900Y-51788900D01*
X171144100Y-51788900D01*
X170853260Y-51846752D01*
X170606699Y-52011499D01*
X169944558Y-52673640D01*
X169605285Y-52446946D01*
X169037000Y-52333907D01*
X168468715Y-52446946D01*
X167986946Y-52768853D01*
X167759298Y-53109553D01*
X167692183Y-52966642D01*
X167263924Y-52576355D01*
X166853890Y-52406524D01*
X166624000Y-52527845D01*
X166624000Y-53721000D01*
X166644000Y-53721000D01*
X166644000Y-53975000D01*
X166624000Y-53975000D01*
X166624000Y-53995000D01*
X166370000Y-53995000D01*
X166370000Y-53975000D01*
X166350000Y-53975000D01*
X166350000Y-53721000D01*
X166370000Y-53721000D01*
X166370000Y-52527845D01*
X166140110Y-52406524D01*
X165730076Y-52576355D01*
X165301817Y-52966642D01*
X165234702Y-53109553D01*
X165007054Y-52768853D01*
X164525285Y-52446946D01*
X163957000Y-52333907D01*
X163388715Y-52446946D01*
X162906946Y-52768853D01*
X162687000Y-53098026D01*
X162467054Y-52768853D01*
X161985285Y-52446946D01*
X161417000Y-52333907D01*
X160848715Y-52446946D01*
X160366946Y-52768853D01*
X160139298Y-53109553D01*
X160072183Y-52966642D01*
X159643924Y-52576355D01*
X159233890Y-52406524D01*
X159004000Y-52527845D01*
X159004000Y-53721000D01*
X159024000Y-53721000D01*
X159024000Y-53975000D01*
X159004000Y-53975000D01*
X159004000Y-53995000D01*
X158750000Y-53995000D01*
X158750000Y-53975000D01*
X158730000Y-53975000D01*
X158730000Y-53721000D01*
X158750000Y-53721000D01*
X158750000Y-52527845D01*
X158520110Y-52406524D01*
X158110076Y-52576355D01*
X157681817Y-52966642D01*
X157614702Y-53109553D01*
X157387054Y-52768853D01*
X156905285Y-52446946D01*
X156337000Y-52333907D01*
X155768715Y-52446946D01*
X155286946Y-52768853D01*
X155067000Y-53098026D01*
X154847054Y-52768853D01*
X154365285Y-52446946D01*
X153797000Y-52333907D01*
X153228715Y-52446946D01*
X152746946Y-52768853D01*
X152527000Y-53098026D01*
X152307054Y-52768853D01*
X151825285Y-52446946D01*
X151257000Y-52333907D01*
X150688715Y-52446946D01*
X150206946Y-52768853D01*
X149987000Y-53098026D01*
X149767054Y-52768853D01*
X149285285Y-52446946D01*
X148717000Y-52333907D01*
X148148715Y-52446946D01*
X147666946Y-52768853D01*
X147439298Y-53109553D01*
X147372183Y-52966642D01*
X146943924Y-52576355D01*
X146533890Y-52406524D01*
X146304000Y-52527845D01*
X146304000Y-53721000D01*
X146324000Y-53721000D01*
X146324000Y-53975000D01*
X146304000Y-53975000D01*
X146304000Y-53995000D01*
X146050000Y-53995000D01*
X146050000Y-53975000D01*
X146030000Y-53975000D01*
X146030000Y-53721000D01*
X146050000Y-53721000D01*
X146050000Y-52527845D01*
X145820110Y-52406524D01*
X145410076Y-52576355D01*
X144981817Y-52966642D01*
X144914702Y-53109553D01*
X144687054Y-52768853D01*
X144205285Y-52446946D01*
X143637000Y-52333907D01*
X143068715Y-52446946D01*
X142586946Y-52768853D01*
X142359298Y-53109553D01*
X142292183Y-52966642D01*
X141863924Y-52576355D01*
X141453890Y-52406524D01*
X141224000Y-52527845D01*
X141224000Y-53721000D01*
X141244000Y-53721000D01*
X141244000Y-53975000D01*
X141224000Y-53975000D01*
X141224000Y-53995000D01*
X140970000Y-53995000D01*
X140970000Y-53975000D01*
X140950000Y-53975000D01*
X140950000Y-53721000D01*
X140970000Y-53721000D01*
X140970000Y-52527845D01*
X140740110Y-52406524D01*
X140330076Y-52576355D01*
X139901817Y-52966642D01*
X139834702Y-53109553D01*
X139607054Y-52768853D01*
X139125285Y-52446946D01*
X138557000Y-52333907D01*
X137988715Y-52446946D01*
X137506946Y-52768853D01*
X137287000Y-53098026D01*
X137067054Y-52768853D01*
X136585285Y-52446946D01*
X136017000Y-52333907D01*
X135448715Y-52446946D01*
X134966946Y-52768853D01*
X134747000Y-53098026D01*
X134527054Y-52768853D01*
X134045285Y-52446946D01*
X133477000Y-52333907D01*
X132908715Y-52446946D01*
X132426946Y-52768853D01*
X132105039Y-53250622D01*
X131992000Y-53818907D01*
X131992000Y-53877093D01*
X132105039Y-54445378D01*
X132426946Y-54927147D01*
X132710101Y-55116345D01*
X132710076Y-55116355D01*
X132281817Y-55506642D01*
X132035514Y-56031108D01*
X132156181Y-56261000D01*
X133350000Y-56261000D01*
X133350000Y-56241000D01*
X133604000Y-56241000D01*
X133604000Y-56261000D01*
X133624000Y-56261000D01*
X133624000Y-56515000D01*
X133604000Y-56515000D01*
X133604000Y-57708155D01*
X133833890Y-57829476D01*
X134243924Y-57659645D01*
X134399532Y-57517834D01*
X138379783Y-61498085D01*
X138329908Y-61547873D01*
X138187262Y-61891401D01*
X138186938Y-62263367D01*
X138328983Y-62607143D01*
X138432000Y-62710340D01*
X138432000Y-78494144D01*
X138395955Y-78479177D01*
X138396162Y-78241833D01*
X138254117Y-77898057D01*
X137991327Y-77634808D01*
X137647799Y-77492162D01*
X137275833Y-77491838D01*
X136932057Y-77633883D01*
X136898882Y-77667000D01*
X134945200Y-77667000D01*
X134945200Y-76767100D01*
X134891931Y-76499300D01*
X134887348Y-76476260D01*
X134722601Y-76229699D01*
X132250501Y-73757599D01*
X132003939Y-73592852D01*
X131713100Y-73535000D01*
X131287105Y-73535000D01*
X131196090Y-73393559D01*
X130983890Y-73248569D01*
X130732000Y-73197560D01*
X129532000Y-73197560D01*
X129296683Y-73241838D01*
X129080559Y-73380910D01*
X129034031Y-73449006D01*
X128891698Y-73306673D01*
X128658309Y-73210000D01*
X128217750Y-73210000D01*
X128059000Y-73368750D01*
X128059000Y-74168000D01*
X128079000Y-74168000D01*
X128079000Y-74422000D01*
X128059000Y-74422000D01*
X128059000Y-75221250D01*
X128217750Y-75380000D01*
X128658309Y-75380000D01*
X128891698Y-75283327D01*
X129032936Y-75142090D01*
X129067910Y-75196441D01*
X129280110Y-75341431D01*
X129532000Y-75392440D01*
X130732000Y-75392440D01*
X130967317Y-75348162D01*
X131183441Y-75209090D01*
X131288726Y-75055000D01*
X131398298Y-75055000D01*
X132803471Y-76460173D01*
X132767708Y-76495873D01*
X132625062Y-76839401D01*
X132625021Y-76886277D01*
X132031757Y-77479541D01*
X131972627Y-77420308D01*
X131629099Y-77277662D01*
X131257133Y-77277338D01*
X131117268Y-77335129D01*
X131117431Y-77334890D01*
X131168440Y-77083000D01*
X131168440Y-76333000D01*
X131124162Y-76097683D01*
X130985090Y-75881559D01*
X130772890Y-75736569D01*
X130521000Y-75685560D01*
X129321000Y-75685560D01*
X129085683Y-75729838D01*
X128982354Y-75796329D01*
X128980698Y-75794673D01*
X128747309Y-75698000D01*
X128306750Y-75698000D01*
X128148000Y-75856750D01*
X128148000Y-76581000D01*
X128168000Y-76581000D01*
X128168000Y-76835000D01*
X128148000Y-76835000D01*
X128148000Y-76855000D01*
X127894000Y-76855000D01*
X127894000Y-76835000D01*
X126944750Y-76835000D01*
X126786000Y-76993750D01*
X126786000Y-77209310D01*
X126882673Y-77442699D01*
X127061302Y-77621327D01*
X127294691Y-77718000D01*
X127370076Y-77718000D01*
X127239085Y-77914043D01*
X127096683Y-77940838D01*
X126880559Y-78079910D01*
X126735569Y-78292110D01*
X126684560Y-78544000D01*
X126684560Y-79444000D01*
X126728838Y-79679317D01*
X126867910Y-79895441D01*
X127080110Y-80040431D01*
X127332000Y-80091440D01*
X128532000Y-80091440D01*
X128767317Y-80047162D01*
X128983441Y-79908090D01*
X129031134Y-79838289D01*
X129067910Y-79895441D01*
X129280110Y-80040431D01*
X129532000Y-80091440D01*
X130732000Y-80091440D01*
X130967317Y-80047162D01*
X131183441Y-79908090D01*
X131288726Y-79754000D01*
X131592100Y-79754000D01*
X131882939Y-79696148D01*
X132129501Y-79531401D01*
X133425200Y-78235702D01*
X133425200Y-79026698D01*
X130421599Y-82030299D01*
X130277767Y-82245560D01*
X129659000Y-82245560D01*
X129423683Y-82289838D01*
X129207559Y-82428910D01*
X129159866Y-82498711D01*
X129123090Y-82441559D01*
X128910890Y-82296569D01*
X128659000Y-82245560D01*
X126059000Y-82245560D01*
X125823683Y-82289838D01*
X125607559Y-82428910D01*
X125462569Y-82641110D01*
X125411560Y-82893000D01*
X125411560Y-84493000D01*
X125455838Y-84728317D01*
X125485786Y-84774858D01*
X125478000Y-84814000D01*
X125478000Y-104287245D01*
X125445937Y-104209838D01*
X125198167Y-103839022D01*
X125002278Y-103643134D01*
X125002277Y-103643133D01*
X124631462Y-103395362D01*
X124475688Y-103330839D01*
X124375521Y-103289348D01*
X123938115Y-103202343D01*
X123868662Y-103202343D01*
X123800562Y-103188701D01*
X114497409Y-103176095D01*
X114266622Y-103130189D01*
X114130658Y-103039341D01*
X114039811Y-102903377D01*
X113994000Y-102673073D01*
X113994000Y-76206690D01*
X126786000Y-76206690D01*
X126786000Y-76422250D01*
X126944750Y-76581000D01*
X127894000Y-76581000D01*
X127894000Y-75856750D01*
X127735250Y-75698000D01*
X127294691Y-75698000D01*
X127061302Y-75794673D01*
X126882673Y-75973301D01*
X126786000Y-76206690D01*
X113994000Y-76206690D01*
X113994000Y-74580750D01*
X126697000Y-74580750D01*
X126697000Y-74871310D01*
X126793673Y-75104699D01*
X126972302Y-75283327D01*
X127205691Y-75380000D01*
X127646250Y-75380000D01*
X127805000Y-75221250D01*
X127805000Y-74422000D01*
X126855750Y-74422000D01*
X126697000Y-74580750D01*
X113994000Y-74580750D01*
X113994000Y-73718690D01*
X126697000Y-73718690D01*
X126697000Y-74009250D01*
X126855750Y-74168000D01*
X127805000Y-74168000D01*
X127805000Y-73368750D01*
X127646250Y-73210000D01*
X127205691Y-73210000D01*
X126972302Y-73306673D01*
X126793673Y-73485301D01*
X126697000Y-73718690D01*
X113994000Y-73718690D01*
X113994000Y-56744892D01*
X132035514Y-56744892D01*
X132281817Y-57269358D01*
X132710076Y-57659645D01*
X133120110Y-57829476D01*
X133350000Y-57708155D01*
X133350000Y-56515000D01*
X132156181Y-56515000D01*
X132035514Y-56744892D01*
X113994000Y-56744892D01*
X113994000Y-50869927D01*
X114039811Y-50639623D01*
X114130658Y-50503659D01*
X114266622Y-50412811D01*
X114496931Y-50367000D01*
X202495073Y-50367000D01*
X202725377Y-50412811D01*
G36*
X149865000Y-100838000D02*
X149885000Y-100838000D01*
X149885000Y-101092000D01*
X149865000Y-101092000D01*
X149865000Y-101112000D01*
X149611000Y-101112000D01*
X149611000Y-101092000D01*
X149591000Y-101092000D01*
X149591000Y-100838000D01*
X149611000Y-100838000D01*
X149611000Y-100818000D01*
X149865000Y-100818000D01*
X149865000Y-100838000D01*
X149865000Y-100838000D01*
G37*
X149865000Y-100838000D02*
X149885000Y-100838000D01*
X149885000Y-101092000D01*
X149865000Y-101092000D01*
X149865000Y-101112000D01*
X149611000Y-101112000D01*
X149611000Y-101092000D01*
X149591000Y-101092000D01*
X149591000Y-100838000D01*
X149611000Y-100838000D01*
X149611000Y-100818000D01*
X149865000Y-100818000D01*
X149865000Y-100838000D01*
G36*
X190373000Y-78740000D02*
X190393000Y-78740000D01*
X190393000Y-78994000D01*
X190373000Y-78994000D01*
X190373000Y-80187155D01*
X190602890Y-80308476D01*
X191012924Y-80138645D01*
X191441183Y-79748358D01*
X191508298Y-79605447D01*
X191735946Y-79946147D01*
X192217715Y-80268054D01*
X192786000Y-80381093D01*
X193223200Y-80294128D01*
X193223200Y-81456198D01*
X180520598Y-94158800D01*
X180006563Y-94158800D01*
X179974427Y-94126608D01*
X179630899Y-93983962D01*
X179258933Y-93983638D01*
X178978900Y-94099345D01*
X178978900Y-92873502D01*
X188243401Y-83609001D01*
X188270663Y-83568200D01*
X188408148Y-83362439D01*
X188466000Y-83071600D01*
X188466000Y-80139954D01*
X188756054Y-79946147D01*
X188983702Y-79605447D01*
X189050817Y-79748358D01*
X189479076Y-80138645D01*
X189889110Y-80308476D01*
X190119000Y-80187155D01*
X190119000Y-78994000D01*
X190099000Y-78994000D01*
X190099000Y-78740000D01*
X190119000Y-78740000D01*
X190119000Y-78720000D01*
X190373000Y-78720000D01*
X190373000Y-78740000D01*
X190373000Y-78740000D01*
G37*
X190373000Y-78740000D02*
X190393000Y-78740000D01*
X190393000Y-78994000D01*
X190373000Y-78994000D01*
X190373000Y-80187155D01*
X190602890Y-80308476D01*
X191012924Y-80138645D01*
X191441183Y-79748358D01*
X191508298Y-79605447D01*
X191735946Y-79946147D01*
X192217715Y-80268054D01*
X192786000Y-80381093D01*
X193223200Y-80294128D01*
X193223200Y-81456198D01*
X180520598Y-94158800D01*
X180006563Y-94158800D01*
X179974427Y-94126608D01*
X179630899Y-93983962D01*
X179258933Y-93983638D01*
X178978900Y-94099345D01*
X178978900Y-92873502D01*
X188243401Y-83609001D01*
X188270663Y-83568200D01*
X188408148Y-83362439D01*
X188466000Y-83071600D01*
X188466000Y-80139954D01*
X188756054Y-79946147D01*
X188983702Y-79605447D01*
X189050817Y-79748358D01*
X189479076Y-80138645D01*
X189889110Y-80308476D01*
X190119000Y-80187155D01*
X190119000Y-78994000D01*
X190099000Y-78994000D01*
X190099000Y-78740000D01*
X190119000Y-78740000D01*
X190119000Y-78720000D01*
X190373000Y-78720000D01*
X190373000Y-78740000D01*
G36*
X180213000Y-78740000D02*
X180233000Y-78740000D01*
X180233000Y-78994000D01*
X180213000Y-78994000D01*
X180213000Y-80187155D01*
X180442890Y-80308476D01*
X180690700Y-80205836D01*
X180690700Y-86832498D01*
X175488120Y-92035078D01*
X175442633Y-92035038D01*
X175098857Y-92177083D01*
X174835608Y-92439873D01*
X174692962Y-92783401D01*
X174692771Y-93002269D01*
X173030902Y-91340400D01*
X175467500Y-91340400D01*
X175758339Y-91282548D01*
X176004901Y-91117801D01*
X179448101Y-87674601D01*
X179612848Y-87428039D01*
X179670700Y-87137200D01*
X179670700Y-80284283D01*
X179729110Y-80308476D01*
X179959000Y-80187155D01*
X179959000Y-78994000D01*
X179939000Y-78994000D01*
X179939000Y-78740000D01*
X179959000Y-78740000D01*
X179959000Y-78720000D01*
X180213000Y-78720000D01*
X180213000Y-78740000D01*
X180213000Y-78740000D01*
G37*
X180213000Y-78740000D02*
X180233000Y-78740000D01*
X180233000Y-78994000D01*
X180213000Y-78994000D01*
X180213000Y-80187155D01*
X180442890Y-80308476D01*
X180690700Y-80205836D01*
X180690700Y-86832498D01*
X175488120Y-92035078D01*
X175442633Y-92035038D01*
X175098857Y-92177083D01*
X174835608Y-92439873D01*
X174692962Y-92783401D01*
X174692771Y-93002269D01*
X173030902Y-91340400D01*
X175467500Y-91340400D01*
X175758339Y-91282548D01*
X176004901Y-91117801D01*
X179448101Y-87674601D01*
X179612848Y-87428039D01*
X179670700Y-87137200D01*
X179670700Y-80284283D01*
X179729110Y-80308476D01*
X179959000Y-80187155D01*
X179959000Y-78994000D01*
X179939000Y-78994000D01*
X179939000Y-78740000D01*
X179959000Y-78740000D01*
X179959000Y-78720000D01*
X180213000Y-78720000D01*
X180213000Y-78740000D01*
G36*
X153089800Y-87571702D02*
X153089800Y-88157600D01*
X153147652Y-88448439D01*
X153312399Y-88695001D01*
X155455811Y-90838413D01*
X155437569Y-90865110D01*
X155386560Y-91117000D01*
X155386560Y-92017000D01*
X155388520Y-92027418D01*
X153430001Y-90068899D01*
X153183439Y-89904152D01*
X152892600Y-89846300D01*
X152839440Y-89846300D01*
X152839440Y-88281000D01*
X152795162Y-88045683D01*
X152763518Y-87996507D01*
X152903327Y-87856699D01*
X153000000Y-87623310D01*
X153000000Y-87481902D01*
X153089800Y-87571702D01*
X153089800Y-87571702D01*
G37*
X153089800Y-87571702D02*
X153089800Y-88157600D01*
X153147652Y-88448439D01*
X153312399Y-88695001D01*
X155455811Y-90838413D01*
X155437569Y-90865110D01*
X155386560Y-91117000D01*
X155386560Y-92017000D01*
X155388520Y-92027418D01*
X153430001Y-90068899D01*
X153183439Y-89904152D01*
X152892600Y-89846300D01*
X152839440Y-89846300D01*
X152839440Y-88281000D01*
X152795162Y-88045683D01*
X152763518Y-87996507D01*
X152903327Y-87856699D01*
X153000000Y-87623310D01*
X153000000Y-87481902D01*
X153089800Y-87571702D01*
G36*
X173863000Y-89153000D02*
X173883000Y-89153000D01*
X173883000Y-89407000D01*
X173863000Y-89407000D01*
X173863000Y-89427000D01*
X173609000Y-89427000D01*
X173609000Y-89407000D01*
X173589000Y-89407000D01*
X173589000Y-89153000D01*
X173609000Y-89153000D01*
X173609000Y-89133000D01*
X173863000Y-89133000D01*
X173863000Y-89153000D01*
X173863000Y-89153000D01*
G37*
X173863000Y-89153000D02*
X173883000Y-89153000D01*
X173883000Y-89407000D01*
X173863000Y-89407000D01*
X173863000Y-89427000D01*
X173609000Y-89427000D01*
X173609000Y-89407000D01*
X173589000Y-89407000D01*
X173589000Y-89153000D01*
X173609000Y-89153000D01*
X173609000Y-89133000D01*
X173863000Y-89133000D01*
X173863000Y-89153000D01*
G36*
X172593000Y-78740000D02*
X172613000Y-78740000D01*
X172613000Y-78994000D01*
X172593000Y-78994000D01*
X172593000Y-80187155D01*
X172822890Y-80308476D01*
X173232924Y-80138645D01*
X173661183Y-79748358D01*
X173728298Y-79605447D01*
X173955946Y-79946147D01*
X174437715Y-80268054D01*
X175006000Y-80381093D01*
X175421300Y-80298485D01*
X175421300Y-84738598D01*
X174529599Y-85630299D01*
X174374085Y-85863043D01*
X174231683Y-85889838D01*
X174128354Y-85956329D01*
X174126698Y-85954673D01*
X173893309Y-85858000D01*
X173452750Y-85858000D01*
X173294000Y-86016750D01*
X173294000Y-86741000D01*
X173314000Y-86741000D01*
X173314000Y-86995000D01*
X173294000Y-86995000D01*
X173294000Y-87015000D01*
X173040000Y-87015000D01*
X173040000Y-86995000D01*
X173020000Y-86995000D01*
X173020000Y-86741000D01*
X173040000Y-86741000D01*
X173040000Y-86016750D01*
X172881250Y-85858000D01*
X172440691Y-85858000D01*
X172207302Y-85954673D01*
X172028673Y-86133301D01*
X171932000Y-86366690D01*
X171932000Y-86370898D01*
X169882701Y-84321599D01*
X169636139Y-84156852D01*
X169345300Y-84099000D01*
X166076202Y-84099000D01*
X169372902Y-80802300D01*
X169926000Y-80802300D01*
X170216839Y-80744448D01*
X170463401Y-80579701D01*
X170628148Y-80333139D01*
X170663598Y-80154923D01*
X170976054Y-79946147D01*
X171203702Y-79605447D01*
X171270817Y-79748358D01*
X171699076Y-80138645D01*
X172109110Y-80308476D01*
X172339000Y-80187155D01*
X172339000Y-78994000D01*
X172319000Y-78994000D01*
X172319000Y-78740000D01*
X172339000Y-78740000D01*
X172339000Y-78720000D01*
X172593000Y-78720000D01*
X172593000Y-78740000D01*
X172593000Y-78740000D01*
G37*
X172593000Y-78740000D02*
X172613000Y-78740000D01*
X172613000Y-78994000D01*
X172593000Y-78994000D01*
X172593000Y-80187155D01*
X172822890Y-80308476D01*
X173232924Y-80138645D01*
X173661183Y-79748358D01*
X173728298Y-79605447D01*
X173955946Y-79946147D01*
X174437715Y-80268054D01*
X175006000Y-80381093D01*
X175421300Y-80298485D01*
X175421300Y-84738598D01*
X174529599Y-85630299D01*
X174374085Y-85863043D01*
X174231683Y-85889838D01*
X174128354Y-85956329D01*
X174126698Y-85954673D01*
X173893309Y-85858000D01*
X173452750Y-85858000D01*
X173294000Y-86016750D01*
X173294000Y-86741000D01*
X173314000Y-86741000D01*
X173314000Y-86995000D01*
X173294000Y-86995000D01*
X173294000Y-87015000D01*
X173040000Y-87015000D01*
X173040000Y-86995000D01*
X173020000Y-86995000D01*
X173020000Y-86741000D01*
X173040000Y-86741000D01*
X173040000Y-86016750D01*
X172881250Y-85858000D01*
X172440691Y-85858000D01*
X172207302Y-85954673D01*
X172028673Y-86133301D01*
X171932000Y-86366690D01*
X171932000Y-86370898D01*
X169882701Y-84321599D01*
X169636139Y-84156852D01*
X169345300Y-84099000D01*
X166076202Y-84099000D01*
X169372902Y-80802300D01*
X169926000Y-80802300D01*
X170216839Y-80744448D01*
X170463401Y-80579701D01*
X170628148Y-80333139D01*
X170663598Y-80154923D01*
X170976054Y-79946147D01*
X171203702Y-79605447D01*
X171270817Y-79748358D01*
X171699076Y-80138645D01*
X172109110Y-80308476D01*
X172339000Y-80187155D01*
X172339000Y-78994000D01*
X172319000Y-78994000D01*
X172319000Y-78740000D01*
X172339000Y-78740000D01*
X172339000Y-78720000D01*
X172593000Y-78720000D01*
X172593000Y-78740000D01*
G36*
X154813000Y-78740000D02*
X154833000Y-78740000D01*
X154833000Y-78994000D01*
X154813000Y-78994000D01*
X154813000Y-80187155D01*
X155042890Y-80308476D01*
X155452924Y-80138645D01*
X155881183Y-79748358D01*
X155948298Y-79605447D01*
X156175946Y-79946147D01*
X156657715Y-80268054D01*
X157226000Y-80381093D01*
X157794285Y-80268054D01*
X158276054Y-79946147D01*
X158503702Y-79605447D01*
X158570817Y-79748358D01*
X158999076Y-80138645D01*
X159409110Y-80308476D01*
X159639000Y-80187155D01*
X159639000Y-78994000D01*
X159619000Y-78994000D01*
X159619000Y-78740000D01*
X159639000Y-78740000D01*
X159639000Y-78720000D01*
X159893000Y-78720000D01*
X159893000Y-78740000D01*
X159913000Y-78740000D01*
X159913000Y-78994000D01*
X159893000Y-78994000D01*
X159893000Y-80187155D01*
X160122890Y-80308476D01*
X160532924Y-80138645D01*
X160961183Y-79748358D01*
X161028298Y-79605447D01*
X161255946Y-79946147D01*
X161737715Y-80268054D01*
X162265217Y-80372981D01*
X157728320Y-84909878D01*
X157682833Y-84909838D01*
X157339057Y-85051883D01*
X157075808Y-85314673D01*
X157056287Y-85361685D01*
X155159917Y-83465315D01*
X155273401Y-83512438D01*
X155645367Y-83512762D01*
X155989143Y-83370717D01*
X156252392Y-83107927D01*
X156395038Y-82764399D01*
X156395362Y-82392433D01*
X156253317Y-82048657D01*
X155990527Y-81785408D01*
X155646999Y-81642762D01*
X155600123Y-81642721D01*
X154262100Y-80304698D01*
X154262100Y-80280721D01*
X154329110Y-80308476D01*
X154559000Y-80187155D01*
X154559000Y-78994000D01*
X154539000Y-78994000D01*
X154539000Y-78740000D01*
X154559000Y-78740000D01*
X154559000Y-78720000D01*
X154813000Y-78720000D01*
X154813000Y-78740000D01*
X154813000Y-78740000D01*
G37*
X154813000Y-78740000D02*
X154833000Y-78740000D01*
X154833000Y-78994000D01*
X154813000Y-78994000D01*
X154813000Y-80187155D01*
X155042890Y-80308476D01*
X155452924Y-80138645D01*
X155881183Y-79748358D01*
X155948298Y-79605447D01*
X156175946Y-79946147D01*
X156657715Y-80268054D01*
X157226000Y-80381093D01*
X157794285Y-80268054D01*
X158276054Y-79946147D01*
X158503702Y-79605447D01*
X158570817Y-79748358D01*
X158999076Y-80138645D01*
X159409110Y-80308476D01*
X159639000Y-80187155D01*
X159639000Y-78994000D01*
X159619000Y-78994000D01*
X159619000Y-78740000D01*
X159639000Y-78740000D01*
X159639000Y-78720000D01*
X159893000Y-78720000D01*
X159893000Y-78740000D01*
X159913000Y-78740000D01*
X159913000Y-78994000D01*
X159893000Y-78994000D01*
X159893000Y-80187155D01*
X160122890Y-80308476D01*
X160532924Y-80138645D01*
X160961183Y-79748358D01*
X161028298Y-79605447D01*
X161255946Y-79946147D01*
X161737715Y-80268054D01*
X162265217Y-80372981D01*
X157728320Y-84909878D01*
X157682833Y-84909838D01*
X157339057Y-85051883D01*
X157075808Y-85314673D01*
X157056287Y-85361685D01*
X155159917Y-83465315D01*
X155273401Y-83512438D01*
X155645367Y-83512762D01*
X155989143Y-83370717D01*
X156252392Y-83107927D01*
X156395038Y-82764399D01*
X156395362Y-82392433D01*
X156253317Y-82048657D01*
X155990527Y-81785408D01*
X155646999Y-81642762D01*
X155600123Y-81642721D01*
X154262100Y-80304698D01*
X154262100Y-80280721D01*
X154329110Y-80308476D01*
X154559000Y-80187155D01*
X154559000Y-78994000D01*
X154539000Y-78994000D01*
X154539000Y-78740000D01*
X154559000Y-78740000D01*
X154559000Y-78720000D01*
X154813000Y-78720000D01*
X154813000Y-78740000D01*
G36*
X163650817Y-77208358D02*
X164079076Y-77598645D01*
X164079101Y-77598655D01*
X163795946Y-77787853D01*
X163576000Y-78117026D01*
X163356054Y-77787853D01*
X163070422Y-77597000D01*
X163356054Y-77406147D01*
X163583702Y-77065447D01*
X163650817Y-77208358D01*
X163650817Y-77208358D01*
G37*
X163650817Y-77208358D02*
X164079076Y-77598645D01*
X164079101Y-77598655D01*
X163795946Y-77787853D01*
X163576000Y-78117026D01*
X163356054Y-77787853D01*
X163070422Y-77597000D01*
X163356054Y-77406147D01*
X163583702Y-77065447D01*
X163650817Y-77208358D01*
G36*
X148846000Y-70905602D02*
X148846000Y-75054046D01*
X148555946Y-75247853D01*
X148328298Y-75588553D01*
X148261183Y-75445642D01*
X147832924Y-75055355D01*
X147422890Y-74885524D01*
X147193000Y-75006845D01*
X147193000Y-76200000D01*
X147213000Y-76200000D01*
X147213000Y-76454000D01*
X147193000Y-76454000D01*
X147193000Y-76474000D01*
X146939000Y-76474000D01*
X146939000Y-76454000D01*
X146919000Y-76454000D01*
X146919000Y-76200000D01*
X146939000Y-76200000D01*
X146939000Y-75006845D01*
X146709110Y-74885524D01*
X146650700Y-74909717D01*
X146650700Y-73072102D01*
X146881401Y-72841401D01*
X147046148Y-72594839D01*
X147104000Y-72304000D01*
X147104000Y-69163602D01*
X148846000Y-70905602D01*
X148846000Y-70905602D01*
G37*
X148846000Y-70905602D02*
X148846000Y-75054046D01*
X148555946Y-75247853D01*
X148328298Y-75588553D01*
X148261183Y-75445642D01*
X147832924Y-75055355D01*
X147422890Y-74885524D01*
X147193000Y-75006845D01*
X147193000Y-76200000D01*
X147213000Y-76200000D01*
X147213000Y-76454000D01*
X147193000Y-76454000D01*
X147193000Y-76474000D01*
X146939000Y-76474000D01*
X146939000Y-76454000D01*
X146919000Y-76454000D01*
X146919000Y-76200000D01*
X146939000Y-76200000D01*
X146939000Y-75006845D01*
X146709110Y-74885524D01*
X146650700Y-74909717D01*
X146650700Y-73072102D01*
X146881401Y-72841401D01*
X147046148Y-72594839D01*
X147104000Y-72304000D01*
X147104000Y-69163602D01*
X148846000Y-70905602D01*
G36*
X151384000Y-56261000D02*
X151404000Y-56261000D01*
X151404000Y-56515000D01*
X151384000Y-56515000D01*
X151384000Y-57708155D01*
X151613890Y-57829476D01*
X151672300Y-57805283D01*
X151672300Y-58570500D01*
X151730152Y-58861339D01*
X151894899Y-59107901D01*
X165285300Y-72498302D01*
X165285300Y-74919657D01*
X165202890Y-74885524D01*
X164973000Y-75006845D01*
X164973000Y-76200000D01*
X164993000Y-76200000D01*
X164993000Y-76454000D01*
X164973000Y-76454000D01*
X164973000Y-76474000D01*
X164719000Y-76474000D01*
X164719000Y-76454000D01*
X164699000Y-76454000D01*
X164699000Y-76200000D01*
X164719000Y-76200000D01*
X164719000Y-75006845D01*
X164489110Y-74885524D01*
X164079076Y-75055355D01*
X163650817Y-75445642D01*
X163583702Y-75588553D01*
X163356054Y-75247853D01*
X163066000Y-75054046D01*
X163066000Y-71152300D01*
X163008148Y-70861461D01*
X162843401Y-70614899D01*
X149724250Y-57495748D01*
X149767054Y-57467147D01*
X149994702Y-57126447D01*
X150061817Y-57269358D01*
X150490076Y-57659645D01*
X150900110Y-57829476D01*
X151130000Y-57708155D01*
X151130000Y-56515000D01*
X151110000Y-56515000D01*
X151110000Y-56261000D01*
X151130000Y-56261000D01*
X151130000Y-56241000D01*
X151384000Y-56241000D01*
X151384000Y-56261000D01*
X151384000Y-56261000D01*
G37*
X151384000Y-56261000D02*
X151404000Y-56261000D01*
X151404000Y-56515000D01*
X151384000Y-56515000D01*
X151384000Y-57708155D01*
X151613890Y-57829476D01*
X151672300Y-57805283D01*
X151672300Y-58570500D01*
X151730152Y-58861339D01*
X151894899Y-59107901D01*
X165285300Y-72498302D01*
X165285300Y-74919657D01*
X165202890Y-74885524D01*
X164973000Y-75006845D01*
X164973000Y-76200000D01*
X164993000Y-76200000D01*
X164993000Y-76454000D01*
X164973000Y-76454000D01*
X164973000Y-76474000D01*
X164719000Y-76474000D01*
X164719000Y-76454000D01*
X164699000Y-76454000D01*
X164699000Y-76200000D01*
X164719000Y-76200000D01*
X164719000Y-75006845D01*
X164489110Y-74885524D01*
X164079076Y-75055355D01*
X163650817Y-75445642D01*
X163583702Y-75588553D01*
X163356054Y-75247853D01*
X163066000Y-75054046D01*
X163066000Y-71152300D01*
X163008148Y-70861461D01*
X162843401Y-70614899D01*
X149724250Y-57495748D01*
X149767054Y-57467147D01*
X149994702Y-57126447D01*
X150061817Y-57269358D01*
X150490076Y-57659645D01*
X150900110Y-57829476D01*
X151130000Y-57708155D01*
X151130000Y-56515000D01*
X151110000Y-56515000D01*
X151110000Y-56261000D01*
X151130000Y-56261000D01*
X151130000Y-56241000D01*
X151384000Y-56241000D01*
X151384000Y-56261000D01*
G36*
X171704000Y-56261000D02*
X171724000Y-56261000D01*
X171724000Y-56515000D01*
X171704000Y-56515000D01*
X171704000Y-57708155D01*
X171933890Y-57829476D01*
X172260851Y-57694053D01*
X185581300Y-71014502D01*
X185581300Y-74909717D01*
X185522890Y-74885524D01*
X185293000Y-75006845D01*
X185293000Y-76200000D01*
X185313000Y-76200000D01*
X185313000Y-76454000D01*
X185293000Y-76454000D01*
X185293000Y-76474000D01*
X185039000Y-76474000D01*
X185039000Y-76454000D01*
X185019000Y-76454000D01*
X185019000Y-76200000D01*
X185039000Y-76200000D01*
X185039000Y-75006845D01*
X184809110Y-74885524D01*
X184590700Y-74975987D01*
X184590700Y-71500800D01*
X184532848Y-71209961D01*
X184368101Y-70963399D01*
X171229318Y-57824616D01*
X171450000Y-57708155D01*
X171450000Y-56515000D01*
X171430000Y-56515000D01*
X171430000Y-56261000D01*
X171450000Y-56261000D01*
X171450000Y-56241000D01*
X171704000Y-56241000D01*
X171704000Y-56261000D01*
X171704000Y-56261000D01*
G37*
X171704000Y-56261000D02*
X171724000Y-56261000D01*
X171724000Y-56515000D01*
X171704000Y-56515000D01*
X171704000Y-57708155D01*
X171933890Y-57829476D01*
X172260851Y-57694053D01*
X185581300Y-71014502D01*
X185581300Y-74909717D01*
X185522890Y-74885524D01*
X185293000Y-75006845D01*
X185293000Y-76200000D01*
X185313000Y-76200000D01*
X185313000Y-76454000D01*
X185293000Y-76454000D01*
X185293000Y-76474000D01*
X185039000Y-76474000D01*
X185039000Y-76454000D01*
X185019000Y-76454000D01*
X185019000Y-76200000D01*
X185039000Y-76200000D01*
X185039000Y-75006845D01*
X184809110Y-74885524D01*
X184590700Y-74975987D01*
X184590700Y-71500800D01*
X184532848Y-71209961D01*
X184368101Y-70963399D01*
X171229318Y-57824616D01*
X171450000Y-57708155D01*
X171450000Y-56515000D01*
X171430000Y-56515000D01*
X171430000Y-56261000D01*
X171450000Y-56261000D01*
X171450000Y-56241000D01*
X171704000Y-56241000D01*
X171704000Y-56261000D01*
G36*
X176784000Y-53721000D02*
X176804000Y-53721000D01*
X176804000Y-53975000D01*
X176784000Y-53975000D01*
X176784000Y-53995000D01*
X176530000Y-53995000D01*
X176530000Y-53975000D01*
X176510000Y-53975000D01*
X176510000Y-53721000D01*
X176530000Y-53721000D01*
X176530000Y-53701000D01*
X176784000Y-53701000D01*
X176784000Y-53721000D01*
X176784000Y-53721000D01*
G37*
X176784000Y-53721000D02*
X176804000Y-53721000D01*
X176804000Y-53975000D01*
X176784000Y-53975000D01*
X176784000Y-53995000D01*
X176530000Y-53995000D01*
X176530000Y-53975000D01*
X176510000Y-53975000D01*
X176510000Y-53721000D01*
X176530000Y-53721000D01*
X176530000Y-53701000D01*
X176784000Y-53701000D01*
X176784000Y-53721000D01*
M02*
