M48
;DRILL file {KiCad 4.0.7} date 09/12/18 02:46:19
;FORMAT={-:-/ absolute / inch / decimal}
FMAT,2
INCH,TZ
T1C0.016
T2C0.031
%
G90
G05
M72
T1
X5.3523Y-3.8134
X5.3972Y-3.7075
X5.3998Y-3.7487
X5.4663Y-3.6748
X5.5265Y-3.9807
X5.5351Y-3.5272
X5.5693Y-4.0161
X5.6143Y-4.0486
X5.6303Y-3.8784
X5.6425Y-4.0161
X5.7427Y-3.8158
X5.7717Y-3.5093
X5.7847Y-3.9304
X5.7943Y-4.0243
X5.8003Y-3.4847
X5.8066Y-3.9531
X5.8243Y-3.9875
X5.8563Y-3.8084
X5.8645Y-3.7427
X6.0511Y-4.042
X6.2139Y-4.0698
T2
X5.255Y-2.98
X5.255Y-3.58
X5.355Y-2.98
X5.355Y-3.58
X5.455Y-2.98
X5.455Y-3.58
X5.555Y-2.98
X5.555Y-3.58
X5.655Y-2.98
X5.655Y-3.58
X5.755Y-2.98
X5.755Y-3.58
X5.855Y-2.98
X5.855Y-3.58
X5.955Y-2.98
X5.955Y-3.58
X6.055Y-2.98
X6.055Y-3.58
X6.155Y-2.98
X6.155Y-3.58
X6.255Y-2.98
X6.255Y-3.58
X6.355Y-2.98
X6.355Y-3.58
X6.455Y-2.98
X6.455Y-3.58
X6.555Y-2.98
X6.555Y-3.58
T0
M30
