G04 #@! TF.FileFunction,Copper,L1,Top,Signal*
%FSLAX46Y46*%
G04 Gerber Fmt 4.6, Leading zero omitted, Abs format (unit mm)*
G04 Created by KiCad (PCBNEW 4.0.7) date 01/24/19 01:50:34*
%MOMM*%
%LPD*%
G01*
G04 APERTURE LIST*
%ADD10C,0.100000*%
%ADD11C,4.400000*%
%ADD12R,1.700000X1.700000*%
%ADD13O,1.700000X1.700000*%
%ADD14R,1.800000X1.800000*%
%ADD15C,1.800000*%
%ADD16C,1.524000*%
%ADD17C,0.600000*%
%ADD18C,0.250000*%
%ADD19C,0.400000*%
%ADD20C,0.254000*%
G04 APERTURE END LIST*
D10*
D11*
X210058000Y-111034000D03*
X210058000Y-62037000D03*
X119136000Y-62037000D03*
X119192000Y-111034000D03*
D12*
X172298000Y-109703000D03*
D13*
X172298000Y-112243000D03*
X169758000Y-109703000D03*
X169758000Y-112243000D03*
X167218000Y-109703000D03*
X167218000Y-112243000D03*
X164678000Y-109703000D03*
X164678000Y-112243000D03*
X162138000Y-109703000D03*
X162138000Y-112243000D03*
X159598000Y-109703000D03*
X159598000Y-112243000D03*
X157058000Y-109703000D03*
X157058000Y-112243000D03*
X154518000Y-109703000D03*
X154518000Y-112243000D03*
X151978000Y-109703000D03*
X151978000Y-112243000D03*
X149438000Y-109703000D03*
X149438000Y-112243000D03*
X146898000Y-109703000D03*
X146898000Y-112243000D03*
X144358000Y-109703000D03*
X144358000Y-112243000D03*
X141818000Y-109703000D03*
X141818000Y-112243000D03*
X139278000Y-109703000D03*
X139278000Y-112243000D03*
X136738000Y-109703000D03*
X136738000Y-112243000D03*
X134198000Y-109703000D03*
X134198000Y-112243000D03*
X131658000Y-109703000D03*
X131658000Y-112243000D03*
X129118000Y-109703000D03*
X129118000Y-112243000D03*
X126578000Y-109703000D03*
X126578000Y-112243000D03*
X124038000Y-109703000D03*
X124038000Y-112243000D03*
D14*
X180340000Y-109220000D03*
D15*
X182880000Y-109220000D03*
D14*
X189230000Y-109220000D03*
D15*
X191770000Y-109220000D03*
D14*
X198120000Y-109220000D03*
D15*
X200660000Y-109220000D03*
D16*
X191008000Y-72136000D03*
X191008000Y-77216000D03*
X188468000Y-72136000D03*
X188468000Y-77216000D03*
X185928000Y-72136000D03*
X185928000Y-77216000D03*
X183388000Y-72136000D03*
X183388000Y-77216000D03*
X180848000Y-72136000D03*
X180848000Y-77216000D03*
X178308000Y-72136000D03*
X178308000Y-77216000D03*
X175768000Y-72136000D03*
X175768000Y-77216000D03*
X173228000Y-72136000D03*
X173228000Y-77216000D03*
X170688000Y-72136000D03*
X170688000Y-77216000D03*
X168148000Y-72136000D03*
X168148000Y-77216000D03*
X165608000Y-72136000D03*
X165608000Y-77216000D03*
X163068000Y-72136000D03*
X163068000Y-77216000D03*
X160528000Y-72136000D03*
X160528000Y-77216000D03*
X157988000Y-72136000D03*
X157988000Y-77216000D03*
X155448000Y-72136000D03*
X155448000Y-77216000D03*
X152908000Y-72136000D03*
X152908000Y-77216000D03*
X150368000Y-72136000D03*
X150368000Y-77216000D03*
X147828000Y-72136000D03*
X147828000Y-77216000D03*
X145288000Y-72136000D03*
X145288000Y-77216000D03*
X142748000Y-72136000D03*
X142748000Y-77216000D03*
X140208000Y-72136000D03*
X140208000Y-77216000D03*
X137668000Y-72136000D03*
X137668000Y-77216000D03*
X135128000Y-72136000D03*
X135128000Y-77216000D03*
X132588000Y-72136000D03*
X132588000Y-77216000D03*
X130048000Y-72136000D03*
X130048000Y-77216000D03*
D17*
X181041500Y-86283900D03*
X196593300Y-81500400D03*
X169503400Y-86803500D03*
X154818900Y-86803500D03*
X135606600Y-88972000D03*
X153928500Y-96438200D03*
X168421800Y-96438200D03*
X163995700Y-108152800D03*
X143292500Y-99261100D03*
X162199300Y-99213700D03*
X148029300Y-95776000D03*
X162293100Y-95447300D03*
X147703100Y-99261100D03*
X144584800Y-101033000D03*
X146340500Y-100124100D03*
X163470100Y-100481200D03*
X164731600Y-102252800D03*
X125327200Y-88772700D03*
X128213000Y-87992300D03*
X133247000Y-84459700D03*
X160317700Y-106539200D03*
X133983400Y-87054000D03*
X166417200Y-81486800D03*
X159215800Y-82980900D03*
X157291300Y-85717400D03*
X164217600Y-80661900D03*
X168984500Y-85219700D03*
X158293400Y-75599200D03*
X159844400Y-80156100D03*
X159686600Y-81484500D03*
X142180200Y-85373300D03*
X142770700Y-79725500D03*
X143644400Y-81399600D03*
X143558900Y-80458900D03*
X152227300Y-106046300D03*
X140838400Y-103412200D03*
X172389700Y-89822200D03*
X160442100Y-94596700D03*
X186453100Y-86862300D03*
X171897100Y-106296400D03*
X178491300Y-89817600D03*
X193441100Y-89743600D03*
X187881900Y-95249900D03*
X173022700Y-99929900D03*
X168221600Y-104946700D03*
X179150700Y-100091500D03*
X193106900Y-99229500D03*
X171385900Y-103578000D03*
X166820700Y-102897200D03*
X174023300Y-90362700D03*
X188547100Y-89990400D03*
X172573100Y-96252600D03*
X192179500Y-96147000D03*
X178450500Y-96147000D03*
X187632900Y-99309700D03*
X174714600Y-99799100D03*
X167452100Y-105671000D03*
X175537800Y-107692600D03*
X140857600Y-102107600D03*
X154250500Y-103971800D03*
X130712500Y-110698900D03*
X162031700Y-85845000D03*
X164315900Y-101477200D03*
X176967300Y-92767600D03*
D18*
X137668000Y-72136000D02*
X140208000Y-72136000D01*
X167218000Y-112243000D02*
X166042700Y-112243000D01*
X157058000Y-112243000D02*
X157058000Y-113418300D01*
X166042700Y-112610400D02*
X166042700Y-112243000D01*
X165234800Y-113418300D02*
X166042700Y-112610400D01*
X157058000Y-113418300D02*
X165234800Y-113418300D01*
X140642700Y-110070400D02*
X140642700Y-109703000D01*
X139834800Y-110878300D02*
X140642700Y-110070400D01*
X138910600Y-110878300D02*
X139834800Y-110878300D01*
X137913300Y-111875600D02*
X138910600Y-110878300D01*
X137913300Y-112243000D02*
X137913300Y-111875600D01*
X136738000Y-112243000D02*
X137913300Y-112243000D01*
X141818000Y-109703000D02*
X141230400Y-109703000D01*
X141230400Y-109703000D02*
X140642700Y-109703000D01*
X148262700Y-111875600D02*
X148262700Y-112243000D01*
X147454800Y-111067700D02*
X148262700Y-111875600D01*
X142595100Y-111067700D02*
X147454800Y-111067700D01*
X141230400Y-109703000D02*
X142595100Y-111067700D01*
X149438000Y-112243000D02*
X148850400Y-112243000D01*
X148850400Y-112243000D02*
X148262700Y-112243000D01*
X150025700Y-113418300D02*
X157058000Y-113418300D01*
X148850400Y-112243000D02*
X150025700Y-113418300D01*
X125308000Y-110973000D02*
X124038000Y-109703000D01*
X129558200Y-110973000D02*
X125308000Y-110973000D01*
X130482700Y-111897500D02*
X129558200Y-110973000D01*
X130482700Y-112243000D02*
X130482700Y-111897500D01*
X131658000Y-112243000D02*
X130482700Y-112243000D01*
X180521900Y-86803500D02*
X169503400Y-86803500D01*
X181041500Y-86283900D02*
X180521900Y-86803500D01*
X189897400Y-77428000D02*
X181041500Y-86283900D01*
X189897400Y-76788800D02*
X189897400Y-77428000D01*
X190596900Y-76089300D02*
X189897400Y-76788800D01*
X191453000Y-76089300D02*
X190596900Y-76089300D01*
X196593300Y-81229600D02*
X191453000Y-76089300D01*
X196593300Y-81500400D02*
X196593300Y-81229600D01*
X169503400Y-86803500D02*
X154818900Y-86803500D01*
D19*
X153865500Y-96501200D02*
X153928500Y-96438200D01*
X143135800Y-96501200D02*
X153865500Y-96501200D01*
X135606600Y-88972000D02*
X143135800Y-96501200D01*
X153928500Y-96438200D02*
X168421800Y-96438200D01*
D18*
X166042700Y-109335700D02*
X166042700Y-109703000D01*
X164859800Y-108152800D02*
X166042700Y-109335700D01*
X163995700Y-108152800D02*
X164859800Y-108152800D01*
X167218000Y-109703000D02*
X166042700Y-109703000D01*
X161540900Y-98555300D02*
X162199300Y-99213700D01*
X143998300Y-98555300D02*
X161540900Y-98555300D01*
X143292500Y-99261100D02*
X143998300Y-98555300D01*
X148358000Y-95447300D02*
X148029300Y-95776000D01*
X162293100Y-95447300D02*
X148358000Y-95447300D01*
X144584800Y-100919500D02*
X144584800Y-101033000D01*
X146243200Y-99261100D02*
X144584800Y-100919500D01*
X147703100Y-99261100D02*
X146243200Y-99261100D01*
X146697600Y-100481200D02*
X163470100Y-100481200D01*
X146340500Y-100124100D02*
X146697600Y-100481200D01*
X136738000Y-109703000D02*
X136738000Y-108527700D01*
X156905200Y-102252800D02*
X164731600Y-102252800D01*
X152486400Y-106671600D02*
X156905200Y-102252800D01*
X138594100Y-106671600D02*
X152486400Y-106671600D01*
X136738000Y-108527700D02*
X138594100Y-106671600D01*
X136557400Y-77542500D02*
X125327200Y-88772700D01*
X136557400Y-76788800D02*
X136557400Y-77542500D01*
X138700200Y-74646000D02*
X136557400Y-76788800D01*
X144343300Y-74646000D02*
X138700200Y-74646000D01*
X146717400Y-72271900D02*
X144343300Y-74646000D01*
X146717400Y-71708800D02*
X146717400Y-72271900D01*
X147867800Y-70558400D02*
X146717400Y-71708800D01*
X189430400Y-70558400D02*
X147867800Y-70558400D01*
X191008000Y-72136000D02*
X189430400Y-70558400D01*
X180231700Y-87992300D02*
X128213000Y-87992300D01*
X191008000Y-77216000D02*
X180231700Y-87992300D01*
X187345500Y-71013500D02*
X188468000Y-72136000D01*
X155032700Y-71013500D02*
X187345500Y-71013500D01*
X154337400Y-71708800D02*
X155032700Y-71013500D01*
X154337400Y-72288600D02*
X154337400Y-71708800D01*
X151980000Y-74646000D02*
X154337400Y-72288600D01*
X151400200Y-74646000D02*
X151980000Y-74646000D01*
X149257400Y-76788800D02*
X151400200Y-74646000D01*
X149257400Y-77324500D02*
X149257400Y-76788800D01*
X142122200Y-84459700D02*
X149257400Y-77324500D01*
X133247000Y-84459700D02*
X142122200Y-84459700D01*
X162098000Y-104758900D02*
X160317700Y-106539200D01*
X167309400Y-104758900D02*
X162098000Y-104758900D01*
X178055700Y-94012600D02*
X167309400Y-104758900D01*
X190088400Y-94012600D02*
X178055700Y-94012600D01*
X197247800Y-86853200D02*
X190088400Y-94012600D01*
X197247800Y-81247200D02*
X197247800Y-86853200D01*
X191639500Y-75638900D02*
X197247800Y-81247200D01*
X184965100Y-75638900D02*
X191639500Y-75638900D01*
X183388000Y-77216000D02*
X184965100Y-75638900D01*
X134861900Y-86175500D02*
X133983400Y-87054000D01*
X155308800Y-86175500D02*
X134861900Y-86175500D01*
X155476000Y-86342700D02*
X155308800Y-86175500D01*
X157652500Y-86342700D02*
X155476000Y-86342700D01*
X163958600Y-80036600D02*
X157652500Y-86342700D01*
X164326800Y-80036600D02*
X163958600Y-80036600D01*
X166869100Y-77494300D02*
X164326800Y-80036600D01*
X166869100Y-76945200D02*
X166869100Y-77494300D01*
X167972900Y-75841400D02*
X166869100Y-76945200D01*
X169522600Y-75841400D02*
X167972900Y-75841400D01*
X173228000Y-72136000D02*
X169522600Y-75841400D01*
X170688000Y-77216000D02*
X166417200Y-81486800D01*
X161970200Y-80226500D02*
X159215800Y-82980900D01*
X161970200Y-75773800D02*
X161970200Y-80226500D01*
X165608000Y-72136000D02*
X161970200Y-75773800D01*
X157378700Y-85717400D02*
X157291300Y-85717400D01*
X165608000Y-77488100D02*
X157378700Y-85717400D01*
X165608000Y-77216000D02*
X165608000Y-77488100D01*
X168775400Y-85219700D02*
X168984500Y-85219700D01*
X164217600Y-80661900D02*
X168775400Y-85219700D01*
X158293400Y-74981400D02*
X158293400Y-75599200D01*
X155448000Y-72136000D02*
X158293400Y-74981400D01*
X158388100Y-80156100D02*
X159844400Y-80156100D01*
X155448000Y-77216000D02*
X158388100Y-80156100D01*
X157176500Y-81484500D02*
X159686600Y-81484500D01*
X152908000Y-77216000D02*
X157176500Y-81484500D01*
X142210700Y-85373300D02*
X142180200Y-85373300D01*
X150368000Y-77216000D02*
X142210700Y-85373300D01*
X144200600Y-78295600D02*
X142770700Y-79725500D01*
X144200600Y-75763400D02*
X144200600Y-78295600D01*
X147828000Y-72136000D02*
X144200600Y-75763400D01*
X147828000Y-77216000D02*
X143644400Y-81399600D01*
X145288000Y-78729800D02*
X143558900Y-80458900D01*
X145288000Y-77216000D02*
X145288000Y-78729800D01*
X130048000Y-77216000D02*
X132588000Y-77216000D01*
X143472500Y-106046300D02*
X140838400Y-103412200D01*
X152227300Y-106046300D02*
X143472500Y-106046300D01*
X153153300Y-110070400D02*
X153153300Y-109703000D01*
X153961200Y-110878300D02*
X153153300Y-110070400D01*
X170314700Y-110878300D02*
X153961200Y-110878300D01*
X171122700Y-110070300D02*
X170314700Y-110878300D01*
X171122700Y-109703000D02*
X171122700Y-110070300D01*
X172298000Y-109703000D02*
X171122700Y-109703000D01*
X151978000Y-109703000D02*
X153153300Y-109703000D01*
X167615200Y-94596700D02*
X160442100Y-94596700D01*
X172389700Y-89822200D02*
X167615200Y-94596700D01*
X173767300Y-88444600D02*
X172389700Y-89822200D01*
X184870800Y-88444600D02*
X173767300Y-88444600D01*
X186453100Y-86862300D02*
X184870800Y-88444600D01*
X149438000Y-109703000D02*
X150613300Y-109703000D01*
X150613300Y-109335600D02*
X150613300Y-109703000D01*
X151421200Y-108527700D02*
X150613300Y-109335600D01*
X154950300Y-108527700D02*
X151421200Y-108527700D01*
X156296800Y-107181200D02*
X154950300Y-108527700D01*
X160776100Y-107181200D02*
X156296800Y-107181200D01*
X161660900Y-106296400D02*
X160776100Y-107181200D01*
X171897100Y-106296400D02*
X161660900Y-106296400D01*
X144358000Y-109703000D02*
X145533300Y-109703000D01*
X178491300Y-89817600D02*
X178491300Y-89695600D01*
X145533300Y-109335600D02*
X145533300Y-109703000D01*
X147261900Y-107607000D02*
X145533300Y-109335600D01*
X153232500Y-107607000D02*
X147261900Y-107607000D01*
X157256500Y-103583000D02*
X153232500Y-107607000D01*
X167049000Y-103583000D02*
X157256500Y-103583000D01*
X177602200Y-93029800D02*
X167049000Y-103583000D01*
X177602200Y-92457200D02*
X177602200Y-93029800D01*
X176133000Y-90988000D02*
X177602200Y-92457200D01*
X173717400Y-90988000D02*
X176133000Y-90988000D01*
X173371300Y-90641900D02*
X173717400Y-90988000D01*
X173371300Y-90116900D02*
X173371300Y-90641900D01*
X173792600Y-89695600D02*
X173371300Y-90116900D01*
X178491300Y-89695600D02*
X173792600Y-89695600D01*
X178827000Y-89359900D02*
X178491300Y-89695600D01*
X193057400Y-89359900D02*
X178827000Y-89359900D01*
X193441100Y-89743600D02*
X193057400Y-89359900D01*
X177702700Y-95249900D02*
X173022700Y-99929900D01*
X187881900Y-95249900D02*
X177702700Y-95249900D01*
X168221600Y-104731000D02*
X168221600Y-104946700D01*
X173022700Y-99929900D02*
X168221600Y-104731000D01*
X134198000Y-112243000D02*
X135373300Y-112243000D01*
X192244900Y-100091500D02*
X193106900Y-99229500D01*
X179150700Y-100091500D02*
X192244900Y-100091500D01*
X175664200Y-103578000D02*
X171385900Y-103578000D01*
X179150700Y-100091500D02*
X175664200Y-103578000D01*
X156897700Y-102897200D02*
X166820700Y-102897200D01*
X152638200Y-107156700D02*
X156897700Y-102897200D01*
X140157900Y-107156700D02*
X152638200Y-107156700D01*
X137974600Y-109340000D02*
X140157900Y-107156700D01*
X137974600Y-110150600D02*
X137974600Y-109340000D01*
X137057500Y-111067700D02*
X137974600Y-110150600D01*
X136181200Y-111067700D02*
X137057500Y-111067700D01*
X135373300Y-111875600D02*
X136181200Y-111067700D01*
X135373300Y-112243000D02*
X135373300Y-111875600D01*
X146898000Y-109703000D02*
X148073300Y-109703000D01*
X188005400Y-90532100D02*
X178222900Y-90532100D01*
X188547100Y-89990400D02*
X188005400Y-90532100D01*
X178222900Y-93049300D02*
X178222900Y-90532100D01*
X167184400Y-104087800D02*
X178222900Y-93049300D01*
X158753300Y-104087800D02*
X167184400Y-104087800D01*
X154783700Y-108057400D02*
X158753300Y-104087800D01*
X149351600Y-108057400D02*
X154783700Y-108057400D01*
X148073300Y-109335700D02*
X149351600Y-108057400D01*
X148073300Y-109703000D02*
X148073300Y-109335700D01*
X178053500Y-90362700D02*
X174023300Y-90362700D01*
X178222900Y-90532100D02*
X178053500Y-90362700D01*
X131658000Y-109703000D02*
X131658000Y-108527700D01*
X192179500Y-96147000D02*
X178450500Y-96147000D01*
X142179700Y-98006000D02*
X131658000Y-108527700D01*
X142179700Y-98005900D02*
X142179700Y-98006000D01*
X170819800Y-98005900D02*
X142179700Y-98005900D01*
X172573100Y-96252600D02*
X170819800Y-98005900D01*
X175204000Y-99309700D02*
X187632900Y-99309700D01*
X174714600Y-99799100D02*
X175204000Y-99309700D01*
X174253600Y-99799100D02*
X174714600Y-99799100D01*
X168381700Y-105671000D02*
X174253600Y-99799100D01*
X167452100Y-105671000D02*
X168381700Y-105671000D01*
X159598000Y-109703000D02*
X160773300Y-109703000D01*
X160773300Y-109405400D02*
X160773300Y-109703000D01*
X162652700Y-107526000D02*
X160773300Y-109405400D01*
X175371200Y-107526000D02*
X162652700Y-107526000D01*
X175537800Y-107692600D02*
X175371200Y-107526000D01*
X142721800Y-103971800D02*
X154250500Y-103971800D01*
X140857600Y-102107600D02*
X142721800Y-103971800D01*
X127549200Y-87334800D02*
X137668000Y-77216000D01*
X127549200Y-88688600D02*
X127549200Y-87334800D01*
X130482500Y-91621900D02*
X127549200Y-88688600D01*
X130482500Y-110468900D02*
X130482500Y-91621900D01*
X130712500Y-110698900D02*
X130482500Y-110468900D01*
X180595400Y-74928600D02*
X183388000Y-72136000D01*
X179024200Y-74928600D02*
X180595400Y-74928600D01*
X177038000Y-76914800D02*
X179024200Y-74928600D01*
X177038000Y-78050600D02*
X177038000Y-76914800D01*
X169243600Y-85845000D02*
X177038000Y-78050600D01*
X162031700Y-85845000D02*
X169243600Y-85845000D01*
X168257700Y-101477200D02*
X176967300Y-92767600D01*
X164315900Y-101477200D02*
X168257700Y-101477200D01*
X164134800Y-101658300D02*
X164315900Y-101477200D01*
X144325800Y-101658300D02*
X164134800Y-101658300D01*
X144144700Y-101477200D02*
X144325800Y-101658300D01*
X140596000Y-101477200D02*
X144144700Y-101477200D01*
X132928000Y-109145200D02*
X140596000Y-101477200D01*
X132928000Y-112700500D02*
X132928000Y-109145200D01*
X132200700Y-113427800D02*
X132928000Y-112700500D01*
X130302800Y-113427800D02*
X132200700Y-113427800D01*
X129118000Y-112243000D02*
X130302800Y-113427800D01*
X125402700Y-109335600D02*
X125402700Y-109703000D01*
X124594800Y-108527700D02*
X125402700Y-109335600D01*
X123528100Y-108527700D02*
X124594800Y-108527700D01*
X122839400Y-109216400D02*
X123528100Y-108527700D01*
X122839400Y-112772500D02*
X122839400Y-109216400D01*
X124000200Y-113933300D02*
X122839400Y-112772500D01*
X192181400Y-113933300D02*
X124000200Y-113933300D01*
X196894700Y-109220000D02*
X192181400Y-113933300D01*
X198120000Y-109220000D02*
X196894700Y-109220000D01*
X126578000Y-109703000D02*
X125402700Y-109703000D01*
X180340000Y-109220000D02*
X179114700Y-109220000D01*
X154518000Y-109703000D02*
X155693300Y-109703000D01*
X155693300Y-109335600D02*
X155693300Y-109703000D01*
X157056000Y-107972900D02*
X155693300Y-109335600D01*
X160621300Y-107972900D02*
X157056000Y-107972900D01*
X161532900Y-107061300D02*
X160621300Y-107972900D01*
X176956000Y-107061300D02*
X161532900Y-107061300D01*
X179114700Y-109220000D02*
X176956000Y-107061300D01*
D20*
G36*
X209426179Y-59203658D02*
X209470596Y-59212236D01*
X208454199Y-59632202D01*
X207656005Y-60429005D01*
X207223493Y-61470610D01*
X207222509Y-62598442D01*
X207653202Y-63640801D01*
X208450005Y-64438995D01*
X209491610Y-64871507D01*
X210619442Y-64872491D01*
X211661801Y-64441798D01*
X212449666Y-63655306D01*
X212459205Y-109426600D01*
X211665995Y-108632005D01*
X210624390Y-108199493D01*
X209496558Y-108198509D01*
X208454199Y-108629202D01*
X207656005Y-109426005D01*
X207223493Y-110467610D01*
X207222509Y-111595442D01*
X207653202Y-112637801D01*
X208450005Y-113435995D01*
X209218519Y-113755110D01*
X193433949Y-113755553D01*
X196701937Y-110487565D01*
X196755910Y-110571441D01*
X196968110Y-110716431D01*
X197220000Y-110767440D01*
X199020000Y-110767440D01*
X199255317Y-110723162D01*
X199471441Y-110584090D01*
X199616431Y-110371890D01*
X199620567Y-110351466D01*
X199789357Y-110520551D01*
X200353330Y-110754733D01*
X200963991Y-110755265D01*
X201528371Y-110522068D01*
X201960551Y-110090643D01*
X202194733Y-109526670D01*
X202195265Y-108916009D01*
X201962068Y-108351629D01*
X201530643Y-107919449D01*
X200966670Y-107685267D01*
X200356009Y-107684735D01*
X199791629Y-107917932D01*
X199623387Y-108085880D01*
X199623162Y-108084683D01*
X199484090Y-107868559D01*
X199271890Y-107723569D01*
X199020000Y-107672560D01*
X197220000Y-107672560D01*
X196984683Y-107716838D01*
X196768559Y-107855910D01*
X196623569Y-108068110D01*
X196572560Y-108320000D01*
X196572560Y-108538767D01*
X196357299Y-108682599D01*
X191866598Y-113173300D01*
X173447510Y-113173300D01*
X173669961Y-112840378D01*
X173783000Y-112272093D01*
X173783000Y-112213907D01*
X173669961Y-111645622D01*
X173348054Y-111163853D01*
X173346821Y-111163029D01*
X173383317Y-111156162D01*
X173599441Y-111017090D01*
X173744431Y-110804890D01*
X173795440Y-110553000D01*
X173795440Y-108853000D01*
X173751162Y-108617683D01*
X173612090Y-108401559D01*
X173442964Y-108286000D01*
X174809028Y-108286000D01*
X175007473Y-108484792D01*
X175351001Y-108627438D01*
X175722967Y-108627762D01*
X176066743Y-108485717D01*
X176329992Y-108222927D01*
X176472638Y-107879399D01*
X176472689Y-107821300D01*
X176641198Y-107821300D01*
X178577299Y-109757401D01*
X178792560Y-109901233D01*
X178792560Y-110120000D01*
X178836838Y-110355317D01*
X178975910Y-110571441D01*
X179188110Y-110716431D01*
X179440000Y-110767440D01*
X181240000Y-110767440D01*
X181475317Y-110723162D01*
X181691441Y-110584090D01*
X181836431Y-110371890D01*
X181840567Y-110351466D01*
X182009357Y-110520551D01*
X182573330Y-110754733D01*
X183183991Y-110755265D01*
X183748371Y-110522068D01*
X184180551Y-110090643D01*
X184414733Y-109526670D01*
X184415265Y-108916009D01*
X184182068Y-108351629D01*
X184150495Y-108320000D01*
X187682560Y-108320000D01*
X187682560Y-110120000D01*
X187726838Y-110355317D01*
X187865910Y-110571441D01*
X188078110Y-110716431D01*
X188330000Y-110767440D01*
X190130000Y-110767440D01*
X190365317Y-110723162D01*
X190581441Y-110584090D01*
X190726431Y-110371890D01*
X190730567Y-110351466D01*
X190899357Y-110520551D01*
X191463330Y-110754733D01*
X192073991Y-110755265D01*
X192638371Y-110522068D01*
X193070551Y-110090643D01*
X193304733Y-109526670D01*
X193305265Y-108916009D01*
X193072068Y-108351629D01*
X192640643Y-107919449D01*
X192076670Y-107685267D01*
X191466009Y-107684735D01*
X190901629Y-107917932D01*
X190733387Y-108085880D01*
X190733162Y-108084683D01*
X190594090Y-107868559D01*
X190381890Y-107723569D01*
X190130000Y-107672560D01*
X188330000Y-107672560D01*
X188094683Y-107716838D01*
X187878559Y-107855910D01*
X187733569Y-108068110D01*
X187682560Y-108320000D01*
X184150495Y-108320000D01*
X183750643Y-107919449D01*
X183186670Y-107685267D01*
X182576009Y-107684735D01*
X182011629Y-107917932D01*
X181843387Y-108085880D01*
X181843162Y-108084683D01*
X181704090Y-107868559D01*
X181491890Y-107723569D01*
X181240000Y-107672560D01*
X179440000Y-107672560D01*
X179204683Y-107716838D01*
X178988559Y-107855910D01*
X178922335Y-107952833D01*
X177493401Y-106523899D01*
X177246839Y-106359152D01*
X176956000Y-106301300D01*
X172832096Y-106301300D01*
X172832262Y-106111233D01*
X172690217Y-105767457D01*
X172427427Y-105504208D01*
X172083899Y-105361562D01*
X171711933Y-105361238D01*
X171368157Y-105503283D01*
X171334982Y-105536400D01*
X169591102Y-105536400D01*
X170806484Y-104321018D01*
X170855573Y-104370192D01*
X171199101Y-104512838D01*
X171571067Y-104513162D01*
X171914843Y-104371117D01*
X171948018Y-104338000D01*
X175664200Y-104338000D01*
X175955039Y-104280148D01*
X176201601Y-104115401D01*
X179290380Y-101026622D01*
X179335867Y-101026662D01*
X179679643Y-100884617D01*
X179712818Y-100851500D01*
X192244900Y-100851500D01*
X192535739Y-100793648D01*
X192782301Y-100628901D01*
X193246580Y-100164622D01*
X193292067Y-100164662D01*
X193635843Y-100022617D01*
X193899092Y-99759827D01*
X194041738Y-99416299D01*
X194042062Y-99044333D01*
X193900017Y-98700557D01*
X193637227Y-98437308D01*
X193293699Y-98294662D01*
X192921733Y-98294338D01*
X192577957Y-98436383D01*
X192314708Y-98699173D01*
X192172062Y-99042701D01*
X192172021Y-99089577D01*
X191930098Y-99331500D01*
X188567882Y-99331500D01*
X188568062Y-99124533D01*
X188426017Y-98780757D01*
X188163227Y-98517508D01*
X187819699Y-98374862D01*
X187447733Y-98374538D01*
X187103957Y-98516583D01*
X187070782Y-98549700D01*
X175477702Y-98549700D01*
X177567937Y-96459465D01*
X177657383Y-96675943D01*
X177920173Y-96939192D01*
X178263701Y-97081838D01*
X178635667Y-97082162D01*
X178979443Y-96940117D01*
X179012618Y-96907000D01*
X191617037Y-96907000D01*
X191649173Y-96939192D01*
X191992701Y-97081838D01*
X192364667Y-97082162D01*
X192708443Y-96940117D01*
X192971692Y-96677327D01*
X193114338Y-96333799D01*
X193114662Y-95961833D01*
X192972617Y-95618057D01*
X192709827Y-95354808D01*
X192366299Y-95212162D01*
X191994333Y-95211838D01*
X191650557Y-95353883D01*
X191617382Y-95387000D01*
X188816781Y-95387000D01*
X188817062Y-95064733D01*
X188696355Y-94772600D01*
X190088400Y-94772600D01*
X190379239Y-94714748D01*
X190625801Y-94550001D01*
X197785201Y-87390601D01*
X197949948Y-87144039D01*
X198007800Y-86853200D01*
X198007800Y-81247200D01*
X197949948Y-80956361D01*
X197785201Y-80709799D01*
X192176901Y-75101499D01*
X191930339Y-74936752D01*
X191639500Y-74878900D01*
X184965100Y-74878900D01*
X184674260Y-74936752D01*
X184427699Y-75101499D01*
X183697381Y-75831817D01*
X183667100Y-75819243D01*
X183111339Y-75818758D01*
X182597697Y-76030990D01*
X182204371Y-76423630D01*
X182118051Y-76631512D01*
X182033010Y-76425697D01*
X181640370Y-76032371D01*
X181127100Y-75819243D01*
X180571339Y-75818758D01*
X180057697Y-76030990D01*
X179664371Y-76423630D01*
X179578051Y-76631512D01*
X179493010Y-76425697D01*
X179100370Y-76032371D01*
X179026079Y-76001523D01*
X179339002Y-75688600D01*
X180595400Y-75688600D01*
X180886239Y-75630748D01*
X181132801Y-75466001D01*
X183078619Y-73520183D01*
X183108900Y-73532757D01*
X183664661Y-73533242D01*
X184178303Y-73321010D01*
X184571629Y-72928370D01*
X184657949Y-72720488D01*
X184742990Y-72926303D01*
X185135630Y-73319629D01*
X185648900Y-73532757D01*
X186204661Y-73533242D01*
X186718303Y-73321010D01*
X187111629Y-72928370D01*
X187197949Y-72720488D01*
X187282990Y-72926303D01*
X187675630Y-73319629D01*
X188188900Y-73532757D01*
X188744661Y-73533242D01*
X189258303Y-73321010D01*
X189651629Y-72928370D01*
X189737949Y-72720488D01*
X189822990Y-72926303D01*
X190215630Y-73319629D01*
X190728900Y-73532757D01*
X191284661Y-73533242D01*
X191798303Y-73321010D01*
X192191629Y-72928370D01*
X192404757Y-72415100D01*
X192405242Y-71859339D01*
X192193010Y-71345697D01*
X191800370Y-70952371D01*
X191287100Y-70739243D01*
X190731339Y-70738758D01*
X190698945Y-70752143D01*
X189967801Y-70020999D01*
X189721239Y-69856252D01*
X189430400Y-69798400D01*
X147867800Y-69798400D01*
X147576960Y-69856252D01*
X147330399Y-70020999D01*
X146239559Y-71111839D01*
X146080370Y-70952371D01*
X145567100Y-70739243D01*
X145011339Y-70738758D01*
X144497697Y-70950990D01*
X144104371Y-71343630D01*
X144018051Y-71551512D01*
X143933010Y-71345697D01*
X143540370Y-70952371D01*
X143027100Y-70739243D01*
X142471339Y-70738758D01*
X141957697Y-70950990D01*
X141564371Y-71343630D01*
X141484605Y-71535727D01*
X141430397Y-71404857D01*
X141188213Y-71335392D01*
X140387605Y-72136000D01*
X141188213Y-72936608D01*
X141430397Y-72867143D01*
X141480509Y-72726682D01*
X141562990Y-72926303D01*
X141955630Y-73319629D01*
X142468900Y-73532757D01*
X143024661Y-73533242D01*
X143538303Y-73321010D01*
X143931629Y-72928370D01*
X144017949Y-72720488D01*
X144102990Y-72926303D01*
X144495630Y-73319629D01*
X144565752Y-73348746D01*
X144028498Y-73886000D01*
X138700200Y-73886000D01*
X138409361Y-73943852D01*
X138162799Y-74108599D01*
X136097121Y-76174277D01*
X136043618Y-76120774D01*
X135928607Y-76235785D01*
X135859143Y-75993603D01*
X135335698Y-75806856D01*
X134780632Y-75834638D01*
X134396857Y-75993603D01*
X134327392Y-76235787D01*
X135128000Y-77036395D01*
X135142143Y-77022253D01*
X135321748Y-77201858D01*
X135307605Y-77216000D01*
X135321748Y-77230143D01*
X135142143Y-77409748D01*
X135128000Y-77395605D01*
X134327392Y-78196213D01*
X134396857Y-78438397D01*
X134536781Y-78488317D01*
X125187520Y-87837578D01*
X125142033Y-87837538D01*
X124798257Y-87979583D01*
X124535008Y-88242373D01*
X124392362Y-88585901D01*
X124392038Y-88957867D01*
X124534083Y-89301643D01*
X124796873Y-89564892D01*
X125140401Y-89707538D01*
X125512367Y-89707862D01*
X125856143Y-89565817D01*
X126119392Y-89303027D01*
X126262038Y-88959499D01*
X126262079Y-88912623D01*
X126789200Y-88385502D01*
X126789200Y-88688600D01*
X126847052Y-88979439D01*
X127011799Y-89226001D01*
X129722500Y-91936702D01*
X129722500Y-108326144D01*
X129686285Y-108301946D01*
X129118000Y-108188907D01*
X128549715Y-108301946D01*
X128067946Y-108623853D01*
X127848000Y-108953026D01*
X127628054Y-108623853D01*
X127146285Y-108301946D01*
X126578000Y-108188907D01*
X126009715Y-108301946D01*
X125670502Y-108528600D01*
X125132201Y-107990299D01*
X124885639Y-107825552D01*
X124594800Y-107767700D01*
X123528100Y-107767700D01*
X123237261Y-107825552D01*
X122990699Y-107990299D01*
X122301999Y-108678999D01*
X122137252Y-108925561D01*
X122079400Y-109216400D01*
X122079400Y-112772500D01*
X122137252Y-113063339D01*
X122301999Y-113309901D01*
X122749636Y-113757538D01*
X120024203Y-113757615D01*
X120795801Y-113438798D01*
X121593995Y-112641995D01*
X122026507Y-111600390D01*
X122027491Y-110472558D01*
X121596798Y-109430199D01*
X120799995Y-108632005D01*
X119758390Y-108199493D01*
X118630558Y-108198509D01*
X117588199Y-108629202D01*
X116790005Y-109426005D01*
X116357493Y-110467610D01*
X116356509Y-111595442D01*
X116647334Y-112299294D01*
X116415168Y-111956510D01*
X116173313Y-110779291D01*
X116169840Y-77492661D01*
X128650758Y-77492661D01*
X128862990Y-78006303D01*
X129255630Y-78399629D01*
X129768900Y-78612757D01*
X130324661Y-78613242D01*
X130838303Y-78401010D01*
X131231629Y-78008370D01*
X131245070Y-77976000D01*
X131390469Y-77976000D01*
X131402990Y-78006303D01*
X131795630Y-78399629D01*
X132308900Y-78612757D01*
X132864661Y-78613242D01*
X133378303Y-78401010D01*
X133771629Y-78008370D01*
X133851395Y-77816273D01*
X133905603Y-77947143D01*
X134147787Y-78016608D01*
X134948395Y-77216000D01*
X134147787Y-76415392D01*
X133905603Y-76484857D01*
X133855491Y-76625318D01*
X133773010Y-76425697D01*
X133380370Y-76032371D01*
X132867100Y-75819243D01*
X132311339Y-75818758D01*
X131797697Y-76030990D01*
X131404371Y-76423630D01*
X131390930Y-76456000D01*
X131245531Y-76456000D01*
X131233010Y-76425697D01*
X130840370Y-76032371D01*
X130327100Y-75819243D01*
X129771339Y-75818758D01*
X129257697Y-76030990D01*
X128864371Y-76423630D01*
X128651243Y-76936900D01*
X128650758Y-77492661D01*
X116169840Y-77492661D01*
X116169310Y-72412661D01*
X128650758Y-72412661D01*
X128862990Y-72926303D01*
X129255630Y-73319629D01*
X129768900Y-73532757D01*
X130324661Y-73533242D01*
X130838303Y-73321010D01*
X131231629Y-72928370D01*
X131317949Y-72720488D01*
X131402990Y-72926303D01*
X131795630Y-73319629D01*
X132308900Y-73532757D01*
X132864661Y-73533242D01*
X133378303Y-73321010D01*
X133771629Y-72928370D01*
X133857949Y-72720488D01*
X133942990Y-72926303D01*
X134335630Y-73319629D01*
X134848900Y-73532757D01*
X135404661Y-73533242D01*
X135918303Y-73321010D01*
X136123457Y-73116213D01*
X136867392Y-73116213D01*
X136936857Y-73358397D01*
X137460302Y-73545144D01*
X138015368Y-73517362D01*
X138399143Y-73358397D01*
X138468608Y-73116213D01*
X139407392Y-73116213D01*
X139476857Y-73358397D01*
X140000302Y-73545144D01*
X140555368Y-73517362D01*
X140939143Y-73358397D01*
X141008608Y-73116213D01*
X140208000Y-72315605D01*
X139407392Y-73116213D01*
X138468608Y-73116213D01*
X137668000Y-72315605D01*
X136867392Y-73116213D01*
X136123457Y-73116213D01*
X136311629Y-72928370D01*
X136391395Y-72736273D01*
X136445603Y-72867143D01*
X136687787Y-72936608D01*
X137488395Y-72136000D01*
X137847605Y-72136000D01*
X138648213Y-72936608D01*
X138890397Y-72867143D01*
X138934453Y-72743656D01*
X138985603Y-72867143D01*
X139227787Y-72936608D01*
X140028395Y-72136000D01*
X139227787Y-71335392D01*
X138985603Y-71404857D01*
X138941547Y-71528344D01*
X138890397Y-71404857D01*
X138648213Y-71335392D01*
X137847605Y-72136000D01*
X137488395Y-72136000D01*
X136687787Y-71335392D01*
X136445603Y-71404857D01*
X136395491Y-71545318D01*
X136313010Y-71345697D01*
X136123432Y-71155787D01*
X136867392Y-71155787D01*
X137668000Y-71956395D01*
X138468608Y-71155787D01*
X139407392Y-71155787D01*
X140208000Y-71956395D01*
X141008608Y-71155787D01*
X140939143Y-70913603D01*
X140415698Y-70726856D01*
X139860632Y-70754638D01*
X139476857Y-70913603D01*
X139407392Y-71155787D01*
X138468608Y-71155787D01*
X138399143Y-70913603D01*
X137875698Y-70726856D01*
X137320632Y-70754638D01*
X136936857Y-70913603D01*
X136867392Y-71155787D01*
X136123432Y-71155787D01*
X135920370Y-70952371D01*
X135407100Y-70739243D01*
X134851339Y-70738758D01*
X134337697Y-70950990D01*
X133944371Y-71343630D01*
X133858051Y-71551512D01*
X133773010Y-71345697D01*
X133380370Y-70952371D01*
X132867100Y-70739243D01*
X132311339Y-70738758D01*
X131797697Y-70950990D01*
X131404371Y-71343630D01*
X131318051Y-71551512D01*
X131233010Y-71345697D01*
X130840370Y-70952371D01*
X130327100Y-70739243D01*
X129771339Y-70738758D01*
X129257697Y-70950990D01*
X128864371Y-71343630D01*
X128651243Y-71856900D01*
X128650758Y-72412661D01*
X116169310Y-72412661D01*
X116168247Y-62238206D01*
X116301437Y-61535170D01*
X116300509Y-62598442D01*
X116731202Y-63640801D01*
X117528005Y-64438995D01*
X118569610Y-64871507D01*
X119697442Y-64872491D01*
X120739801Y-64441798D01*
X121537995Y-63644995D01*
X121970507Y-62603390D01*
X121971491Y-61475558D01*
X121540798Y-60433199D01*
X120743995Y-59635005D01*
X119702390Y-59202493D01*
X119144858Y-59202007D01*
X119149105Y-59201122D01*
X209426179Y-59203658D01*
X209426179Y-59203658D01*
G37*
X209426179Y-59203658D02*
X209470596Y-59212236D01*
X208454199Y-59632202D01*
X207656005Y-60429005D01*
X207223493Y-61470610D01*
X207222509Y-62598442D01*
X207653202Y-63640801D01*
X208450005Y-64438995D01*
X209491610Y-64871507D01*
X210619442Y-64872491D01*
X211661801Y-64441798D01*
X212449666Y-63655306D01*
X212459205Y-109426600D01*
X211665995Y-108632005D01*
X210624390Y-108199493D01*
X209496558Y-108198509D01*
X208454199Y-108629202D01*
X207656005Y-109426005D01*
X207223493Y-110467610D01*
X207222509Y-111595442D01*
X207653202Y-112637801D01*
X208450005Y-113435995D01*
X209218519Y-113755110D01*
X193433949Y-113755553D01*
X196701937Y-110487565D01*
X196755910Y-110571441D01*
X196968110Y-110716431D01*
X197220000Y-110767440D01*
X199020000Y-110767440D01*
X199255317Y-110723162D01*
X199471441Y-110584090D01*
X199616431Y-110371890D01*
X199620567Y-110351466D01*
X199789357Y-110520551D01*
X200353330Y-110754733D01*
X200963991Y-110755265D01*
X201528371Y-110522068D01*
X201960551Y-110090643D01*
X202194733Y-109526670D01*
X202195265Y-108916009D01*
X201962068Y-108351629D01*
X201530643Y-107919449D01*
X200966670Y-107685267D01*
X200356009Y-107684735D01*
X199791629Y-107917932D01*
X199623387Y-108085880D01*
X199623162Y-108084683D01*
X199484090Y-107868559D01*
X199271890Y-107723569D01*
X199020000Y-107672560D01*
X197220000Y-107672560D01*
X196984683Y-107716838D01*
X196768559Y-107855910D01*
X196623569Y-108068110D01*
X196572560Y-108320000D01*
X196572560Y-108538767D01*
X196357299Y-108682599D01*
X191866598Y-113173300D01*
X173447510Y-113173300D01*
X173669961Y-112840378D01*
X173783000Y-112272093D01*
X173783000Y-112213907D01*
X173669961Y-111645622D01*
X173348054Y-111163853D01*
X173346821Y-111163029D01*
X173383317Y-111156162D01*
X173599441Y-111017090D01*
X173744431Y-110804890D01*
X173795440Y-110553000D01*
X173795440Y-108853000D01*
X173751162Y-108617683D01*
X173612090Y-108401559D01*
X173442964Y-108286000D01*
X174809028Y-108286000D01*
X175007473Y-108484792D01*
X175351001Y-108627438D01*
X175722967Y-108627762D01*
X176066743Y-108485717D01*
X176329992Y-108222927D01*
X176472638Y-107879399D01*
X176472689Y-107821300D01*
X176641198Y-107821300D01*
X178577299Y-109757401D01*
X178792560Y-109901233D01*
X178792560Y-110120000D01*
X178836838Y-110355317D01*
X178975910Y-110571441D01*
X179188110Y-110716431D01*
X179440000Y-110767440D01*
X181240000Y-110767440D01*
X181475317Y-110723162D01*
X181691441Y-110584090D01*
X181836431Y-110371890D01*
X181840567Y-110351466D01*
X182009357Y-110520551D01*
X182573330Y-110754733D01*
X183183991Y-110755265D01*
X183748371Y-110522068D01*
X184180551Y-110090643D01*
X184414733Y-109526670D01*
X184415265Y-108916009D01*
X184182068Y-108351629D01*
X184150495Y-108320000D01*
X187682560Y-108320000D01*
X187682560Y-110120000D01*
X187726838Y-110355317D01*
X187865910Y-110571441D01*
X188078110Y-110716431D01*
X188330000Y-110767440D01*
X190130000Y-110767440D01*
X190365317Y-110723162D01*
X190581441Y-110584090D01*
X190726431Y-110371890D01*
X190730567Y-110351466D01*
X190899357Y-110520551D01*
X191463330Y-110754733D01*
X192073991Y-110755265D01*
X192638371Y-110522068D01*
X193070551Y-110090643D01*
X193304733Y-109526670D01*
X193305265Y-108916009D01*
X193072068Y-108351629D01*
X192640643Y-107919449D01*
X192076670Y-107685267D01*
X191466009Y-107684735D01*
X190901629Y-107917932D01*
X190733387Y-108085880D01*
X190733162Y-108084683D01*
X190594090Y-107868559D01*
X190381890Y-107723569D01*
X190130000Y-107672560D01*
X188330000Y-107672560D01*
X188094683Y-107716838D01*
X187878559Y-107855910D01*
X187733569Y-108068110D01*
X187682560Y-108320000D01*
X184150495Y-108320000D01*
X183750643Y-107919449D01*
X183186670Y-107685267D01*
X182576009Y-107684735D01*
X182011629Y-107917932D01*
X181843387Y-108085880D01*
X181843162Y-108084683D01*
X181704090Y-107868559D01*
X181491890Y-107723569D01*
X181240000Y-107672560D01*
X179440000Y-107672560D01*
X179204683Y-107716838D01*
X178988559Y-107855910D01*
X178922335Y-107952833D01*
X177493401Y-106523899D01*
X177246839Y-106359152D01*
X176956000Y-106301300D01*
X172832096Y-106301300D01*
X172832262Y-106111233D01*
X172690217Y-105767457D01*
X172427427Y-105504208D01*
X172083899Y-105361562D01*
X171711933Y-105361238D01*
X171368157Y-105503283D01*
X171334982Y-105536400D01*
X169591102Y-105536400D01*
X170806484Y-104321018D01*
X170855573Y-104370192D01*
X171199101Y-104512838D01*
X171571067Y-104513162D01*
X171914843Y-104371117D01*
X171948018Y-104338000D01*
X175664200Y-104338000D01*
X175955039Y-104280148D01*
X176201601Y-104115401D01*
X179290380Y-101026622D01*
X179335867Y-101026662D01*
X179679643Y-100884617D01*
X179712818Y-100851500D01*
X192244900Y-100851500D01*
X192535739Y-100793648D01*
X192782301Y-100628901D01*
X193246580Y-100164622D01*
X193292067Y-100164662D01*
X193635843Y-100022617D01*
X193899092Y-99759827D01*
X194041738Y-99416299D01*
X194042062Y-99044333D01*
X193900017Y-98700557D01*
X193637227Y-98437308D01*
X193293699Y-98294662D01*
X192921733Y-98294338D01*
X192577957Y-98436383D01*
X192314708Y-98699173D01*
X192172062Y-99042701D01*
X192172021Y-99089577D01*
X191930098Y-99331500D01*
X188567882Y-99331500D01*
X188568062Y-99124533D01*
X188426017Y-98780757D01*
X188163227Y-98517508D01*
X187819699Y-98374862D01*
X187447733Y-98374538D01*
X187103957Y-98516583D01*
X187070782Y-98549700D01*
X175477702Y-98549700D01*
X177567937Y-96459465D01*
X177657383Y-96675943D01*
X177920173Y-96939192D01*
X178263701Y-97081838D01*
X178635667Y-97082162D01*
X178979443Y-96940117D01*
X179012618Y-96907000D01*
X191617037Y-96907000D01*
X191649173Y-96939192D01*
X191992701Y-97081838D01*
X192364667Y-97082162D01*
X192708443Y-96940117D01*
X192971692Y-96677327D01*
X193114338Y-96333799D01*
X193114662Y-95961833D01*
X192972617Y-95618057D01*
X192709827Y-95354808D01*
X192366299Y-95212162D01*
X191994333Y-95211838D01*
X191650557Y-95353883D01*
X191617382Y-95387000D01*
X188816781Y-95387000D01*
X188817062Y-95064733D01*
X188696355Y-94772600D01*
X190088400Y-94772600D01*
X190379239Y-94714748D01*
X190625801Y-94550001D01*
X197785201Y-87390601D01*
X197949948Y-87144039D01*
X198007800Y-86853200D01*
X198007800Y-81247200D01*
X197949948Y-80956361D01*
X197785201Y-80709799D01*
X192176901Y-75101499D01*
X191930339Y-74936752D01*
X191639500Y-74878900D01*
X184965100Y-74878900D01*
X184674260Y-74936752D01*
X184427699Y-75101499D01*
X183697381Y-75831817D01*
X183667100Y-75819243D01*
X183111339Y-75818758D01*
X182597697Y-76030990D01*
X182204371Y-76423630D01*
X182118051Y-76631512D01*
X182033010Y-76425697D01*
X181640370Y-76032371D01*
X181127100Y-75819243D01*
X180571339Y-75818758D01*
X180057697Y-76030990D01*
X179664371Y-76423630D01*
X179578051Y-76631512D01*
X179493010Y-76425697D01*
X179100370Y-76032371D01*
X179026079Y-76001523D01*
X179339002Y-75688600D01*
X180595400Y-75688600D01*
X180886239Y-75630748D01*
X181132801Y-75466001D01*
X183078619Y-73520183D01*
X183108900Y-73532757D01*
X183664661Y-73533242D01*
X184178303Y-73321010D01*
X184571629Y-72928370D01*
X184657949Y-72720488D01*
X184742990Y-72926303D01*
X185135630Y-73319629D01*
X185648900Y-73532757D01*
X186204661Y-73533242D01*
X186718303Y-73321010D01*
X187111629Y-72928370D01*
X187197949Y-72720488D01*
X187282990Y-72926303D01*
X187675630Y-73319629D01*
X188188900Y-73532757D01*
X188744661Y-73533242D01*
X189258303Y-73321010D01*
X189651629Y-72928370D01*
X189737949Y-72720488D01*
X189822990Y-72926303D01*
X190215630Y-73319629D01*
X190728900Y-73532757D01*
X191284661Y-73533242D01*
X191798303Y-73321010D01*
X192191629Y-72928370D01*
X192404757Y-72415100D01*
X192405242Y-71859339D01*
X192193010Y-71345697D01*
X191800370Y-70952371D01*
X191287100Y-70739243D01*
X190731339Y-70738758D01*
X190698945Y-70752143D01*
X189967801Y-70020999D01*
X189721239Y-69856252D01*
X189430400Y-69798400D01*
X147867800Y-69798400D01*
X147576960Y-69856252D01*
X147330399Y-70020999D01*
X146239559Y-71111839D01*
X146080370Y-70952371D01*
X145567100Y-70739243D01*
X145011339Y-70738758D01*
X144497697Y-70950990D01*
X144104371Y-71343630D01*
X144018051Y-71551512D01*
X143933010Y-71345697D01*
X143540370Y-70952371D01*
X143027100Y-70739243D01*
X142471339Y-70738758D01*
X141957697Y-70950990D01*
X141564371Y-71343630D01*
X141484605Y-71535727D01*
X141430397Y-71404857D01*
X141188213Y-71335392D01*
X140387605Y-72136000D01*
X141188213Y-72936608D01*
X141430397Y-72867143D01*
X141480509Y-72726682D01*
X141562990Y-72926303D01*
X141955630Y-73319629D01*
X142468900Y-73532757D01*
X143024661Y-73533242D01*
X143538303Y-73321010D01*
X143931629Y-72928370D01*
X144017949Y-72720488D01*
X144102990Y-72926303D01*
X144495630Y-73319629D01*
X144565752Y-73348746D01*
X144028498Y-73886000D01*
X138700200Y-73886000D01*
X138409361Y-73943852D01*
X138162799Y-74108599D01*
X136097121Y-76174277D01*
X136043618Y-76120774D01*
X135928607Y-76235785D01*
X135859143Y-75993603D01*
X135335698Y-75806856D01*
X134780632Y-75834638D01*
X134396857Y-75993603D01*
X134327392Y-76235787D01*
X135128000Y-77036395D01*
X135142143Y-77022253D01*
X135321748Y-77201858D01*
X135307605Y-77216000D01*
X135321748Y-77230143D01*
X135142143Y-77409748D01*
X135128000Y-77395605D01*
X134327392Y-78196213D01*
X134396857Y-78438397D01*
X134536781Y-78488317D01*
X125187520Y-87837578D01*
X125142033Y-87837538D01*
X124798257Y-87979583D01*
X124535008Y-88242373D01*
X124392362Y-88585901D01*
X124392038Y-88957867D01*
X124534083Y-89301643D01*
X124796873Y-89564892D01*
X125140401Y-89707538D01*
X125512367Y-89707862D01*
X125856143Y-89565817D01*
X126119392Y-89303027D01*
X126262038Y-88959499D01*
X126262079Y-88912623D01*
X126789200Y-88385502D01*
X126789200Y-88688600D01*
X126847052Y-88979439D01*
X127011799Y-89226001D01*
X129722500Y-91936702D01*
X129722500Y-108326144D01*
X129686285Y-108301946D01*
X129118000Y-108188907D01*
X128549715Y-108301946D01*
X128067946Y-108623853D01*
X127848000Y-108953026D01*
X127628054Y-108623853D01*
X127146285Y-108301946D01*
X126578000Y-108188907D01*
X126009715Y-108301946D01*
X125670502Y-108528600D01*
X125132201Y-107990299D01*
X124885639Y-107825552D01*
X124594800Y-107767700D01*
X123528100Y-107767700D01*
X123237261Y-107825552D01*
X122990699Y-107990299D01*
X122301999Y-108678999D01*
X122137252Y-108925561D01*
X122079400Y-109216400D01*
X122079400Y-112772500D01*
X122137252Y-113063339D01*
X122301999Y-113309901D01*
X122749636Y-113757538D01*
X120024203Y-113757615D01*
X120795801Y-113438798D01*
X121593995Y-112641995D01*
X122026507Y-111600390D01*
X122027491Y-110472558D01*
X121596798Y-109430199D01*
X120799995Y-108632005D01*
X119758390Y-108199493D01*
X118630558Y-108198509D01*
X117588199Y-108629202D01*
X116790005Y-109426005D01*
X116357493Y-110467610D01*
X116356509Y-111595442D01*
X116647334Y-112299294D01*
X116415168Y-111956510D01*
X116173313Y-110779291D01*
X116169840Y-77492661D01*
X128650758Y-77492661D01*
X128862990Y-78006303D01*
X129255630Y-78399629D01*
X129768900Y-78612757D01*
X130324661Y-78613242D01*
X130838303Y-78401010D01*
X131231629Y-78008370D01*
X131245070Y-77976000D01*
X131390469Y-77976000D01*
X131402990Y-78006303D01*
X131795630Y-78399629D01*
X132308900Y-78612757D01*
X132864661Y-78613242D01*
X133378303Y-78401010D01*
X133771629Y-78008370D01*
X133851395Y-77816273D01*
X133905603Y-77947143D01*
X134147787Y-78016608D01*
X134948395Y-77216000D01*
X134147787Y-76415392D01*
X133905603Y-76484857D01*
X133855491Y-76625318D01*
X133773010Y-76425697D01*
X133380370Y-76032371D01*
X132867100Y-75819243D01*
X132311339Y-75818758D01*
X131797697Y-76030990D01*
X131404371Y-76423630D01*
X131390930Y-76456000D01*
X131245531Y-76456000D01*
X131233010Y-76425697D01*
X130840370Y-76032371D01*
X130327100Y-75819243D01*
X129771339Y-75818758D01*
X129257697Y-76030990D01*
X128864371Y-76423630D01*
X128651243Y-76936900D01*
X128650758Y-77492661D01*
X116169840Y-77492661D01*
X116169310Y-72412661D01*
X128650758Y-72412661D01*
X128862990Y-72926303D01*
X129255630Y-73319629D01*
X129768900Y-73532757D01*
X130324661Y-73533242D01*
X130838303Y-73321010D01*
X131231629Y-72928370D01*
X131317949Y-72720488D01*
X131402990Y-72926303D01*
X131795630Y-73319629D01*
X132308900Y-73532757D01*
X132864661Y-73533242D01*
X133378303Y-73321010D01*
X133771629Y-72928370D01*
X133857949Y-72720488D01*
X133942990Y-72926303D01*
X134335630Y-73319629D01*
X134848900Y-73532757D01*
X135404661Y-73533242D01*
X135918303Y-73321010D01*
X136123457Y-73116213D01*
X136867392Y-73116213D01*
X136936857Y-73358397D01*
X137460302Y-73545144D01*
X138015368Y-73517362D01*
X138399143Y-73358397D01*
X138468608Y-73116213D01*
X139407392Y-73116213D01*
X139476857Y-73358397D01*
X140000302Y-73545144D01*
X140555368Y-73517362D01*
X140939143Y-73358397D01*
X141008608Y-73116213D01*
X140208000Y-72315605D01*
X139407392Y-73116213D01*
X138468608Y-73116213D01*
X137668000Y-72315605D01*
X136867392Y-73116213D01*
X136123457Y-73116213D01*
X136311629Y-72928370D01*
X136391395Y-72736273D01*
X136445603Y-72867143D01*
X136687787Y-72936608D01*
X137488395Y-72136000D01*
X137847605Y-72136000D01*
X138648213Y-72936608D01*
X138890397Y-72867143D01*
X138934453Y-72743656D01*
X138985603Y-72867143D01*
X139227787Y-72936608D01*
X140028395Y-72136000D01*
X139227787Y-71335392D01*
X138985603Y-71404857D01*
X138941547Y-71528344D01*
X138890397Y-71404857D01*
X138648213Y-71335392D01*
X137847605Y-72136000D01*
X137488395Y-72136000D01*
X136687787Y-71335392D01*
X136445603Y-71404857D01*
X136395491Y-71545318D01*
X136313010Y-71345697D01*
X136123432Y-71155787D01*
X136867392Y-71155787D01*
X137668000Y-71956395D01*
X138468608Y-71155787D01*
X139407392Y-71155787D01*
X140208000Y-71956395D01*
X141008608Y-71155787D01*
X140939143Y-70913603D01*
X140415698Y-70726856D01*
X139860632Y-70754638D01*
X139476857Y-70913603D01*
X139407392Y-71155787D01*
X138468608Y-71155787D01*
X138399143Y-70913603D01*
X137875698Y-70726856D01*
X137320632Y-70754638D01*
X136936857Y-70913603D01*
X136867392Y-71155787D01*
X136123432Y-71155787D01*
X135920370Y-70952371D01*
X135407100Y-70739243D01*
X134851339Y-70738758D01*
X134337697Y-70950990D01*
X133944371Y-71343630D01*
X133858051Y-71551512D01*
X133773010Y-71345697D01*
X133380370Y-70952371D01*
X132867100Y-70739243D01*
X132311339Y-70738758D01*
X131797697Y-70950990D01*
X131404371Y-71343630D01*
X131318051Y-71551512D01*
X131233010Y-71345697D01*
X130840370Y-70952371D01*
X130327100Y-70739243D01*
X129771339Y-70738758D01*
X129257697Y-70950990D01*
X128864371Y-71343630D01*
X128651243Y-71856900D01*
X128650758Y-72412661D01*
X116169310Y-72412661D01*
X116168247Y-62238206D01*
X116301437Y-61535170D01*
X116300509Y-62598442D01*
X116731202Y-63640801D01*
X117528005Y-64438995D01*
X118569610Y-64871507D01*
X119697442Y-64872491D01*
X120739801Y-64441798D01*
X121537995Y-63644995D01*
X121970507Y-62603390D01*
X121971491Y-61475558D01*
X121540798Y-60433199D01*
X120743995Y-59635005D01*
X119702390Y-59202493D01*
X119144858Y-59202007D01*
X119149105Y-59201122D01*
X209426179Y-59203658D01*
G36*
X131785000Y-112116000D02*
X131805000Y-112116000D01*
X131805000Y-112370000D01*
X131785000Y-112370000D01*
X131785000Y-112390000D01*
X131531000Y-112390000D01*
X131531000Y-112370000D01*
X131511000Y-112370000D01*
X131511000Y-112116000D01*
X131531000Y-112116000D01*
X131531000Y-112096000D01*
X131785000Y-112096000D01*
X131785000Y-112116000D01*
X131785000Y-112116000D01*
G37*
X131785000Y-112116000D02*
X131805000Y-112116000D01*
X131805000Y-112370000D01*
X131785000Y-112370000D01*
X131785000Y-112390000D01*
X131531000Y-112390000D01*
X131531000Y-112370000D01*
X131511000Y-112370000D01*
X131511000Y-112116000D01*
X131531000Y-112116000D01*
X131531000Y-112096000D01*
X131785000Y-112096000D01*
X131785000Y-112116000D01*
G36*
X136865000Y-112116000D02*
X136885000Y-112116000D01*
X136885000Y-112370000D01*
X136865000Y-112370000D01*
X136865000Y-112390000D01*
X136611000Y-112390000D01*
X136611000Y-112370000D01*
X136591000Y-112370000D01*
X136591000Y-112116000D01*
X136611000Y-112116000D01*
X136611000Y-112096000D01*
X136865000Y-112096000D01*
X136865000Y-112116000D01*
X136865000Y-112116000D01*
G37*
X136865000Y-112116000D02*
X136885000Y-112116000D01*
X136885000Y-112370000D01*
X136865000Y-112370000D01*
X136865000Y-112390000D01*
X136611000Y-112390000D01*
X136611000Y-112370000D01*
X136591000Y-112370000D01*
X136591000Y-112116000D01*
X136611000Y-112116000D01*
X136611000Y-112096000D01*
X136865000Y-112096000D01*
X136865000Y-112116000D01*
G36*
X149565000Y-112116000D02*
X149585000Y-112116000D01*
X149585000Y-112370000D01*
X149565000Y-112370000D01*
X149565000Y-112390000D01*
X149311000Y-112390000D01*
X149311000Y-112370000D01*
X149291000Y-112370000D01*
X149291000Y-112116000D01*
X149311000Y-112116000D01*
X149311000Y-112096000D01*
X149565000Y-112096000D01*
X149565000Y-112116000D01*
X149565000Y-112116000D01*
G37*
X149565000Y-112116000D02*
X149585000Y-112116000D01*
X149585000Y-112370000D01*
X149565000Y-112370000D01*
X149565000Y-112390000D01*
X149311000Y-112390000D01*
X149311000Y-112370000D01*
X149291000Y-112370000D01*
X149291000Y-112116000D01*
X149311000Y-112116000D01*
X149311000Y-112096000D01*
X149565000Y-112096000D01*
X149565000Y-112116000D01*
G36*
X157185000Y-112116000D02*
X157205000Y-112116000D01*
X157205000Y-112370000D01*
X157185000Y-112370000D01*
X157185000Y-112390000D01*
X156931000Y-112390000D01*
X156931000Y-112370000D01*
X156911000Y-112370000D01*
X156911000Y-112116000D01*
X156931000Y-112116000D01*
X156931000Y-112096000D01*
X157185000Y-112096000D01*
X157185000Y-112116000D01*
X157185000Y-112116000D01*
G37*
X157185000Y-112116000D02*
X157205000Y-112116000D01*
X157205000Y-112370000D01*
X157185000Y-112370000D01*
X157185000Y-112390000D01*
X156931000Y-112390000D01*
X156931000Y-112370000D01*
X156911000Y-112370000D01*
X156911000Y-112116000D01*
X156931000Y-112116000D01*
X156931000Y-112096000D01*
X157185000Y-112096000D01*
X157185000Y-112116000D01*
G36*
X167345000Y-112116000D02*
X167365000Y-112116000D01*
X167365000Y-112370000D01*
X167345000Y-112370000D01*
X167345000Y-112390000D01*
X167091000Y-112390000D01*
X167091000Y-112370000D01*
X167071000Y-112370000D01*
X167071000Y-112116000D01*
X167091000Y-112116000D01*
X167091000Y-112096000D01*
X167345000Y-112096000D01*
X167345000Y-112116000D01*
X167345000Y-112116000D01*
G37*
X167345000Y-112116000D02*
X167365000Y-112116000D01*
X167365000Y-112370000D01*
X167345000Y-112370000D01*
X167345000Y-112390000D01*
X167091000Y-112390000D01*
X167091000Y-112370000D01*
X167071000Y-112370000D01*
X167071000Y-112116000D01*
X167091000Y-112116000D01*
X167091000Y-112096000D01*
X167345000Y-112096000D01*
X167345000Y-112116000D01*
G36*
X125301210Y-110442812D02*
X125527946Y-110782147D01*
X125813578Y-110973000D01*
X125527946Y-111163853D01*
X125308000Y-111493026D01*
X125088054Y-111163853D01*
X124804899Y-110974655D01*
X124804924Y-110974645D01*
X125233183Y-110584358D01*
X125299789Y-110442530D01*
X125301210Y-110442812D01*
X125301210Y-110442812D01*
G37*
X125301210Y-110442812D02*
X125527946Y-110782147D01*
X125813578Y-110973000D01*
X125527946Y-111163853D01*
X125308000Y-111493026D01*
X125088054Y-111163853D01*
X124804899Y-110974655D01*
X124804924Y-110974645D01*
X125233183Y-110584358D01*
X125299789Y-110442530D01*
X125301210Y-110442812D01*
G36*
X124165000Y-109576000D02*
X124185000Y-109576000D01*
X124185000Y-109830000D01*
X124165000Y-109830000D01*
X124165000Y-109850000D01*
X123911000Y-109850000D01*
X123911000Y-109830000D01*
X123891000Y-109830000D01*
X123891000Y-109576000D01*
X123911000Y-109576000D01*
X123911000Y-109556000D01*
X124165000Y-109556000D01*
X124165000Y-109576000D01*
X124165000Y-109576000D01*
G37*
X124165000Y-109576000D02*
X124185000Y-109576000D01*
X124185000Y-109830000D01*
X124165000Y-109830000D01*
X124165000Y-109850000D01*
X123911000Y-109850000D01*
X123911000Y-109830000D01*
X123891000Y-109830000D01*
X123891000Y-109576000D01*
X123911000Y-109576000D01*
X123911000Y-109556000D01*
X124165000Y-109556000D01*
X124165000Y-109576000D01*
G36*
X162265000Y-109576000D02*
X162285000Y-109576000D01*
X162285000Y-109830000D01*
X162265000Y-109830000D01*
X162265000Y-109850000D01*
X162011000Y-109850000D01*
X162011000Y-109830000D01*
X161991000Y-109830000D01*
X161991000Y-109576000D01*
X162011000Y-109576000D01*
X162011000Y-109556000D01*
X162265000Y-109556000D01*
X162265000Y-109576000D01*
X162265000Y-109576000D01*
G37*
X162265000Y-109576000D02*
X162285000Y-109576000D01*
X162285000Y-109830000D01*
X162265000Y-109830000D01*
X162265000Y-109850000D01*
X162011000Y-109850000D01*
X162011000Y-109830000D01*
X161991000Y-109830000D01*
X161991000Y-109576000D01*
X162011000Y-109576000D01*
X162011000Y-109556000D01*
X162265000Y-109556000D01*
X162265000Y-109576000D01*
G36*
X145265498Y-108528600D02*
X144926285Y-108301946D01*
X144358000Y-108188907D01*
X143789715Y-108301946D01*
X143307946Y-108623853D01*
X143080298Y-108964553D01*
X143013183Y-108821642D01*
X142584924Y-108431355D01*
X142174890Y-108261524D01*
X141945000Y-108382845D01*
X141945000Y-109576000D01*
X141965000Y-109576000D01*
X141965000Y-109830000D01*
X141945000Y-109830000D01*
X141945000Y-109850000D01*
X141691000Y-109850000D01*
X141691000Y-109830000D01*
X141671000Y-109830000D01*
X141671000Y-109576000D01*
X141691000Y-109576000D01*
X141691000Y-108382845D01*
X141461110Y-108261524D01*
X141051076Y-108431355D01*
X140622817Y-108821642D01*
X140555702Y-108964553D01*
X140328054Y-108623853D01*
X139990857Y-108398545D01*
X140472702Y-107916700D01*
X145877398Y-107916700D01*
X145265498Y-108528600D01*
X145265498Y-108528600D01*
G37*
X145265498Y-108528600D02*
X144926285Y-108301946D01*
X144358000Y-108188907D01*
X143789715Y-108301946D01*
X143307946Y-108623853D01*
X143080298Y-108964553D01*
X143013183Y-108821642D01*
X142584924Y-108431355D01*
X142174890Y-108261524D01*
X141945000Y-108382845D01*
X141945000Y-109576000D01*
X141965000Y-109576000D01*
X141965000Y-109830000D01*
X141945000Y-109830000D01*
X141945000Y-109850000D01*
X141691000Y-109850000D01*
X141691000Y-109830000D01*
X141671000Y-109830000D01*
X141671000Y-109576000D01*
X141691000Y-109576000D01*
X141691000Y-108382845D01*
X141461110Y-108261524D01*
X141051076Y-108431355D01*
X140622817Y-108821642D01*
X140555702Y-108964553D01*
X140328054Y-108623853D01*
X139990857Y-108398545D01*
X140472702Y-107916700D01*
X145877398Y-107916700D01*
X145265498Y-108528600D01*
G36*
X187282990Y-78006303D02*
X187675630Y-78399629D01*
X188188900Y-78612757D01*
X188536138Y-78613060D01*
X179916898Y-87232300D01*
X134918245Y-87232300D01*
X134918279Y-87193923D01*
X135176702Y-86935500D01*
X155021509Y-86935500D01*
X155185161Y-87044848D01*
X155476000Y-87102700D01*
X157652500Y-87102700D01*
X157943339Y-87044848D01*
X158189901Y-86880101D01*
X163651623Y-81418379D01*
X163687273Y-81454092D01*
X164030801Y-81596738D01*
X164077677Y-81596779D01*
X167565898Y-85085000D01*
X162594163Y-85085000D01*
X162562027Y-85052808D01*
X162218499Y-84910162D01*
X161846533Y-84909838D01*
X161502757Y-85051883D01*
X161239508Y-85314673D01*
X161096862Y-85658201D01*
X161096538Y-86030167D01*
X161238583Y-86373943D01*
X161501373Y-86637192D01*
X161844901Y-86779838D01*
X162216867Y-86780162D01*
X162560643Y-86638117D01*
X162593818Y-86605000D01*
X169243600Y-86605000D01*
X169534439Y-86547148D01*
X169781001Y-86382401D01*
X177575401Y-78588001D01*
X177660948Y-78459970D01*
X178028900Y-78612757D01*
X178584661Y-78613242D01*
X179098303Y-78401010D01*
X179491629Y-78008370D01*
X179577949Y-77800488D01*
X179662990Y-78006303D01*
X180055630Y-78399629D01*
X180568900Y-78612757D01*
X181124661Y-78613242D01*
X181638303Y-78401010D01*
X182031629Y-78008370D01*
X182117949Y-77800488D01*
X182202990Y-78006303D01*
X182595630Y-78399629D01*
X183108900Y-78612757D01*
X183664661Y-78613242D01*
X184178303Y-78401010D01*
X184571629Y-78008370D01*
X184657949Y-77800488D01*
X184742990Y-78006303D01*
X185135630Y-78399629D01*
X185648900Y-78612757D01*
X186204661Y-78613242D01*
X186718303Y-78401010D01*
X187111629Y-78008370D01*
X187197949Y-77800488D01*
X187282990Y-78006303D01*
X187282990Y-78006303D01*
G37*
X187282990Y-78006303D02*
X187675630Y-78399629D01*
X188188900Y-78612757D01*
X188536138Y-78613060D01*
X179916898Y-87232300D01*
X134918245Y-87232300D01*
X134918279Y-87193923D01*
X135176702Y-86935500D01*
X155021509Y-86935500D01*
X155185161Y-87044848D01*
X155476000Y-87102700D01*
X157652500Y-87102700D01*
X157943339Y-87044848D01*
X158189901Y-86880101D01*
X163651623Y-81418379D01*
X163687273Y-81454092D01*
X164030801Y-81596738D01*
X164077677Y-81596779D01*
X167565898Y-85085000D01*
X162594163Y-85085000D01*
X162562027Y-85052808D01*
X162218499Y-84910162D01*
X161846533Y-84909838D01*
X161502757Y-85051883D01*
X161239508Y-85314673D01*
X161096862Y-85658201D01*
X161096538Y-86030167D01*
X161238583Y-86373943D01*
X161501373Y-86637192D01*
X161844901Y-86779838D01*
X162216867Y-86780162D01*
X162560643Y-86638117D01*
X162593818Y-86605000D01*
X169243600Y-86605000D01*
X169534439Y-86547148D01*
X169781001Y-86382401D01*
X177575401Y-78588001D01*
X177660948Y-78459970D01*
X178028900Y-78612757D01*
X178584661Y-78613242D01*
X179098303Y-78401010D01*
X179491629Y-78008370D01*
X179577949Y-77800488D01*
X179662990Y-78006303D01*
X180055630Y-78399629D01*
X180568900Y-78612757D01*
X181124661Y-78613242D01*
X181638303Y-78401010D01*
X182031629Y-78008370D01*
X182117949Y-77800488D01*
X182202990Y-78006303D01*
X182595630Y-78399629D01*
X183108900Y-78612757D01*
X183664661Y-78613242D01*
X184178303Y-78401010D01*
X184571629Y-78008370D01*
X184657949Y-77800488D01*
X184742990Y-78006303D01*
X185135630Y-78399629D01*
X185648900Y-78612757D01*
X186204661Y-78613242D01*
X186718303Y-78401010D01*
X187111629Y-78008370D01*
X187197949Y-77800488D01*
X187282990Y-78006303D01*
M02*
