G04 #@! TF.FileFunction,Soldermask,Top*
%FSLAX46Y46*%
G04 Gerber Fmt 4.6, Leading zero omitted, Abs format (unit mm)*
G04 Created by KiCad (PCBNEW 4.0.7) date 02/21/19 02:12:21*
%MOMM*%
%LPD*%
G01*
G04 APERTURE LIST*
%ADD10C,0.100000*%
%ADD11C,2.900000*%
%ADD12R,2.100000X2.100000*%
%ADD13O,2.100000X2.100000*%
%ADD14R,2.200000X2.200000*%
%ADD15C,2.200000*%
%ADD16C,1.924000*%
G04 APERTURE END LIST*
D10*
D11*
X209499000Y-110959800D03*
X209499000Y-61959900D03*
X119215000Y-110947000D03*
D12*
X172298000Y-109703000D03*
D13*
X172298000Y-112243000D03*
X169758000Y-109703000D03*
X169758000Y-112243000D03*
X167218000Y-109703000D03*
X167218000Y-112243000D03*
X164678000Y-109703000D03*
X164678000Y-112243000D03*
X162138000Y-109703000D03*
X162138000Y-112243000D03*
X159598000Y-109703000D03*
X159598000Y-112243000D03*
X157058000Y-109703000D03*
X157058000Y-112243000D03*
X154518000Y-109703000D03*
X154518000Y-112243000D03*
X151978000Y-109703000D03*
X151978000Y-112243000D03*
X149438000Y-109703000D03*
X149438000Y-112243000D03*
X146898000Y-109703000D03*
X146898000Y-112243000D03*
X144358000Y-109703000D03*
X144358000Y-112243000D03*
X141818000Y-109703000D03*
X141818000Y-112243000D03*
X139278000Y-109703000D03*
X139278000Y-112243000D03*
X136738000Y-109703000D03*
X136738000Y-112243000D03*
X134198000Y-109703000D03*
X134198000Y-112243000D03*
X131658000Y-109703000D03*
X131658000Y-112243000D03*
X129118000Y-109703000D03*
X129118000Y-112243000D03*
X126578000Y-109703000D03*
X126578000Y-112243000D03*
X124038000Y-109703000D03*
X124038000Y-112243000D03*
D14*
X182842000Y-110465000D03*
D15*
X185382000Y-110465000D03*
D14*
X191732000Y-110465000D03*
D15*
X194272000Y-110465000D03*
D14*
X200622000Y-110465000D03*
D15*
X203162000Y-110465000D03*
D16*
X191008000Y-72136000D03*
X191008000Y-77216000D03*
X188468000Y-72136000D03*
X188468000Y-77216000D03*
X185928000Y-72136000D03*
X185928000Y-77216000D03*
X183388000Y-72136000D03*
X183388000Y-77216000D03*
X180848000Y-72136000D03*
X180848000Y-77216000D03*
X178308000Y-72136000D03*
X178308000Y-77216000D03*
X175768000Y-72136000D03*
X175768000Y-77216000D03*
X173228000Y-72136000D03*
X173228000Y-77216000D03*
X170688000Y-72136000D03*
X170688000Y-77216000D03*
X168148000Y-72136000D03*
X168148000Y-77216000D03*
X165608000Y-72136000D03*
X165608000Y-77216000D03*
X163068000Y-72136000D03*
X163068000Y-77216000D03*
X160528000Y-72136000D03*
X160528000Y-77216000D03*
X157988000Y-72136000D03*
X157988000Y-77216000D03*
X155448000Y-72136000D03*
X155448000Y-77216000D03*
X152908000Y-72136000D03*
X152908000Y-77216000D03*
X150368000Y-72136000D03*
X150368000Y-77216000D03*
X147828000Y-72136000D03*
X147828000Y-77216000D03*
X145288000Y-72136000D03*
X145288000Y-77216000D03*
X142748000Y-72136000D03*
X142748000Y-77216000D03*
X140208000Y-72136000D03*
X140208000Y-77216000D03*
X137668000Y-72136000D03*
X137668000Y-77216000D03*
X135128000Y-72136000D03*
X135128000Y-77216000D03*
X132588000Y-72136000D03*
X132588000Y-77216000D03*
X130048000Y-72136000D03*
X130048000Y-77216000D03*
D11*
X119202000Y-61925200D03*
X177152000Y-110960000D03*
X177140000Y-61963300D03*
M02*
