M48
;DRILL file {KiCad 4.0.7} date 02/21/19 02:12:23
;FORMAT={-:-/ absolute / inch / decimal}
FMAT,2
INCH,TZ
T1C0.016
T2C0.031
T3C0.031
T4C0.035
%
G90
G05
M72
T1
X4.988Y-3.5071
X5.101Y-3.5007
X5.1365Y-4.256
X5.2548Y-3.4802
X5.2904Y-3.4389
X5.3159Y-3.4119
X5.4402Y-3.5441
X5.5369Y-3.3873
X5.5559Y-4.1924
X5.5971Y-4.1762
X5.6433Y-3.2167
X5.663Y-3.3743
X5.6682Y-3.1157
X5.6848Y-4.1256
X5.6978Y-4.1649
X5.7282Y-4.1256
X5.8495Y-3.7843
X5.9117Y-3.7235
X5.9653Y-3.9492
X5.9799Y-3.7885
X5.9876Y-3.8833
X6.0127Y-3.8621
X6.0564Y-3.8321
X6.073Y-3.9392
X6.1766Y-3.5478
X6.1806Y-4.0744
X6.1928Y-3.3672
X6.1984Y-4.1011
X6.2186Y-3.2117
X6.238Y-3.5842
X6.268Y-3.2028
X6.2903Y-3.2286
X6.3322Y-3.9499
X6.3371Y-4.2463
X6.4126Y-4.0542
X6.5044Y-3.9292
X6.5616Y-3.9647
X6.6491Y-3.7803
X6.6967Y-3.5364
X6.7949Y-3.5455
X6.8003Y-3.7891
X6.8566Y-3.781
X6.8622Y-3.5317
X6.9212Y-4.0289
X6.9281Y-3.9949
X7.0253Y-3.5637
X7.0511Y-3.536
X7.1374Y-3.4077
X7.1699Y-3.8516
X7.2841Y-3.4077
X7.3622Y-3.4202
X7.3922Y-3.781
X7.3944Y-3.9065
X7.4328Y-3.4194
X7.4711Y-3.9875
X7.5204Y-3.5601
X7.6248Y-3.536
T2
X4.8834Y-4.319
X4.8834Y-4.419
X4.9834Y-4.319
X4.9834Y-4.419
X5.0834Y-4.319
X5.0834Y-4.419
X5.1834Y-4.319
X5.1834Y-4.419
X5.2834Y-4.319
X5.2834Y-4.419
X5.3834Y-4.319
X5.3834Y-4.419
X5.4834Y-4.319
X5.4834Y-4.419
X5.5834Y-4.319
X5.5834Y-4.419
X5.6834Y-4.319
X5.6834Y-4.419
X5.7834Y-4.319
X5.7834Y-4.419
X5.8834Y-4.319
X5.8834Y-4.419
X5.9834Y-4.319
X5.9834Y-4.419
X6.0834Y-4.319
X6.0834Y-4.419
X6.1834Y-4.319
X6.1834Y-4.419
X6.2834Y-4.319
X6.2834Y-4.419
X6.3834Y-4.319
X6.3834Y-4.419
X6.4834Y-4.319
X6.4834Y-4.419
X6.5834Y-4.319
X6.5834Y-4.419
X6.6834Y-4.319
X6.6834Y-4.419
X6.7834Y-4.319
X6.7834Y-4.419
T3
X5.12Y-2.84
X5.12Y-3.04
X5.22Y-2.84
X5.22Y-3.04
X5.32Y-2.84
X5.32Y-3.04
X5.42Y-2.84
X5.42Y-3.04
X5.52Y-2.84
X5.52Y-3.04
X5.62Y-2.84
X5.62Y-3.04
X5.72Y-2.84
X5.72Y-3.04
X5.82Y-2.84
X5.82Y-3.04
X5.92Y-2.84
X5.92Y-3.04
X6.02Y-2.84
X6.02Y-3.04
X6.12Y-2.84
X6.12Y-3.04
X6.22Y-2.84
X6.22Y-3.04
X6.32Y-2.84
X6.32Y-3.04
X6.42Y-2.84
X6.42Y-3.04
X6.52Y-2.84
X6.52Y-3.04
X6.62Y-2.84
X6.62Y-3.04
X6.72Y-2.84
X6.72Y-3.04
X6.82Y-2.84
X6.82Y-3.04
X6.92Y-2.84
X6.92Y-3.04
X7.02Y-2.84
X7.02Y-3.04
X7.12Y-2.84
X7.12Y-3.04
X7.22Y-2.84
X7.22Y-3.04
X7.32Y-2.84
X7.32Y-3.04
X7.42Y-2.84
X7.42Y-3.04
X7.52Y-2.84
X7.52Y-3.04
T4
X7.1985Y-4.349
X7.2985Y-4.349
X7.5485Y-4.349
X7.6485Y-4.349
X7.8985Y-4.349
X7.9985Y-4.349
T0
M30
