G04 #@! TF.FileFunction,Copper,L2,Bot,Signal*
%FSLAX46Y46*%
G04 Gerber Fmt 4.6, Leading zero omitted, Abs format (unit mm)*
G04 Created by KiCad (PCBNEW 4.0.7) date 05/03/18 12:04:11*
%MOMM*%
%LPD*%
G01*
G04 APERTURE LIST*
%ADD10C,0.100000*%
%ADD11R,1.727200X1.727200*%
%ADD12O,1.727200X1.727200*%
%ADD13R,1.524000X10.160000*%
%ADD14R,1.200000X0.900000*%
%ADD15R,0.750000X1.200000*%
%ADD16R,0.600000X1.950000*%
%ADD17R,1.500000X0.600000*%
%ADD18R,0.762000X1.524000*%
%ADD19R,1.300000X1.500000*%
%ADD20C,0.600000*%
%ADD21C,0.250000*%
%ADD22C,0.254000*%
G04 APERTURE END LIST*
D10*
D11*
X180784000Y-126873000D03*
D12*
X178244000Y-126873000D03*
X180784000Y-124333000D03*
X178244000Y-124333000D03*
X180784000Y-121793000D03*
X178244000Y-121793000D03*
X180784000Y-119253000D03*
X178244000Y-119253000D03*
X180784000Y-116713000D03*
X178244000Y-116713000D03*
X180784000Y-114173000D03*
X178244000Y-114173000D03*
X180784000Y-111633000D03*
X178244000Y-111633000D03*
X180784000Y-109093000D03*
X178244000Y-109093000D03*
X180784000Y-106553000D03*
X178244000Y-106553000D03*
X180784000Y-104013000D03*
X178244000Y-104013000D03*
X180784000Y-101473000D03*
X178244000Y-101473000D03*
X180784000Y-98933000D03*
X178244000Y-98933000D03*
X180784000Y-96393000D03*
X178244000Y-96393000D03*
X180784000Y-93853000D03*
X178244000Y-93853000D03*
X180784000Y-91313000D03*
X178244000Y-91313000D03*
X180784000Y-88773000D03*
X178244000Y-88773000D03*
X180784000Y-86233000D03*
X178244000Y-86233000D03*
X180784000Y-83693000D03*
X178244000Y-83693000D03*
X180784000Y-81153000D03*
X178244000Y-81153000D03*
X180784000Y-78613000D03*
X178244000Y-78613000D03*
D13*
X178689000Y-137795000D03*
X176149000Y-137795000D03*
X173609000Y-137795000D03*
X171069000Y-137795000D03*
X168529000Y-137795000D03*
X165989000Y-137795000D03*
X163449000Y-137795000D03*
X160909000Y-137795000D03*
X158369000Y-137795000D03*
X155829000Y-137795000D03*
X153289000Y-137795000D03*
X150749000Y-137795000D03*
X148209000Y-137795000D03*
X145669000Y-137795000D03*
X143129000Y-137795000D03*
X140589000Y-137795000D03*
X138049000Y-137795000D03*
X135509000Y-137795000D03*
X132969000Y-137795000D03*
X130429000Y-137795000D03*
X127889000Y-137795000D03*
X125349000Y-137795000D03*
X122809000Y-137795000D03*
X120269000Y-137795000D03*
X117729000Y-137795000D03*
D14*
X171302000Y-72136000D03*
X173502000Y-72136000D03*
X171302000Y-73787000D03*
X173502000Y-73787000D03*
X171302000Y-75438000D03*
X173502000Y-75438000D03*
D15*
X158242000Y-118554000D03*
X158242000Y-116654000D03*
X137236000Y-114950000D03*
X137236000Y-116850000D03*
X161608000Y-118616000D03*
X161608000Y-116716000D03*
X137236000Y-121956000D03*
X137236000Y-120056000D03*
D16*
X154369000Y-122555000D03*
X153099000Y-122555000D03*
X151829000Y-122555000D03*
X150559000Y-122555000D03*
X149289000Y-122555000D03*
X148019000Y-122555000D03*
X146749000Y-122555000D03*
X145479000Y-122555000D03*
X144209000Y-122555000D03*
X142939000Y-122555000D03*
X142939000Y-113155000D03*
X144209000Y-113155000D03*
X145479000Y-113155000D03*
X146749000Y-113155000D03*
X148019000Y-113155000D03*
X149289000Y-113155000D03*
X150559000Y-113155000D03*
X151829000Y-113155000D03*
X153099000Y-113155000D03*
X154369000Y-113155000D03*
D11*
X159068000Y-74993500D03*
D12*
X159068000Y-72453500D03*
X156528000Y-74993500D03*
X156528000Y-72453500D03*
X153988000Y-74993500D03*
X153988000Y-72453500D03*
X151448000Y-74993500D03*
X151448000Y-72453500D03*
X148908000Y-74993500D03*
X148908000Y-72453500D03*
X146368000Y-74993500D03*
X146368000Y-72453500D03*
X143828000Y-74993500D03*
X143828000Y-72453500D03*
X141288000Y-74993500D03*
X141288000Y-72453500D03*
X138748000Y-74993500D03*
X138748000Y-72453500D03*
X136208000Y-74993500D03*
X136208000Y-72453500D03*
X133668000Y-74993500D03*
X133668000Y-72453500D03*
X131128000Y-74993500D03*
X131128000Y-72453500D03*
X128588000Y-74993500D03*
X128588000Y-72453500D03*
X126048000Y-74993500D03*
X126048000Y-72453500D03*
X123508000Y-74993500D03*
X123508000Y-72453500D03*
X120968000Y-74993500D03*
X120968000Y-72453500D03*
X118428000Y-74993500D03*
X118428000Y-72453500D03*
X115888000Y-74993500D03*
X115888000Y-72453500D03*
X113348000Y-74993500D03*
X113348000Y-72453500D03*
X110808000Y-74993500D03*
X110808000Y-72453500D03*
D17*
X170500000Y-114173000D03*
X170500000Y-115443000D03*
X170500000Y-116713000D03*
X170500000Y-117983000D03*
X170500000Y-119253000D03*
X170500000Y-120523000D03*
X170500000Y-121793000D03*
X165100000Y-121793000D03*
X165100000Y-120523000D03*
X165100000Y-119253000D03*
X165100000Y-117983000D03*
X165100000Y-116713000D03*
X165100000Y-115443000D03*
X165100000Y-114173000D03*
D18*
X134112000Y-121792000D03*
X132842000Y-121792000D03*
X131572000Y-121792000D03*
X130302000Y-121792000D03*
X129032000Y-121792000D03*
X127762000Y-121792000D03*
X126492000Y-121792000D03*
X125222000Y-121792000D03*
X123952000Y-121792000D03*
X122682000Y-121792000D03*
X121412000Y-121792000D03*
X120015000Y-121792000D03*
X134112000Y-114172000D03*
X132842000Y-114172000D03*
X131572000Y-114172000D03*
X130302000Y-114172000D03*
X129032000Y-114172000D03*
X127762000Y-114172000D03*
X126492000Y-114172000D03*
X125222000Y-114172000D03*
X123952000Y-114172000D03*
X122682000Y-114172000D03*
X121412000Y-114172000D03*
X120142000Y-114172000D03*
D19*
X137414000Y-106698000D03*
X137414000Y-109398000D03*
X140411000Y-106680000D03*
X140411000Y-109380000D03*
D20*
X126663100Y-111287700D03*
X131114000Y-80818600D03*
X151813200Y-119924100D03*
X127573100Y-111308500D03*
X148692500Y-95490400D03*
X125209300Y-120525900D03*
X155656600Y-95901400D03*
X168472400Y-115385200D03*
X128574800Y-101152100D03*
X131572000Y-119364700D03*
X134071700Y-96548000D03*
X124297700Y-111680600D03*
X126048000Y-94865100D03*
X127236900Y-93723400D03*
X125574200Y-111294200D03*
X126397000Y-120501100D03*
X125166500Y-87260800D03*
X129130500Y-92513900D03*
X128813900Y-118026800D03*
X129755900Y-90045900D03*
X124725800Y-85413400D03*
X160704400Y-118679000D03*
X134433300Y-120065800D03*
X137583900Y-113793200D03*
X175348700Y-114173000D03*
X167563800Y-131876800D03*
X167318900Y-121446900D03*
X127155000Y-117287300D03*
X149264900Y-127068900D03*
X153797000Y-114785700D03*
X155544100Y-129892400D03*
X153744600Y-115808700D03*
X154866100Y-129409000D03*
X153178000Y-131241800D03*
X152423900Y-115764000D03*
X146123700Y-114758100D03*
X148805000Y-126396800D03*
X157543100Y-98740600D03*
X160710600Y-116723700D03*
X119970000Y-111981700D03*
X138150900Y-118369800D03*
X176174400Y-131368800D03*
X168390400Y-117722800D03*
X167094200Y-117983000D03*
X167388900Y-120481800D03*
X166222000Y-123606400D03*
X152225400Y-126265900D03*
X156217200Y-128582700D03*
X149029400Y-128446700D03*
X173099400Y-127565400D03*
X149666600Y-125587100D03*
X169122900Y-125387400D03*
X175038800Y-75438000D03*
X175039000Y-73787000D03*
X175036700Y-72136000D03*
X150559000Y-117418200D03*
X168874900Y-110162500D03*
X167219800Y-74809600D03*
X111996900Y-118133800D03*
X127178000Y-118576600D03*
X151194000Y-121174800D03*
X173408200Y-123254300D03*
X156557400Y-124961800D03*
X167181000Y-114736300D03*
X149289000Y-97733900D03*
X152653900Y-118092500D03*
X145330800Y-116406200D03*
X148001100Y-111634600D03*
X143029700Y-103910100D03*
X167606500Y-117353600D03*
X173377500Y-116440000D03*
X176405100Y-105416600D03*
X167329300Y-78910700D03*
X138271100Y-100621500D03*
X137603500Y-100032300D03*
X137929800Y-101412100D03*
X136879400Y-99394600D03*
X140018000Y-89287400D03*
X144234400Y-121048600D03*
X147374300Y-121147000D03*
X146214300Y-87659500D03*
X145478700Y-82388500D03*
X145554600Y-83396300D03*
X151920400Y-83843600D03*
X118991600Y-77302900D03*
X144209000Y-81725700D03*
X150065300Y-127055800D03*
X167484000Y-77829100D03*
X172226900Y-116861800D03*
X135031200Y-113608900D03*
X143350200Y-120392300D03*
X140411000Y-111974000D03*
X131542700Y-109466700D03*
D21*
X123952000Y-114172000D02*
X123952000Y-113084700D01*
X126031300Y-111919500D02*
X126663100Y-111287700D01*
X125644800Y-111919500D02*
X126031300Y-111919500D01*
X124479600Y-113084700D02*
X125644800Y-111919500D01*
X123952000Y-113084700D02*
X124479600Y-113084700D01*
X127862200Y-84070400D02*
X131114000Y-80818600D01*
X127862200Y-110088600D02*
X127862200Y-84070400D01*
X126663100Y-111287700D02*
X127862200Y-110088600D01*
X153988000Y-74993500D02*
X153988000Y-76182400D01*
X125796900Y-113084700D02*
X127573100Y-111308500D01*
X125222000Y-113084700D02*
X125796900Y-113084700D01*
X125222000Y-114172000D02*
X125222000Y-113084700D01*
X153988000Y-94618500D02*
X153988000Y-76182400D01*
X152462400Y-96144100D02*
X153988000Y-94618500D01*
X152462400Y-114449800D02*
X152462400Y-96144100D01*
X151744400Y-115167800D02*
X152462400Y-114449800D01*
X151744400Y-119855300D02*
X151744400Y-115167800D01*
X151813200Y-119924100D02*
X151744400Y-119855300D01*
X151448000Y-74993500D02*
X151448000Y-76182400D01*
X148692500Y-78937900D02*
X151448000Y-76182400D01*
X148692500Y-95490400D02*
X148692500Y-78937900D01*
X125209300Y-116542000D02*
X125209300Y-120525900D01*
X126492000Y-115259300D02*
X125209300Y-116542000D01*
X126492000Y-114715600D02*
X126492000Y-115259300D01*
X126492000Y-114715600D02*
X126492000Y-114172000D01*
X128574800Y-111239300D02*
X128574800Y-101152100D01*
X126729400Y-113084700D02*
X128574800Y-111239300D01*
X126492000Y-113084700D02*
X126729400Y-113084700D01*
X126492000Y-114172000D02*
X126492000Y-113084700D01*
X168472400Y-114945700D02*
X168472400Y-115385200D01*
X155656600Y-102129900D02*
X168472400Y-114945700D01*
X155656600Y-95901400D02*
X155656600Y-102129900D01*
X128588000Y-72453500D02*
X128588000Y-73642400D01*
X130302000Y-118094700D02*
X131572000Y-119364700D01*
X130302000Y-114172000D02*
X130302000Y-118094700D01*
X130302000Y-114172000D02*
X130302000Y-113084700D01*
X128959600Y-73642400D02*
X128588000Y-73642400D01*
X129776900Y-74459700D02*
X128959600Y-73642400D01*
X129776900Y-76632500D02*
X129776900Y-74459700D01*
X132122900Y-78978500D02*
X129776900Y-76632500D01*
X132122900Y-96495100D02*
X132122900Y-78978500D01*
X130302000Y-98316000D02*
X132122900Y-96495100D01*
X130302000Y-113084700D02*
X130302000Y-98316000D01*
X134018800Y-96495100D02*
X134071700Y-96548000D01*
X132122900Y-96495100D02*
X134018800Y-96495100D01*
X121412000Y-114172000D02*
X121412000Y-113084700D01*
X123035500Y-111461200D02*
X124210300Y-111461200D01*
X121412000Y-113084700D02*
X123035500Y-111461200D01*
X124297700Y-111548600D02*
X124297700Y-111680600D01*
X124210300Y-111461200D02*
X124297700Y-111548600D01*
X126048000Y-94865100D02*
X126048000Y-74993500D01*
X126048000Y-109623500D02*
X124210300Y-111461200D01*
X126048000Y-94865100D02*
X126048000Y-109623500D01*
X122682000Y-114172000D02*
X122682000Y-113084700D01*
X123161000Y-112605700D02*
X122682000Y-113084700D01*
X124262700Y-112605700D02*
X123161000Y-112605700D01*
X125574200Y-111294200D02*
X124262700Y-112605700D01*
X126419600Y-73642400D02*
X126048000Y-73642400D01*
X127236900Y-74459700D02*
X126419600Y-73642400D01*
X127236900Y-93723400D02*
X127236900Y-74459700D01*
X126048000Y-72453500D02*
X126048000Y-73642400D01*
X127236900Y-109631500D02*
X125574200Y-111294200D01*
X127236900Y-93723400D02*
X127236900Y-109631500D01*
X127762000Y-114715600D02*
X127762000Y-115259300D01*
X126397000Y-116624300D02*
X126397000Y-120501100D01*
X127762000Y-115259300D02*
X126397000Y-116624300D01*
X123508000Y-74993500D02*
X123508000Y-76182400D01*
X127762000Y-114715600D02*
X127762000Y-114172000D01*
X127762000Y-114172000D02*
X127762000Y-113084700D01*
X129203500Y-92586900D02*
X129130500Y-92513900D01*
X129203500Y-111643200D02*
X129203500Y-92586900D01*
X127762000Y-113084700D02*
X129203500Y-111643200D01*
X125351100Y-78025500D02*
X123508000Y-76182400D01*
X125351100Y-87076200D02*
X125351100Y-78025500D01*
X125166500Y-87260800D02*
X125351100Y-87076200D01*
X129032000Y-117808700D02*
X129032000Y-114172000D01*
X128813900Y-118026800D02*
X129032000Y-117808700D01*
X129032000Y-114172000D02*
X129032000Y-113084700D01*
X120968000Y-74993500D02*
X120968000Y-76182400D01*
X129755900Y-112360800D02*
X129755900Y-90045900D01*
X129032000Y-113084700D02*
X129755900Y-112360800D01*
X120968100Y-81655700D02*
X124725800Y-85413400D01*
X120968100Y-76182400D02*
X120968100Y-81655700D01*
X120968000Y-76182400D02*
X120968100Y-76182400D01*
X134112000Y-114172000D02*
X134112000Y-115259300D01*
X162308300Y-115889400D02*
X164024700Y-114173000D01*
X162308300Y-118616000D02*
X162308300Y-115889400D01*
X161608000Y-118616000D02*
X162308300Y-118616000D01*
X165100000Y-114173000D02*
X164024700Y-114173000D01*
X161608000Y-118616000D02*
X160907700Y-118616000D01*
X160704400Y-118679000D02*
X160704400Y-118616500D01*
X160907200Y-118616500D02*
X160907700Y-118616000D01*
X160704400Y-118616500D02*
X160907200Y-118616500D01*
X134112000Y-115259300D02*
X134830100Y-115977300D01*
X135198100Y-115609300D02*
X134830100Y-115977300D01*
X135876400Y-115609300D02*
X135198100Y-115609300D01*
X136535700Y-114950000D02*
X135876400Y-115609300D01*
X137236000Y-114950000D02*
X136998500Y-114950000D01*
X136998500Y-114950000D02*
X136535700Y-114950000D01*
X137583900Y-114364600D02*
X137583900Y-113793200D01*
X136998500Y-114950000D02*
X137583900Y-114364600D01*
X171302000Y-75438000D02*
X171302000Y-74744400D01*
X180784000Y-106553000D02*
X180784000Y-105364100D01*
X180784000Y-106553000D02*
X180784000Y-107741900D01*
X180784000Y-126873000D02*
X180784000Y-125684100D01*
X134705900Y-119793200D02*
X134433300Y-120065800D01*
X134705900Y-116101500D02*
X134705900Y-119793200D01*
X134830100Y-115977300D02*
X134705900Y-116101500D01*
X159068000Y-74993500D02*
X160256900Y-74993500D01*
X171302000Y-73787000D02*
X171302000Y-74562300D01*
X171383700Y-74644000D02*
X171302000Y-74562300D01*
X171383700Y-74662700D02*
X171383700Y-74644000D01*
X171302000Y-74744400D02*
X171383700Y-74662700D01*
X181153500Y-105364100D02*
X180784000Y-105364100D01*
X181997400Y-104520200D02*
X181153500Y-105364100D01*
X181997400Y-78126500D02*
X181997400Y-104520200D01*
X178533600Y-74662700D02*
X181997400Y-78126500D01*
X171383700Y-74662700D02*
X178533600Y-74662700D01*
X181155600Y-125684100D02*
X180784000Y-125684100D01*
X181972900Y-124866800D02*
X181155600Y-125684100D01*
X181972900Y-113635400D02*
X181972900Y-124866800D01*
X181240500Y-112903000D02*
X181972900Y-113635400D01*
X182023200Y-112120300D02*
X181240500Y-112903000D01*
X182023200Y-108609600D02*
X182023200Y-112120300D01*
X181155500Y-107741900D02*
X182023200Y-108609600D01*
X180784000Y-107741900D02*
X181155500Y-107741900D01*
X176618700Y-112903000D02*
X175348700Y-114173000D01*
X181240500Y-112903000D02*
X176618700Y-112903000D01*
X160641900Y-118554000D02*
X158242000Y-118554000D01*
X160704400Y-118616500D02*
X160641900Y-118554000D01*
X157542400Y-117628700D02*
X154369000Y-114455300D01*
X158242000Y-117628700D02*
X157542400Y-117628700D01*
X158242000Y-118554000D02*
X158242000Y-117628700D01*
X154369000Y-113155000D02*
X154369000Y-114455300D01*
X132842000Y-114172000D02*
X132842000Y-113084700D01*
X134112000Y-114172000D02*
X134112000Y-113084700D01*
X132842000Y-113084700D02*
X134112000Y-113084700D01*
X138748000Y-74993500D02*
X138748000Y-76182400D01*
X138904400Y-76338800D02*
X138748000Y-76182400D01*
X138904400Y-101346700D02*
X138904400Y-76338800D01*
X134112000Y-106139100D02*
X138904400Y-101346700D01*
X134112000Y-113084700D02*
X134112000Y-106139100D01*
X161463400Y-73787000D02*
X160256900Y-74993500D01*
X170376700Y-73787000D02*
X161463400Y-73787000D01*
X171302000Y-73787000D02*
X170839400Y-73787000D01*
X170839400Y-73787000D02*
X170376700Y-73787000D01*
X171302000Y-73324400D02*
X171302000Y-72136000D01*
X170839400Y-73787000D02*
X171302000Y-73324400D01*
X167407600Y-131775200D02*
X167462200Y-131775200D01*
X167462200Y-131775200D02*
X167563800Y-131876800D01*
X167407600Y-121535600D02*
X167318900Y-121446900D01*
X167407600Y-131775200D02*
X167407600Y-121535600D01*
X145479000Y-122555000D02*
X145479000Y-123855300D01*
X129897900Y-120030200D02*
X127155000Y-117287300D01*
X133068300Y-120030200D02*
X129897900Y-120030200D01*
X133742700Y-120704600D02*
X133068300Y-120030200D01*
X134627700Y-120704600D02*
X133742700Y-120704600D01*
X134953700Y-121030600D02*
X134627700Y-120704600D01*
X139423100Y-121030600D02*
X134953700Y-121030600D01*
X142247800Y-123855300D02*
X139423100Y-121030600D01*
X145479000Y-123855300D02*
X142247800Y-123855300D01*
X148583900Y-127068900D02*
X149264900Y-127068900D01*
X145479000Y-123964000D02*
X148583900Y-127068900D01*
X145479000Y-123855300D02*
X145479000Y-123964000D01*
X155544100Y-116532800D02*
X153797000Y-114785700D01*
X155544100Y-129892400D02*
X155544100Y-116532800D01*
X155003400Y-117067500D02*
X153744600Y-115808700D01*
X155003400Y-129271700D02*
X155003400Y-117067500D01*
X154866100Y-129409000D02*
X155003400Y-129271700D01*
X152423900Y-116793400D02*
X152423900Y-115764000D01*
X153303200Y-117672700D02*
X152423900Y-116793400D01*
X153303200Y-120386200D02*
X153303200Y-117672700D01*
X152473700Y-121215700D02*
X153303200Y-120386200D01*
X152473700Y-125230800D02*
X152473700Y-121215700D01*
X153178000Y-125935100D02*
X152473700Y-125230800D01*
X153178000Y-131241800D02*
X153178000Y-125935100D01*
X146123700Y-123715500D02*
X146123700Y-114758100D01*
X148805000Y-126396800D02*
X146123700Y-123715500D01*
X170500000Y-114173000D02*
X169424700Y-114173000D01*
X157543100Y-102291400D02*
X157543100Y-98740600D01*
X169424700Y-114173000D02*
X157543100Y-102291400D01*
X120015000Y-121248300D02*
X120015000Y-120704700D01*
X120558600Y-120704700D02*
X121412000Y-120704700D01*
X120015000Y-121248300D02*
X120558600Y-120704700D01*
X121412000Y-121792000D02*
X121412000Y-120704700D01*
X161608000Y-116716000D02*
X160907700Y-116716000D01*
X178689000Y-137795000D02*
X178689000Y-132389700D01*
X178244000Y-121793000D02*
X178244000Y-122981900D01*
X158242000Y-116654000D02*
X158242000Y-115728700D01*
X178244000Y-86233000D02*
X178244000Y-87421900D01*
X178615600Y-85044100D02*
X178244000Y-85044100D01*
X179432900Y-84226800D02*
X178615600Y-85044100D01*
X179432900Y-80781400D02*
X179432900Y-84226800D01*
X180412400Y-79801900D02*
X179432900Y-80781400D01*
X180784000Y-79801900D02*
X180412400Y-79801900D01*
X180784000Y-78613000D02*
X180784000Y-79801900D01*
X178244000Y-86233000D02*
X178244000Y-85044100D01*
X180784000Y-96393000D02*
X180784000Y-97581900D01*
X178244000Y-91313000D02*
X178538300Y-91313000D01*
X178615600Y-87421900D02*
X178244000Y-87421900D01*
X179432900Y-88239200D02*
X178615600Y-87421900D01*
X179432900Y-90418400D02*
X179432900Y-88239200D01*
X178538300Y-91313000D02*
X179432900Y-90418400D01*
X180412400Y-95204100D02*
X180784000Y-95204100D01*
X179595100Y-94386800D02*
X180412400Y-95204100D01*
X179595100Y-92369800D02*
X179595100Y-94386800D01*
X178538300Y-91313000D02*
X179595100Y-92369800D01*
X180784000Y-96393000D02*
X180784000Y-95204100D01*
X120015000Y-121792000D02*
X120015000Y-121248300D01*
X180412400Y-117901900D02*
X180784000Y-117901900D01*
X179595100Y-118719200D02*
X180412400Y-117901900D01*
X179595100Y-119624600D02*
X179595100Y-118719200D01*
X178615600Y-120604100D02*
X179595100Y-119624600D01*
X178244000Y-120604100D02*
X178615600Y-120604100D01*
X178244000Y-121793000D02*
X178244000Y-120604100D01*
X180784000Y-116713000D02*
X180784000Y-117901900D01*
X120142000Y-120577700D02*
X120015000Y-120704700D01*
X120142000Y-114172000D02*
X120142000Y-120577700D01*
X120142000Y-114172000D02*
X120142000Y-113084700D01*
X154840600Y-111854700D02*
X153099000Y-111854700D01*
X158242000Y-115256100D02*
X154840600Y-111854700D01*
X158242000Y-115728700D02*
X158242000Y-115256100D01*
X154369000Y-122555000D02*
X154369000Y-121254700D01*
X153099000Y-112504800D02*
X153099000Y-111854700D01*
X153099000Y-112504800D02*
X153099000Y-113155000D01*
X153099000Y-113155000D02*
X153099000Y-114455300D01*
X158242000Y-116654000D02*
X158942300Y-116654000D01*
X160710600Y-116719800D02*
X160710600Y-116723700D01*
X160714400Y-116716000D02*
X160710600Y-116719800D01*
X160907700Y-116716000D02*
X160714400Y-116716000D01*
X159008100Y-116719800D02*
X158942300Y-116654000D01*
X160710600Y-116719800D02*
X159008100Y-116719800D01*
X137236000Y-116850000D02*
X137936300Y-116850000D01*
X137236000Y-120056000D02*
X137236000Y-119130700D01*
X138021300Y-118345400D02*
X137236000Y-119130700D01*
X138045700Y-118369800D02*
X138021300Y-118345400D01*
X138150900Y-118369800D02*
X138045700Y-118369800D01*
X137936300Y-118260400D02*
X137936300Y-116850000D01*
X138021300Y-118345400D02*
X137936300Y-118260400D01*
X141035800Y-121254700D02*
X138150900Y-118369800D01*
X142939000Y-121254700D02*
X141035800Y-121254700D01*
X142939000Y-122555000D02*
X142939000Y-121254700D01*
X154369000Y-118101600D02*
X154369000Y-121254700D01*
X153099000Y-116831600D02*
X154369000Y-118101600D01*
X153099000Y-114455300D02*
X153099000Y-116831600D01*
X170500000Y-121793000D02*
X171575300Y-121793000D01*
X178689000Y-132389700D02*
X178689000Y-128081400D01*
X178782100Y-128081400D02*
X178689000Y-128081400D01*
X179432900Y-127430600D02*
X178782100Y-128081400D01*
X179432900Y-123799200D02*
X179432900Y-127430600D01*
X178615600Y-122981900D02*
X179432900Y-123799200D01*
X178244000Y-122981900D02*
X178615600Y-122981900D01*
X177333000Y-128081400D02*
X178689000Y-128081400D01*
X171575300Y-122323700D02*
X177333000Y-128081400D01*
X171575300Y-121793000D02*
X171575300Y-122323700D01*
X180412400Y-97581900D02*
X180784000Y-97581900D01*
X179432900Y-98561400D02*
X180412400Y-97581900D01*
X179432900Y-102006800D02*
X179432900Y-98561400D01*
X178615600Y-102824100D02*
X179432900Y-102006800D01*
X178244000Y-102824100D02*
X178615600Y-102824100D01*
X178244000Y-104013000D02*
X178244000Y-102824100D01*
X178615600Y-105201900D02*
X178244000Y-105201900D01*
X179432900Y-106019200D02*
X178615600Y-105201900D01*
X179432900Y-109626700D02*
X179432900Y-106019200D01*
X178615500Y-110444100D02*
X179432900Y-109626700D01*
X178244000Y-110444100D02*
X178615500Y-110444100D01*
X178244000Y-111633000D02*
X178244000Y-110444100D01*
X178244000Y-104013000D02*
X178244000Y-105201900D01*
X118428000Y-72453500D02*
X118428000Y-73642400D01*
X119970000Y-112912700D02*
X119970000Y-111981700D01*
X120142000Y-113084700D02*
X119970000Y-112912700D01*
X123508000Y-72453500D02*
X122319100Y-72453500D01*
X122319100Y-72825100D02*
X122319100Y-72453500D01*
X121501800Y-73642400D02*
X122319100Y-72825100D01*
X120434200Y-73642400D02*
X121501800Y-73642400D01*
X119616900Y-74459700D02*
X120434200Y-73642400D01*
X119616900Y-111628600D02*
X119616900Y-74459700D01*
X119970000Y-111981700D02*
X119616900Y-111628600D01*
X118799600Y-73642400D02*
X118428000Y-73642400D01*
X119616900Y-74459700D02*
X118799600Y-73642400D01*
X176174400Y-131368800D02*
X176149000Y-131394200D01*
X168482900Y-117815300D02*
X168390400Y-117722800D01*
X168482900Y-128500400D02*
X168482900Y-117815300D01*
X171069000Y-131086500D02*
X168482900Y-128500400D01*
X171069000Y-137795000D02*
X171069000Y-131086500D01*
X168032500Y-130937000D02*
X168032500Y-131075500D01*
X168529000Y-131572000D02*
X168529000Y-137795000D01*
X168032500Y-131075500D02*
X168529000Y-131572000D01*
X168032500Y-118921300D02*
X167094200Y-117983000D01*
X168032500Y-130937000D02*
X168032500Y-118921300D01*
X165989000Y-137795000D02*
X165989000Y-132389700D01*
X153099000Y-122555000D02*
X153099000Y-123855300D01*
X166847300Y-123347300D02*
X166481100Y-122981100D01*
X166847300Y-131531400D02*
X166847300Y-123347300D01*
X165989000Y-132389700D02*
X166847300Y-131531400D01*
X154188100Y-124944400D02*
X153099000Y-123855300D01*
X154188100Y-129626100D02*
X154188100Y-124944400D01*
X155081300Y-130519300D02*
X154188100Y-129626100D01*
X158497800Y-130519300D02*
X155081300Y-130519300D01*
X165596700Y-123420400D02*
X158497800Y-130519300D01*
X165596700Y-123347400D02*
X165596700Y-123420400D01*
X165963000Y-122981100D02*
X165596700Y-123347400D01*
X166481100Y-122981100D02*
X165963000Y-122981100D01*
X166693600Y-122768600D02*
X166481100Y-122981100D01*
X166693600Y-121177100D02*
X166693600Y-122768600D01*
X167388900Y-120481800D02*
X166693600Y-121177100D01*
X163449000Y-137795000D02*
X163449000Y-132389700D01*
X166222000Y-129616700D02*
X166222000Y-123606400D01*
X163449000Y-132389700D02*
X166222000Y-129616700D01*
X148209000Y-137795000D02*
X148209000Y-132389700D01*
X152225400Y-128373300D02*
X152225400Y-126265900D01*
X148209000Y-132389700D02*
X152225400Y-128373300D01*
X140589000Y-137795000D02*
X140589000Y-132389700D01*
X144532000Y-128446700D02*
X149029400Y-128446700D01*
X140589000Y-132389700D02*
X144532000Y-128446700D01*
X170500000Y-115443000D02*
X169424700Y-115443000D01*
X168857200Y-116010500D02*
X169424700Y-115443000D01*
X168065300Y-116010500D02*
X168857200Y-116010500D01*
X166243300Y-117832500D02*
X168065300Y-116010500D01*
X166243300Y-122204300D02*
X166243300Y-117832500D01*
X165916800Y-122530800D02*
X166243300Y-122204300D01*
X165776400Y-122530800D02*
X165916800Y-122530800D01*
X159724600Y-128582600D02*
X165776400Y-122530800D01*
X159724600Y-128582700D02*
X159724600Y-128582600D01*
X156217200Y-128582700D02*
X159724600Y-128582700D01*
X138049000Y-129356300D02*
X138049000Y-137795000D01*
X131572000Y-122879300D02*
X138049000Y-129356300D01*
X131572000Y-121792000D02*
X131572000Y-122879300D01*
X135509000Y-129464200D02*
X135509000Y-137795000D01*
X130302000Y-124257200D02*
X135509000Y-129464200D01*
X130302000Y-121792000D02*
X130302000Y-124257200D01*
X132969000Y-130449000D02*
X132969000Y-137795000D01*
X129032000Y-126512000D02*
X132969000Y-130449000D01*
X129032000Y-121792000D02*
X129032000Y-126512000D01*
X130429000Y-131034700D02*
X130429000Y-137795000D01*
X127762000Y-128367700D02*
X130429000Y-131034700D01*
X127762000Y-121792000D02*
X127762000Y-128367700D01*
X126492000Y-130992700D02*
X127889000Y-132389700D01*
X126492000Y-121792000D02*
X126492000Y-130992700D01*
X127889000Y-137795000D02*
X127889000Y-132389700D01*
X125222000Y-132262700D02*
X125349000Y-132389700D01*
X125222000Y-121792000D02*
X125222000Y-132262700D01*
X125349000Y-137795000D02*
X125349000Y-132389700D01*
X123952000Y-131246700D02*
X122809000Y-132389700D01*
X123952000Y-121792000D02*
X123952000Y-131246700D01*
X122809000Y-137795000D02*
X122809000Y-132389700D01*
X120269000Y-129080300D02*
X120269000Y-137795000D01*
X122682000Y-126667300D02*
X120269000Y-129080300D01*
X122682000Y-121792000D02*
X122682000Y-126667300D01*
X169424700Y-123890700D02*
X173099400Y-127565400D01*
X169424700Y-120523000D02*
X169424700Y-123890700D01*
X170500000Y-120523000D02*
X169424700Y-120523000D01*
X170500000Y-117983000D02*
X169424700Y-117983000D01*
X173609000Y-137795000D02*
X173609000Y-132389700D01*
X168974400Y-118433300D02*
X169424700Y-117983000D01*
X168974400Y-125238900D02*
X168974400Y-118433300D01*
X169122900Y-125387400D02*
X168974400Y-125238900D01*
X148019000Y-122555000D02*
X148019000Y-123855300D01*
X169122900Y-127903600D02*
X169122900Y-125387400D01*
X173609000Y-132389700D02*
X169122900Y-127903600D01*
X149666600Y-125502900D02*
X149666600Y-125587100D01*
X148019000Y-123855300D02*
X149666600Y-125502900D01*
X173502000Y-75438000D02*
X175038800Y-75438000D01*
X173502000Y-73787000D02*
X175039000Y-73787000D01*
X173502000Y-72136000D02*
X175036700Y-72136000D01*
X170500000Y-116713000D02*
X171575300Y-116713000D01*
X166683700Y-75345700D02*
X167219800Y-74809600D01*
X166683700Y-107971300D02*
X166683700Y-75345700D01*
X168874900Y-110162500D02*
X166683700Y-107971300D01*
X171575300Y-116629100D02*
X171575300Y-116713000D01*
X172025600Y-116178800D02*
X171575300Y-116629100D01*
X172025600Y-113313200D02*
X172025600Y-116178800D01*
X168874900Y-110162500D02*
X172025600Y-113313200D01*
X150559000Y-122555000D02*
X150559000Y-117418200D01*
X110808000Y-72453500D02*
X110808000Y-73642400D01*
X111996900Y-74459700D02*
X111996900Y-118133800D01*
X111179600Y-73642400D02*
X111996900Y-74459700D01*
X110808000Y-73642400D02*
X111179600Y-73642400D01*
X129306100Y-120704700D02*
X127178000Y-118576600D01*
X132842000Y-120704700D02*
X129306100Y-120704700D01*
X132842000Y-121792000D02*
X132842000Y-120704700D01*
X151448000Y-72453500D02*
X151448000Y-73642400D01*
X178244000Y-119253000D02*
X177055100Y-119253000D01*
X177055100Y-119607400D02*
X173408200Y-123254300D01*
X177055100Y-119253000D02*
X177055100Y-119607400D01*
X151819600Y-73642400D02*
X151448000Y-73642400D01*
X152636900Y-74459700D02*
X151819600Y-73642400D01*
X152636900Y-77767500D02*
X152636900Y-74459700D01*
X151194000Y-79210400D02*
X152636900Y-77767500D01*
X151194000Y-118026800D02*
X151194000Y-79210400D01*
X151133700Y-118087100D02*
X151194000Y-118026800D01*
X151133700Y-121114500D02*
X151133700Y-118087100D01*
X151194000Y-121174800D02*
X151133700Y-121114500D01*
X148908000Y-72453500D02*
X150096900Y-72453500D01*
X166577700Y-113802100D02*
X166577700Y-114736300D01*
X154981800Y-102206200D02*
X166577700Y-113802100D01*
X154981800Y-95338200D02*
X154981800Y-102206200D01*
X155177100Y-95142900D02*
X154981800Y-95338200D01*
X155177100Y-74480100D02*
X155177100Y-95142900D01*
X154501500Y-73804500D02*
X155177100Y-74480100D01*
X153656600Y-73804500D02*
X154501500Y-73804500D01*
X152718000Y-72865900D02*
X153656600Y-73804500D01*
X152718000Y-72025200D02*
X152718000Y-72865900D01*
X151957400Y-71264600D02*
X152718000Y-72025200D01*
X150914200Y-71264600D02*
X151957400Y-71264600D01*
X150096900Y-72081900D02*
X150914200Y-71264600D01*
X150096900Y-72453500D02*
X150096900Y-72081900D01*
X156741100Y-124961800D02*
X156557400Y-124961800D01*
X162758700Y-118944200D02*
X156741100Y-124961800D01*
X162758700Y-118745800D02*
X162758700Y-118944200D01*
X164146900Y-117357600D02*
X162758700Y-118745800D01*
X166048600Y-117357600D02*
X164146900Y-117357600D01*
X166577700Y-116828500D02*
X166048600Y-117357600D01*
X166577700Y-114736300D02*
X166577700Y-116828500D01*
X166577700Y-114736300D02*
X167181000Y-114736300D01*
X146368000Y-74993500D02*
X146368000Y-76182400D01*
X149289000Y-113155000D02*
X149289000Y-97733900D01*
X147836900Y-77651300D02*
X146368000Y-76182400D01*
X147836900Y-96281800D02*
X147836900Y-77651300D01*
X149289000Y-97733900D02*
X147836900Y-96281800D01*
X151829000Y-121223500D02*
X151829000Y-122555000D01*
X152653900Y-120398600D02*
X151829000Y-121223500D01*
X152653900Y-118092500D02*
X152653900Y-120398600D01*
X140411000Y-106680000D02*
X141386300Y-106680000D01*
X146368000Y-72453500D02*
X145179100Y-72453500D01*
X145179100Y-72825100D02*
X145179100Y-72453500D01*
X144361800Y-73642400D02*
X145179100Y-72825100D01*
X143441100Y-73642400D02*
X144361800Y-73642400D01*
X142639000Y-74444500D02*
X143441100Y-73642400D01*
X142639000Y-86259000D02*
X142639000Y-74444500D01*
X143661000Y-87281000D02*
X142639000Y-86259000D01*
X143661000Y-104405300D02*
X143661000Y-87281000D01*
X141386300Y-106680000D02*
X143661000Y-104405300D01*
X143564400Y-114639800D02*
X145330800Y-116406200D01*
X143564400Y-108858100D02*
X143564400Y-114639800D01*
X141386300Y-106680000D02*
X143564400Y-108858100D01*
X148001100Y-100647800D02*
X148001100Y-111634600D01*
X146839600Y-99486300D02*
X148001100Y-100647800D01*
X146839600Y-82865000D02*
X146839600Y-99486300D01*
X143828000Y-79853400D02*
X146839600Y-82865000D01*
X143828000Y-74993500D02*
X143828000Y-79853400D01*
X137414000Y-106698000D02*
X138389300Y-106698000D01*
X141288000Y-103862700D02*
X141288000Y-74993500D01*
X141224600Y-103862700D02*
X141288000Y-103862700D01*
X138389300Y-106698000D02*
X141224600Y-103862700D01*
X142982300Y-103862700D02*
X143029700Y-103910100D01*
X141288000Y-103862700D02*
X142982300Y-103862700D01*
X170500000Y-119253000D02*
X171575300Y-119253000D01*
X171575300Y-119253000D02*
X171575300Y-117494500D01*
X174352000Y-112985000D02*
X178244000Y-109093000D01*
X174352000Y-116349900D02*
X174352000Y-112985000D01*
X173207400Y-117494500D02*
X174352000Y-116349900D01*
X171575300Y-117494500D02*
X173207400Y-117494500D01*
X141288000Y-72453500D02*
X142476900Y-72453500D01*
X168002300Y-116957800D02*
X167606500Y-117353600D01*
X169129300Y-116957800D02*
X168002300Y-116957800D01*
X169129300Y-116505300D02*
X169129300Y-116957800D01*
X169556600Y-116078000D02*
X169129300Y-116505300D01*
X171443900Y-116078000D02*
X169556600Y-116078000D01*
X171575300Y-115946600D02*
X171443900Y-116078000D01*
X171575300Y-113738200D02*
X171575300Y-115946600D01*
X168624900Y-110787800D02*
X171575300Y-113738200D01*
X168615900Y-110787800D02*
X168624900Y-110787800D01*
X166217000Y-108388900D02*
X168615900Y-110787800D01*
X166217000Y-95536300D02*
X166217000Y-108388900D01*
X157798000Y-87117300D02*
X166217000Y-95536300D01*
X157798000Y-72017800D02*
X157798000Y-87117300D01*
X156097200Y-70317000D02*
X157798000Y-72017800D01*
X144241900Y-70317000D02*
X156097200Y-70317000D01*
X142476900Y-72082000D02*
X144241900Y-70317000D01*
X142476900Y-72453500D02*
X142476900Y-72082000D01*
X171438400Y-117357600D02*
X171575300Y-117494500D01*
X169529100Y-117357600D02*
X171438400Y-117357600D01*
X169129300Y-116957800D02*
X169529100Y-117357600D01*
X178244000Y-106553000D02*
X178244000Y-107741900D01*
X173377500Y-112236900D02*
X173377500Y-116440000D01*
X177872500Y-107741900D02*
X173377500Y-112236900D01*
X178244000Y-107741900D02*
X177872500Y-107741900D01*
X176405100Y-87986500D02*
X176405100Y-105416600D01*
X167329300Y-78910700D02*
X176405100Y-87986500D01*
X136208000Y-74993500D02*
X136208000Y-76182400D01*
X138271100Y-78245500D02*
X138271100Y-100621500D01*
X136208000Y-76182400D02*
X138271100Y-78245500D01*
X133668000Y-74993500D02*
X133668000Y-76182400D01*
X137603500Y-80117900D02*
X137603500Y-100032300D01*
X133668000Y-76182400D02*
X137603500Y-80117900D01*
X131128000Y-74993500D02*
X131128000Y-76182400D01*
X135869100Y-99351400D02*
X137929800Y-101412100D01*
X135869000Y-99351400D02*
X135869100Y-99351400D01*
X135869000Y-80923400D02*
X135869000Y-99351400D01*
X131128000Y-76182400D02*
X135869000Y-80923400D01*
X131128000Y-72453500D02*
X131128000Y-73642400D01*
X136879400Y-80816900D02*
X136879400Y-99394600D01*
X132316900Y-76254400D02*
X136879400Y-80816900D01*
X132316900Y-74459700D02*
X132316900Y-76254400D01*
X131499600Y-73642400D02*
X132316900Y-74459700D01*
X131128000Y-73642400D02*
X131499600Y-73642400D01*
X140018000Y-74525500D02*
X140018000Y-89287400D01*
X139183300Y-73690800D02*
X140018000Y-74525500D01*
X133218500Y-73690800D02*
X139183300Y-73690800D01*
X132398000Y-72870300D02*
X133218500Y-73690800D01*
X132398000Y-71967000D02*
X132398000Y-72870300D01*
X131664400Y-71233400D02*
X132398000Y-71967000D01*
X122188100Y-71233400D02*
X131664400Y-71233400D01*
X120968000Y-72453500D02*
X122188100Y-71233400D01*
X144234400Y-118893800D02*
X144234400Y-121048600D01*
X142017000Y-116676400D02*
X144234400Y-118893800D01*
X142017000Y-109118900D02*
X142017000Y-116676400D01*
X140671500Y-107773400D02*
X142017000Y-109118900D01*
X136560500Y-107773400D02*
X140671500Y-107773400D01*
X136438600Y-107651500D02*
X136560500Y-107773400D01*
X136438600Y-104874100D02*
X136438600Y-107651500D01*
X140018000Y-101294700D02*
X136438600Y-104874100D01*
X140018000Y-89287400D02*
X140018000Y-101294700D01*
X147374300Y-100657900D02*
X147374300Y-121147000D01*
X146214300Y-99497900D02*
X147374300Y-100657900D01*
X146214300Y-87659500D02*
X146214300Y-99497900D01*
X146214300Y-83124100D02*
X146214300Y-87659500D01*
X145478700Y-82388500D02*
X146214300Y-83124100D01*
X146749000Y-113155000D02*
X146749000Y-111854700D01*
X145554700Y-83396300D02*
X145554600Y-83396300D01*
X145554700Y-110660400D02*
X145554700Y-83396300D01*
X146749000Y-111854700D02*
X145554700Y-110660400D01*
X151829000Y-113155000D02*
X151829000Y-111854700D01*
X115888000Y-72453500D02*
X115888000Y-73642400D01*
X117076900Y-75388200D02*
X118991600Y-77302900D01*
X117076900Y-74459700D02*
X117076900Y-75388200D01*
X116259600Y-73642400D02*
X117076900Y-74459700D01*
X115888000Y-73642400D02*
X116259600Y-73642400D01*
X151920400Y-111763300D02*
X151920400Y-83843600D01*
X151829000Y-111854700D02*
X151920400Y-111763300D01*
X144209000Y-113155000D02*
X144209000Y-111854700D01*
X144209000Y-111854700D02*
X144209000Y-81725700D01*
X143129000Y-132588000D02*
X143129000Y-132283200D01*
X145059400Y-130352800D02*
X148049600Y-130352800D01*
X143129000Y-132283200D02*
X145059400Y-130352800D01*
X150761400Y-127641000D02*
X148049600Y-130352800D01*
X150559000Y-113155000D02*
X150559000Y-114455300D01*
X150559000Y-114455300D02*
X149933700Y-115080600D01*
X149933700Y-115080600D02*
X149933700Y-123705900D01*
X149933700Y-123705900D02*
X150761400Y-124533600D01*
X150761400Y-124533600D02*
X150761400Y-127641000D01*
X143129000Y-137795000D02*
X143129000Y-132588000D01*
X137236000Y-121956000D02*
X137936300Y-121956000D01*
X178244000Y-126873000D02*
X178244000Y-124333000D01*
X156528000Y-72453500D02*
X155339100Y-72453500D01*
X143742800Y-127762500D02*
X137936300Y-121956000D01*
X149482400Y-127762500D02*
X143742800Y-127762500D01*
X150065300Y-127179600D02*
X149482400Y-127762500D01*
X150065300Y-127055800D02*
X150065300Y-127179600D01*
X135612400Y-122879300D02*
X136535700Y-121956000D01*
X134112000Y-122879300D02*
X135612400Y-122879300D01*
X134112000Y-121792000D02*
X134112000Y-122879300D01*
X137236000Y-121956000D02*
X136535700Y-121956000D01*
X155339100Y-72082000D02*
X155339100Y-72453500D01*
X154055200Y-70798100D02*
X155339100Y-72082000D01*
X148819900Y-70798100D02*
X154055200Y-70798100D01*
X147638000Y-71980000D02*
X148819900Y-70798100D01*
X147638000Y-72886800D02*
X147638000Y-71980000D01*
X146882300Y-73642500D02*
X147638000Y-72886800D01*
X146032200Y-73642500D02*
X146882300Y-73642500D01*
X145130700Y-74544000D02*
X146032200Y-73642500D01*
X145130700Y-80352700D02*
X145130700Y-74544000D01*
X147289900Y-82511900D02*
X145130700Y-80352700D01*
X147289900Y-97918300D02*
X147289900Y-82511900D01*
X148644500Y-99272900D02*
X147289900Y-97918300D01*
X148644500Y-123748600D02*
X148644500Y-99272900D01*
X149393700Y-124497800D02*
X148644500Y-123748600D01*
X149530400Y-124497800D02*
X149393700Y-124497800D01*
X150306700Y-125274100D02*
X149530400Y-124497800D01*
X150306700Y-126814400D02*
X150306700Y-125274100D01*
X150065300Y-127055800D02*
X150306700Y-126814400D01*
X177055100Y-87400200D02*
X167484000Y-77829100D01*
X177055100Y-99466800D02*
X177055100Y-87400200D01*
X177872400Y-100284100D02*
X177055100Y-99466800D01*
X178244000Y-100284100D02*
X177872400Y-100284100D01*
X178244000Y-101473000D02*
X178244000Y-100284100D01*
X172560600Y-116528100D02*
X172226900Y-116861800D01*
X172560600Y-110554900D02*
X172560600Y-116528100D01*
X177044500Y-106071000D02*
X172560600Y-110554900D01*
X177044500Y-102672500D02*
X177044500Y-106071000D01*
X178244000Y-101473000D02*
X177044500Y-102672500D01*
X137562600Y-109398000D02*
X138389300Y-109398000D01*
X137562600Y-109398000D02*
X137485800Y-109398000D01*
X140411000Y-109380000D02*
X140411000Y-110455300D01*
X137414000Y-109398000D02*
X137449900Y-109398000D01*
X137449900Y-109398000D02*
X137485800Y-109398000D01*
X138407300Y-109380000D02*
X140411000Y-109380000D01*
X138389300Y-109398000D02*
X138407300Y-109380000D01*
X135031200Y-111816700D02*
X135031200Y-113608900D01*
X137449900Y-109398000D02*
X135031200Y-111816700D01*
X140411000Y-110455300D02*
X140411000Y-111974000D01*
X140411000Y-117453100D02*
X143350200Y-120392300D01*
X140411000Y-111974000D02*
X140411000Y-117453100D01*
X131542700Y-113055400D02*
X131542700Y-109466700D01*
X131572000Y-113084700D02*
X131542700Y-113055400D01*
X131572000Y-114172000D02*
X131572000Y-113084700D01*
D22*
G36*
X184358979Y-69345478D02*
X184536145Y-69463856D01*
X184654521Y-69641019D01*
X184710000Y-69919931D01*
X184710000Y-130740069D01*
X184654521Y-131018981D01*
X184536145Y-131196144D01*
X184358979Y-131314522D01*
X184080070Y-131370000D01*
X180340000Y-131370000D01*
X180068295Y-131424046D01*
X179837954Y-131577954D01*
X179684046Y-131808295D01*
X179630000Y-132080000D01*
X179630000Y-132101825D01*
X179577310Y-132080000D01*
X178974750Y-132080000D01*
X178816000Y-132238750D01*
X178816000Y-137668000D01*
X178836000Y-137668000D01*
X178836000Y-137922000D01*
X178816000Y-137922000D01*
X178816000Y-137942000D01*
X178562000Y-137942000D01*
X178562000Y-137922000D01*
X178542000Y-137922000D01*
X178542000Y-137668000D01*
X178562000Y-137668000D01*
X178562000Y-132238750D01*
X178403250Y-132080000D01*
X177800690Y-132080000D01*
X177567301Y-132176673D01*
X177416329Y-132327646D01*
X177375090Y-132263559D01*
X177162890Y-132118569D01*
X176911000Y-132067560D01*
X176797865Y-132067560D01*
X176966592Y-131899127D01*
X177109238Y-131555599D01*
X177109562Y-131183633D01*
X176967517Y-130839857D01*
X176704727Y-130576608D01*
X176361199Y-130433962D01*
X175989233Y-130433638D01*
X175645457Y-130575683D01*
X175382208Y-130838473D01*
X175239562Y-131182001D01*
X175239238Y-131553967D01*
X175381283Y-131897743D01*
X175550804Y-132067560D01*
X175387000Y-132067560D01*
X175151683Y-132111838D01*
X174935559Y-132250910D01*
X174879626Y-132332770D01*
X174835090Y-132263559D01*
X174622890Y-132118569D01*
X174371000Y-132067560D01*
X174290234Y-132067560D01*
X174146401Y-131852299D01*
X169882900Y-127588798D01*
X169882900Y-125949863D01*
X169915092Y-125917727D01*
X170050596Y-125591398D01*
X172164278Y-127705080D01*
X172164238Y-127750567D01*
X172306283Y-128094343D01*
X172569073Y-128357592D01*
X172912601Y-128500238D01*
X173284567Y-128500562D01*
X173628343Y-128358517D01*
X173891592Y-128095727D01*
X174034238Y-127752199D01*
X174034562Y-127380233D01*
X173892517Y-127036457D01*
X173629727Y-126773208D01*
X173286199Y-126630562D01*
X173239323Y-126630521D01*
X170184700Y-123575898D01*
X170184700Y-122728000D01*
X170214250Y-122728000D01*
X170373000Y-122569250D01*
X170373000Y-121920000D01*
X170627000Y-121920000D01*
X170627000Y-122569250D01*
X170785750Y-122728000D01*
X171376309Y-122728000D01*
X171609698Y-122631327D01*
X171788327Y-122452699D01*
X171885000Y-122219310D01*
X171885000Y-122078750D01*
X171726250Y-121920000D01*
X170627000Y-121920000D01*
X170373000Y-121920000D01*
X170353000Y-121920000D01*
X170353000Y-121666000D01*
X170373000Y-121666000D01*
X170373000Y-121646000D01*
X170627000Y-121646000D01*
X170627000Y-121666000D01*
X171726250Y-121666000D01*
X171885000Y-121507250D01*
X171885000Y-121366690D01*
X171795194Y-121149878D01*
X171846431Y-121074890D01*
X171897440Y-120823000D01*
X171897440Y-120223000D01*
X171853162Y-119987683D01*
X171836074Y-119961128D01*
X171866139Y-119955148D01*
X172112701Y-119790401D01*
X172277448Y-119543839D01*
X172335300Y-119253000D01*
X172335300Y-118254500D01*
X173207400Y-118254500D01*
X173498239Y-118196648D01*
X173744801Y-118031901D01*
X174889401Y-116887301D01*
X175054148Y-116640739D01*
X175112000Y-116349900D01*
X175112000Y-115087117D01*
X175161901Y-115107838D01*
X175533867Y-115108162D01*
X175877643Y-114966117D01*
X176140892Y-114703327D01*
X176283538Y-114359799D01*
X176283579Y-114312923D01*
X176788679Y-113807823D01*
X176716041Y-114173000D01*
X176830115Y-114746489D01*
X177154971Y-115232670D01*
X177469752Y-115443000D01*
X177154971Y-115653330D01*
X176830115Y-116139511D01*
X176716041Y-116713000D01*
X176830115Y-117286489D01*
X177154971Y-117772670D01*
X177469752Y-117983000D01*
X177154971Y-118193330D01*
X176939354Y-118516024D01*
X176764261Y-118550852D01*
X176517699Y-118715599D01*
X176352952Y-118962161D01*
X176295100Y-119253000D01*
X176295100Y-119292598D01*
X173268520Y-122319178D01*
X173223033Y-122319138D01*
X172879257Y-122461183D01*
X172616008Y-122723973D01*
X172473362Y-123067501D01*
X172473038Y-123439467D01*
X172615083Y-123783243D01*
X172877873Y-124046492D01*
X173221401Y-124189138D01*
X173593367Y-124189462D01*
X173937143Y-124047417D01*
X174200392Y-123784627D01*
X174343038Y-123441099D01*
X174343079Y-123394223D01*
X177316621Y-120420681D01*
X177478228Y-120528664D01*
X177355510Y-120586179D01*
X176961312Y-121018053D01*
X176789042Y-121433974D01*
X176910183Y-121666000D01*
X178117000Y-121666000D01*
X178117000Y-121646000D01*
X178371000Y-121646000D01*
X178371000Y-121666000D01*
X178391000Y-121666000D01*
X178391000Y-121920000D01*
X178371000Y-121920000D01*
X178371000Y-121940000D01*
X178117000Y-121940000D01*
X178117000Y-121920000D01*
X176910183Y-121920000D01*
X176789042Y-122152026D01*
X176961312Y-122567947D01*
X177355510Y-122999821D01*
X177478228Y-123057336D01*
X177154971Y-123273330D01*
X176830115Y-123759511D01*
X176716041Y-124333000D01*
X176830115Y-124906489D01*
X177154971Y-125392670D01*
X177469752Y-125603000D01*
X177154971Y-125813330D01*
X176830115Y-126299511D01*
X176716041Y-126873000D01*
X176830115Y-127446489D01*
X177154971Y-127932670D01*
X177641152Y-128257526D01*
X178214641Y-128371600D01*
X178273359Y-128371600D01*
X178846848Y-128257526D01*
X179312442Y-127946426D01*
X179317238Y-127971917D01*
X179456310Y-128188041D01*
X179668510Y-128333031D01*
X179920400Y-128384040D01*
X181647600Y-128384040D01*
X181882917Y-128339762D01*
X182099041Y-128200690D01*
X182244031Y-127988490D01*
X182295040Y-127736600D01*
X182295040Y-126009400D01*
X182250762Y-125774083D01*
X182207559Y-125706943D01*
X182510301Y-125404201D01*
X182675048Y-125157639D01*
X182732900Y-124866800D01*
X182732900Y-113635400D01*
X182675048Y-113344561D01*
X182510301Y-113097999D01*
X182315302Y-112903000D01*
X182560601Y-112657701D01*
X182725348Y-112411139D01*
X182783200Y-112120300D01*
X182783200Y-108609600D01*
X182725348Y-108318761D01*
X182560601Y-108072199D01*
X181964370Y-107475968D01*
X182197885Y-107126489D01*
X182311959Y-106553000D01*
X182197885Y-105979511D01*
X181963569Y-105628833D01*
X182534801Y-105057601D01*
X182699548Y-104811039D01*
X182757400Y-104520200D01*
X182757400Y-78126500D01*
X182699548Y-77835661D01*
X182534801Y-77589099D01*
X179071001Y-74125299D01*
X178824439Y-73960552D01*
X178533600Y-73902700D01*
X175973900Y-73902700D01*
X175974162Y-73601833D01*
X175832117Y-73258057D01*
X175569327Y-72994808D01*
X175488194Y-72961118D01*
X175565643Y-72929117D01*
X175828892Y-72666327D01*
X175971538Y-72322799D01*
X175971862Y-71950833D01*
X175829817Y-71607057D01*
X175567027Y-71343808D01*
X175223499Y-71201162D01*
X174851533Y-71200838D01*
X174608902Y-71301091D01*
X174566090Y-71234559D01*
X174353890Y-71089569D01*
X174102000Y-71038560D01*
X172902000Y-71038560D01*
X172666683Y-71082838D01*
X172450559Y-71221910D01*
X172402866Y-71291711D01*
X172366090Y-71234559D01*
X172153890Y-71089569D01*
X171902000Y-71038560D01*
X170702000Y-71038560D01*
X170466683Y-71082838D01*
X170250559Y-71221910D01*
X170105569Y-71434110D01*
X170054560Y-71686000D01*
X170054560Y-72586000D01*
X170098838Y-72821317D01*
X170189521Y-72962242D01*
X170145274Y-73027000D01*
X161463400Y-73027000D01*
X161172561Y-73084852D01*
X160925999Y-73249599D01*
X160435411Y-73740187D01*
X160395690Y-73678459D01*
X160183490Y-73533469D01*
X160139655Y-73524592D01*
X160452526Y-73056348D01*
X160566600Y-72482859D01*
X160566600Y-72424141D01*
X160452526Y-71850652D01*
X160127670Y-71364471D01*
X159641489Y-71039615D01*
X159068000Y-70925541D01*
X158494511Y-71039615D01*
X158134901Y-71279899D01*
X156634601Y-69779599D01*
X156388039Y-69614852D01*
X156097200Y-69557000D01*
X144241900Y-69557000D01*
X143951061Y-69614852D01*
X143704499Y-69779599D01*
X142210968Y-71273130D01*
X141861489Y-71039615D01*
X141288000Y-70925541D01*
X140714511Y-71039615D01*
X140228330Y-71364471D01*
X140018000Y-71679252D01*
X139807670Y-71364471D01*
X139321489Y-71039615D01*
X138748000Y-70925541D01*
X138174511Y-71039615D01*
X137688330Y-71364471D01*
X137472336Y-71687728D01*
X137414821Y-71565010D01*
X136982947Y-71170812D01*
X136567026Y-70998542D01*
X136335000Y-71119683D01*
X136335000Y-72326500D01*
X136355000Y-72326500D01*
X136355000Y-72580500D01*
X136335000Y-72580500D01*
X136335000Y-72600500D01*
X136081000Y-72600500D01*
X136081000Y-72580500D01*
X136061000Y-72580500D01*
X136061000Y-72326500D01*
X136081000Y-72326500D01*
X136081000Y-71119683D01*
X135848974Y-70998542D01*
X135433053Y-71170812D01*
X135001179Y-71565010D01*
X134943664Y-71687728D01*
X134727670Y-71364471D01*
X134241489Y-71039615D01*
X133668000Y-70925541D01*
X133094511Y-71039615D01*
X132765353Y-71259551D01*
X132201801Y-70695999D01*
X131955239Y-70531252D01*
X131664400Y-70473400D01*
X122188100Y-70473400D01*
X121897261Y-70531252D01*
X121650699Y-70695999D01*
X121345973Y-71000725D01*
X120968000Y-70925541D01*
X120394511Y-71039615D01*
X119908330Y-71364471D01*
X119692336Y-71687728D01*
X119634821Y-71565010D01*
X119202947Y-71170812D01*
X118787026Y-70998542D01*
X118555000Y-71119683D01*
X118555000Y-72326500D01*
X118575000Y-72326500D01*
X118575000Y-72580500D01*
X118555000Y-72580500D01*
X118555000Y-72600500D01*
X118301000Y-72600500D01*
X118301000Y-72580500D01*
X118281000Y-72580500D01*
X118281000Y-72326500D01*
X118301000Y-72326500D01*
X118301000Y-71119683D01*
X118068974Y-70998542D01*
X117653053Y-71170812D01*
X117221179Y-71565010D01*
X117163664Y-71687728D01*
X116947670Y-71364471D01*
X116461489Y-71039615D01*
X115888000Y-70925541D01*
X115314511Y-71039615D01*
X114828330Y-71364471D01*
X114618000Y-71679252D01*
X114407670Y-71364471D01*
X113921489Y-71039615D01*
X113348000Y-70925541D01*
X112774511Y-71039615D01*
X112288330Y-71364471D01*
X112078000Y-71679252D01*
X111867670Y-71364471D01*
X111381489Y-71039615D01*
X110808000Y-70925541D01*
X110234511Y-71039615D01*
X109748330Y-71364471D01*
X109423474Y-71850652D01*
X109309400Y-72424141D01*
X109309400Y-72482859D01*
X109423474Y-73056348D01*
X109748330Y-73542529D01*
X110019161Y-73723492D01*
X109601179Y-74105010D01*
X109353032Y-74634473D01*
X109473531Y-74866500D01*
X110681000Y-74866500D01*
X110681000Y-74846500D01*
X110935000Y-74846500D01*
X110935000Y-74866500D01*
X110955000Y-74866500D01*
X110955000Y-75120500D01*
X110935000Y-75120500D01*
X110935000Y-76327317D01*
X111167026Y-76448458D01*
X111236900Y-76419517D01*
X111236900Y-117571337D01*
X111204708Y-117603473D01*
X111062062Y-117947001D01*
X111061738Y-118318967D01*
X111203783Y-118662743D01*
X111466573Y-118925992D01*
X111810101Y-119068638D01*
X112182067Y-119068962D01*
X112525843Y-118926917D01*
X112789092Y-118664127D01*
X112931738Y-118320599D01*
X112932062Y-117948633D01*
X112790017Y-117604857D01*
X112756900Y-117571682D01*
X112756900Y-114457750D01*
X119126000Y-114457750D01*
X119126000Y-115060310D01*
X119222673Y-115293699D01*
X119401302Y-115472327D01*
X119634691Y-115569000D01*
X119856250Y-115569000D01*
X120015000Y-115410250D01*
X120015000Y-114299000D01*
X119284750Y-114299000D01*
X119126000Y-114457750D01*
X112756900Y-114457750D01*
X112756900Y-113283690D01*
X119126000Y-113283690D01*
X119126000Y-113886250D01*
X119284750Y-114045000D01*
X120015000Y-114045000D01*
X120015000Y-112933750D01*
X119856250Y-112775000D01*
X119634691Y-112775000D01*
X119401302Y-112871673D01*
X119222673Y-113050301D01*
X119126000Y-113283690D01*
X112756900Y-113283690D01*
X112756900Y-76395618D01*
X112774511Y-76407385D01*
X113348000Y-76521459D01*
X113921489Y-76407385D01*
X114407670Y-76082529D01*
X114618000Y-75767748D01*
X114828330Y-76082529D01*
X115314511Y-76407385D01*
X115888000Y-76521459D01*
X116461489Y-76407385D01*
X116797061Y-76183163D01*
X118056478Y-77442580D01*
X118056438Y-77488067D01*
X118198483Y-77831843D01*
X118461273Y-78095092D01*
X118804801Y-78237738D01*
X119176767Y-78238062D01*
X119520543Y-78096017D01*
X119783792Y-77833227D01*
X119926438Y-77489699D01*
X119926762Y-77117733D01*
X119784717Y-76773957D01*
X119521927Y-76510708D01*
X119178399Y-76368062D01*
X119131523Y-76368021D01*
X119103036Y-76339534D01*
X119487670Y-76082529D01*
X119698000Y-75767748D01*
X119908330Y-76082529D01*
X120208100Y-76282829D01*
X120208100Y-81655700D01*
X120265952Y-81946539D01*
X120430699Y-82193101D01*
X123790678Y-85553080D01*
X123790638Y-85598567D01*
X123932683Y-85942343D01*
X124195473Y-86205592D01*
X124539001Y-86348238D01*
X124591100Y-86348283D01*
X124591100Y-86514059D01*
X124374308Y-86730473D01*
X124231662Y-87074001D01*
X124231338Y-87445967D01*
X124373383Y-87789743D01*
X124636173Y-88052992D01*
X124979701Y-88195638D01*
X125288000Y-88195907D01*
X125288000Y-94302637D01*
X125255808Y-94334773D01*
X125113162Y-94678301D01*
X125112838Y-95050267D01*
X125254883Y-95394043D01*
X125288000Y-95427218D01*
X125288000Y-109308698D01*
X123895498Y-110701200D01*
X123035500Y-110701200D01*
X122744661Y-110759052D01*
X122498099Y-110923799D01*
X120874599Y-112547299D01*
X120709852Y-112793861D01*
X120708710Y-112799605D01*
X120649309Y-112775000D01*
X120427750Y-112775000D01*
X120269000Y-112933750D01*
X120269000Y-114045000D01*
X120289000Y-114045000D01*
X120289000Y-114299000D01*
X120269000Y-114299000D01*
X120269000Y-115410250D01*
X120427750Y-115569000D01*
X120649309Y-115569000D01*
X120765263Y-115520970D01*
X120779110Y-115530431D01*
X121031000Y-115581440D01*
X121793000Y-115581440D01*
X122028317Y-115537162D01*
X122044099Y-115527007D01*
X122049110Y-115530431D01*
X122301000Y-115581440D01*
X123063000Y-115581440D01*
X123298317Y-115537162D01*
X123314099Y-115527007D01*
X123319110Y-115530431D01*
X123571000Y-115581440D01*
X124333000Y-115581440D01*
X124568317Y-115537162D01*
X124584099Y-115527007D01*
X124589110Y-115530431D01*
X124841000Y-115581440D01*
X125095058Y-115581440D01*
X124671899Y-116004599D01*
X124507152Y-116251161D01*
X124449300Y-116542000D01*
X124449300Y-119963437D01*
X124417108Y-119995573D01*
X124274462Y-120339101D01*
X124274424Y-120382560D01*
X123571000Y-120382560D01*
X123335683Y-120426838D01*
X123319901Y-120436993D01*
X123314890Y-120433569D01*
X123063000Y-120382560D01*
X122301000Y-120382560D01*
X122065683Y-120426838D01*
X122038461Y-120444355D01*
X121919309Y-120395000D01*
X121697750Y-120395000D01*
X121539000Y-120553750D01*
X121539000Y-121665000D01*
X121559000Y-121665000D01*
X121559000Y-121919000D01*
X121539000Y-121919000D01*
X121539000Y-123030250D01*
X121697750Y-123189000D01*
X121919309Y-123189000D01*
X121922000Y-123187885D01*
X121922000Y-126352498D01*
X119731599Y-128542899D01*
X119566852Y-128789461D01*
X119509000Y-129080300D01*
X119509000Y-132067560D01*
X119507000Y-132067560D01*
X119271683Y-132111838D01*
X119055559Y-132250910D01*
X118999626Y-132332770D01*
X118955090Y-132263559D01*
X118742890Y-132118569D01*
X118491000Y-132067560D01*
X116967000Y-132067560D01*
X116731683Y-132111838D01*
X116515559Y-132250910D01*
X116370569Y-132463110D01*
X116319560Y-132715000D01*
X116319560Y-142800000D01*
X116280000Y-142800000D01*
X116280000Y-132080000D01*
X116225954Y-131808295D01*
X116072046Y-131577954D01*
X115841705Y-131424046D01*
X115570000Y-131370000D01*
X105479931Y-131370000D01*
X105201019Y-131314521D01*
X105023856Y-131196145D01*
X104905478Y-131018979D01*
X104850000Y-130740070D01*
X104850000Y-122077750D01*
X118999000Y-122077750D01*
X118999000Y-122680310D01*
X119095673Y-122913699D01*
X119274302Y-123092327D01*
X119507691Y-123189000D01*
X119729250Y-123189000D01*
X119888000Y-123030250D01*
X119888000Y-121919000D01*
X120142000Y-121919000D01*
X120142000Y-123030250D01*
X120300750Y-123189000D01*
X120522309Y-123189000D01*
X120713500Y-123109806D01*
X120904691Y-123189000D01*
X121126250Y-123189000D01*
X121285000Y-123030250D01*
X121285000Y-121919000D01*
X120142000Y-121919000D01*
X119888000Y-121919000D01*
X119157750Y-121919000D01*
X118999000Y-122077750D01*
X104850000Y-122077750D01*
X104850000Y-120903690D01*
X118999000Y-120903690D01*
X118999000Y-121506250D01*
X119157750Y-121665000D01*
X119888000Y-121665000D01*
X119888000Y-120553750D01*
X120142000Y-120553750D01*
X120142000Y-121665000D01*
X121285000Y-121665000D01*
X121285000Y-120553750D01*
X121126250Y-120395000D01*
X120904691Y-120395000D01*
X120713500Y-120474194D01*
X120522309Y-120395000D01*
X120300750Y-120395000D01*
X120142000Y-120553750D01*
X119888000Y-120553750D01*
X119729250Y-120395000D01*
X119507691Y-120395000D01*
X119274302Y-120491673D01*
X119095673Y-120670301D01*
X118999000Y-120903690D01*
X104850000Y-120903690D01*
X104850000Y-75352527D01*
X109353032Y-75352527D01*
X109601179Y-75881990D01*
X110033053Y-76276188D01*
X110448974Y-76448458D01*
X110681000Y-76327317D01*
X110681000Y-75120500D01*
X109473531Y-75120500D01*
X109353032Y-75352527D01*
X104850000Y-75352527D01*
X104850000Y-69919930D01*
X104905478Y-69641021D01*
X105023856Y-69463855D01*
X105201019Y-69345479D01*
X105479931Y-69290000D01*
X184080070Y-69290000D01*
X184358979Y-69345478D01*
X184358979Y-69345478D01*
G37*
X184358979Y-69345478D02*
X184536145Y-69463856D01*
X184654521Y-69641019D01*
X184710000Y-69919931D01*
X184710000Y-130740069D01*
X184654521Y-131018981D01*
X184536145Y-131196144D01*
X184358979Y-131314522D01*
X184080070Y-131370000D01*
X180340000Y-131370000D01*
X180068295Y-131424046D01*
X179837954Y-131577954D01*
X179684046Y-131808295D01*
X179630000Y-132080000D01*
X179630000Y-132101825D01*
X179577310Y-132080000D01*
X178974750Y-132080000D01*
X178816000Y-132238750D01*
X178816000Y-137668000D01*
X178836000Y-137668000D01*
X178836000Y-137922000D01*
X178816000Y-137922000D01*
X178816000Y-137942000D01*
X178562000Y-137942000D01*
X178562000Y-137922000D01*
X178542000Y-137922000D01*
X178542000Y-137668000D01*
X178562000Y-137668000D01*
X178562000Y-132238750D01*
X178403250Y-132080000D01*
X177800690Y-132080000D01*
X177567301Y-132176673D01*
X177416329Y-132327646D01*
X177375090Y-132263559D01*
X177162890Y-132118569D01*
X176911000Y-132067560D01*
X176797865Y-132067560D01*
X176966592Y-131899127D01*
X177109238Y-131555599D01*
X177109562Y-131183633D01*
X176967517Y-130839857D01*
X176704727Y-130576608D01*
X176361199Y-130433962D01*
X175989233Y-130433638D01*
X175645457Y-130575683D01*
X175382208Y-130838473D01*
X175239562Y-131182001D01*
X175239238Y-131553967D01*
X175381283Y-131897743D01*
X175550804Y-132067560D01*
X175387000Y-132067560D01*
X175151683Y-132111838D01*
X174935559Y-132250910D01*
X174879626Y-132332770D01*
X174835090Y-132263559D01*
X174622890Y-132118569D01*
X174371000Y-132067560D01*
X174290234Y-132067560D01*
X174146401Y-131852299D01*
X169882900Y-127588798D01*
X169882900Y-125949863D01*
X169915092Y-125917727D01*
X170050596Y-125591398D01*
X172164278Y-127705080D01*
X172164238Y-127750567D01*
X172306283Y-128094343D01*
X172569073Y-128357592D01*
X172912601Y-128500238D01*
X173284567Y-128500562D01*
X173628343Y-128358517D01*
X173891592Y-128095727D01*
X174034238Y-127752199D01*
X174034562Y-127380233D01*
X173892517Y-127036457D01*
X173629727Y-126773208D01*
X173286199Y-126630562D01*
X173239323Y-126630521D01*
X170184700Y-123575898D01*
X170184700Y-122728000D01*
X170214250Y-122728000D01*
X170373000Y-122569250D01*
X170373000Y-121920000D01*
X170627000Y-121920000D01*
X170627000Y-122569250D01*
X170785750Y-122728000D01*
X171376309Y-122728000D01*
X171609698Y-122631327D01*
X171788327Y-122452699D01*
X171885000Y-122219310D01*
X171885000Y-122078750D01*
X171726250Y-121920000D01*
X170627000Y-121920000D01*
X170373000Y-121920000D01*
X170353000Y-121920000D01*
X170353000Y-121666000D01*
X170373000Y-121666000D01*
X170373000Y-121646000D01*
X170627000Y-121646000D01*
X170627000Y-121666000D01*
X171726250Y-121666000D01*
X171885000Y-121507250D01*
X171885000Y-121366690D01*
X171795194Y-121149878D01*
X171846431Y-121074890D01*
X171897440Y-120823000D01*
X171897440Y-120223000D01*
X171853162Y-119987683D01*
X171836074Y-119961128D01*
X171866139Y-119955148D01*
X172112701Y-119790401D01*
X172277448Y-119543839D01*
X172335300Y-119253000D01*
X172335300Y-118254500D01*
X173207400Y-118254500D01*
X173498239Y-118196648D01*
X173744801Y-118031901D01*
X174889401Y-116887301D01*
X175054148Y-116640739D01*
X175112000Y-116349900D01*
X175112000Y-115087117D01*
X175161901Y-115107838D01*
X175533867Y-115108162D01*
X175877643Y-114966117D01*
X176140892Y-114703327D01*
X176283538Y-114359799D01*
X176283579Y-114312923D01*
X176788679Y-113807823D01*
X176716041Y-114173000D01*
X176830115Y-114746489D01*
X177154971Y-115232670D01*
X177469752Y-115443000D01*
X177154971Y-115653330D01*
X176830115Y-116139511D01*
X176716041Y-116713000D01*
X176830115Y-117286489D01*
X177154971Y-117772670D01*
X177469752Y-117983000D01*
X177154971Y-118193330D01*
X176939354Y-118516024D01*
X176764261Y-118550852D01*
X176517699Y-118715599D01*
X176352952Y-118962161D01*
X176295100Y-119253000D01*
X176295100Y-119292598D01*
X173268520Y-122319178D01*
X173223033Y-122319138D01*
X172879257Y-122461183D01*
X172616008Y-122723973D01*
X172473362Y-123067501D01*
X172473038Y-123439467D01*
X172615083Y-123783243D01*
X172877873Y-124046492D01*
X173221401Y-124189138D01*
X173593367Y-124189462D01*
X173937143Y-124047417D01*
X174200392Y-123784627D01*
X174343038Y-123441099D01*
X174343079Y-123394223D01*
X177316621Y-120420681D01*
X177478228Y-120528664D01*
X177355510Y-120586179D01*
X176961312Y-121018053D01*
X176789042Y-121433974D01*
X176910183Y-121666000D01*
X178117000Y-121666000D01*
X178117000Y-121646000D01*
X178371000Y-121646000D01*
X178371000Y-121666000D01*
X178391000Y-121666000D01*
X178391000Y-121920000D01*
X178371000Y-121920000D01*
X178371000Y-121940000D01*
X178117000Y-121940000D01*
X178117000Y-121920000D01*
X176910183Y-121920000D01*
X176789042Y-122152026D01*
X176961312Y-122567947D01*
X177355510Y-122999821D01*
X177478228Y-123057336D01*
X177154971Y-123273330D01*
X176830115Y-123759511D01*
X176716041Y-124333000D01*
X176830115Y-124906489D01*
X177154971Y-125392670D01*
X177469752Y-125603000D01*
X177154971Y-125813330D01*
X176830115Y-126299511D01*
X176716041Y-126873000D01*
X176830115Y-127446489D01*
X177154971Y-127932670D01*
X177641152Y-128257526D01*
X178214641Y-128371600D01*
X178273359Y-128371600D01*
X178846848Y-128257526D01*
X179312442Y-127946426D01*
X179317238Y-127971917D01*
X179456310Y-128188041D01*
X179668510Y-128333031D01*
X179920400Y-128384040D01*
X181647600Y-128384040D01*
X181882917Y-128339762D01*
X182099041Y-128200690D01*
X182244031Y-127988490D01*
X182295040Y-127736600D01*
X182295040Y-126009400D01*
X182250762Y-125774083D01*
X182207559Y-125706943D01*
X182510301Y-125404201D01*
X182675048Y-125157639D01*
X182732900Y-124866800D01*
X182732900Y-113635400D01*
X182675048Y-113344561D01*
X182510301Y-113097999D01*
X182315302Y-112903000D01*
X182560601Y-112657701D01*
X182725348Y-112411139D01*
X182783200Y-112120300D01*
X182783200Y-108609600D01*
X182725348Y-108318761D01*
X182560601Y-108072199D01*
X181964370Y-107475968D01*
X182197885Y-107126489D01*
X182311959Y-106553000D01*
X182197885Y-105979511D01*
X181963569Y-105628833D01*
X182534801Y-105057601D01*
X182699548Y-104811039D01*
X182757400Y-104520200D01*
X182757400Y-78126500D01*
X182699548Y-77835661D01*
X182534801Y-77589099D01*
X179071001Y-74125299D01*
X178824439Y-73960552D01*
X178533600Y-73902700D01*
X175973900Y-73902700D01*
X175974162Y-73601833D01*
X175832117Y-73258057D01*
X175569327Y-72994808D01*
X175488194Y-72961118D01*
X175565643Y-72929117D01*
X175828892Y-72666327D01*
X175971538Y-72322799D01*
X175971862Y-71950833D01*
X175829817Y-71607057D01*
X175567027Y-71343808D01*
X175223499Y-71201162D01*
X174851533Y-71200838D01*
X174608902Y-71301091D01*
X174566090Y-71234559D01*
X174353890Y-71089569D01*
X174102000Y-71038560D01*
X172902000Y-71038560D01*
X172666683Y-71082838D01*
X172450559Y-71221910D01*
X172402866Y-71291711D01*
X172366090Y-71234559D01*
X172153890Y-71089569D01*
X171902000Y-71038560D01*
X170702000Y-71038560D01*
X170466683Y-71082838D01*
X170250559Y-71221910D01*
X170105569Y-71434110D01*
X170054560Y-71686000D01*
X170054560Y-72586000D01*
X170098838Y-72821317D01*
X170189521Y-72962242D01*
X170145274Y-73027000D01*
X161463400Y-73027000D01*
X161172561Y-73084852D01*
X160925999Y-73249599D01*
X160435411Y-73740187D01*
X160395690Y-73678459D01*
X160183490Y-73533469D01*
X160139655Y-73524592D01*
X160452526Y-73056348D01*
X160566600Y-72482859D01*
X160566600Y-72424141D01*
X160452526Y-71850652D01*
X160127670Y-71364471D01*
X159641489Y-71039615D01*
X159068000Y-70925541D01*
X158494511Y-71039615D01*
X158134901Y-71279899D01*
X156634601Y-69779599D01*
X156388039Y-69614852D01*
X156097200Y-69557000D01*
X144241900Y-69557000D01*
X143951061Y-69614852D01*
X143704499Y-69779599D01*
X142210968Y-71273130D01*
X141861489Y-71039615D01*
X141288000Y-70925541D01*
X140714511Y-71039615D01*
X140228330Y-71364471D01*
X140018000Y-71679252D01*
X139807670Y-71364471D01*
X139321489Y-71039615D01*
X138748000Y-70925541D01*
X138174511Y-71039615D01*
X137688330Y-71364471D01*
X137472336Y-71687728D01*
X137414821Y-71565010D01*
X136982947Y-71170812D01*
X136567026Y-70998542D01*
X136335000Y-71119683D01*
X136335000Y-72326500D01*
X136355000Y-72326500D01*
X136355000Y-72580500D01*
X136335000Y-72580500D01*
X136335000Y-72600500D01*
X136081000Y-72600500D01*
X136081000Y-72580500D01*
X136061000Y-72580500D01*
X136061000Y-72326500D01*
X136081000Y-72326500D01*
X136081000Y-71119683D01*
X135848974Y-70998542D01*
X135433053Y-71170812D01*
X135001179Y-71565010D01*
X134943664Y-71687728D01*
X134727670Y-71364471D01*
X134241489Y-71039615D01*
X133668000Y-70925541D01*
X133094511Y-71039615D01*
X132765353Y-71259551D01*
X132201801Y-70695999D01*
X131955239Y-70531252D01*
X131664400Y-70473400D01*
X122188100Y-70473400D01*
X121897261Y-70531252D01*
X121650699Y-70695999D01*
X121345973Y-71000725D01*
X120968000Y-70925541D01*
X120394511Y-71039615D01*
X119908330Y-71364471D01*
X119692336Y-71687728D01*
X119634821Y-71565010D01*
X119202947Y-71170812D01*
X118787026Y-70998542D01*
X118555000Y-71119683D01*
X118555000Y-72326500D01*
X118575000Y-72326500D01*
X118575000Y-72580500D01*
X118555000Y-72580500D01*
X118555000Y-72600500D01*
X118301000Y-72600500D01*
X118301000Y-72580500D01*
X118281000Y-72580500D01*
X118281000Y-72326500D01*
X118301000Y-72326500D01*
X118301000Y-71119683D01*
X118068974Y-70998542D01*
X117653053Y-71170812D01*
X117221179Y-71565010D01*
X117163664Y-71687728D01*
X116947670Y-71364471D01*
X116461489Y-71039615D01*
X115888000Y-70925541D01*
X115314511Y-71039615D01*
X114828330Y-71364471D01*
X114618000Y-71679252D01*
X114407670Y-71364471D01*
X113921489Y-71039615D01*
X113348000Y-70925541D01*
X112774511Y-71039615D01*
X112288330Y-71364471D01*
X112078000Y-71679252D01*
X111867670Y-71364471D01*
X111381489Y-71039615D01*
X110808000Y-70925541D01*
X110234511Y-71039615D01*
X109748330Y-71364471D01*
X109423474Y-71850652D01*
X109309400Y-72424141D01*
X109309400Y-72482859D01*
X109423474Y-73056348D01*
X109748330Y-73542529D01*
X110019161Y-73723492D01*
X109601179Y-74105010D01*
X109353032Y-74634473D01*
X109473531Y-74866500D01*
X110681000Y-74866500D01*
X110681000Y-74846500D01*
X110935000Y-74846500D01*
X110935000Y-74866500D01*
X110955000Y-74866500D01*
X110955000Y-75120500D01*
X110935000Y-75120500D01*
X110935000Y-76327317D01*
X111167026Y-76448458D01*
X111236900Y-76419517D01*
X111236900Y-117571337D01*
X111204708Y-117603473D01*
X111062062Y-117947001D01*
X111061738Y-118318967D01*
X111203783Y-118662743D01*
X111466573Y-118925992D01*
X111810101Y-119068638D01*
X112182067Y-119068962D01*
X112525843Y-118926917D01*
X112789092Y-118664127D01*
X112931738Y-118320599D01*
X112932062Y-117948633D01*
X112790017Y-117604857D01*
X112756900Y-117571682D01*
X112756900Y-114457750D01*
X119126000Y-114457750D01*
X119126000Y-115060310D01*
X119222673Y-115293699D01*
X119401302Y-115472327D01*
X119634691Y-115569000D01*
X119856250Y-115569000D01*
X120015000Y-115410250D01*
X120015000Y-114299000D01*
X119284750Y-114299000D01*
X119126000Y-114457750D01*
X112756900Y-114457750D01*
X112756900Y-113283690D01*
X119126000Y-113283690D01*
X119126000Y-113886250D01*
X119284750Y-114045000D01*
X120015000Y-114045000D01*
X120015000Y-112933750D01*
X119856250Y-112775000D01*
X119634691Y-112775000D01*
X119401302Y-112871673D01*
X119222673Y-113050301D01*
X119126000Y-113283690D01*
X112756900Y-113283690D01*
X112756900Y-76395618D01*
X112774511Y-76407385D01*
X113348000Y-76521459D01*
X113921489Y-76407385D01*
X114407670Y-76082529D01*
X114618000Y-75767748D01*
X114828330Y-76082529D01*
X115314511Y-76407385D01*
X115888000Y-76521459D01*
X116461489Y-76407385D01*
X116797061Y-76183163D01*
X118056478Y-77442580D01*
X118056438Y-77488067D01*
X118198483Y-77831843D01*
X118461273Y-78095092D01*
X118804801Y-78237738D01*
X119176767Y-78238062D01*
X119520543Y-78096017D01*
X119783792Y-77833227D01*
X119926438Y-77489699D01*
X119926762Y-77117733D01*
X119784717Y-76773957D01*
X119521927Y-76510708D01*
X119178399Y-76368062D01*
X119131523Y-76368021D01*
X119103036Y-76339534D01*
X119487670Y-76082529D01*
X119698000Y-75767748D01*
X119908330Y-76082529D01*
X120208100Y-76282829D01*
X120208100Y-81655700D01*
X120265952Y-81946539D01*
X120430699Y-82193101D01*
X123790678Y-85553080D01*
X123790638Y-85598567D01*
X123932683Y-85942343D01*
X124195473Y-86205592D01*
X124539001Y-86348238D01*
X124591100Y-86348283D01*
X124591100Y-86514059D01*
X124374308Y-86730473D01*
X124231662Y-87074001D01*
X124231338Y-87445967D01*
X124373383Y-87789743D01*
X124636173Y-88052992D01*
X124979701Y-88195638D01*
X125288000Y-88195907D01*
X125288000Y-94302637D01*
X125255808Y-94334773D01*
X125113162Y-94678301D01*
X125112838Y-95050267D01*
X125254883Y-95394043D01*
X125288000Y-95427218D01*
X125288000Y-109308698D01*
X123895498Y-110701200D01*
X123035500Y-110701200D01*
X122744661Y-110759052D01*
X122498099Y-110923799D01*
X120874599Y-112547299D01*
X120709852Y-112793861D01*
X120708710Y-112799605D01*
X120649309Y-112775000D01*
X120427750Y-112775000D01*
X120269000Y-112933750D01*
X120269000Y-114045000D01*
X120289000Y-114045000D01*
X120289000Y-114299000D01*
X120269000Y-114299000D01*
X120269000Y-115410250D01*
X120427750Y-115569000D01*
X120649309Y-115569000D01*
X120765263Y-115520970D01*
X120779110Y-115530431D01*
X121031000Y-115581440D01*
X121793000Y-115581440D01*
X122028317Y-115537162D01*
X122044099Y-115527007D01*
X122049110Y-115530431D01*
X122301000Y-115581440D01*
X123063000Y-115581440D01*
X123298317Y-115537162D01*
X123314099Y-115527007D01*
X123319110Y-115530431D01*
X123571000Y-115581440D01*
X124333000Y-115581440D01*
X124568317Y-115537162D01*
X124584099Y-115527007D01*
X124589110Y-115530431D01*
X124841000Y-115581440D01*
X125095058Y-115581440D01*
X124671899Y-116004599D01*
X124507152Y-116251161D01*
X124449300Y-116542000D01*
X124449300Y-119963437D01*
X124417108Y-119995573D01*
X124274462Y-120339101D01*
X124274424Y-120382560D01*
X123571000Y-120382560D01*
X123335683Y-120426838D01*
X123319901Y-120436993D01*
X123314890Y-120433569D01*
X123063000Y-120382560D01*
X122301000Y-120382560D01*
X122065683Y-120426838D01*
X122038461Y-120444355D01*
X121919309Y-120395000D01*
X121697750Y-120395000D01*
X121539000Y-120553750D01*
X121539000Y-121665000D01*
X121559000Y-121665000D01*
X121559000Y-121919000D01*
X121539000Y-121919000D01*
X121539000Y-123030250D01*
X121697750Y-123189000D01*
X121919309Y-123189000D01*
X121922000Y-123187885D01*
X121922000Y-126352498D01*
X119731599Y-128542899D01*
X119566852Y-128789461D01*
X119509000Y-129080300D01*
X119509000Y-132067560D01*
X119507000Y-132067560D01*
X119271683Y-132111838D01*
X119055559Y-132250910D01*
X118999626Y-132332770D01*
X118955090Y-132263559D01*
X118742890Y-132118569D01*
X118491000Y-132067560D01*
X116967000Y-132067560D01*
X116731683Y-132111838D01*
X116515559Y-132250910D01*
X116370569Y-132463110D01*
X116319560Y-132715000D01*
X116319560Y-142800000D01*
X116280000Y-142800000D01*
X116280000Y-132080000D01*
X116225954Y-131808295D01*
X116072046Y-131577954D01*
X115841705Y-131424046D01*
X115570000Y-131370000D01*
X105479931Y-131370000D01*
X105201019Y-131314521D01*
X105023856Y-131196145D01*
X104905478Y-131018979D01*
X104850000Y-130740070D01*
X104850000Y-122077750D01*
X118999000Y-122077750D01*
X118999000Y-122680310D01*
X119095673Y-122913699D01*
X119274302Y-123092327D01*
X119507691Y-123189000D01*
X119729250Y-123189000D01*
X119888000Y-123030250D01*
X119888000Y-121919000D01*
X120142000Y-121919000D01*
X120142000Y-123030250D01*
X120300750Y-123189000D01*
X120522309Y-123189000D01*
X120713500Y-123109806D01*
X120904691Y-123189000D01*
X121126250Y-123189000D01*
X121285000Y-123030250D01*
X121285000Y-121919000D01*
X120142000Y-121919000D01*
X119888000Y-121919000D01*
X119157750Y-121919000D01*
X118999000Y-122077750D01*
X104850000Y-122077750D01*
X104850000Y-120903690D01*
X118999000Y-120903690D01*
X118999000Y-121506250D01*
X119157750Y-121665000D01*
X119888000Y-121665000D01*
X119888000Y-120553750D01*
X120142000Y-120553750D01*
X120142000Y-121665000D01*
X121285000Y-121665000D01*
X121285000Y-120553750D01*
X121126250Y-120395000D01*
X120904691Y-120395000D01*
X120713500Y-120474194D01*
X120522309Y-120395000D01*
X120300750Y-120395000D01*
X120142000Y-120553750D01*
X119888000Y-120553750D01*
X119729250Y-120395000D01*
X119507691Y-120395000D01*
X119274302Y-120491673D01*
X119095673Y-120670301D01*
X118999000Y-120903690D01*
X104850000Y-120903690D01*
X104850000Y-75352527D01*
X109353032Y-75352527D01*
X109601179Y-75881990D01*
X110033053Y-76276188D01*
X110448974Y-76448458D01*
X110681000Y-76327317D01*
X110681000Y-75120500D01*
X109473531Y-75120500D01*
X109353032Y-75352527D01*
X104850000Y-75352527D01*
X104850000Y-69919930D01*
X104905478Y-69641021D01*
X105023856Y-69463855D01*
X105201019Y-69345479D01*
X105479931Y-69290000D01*
X184080070Y-69290000D01*
X184358979Y-69345478D01*
G36*
X143066000Y-122428000D02*
X143086000Y-122428000D01*
X143086000Y-122682000D01*
X143066000Y-122682000D01*
X143066000Y-122702000D01*
X142812000Y-122702000D01*
X142812000Y-122682000D01*
X142792000Y-122682000D01*
X142792000Y-122428000D01*
X142812000Y-122428000D01*
X142812000Y-122408000D01*
X143066000Y-122408000D01*
X143066000Y-122428000D01*
X143066000Y-122428000D01*
G37*
X143066000Y-122428000D02*
X143086000Y-122428000D01*
X143086000Y-122682000D01*
X143066000Y-122682000D01*
X143066000Y-122702000D01*
X142812000Y-122702000D01*
X142812000Y-122682000D01*
X142792000Y-122682000D01*
X142792000Y-122428000D01*
X142812000Y-122428000D01*
X142812000Y-122408000D01*
X143066000Y-122408000D01*
X143066000Y-122428000D01*
G36*
X139157838Y-110365317D02*
X139296910Y-110581441D01*
X139509110Y-110726431D01*
X139651000Y-110755164D01*
X139651000Y-111411537D01*
X139618808Y-111443673D01*
X139476162Y-111787201D01*
X139475838Y-112159167D01*
X139617883Y-112502943D01*
X139651000Y-112536118D01*
X139651000Y-117453100D01*
X139708852Y-117743939D01*
X139873599Y-117990501D01*
X142415078Y-120531980D01*
X142415038Y-120577467D01*
X142557083Y-120921243D01*
X142580799Y-120945000D01*
X142512690Y-120945000D01*
X142279301Y-121041673D01*
X142100673Y-121220302D01*
X142004000Y-121453691D01*
X142004000Y-122269250D01*
X142162748Y-122427998D01*
X142004000Y-122427998D01*
X142004000Y-122536698D01*
X139960501Y-120493199D01*
X139713939Y-120328452D01*
X139423100Y-120270600D01*
X138174850Y-120270600D01*
X138087250Y-120183000D01*
X137363000Y-120183000D01*
X137363000Y-120203000D01*
X137109000Y-120203000D01*
X137109000Y-120183000D01*
X136384750Y-120183000D01*
X136297150Y-120270600D01*
X135360663Y-120270600D01*
X135368138Y-120252599D01*
X135368233Y-120143627D01*
X135408048Y-120084039D01*
X135465900Y-119793200D01*
X135465900Y-119329691D01*
X136226000Y-119329691D01*
X136226000Y-119770250D01*
X136384750Y-119929000D01*
X137109000Y-119929000D01*
X137109000Y-118979750D01*
X137363000Y-118979750D01*
X137363000Y-119929000D01*
X138087250Y-119929000D01*
X138246000Y-119770250D01*
X138246000Y-119329691D01*
X138149327Y-119096302D01*
X137970699Y-118917673D01*
X137737310Y-118821000D01*
X137521750Y-118821000D01*
X137363000Y-118979750D01*
X137109000Y-118979750D01*
X136950250Y-118821000D01*
X136734690Y-118821000D01*
X136501301Y-118917673D01*
X136322673Y-119096302D01*
X136226000Y-119329691D01*
X135465900Y-119329691D01*
X135465900Y-117135750D01*
X136226000Y-117135750D01*
X136226000Y-117576309D01*
X136322673Y-117809698D01*
X136501301Y-117988327D01*
X136734690Y-118085000D01*
X136950250Y-118085000D01*
X137109000Y-117926250D01*
X137109000Y-116977000D01*
X137363000Y-116977000D01*
X137363000Y-117926250D01*
X137521750Y-118085000D01*
X137737310Y-118085000D01*
X137970699Y-117988327D01*
X138149327Y-117809698D01*
X138246000Y-117576309D01*
X138246000Y-117135750D01*
X138087250Y-116977000D01*
X137363000Y-116977000D01*
X137109000Y-116977000D01*
X136384750Y-116977000D01*
X136226000Y-117135750D01*
X135465900Y-117135750D01*
X135465900Y-116416302D01*
X135512902Y-116369300D01*
X135876400Y-116369300D01*
X136167239Y-116311448D01*
X136226000Y-116272185D01*
X136226000Y-116564250D01*
X136384750Y-116723000D01*
X137109000Y-116723000D01*
X137109000Y-116703000D01*
X137363000Y-116703000D01*
X137363000Y-116723000D01*
X138087250Y-116723000D01*
X138246000Y-116564250D01*
X138246000Y-116123691D01*
X138149327Y-115890302D01*
X138147957Y-115888932D01*
X138207431Y-115801890D01*
X138258440Y-115550000D01*
X138258440Y-114696757D01*
X138286048Y-114655439D01*
X138343900Y-114364600D01*
X138343900Y-114355663D01*
X138376092Y-114323527D01*
X138518738Y-113979999D01*
X138519062Y-113608033D01*
X138377017Y-113264257D01*
X138114227Y-113001008D01*
X137770699Y-112858362D01*
X137398733Y-112858038D01*
X137054957Y-113000083D01*
X136791708Y-113262873D01*
X136649062Y-113606401D01*
X136648943Y-113742461D01*
X136625683Y-113746838D01*
X136409559Y-113885910D01*
X136264569Y-114098110D01*
X136232584Y-114256055D01*
X135998299Y-114412599D01*
X135561598Y-114849300D01*
X135198100Y-114849300D01*
X135140440Y-114860769D01*
X135140440Y-114543996D01*
X135216367Y-114544062D01*
X135560143Y-114402017D01*
X135823392Y-114139227D01*
X135966038Y-113795699D01*
X135966362Y-113423733D01*
X135824317Y-113079957D01*
X135791200Y-113046782D01*
X135791200Y-112131502D01*
X137127262Y-110795440D01*
X138064000Y-110795440D01*
X138299317Y-110751162D01*
X138515441Y-110612090D01*
X138660431Y-110399890D01*
X138711440Y-110148000D01*
X138711440Y-110140000D01*
X139115442Y-110140000D01*
X139157838Y-110365317D01*
X139157838Y-110365317D01*
G37*
X139157838Y-110365317D02*
X139296910Y-110581441D01*
X139509110Y-110726431D01*
X139651000Y-110755164D01*
X139651000Y-111411537D01*
X139618808Y-111443673D01*
X139476162Y-111787201D01*
X139475838Y-112159167D01*
X139617883Y-112502943D01*
X139651000Y-112536118D01*
X139651000Y-117453100D01*
X139708852Y-117743939D01*
X139873599Y-117990501D01*
X142415078Y-120531980D01*
X142415038Y-120577467D01*
X142557083Y-120921243D01*
X142580799Y-120945000D01*
X142512690Y-120945000D01*
X142279301Y-121041673D01*
X142100673Y-121220302D01*
X142004000Y-121453691D01*
X142004000Y-122269250D01*
X142162748Y-122427998D01*
X142004000Y-122427998D01*
X142004000Y-122536698D01*
X139960501Y-120493199D01*
X139713939Y-120328452D01*
X139423100Y-120270600D01*
X138174850Y-120270600D01*
X138087250Y-120183000D01*
X137363000Y-120183000D01*
X137363000Y-120203000D01*
X137109000Y-120203000D01*
X137109000Y-120183000D01*
X136384750Y-120183000D01*
X136297150Y-120270600D01*
X135360663Y-120270600D01*
X135368138Y-120252599D01*
X135368233Y-120143627D01*
X135408048Y-120084039D01*
X135465900Y-119793200D01*
X135465900Y-119329691D01*
X136226000Y-119329691D01*
X136226000Y-119770250D01*
X136384750Y-119929000D01*
X137109000Y-119929000D01*
X137109000Y-118979750D01*
X137363000Y-118979750D01*
X137363000Y-119929000D01*
X138087250Y-119929000D01*
X138246000Y-119770250D01*
X138246000Y-119329691D01*
X138149327Y-119096302D01*
X137970699Y-118917673D01*
X137737310Y-118821000D01*
X137521750Y-118821000D01*
X137363000Y-118979750D01*
X137109000Y-118979750D01*
X136950250Y-118821000D01*
X136734690Y-118821000D01*
X136501301Y-118917673D01*
X136322673Y-119096302D01*
X136226000Y-119329691D01*
X135465900Y-119329691D01*
X135465900Y-117135750D01*
X136226000Y-117135750D01*
X136226000Y-117576309D01*
X136322673Y-117809698D01*
X136501301Y-117988327D01*
X136734690Y-118085000D01*
X136950250Y-118085000D01*
X137109000Y-117926250D01*
X137109000Y-116977000D01*
X137363000Y-116977000D01*
X137363000Y-117926250D01*
X137521750Y-118085000D01*
X137737310Y-118085000D01*
X137970699Y-117988327D01*
X138149327Y-117809698D01*
X138246000Y-117576309D01*
X138246000Y-117135750D01*
X138087250Y-116977000D01*
X137363000Y-116977000D01*
X137109000Y-116977000D01*
X136384750Y-116977000D01*
X136226000Y-117135750D01*
X135465900Y-117135750D01*
X135465900Y-116416302D01*
X135512902Y-116369300D01*
X135876400Y-116369300D01*
X136167239Y-116311448D01*
X136226000Y-116272185D01*
X136226000Y-116564250D01*
X136384750Y-116723000D01*
X137109000Y-116723000D01*
X137109000Y-116703000D01*
X137363000Y-116703000D01*
X137363000Y-116723000D01*
X138087250Y-116723000D01*
X138246000Y-116564250D01*
X138246000Y-116123691D01*
X138149327Y-115890302D01*
X138147957Y-115888932D01*
X138207431Y-115801890D01*
X138258440Y-115550000D01*
X138258440Y-114696757D01*
X138286048Y-114655439D01*
X138343900Y-114364600D01*
X138343900Y-114355663D01*
X138376092Y-114323527D01*
X138518738Y-113979999D01*
X138519062Y-113608033D01*
X138377017Y-113264257D01*
X138114227Y-113001008D01*
X137770699Y-112858362D01*
X137398733Y-112858038D01*
X137054957Y-113000083D01*
X136791708Y-113262873D01*
X136649062Y-113606401D01*
X136648943Y-113742461D01*
X136625683Y-113746838D01*
X136409559Y-113885910D01*
X136264569Y-114098110D01*
X136232584Y-114256055D01*
X135998299Y-114412599D01*
X135561598Y-114849300D01*
X135198100Y-114849300D01*
X135140440Y-114860769D01*
X135140440Y-114543996D01*
X135216367Y-114544062D01*
X135560143Y-114402017D01*
X135823392Y-114139227D01*
X135966038Y-113795699D01*
X135966362Y-113423733D01*
X135824317Y-113079957D01*
X135791200Y-113046782D01*
X135791200Y-112131502D01*
X137127262Y-110795440D01*
X138064000Y-110795440D01*
X138299317Y-110751162D01*
X138515441Y-110612090D01*
X138660431Y-110399890D01*
X138711440Y-110148000D01*
X138711440Y-110140000D01*
X139115442Y-110140000D01*
X139157838Y-110365317D01*
G36*
X154221800Y-102206200D02*
X154279652Y-102497039D01*
X154444399Y-102743601D01*
X164926358Y-113225560D01*
X164350000Y-113225560D01*
X164114683Y-113269838D01*
X163898559Y-113408910D01*
X163875484Y-113442681D01*
X163733861Y-113470852D01*
X163487299Y-113635599D01*
X161770899Y-115351999D01*
X161606152Y-115598561D01*
X161548300Y-115889400D01*
X161548300Y-116863000D01*
X161481000Y-116863000D01*
X161481000Y-116843000D01*
X160756750Y-116843000D01*
X160598000Y-117001750D01*
X160598000Y-117442309D01*
X160694673Y-117675698D01*
X160696043Y-117677068D01*
X160650342Y-117743952D01*
X160519233Y-117743838D01*
X160397831Y-117794000D01*
X159234334Y-117794000D01*
X159220162Y-117718683D01*
X159153671Y-117615354D01*
X159155327Y-117613698D01*
X159252000Y-117380309D01*
X159252000Y-116939750D01*
X159093250Y-116781000D01*
X158369000Y-116781000D01*
X158369000Y-116801000D01*
X158115000Y-116801000D01*
X158115000Y-116781000D01*
X158095000Y-116781000D01*
X158095000Y-116527000D01*
X158115000Y-116527000D01*
X158115000Y-115577750D01*
X158369000Y-115577750D01*
X158369000Y-116527000D01*
X159093250Y-116527000D01*
X159252000Y-116368250D01*
X159252000Y-115989691D01*
X160598000Y-115989691D01*
X160598000Y-116430250D01*
X160756750Y-116589000D01*
X161481000Y-116589000D01*
X161481000Y-115639750D01*
X161322250Y-115481000D01*
X161106690Y-115481000D01*
X160873301Y-115577673D01*
X160694673Y-115756302D01*
X160598000Y-115989691D01*
X159252000Y-115989691D01*
X159252000Y-115927691D01*
X159155327Y-115694302D01*
X158976699Y-115515673D01*
X158743310Y-115419000D01*
X158527750Y-115419000D01*
X158369000Y-115577750D01*
X158115000Y-115577750D01*
X157956250Y-115419000D01*
X157740690Y-115419000D01*
X157507301Y-115515673D01*
X157328673Y-115694302D01*
X157232000Y-115927691D01*
X157232000Y-116243498D01*
X155283107Y-114294605D01*
X155316440Y-114130000D01*
X155316440Y-112180000D01*
X155272162Y-111944683D01*
X155133090Y-111728559D01*
X154920890Y-111583569D01*
X154669000Y-111532560D01*
X154069000Y-111532560D01*
X153833683Y-111576838D01*
X153743020Y-111635178D01*
X153525310Y-111545000D01*
X153384750Y-111545000D01*
X153226002Y-111703748D01*
X153226002Y-111545000D01*
X153222400Y-111545000D01*
X153222400Y-96458902D01*
X154221800Y-95459502D01*
X154221800Y-102206200D01*
X154221800Y-102206200D01*
G37*
X154221800Y-102206200D02*
X154279652Y-102497039D01*
X154444399Y-102743601D01*
X164926358Y-113225560D01*
X164350000Y-113225560D01*
X164114683Y-113269838D01*
X163898559Y-113408910D01*
X163875484Y-113442681D01*
X163733861Y-113470852D01*
X163487299Y-113635599D01*
X161770899Y-115351999D01*
X161606152Y-115598561D01*
X161548300Y-115889400D01*
X161548300Y-116863000D01*
X161481000Y-116863000D01*
X161481000Y-116843000D01*
X160756750Y-116843000D01*
X160598000Y-117001750D01*
X160598000Y-117442309D01*
X160694673Y-117675698D01*
X160696043Y-117677068D01*
X160650342Y-117743952D01*
X160519233Y-117743838D01*
X160397831Y-117794000D01*
X159234334Y-117794000D01*
X159220162Y-117718683D01*
X159153671Y-117615354D01*
X159155327Y-117613698D01*
X159252000Y-117380309D01*
X159252000Y-116939750D01*
X159093250Y-116781000D01*
X158369000Y-116781000D01*
X158369000Y-116801000D01*
X158115000Y-116801000D01*
X158115000Y-116781000D01*
X158095000Y-116781000D01*
X158095000Y-116527000D01*
X158115000Y-116527000D01*
X158115000Y-115577750D01*
X158369000Y-115577750D01*
X158369000Y-116527000D01*
X159093250Y-116527000D01*
X159252000Y-116368250D01*
X159252000Y-115989691D01*
X160598000Y-115989691D01*
X160598000Y-116430250D01*
X160756750Y-116589000D01*
X161481000Y-116589000D01*
X161481000Y-115639750D01*
X161322250Y-115481000D01*
X161106690Y-115481000D01*
X160873301Y-115577673D01*
X160694673Y-115756302D01*
X160598000Y-115989691D01*
X159252000Y-115989691D01*
X159252000Y-115927691D01*
X159155327Y-115694302D01*
X158976699Y-115515673D01*
X158743310Y-115419000D01*
X158527750Y-115419000D01*
X158369000Y-115577750D01*
X158115000Y-115577750D01*
X157956250Y-115419000D01*
X157740690Y-115419000D01*
X157507301Y-115515673D01*
X157328673Y-115694302D01*
X157232000Y-115927691D01*
X157232000Y-116243498D01*
X155283107Y-114294605D01*
X155316440Y-114130000D01*
X155316440Y-112180000D01*
X155272162Y-111944683D01*
X155133090Y-111728559D01*
X154920890Y-111583569D01*
X154669000Y-111532560D01*
X154069000Y-111532560D01*
X153833683Y-111576838D01*
X153743020Y-111635178D01*
X153525310Y-111545000D01*
X153384750Y-111545000D01*
X153226002Y-111703748D01*
X153226002Y-111545000D01*
X153222400Y-111545000D01*
X153222400Y-96458902D01*
X154221800Y-95459502D01*
X154221800Y-102206200D01*
G36*
X180911000Y-116586000D02*
X180931000Y-116586000D01*
X180931000Y-116840000D01*
X180911000Y-116840000D01*
X180911000Y-116860000D01*
X180657000Y-116860000D01*
X180657000Y-116840000D01*
X180637000Y-116840000D01*
X180637000Y-116586000D01*
X180657000Y-116586000D01*
X180657000Y-116566000D01*
X180911000Y-116566000D01*
X180911000Y-116586000D01*
X180911000Y-116586000D01*
G37*
X180911000Y-116586000D02*
X180931000Y-116586000D01*
X180931000Y-116840000D01*
X180911000Y-116840000D01*
X180911000Y-116860000D01*
X180657000Y-116860000D01*
X180657000Y-116840000D01*
X180637000Y-116840000D01*
X180637000Y-116586000D01*
X180657000Y-116586000D01*
X180657000Y-116566000D01*
X180911000Y-116566000D01*
X180911000Y-116586000D01*
G36*
X178371000Y-111506000D02*
X178391000Y-111506000D01*
X178391000Y-111760000D01*
X178371000Y-111760000D01*
X178371000Y-111780000D01*
X178117000Y-111780000D01*
X178117000Y-111760000D01*
X178097000Y-111760000D01*
X178097000Y-111506000D01*
X178117000Y-111506000D01*
X178117000Y-111486000D01*
X178371000Y-111486000D01*
X178371000Y-111506000D01*
X178371000Y-111506000D01*
G37*
X178371000Y-111506000D02*
X178391000Y-111506000D01*
X178391000Y-111760000D01*
X178371000Y-111760000D01*
X178371000Y-111780000D01*
X178117000Y-111780000D01*
X178117000Y-111760000D01*
X178097000Y-111760000D01*
X178097000Y-111506000D01*
X178117000Y-111506000D01*
X178117000Y-111486000D01*
X178371000Y-111486000D01*
X178371000Y-111506000D01*
G36*
X178371000Y-103886000D02*
X178391000Y-103886000D01*
X178391000Y-104140000D01*
X178371000Y-104140000D01*
X178371000Y-104160000D01*
X178117000Y-104160000D01*
X178117000Y-104140000D01*
X178097000Y-104140000D01*
X178097000Y-103886000D01*
X178117000Y-103886000D01*
X178117000Y-103866000D01*
X178371000Y-103866000D01*
X178371000Y-103886000D01*
X178371000Y-103886000D01*
G37*
X178371000Y-103886000D02*
X178391000Y-103886000D01*
X178391000Y-104140000D01*
X178371000Y-104140000D01*
X178371000Y-104160000D01*
X178117000Y-104160000D01*
X178117000Y-104140000D01*
X178097000Y-104140000D01*
X178097000Y-103886000D01*
X178117000Y-103886000D01*
X178117000Y-103866000D01*
X178371000Y-103866000D01*
X178371000Y-103886000D01*
G36*
X180911000Y-96266000D02*
X180931000Y-96266000D01*
X180931000Y-96520000D01*
X180911000Y-96520000D01*
X180911000Y-96540000D01*
X180657000Y-96540000D01*
X180657000Y-96520000D01*
X180637000Y-96520000D01*
X180637000Y-96266000D01*
X180657000Y-96266000D01*
X180657000Y-96246000D01*
X180911000Y-96246000D01*
X180911000Y-96266000D01*
X180911000Y-96266000D01*
G37*
X180911000Y-96266000D02*
X180931000Y-96266000D01*
X180931000Y-96520000D01*
X180911000Y-96520000D01*
X180911000Y-96540000D01*
X180657000Y-96540000D01*
X180657000Y-96520000D01*
X180637000Y-96520000D01*
X180637000Y-96266000D01*
X180657000Y-96266000D01*
X180657000Y-96246000D01*
X180911000Y-96246000D01*
X180911000Y-96266000D01*
G36*
X179694971Y-92372670D02*
X180009752Y-92583000D01*
X179694971Y-92793330D01*
X179514000Y-93064172D01*
X179333029Y-92793330D01*
X179009772Y-92577336D01*
X179132490Y-92519821D01*
X179514008Y-92101839D01*
X179694971Y-92372670D01*
X179694971Y-92372670D01*
G37*
X179694971Y-92372670D02*
X180009752Y-92583000D01*
X179694971Y-92793330D01*
X179514000Y-93064172D01*
X179333029Y-92793330D01*
X179009772Y-92577336D01*
X179132490Y-92519821D01*
X179514008Y-92101839D01*
X179694971Y-92372670D01*
G36*
X178371000Y-91186000D02*
X178391000Y-91186000D01*
X178391000Y-91440000D01*
X178371000Y-91440000D01*
X178371000Y-91460000D01*
X178117000Y-91460000D01*
X178117000Y-91440000D01*
X178097000Y-91440000D01*
X178097000Y-91186000D01*
X178117000Y-91186000D01*
X178117000Y-91166000D01*
X178371000Y-91166000D01*
X178371000Y-91186000D01*
X178371000Y-91186000D01*
G37*
X178371000Y-91186000D02*
X178391000Y-91186000D01*
X178391000Y-91440000D01*
X178371000Y-91440000D01*
X178371000Y-91460000D01*
X178117000Y-91460000D01*
X178117000Y-91440000D01*
X178097000Y-91440000D01*
X178097000Y-91186000D01*
X178117000Y-91186000D01*
X178117000Y-91166000D01*
X178371000Y-91166000D01*
X178371000Y-91186000D01*
G36*
X179694971Y-89832670D02*
X180009752Y-90043000D01*
X179694971Y-90253330D01*
X179514008Y-90524161D01*
X179132490Y-90106179D01*
X179009772Y-90048664D01*
X179333029Y-89832670D01*
X179514000Y-89561828D01*
X179694971Y-89832670D01*
X179694971Y-89832670D01*
G37*
X179694971Y-89832670D02*
X180009752Y-90043000D01*
X179694971Y-90253330D01*
X179514008Y-90524161D01*
X179132490Y-90106179D01*
X179009772Y-90048664D01*
X179333029Y-89832670D01*
X179514000Y-89561828D01*
X179694971Y-89832670D01*
G36*
X178371000Y-86106000D02*
X178391000Y-86106000D01*
X178391000Y-86360000D01*
X178371000Y-86360000D01*
X178371000Y-86380000D01*
X178117000Y-86380000D01*
X178117000Y-86360000D01*
X178097000Y-86360000D01*
X178097000Y-86106000D01*
X178117000Y-86106000D01*
X178117000Y-86086000D01*
X178371000Y-86086000D01*
X178371000Y-86106000D01*
X178371000Y-86106000D01*
G37*
X178371000Y-86106000D02*
X178391000Y-86106000D01*
X178391000Y-86360000D01*
X178371000Y-86360000D01*
X178371000Y-86380000D01*
X178117000Y-86380000D01*
X178117000Y-86360000D01*
X178097000Y-86360000D01*
X178097000Y-86106000D01*
X178117000Y-86106000D01*
X178117000Y-86086000D01*
X178371000Y-86086000D01*
X178371000Y-86106000D01*
G36*
X128715000Y-74866500D02*
X128735000Y-74866500D01*
X128735000Y-75120500D01*
X128715000Y-75120500D01*
X128715000Y-76327317D01*
X128947026Y-76448458D01*
X129016900Y-76419517D01*
X129016900Y-76632500D01*
X129074752Y-76923339D01*
X129239499Y-77169901D01*
X131362900Y-79293302D01*
X131362900Y-79909549D01*
X131300799Y-79883762D01*
X130928833Y-79883438D01*
X130585057Y-80025483D01*
X130321808Y-80288273D01*
X130179162Y-80631801D01*
X130179121Y-80678677D01*
X127996900Y-82860898D01*
X127996900Y-76352335D01*
X128228974Y-76448458D01*
X128461000Y-76327317D01*
X128461000Y-75120500D01*
X128441000Y-75120500D01*
X128441000Y-74866500D01*
X128461000Y-74866500D01*
X128461000Y-74846500D01*
X128715000Y-74846500D01*
X128715000Y-74866500D01*
X128715000Y-74866500D01*
G37*
X128715000Y-74866500D02*
X128735000Y-74866500D01*
X128735000Y-75120500D01*
X128715000Y-75120500D01*
X128715000Y-76327317D01*
X128947026Y-76448458D01*
X129016900Y-76419517D01*
X129016900Y-76632500D01*
X129074752Y-76923339D01*
X129239499Y-77169901D01*
X131362900Y-79293302D01*
X131362900Y-79909549D01*
X131300799Y-79883762D01*
X130928833Y-79883438D01*
X130585057Y-80025483D01*
X130321808Y-80288273D01*
X130179162Y-80631801D01*
X130179121Y-80678677D01*
X127996900Y-82860898D01*
X127996900Y-76352335D01*
X128228974Y-76448458D01*
X128461000Y-76327317D01*
X128461000Y-75120500D01*
X128441000Y-75120500D01*
X128441000Y-74866500D01*
X128461000Y-74866500D01*
X128461000Y-74846500D01*
X128715000Y-74846500D01*
X128715000Y-74866500D01*
G36*
X180911000Y-78486000D02*
X180931000Y-78486000D01*
X180931000Y-78740000D01*
X180911000Y-78740000D01*
X180911000Y-78760000D01*
X180657000Y-78760000D01*
X180657000Y-78740000D01*
X180637000Y-78740000D01*
X180637000Y-78486000D01*
X180657000Y-78486000D01*
X180657000Y-78466000D01*
X180911000Y-78466000D01*
X180911000Y-78486000D01*
X180911000Y-78486000D01*
G37*
X180911000Y-78486000D02*
X180931000Y-78486000D01*
X180931000Y-78740000D01*
X180911000Y-78740000D01*
X180911000Y-78760000D01*
X180657000Y-78760000D01*
X180657000Y-78740000D01*
X180637000Y-78740000D01*
X180637000Y-78486000D01*
X180657000Y-78486000D01*
X180657000Y-78466000D01*
X180911000Y-78466000D01*
X180911000Y-78486000D01*
G36*
X149035000Y-74866500D02*
X149055000Y-74866500D01*
X149055000Y-75120500D01*
X149035000Y-75120500D01*
X149035000Y-76327317D01*
X149267026Y-76448458D01*
X149682947Y-76276188D01*
X150114821Y-75881990D01*
X150172336Y-75759272D01*
X150388330Y-76082529D01*
X150439127Y-76116471D01*
X148596900Y-77958698D01*
X148596900Y-77651300D01*
X148539048Y-77360461D01*
X148539048Y-77360460D01*
X148374301Y-77113899D01*
X147376873Y-76116471D01*
X147427670Y-76082529D01*
X147643664Y-75759272D01*
X147701179Y-75881990D01*
X148133053Y-76276188D01*
X148548974Y-76448458D01*
X148781000Y-76327317D01*
X148781000Y-75120500D01*
X148761000Y-75120500D01*
X148761000Y-74866500D01*
X148781000Y-74866500D01*
X148781000Y-74846500D01*
X149035000Y-74846500D01*
X149035000Y-74866500D01*
X149035000Y-74866500D01*
G37*
X149035000Y-74866500D02*
X149055000Y-74866500D01*
X149055000Y-75120500D01*
X149035000Y-75120500D01*
X149035000Y-76327317D01*
X149267026Y-76448458D01*
X149682947Y-76276188D01*
X150114821Y-75881990D01*
X150172336Y-75759272D01*
X150388330Y-76082529D01*
X150439127Y-76116471D01*
X148596900Y-77958698D01*
X148596900Y-77651300D01*
X148539048Y-77360461D01*
X148539048Y-77360460D01*
X148374301Y-77113899D01*
X147376873Y-76116471D01*
X147427670Y-76082529D01*
X147643664Y-75759272D01*
X147701179Y-75881990D01*
X148133053Y-76276188D01*
X148548974Y-76448458D01*
X148781000Y-76327317D01*
X148781000Y-75120500D01*
X148761000Y-75120500D01*
X148761000Y-74866500D01*
X148781000Y-74866500D01*
X148781000Y-74846500D01*
X149035000Y-74846500D01*
X149035000Y-74866500D01*
G36*
X154115000Y-72326500D02*
X154135000Y-72326500D01*
X154135000Y-72580500D01*
X154115000Y-72580500D01*
X154115000Y-72600500D01*
X153861000Y-72600500D01*
X153861000Y-72580500D01*
X153841000Y-72580500D01*
X153841000Y-72326500D01*
X153861000Y-72326500D01*
X153861000Y-72306500D01*
X154115000Y-72306500D01*
X154115000Y-72326500D01*
X154115000Y-72326500D01*
G37*
X154115000Y-72326500D02*
X154135000Y-72326500D01*
X154135000Y-72580500D01*
X154115000Y-72580500D01*
X154115000Y-72600500D01*
X153861000Y-72600500D01*
X153861000Y-72580500D01*
X153841000Y-72580500D01*
X153841000Y-72326500D01*
X153861000Y-72326500D01*
X153861000Y-72306500D01*
X154115000Y-72306500D01*
X154115000Y-72326500D01*
G36*
X143955000Y-72326500D02*
X143975000Y-72326500D01*
X143975000Y-72580500D01*
X143955000Y-72580500D01*
X143955000Y-72600500D01*
X143701000Y-72600500D01*
X143701000Y-72580500D01*
X143681000Y-72580500D01*
X143681000Y-72326500D01*
X143701000Y-72326500D01*
X143701000Y-72306500D01*
X143955000Y-72306500D01*
X143955000Y-72326500D01*
X143955000Y-72326500D01*
G37*
X143955000Y-72326500D02*
X143975000Y-72326500D01*
X143975000Y-72580500D01*
X143955000Y-72580500D01*
X143955000Y-72600500D01*
X143701000Y-72600500D01*
X143701000Y-72580500D01*
X143681000Y-72580500D01*
X143681000Y-72326500D01*
X143701000Y-72326500D01*
X143701000Y-72306500D01*
X143955000Y-72306500D01*
X143955000Y-72326500D01*
G36*
X123635000Y-72326500D02*
X123655000Y-72326500D01*
X123655000Y-72580500D01*
X123635000Y-72580500D01*
X123635000Y-72600500D01*
X123381000Y-72600500D01*
X123381000Y-72580500D01*
X123361000Y-72580500D01*
X123361000Y-72326500D01*
X123381000Y-72326500D01*
X123381000Y-72306500D01*
X123635000Y-72306500D01*
X123635000Y-72326500D01*
X123635000Y-72326500D01*
G37*
X123635000Y-72326500D02*
X123655000Y-72326500D01*
X123655000Y-72580500D01*
X123635000Y-72580500D01*
X123635000Y-72600500D01*
X123381000Y-72600500D01*
X123381000Y-72580500D01*
X123361000Y-72580500D01*
X123361000Y-72326500D01*
X123381000Y-72326500D01*
X123381000Y-72306500D01*
X123635000Y-72306500D01*
X123635000Y-72326500D01*
M02*
