G04 #@! TF.FileFunction,Legend,Top*
%FSLAX46Y46*%
G04 Gerber Fmt 4.6, Leading zero omitted, Abs format (unit mm)*
G04 Created by KiCad (PCBNEW 4.0.7) date 01/21/18 10:34:35*
%MOMM*%
%LPD*%
G01*
G04 APERTURE LIST*
%ADD10C,0.100000*%
%ADD11C,0.300000*%
%ADD12C,0.250000*%
%ADD13C,0.120000*%
%ADD14C,0.150000*%
G04 APERTURE END LIST*
D10*
D11*
X144966429Y-92897144D02*
X144966429Y-93897144D01*
X143466429Y-93254287D01*
X144466429Y-95111429D02*
X143466429Y-95111429D01*
X145037857Y-94754286D02*
X143966429Y-94397143D01*
X143966429Y-95325715D01*
X143466429Y-95897143D02*
X144966429Y-95897143D01*
X144252143Y-95897143D02*
X144252143Y-96754286D01*
X143466429Y-96754286D02*
X144966429Y-96754286D01*
X143609286Y-98325715D02*
X143537857Y-98254286D01*
X143466429Y-98040000D01*
X143466429Y-97897143D01*
X143537857Y-97682858D01*
X143680714Y-97540000D01*
X143823571Y-97468572D01*
X144109286Y-97397143D01*
X144323571Y-97397143D01*
X144609286Y-97468572D01*
X144752143Y-97540000D01*
X144895000Y-97682858D01*
X144966429Y-97897143D01*
X144966429Y-98040000D01*
X144895000Y-98254286D01*
X144823571Y-98325715D01*
X144823571Y-98897143D02*
X144895000Y-98968572D01*
X144966429Y-99111429D01*
X144966429Y-99468572D01*
X144895000Y-99611429D01*
X144823571Y-99682858D01*
X144680714Y-99754286D01*
X144537857Y-99754286D01*
X144323571Y-99682858D01*
X143466429Y-98825715D01*
X143466429Y-99754286D01*
X144466429Y-101040000D02*
X143466429Y-101040000D01*
X145037857Y-100682857D02*
X143966429Y-100325714D01*
X143966429Y-101254286D01*
X144466429Y-102468571D02*
X143466429Y-102468571D01*
X145037857Y-102111428D02*
X143966429Y-101754285D01*
X143966429Y-102682857D01*
X125916429Y-92897144D02*
X125916429Y-93897144D01*
X124416429Y-93254287D01*
X125416429Y-95111429D02*
X124416429Y-95111429D01*
X125987857Y-94754286D02*
X124916429Y-94397143D01*
X124916429Y-95325715D01*
X124416429Y-95897143D02*
X125916429Y-95897143D01*
X125202143Y-95897143D02*
X125202143Y-96754286D01*
X124416429Y-96754286D02*
X125916429Y-96754286D01*
X124559286Y-98325715D02*
X124487857Y-98254286D01*
X124416429Y-98040000D01*
X124416429Y-97897143D01*
X124487857Y-97682858D01*
X124630714Y-97540000D01*
X124773571Y-97468572D01*
X125059286Y-97397143D01*
X125273571Y-97397143D01*
X125559286Y-97468572D01*
X125702143Y-97540000D01*
X125845000Y-97682858D01*
X125916429Y-97897143D01*
X125916429Y-98040000D01*
X125845000Y-98254286D01*
X125773571Y-98325715D01*
X125773571Y-98897143D02*
X125845000Y-98968572D01*
X125916429Y-99111429D01*
X125916429Y-99468572D01*
X125845000Y-99611429D01*
X125773571Y-99682858D01*
X125630714Y-99754286D01*
X125487857Y-99754286D01*
X125273571Y-99682858D01*
X124416429Y-98825715D01*
X124416429Y-99754286D01*
X125416429Y-101040000D02*
X124416429Y-101040000D01*
X125987857Y-100682857D02*
X124916429Y-100325714D01*
X124916429Y-101254286D01*
X125416429Y-102468571D02*
X124416429Y-102468571D01*
X125987857Y-102111428D02*
X124916429Y-101754285D01*
X124916429Y-102682857D01*
X106231429Y-92897144D02*
X106231429Y-93897144D01*
X104731429Y-93254287D01*
X105731429Y-95111429D02*
X104731429Y-95111429D01*
X106302857Y-94754286D02*
X105231429Y-94397143D01*
X105231429Y-95325715D01*
X104731429Y-95897143D02*
X106231429Y-95897143D01*
X105517143Y-95897143D02*
X105517143Y-96754286D01*
X104731429Y-96754286D02*
X106231429Y-96754286D01*
X104874286Y-98325715D02*
X104802857Y-98254286D01*
X104731429Y-98040000D01*
X104731429Y-97897143D01*
X104802857Y-97682858D01*
X104945714Y-97540000D01*
X105088571Y-97468572D01*
X105374286Y-97397143D01*
X105588571Y-97397143D01*
X105874286Y-97468572D01*
X106017143Y-97540000D01*
X106160000Y-97682858D01*
X106231429Y-97897143D01*
X106231429Y-98040000D01*
X106160000Y-98254286D01*
X106088571Y-98325715D01*
X106088571Y-98897143D02*
X106160000Y-98968572D01*
X106231429Y-99111429D01*
X106231429Y-99468572D01*
X106160000Y-99611429D01*
X106088571Y-99682858D01*
X105945714Y-99754286D01*
X105802857Y-99754286D01*
X105588571Y-99682858D01*
X104731429Y-98825715D01*
X104731429Y-99754286D01*
X105731429Y-101040000D02*
X104731429Y-101040000D01*
X106302857Y-100682857D02*
X105231429Y-100325714D01*
X105231429Y-101254286D01*
X105731429Y-102468571D02*
X104731429Y-102468571D01*
X106302857Y-102111428D02*
X105231429Y-101754285D01*
X105231429Y-102682857D01*
X122523573Y-72203571D02*
X123523573Y-72203571D01*
X122523573Y-73703571D01*
X123523573Y-73703571D01*
X124309287Y-72846429D02*
X124166429Y-72775000D01*
X124095001Y-72703571D01*
X124023572Y-72560714D01*
X124023572Y-72489286D01*
X124095001Y-72346429D01*
X124166429Y-72275000D01*
X124309287Y-72203571D01*
X124595001Y-72203571D01*
X124737858Y-72275000D01*
X124809287Y-72346429D01*
X124880715Y-72489286D01*
X124880715Y-72560714D01*
X124809287Y-72703571D01*
X124737858Y-72775000D01*
X124595001Y-72846429D01*
X124309287Y-72846429D01*
X124166429Y-72917857D01*
X124095001Y-72989286D01*
X124023572Y-73132143D01*
X124023572Y-73417857D01*
X124095001Y-73560714D01*
X124166429Y-73632143D01*
X124309287Y-73703571D01*
X124595001Y-73703571D01*
X124737858Y-73632143D01*
X124809287Y-73560714D01*
X124880715Y-73417857D01*
X124880715Y-73132143D01*
X124809287Y-72989286D01*
X124737858Y-72917857D01*
X124595001Y-72846429D01*
X125809286Y-72203571D02*
X125952143Y-72203571D01*
X126095000Y-72275000D01*
X126166429Y-72346429D01*
X126237858Y-72489286D01*
X126309286Y-72775000D01*
X126309286Y-73132143D01*
X126237858Y-73417857D01*
X126166429Y-73560714D01*
X126095000Y-73632143D01*
X125952143Y-73703571D01*
X125809286Y-73703571D01*
X125666429Y-73632143D01*
X125595000Y-73560714D01*
X125523572Y-73417857D01*
X125452143Y-73132143D01*
X125452143Y-72775000D01*
X125523572Y-72489286D01*
X125595000Y-72346429D01*
X125666429Y-72275000D01*
X125809286Y-72203571D01*
X126880714Y-73275000D02*
X127595000Y-73275000D01*
X126737857Y-73703571D02*
X127237857Y-72203571D01*
X127737857Y-73703571D01*
X110102859Y-87038571D02*
X109602859Y-86324286D01*
X109245716Y-87038571D02*
X109245716Y-85538571D01*
X109817144Y-85538571D01*
X109960002Y-85610000D01*
X110031430Y-85681429D01*
X110102859Y-85824286D01*
X110102859Y-86038571D01*
X110031430Y-86181429D01*
X109960002Y-86252857D01*
X109817144Y-86324286D01*
X109245716Y-86324286D01*
X111317144Y-86967143D02*
X111174287Y-87038571D01*
X110888573Y-87038571D01*
X110745716Y-86967143D01*
X110674287Y-86824286D01*
X110674287Y-86252857D01*
X110745716Y-86110000D01*
X110888573Y-86038571D01*
X111174287Y-86038571D01*
X111317144Y-86110000D01*
X111388573Y-86252857D01*
X111388573Y-86395714D01*
X110674287Y-86538571D01*
X112674287Y-87038571D02*
X112674287Y-86252857D01*
X112602858Y-86110000D01*
X112460001Y-86038571D01*
X112174287Y-86038571D01*
X112031430Y-86110000D01*
X112674287Y-86967143D02*
X112531430Y-87038571D01*
X112174287Y-87038571D01*
X112031430Y-86967143D01*
X111960001Y-86824286D01*
X111960001Y-86681429D01*
X112031430Y-86538571D01*
X112174287Y-86467143D01*
X112531430Y-86467143D01*
X112674287Y-86395714D01*
X113602859Y-87038571D02*
X113460001Y-86967143D01*
X113388573Y-86824286D01*
X113388573Y-85538571D01*
X115174287Y-85538571D02*
X116174287Y-85538571D01*
X115174287Y-87038571D01*
X116174287Y-87038571D01*
X116960001Y-86181429D02*
X116817143Y-86110000D01*
X116745715Y-86038571D01*
X116674286Y-85895714D01*
X116674286Y-85824286D01*
X116745715Y-85681429D01*
X116817143Y-85610000D01*
X116960001Y-85538571D01*
X117245715Y-85538571D01*
X117388572Y-85610000D01*
X117460001Y-85681429D01*
X117531429Y-85824286D01*
X117531429Y-85895714D01*
X117460001Y-86038571D01*
X117388572Y-86110000D01*
X117245715Y-86181429D01*
X116960001Y-86181429D01*
X116817143Y-86252857D01*
X116745715Y-86324286D01*
X116674286Y-86467143D01*
X116674286Y-86752857D01*
X116745715Y-86895714D01*
X116817143Y-86967143D01*
X116960001Y-87038571D01*
X117245715Y-87038571D01*
X117388572Y-86967143D01*
X117460001Y-86895714D01*
X117531429Y-86752857D01*
X117531429Y-86467143D01*
X117460001Y-86324286D01*
X117388572Y-86252857D01*
X117245715Y-86181429D01*
X118460000Y-85538571D02*
X118602857Y-85538571D01*
X118745714Y-85610000D01*
X118817143Y-85681429D01*
X118888572Y-85824286D01*
X118960000Y-86110000D01*
X118960000Y-86467143D01*
X118888572Y-86752857D01*
X118817143Y-86895714D01*
X118745714Y-86967143D01*
X118602857Y-87038571D01*
X118460000Y-87038571D01*
X118317143Y-86967143D01*
X118245714Y-86895714D01*
X118174286Y-86752857D01*
X118102857Y-86467143D01*
X118102857Y-86110000D01*
X118174286Y-85824286D01*
X118245714Y-85681429D01*
X118317143Y-85610000D01*
X118460000Y-85538571D01*
X120745714Y-87038571D02*
X120745714Y-85538571D01*
X121317142Y-85538571D01*
X121460000Y-85610000D01*
X121531428Y-85681429D01*
X121602857Y-85824286D01*
X121602857Y-86038571D01*
X121531428Y-86181429D01*
X121460000Y-86252857D01*
X121317142Y-86324286D01*
X120745714Y-86324286D01*
X122245714Y-87038571D02*
X122245714Y-86038571D01*
X122245714Y-86324286D02*
X122317142Y-86181429D01*
X122388571Y-86110000D01*
X122531428Y-86038571D01*
X122674285Y-86038571D01*
X123388571Y-87038571D02*
X123245713Y-86967143D01*
X123174285Y-86895714D01*
X123102856Y-86752857D01*
X123102856Y-86324286D01*
X123174285Y-86181429D01*
X123245713Y-86110000D01*
X123388571Y-86038571D01*
X123602856Y-86038571D01*
X123745713Y-86110000D01*
X123817142Y-86181429D01*
X123888571Y-86324286D01*
X123888571Y-86752857D01*
X123817142Y-86895714D01*
X123745713Y-86967143D01*
X123602856Y-87038571D01*
X123388571Y-87038571D01*
X125174285Y-86967143D02*
X125031428Y-87038571D01*
X124745714Y-87038571D01*
X124602856Y-86967143D01*
X124531428Y-86895714D01*
X124459999Y-86752857D01*
X124459999Y-86324286D01*
X124531428Y-86181429D01*
X124602856Y-86110000D01*
X124745714Y-86038571D01*
X125031428Y-86038571D01*
X125174285Y-86110000D01*
X126388570Y-86967143D02*
X126245713Y-87038571D01*
X125959999Y-87038571D01*
X125817142Y-86967143D01*
X125745713Y-86824286D01*
X125745713Y-86252857D01*
X125817142Y-86110000D01*
X125959999Y-86038571D01*
X126245713Y-86038571D01*
X126388570Y-86110000D01*
X126459999Y-86252857D01*
X126459999Y-86395714D01*
X125745713Y-86538571D01*
X127031427Y-86967143D02*
X127174284Y-87038571D01*
X127459999Y-87038571D01*
X127602856Y-86967143D01*
X127674284Y-86824286D01*
X127674284Y-86752857D01*
X127602856Y-86610000D01*
X127459999Y-86538571D01*
X127245713Y-86538571D01*
X127102856Y-86467143D01*
X127031427Y-86324286D01*
X127031427Y-86252857D01*
X127102856Y-86110000D01*
X127245713Y-86038571D01*
X127459999Y-86038571D01*
X127602856Y-86110000D01*
X128245713Y-86967143D02*
X128388570Y-87038571D01*
X128674285Y-87038571D01*
X128817142Y-86967143D01*
X128888570Y-86824286D01*
X128888570Y-86752857D01*
X128817142Y-86610000D01*
X128674285Y-86538571D01*
X128459999Y-86538571D01*
X128317142Y-86467143D01*
X128245713Y-86324286D01*
X128245713Y-86252857D01*
X128317142Y-86110000D01*
X128459999Y-86038571D01*
X128674285Y-86038571D01*
X128817142Y-86110000D01*
X129745714Y-87038571D02*
X129602856Y-86967143D01*
X129531428Y-86895714D01*
X129459999Y-86752857D01*
X129459999Y-86324286D01*
X129531428Y-86181429D01*
X129602856Y-86110000D01*
X129745714Y-86038571D01*
X129959999Y-86038571D01*
X130102856Y-86110000D01*
X130174285Y-86181429D01*
X130245714Y-86324286D01*
X130245714Y-86752857D01*
X130174285Y-86895714D01*
X130102856Y-86967143D01*
X129959999Y-87038571D01*
X129745714Y-87038571D01*
X130888571Y-87038571D02*
X130888571Y-86038571D01*
X130888571Y-86324286D02*
X130959999Y-86181429D01*
X131031428Y-86110000D01*
X131174285Y-86038571D01*
X131317142Y-86038571D01*
X132959999Y-86252857D02*
X133459999Y-86252857D01*
X133674285Y-87038571D02*
X132959999Y-87038571D01*
X132959999Y-85538571D01*
X133674285Y-85538571D01*
X134317142Y-86038571D02*
X134317142Y-87038571D01*
X134317142Y-86181429D02*
X134388570Y-86110000D01*
X134531428Y-86038571D01*
X134745713Y-86038571D01*
X134888570Y-86110000D01*
X134959999Y-86252857D01*
X134959999Y-87038571D01*
X136317142Y-86038571D02*
X136317142Y-87252857D01*
X136245713Y-87395714D01*
X136174285Y-87467143D01*
X136031428Y-87538571D01*
X135817142Y-87538571D01*
X135674285Y-87467143D01*
X136317142Y-86967143D02*
X136174285Y-87038571D01*
X135888571Y-87038571D01*
X135745713Y-86967143D01*
X135674285Y-86895714D01*
X135602856Y-86752857D01*
X135602856Y-86324286D01*
X135674285Y-86181429D01*
X135745713Y-86110000D01*
X135888571Y-86038571D01*
X136174285Y-86038571D01*
X136317142Y-86110000D01*
X137031428Y-87038571D02*
X137031428Y-86038571D01*
X137031428Y-85538571D02*
X136959999Y-85610000D01*
X137031428Y-85681429D01*
X137102856Y-85610000D01*
X137031428Y-85538571D01*
X137031428Y-85681429D01*
X137745714Y-86038571D02*
X137745714Y-87038571D01*
X137745714Y-86181429D02*
X137817142Y-86110000D01*
X137960000Y-86038571D01*
X138174285Y-86038571D01*
X138317142Y-86110000D01*
X138388571Y-86252857D01*
X138388571Y-87038571D01*
X139674285Y-86967143D02*
X139531428Y-87038571D01*
X139245714Y-87038571D01*
X139102857Y-86967143D01*
X139031428Y-86824286D01*
X139031428Y-86252857D01*
X139102857Y-86110000D01*
X139245714Y-86038571D01*
X139531428Y-86038571D01*
X139674285Y-86110000D01*
X139745714Y-86252857D01*
X139745714Y-86395714D01*
X139031428Y-86538571D01*
D12*
X94972381Y-69667381D02*
X94972381Y-68667381D01*
X95639047Y-68667381D02*
X95829524Y-68667381D01*
X95924762Y-68715000D01*
X96020000Y-68810238D01*
X96067619Y-69000714D01*
X96067619Y-69334048D01*
X96020000Y-69524524D01*
X95924762Y-69619762D01*
X95829524Y-69667381D01*
X95639047Y-69667381D01*
X95543809Y-69619762D01*
X95448571Y-69524524D01*
X95400952Y-69334048D01*
X95400952Y-69000714D01*
X95448571Y-68810238D01*
X95543809Y-68715000D01*
X95639047Y-68667381D01*
X97067619Y-69667381D02*
X96734285Y-69191190D01*
X96496190Y-69667381D02*
X96496190Y-68667381D01*
X96877143Y-68667381D01*
X96972381Y-68715000D01*
X97020000Y-68762619D01*
X97067619Y-68857857D01*
X97067619Y-69000714D01*
X97020000Y-69095952D01*
X96972381Y-69143571D01*
X96877143Y-69191190D01*
X96496190Y-69191190D01*
X98162857Y-69762619D02*
X98067619Y-69715000D01*
X97972381Y-69619762D01*
X97829524Y-69476905D01*
X97734285Y-69429286D01*
X97639047Y-69429286D01*
X97686666Y-69667381D02*
X97591428Y-69619762D01*
X97496190Y-69524524D01*
X97448571Y-69334048D01*
X97448571Y-69000714D01*
X97496190Y-68810238D01*
X97591428Y-68715000D01*
X97686666Y-68667381D01*
X97877143Y-68667381D01*
X97972381Y-68715000D01*
X98067619Y-68810238D01*
X98115238Y-69000714D01*
X98115238Y-69334048D01*
X98067619Y-69524524D01*
X97972381Y-69619762D01*
X97877143Y-69667381D01*
X97686666Y-69667381D01*
X94710476Y-74747381D02*
X94710476Y-73747381D01*
X95043810Y-74461667D01*
X95377143Y-73747381D01*
X95377143Y-74747381D01*
X96424762Y-74747381D02*
X96091428Y-74271190D01*
X95853333Y-74747381D02*
X95853333Y-73747381D01*
X96234286Y-73747381D01*
X96329524Y-73795000D01*
X96377143Y-73842619D01*
X96424762Y-73937857D01*
X96424762Y-74080714D01*
X96377143Y-74175952D01*
X96329524Y-74223571D01*
X96234286Y-74271190D01*
X95853333Y-74271190D01*
X96853333Y-74223571D02*
X97186667Y-74223571D01*
X97329524Y-74747381D02*
X96853333Y-74747381D01*
X96853333Y-73747381D01*
X97329524Y-73747381D01*
X98424762Y-74842619D02*
X98329524Y-74795000D01*
X98234286Y-74699762D01*
X98091429Y-74556905D01*
X97996190Y-74509286D01*
X97900952Y-74509286D01*
X97948571Y-74747381D02*
X97853333Y-74699762D01*
X97758095Y-74604524D01*
X97710476Y-74414048D01*
X97710476Y-74080714D01*
X97758095Y-73890238D01*
X97853333Y-73795000D01*
X97948571Y-73747381D01*
X98139048Y-73747381D01*
X98234286Y-73795000D01*
X98329524Y-73890238D01*
X98377143Y-74080714D01*
X98377143Y-74414048D01*
X98329524Y-74604524D01*
X98234286Y-74699762D01*
X98139048Y-74747381D01*
X97948571Y-74747381D01*
X152741429Y-68667381D02*
X152979524Y-69667381D01*
X153170001Y-68953095D01*
X153360477Y-69667381D01*
X153598572Y-68667381D01*
X154550953Y-69667381D02*
X154217619Y-69191190D01*
X153979524Y-69667381D02*
X153979524Y-68667381D01*
X154360477Y-68667381D01*
X154455715Y-68715000D01*
X154503334Y-68762619D01*
X154550953Y-68857857D01*
X154550953Y-69000714D01*
X154503334Y-69095952D01*
X154455715Y-69143571D01*
X154360477Y-69191190D01*
X153979524Y-69191190D01*
X153479524Y-74747381D02*
X153146190Y-74271190D01*
X152908095Y-74747381D02*
X152908095Y-73747381D01*
X153289048Y-73747381D01*
X153384286Y-73795000D01*
X153431905Y-73842619D01*
X153479524Y-73937857D01*
X153479524Y-74080714D01*
X153431905Y-74175952D01*
X153384286Y-74223571D01*
X153289048Y-74271190D01*
X152908095Y-74271190D01*
X153908095Y-74747381D02*
X153908095Y-73747381D01*
X154146190Y-73747381D01*
X154289048Y-73795000D01*
X154384286Y-73890238D01*
X154431905Y-73985476D01*
X154479524Y-74175952D01*
X154479524Y-74318810D01*
X154431905Y-74509286D01*
X154384286Y-74604524D01*
X154289048Y-74699762D01*
X154146190Y-74747381D01*
X153908095Y-74747381D01*
D13*
X99762000Y-72406000D02*
G75*
G02X99762000Y-74406000I0J-1000000D01*
G01*
X99762000Y-74406000D02*
X99762000Y-79866000D01*
X99762000Y-79866000D02*
X150682000Y-79866000D01*
X150682000Y-79866000D02*
X150682000Y-66946000D01*
X150682000Y-66946000D02*
X99762000Y-66946000D01*
X99762000Y-66946000D02*
X99762000Y-72406000D01*
X99702000Y-82356000D02*
X150742000Y-82356000D01*
X150742000Y-82356000D02*
X150742000Y-64456000D01*
X150742000Y-64456000D02*
X99702000Y-64456000D01*
X99702000Y-64456000D02*
X99702000Y-82356000D01*
D14*
X140270000Y-91215000D02*
X140270000Y-91465000D01*
X148020000Y-91215000D02*
X148020000Y-91550000D01*
X148020000Y-104365000D02*
X148020000Y-104030000D01*
X140270000Y-104365000D02*
X140270000Y-104030000D01*
X140270000Y-91215000D02*
X148020000Y-91215000D01*
X140270000Y-104365000D02*
X148020000Y-104365000D01*
X140270000Y-91465000D02*
X138470000Y-91465000D01*
X101535000Y-91215000D02*
X101535000Y-91465000D01*
X109285000Y-91215000D02*
X109285000Y-91550000D01*
X109285000Y-104365000D02*
X109285000Y-104030000D01*
X101535000Y-104365000D02*
X101535000Y-104030000D01*
X101535000Y-91215000D02*
X109285000Y-91215000D01*
X101535000Y-104365000D02*
X109285000Y-104365000D01*
X101535000Y-91465000D02*
X99735000Y-91465000D01*
X121220000Y-91215000D02*
X121220000Y-91465000D01*
X128970000Y-91215000D02*
X128970000Y-91550000D01*
X128970000Y-104365000D02*
X128970000Y-104030000D01*
X121220000Y-104365000D02*
X121220000Y-104030000D01*
X121220000Y-91215000D02*
X128970000Y-91215000D01*
X121220000Y-104365000D02*
X128970000Y-104365000D01*
X121220000Y-91465000D02*
X119420000Y-91465000D01*
D13*
X95520000Y-75450000D02*
X98720000Y-75450000D01*
X98720000Y-76950000D02*
X95520000Y-76950000D01*
X98720000Y-76950000D02*
X98720000Y-75450000D01*
X95520000Y-70370000D02*
X98720000Y-70370000D01*
X98720000Y-71870000D02*
X95520000Y-71870000D01*
X98720000Y-71870000D02*
X98720000Y-70370000D01*
X155305000Y-76315000D02*
X152105000Y-76315000D01*
X152105000Y-74815000D02*
X155305000Y-74815000D01*
X152105000Y-74815000D02*
X152105000Y-76315000D01*
X155305000Y-71870000D02*
X152105000Y-71870000D01*
X152105000Y-70370000D02*
X155305000Y-70370000D01*
X152105000Y-70370000D02*
X152105000Y-71870000D01*
D14*
X125182381Y-74421905D02*
X125991905Y-74421905D01*
X126087143Y-74374286D01*
X126134762Y-74326667D01*
X126182381Y-74231429D01*
X126182381Y-74040952D01*
X126134762Y-73945714D01*
X126087143Y-73898095D01*
X125991905Y-73850476D01*
X125182381Y-73850476D01*
X126182381Y-72850476D02*
X126182381Y-73421905D01*
X126182381Y-73136191D02*
X125182381Y-73136191D01*
X125325238Y-73231429D01*
X125420476Y-73326667D01*
X125468095Y-73421905D01*
M02*
