G04 #@! TF.FileFunction,Copper,L2,Bot,Mixed*
%FSLAX46Y46*%
G04 Gerber Fmt 4.6, Leading zero omitted, Abs format (unit mm)*
G04 Created by KiCad (PCBNEW 4.0.7) date 01/19/18 22:03:17*
%MOMM*%
%LPD*%
G01*
G04 APERTURE LIST*
%ADD10C,0.100000*%
%ADD11R,1.800000X8.000000*%
%ADD12R,0.600000X1.950000*%
%ADD13R,1.700000X1.700000*%
%ADD14O,1.700000X1.700000*%
%ADD15C,3.000000*%
%ADD16R,1.500000X1.250000*%
%ADD17R,1.500000X1.300000*%
%ADD18C,0.600000*%
%ADD19C,0.250000*%
%ADD20C,0.400000*%
%ADD21C,0.254000*%
G04 APERTURE END LIST*
D10*
D11*
X187949840Y-109827440D03*
X185409840Y-109827440D03*
X182869840Y-109827440D03*
X180329840Y-109827440D03*
X177789840Y-109827440D03*
X175249840Y-109827440D03*
X172709840Y-109827440D03*
X170169840Y-109827440D03*
X167629840Y-109827440D03*
X165089840Y-109827440D03*
X162549840Y-109827440D03*
X160009840Y-109827440D03*
X157469840Y-109827440D03*
X154929840Y-109827440D03*
X152389840Y-109827440D03*
X149849840Y-109827440D03*
X147309840Y-109827440D03*
X144769840Y-109827440D03*
X142229840Y-109827440D03*
X139689840Y-109827440D03*
X137149840Y-109827440D03*
X134609840Y-109827440D03*
X132069840Y-109827440D03*
X129529840Y-109827440D03*
X126989840Y-109827440D03*
D12*
X155575000Y-86740000D03*
X156845000Y-86740000D03*
X158115000Y-86740000D03*
X159385000Y-86740000D03*
X160655000Y-86740000D03*
X161925000Y-86740000D03*
X163195000Y-86740000D03*
X164465000Y-86740000D03*
X165735000Y-86740000D03*
X167005000Y-86740000D03*
X167005000Y-96140000D03*
X165735000Y-96140000D03*
X164465000Y-96140000D03*
X163195000Y-96140000D03*
X161925000Y-96140000D03*
X160655000Y-96140000D03*
X159385000Y-96140000D03*
X158115000Y-96140000D03*
X156845000Y-96140000D03*
X155575000Y-96140000D03*
X133985000Y-86740000D03*
X135255000Y-86740000D03*
X136525000Y-86740000D03*
X137795000Y-86740000D03*
X139065000Y-86740000D03*
X140335000Y-86740000D03*
X141605000Y-86740000D03*
X142875000Y-86740000D03*
X144145000Y-86740000D03*
X145415000Y-86740000D03*
X145415000Y-96140000D03*
X144145000Y-96140000D03*
X142875000Y-96140000D03*
X141605000Y-96140000D03*
X140335000Y-96140000D03*
X139065000Y-96140000D03*
X137795000Y-96140000D03*
X136525000Y-96140000D03*
X135255000Y-96140000D03*
X133985000Y-96140000D03*
D13*
X181674000Y-74930000D03*
D14*
X181674000Y-77470000D03*
X179134000Y-74930000D03*
X179134000Y-77470000D03*
X176594000Y-74930000D03*
X176594000Y-77470000D03*
X174054000Y-74930000D03*
X174054000Y-77470000D03*
X171514000Y-74930000D03*
X171514000Y-77470000D03*
X168974000Y-74930000D03*
X168974000Y-77470000D03*
X166434000Y-74930000D03*
X166434000Y-77470000D03*
X163894000Y-74930000D03*
X163894000Y-77470000D03*
X161354000Y-74930000D03*
X161354000Y-77470000D03*
X158814000Y-74930000D03*
X158814000Y-77470000D03*
X156274000Y-74930000D03*
X156274000Y-77470000D03*
X153734000Y-74930000D03*
X153734000Y-77470000D03*
X151194000Y-74930000D03*
X151194000Y-77470000D03*
X148654000Y-74930000D03*
X148654000Y-77470000D03*
X146114000Y-74930000D03*
X146114000Y-77470000D03*
X143574000Y-74930000D03*
X143574000Y-77470000D03*
X141034000Y-74930000D03*
X141034000Y-77470000D03*
X138494000Y-74930000D03*
X138494000Y-77470000D03*
X135954000Y-74930000D03*
X135954000Y-77470000D03*
X133414000Y-74930000D03*
X133414000Y-77470000D03*
D13*
X181674000Y-51943000D03*
D14*
X181674000Y-54483000D03*
X179134000Y-51943000D03*
X179134000Y-54483000D03*
X176594000Y-51943000D03*
X176594000Y-54483000D03*
X174054000Y-51943000D03*
X174054000Y-54483000D03*
X171514000Y-51943000D03*
X171514000Y-54483000D03*
X168974000Y-51943000D03*
X168974000Y-54483000D03*
X166434000Y-51943000D03*
X166434000Y-54483000D03*
X163894000Y-51943000D03*
X163894000Y-54483000D03*
X161354000Y-51943000D03*
X161354000Y-54483000D03*
X158814000Y-51943000D03*
X158814000Y-54483000D03*
X156274000Y-51943000D03*
X156274000Y-54483000D03*
X153734000Y-51943000D03*
X153734000Y-54483000D03*
X151194000Y-51943000D03*
X151194000Y-54483000D03*
X148654000Y-51943000D03*
X148654000Y-54483000D03*
X146114000Y-51943000D03*
X146114000Y-54483000D03*
X143574000Y-51943000D03*
X143574000Y-54483000D03*
X141034000Y-51943000D03*
X141034000Y-54483000D03*
X138494000Y-51943000D03*
X138494000Y-54483000D03*
X135954000Y-51943000D03*
X135954000Y-54483000D03*
X133414000Y-51943000D03*
X133414000Y-54483000D03*
D15*
X128500000Y-76213000D03*
X128500000Y-53213000D03*
X186500000Y-53213000D03*
X186500000Y-76213000D03*
X186500000Y-76213000D03*
X186500000Y-53213000D03*
X128500000Y-53213000D03*
X128500000Y-76213000D03*
D16*
X128290000Y-63500000D03*
X130790000Y-63500000D03*
X130790000Y-66040000D03*
X128290000Y-66040000D03*
D17*
X128190000Y-60960000D03*
X130890000Y-60960000D03*
X128190000Y-68580000D03*
X130890000Y-68580000D03*
D18*
X152425400Y-79451200D03*
X161417000Y-83680300D03*
X159092900Y-81178400D03*
X149860000Y-84074000D03*
X130556000Y-103378000D03*
X133350000Y-103378000D03*
X130556000Y-102108000D03*
X133350000Y-102108000D03*
X155575000Y-86740000D03*
X145415000Y-86740000D03*
X167005000Y-86740000D03*
X164846000Y-80772000D03*
X144780000Y-81788000D03*
X133604000Y-82804000D03*
X146050000Y-80264000D03*
X180500000Y-87630000D03*
X180340000Y-83058000D03*
X133350000Y-63500000D03*
X130790000Y-63500000D03*
X130810000Y-68580000D03*
X162168800Y-90415200D03*
X150214100Y-95095200D03*
X142102800Y-88236100D03*
X138068700Y-88453600D03*
X137173400Y-88226100D03*
X144111600Y-79133100D03*
X143790600Y-88239000D03*
X143654200Y-85185400D03*
X141014700Y-88732300D03*
X139121700Y-85084000D03*
X179824500Y-98008200D03*
X178890900Y-91234200D03*
X179253900Y-104359800D03*
X178534500Y-92387700D03*
X178694400Y-104938700D03*
X168417400Y-101081100D03*
X154198600Y-94860700D03*
X168451000Y-103936900D03*
X171863500Y-91144500D03*
X156446600Y-98366400D03*
X167005800Y-104770600D03*
X163337800Y-103061400D03*
X162078700Y-103149400D03*
X146878800Y-104666100D03*
X151186900Y-102799100D03*
X160339000Y-105190700D03*
X158176500Y-104811800D03*
X146491100Y-97426000D03*
X149699100Y-103741300D03*
X148273700Y-104314200D03*
X144963900Y-104447900D03*
X142954700Y-104614300D03*
X140732100Y-104575000D03*
X137078100Y-101086800D03*
X170689900Y-89228000D03*
X145774200Y-90077900D03*
X161534800Y-85175700D03*
X163175800Y-85197800D03*
X159996500Y-85279500D03*
X164542900Y-85058000D03*
X156138800Y-88201300D03*
X158982200Y-88246700D03*
X168349000Y-97189200D03*
D19*
X151194000Y-74930000D02*
X151194000Y-75108300D01*
X151194000Y-75108300D02*
X152450800Y-76365100D01*
X152450800Y-79425800D02*
X152425400Y-79451200D01*
X152450800Y-76365100D02*
X152450800Y-79425800D01*
X158814000Y-77470000D02*
X158814000Y-81001100D01*
X158991300Y-81178400D02*
X159092900Y-81178400D01*
X158814000Y-81001100D02*
X158991300Y-81178400D01*
X145415000Y-86740000D02*
X147194000Y-86740000D01*
X147194000Y-86740000D02*
X149860000Y-84074000D01*
X134609840Y-109827440D02*
X134609840Y-103388160D01*
X134599680Y-103378000D02*
X133350000Y-103378000D01*
X134609840Y-103388160D02*
X134599680Y-103378000D01*
X134609840Y-109827440D02*
X134609840Y-101864160D01*
X134366000Y-102108000D02*
X133350000Y-102108000D01*
X134609840Y-101864160D02*
X134366000Y-102108000D01*
X146114000Y-77470000D02*
X146114000Y-80200000D01*
X146114000Y-80200000D02*
X146050000Y-80264000D01*
X180340000Y-83058000D02*
X180340000Y-87470000D01*
X180340000Y-87470000D02*
X180500000Y-87630000D01*
X133414000Y-74930000D02*
X133414000Y-63564000D01*
X133414000Y-63564000D02*
X133350000Y-63500000D01*
X130810000Y-68580000D02*
X130890000Y-68580000D01*
D20*
X182924400Y-76219600D02*
X181674000Y-77470000D01*
X182924400Y-55733400D02*
X182924400Y-76219600D01*
X181674000Y-54483000D02*
X182924400Y-55733400D01*
X132069800Y-109827400D02*
X129529800Y-109827400D01*
X155575000Y-95491500D02*
X155575000Y-95572500D01*
X160651300Y-90415200D02*
X155575000Y-95491500D01*
X162168800Y-90415200D02*
X160651300Y-90415200D01*
X155575000Y-95572500D02*
X155575000Y-96140000D01*
X150691400Y-95572500D02*
X150214100Y-95095200D01*
X155575000Y-95572500D02*
X150691400Y-95572500D01*
X132069800Y-98055200D02*
X133985000Y-96140000D01*
X132069800Y-109827400D02*
X132069800Y-98055200D01*
X149421900Y-94303000D02*
X150214100Y-95095200D01*
X135209200Y-94303000D02*
X149421900Y-94303000D01*
X133985000Y-95527200D02*
X135209200Y-94303000D01*
X133985000Y-96140000D02*
X133985000Y-95527200D01*
D19*
X141605000Y-87738300D02*
X142102800Y-88236100D01*
X141605000Y-86740000D02*
X141605000Y-87738300D01*
X177784600Y-73739400D02*
X176594000Y-74930000D01*
X177784600Y-53133600D02*
X177784600Y-73739400D01*
X176594000Y-51943000D02*
X177784600Y-53133600D01*
X142756000Y-88889300D02*
X142102800Y-88236100D01*
X166876800Y-88889300D02*
X142756000Y-88889300D01*
X177769400Y-77996700D02*
X166876800Y-88889300D01*
X177769400Y-76105400D02*
X177769400Y-77996700D01*
X176594000Y-74930000D02*
X177769400Y-76105400D01*
X138068700Y-87013700D02*
X138068700Y-88453600D01*
X137795000Y-86740000D02*
X138068700Y-87013700D01*
X174054000Y-56265700D02*
X174054000Y-74930000D01*
X172845600Y-55057300D02*
X174054000Y-56265700D01*
X172845600Y-53151400D02*
X172845600Y-55057300D01*
X174054000Y-51943000D02*
X172845600Y-53151400D01*
X135255000Y-84912200D02*
X135255000Y-86740000D01*
X142304000Y-77863200D02*
X135255000Y-84912200D01*
X142304000Y-76200000D02*
X142304000Y-77863200D01*
X143574000Y-74930000D02*
X142304000Y-76200000D01*
X151194000Y-77470000D02*
X151194000Y-76833602D01*
X151194000Y-76833602D02*
X149885400Y-75525002D01*
X151194000Y-73049900D02*
X151194000Y-71364900D01*
X149885400Y-74358500D02*
X151194000Y-73049900D01*
X149885400Y-75525002D02*
X149885400Y-74358500D01*
X151194000Y-54483000D02*
X151194000Y-71364900D01*
X136525000Y-87577700D02*
X136525000Y-86740000D01*
X137173400Y-88226100D02*
X136525000Y-87577700D01*
X136525000Y-86189200D02*
X136525000Y-86740000D01*
X143581100Y-79133100D02*
X136525000Y-86189200D01*
X144111600Y-79133100D02*
X143581100Y-79133100D01*
X149840200Y-73743800D02*
X148654000Y-74930000D01*
X149840200Y-53129200D02*
X149840200Y-73743800D01*
X148654000Y-51943000D02*
X149840200Y-53129200D01*
X143790600Y-88239000D02*
X143790600Y-88040400D01*
X144593600Y-88040400D02*
X143790600Y-88040400D01*
X144789600Y-87844400D02*
X144593600Y-88040400D01*
X144789600Y-85630300D02*
X144789600Y-87844400D01*
X149837900Y-80582000D02*
X144789600Y-85630300D01*
X149837900Y-76113900D02*
X149837900Y-80582000D01*
X148654000Y-74930000D02*
X149837900Y-76113900D01*
X142875000Y-87208500D02*
X142875000Y-86740000D01*
X143706900Y-88040400D02*
X142875000Y-87208500D01*
X143790600Y-88040400D02*
X143706900Y-88040400D01*
X157464600Y-76279400D02*
X156274000Y-77470000D01*
X157464600Y-55673600D02*
X157464600Y-76279400D01*
X156274000Y-54483000D02*
X157464600Y-55673600D01*
X144145000Y-85676200D02*
X143654200Y-85185400D01*
X144145000Y-86740000D02*
X144145000Y-85676200D01*
X148654000Y-80185600D02*
X148654000Y-77470000D01*
X143654200Y-85185400D02*
X148654000Y-80185600D01*
X147478600Y-76294600D02*
X148654000Y-77470000D01*
X147478600Y-55658400D02*
X147478600Y-76294600D01*
X148654000Y-54483000D02*
X147478600Y-55658400D01*
X140335000Y-88052600D02*
X141014700Y-88732300D01*
X140335000Y-86740000D02*
X140335000Y-88052600D01*
X180324200Y-73739800D02*
X179134000Y-74930000D01*
X180324200Y-53133200D02*
X180324200Y-73739800D01*
X179134000Y-51943000D02*
X180324200Y-53133200D01*
X141622000Y-89339600D02*
X141014700Y-88732300D01*
X168926800Y-89339600D02*
X141622000Y-89339600D01*
X180324600Y-77941800D02*
X168926800Y-89339600D01*
X180324600Y-76120600D02*
X180324600Y-77941800D01*
X179134000Y-74930000D02*
X180324600Y-76120600D01*
X139065000Y-85140700D02*
X139121700Y-85084000D01*
X139065000Y-86740000D02*
X139065000Y-85140700D01*
X144844000Y-79361700D02*
X139121700Y-85084000D01*
X144844000Y-77022400D02*
X144844000Y-79361700D01*
X146114000Y-75752400D02*
X144844000Y-77022400D01*
X146114000Y-74930000D02*
X146114000Y-75752400D01*
X180329800Y-98513500D02*
X180329800Y-109827400D01*
X179824500Y-98008200D02*
X180329800Y-98513500D01*
X179159800Y-91503100D02*
X178890900Y-91234200D01*
X179159800Y-104265700D02*
X179159800Y-91503100D01*
X179253900Y-104359800D02*
X179159800Y-104265700D01*
X178534500Y-104778800D02*
X178694400Y-104938700D01*
X178534500Y-92387700D02*
X178534500Y-104778800D01*
X175249800Y-106978700D02*
X175249800Y-109827400D01*
X169352200Y-101081100D02*
X175249800Y-106978700D01*
X168417400Y-101081100D02*
X169352200Y-101081100D01*
X153115500Y-93777600D02*
X154198600Y-94860700D01*
X140510100Y-93777600D02*
X153115500Y-93777600D01*
X133985000Y-87252500D02*
X140510100Y-93777600D01*
X133985000Y-86740000D02*
X133985000Y-87252500D01*
X169639400Y-103936900D02*
X168451000Y-103936900D01*
X172709800Y-107007300D02*
X169639400Y-103936900D01*
X172709800Y-109827400D02*
X172709800Y-107007300D01*
X157470300Y-97342700D02*
X156446600Y-98366400D01*
X157470300Y-95037000D02*
X157470300Y-97342700D01*
X157677900Y-94829400D02*
X157470300Y-95037000D01*
X167658600Y-94829400D02*
X157677900Y-94829400D01*
X171343500Y-91144500D02*
X167658600Y-94829400D01*
X171863500Y-91144500D02*
X171343500Y-91144500D01*
X170169800Y-106632900D02*
X170169800Y-109827400D01*
X167658600Y-104121700D02*
X170169800Y-106632900D01*
X167658600Y-94829400D02*
X167658600Y-104121700D01*
X167629800Y-106818400D02*
X167629800Y-109827400D01*
X165735000Y-104923600D02*
X167629800Y-106818400D01*
X165735000Y-96140000D02*
X165735000Y-104923600D01*
X167005000Y-104769800D02*
X167005800Y-104770600D01*
X167005000Y-96140000D02*
X167005000Y-104769800D01*
X164465000Y-109202600D02*
X165089800Y-109827400D01*
X164465000Y-96140000D02*
X164465000Y-109202600D01*
X163195000Y-102918600D02*
X163337800Y-103061400D01*
X163195000Y-96140000D02*
X163195000Y-102918600D01*
X162078700Y-109356300D02*
X162549800Y-109827400D01*
X162078700Y-103149400D02*
X162078700Y-109356300D01*
X148745800Y-102799100D02*
X146878800Y-104666100D01*
X151186900Y-102799100D02*
X148745800Y-102799100D01*
X160994600Y-108842600D02*
X160009800Y-109827400D01*
X160994600Y-101605800D02*
X160994600Y-108842600D01*
X161925000Y-100675400D02*
X160994600Y-101605800D01*
X161925000Y-96140000D02*
X161925000Y-100675400D01*
X160339000Y-96456000D02*
X160339000Y-105190700D01*
X160655000Y-96140000D02*
X160339000Y-96456000D01*
X157469800Y-106707900D02*
X157469800Y-109827400D01*
X159385000Y-104792700D02*
X157469800Y-106707900D01*
X159385000Y-96140000D02*
X159385000Y-104792700D01*
X158115000Y-104750300D02*
X158176500Y-104811800D01*
X158115000Y-96140000D02*
X158115000Y-104750300D01*
X146749200Y-97426000D02*
X146491100Y-97426000D01*
X154929800Y-105606600D02*
X146749200Y-97426000D01*
X154929800Y-109827400D02*
X154929800Y-105606600D01*
X152389800Y-106432000D02*
X152389800Y-109827400D01*
X149699100Y-103741300D02*
X152389800Y-106432000D01*
X149849800Y-105890300D02*
X149849800Y-109827400D01*
X148273700Y-104314200D02*
X149849800Y-105890300D01*
X145995200Y-108512800D02*
X147309800Y-109827400D01*
X145995200Y-104348200D02*
X145995200Y-108512800D01*
X145415000Y-103768000D02*
X145995200Y-104348200D01*
X145415000Y-96140000D02*
X145415000Y-103768000D01*
X144145000Y-103629000D02*
X144963900Y-104447900D01*
X144145000Y-96140000D02*
X144145000Y-103629000D01*
X144769800Y-105138200D02*
X144769800Y-109827400D01*
X142875000Y-103243400D02*
X144769800Y-105138200D01*
X142875000Y-96140000D02*
X142875000Y-103243400D01*
X141605000Y-103264600D02*
X142954700Y-104614300D01*
X141605000Y-96140000D02*
X141605000Y-103264600D01*
X142229800Y-105178100D02*
X142229800Y-109827400D01*
X140335000Y-103283300D02*
X142229800Y-105178100D01*
X140335000Y-96140000D02*
X140335000Y-103283300D01*
X139065000Y-102907900D02*
X140732100Y-104575000D01*
X139065000Y-96140000D02*
X139065000Y-102907900D01*
X139689800Y-104284300D02*
X139689800Y-109827400D01*
X137795000Y-102389500D02*
X139689800Y-104284300D01*
X137795000Y-96140000D02*
X137795000Y-102389500D01*
X137078100Y-96693100D02*
X137078100Y-101086800D01*
X136525000Y-96140000D02*
X137078100Y-96693100D01*
X146062200Y-89789900D02*
X145774200Y-90077900D01*
X170128000Y-89789900D02*
X146062200Y-89789900D01*
X170689900Y-89228000D02*
X170128000Y-89789900D01*
X134763400Y-76279400D02*
X135954000Y-77470000D01*
X134763400Y-55673600D02*
X134763400Y-76279400D01*
X135954000Y-54483000D02*
X134763400Y-55673600D01*
X162544600Y-76279400D02*
X161354000Y-77470000D01*
X162544600Y-55673600D02*
X162544600Y-76279400D01*
X161354000Y-54483000D02*
X162544600Y-55673600D01*
X158740400Y-86095400D02*
X159385000Y-86740000D01*
X158740400Y-82476400D02*
X158740400Y-86095400D01*
X153734000Y-77470000D02*
X158740400Y-82476400D01*
X154914100Y-76289900D02*
X153734000Y-77470000D01*
X154914100Y-55663100D02*
X154914100Y-76289900D01*
X153734000Y-54483000D02*
X154914100Y-55663100D01*
X161925000Y-85565900D02*
X161925000Y-86740000D01*
X161534800Y-85175700D02*
X161925000Y-85565900D01*
X160084000Y-76200000D02*
X158814000Y-74930000D01*
X160084000Y-83724900D02*
X160084000Y-76200000D01*
X161534800Y-85175700D02*
X160084000Y-83724900D01*
X159989400Y-73754600D02*
X158814000Y-74930000D01*
X159989400Y-53118400D02*
X159989400Y-73754600D01*
X158814000Y-51943000D02*
X159989400Y-53118400D01*
X163195000Y-85217000D02*
X163175800Y-85197800D01*
X163195000Y-86740000D02*
X163195000Y-85217000D01*
X153734000Y-56557400D02*
X153734000Y-74930000D01*
X152556700Y-55380100D02*
X153734000Y-56557400D01*
X152556700Y-53120300D02*
X152556700Y-55380100D01*
X153734000Y-51943000D02*
X152556700Y-53120300D01*
X172704600Y-76279400D02*
X171514000Y-77470000D01*
X172704600Y-55673600D02*
X172704600Y-76279400D01*
X171514000Y-54483000D02*
X172704600Y-55673600D01*
X165735000Y-83249000D02*
X165735000Y-86740000D01*
X171514000Y-77470000D02*
X165735000Y-83249000D01*
X137303400Y-76279400D02*
X138494000Y-77470000D01*
X137303400Y-55673600D02*
X137303400Y-76279400D01*
X138494000Y-54483000D02*
X137303400Y-55673600D01*
X168974000Y-51943000D02*
X170149400Y-53118400D01*
X170149400Y-73754600D02*
X168974000Y-74930000D01*
X170149400Y-53118400D02*
X170149400Y-73754600D01*
X156845000Y-95009300D02*
X156845000Y-96140000D01*
X160725700Y-91128600D02*
X156845000Y-95009300D01*
X169688200Y-91128600D02*
X160725700Y-91128600D01*
X183469900Y-77346900D02*
X169688200Y-91128600D01*
X183469900Y-51520300D02*
X183469900Y-77346900D01*
X182716800Y-50767200D02*
X183469900Y-51520300D01*
X173545300Y-50767200D02*
X182716800Y-50767200D01*
X172784000Y-51528500D02*
X173545300Y-50767200D01*
X172784000Y-52352400D02*
X172784000Y-51528500D01*
X172018000Y-53118400D02*
X172784000Y-52352400D01*
X170149400Y-53118400D02*
X172018000Y-53118400D01*
X135255000Y-95648100D02*
X135255000Y-96140000D01*
X136063500Y-94839600D02*
X135255000Y-95648100D01*
X147734300Y-94839600D02*
X136063500Y-94839600D01*
X150350300Y-97455600D02*
X147734300Y-94839600D01*
X156015600Y-97455600D02*
X150350300Y-97455600D01*
X156845000Y-96626200D02*
X156015600Y-97455600D01*
X156845000Y-96140000D02*
X156845000Y-96626200D01*
X159996500Y-85279500D02*
X160655000Y-85938000D01*
X160655000Y-85938000D02*
X160655000Y-86740000D01*
X164465000Y-85135900D02*
X164465000Y-86740000D01*
X164542900Y-85058000D02*
X164465000Y-85135900D01*
X142224600Y-73739400D02*
X141034000Y-74930000D01*
X142224600Y-53133600D02*
X142224600Y-73739400D01*
X141034000Y-51943000D02*
X142224600Y-53133600D01*
X156845000Y-87495100D02*
X156138800Y-88201300D01*
X156845000Y-86740000D02*
X156845000Y-87495100D01*
X175244600Y-76279400D02*
X174054000Y-77470000D01*
X175244600Y-55673600D02*
X175244600Y-76279400D01*
X174054000Y-54483000D02*
X175244600Y-55673600D01*
X158982200Y-88246700D02*
X158982200Y-88040400D01*
X166198600Y-88040400D02*
X158982200Y-88040400D01*
X166379600Y-87859400D02*
X166198600Y-88040400D01*
X166379600Y-85144400D02*
X166379600Y-87859400D01*
X174054000Y-77470000D02*
X166379600Y-85144400D01*
X158115000Y-87231900D02*
X158115000Y-86740000D01*
X158923500Y-88040400D02*
X158115000Y-87231900D01*
X158982200Y-88040400D02*
X158923500Y-88040400D01*
X163894000Y-56265700D02*
X163894000Y-74930000D01*
X162685600Y-55057300D02*
X163894000Y-56265700D01*
X162685600Y-53151400D02*
X162685600Y-55057300D01*
X163894000Y-51943000D02*
X162685600Y-53151400D01*
X165074100Y-76289900D02*
X163894000Y-77470000D01*
X165074100Y-55663100D02*
X165074100Y-76289900D01*
X163894000Y-54483000D02*
X165074100Y-55663100D01*
X177789800Y-106630000D02*
X177789800Y-109827400D01*
X168349000Y-97189200D02*
X177789800Y-106630000D01*
X130730000Y-66040000D02*
X128190000Y-68580000D01*
X130790000Y-66040000D02*
X130730000Y-66040000D01*
X126608900Y-109446500D02*
X126989800Y-109827400D01*
X126608900Y-70161100D02*
X126608900Y-109446500D01*
X128190000Y-68580000D02*
X126608900Y-70161100D01*
X128290000Y-61060000D02*
X128290000Y-63500000D01*
X128190000Y-60960000D02*
X128290000Y-61060000D01*
X128290000Y-66040000D02*
X128290000Y-63500000D01*
X167783400Y-76279400D02*
X168974000Y-77470000D01*
X167783400Y-55673600D02*
X167783400Y-76279400D01*
X168974000Y-54483000D02*
X167783400Y-55673600D01*
X139684600Y-73739400D02*
X138494000Y-74930000D01*
X139684600Y-53974500D02*
X139684600Y-73739400D01*
X138073600Y-52363400D02*
X139684600Y-53974500D01*
X137224000Y-53213000D02*
X138073600Y-52363400D01*
X132952200Y-53213000D02*
X137224000Y-53213000D01*
X130890000Y-55275200D02*
X132952200Y-53213000D01*
X130890000Y-60960000D02*
X130890000Y-55275200D01*
X138073600Y-52363400D02*
X138494000Y-51943000D01*
X132220000Y-76276000D02*
X133414000Y-77470000D01*
X132220000Y-55677000D02*
X132220000Y-76276000D01*
X133414000Y-54483000D02*
X132220000Y-55677000D01*
D21*
G36*
X135973110Y-97711431D02*
X136225000Y-97762440D01*
X136318100Y-97762440D01*
X136318100Y-100524337D01*
X136285908Y-100556473D01*
X136143262Y-100900001D01*
X136142938Y-101271967D01*
X136284983Y-101615743D01*
X136547773Y-101878992D01*
X136891301Y-102021638D01*
X137035000Y-102021763D01*
X137035000Y-102389500D01*
X137092852Y-102680339D01*
X137257599Y-102926901D01*
X138929800Y-104599102D01*
X138929800Y-105180000D01*
X138789840Y-105180000D01*
X138554523Y-105224278D01*
X138426855Y-105306430D01*
X138409538Y-105289113D01*
X138176149Y-105192440D01*
X137435590Y-105192440D01*
X137276840Y-105351190D01*
X137276840Y-109700440D01*
X137296840Y-109700440D01*
X137296840Y-109954440D01*
X137276840Y-109954440D01*
X137276840Y-109974440D01*
X137022840Y-109974440D01*
X137022840Y-109954440D01*
X134736840Y-109954440D01*
X134736840Y-109974440D01*
X134482840Y-109974440D01*
X134482840Y-109954440D01*
X134462840Y-109954440D01*
X134462840Y-109700440D01*
X134482840Y-109700440D01*
X134482840Y-105351190D01*
X134736840Y-105351190D01*
X134736840Y-109700440D01*
X137022840Y-109700440D01*
X137022840Y-105351190D01*
X136864090Y-105192440D01*
X136123531Y-105192440D01*
X135890142Y-105289113D01*
X135879840Y-105299415D01*
X135869538Y-105289113D01*
X135636149Y-105192440D01*
X134895590Y-105192440D01*
X134736840Y-105351190D01*
X134482840Y-105351190D01*
X134324090Y-105192440D01*
X133583531Y-105192440D01*
X133350142Y-105289113D01*
X133332536Y-105306719D01*
X133221730Y-105231009D01*
X132969840Y-105180000D01*
X132904800Y-105180000D01*
X132904800Y-98401068D01*
X133567269Y-97738599D01*
X133685000Y-97762440D01*
X134285000Y-97762440D01*
X134520317Y-97718162D01*
X134619528Y-97654322D01*
X134703110Y-97711431D01*
X134955000Y-97762440D01*
X135555000Y-97762440D01*
X135790317Y-97718162D01*
X135889528Y-97654322D01*
X135973110Y-97711431D01*
X135973110Y-97711431D01*
G37*
X135973110Y-97711431D02*
X136225000Y-97762440D01*
X136318100Y-97762440D01*
X136318100Y-100524337D01*
X136285908Y-100556473D01*
X136143262Y-100900001D01*
X136142938Y-101271967D01*
X136284983Y-101615743D01*
X136547773Y-101878992D01*
X136891301Y-102021638D01*
X137035000Y-102021763D01*
X137035000Y-102389500D01*
X137092852Y-102680339D01*
X137257599Y-102926901D01*
X138929800Y-104599102D01*
X138929800Y-105180000D01*
X138789840Y-105180000D01*
X138554523Y-105224278D01*
X138426855Y-105306430D01*
X138409538Y-105289113D01*
X138176149Y-105192440D01*
X137435590Y-105192440D01*
X137276840Y-105351190D01*
X137276840Y-109700440D01*
X137296840Y-109700440D01*
X137296840Y-109954440D01*
X137276840Y-109954440D01*
X137276840Y-109974440D01*
X137022840Y-109974440D01*
X137022840Y-109954440D01*
X134736840Y-109954440D01*
X134736840Y-109974440D01*
X134482840Y-109974440D01*
X134482840Y-109954440D01*
X134462840Y-109954440D01*
X134462840Y-109700440D01*
X134482840Y-109700440D01*
X134482840Y-105351190D01*
X134736840Y-105351190D01*
X134736840Y-109700440D01*
X137022840Y-109700440D01*
X137022840Y-105351190D01*
X136864090Y-105192440D01*
X136123531Y-105192440D01*
X135890142Y-105289113D01*
X135879840Y-105299415D01*
X135869538Y-105289113D01*
X135636149Y-105192440D01*
X134895590Y-105192440D01*
X134736840Y-105351190D01*
X134482840Y-105351190D01*
X134324090Y-105192440D01*
X133583531Y-105192440D01*
X133350142Y-105289113D01*
X133332536Y-105306719D01*
X133221730Y-105231009D01*
X132969840Y-105180000D01*
X132904800Y-105180000D01*
X132904800Y-98401068D01*
X133567269Y-97738599D01*
X133685000Y-97762440D01*
X134285000Y-97762440D01*
X134520317Y-97718162D01*
X134619528Y-97654322D01*
X134703110Y-97711431D01*
X134955000Y-97762440D01*
X135555000Y-97762440D01*
X135790317Y-97718162D01*
X135889528Y-97654322D01*
X135973110Y-97711431D01*
G36*
X189098277Y-50412811D02*
X189234241Y-50503658D01*
X189325089Y-50639622D01*
X189370900Y-50869931D01*
X189370900Y-105464533D01*
X189313930Y-105375999D01*
X189101730Y-105231009D01*
X188849840Y-105180000D01*
X187049840Y-105180000D01*
X186814523Y-105224278D01*
X186679263Y-105311316D01*
X186561730Y-105231009D01*
X186309840Y-105180000D01*
X184509840Y-105180000D01*
X184274523Y-105224278D01*
X184139263Y-105311316D01*
X184021730Y-105231009D01*
X183769840Y-105180000D01*
X181969840Y-105180000D01*
X181734523Y-105224278D01*
X181599263Y-105311316D01*
X181481730Y-105231009D01*
X181229840Y-105180000D01*
X181089800Y-105180000D01*
X181089800Y-98894900D01*
X182375734Y-98894900D01*
X182601665Y-100030730D01*
X183245060Y-100993640D01*
X184207970Y-101637035D01*
X185343800Y-101862966D01*
X186479630Y-101637035D01*
X187442540Y-100993640D01*
X188085935Y-100030730D01*
X188311866Y-98894900D01*
X188085935Y-97759070D01*
X187442540Y-96796160D01*
X186479630Y-96152765D01*
X185343800Y-95926834D01*
X184207970Y-96152765D01*
X183245060Y-96796160D01*
X182601665Y-97759070D01*
X182375734Y-98894900D01*
X181089800Y-98894900D01*
X181089800Y-98513500D01*
X181031948Y-98222661D01*
X180867201Y-97976099D01*
X180759622Y-97868520D01*
X180759662Y-97823033D01*
X180617617Y-97479257D01*
X180354827Y-97216008D01*
X180011299Y-97073362D01*
X179919800Y-97073282D01*
X179919800Y-91503100D01*
X179861948Y-91212261D01*
X179825967Y-91158411D01*
X179826062Y-91049033D01*
X179684017Y-90705257D01*
X179421227Y-90442008D01*
X179077699Y-90299362D01*
X178705733Y-90299038D01*
X178361957Y-90441083D01*
X178098708Y-90703873D01*
X177956062Y-91047401D01*
X177955738Y-91419367D01*
X178024843Y-91586614D01*
X178005557Y-91594583D01*
X177742308Y-91857373D01*
X177599662Y-92200901D01*
X177599338Y-92572867D01*
X177741383Y-92916643D01*
X177774500Y-92949818D01*
X177774500Y-104715926D01*
X177759562Y-104751901D01*
X177759238Y-105123867D01*
X177782432Y-105180000D01*
X177414602Y-105180000D01*
X169284122Y-97049520D01*
X169284162Y-97004033D01*
X169142117Y-96660257D01*
X168879327Y-96397008D01*
X168535799Y-96254362D01*
X168418600Y-96254260D01*
X168418600Y-95144202D01*
X171540161Y-92022641D01*
X171676701Y-92079338D01*
X172048667Y-92079662D01*
X172392443Y-91937617D01*
X172655692Y-91674827D01*
X172798338Y-91331299D01*
X172798662Y-90959333D01*
X172656617Y-90615557D01*
X172393827Y-90352308D01*
X172050299Y-90209662D01*
X171682261Y-90209341D01*
X184007301Y-77884301D01*
X184172048Y-77637739D01*
X184229900Y-77346900D01*
X184229900Y-76262121D01*
X184327620Y-76262121D01*
X184364793Y-76449003D01*
X184364630Y-76635815D01*
X184436599Y-76809992D01*
X184492945Y-77093263D01*
X184652005Y-77331313D01*
X184688980Y-77420800D01*
X184757988Y-77489929D01*
X184963749Y-77797872D01*
X185269003Y-78001836D01*
X185289041Y-78021909D01*
X185315467Y-78032882D01*
X185668358Y-78268676D01*
X186499500Y-78434001D01*
X187330642Y-78268676D01*
X187678965Y-78035935D01*
X187707800Y-78024020D01*
X187730075Y-78001784D01*
X188035251Y-77797872D01*
X188237382Y-77495362D01*
X188308909Y-77423959D01*
X188348009Y-77329796D01*
X188506055Y-77093263D01*
X188561069Y-76816691D01*
X188634628Y-76639541D01*
X188634797Y-76446035D01*
X188671380Y-76262121D01*
X188635117Y-76079815D01*
X188635370Y-75790185D01*
X188523791Y-75520144D01*
X188506055Y-75430979D01*
X188455988Y-75356048D01*
X188311020Y-75005200D01*
X188040463Y-74734171D01*
X188035251Y-74726370D01*
X188027518Y-74721203D01*
X187710959Y-74404091D01*
X186926541Y-74078372D01*
X186077185Y-74077630D01*
X185292200Y-74401980D01*
X184974317Y-74719309D01*
X184963749Y-74726370D01*
X184956749Y-74736846D01*
X184691091Y-75002041D01*
X184545871Y-75351770D01*
X184492945Y-75430979D01*
X184474522Y-75523596D01*
X184365372Y-75786459D01*
X184365121Y-76073591D01*
X184327620Y-76262121D01*
X184229900Y-76262121D01*
X184229900Y-53635815D01*
X184364630Y-53635815D01*
X184688980Y-54420800D01*
X185289041Y-55021909D01*
X186073459Y-55347628D01*
X186922815Y-55348370D01*
X187707800Y-55024020D01*
X188308909Y-54423959D01*
X188634628Y-53639541D01*
X188635370Y-52790185D01*
X188311020Y-52005200D01*
X187710959Y-51404091D01*
X186926541Y-51078372D01*
X186077185Y-51077630D01*
X185292200Y-51401980D01*
X184691091Y-52002041D01*
X184365372Y-52786459D01*
X184364630Y-53635815D01*
X184229900Y-53635815D01*
X184229900Y-51520300D01*
X184206784Y-51404091D01*
X184172048Y-51229460D01*
X184007301Y-50982899D01*
X183391402Y-50367000D01*
X188867973Y-50367000D01*
X189098277Y-50412811D01*
X189098277Y-50412811D01*
G37*
X189098277Y-50412811D02*
X189234241Y-50503658D01*
X189325089Y-50639622D01*
X189370900Y-50869931D01*
X189370900Y-105464533D01*
X189313930Y-105375999D01*
X189101730Y-105231009D01*
X188849840Y-105180000D01*
X187049840Y-105180000D01*
X186814523Y-105224278D01*
X186679263Y-105311316D01*
X186561730Y-105231009D01*
X186309840Y-105180000D01*
X184509840Y-105180000D01*
X184274523Y-105224278D01*
X184139263Y-105311316D01*
X184021730Y-105231009D01*
X183769840Y-105180000D01*
X181969840Y-105180000D01*
X181734523Y-105224278D01*
X181599263Y-105311316D01*
X181481730Y-105231009D01*
X181229840Y-105180000D01*
X181089800Y-105180000D01*
X181089800Y-98894900D01*
X182375734Y-98894900D01*
X182601665Y-100030730D01*
X183245060Y-100993640D01*
X184207970Y-101637035D01*
X185343800Y-101862966D01*
X186479630Y-101637035D01*
X187442540Y-100993640D01*
X188085935Y-100030730D01*
X188311866Y-98894900D01*
X188085935Y-97759070D01*
X187442540Y-96796160D01*
X186479630Y-96152765D01*
X185343800Y-95926834D01*
X184207970Y-96152765D01*
X183245060Y-96796160D01*
X182601665Y-97759070D01*
X182375734Y-98894900D01*
X181089800Y-98894900D01*
X181089800Y-98513500D01*
X181031948Y-98222661D01*
X180867201Y-97976099D01*
X180759622Y-97868520D01*
X180759662Y-97823033D01*
X180617617Y-97479257D01*
X180354827Y-97216008D01*
X180011299Y-97073362D01*
X179919800Y-97073282D01*
X179919800Y-91503100D01*
X179861948Y-91212261D01*
X179825967Y-91158411D01*
X179826062Y-91049033D01*
X179684017Y-90705257D01*
X179421227Y-90442008D01*
X179077699Y-90299362D01*
X178705733Y-90299038D01*
X178361957Y-90441083D01*
X178098708Y-90703873D01*
X177956062Y-91047401D01*
X177955738Y-91419367D01*
X178024843Y-91586614D01*
X178005557Y-91594583D01*
X177742308Y-91857373D01*
X177599662Y-92200901D01*
X177599338Y-92572867D01*
X177741383Y-92916643D01*
X177774500Y-92949818D01*
X177774500Y-104715926D01*
X177759562Y-104751901D01*
X177759238Y-105123867D01*
X177782432Y-105180000D01*
X177414602Y-105180000D01*
X169284122Y-97049520D01*
X169284162Y-97004033D01*
X169142117Y-96660257D01*
X168879327Y-96397008D01*
X168535799Y-96254362D01*
X168418600Y-96254260D01*
X168418600Y-95144202D01*
X171540161Y-92022641D01*
X171676701Y-92079338D01*
X172048667Y-92079662D01*
X172392443Y-91937617D01*
X172655692Y-91674827D01*
X172798338Y-91331299D01*
X172798662Y-90959333D01*
X172656617Y-90615557D01*
X172393827Y-90352308D01*
X172050299Y-90209662D01*
X171682261Y-90209341D01*
X184007301Y-77884301D01*
X184172048Y-77637739D01*
X184229900Y-77346900D01*
X184229900Y-76262121D01*
X184327620Y-76262121D01*
X184364793Y-76449003D01*
X184364630Y-76635815D01*
X184436599Y-76809992D01*
X184492945Y-77093263D01*
X184652005Y-77331313D01*
X184688980Y-77420800D01*
X184757988Y-77489929D01*
X184963749Y-77797872D01*
X185269003Y-78001836D01*
X185289041Y-78021909D01*
X185315467Y-78032882D01*
X185668358Y-78268676D01*
X186499500Y-78434001D01*
X187330642Y-78268676D01*
X187678965Y-78035935D01*
X187707800Y-78024020D01*
X187730075Y-78001784D01*
X188035251Y-77797872D01*
X188237382Y-77495362D01*
X188308909Y-77423959D01*
X188348009Y-77329796D01*
X188506055Y-77093263D01*
X188561069Y-76816691D01*
X188634628Y-76639541D01*
X188634797Y-76446035D01*
X188671380Y-76262121D01*
X188635117Y-76079815D01*
X188635370Y-75790185D01*
X188523791Y-75520144D01*
X188506055Y-75430979D01*
X188455988Y-75356048D01*
X188311020Y-75005200D01*
X188040463Y-74734171D01*
X188035251Y-74726370D01*
X188027518Y-74721203D01*
X187710959Y-74404091D01*
X186926541Y-74078372D01*
X186077185Y-74077630D01*
X185292200Y-74401980D01*
X184974317Y-74719309D01*
X184963749Y-74726370D01*
X184956749Y-74736846D01*
X184691091Y-75002041D01*
X184545871Y-75351770D01*
X184492945Y-75430979D01*
X184474522Y-75523596D01*
X184365372Y-75786459D01*
X184365121Y-76073591D01*
X184327620Y-76262121D01*
X184229900Y-76262121D01*
X184229900Y-53635815D01*
X184364630Y-53635815D01*
X184688980Y-54420800D01*
X185289041Y-55021909D01*
X186073459Y-55347628D01*
X186922815Y-55348370D01*
X187707800Y-55024020D01*
X188308909Y-54423959D01*
X188634628Y-53639541D01*
X188635370Y-52790185D01*
X188311020Y-52005200D01*
X187710959Y-51404091D01*
X186926541Y-51078372D01*
X186077185Y-51077630D01*
X185292200Y-51401980D01*
X184691091Y-52002041D01*
X184365372Y-52786459D01*
X184364630Y-53635815D01*
X184229900Y-53635815D01*
X184229900Y-51520300D01*
X184206784Y-51404091D01*
X184172048Y-51229460D01*
X184007301Y-50982899D01*
X183391402Y-50367000D01*
X188867973Y-50367000D01*
X189098277Y-50412811D01*
G36*
X172430254Y-50807444D02*
X172280924Y-50671355D01*
X171870890Y-50501524D01*
X171641000Y-50622845D01*
X171641000Y-51816000D01*
X171661000Y-51816000D01*
X171661000Y-52070000D01*
X171641000Y-52070000D01*
X171641000Y-52090000D01*
X171387000Y-52090000D01*
X171387000Y-52070000D01*
X171367000Y-52070000D01*
X171367000Y-51816000D01*
X171387000Y-51816000D01*
X171387000Y-50622845D01*
X171157110Y-50501524D01*
X170747076Y-50671355D01*
X170318817Y-51061642D01*
X170251702Y-51204553D01*
X170024054Y-50863853D01*
X169542285Y-50541946D01*
X168974000Y-50428907D01*
X168405715Y-50541946D01*
X167923946Y-50863853D01*
X167704000Y-51193026D01*
X167484054Y-50863853D01*
X167002285Y-50541946D01*
X166434000Y-50428907D01*
X165865715Y-50541946D01*
X165383946Y-50863853D01*
X165164000Y-51193026D01*
X164944054Y-50863853D01*
X164462285Y-50541946D01*
X163894000Y-50428907D01*
X163325715Y-50541946D01*
X162843946Y-50863853D01*
X162624000Y-51193026D01*
X162404054Y-50863853D01*
X161922285Y-50541946D01*
X161354000Y-50428907D01*
X160785715Y-50541946D01*
X160303946Y-50863853D01*
X160084000Y-51193026D01*
X159864054Y-50863853D01*
X159382285Y-50541946D01*
X158814000Y-50428907D01*
X158245715Y-50541946D01*
X157763946Y-50863853D01*
X157544000Y-51193026D01*
X157324054Y-50863853D01*
X156842285Y-50541946D01*
X156274000Y-50428907D01*
X155705715Y-50541946D01*
X155223946Y-50863853D01*
X155004000Y-51193026D01*
X154784054Y-50863853D01*
X154302285Y-50541946D01*
X153734000Y-50428907D01*
X153165715Y-50541946D01*
X152683946Y-50863853D01*
X152456298Y-51204553D01*
X152389183Y-51061642D01*
X151960924Y-50671355D01*
X151550890Y-50501524D01*
X151321000Y-50622845D01*
X151321000Y-51816000D01*
X151341000Y-51816000D01*
X151341000Y-52070000D01*
X151321000Y-52070000D01*
X151321000Y-52090000D01*
X151067000Y-52090000D01*
X151067000Y-52070000D01*
X151047000Y-52070000D01*
X151047000Y-51816000D01*
X151067000Y-51816000D01*
X151067000Y-50622845D01*
X150837110Y-50501524D01*
X150427076Y-50671355D01*
X149998817Y-51061642D01*
X149931702Y-51204553D01*
X149704054Y-50863853D01*
X149222285Y-50541946D01*
X148654000Y-50428907D01*
X148085715Y-50541946D01*
X147603946Y-50863853D01*
X147384000Y-51193026D01*
X147164054Y-50863853D01*
X146682285Y-50541946D01*
X146114000Y-50428907D01*
X145545715Y-50541946D01*
X145063946Y-50863853D01*
X144844000Y-51193026D01*
X144624054Y-50863853D01*
X144142285Y-50541946D01*
X143574000Y-50428907D01*
X143005715Y-50541946D01*
X142523946Y-50863853D01*
X142304000Y-51193026D01*
X142084054Y-50863853D01*
X141602285Y-50541946D01*
X141034000Y-50428907D01*
X140465715Y-50541946D01*
X139983946Y-50863853D01*
X139764000Y-51193026D01*
X139544054Y-50863853D01*
X139062285Y-50541946D01*
X138494000Y-50428907D01*
X137925715Y-50541946D01*
X137443946Y-50863853D01*
X137224000Y-51193026D01*
X137004054Y-50863853D01*
X136522285Y-50541946D01*
X135954000Y-50428907D01*
X135385715Y-50541946D01*
X134903946Y-50863853D01*
X134676298Y-51204553D01*
X134609183Y-51061642D01*
X134180924Y-50671355D01*
X133770890Y-50501524D01*
X133541000Y-50622845D01*
X133541000Y-51816000D01*
X133561000Y-51816000D01*
X133561000Y-52070000D01*
X133541000Y-52070000D01*
X133541000Y-52090000D01*
X133287000Y-52090000D01*
X133287000Y-52070000D01*
X132093181Y-52070000D01*
X131972514Y-52299892D01*
X132218817Y-52824358D01*
X132243524Y-52846874D01*
X130352599Y-54737799D01*
X130187852Y-54984361D01*
X130130000Y-55275200D01*
X130130000Y-59664442D01*
X129904683Y-59706838D01*
X129688559Y-59845910D01*
X129543569Y-60058110D01*
X129540919Y-60071197D01*
X129404090Y-59858559D01*
X129191890Y-59713569D01*
X128940000Y-59662560D01*
X127440000Y-59662560D01*
X127204683Y-59706838D01*
X126988559Y-59845910D01*
X126843569Y-60058110D01*
X126792560Y-60310000D01*
X126792560Y-61610000D01*
X126836838Y-61845317D01*
X126975910Y-62061441D01*
X127188110Y-62206431D01*
X127411680Y-62251705D01*
X127304683Y-62271838D01*
X127088559Y-62410910D01*
X126943569Y-62623110D01*
X126892560Y-62875000D01*
X126892560Y-64125000D01*
X126936838Y-64360317D01*
X127075910Y-64576441D01*
X127288110Y-64721431D01*
X127527509Y-64769910D01*
X127304683Y-64811838D01*
X127088559Y-64950910D01*
X126943569Y-65163110D01*
X126892560Y-65415000D01*
X126892560Y-66665000D01*
X126936838Y-66900317D01*
X127075910Y-67116441D01*
X127288110Y-67261431D01*
X127415351Y-67287198D01*
X127204683Y-67326838D01*
X126988559Y-67465910D01*
X126843569Y-67678110D01*
X126792560Y-67930000D01*
X126792560Y-68902638D01*
X126071499Y-69623699D01*
X125906752Y-69870261D01*
X125848900Y-70161100D01*
X125848900Y-105227896D01*
X125652600Y-105354212D01*
X125652600Y-53635815D01*
X126364630Y-53635815D01*
X126688980Y-54420800D01*
X127289041Y-55021909D01*
X128073459Y-55347628D01*
X128922815Y-55348370D01*
X129707800Y-55024020D01*
X130308909Y-54423959D01*
X130634628Y-53639541D01*
X130635370Y-52790185D01*
X130311020Y-52005200D01*
X129892659Y-51586108D01*
X131972514Y-51586108D01*
X132093181Y-51816000D01*
X133287000Y-51816000D01*
X133287000Y-50622845D01*
X133057110Y-50501524D01*
X132647076Y-50671355D01*
X132218817Y-51061642D01*
X131972514Y-51586108D01*
X129892659Y-51586108D01*
X129710959Y-51404091D01*
X128926541Y-51078372D01*
X128077185Y-51077630D01*
X127292200Y-51401980D01*
X126691091Y-52002041D01*
X126365372Y-52786459D01*
X126364630Y-53635815D01*
X125652600Y-53635815D01*
X125652600Y-50869927D01*
X125698411Y-50639623D01*
X125789258Y-50503659D01*
X125925222Y-50412811D01*
X126155531Y-50367000D01*
X172870698Y-50367000D01*
X172430254Y-50807444D01*
X172430254Y-50807444D01*
G37*
X172430254Y-50807444D02*
X172280924Y-50671355D01*
X171870890Y-50501524D01*
X171641000Y-50622845D01*
X171641000Y-51816000D01*
X171661000Y-51816000D01*
X171661000Y-52070000D01*
X171641000Y-52070000D01*
X171641000Y-52090000D01*
X171387000Y-52090000D01*
X171387000Y-52070000D01*
X171367000Y-52070000D01*
X171367000Y-51816000D01*
X171387000Y-51816000D01*
X171387000Y-50622845D01*
X171157110Y-50501524D01*
X170747076Y-50671355D01*
X170318817Y-51061642D01*
X170251702Y-51204553D01*
X170024054Y-50863853D01*
X169542285Y-50541946D01*
X168974000Y-50428907D01*
X168405715Y-50541946D01*
X167923946Y-50863853D01*
X167704000Y-51193026D01*
X167484054Y-50863853D01*
X167002285Y-50541946D01*
X166434000Y-50428907D01*
X165865715Y-50541946D01*
X165383946Y-50863853D01*
X165164000Y-51193026D01*
X164944054Y-50863853D01*
X164462285Y-50541946D01*
X163894000Y-50428907D01*
X163325715Y-50541946D01*
X162843946Y-50863853D01*
X162624000Y-51193026D01*
X162404054Y-50863853D01*
X161922285Y-50541946D01*
X161354000Y-50428907D01*
X160785715Y-50541946D01*
X160303946Y-50863853D01*
X160084000Y-51193026D01*
X159864054Y-50863853D01*
X159382285Y-50541946D01*
X158814000Y-50428907D01*
X158245715Y-50541946D01*
X157763946Y-50863853D01*
X157544000Y-51193026D01*
X157324054Y-50863853D01*
X156842285Y-50541946D01*
X156274000Y-50428907D01*
X155705715Y-50541946D01*
X155223946Y-50863853D01*
X155004000Y-51193026D01*
X154784054Y-50863853D01*
X154302285Y-50541946D01*
X153734000Y-50428907D01*
X153165715Y-50541946D01*
X152683946Y-50863853D01*
X152456298Y-51204553D01*
X152389183Y-51061642D01*
X151960924Y-50671355D01*
X151550890Y-50501524D01*
X151321000Y-50622845D01*
X151321000Y-51816000D01*
X151341000Y-51816000D01*
X151341000Y-52070000D01*
X151321000Y-52070000D01*
X151321000Y-52090000D01*
X151067000Y-52090000D01*
X151067000Y-52070000D01*
X151047000Y-52070000D01*
X151047000Y-51816000D01*
X151067000Y-51816000D01*
X151067000Y-50622845D01*
X150837110Y-50501524D01*
X150427076Y-50671355D01*
X149998817Y-51061642D01*
X149931702Y-51204553D01*
X149704054Y-50863853D01*
X149222285Y-50541946D01*
X148654000Y-50428907D01*
X148085715Y-50541946D01*
X147603946Y-50863853D01*
X147384000Y-51193026D01*
X147164054Y-50863853D01*
X146682285Y-50541946D01*
X146114000Y-50428907D01*
X145545715Y-50541946D01*
X145063946Y-50863853D01*
X144844000Y-51193026D01*
X144624054Y-50863853D01*
X144142285Y-50541946D01*
X143574000Y-50428907D01*
X143005715Y-50541946D01*
X142523946Y-50863853D01*
X142304000Y-51193026D01*
X142084054Y-50863853D01*
X141602285Y-50541946D01*
X141034000Y-50428907D01*
X140465715Y-50541946D01*
X139983946Y-50863853D01*
X139764000Y-51193026D01*
X139544054Y-50863853D01*
X139062285Y-50541946D01*
X138494000Y-50428907D01*
X137925715Y-50541946D01*
X137443946Y-50863853D01*
X137224000Y-51193026D01*
X137004054Y-50863853D01*
X136522285Y-50541946D01*
X135954000Y-50428907D01*
X135385715Y-50541946D01*
X134903946Y-50863853D01*
X134676298Y-51204553D01*
X134609183Y-51061642D01*
X134180924Y-50671355D01*
X133770890Y-50501524D01*
X133541000Y-50622845D01*
X133541000Y-51816000D01*
X133561000Y-51816000D01*
X133561000Y-52070000D01*
X133541000Y-52070000D01*
X133541000Y-52090000D01*
X133287000Y-52090000D01*
X133287000Y-52070000D01*
X132093181Y-52070000D01*
X131972514Y-52299892D01*
X132218817Y-52824358D01*
X132243524Y-52846874D01*
X130352599Y-54737799D01*
X130187852Y-54984361D01*
X130130000Y-55275200D01*
X130130000Y-59664442D01*
X129904683Y-59706838D01*
X129688559Y-59845910D01*
X129543569Y-60058110D01*
X129540919Y-60071197D01*
X129404090Y-59858559D01*
X129191890Y-59713569D01*
X128940000Y-59662560D01*
X127440000Y-59662560D01*
X127204683Y-59706838D01*
X126988559Y-59845910D01*
X126843569Y-60058110D01*
X126792560Y-60310000D01*
X126792560Y-61610000D01*
X126836838Y-61845317D01*
X126975910Y-62061441D01*
X127188110Y-62206431D01*
X127411680Y-62251705D01*
X127304683Y-62271838D01*
X127088559Y-62410910D01*
X126943569Y-62623110D01*
X126892560Y-62875000D01*
X126892560Y-64125000D01*
X126936838Y-64360317D01*
X127075910Y-64576441D01*
X127288110Y-64721431D01*
X127527509Y-64769910D01*
X127304683Y-64811838D01*
X127088559Y-64950910D01*
X126943569Y-65163110D01*
X126892560Y-65415000D01*
X126892560Y-66665000D01*
X126936838Y-66900317D01*
X127075910Y-67116441D01*
X127288110Y-67261431D01*
X127415351Y-67287198D01*
X127204683Y-67326838D01*
X126988559Y-67465910D01*
X126843569Y-67678110D01*
X126792560Y-67930000D01*
X126792560Y-68902638D01*
X126071499Y-69623699D01*
X125906752Y-69870261D01*
X125848900Y-70161100D01*
X125848900Y-105227896D01*
X125652600Y-105354212D01*
X125652600Y-53635815D01*
X126364630Y-53635815D01*
X126688980Y-54420800D01*
X127289041Y-55021909D01*
X128073459Y-55347628D01*
X128922815Y-55348370D01*
X129707800Y-55024020D01*
X130308909Y-54423959D01*
X130634628Y-53639541D01*
X130635370Y-52790185D01*
X130311020Y-52005200D01*
X129892659Y-51586108D01*
X131972514Y-51586108D01*
X132093181Y-51816000D01*
X133287000Y-51816000D01*
X133287000Y-50622845D01*
X133057110Y-50501524D01*
X132647076Y-50671355D01*
X132218817Y-51061642D01*
X131972514Y-51586108D01*
X129892659Y-51586108D01*
X129710959Y-51404091D01*
X128926541Y-51078372D01*
X128077185Y-51077630D01*
X127292200Y-51401980D01*
X126691091Y-52002041D01*
X126365372Y-52786459D01*
X126364630Y-53635815D01*
X125652600Y-53635815D01*
X125652600Y-50869927D01*
X125698411Y-50639623D01*
X125789258Y-50503659D01*
X125925222Y-50412811D01*
X126155531Y-50367000D01*
X172870698Y-50367000D01*
X172430254Y-50807444D01*
G36*
X131017000Y-68453000D02*
X131037000Y-68453000D01*
X131037000Y-68707000D01*
X131017000Y-68707000D01*
X131017000Y-69706250D01*
X131175750Y-69865000D01*
X131460000Y-69865000D01*
X131460000Y-76276000D01*
X131517852Y-76566839D01*
X131682599Y-76813401D01*
X131992229Y-77123031D01*
X131929000Y-77440907D01*
X131929000Y-77499093D01*
X132042039Y-78067378D01*
X132363946Y-78549147D01*
X132845715Y-78871054D01*
X133414000Y-78984093D01*
X133982285Y-78871054D01*
X134464054Y-78549147D01*
X134684000Y-78219974D01*
X134903946Y-78549147D01*
X135385715Y-78871054D01*
X135954000Y-78984093D01*
X136522285Y-78871054D01*
X137004054Y-78549147D01*
X137224000Y-78219974D01*
X137443946Y-78549147D01*
X137925715Y-78871054D01*
X138494000Y-78984093D01*
X139062285Y-78871054D01*
X139544054Y-78549147D01*
X139771702Y-78208447D01*
X139838817Y-78351358D01*
X140267076Y-78741645D01*
X140326246Y-78766152D01*
X134717599Y-84374799D01*
X134552852Y-84621361D01*
X134495000Y-84912200D01*
X134495000Y-85160086D01*
X134285000Y-85117560D01*
X133685000Y-85117560D01*
X133449683Y-85161838D01*
X133233559Y-85300910D01*
X133088569Y-85513110D01*
X133037560Y-85765000D01*
X133037560Y-87715000D01*
X133081838Y-87950317D01*
X133220910Y-88166441D01*
X133433110Y-88311431D01*
X133685000Y-88362440D01*
X134020138Y-88362440D01*
X139125698Y-93468000D01*
X135209200Y-93468000D01*
X134889659Y-93531561D01*
X134655681Y-93687900D01*
X134618766Y-93712566D01*
X133813772Y-94517560D01*
X133685000Y-94517560D01*
X133449683Y-94561838D01*
X133233559Y-94700910D01*
X133088569Y-94913110D01*
X133037560Y-95165000D01*
X133037560Y-95906572D01*
X131479366Y-97464766D01*
X131298361Y-97735659D01*
X131234800Y-98055200D01*
X131234800Y-105180000D01*
X131169840Y-105180000D01*
X130934523Y-105224278D01*
X130799263Y-105311316D01*
X130681730Y-105231009D01*
X130429840Y-105180000D01*
X128629840Y-105180000D01*
X128394523Y-105224278D01*
X128259263Y-105311316D01*
X128141730Y-105231009D01*
X127889840Y-105180000D01*
X127368900Y-105180000D01*
X127368900Y-95820573D01*
X128218324Y-96388139D01*
X129336800Y-96610618D01*
X130455276Y-96388139D01*
X131403474Y-95754574D01*
X132037039Y-94806376D01*
X132259518Y-93687900D01*
X132037039Y-92569424D01*
X131403474Y-91621226D01*
X130455276Y-90987661D01*
X129336800Y-90765182D01*
X128218324Y-90987661D01*
X127368900Y-91555227D01*
X127368900Y-78096023D01*
X127629358Y-78270055D01*
X128460500Y-78435380D01*
X128898036Y-78348348D01*
X128922815Y-78348370D01*
X128945918Y-78338824D01*
X129291642Y-78270055D01*
X129582175Y-78075927D01*
X129707800Y-78024020D01*
X129804845Y-77927144D01*
X129996251Y-77799251D01*
X130123027Y-77609517D01*
X130308909Y-77423959D01*
X130410520Y-77179253D01*
X130467055Y-77094642D01*
X130486734Y-76995709D01*
X130634628Y-76639541D01*
X130635370Y-75790185D01*
X130311020Y-75005200D01*
X129710959Y-74404091D01*
X128926541Y-74078372D01*
X128077185Y-74077630D01*
X127656070Y-74251632D01*
X127629358Y-74256945D01*
X127606910Y-74271944D01*
X127368900Y-74370288D01*
X127368900Y-70475902D01*
X127967362Y-69877440D01*
X128940000Y-69877440D01*
X129175317Y-69833162D01*
X129391441Y-69694090D01*
X129536431Y-69481890D01*
X129543191Y-69448510D01*
X129601673Y-69589699D01*
X129780302Y-69768327D01*
X130013691Y-69865000D01*
X130604250Y-69865000D01*
X130763000Y-69706250D01*
X130763000Y-68707000D01*
X130743000Y-68707000D01*
X130743000Y-68453000D01*
X130763000Y-68453000D01*
X130763000Y-68433000D01*
X131017000Y-68433000D01*
X131017000Y-68453000D01*
X131017000Y-68453000D01*
G37*
X131017000Y-68453000D02*
X131037000Y-68453000D01*
X131037000Y-68707000D01*
X131017000Y-68707000D01*
X131017000Y-69706250D01*
X131175750Y-69865000D01*
X131460000Y-69865000D01*
X131460000Y-76276000D01*
X131517852Y-76566839D01*
X131682599Y-76813401D01*
X131992229Y-77123031D01*
X131929000Y-77440907D01*
X131929000Y-77499093D01*
X132042039Y-78067378D01*
X132363946Y-78549147D01*
X132845715Y-78871054D01*
X133414000Y-78984093D01*
X133982285Y-78871054D01*
X134464054Y-78549147D01*
X134684000Y-78219974D01*
X134903946Y-78549147D01*
X135385715Y-78871054D01*
X135954000Y-78984093D01*
X136522285Y-78871054D01*
X137004054Y-78549147D01*
X137224000Y-78219974D01*
X137443946Y-78549147D01*
X137925715Y-78871054D01*
X138494000Y-78984093D01*
X139062285Y-78871054D01*
X139544054Y-78549147D01*
X139771702Y-78208447D01*
X139838817Y-78351358D01*
X140267076Y-78741645D01*
X140326246Y-78766152D01*
X134717599Y-84374799D01*
X134552852Y-84621361D01*
X134495000Y-84912200D01*
X134495000Y-85160086D01*
X134285000Y-85117560D01*
X133685000Y-85117560D01*
X133449683Y-85161838D01*
X133233559Y-85300910D01*
X133088569Y-85513110D01*
X133037560Y-85765000D01*
X133037560Y-87715000D01*
X133081838Y-87950317D01*
X133220910Y-88166441D01*
X133433110Y-88311431D01*
X133685000Y-88362440D01*
X134020138Y-88362440D01*
X139125698Y-93468000D01*
X135209200Y-93468000D01*
X134889659Y-93531561D01*
X134655681Y-93687900D01*
X134618766Y-93712566D01*
X133813772Y-94517560D01*
X133685000Y-94517560D01*
X133449683Y-94561838D01*
X133233559Y-94700910D01*
X133088569Y-94913110D01*
X133037560Y-95165000D01*
X133037560Y-95906572D01*
X131479366Y-97464766D01*
X131298361Y-97735659D01*
X131234800Y-98055200D01*
X131234800Y-105180000D01*
X131169840Y-105180000D01*
X130934523Y-105224278D01*
X130799263Y-105311316D01*
X130681730Y-105231009D01*
X130429840Y-105180000D01*
X128629840Y-105180000D01*
X128394523Y-105224278D01*
X128259263Y-105311316D01*
X128141730Y-105231009D01*
X127889840Y-105180000D01*
X127368900Y-105180000D01*
X127368900Y-95820573D01*
X128218324Y-96388139D01*
X129336800Y-96610618D01*
X130455276Y-96388139D01*
X131403474Y-95754574D01*
X132037039Y-94806376D01*
X132259518Y-93687900D01*
X132037039Y-92569424D01*
X131403474Y-91621226D01*
X130455276Y-90987661D01*
X129336800Y-90765182D01*
X128218324Y-90987661D01*
X127368900Y-91555227D01*
X127368900Y-78096023D01*
X127629358Y-78270055D01*
X128460500Y-78435380D01*
X128898036Y-78348348D01*
X128922815Y-78348370D01*
X128945918Y-78338824D01*
X129291642Y-78270055D01*
X129582175Y-78075927D01*
X129707800Y-78024020D01*
X129804845Y-77927144D01*
X129996251Y-77799251D01*
X130123027Y-77609517D01*
X130308909Y-77423959D01*
X130410520Y-77179253D01*
X130467055Y-77094642D01*
X130486734Y-76995709D01*
X130634628Y-76639541D01*
X130635370Y-75790185D01*
X130311020Y-75005200D01*
X129710959Y-74404091D01*
X128926541Y-74078372D01*
X128077185Y-74077630D01*
X127656070Y-74251632D01*
X127629358Y-74256945D01*
X127606910Y-74271944D01*
X127368900Y-74370288D01*
X127368900Y-70475902D01*
X127967362Y-69877440D01*
X128940000Y-69877440D01*
X129175317Y-69833162D01*
X129391441Y-69694090D01*
X129536431Y-69481890D01*
X129543191Y-69448510D01*
X129601673Y-69589699D01*
X129780302Y-69768327D01*
X130013691Y-69865000D01*
X130604250Y-69865000D01*
X130763000Y-69706250D01*
X130763000Y-68707000D01*
X130743000Y-68707000D01*
X130743000Y-68453000D01*
X130763000Y-68453000D01*
X130763000Y-68433000D01*
X131017000Y-68433000D01*
X131017000Y-68453000D01*
G36*
X152683946Y-78549147D02*
X153165715Y-78871054D01*
X153734000Y-78984093D01*
X154100408Y-78911210D01*
X157980400Y-82791202D01*
X157980400Y-85117560D01*
X157815000Y-85117560D01*
X157579683Y-85161838D01*
X157480472Y-85225678D01*
X157396890Y-85168569D01*
X157145000Y-85117560D01*
X156545000Y-85117560D01*
X156309683Y-85161838D01*
X156219020Y-85220178D01*
X156001310Y-85130000D01*
X155860750Y-85130000D01*
X155702000Y-85288750D01*
X155702000Y-86613000D01*
X155722000Y-86613000D01*
X155722000Y-86867000D01*
X155702000Y-86867000D01*
X155702000Y-86887000D01*
X155448000Y-86887000D01*
X155448000Y-86867000D01*
X154798750Y-86867000D01*
X154640000Y-87025750D01*
X154640000Y-87841309D01*
X154736673Y-88074698D01*
X154791275Y-88129300D01*
X146198725Y-88129300D01*
X146253327Y-88074698D01*
X146350000Y-87841309D01*
X146350000Y-87025750D01*
X146191250Y-86867000D01*
X145549600Y-86867000D01*
X145549600Y-86613000D01*
X146191250Y-86613000D01*
X146350000Y-86454250D01*
X146350000Y-85638691D01*
X154640000Y-85638691D01*
X154640000Y-86454250D01*
X154798750Y-86613000D01*
X155448000Y-86613000D01*
X155448000Y-85288750D01*
X155289250Y-85130000D01*
X155148690Y-85130000D01*
X154915301Y-85226673D01*
X154736673Y-85405302D01*
X154640000Y-85638691D01*
X146350000Y-85638691D01*
X146253327Y-85405302D01*
X146171364Y-85323338D01*
X150375301Y-81119401D01*
X150540048Y-80872840D01*
X150597900Y-80582000D01*
X150597900Y-78852469D01*
X150625715Y-78871054D01*
X151194000Y-78984093D01*
X151762285Y-78871054D01*
X152244054Y-78549147D01*
X152464000Y-78219974D01*
X152683946Y-78549147D01*
X152683946Y-78549147D01*
G37*
X152683946Y-78549147D02*
X153165715Y-78871054D01*
X153734000Y-78984093D01*
X154100408Y-78911210D01*
X157980400Y-82791202D01*
X157980400Y-85117560D01*
X157815000Y-85117560D01*
X157579683Y-85161838D01*
X157480472Y-85225678D01*
X157396890Y-85168569D01*
X157145000Y-85117560D01*
X156545000Y-85117560D01*
X156309683Y-85161838D01*
X156219020Y-85220178D01*
X156001310Y-85130000D01*
X155860750Y-85130000D01*
X155702000Y-85288750D01*
X155702000Y-86613000D01*
X155722000Y-86613000D01*
X155722000Y-86867000D01*
X155702000Y-86867000D01*
X155702000Y-86887000D01*
X155448000Y-86887000D01*
X155448000Y-86867000D01*
X154798750Y-86867000D01*
X154640000Y-87025750D01*
X154640000Y-87841309D01*
X154736673Y-88074698D01*
X154791275Y-88129300D01*
X146198725Y-88129300D01*
X146253327Y-88074698D01*
X146350000Y-87841309D01*
X146350000Y-87025750D01*
X146191250Y-86867000D01*
X145549600Y-86867000D01*
X145549600Y-86613000D01*
X146191250Y-86613000D01*
X146350000Y-86454250D01*
X146350000Y-85638691D01*
X154640000Y-85638691D01*
X154640000Y-86454250D01*
X154798750Y-86613000D01*
X155448000Y-86613000D01*
X155448000Y-85288750D01*
X155289250Y-85130000D01*
X155148690Y-85130000D01*
X154915301Y-85226673D01*
X154736673Y-85405302D01*
X154640000Y-85638691D01*
X146350000Y-85638691D01*
X146253327Y-85405302D01*
X146171364Y-85323338D01*
X150375301Y-81119401D01*
X150540048Y-80872840D01*
X150597900Y-80582000D01*
X150597900Y-78852469D01*
X150625715Y-78871054D01*
X151194000Y-78984093D01*
X151762285Y-78871054D01*
X152244054Y-78549147D01*
X152464000Y-78219974D01*
X152683946Y-78549147D01*
G36*
X146241000Y-77343000D02*
X146261000Y-77343000D01*
X146261000Y-77597000D01*
X146241000Y-77597000D01*
X146241000Y-78790155D01*
X146470890Y-78911476D01*
X146880924Y-78741645D01*
X147309183Y-78351358D01*
X147376298Y-78208447D01*
X147603946Y-78549147D01*
X147894000Y-78742954D01*
X147894000Y-79870798D01*
X143514520Y-84250278D01*
X143469033Y-84250238D01*
X143125257Y-84392283D01*
X142862008Y-84655073D01*
X142719362Y-84998601D01*
X142719258Y-85117560D01*
X142575000Y-85117560D01*
X142339683Y-85161838D01*
X142240472Y-85225678D01*
X142156890Y-85168569D01*
X141905000Y-85117560D01*
X141305000Y-85117560D01*
X141069683Y-85161838D01*
X140970472Y-85225678D01*
X140886890Y-85168569D01*
X140635000Y-85117560D01*
X140162942Y-85117560D01*
X145381401Y-79899101D01*
X145546148Y-79652540D01*
X145604000Y-79361700D01*
X145604000Y-78848060D01*
X145757110Y-78911476D01*
X145987000Y-78790155D01*
X145987000Y-77597000D01*
X145967000Y-77597000D01*
X145967000Y-77343000D01*
X145987000Y-77343000D01*
X145987000Y-77323000D01*
X146241000Y-77323000D01*
X146241000Y-77343000D01*
X146241000Y-77343000D01*
G37*
X146241000Y-77343000D02*
X146261000Y-77343000D01*
X146261000Y-77597000D01*
X146241000Y-77597000D01*
X146241000Y-78790155D01*
X146470890Y-78911476D01*
X146880924Y-78741645D01*
X147309183Y-78351358D01*
X147376298Y-78208447D01*
X147603946Y-78549147D01*
X147894000Y-78742954D01*
X147894000Y-79870798D01*
X143514520Y-84250278D01*
X143469033Y-84250238D01*
X143125257Y-84392283D01*
X142862008Y-84655073D01*
X142719362Y-84998601D01*
X142719258Y-85117560D01*
X142575000Y-85117560D01*
X142339683Y-85161838D01*
X142240472Y-85225678D01*
X142156890Y-85168569D01*
X141905000Y-85117560D01*
X141305000Y-85117560D01*
X141069683Y-85161838D01*
X140970472Y-85225678D01*
X140886890Y-85168569D01*
X140635000Y-85117560D01*
X140162942Y-85117560D01*
X145381401Y-79899101D01*
X145546148Y-79652540D01*
X145604000Y-79361700D01*
X145604000Y-78848060D01*
X145757110Y-78911476D01*
X145987000Y-78790155D01*
X145987000Y-77597000D01*
X145967000Y-77597000D01*
X145967000Y-77343000D01*
X145987000Y-77343000D01*
X145987000Y-77323000D01*
X146241000Y-77323000D01*
X146241000Y-77343000D01*
G36*
X166561000Y-77343000D02*
X166581000Y-77343000D01*
X166581000Y-77597000D01*
X166561000Y-77597000D01*
X166561000Y-78790155D01*
X166790890Y-78911476D01*
X167200924Y-78741645D01*
X167629183Y-78351358D01*
X167696298Y-78208447D01*
X167923946Y-78549147D01*
X168405715Y-78871054D01*
X168933217Y-78975981D01*
X165197599Y-82711599D01*
X165032852Y-82958161D01*
X164975000Y-83249000D01*
X164975000Y-84225020D01*
X164729699Y-84123162D01*
X164357733Y-84122838D01*
X164013957Y-84264883D01*
X163789411Y-84489037D01*
X163706127Y-84405608D01*
X163362599Y-84262962D01*
X162990633Y-84262638D01*
X162646857Y-84404683D01*
X162383608Y-84667473D01*
X162359984Y-84724365D01*
X162327917Y-84646757D01*
X162065127Y-84383508D01*
X161721599Y-84240862D01*
X161674723Y-84240821D01*
X160844000Y-83410098D01*
X160844000Y-78882648D01*
X161354000Y-78984093D01*
X161922285Y-78871054D01*
X162404054Y-78549147D01*
X162624000Y-78219974D01*
X162843946Y-78549147D01*
X163325715Y-78871054D01*
X163894000Y-78984093D01*
X164462285Y-78871054D01*
X164944054Y-78549147D01*
X165171702Y-78208447D01*
X165238817Y-78351358D01*
X165667076Y-78741645D01*
X166077110Y-78911476D01*
X166307000Y-78790155D01*
X166307000Y-77597000D01*
X166287000Y-77597000D01*
X166287000Y-77343000D01*
X166307000Y-77343000D01*
X166307000Y-77323000D01*
X166561000Y-77323000D01*
X166561000Y-77343000D01*
X166561000Y-77343000D01*
G37*
X166561000Y-77343000D02*
X166581000Y-77343000D01*
X166581000Y-77597000D01*
X166561000Y-77597000D01*
X166561000Y-78790155D01*
X166790890Y-78911476D01*
X167200924Y-78741645D01*
X167629183Y-78351358D01*
X167696298Y-78208447D01*
X167923946Y-78549147D01*
X168405715Y-78871054D01*
X168933217Y-78975981D01*
X165197599Y-82711599D01*
X165032852Y-82958161D01*
X164975000Y-83249000D01*
X164975000Y-84225020D01*
X164729699Y-84123162D01*
X164357733Y-84122838D01*
X164013957Y-84264883D01*
X163789411Y-84489037D01*
X163706127Y-84405608D01*
X163362599Y-84262962D01*
X162990633Y-84262638D01*
X162646857Y-84404683D01*
X162383608Y-84667473D01*
X162359984Y-84724365D01*
X162327917Y-84646757D01*
X162065127Y-84383508D01*
X161721599Y-84240862D01*
X161674723Y-84240821D01*
X160844000Y-83410098D01*
X160844000Y-78882648D01*
X161354000Y-78984093D01*
X161922285Y-78871054D01*
X162404054Y-78549147D01*
X162624000Y-78219974D01*
X162843946Y-78549147D01*
X163325715Y-78871054D01*
X163894000Y-78984093D01*
X164462285Y-78871054D01*
X164944054Y-78549147D01*
X165171702Y-78208447D01*
X165238817Y-78351358D01*
X165667076Y-78741645D01*
X166077110Y-78911476D01*
X166307000Y-78790155D01*
X166307000Y-77597000D01*
X166287000Y-77597000D01*
X166287000Y-77343000D01*
X166307000Y-77343000D01*
X166307000Y-77323000D01*
X166561000Y-77323000D01*
X166561000Y-77343000D01*
G36*
X158941000Y-77343000D02*
X158961000Y-77343000D01*
X158961000Y-77597000D01*
X158941000Y-77597000D01*
X158941000Y-78790155D01*
X159170890Y-78911476D01*
X159324000Y-78848060D01*
X159324000Y-82008141D01*
X159277801Y-81938999D01*
X156314783Y-78975981D01*
X156842285Y-78871054D01*
X157324054Y-78549147D01*
X157551702Y-78208447D01*
X157618817Y-78351358D01*
X158047076Y-78741645D01*
X158457110Y-78911476D01*
X158687000Y-78790155D01*
X158687000Y-77597000D01*
X158667000Y-77597000D01*
X158667000Y-77343000D01*
X158687000Y-77343000D01*
X158687000Y-77323000D01*
X158941000Y-77323000D01*
X158941000Y-77343000D01*
X158941000Y-77343000D01*
G37*
X158941000Y-77343000D02*
X158961000Y-77343000D01*
X158961000Y-77597000D01*
X158941000Y-77597000D01*
X158941000Y-78790155D01*
X159170890Y-78911476D01*
X159324000Y-78848060D01*
X159324000Y-82008141D01*
X159277801Y-81938999D01*
X156314783Y-78975981D01*
X156842285Y-78871054D01*
X157324054Y-78549147D01*
X157551702Y-78208447D01*
X157618817Y-78351358D01*
X158047076Y-78741645D01*
X158457110Y-78911476D01*
X158687000Y-78790155D01*
X158687000Y-77597000D01*
X158667000Y-77597000D01*
X158667000Y-77343000D01*
X158687000Y-77343000D01*
X158687000Y-77323000D01*
X158941000Y-77323000D01*
X158941000Y-77343000D01*
G36*
X141161000Y-77343000D02*
X141181000Y-77343000D01*
X141181000Y-77597000D01*
X141161000Y-77597000D01*
X141161000Y-77617000D01*
X140907000Y-77617000D01*
X140907000Y-77597000D01*
X140887000Y-77597000D01*
X140887000Y-77343000D01*
X140907000Y-77343000D01*
X140907000Y-77323000D01*
X141161000Y-77323000D01*
X141161000Y-77343000D01*
X141161000Y-77343000D01*
G37*
X141161000Y-77343000D02*
X141181000Y-77343000D01*
X141181000Y-77597000D01*
X141161000Y-77597000D01*
X141161000Y-77617000D01*
X140907000Y-77617000D01*
X140907000Y-77597000D01*
X140887000Y-77597000D01*
X140887000Y-77343000D01*
X140907000Y-77343000D01*
X140907000Y-77323000D01*
X141161000Y-77323000D01*
X141161000Y-77343000D01*
G36*
X176721000Y-77343000D02*
X176741000Y-77343000D01*
X176741000Y-77597000D01*
X176721000Y-77597000D01*
X176721000Y-77617000D01*
X176467000Y-77617000D01*
X176467000Y-77597000D01*
X176447000Y-77597000D01*
X176447000Y-77343000D01*
X176467000Y-77343000D01*
X176467000Y-77323000D01*
X176721000Y-77323000D01*
X176721000Y-77343000D01*
X176721000Y-77343000D01*
G37*
X176721000Y-77343000D02*
X176741000Y-77343000D01*
X176741000Y-77597000D01*
X176721000Y-77597000D01*
X176721000Y-77617000D01*
X176467000Y-77617000D01*
X176467000Y-77597000D01*
X176447000Y-77597000D01*
X176447000Y-77343000D01*
X176467000Y-77343000D01*
X176467000Y-77323000D01*
X176721000Y-77323000D01*
X176721000Y-77343000D01*
G36*
X152683946Y-76009147D02*
X152969578Y-76200000D01*
X152683946Y-76390853D01*
X152464000Y-76720026D01*
X152244054Y-76390853D01*
X151960899Y-76201655D01*
X151960924Y-76201645D01*
X152389183Y-75811358D01*
X152456298Y-75668447D01*
X152683946Y-76009147D01*
X152683946Y-76009147D01*
G37*
X152683946Y-76009147D02*
X152969578Y-76200000D01*
X152683946Y-76390853D01*
X152464000Y-76720026D01*
X152244054Y-76390853D01*
X151960899Y-76201655D01*
X151960924Y-76201645D01*
X152389183Y-75811358D01*
X152456298Y-75668447D01*
X152683946Y-76009147D01*
G36*
X170945715Y-55884054D02*
X171514000Y-55997093D01*
X171880408Y-55924210D01*
X171944600Y-55988402D01*
X171944600Y-73519054D01*
X171870890Y-73488524D01*
X171641000Y-73609845D01*
X171641000Y-74803000D01*
X171661000Y-74803000D01*
X171661000Y-75057000D01*
X171641000Y-75057000D01*
X171641000Y-75077000D01*
X171387000Y-75077000D01*
X171387000Y-75057000D01*
X171367000Y-75057000D01*
X171367000Y-74803000D01*
X171387000Y-74803000D01*
X171387000Y-73609845D01*
X171157110Y-73488524D01*
X170909400Y-73591122D01*
X170909400Y-55859789D01*
X170945715Y-55884054D01*
X170945715Y-55884054D01*
G37*
X170945715Y-55884054D02*
X171514000Y-55997093D01*
X171880408Y-55924210D01*
X171944600Y-55988402D01*
X171944600Y-73519054D01*
X171870890Y-73488524D01*
X171641000Y-73609845D01*
X171641000Y-74803000D01*
X171661000Y-74803000D01*
X171661000Y-75057000D01*
X171641000Y-75057000D01*
X171641000Y-75077000D01*
X171387000Y-75077000D01*
X171387000Y-75057000D01*
X171367000Y-75057000D01*
X171367000Y-74803000D01*
X171387000Y-74803000D01*
X171387000Y-73609845D01*
X171157110Y-73488524D01*
X170909400Y-73591122D01*
X170909400Y-55859789D01*
X170945715Y-55884054D01*
G36*
X151321000Y-74803000D02*
X151341000Y-74803000D01*
X151341000Y-75057000D01*
X151321000Y-75057000D01*
X151321000Y-75077000D01*
X151067000Y-75077000D01*
X151067000Y-75057000D01*
X151047000Y-75057000D01*
X151047000Y-74803000D01*
X151067000Y-74803000D01*
X151067000Y-74783000D01*
X151321000Y-74783000D01*
X151321000Y-74803000D01*
X151321000Y-74803000D01*
G37*
X151321000Y-74803000D02*
X151341000Y-74803000D01*
X151341000Y-75057000D01*
X151321000Y-75057000D01*
X151321000Y-75077000D01*
X151067000Y-75077000D01*
X151067000Y-75057000D01*
X151047000Y-75057000D01*
X151047000Y-74803000D01*
X151067000Y-74803000D01*
X151067000Y-74783000D01*
X151321000Y-74783000D01*
X151321000Y-74803000D01*
G36*
X134003400Y-73584827D02*
X133770890Y-73488524D01*
X133541000Y-73609845D01*
X133541000Y-74803000D01*
X133561000Y-74803000D01*
X133561000Y-75057000D01*
X133541000Y-75057000D01*
X133541000Y-75077000D01*
X133287000Y-75077000D01*
X133287000Y-75057000D01*
X133267000Y-75057000D01*
X133267000Y-74803000D01*
X133287000Y-74803000D01*
X133287000Y-73609845D01*
X133057110Y-73488524D01*
X132980000Y-73520462D01*
X132980000Y-55991802D01*
X133047592Y-55924210D01*
X133414000Y-55997093D01*
X133982285Y-55884054D01*
X134003400Y-55869945D01*
X134003400Y-73584827D01*
X134003400Y-73584827D01*
G37*
X134003400Y-73584827D02*
X133770890Y-73488524D01*
X133541000Y-73609845D01*
X133541000Y-74803000D01*
X133561000Y-74803000D01*
X133561000Y-75057000D01*
X133541000Y-75057000D01*
X133541000Y-75077000D01*
X133287000Y-75077000D01*
X133287000Y-75057000D01*
X133267000Y-75057000D01*
X133267000Y-74803000D01*
X133287000Y-74803000D01*
X133287000Y-73609845D01*
X133057110Y-73488524D01*
X132980000Y-73520462D01*
X132980000Y-55991802D01*
X133047592Y-55924210D01*
X133414000Y-55997093D01*
X133982285Y-55884054D01*
X134003400Y-55869945D01*
X134003400Y-73584827D01*
G36*
X146241000Y-54356000D02*
X146261000Y-54356000D01*
X146261000Y-54610000D01*
X146241000Y-54610000D01*
X146241000Y-55803155D01*
X146470890Y-55924476D01*
X146718600Y-55821878D01*
X146718600Y-73553211D01*
X146682285Y-73528946D01*
X146114000Y-73415907D01*
X145545715Y-73528946D01*
X145063946Y-73850853D01*
X144844000Y-74180026D01*
X144624054Y-73850853D01*
X144142285Y-73528946D01*
X143574000Y-73415907D01*
X143005715Y-73528946D01*
X142984600Y-73543055D01*
X142984600Y-55869945D01*
X143005715Y-55884054D01*
X143574000Y-55997093D01*
X144142285Y-55884054D01*
X144624054Y-55562147D01*
X144851702Y-55221447D01*
X144918817Y-55364358D01*
X145347076Y-55754645D01*
X145757110Y-55924476D01*
X145987000Y-55803155D01*
X145987000Y-54610000D01*
X145967000Y-54610000D01*
X145967000Y-54356000D01*
X145987000Y-54356000D01*
X145987000Y-54336000D01*
X146241000Y-54336000D01*
X146241000Y-54356000D01*
X146241000Y-54356000D01*
G37*
X146241000Y-54356000D02*
X146261000Y-54356000D01*
X146261000Y-54610000D01*
X146241000Y-54610000D01*
X146241000Y-55803155D01*
X146470890Y-55924476D01*
X146718600Y-55821878D01*
X146718600Y-73553211D01*
X146682285Y-73528946D01*
X146114000Y-73415907D01*
X145545715Y-73528946D01*
X145063946Y-73850853D01*
X144844000Y-74180026D01*
X144624054Y-73850853D01*
X144142285Y-73528946D01*
X143574000Y-73415907D01*
X143005715Y-73528946D01*
X142984600Y-73543055D01*
X142984600Y-55869945D01*
X143005715Y-55884054D01*
X143574000Y-55997093D01*
X144142285Y-55884054D01*
X144624054Y-55562147D01*
X144851702Y-55221447D01*
X144918817Y-55364358D01*
X145347076Y-55754645D01*
X145757110Y-55924476D01*
X145987000Y-55803155D01*
X145987000Y-54610000D01*
X145967000Y-54610000D01*
X145967000Y-54356000D01*
X145987000Y-54356000D01*
X145987000Y-54336000D01*
X146241000Y-54336000D01*
X146241000Y-54356000D01*
G36*
X166561000Y-54356000D02*
X166581000Y-54356000D01*
X166581000Y-54610000D01*
X166561000Y-54610000D01*
X166561000Y-55803155D01*
X166790890Y-55924476D01*
X167023400Y-55828173D01*
X167023400Y-73543055D01*
X167002285Y-73528946D01*
X166434000Y-73415907D01*
X165865715Y-73528946D01*
X165834100Y-73550070D01*
X165834100Y-55823824D01*
X166077110Y-55924476D01*
X166307000Y-55803155D01*
X166307000Y-54610000D01*
X166287000Y-54610000D01*
X166287000Y-54356000D01*
X166307000Y-54356000D01*
X166307000Y-54336000D01*
X166561000Y-54336000D01*
X166561000Y-54356000D01*
X166561000Y-54356000D01*
G37*
X166561000Y-54356000D02*
X166581000Y-54356000D01*
X166581000Y-54610000D01*
X166561000Y-54610000D01*
X166561000Y-55803155D01*
X166790890Y-55924476D01*
X167023400Y-55828173D01*
X167023400Y-73543055D01*
X167002285Y-73528946D01*
X166434000Y-73415907D01*
X165865715Y-73528946D01*
X165834100Y-73550070D01*
X165834100Y-55823824D01*
X166077110Y-55924476D01*
X166307000Y-55803155D01*
X166307000Y-54610000D01*
X166287000Y-54610000D01*
X166287000Y-54356000D01*
X166307000Y-54356000D01*
X166307000Y-54336000D01*
X166561000Y-54336000D01*
X166561000Y-54356000D01*
G36*
X158941000Y-54356000D02*
X158961000Y-54356000D01*
X158961000Y-54610000D01*
X158941000Y-54610000D01*
X158941000Y-55803155D01*
X159170890Y-55924476D01*
X159229400Y-55900242D01*
X159229400Y-73439798D01*
X159180408Y-73488790D01*
X158814000Y-73415907D01*
X158245715Y-73528946D01*
X158224600Y-73543055D01*
X158224600Y-55828173D01*
X158457110Y-55924476D01*
X158687000Y-55803155D01*
X158687000Y-54610000D01*
X158667000Y-54610000D01*
X158667000Y-54356000D01*
X158687000Y-54356000D01*
X158687000Y-54336000D01*
X158941000Y-54336000D01*
X158941000Y-54356000D01*
X158941000Y-54356000D01*
G37*
X158941000Y-54356000D02*
X158961000Y-54356000D01*
X158961000Y-54610000D01*
X158941000Y-54610000D01*
X158941000Y-55803155D01*
X159170890Y-55924476D01*
X159229400Y-55900242D01*
X159229400Y-73439798D01*
X159180408Y-73488790D01*
X158814000Y-73415907D01*
X158245715Y-73528946D01*
X158224600Y-73543055D01*
X158224600Y-55828173D01*
X158457110Y-55924476D01*
X158687000Y-55803155D01*
X158687000Y-54610000D01*
X158667000Y-54610000D01*
X158667000Y-54356000D01*
X158687000Y-54356000D01*
X158687000Y-54336000D01*
X158941000Y-54336000D01*
X158941000Y-54356000D01*
G36*
X141161000Y-54356000D02*
X141181000Y-54356000D01*
X141181000Y-54610000D01*
X141161000Y-54610000D01*
X141161000Y-55803155D01*
X141390890Y-55924476D01*
X141464600Y-55893946D01*
X141464600Y-73424598D01*
X141400408Y-73488790D01*
X141034000Y-73415907D01*
X140465715Y-73528946D01*
X140444600Y-73543055D01*
X140444600Y-55828173D01*
X140677110Y-55924476D01*
X140907000Y-55803155D01*
X140907000Y-54610000D01*
X140887000Y-54610000D01*
X140887000Y-54356000D01*
X140907000Y-54356000D01*
X140907000Y-54336000D01*
X141161000Y-54336000D01*
X141161000Y-54356000D01*
X141161000Y-54356000D01*
G37*
X141161000Y-54356000D02*
X141181000Y-54356000D01*
X141181000Y-54610000D01*
X141161000Y-54610000D01*
X141161000Y-55803155D01*
X141390890Y-55924476D01*
X141464600Y-55893946D01*
X141464600Y-73424598D01*
X141400408Y-73488790D01*
X141034000Y-73415907D01*
X140465715Y-73528946D01*
X140444600Y-73543055D01*
X140444600Y-55828173D01*
X140677110Y-55924476D01*
X140907000Y-55803155D01*
X140907000Y-54610000D01*
X140887000Y-54610000D01*
X140887000Y-54356000D01*
X140907000Y-54356000D01*
X140907000Y-54336000D01*
X141161000Y-54336000D01*
X141161000Y-54356000D01*
G36*
X176721000Y-54356000D02*
X176741000Y-54356000D01*
X176741000Y-54610000D01*
X176721000Y-54610000D01*
X176721000Y-55803155D01*
X176950890Y-55924476D01*
X177024600Y-55893946D01*
X177024600Y-73424598D01*
X176960408Y-73488790D01*
X176594000Y-73415907D01*
X176025715Y-73528946D01*
X176004600Y-73543055D01*
X176004600Y-55828173D01*
X176237110Y-55924476D01*
X176467000Y-55803155D01*
X176467000Y-54610000D01*
X176447000Y-54610000D01*
X176447000Y-54356000D01*
X176467000Y-54356000D01*
X176467000Y-54336000D01*
X176721000Y-54336000D01*
X176721000Y-54356000D01*
X176721000Y-54356000D01*
G37*
X176721000Y-54356000D02*
X176741000Y-54356000D01*
X176741000Y-54610000D01*
X176721000Y-54610000D01*
X176721000Y-55803155D01*
X176950890Y-55924476D01*
X177024600Y-55893946D01*
X177024600Y-73424598D01*
X176960408Y-73488790D01*
X176594000Y-73415907D01*
X176025715Y-73528946D01*
X176004600Y-73543055D01*
X176004600Y-55828173D01*
X176237110Y-55924476D01*
X176467000Y-55803155D01*
X176467000Y-54610000D01*
X176447000Y-54610000D01*
X176447000Y-54356000D01*
X176467000Y-54356000D01*
X176467000Y-54336000D01*
X176721000Y-54336000D01*
X176721000Y-54356000D01*
G36*
X130917000Y-63373000D02*
X130937000Y-63373000D01*
X130937000Y-63627000D01*
X130917000Y-63627000D01*
X130917000Y-64601250D01*
X131075750Y-64760000D01*
X131460000Y-64760000D01*
X131460000Y-64767560D01*
X130040000Y-64767560D01*
X129804683Y-64811838D01*
X129588559Y-64950910D01*
X129540866Y-65020711D01*
X129504090Y-64963559D01*
X129291890Y-64818569D01*
X129052491Y-64770090D01*
X129275317Y-64728162D01*
X129491441Y-64589090D01*
X129537969Y-64520994D01*
X129680302Y-64663327D01*
X129913691Y-64760000D01*
X130504250Y-64760000D01*
X130663000Y-64601250D01*
X130663000Y-63627000D01*
X130643000Y-63627000D01*
X130643000Y-63373000D01*
X130663000Y-63373000D01*
X130663000Y-63353000D01*
X130917000Y-63353000D01*
X130917000Y-63373000D01*
X130917000Y-63373000D01*
G37*
X130917000Y-63373000D02*
X130937000Y-63373000D01*
X130937000Y-63627000D01*
X130917000Y-63627000D01*
X130917000Y-64601250D01*
X131075750Y-64760000D01*
X131460000Y-64760000D01*
X131460000Y-64767560D01*
X130040000Y-64767560D01*
X129804683Y-64811838D01*
X129588559Y-64950910D01*
X129540866Y-65020711D01*
X129504090Y-64963559D01*
X129291890Y-64818569D01*
X129052491Y-64770090D01*
X129275317Y-64728162D01*
X129491441Y-64589090D01*
X129537969Y-64520994D01*
X129680302Y-64663327D01*
X129913691Y-64760000D01*
X130504250Y-64760000D01*
X130663000Y-64601250D01*
X130663000Y-63627000D01*
X130643000Y-63627000D01*
X130643000Y-63373000D01*
X130663000Y-63373000D01*
X130663000Y-63353000D01*
X130917000Y-63353000D01*
X130917000Y-63373000D01*
M02*
