G04 #@! TF.FileFunction,Copper,L1,Top,Mixed*
%FSLAX46Y46*%
G04 Gerber Fmt 4.6, Leading zero omitted, Abs format (unit mm)*
G04 Created by KiCad (PCBNEW 4.0.7) date 01/21/18 21:48:56*
%MOMM*%
%LPD*%
G01*
G04 APERTURE LIST*
%ADD10C,0.100000*%
%ADD11R,1.800000X8.000000*%
%ADD12R,1.800000X7.000000*%
%ADD13R,0.600000X1.950000*%
%ADD14R,1.500000X0.600000*%
%ADD15R,1.700000X1.700000*%
%ADD16O,1.700000X1.700000*%
%ADD17C,3.000000*%
%ADD18C,0.600000*%
%ADD19C,0.250000*%
%ADD20C,0.400000*%
%ADD21C,0.254000*%
G04 APERTURE END LIST*
D10*
D11*
X187949840Y-109827440D03*
X185409840Y-109827440D03*
X182869840Y-109827440D03*
X180329840Y-109827440D03*
X177789840Y-109827440D03*
X175249840Y-109827440D03*
X172709840Y-109827440D03*
X170169840Y-109827440D03*
X167629840Y-109827440D03*
X165089840Y-109827440D03*
X162549840Y-109827440D03*
X160009840Y-109827440D03*
X157469840Y-109827440D03*
X154929840Y-109827440D03*
X152389840Y-109827440D03*
X149849840Y-109827440D03*
X147309840Y-109827440D03*
X144769840Y-109827440D03*
X142229840Y-109827440D03*
X139689840Y-109827440D03*
X137149840Y-109827440D03*
D12*
X134604760Y-109334680D03*
D11*
X132069840Y-109827440D03*
X129529840Y-109827440D03*
X126989840Y-109827440D03*
D13*
X167005000Y-86740000D03*
X165735000Y-86740000D03*
X164465000Y-86740000D03*
X163195000Y-86740000D03*
X161925000Y-86740000D03*
X160655000Y-86740000D03*
X159385000Y-86740000D03*
X158115000Y-86740000D03*
X156845000Y-86740000D03*
X155575000Y-86740000D03*
X155575000Y-96140000D03*
X156845000Y-96140000D03*
X158115000Y-96140000D03*
X159385000Y-96140000D03*
X160655000Y-96140000D03*
X161925000Y-96140000D03*
X163195000Y-96140000D03*
X164465000Y-96140000D03*
X165735000Y-96140000D03*
X167005000Y-96140000D03*
X145415000Y-86740000D03*
X144145000Y-86740000D03*
X142875000Y-86740000D03*
X141605000Y-86740000D03*
X140335000Y-86740000D03*
X139065000Y-86740000D03*
X137795000Y-86740000D03*
X136525000Y-86740000D03*
X135255000Y-86740000D03*
X133985000Y-86740000D03*
X133985000Y-96140000D03*
X135255000Y-96140000D03*
X136525000Y-96140000D03*
X137795000Y-96140000D03*
X139065000Y-96140000D03*
X140335000Y-96140000D03*
X141605000Y-96140000D03*
X142875000Y-96140000D03*
X144145000Y-96140000D03*
X145415000Y-96140000D03*
D14*
X180500000Y-95250000D03*
X180500000Y-93980000D03*
X180500000Y-92710000D03*
X180500000Y-91440000D03*
X180500000Y-90170000D03*
X180500000Y-88900000D03*
X180500000Y-87630000D03*
X175100000Y-87630000D03*
X175100000Y-88900000D03*
X175100000Y-90170000D03*
X175100000Y-91440000D03*
X175100000Y-92710000D03*
X175100000Y-93980000D03*
X175100000Y-95250000D03*
D15*
X181674000Y-74930000D03*
D16*
X181674000Y-77470000D03*
X179134000Y-74930000D03*
X179134000Y-77470000D03*
X176594000Y-74930000D03*
X176594000Y-77470000D03*
X174054000Y-74930000D03*
X174054000Y-77470000D03*
X171514000Y-74930000D03*
X171514000Y-77470000D03*
X168974000Y-74930000D03*
X168974000Y-77470000D03*
X166434000Y-74930000D03*
X166434000Y-77470000D03*
X163894000Y-74930000D03*
X163894000Y-77470000D03*
X161354000Y-74930000D03*
X161354000Y-77470000D03*
X158814000Y-74930000D03*
X158814000Y-77470000D03*
X156274000Y-74930000D03*
X156274000Y-77470000D03*
X153734000Y-74930000D03*
X153734000Y-77470000D03*
X151194000Y-74930000D03*
X151194000Y-77470000D03*
X148654000Y-74930000D03*
X148654000Y-77470000D03*
X146114000Y-74930000D03*
X146114000Y-77470000D03*
X143574000Y-74930000D03*
X143574000Y-77470000D03*
X141034000Y-74930000D03*
X141034000Y-77470000D03*
X138494000Y-74930000D03*
X138494000Y-77470000D03*
X135954000Y-74930000D03*
X135954000Y-77470000D03*
X133414000Y-74930000D03*
X133414000Y-77470000D03*
D15*
X181674000Y-51943000D03*
D16*
X181674000Y-54483000D03*
X179134000Y-51943000D03*
X179134000Y-54483000D03*
X176594000Y-51943000D03*
X176594000Y-54483000D03*
X174054000Y-51943000D03*
X174054000Y-54483000D03*
X171514000Y-51943000D03*
X171514000Y-54483000D03*
X168974000Y-51943000D03*
X168974000Y-54483000D03*
X166434000Y-51943000D03*
X166434000Y-54483000D03*
X163894000Y-51943000D03*
X163894000Y-54483000D03*
X161354000Y-51943000D03*
X161354000Y-54483000D03*
X158814000Y-51943000D03*
X158814000Y-54483000D03*
X156274000Y-51943000D03*
X156274000Y-54483000D03*
X153734000Y-51943000D03*
X153734000Y-54483000D03*
X151194000Y-51943000D03*
X151194000Y-54483000D03*
X148654000Y-51943000D03*
X148654000Y-54483000D03*
X146114000Y-51943000D03*
X146114000Y-54483000D03*
X143574000Y-51943000D03*
X143574000Y-54483000D03*
X141034000Y-51943000D03*
X141034000Y-54483000D03*
X138494000Y-51943000D03*
X138494000Y-54483000D03*
X135954000Y-51943000D03*
X135954000Y-54483000D03*
X133414000Y-51943000D03*
X133414000Y-54483000D03*
D17*
X128500000Y-76213000D03*
X128500000Y-53213000D03*
X186500000Y-53213000D03*
X186500000Y-76213000D03*
X186500000Y-76213000D03*
X186500000Y-53213000D03*
X128500000Y-53213000D03*
X128500000Y-76213000D03*
D18*
X152425400Y-79451200D03*
X161417000Y-83680300D03*
X159092900Y-81178400D03*
X149860000Y-84074000D03*
X130556000Y-103378000D03*
X133350000Y-103378000D03*
X130556000Y-102108000D03*
X133350000Y-102108000D03*
X155575000Y-86740000D03*
X145415000Y-86740000D03*
X167005000Y-86740000D03*
X164846000Y-80772000D03*
X144780000Y-81788000D03*
X133604000Y-82804000D03*
X146050000Y-80264000D03*
X180500000Y-87630000D03*
X180340000Y-83058000D03*
X133350000Y-63500000D03*
X130790000Y-63500000D03*
X130810000Y-68580000D03*
X162168800Y-90415200D03*
X150214100Y-95095200D03*
X142102800Y-88236100D03*
X138068700Y-88453600D03*
X137173400Y-88226100D03*
X144111600Y-79133100D03*
X143790600Y-88239000D03*
X143654200Y-85185400D03*
X141014700Y-88732300D03*
X139121700Y-85084000D03*
X179824500Y-98008200D03*
X178890900Y-91234200D03*
X179253900Y-104359800D03*
X178534500Y-92387700D03*
X178694400Y-104938700D03*
X168417400Y-101081100D03*
X154198600Y-94860700D03*
X168451000Y-103936900D03*
X171863500Y-91144500D03*
X156446600Y-98366400D03*
X167005800Y-104770600D03*
X163337800Y-103061400D03*
X162078700Y-103149400D03*
X146878800Y-104666100D03*
X151186900Y-102799100D03*
X160339000Y-105190700D03*
X158176500Y-104811800D03*
X146491100Y-97426000D03*
X149699100Y-103741300D03*
X148273700Y-104314200D03*
X144963900Y-104447900D03*
X142954700Y-104614300D03*
X140732100Y-104575000D03*
X137078100Y-101086800D03*
X170689900Y-89228000D03*
X145774200Y-90077900D03*
X161534800Y-85175700D03*
X163175800Y-85197800D03*
X159996500Y-85279500D03*
X164542900Y-85058000D03*
X156138800Y-88201300D03*
X158982200Y-88246700D03*
X168349000Y-97189200D03*
D19*
X161417000Y-83502500D02*
X161417000Y-83680300D01*
X159092900Y-81178400D02*
X161417000Y-83502500D01*
X171514000Y-74930000D02*
X171514000Y-75502000D01*
X171514000Y-75502000D02*
X172212000Y-76200000D01*
X172212000Y-76200000D02*
X175324000Y-76200000D01*
X175324000Y-76200000D02*
X176594000Y-77470000D01*
X133350000Y-103378000D02*
X130556000Y-103378000D01*
X133350000Y-102108000D02*
X130556000Y-102108000D01*
X167005000Y-86740000D02*
X167005000Y-85725000D01*
X168148000Y-84074000D02*
X164846000Y-80772000D01*
X168148000Y-84582000D02*
X168148000Y-84074000D01*
X167005000Y-85725000D02*
X168148000Y-84582000D01*
X151194000Y-74930000D02*
X151194000Y-72454000D01*
X149860000Y-53277000D02*
X151194000Y-51943000D01*
X149860000Y-55626000D02*
X149860000Y-53277000D01*
X150368000Y-56134000D02*
X149860000Y-55626000D01*
X150368000Y-71628000D02*
X150368000Y-56134000D01*
X151194000Y-72454000D02*
X150368000Y-71628000D01*
X141034000Y-77470000D02*
X141034000Y-78042000D01*
X141034000Y-78042000D02*
X144780000Y-81788000D01*
X133985000Y-86740000D02*
X133985000Y-83185000D01*
X133985000Y-83185000D02*
X133604000Y-82804000D01*
X146050000Y-80264000D02*
X149860000Y-84074000D01*
X152526000Y-86740000D02*
X155575000Y-86740000D01*
X149860000Y-84074000D02*
X152526000Y-86740000D01*
X130790000Y-63500000D02*
X130810000Y-63500000D01*
D20*
X179134000Y-54483000D02*
X181674000Y-54483000D01*
X181674000Y-77470000D02*
X179134000Y-77470000D01*
X178571400Y-98721400D02*
X175100000Y-95250000D01*
X180117900Y-98721400D02*
X178571400Y-98721400D01*
X182600400Y-96238900D02*
X180117900Y-98721400D01*
X182600400Y-78396400D02*
X182600400Y-96238900D01*
X181674000Y-77470000D02*
X182600400Y-78396400D01*
X167449300Y-95695700D02*
X162168800Y-90415200D01*
X167895000Y-95250000D02*
X167449300Y-95695700D01*
X175100000Y-95250000D02*
X167895000Y-95250000D01*
X167449300Y-95695700D02*
X167005000Y-96140000D01*
X146459800Y-95095200D02*
X145415000Y-96140000D01*
X150214100Y-95095200D02*
X146459800Y-95095200D01*
D19*
X141605000Y-87738300D02*
X142102800Y-88236100D01*
X141605000Y-86740000D02*
X141605000Y-87738300D01*
X137634000Y-88888300D02*
X138068700Y-88453600D01*
X134350100Y-88888300D02*
X137634000Y-88888300D01*
X132236800Y-86775000D02*
X134350100Y-88888300D01*
X132236800Y-72448100D02*
X132236800Y-86775000D01*
X139764000Y-64920900D02*
X132236800Y-72448100D01*
X139764000Y-51518600D02*
X139764000Y-64920900D01*
X140523900Y-50758700D02*
X139764000Y-51518600D01*
X172869700Y-50758700D02*
X140523900Y-50758700D01*
X174054000Y-51943000D02*
X172869700Y-50758700D01*
X138068700Y-87013700D02*
X137795000Y-86740000D01*
X138068700Y-88453600D02*
X138068700Y-87013700D01*
X134755400Y-86240400D02*
X135255000Y-86740000D01*
X134755400Y-74454500D02*
X134755400Y-86240400D01*
X135470500Y-73739400D02*
X134755400Y-74454500D01*
X142383400Y-73739400D02*
X135470500Y-73739400D01*
X142383400Y-53133600D02*
X142383400Y-73739400D01*
X143574000Y-51943000D02*
X142383400Y-53133600D01*
X142383400Y-73739400D02*
X143574000Y-74930000D01*
X136525000Y-87577700D02*
X137173400Y-88226100D01*
X136525000Y-86740000D02*
X136525000Y-87577700D01*
X149530900Y-79133100D02*
X144111600Y-79133100D01*
X151194000Y-77470000D02*
X149530900Y-79133100D01*
X142875000Y-87323400D02*
X143790600Y-88239000D01*
X142875000Y-86740000D02*
X142875000Y-87323400D01*
X174689600Y-88040400D02*
X175100000Y-87630000D01*
X162695100Y-88040400D02*
X174689600Y-88040400D01*
X162550400Y-87895700D02*
X162695100Y-88040400D01*
X162550400Y-83746400D02*
X162550400Y-87895700D01*
X156274000Y-77470000D02*
X162550400Y-83746400D01*
X144145000Y-85676200D02*
X143654200Y-85185400D01*
X144145000Y-86740000D02*
X144145000Y-85676200D01*
X140335000Y-88052600D02*
X141014700Y-88732300D01*
X140335000Y-86740000D02*
X140335000Y-88052600D01*
X147304600Y-73739400D02*
X146114000Y-74930000D01*
X147304600Y-53133600D02*
X147304600Y-73739400D01*
X146114000Y-51943000D02*
X147304600Y-53133600D01*
X139121700Y-86683300D02*
X139121700Y-85084000D01*
X139065000Y-86740000D02*
X139121700Y-86683300D01*
X179424600Y-97608300D02*
X179824500Y-98008200D01*
X179424600Y-94815300D02*
X179424600Y-97608300D01*
X180259900Y-93980000D02*
X179424600Y-94815300D01*
X180500000Y-93980000D02*
X180259900Y-93980000D01*
X180329800Y-105435700D02*
X180329800Y-109827400D01*
X179253900Y-104359800D02*
X180329800Y-105435700D01*
X179096700Y-91440000D02*
X178890900Y-91234200D01*
X180500000Y-91440000D02*
X179096700Y-91440000D01*
X178240300Y-92093500D02*
X178534500Y-92387700D01*
X178240300Y-90854100D02*
X178240300Y-92093500D01*
X180194400Y-88900000D02*
X178240300Y-90854100D01*
X180500000Y-88900000D02*
X180194400Y-88900000D01*
X177789800Y-105843300D02*
X177789800Y-109827400D01*
X178694400Y-104938700D02*
X177789800Y-105843300D01*
X163861000Y-101081100D02*
X168417400Y-101081100D01*
X159385000Y-96605100D02*
X163861000Y-101081100D01*
X159385000Y-96140000D02*
X159385000Y-96605100D01*
X175249800Y-106995300D02*
X175249800Y-109827400D01*
X168061100Y-99806600D02*
X175249800Y-106995300D01*
X163839500Y-99806600D02*
X168061100Y-99806600D01*
X160655000Y-96622100D02*
X163839500Y-99806600D01*
X160655000Y-96140000D02*
X160655000Y-96622100D01*
X156845000Y-95674900D02*
X156845000Y-96140000D01*
X156009700Y-94839600D02*
X156845000Y-95674900D01*
X154219700Y-94839600D02*
X156009700Y-94839600D01*
X154198600Y-94860700D02*
X154219700Y-94839600D01*
X166838900Y-102324800D02*
X168451000Y-103936900D01*
X162551600Y-102324800D02*
X166838900Y-102324800D01*
X156845000Y-96618200D02*
X162551600Y-102324800D01*
X156845000Y-96140000D02*
X156845000Y-96618200D01*
X172709800Y-106987900D02*
X172709800Y-109827400D01*
X167424800Y-101702900D02*
X172709800Y-106987900D01*
X163155200Y-101702900D02*
X167424800Y-101702900D01*
X158115000Y-96662700D02*
X163155200Y-101702900D01*
X158115000Y-96140000D02*
X158115000Y-96662700D01*
X172838000Y-90170000D02*
X171863500Y-91144500D01*
X175100000Y-90170000D02*
X172838000Y-90170000D01*
X155575000Y-97494800D02*
X156446600Y-98366400D01*
X155575000Y-96140000D02*
X155575000Y-97494800D01*
X167629800Y-105394600D02*
X167629800Y-109827400D01*
X167005800Y-104770600D02*
X167629800Y-105394600D01*
X165089800Y-104813400D02*
X165089800Y-109827400D01*
X163337800Y-103061400D02*
X165089800Y-104813400D01*
X135255000Y-95652300D02*
X135255000Y-96140000D01*
X136067700Y-94839600D02*
X135255000Y-95652300D01*
X142088500Y-94839600D02*
X136067700Y-94839600D01*
X142249600Y-95000700D02*
X142088500Y-94839600D01*
X142249600Y-97276300D02*
X142249600Y-95000700D01*
X143259800Y-98286500D02*
X142249600Y-97276300D01*
X154975200Y-98286500D02*
X143259800Y-98286500D01*
X159838100Y-103149400D02*
X154975200Y-98286500D01*
X162078700Y-103149400D02*
X159838100Y-103149400D01*
X145966900Y-103754200D02*
X146878800Y-104666100D01*
X141130200Y-103754200D02*
X145966900Y-103754200D01*
X133985000Y-96609000D02*
X141130200Y-103754200D01*
X133985000Y-96140000D02*
X133985000Y-96609000D01*
X158850900Y-102799100D02*
X151186900Y-102799100D01*
X162549800Y-106498000D02*
X158850900Y-102799100D01*
X162549800Y-109827400D02*
X162549800Y-106498000D01*
X160009800Y-105519900D02*
X160009800Y-109827400D01*
X160339000Y-105190700D02*
X160009800Y-105519900D01*
X157469800Y-105518500D02*
X157469800Y-109827400D01*
X158176500Y-104811800D02*
X157469800Y-105518500D01*
X146463600Y-97453500D02*
X146491100Y-97426000D01*
X143634700Y-97453500D02*
X146463600Y-97453500D01*
X142875000Y-96693800D02*
X143634700Y-97453500D01*
X142875000Y-96140000D02*
X142875000Y-96693800D01*
X154929800Y-106998200D02*
X154929800Y-109827400D01*
X152307300Y-104375700D02*
X154929800Y-106998200D01*
X151290000Y-104375700D02*
X152307300Y-104375700D01*
X146055300Y-99141000D02*
X151290000Y-104375700D01*
X143461400Y-99141000D02*
X146055300Y-99141000D01*
X141605000Y-97284600D02*
X143461400Y-99141000D01*
X141605000Y-96140000D02*
X141605000Y-97284600D01*
X146272000Y-100314200D02*
X149699100Y-103741300D01*
X143997700Y-100314200D02*
X146272000Y-100314200D01*
X140335000Y-96651500D02*
X143997700Y-100314200D01*
X140335000Y-96140000D02*
X140335000Y-96651500D01*
X152389800Y-106990600D02*
X152389800Y-109827400D01*
X150519800Y-105120600D02*
X152389800Y-106990600D01*
X149964500Y-105120600D02*
X150519800Y-105120600D01*
X146442500Y-101598600D02*
X149964500Y-105120600D01*
X144057400Y-101598600D02*
X146442500Y-101598600D01*
X139065000Y-96606200D02*
X144057400Y-101598600D01*
X139065000Y-96140000D02*
X139065000Y-96606200D01*
X146620000Y-102660500D02*
X148273700Y-104314200D01*
X143785800Y-102660500D02*
X146620000Y-102660500D01*
X137795000Y-96669700D02*
X143785800Y-102660500D01*
X137795000Y-96140000D02*
X137795000Y-96669700D01*
X149849800Y-106774600D02*
X149849800Y-109827400D01*
X147648400Y-104573200D02*
X149849800Y-106774600D01*
X147648400Y-104488700D02*
X147648400Y-104573200D01*
X146383700Y-103224000D02*
X147648400Y-104488700D01*
X143121400Y-103224000D02*
X146383700Y-103224000D01*
X136525000Y-96627600D02*
X143121400Y-103224000D01*
X136525000Y-96140000D02*
X136525000Y-96627600D01*
X147309800Y-106793800D02*
X147309800Y-109827400D01*
X144963900Y-104447900D02*
X147309800Y-106793800D01*
X144769800Y-106429400D02*
X144769800Y-109827400D01*
X142954700Y-104614300D02*
X144769800Y-106429400D01*
X142229800Y-106072700D02*
X142229800Y-109827400D01*
X140732100Y-104575000D02*
X142229800Y-106072700D01*
X139689800Y-103698500D02*
X139689800Y-109827400D01*
X137078100Y-101086800D02*
X139689800Y-103698500D01*
X174772000Y-89228000D02*
X170689900Y-89228000D01*
X175100000Y-88900000D02*
X174772000Y-89228000D01*
X137149800Y-103031800D02*
X137149800Y-109827400D01*
X133355400Y-99237400D02*
X137149800Y-103031800D01*
X133355400Y-95024500D02*
X133355400Y-99237400D01*
X138302000Y-90077900D02*
X133355400Y-95024500D01*
X145774200Y-90077900D02*
X138302000Y-90077900D01*
X180404000Y-53213000D02*
X165082100Y-53213000D01*
X181674000Y-51943000D02*
X180404000Y-53213000D01*
X162624000Y-53213000D02*
X161354000Y-51943000D01*
X165082100Y-53213000D02*
X162624000Y-53213000D01*
X165082100Y-71201900D02*
X161354000Y-74930000D01*
X165082100Y-53213000D02*
X165082100Y-71201900D01*
X177945900Y-71201900D02*
X181674000Y-74930000D01*
X165082100Y-71201900D02*
X177945900Y-71201900D01*
X180123300Y-93086700D02*
X180500000Y-92710000D01*
X178267800Y-93086700D02*
X180123300Y-93086700D01*
X177246500Y-92065400D02*
X178267800Y-93086700D01*
X170180300Y-92065400D02*
X177246500Y-92065400D01*
X167002800Y-88887900D02*
X170180300Y-92065400D01*
X150753600Y-88887900D02*
X167002800Y-88887900D01*
X139764000Y-77898300D02*
X150753600Y-88887900D01*
X139764000Y-77036300D02*
X139764000Y-77898300D01*
X139022300Y-76294600D02*
X139764000Y-77036300D01*
X137129400Y-76294600D02*
X139022300Y-76294600D01*
X135954000Y-77470000D02*
X137129400Y-76294600D01*
X162624000Y-76200000D02*
X161354000Y-77470000D01*
X162624000Y-74521800D02*
X162624000Y-76200000D01*
X163409900Y-73735900D02*
X162624000Y-74521800D01*
X164452900Y-73735900D02*
X163409900Y-73735900D01*
X165164000Y-74447000D02*
X164452900Y-73735900D01*
X165164000Y-75339400D02*
X165164000Y-74447000D01*
X166119200Y-76294600D02*
X165164000Y-75339400D01*
X169460800Y-76294600D02*
X166119200Y-76294600D01*
X170149300Y-76983100D02*
X169460800Y-76294600D01*
X170149300Y-77835300D02*
X170149300Y-76983100D01*
X170959300Y-78645300D02*
X170149300Y-77835300D01*
X173064400Y-78645300D02*
X170959300Y-78645300D01*
X182075000Y-87655900D02*
X173064400Y-78645300D01*
X182075000Y-93936700D02*
X182075000Y-87655900D01*
X180761700Y-95250000D02*
X182075000Y-93936700D01*
X180500000Y-95250000D02*
X180761700Y-95250000D01*
X153734000Y-77470000D02*
X153734000Y-78169000D01*
X153734000Y-78169000D02*
X159371200Y-83806200D01*
X159371200Y-86726200D02*
X159385000Y-86740000D01*
X159371200Y-83107200D02*
X159371200Y-83806200D01*
X159371200Y-83806200D02*
X159371200Y-86726200D01*
X153734000Y-77470000D02*
X159371200Y-83107200D01*
X161925000Y-85565900D02*
X161534800Y-85175700D01*
X161925000Y-86740000D02*
X161925000Y-85565900D01*
X163175800Y-83509900D02*
X163175800Y-85197800D01*
X157544000Y-77878100D02*
X163175800Y-83509900D01*
X157544000Y-77039000D02*
X157544000Y-77878100D01*
X156799600Y-76294600D02*
X157544000Y-77039000D01*
X155098600Y-76294600D02*
X156799600Y-76294600D01*
X153734000Y-74930000D02*
X155098600Y-76294600D01*
X163175800Y-86720800D02*
X163195000Y-86740000D01*
X163175800Y-85197800D02*
X163175800Y-86720800D01*
X165735000Y-95617200D02*
X165735000Y-96140000D01*
X161881900Y-91764100D02*
X165735000Y-95617200D01*
X146428000Y-91764100D02*
X161881900Y-91764100D01*
X146428000Y-85404000D02*
X146428000Y-91764100D01*
X138494000Y-77470000D02*
X146428000Y-85404000D01*
X144145000Y-94047100D02*
X144145000Y-96140000D01*
X146428000Y-91764100D02*
X144145000Y-94047100D01*
X155004000Y-78089000D02*
X159996500Y-83081500D01*
X155004000Y-77965800D02*
X155004000Y-78089000D01*
X159996500Y-82858100D02*
X159996500Y-83185000D01*
X159996500Y-83185000D02*
X159996500Y-85279500D01*
X159996500Y-82858100D02*
X159996500Y-83081500D01*
X155004000Y-77965800D02*
X155004000Y-77070700D01*
X155028200Y-77889800D02*
X155028200Y-77990000D01*
X155004000Y-77070700D02*
X155004000Y-77865600D01*
X155004000Y-77865600D02*
X155028200Y-77889800D01*
X160655000Y-85938000D02*
X159996500Y-85279500D01*
X160655000Y-86740000D02*
X160655000Y-85938000D01*
X144775500Y-55684500D02*
X144775500Y-76268500D01*
X143574000Y-54483000D02*
X144775500Y-55684500D01*
X143574000Y-77470000D02*
X144775500Y-76268500D01*
X154201800Y-76268500D02*
X155004000Y-77070700D01*
X144775500Y-76268500D02*
X154201800Y-76268500D01*
X164542900Y-85058000D02*
X164465000Y-85058000D01*
X164465000Y-85058000D02*
X164465000Y-86740000D01*
X164465000Y-82687100D02*
X164465000Y-85058000D01*
X160084000Y-78306100D02*
X164465000Y-82687100D01*
X160084000Y-74476100D02*
X160084000Y-78306100D01*
X159347300Y-73739400D02*
X160084000Y-74476100D01*
X157464600Y-73739400D02*
X159347300Y-73739400D01*
X157464600Y-53133600D02*
X157464600Y-73739400D01*
X156274000Y-51943000D02*
X157464600Y-53133600D01*
X157464600Y-73739400D02*
X156274000Y-74930000D01*
X156138800Y-88139700D02*
X156138800Y-88201300D01*
X156845000Y-87433500D02*
X156845000Y-86740000D01*
X156138800Y-88139700D02*
X156845000Y-87433500D01*
X152233900Y-88139700D02*
X156138800Y-88139700D01*
X142304000Y-78209800D02*
X152233900Y-88139700D01*
X142304000Y-76200000D02*
X142304000Y-78209800D01*
X141034000Y-74930000D02*
X142304000Y-76200000D01*
X158115000Y-87379500D02*
X158982200Y-88246700D01*
X158115000Y-86740000D02*
X158115000Y-87379500D01*
X180742300Y-90170000D02*
X180500000Y-90170000D01*
X181575400Y-89336900D02*
X180742300Y-90170000D01*
X181575400Y-88457200D02*
X181575400Y-89336900D01*
X181373600Y-88255400D02*
X181575400Y-88457200D01*
X179462800Y-88255400D02*
X181373600Y-88255400D01*
X176628900Y-85421500D02*
X179462800Y-88255400D01*
X172720300Y-85421500D02*
X176628900Y-85421500D01*
X165164000Y-77865200D02*
X172720300Y-85421500D01*
X165164000Y-76200000D02*
X165164000Y-77865200D01*
X163894000Y-74930000D02*
X165164000Y-76200000D01*
X185409800Y-106969700D02*
X185409800Y-109827400D01*
X177686900Y-99246800D02*
X185409800Y-106969700D01*
X164562900Y-99246800D02*
X177686900Y-99246800D01*
X161925000Y-96608900D02*
X164562900Y-99246800D01*
X161925000Y-96140000D02*
X161925000Y-96608900D01*
X134112100Y-109827400D02*
X134604800Y-109334700D01*
X132069800Y-109827400D02*
X134112100Y-109827400D01*
X175415600Y-91440000D02*
X175100000Y-91440000D01*
X176178500Y-90677100D02*
X175415600Y-91440000D01*
X176178500Y-87193200D02*
X176178500Y-90677100D01*
X175982900Y-86997600D02*
X176178500Y-87193200D01*
X173421600Y-86997600D02*
X175982900Y-86997600D01*
X163894000Y-77470000D02*
X173421600Y-86997600D01*
X168097800Y-97440400D02*
X168349000Y-97189200D01*
X163982500Y-97440400D02*
X168097800Y-97440400D01*
X163195000Y-96652900D02*
X163982500Y-97440400D01*
X163195000Y-96140000D02*
X163195000Y-96652900D01*
D21*
G36*
X189098277Y-50412811D02*
X189234241Y-50503658D01*
X189325089Y-50639622D01*
X189370900Y-50869931D01*
X189370900Y-105464533D01*
X189313930Y-105375999D01*
X189101730Y-105231009D01*
X188849840Y-105180000D01*
X187049840Y-105180000D01*
X186814523Y-105224278D01*
X186679263Y-105311316D01*
X186561730Y-105231009D01*
X186309840Y-105180000D01*
X184694902Y-105180000D01*
X179071302Y-99556400D01*
X180117900Y-99556400D01*
X180437441Y-99492839D01*
X180708334Y-99311834D01*
X181125268Y-98894900D01*
X182375734Y-98894900D01*
X182601665Y-100030730D01*
X183245060Y-100993640D01*
X184207970Y-101637035D01*
X185343800Y-101862966D01*
X186479630Y-101637035D01*
X187442540Y-100993640D01*
X188085935Y-100030730D01*
X188311866Y-98894900D01*
X188085935Y-97759070D01*
X187442540Y-96796160D01*
X186479630Y-96152765D01*
X185343800Y-95926834D01*
X184207970Y-96152765D01*
X183245060Y-96796160D01*
X182601665Y-97759070D01*
X182375734Y-98894900D01*
X181125268Y-98894900D01*
X183190834Y-96829334D01*
X183251693Y-96738252D01*
X183371839Y-96558441D01*
X183435400Y-96238900D01*
X183435400Y-78396400D01*
X183371839Y-78076859D01*
X183190834Y-77805966D01*
X183113368Y-77728500D01*
X183159000Y-77499093D01*
X183159000Y-77440907D01*
X183045961Y-76872622D01*
X182724054Y-76390853D01*
X182722821Y-76390029D01*
X182759317Y-76383162D01*
X182947420Y-76262121D01*
X184327620Y-76262121D01*
X184364793Y-76449003D01*
X184364630Y-76635815D01*
X184436599Y-76809992D01*
X184492945Y-77093263D01*
X184652005Y-77331313D01*
X184688980Y-77420800D01*
X184757988Y-77489929D01*
X184963749Y-77797872D01*
X185269003Y-78001836D01*
X185289041Y-78021909D01*
X185315467Y-78032882D01*
X185668358Y-78268676D01*
X186499500Y-78434001D01*
X187330642Y-78268676D01*
X187678965Y-78035935D01*
X187707800Y-78024020D01*
X187730075Y-78001784D01*
X188035251Y-77797872D01*
X188237382Y-77495362D01*
X188308909Y-77423959D01*
X188348009Y-77329796D01*
X188506055Y-77093263D01*
X188561069Y-76816691D01*
X188634628Y-76639541D01*
X188634797Y-76446035D01*
X188671380Y-76262121D01*
X188635117Y-76079815D01*
X188635370Y-75790185D01*
X188523791Y-75520144D01*
X188506055Y-75430979D01*
X188455988Y-75356048D01*
X188311020Y-75005200D01*
X188040463Y-74734171D01*
X188035251Y-74726370D01*
X188027518Y-74721203D01*
X187710959Y-74404091D01*
X186926541Y-74078372D01*
X186077185Y-74077630D01*
X185292200Y-74401980D01*
X184974317Y-74719309D01*
X184963749Y-74726370D01*
X184956749Y-74736846D01*
X184691091Y-75002041D01*
X184545871Y-75351770D01*
X184492945Y-75430979D01*
X184474522Y-75523596D01*
X184365372Y-75786459D01*
X184365121Y-76073591D01*
X184327620Y-76262121D01*
X182947420Y-76262121D01*
X182975441Y-76244090D01*
X183120431Y-76031890D01*
X183171440Y-75780000D01*
X183171440Y-74080000D01*
X183127162Y-73844683D01*
X182988090Y-73628559D01*
X182775890Y-73483569D01*
X182524000Y-73432560D01*
X181251362Y-73432560D01*
X178483301Y-70664499D01*
X178236739Y-70499752D01*
X177945900Y-70441900D01*
X165842100Y-70441900D01*
X165842100Y-55827138D01*
X166077110Y-55924476D01*
X166307000Y-55803155D01*
X166307000Y-54610000D01*
X166287000Y-54610000D01*
X166287000Y-54356000D01*
X166307000Y-54356000D01*
X166307000Y-54336000D01*
X166561000Y-54336000D01*
X166561000Y-54356000D01*
X166581000Y-54356000D01*
X166581000Y-54610000D01*
X166561000Y-54610000D01*
X166561000Y-55803155D01*
X166790890Y-55924476D01*
X167200924Y-55754645D01*
X167629183Y-55364358D01*
X167696298Y-55221447D01*
X167923946Y-55562147D01*
X168405715Y-55884054D01*
X168974000Y-55997093D01*
X169542285Y-55884054D01*
X170024054Y-55562147D01*
X170244000Y-55232974D01*
X170463946Y-55562147D01*
X170945715Y-55884054D01*
X171514000Y-55997093D01*
X172082285Y-55884054D01*
X172564054Y-55562147D01*
X172784000Y-55232974D01*
X173003946Y-55562147D01*
X173485715Y-55884054D01*
X174054000Y-55997093D01*
X174622285Y-55884054D01*
X175104054Y-55562147D01*
X175331702Y-55221447D01*
X175398817Y-55364358D01*
X175827076Y-55754645D01*
X176237110Y-55924476D01*
X176467000Y-55803155D01*
X176467000Y-54610000D01*
X176447000Y-54610000D01*
X176447000Y-54356000D01*
X176467000Y-54356000D01*
X176467000Y-54336000D01*
X176721000Y-54336000D01*
X176721000Y-54356000D01*
X176741000Y-54356000D01*
X176741000Y-54610000D01*
X176721000Y-54610000D01*
X176721000Y-55803155D01*
X176950890Y-55924476D01*
X177360924Y-55754645D01*
X177789183Y-55364358D01*
X177856298Y-55221447D01*
X178083946Y-55562147D01*
X178565715Y-55884054D01*
X179134000Y-55997093D01*
X179702285Y-55884054D01*
X180184054Y-55562147D01*
X180347187Y-55318000D01*
X180460813Y-55318000D01*
X180623946Y-55562147D01*
X181105715Y-55884054D01*
X181674000Y-55997093D01*
X182242285Y-55884054D01*
X182724054Y-55562147D01*
X183045961Y-55080378D01*
X183159000Y-54512093D01*
X183159000Y-54453907D01*
X183045961Y-53885622D01*
X182879046Y-53635815D01*
X184364630Y-53635815D01*
X184688980Y-54420800D01*
X185289041Y-55021909D01*
X186073459Y-55347628D01*
X186922815Y-55348370D01*
X187707800Y-55024020D01*
X188308909Y-54423959D01*
X188634628Y-53639541D01*
X188635370Y-52790185D01*
X188311020Y-52005200D01*
X187710959Y-51404091D01*
X186926541Y-51078372D01*
X186077185Y-51077630D01*
X185292200Y-51401980D01*
X184691091Y-52002041D01*
X184365372Y-52786459D01*
X184364630Y-53635815D01*
X182879046Y-53635815D01*
X182724054Y-53403853D01*
X182722821Y-53403029D01*
X182759317Y-53396162D01*
X182975441Y-53257090D01*
X183120431Y-53044890D01*
X183171440Y-52793000D01*
X183171440Y-51093000D01*
X183127162Y-50857683D01*
X182988090Y-50641559D01*
X182775890Y-50496569D01*
X182524000Y-50445560D01*
X180824000Y-50445560D01*
X180588683Y-50489838D01*
X180372559Y-50628910D01*
X180227569Y-50841110D01*
X180213914Y-50908541D01*
X180184054Y-50863853D01*
X179702285Y-50541946D01*
X179134000Y-50428907D01*
X178565715Y-50541946D01*
X178083946Y-50863853D01*
X177864000Y-51193026D01*
X177644054Y-50863853D01*
X177162285Y-50541946D01*
X176594000Y-50428907D01*
X176025715Y-50541946D01*
X175543946Y-50863853D01*
X175324000Y-51193026D01*
X175104054Y-50863853D01*
X174622285Y-50541946D01*
X174054000Y-50428907D01*
X173687592Y-50501790D01*
X173552802Y-50367000D01*
X188867973Y-50367000D01*
X189098277Y-50412811D01*
X189098277Y-50412811D01*
G37*
X189098277Y-50412811D02*
X189234241Y-50503658D01*
X189325089Y-50639622D01*
X189370900Y-50869931D01*
X189370900Y-105464533D01*
X189313930Y-105375999D01*
X189101730Y-105231009D01*
X188849840Y-105180000D01*
X187049840Y-105180000D01*
X186814523Y-105224278D01*
X186679263Y-105311316D01*
X186561730Y-105231009D01*
X186309840Y-105180000D01*
X184694902Y-105180000D01*
X179071302Y-99556400D01*
X180117900Y-99556400D01*
X180437441Y-99492839D01*
X180708334Y-99311834D01*
X181125268Y-98894900D01*
X182375734Y-98894900D01*
X182601665Y-100030730D01*
X183245060Y-100993640D01*
X184207970Y-101637035D01*
X185343800Y-101862966D01*
X186479630Y-101637035D01*
X187442540Y-100993640D01*
X188085935Y-100030730D01*
X188311866Y-98894900D01*
X188085935Y-97759070D01*
X187442540Y-96796160D01*
X186479630Y-96152765D01*
X185343800Y-95926834D01*
X184207970Y-96152765D01*
X183245060Y-96796160D01*
X182601665Y-97759070D01*
X182375734Y-98894900D01*
X181125268Y-98894900D01*
X183190834Y-96829334D01*
X183251693Y-96738252D01*
X183371839Y-96558441D01*
X183435400Y-96238900D01*
X183435400Y-78396400D01*
X183371839Y-78076859D01*
X183190834Y-77805966D01*
X183113368Y-77728500D01*
X183159000Y-77499093D01*
X183159000Y-77440907D01*
X183045961Y-76872622D01*
X182724054Y-76390853D01*
X182722821Y-76390029D01*
X182759317Y-76383162D01*
X182947420Y-76262121D01*
X184327620Y-76262121D01*
X184364793Y-76449003D01*
X184364630Y-76635815D01*
X184436599Y-76809992D01*
X184492945Y-77093263D01*
X184652005Y-77331313D01*
X184688980Y-77420800D01*
X184757988Y-77489929D01*
X184963749Y-77797872D01*
X185269003Y-78001836D01*
X185289041Y-78021909D01*
X185315467Y-78032882D01*
X185668358Y-78268676D01*
X186499500Y-78434001D01*
X187330642Y-78268676D01*
X187678965Y-78035935D01*
X187707800Y-78024020D01*
X187730075Y-78001784D01*
X188035251Y-77797872D01*
X188237382Y-77495362D01*
X188308909Y-77423959D01*
X188348009Y-77329796D01*
X188506055Y-77093263D01*
X188561069Y-76816691D01*
X188634628Y-76639541D01*
X188634797Y-76446035D01*
X188671380Y-76262121D01*
X188635117Y-76079815D01*
X188635370Y-75790185D01*
X188523791Y-75520144D01*
X188506055Y-75430979D01*
X188455988Y-75356048D01*
X188311020Y-75005200D01*
X188040463Y-74734171D01*
X188035251Y-74726370D01*
X188027518Y-74721203D01*
X187710959Y-74404091D01*
X186926541Y-74078372D01*
X186077185Y-74077630D01*
X185292200Y-74401980D01*
X184974317Y-74719309D01*
X184963749Y-74726370D01*
X184956749Y-74736846D01*
X184691091Y-75002041D01*
X184545871Y-75351770D01*
X184492945Y-75430979D01*
X184474522Y-75523596D01*
X184365372Y-75786459D01*
X184365121Y-76073591D01*
X184327620Y-76262121D01*
X182947420Y-76262121D01*
X182975441Y-76244090D01*
X183120431Y-76031890D01*
X183171440Y-75780000D01*
X183171440Y-74080000D01*
X183127162Y-73844683D01*
X182988090Y-73628559D01*
X182775890Y-73483569D01*
X182524000Y-73432560D01*
X181251362Y-73432560D01*
X178483301Y-70664499D01*
X178236739Y-70499752D01*
X177945900Y-70441900D01*
X165842100Y-70441900D01*
X165842100Y-55827138D01*
X166077110Y-55924476D01*
X166307000Y-55803155D01*
X166307000Y-54610000D01*
X166287000Y-54610000D01*
X166287000Y-54356000D01*
X166307000Y-54356000D01*
X166307000Y-54336000D01*
X166561000Y-54336000D01*
X166561000Y-54356000D01*
X166581000Y-54356000D01*
X166581000Y-54610000D01*
X166561000Y-54610000D01*
X166561000Y-55803155D01*
X166790890Y-55924476D01*
X167200924Y-55754645D01*
X167629183Y-55364358D01*
X167696298Y-55221447D01*
X167923946Y-55562147D01*
X168405715Y-55884054D01*
X168974000Y-55997093D01*
X169542285Y-55884054D01*
X170024054Y-55562147D01*
X170244000Y-55232974D01*
X170463946Y-55562147D01*
X170945715Y-55884054D01*
X171514000Y-55997093D01*
X172082285Y-55884054D01*
X172564054Y-55562147D01*
X172784000Y-55232974D01*
X173003946Y-55562147D01*
X173485715Y-55884054D01*
X174054000Y-55997093D01*
X174622285Y-55884054D01*
X175104054Y-55562147D01*
X175331702Y-55221447D01*
X175398817Y-55364358D01*
X175827076Y-55754645D01*
X176237110Y-55924476D01*
X176467000Y-55803155D01*
X176467000Y-54610000D01*
X176447000Y-54610000D01*
X176447000Y-54356000D01*
X176467000Y-54356000D01*
X176467000Y-54336000D01*
X176721000Y-54336000D01*
X176721000Y-54356000D01*
X176741000Y-54356000D01*
X176741000Y-54610000D01*
X176721000Y-54610000D01*
X176721000Y-55803155D01*
X176950890Y-55924476D01*
X177360924Y-55754645D01*
X177789183Y-55364358D01*
X177856298Y-55221447D01*
X178083946Y-55562147D01*
X178565715Y-55884054D01*
X179134000Y-55997093D01*
X179702285Y-55884054D01*
X180184054Y-55562147D01*
X180347187Y-55318000D01*
X180460813Y-55318000D01*
X180623946Y-55562147D01*
X181105715Y-55884054D01*
X181674000Y-55997093D01*
X182242285Y-55884054D01*
X182724054Y-55562147D01*
X183045961Y-55080378D01*
X183159000Y-54512093D01*
X183159000Y-54453907D01*
X183045961Y-53885622D01*
X182879046Y-53635815D01*
X184364630Y-53635815D01*
X184688980Y-54420800D01*
X185289041Y-55021909D01*
X186073459Y-55347628D01*
X186922815Y-55348370D01*
X187707800Y-55024020D01*
X188308909Y-54423959D01*
X188634628Y-53639541D01*
X188635370Y-52790185D01*
X188311020Y-52005200D01*
X187710959Y-51404091D01*
X186926541Y-51078372D01*
X186077185Y-51077630D01*
X185292200Y-51401980D01*
X184691091Y-52002041D01*
X184365372Y-52786459D01*
X184364630Y-53635815D01*
X182879046Y-53635815D01*
X182724054Y-53403853D01*
X182722821Y-53403029D01*
X182759317Y-53396162D01*
X182975441Y-53257090D01*
X183120431Y-53044890D01*
X183171440Y-52793000D01*
X183171440Y-51093000D01*
X183127162Y-50857683D01*
X182988090Y-50641559D01*
X182775890Y-50496569D01*
X182524000Y-50445560D01*
X180824000Y-50445560D01*
X180588683Y-50489838D01*
X180372559Y-50628910D01*
X180227569Y-50841110D01*
X180213914Y-50908541D01*
X180184054Y-50863853D01*
X179702285Y-50541946D01*
X179134000Y-50428907D01*
X178565715Y-50541946D01*
X178083946Y-50863853D01*
X177864000Y-51193026D01*
X177644054Y-50863853D01*
X177162285Y-50541946D01*
X176594000Y-50428907D01*
X176025715Y-50541946D01*
X175543946Y-50863853D01*
X175324000Y-51193026D01*
X175104054Y-50863853D01*
X174622285Y-50541946D01*
X174054000Y-50428907D01*
X173687592Y-50501790D01*
X173552802Y-50367000D01*
X188867973Y-50367000D01*
X189098277Y-50412811D01*
G36*
X139424097Y-50783701D02*
X139062285Y-50541946D01*
X138494000Y-50428907D01*
X137925715Y-50541946D01*
X137443946Y-50863853D01*
X137224000Y-51193026D01*
X137004054Y-50863853D01*
X136522285Y-50541946D01*
X135954000Y-50428907D01*
X135385715Y-50541946D01*
X134903946Y-50863853D01*
X134676298Y-51204553D01*
X134609183Y-51061642D01*
X134180924Y-50671355D01*
X133770890Y-50501524D01*
X133541000Y-50622845D01*
X133541000Y-51816000D01*
X133561000Y-51816000D01*
X133561000Y-52070000D01*
X133541000Y-52070000D01*
X133541000Y-52090000D01*
X133287000Y-52090000D01*
X133287000Y-52070000D01*
X132093181Y-52070000D01*
X131972514Y-52299892D01*
X132218817Y-52824358D01*
X132647076Y-53214645D01*
X132647101Y-53214655D01*
X132363946Y-53403853D01*
X132042039Y-53885622D01*
X131929000Y-54453907D01*
X131929000Y-54512093D01*
X132042039Y-55080378D01*
X132363946Y-55562147D01*
X132845715Y-55884054D01*
X133414000Y-55997093D01*
X133982285Y-55884054D01*
X134464054Y-55562147D01*
X134684000Y-55232974D01*
X134903946Y-55562147D01*
X135385715Y-55884054D01*
X135954000Y-55997093D01*
X136522285Y-55884054D01*
X137004054Y-55562147D01*
X137224000Y-55232974D01*
X137443946Y-55562147D01*
X137925715Y-55884054D01*
X138494000Y-55997093D01*
X139004000Y-55895648D01*
X139004000Y-64606098D01*
X131699399Y-71910699D01*
X131534652Y-72157261D01*
X131476800Y-72448100D01*
X131476800Y-86775000D01*
X131534652Y-87065839D01*
X131699399Y-87312401D01*
X133812699Y-89425701D01*
X134059261Y-89590448D01*
X134350100Y-89648300D01*
X137634000Y-89648300D01*
X137662459Y-89642639D01*
X132817999Y-94487099D01*
X132653252Y-94733661D01*
X132595400Y-95024500D01*
X132595400Y-99237400D01*
X132653252Y-99528239D01*
X132817999Y-99774801D01*
X136389800Y-103346602D01*
X136389800Y-105180000D01*
X136249840Y-105180000D01*
X136014523Y-105224278D01*
X135871190Y-105316511D01*
X135756650Y-105238249D01*
X135504760Y-105187240D01*
X133704760Y-105187240D01*
X133469443Y-105231518D01*
X133342256Y-105313361D01*
X133221730Y-105231009D01*
X132969840Y-105180000D01*
X131169840Y-105180000D01*
X130934523Y-105224278D01*
X130799263Y-105311316D01*
X130681730Y-105231009D01*
X130429840Y-105180000D01*
X128629840Y-105180000D01*
X128394523Y-105224278D01*
X128259263Y-105311316D01*
X128141730Y-105231009D01*
X127889840Y-105180000D01*
X126089840Y-105180000D01*
X125854523Y-105224278D01*
X125652600Y-105354212D01*
X125652600Y-93687900D01*
X126414082Y-93687900D01*
X126636561Y-94806376D01*
X127270126Y-95754574D01*
X128218324Y-96388139D01*
X129336800Y-96610618D01*
X130455276Y-96388139D01*
X131403474Y-95754574D01*
X132037039Y-94806376D01*
X132259518Y-93687900D01*
X132037039Y-92569424D01*
X131403474Y-91621226D01*
X130455276Y-90987661D01*
X129336800Y-90765182D01*
X128218324Y-90987661D01*
X127270126Y-91621226D01*
X126636561Y-92569424D01*
X126414082Y-93687900D01*
X125652600Y-93687900D01*
X125652600Y-76263500D01*
X126288620Y-76263500D01*
X126453945Y-77094642D01*
X126924749Y-77799251D01*
X127629358Y-78270055D01*
X128460500Y-78435380D01*
X128898036Y-78348348D01*
X128922815Y-78348370D01*
X128945918Y-78338824D01*
X129291642Y-78270055D01*
X129582175Y-78075927D01*
X129707800Y-78024020D01*
X129804845Y-77927144D01*
X129996251Y-77799251D01*
X130123027Y-77609517D01*
X130308909Y-77423959D01*
X130410520Y-77179253D01*
X130467055Y-77094642D01*
X130486734Y-76995709D01*
X130634628Y-76639541D01*
X130635370Y-75790185D01*
X130311020Y-75005200D01*
X129710959Y-74404091D01*
X128926541Y-74078372D01*
X128077185Y-74077630D01*
X127656070Y-74251632D01*
X127629358Y-74256945D01*
X127606910Y-74271944D01*
X127292200Y-74401980D01*
X127049087Y-74644669D01*
X126924749Y-74727749D01*
X126842395Y-74851001D01*
X126691091Y-75002041D01*
X126608382Y-75201227D01*
X126453945Y-75432358D01*
X126400188Y-75702614D01*
X126365372Y-75786459D01*
X126365292Y-75878045D01*
X126288620Y-76263500D01*
X125652600Y-76263500D01*
X125652600Y-53635815D01*
X126364630Y-53635815D01*
X126688980Y-54420800D01*
X127289041Y-55021909D01*
X128073459Y-55347628D01*
X128922815Y-55348370D01*
X129707800Y-55024020D01*
X130308909Y-54423959D01*
X130634628Y-53639541D01*
X130635370Y-52790185D01*
X130311020Y-52005200D01*
X129892659Y-51586108D01*
X131972514Y-51586108D01*
X132093181Y-51816000D01*
X133287000Y-51816000D01*
X133287000Y-50622845D01*
X133057110Y-50501524D01*
X132647076Y-50671355D01*
X132218817Y-51061642D01*
X131972514Y-51586108D01*
X129892659Y-51586108D01*
X129710959Y-51404091D01*
X128926541Y-51078372D01*
X128077185Y-51077630D01*
X127292200Y-51401980D01*
X126691091Y-52002041D01*
X126365372Y-52786459D01*
X126364630Y-53635815D01*
X125652600Y-53635815D01*
X125652600Y-50869927D01*
X125698411Y-50639623D01*
X125789258Y-50503659D01*
X125925222Y-50412811D01*
X126155531Y-50367000D01*
X139840798Y-50367000D01*
X139424097Y-50783701D01*
X139424097Y-50783701D01*
G37*
X139424097Y-50783701D02*
X139062285Y-50541946D01*
X138494000Y-50428907D01*
X137925715Y-50541946D01*
X137443946Y-50863853D01*
X137224000Y-51193026D01*
X137004054Y-50863853D01*
X136522285Y-50541946D01*
X135954000Y-50428907D01*
X135385715Y-50541946D01*
X134903946Y-50863853D01*
X134676298Y-51204553D01*
X134609183Y-51061642D01*
X134180924Y-50671355D01*
X133770890Y-50501524D01*
X133541000Y-50622845D01*
X133541000Y-51816000D01*
X133561000Y-51816000D01*
X133561000Y-52070000D01*
X133541000Y-52070000D01*
X133541000Y-52090000D01*
X133287000Y-52090000D01*
X133287000Y-52070000D01*
X132093181Y-52070000D01*
X131972514Y-52299892D01*
X132218817Y-52824358D01*
X132647076Y-53214645D01*
X132647101Y-53214655D01*
X132363946Y-53403853D01*
X132042039Y-53885622D01*
X131929000Y-54453907D01*
X131929000Y-54512093D01*
X132042039Y-55080378D01*
X132363946Y-55562147D01*
X132845715Y-55884054D01*
X133414000Y-55997093D01*
X133982285Y-55884054D01*
X134464054Y-55562147D01*
X134684000Y-55232974D01*
X134903946Y-55562147D01*
X135385715Y-55884054D01*
X135954000Y-55997093D01*
X136522285Y-55884054D01*
X137004054Y-55562147D01*
X137224000Y-55232974D01*
X137443946Y-55562147D01*
X137925715Y-55884054D01*
X138494000Y-55997093D01*
X139004000Y-55895648D01*
X139004000Y-64606098D01*
X131699399Y-71910699D01*
X131534652Y-72157261D01*
X131476800Y-72448100D01*
X131476800Y-86775000D01*
X131534652Y-87065839D01*
X131699399Y-87312401D01*
X133812699Y-89425701D01*
X134059261Y-89590448D01*
X134350100Y-89648300D01*
X137634000Y-89648300D01*
X137662459Y-89642639D01*
X132817999Y-94487099D01*
X132653252Y-94733661D01*
X132595400Y-95024500D01*
X132595400Y-99237400D01*
X132653252Y-99528239D01*
X132817999Y-99774801D01*
X136389800Y-103346602D01*
X136389800Y-105180000D01*
X136249840Y-105180000D01*
X136014523Y-105224278D01*
X135871190Y-105316511D01*
X135756650Y-105238249D01*
X135504760Y-105187240D01*
X133704760Y-105187240D01*
X133469443Y-105231518D01*
X133342256Y-105313361D01*
X133221730Y-105231009D01*
X132969840Y-105180000D01*
X131169840Y-105180000D01*
X130934523Y-105224278D01*
X130799263Y-105311316D01*
X130681730Y-105231009D01*
X130429840Y-105180000D01*
X128629840Y-105180000D01*
X128394523Y-105224278D01*
X128259263Y-105311316D01*
X128141730Y-105231009D01*
X127889840Y-105180000D01*
X126089840Y-105180000D01*
X125854523Y-105224278D01*
X125652600Y-105354212D01*
X125652600Y-93687900D01*
X126414082Y-93687900D01*
X126636561Y-94806376D01*
X127270126Y-95754574D01*
X128218324Y-96388139D01*
X129336800Y-96610618D01*
X130455276Y-96388139D01*
X131403474Y-95754574D01*
X132037039Y-94806376D01*
X132259518Y-93687900D01*
X132037039Y-92569424D01*
X131403474Y-91621226D01*
X130455276Y-90987661D01*
X129336800Y-90765182D01*
X128218324Y-90987661D01*
X127270126Y-91621226D01*
X126636561Y-92569424D01*
X126414082Y-93687900D01*
X125652600Y-93687900D01*
X125652600Y-76263500D01*
X126288620Y-76263500D01*
X126453945Y-77094642D01*
X126924749Y-77799251D01*
X127629358Y-78270055D01*
X128460500Y-78435380D01*
X128898036Y-78348348D01*
X128922815Y-78348370D01*
X128945918Y-78338824D01*
X129291642Y-78270055D01*
X129582175Y-78075927D01*
X129707800Y-78024020D01*
X129804845Y-77927144D01*
X129996251Y-77799251D01*
X130123027Y-77609517D01*
X130308909Y-77423959D01*
X130410520Y-77179253D01*
X130467055Y-77094642D01*
X130486734Y-76995709D01*
X130634628Y-76639541D01*
X130635370Y-75790185D01*
X130311020Y-75005200D01*
X129710959Y-74404091D01*
X128926541Y-74078372D01*
X128077185Y-74077630D01*
X127656070Y-74251632D01*
X127629358Y-74256945D01*
X127606910Y-74271944D01*
X127292200Y-74401980D01*
X127049087Y-74644669D01*
X126924749Y-74727749D01*
X126842395Y-74851001D01*
X126691091Y-75002041D01*
X126608382Y-75201227D01*
X126453945Y-75432358D01*
X126400188Y-75702614D01*
X126365372Y-75786459D01*
X126365292Y-75878045D01*
X126288620Y-76263500D01*
X125652600Y-76263500D01*
X125652600Y-53635815D01*
X126364630Y-53635815D01*
X126688980Y-54420800D01*
X127289041Y-55021909D01*
X128073459Y-55347628D01*
X128922815Y-55348370D01*
X129707800Y-55024020D01*
X130308909Y-54423959D01*
X130634628Y-53639541D01*
X130635370Y-52790185D01*
X130311020Y-52005200D01*
X129892659Y-51586108D01*
X131972514Y-51586108D01*
X132093181Y-51816000D01*
X133287000Y-51816000D01*
X133287000Y-50622845D01*
X133057110Y-50501524D01*
X132647076Y-50671355D01*
X132218817Y-51061642D01*
X131972514Y-51586108D01*
X129892659Y-51586108D01*
X129710959Y-51404091D01*
X128926541Y-51078372D01*
X128077185Y-51077630D01*
X127292200Y-51401980D01*
X126691091Y-52002041D01*
X126365372Y-52786459D01*
X126364630Y-53635815D01*
X125652600Y-53635815D01*
X125652600Y-50869927D01*
X125698411Y-50639623D01*
X125789258Y-50503659D01*
X125925222Y-50412811D01*
X126155531Y-50367000D01*
X139840798Y-50367000D01*
X139424097Y-50783701D01*
G36*
X145542000Y-86613000D02*
X145562000Y-86613000D01*
X145562000Y-86867000D01*
X145542000Y-86867000D01*
X145542000Y-88191250D01*
X145668000Y-88317250D01*
X145668000Y-89142807D01*
X145589033Y-89142738D01*
X145245257Y-89284783D01*
X145212082Y-89317900D01*
X141751522Y-89317900D01*
X141806892Y-89262627D01*
X141855412Y-89145779D01*
X141916001Y-89170938D01*
X142287967Y-89171262D01*
X142631743Y-89029217D01*
X142894992Y-88766427D01*
X142946050Y-88643466D01*
X142997483Y-88767943D01*
X143260273Y-89031192D01*
X143603801Y-89173838D01*
X143975767Y-89174162D01*
X144319543Y-89032117D01*
X144582792Y-88769327D01*
X144725438Y-88425799D01*
X144725557Y-88289051D01*
X144770980Y-88259822D01*
X144988690Y-88350000D01*
X145129250Y-88350000D01*
X145288000Y-88191250D01*
X145288000Y-86867000D01*
X145268000Y-86867000D01*
X145268000Y-86613000D01*
X145288000Y-86613000D01*
X145288000Y-86593000D01*
X145542000Y-86593000D01*
X145542000Y-86613000D01*
X145542000Y-86613000D01*
G37*
X145542000Y-86613000D02*
X145562000Y-86613000D01*
X145562000Y-86867000D01*
X145542000Y-86867000D01*
X145542000Y-88191250D01*
X145668000Y-88317250D01*
X145668000Y-89142807D01*
X145589033Y-89142738D01*
X145245257Y-89284783D01*
X145212082Y-89317900D01*
X141751522Y-89317900D01*
X141806892Y-89262627D01*
X141855412Y-89145779D01*
X141916001Y-89170938D01*
X142287967Y-89171262D01*
X142631743Y-89029217D01*
X142894992Y-88766427D01*
X142946050Y-88643466D01*
X142997483Y-88767943D01*
X143260273Y-89031192D01*
X143603801Y-89173838D01*
X143975767Y-89174162D01*
X144319543Y-89032117D01*
X144582792Y-88769327D01*
X144725438Y-88425799D01*
X144725557Y-88289051D01*
X144770980Y-88259822D01*
X144988690Y-88350000D01*
X145129250Y-88350000D01*
X145288000Y-88191250D01*
X145288000Y-86867000D01*
X145268000Y-86867000D01*
X145268000Y-86613000D01*
X145288000Y-86613000D01*
X145288000Y-86593000D01*
X145542000Y-86593000D01*
X145542000Y-86613000D01*
G36*
X151147298Y-88127900D02*
X151068402Y-88127900D01*
X141716934Y-78776432D01*
X141772723Y-78753325D01*
X151147298Y-88127900D01*
X151147298Y-88127900D01*
G37*
X151147298Y-88127900D02*
X151068402Y-88127900D01*
X141716934Y-78776432D01*
X141772723Y-78753325D01*
X151147298Y-88127900D01*
G36*
X152683946Y-78549147D02*
X153165715Y-78871054D01*
X153409804Y-78919606D01*
X158611200Y-84121002D01*
X158611200Y-85157291D01*
X158415000Y-85117560D01*
X157815000Y-85117560D01*
X157579683Y-85161838D01*
X157480472Y-85225678D01*
X157396890Y-85168569D01*
X157145000Y-85117560D01*
X156545000Y-85117560D01*
X156309683Y-85161838D01*
X156219020Y-85220178D01*
X156001310Y-85130000D01*
X155860750Y-85130000D01*
X155702000Y-85288750D01*
X155702000Y-86613000D01*
X155722000Y-86613000D01*
X155722000Y-86867000D01*
X155702000Y-86867000D01*
X155702000Y-86887000D01*
X155448000Y-86887000D01*
X155448000Y-86867000D01*
X154798750Y-86867000D01*
X154640000Y-87025750D01*
X154640000Y-87379700D01*
X152548702Y-87379700D01*
X150807693Y-85638691D01*
X154640000Y-85638691D01*
X154640000Y-86454250D01*
X154798750Y-86613000D01*
X155448000Y-86613000D01*
X155448000Y-85288750D01*
X155289250Y-85130000D01*
X155148690Y-85130000D01*
X154915301Y-85226673D01*
X154736673Y-85405302D01*
X154640000Y-85638691D01*
X150807693Y-85638691D01*
X145062102Y-79893100D01*
X149530900Y-79893100D01*
X149821739Y-79835248D01*
X150068301Y-79670501D01*
X150827592Y-78911210D01*
X151194000Y-78984093D01*
X151762285Y-78871054D01*
X152244054Y-78549147D01*
X152464000Y-78219974D01*
X152683946Y-78549147D01*
X152683946Y-78549147D01*
G37*
X152683946Y-78549147D02*
X153165715Y-78871054D01*
X153409804Y-78919606D01*
X158611200Y-84121002D01*
X158611200Y-85157291D01*
X158415000Y-85117560D01*
X157815000Y-85117560D01*
X157579683Y-85161838D01*
X157480472Y-85225678D01*
X157396890Y-85168569D01*
X157145000Y-85117560D01*
X156545000Y-85117560D01*
X156309683Y-85161838D01*
X156219020Y-85220178D01*
X156001310Y-85130000D01*
X155860750Y-85130000D01*
X155702000Y-85288750D01*
X155702000Y-86613000D01*
X155722000Y-86613000D01*
X155722000Y-86867000D01*
X155702000Y-86867000D01*
X155702000Y-86887000D01*
X155448000Y-86887000D01*
X155448000Y-86867000D01*
X154798750Y-86867000D01*
X154640000Y-87025750D01*
X154640000Y-87379700D01*
X152548702Y-87379700D01*
X150807693Y-85638691D01*
X154640000Y-85638691D01*
X154640000Y-86454250D01*
X154798750Y-86613000D01*
X155448000Y-86613000D01*
X155448000Y-85288750D01*
X155289250Y-85130000D01*
X155148690Y-85130000D01*
X154915301Y-85226673D01*
X154736673Y-85405302D01*
X154640000Y-85638691D01*
X150807693Y-85638691D01*
X145062102Y-79893100D01*
X149530900Y-79893100D01*
X149821739Y-79835248D01*
X150068301Y-79670501D01*
X150827592Y-78911210D01*
X151194000Y-78984093D01*
X151762285Y-78871054D01*
X152244054Y-78549147D01*
X152464000Y-78219974D01*
X152683946Y-78549147D01*
G36*
X162843946Y-78549147D02*
X163325715Y-78871054D01*
X163894000Y-78984093D01*
X164260408Y-78911210D01*
X172629598Y-87280400D01*
X167940000Y-87280400D01*
X167940000Y-87025750D01*
X167781250Y-86867000D01*
X167132000Y-86867000D01*
X167132000Y-86887000D01*
X166878000Y-86887000D01*
X166878000Y-86867000D01*
X166858000Y-86867000D01*
X166858000Y-86613000D01*
X166878000Y-86613000D01*
X166878000Y-85288750D01*
X167132000Y-85288750D01*
X167132000Y-86613000D01*
X167781250Y-86613000D01*
X167940000Y-86454250D01*
X167940000Y-85638691D01*
X167843327Y-85405302D01*
X167664699Y-85226673D01*
X167431310Y-85130000D01*
X167290750Y-85130000D01*
X167132000Y-85288750D01*
X166878000Y-85288750D01*
X166719250Y-85130000D01*
X166578690Y-85130000D01*
X166361878Y-85219806D01*
X166286890Y-85168569D01*
X166035000Y-85117560D01*
X165477849Y-85117560D01*
X165478062Y-84872833D01*
X165336017Y-84529057D01*
X165225000Y-84417846D01*
X165225000Y-82687100D01*
X165167148Y-82396261D01*
X165002401Y-82149699D01*
X161756694Y-78903992D01*
X161922285Y-78871054D01*
X162404054Y-78549147D01*
X162624000Y-78219974D01*
X162843946Y-78549147D01*
X162843946Y-78549147D01*
G37*
X162843946Y-78549147D02*
X163325715Y-78871054D01*
X163894000Y-78984093D01*
X164260408Y-78911210D01*
X172629598Y-87280400D01*
X167940000Y-87280400D01*
X167940000Y-87025750D01*
X167781250Y-86867000D01*
X167132000Y-86867000D01*
X167132000Y-86887000D01*
X166878000Y-86887000D01*
X166878000Y-86867000D01*
X166858000Y-86867000D01*
X166858000Y-86613000D01*
X166878000Y-86613000D01*
X166878000Y-85288750D01*
X167132000Y-85288750D01*
X167132000Y-86613000D01*
X167781250Y-86613000D01*
X167940000Y-86454250D01*
X167940000Y-85638691D01*
X167843327Y-85405302D01*
X167664699Y-85226673D01*
X167431310Y-85130000D01*
X167290750Y-85130000D01*
X167132000Y-85288750D01*
X166878000Y-85288750D01*
X166719250Y-85130000D01*
X166578690Y-85130000D01*
X166361878Y-85219806D01*
X166286890Y-85168569D01*
X166035000Y-85117560D01*
X165477849Y-85117560D01*
X165478062Y-84872833D01*
X165336017Y-84529057D01*
X165225000Y-84417846D01*
X165225000Y-82687100D01*
X165167148Y-82396261D01*
X165002401Y-82149699D01*
X161756694Y-78903992D01*
X161922285Y-78871054D01*
X162404054Y-78549147D01*
X162624000Y-78219974D01*
X162843946Y-78549147D01*
G36*
X133995400Y-86240400D02*
X134053252Y-86531239D01*
X134132000Y-86649094D01*
X134132000Y-86867000D01*
X134112000Y-86867000D01*
X134112000Y-86887000D01*
X133858000Y-86887000D01*
X133858000Y-86867000D01*
X133838000Y-86867000D01*
X133838000Y-86613000D01*
X133858000Y-86613000D01*
X133858000Y-85288750D01*
X133699250Y-85130000D01*
X133558690Y-85130000D01*
X133325301Y-85226673D01*
X133146673Y-85405302D01*
X133050000Y-85638691D01*
X133050000Y-86454250D01*
X133208748Y-86612998D01*
X133149600Y-86612998D01*
X132996800Y-86460198D01*
X132996800Y-78901107D01*
X133414000Y-78984093D01*
X133982285Y-78871054D01*
X133995400Y-78862291D01*
X133995400Y-86240400D01*
X133995400Y-86240400D01*
G37*
X133995400Y-86240400D02*
X134053252Y-86531239D01*
X134132000Y-86649094D01*
X134132000Y-86867000D01*
X134112000Y-86867000D01*
X134112000Y-86887000D01*
X133858000Y-86887000D01*
X133858000Y-86867000D01*
X133838000Y-86867000D01*
X133838000Y-86613000D01*
X133858000Y-86613000D01*
X133858000Y-85288750D01*
X133699250Y-85130000D01*
X133558690Y-85130000D01*
X133325301Y-85226673D01*
X133146673Y-85405302D01*
X133050000Y-85638691D01*
X133050000Y-86454250D01*
X133208748Y-86612998D01*
X133149600Y-86612998D01*
X132996800Y-86460198D01*
X132996800Y-78901107D01*
X133414000Y-78984093D01*
X133982285Y-78871054D01*
X133995400Y-78862291D01*
X133995400Y-86240400D01*
G36*
X176721000Y-77343000D02*
X176741000Y-77343000D01*
X176741000Y-77597000D01*
X176721000Y-77597000D01*
X176721000Y-78790155D01*
X176950890Y-78911476D01*
X177360924Y-78741645D01*
X177789183Y-78351358D01*
X177856298Y-78208447D01*
X178083946Y-78549147D01*
X178565715Y-78871054D01*
X179134000Y-78984093D01*
X179702285Y-78871054D01*
X180184054Y-78549147D01*
X180347187Y-78305000D01*
X180460813Y-78305000D01*
X180623946Y-78549147D01*
X181105715Y-78871054D01*
X181674000Y-78984093D01*
X181765400Y-78965912D01*
X181765400Y-86271498D01*
X174407650Y-78913748D01*
X174622285Y-78871054D01*
X175104054Y-78549147D01*
X175331702Y-78208447D01*
X175398817Y-78351358D01*
X175827076Y-78741645D01*
X176237110Y-78911476D01*
X176467000Y-78790155D01*
X176467000Y-77597000D01*
X176447000Y-77597000D01*
X176447000Y-77343000D01*
X176467000Y-77343000D01*
X176467000Y-77323000D01*
X176721000Y-77323000D01*
X176721000Y-77343000D01*
X176721000Y-77343000D01*
G37*
X176721000Y-77343000D02*
X176741000Y-77343000D01*
X176741000Y-77597000D01*
X176721000Y-77597000D01*
X176721000Y-78790155D01*
X176950890Y-78911476D01*
X177360924Y-78741645D01*
X177789183Y-78351358D01*
X177856298Y-78208447D01*
X178083946Y-78549147D01*
X178565715Y-78871054D01*
X179134000Y-78984093D01*
X179702285Y-78871054D01*
X180184054Y-78549147D01*
X180347187Y-78305000D01*
X180460813Y-78305000D01*
X180623946Y-78549147D01*
X181105715Y-78871054D01*
X181674000Y-78984093D01*
X181765400Y-78965912D01*
X181765400Y-86271498D01*
X174407650Y-78913748D01*
X174622285Y-78871054D01*
X175104054Y-78549147D01*
X175331702Y-78208447D01*
X175398817Y-78351358D01*
X175827076Y-78741645D01*
X176237110Y-78911476D01*
X176467000Y-78790155D01*
X176467000Y-77597000D01*
X176447000Y-77597000D01*
X176447000Y-77343000D01*
X176467000Y-77343000D01*
X176467000Y-77323000D01*
X176721000Y-77323000D01*
X176721000Y-77343000D01*
G36*
X158941000Y-77343000D02*
X158961000Y-77343000D01*
X158961000Y-77597000D01*
X158941000Y-77597000D01*
X158941000Y-77617000D01*
X158687000Y-77617000D01*
X158687000Y-77597000D01*
X158667000Y-77597000D01*
X158667000Y-77343000D01*
X158687000Y-77343000D01*
X158687000Y-77323000D01*
X158941000Y-77323000D01*
X158941000Y-77343000D01*
X158941000Y-77343000D01*
G37*
X158941000Y-77343000D02*
X158961000Y-77343000D01*
X158961000Y-77597000D01*
X158941000Y-77597000D01*
X158941000Y-77617000D01*
X158687000Y-77617000D01*
X158687000Y-77597000D01*
X158667000Y-77597000D01*
X158667000Y-77343000D01*
X158687000Y-77343000D01*
X158687000Y-77323000D01*
X158941000Y-77323000D01*
X158941000Y-77343000D01*
G36*
X141161000Y-77343000D02*
X141181000Y-77343000D01*
X141181000Y-77597000D01*
X141161000Y-77597000D01*
X141161000Y-77617000D01*
X140907000Y-77617000D01*
X140907000Y-77597000D01*
X140887000Y-77597000D01*
X140887000Y-77343000D01*
X140907000Y-77343000D01*
X140907000Y-77323000D01*
X141161000Y-77323000D01*
X141161000Y-77343000D01*
X141161000Y-77343000D01*
G37*
X141161000Y-77343000D02*
X141181000Y-77343000D01*
X141181000Y-77597000D01*
X141161000Y-77597000D01*
X141161000Y-77617000D01*
X140907000Y-77617000D01*
X140907000Y-77597000D01*
X140887000Y-77597000D01*
X140887000Y-77343000D01*
X140907000Y-77343000D01*
X140907000Y-77323000D01*
X141161000Y-77323000D01*
X141161000Y-77343000D01*
G36*
X146241000Y-77343000D02*
X146261000Y-77343000D01*
X146261000Y-77597000D01*
X146241000Y-77597000D01*
X146241000Y-77617000D01*
X145987000Y-77617000D01*
X145987000Y-77597000D01*
X145967000Y-77597000D01*
X145967000Y-77343000D01*
X145987000Y-77343000D01*
X145987000Y-77323000D01*
X146241000Y-77323000D01*
X146241000Y-77343000D01*
X146241000Y-77343000D01*
G37*
X146241000Y-77343000D02*
X146261000Y-77343000D01*
X146261000Y-77597000D01*
X146241000Y-77597000D01*
X146241000Y-77617000D01*
X145987000Y-77617000D01*
X145987000Y-77597000D01*
X145967000Y-77597000D01*
X145967000Y-77343000D01*
X145987000Y-77343000D01*
X145987000Y-77323000D01*
X146241000Y-77323000D01*
X146241000Y-77343000D01*
G36*
X166561000Y-77343000D02*
X166581000Y-77343000D01*
X166581000Y-77597000D01*
X166561000Y-77597000D01*
X166561000Y-77617000D01*
X166307000Y-77617000D01*
X166307000Y-77597000D01*
X166287000Y-77597000D01*
X166287000Y-77343000D01*
X166307000Y-77343000D01*
X166307000Y-77323000D01*
X166561000Y-77323000D01*
X166561000Y-77343000D01*
X166561000Y-77343000D01*
G37*
X166561000Y-77343000D02*
X166581000Y-77343000D01*
X166581000Y-77597000D01*
X166561000Y-77597000D01*
X166561000Y-77617000D01*
X166307000Y-77617000D01*
X166307000Y-77597000D01*
X166287000Y-77597000D01*
X166287000Y-77343000D01*
X166307000Y-77343000D01*
X166307000Y-77323000D01*
X166561000Y-77323000D01*
X166561000Y-77343000D01*
G36*
X175543946Y-76009147D02*
X175827101Y-76198345D01*
X175827076Y-76198355D01*
X175398817Y-76588642D01*
X175331702Y-76731553D01*
X175104054Y-76390853D01*
X174818422Y-76200000D01*
X175104054Y-76009147D01*
X175324000Y-75679974D01*
X175543946Y-76009147D01*
X175543946Y-76009147D01*
G37*
X175543946Y-76009147D02*
X175827101Y-76198345D01*
X175827076Y-76198355D01*
X175398817Y-76588642D01*
X175331702Y-76731553D01*
X175104054Y-76390853D01*
X174818422Y-76200000D01*
X175104054Y-76009147D01*
X175324000Y-75679974D01*
X175543946Y-76009147D01*
G36*
X141161000Y-54356000D02*
X141181000Y-54356000D01*
X141181000Y-54610000D01*
X141161000Y-54610000D01*
X141161000Y-55803155D01*
X141390890Y-55924476D01*
X141623400Y-55828173D01*
X141623400Y-72979400D01*
X135470500Y-72979400D01*
X135179661Y-73037252D01*
X134933099Y-73201999D01*
X134335695Y-73799403D01*
X134180924Y-73658355D01*
X133770890Y-73488524D01*
X133541000Y-73609845D01*
X133541000Y-74803000D01*
X133561000Y-74803000D01*
X133561000Y-75057000D01*
X133541000Y-75057000D01*
X133541000Y-75077000D01*
X133287000Y-75077000D01*
X133287000Y-75057000D01*
X133267000Y-75057000D01*
X133267000Y-74803000D01*
X133287000Y-74803000D01*
X133287000Y-73609845D01*
X133057110Y-73488524D01*
X132996800Y-73513504D01*
X132996800Y-72762902D01*
X140301401Y-65458301D01*
X140466148Y-65211740D01*
X140524000Y-64920900D01*
X140524000Y-55861060D01*
X140677110Y-55924476D01*
X140907000Y-55803155D01*
X140907000Y-54610000D01*
X140887000Y-54610000D01*
X140887000Y-54356000D01*
X140907000Y-54356000D01*
X140907000Y-54336000D01*
X141161000Y-54336000D01*
X141161000Y-54356000D01*
X141161000Y-54356000D01*
G37*
X141161000Y-54356000D02*
X141181000Y-54356000D01*
X141181000Y-54610000D01*
X141161000Y-54610000D01*
X141161000Y-55803155D01*
X141390890Y-55924476D01*
X141623400Y-55828173D01*
X141623400Y-72979400D01*
X135470500Y-72979400D01*
X135179661Y-73037252D01*
X134933099Y-73201999D01*
X134335695Y-73799403D01*
X134180924Y-73658355D01*
X133770890Y-73488524D01*
X133541000Y-73609845D01*
X133541000Y-74803000D01*
X133561000Y-74803000D01*
X133561000Y-75057000D01*
X133541000Y-75057000D01*
X133541000Y-75077000D01*
X133287000Y-75077000D01*
X133287000Y-75057000D01*
X133267000Y-75057000D01*
X133267000Y-74803000D01*
X133287000Y-74803000D01*
X133287000Y-73609845D01*
X133057110Y-73488524D01*
X132996800Y-73513504D01*
X132996800Y-72762902D01*
X140301401Y-65458301D01*
X140466148Y-65211740D01*
X140524000Y-64920900D01*
X140524000Y-55861060D01*
X140677110Y-55924476D01*
X140907000Y-55803155D01*
X140907000Y-54610000D01*
X140887000Y-54610000D01*
X140887000Y-54356000D01*
X140907000Y-54356000D01*
X140907000Y-54336000D01*
X141161000Y-54336000D01*
X141161000Y-54356000D01*
G36*
X179093217Y-73424019D02*
X178565715Y-73528946D01*
X178083946Y-73850853D01*
X177864000Y-74180026D01*
X177644054Y-73850853D01*
X177162285Y-73528946D01*
X176594000Y-73415907D01*
X176025715Y-73528946D01*
X175543946Y-73850853D01*
X175324000Y-74180026D01*
X175104054Y-73850853D01*
X174622285Y-73528946D01*
X174054000Y-73415907D01*
X173485715Y-73528946D01*
X173003946Y-73850853D01*
X172776298Y-74191553D01*
X172709183Y-74048642D01*
X172280924Y-73658355D01*
X171870890Y-73488524D01*
X171641000Y-73609845D01*
X171641000Y-74803000D01*
X171661000Y-74803000D01*
X171661000Y-75057000D01*
X171641000Y-75057000D01*
X171641000Y-75077000D01*
X171387000Y-75077000D01*
X171387000Y-75057000D01*
X171367000Y-75057000D01*
X171367000Y-74803000D01*
X171387000Y-74803000D01*
X171387000Y-73609845D01*
X171157110Y-73488524D01*
X170747076Y-73658355D01*
X170318817Y-74048642D01*
X170251702Y-74191553D01*
X170024054Y-73850853D01*
X169542285Y-73528946D01*
X168974000Y-73415907D01*
X168405715Y-73528946D01*
X167923946Y-73850853D01*
X167704000Y-74180026D01*
X167484054Y-73850853D01*
X167002285Y-73528946D01*
X166434000Y-73415907D01*
X165865715Y-73528946D01*
X165539031Y-73747229D01*
X164990301Y-73198499D01*
X164743739Y-73033752D01*
X164452900Y-72975900D01*
X164382902Y-72975900D01*
X165396902Y-71961900D01*
X177631098Y-71961900D01*
X179093217Y-73424019D01*
X179093217Y-73424019D01*
G37*
X179093217Y-73424019D02*
X178565715Y-73528946D01*
X178083946Y-73850853D01*
X177864000Y-74180026D01*
X177644054Y-73850853D01*
X177162285Y-73528946D01*
X176594000Y-73415907D01*
X176025715Y-73528946D01*
X175543946Y-73850853D01*
X175324000Y-74180026D01*
X175104054Y-73850853D01*
X174622285Y-73528946D01*
X174054000Y-73415907D01*
X173485715Y-73528946D01*
X173003946Y-73850853D01*
X172776298Y-74191553D01*
X172709183Y-74048642D01*
X172280924Y-73658355D01*
X171870890Y-73488524D01*
X171641000Y-73609845D01*
X171641000Y-74803000D01*
X171661000Y-74803000D01*
X171661000Y-75057000D01*
X171641000Y-75057000D01*
X171641000Y-75077000D01*
X171387000Y-75077000D01*
X171387000Y-75057000D01*
X171367000Y-75057000D01*
X171367000Y-74803000D01*
X171387000Y-74803000D01*
X171387000Y-73609845D01*
X171157110Y-73488524D01*
X170747076Y-73658355D01*
X170318817Y-74048642D01*
X170251702Y-74191553D01*
X170024054Y-73850853D01*
X169542285Y-73528946D01*
X168974000Y-73415907D01*
X168405715Y-73528946D01*
X167923946Y-73850853D01*
X167704000Y-74180026D01*
X167484054Y-73850853D01*
X167002285Y-73528946D01*
X166434000Y-73415907D01*
X165865715Y-73528946D01*
X165539031Y-73747229D01*
X164990301Y-73198499D01*
X164743739Y-73033752D01*
X164452900Y-72975900D01*
X164382902Y-72975900D01*
X165396902Y-71961900D01*
X177631098Y-71961900D01*
X179093217Y-73424019D01*
G36*
X155223946Y-55562147D02*
X155705715Y-55884054D01*
X156274000Y-55997093D01*
X156704600Y-55911441D01*
X156704600Y-73424598D01*
X156640408Y-73488790D01*
X156274000Y-73415907D01*
X155705715Y-73528946D01*
X155223946Y-73850853D01*
X155004000Y-74180026D01*
X154784054Y-73850853D01*
X154302285Y-73528946D01*
X153734000Y-73415907D01*
X153165715Y-73528946D01*
X152683946Y-73850853D01*
X152456298Y-74191553D01*
X152389183Y-74048642D01*
X151960924Y-73658355D01*
X151550890Y-73488524D01*
X151321000Y-73609845D01*
X151321000Y-74803000D01*
X151341000Y-74803000D01*
X151341000Y-75057000D01*
X151321000Y-75057000D01*
X151321000Y-75077000D01*
X151067000Y-75077000D01*
X151067000Y-75057000D01*
X151047000Y-75057000D01*
X151047000Y-74803000D01*
X151067000Y-74803000D01*
X151067000Y-73609845D01*
X150837110Y-73488524D01*
X150427076Y-73658355D01*
X149998817Y-74048642D01*
X149931702Y-74191553D01*
X149704054Y-73850853D01*
X149222285Y-73528946D01*
X148654000Y-73415907D01*
X148085715Y-73528946D01*
X148064600Y-73543055D01*
X148064600Y-55869945D01*
X148085715Y-55884054D01*
X148654000Y-55997093D01*
X149222285Y-55884054D01*
X149704054Y-55562147D01*
X149924000Y-55232974D01*
X150143946Y-55562147D01*
X150625715Y-55884054D01*
X151194000Y-55997093D01*
X151762285Y-55884054D01*
X152244054Y-55562147D01*
X152464000Y-55232974D01*
X152683946Y-55562147D01*
X153165715Y-55884054D01*
X153734000Y-55997093D01*
X154302285Y-55884054D01*
X154784054Y-55562147D01*
X155004000Y-55232974D01*
X155223946Y-55562147D01*
X155223946Y-55562147D01*
G37*
X155223946Y-55562147D02*
X155705715Y-55884054D01*
X156274000Y-55997093D01*
X156704600Y-55911441D01*
X156704600Y-73424598D01*
X156640408Y-73488790D01*
X156274000Y-73415907D01*
X155705715Y-73528946D01*
X155223946Y-73850853D01*
X155004000Y-74180026D01*
X154784054Y-73850853D01*
X154302285Y-73528946D01*
X153734000Y-73415907D01*
X153165715Y-73528946D01*
X152683946Y-73850853D01*
X152456298Y-74191553D01*
X152389183Y-74048642D01*
X151960924Y-73658355D01*
X151550890Y-73488524D01*
X151321000Y-73609845D01*
X151321000Y-74803000D01*
X151341000Y-74803000D01*
X151341000Y-75057000D01*
X151321000Y-75057000D01*
X151321000Y-75077000D01*
X151067000Y-75077000D01*
X151067000Y-75057000D01*
X151047000Y-75057000D01*
X151047000Y-74803000D01*
X151067000Y-74803000D01*
X151067000Y-73609845D01*
X150837110Y-73488524D01*
X150427076Y-73658355D01*
X149998817Y-74048642D01*
X149931702Y-74191553D01*
X149704054Y-73850853D01*
X149222285Y-73528946D01*
X148654000Y-73415907D01*
X148085715Y-73528946D01*
X148064600Y-73543055D01*
X148064600Y-55869945D01*
X148085715Y-55884054D01*
X148654000Y-55997093D01*
X149222285Y-55884054D01*
X149704054Y-55562147D01*
X149924000Y-55232974D01*
X150143946Y-55562147D01*
X150625715Y-55884054D01*
X151194000Y-55997093D01*
X151762285Y-55884054D01*
X152244054Y-55562147D01*
X152464000Y-55232974D01*
X152683946Y-55562147D01*
X153165715Y-55884054D01*
X153734000Y-55997093D01*
X154302285Y-55884054D01*
X154784054Y-55562147D01*
X155004000Y-55232974D01*
X155223946Y-55562147D01*
G36*
X158941000Y-54356000D02*
X158961000Y-54356000D01*
X158961000Y-54610000D01*
X158941000Y-54610000D01*
X158941000Y-55803155D01*
X159170890Y-55924476D01*
X159580924Y-55754645D01*
X160009183Y-55364358D01*
X160076298Y-55221447D01*
X160303946Y-55562147D01*
X160785715Y-55884054D01*
X161354000Y-55997093D01*
X161922285Y-55884054D01*
X162404054Y-55562147D01*
X162624000Y-55232974D01*
X162843946Y-55562147D01*
X163325715Y-55884054D01*
X163894000Y-55997093D01*
X164322100Y-55911939D01*
X164322100Y-70887098D01*
X161720408Y-73488790D01*
X161354000Y-73415907D01*
X160785715Y-73528946D01*
X160441587Y-73758885D01*
X159884701Y-73201999D01*
X159638139Y-73037252D01*
X159347300Y-72979400D01*
X158224600Y-72979400D01*
X158224600Y-55828173D01*
X158457110Y-55924476D01*
X158687000Y-55803155D01*
X158687000Y-54610000D01*
X158667000Y-54610000D01*
X158667000Y-54356000D01*
X158687000Y-54356000D01*
X158687000Y-54336000D01*
X158941000Y-54336000D01*
X158941000Y-54356000D01*
X158941000Y-54356000D01*
G37*
X158941000Y-54356000D02*
X158961000Y-54356000D01*
X158961000Y-54610000D01*
X158941000Y-54610000D01*
X158941000Y-55803155D01*
X159170890Y-55924476D01*
X159580924Y-55754645D01*
X160009183Y-55364358D01*
X160076298Y-55221447D01*
X160303946Y-55562147D01*
X160785715Y-55884054D01*
X161354000Y-55997093D01*
X161922285Y-55884054D01*
X162404054Y-55562147D01*
X162624000Y-55232974D01*
X162843946Y-55562147D01*
X163325715Y-55884054D01*
X163894000Y-55997093D01*
X164322100Y-55911939D01*
X164322100Y-70887098D01*
X161720408Y-73488790D01*
X161354000Y-73415907D01*
X160785715Y-73528946D01*
X160441587Y-73758885D01*
X159884701Y-73201999D01*
X159638139Y-73037252D01*
X159347300Y-72979400D01*
X158224600Y-72979400D01*
X158224600Y-55828173D01*
X158457110Y-55924476D01*
X158687000Y-55803155D01*
X158687000Y-54610000D01*
X158667000Y-54610000D01*
X158667000Y-54356000D01*
X158687000Y-54356000D01*
X158687000Y-54336000D01*
X158941000Y-54336000D01*
X158941000Y-54356000D01*
G36*
X146241000Y-54356000D02*
X146261000Y-54356000D01*
X146261000Y-54610000D01*
X146241000Y-54610000D01*
X146241000Y-55803155D01*
X146470890Y-55924476D01*
X146544600Y-55893946D01*
X146544600Y-73424598D01*
X146480408Y-73488790D01*
X146114000Y-73415907D01*
X145545715Y-73528946D01*
X145535500Y-73535771D01*
X145535500Y-55832688D01*
X145757110Y-55924476D01*
X145987000Y-55803155D01*
X145987000Y-54610000D01*
X145967000Y-54610000D01*
X145967000Y-54356000D01*
X145987000Y-54356000D01*
X145987000Y-54336000D01*
X146241000Y-54336000D01*
X146241000Y-54356000D01*
X146241000Y-54356000D01*
G37*
X146241000Y-54356000D02*
X146261000Y-54356000D01*
X146261000Y-54610000D01*
X146241000Y-54610000D01*
X146241000Y-55803155D01*
X146470890Y-55924476D01*
X146544600Y-55893946D01*
X146544600Y-73424598D01*
X146480408Y-73488790D01*
X146114000Y-73415907D01*
X145545715Y-73528946D01*
X145535500Y-73535771D01*
X145535500Y-55832688D01*
X145757110Y-55924476D01*
X145987000Y-55803155D01*
X145987000Y-54610000D01*
X145967000Y-54610000D01*
X145967000Y-54356000D01*
X145987000Y-54356000D01*
X145987000Y-54336000D01*
X146241000Y-54336000D01*
X146241000Y-54356000D01*
G36*
X149998817Y-52824358D02*
X150427076Y-53214645D01*
X150427101Y-53214655D01*
X150143946Y-53403853D01*
X149924000Y-53733026D01*
X149704054Y-53403853D01*
X149418422Y-53213000D01*
X149704054Y-53022147D01*
X149931702Y-52681447D01*
X149998817Y-52824358D01*
X149998817Y-52824358D01*
G37*
X149998817Y-52824358D02*
X150427076Y-53214645D01*
X150427101Y-53214655D01*
X150143946Y-53403853D01*
X149924000Y-53733026D01*
X149704054Y-53403853D01*
X149418422Y-53213000D01*
X149704054Y-53022147D01*
X149931702Y-52681447D01*
X149998817Y-52824358D01*
G36*
X151321000Y-51816000D02*
X151341000Y-51816000D01*
X151341000Y-52070000D01*
X151321000Y-52070000D01*
X151321000Y-52090000D01*
X151067000Y-52090000D01*
X151067000Y-52070000D01*
X151047000Y-52070000D01*
X151047000Y-51816000D01*
X151067000Y-51816000D01*
X151067000Y-51796000D01*
X151321000Y-51796000D01*
X151321000Y-51816000D01*
X151321000Y-51816000D01*
G37*
X151321000Y-51816000D02*
X151341000Y-51816000D01*
X151341000Y-52070000D01*
X151321000Y-52070000D01*
X151321000Y-52090000D01*
X151067000Y-52090000D01*
X151067000Y-52070000D01*
X151047000Y-52070000D01*
X151047000Y-51816000D01*
X151067000Y-51816000D01*
X151067000Y-51796000D01*
X151321000Y-51796000D01*
X151321000Y-51816000D01*
G36*
X171641000Y-51816000D02*
X171661000Y-51816000D01*
X171661000Y-52070000D01*
X171641000Y-52070000D01*
X171641000Y-52090000D01*
X171387000Y-52090000D01*
X171387000Y-52070000D01*
X171367000Y-52070000D01*
X171367000Y-51816000D01*
X171387000Y-51816000D01*
X171387000Y-51796000D01*
X171641000Y-51796000D01*
X171641000Y-51816000D01*
X171641000Y-51816000D01*
G37*
X171641000Y-51816000D02*
X171661000Y-51816000D01*
X171661000Y-52070000D01*
X171641000Y-52070000D01*
X171641000Y-52090000D01*
X171387000Y-52090000D01*
X171387000Y-52070000D01*
X171367000Y-52070000D01*
X171367000Y-51816000D01*
X171387000Y-51816000D01*
X171387000Y-51796000D01*
X171641000Y-51796000D01*
X171641000Y-51816000D01*
M02*
