M48
;DRILL file {KiCad 4.0.7} date 05/09/18 01:25:07
;FORMAT={-:-/ absolute / inch / decimal}
FMAT,2
INCH,TZ
T1C0.016
T2C0.030
T3C0.106
T4C0.106
%
G90
G05
M72
T1
X5.3961Y-2.8134
X5.3974Y-5.0002
X5.4449Y-2.8179
X5.48Y-2.6987
X5.4892Y-2.8223
X5.5762Y-2.8248
X5.5819Y-3.1891
X5.5921Y-5.0467
X5.6063Y-3.1151
X5.6242Y-3.3591
X5.63Y-2.8069
X5.6661Y-3.6632
X5.7124Y-3.118
X5.7405Y-2.9992
X5.853Y-5.047
X6.02Y-2.6621
X6.2917Y-2.668
X6.4135Y-3.4868
X6.5966Y-2.6263
X6.6354Y-3.3382
X6.6592Y-3.2394
X6.6973Y-2.6678
X6.7074Y-2.6354
X6.9816Y-5.0463
X7.0637Y-3.2064
X7.0716Y-2.4844
X7.1052Y-2.9787
X7.178Y-2.7827
X7.1829Y-2.4844
X7.1869Y-5.0466
X7.2525Y-2.9977
X7.2895Y-2.9966
X7.375Y-2.9806
X7.3756Y-3.2118
X7.4066Y-3.1731
X7.4367Y-4.9969
X7.4943Y-3.2003
X7.5032Y-2.7804
X7.5914Y-5.0468
X7.6274Y-3.0445
X7.7649Y-2.3425
X7.8657Y-2.7504
X7.8828Y-5.0464
X8.1362Y-5.
X8.2215Y-2.8015
X8.2215Y-2.8838
T2
X5.54Y-3.54
X5.54Y-3.74
X5.54Y-4.3528
X5.54Y-4.5528
X5.64Y-3.54
X5.64Y-3.74
X5.64Y-4.3528
X5.64Y-4.5528
X5.74Y-3.54
X5.74Y-3.74
X5.74Y-4.3528
X5.74Y-4.5528
X5.84Y-3.54
X5.84Y-3.74
X5.84Y-4.3528
X5.84Y-4.5528
X5.94Y-3.54
X5.94Y-3.74
X5.94Y-4.3528
X5.94Y-4.5528
X6.04Y-3.54
X6.04Y-3.74
X6.04Y-4.3528
X6.04Y-4.5528
X6.14Y-3.54
X6.14Y-3.74
X6.14Y-4.3528
X6.14Y-4.5528
X6.1934Y-2.194
X6.1934Y-2.294
X6.24Y-3.54
X6.24Y-3.74
X6.24Y-4.3528
X6.24Y-4.5528
X6.2934Y-2.194
X6.2934Y-2.294
X6.34Y-3.54
X6.34Y-3.74
X6.34Y-4.3528
X6.34Y-4.5528
X6.3934Y-2.194
X6.3934Y-2.294
X6.44Y-3.54
X6.44Y-3.74
X6.44Y-4.3528
X6.44Y-4.5528
X6.4934Y-2.194
X6.4934Y-2.294
X6.54Y-3.54
X6.54Y-3.74
X6.54Y-4.3528
X6.54Y-4.5528
X6.5934Y-2.194
X6.5934Y-2.294
X6.64Y-3.54
X6.64Y-3.74
X6.64Y-4.3528
X6.64Y-4.5528
X6.6934Y-2.194
X6.6934Y-2.294
X6.74Y-3.54
X6.74Y-3.74
X6.74Y-4.3528
X6.74Y-4.5528
X6.7934Y-2.194
X6.7934Y-2.294
X6.84Y-3.54
X6.84Y-3.74
X6.84Y-4.3528
X6.84Y-4.5528
X6.8934Y-2.194
X6.8934Y-2.294
X6.94Y-3.54
X6.94Y-3.74
X6.94Y-4.3528
X6.94Y-4.5528
X6.9934Y-2.194
X6.9934Y-2.294
X7.04Y-3.54
X7.04Y-3.74
X7.04Y-4.3528
X7.04Y-4.5528
X7.0934Y-2.194
X7.0934Y-2.294
X7.14Y-3.54
X7.14Y-3.74
X7.14Y-4.3528
X7.14Y-4.5528
X7.1934Y-2.194
X7.1934Y-2.294
X7.24Y-3.54
X7.24Y-3.74
X7.24Y-4.3528
X7.24Y-4.5528
X7.2934Y-2.194
X7.2934Y-2.294
X7.34Y-3.54
X7.34Y-3.74
X7.34Y-4.3528
X7.34Y-4.5528
X7.3934Y-2.194
X7.3934Y-2.294
X7.44Y-3.54
X7.44Y-3.74
X7.44Y-4.3528
X7.44Y-4.5528
X7.4934Y-2.194
X7.4934Y-2.294
X7.54Y-3.54
X7.54Y-3.74
X7.54Y-4.3528
X7.54Y-4.5528
X7.5934Y-2.194
X7.5934Y-2.294
X7.64Y-3.54
X7.64Y-3.74
X7.64Y-4.3528
X7.64Y-4.5528
X7.6934Y-2.194
X7.6934Y-2.294
X7.74Y-3.54
X7.74Y-3.74
X7.74Y-4.3528
X7.74Y-4.5528
X7.7934Y-2.194
X7.7934Y-2.294
X7.84Y-3.54
X7.84Y-3.74
X7.84Y-4.3528
X7.84Y-4.5528
X7.8934Y-2.194
X7.8934Y-2.294
X7.94Y-3.54
X7.94Y-3.74
X7.94Y-4.3528
X7.94Y-4.5528
X7.9934Y-2.194
X7.9934Y-2.294
X8.0934Y-2.194
X8.0934Y-2.294
T3
X6.0023Y-2.2438
X8.28Y-4.81
X8.2867Y-2.245
T4
X5.22Y-4.81
T0
M30
