G04 #@! TF.FileFunction,Legend,Bot*
%FSLAX46Y46*%
G04 Gerber Fmt 4.6, Leading zero omitted, Abs format (unit mm)*
G04 Created by KiCad (PCBNEW 4.0.7) date 06/27/18 09:49:37*
%MOMM*%
%LPD*%
G01*
G04 APERTURE LIST*
%ADD10C,0.100000*%
%ADD11C,0.150000*%
%ADD12C,0.200000*%
%ADD13C,0.250000*%
%ADD14C,0.300000*%
G04 APERTURE END LIST*
D10*
D11*
X172146981Y-99288695D02*
X172956505Y-99288695D01*
X173051743Y-99336314D01*
X173099362Y-99383933D01*
X173146981Y-99479171D01*
X173146981Y-99669648D01*
X173099362Y-99764886D01*
X173051743Y-99812505D01*
X172956505Y-99860124D01*
X172146981Y-99860124D01*
X172242219Y-100288695D02*
X172194600Y-100336314D01*
X172146981Y-100431552D01*
X172146981Y-100669648D01*
X172194600Y-100764886D01*
X172242219Y-100812505D01*
X172337457Y-100860124D01*
X172432695Y-100860124D01*
X172575552Y-100812505D01*
X173146981Y-100241076D01*
X173146981Y-100860124D01*
D12*
X131064001Y-92964000D02*
G75*
G03X131064001Y-92964000I-1481062J0D01*
G01*
X179281062Y-83820000D02*
G75*
G03X179281062Y-83820000I-1481062J0D01*
G01*
D13*
X183586190Y-85937381D02*
X183586190Y-84937381D01*
X183205237Y-84937381D01*
X183109999Y-84985000D01*
X183062380Y-85032619D01*
X183014761Y-85127857D01*
X183014761Y-85270714D01*
X183062380Y-85365952D01*
X183109999Y-85413571D01*
X183205237Y-85461190D01*
X183586190Y-85461190D01*
X182586190Y-85937381D02*
X182586190Y-85270714D01*
X182586190Y-84937381D02*
X182633809Y-84985000D01*
X182586190Y-85032619D01*
X182538571Y-84985000D01*
X182586190Y-84937381D01*
X182586190Y-85032619D01*
X182157619Y-85032619D02*
X182110000Y-84985000D01*
X182014762Y-84937381D01*
X181776666Y-84937381D01*
X181681428Y-84985000D01*
X181633809Y-85032619D01*
X181586190Y-85127857D01*
X181586190Y-85223095D01*
X181633809Y-85365952D01*
X182205238Y-85937381D01*
X181586190Y-85937381D01*
X180443333Y-84889762D02*
X181300476Y-86175476D01*
X180205238Y-84937381D02*
X179586190Y-84937381D01*
X179919524Y-85318333D01*
X179776666Y-85318333D01*
X179681428Y-85365952D01*
X179633809Y-85413571D01*
X179586190Y-85508810D01*
X179586190Y-85746905D01*
X179633809Y-85842143D01*
X179681428Y-85889762D01*
X179776666Y-85937381D01*
X180062381Y-85937381D01*
X180157619Y-85889762D01*
X180205238Y-85842143D01*
X185014762Y-87687381D02*
X185014762Y-86687381D01*
X184538572Y-87687381D02*
X184538572Y-86687381D01*
X184300477Y-86687381D01*
X184157619Y-86735000D01*
X184062381Y-86830238D01*
X184014762Y-86925476D01*
X183967143Y-87115952D01*
X183967143Y-87258810D01*
X184014762Y-87449286D01*
X184062381Y-87544524D01*
X184157619Y-87639762D01*
X184300477Y-87687381D01*
X184538572Y-87687381D01*
X182967143Y-87592143D02*
X183014762Y-87639762D01*
X183157619Y-87687381D01*
X183252857Y-87687381D01*
X183395715Y-87639762D01*
X183490953Y-87544524D01*
X183538572Y-87449286D01*
X183586191Y-87258810D01*
X183586191Y-87115952D01*
X183538572Y-86925476D01*
X183490953Y-86830238D01*
X183395715Y-86735000D01*
X183252857Y-86687381D01*
X183157619Y-86687381D01*
X183014762Y-86735000D01*
X182967143Y-86782619D01*
X181348095Y-87639762D02*
X181443333Y-87687381D01*
X181633810Y-87687381D01*
X181729048Y-87639762D01*
X181776667Y-87592143D01*
X181824286Y-87496905D01*
X181824286Y-87211190D01*
X181776667Y-87115952D01*
X181729048Y-87068333D01*
X181633810Y-87020714D01*
X181443333Y-87020714D01*
X181348095Y-87068333D01*
X180490952Y-87687381D02*
X180490952Y-87163571D01*
X180538571Y-87068333D01*
X180633809Y-87020714D01*
X180824286Y-87020714D01*
X180919524Y-87068333D01*
X180490952Y-87639762D02*
X180586190Y-87687381D01*
X180824286Y-87687381D01*
X180919524Y-87639762D01*
X180967143Y-87544524D01*
X180967143Y-87449286D01*
X180919524Y-87354048D01*
X180824286Y-87306429D01*
X180586190Y-87306429D01*
X180490952Y-87258810D01*
X180014762Y-87687381D02*
X180014762Y-86687381D01*
X180014762Y-87068333D02*
X179919524Y-87020714D01*
X179729047Y-87020714D01*
X179633809Y-87068333D01*
X179586190Y-87115952D01*
X179538571Y-87211190D01*
X179538571Y-87496905D01*
X179586190Y-87592143D01*
X179633809Y-87639762D01*
X179729047Y-87687381D01*
X179919524Y-87687381D01*
X180014762Y-87639762D01*
X178967143Y-87687381D02*
X179062381Y-87639762D01*
X179110000Y-87544524D01*
X179110000Y-86687381D01*
X178205237Y-87639762D02*
X178300475Y-87687381D01*
X178490952Y-87687381D01*
X178586190Y-87639762D01*
X178633809Y-87544524D01*
X178633809Y-87163571D01*
X178586190Y-87068333D01*
X178490952Y-87020714D01*
X178300475Y-87020714D01*
X178205237Y-87068333D01*
X178157618Y-87163571D01*
X178157618Y-87258810D01*
X178633809Y-87354048D01*
X125983810Y-92557381D02*
X125317143Y-92557381D01*
X125983810Y-93557381D01*
X125317143Y-93557381D01*
X124555238Y-93509762D02*
X124650476Y-93557381D01*
X124840953Y-93557381D01*
X124936191Y-93509762D01*
X124983810Y-93414524D01*
X124983810Y-93033571D01*
X124936191Y-92938333D01*
X124840953Y-92890714D01*
X124650476Y-92890714D01*
X124555238Y-92938333D01*
X124507619Y-93033571D01*
X124507619Y-93128810D01*
X124983810Y-93224048D01*
X124079048Y-93557381D02*
X124079048Y-92890714D01*
X124079048Y-93081190D02*
X124031429Y-92985952D01*
X123983810Y-92938333D01*
X123888572Y-92890714D01*
X123793333Y-92890714D01*
X123317143Y-93557381D02*
X123412381Y-93509762D01*
X123460000Y-93462143D01*
X123507619Y-93366905D01*
X123507619Y-93081190D01*
X123460000Y-92985952D01*
X123412381Y-92938333D01*
X123317143Y-92890714D01*
X123174285Y-92890714D01*
X123079047Y-92938333D01*
X123031428Y-92985952D01*
X122983809Y-93081190D01*
X122983809Y-93366905D01*
X123031428Y-93462143D01*
X123079047Y-93509762D01*
X123174285Y-93557381D01*
X123317143Y-93557381D01*
X126793333Y-95307381D02*
X126793333Y-94307381D01*
X126555238Y-94307381D01*
X126412380Y-94355000D01*
X126317142Y-94450238D01*
X126269523Y-94545476D01*
X126221904Y-94735952D01*
X126221904Y-94878810D01*
X126269523Y-95069286D01*
X126317142Y-95164524D01*
X126412380Y-95259762D01*
X126555238Y-95307381D01*
X126793333Y-95307381D01*
X125793333Y-95307381D02*
X125793333Y-94307381D01*
X124745714Y-95307381D02*
X125079048Y-94831190D01*
X125317143Y-95307381D02*
X125317143Y-94307381D01*
X124936190Y-94307381D01*
X124840952Y-94355000D01*
X124793333Y-94402619D01*
X124745714Y-94497857D01*
X124745714Y-94640714D01*
X124793333Y-94735952D01*
X124840952Y-94783571D01*
X124936190Y-94831190D01*
X125317143Y-94831190D01*
X124317143Y-94783571D02*
X123983809Y-94783571D01*
X123840952Y-95307381D02*
X124317143Y-95307381D01*
X124317143Y-94307381D01*
X123840952Y-94307381D01*
X122840952Y-95212143D02*
X122888571Y-95259762D01*
X123031428Y-95307381D01*
X123126666Y-95307381D01*
X123269524Y-95259762D01*
X123364762Y-95164524D01*
X123412381Y-95069286D01*
X123460000Y-94878810D01*
X123460000Y-94735952D01*
X123412381Y-94545476D01*
X123364762Y-94450238D01*
X123269524Y-94355000D01*
X123126666Y-94307381D01*
X123031428Y-94307381D01*
X122888571Y-94355000D01*
X122840952Y-94402619D01*
X122555238Y-94307381D02*
X121983809Y-94307381D01*
X122269524Y-95307381D02*
X122269524Y-94307381D01*
D12*
X150326973Y-104597200D02*
G75*
G03X150326973Y-104597200I-466973J0D01*
G01*
X173263173Y-104825800D02*
G75*
G03X173263173Y-104825800I-466973J0D01*
G01*
D14*
X165690627Y-115003971D02*
X166190627Y-114289686D01*
X166547770Y-115003971D02*
X166547770Y-113503971D01*
X165976342Y-113503971D01*
X165833484Y-113575400D01*
X165762056Y-113646829D01*
X165690627Y-113789686D01*
X165690627Y-114003971D01*
X165762056Y-114146829D01*
X165833484Y-114218257D01*
X165976342Y-114289686D01*
X166547770Y-114289686D01*
X164404913Y-115003971D02*
X164404913Y-114218257D01*
X164476342Y-114075400D01*
X164619199Y-114003971D01*
X164904913Y-114003971D01*
X165047770Y-114075400D01*
X164404913Y-114932543D02*
X164547770Y-115003971D01*
X164904913Y-115003971D01*
X165047770Y-114932543D01*
X165119199Y-114789686D01*
X165119199Y-114646829D01*
X165047770Y-114503971D01*
X164904913Y-114432543D01*
X164547770Y-114432543D01*
X164404913Y-114361114D01*
X163762056Y-114932543D02*
X163619199Y-115003971D01*
X163333484Y-115003971D01*
X163190627Y-114932543D01*
X163119199Y-114789686D01*
X163119199Y-114718257D01*
X163190627Y-114575400D01*
X163333484Y-114503971D01*
X163547770Y-114503971D01*
X163690627Y-114432543D01*
X163762056Y-114289686D01*
X163762056Y-114218257D01*
X163690627Y-114075400D01*
X163547770Y-114003971D01*
X163333484Y-114003971D01*
X163190627Y-114075400D01*
X162476341Y-114003971D02*
X162476341Y-115503971D01*
X162476341Y-114075400D02*
X162333484Y-114003971D01*
X162047770Y-114003971D01*
X161904913Y-114075400D01*
X161833484Y-114146829D01*
X161762055Y-114289686D01*
X161762055Y-114718257D01*
X161833484Y-114861114D01*
X161904913Y-114932543D01*
X162047770Y-115003971D01*
X162333484Y-115003971D01*
X162476341Y-114932543D01*
X161119198Y-115003971D02*
X161119198Y-113503971D01*
X161119198Y-114075400D02*
X160976341Y-114003971D01*
X160690627Y-114003971D01*
X160547770Y-114075400D01*
X160476341Y-114146829D01*
X160404912Y-114289686D01*
X160404912Y-114718257D01*
X160476341Y-114861114D01*
X160547770Y-114932543D01*
X160690627Y-115003971D01*
X160976341Y-115003971D01*
X161119198Y-114932543D01*
X159190627Y-114932543D02*
X159333484Y-115003971D01*
X159619198Y-115003971D01*
X159762055Y-114932543D01*
X159833484Y-114789686D01*
X159833484Y-114218257D01*
X159762055Y-114075400D01*
X159619198Y-114003971D01*
X159333484Y-114003971D01*
X159190627Y-114075400D01*
X159119198Y-114218257D01*
X159119198Y-114361114D01*
X159833484Y-114503971D01*
X158476341Y-115003971D02*
X158476341Y-114003971D01*
X158476341Y-114289686D02*
X158404913Y-114146829D01*
X158333484Y-114075400D01*
X158190627Y-114003971D01*
X158047770Y-114003971D01*
X157547770Y-115003971D02*
X157547770Y-114003971D01*
X157547770Y-114289686D02*
X157476342Y-114146829D01*
X157404913Y-114075400D01*
X157262056Y-114003971D01*
X157119199Y-114003971D01*
X156762056Y-114003971D02*
X156404913Y-115003971D01*
X156047771Y-114003971D02*
X156404913Y-115003971D01*
X156547771Y-115361114D01*
X156619199Y-115432543D01*
X156762056Y-115503971D01*
X154333485Y-115003971D02*
X154333485Y-113503971D01*
X153762057Y-113503971D01*
X153619199Y-113575400D01*
X153547771Y-113646829D01*
X153476342Y-113789686D01*
X153476342Y-114003971D01*
X153547771Y-114146829D01*
X153619199Y-114218257D01*
X153762057Y-114289686D01*
X154333485Y-114289686D01*
X152833485Y-115003971D02*
X152833485Y-114003971D01*
X152833485Y-113503971D02*
X152904914Y-113575400D01*
X152833485Y-113646829D01*
X152762057Y-113575400D01*
X152833485Y-113503971D01*
X152833485Y-113646829D01*
X151119199Y-113503971D02*
X150119199Y-113503971D01*
X151119199Y-115003971D01*
X150119199Y-115003971D01*
X148976343Y-114932543D02*
X149119200Y-115003971D01*
X149404914Y-115003971D01*
X149547771Y-114932543D01*
X149619200Y-114789686D01*
X149619200Y-114218257D01*
X149547771Y-114075400D01*
X149404914Y-114003971D01*
X149119200Y-114003971D01*
X148976343Y-114075400D01*
X148904914Y-114218257D01*
X148904914Y-114361114D01*
X149619200Y-114503971D01*
X148262057Y-115003971D02*
X148262057Y-114003971D01*
X148262057Y-114289686D02*
X148190629Y-114146829D01*
X148119200Y-114075400D01*
X147976343Y-114003971D01*
X147833486Y-114003971D01*
X147119200Y-115003971D02*
X147262058Y-114932543D01*
X147333486Y-114861114D01*
X147404915Y-114718257D01*
X147404915Y-114289686D01*
X147333486Y-114146829D01*
X147262058Y-114075400D01*
X147119200Y-114003971D01*
X146904915Y-114003971D01*
X146762058Y-114075400D01*
X146690629Y-114146829D01*
X146619200Y-114289686D01*
X146619200Y-114718257D01*
X146690629Y-114861114D01*
X146762058Y-114932543D01*
X146904915Y-115003971D01*
X147119200Y-115003971D01*
X144904915Y-113432543D02*
X146190629Y-115361114D01*
X144476343Y-113646829D02*
X144404914Y-113575400D01*
X144262057Y-113503971D01*
X143904914Y-113503971D01*
X143762057Y-113575400D01*
X143690628Y-113646829D01*
X143619200Y-113789686D01*
X143619200Y-113932543D01*
X143690628Y-114146829D01*
X144547771Y-115003971D01*
X143619200Y-115003971D01*
X141904915Y-113432543D02*
X143190629Y-115361114D01*
X141547771Y-113503971D02*
X140619200Y-113503971D01*
X141119200Y-114075400D01*
X140904914Y-114075400D01*
X140762057Y-114146829D01*
X140690628Y-114218257D01*
X140619200Y-114361114D01*
X140619200Y-114718257D01*
X140690628Y-114861114D01*
X140762057Y-114932543D01*
X140904914Y-115003971D01*
X141333486Y-115003971D01*
X141476343Y-114932543D01*
X141547771Y-114861114D01*
X148870227Y-101540571D02*
X147870227Y-101540571D01*
X148513084Y-103040571D01*
X146655942Y-102040571D02*
X146655942Y-103040571D01*
X147013085Y-101469143D02*
X147370228Y-102540571D01*
X146441656Y-102540571D01*
X145155942Y-103040571D02*
X145870228Y-103040571D01*
X145870228Y-101540571D01*
X144870228Y-101540571D02*
X144370228Y-103040571D01*
X143870228Y-101540571D01*
X142513085Y-102897714D02*
X142584514Y-102969143D01*
X142798800Y-103040571D01*
X142941657Y-103040571D01*
X143155942Y-102969143D01*
X143298800Y-102826286D01*
X143370228Y-102683429D01*
X143441657Y-102397714D01*
X143441657Y-102183429D01*
X143370228Y-101897714D01*
X143298800Y-101754857D01*
X143155942Y-101612000D01*
X142941657Y-101540571D01*
X142798800Y-101540571D01*
X142584514Y-101612000D01*
X142513085Y-101683429D01*
X141227371Y-102040571D02*
X141227371Y-103040571D01*
X141584514Y-101469143D02*
X141941657Y-102540571D01*
X141013085Y-102540571D01*
X140513086Y-101683429D02*
X140441657Y-101612000D01*
X140298800Y-101540571D01*
X139941657Y-101540571D01*
X139798800Y-101612000D01*
X139727371Y-101683429D01*
X139655943Y-101826286D01*
X139655943Y-101969143D01*
X139727371Y-102183429D01*
X140584514Y-103040571D01*
X139655943Y-103040571D01*
X138370229Y-102040571D02*
X138370229Y-103040571D01*
X138727372Y-101469143D02*
X139084515Y-102540571D01*
X138155943Y-102540571D01*
X136870229Y-101540571D02*
X137584515Y-101540571D01*
X137655944Y-102254857D01*
X137584515Y-102183429D01*
X137441658Y-102112000D01*
X137084515Y-102112000D01*
X136941658Y-102183429D01*
X136870229Y-102254857D01*
X136798801Y-102397714D01*
X136798801Y-102754857D01*
X136870229Y-102897714D01*
X136941658Y-102969143D01*
X137084515Y-103040571D01*
X137441658Y-103040571D01*
X137584515Y-102969143D01*
X137655944Y-102897714D01*
X172278856Y-101286571D02*
X171278856Y-101286571D01*
X171921713Y-102786571D01*
X170064571Y-101786571D02*
X170064571Y-102786571D01*
X170421714Y-101215143D02*
X170778857Y-102286571D01*
X169850285Y-102286571D01*
X169278857Y-102786571D02*
X169278857Y-101286571D01*
X169278857Y-102000857D02*
X168421714Y-102000857D01*
X168421714Y-102786571D02*
X168421714Y-101286571D01*
X166850285Y-102643714D02*
X166921714Y-102715143D01*
X167136000Y-102786571D01*
X167278857Y-102786571D01*
X167493142Y-102715143D01*
X167636000Y-102572286D01*
X167707428Y-102429429D01*
X167778857Y-102143714D01*
X167778857Y-101929429D01*
X167707428Y-101643714D01*
X167636000Y-101500857D01*
X167493142Y-101358000D01*
X167278857Y-101286571D01*
X167136000Y-101286571D01*
X166921714Y-101358000D01*
X166850285Y-101429429D01*
X166278857Y-101429429D02*
X166207428Y-101358000D01*
X166064571Y-101286571D01*
X165707428Y-101286571D01*
X165564571Y-101358000D01*
X165493142Y-101429429D01*
X165421714Y-101572286D01*
X165421714Y-101715143D01*
X165493142Y-101929429D01*
X166350285Y-102786571D01*
X165421714Y-102786571D01*
X164136000Y-101786571D02*
X164136000Y-102786571D01*
X164493143Y-101215143D02*
X164850286Y-102286571D01*
X163921714Y-102286571D01*
X162707429Y-101786571D02*
X162707429Y-102786571D01*
X163064572Y-101215143D02*
X163421715Y-102286571D01*
X162493143Y-102286571D01*
D11*
X130810000Y-109220000D02*
X130810000Y-119380000D01*
X130810000Y-119380000D02*
X176530000Y-119380000D01*
X176530000Y-119380000D02*
X176530000Y-109220000D01*
X176530000Y-109220000D02*
X130810000Y-109220000D01*
X173707000Y-105983000D02*
X173457000Y-105983000D01*
X173707000Y-98233000D02*
X173372000Y-98233000D01*
X160557000Y-98233000D02*
X160892000Y-98233000D01*
X160557000Y-105983000D02*
X160892000Y-105983000D01*
X173707000Y-105983000D02*
X173707000Y-98233000D01*
X160557000Y-105983000D02*
X160557000Y-98233000D01*
X173457000Y-105983000D02*
X173457000Y-107783000D01*
X150826000Y-106034000D02*
X150551000Y-106034000D01*
X150826000Y-98284000D02*
X150461000Y-98284000D01*
X135076000Y-98284000D02*
X135441000Y-98284000D01*
X135076000Y-106034000D02*
X135441000Y-106034000D01*
X150826000Y-106034000D02*
X150826000Y-98284000D01*
X135076000Y-106034000D02*
X135076000Y-98284000D01*
X150551000Y-106034000D02*
X150551000Y-107859000D01*
X149083781Y-99466495D02*
X149893305Y-99466495D01*
X149988543Y-99514114D01*
X150036162Y-99561733D01*
X150083781Y-99656971D01*
X150083781Y-99847448D01*
X150036162Y-99942686D01*
X149988543Y-99990305D01*
X149893305Y-100037924D01*
X149083781Y-100037924D01*
X150083781Y-101037924D02*
X150083781Y-100466495D01*
X150083781Y-100752209D02*
X149083781Y-100752209D01*
X149226638Y-100656971D01*
X149321876Y-100561733D01*
X149369495Y-100466495D01*
M02*
