M48
;DRILL file {KiCad 4.0.7} date 06/27/18 09:49:38
;FORMAT={-:-/ absolute / inch / decimal}
FMAT,2
INCH,TZ
T1C0.016
T2C0.030
T3C0.031
%
G90
G05
M72
T1
X5.4614Y-3.7779
X5.553Y-3.7513
X5.6706Y-3.776
X5.73Y-3.8947
X5.8447Y-4.4563
X5.8463Y-3.468
X5.9469Y-4.179
X6.1029Y-3.4862
X6.1403Y-3.4689
X6.2369Y-3.4655
X6.25Y-3.6891
X6.3075Y-3.7469
X6.3566Y-4.0372
X6.3827Y-3.9994
X6.3954Y-3.7179
X6.496Y-4.0023
T2
X5.25Y-4.4
X5.25Y-4.6
X5.35Y-4.4
X5.35Y-4.6
X5.45Y-4.4
X5.45Y-4.6
X5.55Y-4.4
X5.55Y-4.6
X5.65Y-4.4
X5.65Y-4.6
X5.75Y-4.4
X5.75Y-4.6
X5.85Y-4.4
X5.85Y-4.6
X5.95Y-4.4
X5.95Y-4.6
X6.05Y-4.4
X6.05Y-4.6
X6.15Y-4.4
X6.15Y-4.6
X6.25Y-4.4
X6.25Y-4.6
X6.35Y-4.4
X6.35Y-4.6
X6.45Y-4.4
X6.45Y-4.6
X6.55Y-4.4
X6.55Y-4.6
X6.65Y-4.4
X6.65Y-4.6
X6.75Y-4.4
X6.75Y-4.6
X6.85Y-4.4
X6.85Y-4.6
T3
X5.1Y-3.2
X5.1Y-3.3
X5.1Y-3.558
X5.1Y-3.658
X5.2Y-3.2
X5.2Y-3.3
X5.2Y-3.558
X5.2Y-3.658
X5.3Y-3.2
X5.3Y-3.3
X5.3Y-3.558
X5.3Y-3.658
X5.4Y-3.2
X5.4Y-3.3
X5.4Y-3.558
X5.4Y-3.658
X5.5Y-3.2
X5.5Y-3.3
X5.5Y-3.558
X5.5Y-3.658
X5.6Y-3.2
X5.6Y-3.3
X5.6Y-3.558
X5.6Y-3.658
X5.7Y-3.2
X5.7Y-3.3
X5.7Y-3.558
X5.7Y-3.658
X5.8Y-3.2
X5.8Y-3.3
X5.8Y-3.558
X5.8Y-3.658
X5.9Y-3.2
X5.9Y-3.3
X5.9Y-3.558
X5.9Y-3.658
X6.Y-3.2
X6.Y-3.3
X6.Y-3.558
X6.Y-3.658
X6.1Y-3.2
X6.1Y-3.3
X6.1Y-3.558
X6.1Y-3.658
X6.2Y-3.2
X6.2Y-3.3
X6.2Y-3.558
X6.2Y-3.658
X6.3Y-3.2
X6.3Y-3.3
X6.3Y-3.558
X6.3Y-3.658
X6.4Y-3.2
X6.4Y-3.3
X6.4Y-3.558
X6.4Y-3.658
X6.5Y-3.2
X6.5Y-3.3
X6.5Y-3.558
X6.5Y-3.658
X6.6Y-3.2
X6.6Y-3.3
X6.6Y-3.558
X6.6Y-3.658
X6.7Y-3.2
X6.7Y-3.3
X6.7Y-3.558
X6.7Y-3.658
X6.8Y-3.2
X6.8Y-3.3
X6.8Y-3.558
X6.8Y-3.658
X6.9Y-3.2
X6.9Y-3.3
X6.9Y-3.558
X6.9Y-3.658
X7.Y-3.2
X7.Y-3.3
X7.Y-3.558
X7.Y-3.658
T0
M30
