G04 #@! TF.FileFunction,Legend,Bot*
%FSLAX46Y46*%
G04 Gerber Fmt 4.6, Leading zero omitted, Abs format (unit mm)*
G04 Created by KiCad (PCBNEW 4.0.7) date 03/23/18 02:51:47*
%MOMM*%
%LPD*%
G01*
G04 APERTURE LIST*
%ADD10C,0.100000*%
%ADD11C,0.300000*%
%ADD12C,0.150000*%
%ADD13C,0.120000*%
G04 APERTURE END LIST*
D10*
D11*
X178407771Y-86016571D02*
X177550628Y-86016571D01*
X177979199Y-87516571D02*
X177979199Y-86016571D01*
X176193485Y-87373714D02*
X176264914Y-87445143D01*
X176479200Y-87516571D01*
X176622057Y-87516571D01*
X176836342Y-87445143D01*
X176979200Y-87302286D01*
X177050628Y-87159429D01*
X177122057Y-86873714D01*
X177122057Y-86659429D01*
X177050628Y-86373714D01*
X176979200Y-86230857D01*
X176836342Y-86088000D01*
X176622057Y-86016571D01*
X176479200Y-86016571D01*
X176264914Y-86088000D01*
X176193485Y-86159429D01*
X175550628Y-87516571D02*
X175550628Y-86016571D01*
X174693485Y-87516571D02*
X175336342Y-86659429D01*
X174693485Y-86016571D02*
X175550628Y-86873714D01*
X177622057Y-88638000D02*
X177764914Y-88566571D01*
X177979200Y-88566571D01*
X178193485Y-88638000D01*
X178336343Y-88780857D01*
X178407771Y-88923714D01*
X178479200Y-89209429D01*
X178479200Y-89423714D01*
X178407771Y-89709429D01*
X178336343Y-89852286D01*
X178193485Y-89995143D01*
X177979200Y-90066571D01*
X177836343Y-90066571D01*
X177622057Y-89995143D01*
X177550628Y-89923714D01*
X177550628Y-89423714D01*
X177836343Y-89423714D01*
X176907771Y-90066571D02*
X176907771Y-88566571D01*
X176050628Y-90066571D01*
X176050628Y-88566571D01*
X175336342Y-90066571D02*
X175336342Y-88566571D01*
X174979199Y-88566571D01*
X174764914Y-88638000D01*
X174622056Y-88780857D01*
X174550628Y-88923714D01*
X174479199Y-89209429D01*
X174479199Y-89423714D01*
X174550628Y-89709429D01*
X174622056Y-89852286D01*
X174764914Y-89995143D01*
X174979199Y-90066571D01*
X175336342Y-90066571D01*
X178443486Y-91116571D02*
X177586343Y-91116571D01*
X178014914Y-92616571D02*
X178014914Y-91116571D01*
X177086343Y-92616571D02*
X177086343Y-91116571D01*
X176729200Y-91116571D01*
X176514915Y-91188000D01*
X176372057Y-91330857D01*
X176300629Y-91473714D01*
X176229200Y-91759429D01*
X176229200Y-91973714D01*
X176300629Y-92259429D01*
X176372057Y-92402286D01*
X176514915Y-92545143D01*
X176729200Y-92616571D01*
X177086343Y-92616571D01*
X175300629Y-91116571D02*
X175014915Y-91116571D01*
X174872057Y-91188000D01*
X174729200Y-91330857D01*
X174657772Y-91616571D01*
X174657772Y-92116571D01*
X174729200Y-92402286D01*
X174872057Y-92545143D01*
X175014915Y-92616571D01*
X175300629Y-92616571D01*
X175443486Y-92545143D01*
X175586343Y-92402286D01*
X175657772Y-92116571D01*
X175657772Y-91616571D01*
X175586343Y-91330857D01*
X175443486Y-91188000D01*
X175300629Y-91116571D01*
X178336342Y-93666571D02*
X177407771Y-93666571D01*
X177907771Y-94238000D01*
X177693485Y-94238000D01*
X177550628Y-94309429D01*
X177479199Y-94380857D01*
X177407771Y-94523714D01*
X177407771Y-94880857D01*
X177479199Y-95023714D01*
X177550628Y-95095143D01*
X177693485Y-95166571D01*
X178122057Y-95166571D01*
X178264914Y-95095143D01*
X178336342Y-95023714D01*
X176979200Y-93666571D02*
X176479200Y-95166571D01*
X175979200Y-93666571D01*
X175622057Y-93666571D02*
X174693486Y-93666571D01*
X175193486Y-94238000D01*
X174979200Y-94238000D01*
X174836343Y-94309429D01*
X174764914Y-94380857D01*
X174693486Y-94523714D01*
X174693486Y-94880857D01*
X174764914Y-95023714D01*
X174836343Y-95095143D01*
X174979200Y-95166571D01*
X175407772Y-95166571D01*
X175550629Y-95095143D01*
X175622057Y-95023714D01*
X178479200Y-96216571D02*
X177622057Y-96216571D01*
X178050628Y-97716571D02*
X178050628Y-96216571D01*
X177122057Y-97716571D02*
X177122057Y-96216571D01*
X176622057Y-97288000D01*
X176122057Y-96216571D01*
X176122057Y-97716571D01*
X175479200Y-97645143D02*
X175264914Y-97716571D01*
X174907771Y-97716571D01*
X174764914Y-97645143D01*
X174693485Y-97573714D01*
X174622057Y-97430857D01*
X174622057Y-97288000D01*
X174693485Y-97145143D01*
X174764914Y-97073714D01*
X174907771Y-97002286D01*
X175193485Y-96930857D01*
X175336343Y-96859429D01*
X175407771Y-96788000D01*
X175479200Y-96645143D01*
X175479200Y-96502286D01*
X175407771Y-96359429D01*
X175336343Y-96288000D01*
X175193485Y-96216571D01*
X174836343Y-96216571D01*
X174622057Y-96288000D01*
X178014914Y-98766571D02*
X177157771Y-98766571D01*
X177586342Y-100266571D02*
X177586342Y-98766571D01*
X176657771Y-100266571D02*
X176657771Y-98766571D01*
X176300628Y-98766571D01*
X176086343Y-98838000D01*
X175943485Y-98980857D01*
X175872057Y-99123714D01*
X175800628Y-99409429D01*
X175800628Y-99623714D01*
X175872057Y-99909429D01*
X175943485Y-100052286D01*
X176086343Y-100195143D01*
X176300628Y-100266571D01*
X176657771Y-100266571D01*
X175157771Y-100266571D02*
X175157771Y-98766571D01*
X177622057Y-101388000D02*
X177764914Y-101316571D01*
X177979200Y-101316571D01*
X178193485Y-101388000D01*
X178336343Y-101530857D01*
X178407771Y-101673714D01*
X178479200Y-101959429D01*
X178479200Y-102173714D01*
X178407771Y-102459429D01*
X178336343Y-102602286D01*
X178193485Y-102745143D01*
X177979200Y-102816571D01*
X177836343Y-102816571D01*
X177622057Y-102745143D01*
X177550628Y-102673714D01*
X177550628Y-102173714D01*
X177836343Y-102173714D01*
X176907771Y-102816571D02*
X176907771Y-101316571D01*
X176050628Y-102816571D01*
X176050628Y-101316571D01*
X175336342Y-102816571D02*
X175336342Y-101316571D01*
X174979199Y-101316571D01*
X174764914Y-101388000D01*
X174622056Y-101530857D01*
X174550628Y-101673714D01*
X174479199Y-101959429D01*
X174479199Y-102173714D01*
X174550628Y-102459429D01*
X174622056Y-102602286D01*
X174764914Y-102745143D01*
X174979199Y-102816571D01*
X175336342Y-102816571D01*
X118297144Y-118931429D02*
X119297144Y-118931429D01*
X118654287Y-117431429D01*
X120511429Y-118431429D02*
X120511429Y-117431429D01*
X120154286Y-119002857D02*
X119797143Y-117931429D01*
X120725715Y-117931429D01*
X121297143Y-117431429D02*
X121297143Y-118931429D01*
X121297143Y-118217143D02*
X122154286Y-118217143D01*
X122154286Y-117431429D02*
X122154286Y-118931429D01*
X123725715Y-117574286D02*
X123654286Y-117502857D01*
X123440000Y-117431429D01*
X123297143Y-117431429D01*
X123082858Y-117502857D01*
X122940000Y-117645714D01*
X122868572Y-117788571D01*
X122797143Y-118074286D01*
X122797143Y-118288571D01*
X122868572Y-118574286D01*
X122940000Y-118717143D01*
X123082858Y-118860000D01*
X123297143Y-118931429D01*
X123440000Y-118931429D01*
X123654286Y-118860000D01*
X123725715Y-118788571D01*
X124297143Y-118788571D02*
X124368572Y-118860000D01*
X124511429Y-118931429D01*
X124868572Y-118931429D01*
X125011429Y-118860000D01*
X125082858Y-118788571D01*
X125154286Y-118645714D01*
X125154286Y-118502857D01*
X125082858Y-118288571D01*
X124225715Y-117431429D01*
X125154286Y-117431429D01*
X126440000Y-118431429D02*
X126440000Y-117431429D01*
X126082857Y-119002857D02*
X125725714Y-117931429D01*
X126654286Y-117931429D01*
X127940000Y-118931429D02*
X127225714Y-118931429D01*
X127154285Y-118217143D01*
X127225714Y-118288571D01*
X127368571Y-118360000D01*
X127725714Y-118360000D01*
X127868571Y-118288571D01*
X127940000Y-118217143D01*
X128011428Y-118074286D01*
X128011428Y-117717143D01*
X127940000Y-117574286D01*
X127868571Y-117502857D01*
X127725714Y-117431429D01*
X127368571Y-117431429D01*
X127225714Y-117502857D01*
X127154285Y-117574286D01*
X138617144Y-118931429D02*
X139617144Y-118931429D01*
X138974287Y-117431429D01*
X140831429Y-118431429D02*
X140831429Y-117431429D01*
X140474286Y-119002857D02*
X140117143Y-117931429D01*
X141045715Y-117931429D01*
X141617143Y-117431429D02*
X141617143Y-118931429D01*
X141617143Y-118217143D02*
X142474286Y-118217143D01*
X142474286Y-117431429D02*
X142474286Y-118931429D01*
X144045715Y-117574286D02*
X143974286Y-117502857D01*
X143760000Y-117431429D01*
X143617143Y-117431429D01*
X143402858Y-117502857D01*
X143260000Y-117645714D01*
X143188572Y-117788571D01*
X143117143Y-118074286D01*
X143117143Y-118288571D01*
X143188572Y-118574286D01*
X143260000Y-118717143D01*
X143402858Y-118860000D01*
X143617143Y-118931429D01*
X143760000Y-118931429D01*
X143974286Y-118860000D01*
X144045715Y-118788571D01*
X144617143Y-118788571D02*
X144688572Y-118860000D01*
X144831429Y-118931429D01*
X145188572Y-118931429D01*
X145331429Y-118860000D01*
X145402858Y-118788571D01*
X145474286Y-118645714D01*
X145474286Y-118502857D01*
X145402858Y-118288571D01*
X144545715Y-117431429D01*
X145474286Y-117431429D01*
X146760000Y-118431429D02*
X146760000Y-117431429D01*
X146402857Y-119002857D02*
X146045714Y-117931429D01*
X146974286Y-117931429D01*
X148260000Y-118931429D02*
X147545714Y-118931429D01*
X147474285Y-118217143D01*
X147545714Y-118288571D01*
X147688571Y-118360000D01*
X148045714Y-118360000D01*
X148188571Y-118288571D01*
X148260000Y-118217143D01*
X148331428Y-118074286D01*
X148331428Y-117717143D01*
X148260000Y-117574286D01*
X148188571Y-117502857D01*
X148045714Y-117431429D01*
X147688571Y-117431429D01*
X147545714Y-117502857D01*
X147474285Y-117574286D01*
X158937144Y-118931429D02*
X159937144Y-118931429D01*
X159294287Y-117431429D01*
X161151429Y-118431429D02*
X161151429Y-117431429D01*
X160794286Y-119002857D02*
X160437143Y-117931429D01*
X161365715Y-117931429D01*
X161937143Y-117431429D02*
X161937143Y-118931429D01*
X161937143Y-118217143D02*
X162794286Y-118217143D01*
X162794286Y-117431429D02*
X162794286Y-118931429D01*
X164365715Y-117574286D02*
X164294286Y-117502857D01*
X164080000Y-117431429D01*
X163937143Y-117431429D01*
X163722858Y-117502857D01*
X163580000Y-117645714D01*
X163508572Y-117788571D01*
X163437143Y-118074286D01*
X163437143Y-118288571D01*
X163508572Y-118574286D01*
X163580000Y-118717143D01*
X163722858Y-118860000D01*
X163937143Y-118931429D01*
X164080000Y-118931429D01*
X164294286Y-118860000D01*
X164365715Y-118788571D01*
X164937143Y-118788571D02*
X165008572Y-118860000D01*
X165151429Y-118931429D01*
X165508572Y-118931429D01*
X165651429Y-118860000D01*
X165722858Y-118788571D01*
X165794286Y-118645714D01*
X165794286Y-118502857D01*
X165722858Y-118288571D01*
X164865715Y-117431429D01*
X165794286Y-117431429D01*
X167080000Y-118431429D02*
X167080000Y-117431429D01*
X166722857Y-119002857D02*
X166365714Y-117931429D01*
X167294286Y-117931429D01*
X168580000Y-118931429D02*
X167865714Y-118931429D01*
X167794285Y-118217143D01*
X167865714Y-118288571D01*
X168008571Y-118360000D01*
X168365714Y-118360000D01*
X168508571Y-118288571D01*
X168580000Y-118217143D01*
X168651428Y-118074286D01*
X168651428Y-117717143D01*
X168580000Y-117574286D01*
X168508571Y-117502857D01*
X168365714Y-117431429D01*
X168008571Y-117431429D01*
X167865714Y-117502857D01*
X167794285Y-117574286D01*
D12*
X106680000Y-71120000D02*
X157480000Y-71120000D01*
X154940000Y-76200000D02*
X106680000Y-76200000D01*
X106680000Y-71120000D02*
X106680000Y-76200000D01*
X157480000Y-71120000D02*
X157480000Y-73660000D01*
X157760000Y-74930000D02*
X157760000Y-76480000D01*
X157480000Y-73660000D02*
X154940000Y-73660000D01*
X154940000Y-73660000D02*
X154940000Y-76200000D01*
X157760000Y-76480000D02*
X156210000Y-76480000D01*
X116615000Y-114235000D02*
X116865000Y-114235000D01*
X116615000Y-121985000D02*
X116950000Y-121985000D01*
X129765000Y-121985000D02*
X129430000Y-121985000D01*
X129765000Y-114235000D02*
X129430000Y-114235000D01*
X116615000Y-114235000D02*
X116615000Y-121985000D01*
X129765000Y-114235000D02*
X129765000Y-121985000D01*
X116865000Y-114235000D02*
X116865000Y-112435000D01*
X136935000Y-114235000D02*
X137185000Y-114235000D01*
X136935000Y-121985000D02*
X137270000Y-121985000D01*
X150085000Y-121985000D02*
X149750000Y-121985000D01*
X150085000Y-114235000D02*
X149750000Y-114235000D01*
X136935000Y-114235000D02*
X136935000Y-121985000D01*
X150085000Y-114235000D02*
X150085000Y-121985000D01*
X137185000Y-114235000D02*
X137185000Y-112435000D01*
X157255000Y-114235000D02*
X157505000Y-114235000D01*
X157255000Y-121985000D02*
X157590000Y-121985000D01*
X170405000Y-121985000D02*
X170070000Y-121985000D01*
X170405000Y-114235000D02*
X170070000Y-114235000D01*
X157255000Y-114235000D02*
X157255000Y-121985000D01*
X170405000Y-114235000D02*
X170405000Y-121985000D01*
X157505000Y-114235000D02*
X157505000Y-112435000D01*
D13*
X179824000Y-71329000D02*
X178824000Y-71329000D01*
X178824000Y-72689000D02*
X179824000Y-72689000D01*
X179824000Y-72980000D02*
X178824000Y-72980000D01*
X178824000Y-74340000D02*
X179824000Y-74340000D01*
X179824000Y-74631000D02*
X178824000Y-74631000D01*
X178824000Y-75991000D02*
X179824000Y-75991000D01*
D12*
X115142381Y-117348095D02*
X115951905Y-117348095D01*
X116047143Y-117395714D01*
X116094762Y-117443333D01*
X116142381Y-117538571D01*
X116142381Y-117729048D01*
X116094762Y-117824286D01*
X116047143Y-117871905D01*
X115951905Y-117919524D01*
X115142381Y-117919524D01*
X116142381Y-118919524D02*
X116142381Y-118348095D01*
X116142381Y-118633809D02*
X115142381Y-118633809D01*
X115285238Y-118538571D01*
X115380476Y-118443333D01*
X115428095Y-118348095D01*
X135462381Y-117348095D02*
X136271905Y-117348095D01*
X136367143Y-117395714D01*
X136414762Y-117443333D01*
X136462381Y-117538571D01*
X136462381Y-117729048D01*
X136414762Y-117824286D01*
X136367143Y-117871905D01*
X136271905Y-117919524D01*
X135462381Y-117919524D01*
X135557619Y-118348095D02*
X135510000Y-118395714D01*
X135462381Y-118490952D01*
X135462381Y-118729048D01*
X135510000Y-118824286D01*
X135557619Y-118871905D01*
X135652857Y-118919524D01*
X135748095Y-118919524D01*
X135890952Y-118871905D01*
X136462381Y-118300476D01*
X136462381Y-118919524D01*
X155782381Y-117348095D02*
X156591905Y-117348095D01*
X156687143Y-117395714D01*
X156734762Y-117443333D01*
X156782381Y-117538571D01*
X156782381Y-117729048D01*
X156734762Y-117824286D01*
X156687143Y-117871905D01*
X156591905Y-117919524D01*
X155782381Y-117919524D01*
X155782381Y-118300476D02*
X155782381Y-118967143D01*
X156782381Y-118538571D01*
M02*
