G04 #@! TF.FileFunction,Legend,Bot*
%FSLAX46Y46*%
G04 Gerber Fmt 4.6, Leading zero omitted, Abs format (unit mm)*
G04 Created by KiCad (PCBNEW 4.0.7) date 03/26/18 01:40:39*
%MOMM*%
%LPD*%
G01*
G04 APERTURE LIST*
%ADD10C,0.100000*%
%ADD11C,0.300000*%
%ADD12C,0.150000*%
%ADD13C,0.120000*%
G04 APERTURE END LIST*
D10*
D11*
X178331571Y-86016571D02*
X177474428Y-86016571D01*
X177902999Y-87516571D02*
X177902999Y-86016571D01*
X176117285Y-87373714D02*
X176188714Y-87445143D01*
X176403000Y-87516571D01*
X176545857Y-87516571D01*
X176760142Y-87445143D01*
X176903000Y-87302286D01*
X176974428Y-87159429D01*
X177045857Y-86873714D01*
X177045857Y-86659429D01*
X176974428Y-86373714D01*
X176903000Y-86230857D01*
X176760142Y-86088000D01*
X176545857Y-86016571D01*
X176403000Y-86016571D01*
X176188714Y-86088000D01*
X176117285Y-86159429D01*
X175474428Y-87516571D02*
X175474428Y-86016571D01*
X174617285Y-87516571D02*
X175260142Y-86659429D01*
X174617285Y-86016571D02*
X175474428Y-86873714D01*
X177545857Y-88638000D02*
X177688714Y-88566571D01*
X177903000Y-88566571D01*
X178117285Y-88638000D01*
X178260143Y-88780857D01*
X178331571Y-88923714D01*
X178403000Y-89209429D01*
X178403000Y-89423714D01*
X178331571Y-89709429D01*
X178260143Y-89852286D01*
X178117285Y-89995143D01*
X177903000Y-90066571D01*
X177760143Y-90066571D01*
X177545857Y-89995143D01*
X177474428Y-89923714D01*
X177474428Y-89423714D01*
X177760143Y-89423714D01*
X176831571Y-90066571D02*
X176831571Y-88566571D01*
X175974428Y-90066571D01*
X175974428Y-88566571D01*
X175260142Y-90066571D02*
X175260142Y-88566571D01*
X174902999Y-88566571D01*
X174688714Y-88638000D01*
X174545856Y-88780857D01*
X174474428Y-88923714D01*
X174402999Y-89209429D01*
X174402999Y-89423714D01*
X174474428Y-89709429D01*
X174545856Y-89852286D01*
X174688714Y-89995143D01*
X174902999Y-90066571D01*
X175260142Y-90066571D01*
X178367286Y-91116571D02*
X177510143Y-91116571D01*
X177938714Y-92616571D02*
X177938714Y-91116571D01*
X177010143Y-92616571D02*
X177010143Y-91116571D01*
X176653000Y-91116571D01*
X176438715Y-91188000D01*
X176295857Y-91330857D01*
X176224429Y-91473714D01*
X176153000Y-91759429D01*
X176153000Y-91973714D01*
X176224429Y-92259429D01*
X176295857Y-92402286D01*
X176438715Y-92545143D01*
X176653000Y-92616571D01*
X177010143Y-92616571D01*
X175224429Y-91116571D02*
X174938715Y-91116571D01*
X174795857Y-91188000D01*
X174653000Y-91330857D01*
X174581572Y-91616571D01*
X174581572Y-92116571D01*
X174653000Y-92402286D01*
X174795857Y-92545143D01*
X174938715Y-92616571D01*
X175224429Y-92616571D01*
X175367286Y-92545143D01*
X175510143Y-92402286D01*
X175581572Y-92116571D01*
X175581572Y-91616571D01*
X175510143Y-91330857D01*
X175367286Y-91188000D01*
X175224429Y-91116571D01*
X178260142Y-93666571D02*
X177331571Y-93666571D01*
X177831571Y-94238000D01*
X177617285Y-94238000D01*
X177474428Y-94309429D01*
X177402999Y-94380857D01*
X177331571Y-94523714D01*
X177331571Y-94880857D01*
X177402999Y-95023714D01*
X177474428Y-95095143D01*
X177617285Y-95166571D01*
X178045857Y-95166571D01*
X178188714Y-95095143D01*
X178260142Y-95023714D01*
X176903000Y-93666571D02*
X176403000Y-95166571D01*
X175903000Y-93666571D01*
X175545857Y-93666571D02*
X174617286Y-93666571D01*
X175117286Y-94238000D01*
X174903000Y-94238000D01*
X174760143Y-94309429D01*
X174688714Y-94380857D01*
X174617286Y-94523714D01*
X174617286Y-94880857D01*
X174688714Y-95023714D01*
X174760143Y-95095143D01*
X174903000Y-95166571D01*
X175331572Y-95166571D01*
X175474429Y-95095143D01*
X175545857Y-95023714D01*
X178403000Y-96216571D02*
X177545857Y-96216571D01*
X177974428Y-97716571D02*
X177974428Y-96216571D01*
X177045857Y-97716571D02*
X177045857Y-96216571D01*
X176545857Y-97288000D01*
X176045857Y-96216571D01*
X176045857Y-97716571D01*
X175403000Y-97645143D02*
X175188714Y-97716571D01*
X174831571Y-97716571D01*
X174688714Y-97645143D01*
X174617285Y-97573714D01*
X174545857Y-97430857D01*
X174545857Y-97288000D01*
X174617285Y-97145143D01*
X174688714Y-97073714D01*
X174831571Y-97002286D01*
X175117285Y-96930857D01*
X175260143Y-96859429D01*
X175331571Y-96788000D01*
X175403000Y-96645143D01*
X175403000Y-96502286D01*
X175331571Y-96359429D01*
X175260143Y-96288000D01*
X175117285Y-96216571D01*
X174760143Y-96216571D01*
X174545857Y-96288000D01*
X177938714Y-98766571D02*
X177081571Y-98766571D01*
X177510142Y-100266571D02*
X177510142Y-98766571D01*
X176581571Y-100266571D02*
X176581571Y-98766571D01*
X176224428Y-98766571D01*
X176010143Y-98838000D01*
X175867285Y-98980857D01*
X175795857Y-99123714D01*
X175724428Y-99409429D01*
X175724428Y-99623714D01*
X175795857Y-99909429D01*
X175867285Y-100052286D01*
X176010143Y-100195143D01*
X176224428Y-100266571D01*
X176581571Y-100266571D01*
X175081571Y-100266571D02*
X175081571Y-98766571D01*
X177545857Y-101388000D02*
X177688714Y-101316571D01*
X177903000Y-101316571D01*
X178117285Y-101388000D01*
X178260143Y-101530857D01*
X178331571Y-101673714D01*
X178403000Y-101959429D01*
X178403000Y-102173714D01*
X178331571Y-102459429D01*
X178260143Y-102602286D01*
X178117285Y-102745143D01*
X177903000Y-102816571D01*
X177760143Y-102816571D01*
X177545857Y-102745143D01*
X177474428Y-102673714D01*
X177474428Y-102173714D01*
X177760143Y-102173714D01*
X176831571Y-102816571D02*
X176831571Y-101316571D01*
X175974428Y-102816571D01*
X175974428Y-101316571D01*
X175260142Y-102816571D02*
X175260142Y-101316571D01*
X174902999Y-101316571D01*
X174688714Y-101388000D01*
X174545856Y-101530857D01*
X174474428Y-101673714D01*
X174402999Y-101959429D01*
X174402999Y-102173714D01*
X174474428Y-102459429D01*
X174545856Y-102602286D01*
X174688714Y-102745143D01*
X174902999Y-102816571D01*
X175260142Y-102816571D01*
X118297144Y-118931429D02*
X119297144Y-118931429D01*
X118654287Y-117431429D01*
X120511429Y-118431429D02*
X120511429Y-117431429D01*
X120154286Y-119002857D02*
X119797143Y-117931429D01*
X120725715Y-117931429D01*
X121297143Y-117431429D02*
X121297143Y-118931429D01*
X121297143Y-118217143D02*
X122154286Y-118217143D01*
X122154286Y-117431429D02*
X122154286Y-118931429D01*
X123725715Y-117574286D02*
X123654286Y-117502857D01*
X123440000Y-117431429D01*
X123297143Y-117431429D01*
X123082858Y-117502857D01*
X122940000Y-117645714D01*
X122868572Y-117788571D01*
X122797143Y-118074286D01*
X122797143Y-118288571D01*
X122868572Y-118574286D01*
X122940000Y-118717143D01*
X123082858Y-118860000D01*
X123297143Y-118931429D01*
X123440000Y-118931429D01*
X123654286Y-118860000D01*
X123725715Y-118788571D01*
X124297143Y-118788571D02*
X124368572Y-118860000D01*
X124511429Y-118931429D01*
X124868572Y-118931429D01*
X125011429Y-118860000D01*
X125082858Y-118788571D01*
X125154286Y-118645714D01*
X125154286Y-118502857D01*
X125082858Y-118288571D01*
X124225715Y-117431429D01*
X125154286Y-117431429D01*
X126440000Y-118431429D02*
X126440000Y-117431429D01*
X126082857Y-119002857D02*
X125725714Y-117931429D01*
X126654286Y-117931429D01*
X127940000Y-118931429D02*
X127225714Y-118931429D01*
X127154285Y-118217143D01*
X127225714Y-118288571D01*
X127368571Y-118360000D01*
X127725714Y-118360000D01*
X127868571Y-118288571D01*
X127940000Y-118217143D01*
X128011428Y-118074286D01*
X128011428Y-117717143D01*
X127940000Y-117574286D01*
X127868571Y-117502857D01*
X127725714Y-117431429D01*
X127368571Y-117431429D01*
X127225714Y-117502857D01*
X127154285Y-117574286D01*
X138617144Y-118931429D02*
X139617144Y-118931429D01*
X138974287Y-117431429D01*
X140831429Y-118431429D02*
X140831429Y-117431429D01*
X140474286Y-119002857D02*
X140117143Y-117931429D01*
X141045715Y-117931429D01*
X141617143Y-117431429D02*
X141617143Y-118931429D01*
X141617143Y-118217143D02*
X142474286Y-118217143D01*
X142474286Y-117431429D02*
X142474286Y-118931429D01*
X144045715Y-117574286D02*
X143974286Y-117502857D01*
X143760000Y-117431429D01*
X143617143Y-117431429D01*
X143402858Y-117502857D01*
X143260000Y-117645714D01*
X143188572Y-117788571D01*
X143117143Y-118074286D01*
X143117143Y-118288571D01*
X143188572Y-118574286D01*
X143260000Y-118717143D01*
X143402858Y-118860000D01*
X143617143Y-118931429D01*
X143760000Y-118931429D01*
X143974286Y-118860000D01*
X144045715Y-118788571D01*
X144617143Y-118788571D02*
X144688572Y-118860000D01*
X144831429Y-118931429D01*
X145188572Y-118931429D01*
X145331429Y-118860000D01*
X145402858Y-118788571D01*
X145474286Y-118645714D01*
X145474286Y-118502857D01*
X145402858Y-118288571D01*
X144545715Y-117431429D01*
X145474286Y-117431429D01*
X146760000Y-118431429D02*
X146760000Y-117431429D01*
X146402857Y-119002857D02*
X146045714Y-117931429D01*
X146974286Y-117931429D01*
X148260000Y-118931429D02*
X147545714Y-118931429D01*
X147474285Y-118217143D01*
X147545714Y-118288571D01*
X147688571Y-118360000D01*
X148045714Y-118360000D01*
X148188571Y-118288571D01*
X148260000Y-118217143D01*
X148331428Y-118074286D01*
X148331428Y-117717143D01*
X148260000Y-117574286D01*
X148188571Y-117502857D01*
X148045714Y-117431429D01*
X147688571Y-117431429D01*
X147545714Y-117502857D01*
X147474285Y-117574286D01*
X158937144Y-118931429D02*
X159937144Y-118931429D01*
X159294287Y-117431429D01*
X161151429Y-118431429D02*
X161151429Y-117431429D01*
X160794286Y-119002857D02*
X160437143Y-117931429D01*
X161365715Y-117931429D01*
X161937143Y-117431429D02*
X161937143Y-118931429D01*
X161937143Y-118217143D02*
X162794286Y-118217143D01*
X162794286Y-117431429D02*
X162794286Y-118931429D01*
X164365715Y-117574286D02*
X164294286Y-117502857D01*
X164080000Y-117431429D01*
X163937143Y-117431429D01*
X163722858Y-117502857D01*
X163580000Y-117645714D01*
X163508572Y-117788571D01*
X163437143Y-118074286D01*
X163437143Y-118288571D01*
X163508572Y-118574286D01*
X163580000Y-118717143D01*
X163722858Y-118860000D01*
X163937143Y-118931429D01*
X164080000Y-118931429D01*
X164294286Y-118860000D01*
X164365715Y-118788571D01*
X164937143Y-118788571D02*
X165008572Y-118860000D01*
X165151429Y-118931429D01*
X165508572Y-118931429D01*
X165651429Y-118860000D01*
X165722858Y-118788571D01*
X165794286Y-118645714D01*
X165794286Y-118502857D01*
X165722858Y-118288571D01*
X164865715Y-117431429D01*
X165794286Y-117431429D01*
X167080000Y-118431429D02*
X167080000Y-117431429D01*
X166722857Y-119002857D02*
X166365714Y-117931429D01*
X167294286Y-117931429D01*
X168580000Y-118931429D02*
X167865714Y-118931429D01*
X167794285Y-118217143D01*
X167865714Y-118288571D01*
X168008571Y-118360000D01*
X168365714Y-118360000D01*
X168508571Y-118288571D01*
X168580000Y-118217143D01*
X168651428Y-118074286D01*
X168651428Y-117717143D01*
X168580000Y-117574286D01*
X168508571Y-117502857D01*
X168365714Y-117431429D01*
X168008571Y-117431429D01*
X167865714Y-117502857D01*
X167794285Y-117574286D01*
D12*
X106680000Y-71120000D02*
X157480000Y-71120000D01*
X154940000Y-76200000D02*
X106680000Y-76200000D01*
X106680000Y-71120000D02*
X106680000Y-76200000D01*
X157480000Y-71120000D02*
X157480000Y-73660000D01*
X157760000Y-74930000D02*
X157760000Y-76480000D01*
X157480000Y-73660000D02*
X154940000Y-73660000D01*
X154940000Y-73660000D02*
X154940000Y-76200000D01*
X157760000Y-76480000D02*
X156210000Y-76480000D01*
X116615000Y-114235000D02*
X116865000Y-114235000D01*
X116615000Y-121985000D02*
X116950000Y-121985000D01*
X129765000Y-121985000D02*
X129430000Y-121985000D01*
X129765000Y-114235000D02*
X129430000Y-114235000D01*
X116615000Y-114235000D02*
X116615000Y-121985000D01*
X129765000Y-114235000D02*
X129765000Y-121985000D01*
X116865000Y-114235000D02*
X116865000Y-112435000D01*
X136935000Y-114235000D02*
X137185000Y-114235000D01*
X136935000Y-121985000D02*
X137270000Y-121985000D01*
X150085000Y-121985000D02*
X149750000Y-121985000D01*
X150085000Y-114235000D02*
X149750000Y-114235000D01*
X136935000Y-114235000D02*
X136935000Y-121985000D01*
X150085000Y-114235000D02*
X150085000Y-121985000D01*
X137185000Y-114235000D02*
X137185000Y-112435000D01*
X157255000Y-114235000D02*
X157505000Y-114235000D01*
X157255000Y-121985000D02*
X157590000Y-121985000D01*
X170405000Y-121985000D02*
X170070000Y-121985000D01*
X170405000Y-114235000D02*
X170070000Y-114235000D01*
X157255000Y-114235000D02*
X157255000Y-121985000D01*
X170405000Y-114235000D02*
X170405000Y-121985000D01*
X157505000Y-114235000D02*
X157505000Y-112435000D01*
X179324000Y-87884000D02*
X179324000Y-103124000D01*
X179324000Y-103124000D02*
X181864000Y-103124000D01*
X181864000Y-103124000D02*
X181864000Y-87884000D01*
X179044000Y-85064000D02*
X179044000Y-86614000D01*
X179324000Y-87884000D02*
X181864000Y-87884000D01*
X182144000Y-86614000D02*
X182144000Y-85064000D01*
X182144000Y-85064000D02*
X179044000Y-85064000D01*
D13*
X179824000Y-71329000D02*
X178824000Y-71329000D01*
X178824000Y-72689000D02*
X179824000Y-72689000D01*
X179824000Y-72980000D02*
X178824000Y-72980000D01*
X178824000Y-74340000D02*
X179824000Y-74340000D01*
X179824000Y-74631000D02*
X178824000Y-74631000D01*
X178824000Y-75991000D02*
X179824000Y-75991000D01*
D12*
X115142381Y-117348095D02*
X115951905Y-117348095D01*
X116047143Y-117395714D01*
X116094762Y-117443333D01*
X116142381Y-117538571D01*
X116142381Y-117729048D01*
X116094762Y-117824286D01*
X116047143Y-117871905D01*
X115951905Y-117919524D01*
X115142381Y-117919524D01*
X116142381Y-118919524D02*
X116142381Y-118348095D01*
X116142381Y-118633809D02*
X115142381Y-118633809D01*
X115285238Y-118538571D01*
X115380476Y-118443333D01*
X115428095Y-118348095D01*
X135462381Y-117348095D02*
X136271905Y-117348095D01*
X136367143Y-117395714D01*
X136414762Y-117443333D01*
X136462381Y-117538571D01*
X136462381Y-117729048D01*
X136414762Y-117824286D01*
X136367143Y-117871905D01*
X136271905Y-117919524D01*
X135462381Y-117919524D01*
X135557619Y-118348095D02*
X135510000Y-118395714D01*
X135462381Y-118490952D01*
X135462381Y-118729048D01*
X135510000Y-118824286D01*
X135557619Y-118871905D01*
X135652857Y-118919524D01*
X135748095Y-118919524D01*
X135890952Y-118871905D01*
X136462381Y-118300476D01*
X136462381Y-118919524D01*
X155782381Y-117348095D02*
X156591905Y-117348095D01*
X156687143Y-117395714D01*
X156734762Y-117443333D01*
X156782381Y-117538571D01*
X156782381Y-117729048D01*
X156734762Y-117824286D01*
X156687143Y-117871905D01*
X156591905Y-117919524D01*
X155782381Y-117919524D01*
X155782381Y-118300476D02*
X155782381Y-118967143D01*
X156782381Y-118538571D01*
M02*
