G04 #@! TF.FileFunction,Soldermask,Top*
%FSLAX46Y46*%
G04 Gerber Fmt 4.6, Leading zero omitted, Abs format (unit mm)*
G04 Created by KiCad (PCBNEW 4.0.7) date 03/23/18 02:51:47*
%MOMM*%
%LPD*%
G01*
G04 APERTURE LIST*
%ADD10C,0.100000*%
%ADD11R,2.127200X2.127200*%
%ADD12O,2.127200X2.127200*%
%ADD13R,2.824000X11.460000*%
%ADD14R,1.900000X0.700000*%
%ADD15R,0.700000X1.900000*%
%ADD16R,1.000000X2.350000*%
%ADD17R,2.400000X1.500000*%
%ADD18R,2.432000X2.127200*%
%ADD19O,2.432000X2.127200*%
G04 APERTURE END LIST*
D10*
D11*
X156210000Y-74930000D03*
D12*
X156210000Y-72390000D03*
X153670000Y-74930000D03*
X153670000Y-72390000D03*
X151130000Y-74930000D03*
X151130000Y-72390000D03*
X148590000Y-74930000D03*
X148590000Y-72390000D03*
X146050000Y-74930000D03*
X146050000Y-72390000D03*
X143510000Y-74930000D03*
X143510000Y-72390000D03*
X140970000Y-74930000D03*
X140970000Y-72390000D03*
X138430000Y-74930000D03*
X138430000Y-72390000D03*
X135890000Y-74930000D03*
X135890000Y-72390000D03*
X133350000Y-74930000D03*
X133350000Y-72390000D03*
X130810000Y-74930000D03*
X130810000Y-72390000D03*
X128270000Y-74930000D03*
X128270000Y-72390000D03*
X125730000Y-74930000D03*
X125730000Y-72390000D03*
X123190000Y-74930000D03*
X123190000Y-72390000D03*
X120650000Y-74930000D03*
X120650000Y-72390000D03*
X118110000Y-74930000D03*
X118110000Y-72390000D03*
X115570000Y-74930000D03*
X115570000Y-72390000D03*
X113030000Y-74930000D03*
X113030000Y-72390000D03*
X110490000Y-74930000D03*
X110490000Y-72390000D03*
X107950000Y-74930000D03*
X107950000Y-72390000D03*
D13*
X178689000Y-137795000D03*
X176149000Y-137795000D03*
X173609000Y-137795000D03*
X171069000Y-137795000D03*
X168529000Y-137795000D03*
X165989000Y-137795000D03*
X163449000Y-137795000D03*
X160909000Y-137795000D03*
X158369000Y-137795000D03*
X155829000Y-137795000D03*
X153289000Y-137795000D03*
X150749000Y-137795000D03*
X148209000Y-137795000D03*
X145669000Y-137795000D03*
X143129000Y-137795000D03*
X140589000Y-137795000D03*
X138049000Y-137795000D03*
X135509000Y-137795000D03*
X132969000Y-137795000D03*
X130429000Y-137795000D03*
X127889000Y-137795000D03*
X125349000Y-137795000D03*
X122809000Y-137795000D03*
X120269000Y-137795000D03*
X117729000Y-137795000D03*
D14*
X150829000Y-99853000D03*
X150829000Y-99353000D03*
X150829000Y-98853000D03*
X150829000Y-98353000D03*
X150829000Y-97853000D03*
X150829000Y-97353000D03*
X150829000Y-96853000D03*
X150829000Y-96353000D03*
X150829000Y-95853000D03*
X150829000Y-95353000D03*
X150829000Y-94853000D03*
X150829000Y-94353000D03*
X150829000Y-93853000D03*
X150829000Y-93353000D03*
X150829000Y-92853000D03*
X150829000Y-92353000D03*
X150829000Y-91853000D03*
X150829000Y-91353000D03*
X150829000Y-90853000D03*
X150829000Y-90353000D03*
X150829000Y-89853000D03*
X150829000Y-89353000D03*
X150829000Y-88853000D03*
X150829000Y-88353000D03*
X150829000Y-87853000D03*
D15*
X149129000Y-86153000D03*
X148629000Y-86153000D03*
X148129000Y-86153000D03*
X147629000Y-86153000D03*
X147129000Y-86153000D03*
X146629000Y-86153000D03*
X146129000Y-86153000D03*
X145629000Y-86153000D03*
X145129000Y-86153000D03*
X144629000Y-86153000D03*
X144129000Y-86153000D03*
X143629000Y-86153000D03*
X143129000Y-86153000D03*
X142629000Y-86153000D03*
X142129000Y-86153000D03*
X141629000Y-86153000D03*
X141129000Y-86153000D03*
X140629000Y-86153000D03*
X140129000Y-86153000D03*
X139629000Y-86153000D03*
X139129000Y-86153000D03*
X138629000Y-86153000D03*
X138129000Y-86153000D03*
X137629000Y-86153000D03*
X137129000Y-86153000D03*
D14*
X135429000Y-87853000D03*
X135429000Y-88353000D03*
X135429000Y-88853000D03*
X135429000Y-89353000D03*
X135429000Y-89853000D03*
X135429000Y-90353000D03*
X135429000Y-90853000D03*
X135429000Y-91353000D03*
X135429000Y-91853000D03*
X135429000Y-92353000D03*
X135429000Y-92853000D03*
X135429000Y-93353000D03*
X135429000Y-93853000D03*
X135429000Y-94353000D03*
X135429000Y-94853000D03*
X135429000Y-95353000D03*
X135429000Y-95853000D03*
X135429000Y-96353000D03*
X135429000Y-96853000D03*
X135429000Y-97353000D03*
X135429000Y-97853000D03*
X135429000Y-98353000D03*
X135429000Y-98853000D03*
X135429000Y-99353000D03*
X135429000Y-99853000D03*
D15*
X137129000Y-101553000D03*
X137629000Y-101553000D03*
X138129000Y-101553000D03*
X138629000Y-101553000D03*
X139129000Y-101553000D03*
X139629000Y-101553000D03*
X140129000Y-101553000D03*
X140629000Y-101553000D03*
X141129000Y-101553000D03*
X141629000Y-101553000D03*
X142129000Y-101553000D03*
X142629000Y-101553000D03*
X143129000Y-101553000D03*
X143629000Y-101553000D03*
X144129000Y-101553000D03*
X144629000Y-101553000D03*
X145129000Y-101553000D03*
X145629000Y-101553000D03*
X146129000Y-101553000D03*
X146629000Y-101553000D03*
X147129000Y-101553000D03*
X147629000Y-101553000D03*
X148129000Y-101553000D03*
X148629000Y-101553000D03*
X149129000Y-101553000D03*
D16*
X177165000Y-113410000D03*
X175895000Y-113410000D03*
X174625000Y-113410000D03*
X173355000Y-113410000D03*
X172085000Y-113410000D03*
X170815000Y-113410000D03*
X169545000Y-113410000D03*
X168275000Y-113410000D03*
X167005000Y-113410000D03*
X165735000Y-113410000D03*
X165735000Y-122810000D03*
X167005000Y-122810000D03*
X168275000Y-122810000D03*
X169545000Y-122810000D03*
X170815000Y-122810000D03*
X172085000Y-122810000D03*
X173355000Y-122810000D03*
X174625000Y-122810000D03*
X175895000Y-122810000D03*
X177165000Y-122810000D03*
X137795000Y-113410000D03*
X136525000Y-113410000D03*
X135255000Y-113410000D03*
X133985000Y-113410000D03*
X132715000Y-113410000D03*
X131445000Y-113410000D03*
X130175000Y-113410000D03*
X128905000Y-113410000D03*
X127635000Y-113410000D03*
X126365000Y-113410000D03*
X126365000Y-122810000D03*
X127635000Y-122810000D03*
X128905000Y-122810000D03*
X130175000Y-122810000D03*
X131445000Y-122810000D03*
X132715000Y-122810000D03*
X133985000Y-122810000D03*
X135255000Y-122810000D03*
X136525000Y-122810000D03*
X137795000Y-122810000D03*
X158115000Y-113410000D03*
X156845000Y-113410000D03*
X155575000Y-113410000D03*
X154305000Y-113410000D03*
X153035000Y-113410000D03*
X151765000Y-113410000D03*
X150495000Y-113410000D03*
X149225000Y-113410000D03*
X147955000Y-113410000D03*
X146685000Y-113410000D03*
X146685000Y-122810000D03*
X147955000Y-122810000D03*
X149225000Y-122810000D03*
X150495000Y-122810000D03*
X151765000Y-122810000D03*
X153035000Y-122810000D03*
X154305000Y-122810000D03*
X155575000Y-122810000D03*
X156845000Y-122810000D03*
X158115000Y-122810000D03*
D17*
X175654000Y-71960000D03*
X175654000Y-73660000D03*
X175654000Y-75360000D03*
X180454000Y-75360000D03*
X180454000Y-73660000D03*
X180454000Y-71960000D03*
D18*
X180594000Y-86614000D03*
D19*
X180594000Y-89154000D03*
X180594000Y-91694000D03*
X180594000Y-94234000D03*
X180594000Y-96774000D03*
X180594000Y-99314000D03*
X180594000Y-101854000D03*
M02*
