G04 #@! TF.FileFunction,Copper,L2,Bot,Signal*
%FSLAX46Y46*%
G04 Gerber Fmt 4.6, Leading zero omitted, Abs format (unit mm)*
G04 Created by KiCad (PCBNEW 4.0.7) date 03/23/18 02:51:47*
%MOMM*%
%LPD*%
G01*
G04 APERTURE LIST*
%ADD10C,0.100000*%
%ADD11R,1.727200X1.727200*%
%ADD12O,1.727200X1.727200*%
%ADD13R,1.524000X10.160000*%
%ADD14R,0.600000X1.950000*%
%ADD15R,2.032000X1.727200*%
%ADD16O,2.032000X1.727200*%
%ADD17R,1.200000X0.900000*%
%ADD18C,0.600000*%
%ADD19C,0.250000*%
%ADD20C,0.254000*%
G04 APERTURE END LIST*
D10*
D11*
X156210000Y-74930000D03*
D12*
X156210000Y-72390000D03*
X153670000Y-74930000D03*
X153670000Y-72390000D03*
X151130000Y-74930000D03*
X151130000Y-72390000D03*
X148590000Y-74930000D03*
X148590000Y-72390000D03*
X146050000Y-74930000D03*
X146050000Y-72390000D03*
X143510000Y-74930000D03*
X143510000Y-72390000D03*
X140970000Y-74930000D03*
X140970000Y-72390000D03*
X138430000Y-74930000D03*
X138430000Y-72390000D03*
X135890000Y-74930000D03*
X135890000Y-72390000D03*
X133350000Y-74930000D03*
X133350000Y-72390000D03*
X130810000Y-74930000D03*
X130810000Y-72390000D03*
X128270000Y-74930000D03*
X128270000Y-72390000D03*
X125730000Y-74930000D03*
X125730000Y-72390000D03*
X123190000Y-74930000D03*
X123190000Y-72390000D03*
X120650000Y-74930000D03*
X120650000Y-72390000D03*
X118110000Y-74930000D03*
X118110000Y-72390000D03*
X115570000Y-74930000D03*
X115570000Y-72390000D03*
X113030000Y-74930000D03*
X113030000Y-72390000D03*
X110490000Y-74930000D03*
X110490000Y-72390000D03*
X107950000Y-74930000D03*
X107950000Y-72390000D03*
D13*
X178689000Y-137795000D03*
X176149000Y-137795000D03*
X173609000Y-137795000D03*
X171069000Y-137795000D03*
X168529000Y-137795000D03*
X165989000Y-137795000D03*
X163449000Y-137795000D03*
X160909000Y-137795000D03*
X158369000Y-137795000D03*
X155829000Y-137795000D03*
X153289000Y-137795000D03*
X150749000Y-137795000D03*
X148209000Y-137795000D03*
X145669000Y-137795000D03*
X143129000Y-137795000D03*
X140589000Y-137795000D03*
X138049000Y-137795000D03*
X135509000Y-137795000D03*
X132969000Y-137795000D03*
X130429000Y-137795000D03*
X127889000Y-137795000D03*
X125349000Y-137795000D03*
X122809000Y-137795000D03*
X120269000Y-137795000D03*
X117729000Y-137795000D03*
D14*
X117475000Y-113410000D03*
X118745000Y-113410000D03*
X120015000Y-113410000D03*
X121285000Y-113410000D03*
X122555000Y-113410000D03*
X123825000Y-113410000D03*
X125095000Y-113410000D03*
X126365000Y-113410000D03*
X127635000Y-113410000D03*
X128905000Y-113410000D03*
X128905000Y-122810000D03*
X127635000Y-122810000D03*
X126365000Y-122810000D03*
X125095000Y-122810000D03*
X123825000Y-122810000D03*
X122555000Y-122810000D03*
X121285000Y-122810000D03*
X120015000Y-122810000D03*
X118745000Y-122810000D03*
X117475000Y-122810000D03*
X137795000Y-113410000D03*
X139065000Y-113410000D03*
X140335000Y-113410000D03*
X141605000Y-113410000D03*
X142875000Y-113410000D03*
X144145000Y-113410000D03*
X145415000Y-113410000D03*
X146685000Y-113410000D03*
X147955000Y-113410000D03*
X149225000Y-113410000D03*
X149225000Y-122810000D03*
X147955000Y-122810000D03*
X146685000Y-122810000D03*
X145415000Y-122810000D03*
X144145000Y-122810000D03*
X142875000Y-122810000D03*
X141605000Y-122810000D03*
X140335000Y-122810000D03*
X139065000Y-122810000D03*
X137795000Y-122810000D03*
X158115000Y-113410000D03*
X159385000Y-113410000D03*
X160655000Y-113410000D03*
X161925000Y-113410000D03*
X163195000Y-113410000D03*
X164465000Y-113410000D03*
X165735000Y-113410000D03*
X167005000Y-113410000D03*
X168275000Y-113410000D03*
X169545000Y-113410000D03*
X169545000Y-122810000D03*
X168275000Y-122810000D03*
X167005000Y-122810000D03*
X165735000Y-122810000D03*
X164465000Y-122810000D03*
X163195000Y-122810000D03*
X161925000Y-122810000D03*
X160655000Y-122810000D03*
X159385000Y-122810000D03*
X158115000Y-122810000D03*
D15*
X180594000Y-86614000D03*
D16*
X180594000Y-89154000D03*
X180594000Y-91694000D03*
X180594000Y-94234000D03*
X180594000Y-96774000D03*
X180594000Y-99314000D03*
X180594000Y-101854000D03*
D17*
X178224000Y-72009000D03*
X180424000Y-72009000D03*
X178224000Y-73660000D03*
X180424000Y-73660000D03*
X178224000Y-75311000D03*
X180424000Y-75311000D03*
D18*
X137264900Y-78831900D03*
X135479800Y-78083700D03*
X140275900Y-82137000D03*
X140544600Y-87432100D03*
X137775600Y-87435700D03*
X129601200Y-87189000D03*
X128072100Y-88213300D03*
X137795000Y-121305700D03*
X158248600Y-121297300D03*
X174978000Y-131229100D03*
X170397700Y-130797400D03*
X167445300Y-131833500D03*
X159935000Y-131415700D03*
X174193200Y-93840300D03*
X174193200Y-93726000D03*
X168630600Y-97002600D03*
X169202100Y-81356200D03*
X178028600Y-90017600D03*
X169202100Y-81330800D03*
X169227500Y-81330800D03*
X169367200Y-73177400D03*
X175895000Y-122810000D03*
X171246800Y-129222500D03*
X171411900Y-131178300D03*
X176580800Y-125755400D03*
X144449800Y-130594100D03*
X146939000Y-128778000D03*
X142265400Y-131737100D03*
X152133300Y-125196600D03*
X151993600Y-128574800D03*
X136525000Y-122810000D03*
X139230100Y-126923800D03*
X149593300Y-128549400D03*
X156845000Y-122810000D03*
X158356300Y-125196600D03*
X158394400Y-125209300D03*
X160210500Y-130086100D03*
X145556300Y-118379000D03*
X173362500Y-124288300D03*
X156582400Y-126945400D03*
X156067000Y-126320000D03*
X172402100Y-130629300D03*
X157262300Y-128280800D03*
X142999000Y-100050400D03*
X134142800Y-93583300D03*
X129513300Y-99464300D03*
X136718900Y-95844000D03*
X131952500Y-100917600D03*
X133435800Y-101031900D03*
X136682000Y-98853000D03*
X135429000Y-101015300D03*
X137351200Y-102815200D03*
X137246400Y-114879700D03*
X166782000Y-110830200D03*
X149234500Y-95106500D03*
X153416900Y-108608400D03*
X158017500Y-110829900D03*
X154249700Y-107049200D03*
X158816000Y-114831800D03*
X154843300Y-104299700D03*
X155443200Y-103767600D03*
X148291100Y-100238400D03*
X157397500Y-103953200D03*
X156072600Y-102628300D03*
X141184000Y-88649700D03*
X137718900Y-93481500D03*
X137649900Y-91911700D03*
X181975200Y-75140400D03*
X181984100Y-73617900D03*
X181954800Y-72134700D03*
D19*
X133363000Y-74930000D02*
X137264900Y-78831900D01*
X133350000Y-74930000D02*
X133363000Y-74930000D01*
X131998900Y-75301500D02*
X131998900Y-74930000D01*
X134781100Y-78083700D02*
X131998900Y-75301500D01*
X135479800Y-78083700D02*
X134781100Y-78083700D01*
X130810000Y-74930000D02*
X131998900Y-74930000D01*
X130810000Y-72390000D02*
X131998900Y-72390000D01*
X140275900Y-80912800D02*
X140275900Y-82137000D01*
X136685200Y-77322100D02*
X140275900Y-80912800D01*
X136538600Y-77322100D02*
X136685200Y-77322100D01*
X134539000Y-75322500D02*
X136538600Y-77322100D01*
X134539000Y-74415700D02*
X134539000Y-75322500D01*
X133702200Y-73578900D02*
X134539000Y-74415700D01*
X132816200Y-73578900D02*
X133702200Y-73578900D01*
X131998900Y-72761600D02*
X132816200Y-73578900D01*
X131998900Y-72390000D02*
X131998900Y-72761600D01*
X125730000Y-72390000D02*
X125730000Y-73578900D01*
X139083700Y-87432100D02*
X140544600Y-87432100D01*
X126918900Y-75267300D02*
X139083700Y-87432100D01*
X126918900Y-74396200D02*
X126918900Y-75267300D01*
X126101600Y-73578900D02*
X126918900Y-74396200D01*
X125730000Y-73578900D02*
X126101600Y-73578900D01*
X120650000Y-74930000D02*
X121838900Y-74930000D01*
X133973100Y-87435700D02*
X137775600Y-87435700D01*
X121838900Y-75301500D02*
X133973100Y-87435700D01*
X121838900Y-74930000D02*
X121838900Y-75301500D01*
X115570000Y-74930000D02*
X116758900Y-74930000D01*
X128646400Y-87189000D02*
X129601200Y-87189000D01*
X116758900Y-75301500D02*
X128646400Y-87189000D01*
X116758900Y-74930000D02*
X116758900Y-75301500D01*
X113030000Y-74930000D02*
X114218900Y-74930000D01*
X127130700Y-88213300D02*
X128072100Y-88213300D01*
X114218900Y-75301500D02*
X127130700Y-88213300D01*
X114218900Y-74930000D02*
X114218900Y-75301500D01*
X137795000Y-122810000D02*
X137795000Y-121305700D01*
X119737900Y-121305700D02*
X137795000Y-121305700D01*
X119382000Y-121661600D02*
X119737900Y-121305700D01*
X119382000Y-123941800D02*
X119382000Y-121661600D01*
X119213500Y-124110300D02*
X119382000Y-123941800D01*
X117475000Y-124110300D02*
X119213500Y-124110300D01*
X117475000Y-122810000D02*
X117475000Y-124110300D01*
X158115000Y-122810000D02*
X158115000Y-121509700D01*
X158115000Y-121297300D02*
X158248600Y-121297300D01*
X158115000Y-121509700D02*
X158115000Y-121297300D01*
X158115000Y-121297300D02*
X158115000Y-114060100D01*
X137795000Y-122810000D02*
X137795000Y-124110300D01*
X143369100Y-124110300D02*
X137795000Y-124110300D01*
X143519600Y-123959800D02*
X143369100Y-124110300D01*
X143519600Y-121700300D02*
X143519600Y-123959800D01*
X143710200Y-121509700D02*
X143519600Y-121700300D01*
X158115000Y-121509700D02*
X143710200Y-121509700D01*
X158115000Y-113410000D02*
X158115000Y-113966200D01*
X158115000Y-113966200D02*
X158115000Y-114060100D01*
X153298400Y-73578900D02*
X153670000Y-73578900D01*
X152481100Y-74396200D02*
X153298400Y-73578900D01*
X152481100Y-75506300D02*
X152481100Y-74396200D01*
X147654200Y-80333200D02*
X152481100Y-75506300D01*
X147654200Y-103760200D02*
X147654200Y-80333200D01*
X157860200Y-113966200D02*
X147654200Y-103760200D01*
X158115000Y-113966200D02*
X157860200Y-113966200D01*
X153670000Y-72390000D02*
X153670000Y-73578900D01*
X168275000Y-122810000D02*
X168275000Y-124110300D01*
X168275000Y-124110300D02*
X168822100Y-124110300D01*
X168822100Y-124110300D02*
X174978000Y-130266200D01*
X174978000Y-130266200D02*
X174978000Y-131229100D01*
X167005000Y-122810000D02*
X167005000Y-124110300D01*
X167005000Y-127404700D02*
X170397700Y-130797400D01*
X167005000Y-124110300D02*
X167005000Y-127404700D01*
X162569600Y-126957800D02*
X167445300Y-131833500D01*
X162569600Y-121656600D02*
X162569600Y-126957800D01*
X162716500Y-121509700D02*
X162569600Y-121656600D01*
X165735000Y-121509700D02*
X162716500Y-121509700D01*
X165735000Y-122810000D02*
X165735000Y-121509700D01*
X158345100Y-129825800D02*
X159935000Y-131415700D01*
X158345000Y-129825800D02*
X158345100Y-129825800D01*
X158345000Y-127694500D02*
X158345000Y-129825800D01*
X154760800Y-124110300D02*
X158345000Y-127694500D01*
X149225000Y-124110300D02*
X154760800Y-124110300D01*
X149225000Y-122810000D02*
X149225000Y-124110300D01*
X178028600Y-90017600D02*
X178028600Y-90309700D01*
X174498000Y-93840300D02*
X174193200Y-93840300D01*
X178028600Y-90309700D02*
X174498000Y-93840300D01*
X174193200Y-93726000D02*
X170268900Y-97650300D01*
X169278300Y-97650300D02*
X168630600Y-97002600D01*
X170268900Y-97650300D02*
X169278300Y-97650300D01*
X169367200Y-81356200D02*
X169202100Y-81356200D01*
X178028600Y-90017600D02*
X169367200Y-81356200D01*
X169202100Y-81330800D02*
X169227500Y-81330800D01*
X171246800Y-131013200D02*
X171246800Y-129222500D01*
X171411900Y-131178300D02*
X171246800Y-131013200D01*
X175856900Y-125031500D02*
X176580800Y-125755400D01*
X175856900Y-122848100D02*
X175856900Y-125031500D01*
X175895000Y-122810000D02*
X175856900Y-122848100D01*
X144449800Y-130594100D02*
X143408400Y-130594100D01*
X146265900Y-128778000D02*
X144449800Y-130594100D01*
X149593300Y-128549400D02*
X147167600Y-128549400D01*
X147167600Y-128549400D02*
X146939000Y-128778000D01*
X146939000Y-128778000D02*
X146265900Y-128778000D01*
X143408400Y-130594100D02*
X142265400Y-131737100D01*
X151993600Y-128574800D02*
X149618700Y-128574800D01*
X141439900Y-126923800D02*
X143167100Y-125196600D01*
X143167100Y-125196600D02*
X152133300Y-125196600D01*
X136575800Y-124269500D02*
X139230100Y-126923800D01*
X136575800Y-122860800D02*
X136575800Y-124269500D01*
X136525000Y-122810000D02*
X136575800Y-122860800D01*
X139230100Y-126923800D02*
X141439900Y-126923800D01*
X149618700Y-128574800D02*
X149593300Y-128549400D01*
X156946600Y-123786900D02*
X158356300Y-125196600D01*
X156946600Y-122911600D02*
X156946600Y-123786900D01*
X156845000Y-122810000D02*
X156946600Y-122911600D01*
X158394400Y-125209300D02*
X159562800Y-126377700D01*
X159562800Y-129438400D02*
X160210500Y-130086100D01*
X159562800Y-126377700D02*
X159562800Y-129438400D01*
X109138900Y-74558400D02*
X109138900Y-74930000D01*
X109956200Y-73741100D02*
X109138900Y-74558400D01*
X113401600Y-73741100D02*
X109956200Y-73741100D01*
X114381100Y-72761600D02*
X113401600Y-73741100D01*
X114381100Y-72390000D02*
X114381100Y-72761600D01*
X115570000Y-72390000D02*
X114381100Y-72390000D01*
X107950000Y-74930000D02*
X109138900Y-74930000D01*
X116758900Y-72761600D02*
X116758900Y-72390000D01*
X117576200Y-73578900D02*
X116758900Y-72761600D01*
X118643700Y-73578900D02*
X117576200Y-73578900D01*
X119461100Y-72761500D02*
X118643700Y-73578900D01*
X119461100Y-72390000D02*
X119461100Y-72761500D01*
X120650000Y-72390000D02*
X119461100Y-72390000D01*
X115570000Y-72390000D02*
X116758900Y-72390000D01*
X120650000Y-72390000D02*
X121238600Y-72390000D01*
X125730000Y-74930000D02*
X124541100Y-74930000D01*
X124379000Y-73085900D02*
X123723800Y-73741100D01*
X124379000Y-72001200D02*
X124379000Y-73085900D01*
X125179200Y-71201000D02*
X124379000Y-72001200D01*
X132161000Y-71201000D02*
X125179200Y-71201000D01*
X133350000Y-72390000D02*
X132161000Y-71201000D01*
X122589700Y-73741100D02*
X123723800Y-73741100D01*
X121238600Y-72390000D02*
X122589700Y-73741100D01*
X124541100Y-74558400D02*
X124541100Y-74930000D01*
X123723800Y-73741100D02*
X124541100Y-74558400D01*
X128905000Y-113410000D02*
X128905000Y-114710300D01*
X125544400Y-114710300D02*
X128905000Y-114710300D01*
X118745000Y-121509700D02*
X125544400Y-114710300D01*
X118745000Y-122810000D02*
X118745000Y-121509700D01*
X142158900Y-72761600D02*
X142158900Y-72390000D01*
X142976200Y-73578900D02*
X142158900Y-72761600D01*
X143881600Y-73578900D02*
X142976200Y-73578900D01*
X144861100Y-74558400D02*
X143881600Y-73578900D01*
X144861100Y-74930000D02*
X144861100Y-74558400D01*
X146050000Y-74930000D02*
X144861100Y-74930000D01*
X140970000Y-72390000D02*
X142158900Y-72390000D01*
X180594000Y-89154000D02*
X180594000Y-90342900D01*
X180594000Y-101854000D02*
X179252700Y-101854000D01*
X139065000Y-122810000D02*
X139065000Y-121509700D01*
X132265600Y-114710300D02*
X128905000Y-114710300D01*
X139065000Y-121509700D02*
X132265600Y-114710300D01*
X180073900Y-90342900D02*
X180594000Y-90342900D01*
X179252700Y-91164100D02*
X180073900Y-90342900D01*
X179252700Y-101854000D02*
X179252700Y-91164100D01*
X169545000Y-111561700D02*
X169545000Y-113410000D01*
X179252700Y-101854000D02*
X169545000Y-111561700D01*
X178689000Y-123854300D02*
X178689000Y-137795000D01*
X169545000Y-114710300D02*
X178689000Y-123854300D01*
X169545000Y-113410000D02*
X169545000Y-114710300D01*
X149225000Y-113410000D02*
X149225000Y-112109700D01*
X146050000Y-108934700D02*
X146050000Y-74930000D01*
X149225000Y-112109700D02*
X146050000Y-108934700D01*
X149941100Y-72761600D02*
X149941100Y-72390000D01*
X149123800Y-73578900D02*
X149941100Y-72761600D01*
X148218400Y-73578900D02*
X149123800Y-73578900D01*
X147238900Y-74558400D02*
X148218400Y-73578900D01*
X147238900Y-74930000D02*
X147238900Y-74558400D01*
X146050000Y-74930000D02*
X147238900Y-74930000D01*
X151130000Y-72390000D02*
X149941100Y-72390000D01*
X149225000Y-113410000D02*
X149225000Y-114710300D01*
X142195700Y-118379000D02*
X145556300Y-118379000D01*
X139065000Y-121509700D02*
X142195700Y-118379000D01*
X145556300Y-118379000D02*
X149225000Y-114710300D01*
X176149000Y-127074800D02*
X173362500Y-124288300D01*
X176149000Y-137795000D02*
X176149000Y-127074800D01*
X171069000Y-137795000D02*
X171069000Y-132389700D01*
X164465000Y-125785700D02*
X164465000Y-122810000D01*
X171069000Y-132389700D02*
X164465000Y-125785700D01*
X168529000Y-137795000D02*
X168529000Y-132389700D01*
X163195000Y-126342000D02*
X163195000Y-122810000D01*
X168529000Y-131676000D02*
X163195000Y-126342000D01*
X168529000Y-132389700D02*
X168529000Y-131676000D01*
X161925000Y-128325700D02*
X165989000Y-132389700D01*
X161925000Y-122810000D02*
X161925000Y-128325700D01*
X165989000Y-137795000D02*
X165989000Y-132389700D01*
X163449000Y-132005100D02*
X163449000Y-137795000D01*
X160655000Y-129211100D02*
X163449000Y-132005100D01*
X160655000Y-122810000D02*
X160655000Y-129211100D01*
X152501750Y-131026050D02*
X149580450Y-131026050D01*
X149580450Y-131026050D02*
X148216800Y-132389700D01*
X152501750Y-131026050D02*
X156582400Y-126945400D01*
X148209000Y-132389700D02*
X148216800Y-132389700D01*
X148209000Y-137795000D02*
X148209000Y-132389700D01*
X140589000Y-137795000D02*
X140589000Y-132389700D01*
X156067000Y-126320100D02*
X156067000Y-126320000D01*
X146658600Y-126320100D02*
X156067000Y-126320100D01*
X140589000Y-132389700D02*
X146658600Y-126320100D01*
X137184400Y-132389700D02*
X138049000Y-132389700D01*
X128905000Y-124110300D02*
X137184400Y-132389700D01*
X128905000Y-122810000D02*
X128905000Y-124110300D01*
X138049000Y-137795000D02*
X138049000Y-132389700D01*
X135509000Y-131984300D02*
X127635000Y-124110300D01*
X135509000Y-137795000D02*
X135509000Y-131984300D01*
X127635000Y-122810000D02*
X127635000Y-124110300D01*
X132969000Y-130714300D02*
X132969000Y-137795000D01*
X126365000Y-124110300D02*
X132969000Y-130714300D01*
X126365000Y-122810000D02*
X126365000Y-124110300D01*
X130429000Y-129444300D02*
X130429000Y-137795000D01*
X125095000Y-124110300D02*
X130429000Y-129444300D01*
X125095000Y-122810000D02*
X125095000Y-124110300D01*
X127889000Y-129477500D02*
X127889000Y-137795000D01*
X123825000Y-125413500D02*
X127889000Y-129477500D01*
X123825000Y-122810000D02*
X123825000Y-125413500D01*
X125349000Y-128448300D02*
X125349000Y-137795000D01*
X122555000Y-125654300D02*
X125349000Y-128448300D01*
X122555000Y-122810000D02*
X122555000Y-125654300D01*
X122809000Y-130486600D02*
X122809000Y-137795000D01*
X121285000Y-128962600D02*
X122809000Y-130486600D01*
X121285000Y-122810000D02*
X121285000Y-128962600D01*
X120015000Y-132135700D02*
X120269000Y-132389700D01*
X120015000Y-124110300D02*
X120015000Y-132135700D01*
X120015000Y-122810000D02*
X120015000Y-124110300D01*
X120269000Y-137795000D02*
X120269000Y-132389700D01*
X172402100Y-131182800D02*
X173609000Y-132389700D01*
X172402100Y-130629300D02*
X172402100Y-131182800D01*
X173609000Y-137795000D02*
X173609000Y-132389700D01*
X153289000Y-132254100D02*
X153289000Y-137795000D01*
X157262300Y-128280800D02*
X153289000Y-132254100D01*
X123032000Y-114710300D02*
X117475000Y-114710300D01*
X123180400Y-114561900D02*
X123032000Y-114710300D01*
X123180400Y-110650400D02*
X123180400Y-114561900D01*
X132694100Y-101136700D02*
X123180400Y-110650400D01*
X132694100Y-100849100D02*
X132694100Y-101136700D01*
X135317900Y-98225300D02*
X132694100Y-100849100D01*
X141173900Y-98225300D02*
X135317900Y-98225300D01*
X142999000Y-100050400D02*
X141173900Y-98225300D01*
X117475000Y-113410000D02*
X117475000Y-114710300D01*
X118745000Y-108981100D02*
X134142800Y-93583300D01*
X118745000Y-113410000D02*
X118745000Y-108981100D01*
X120015000Y-108962600D02*
X129513300Y-99464300D01*
X120015000Y-113410000D02*
X120015000Y-108962600D01*
X121285000Y-110656200D02*
X121285000Y-113410000D01*
X136097200Y-95844000D02*
X121285000Y-110656200D01*
X136718900Y-95844000D02*
X136097200Y-95844000D01*
X122555000Y-110315100D02*
X131952500Y-100917600D01*
X122555000Y-113410000D02*
X122555000Y-110315100D01*
X123825000Y-110642700D02*
X133435800Y-101031900D01*
X123825000Y-113410000D02*
X123825000Y-110642700D01*
X125095000Y-110440000D02*
X136682000Y-98853000D01*
X125095000Y-113410000D02*
X125095000Y-110440000D01*
X126365000Y-113410000D02*
X126365000Y-112109700D01*
X135429000Y-103045700D02*
X135429000Y-101015300D01*
X126365000Y-112109700D02*
X135429000Y-103045700D01*
X127635000Y-113410000D02*
X127635000Y-112109700D01*
X128056700Y-112109700D02*
X127635000Y-112109700D01*
X137351200Y-102815200D02*
X128056700Y-112109700D01*
X137795000Y-113410000D02*
X137795000Y-114710300D01*
X137415800Y-114710300D02*
X137795000Y-114710300D01*
X137246400Y-114879700D02*
X137415800Y-114710300D01*
X151058300Y-95106500D02*
X166782000Y-110830200D01*
X149234500Y-95106500D02*
X151058300Y-95106500D01*
X159385000Y-113410000D02*
X159385000Y-112109700D01*
X156918200Y-112109700D02*
X153416900Y-108608400D01*
X159385000Y-112109700D02*
X156918200Y-112109700D01*
X160655000Y-113410000D02*
X160655000Y-112109700D01*
X159375200Y-110829900D02*
X158017500Y-110829900D01*
X160655000Y-112109700D02*
X159375200Y-110829900D01*
X161925000Y-113410000D02*
X161925000Y-112109700D01*
X157402900Y-110202400D02*
X154249700Y-107049200D01*
X157402900Y-110202500D02*
X157402900Y-110202400D01*
X160017800Y-110202500D02*
X157402900Y-110202500D01*
X161925000Y-112109700D02*
X160017800Y-110202500D01*
X159385000Y-115400800D02*
X158816000Y-114831800D01*
X159385000Y-122810000D02*
X159385000Y-115400800D01*
X163195000Y-113410000D02*
X163195000Y-112109700D01*
X162653300Y-112109700D02*
X154843300Y-104299700D01*
X163195000Y-112109700D02*
X162653300Y-112109700D01*
X164465000Y-113410000D02*
X164465000Y-112109700D01*
X156074300Y-104398700D02*
X155443200Y-103767600D01*
X156321900Y-104398700D02*
X156074300Y-104398700D01*
X156321900Y-104398800D02*
X156321900Y-104398700D01*
X164032800Y-112109700D02*
X156321900Y-104398800D01*
X164465000Y-112109700D02*
X164032800Y-112109700D01*
X165735000Y-113410000D02*
X165735000Y-112109700D01*
X158203800Y-104578500D02*
X165735000Y-112109700D01*
X157138500Y-104578500D02*
X158203800Y-104578500D01*
X156772200Y-104212200D02*
X157138500Y-104578500D01*
X156772200Y-104077200D02*
X156772200Y-104212200D01*
X156257100Y-103562100D02*
X156772200Y-104077200D01*
X156122100Y-103562100D02*
X156257100Y-103562100D01*
X152798400Y-100238400D02*
X156122100Y-103562100D01*
X148291100Y-100238400D02*
X152798400Y-100238400D01*
X167005000Y-113410000D02*
X167005000Y-112109700D01*
X158326500Y-103953200D02*
X157397500Y-103953200D01*
X166483000Y-112109700D02*
X158326500Y-103953200D01*
X167005000Y-112109700D02*
X166483000Y-112109700D01*
X168275000Y-113410000D02*
X168275000Y-112109700D01*
X157695800Y-102628300D02*
X156072600Y-102628300D01*
X166523900Y-111456400D02*
X157695800Y-102628300D01*
X167621700Y-111456400D02*
X166523900Y-111456400D01*
X168275000Y-112109700D02*
X167621700Y-111456400D01*
X156482200Y-74930000D02*
X157398900Y-74930000D01*
X135890000Y-74930000D02*
X137078900Y-74930000D01*
X156482200Y-74930000D02*
X156210000Y-74930000D01*
X137078900Y-74558400D02*
X137078900Y-74930000D01*
X137896200Y-73741100D02*
X137078900Y-74558400D01*
X138782200Y-73741100D02*
X137896200Y-73741100D01*
X139619000Y-72904300D02*
X138782200Y-73741100D01*
X139619000Y-72005900D02*
X139619000Y-72904300D01*
X140451800Y-71173100D02*
X139619000Y-72005900D01*
X154186200Y-71173100D02*
X140451800Y-71173100D01*
X155021100Y-72008000D02*
X154186200Y-71173100D01*
X155021100Y-72923800D02*
X155021100Y-72008000D01*
X155838400Y-73741100D02*
X155021100Y-72923800D01*
X156210000Y-73741100D02*
X155838400Y-73741100D01*
X156210000Y-74930000D02*
X156210000Y-73741100D01*
X141184000Y-80814700D02*
X141184000Y-88649700D01*
X137078900Y-76709600D02*
X141184000Y-80814700D01*
X137078900Y-74930000D02*
X137078900Y-76709600D01*
X137718900Y-91911700D02*
X137649900Y-91911700D01*
X137922000Y-91911700D02*
X137718900Y-91911700D01*
X141184000Y-88649700D02*
X137922000Y-91911700D01*
X137718900Y-91911700D02*
X137718900Y-93481500D01*
X181114100Y-93045100D02*
X180594000Y-93045100D01*
X181945000Y-92214200D02*
X181114100Y-93045100D01*
X181945000Y-79807300D02*
X181945000Y-92214200D01*
X178224000Y-76086300D02*
X181945000Y-79807300D01*
X178224000Y-75311000D02*
X178224000Y-76086300D01*
X180594000Y-94234000D02*
X180594000Y-93045100D01*
X178224000Y-73660000D02*
X178224000Y-72009000D01*
X178224000Y-74930000D02*
X157398900Y-74930000D01*
X178224000Y-73660000D02*
X178224000Y-74930000D01*
X178224000Y-74930000D02*
X178224000Y-75311000D01*
X181804600Y-75311000D02*
X181975200Y-75140400D01*
X180424000Y-75311000D02*
X181804600Y-75311000D01*
X181942000Y-73660000D02*
X181984100Y-73617900D01*
X180424000Y-73660000D02*
X181942000Y-73660000D01*
X181829100Y-72009000D02*
X181954800Y-72134700D01*
X180424000Y-72009000D02*
X181829100Y-72009000D01*
D20*
G36*
X184358979Y-69345478D02*
X184536145Y-69463856D01*
X184654521Y-69641019D01*
X184710000Y-69919931D01*
X184710000Y-130740069D01*
X184654521Y-131018981D01*
X184536145Y-131196144D01*
X184358979Y-131314522D01*
X184080070Y-131370000D01*
X180340000Y-131370000D01*
X180068295Y-131424046D01*
X179837954Y-131577954D01*
X179684046Y-131808295D01*
X179630000Y-132080000D01*
X179630000Y-132101825D01*
X179577310Y-132080000D01*
X178974750Y-132080000D01*
X178816000Y-132238750D01*
X178816000Y-137668000D01*
X178836000Y-137668000D01*
X178836000Y-137922000D01*
X178816000Y-137922000D01*
X178816000Y-137942000D01*
X178562000Y-137942000D01*
X178562000Y-137922000D01*
X178542000Y-137922000D01*
X178542000Y-137668000D01*
X178562000Y-137668000D01*
X178562000Y-132238750D01*
X178403250Y-132080000D01*
X177800690Y-132080000D01*
X177567301Y-132176673D01*
X177416329Y-132327646D01*
X177375090Y-132263559D01*
X177162890Y-132118569D01*
X176911000Y-132067560D01*
X176909000Y-132067560D01*
X176909000Y-127074800D01*
X176851148Y-126783961D01*
X176686401Y-126537399D01*
X174297622Y-124148620D01*
X174297662Y-124103133D01*
X174155617Y-123759357D01*
X173892827Y-123496108D01*
X173549299Y-123353462D01*
X173177333Y-123353138D01*
X172833557Y-123495183D01*
X172570308Y-123757973D01*
X172427662Y-124101501D01*
X172427338Y-124473467D01*
X172569383Y-124817243D01*
X172832173Y-125080492D01*
X173175701Y-125223138D01*
X173222577Y-125223179D01*
X175389000Y-127389602D01*
X175389000Y-129602398D01*
X170137785Y-124351183D01*
X170296441Y-124249090D01*
X170441431Y-124036890D01*
X170492440Y-123785000D01*
X170492440Y-121835000D01*
X170448162Y-121599683D01*
X170309090Y-121383559D01*
X170096890Y-121238569D01*
X169845000Y-121187560D01*
X169245000Y-121187560D01*
X169009683Y-121231838D01*
X168910472Y-121295678D01*
X168826890Y-121238569D01*
X168575000Y-121187560D01*
X167975000Y-121187560D01*
X167739683Y-121231838D01*
X167640472Y-121295678D01*
X167556890Y-121238569D01*
X167305000Y-121187560D01*
X166705000Y-121187560D01*
X166469683Y-121231838D01*
X166443128Y-121248926D01*
X166437148Y-121218861D01*
X166272401Y-120972299D01*
X166025839Y-120807552D01*
X165735000Y-120749700D01*
X162716500Y-120749700D01*
X162425661Y-120807552D01*
X162179099Y-120972299D01*
X162032199Y-121119199D01*
X161986522Y-121187560D01*
X161625000Y-121187560D01*
X161389683Y-121231838D01*
X161290472Y-121295678D01*
X161206890Y-121238569D01*
X160955000Y-121187560D01*
X160355000Y-121187560D01*
X160145000Y-121227074D01*
X160145000Y-115400800D01*
X160087148Y-115109961D01*
X159980072Y-114949710D01*
X160019528Y-114924322D01*
X160103110Y-114981431D01*
X160355000Y-115032440D01*
X160955000Y-115032440D01*
X161190317Y-114988162D01*
X161289528Y-114924322D01*
X161373110Y-114981431D01*
X161625000Y-115032440D01*
X162225000Y-115032440D01*
X162460317Y-114988162D01*
X162559528Y-114924322D01*
X162643110Y-114981431D01*
X162895000Y-115032440D01*
X163495000Y-115032440D01*
X163730317Y-114988162D01*
X163829528Y-114924322D01*
X163913110Y-114981431D01*
X164165000Y-115032440D01*
X164765000Y-115032440D01*
X165000317Y-114988162D01*
X165099528Y-114924322D01*
X165183110Y-114981431D01*
X165435000Y-115032440D01*
X166035000Y-115032440D01*
X166270317Y-114988162D01*
X166369528Y-114924322D01*
X166453110Y-114981431D01*
X166705000Y-115032440D01*
X167305000Y-115032440D01*
X167540317Y-114988162D01*
X167639528Y-114924322D01*
X167723110Y-114981431D01*
X167975000Y-115032440D01*
X168575000Y-115032440D01*
X168810317Y-114988162D01*
X168900980Y-114929822D01*
X169118690Y-115020000D01*
X169259250Y-115020000D01*
X169418000Y-114861250D01*
X169418000Y-113537000D01*
X169672000Y-113537000D01*
X169672000Y-114861250D01*
X169830750Y-115020000D01*
X169971310Y-115020000D01*
X170204699Y-114923327D01*
X170383327Y-114744698D01*
X170480000Y-114511309D01*
X170480000Y-113695750D01*
X170321250Y-113537000D01*
X169672000Y-113537000D01*
X169418000Y-113537000D01*
X169398000Y-113537000D01*
X169398000Y-113283000D01*
X169418000Y-113283000D01*
X169418000Y-111958750D01*
X169672000Y-111958750D01*
X169672000Y-113283000D01*
X170321250Y-113283000D01*
X170480000Y-113124250D01*
X170480000Y-112308691D01*
X170383327Y-112075302D01*
X170204699Y-111896673D01*
X169971310Y-111800000D01*
X169830750Y-111800000D01*
X169672000Y-111958750D01*
X169418000Y-111958750D01*
X169259250Y-111800000D01*
X169118690Y-111800000D01*
X168984456Y-111855602D01*
X168977148Y-111818861D01*
X168812401Y-111572299D01*
X168159101Y-110918999D01*
X167912539Y-110754252D01*
X167717101Y-110715377D01*
X167717162Y-110645033D01*
X167575117Y-110301257D01*
X167312327Y-110038008D01*
X166968799Y-109895362D01*
X166921923Y-109895321D01*
X159239628Y-102213026D01*
X178986642Y-102213026D01*
X178989291Y-102228791D01*
X179243268Y-102756036D01*
X179679680Y-103145954D01*
X180232087Y-103339184D01*
X180467000Y-103194924D01*
X180467000Y-101981000D01*
X180721000Y-101981000D01*
X180721000Y-103194924D01*
X180955913Y-103339184D01*
X181508320Y-103145954D01*
X181944732Y-102756036D01*
X182198709Y-102228791D01*
X182201358Y-102213026D01*
X182080217Y-101981000D01*
X180721000Y-101981000D01*
X180467000Y-101981000D01*
X179107783Y-101981000D01*
X178986642Y-102213026D01*
X159239628Y-102213026D01*
X151595701Y-94569099D01*
X151349139Y-94404352D01*
X151058300Y-94346500D01*
X149796963Y-94346500D01*
X149764827Y-94314308D01*
X149421299Y-94171662D01*
X149049333Y-94171338D01*
X148705557Y-94313383D01*
X148442308Y-94576173D01*
X148414200Y-94643864D01*
X148414200Y-80648002D01*
X152869800Y-76192402D01*
X153096511Y-76343885D01*
X153670000Y-76457959D01*
X154243489Y-76343885D01*
X154729670Y-76019029D01*
X154738805Y-76005358D01*
X154743238Y-76028917D01*
X154882310Y-76245041D01*
X155094510Y-76390031D01*
X155346400Y-76441040D01*
X157073600Y-76441040D01*
X157308917Y-76396762D01*
X157525041Y-76257690D01*
X157670031Y-76045490D01*
X157721040Y-75793600D01*
X157721040Y-75690000D01*
X176976560Y-75690000D01*
X176976560Y-75761000D01*
X177020838Y-75996317D01*
X177159910Y-76212441D01*
X177372110Y-76357431D01*
X177530055Y-76389416D01*
X177686599Y-76623701D01*
X181185000Y-80122102D01*
X181185000Y-85102960D01*
X179578000Y-85102960D01*
X179342683Y-85147238D01*
X179126559Y-85286310D01*
X178981569Y-85498510D01*
X178930560Y-85750400D01*
X178930560Y-87477600D01*
X178974838Y-87712917D01*
X179113910Y-87929041D01*
X179326110Y-88074031D01*
X179420927Y-88093232D01*
X179243268Y-88251964D01*
X178989291Y-88779209D01*
X178986642Y-88794974D01*
X179107783Y-89027000D01*
X180467000Y-89027000D01*
X180467000Y-89007000D01*
X180721000Y-89007000D01*
X180721000Y-89027000D01*
X180741000Y-89027000D01*
X180741000Y-89281000D01*
X180721000Y-89281000D01*
X180721000Y-89301000D01*
X180467000Y-89301000D01*
X180467000Y-89281000D01*
X179107783Y-89281000D01*
X178986642Y-89513026D01*
X178989291Y-89528791D01*
X179243268Y-90056036D01*
X179659069Y-90427539D01*
X179349585Y-90634330D01*
X179024729Y-91120511D01*
X178910655Y-91694000D01*
X179024729Y-92267489D01*
X179349585Y-92753670D01*
X179664366Y-92964000D01*
X179349585Y-93174330D01*
X179024729Y-93660511D01*
X178910655Y-94234000D01*
X179024729Y-94807489D01*
X179349585Y-95293670D01*
X179664366Y-95504000D01*
X179349585Y-95714330D01*
X179024729Y-96200511D01*
X178910655Y-96774000D01*
X179024729Y-97347489D01*
X179349585Y-97833670D01*
X179664366Y-98044000D01*
X179349585Y-98254330D01*
X179024729Y-98740511D01*
X178910655Y-99314000D01*
X179024729Y-99887489D01*
X179349585Y-100373670D01*
X179659069Y-100580461D01*
X179243268Y-100951964D01*
X178989291Y-101479209D01*
X178986642Y-101494974D01*
X179107783Y-101727000D01*
X180467000Y-101727000D01*
X180467000Y-101707000D01*
X180721000Y-101707000D01*
X180721000Y-101727000D01*
X182080217Y-101727000D01*
X182201358Y-101494974D01*
X182198709Y-101479209D01*
X181944732Y-100951964D01*
X181528931Y-100580461D01*
X181838415Y-100373670D01*
X182163271Y-99887489D01*
X182277345Y-99314000D01*
X182163271Y-98740511D01*
X181838415Y-98254330D01*
X181523634Y-98044000D01*
X181838415Y-97833670D01*
X182163271Y-97347489D01*
X182277345Y-96774000D01*
X182163271Y-96200511D01*
X181838415Y-95714330D01*
X181523634Y-95504000D01*
X181838415Y-95293670D01*
X182163271Y-94807489D01*
X182277345Y-94234000D01*
X182163271Y-93660511D01*
X181927038Y-93306964D01*
X182482401Y-92751601D01*
X182647148Y-92505039D01*
X182705000Y-92214200D01*
X182705000Y-79807300D01*
X182647148Y-79516461D01*
X182482401Y-79269899D01*
X179565237Y-76352735D01*
X179572110Y-76357431D01*
X179824000Y-76408440D01*
X181024000Y-76408440D01*
X181259317Y-76364162D01*
X181475441Y-76225090D01*
X181580726Y-76071000D01*
X181778195Y-76071000D01*
X181788401Y-76075238D01*
X182160367Y-76075562D01*
X182504143Y-75933517D01*
X182767392Y-75670727D01*
X182910038Y-75327199D01*
X182910362Y-74955233D01*
X182768317Y-74611457D01*
X182540683Y-74383425D01*
X182776292Y-74148227D01*
X182918938Y-73804699D01*
X182919262Y-73432733D01*
X182777217Y-73088957D01*
X182550166Y-72861510D01*
X182746992Y-72665027D01*
X182889638Y-72321499D01*
X182889962Y-71949533D01*
X182747917Y-71605757D01*
X182485127Y-71342508D01*
X182141599Y-71199862D01*
X181769633Y-71199538D01*
X181649926Y-71249000D01*
X181579105Y-71249000D01*
X181488090Y-71107559D01*
X181275890Y-70962569D01*
X181024000Y-70911560D01*
X179824000Y-70911560D01*
X179588683Y-70955838D01*
X179372559Y-71094910D01*
X179324866Y-71164711D01*
X179288090Y-71107559D01*
X179075890Y-70962569D01*
X178824000Y-70911560D01*
X177624000Y-70911560D01*
X177388683Y-70955838D01*
X177172559Y-71094910D01*
X177027569Y-71307110D01*
X176976560Y-71559000D01*
X176976560Y-72459000D01*
X177020838Y-72694317D01*
X177111521Y-72835242D01*
X177027569Y-72958110D01*
X176976560Y-73210000D01*
X176976560Y-74110000D01*
X176987850Y-74170000D01*
X157721040Y-74170000D01*
X157721040Y-74066400D01*
X157676762Y-73831083D01*
X157537690Y-73614959D01*
X157325490Y-73469969D01*
X157281655Y-73461092D01*
X157594526Y-72992848D01*
X157708600Y-72419359D01*
X157708600Y-72360641D01*
X157594526Y-71787152D01*
X157269670Y-71300971D01*
X156783489Y-70976115D01*
X156210000Y-70862041D01*
X155636511Y-70976115D01*
X155293326Y-71205424D01*
X154723601Y-70635699D01*
X154477039Y-70470952D01*
X154186200Y-70413100D01*
X140451800Y-70413100D01*
X140160961Y-70470952D01*
X139914399Y-70635699D01*
X139345475Y-71204623D01*
X139003489Y-70976115D01*
X138430000Y-70862041D01*
X137856511Y-70976115D01*
X137370330Y-71300971D01*
X137160000Y-71615752D01*
X136949670Y-71300971D01*
X136463489Y-70976115D01*
X135890000Y-70862041D01*
X135316511Y-70976115D01*
X134830330Y-71300971D01*
X134614336Y-71624228D01*
X134556821Y-71501510D01*
X134124947Y-71107312D01*
X133709026Y-70935042D01*
X133477000Y-71056183D01*
X133477000Y-72263000D01*
X133497000Y-72263000D01*
X133497000Y-72517000D01*
X133477000Y-72517000D01*
X133477000Y-72537000D01*
X133223000Y-72537000D01*
X133223000Y-72517000D01*
X133203000Y-72517000D01*
X133203000Y-72263000D01*
X133223000Y-72263000D01*
X133223000Y-71056183D01*
X132990974Y-70935042D01*
X132575053Y-71107312D01*
X132143179Y-71501510D01*
X132085664Y-71624228D01*
X131869670Y-71300971D01*
X131383489Y-70976115D01*
X130810000Y-70862041D01*
X130236511Y-70976115D01*
X129750330Y-71300971D01*
X129540000Y-71615752D01*
X129329670Y-71300971D01*
X128843489Y-70976115D01*
X128270000Y-70862041D01*
X127696511Y-70976115D01*
X127210330Y-71300971D01*
X127000000Y-71615752D01*
X126789670Y-71300971D01*
X126303489Y-70976115D01*
X125730000Y-70862041D01*
X125156511Y-70976115D01*
X124670330Y-71300971D01*
X124460000Y-71615752D01*
X124249670Y-71300971D01*
X123763489Y-70976115D01*
X123190000Y-70862041D01*
X122616511Y-70976115D01*
X122130330Y-71300971D01*
X121914336Y-71624228D01*
X121856821Y-71501510D01*
X121424947Y-71107312D01*
X121009026Y-70935042D01*
X120777000Y-71056183D01*
X120777000Y-72263000D01*
X120797000Y-72263000D01*
X120797000Y-72517000D01*
X120777000Y-72517000D01*
X120777000Y-72537000D01*
X120523000Y-72537000D01*
X120523000Y-72517000D01*
X120503000Y-72517000D01*
X120503000Y-72263000D01*
X120523000Y-72263000D01*
X120523000Y-71056183D01*
X120290974Y-70935042D01*
X119875053Y-71107312D01*
X119443179Y-71501510D01*
X119385664Y-71624228D01*
X119169670Y-71300971D01*
X118683489Y-70976115D01*
X118110000Y-70862041D01*
X117536511Y-70976115D01*
X117050330Y-71300971D01*
X116834336Y-71624228D01*
X116776821Y-71501510D01*
X116344947Y-71107312D01*
X115929026Y-70935042D01*
X115697000Y-71056183D01*
X115697000Y-72263000D01*
X115717000Y-72263000D01*
X115717000Y-72517000D01*
X115697000Y-72517000D01*
X115697000Y-72537000D01*
X115443000Y-72537000D01*
X115443000Y-72517000D01*
X115423000Y-72517000D01*
X115423000Y-72263000D01*
X115443000Y-72263000D01*
X115443000Y-71056183D01*
X115210974Y-70935042D01*
X114795053Y-71107312D01*
X114363179Y-71501510D01*
X114305664Y-71624228D01*
X114089670Y-71300971D01*
X113603489Y-70976115D01*
X113030000Y-70862041D01*
X112456511Y-70976115D01*
X111970330Y-71300971D01*
X111760000Y-71615752D01*
X111549670Y-71300971D01*
X111063489Y-70976115D01*
X110490000Y-70862041D01*
X109916511Y-70976115D01*
X109430330Y-71300971D01*
X109220000Y-71615752D01*
X109009670Y-71300971D01*
X108523489Y-70976115D01*
X107950000Y-70862041D01*
X107376511Y-70976115D01*
X106890330Y-71300971D01*
X106565474Y-71787152D01*
X106451400Y-72360641D01*
X106451400Y-72419359D01*
X106565474Y-72992848D01*
X106890330Y-73479029D01*
X107161161Y-73659992D01*
X106743179Y-74041510D01*
X106495032Y-74570973D01*
X106615531Y-74803000D01*
X107823000Y-74803000D01*
X107823000Y-74783000D01*
X108077000Y-74783000D01*
X108077000Y-74803000D01*
X108097000Y-74803000D01*
X108097000Y-75057000D01*
X108077000Y-75057000D01*
X108077000Y-76263817D01*
X108309026Y-76384958D01*
X108724947Y-76212688D01*
X109156821Y-75818490D01*
X109214336Y-75695772D01*
X109430330Y-76019029D01*
X109916511Y-76343885D01*
X110490000Y-76457959D01*
X111063489Y-76343885D01*
X111549670Y-76019029D01*
X111760000Y-75704248D01*
X111970330Y-76019029D01*
X112456511Y-76343885D01*
X113030000Y-76457959D01*
X113603489Y-76343885D01*
X113952968Y-76110370D01*
X126593299Y-88750701D01*
X126839861Y-88915448D01*
X127130700Y-88973300D01*
X127509637Y-88973300D01*
X127541773Y-89005492D01*
X127885301Y-89148138D01*
X128257267Y-89148462D01*
X128601043Y-89006417D01*
X128864292Y-88743627D01*
X129006938Y-88400099D01*
X129007262Y-88028133D01*
X128974565Y-87949000D01*
X129038737Y-87949000D01*
X129070873Y-87981192D01*
X129414401Y-88123838D01*
X129786367Y-88124162D01*
X130130143Y-87982117D01*
X130393392Y-87719327D01*
X130536038Y-87375799D01*
X130536362Y-87003833D01*
X130394317Y-86660057D01*
X130131527Y-86396808D01*
X129787999Y-86254162D01*
X129416033Y-86253838D01*
X129072257Y-86395883D01*
X129039082Y-86429000D01*
X128961202Y-86429000D01*
X118798943Y-76266741D01*
X119169670Y-76019029D01*
X119380000Y-75704248D01*
X119590330Y-76019029D01*
X120076511Y-76343885D01*
X120650000Y-76457959D01*
X121223489Y-76343885D01*
X121572968Y-76110370D01*
X133435699Y-87973101D01*
X133682260Y-88137848D01*
X133973100Y-88195700D01*
X137213137Y-88195700D01*
X137245273Y-88227892D01*
X137588801Y-88370538D01*
X137960767Y-88370862D01*
X138304543Y-88228817D01*
X138557089Y-87976711D01*
X138792861Y-88134248D01*
X139083700Y-88192100D01*
X139982137Y-88192100D01*
X140014273Y-88224292D01*
X140299126Y-88342574D01*
X140249162Y-88462901D01*
X140249121Y-88509777D01*
X137782084Y-90976814D01*
X137464733Y-90976538D01*
X137120957Y-91118583D01*
X136857708Y-91381373D01*
X136715062Y-91724901D01*
X136714738Y-92096867D01*
X136856783Y-92440643D01*
X136958900Y-92542938D01*
X136958900Y-92919037D01*
X136926708Y-92951173D01*
X136784062Y-93294701D01*
X136783738Y-93666667D01*
X136925783Y-94010443D01*
X137188573Y-94273692D01*
X137532101Y-94416338D01*
X137904067Y-94416662D01*
X138247843Y-94274617D01*
X138511092Y-94011827D01*
X138653738Y-93668299D01*
X138654062Y-93296333D01*
X138512017Y-92952557D01*
X138478900Y-92919382D01*
X138478900Y-92429602D01*
X141323680Y-89584822D01*
X141369167Y-89584862D01*
X141712943Y-89442817D01*
X141976192Y-89180027D01*
X142118838Y-88836499D01*
X142119162Y-88464533D01*
X141977117Y-88120757D01*
X141944000Y-88087582D01*
X141944000Y-80814700D01*
X141886148Y-80523861D01*
X141721401Y-80277299D01*
X137838900Y-76394798D01*
X137838900Y-76332118D01*
X137856511Y-76343885D01*
X138430000Y-76457959D01*
X139003489Y-76343885D01*
X139489670Y-76019029D01*
X139700000Y-75704248D01*
X139910330Y-76019029D01*
X140396511Y-76343885D01*
X140970000Y-76457959D01*
X141543489Y-76343885D01*
X142029670Y-76019029D01*
X142240000Y-75704248D01*
X142450330Y-76019029D01*
X142936511Y-76343885D01*
X143510000Y-76457959D01*
X144083489Y-76343885D01*
X144569670Y-76019029D01*
X144785664Y-75695772D01*
X144843179Y-75818490D01*
X145275053Y-76212688D01*
X145690974Y-76384958D01*
X145923000Y-76263817D01*
X145923000Y-75057000D01*
X145903000Y-75057000D01*
X145903000Y-74803000D01*
X145923000Y-74803000D01*
X145923000Y-74783000D01*
X146177000Y-74783000D01*
X146177000Y-74803000D01*
X146197000Y-74803000D01*
X146197000Y-75057000D01*
X146177000Y-75057000D01*
X146177000Y-76263817D01*
X146409026Y-76384958D01*
X146824947Y-76212688D01*
X147256821Y-75818490D01*
X147314336Y-75695772D01*
X147530330Y-76019029D01*
X148016511Y-76343885D01*
X148590000Y-76457959D01*
X149163489Y-76343885D01*
X149649670Y-76019029D01*
X149860000Y-75704248D01*
X150070330Y-76019029D01*
X150556511Y-76343885D01*
X150566689Y-76345909D01*
X147116799Y-79795799D01*
X146952052Y-80042361D01*
X146894200Y-80333200D01*
X146894200Y-103760200D01*
X146952052Y-104051039D01*
X147116799Y-104297601D01*
X157167560Y-114348362D01*
X157167560Y-114385000D01*
X157211838Y-114620317D01*
X157350910Y-114836441D01*
X157355000Y-114839236D01*
X157355000Y-120749700D01*
X143710200Y-120749700D01*
X143419361Y-120807552D01*
X143172799Y-120972299D01*
X142982199Y-121162899D01*
X142965721Y-121187560D01*
X142575000Y-121187560D01*
X142339683Y-121231838D01*
X142240472Y-121295678D01*
X142156890Y-121238569D01*
X141905000Y-121187560D01*
X141305000Y-121187560D01*
X141069683Y-121231838D01*
X140970472Y-121295678D01*
X140886890Y-121238569D01*
X140635000Y-121187560D01*
X140035000Y-121187560D01*
X139799683Y-121231838D01*
X139709020Y-121290178D01*
X139491310Y-121200000D01*
X139350750Y-121200000D01*
X139192000Y-121358750D01*
X139192000Y-122683000D01*
X139212000Y-122683000D01*
X139212000Y-122937000D01*
X139192000Y-122937000D01*
X139192000Y-122957000D01*
X138938000Y-122957000D01*
X138938000Y-122937000D01*
X138918000Y-122937000D01*
X138918000Y-122683000D01*
X138938000Y-122683000D01*
X138938000Y-121358750D01*
X138779250Y-121200000D01*
X138730093Y-121200000D01*
X138730162Y-121120533D01*
X138588117Y-120776757D01*
X138325327Y-120513508D01*
X137981799Y-120370862D01*
X137609833Y-120370538D01*
X137266057Y-120512583D01*
X137232882Y-120545700D01*
X119737900Y-120545700D01*
X119447061Y-120603552D01*
X119200499Y-120768299D01*
X118844599Y-121124199D01*
X118679852Y-121370761D01*
X118622000Y-121661600D01*
X118622000Y-122957000D01*
X118618000Y-122957000D01*
X118618000Y-122937000D01*
X118598000Y-122937000D01*
X118598000Y-122683000D01*
X118618000Y-122683000D01*
X118618000Y-121358750D01*
X118459250Y-121200000D01*
X118318690Y-121200000D01*
X118101878Y-121289806D01*
X118026890Y-121238569D01*
X117775000Y-121187560D01*
X117175000Y-121187560D01*
X116939683Y-121231838D01*
X116723559Y-121370910D01*
X116578569Y-121583110D01*
X116527560Y-121835000D01*
X116527560Y-123785000D01*
X116571838Y-124020317D01*
X116710910Y-124236441D01*
X116744681Y-124259516D01*
X116772852Y-124401139D01*
X116937599Y-124647701D01*
X117184161Y-124812448D01*
X117475000Y-124870300D01*
X119213500Y-124870300D01*
X119255000Y-124862045D01*
X119255000Y-132122573D01*
X119055559Y-132250910D01*
X118999626Y-132332770D01*
X118955090Y-132263559D01*
X118742890Y-132118569D01*
X118491000Y-132067560D01*
X116967000Y-132067560D01*
X116731683Y-132111838D01*
X116515559Y-132250910D01*
X116370569Y-132463110D01*
X116319560Y-132715000D01*
X116319560Y-142800000D01*
X116280000Y-142800000D01*
X116280000Y-132080000D01*
X116225954Y-131808295D01*
X116072046Y-131577954D01*
X115841705Y-131424046D01*
X115570000Y-131370000D01*
X105479931Y-131370000D01*
X105201019Y-131314521D01*
X105023856Y-131196145D01*
X104905478Y-131018979D01*
X104850000Y-130740070D01*
X104850000Y-112435000D01*
X116527560Y-112435000D01*
X116527560Y-114385000D01*
X116571838Y-114620317D01*
X116710910Y-114836441D01*
X116744681Y-114859516D01*
X116772852Y-115001139D01*
X116937599Y-115247701D01*
X117184161Y-115412448D01*
X117475000Y-115470300D01*
X123032000Y-115470300D01*
X123322839Y-115412448D01*
X123569401Y-115247701D01*
X123717801Y-115099301D01*
X123740809Y-115064867D01*
X136311238Y-115064867D01*
X136453283Y-115408643D01*
X136716073Y-115671892D01*
X137059601Y-115814538D01*
X137431567Y-115814862D01*
X137775343Y-115672817D01*
X138023806Y-115424787D01*
X138085839Y-115412448D01*
X138332401Y-115247701D01*
X138497148Y-115001139D01*
X138502509Y-114974188D01*
X138513110Y-114981431D01*
X138765000Y-115032440D01*
X139365000Y-115032440D01*
X139600317Y-114988162D01*
X139699528Y-114924322D01*
X139783110Y-114981431D01*
X140035000Y-115032440D01*
X140635000Y-115032440D01*
X140870317Y-114988162D01*
X140969528Y-114924322D01*
X141053110Y-114981431D01*
X141305000Y-115032440D01*
X141905000Y-115032440D01*
X142140317Y-114988162D01*
X142239528Y-114924322D01*
X142323110Y-114981431D01*
X142575000Y-115032440D01*
X143175000Y-115032440D01*
X143410317Y-114988162D01*
X143509528Y-114924322D01*
X143593110Y-114981431D01*
X143845000Y-115032440D01*
X144445000Y-115032440D01*
X144680317Y-114988162D01*
X144779528Y-114924322D01*
X144863110Y-114981431D01*
X145115000Y-115032440D01*
X145715000Y-115032440D01*
X145950317Y-114988162D01*
X146049528Y-114924322D01*
X146133110Y-114981431D01*
X146385000Y-115032440D01*
X146985000Y-115032440D01*
X147220317Y-114988162D01*
X147319528Y-114924322D01*
X147403110Y-114981431D01*
X147655000Y-115032440D01*
X148255000Y-115032440D01*
X148490317Y-114988162D01*
X148580980Y-114929822D01*
X148798690Y-115020000D01*
X148939250Y-115020000D01*
X149098000Y-114861250D01*
X149098000Y-113537000D01*
X149352000Y-113537000D01*
X149352000Y-114861250D01*
X149510750Y-115020000D01*
X149651310Y-115020000D01*
X149884699Y-114923327D01*
X150063327Y-114744698D01*
X150160000Y-114511309D01*
X150160000Y-113695750D01*
X150001250Y-113537000D01*
X149352000Y-113537000D01*
X149098000Y-113537000D01*
X149078000Y-113537000D01*
X149078000Y-113283000D01*
X149098000Y-113283000D01*
X149098000Y-111958750D01*
X149352000Y-111958750D01*
X149352000Y-113283000D01*
X150001250Y-113283000D01*
X150160000Y-113124250D01*
X150160000Y-112308691D01*
X150063327Y-112075302D01*
X149884699Y-111896673D01*
X149651310Y-111800000D01*
X149510750Y-111800000D01*
X149352000Y-111958750D01*
X149098000Y-111958750D01*
X148939250Y-111800000D01*
X148798690Y-111800000D01*
X148581878Y-111889806D01*
X148506890Y-111838569D01*
X148255000Y-111787560D01*
X147655000Y-111787560D01*
X147419683Y-111831838D01*
X147320472Y-111895678D01*
X147236890Y-111838569D01*
X146985000Y-111787560D01*
X146385000Y-111787560D01*
X146149683Y-111831838D01*
X146050472Y-111895678D01*
X145966890Y-111838569D01*
X145715000Y-111787560D01*
X145115000Y-111787560D01*
X144879683Y-111831838D01*
X144780472Y-111895678D01*
X144696890Y-111838569D01*
X144445000Y-111787560D01*
X143845000Y-111787560D01*
X143609683Y-111831838D01*
X143510472Y-111895678D01*
X143426890Y-111838569D01*
X143175000Y-111787560D01*
X142575000Y-111787560D01*
X142339683Y-111831838D01*
X142240472Y-111895678D01*
X142156890Y-111838569D01*
X141905000Y-111787560D01*
X141305000Y-111787560D01*
X141069683Y-111831838D01*
X140970472Y-111895678D01*
X140886890Y-111838569D01*
X140635000Y-111787560D01*
X140035000Y-111787560D01*
X139799683Y-111831838D01*
X139700472Y-111895678D01*
X139616890Y-111838569D01*
X139365000Y-111787560D01*
X138765000Y-111787560D01*
X138529683Y-111831838D01*
X138430472Y-111895678D01*
X138346890Y-111838569D01*
X138095000Y-111787560D01*
X137495000Y-111787560D01*
X137259683Y-111831838D01*
X137043559Y-111970910D01*
X136898569Y-112183110D01*
X136847560Y-112435000D01*
X136847560Y-114032826D01*
X136717457Y-114086583D01*
X136454208Y-114349373D01*
X136311562Y-114692901D01*
X136311238Y-115064867D01*
X123740809Y-115064867D01*
X123762476Y-115032440D01*
X124125000Y-115032440D01*
X124360317Y-114988162D01*
X124459528Y-114924322D01*
X124543110Y-114981431D01*
X124795000Y-115032440D01*
X125395000Y-115032440D01*
X125630317Y-114988162D01*
X125729528Y-114924322D01*
X125813110Y-114981431D01*
X126065000Y-115032440D01*
X126665000Y-115032440D01*
X126900317Y-114988162D01*
X126999528Y-114924322D01*
X127083110Y-114981431D01*
X127335000Y-115032440D01*
X127935000Y-115032440D01*
X128170317Y-114988162D01*
X128260980Y-114929822D01*
X128478690Y-115020000D01*
X128619250Y-115020000D01*
X128778000Y-114861250D01*
X128778000Y-113537000D01*
X129032000Y-113537000D01*
X129032000Y-114861250D01*
X129190750Y-115020000D01*
X129331310Y-115020000D01*
X129564699Y-114923327D01*
X129743327Y-114744698D01*
X129840000Y-114511309D01*
X129840000Y-113695750D01*
X129681250Y-113537000D01*
X129032000Y-113537000D01*
X128778000Y-113537000D01*
X128758000Y-113537000D01*
X128758000Y-113283000D01*
X128778000Y-113283000D01*
X128778000Y-113263000D01*
X129032000Y-113263000D01*
X129032000Y-113283000D01*
X129681250Y-113283000D01*
X129840000Y-113124250D01*
X129840000Y-112308691D01*
X129743327Y-112075302D01*
X129564699Y-111896673D01*
X129409015Y-111832187D01*
X137490880Y-103750322D01*
X137536367Y-103750362D01*
X137880143Y-103608317D01*
X138143392Y-103345527D01*
X138286038Y-103001999D01*
X138286362Y-102630033D01*
X138144317Y-102286257D01*
X137881527Y-102023008D01*
X137537999Y-101880362D01*
X137166033Y-101880038D01*
X136822257Y-102022083D01*
X136559008Y-102284873D01*
X136416362Y-102628401D01*
X136416321Y-102675277D01*
X136189000Y-102902598D01*
X136189000Y-101577763D01*
X136221192Y-101545627D01*
X136363838Y-101202099D01*
X136364162Y-100830133D01*
X136222117Y-100486357D01*
X136172824Y-100436978D01*
X136821680Y-99788122D01*
X136867167Y-99788162D01*
X137210943Y-99646117D01*
X137474192Y-99383327D01*
X137616838Y-99039799D01*
X137616885Y-98985300D01*
X140859098Y-98985300D01*
X142063878Y-100190080D01*
X142063838Y-100235567D01*
X142205883Y-100579343D01*
X142468673Y-100842592D01*
X142812201Y-100985238D01*
X143184167Y-100985562D01*
X143527943Y-100843517D01*
X143791192Y-100580727D01*
X143933838Y-100237199D01*
X143934162Y-99865233D01*
X143792117Y-99521457D01*
X143529327Y-99258208D01*
X143185799Y-99115562D01*
X143138923Y-99115521D01*
X141711301Y-97687899D01*
X141464739Y-97523152D01*
X141173900Y-97465300D01*
X135550702Y-97465300D01*
X136323700Y-96692302D01*
X136532101Y-96778838D01*
X136904067Y-96779162D01*
X137247843Y-96637117D01*
X137511092Y-96374327D01*
X137653738Y-96030799D01*
X137654062Y-95658833D01*
X137512017Y-95315057D01*
X137249227Y-95051808D01*
X136905699Y-94909162D01*
X136533733Y-94908838D01*
X136189957Y-95050883D01*
X136156782Y-95084000D01*
X136097200Y-95084000D01*
X135806361Y-95141852D01*
X135559799Y-95306599D01*
X120775000Y-110091398D01*
X120775000Y-109277402D01*
X129652980Y-100399422D01*
X129698467Y-100399462D01*
X130042243Y-100257417D01*
X130305492Y-99994627D01*
X130448138Y-99651099D01*
X130448462Y-99279133D01*
X130306417Y-98935357D01*
X130086173Y-98714729D01*
X134282480Y-94518422D01*
X134327967Y-94518462D01*
X134671743Y-94376417D01*
X134934992Y-94113627D01*
X135077638Y-93770099D01*
X135077962Y-93398133D01*
X134935917Y-93054357D01*
X134673127Y-92791108D01*
X134329599Y-92648462D01*
X133957633Y-92648138D01*
X133613857Y-92790183D01*
X133350608Y-93052973D01*
X133207962Y-93396501D01*
X133207921Y-93443377D01*
X118207599Y-108443699D01*
X118042852Y-108690261D01*
X117985000Y-108981100D01*
X117985000Y-111830086D01*
X117775000Y-111787560D01*
X117175000Y-111787560D01*
X116939683Y-111831838D01*
X116723559Y-111970910D01*
X116578569Y-112183110D01*
X116527560Y-112435000D01*
X104850000Y-112435000D01*
X104850000Y-75289027D01*
X106495032Y-75289027D01*
X106743179Y-75818490D01*
X107175053Y-76212688D01*
X107590974Y-76384958D01*
X107823000Y-76263817D01*
X107823000Y-75057000D01*
X106615531Y-75057000D01*
X106495032Y-75289027D01*
X104850000Y-75289027D01*
X104850000Y-69919930D01*
X104905478Y-69641021D01*
X105023856Y-69463855D01*
X105201019Y-69345479D01*
X105479931Y-69290000D01*
X184080070Y-69290000D01*
X184358979Y-69345478D01*
X184358979Y-69345478D01*
G37*
X184358979Y-69345478D02*
X184536145Y-69463856D01*
X184654521Y-69641019D01*
X184710000Y-69919931D01*
X184710000Y-130740069D01*
X184654521Y-131018981D01*
X184536145Y-131196144D01*
X184358979Y-131314522D01*
X184080070Y-131370000D01*
X180340000Y-131370000D01*
X180068295Y-131424046D01*
X179837954Y-131577954D01*
X179684046Y-131808295D01*
X179630000Y-132080000D01*
X179630000Y-132101825D01*
X179577310Y-132080000D01*
X178974750Y-132080000D01*
X178816000Y-132238750D01*
X178816000Y-137668000D01*
X178836000Y-137668000D01*
X178836000Y-137922000D01*
X178816000Y-137922000D01*
X178816000Y-137942000D01*
X178562000Y-137942000D01*
X178562000Y-137922000D01*
X178542000Y-137922000D01*
X178542000Y-137668000D01*
X178562000Y-137668000D01*
X178562000Y-132238750D01*
X178403250Y-132080000D01*
X177800690Y-132080000D01*
X177567301Y-132176673D01*
X177416329Y-132327646D01*
X177375090Y-132263559D01*
X177162890Y-132118569D01*
X176911000Y-132067560D01*
X176909000Y-132067560D01*
X176909000Y-127074800D01*
X176851148Y-126783961D01*
X176686401Y-126537399D01*
X174297622Y-124148620D01*
X174297662Y-124103133D01*
X174155617Y-123759357D01*
X173892827Y-123496108D01*
X173549299Y-123353462D01*
X173177333Y-123353138D01*
X172833557Y-123495183D01*
X172570308Y-123757973D01*
X172427662Y-124101501D01*
X172427338Y-124473467D01*
X172569383Y-124817243D01*
X172832173Y-125080492D01*
X173175701Y-125223138D01*
X173222577Y-125223179D01*
X175389000Y-127389602D01*
X175389000Y-129602398D01*
X170137785Y-124351183D01*
X170296441Y-124249090D01*
X170441431Y-124036890D01*
X170492440Y-123785000D01*
X170492440Y-121835000D01*
X170448162Y-121599683D01*
X170309090Y-121383559D01*
X170096890Y-121238569D01*
X169845000Y-121187560D01*
X169245000Y-121187560D01*
X169009683Y-121231838D01*
X168910472Y-121295678D01*
X168826890Y-121238569D01*
X168575000Y-121187560D01*
X167975000Y-121187560D01*
X167739683Y-121231838D01*
X167640472Y-121295678D01*
X167556890Y-121238569D01*
X167305000Y-121187560D01*
X166705000Y-121187560D01*
X166469683Y-121231838D01*
X166443128Y-121248926D01*
X166437148Y-121218861D01*
X166272401Y-120972299D01*
X166025839Y-120807552D01*
X165735000Y-120749700D01*
X162716500Y-120749700D01*
X162425661Y-120807552D01*
X162179099Y-120972299D01*
X162032199Y-121119199D01*
X161986522Y-121187560D01*
X161625000Y-121187560D01*
X161389683Y-121231838D01*
X161290472Y-121295678D01*
X161206890Y-121238569D01*
X160955000Y-121187560D01*
X160355000Y-121187560D01*
X160145000Y-121227074D01*
X160145000Y-115400800D01*
X160087148Y-115109961D01*
X159980072Y-114949710D01*
X160019528Y-114924322D01*
X160103110Y-114981431D01*
X160355000Y-115032440D01*
X160955000Y-115032440D01*
X161190317Y-114988162D01*
X161289528Y-114924322D01*
X161373110Y-114981431D01*
X161625000Y-115032440D01*
X162225000Y-115032440D01*
X162460317Y-114988162D01*
X162559528Y-114924322D01*
X162643110Y-114981431D01*
X162895000Y-115032440D01*
X163495000Y-115032440D01*
X163730317Y-114988162D01*
X163829528Y-114924322D01*
X163913110Y-114981431D01*
X164165000Y-115032440D01*
X164765000Y-115032440D01*
X165000317Y-114988162D01*
X165099528Y-114924322D01*
X165183110Y-114981431D01*
X165435000Y-115032440D01*
X166035000Y-115032440D01*
X166270317Y-114988162D01*
X166369528Y-114924322D01*
X166453110Y-114981431D01*
X166705000Y-115032440D01*
X167305000Y-115032440D01*
X167540317Y-114988162D01*
X167639528Y-114924322D01*
X167723110Y-114981431D01*
X167975000Y-115032440D01*
X168575000Y-115032440D01*
X168810317Y-114988162D01*
X168900980Y-114929822D01*
X169118690Y-115020000D01*
X169259250Y-115020000D01*
X169418000Y-114861250D01*
X169418000Y-113537000D01*
X169672000Y-113537000D01*
X169672000Y-114861250D01*
X169830750Y-115020000D01*
X169971310Y-115020000D01*
X170204699Y-114923327D01*
X170383327Y-114744698D01*
X170480000Y-114511309D01*
X170480000Y-113695750D01*
X170321250Y-113537000D01*
X169672000Y-113537000D01*
X169418000Y-113537000D01*
X169398000Y-113537000D01*
X169398000Y-113283000D01*
X169418000Y-113283000D01*
X169418000Y-111958750D01*
X169672000Y-111958750D01*
X169672000Y-113283000D01*
X170321250Y-113283000D01*
X170480000Y-113124250D01*
X170480000Y-112308691D01*
X170383327Y-112075302D01*
X170204699Y-111896673D01*
X169971310Y-111800000D01*
X169830750Y-111800000D01*
X169672000Y-111958750D01*
X169418000Y-111958750D01*
X169259250Y-111800000D01*
X169118690Y-111800000D01*
X168984456Y-111855602D01*
X168977148Y-111818861D01*
X168812401Y-111572299D01*
X168159101Y-110918999D01*
X167912539Y-110754252D01*
X167717101Y-110715377D01*
X167717162Y-110645033D01*
X167575117Y-110301257D01*
X167312327Y-110038008D01*
X166968799Y-109895362D01*
X166921923Y-109895321D01*
X159239628Y-102213026D01*
X178986642Y-102213026D01*
X178989291Y-102228791D01*
X179243268Y-102756036D01*
X179679680Y-103145954D01*
X180232087Y-103339184D01*
X180467000Y-103194924D01*
X180467000Y-101981000D01*
X180721000Y-101981000D01*
X180721000Y-103194924D01*
X180955913Y-103339184D01*
X181508320Y-103145954D01*
X181944732Y-102756036D01*
X182198709Y-102228791D01*
X182201358Y-102213026D01*
X182080217Y-101981000D01*
X180721000Y-101981000D01*
X180467000Y-101981000D01*
X179107783Y-101981000D01*
X178986642Y-102213026D01*
X159239628Y-102213026D01*
X151595701Y-94569099D01*
X151349139Y-94404352D01*
X151058300Y-94346500D01*
X149796963Y-94346500D01*
X149764827Y-94314308D01*
X149421299Y-94171662D01*
X149049333Y-94171338D01*
X148705557Y-94313383D01*
X148442308Y-94576173D01*
X148414200Y-94643864D01*
X148414200Y-80648002D01*
X152869800Y-76192402D01*
X153096511Y-76343885D01*
X153670000Y-76457959D01*
X154243489Y-76343885D01*
X154729670Y-76019029D01*
X154738805Y-76005358D01*
X154743238Y-76028917D01*
X154882310Y-76245041D01*
X155094510Y-76390031D01*
X155346400Y-76441040D01*
X157073600Y-76441040D01*
X157308917Y-76396762D01*
X157525041Y-76257690D01*
X157670031Y-76045490D01*
X157721040Y-75793600D01*
X157721040Y-75690000D01*
X176976560Y-75690000D01*
X176976560Y-75761000D01*
X177020838Y-75996317D01*
X177159910Y-76212441D01*
X177372110Y-76357431D01*
X177530055Y-76389416D01*
X177686599Y-76623701D01*
X181185000Y-80122102D01*
X181185000Y-85102960D01*
X179578000Y-85102960D01*
X179342683Y-85147238D01*
X179126559Y-85286310D01*
X178981569Y-85498510D01*
X178930560Y-85750400D01*
X178930560Y-87477600D01*
X178974838Y-87712917D01*
X179113910Y-87929041D01*
X179326110Y-88074031D01*
X179420927Y-88093232D01*
X179243268Y-88251964D01*
X178989291Y-88779209D01*
X178986642Y-88794974D01*
X179107783Y-89027000D01*
X180467000Y-89027000D01*
X180467000Y-89007000D01*
X180721000Y-89007000D01*
X180721000Y-89027000D01*
X180741000Y-89027000D01*
X180741000Y-89281000D01*
X180721000Y-89281000D01*
X180721000Y-89301000D01*
X180467000Y-89301000D01*
X180467000Y-89281000D01*
X179107783Y-89281000D01*
X178986642Y-89513026D01*
X178989291Y-89528791D01*
X179243268Y-90056036D01*
X179659069Y-90427539D01*
X179349585Y-90634330D01*
X179024729Y-91120511D01*
X178910655Y-91694000D01*
X179024729Y-92267489D01*
X179349585Y-92753670D01*
X179664366Y-92964000D01*
X179349585Y-93174330D01*
X179024729Y-93660511D01*
X178910655Y-94234000D01*
X179024729Y-94807489D01*
X179349585Y-95293670D01*
X179664366Y-95504000D01*
X179349585Y-95714330D01*
X179024729Y-96200511D01*
X178910655Y-96774000D01*
X179024729Y-97347489D01*
X179349585Y-97833670D01*
X179664366Y-98044000D01*
X179349585Y-98254330D01*
X179024729Y-98740511D01*
X178910655Y-99314000D01*
X179024729Y-99887489D01*
X179349585Y-100373670D01*
X179659069Y-100580461D01*
X179243268Y-100951964D01*
X178989291Y-101479209D01*
X178986642Y-101494974D01*
X179107783Y-101727000D01*
X180467000Y-101727000D01*
X180467000Y-101707000D01*
X180721000Y-101707000D01*
X180721000Y-101727000D01*
X182080217Y-101727000D01*
X182201358Y-101494974D01*
X182198709Y-101479209D01*
X181944732Y-100951964D01*
X181528931Y-100580461D01*
X181838415Y-100373670D01*
X182163271Y-99887489D01*
X182277345Y-99314000D01*
X182163271Y-98740511D01*
X181838415Y-98254330D01*
X181523634Y-98044000D01*
X181838415Y-97833670D01*
X182163271Y-97347489D01*
X182277345Y-96774000D01*
X182163271Y-96200511D01*
X181838415Y-95714330D01*
X181523634Y-95504000D01*
X181838415Y-95293670D01*
X182163271Y-94807489D01*
X182277345Y-94234000D01*
X182163271Y-93660511D01*
X181927038Y-93306964D01*
X182482401Y-92751601D01*
X182647148Y-92505039D01*
X182705000Y-92214200D01*
X182705000Y-79807300D01*
X182647148Y-79516461D01*
X182482401Y-79269899D01*
X179565237Y-76352735D01*
X179572110Y-76357431D01*
X179824000Y-76408440D01*
X181024000Y-76408440D01*
X181259317Y-76364162D01*
X181475441Y-76225090D01*
X181580726Y-76071000D01*
X181778195Y-76071000D01*
X181788401Y-76075238D01*
X182160367Y-76075562D01*
X182504143Y-75933517D01*
X182767392Y-75670727D01*
X182910038Y-75327199D01*
X182910362Y-74955233D01*
X182768317Y-74611457D01*
X182540683Y-74383425D01*
X182776292Y-74148227D01*
X182918938Y-73804699D01*
X182919262Y-73432733D01*
X182777217Y-73088957D01*
X182550166Y-72861510D01*
X182746992Y-72665027D01*
X182889638Y-72321499D01*
X182889962Y-71949533D01*
X182747917Y-71605757D01*
X182485127Y-71342508D01*
X182141599Y-71199862D01*
X181769633Y-71199538D01*
X181649926Y-71249000D01*
X181579105Y-71249000D01*
X181488090Y-71107559D01*
X181275890Y-70962569D01*
X181024000Y-70911560D01*
X179824000Y-70911560D01*
X179588683Y-70955838D01*
X179372559Y-71094910D01*
X179324866Y-71164711D01*
X179288090Y-71107559D01*
X179075890Y-70962569D01*
X178824000Y-70911560D01*
X177624000Y-70911560D01*
X177388683Y-70955838D01*
X177172559Y-71094910D01*
X177027569Y-71307110D01*
X176976560Y-71559000D01*
X176976560Y-72459000D01*
X177020838Y-72694317D01*
X177111521Y-72835242D01*
X177027569Y-72958110D01*
X176976560Y-73210000D01*
X176976560Y-74110000D01*
X176987850Y-74170000D01*
X157721040Y-74170000D01*
X157721040Y-74066400D01*
X157676762Y-73831083D01*
X157537690Y-73614959D01*
X157325490Y-73469969D01*
X157281655Y-73461092D01*
X157594526Y-72992848D01*
X157708600Y-72419359D01*
X157708600Y-72360641D01*
X157594526Y-71787152D01*
X157269670Y-71300971D01*
X156783489Y-70976115D01*
X156210000Y-70862041D01*
X155636511Y-70976115D01*
X155293326Y-71205424D01*
X154723601Y-70635699D01*
X154477039Y-70470952D01*
X154186200Y-70413100D01*
X140451800Y-70413100D01*
X140160961Y-70470952D01*
X139914399Y-70635699D01*
X139345475Y-71204623D01*
X139003489Y-70976115D01*
X138430000Y-70862041D01*
X137856511Y-70976115D01*
X137370330Y-71300971D01*
X137160000Y-71615752D01*
X136949670Y-71300971D01*
X136463489Y-70976115D01*
X135890000Y-70862041D01*
X135316511Y-70976115D01*
X134830330Y-71300971D01*
X134614336Y-71624228D01*
X134556821Y-71501510D01*
X134124947Y-71107312D01*
X133709026Y-70935042D01*
X133477000Y-71056183D01*
X133477000Y-72263000D01*
X133497000Y-72263000D01*
X133497000Y-72517000D01*
X133477000Y-72517000D01*
X133477000Y-72537000D01*
X133223000Y-72537000D01*
X133223000Y-72517000D01*
X133203000Y-72517000D01*
X133203000Y-72263000D01*
X133223000Y-72263000D01*
X133223000Y-71056183D01*
X132990974Y-70935042D01*
X132575053Y-71107312D01*
X132143179Y-71501510D01*
X132085664Y-71624228D01*
X131869670Y-71300971D01*
X131383489Y-70976115D01*
X130810000Y-70862041D01*
X130236511Y-70976115D01*
X129750330Y-71300971D01*
X129540000Y-71615752D01*
X129329670Y-71300971D01*
X128843489Y-70976115D01*
X128270000Y-70862041D01*
X127696511Y-70976115D01*
X127210330Y-71300971D01*
X127000000Y-71615752D01*
X126789670Y-71300971D01*
X126303489Y-70976115D01*
X125730000Y-70862041D01*
X125156511Y-70976115D01*
X124670330Y-71300971D01*
X124460000Y-71615752D01*
X124249670Y-71300971D01*
X123763489Y-70976115D01*
X123190000Y-70862041D01*
X122616511Y-70976115D01*
X122130330Y-71300971D01*
X121914336Y-71624228D01*
X121856821Y-71501510D01*
X121424947Y-71107312D01*
X121009026Y-70935042D01*
X120777000Y-71056183D01*
X120777000Y-72263000D01*
X120797000Y-72263000D01*
X120797000Y-72517000D01*
X120777000Y-72517000D01*
X120777000Y-72537000D01*
X120523000Y-72537000D01*
X120523000Y-72517000D01*
X120503000Y-72517000D01*
X120503000Y-72263000D01*
X120523000Y-72263000D01*
X120523000Y-71056183D01*
X120290974Y-70935042D01*
X119875053Y-71107312D01*
X119443179Y-71501510D01*
X119385664Y-71624228D01*
X119169670Y-71300971D01*
X118683489Y-70976115D01*
X118110000Y-70862041D01*
X117536511Y-70976115D01*
X117050330Y-71300971D01*
X116834336Y-71624228D01*
X116776821Y-71501510D01*
X116344947Y-71107312D01*
X115929026Y-70935042D01*
X115697000Y-71056183D01*
X115697000Y-72263000D01*
X115717000Y-72263000D01*
X115717000Y-72517000D01*
X115697000Y-72517000D01*
X115697000Y-72537000D01*
X115443000Y-72537000D01*
X115443000Y-72517000D01*
X115423000Y-72517000D01*
X115423000Y-72263000D01*
X115443000Y-72263000D01*
X115443000Y-71056183D01*
X115210974Y-70935042D01*
X114795053Y-71107312D01*
X114363179Y-71501510D01*
X114305664Y-71624228D01*
X114089670Y-71300971D01*
X113603489Y-70976115D01*
X113030000Y-70862041D01*
X112456511Y-70976115D01*
X111970330Y-71300971D01*
X111760000Y-71615752D01*
X111549670Y-71300971D01*
X111063489Y-70976115D01*
X110490000Y-70862041D01*
X109916511Y-70976115D01*
X109430330Y-71300971D01*
X109220000Y-71615752D01*
X109009670Y-71300971D01*
X108523489Y-70976115D01*
X107950000Y-70862041D01*
X107376511Y-70976115D01*
X106890330Y-71300971D01*
X106565474Y-71787152D01*
X106451400Y-72360641D01*
X106451400Y-72419359D01*
X106565474Y-72992848D01*
X106890330Y-73479029D01*
X107161161Y-73659992D01*
X106743179Y-74041510D01*
X106495032Y-74570973D01*
X106615531Y-74803000D01*
X107823000Y-74803000D01*
X107823000Y-74783000D01*
X108077000Y-74783000D01*
X108077000Y-74803000D01*
X108097000Y-74803000D01*
X108097000Y-75057000D01*
X108077000Y-75057000D01*
X108077000Y-76263817D01*
X108309026Y-76384958D01*
X108724947Y-76212688D01*
X109156821Y-75818490D01*
X109214336Y-75695772D01*
X109430330Y-76019029D01*
X109916511Y-76343885D01*
X110490000Y-76457959D01*
X111063489Y-76343885D01*
X111549670Y-76019029D01*
X111760000Y-75704248D01*
X111970330Y-76019029D01*
X112456511Y-76343885D01*
X113030000Y-76457959D01*
X113603489Y-76343885D01*
X113952968Y-76110370D01*
X126593299Y-88750701D01*
X126839861Y-88915448D01*
X127130700Y-88973300D01*
X127509637Y-88973300D01*
X127541773Y-89005492D01*
X127885301Y-89148138D01*
X128257267Y-89148462D01*
X128601043Y-89006417D01*
X128864292Y-88743627D01*
X129006938Y-88400099D01*
X129007262Y-88028133D01*
X128974565Y-87949000D01*
X129038737Y-87949000D01*
X129070873Y-87981192D01*
X129414401Y-88123838D01*
X129786367Y-88124162D01*
X130130143Y-87982117D01*
X130393392Y-87719327D01*
X130536038Y-87375799D01*
X130536362Y-87003833D01*
X130394317Y-86660057D01*
X130131527Y-86396808D01*
X129787999Y-86254162D01*
X129416033Y-86253838D01*
X129072257Y-86395883D01*
X129039082Y-86429000D01*
X128961202Y-86429000D01*
X118798943Y-76266741D01*
X119169670Y-76019029D01*
X119380000Y-75704248D01*
X119590330Y-76019029D01*
X120076511Y-76343885D01*
X120650000Y-76457959D01*
X121223489Y-76343885D01*
X121572968Y-76110370D01*
X133435699Y-87973101D01*
X133682260Y-88137848D01*
X133973100Y-88195700D01*
X137213137Y-88195700D01*
X137245273Y-88227892D01*
X137588801Y-88370538D01*
X137960767Y-88370862D01*
X138304543Y-88228817D01*
X138557089Y-87976711D01*
X138792861Y-88134248D01*
X139083700Y-88192100D01*
X139982137Y-88192100D01*
X140014273Y-88224292D01*
X140299126Y-88342574D01*
X140249162Y-88462901D01*
X140249121Y-88509777D01*
X137782084Y-90976814D01*
X137464733Y-90976538D01*
X137120957Y-91118583D01*
X136857708Y-91381373D01*
X136715062Y-91724901D01*
X136714738Y-92096867D01*
X136856783Y-92440643D01*
X136958900Y-92542938D01*
X136958900Y-92919037D01*
X136926708Y-92951173D01*
X136784062Y-93294701D01*
X136783738Y-93666667D01*
X136925783Y-94010443D01*
X137188573Y-94273692D01*
X137532101Y-94416338D01*
X137904067Y-94416662D01*
X138247843Y-94274617D01*
X138511092Y-94011827D01*
X138653738Y-93668299D01*
X138654062Y-93296333D01*
X138512017Y-92952557D01*
X138478900Y-92919382D01*
X138478900Y-92429602D01*
X141323680Y-89584822D01*
X141369167Y-89584862D01*
X141712943Y-89442817D01*
X141976192Y-89180027D01*
X142118838Y-88836499D01*
X142119162Y-88464533D01*
X141977117Y-88120757D01*
X141944000Y-88087582D01*
X141944000Y-80814700D01*
X141886148Y-80523861D01*
X141721401Y-80277299D01*
X137838900Y-76394798D01*
X137838900Y-76332118D01*
X137856511Y-76343885D01*
X138430000Y-76457959D01*
X139003489Y-76343885D01*
X139489670Y-76019029D01*
X139700000Y-75704248D01*
X139910330Y-76019029D01*
X140396511Y-76343885D01*
X140970000Y-76457959D01*
X141543489Y-76343885D01*
X142029670Y-76019029D01*
X142240000Y-75704248D01*
X142450330Y-76019029D01*
X142936511Y-76343885D01*
X143510000Y-76457959D01*
X144083489Y-76343885D01*
X144569670Y-76019029D01*
X144785664Y-75695772D01*
X144843179Y-75818490D01*
X145275053Y-76212688D01*
X145690974Y-76384958D01*
X145923000Y-76263817D01*
X145923000Y-75057000D01*
X145903000Y-75057000D01*
X145903000Y-74803000D01*
X145923000Y-74803000D01*
X145923000Y-74783000D01*
X146177000Y-74783000D01*
X146177000Y-74803000D01*
X146197000Y-74803000D01*
X146197000Y-75057000D01*
X146177000Y-75057000D01*
X146177000Y-76263817D01*
X146409026Y-76384958D01*
X146824947Y-76212688D01*
X147256821Y-75818490D01*
X147314336Y-75695772D01*
X147530330Y-76019029D01*
X148016511Y-76343885D01*
X148590000Y-76457959D01*
X149163489Y-76343885D01*
X149649670Y-76019029D01*
X149860000Y-75704248D01*
X150070330Y-76019029D01*
X150556511Y-76343885D01*
X150566689Y-76345909D01*
X147116799Y-79795799D01*
X146952052Y-80042361D01*
X146894200Y-80333200D01*
X146894200Y-103760200D01*
X146952052Y-104051039D01*
X147116799Y-104297601D01*
X157167560Y-114348362D01*
X157167560Y-114385000D01*
X157211838Y-114620317D01*
X157350910Y-114836441D01*
X157355000Y-114839236D01*
X157355000Y-120749700D01*
X143710200Y-120749700D01*
X143419361Y-120807552D01*
X143172799Y-120972299D01*
X142982199Y-121162899D01*
X142965721Y-121187560D01*
X142575000Y-121187560D01*
X142339683Y-121231838D01*
X142240472Y-121295678D01*
X142156890Y-121238569D01*
X141905000Y-121187560D01*
X141305000Y-121187560D01*
X141069683Y-121231838D01*
X140970472Y-121295678D01*
X140886890Y-121238569D01*
X140635000Y-121187560D01*
X140035000Y-121187560D01*
X139799683Y-121231838D01*
X139709020Y-121290178D01*
X139491310Y-121200000D01*
X139350750Y-121200000D01*
X139192000Y-121358750D01*
X139192000Y-122683000D01*
X139212000Y-122683000D01*
X139212000Y-122937000D01*
X139192000Y-122937000D01*
X139192000Y-122957000D01*
X138938000Y-122957000D01*
X138938000Y-122937000D01*
X138918000Y-122937000D01*
X138918000Y-122683000D01*
X138938000Y-122683000D01*
X138938000Y-121358750D01*
X138779250Y-121200000D01*
X138730093Y-121200000D01*
X138730162Y-121120533D01*
X138588117Y-120776757D01*
X138325327Y-120513508D01*
X137981799Y-120370862D01*
X137609833Y-120370538D01*
X137266057Y-120512583D01*
X137232882Y-120545700D01*
X119737900Y-120545700D01*
X119447061Y-120603552D01*
X119200499Y-120768299D01*
X118844599Y-121124199D01*
X118679852Y-121370761D01*
X118622000Y-121661600D01*
X118622000Y-122957000D01*
X118618000Y-122957000D01*
X118618000Y-122937000D01*
X118598000Y-122937000D01*
X118598000Y-122683000D01*
X118618000Y-122683000D01*
X118618000Y-121358750D01*
X118459250Y-121200000D01*
X118318690Y-121200000D01*
X118101878Y-121289806D01*
X118026890Y-121238569D01*
X117775000Y-121187560D01*
X117175000Y-121187560D01*
X116939683Y-121231838D01*
X116723559Y-121370910D01*
X116578569Y-121583110D01*
X116527560Y-121835000D01*
X116527560Y-123785000D01*
X116571838Y-124020317D01*
X116710910Y-124236441D01*
X116744681Y-124259516D01*
X116772852Y-124401139D01*
X116937599Y-124647701D01*
X117184161Y-124812448D01*
X117475000Y-124870300D01*
X119213500Y-124870300D01*
X119255000Y-124862045D01*
X119255000Y-132122573D01*
X119055559Y-132250910D01*
X118999626Y-132332770D01*
X118955090Y-132263559D01*
X118742890Y-132118569D01*
X118491000Y-132067560D01*
X116967000Y-132067560D01*
X116731683Y-132111838D01*
X116515559Y-132250910D01*
X116370569Y-132463110D01*
X116319560Y-132715000D01*
X116319560Y-142800000D01*
X116280000Y-142800000D01*
X116280000Y-132080000D01*
X116225954Y-131808295D01*
X116072046Y-131577954D01*
X115841705Y-131424046D01*
X115570000Y-131370000D01*
X105479931Y-131370000D01*
X105201019Y-131314521D01*
X105023856Y-131196145D01*
X104905478Y-131018979D01*
X104850000Y-130740070D01*
X104850000Y-112435000D01*
X116527560Y-112435000D01*
X116527560Y-114385000D01*
X116571838Y-114620317D01*
X116710910Y-114836441D01*
X116744681Y-114859516D01*
X116772852Y-115001139D01*
X116937599Y-115247701D01*
X117184161Y-115412448D01*
X117475000Y-115470300D01*
X123032000Y-115470300D01*
X123322839Y-115412448D01*
X123569401Y-115247701D01*
X123717801Y-115099301D01*
X123740809Y-115064867D01*
X136311238Y-115064867D01*
X136453283Y-115408643D01*
X136716073Y-115671892D01*
X137059601Y-115814538D01*
X137431567Y-115814862D01*
X137775343Y-115672817D01*
X138023806Y-115424787D01*
X138085839Y-115412448D01*
X138332401Y-115247701D01*
X138497148Y-115001139D01*
X138502509Y-114974188D01*
X138513110Y-114981431D01*
X138765000Y-115032440D01*
X139365000Y-115032440D01*
X139600317Y-114988162D01*
X139699528Y-114924322D01*
X139783110Y-114981431D01*
X140035000Y-115032440D01*
X140635000Y-115032440D01*
X140870317Y-114988162D01*
X140969528Y-114924322D01*
X141053110Y-114981431D01*
X141305000Y-115032440D01*
X141905000Y-115032440D01*
X142140317Y-114988162D01*
X142239528Y-114924322D01*
X142323110Y-114981431D01*
X142575000Y-115032440D01*
X143175000Y-115032440D01*
X143410317Y-114988162D01*
X143509528Y-114924322D01*
X143593110Y-114981431D01*
X143845000Y-115032440D01*
X144445000Y-115032440D01*
X144680317Y-114988162D01*
X144779528Y-114924322D01*
X144863110Y-114981431D01*
X145115000Y-115032440D01*
X145715000Y-115032440D01*
X145950317Y-114988162D01*
X146049528Y-114924322D01*
X146133110Y-114981431D01*
X146385000Y-115032440D01*
X146985000Y-115032440D01*
X147220317Y-114988162D01*
X147319528Y-114924322D01*
X147403110Y-114981431D01*
X147655000Y-115032440D01*
X148255000Y-115032440D01*
X148490317Y-114988162D01*
X148580980Y-114929822D01*
X148798690Y-115020000D01*
X148939250Y-115020000D01*
X149098000Y-114861250D01*
X149098000Y-113537000D01*
X149352000Y-113537000D01*
X149352000Y-114861250D01*
X149510750Y-115020000D01*
X149651310Y-115020000D01*
X149884699Y-114923327D01*
X150063327Y-114744698D01*
X150160000Y-114511309D01*
X150160000Y-113695750D01*
X150001250Y-113537000D01*
X149352000Y-113537000D01*
X149098000Y-113537000D01*
X149078000Y-113537000D01*
X149078000Y-113283000D01*
X149098000Y-113283000D01*
X149098000Y-111958750D01*
X149352000Y-111958750D01*
X149352000Y-113283000D01*
X150001250Y-113283000D01*
X150160000Y-113124250D01*
X150160000Y-112308691D01*
X150063327Y-112075302D01*
X149884699Y-111896673D01*
X149651310Y-111800000D01*
X149510750Y-111800000D01*
X149352000Y-111958750D01*
X149098000Y-111958750D01*
X148939250Y-111800000D01*
X148798690Y-111800000D01*
X148581878Y-111889806D01*
X148506890Y-111838569D01*
X148255000Y-111787560D01*
X147655000Y-111787560D01*
X147419683Y-111831838D01*
X147320472Y-111895678D01*
X147236890Y-111838569D01*
X146985000Y-111787560D01*
X146385000Y-111787560D01*
X146149683Y-111831838D01*
X146050472Y-111895678D01*
X145966890Y-111838569D01*
X145715000Y-111787560D01*
X145115000Y-111787560D01*
X144879683Y-111831838D01*
X144780472Y-111895678D01*
X144696890Y-111838569D01*
X144445000Y-111787560D01*
X143845000Y-111787560D01*
X143609683Y-111831838D01*
X143510472Y-111895678D01*
X143426890Y-111838569D01*
X143175000Y-111787560D01*
X142575000Y-111787560D01*
X142339683Y-111831838D01*
X142240472Y-111895678D01*
X142156890Y-111838569D01*
X141905000Y-111787560D01*
X141305000Y-111787560D01*
X141069683Y-111831838D01*
X140970472Y-111895678D01*
X140886890Y-111838569D01*
X140635000Y-111787560D01*
X140035000Y-111787560D01*
X139799683Y-111831838D01*
X139700472Y-111895678D01*
X139616890Y-111838569D01*
X139365000Y-111787560D01*
X138765000Y-111787560D01*
X138529683Y-111831838D01*
X138430472Y-111895678D01*
X138346890Y-111838569D01*
X138095000Y-111787560D01*
X137495000Y-111787560D01*
X137259683Y-111831838D01*
X137043559Y-111970910D01*
X136898569Y-112183110D01*
X136847560Y-112435000D01*
X136847560Y-114032826D01*
X136717457Y-114086583D01*
X136454208Y-114349373D01*
X136311562Y-114692901D01*
X136311238Y-115064867D01*
X123740809Y-115064867D01*
X123762476Y-115032440D01*
X124125000Y-115032440D01*
X124360317Y-114988162D01*
X124459528Y-114924322D01*
X124543110Y-114981431D01*
X124795000Y-115032440D01*
X125395000Y-115032440D01*
X125630317Y-114988162D01*
X125729528Y-114924322D01*
X125813110Y-114981431D01*
X126065000Y-115032440D01*
X126665000Y-115032440D01*
X126900317Y-114988162D01*
X126999528Y-114924322D01*
X127083110Y-114981431D01*
X127335000Y-115032440D01*
X127935000Y-115032440D01*
X128170317Y-114988162D01*
X128260980Y-114929822D01*
X128478690Y-115020000D01*
X128619250Y-115020000D01*
X128778000Y-114861250D01*
X128778000Y-113537000D01*
X129032000Y-113537000D01*
X129032000Y-114861250D01*
X129190750Y-115020000D01*
X129331310Y-115020000D01*
X129564699Y-114923327D01*
X129743327Y-114744698D01*
X129840000Y-114511309D01*
X129840000Y-113695750D01*
X129681250Y-113537000D01*
X129032000Y-113537000D01*
X128778000Y-113537000D01*
X128758000Y-113537000D01*
X128758000Y-113283000D01*
X128778000Y-113283000D01*
X128778000Y-113263000D01*
X129032000Y-113263000D01*
X129032000Y-113283000D01*
X129681250Y-113283000D01*
X129840000Y-113124250D01*
X129840000Y-112308691D01*
X129743327Y-112075302D01*
X129564699Y-111896673D01*
X129409015Y-111832187D01*
X137490880Y-103750322D01*
X137536367Y-103750362D01*
X137880143Y-103608317D01*
X138143392Y-103345527D01*
X138286038Y-103001999D01*
X138286362Y-102630033D01*
X138144317Y-102286257D01*
X137881527Y-102023008D01*
X137537999Y-101880362D01*
X137166033Y-101880038D01*
X136822257Y-102022083D01*
X136559008Y-102284873D01*
X136416362Y-102628401D01*
X136416321Y-102675277D01*
X136189000Y-102902598D01*
X136189000Y-101577763D01*
X136221192Y-101545627D01*
X136363838Y-101202099D01*
X136364162Y-100830133D01*
X136222117Y-100486357D01*
X136172824Y-100436978D01*
X136821680Y-99788122D01*
X136867167Y-99788162D01*
X137210943Y-99646117D01*
X137474192Y-99383327D01*
X137616838Y-99039799D01*
X137616885Y-98985300D01*
X140859098Y-98985300D01*
X142063878Y-100190080D01*
X142063838Y-100235567D01*
X142205883Y-100579343D01*
X142468673Y-100842592D01*
X142812201Y-100985238D01*
X143184167Y-100985562D01*
X143527943Y-100843517D01*
X143791192Y-100580727D01*
X143933838Y-100237199D01*
X143934162Y-99865233D01*
X143792117Y-99521457D01*
X143529327Y-99258208D01*
X143185799Y-99115562D01*
X143138923Y-99115521D01*
X141711301Y-97687899D01*
X141464739Y-97523152D01*
X141173900Y-97465300D01*
X135550702Y-97465300D01*
X136323700Y-96692302D01*
X136532101Y-96778838D01*
X136904067Y-96779162D01*
X137247843Y-96637117D01*
X137511092Y-96374327D01*
X137653738Y-96030799D01*
X137654062Y-95658833D01*
X137512017Y-95315057D01*
X137249227Y-95051808D01*
X136905699Y-94909162D01*
X136533733Y-94908838D01*
X136189957Y-95050883D01*
X136156782Y-95084000D01*
X136097200Y-95084000D01*
X135806361Y-95141852D01*
X135559799Y-95306599D01*
X120775000Y-110091398D01*
X120775000Y-109277402D01*
X129652980Y-100399422D01*
X129698467Y-100399462D01*
X130042243Y-100257417D01*
X130305492Y-99994627D01*
X130448138Y-99651099D01*
X130448462Y-99279133D01*
X130306417Y-98935357D01*
X130086173Y-98714729D01*
X134282480Y-94518422D01*
X134327967Y-94518462D01*
X134671743Y-94376417D01*
X134934992Y-94113627D01*
X135077638Y-93770099D01*
X135077962Y-93398133D01*
X134935917Y-93054357D01*
X134673127Y-92791108D01*
X134329599Y-92648462D01*
X133957633Y-92648138D01*
X133613857Y-92790183D01*
X133350608Y-93052973D01*
X133207962Y-93396501D01*
X133207921Y-93443377D01*
X118207599Y-108443699D01*
X118042852Y-108690261D01*
X117985000Y-108981100D01*
X117985000Y-111830086D01*
X117775000Y-111787560D01*
X117175000Y-111787560D01*
X116939683Y-111831838D01*
X116723559Y-111970910D01*
X116578569Y-112183110D01*
X116527560Y-112435000D01*
X104850000Y-112435000D01*
X104850000Y-75289027D01*
X106495032Y-75289027D01*
X106743179Y-75818490D01*
X107175053Y-76212688D01*
X107590974Y-76384958D01*
X107823000Y-76263817D01*
X107823000Y-75057000D01*
X106615531Y-75057000D01*
X106495032Y-75289027D01*
X104850000Y-75289027D01*
X104850000Y-69919930D01*
X104905478Y-69641021D01*
X105023856Y-69463855D01*
X105201019Y-69345479D01*
X105479931Y-69290000D01*
X184080070Y-69290000D01*
X184358979Y-69345478D01*
G36*
X152186948Y-130266050D02*
X149580450Y-130266050D01*
X149289610Y-130323902D01*
X149043049Y-130488649D01*
X147695105Y-131836593D01*
X147671599Y-131852299D01*
X147527767Y-132067560D01*
X147447000Y-132067560D01*
X147211683Y-132111838D01*
X146995559Y-132250910D01*
X146939626Y-132332770D01*
X146895090Y-132263559D01*
X146682890Y-132118569D01*
X146431000Y-132067560D01*
X144907000Y-132067560D01*
X144671683Y-132111838D01*
X144455559Y-132250910D01*
X144399626Y-132332770D01*
X144355090Y-132263559D01*
X144142890Y-132118569D01*
X143891000Y-132067560D01*
X142367000Y-132067560D01*
X142131683Y-132111838D01*
X141915559Y-132250910D01*
X141859626Y-132332770D01*
X141815090Y-132263559D01*
X141800151Y-132253351D01*
X146973402Y-127080100D01*
X155372898Y-127080100D01*
X152186948Y-130266050D01*
X152186948Y-130266050D01*
G37*
X152186948Y-130266050D02*
X149580450Y-130266050D01*
X149289610Y-130323902D01*
X149043049Y-130488649D01*
X147695105Y-131836593D01*
X147671599Y-131852299D01*
X147527767Y-132067560D01*
X147447000Y-132067560D01*
X147211683Y-132111838D01*
X146995559Y-132250910D01*
X146939626Y-132332770D01*
X146895090Y-132263559D01*
X146682890Y-132118569D01*
X146431000Y-132067560D01*
X144907000Y-132067560D01*
X144671683Y-132111838D01*
X144455559Y-132250910D01*
X144399626Y-132332770D01*
X144355090Y-132263559D01*
X144142890Y-132118569D01*
X143891000Y-132067560D01*
X142367000Y-132067560D01*
X142131683Y-132111838D01*
X141915559Y-132250910D01*
X141859626Y-132332770D01*
X141815090Y-132263559D01*
X141800151Y-132253351D01*
X146973402Y-127080100D01*
X155372898Y-127080100D01*
X152186948Y-130266050D01*
G36*
X167984161Y-124812448D02*
X168275000Y-124870300D01*
X168507298Y-124870300D01*
X174218000Y-130581002D01*
X174218000Y-130666637D01*
X174185808Y-130698773D01*
X174043162Y-131042301D01*
X174042838Y-131414267D01*
X174184883Y-131758043D01*
X174447673Y-132021292D01*
X174791201Y-132163938D01*
X175070339Y-132164181D01*
X174935559Y-132250910D01*
X174879626Y-132332770D01*
X174835090Y-132263559D01*
X174622890Y-132118569D01*
X174371000Y-132067560D01*
X174290234Y-132067560D01*
X174146401Y-131852299D01*
X173270412Y-130976310D01*
X173336938Y-130816099D01*
X173337262Y-130444133D01*
X173195217Y-130100357D01*
X172932427Y-129837108D01*
X172588899Y-129694462D01*
X172216933Y-129694138D01*
X171873157Y-129836183D01*
X171609908Y-130098973D01*
X171467262Y-130442501D01*
X171466938Y-130814467D01*
X171608983Y-131158243D01*
X171644241Y-131193562D01*
X171699952Y-131473639D01*
X171864699Y-131720201D01*
X172395498Y-132251000D01*
X172339626Y-132332770D01*
X172295090Y-132263559D01*
X172082890Y-132118569D01*
X171831000Y-132067560D01*
X171750234Y-132067560D01*
X171606401Y-131852299D01*
X171135813Y-131381711D01*
X171189892Y-131327727D01*
X171332538Y-130984199D01*
X171332862Y-130612233D01*
X171190817Y-130268457D01*
X170928027Y-130005208D01*
X170584499Y-129862562D01*
X170537623Y-129862521D01*
X167765000Y-127089898D01*
X167765000Y-124666010D01*
X167984161Y-124812448D01*
X167984161Y-124812448D01*
G37*
X167984161Y-124812448D02*
X168275000Y-124870300D01*
X168507298Y-124870300D01*
X174218000Y-130581002D01*
X174218000Y-130666637D01*
X174185808Y-130698773D01*
X174043162Y-131042301D01*
X174042838Y-131414267D01*
X174184883Y-131758043D01*
X174447673Y-132021292D01*
X174791201Y-132163938D01*
X175070339Y-132164181D01*
X174935559Y-132250910D01*
X174879626Y-132332770D01*
X174835090Y-132263559D01*
X174622890Y-132118569D01*
X174371000Y-132067560D01*
X174290234Y-132067560D01*
X174146401Y-131852299D01*
X173270412Y-130976310D01*
X173336938Y-130816099D01*
X173337262Y-130444133D01*
X173195217Y-130100357D01*
X172932427Y-129837108D01*
X172588899Y-129694462D01*
X172216933Y-129694138D01*
X171873157Y-129836183D01*
X171609908Y-130098973D01*
X171467262Y-130442501D01*
X171466938Y-130814467D01*
X171608983Y-131158243D01*
X171644241Y-131193562D01*
X171699952Y-131473639D01*
X171864699Y-131720201D01*
X172395498Y-132251000D01*
X172339626Y-132332770D01*
X172295090Y-132263559D01*
X172082890Y-132118569D01*
X171831000Y-132067560D01*
X171750234Y-132067560D01*
X171606401Y-131852299D01*
X171135813Y-131381711D01*
X171189892Y-131327727D01*
X171332538Y-130984199D01*
X171332862Y-130612233D01*
X171190817Y-130268457D01*
X170928027Y-130005208D01*
X170584499Y-129862562D01*
X170537623Y-129862521D01*
X167765000Y-127089898D01*
X167765000Y-124666010D01*
X167984161Y-124812448D01*
G36*
X157167560Y-123785000D02*
X157211838Y-124020317D01*
X157350910Y-124236441D01*
X157563110Y-124381431D01*
X157815000Y-124432440D01*
X158415000Y-124432440D01*
X158650317Y-124388162D01*
X158749528Y-124324322D01*
X158833110Y-124381431D01*
X159085000Y-124432440D01*
X159685000Y-124432440D01*
X159895000Y-124392926D01*
X159895000Y-129211100D01*
X159952852Y-129501939D01*
X160117599Y-129748501D01*
X162476303Y-132107205D01*
X162451683Y-132111838D01*
X162235559Y-132250910D01*
X162179626Y-132332770D01*
X162135090Y-132263559D01*
X161922890Y-132118569D01*
X161671000Y-132067560D01*
X160605447Y-132067560D01*
X160727192Y-131946027D01*
X160869838Y-131602499D01*
X160870162Y-131230533D01*
X160728117Y-130886757D01*
X160465327Y-130623508D01*
X160121799Y-130480862D01*
X160074923Y-130480821D01*
X159105000Y-129510898D01*
X159105000Y-127694500D01*
X159047148Y-127403661D01*
X159047148Y-127403660D01*
X158882401Y-127157099D01*
X155298201Y-123572899D01*
X155051639Y-123408152D01*
X154760800Y-123350300D01*
X150172440Y-123350300D01*
X150172440Y-122269700D01*
X157167560Y-122269700D01*
X157167560Y-123785000D01*
X157167560Y-123785000D01*
G37*
X157167560Y-123785000D02*
X157211838Y-124020317D01*
X157350910Y-124236441D01*
X157563110Y-124381431D01*
X157815000Y-124432440D01*
X158415000Y-124432440D01*
X158650317Y-124388162D01*
X158749528Y-124324322D01*
X158833110Y-124381431D01*
X159085000Y-124432440D01*
X159685000Y-124432440D01*
X159895000Y-124392926D01*
X159895000Y-129211100D01*
X159952852Y-129501939D01*
X160117599Y-129748501D01*
X162476303Y-132107205D01*
X162451683Y-132111838D01*
X162235559Y-132250910D01*
X162179626Y-132332770D01*
X162135090Y-132263559D01*
X161922890Y-132118569D01*
X161671000Y-132067560D01*
X160605447Y-132067560D01*
X160727192Y-131946027D01*
X160869838Y-131602499D01*
X160870162Y-131230533D01*
X160728117Y-130886757D01*
X160465327Y-130623508D01*
X160121799Y-130480862D01*
X160074923Y-130480821D01*
X159105000Y-129510898D01*
X159105000Y-127694500D01*
X159047148Y-127403661D01*
X159047148Y-127403660D01*
X158882401Y-127157099D01*
X155298201Y-123572899D01*
X155051639Y-123408152D01*
X154760800Y-123350300D01*
X150172440Y-123350300D01*
X150172440Y-122269700D01*
X157167560Y-122269700D01*
X157167560Y-123785000D01*
G36*
X136847560Y-123785000D02*
X136891838Y-124020317D01*
X137030910Y-124236441D01*
X137064681Y-124259516D01*
X137092852Y-124401139D01*
X137257599Y-124647701D01*
X137504161Y-124812448D01*
X137795000Y-124870300D01*
X143369100Y-124870300D01*
X143659939Y-124812448D01*
X143906501Y-124647701D01*
X144057001Y-124497201D01*
X144100273Y-124432440D01*
X144445000Y-124432440D01*
X144680317Y-124388162D01*
X144779528Y-124324322D01*
X144863110Y-124381431D01*
X145115000Y-124432440D01*
X145715000Y-124432440D01*
X145950317Y-124388162D01*
X146049528Y-124324322D01*
X146133110Y-124381431D01*
X146385000Y-124432440D01*
X146985000Y-124432440D01*
X147220317Y-124388162D01*
X147319528Y-124324322D01*
X147403110Y-124381431D01*
X147655000Y-124432440D01*
X148255000Y-124432440D01*
X148490317Y-124388162D01*
X148516872Y-124371074D01*
X148522852Y-124401139D01*
X148687599Y-124647701D01*
X148934161Y-124812448D01*
X149225000Y-124870300D01*
X154445998Y-124870300D01*
X155135798Y-125560100D01*
X146658600Y-125560100D01*
X146367761Y-125617952D01*
X146121199Y-125782699D01*
X140051599Y-131852299D01*
X139907767Y-132067560D01*
X139827000Y-132067560D01*
X139591683Y-132111838D01*
X139375559Y-132250910D01*
X139319626Y-132332770D01*
X139275090Y-132263559D01*
X139062890Y-132118569D01*
X138811000Y-132067560D01*
X138730233Y-132067560D01*
X138586401Y-131852299D01*
X138339839Y-131687552D01*
X138049000Y-131629700D01*
X137499202Y-131629700D01*
X129819107Y-123949605D01*
X129852440Y-123785000D01*
X129852440Y-122065700D01*
X136847560Y-122065700D01*
X136847560Y-123785000D01*
X136847560Y-123785000D01*
G37*
X136847560Y-123785000D02*
X136891838Y-124020317D01*
X137030910Y-124236441D01*
X137064681Y-124259516D01*
X137092852Y-124401139D01*
X137257599Y-124647701D01*
X137504161Y-124812448D01*
X137795000Y-124870300D01*
X143369100Y-124870300D01*
X143659939Y-124812448D01*
X143906501Y-124647701D01*
X144057001Y-124497201D01*
X144100273Y-124432440D01*
X144445000Y-124432440D01*
X144680317Y-124388162D01*
X144779528Y-124324322D01*
X144863110Y-124381431D01*
X145115000Y-124432440D01*
X145715000Y-124432440D01*
X145950317Y-124388162D01*
X146049528Y-124324322D01*
X146133110Y-124381431D01*
X146385000Y-124432440D01*
X146985000Y-124432440D01*
X147220317Y-124388162D01*
X147319528Y-124324322D01*
X147403110Y-124381431D01*
X147655000Y-124432440D01*
X148255000Y-124432440D01*
X148490317Y-124388162D01*
X148516872Y-124371074D01*
X148522852Y-124401139D01*
X148687599Y-124647701D01*
X148934161Y-124812448D01*
X149225000Y-124870300D01*
X154445998Y-124870300D01*
X155135798Y-125560100D01*
X146658600Y-125560100D01*
X146367761Y-125617952D01*
X146121199Y-125782699D01*
X140051599Y-131852299D01*
X139907767Y-132067560D01*
X139827000Y-132067560D01*
X139591683Y-132111838D01*
X139375559Y-132250910D01*
X139319626Y-132332770D01*
X139275090Y-132263559D01*
X139062890Y-132118569D01*
X138811000Y-132067560D01*
X138730233Y-132067560D01*
X138586401Y-131852299D01*
X138339839Y-131687552D01*
X138049000Y-131629700D01*
X137499202Y-131629700D01*
X129819107Y-123949605D01*
X129852440Y-123785000D01*
X129852440Y-122065700D01*
X136847560Y-122065700D01*
X136847560Y-123785000D01*
G36*
X125857000Y-74803000D02*
X125877000Y-74803000D01*
X125877000Y-75057000D01*
X125857000Y-75057000D01*
X125857000Y-76263817D01*
X126089026Y-76384958D01*
X126504947Y-76212688D01*
X126653705Y-76076907D01*
X137233007Y-86656209D01*
X137213482Y-86675700D01*
X134287902Y-86675700D01*
X123878943Y-76266741D01*
X124249670Y-76019029D01*
X124465664Y-75695772D01*
X124523179Y-75818490D01*
X124955053Y-76212688D01*
X125370974Y-76384958D01*
X125603000Y-76263817D01*
X125603000Y-75057000D01*
X125583000Y-75057000D01*
X125583000Y-74803000D01*
X125603000Y-74803000D01*
X125603000Y-74783000D01*
X125857000Y-74783000D01*
X125857000Y-74803000D01*
X125857000Y-74803000D01*
G37*
X125857000Y-74803000D02*
X125877000Y-74803000D01*
X125877000Y-75057000D01*
X125857000Y-75057000D01*
X125857000Y-76263817D01*
X126089026Y-76384958D01*
X126504947Y-76212688D01*
X126653705Y-76076907D01*
X137233007Y-86656209D01*
X137213482Y-86675700D01*
X134287902Y-86675700D01*
X123878943Y-76266741D01*
X124249670Y-76019029D01*
X124465664Y-75695772D01*
X124523179Y-75818490D01*
X124955053Y-76212688D01*
X125370974Y-76384958D01*
X125603000Y-76263817D01*
X125603000Y-75057000D01*
X125583000Y-75057000D01*
X125583000Y-74803000D01*
X125603000Y-74803000D01*
X125603000Y-74783000D01*
X125857000Y-74783000D01*
X125857000Y-74803000D01*
G36*
X151257000Y-72263000D02*
X151277000Y-72263000D01*
X151277000Y-72517000D01*
X151257000Y-72517000D01*
X151257000Y-72537000D01*
X151003000Y-72537000D01*
X151003000Y-72517000D01*
X150983000Y-72517000D01*
X150983000Y-72263000D01*
X151003000Y-72263000D01*
X151003000Y-72243000D01*
X151257000Y-72243000D01*
X151257000Y-72263000D01*
X151257000Y-72263000D01*
G37*
X151257000Y-72263000D02*
X151277000Y-72263000D01*
X151277000Y-72517000D01*
X151257000Y-72517000D01*
X151257000Y-72537000D01*
X151003000Y-72537000D01*
X151003000Y-72517000D01*
X150983000Y-72517000D01*
X150983000Y-72263000D01*
X151003000Y-72263000D01*
X151003000Y-72243000D01*
X151257000Y-72243000D01*
X151257000Y-72263000D01*
G36*
X141097000Y-72263000D02*
X141117000Y-72263000D01*
X141117000Y-72517000D01*
X141097000Y-72517000D01*
X141097000Y-72537000D01*
X140843000Y-72537000D01*
X140843000Y-72517000D01*
X140823000Y-72517000D01*
X140823000Y-72263000D01*
X140843000Y-72263000D01*
X140843000Y-72243000D01*
X141097000Y-72243000D01*
X141097000Y-72263000D01*
X141097000Y-72263000D01*
G37*
X141097000Y-72263000D02*
X141117000Y-72263000D01*
X141117000Y-72517000D01*
X141097000Y-72517000D01*
X141097000Y-72537000D01*
X140843000Y-72537000D01*
X140843000Y-72517000D01*
X140823000Y-72517000D01*
X140823000Y-72263000D01*
X140843000Y-72263000D01*
X140843000Y-72243000D01*
X141097000Y-72243000D01*
X141097000Y-72263000D01*
M02*
