G04 #@! TF.FileFunction,Copper,L1,Top,Signal*
%FSLAX46Y46*%
G04 Gerber Fmt 4.6, Leading zero omitted, Abs format (unit mm)*
G04 Created by KiCad (PCBNEW 4.0.7) date 06/27/18 09:39:12*
%MOMM*%
%LPD*%
G01*
G04 APERTURE LIST*
%ADD10C,0.100000*%
%ADD11C,5.400000*%
%ADD12C,1.524000*%
%ADD13R,1.500000X1.300000*%
%ADD14R,1.700000X1.700000*%
%ADD15O,1.700000X1.700000*%
%ADD16R,1.500000X0.600000*%
%ADD17C,0.600000*%
%ADD18C,0.250000*%
%ADD19C,0.400000*%
%ADD20C,0.254000*%
G04 APERTURE END LIST*
D10*
D11*
X210312000Y-122174000D03*
X132588000Y-122174000D03*
D12*
X201676000Y-110561000D03*
X201676000Y-115641000D03*
X199136000Y-110561000D03*
X199136000Y-115641000D03*
X196596000Y-110561000D03*
X196596000Y-115641000D03*
X194056000Y-110561000D03*
X194056000Y-115641000D03*
X191516000Y-110561000D03*
X191516000Y-115641000D03*
X188976000Y-110561000D03*
X188976000Y-115641000D03*
X186436000Y-110561000D03*
X186436000Y-115641000D03*
X183896000Y-110561000D03*
X183896000Y-115641000D03*
X181356000Y-110561000D03*
X181356000Y-115641000D03*
X178816000Y-110561000D03*
X178816000Y-115641000D03*
X176276000Y-110561000D03*
X176276000Y-115641000D03*
X173736000Y-110561000D03*
X173736000Y-115641000D03*
X171196000Y-110561000D03*
X171196000Y-115641000D03*
X168656000Y-110561000D03*
X168656000Y-115641000D03*
X166116000Y-110561000D03*
X166116000Y-115641000D03*
X163576000Y-110561000D03*
X163576000Y-115641000D03*
X161036000Y-110561000D03*
X161036000Y-115641000D03*
X158496000Y-110561000D03*
X158496000Y-115641000D03*
X155956000Y-110561000D03*
X155956000Y-115641000D03*
X153416000Y-110561000D03*
X153416000Y-115641000D03*
X150876000Y-110561000D03*
X150876000Y-115641000D03*
X148336000Y-110561000D03*
X148336000Y-115641000D03*
X145796000Y-110561000D03*
X145796000Y-115641000D03*
X143256000Y-110561000D03*
X143256000Y-115641000D03*
X140716000Y-110561000D03*
X140716000Y-115641000D03*
X201676000Y-89916000D03*
X201676000Y-94996000D03*
X199136000Y-89916000D03*
X199136000Y-94996000D03*
X196596000Y-89916000D03*
X196596000Y-94996000D03*
X194056000Y-89916000D03*
X194056000Y-94996000D03*
X191516000Y-89916000D03*
X191516000Y-94996000D03*
X188976000Y-89916000D03*
X188976000Y-94996000D03*
X186436000Y-89916000D03*
X186436000Y-94996000D03*
X183896000Y-89916000D03*
X183896000Y-94996000D03*
X181356000Y-89916000D03*
X181356000Y-94996000D03*
X178816000Y-89916000D03*
X178816000Y-94996000D03*
X176276000Y-89916000D03*
X176276000Y-94996000D03*
X173736000Y-89916000D03*
X173736000Y-94996000D03*
X171196000Y-89916000D03*
X171196000Y-94996000D03*
X168656000Y-89916000D03*
X168656000Y-94996000D03*
X166116000Y-89916000D03*
X166116000Y-94996000D03*
X163576000Y-89916000D03*
X163576000Y-94996000D03*
X161036000Y-89916000D03*
X161036000Y-94996000D03*
X158496000Y-89916000D03*
X158496000Y-94996000D03*
X155956000Y-89916000D03*
X155956000Y-94996000D03*
X153416000Y-89916000D03*
X153416000Y-94996000D03*
X150876000Y-89916000D03*
X150876000Y-94996000D03*
X148336000Y-89916000D03*
X148336000Y-94996000D03*
X145796000Y-89916000D03*
X145796000Y-94996000D03*
X143256000Y-89916000D03*
X143256000Y-94996000D03*
X140716000Y-89916000D03*
X140716000Y-94996000D03*
D13*
X208106000Y-127000000D03*
X205406000Y-127000000D03*
X203026000Y-127000000D03*
X200326000Y-127000000D03*
X195406000Y-127000000D03*
X192706000Y-127000000D03*
X190326000Y-127000000D03*
X187626000Y-127000000D03*
X185246000Y-127000000D03*
X182546000Y-127000000D03*
X180166000Y-127000000D03*
X177466000Y-127000000D03*
X151210000Y-127000000D03*
X148510000Y-127000000D03*
X144860000Y-127000000D03*
X142160000Y-127000000D03*
X138510000Y-127000000D03*
X135810000Y-127000000D03*
D14*
X205572000Y-55727600D03*
D15*
X205572000Y-58267600D03*
X203032000Y-55727600D03*
X203032000Y-58267600D03*
X200492000Y-55727600D03*
X200492000Y-58267600D03*
X197952000Y-55727600D03*
X197952000Y-58267600D03*
X195412000Y-55727600D03*
X195412000Y-58267600D03*
X192872000Y-55727600D03*
X192872000Y-58267600D03*
X190332000Y-55727600D03*
X190332000Y-58267600D03*
X187792000Y-55727600D03*
X187792000Y-58267600D03*
X185252000Y-55727600D03*
X185252000Y-58267600D03*
X182712000Y-55727600D03*
X182712000Y-58267600D03*
X180172000Y-55727600D03*
X180172000Y-58267600D03*
X177632000Y-55727600D03*
X177632000Y-58267600D03*
X175092000Y-55727600D03*
X175092000Y-58267600D03*
X172552000Y-55727600D03*
X172552000Y-58267600D03*
X170012000Y-55727600D03*
X170012000Y-58267600D03*
X167472000Y-55727600D03*
X167472000Y-58267600D03*
X164932000Y-55727600D03*
X164932000Y-58267600D03*
X162392000Y-55727600D03*
X162392000Y-58267600D03*
X159852000Y-55727600D03*
X159852000Y-58267600D03*
X157312000Y-55727600D03*
X157312000Y-58267600D03*
D16*
X203261000Y-69723000D03*
X203261000Y-70993000D03*
X203261000Y-72263000D03*
X203261000Y-73533000D03*
X203261000Y-74803000D03*
X203261000Y-76073000D03*
X203261000Y-77343000D03*
X208661000Y-77343000D03*
X208661000Y-76073000D03*
X208661000Y-74803000D03*
X208661000Y-73533000D03*
X208661000Y-72263000D03*
X208661000Y-70993000D03*
X208661000Y-69723000D03*
X194437000Y-69850000D03*
X194437000Y-71120000D03*
X194437000Y-72390000D03*
X194437000Y-73660000D03*
X194437000Y-74930000D03*
X194437000Y-76200000D03*
X194437000Y-77470000D03*
X199837000Y-77470000D03*
X199837000Y-76200000D03*
X199837000Y-74930000D03*
X199837000Y-73660000D03*
X199837000Y-72390000D03*
X199837000Y-71120000D03*
X199837000Y-69850000D03*
D17*
X195696900Y-77330000D03*
X181737000Y-75451900D03*
X166751000Y-76601600D03*
X162197200Y-81894500D03*
X189736800Y-72879700D03*
X156870600Y-70408400D03*
X172232400Y-74688700D03*
X174150100Y-66794700D03*
X154370600Y-66625700D03*
X169076400Y-59271500D03*
X151689000Y-67208700D03*
X171126200Y-67283100D03*
X166421000Y-60294100D03*
X174950000Y-75281300D03*
X157382000Y-71152700D03*
X197866000Y-70334200D03*
X199761400Y-80036300D03*
X196041800Y-70401000D03*
X197711300Y-85177200D03*
X201088300Y-80184500D03*
X163825600Y-79481100D03*
X196941600Y-85610000D03*
X148206600Y-75131100D03*
X137451900Y-80595100D03*
X149296800Y-75968600D03*
X174852800Y-93572900D03*
X146437900Y-79398600D03*
X139550600Y-80818800D03*
X149116700Y-96739600D03*
X172141100Y-90912800D03*
X172141100Y-94085700D03*
X175722600Y-82147900D03*
X169665700Y-82147900D03*
X176384100Y-88008500D03*
X176728800Y-92897300D03*
X189682100Y-87603000D03*
X169180200Y-75872100D03*
X202840600Y-61210900D03*
X192417700Y-61735400D03*
X143893600Y-72840100D03*
X203997600Y-66785100D03*
X192983800Y-61169500D03*
X137598500Y-76420400D03*
X197522100Y-62368500D03*
X165913400Y-69456400D03*
X143221900Y-76207100D03*
X141825700Y-72534500D03*
X190154800Y-62625700D03*
X139386900Y-76134800D03*
X206660300Y-127000000D03*
X200223700Y-128177600D03*
X192822600Y-128187500D03*
X188891000Y-126920000D03*
X182546000Y-128184100D03*
X177333200Y-128176100D03*
X148666400Y-128191100D03*
X142040000Y-128185100D03*
X137094200Y-127005000D03*
X162149100Y-65718900D03*
X179540500Y-91197600D03*
X192662600Y-74511000D03*
X185915600Y-61541300D03*
X183951400Y-63285900D03*
X186623700Y-63769400D03*
X172475600Y-63100200D03*
X187248600Y-64518000D03*
D18*
X170012000Y-58267600D02*
X170012000Y-57092300D01*
X173916700Y-56095000D02*
X173916700Y-55727600D01*
X172919400Y-57092300D02*
X173916700Y-56095000D01*
X170012000Y-57092300D02*
X172919400Y-57092300D01*
X175092000Y-55727600D02*
X173916700Y-55727600D01*
X148336000Y-89916000D02*
X150876000Y-89916000D01*
X148336000Y-113101000D02*
X148336000Y-110561000D01*
X145796000Y-115641000D02*
X148336000Y-113101000D01*
X164932000Y-58267600D02*
X166107300Y-58267600D01*
X170012000Y-58267600D02*
X170012000Y-59442900D01*
X194437000Y-77470000D02*
X195512300Y-77470000D01*
X195652300Y-77330000D02*
X195696900Y-77330000D01*
X195512300Y-77470000D02*
X195652300Y-77330000D01*
X203261000Y-77343000D02*
X202185700Y-77343000D01*
X201687300Y-76844600D02*
X202185700Y-77343000D01*
X196182300Y-76844600D02*
X201687300Y-76844600D01*
X195696900Y-77330000D02*
X196182300Y-76844600D01*
X195412000Y-55727600D02*
X194236700Y-55727600D01*
X145796000Y-108021000D02*
X148336000Y-110561000D01*
X145796000Y-94996000D02*
X145796000Y-108021000D01*
X150876000Y-110561000D02*
X148336000Y-110561000D01*
X183887300Y-58635000D02*
X183887300Y-58267600D01*
X184695200Y-59442900D02*
X183887300Y-58635000D01*
X188348700Y-59442900D02*
X184695200Y-59442900D01*
X189156700Y-58634900D02*
X188348700Y-59442900D01*
X189156700Y-58267600D02*
X189156700Y-58634900D01*
X194236700Y-56095000D02*
X194236700Y-55727600D01*
X193239400Y-57092300D02*
X194236700Y-56095000D01*
X192315200Y-57092300D02*
X193239400Y-57092300D01*
X191507300Y-57900200D02*
X192315200Y-57092300D01*
X191507300Y-58267600D02*
X191507300Y-57900200D01*
X190332000Y-58267600D02*
X191507300Y-58267600D01*
X190332000Y-58267600D02*
X189156700Y-58267600D01*
X182712000Y-58267600D02*
X183887300Y-58267600D01*
X169528500Y-59926400D02*
X170012000Y-59442900D01*
X167407900Y-59926400D02*
X169528500Y-59926400D01*
X166107300Y-58625800D02*
X167407900Y-59926400D01*
X166107300Y-58267600D02*
X166107300Y-58625800D01*
D19*
X199837000Y-69850000D02*
X200987300Y-69850000D01*
X208661000Y-69723000D02*
X207510700Y-69723000D01*
X203032000Y-58267600D02*
X203032000Y-59517900D01*
X206262500Y-68474800D02*
X203251600Y-68474800D01*
X207510700Y-69723000D02*
X206262500Y-68474800D01*
X202362500Y-68474800D02*
X200987300Y-69850000D01*
X203251600Y-68474800D02*
X202362500Y-68474800D01*
X205572000Y-58267600D02*
X205572000Y-57697800D01*
X203032000Y-58267600D02*
X204282300Y-58267600D01*
X185252000Y-55727600D02*
X186502300Y-55727600D01*
X186502300Y-55209500D02*
X186502300Y-55727600D01*
X187251200Y-54460600D02*
X186502300Y-55209500D01*
X203559500Y-54460600D02*
X187251200Y-54460600D01*
X204321600Y-55222700D02*
X203559500Y-54460600D01*
X204321600Y-57167300D02*
X204321600Y-55222700D01*
X204852100Y-57697800D02*
X204321600Y-57167300D01*
X205572000Y-57697800D02*
X204852100Y-57697800D01*
X204852100Y-57697800D02*
X204282300Y-58267600D01*
X199837000Y-69850000D02*
X198686700Y-69850000D01*
X180587300Y-76601600D02*
X166751000Y-76601600D01*
X181737000Y-75451900D02*
X180587300Y-76601600D01*
X203540900Y-60026800D02*
X203032000Y-59517900D01*
X203540900Y-61501000D02*
X203540900Y-60026800D01*
X203251600Y-61790300D02*
X203540900Y-61501000D01*
X203251600Y-68474800D02*
X203251600Y-61790300D01*
X153817500Y-81894500D02*
X162197200Y-81894500D01*
X145796000Y-89916000D02*
X153817500Y-81894500D01*
X187164600Y-75451900D02*
X189736800Y-72879700D01*
X181737000Y-75451900D02*
X187164600Y-75451900D01*
X197986400Y-69149700D02*
X198686700Y-69850000D01*
X193466800Y-69149700D02*
X197986400Y-69149700D01*
X189736800Y-72879700D02*
X193466800Y-69149700D01*
D18*
X200492000Y-55727600D02*
X200492000Y-56902900D01*
X172232400Y-70408400D02*
X156870600Y-70408400D01*
X178061200Y-70408400D02*
X172232400Y-70408400D01*
X180174200Y-68295400D02*
X178061200Y-70408400D01*
X191555600Y-68295400D02*
X180174200Y-68295400D01*
X194598300Y-65252700D02*
X191555600Y-68295400D01*
X195595500Y-65252700D02*
X194598300Y-65252700D01*
X199316700Y-61531500D02*
X195595500Y-65252700D01*
X199316700Y-57710800D02*
X199316700Y-61531500D01*
X200124600Y-56902900D02*
X199316700Y-57710800D01*
X200492000Y-56902900D02*
X200124600Y-56902900D01*
X172232400Y-70408400D02*
X172232400Y-74688700D01*
X197952000Y-55727600D02*
X196776700Y-55727600D01*
X173981100Y-66625700D02*
X154370600Y-66625700D01*
X174150100Y-66794700D02*
X173981100Y-66625700D01*
X196776700Y-56095000D02*
X196776700Y-55727600D01*
X195968800Y-56902900D02*
X196776700Y-56095000D01*
X195092500Y-56902900D02*
X195968800Y-56902900D01*
X194059400Y-57936000D02*
X195092500Y-56902900D01*
X194059400Y-61652100D02*
X194059400Y-57936000D01*
X189217300Y-66494200D02*
X194059400Y-61652100D01*
X174450600Y-66494200D02*
X189217300Y-66494200D01*
X174150100Y-66794700D02*
X174450600Y-66494200D01*
X168647300Y-58842400D02*
X169076400Y-59271500D01*
X168647300Y-57710800D02*
X168647300Y-58842400D01*
X167839400Y-56902900D02*
X168647300Y-57710800D01*
X167472000Y-56902900D02*
X167839400Y-56902900D01*
X167472000Y-55727600D02*
X167472000Y-56902900D01*
X151763400Y-67283100D02*
X151689000Y-67208700D01*
X171126200Y-67283100D02*
X151763400Y-67283100D01*
X144860000Y-127000000D02*
X144860000Y-126024700D01*
X136352300Y-117517000D02*
X144860000Y-126024700D01*
X136352300Y-76079500D02*
X136352300Y-117517000D01*
X144137900Y-68293900D02*
X136352300Y-76079500D01*
X146120100Y-68293900D02*
X144137900Y-68293900D01*
X154269600Y-60144400D02*
X146120100Y-68293900D01*
X154269600Y-57098300D02*
X154269600Y-60144400D01*
X157315900Y-54052000D02*
X154269600Y-57098300D01*
X180202000Y-54052000D02*
X157315900Y-54052000D01*
X181442000Y-55292000D02*
X180202000Y-54052000D01*
X181442000Y-56149500D02*
X181442000Y-55292000D01*
X182220300Y-56927800D02*
X181442000Y-56149500D01*
X186591800Y-56927800D02*
X182220300Y-56927800D01*
X187792000Y-55727600D02*
X186591800Y-56927800D01*
X157312000Y-58267600D02*
X157312000Y-59442900D01*
X151210000Y-127000000D02*
X151210000Y-126024700D01*
X144526000Y-119340700D02*
X151210000Y-126024700D01*
X144526000Y-92846200D02*
X144526000Y-119340700D01*
X141986000Y-90306200D02*
X144526000Y-92846200D01*
X141986000Y-88159900D02*
X141986000Y-90306200D01*
X136815100Y-82989000D02*
X141986000Y-88159900D01*
X136815100Y-76314700D02*
X136815100Y-82989000D01*
X139099500Y-74030300D02*
X136815100Y-76314700D01*
X141819100Y-74030300D02*
X139099500Y-74030300D01*
X156406500Y-59442900D02*
X141819100Y-74030300D01*
X157312000Y-59442900D02*
X156406500Y-59442900D01*
X172552000Y-58267600D02*
X171376700Y-58267600D01*
X166542900Y-60416000D02*
X166421000Y-60294100D01*
X169687400Y-60416000D02*
X166542900Y-60416000D01*
X171376700Y-58726700D02*
X169687400Y-60416000D01*
X171376700Y-58267600D02*
X171376700Y-58726700D01*
X203032000Y-55727600D02*
X203032000Y-56902900D01*
X202664600Y-56902900D02*
X203032000Y-56902900D01*
X201856700Y-57710800D02*
X202664600Y-56902900D01*
X201856700Y-59628400D02*
X201856700Y-57710800D01*
X195782100Y-65703000D02*
X201856700Y-59628400D01*
X194784900Y-65703000D02*
X195782100Y-65703000D01*
X191291900Y-69196000D02*
X194784900Y-65703000D01*
X181035300Y-69196000D02*
X191291900Y-69196000D01*
X174950000Y-75281300D02*
X181035300Y-69196000D01*
X174891700Y-75339600D02*
X174950000Y-75281300D01*
X169676900Y-75339600D02*
X174891700Y-75339600D01*
X165490000Y-71152700D02*
X169676900Y-75339600D01*
X157382000Y-71152700D02*
X165490000Y-71152700D01*
X139372000Y-128837300D02*
X138510000Y-127975300D01*
X151942400Y-128837300D02*
X139372000Y-128837300D01*
X164846000Y-115933700D02*
X151942400Y-128837300D01*
X164846000Y-113396100D02*
X164846000Y-115933700D01*
X167386000Y-110856100D02*
X164846000Y-113396100D01*
X167386000Y-110284900D02*
X167386000Y-110856100D01*
X168554400Y-109116500D02*
X167386000Y-110284900D01*
X171359500Y-109116500D02*
X168554400Y-109116500D01*
X185166000Y-95310000D02*
X171359500Y-109116500D01*
X185166000Y-94725400D02*
X185166000Y-95310000D01*
X186562400Y-93329000D02*
X185166000Y-94725400D01*
X187140100Y-93329000D02*
X186562400Y-93329000D01*
X190246000Y-90223100D02*
X187140100Y-93329000D01*
X190246000Y-89616000D02*
X190246000Y-90223100D01*
X198942600Y-80919400D02*
X190246000Y-89616000D01*
X201254900Y-80919400D02*
X198942600Y-80919400D01*
X204336300Y-77838000D02*
X201254900Y-80919400D01*
X204336300Y-73533000D02*
X204336300Y-77838000D01*
X203261000Y-73533000D02*
X204336300Y-73533000D01*
X138510000Y-127000000D02*
X138510000Y-127975300D01*
X202769400Y-109467600D02*
X201676000Y-110561000D01*
X202769400Y-91009400D02*
X202769400Y-109467600D01*
X201676000Y-89916000D02*
X202769400Y-91009400D01*
X203026000Y-127000000D02*
X203026000Y-126024700D01*
X199136000Y-122134700D02*
X203026000Y-126024700D01*
X199136000Y-115641000D02*
X199136000Y-122134700D01*
X197080200Y-71120000D02*
X194437000Y-71120000D01*
X197866000Y-70334200D02*
X197080200Y-71120000D01*
X194437000Y-71120000D02*
X193361700Y-71120000D01*
X198040900Y-114545900D02*
X199136000Y-115641000D01*
X198040900Y-86214400D02*
X198040900Y-114545900D01*
X204788300Y-79467000D02*
X198040900Y-86214400D01*
X204788300Y-72280100D02*
X204788300Y-79467000D01*
X204145800Y-71637600D02*
X204788300Y-72280100D01*
X202174100Y-71637600D02*
X204145800Y-71637600D01*
X200796300Y-73015400D02*
X202174100Y-71637600D01*
X193494400Y-73015400D02*
X200796300Y-73015400D01*
X193361700Y-72882700D02*
X193494400Y-73015400D01*
X193361700Y-71120000D02*
X193361700Y-72882700D01*
X195167200Y-114529800D02*
X194056000Y-115641000D01*
X195167200Y-96107200D02*
X195167200Y-114529800D01*
X194056000Y-94996000D02*
X195167200Y-96107200D01*
X192786000Y-123404700D02*
X195406000Y-126024700D01*
X192786000Y-114371000D02*
X192786000Y-123404700D01*
X188976000Y-110561000D02*
X192786000Y-114371000D01*
X195406000Y-127000000D02*
X195406000Y-126024700D01*
X198855700Y-80036300D02*
X199761400Y-80036300D01*
X188976000Y-89916000D02*
X198855700Y-80036300D01*
X195512300Y-69871500D02*
X196041800Y-70401000D01*
X195512300Y-69850000D02*
X195512300Y-69871500D01*
X194437000Y-69850000D02*
X195512300Y-69850000D01*
X185246000Y-127000000D02*
X185246000Y-126024700D01*
X188976000Y-115641000D02*
X188645800Y-115641000D01*
X185327300Y-112322500D02*
X188645800Y-115641000D01*
X185327300Y-98644700D02*
X185327300Y-112322500D01*
X188976000Y-94996000D02*
X185327300Y-98644700D01*
X188645800Y-122624900D02*
X185246000Y-126024700D01*
X188645800Y-115641000D02*
X188645800Y-122624900D01*
X197711200Y-85177200D02*
X197711300Y-85177200D01*
X197711200Y-85907200D02*
X197711200Y-85177200D01*
X195326000Y-88292400D02*
X197711200Y-85907200D01*
X195326000Y-90239000D02*
X195326000Y-88292400D01*
X193701400Y-91863600D02*
X195326000Y-90239000D01*
X192108400Y-91863600D02*
X193701400Y-91863600D01*
X188976000Y-94996000D02*
X192108400Y-91863600D01*
X190326000Y-114451000D02*
X190326000Y-127000000D01*
X186436000Y-110561000D02*
X190326000Y-114451000D01*
X196942700Y-79409300D02*
X186436000Y-89916000D01*
X200313100Y-79409300D02*
X196942700Y-79409300D01*
X201088300Y-80184500D02*
X200313100Y-79409300D01*
X168953500Y-84609000D02*
X163825600Y-79481100D01*
X175104500Y-84609000D02*
X168953500Y-84609000D01*
X180086000Y-89590500D02*
X175104500Y-84609000D01*
X180086000Y-90195600D02*
X180086000Y-89590500D01*
X180901200Y-91010800D02*
X180086000Y-90195600D01*
X185341200Y-91010800D02*
X180901200Y-91010800D01*
X186436000Y-89916000D02*
X185341200Y-91010800D01*
X180166000Y-121911000D02*
X180166000Y-127000000D01*
X186436000Y-115641000D02*
X180166000Y-121911000D01*
X196740100Y-85610000D02*
X196941600Y-85610000D01*
X192786000Y-89564100D02*
X196740100Y-85610000D01*
X192786000Y-90258300D02*
X192786000Y-89564100D01*
X189264900Y-93779400D02*
X192786000Y-90258300D01*
X187652600Y-93779400D02*
X189264900Y-93779400D01*
X186436000Y-94996000D02*
X187652600Y-93779400D01*
X183896000Y-82317800D02*
X183896000Y-89916000D01*
X192553800Y-73660000D02*
X183896000Y-82317800D01*
X194437000Y-73660000D02*
X192553800Y-73660000D01*
X161488500Y-75131100D02*
X148206600Y-75131100D01*
X170065800Y-83708400D02*
X161488500Y-75131100D01*
X175148400Y-83708400D02*
X170065800Y-83708400D01*
X181356000Y-89916000D02*
X175148400Y-83708400D01*
X144343400Y-87486600D02*
X137451900Y-80595100D01*
X144343400Y-90595500D02*
X144343400Y-87486600D01*
X147066000Y-93318100D02*
X144343400Y-90595500D01*
X147066000Y-95282200D02*
X147066000Y-93318100D01*
X147878100Y-96094300D02*
X147066000Y-95282200D01*
X164046500Y-96094300D02*
X147878100Y-96094300D01*
X164686700Y-95454100D02*
X164046500Y-96094300D01*
X164686700Y-94887500D02*
X164686700Y-95454100D01*
X166187400Y-93386800D02*
X164686700Y-94887500D01*
X173673700Y-93386800D02*
X166187400Y-93386800D01*
X175006000Y-94719100D02*
X173673700Y-93386800D01*
X175006000Y-95316100D02*
X175006000Y-94719100D01*
X175773300Y-96083400D02*
X175006000Y-95316100D01*
X180268600Y-96083400D02*
X175773300Y-96083400D01*
X181356000Y-94996000D02*
X180268600Y-96083400D01*
X178816000Y-89436700D02*
X178816000Y-89916000D01*
X176663900Y-87284600D02*
X178816000Y-89436700D01*
X170739400Y-87284600D02*
X176663900Y-87284600D01*
X159423400Y-75968600D02*
X170739400Y-87284600D01*
X149296800Y-75968600D02*
X159423400Y-75968600D01*
X174852900Y-93572900D02*
X174852800Y-93572900D01*
X176276000Y-94996000D02*
X174852900Y-93572900D01*
X172733900Y-89916000D02*
X173736000Y-89916000D01*
X162216500Y-79398600D02*
X172733900Y-89916000D01*
X146437900Y-79398600D02*
X162216500Y-79398600D01*
X162098800Y-80818800D02*
X171196000Y-89916000D01*
X139550600Y-80818800D02*
X162098800Y-80818800D01*
X169452400Y-96739600D02*
X171196000Y-94996000D01*
X149116700Y-96739600D02*
X169452400Y-96739600D01*
X172050500Y-91003400D02*
X172141100Y-90912800D01*
X167203400Y-91003400D02*
X172050500Y-91003400D01*
X166116000Y-89916000D02*
X167203400Y-91003400D01*
X172303500Y-94248100D02*
X172141100Y-94085700D01*
X172303500Y-104373500D02*
X172303500Y-94248100D01*
X166116000Y-110561000D02*
X172303500Y-104373500D01*
X175722600Y-82147900D02*
X169665700Y-82147900D01*
X165198100Y-91538100D02*
X163576000Y-89916000D01*
X172748900Y-91538100D02*
X165198100Y-91538100D01*
X173199200Y-91087800D02*
X172748900Y-91538100D01*
X174156200Y-91087800D02*
X173199200Y-91087800D01*
X175006100Y-90237900D02*
X174156200Y-91087800D01*
X175006100Y-89386500D02*
X175006100Y-90237900D01*
X176384100Y-88008500D02*
X175006100Y-89386500D01*
X165674700Y-92897300D02*
X176728800Y-92897300D01*
X163576000Y-94996000D02*
X165674700Y-92897300D01*
X153433300Y-92438700D02*
X150876000Y-94996000D01*
X173122100Y-92438700D02*
X153433300Y-92438700D01*
X173291000Y-92269800D02*
X173122100Y-92438700D01*
X185625000Y-92269800D02*
X173291000Y-92269800D01*
X187609800Y-90285000D02*
X185625000Y-92269800D01*
X187609800Y-89675300D02*
X187609800Y-90285000D01*
X189682100Y-87603000D02*
X187609800Y-89675300D01*
X140716000Y-94996000D02*
X141986000Y-94996000D01*
X141986000Y-94996000D02*
X143256000Y-94996000D01*
X141986000Y-94996000D02*
X141986000Y-114371000D01*
X140716000Y-115641000D02*
X141986000Y-114371000D01*
X141986000Y-114371000D02*
X143256000Y-115641000D01*
X208106000Y-127000000D02*
X208106000Y-126024700D01*
X200223400Y-118142100D02*
X208106000Y-126024700D01*
X200223400Y-96083400D02*
X200223400Y-118142100D01*
X199136000Y-94996000D02*
X200223400Y-96083400D01*
X200406000Y-93726000D02*
X199136000Y-94996000D01*
X200406000Y-87733300D02*
X200406000Y-93726000D01*
X205238700Y-82900600D02*
X200406000Y-87733300D01*
X205238700Y-71895400D02*
X205238700Y-82900600D01*
X204336300Y-70993000D02*
X205238700Y-71895400D01*
X203261000Y-70993000D02*
X204336300Y-70993000D01*
X196503400Y-67548100D02*
X202840600Y-61210900D01*
X193576700Y-67548100D02*
X196503400Y-67548100D01*
X187990200Y-73134600D02*
X193576700Y-67548100D01*
X178715000Y-73134600D02*
X187990200Y-73134600D01*
X175927200Y-75922400D02*
X178715000Y-73134600D01*
X169230500Y-75922400D02*
X175927200Y-75922400D01*
X169180200Y-75872100D02*
X169230500Y-75922400D01*
X177632000Y-58267600D02*
X178807300Y-58267600D01*
X178807300Y-58634500D02*
X178807300Y-58267600D01*
X182339400Y-62166600D02*
X178807300Y-58634500D01*
X189729600Y-62166600D02*
X182339400Y-62166600D01*
X189895800Y-62000400D02*
X189729600Y-62166600D01*
X190422500Y-62000400D02*
X189895800Y-62000400D01*
X191056800Y-62634600D02*
X190422500Y-62000400D01*
X191320100Y-62371300D02*
X191056800Y-62634600D01*
X191781800Y-62371300D02*
X191320100Y-62371300D01*
X192417700Y-61735400D02*
X191781800Y-62371300D01*
X151688800Y-65044900D02*
X143893600Y-72840100D01*
X162777800Y-65044900D02*
X151688800Y-65044900D01*
X162876200Y-65143300D02*
X162777800Y-65044900D01*
X188548100Y-65143300D02*
X162876200Y-65143300D01*
X191056800Y-62634600D02*
X188548100Y-65143300D01*
X183887300Y-55360300D02*
X183887300Y-55727600D01*
X185312400Y-53935200D02*
X183887300Y-55360300D01*
X205943100Y-53935200D02*
X185312400Y-53935200D01*
X206766000Y-54758100D02*
X205943100Y-53935200D01*
X206766000Y-64016700D02*
X206766000Y-54758100D01*
X203997600Y-66785100D02*
X206766000Y-64016700D01*
X182712000Y-55727600D02*
X183887300Y-55727600D01*
X177632000Y-55727600D02*
X178807300Y-55727600D01*
X192680100Y-60865800D02*
X192983800Y-61169500D01*
X183540100Y-60865800D02*
X192680100Y-60865800D01*
X181347400Y-58673100D02*
X183540100Y-60865800D01*
X181347400Y-57742000D02*
X181347400Y-58673100D01*
X180508300Y-56902900D02*
X181347400Y-57742000D01*
X179615200Y-56902900D02*
X180508300Y-56902900D01*
X178807300Y-56095000D02*
X179615200Y-56902900D01*
X178807300Y-55727600D02*
X178807300Y-56095000D01*
X195412000Y-58267600D02*
X195412000Y-59442900D01*
X195412000Y-60966400D02*
X195412000Y-59442900D01*
X189433900Y-66944500D02*
X195412000Y-60966400D01*
X175179000Y-66944500D02*
X189433900Y-66944500D01*
X174192300Y-67931200D02*
X175179000Y-66944500D01*
X150744100Y-67931200D02*
X174192300Y-67931200D01*
X143726600Y-74948700D02*
X150744100Y-67931200D01*
X139070100Y-74948700D02*
X143726600Y-74948700D01*
X139070100Y-74948800D02*
X139070100Y-74948700D01*
X137598500Y-76420400D02*
X139070100Y-74948800D01*
X177875800Y-69456400D02*
X165913400Y-69456400D01*
X179487100Y-67845100D02*
X177875800Y-69456400D01*
X190024800Y-67845100D02*
X179487100Y-67845100D01*
X195501400Y-62368500D02*
X190024800Y-67845100D01*
X197522100Y-62368500D02*
X195501400Y-62368500D01*
X145625300Y-76207100D02*
X143221900Y-76207100D01*
X152376000Y-69456400D02*
X145625300Y-76207100D01*
X165913400Y-69456400D02*
X152376000Y-69456400D01*
X164932000Y-55727600D02*
X163756700Y-55727600D01*
X164932000Y-55727600D02*
X166107300Y-55727600D01*
X180269700Y-62625700D02*
X190154800Y-62625700D01*
X176362000Y-58718000D02*
X180269700Y-62625700D01*
X176362000Y-55328200D02*
X176362000Y-58718000D01*
X175586100Y-54552300D02*
X176362000Y-55328200D01*
X166915200Y-54552300D02*
X175586100Y-54552300D01*
X166107300Y-55360200D02*
X166915200Y-54552300D01*
X166107300Y-55727600D02*
X166107300Y-55360200D01*
X142516400Y-72534500D02*
X141825700Y-72534500D01*
X155563000Y-59487900D02*
X142516400Y-72534500D01*
X155563000Y-58303300D02*
X155563000Y-59487900D01*
X156868700Y-56997600D02*
X155563000Y-58303300D01*
X157726200Y-56997600D02*
X156868700Y-56997600D01*
X158548600Y-56175200D02*
X157726200Y-56997600D01*
X158548600Y-55346100D02*
X158548600Y-56175200D01*
X159342400Y-54552300D02*
X158548600Y-55346100D01*
X162948800Y-54552300D02*
X159342400Y-54552300D01*
X163756700Y-55360200D02*
X162948800Y-54552300D01*
X163756700Y-55727600D02*
X163756700Y-55360200D01*
X197952000Y-58267600D02*
X197952000Y-59442900D01*
X197574400Y-59442900D02*
X197952000Y-59442900D01*
X189622500Y-67394800D02*
X197574400Y-59442900D01*
X176871400Y-67394800D02*
X189622500Y-67394800D01*
X175819200Y-68447000D02*
X176871400Y-67394800D01*
X151941400Y-68447000D02*
X175819200Y-68447000D01*
X144989200Y-75399200D02*
X151941400Y-68447000D01*
X140122500Y-75399200D02*
X144989200Y-75399200D01*
X139386900Y-76134800D02*
X140122500Y-75399200D01*
X205406000Y-127000000D02*
X206481300Y-127000000D01*
X206481300Y-127000000D02*
X206660300Y-127000000D01*
X200326000Y-128075300D02*
X200223700Y-128177600D01*
X200326000Y-127000000D02*
X200326000Y-128075300D01*
X192706000Y-128070900D02*
X192822600Y-128187500D01*
X192706000Y-127000000D02*
X192706000Y-128070900D01*
X187626000Y-127000000D02*
X188701300Y-127000000D01*
X188811000Y-127000000D02*
X188891000Y-126920000D01*
X188701300Y-127000000D02*
X188811000Y-127000000D01*
X182546000Y-127000000D02*
X182546000Y-128184100D01*
X177466000Y-128043300D02*
X177333200Y-128176100D01*
X177466000Y-127000000D02*
X177466000Y-128043300D01*
X148510000Y-128034700D02*
X148510000Y-127000000D01*
X148666400Y-128191100D02*
X148510000Y-128034700D01*
X142160000Y-128065100D02*
X142040000Y-128185100D01*
X142160000Y-127000000D02*
X142160000Y-128065100D01*
X136890300Y-127005000D02*
X136885300Y-127000000D01*
X137094200Y-127005000D02*
X136890300Y-127005000D01*
X135810000Y-127000000D02*
X136885300Y-127000000D01*
X192872000Y-58267600D02*
X192872000Y-59442900D01*
X193609100Y-60180000D02*
X192872000Y-59442900D01*
X193609100Y-61428600D02*
X193609100Y-60180000D01*
X193242900Y-61794800D02*
X193609100Y-61428600D01*
X193242600Y-61794800D02*
X193242900Y-61794800D01*
X193242600Y-61794900D02*
X193242600Y-61794800D01*
X189318600Y-65718900D02*
X193242600Y-61794900D01*
X162149100Y-65718900D02*
X189318600Y-65718900D01*
X151343600Y-91988400D02*
X148336000Y-94996000D01*
X172935500Y-91988400D02*
X151343600Y-91988400D01*
X173385800Y-91538100D02*
X172935500Y-91988400D01*
X179200000Y-91538100D02*
X173385800Y-91538100D01*
X179540500Y-91197600D02*
X179200000Y-91538100D01*
X193081600Y-74930000D02*
X192662600Y-74511000D01*
X194437000Y-74930000D02*
X193081600Y-74930000D01*
X183445700Y-61541300D02*
X185915600Y-61541300D01*
X180172000Y-58267600D02*
X183445700Y-61541300D01*
X162392000Y-55727600D02*
X162392000Y-56902900D01*
X174369500Y-63285900D02*
X183951400Y-63285900D01*
X173505800Y-62422200D02*
X174369500Y-63285900D01*
X167424400Y-62422200D02*
X173505800Y-62422200D01*
X163567300Y-58565100D02*
X167424400Y-62422200D01*
X163567300Y-57710800D02*
X163567300Y-58565100D01*
X162759400Y-56902900D02*
X163567300Y-57710800D01*
X162392000Y-56902900D02*
X162759400Y-56902900D01*
X159852000Y-58267600D02*
X161027300Y-58267600D01*
X186474600Y-63918500D02*
X186623700Y-63769400D01*
X166310900Y-63918500D02*
X186474600Y-63918500D01*
X161027300Y-58634900D02*
X166310900Y-63918500D01*
X161027300Y-58267600D02*
X161027300Y-58634900D01*
X167224600Y-63100200D02*
X172475600Y-63100200D01*
X162392000Y-58267600D02*
X167224600Y-63100200D01*
X202185700Y-70315200D02*
X202185700Y-69723000D01*
X200736200Y-71764700D02*
X202185700Y-70315200D01*
X196137600Y-71764700D02*
X200736200Y-71764700D01*
X195512300Y-72390000D02*
X196137600Y-71764700D01*
X194437000Y-72390000D02*
X195512300Y-72390000D01*
X203261000Y-69723000D02*
X202185700Y-69723000D01*
X202185700Y-72829400D02*
X202185700Y-72263000D01*
X200710500Y-74304600D02*
X202185700Y-72829400D01*
X197407700Y-74304600D02*
X200710500Y-74304600D01*
X195512300Y-76200000D02*
X197407700Y-74304600D01*
X194437000Y-76200000D02*
X195512300Y-76200000D01*
X203261000Y-72263000D02*
X202185700Y-72263000D01*
X159852000Y-55727600D02*
X159852000Y-56902900D01*
X164397600Y-64518000D02*
X187248600Y-64518000D01*
X158676700Y-58797100D02*
X164397600Y-64518000D01*
X158676700Y-57710800D02*
X158676700Y-58797100D01*
X159484600Y-56902900D02*
X158676700Y-57710800D01*
X159852000Y-56902900D02*
X159484600Y-56902900D01*
D20*
G36*
X146711618Y-96091226D02*
X146755921Y-96046923D01*
X147340699Y-96631701D01*
X147587261Y-96796448D01*
X147878100Y-96854300D01*
X148181599Y-96854300D01*
X148181538Y-96924767D01*
X148323583Y-97268543D01*
X148586373Y-97531792D01*
X148929901Y-97674438D01*
X149301867Y-97674762D01*
X149645643Y-97532717D01*
X149678818Y-97499600D01*
X169452400Y-97499600D01*
X169743239Y-97441748D01*
X169989801Y-97277001D01*
X170886619Y-96380183D01*
X170916900Y-96392757D01*
X171472661Y-96393242D01*
X171543500Y-96363972D01*
X171543500Y-104058698D01*
X166425381Y-109176817D01*
X166395100Y-109164243D01*
X165839339Y-109163758D01*
X165325697Y-109375990D01*
X164932371Y-109768630D01*
X164846051Y-109976512D01*
X164761010Y-109770697D01*
X164368370Y-109377371D01*
X163855100Y-109164243D01*
X163299339Y-109163758D01*
X162785697Y-109375990D01*
X162392371Y-109768630D01*
X162306051Y-109976512D01*
X162221010Y-109770697D01*
X161828370Y-109377371D01*
X161315100Y-109164243D01*
X160759339Y-109163758D01*
X160245697Y-109375990D01*
X159852371Y-109768630D01*
X159766051Y-109976512D01*
X159681010Y-109770697D01*
X159288370Y-109377371D01*
X158775100Y-109164243D01*
X158219339Y-109163758D01*
X157705697Y-109375990D01*
X157312371Y-109768630D01*
X157226051Y-109976512D01*
X157141010Y-109770697D01*
X156748370Y-109377371D01*
X156235100Y-109164243D01*
X155679339Y-109163758D01*
X155165697Y-109375990D01*
X154772371Y-109768630D01*
X154686051Y-109976512D01*
X154601010Y-109770697D01*
X154208370Y-109377371D01*
X153695100Y-109164243D01*
X153139339Y-109163758D01*
X152625697Y-109375990D01*
X152232371Y-109768630D01*
X152152605Y-109960727D01*
X152098397Y-109829857D01*
X151856213Y-109760392D01*
X151055605Y-110561000D01*
X151856213Y-111361608D01*
X152098397Y-111292143D01*
X152148509Y-111151682D01*
X152230990Y-111351303D01*
X152623630Y-111744629D01*
X153136900Y-111957757D01*
X153692661Y-111958242D01*
X154206303Y-111746010D01*
X154599629Y-111353370D01*
X154685949Y-111145488D01*
X154770990Y-111351303D01*
X155163630Y-111744629D01*
X155676900Y-111957757D01*
X156232661Y-111958242D01*
X156746303Y-111746010D01*
X157139629Y-111353370D01*
X157225949Y-111145488D01*
X157310990Y-111351303D01*
X157703630Y-111744629D01*
X158216900Y-111957757D01*
X158772661Y-111958242D01*
X159286303Y-111746010D01*
X159679629Y-111353370D01*
X159765949Y-111145488D01*
X159850990Y-111351303D01*
X160243630Y-111744629D01*
X160756900Y-111957757D01*
X161312661Y-111958242D01*
X161826303Y-111746010D01*
X162219629Y-111353370D01*
X162305949Y-111145488D01*
X162390990Y-111351303D01*
X162783630Y-111744629D01*
X163296900Y-111957757D01*
X163852661Y-111958242D01*
X164366303Y-111746010D01*
X164759629Y-111353370D01*
X164845949Y-111145488D01*
X164930990Y-111351303D01*
X165323630Y-111744629D01*
X165393611Y-111773687D01*
X164308599Y-112858699D01*
X164143852Y-113105261D01*
X164086000Y-113396100D01*
X164086000Y-114340121D01*
X163855100Y-114244243D01*
X163299339Y-114243758D01*
X162785697Y-114455990D01*
X162392371Y-114848630D01*
X162306051Y-115056512D01*
X162221010Y-114850697D01*
X161828370Y-114457371D01*
X161315100Y-114244243D01*
X160759339Y-114243758D01*
X160245697Y-114455990D01*
X159852371Y-114848630D01*
X159766051Y-115056512D01*
X159681010Y-114850697D01*
X159288370Y-114457371D01*
X158775100Y-114244243D01*
X158219339Y-114243758D01*
X157705697Y-114455990D01*
X157312371Y-114848630D01*
X157226051Y-115056512D01*
X157141010Y-114850697D01*
X156748370Y-114457371D01*
X156235100Y-114244243D01*
X155679339Y-114243758D01*
X155165697Y-114455990D01*
X154772371Y-114848630D01*
X154686051Y-115056512D01*
X154601010Y-114850697D01*
X154208370Y-114457371D01*
X153695100Y-114244243D01*
X153139339Y-114243758D01*
X152625697Y-114455990D01*
X152232371Y-114848630D01*
X152146051Y-115056512D01*
X152061010Y-114850697D01*
X151668370Y-114457371D01*
X151155100Y-114244243D01*
X150599339Y-114243758D01*
X150085697Y-114455990D01*
X149692371Y-114848630D01*
X149606051Y-115056512D01*
X149521010Y-114850697D01*
X149128370Y-114457371D01*
X148615100Y-114244243D01*
X148059339Y-114243758D01*
X147545697Y-114455990D01*
X147152371Y-114848630D01*
X147072605Y-115040727D01*
X147018397Y-114909857D01*
X146776213Y-114840392D01*
X145975605Y-115641000D01*
X146776213Y-116441608D01*
X147018397Y-116372143D01*
X147068509Y-116231682D01*
X147150990Y-116431303D01*
X147543630Y-116824629D01*
X148056900Y-117037757D01*
X148612661Y-117038242D01*
X149126303Y-116826010D01*
X149519629Y-116433370D01*
X149605949Y-116225488D01*
X149690990Y-116431303D01*
X150083630Y-116824629D01*
X150596900Y-117037757D01*
X151152661Y-117038242D01*
X151666303Y-116826010D01*
X152059629Y-116433370D01*
X152145949Y-116225488D01*
X152230990Y-116431303D01*
X152623630Y-116824629D01*
X153136900Y-117037757D01*
X153692661Y-117038242D01*
X154206303Y-116826010D01*
X154599629Y-116433370D01*
X154685949Y-116225488D01*
X154770990Y-116431303D01*
X155163630Y-116824629D01*
X155676900Y-117037757D01*
X156232661Y-117038242D01*
X156746303Y-116826010D01*
X157139629Y-116433370D01*
X157225949Y-116225488D01*
X157310990Y-116431303D01*
X157703630Y-116824629D01*
X158216900Y-117037757D01*
X158772661Y-117038242D01*
X159286303Y-116826010D01*
X159679629Y-116433370D01*
X159765949Y-116225488D01*
X159850990Y-116431303D01*
X160243630Y-116824629D01*
X160756900Y-117037757D01*
X161312661Y-117038242D01*
X161826303Y-116826010D01*
X162219629Y-116433370D01*
X162305949Y-116225488D01*
X162390990Y-116431303D01*
X162783630Y-116824629D01*
X162851915Y-116852983D01*
X152607440Y-127097458D01*
X152607440Y-126350000D01*
X152563162Y-126114683D01*
X152424090Y-125898559D01*
X152211890Y-125753569D01*
X151960000Y-125702560D01*
X151891234Y-125702560D01*
X151747401Y-125487299D01*
X145286000Y-119025898D01*
X145286000Y-116942293D01*
X145588302Y-117050144D01*
X146143368Y-117022362D01*
X146527143Y-116863397D01*
X146596608Y-116621213D01*
X145796000Y-115820605D01*
X145781858Y-115834748D01*
X145602253Y-115655143D01*
X145616395Y-115641000D01*
X145602253Y-115626858D01*
X145781858Y-115447253D01*
X145796000Y-115461395D01*
X146596608Y-114660787D01*
X146527143Y-114418603D01*
X146003698Y-114231856D01*
X145448632Y-114259638D01*
X145286000Y-114327002D01*
X145286000Y-111861879D01*
X145516900Y-111957757D01*
X146072661Y-111958242D01*
X146586303Y-111746010D01*
X146791457Y-111541213D01*
X147535392Y-111541213D01*
X147604857Y-111783397D01*
X148128302Y-111970144D01*
X148683368Y-111942362D01*
X149067143Y-111783397D01*
X149136608Y-111541213D01*
X150075392Y-111541213D01*
X150144857Y-111783397D01*
X150668302Y-111970144D01*
X151223368Y-111942362D01*
X151607143Y-111783397D01*
X151676608Y-111541213D01*
X150876000Y-110740605D01*
X150075392Y-111541213D01*
X149136608Y-111541213D01*
X148336000Y-110740605D01*
X147535392Y-111541213D01*
X146791457Y-111541213D01*
X146979629Y-111353370D01*
X147059395Y-111161273D01*
X147113603Y-111292143D01*
X147355787Y-111361608D01*
X148156395Y-110561000D01*
X148515605Y-110561000D01*
X149316213Y-111361608D01*
X149558397Y-111292143D01*
X149602453Y-111168656D01*
X149653603Y-111292143D01*
X149895787Y-111361608D01*
X150696395Y-110561000D01*
X149895787Y-109760392D01*
X149653603Y-109829857D01*
X149609547Y-109953344D01*
X149558397Y-109829857D01*
X149316213Y-109760392D01*
X148515605Y-110561000D01*
X148156395Y-110561000D01*
X147355787Y-109760392D01*
X147113603Y-109829857D01*
X147063491Y-109970318D01*
X146981010Y-109770697D01*
X146791432Y-109580787D01*
X147535392Y-109580787D01*
X148336000Y-110381395D01*
X149136608Y-109580787D01*
X150075392Y-109580787D01*
X150876000Y-110381395D01*
X151676608Y-109580787D01*
X151607143Y-109338603D01*
X151083698Y-109151856D01*
X150528632Y-109179638D01*
X150144857Y-109338603D01*
X150075392Y-109580787D01*
X149136608Y-109580787D01*
X149067143Y-109338603D01*
X148543698Y-109151856D01*
X147988632Y-109179638D01*
X147604857Y-109338603D01*
X147535392Y-109580787D01*
X146791432Y-109580787D01*
X146588370Y-109377371D01*
X146075100Y-109164243D01*
X145519339Y-109163758D01*
X145286000Y-109260171D01*
X145286000Y-96297293D01*
X145588302Y-96405144D01*
X146143368Y-96377362D01*
X146527143Y-96218397D01*
X146596607Y-95976215D01*
X146711618Y-96091226D01*
X146711618Y-96091226D01*
G37*
X146711618Y-96091226D02*
X146755921Y-96046923D01*
X147340699Y-96631701D01*
X147587261Y-96796448D01*
X147878100Y-96854300D01*
X148181599Y-96854300D01*
X148181538Y-96924767D01*
X148323583Y-97268543D01*
X148586373Y-97531792D01*
X148929901Y-97674438D01*
X149301867Y-97674762D01*
X149645643Y-97532717D01*
X149678818Y-97499600D01*
X169452400Y-97499600D01*
X169743239Y-97441748D01*
X169989801Y-97277001D01*
X170886619Y-96380183D01*
X170916900Y-96392757D01*
X171472661Y-96393242D01*
X171543500Y-96363972D01*
X171543500Y-104058698D01*
X166425381Y-109176817D01*
X166395100Y-109164243D01*
X165839339Y-109163758D01*
X165325697Y-109375990D01*
X164932371Y-109768630D01*
X164846051Y-109976512D01*
X164761010Y-109770697D01*
X164368370Y-109377371D01*
X163855100Y-109164243D01*
X163299339Y-109163758D01*
X162785697Y-109375990D01*
X162392371Y-109768630D01*
X162306051Y-109976512D01*
X162221010Y-109770697D01*
X161828370Y-109377371D01*
X161315100Y-109164243D01*
X160759339Y-109163758D01*
X160245697Y-109375990D01*
X159852371Y-109768630D01*
X159766051Y-109976512D01*
X159681010Y-109770697D01*
X159288370Y-109377371D01*
X158775100Y-109164243D01*
X158219339Y-109163758D01*
X157705697Y-109375990D01*
X157312371Y-109768630D01*
X157226051Y-109976512D01*
X157141010Y-109770697D01*
X156748370Y-109377371D01*
X156235100Y-109164243D01*
X155679339Y-109163758D01*
X155165697Y-109375990D01*
X154772371Y-109768630D01*
X154686051Y-109976512D01*
X154601010Y-109770697D01*
X154208370Y-109377371D01*
X153695100Y-109164243D01*
X153139339Y-109163758D01*
X152625697Y-109375990D01*
X152232371Y-109768630D01*
X152152605Y-109960727D01*
X152098397Y-109829857D01*
X151856213Y-109760392D01*
X151055605Y-110561000D01*
X151856213Y-111361608D01*
X152098397Y-111292143D01*
X152148509Y-111151682D01*
X152230990Y-111351303D01*
X152623630Y-111744629D01*
X153136900Y-111957757D01*
X153692661Y-111958242D01*
X154206303Y-111746010D01*
X154599629Y-111353370D01*
X154685949Y-111145488D01*
X154770990Y-111351303D01*
X155163630Y-111744629D01*
X155676900Y-111957757D01*
X156232661Y-111958242D01*
X156746303Y-111746010D01*
X157139629Y-111353370D01*
X157225949Y-111145488D01*
X157310990Y-111351303D01*
X157703630Y-111744629D01*
X158216900Y-111957757D01*
X158772661Y-111958242D01*
X159286303Y-111746010D01*
X159679629Y-111353370D01*
X159765949Y-111145488D01*
X159850990Y-111351303D01*
X160243630Y-111744629D01*
X160756900Y-111957757D01*
X161312661Y-111958242D01*
X161826303Y-111746010D01*
X162219629Y-111353370D01*
X162305949Y-111145488D01*
X162390990Y-111351303D01*
X162783630Y-111744629D01*
X163296900Y-111957757D01*
X163852661Y-111958242D01*
X164366303Y-111746010D01*
X164759629Y-111353370D01*
X164845949Y-111145488D01*
X164930990Y-111351303D01*
X165323630Y-111744629D01*
X165393611Y-111773687D01*
X164308599Y-112858699D01*
X164143852Y-113105261D01*
X164086000Y-113396100D01*
X164086000Y-114340121D01*
X163855100Y-114244243D01*
X163299339Y-114243758D01*
X162785697Y-114455990D01*
X162392371Y-114848630D01*
X162306051Y-115056512D01*
X162221010Y-114850697D01*
X161828370Y-114457371D01*
X161315100Y-114244243D01*
X160759339Y-114243758D01*
X160245697Y-114455990D01*
X159852371Y-114848630D01*
X159766051Y-115056512D01*
X159681010Y-114850697D01*
X159288370Y-114457371D01*
X158775100Y-114244243D01*
X158219339Y-114243758D01*
X157705697Y-114455990D01*
X157312371Y-114848630D01*
X157226051Y-115056512D01*
X157141010Y-114850697D01*
X156748370Y-114457371D01*
X156235100Y-114244243D01*
X155679339Y-114243758D01*
X155165697Y-114455990D01*
X154772371Y-114848630D01*
X154686051Y-115056512D01*
X154601010Y-114850697D01*
X154208370Y-114457371D01*
X153695100Y-114244243D01*
X153139339Y-114243758D01*
X152625697Y-114455990D01*
X152232371Y-114848630D01*
X152146051Y-115056512D01*
X152061010Y-114850697D01*
X151668370Y-114457371D01*
X151155100Y-114244243D01*
X150599339Y-114243758D01*
X150085697Y-114455990D01*
X149692371Y-114848630D01*
X149606051Y-115056512D01*
X149521010Y-114850697D01*
X149128370Y-114457371D01*
X148615100Y-114244243D01*
X148059339Y-114243758D01*
X147545697Y-114455990D01*
X147152371Y-114848630D01*
X147072605Y-115040727D01*
X147018397Y-114909857D01*
X146776213Y-114840392D01*
X145975605Y-115641000D01*
X146776213Y-116441608D01*
X147018397Y-116372143D01*
X147068509Y-116231682D01*
X147150990Y-116431303D01*
X147543630Y-116824629D01*
X148056900Y-117037757D01*
X148612661Y-117038242D01*
X149126303Y-116826010D01*
X149519629Y-116433370D01*
X149605949Y-116225488D01*
X149690990Y-116431303D01*
X150083630Y-116824629D01*
X150596900Y-117037757D01*
X151152661Y-117038242D01*
X151666303Y-116826010D01*
X152059629Y-116433370D01*
X152145949Y-116225488D01*
X152230990Y-116431303D01*
X152623630Y-116824629D01*
X153136900Y-117037757D01*
X153692661Y-117038242D01*
X154206303Y-116826010D01*
X154599629Y-116433370D01*
X154685949Y-116225488D01*
X154770990Y-116431303D01*
X155163630Y-116824629D01*
X155676900Y-117037757D01*
X156232661Y-117038242D01*
X156746303Y-116826010D01*
X157139629Y-116433370D01*
X157225949Y-116225488D01*
X157310990Y-116431303D01*
X157703630Y-116824629D01*
X158216900Y-117037757D01*
X158772661Y-117038242D01*
X159286303Y-116826010D01*
X159679629Y-116433370D01*
X159765949Y-116225488D01*
X159850990Y-116431303D01*
X160243630Y-116824629D01*
X160756900Y-117037757D01*
X161312661Y-117038242D01*
X161826303Y-116826010D01*
X162219629Y-116433370D01*
X162305949Y-116225488D01*
X162390990Y-116431303D01*
X162783630Y-116824629D01*
X162851915Y-116852983D01*
X152607440Y-127097458D01*
X152607440Y-126350000D01*
X152563162Y-126114683D01*
X152424090Y-125898559D01*
X152211890Y-125753569D01*
X151960000Y-125702560D01*
X151891234Y-125702560D01*
X151747401Y-125487299D01*
X145286000Y-119025898D01*
X145286000Y-116942293D01*
X145588302Y-117050144D01*
X146143368Y-117022362D01*
X146527143Y-116863397D01*
X146596608Y-116621213D01*
X145796000Y-115820605D01*
X145781858Y-115834748D01*
X145602253Y-115655143D01*
X145616395Y-115641000D01*
X145602253Y-115626858D01*
X145781858Y-115447253D01*
X145796000Y-115461395D01*
X146596608Y-114660787D01*
X146527143Y-114418603D01*
X146003698Y-114231856D01*
X145448632Y-114259638D01*
X145286000Y-114327002D01*
X145286000Y-111861879D01*
X145516900Y-111957757D01*
X146072661Y-111958242D01*
X146586303Y-111746010D01*
X146791457Y-111541213D01*
X147535392Y-111541213D01*
X147604857Y-111783397D01*
X148128302Y-111970144D01*
X148683368Y-111942362D01*
X149067143Y-111783397D01*
X149136608Y-111541213D01*
X150075392Y-111541213D01*
X150144857Y-111783397D01*
X150668302Y-111970144D01*
X151223368Y-111942362D01*
X151607143Y-111783397D01*
X151676608Y-111541213D01*
X150876000Y-110740605D01*
X150075392Y-111541213D01*
X149136608Y-111541213D01*
X148336000Y-110740605D01*
X147535392Y-111541213D01*
X146791457Y-111541213D01*
X146979629Y-111353370D01*
X147059395Y-111161273D01*
X147113603Y-111292143D01*
X147355787Y-111361608D01*
X148156395Y-110561000D01*
X148515605Y-110561000D01*
X149316213Y-111361608D01*
X149558397Y-111292143D01*
X149602453Y-111168656D01*
X149653603Y-111292143D01*
X149895787Y-111361608D01*
X150696395Y-110561000D01*
X149895787Y-109760392D01*
X149653603Y-109829857D01*
X149609547Y-109953344D01*
X149558397Y-109829857D01*
X149316213Y-109760392D01*
X148515605Y-110561000D01*
X148156395Y-110561000D01*
X147355787Y-109760392D01*
X147113603Y-109829857D01*
X147063491Y-109970318D01*
X146981010Y-109770697D01*
X146791432Y-109580787D01*
X147535392Y-109580787D01*
X148336000Y-110381395D01*
X149136608Y-109580787D01*
X150075392Y-109580787D01*
X150876000Y-110381395D01*
X151676608Y-109580787D01*
X151607143Y-109338603D01*
X151083698Y-109151856D01*
X150528632Y-109179638D01*
X150144857Y-109338603D01*
X150075392Y-109580787D01*
X149136608Y-109580787D01*
X149067143Y-109338603D01*
X148543698Y-109151856D01*
X147988632Y-109179638D01*
X147604857Y-109338603D01*
X147535392Y-109580787D01*
X146791432Y-109580787D01*
X146588370Y-109377371D01*
X146075100Y-109164243D01*
X145519339Y-109163758D01*
X145286000Y-109260171D01*
X145286000Y-96297293D01*
X145588302Y-96405144D01*
X146143368Y-96377362D01*
X146527143Y-96218397D01*
X146596607Y-95976215D01*
X146711618Y-96091226D01*
G36*
X145989748Y-94981858D02*
X145975605Y-94996000D01*
X145989748Y-95010143D01*
X145810143Y-95189748D01*
X145796000Y-95175605D01*
X145781858Y-95189748D01*
X145602253Y-95010143D01*
X145616395Y-94996000D01*
X145602253Y-94981858D01*
X145781858Y-94802253D01*
X145796000Y-94816395D01*
X145810143Y-94802253D01*
X145989748Y-94981858D01*
X145989748Y-94981858D01*
G37*
X145989748Y-94981858D02*
X145975605Y-94996000D01*
X145989748Y-95010143D01*
X145810143Y-95189748D01*
X145796000Y-95175605D01*
X145781858Y-95189748D01*
X145602253Y-95010143D01*
X145616395Y-94996000D01*
X145602253Y-94981858D01*
X145781858Y-94802253D01*
X145796000Y-94816395D01*
X145810143Y-94802253D01*
X145989748Y-94981858D01*
G36*
X168724257Y-88519059D02*
X168379339Y-88518758D01*
X167865697Y-88730990D01*
X167472371Y-89123630D01*
X167386051Y-89331512D01*
X167301010Y-89125697D01*
X166908370Y-88732371D01*
X166395100Y-88519243D01*
X165839339Y-88518758D01*
X165325697Y-88730990D01*
X164932371Y-89123630D01*
X164846051Y-89331512D01*
X164761010Y-89125697D01*
X164368370Y-88732371D01*
X163855100Y-88519243D01*
X163299339Y-88518758D01*
X162785697Y-88730990D01*
X162392371Y-89123630D01*
X162306051Y-89331512D01*
X162221010Y-89125697D01*
X161828370Y-88732371D01*
X161315100Y-88519243D01*
X160759339Y-88518758D01*
X160245697Y-88730990D01*
X159852371Y-89123630D01*
X159766051Y-89331512D01*
X159681010Y-89125697D01*
X159288370Y-88732371D01*
X158775100Y-88519243D01*
X158219339Y-88518758D01*
X157705697Y-88730990D01*
X157312371Y-89123630D01*
X157226051Y-89331512D01*
X157141010Y-89125697D01*
X156748370Y-88732371D01*
X156235100Y-88519243D01*
X155679339Y-88518758D01*
X155165697Y-88730990D01*
X154772371Y-89123630D01*
X154686051Y-89331512D01*
X154601010Y-89125697D01*
X154208370Y-88732371D01*
X153695100Y-88519243D01*
X153139339Y-88518758D01*
X152625697Y-88730990D01*
X152232371Y-89123630D01*
X152152605Y-89315727D01*
X152098397Y-89184857D01*
X151856213Y-89115392D01*
X151055605Y-89916000D01*
X151856213Y-90716608D01*
X152098397Y-90647143D01*
X152148509Y-90506682D01*
X152230990Y-90706303D01*
X152623630Y-91099629D01*
X152933745Y-91228400D01*
X151389857Y-91228400D01*
X151607143Y-91138397D01*
X151676608Y-90896213D01*
X150876000Y-90095605D01*
X150075392Y-90896213D01*
X150144857Y-91138397D01*
X150668302Y-91325144D01*
X151020973Y-91307492D01*
X150806199Y-91450999D01*
X148645381Y-93611817D01*
X148615100Y-93599243D01*
X148059339Y-93598758D01*
X147826000Y-93695171D01*
X147826000Y-93318100D01*
X147768148Y-93027261D01*
X147603401Y-92780699D01*
X146117441Y-91294739D01*
X146586303Y-91101010D01*
X146791457Y-90896213D01*
X147535392Y-90896213D01*
X147604857Y-91138397D01*
X148128302Y-91325144D01*
X148683368Y-91297362D01*
X149067143Y-91138397D01*
X149136608Y-90896213D01*
X148336000Y-90095605D01*
X147535392Y-90896213D01*
X146791457Y-90896213D01*
X146979629Y-90708370D01*
X147059395Y-90516273D01*
X147113603Y-90647143D01*
X147355787Y-90716608D01*
X148156395Y-89916000D01*
X148515605Y-89916000D01*
X149316213Y-90716608D01*
X149558397Y-90647143D01*
X149602453Y-90523656D01*
X149653603Y-90647143D01*
X149895787Y-90716608D01*
X150696395Y-89916000D01*
X149895787Y-89115392D01*
X149653603Y-89184857D01*
X149609547Y-89308344D01*
X149558397Y-89184857D01*
X149316213Y-89115392D01*
X148515605Y-89916000D01*
X148156395Y-89916000D01*
X148142253Y-89901858D01*
X148321858Y-89722253D01*
X148336000Y-89736395D01*
X149136608Y-88935787D01*
X150075392Y-88935787D01*
X150876000Y-89736395D01*
X151676608Y-88935787D01*
X151607143Y-88693603D01*
X151083698Y-88506856D01*
X150528632Y-88534638D01*
X150144857Y-88693603D01*
X150075392Y-88935787D01*
X149136608Y-88935787D01*
X149067143Y-88693603D01*
X148543698Y-88506856D01*
X148377704Y-88515164D01*
X154163368Y-82729500D01*
X161769966Y-82729500D01*
X162010401Y-82829338D01*
X162382367Y-82829662D01*
X162726143Y-82687617D01*
X162809552Y-82604354D01*
X168724257Y-88519059D01*
X168724257Y-88519059D01*
G37*
X168724257Y-88519059D02*
X168379339Y-88518758D01*
X167865697Y-88730990D01*
X167472371Y-89123630D01*
X167386051Y-89331512D01*
X167301010Y-89125697D01*
X166908370Y-88732371D01*
X166395100Y-88519243D01*
X165839339Y-88518758D01*
X165325697Y-88730990D01*
X164932371Y-89123630D01*
X164846051Y-89331512D01*
X164761010Y-89125697D01*
X164368370Y-88732371D01*
X163855100Y-88519243D01*
X163299339Y-88518758D01*
X162785697Y-88730990D01*
X162392371Y-89123630D01*
X162306051Y-89331512D01*
X162221010Y-89125697D01*
X161828370Y-88732371D01*
X161315100Y-88519243D01*
X160759339Y-88518758D01*
X160245697Y-88730990D01*
X159852371Y-89123630D01*
X159766051Y-89331512D01*
X159681010Y-89125697D01*
X159288370Y-88732371D01*
X158775100Y-88519243D01*
X158219339Y-88518758D01*
X157705697Y-88730990D01*
X157312371Y-89123630D01*
X157226051Y-89331512D01*
X157141010Y-89125697D01*
X156748370Y-88732371D01*
X156235100Y-88519243D01*
X155679339Y-88518758D01*
X155165697Y-88730990D01*
X154772371Y-89123630D01*
X154686051Y-89331512D01*
X154601010Y-89125697D01*
X154208370Y-88732371D01*
X153695100Y-88519243D01*
X153139339Y-88518758D01*
X152625697Y-88730990D01*
X152232371Y-89123630D01*
X152152605Y-89315727D01*
X152098397Y-89184857D01*
X151856213Y-89115392D01*
X151055605Y-89916000D01*
X151856213Y-90716608D01*
X152098397Y-90647143D01*
X152148509Y-90506682D01*
X152230990Y-90706303D01*
X152623630Y-91099629D01*
X152933745Y-91228400D01*
X151389857Y-91228400D01*
X151607143Y-91138397D01*
X151676608Y-90896213D01*
X150876000Y-90095605D01*
X150075392Y-90896213D01*
X150144857Y-91138397D01*
X150668302Y-91325144D01*
X151020973Y-91307492D01*
X150806199Y-91450999D01*
X148645381Y-93611817D01*
X148615100Y-93599243D01*
X148059339Y-93598758D01*
X147826000Y-93695171D01*
X147826000Y-93318100D01*
X147768148Y-93027261D01*
X147603401Y-92780699D01*
X146117441Y-91294739D01*
X146586303Y-91101010D01*
X146791457Y-90896213D01*
X147535392Y-90896213D01*
X147604857Y-91138397D01*
X148128302Y-91325144D01*
X148683368Y-91297362D01*
X149067143Y-91138397D01*
X149136608Y-90896213D01*
X148336000Y-90095605D01*
X147535392Y-90896213D01*
X146791457Y-90896213D01*
X146979629Y-90708370D01*
X147059395Y-90516273D01*
X147113603Y-90647143D01*
X147355787Y-90716608D01*
X148156395Y-89916000D01*
X148515605Y-89916000D01*
X149316213Y-90716608D01*
X149558397Y-90647143D01*
X149602453Y-90523656D01*
X149653603Y-90647143D01*
X149895787Y-90716608D01*
X150696395Y-89916000D01*
X149895787Y-89115392D01*
X149653603Y-89184857D01*
X149609547Y-89308344D01*
X149558397Y-89184857D01*
X149316213Y-89115392D01*
X148515605Y-89916000D01*
X148156395Y-89916000D01*
X148142253Y-89901858D01*
X148321858Y-89722253D01*
X148336000Y-89736395D01*
X149136608Y-88935787D01*
X150075392Y-88935787D01*
X150876000Y-89736395D01*
X151676608Y-88935787D01*
X151607143Y-88693603D01*
X151083698Y-88506856D01*
X150528632Y-88534638D01*
X150144857Y-88693603D01*
X150075392Y-88935787D01*
X149136608Y-88935787D01*
X149067143Y-88693603D01*
X148543698Y-88506856D01*
X148377704Y-88515164D01*
X154163368Y-82729500D01*
X161769966Y-82729500D01*
X162010401Y-82829338D01*
X162382367Y-82829662D01*
X162726143Y-82687617D01*
X162809552Y-82604354D01*
X168724257Y-88519059D01*
G36*
X201971678Y-74167528D02*
X201914569Y-74251110D01*
X201863560Y-74503000D01*
X201863560Y-75103000D01*
X201907838Y-75338317D01*
X201971678Y-75437528D01*
X201914569Y-75521110D01*
X201863560Y-75773000D01*
X201863560Y-76373000D01*
X201907838Y-76608317D01*
X201966178Y-76698980D01*
X201876000Y-76916690D01*
X201876000Y-77057250D01*
X202034750Y-77216000D01*
X203134000Y-77216000D01*
X203134000Y-77196000D01*
X203388000Y-77196000D01*
X203388000Y-77216000D01*
X203408000Y-77216000D01*
X203408000Y-77470000D01*
X203388000Y-77470000D01*
X203388000Y-77490000D01*
X203134000Y-77490000D01*
X203134000Y-77470000D01*
X202034750Y-77470000D01*
X201876000Y-77628750D01*
X201876000Y-77769310D01*
X201972673Y-78002699D01*
X202151302Y-78181327D01*
X202384691Y-78278000D01*
X202821498Y-78278000D01*
X201662870Y-79436628D01*
X201618627Y-79392308D01*
X201275099Y-79249662D01*
X201228223Y-79249621D01*
X200850501Y-78871899D01*
X200603939Y-78707152D01*
X200313100Y-78649300D01*
X196942700Y-78649300D01*
X196651861Y-78707152D01*
X196405299Y-78871899D01*
X186745381Y-88531817D01*
X186715100Y-88519243D01*
X186159339Y-88518758D01*
X185645697Y-88730990D01*
X185252371Y-89123630D01*
X185166051Y-89331512D01*
X185081010Y-89125697D01*
X184688370Y-88732371D01*
X184656000Y-88718930D01*
X184656000Y-82632602D01*
X189532852Y-77755750D01*
X193052000Y-77755750D01*
X193052000Y-77896310D01*
X193148673Y-78129699D01*
X193327302Y-78308327D01*
X193560691Y-78405000D01*
X194151250Y-78405000D01*
X194310000Y-78246250D01*
X194310000Y-77597000D01*
X194564000Y-77597000D01*
X194564000Y-78246250D01*
X194722750Y-78405000D01*
X195313309Y-78405000D01*
X195546698Y-78308327D01*
X195725327Y-78129699D01*
X195822000Y-77896310D01*
X195822000Y-77755750D01*
X195663250Y-77597000D01*
X194564000Y-77597000D01*
X194310000Y-77597000D01*
X193210750Y-77597000D01*
X193052000Y-77755750D01*
X189532852Y-77755750D01*
X192058906Y-75229696D01*
X192132273Y-75303192D01*
X192475801Y-75445838D01*
X192522677Y-75445879D01*
X192544199Y-75467401D01*
X192790760Y-75632148D01*
X192839014Y-75641746D01*
X193081600Y-75690000D01*
X193082086Y-75690000D01*
X193039560Y-75900000D01*
X193039560Y-76500000D01*
X193083838Y-76735317D01*
X193142178Y-76825980D01*
X193052000Y-77043690D01*
X193052000Y-77184250D01*
X193210750Y-77343000D01*
X194310000Y-77343000D01*
X194310000Y-77323000D01*
X194564000Y-77323000D01*
X194564000Y-77343000D01*
X195663250Y-77343000D01*
X195822000Y-77184250D01*
X195822000Y-77043690D01*
X195766398Y-76909456D01*
X195803139Y-76902148D01*
X196049701Y-76737401D01*
X197722502Y-75064600D01*
X198439560Y-75064600D01*
X198439560Y-75230000D01*
X198483838Y-75465317D01*
X198547678Y-75564528D01*
X198490569Y-75648110D01*
X198439560Y-75900000D01*
X198439560Y-76500000D01*
X198483838Y-76735317D01*
X198547678Y-76834528D01*
X198490569Y-76918110D01*
X198439560Y-77170000D01*
X198439560Y-77770000D01*
X198483838Y-78005317D01*
X198622910Y-78221441D01*
X198835110Y-78366431D01*
X199087000Y-78417440D01*
X200587000Y-78417440D01*
X200822317Y-78373162D01*
X201038441Y-78234090D01*
X201183431Y-78021890D01*
X201234440Y-77770000D01*
X201234440Y-77170000D01*
X201190162Y-76934683D01*
X201126322Y-76835472D01*
X201183431Y-76751890D01*
X201234440Y-76500000D01*
X201234440Y-75900000D01*
X201190162Y-75664683D01*
X201126322Y-75565472D01*
X201183431Y-75481890D01*
X201234440Y-75230000D01*
X201234440Y-74850995D01*
X201247901Y-74842001D01*
X201952374Y-74137528D01*
X201971678Y-74167528D01*
X201971678Y-74167528D01*
G37*
X201971678Y-74167528D02*
X201914569Y-74251110D01*
X201863560Y-74503000D01*
X201863560Y-75103000D01*
X201907838Y-75338317D01*
X201971678Y-75437528D01*
X201914569Y-75521110D01*
X201863560Y-75773000D01*
X201863560Y-76373000D01*
X201907838Y-76608317D01*
X201966178Y-76698980D01*
X201876000Y-76916690D01*
X201876000Y-77057250D01*
X202034750Y-77216000D01*
X203134000Y-77216000D01*
X203134000Y-77196000D01*
X203388000Y-77196000D01*
X203388000Y-77216000D01*
X203408000Y-77216000D01*
X203408000Y-77470000D01*
X203388000Y-77470000D01*
X203388000Y-77490000D01*
X203134000Y-77490000D01*
X203134000Y-77470000D01*
X202034750Y-77470000D01*
X201876000Y-77628750D01*
X201876000Y-77769310D01*
X201972673Y-78002699D01*
X202151302Y-78181327D01*
X202384691Y-78278000D01*
X202821498Y-78278000D01*
X201662870Y-79436628D01*
X201618627Y-79392308D01*
X201275099Y-79249662D01*
X201228223Y-79249621D01*
X200850501Y-78871899D01*
X200603939Y-78707152D01*
X200313100Y-78649300D01*
X196942700Y-78649300D01*
X196651861Y-78707152D01*
X196405299Y-78871899D01*
X186745381Y-88531817D01*
X186715100Y-88519243D01*
X186159339Y-88518758D01*
X185645697Y-88730990D01*
X185252371Y-89123630D01*
X185166051Y-89331512D01*
X185081010Y-89125697D01*
X184688370Y-88732371D01*
X184656000Y-88718930D01*
X184656000Y-82632602D01*
X189532852Y-77755750D01*
X193052000Y-77755750D01*
X193052000Y-77896310D01*
X193148673Y-78129699D01*
X193327302Y-78308327D01*
X193560691Y-78405000D01*
X194151250Y-78405000D01*
X194310000Y-78246250D01*
X194310000Y-77597000D01*
X194564000Y-77597000D01*
X194564000Y-78246250D01*
X194722750Y-78405000D01*
X195313309Y-78405000D01*
X195546698Y-78308327D01*
X195725327Y-78129699D01*
X195822000Y-77896310D01*
X195822000Y-77755750D01*
X195663250Y-77597000D01*
X194564000Y-77597000D01*
X194310000Y-77597000D01*
X193210750Y-77597000D01*
X193052000Y-77755750D01*
X189532852Y-77755750D01*
X192058906Y-75229696D01*
X192132273Y-75303192D01*
X192475801Y-75445838D01*
X192522677Y-75445879D01*
X192544199Y-75467401D01*
X192790760Y-75632148D01*
X192839014Y-75641746D01*
X193081600Y-75690000D01*
X193082086Y-75690000D01*
X193039560Y-75900000D01*
X193039560Y-76500000D01*
X193083838Y-76735317D01*
X193142178Y-76825980D01*
X193052000Y-77043690D01*
X193052000Y-77184250D01*
X193210750Y-77343000D01*
X194310000Y-77343000D01*
X194310000Y-77323000D01*
X194564000Y-77323000D01*
X194564000Y-77343000D01*
X195663250Y-77343000D01*
X195822000Y-77184250D01*
X195822000Y-77043690D01*
X195766398Y-76909456D01*
X195803139Y-76902148D01*
X196049701Y-76737401D01*
X197722502Y-75064600D01*
X198439560Y-75064600D01*
X198439560Y-75230000D01*
X198483838Y-75465317D01*
X198547678Y-75564528D01*
X198490569Y-75648110D01*
X198439560Y-75900000D01*
X198439560Y-76500000D01*
X198483838Y-76735317D01*
X198547678Y-76834528D01*
X198490569Y-76918110D01*
X198439560Y-77170000D01*
X198439560Y-77770000D01*
X198483838Y-78005317D01*
X198622910Y-78221441D01*
X198835110Y-78366431D01*
X199087000Y-78417440D01*
X200587000Y-78417440D01*
X200822317Y-78373162D01*
X201038441Y-78234090D01*
X201183431Y-78021890D01*
X201234440Y-77770000D01*
X201234440Y-77170000D01*
X201190162Y-76934683D01*
X201126322Y-76835472D01*
X201183431Y-76751890D01*
X201234440Y-76500000D01*
X201234440Y-75900000D01*
X201190162Y-75664683D01*
X201126322Y-75565472D01*
X201183431Y-75481890D01*
X201234440Y-75230000D01*
X201234440Y-74850995D01*
X201247901Y-74842001D01*
X201952374Y-74137528D01*
X201971678Y-74167528D01*
G36*
X200619000Y-58140600D02*
X200639000Y-58140600D01*
X200639000Y-58394600D01*
X200619000Y-58394600D01*
X200619000Y-59587755D01*
X200752232Y-59658066D01*
X200076700Y-60333598D01*
X200076700Y-59684883D01*
X200135110Y-59709076D01*
X200365000Y-59587755D01*
X200365000Y-58394600D01*
X200345000Y-58394600D01*
X200345000Y-58140600D01*
X200365000Y-58140600D01*
X200365000Y-58120600D01*
X200619000Y-58120600D01*
X200619000Y-58140600D01*
X200619000Y-58140600D01*
G37*
X200619000Y-58140600D02*
X200639000Y-58140600D01*
X200639000Y-58394600D01*
X200619000Y-58394600D01*
X200619000Y-59587755D01*
X200752232Y-59658066D01*
X200076700Y-60333598D01*
X200076700Y-59684883D01*
X200135110Y-59709076D01*
X200365000Y-59587755D01*
X200365000Y-58394600D01*
X200345000Y-58394600D01*
X200345000Y-58140600D01*
X200365000Y-58140600D01*
X200365000Y-58120600D01*
X200619000Y-58120600D01*
X200619000Y-58140600D01*
G36*
X190459000Y-58140600D02*
X190479000Y-58140600D01*
X190479000Y-58394600D01*
X190459000Y-58394600D01*
X190459000Y-59587755D01*
X190688890Y-59709076D01*
X191098924Y-59539245D01*
X191527183Y-59148958D01*
X191594298Y-59006047D01*
X191821946Y-59346747D01*
X192134402Y-59555523D01*
X192169852Y-59733739D01*
X192334599Y-59980301D01*
X192460098Y-60105800D01*
X183854902Y-60105800D01*
X183344163Y-59595061D01*
X183478924Y-59539245D01*
X183907183Y-59148958D01*
X183974298Y-59006047D01*
X184201946Y-59346747D01*
X184683715Y-59668654D01*
X185252000Y-59781693D01*
X185820285Y-59668654D01*
X186302054Y-59346747D01*
X186522000Y-59017574D01*
X186741946Y-59346747D01*
X187223715Y-59668654D01*
X187792000Y-59781693D01*
X188360285Y-59668654D01*
X188842054Y-59346747D01*
X189069702Y-59006047D01*
X189136817Y-59148958D01*
X189565076Y-59539245D01*
X189975110Y-59709076D01*
X190205000Y-59587755D01*
X190205000Y-58394600D01*
X190185000Y-58394600D01*
X190185000Y-58140600D01*
X190205000Y-58140600D01*
X190205000Y-58120600D01*
X190459000Y-58120600D01*
X190459000Y-58140600D01*
X190459000Y-58140600D01*
G37*
X190459000Y-58140600D02*
X190479000Y-58140600D01*
X190479000Y-58394600D01*
X190459000Y-58394600D01*
X190459000Y-59587755D01*
X190688890Y-59709076D01*
X191098924Y-59539245D01*
X191527183Y-59148958D01*
X191594298Y-59006047D01*
X191821946Y-59346747D01*
X192134402Y-59555523D01*
X192169852Y-59733739D01*
X192334599Y-59980301D01*
X192460098Y-60105800D01*
X183854902Y-60105800D01*
X183344163Y-59595061D01*
X183478924Y-59539245D01*
X183907183Y-59148958D01*
X183974298Y-59006047D01*
X184201946Y-59346747D01*
X184683715Y-59668654D01*
X185252000Y-59781693D01*
X185820285Y-59668654D01*
X186302054Y-59346747D01*
X186522000Y-59017574D01*
X186741946Y-59346747D01*
X187223715Y-59668654D01*
X187792000Y-59781693D01*
X188360285Y-59668654D01*
X188842054Y-59346747D01*
X189069702Y-59006047D01*
X189136817Y-59148958D01*
X189565076Y-59539245D01*
X189975110Y-59709076D01*
X190205000Y-59587755D01*
X190205000Y-58394600D01*
X190185000Y-58394600D01*
X190185000Y-58140600D01*
X190205000Y-58140600D01*
X190205000Y-58120600D01*
X190459000Y-58120600D01*
X190459000Y-58140600D01*
G36*
X170139000Y-58140600D02*
X170159000Y-58140600D01*
X170159000Y-58394600D01*
X170139000Y-58394600D01*
X170139000Y-58414600D01*
X169885000Y-58414600D01*
X169885000Y-58394600D01*
X169865000Y-58394600D01*
X169865000Y-58140600D01*
X169885000Y-58140600D01*
X169885000Y-58120600D01*
X170139000Y-58120600D01*
X170139000Y-58140600D01*
X170139000Y-58140600D01*
G37*
X170139000Y-58140600D02*
X170159000Y-58140600D01*
X170159000Y-58394600D01*
X170139000Y-58394600D01*
X170139000Y-58414600D01*
X169885000Y-58414600D01*
X169885000Y-58394600D01*
X169865000Y-58394600D01*
X169865000Y-58140600D01*
X169885000Y-58140600D01*
X169885000Y-58120600D01*
X170139000Y-58120600D01*
X170139000Y-58140600D01*
G36*
X182839000Y-58140600D02*
X182859000Y-58140600D01*
X182859000Y-58394600D01*
X182839000Y-58394600D01*
X182839000Y-58414600D01*
X182585000Y-58414600D01*
X182585000Y-58394600D01*
X182565000Y-58394600D01*
X182565000Y-58140600D01*
X182585000Y-58140600D01*
X182585000Y-58120600D01*
X182839000Y-58120600D01*
X182839000Y-58140600D01*
X182839000Y-58140600D01*
G37*
X182839000Y-58140600D02*
X182859000Y-58140600D01*
X182859000Y-58394600D01*
X182839000Y-58394600D01*
X182839000Y-58414600D01*
X182585000Y-58414600D01*
X182585000Y-58394600D01*
X182565000Y-58394600D01*
X182565000Y-58140600D01*
X182585000Y-58140600D01*
X182585000Y-58120600D01*
X182839000Y-58120600D01*
X182839000Y-58140600D01*
G36*
X165059000Y-58140600D02*
X165079000Y-58140600D01*
X165079000Y-58394600D01*
X165059000Y-58394600D01*
X165059000Y-58414600D01*
X164805000Y-58414600D01*
X164805000Y-58394600D01*
X164785000Y-58394600D01*
X164785000Y-58140600D01*
X164805000Y-58140600D01*
X164805000Y-58120600D01*
X165059000Y-58120600D01*
X165059000Y-58140600D01*
X165059000Y-58140600D01*
G37*
X165059000Y-58140600D02*
X165079000Y-58140600D01*
X165079000Y-58394600D01*
X165059000Y-58394600D01*
X165059000Y-58414600D01*
X164805000Y-58414600D01*
X164805000Y-58394600D01*
X164785000Y-58394600D01*
X164785000Y-58140600D01*
X164805000Y-58140600D01*
X164805000Y-58120600D01*
X165059000Y-58120600D01*
X165059000Y-58140600D01*
G36*
X157439000Y-55600600D02*
X157459000Y-55600600D01*
X157459000Y-55854600D01*
X157439000Y-55854600D01*
X157439000Y-55874600D01*
X157185000Y-55874600D01*
X157185000Y-55854600D01*
X157165000Y-55854600D01*
X157165000Y-55600600D01*
X157185000Y-55600600D01*
X157185000Y-55580600D01*
X157439000Y-55580600D01*
X157439000Y-55600600D01*
X157439000Y-55600600D01*
G37*
X157439000Y-55600600D02*
X157459000Y-55600600D01*
X157459000Y-55854600D01*
X157439000Y-55854600D01*
X157439000Y-55874600D01*
X157185000Y-55874600D01*
X157185000Y-55854600D01*
X157165000Y-55854600D01*
X157165000Y-55600600D01*
X157185000Y-55600600D01*
X157185000Y-55580600D01*
X157439000Y-55580600D01*
X157439000Y-55600600D01*
G36*
X195539000Y-55600600D02*
X195559000Y-55600600D01*
X195559000Y-55854600D01*
X195539000Y-55854600D01*
X195539000Y-55874600D01*
X195285000Y-55874600D01*
X195285000Y-55854600D01*
X195265000Y-55854600D01*
X195265000Y-55600600D01*
X195285000Y-55600600D01*
X195285000Y-55580600D01*
X195539000Y-55580600D01*
X195539000Y-55600600D01*
X195539000Y-55600600D01*
G37*
X195539000Y-55600600D02*
X195559000Y-55600600D01*
X195559000Y-55854600D01*
X195539000Y-55854600D01*
X195539000Y-55874600D01*
X195285000Y-55874600D01*
X195285000Y-55854600D01*
X195265000Y-55854600D01*
X195265000Y-55600600D01*
X195285000Y-55600600D01*
X195285000Y-55580600D01*
X195539000Y-55580600D01*
X195539000Y-55600600D01*
G36*
X175219000Y-55600600D02*
X175239000Y-55600600D01*
X175239000Y-55854600D01*
X175219000Y-55854600D01*
X175219000Y-55874600D01*
X174965000Y-55874600D01*
X174965000Y-55854600D01*
X174945000Y-55854600D01*
X174945000Y-55600600D01*
X174965000Y-55600600D01*
X174965000Y-55580600D01*
X175219000Y-55580600D01*
X175219000Y-55600600D01*
X175219000Y-55600600D01*
G37*
X175219000Y-55600600D02*
X175239000Y-55600600D01*
X175239000Y-55854600D01*
X175219000Y-55854600D01*
X175219000Y-55874600D01*
X174965000Y-55874600D01*
X174965000Y-55854600D01*
X174945000Y-55854600D01*
X174945000Y-55600600D01*
X174965000Y-55600600D01*
X174965000Y-55580600D01*
X175219000Y-55580600D01*
X175219000Y-55600600D01*
M02*
