G04 #@! TF.FileFunction,Copper,L2,Bot,Signal*
%FSLAX46Y46*%
G04 Gerber Fmt 4.6, Leading zero omitted, Abs format (unit mm)*
G04 Created by KiCad (PCBNEW 4.0.7) date 12/26/17 02:46:59*
%MOMM*%
%LPD*%
G01*
G04 APERTURE LIST*
%ADD10C,0.100000*%
%ADD11R,1.700000X1.700000*%
%ADD12O,1.700000X1.700000*%
%ADD13R,1.600000X1.600000*%
%ADD14O,1.600000X1.600000*%
%ADD15C,0.250000*%
%ADD16C,0.254000*%
G04 APERTURE END LIST*
D10*
D11*
X252633000Y-59933800D03*
D12*
X255173000Y-59933800D03*
X252633000Y-62473800D03*
X255173000Y-62473800D03*
X252633000Y-65013800D03*
X255173000Y-65013800D03*
X252633000Y-67553800D03*
X255173000Y-67553800D03*
X252633000Y-70093800D03*
X255173000Y-70093800D03*
X252633000Y-72633800D03*
X255173000Y-72633800D03*
X252633000Y-75173800D03*
X255173000Y-75173800D03*
X252633000Y-77713800D03*
X255173000Y-77713800D03*
X252633000Y-80253800D03*
X255173000Y-80253800D03*
X252633000Y-82793800D03*
X255173000Y-82793800D03*
X252633000Y-85333800D03*
X255173000Y-85333800D03*
X252633000Y-87873800D03*
X255173000Y-87873800D03*
X252633000Y-90413800D03*
X255173000Y-90413800D03*
X252633000Y-92953800D03*
X255173000Y-92953800D03*
X252633000Y-95493800D03*
X255173000Y-95493800D03*
X252633000Y-98033800D03*
X255173000Y-98033800D03*
X252633000Y-100573800D03*
X255173000Y-100573800D03*
X252633000Y-103113800D03*
X255173000Y-103113800D03*
X252633000Y-105653800D03*
X255173000Y-105653800D03*
X252633000Y-108193800D03*
X255173000Y-108193800D03*
D11*
X215633000Y-105334000D03*
D12*
X213093000Y-105334000D03*
X215633000Y-102794000D03*
X213093000Y-102794000D03*
X215633000Y-100254000D03*
X213093000Y-100254000D03*
X215633000Y-97714000D03*
X213093000Y-97714000D03*
X215633000Y-95174000D03*
X213093000Y-95174000D03*
X215633000Y-92634000D03*
X213093000Y-92634000D03*
X215633000Y-90094000D03*
X213093000Y-90094000D03*
X215633000Y-87554000D03*
X213093000Y-87554000D03*
X215633000Y-85014000D03*
X213093000Y-85014000D03*
X215633000Y-82474000D03*
X213093000Y-82474000D03*
X215633000Y-79934000D03*
X213093000Y-79934000D03*
X215633000Y-77394000D03*
X213093000Y-77394000D03*
X215633000Y-74854000D03*
X213093000Y-74854000D03*
X215633000Y-72314000D03*
X213093000Y-72314000D03*
X215633000Y-69774000D03*
X213093000Y-69774000D03*
X215633000Y-67234000D03*
X213093000Y-67234000D03*
X215633000Y-64694000D03*
X213093000Y-64694000D03*
D13*
X237579000Y-81280000D03*
D14*
X229959000Y-58420000D03*
X237579000Y-78740000D03*
X229959000Y-60960000D03*
X237579000Y-76200000D03*
X229959000Y-63500000D03*
X237579000Y-73660000D03*
X229959000Y-66040000D03*
X237579000Y-71120000D03*
X229959000Y-68580000D03*
X237579000Y-68580000D03*
X229959000Y-71120000D03*
X237579000Y-66040000D03*
X229959000Y-73660000D03*
X237579000Y-63500000D03*
X229959000Y-76200000D03*
X237579000Y-60960000D03*
X229959000Y-78740000D03*
X237579000Y-58420000D03*
X229959000Y-81280000D03*
D13*
X237579000Y-110363000D03*
D14*
X229959000Y-87503000D03*
X237579000Y-107823000D03*
X229959000Y-90043000D03*
X237579000Y-105283000D03*
X229959000Y-92583000D03*
X237579000Y-102743000D03*
X229959000Y-95123000D03*
X237579000Y-100203000D03*
X229959000Y-97663000D03*
X237579000Y-97663000D03*
X229959000Y-100203000D03*
X237579000Y-95123000D03*
X229959000Y-102743000D03*
X237579000Y-92583000D03*
X229959000Y-105283000D03*
X237579000Y-90043000D03*
X229959000Y-107823000D03*
X237579000Y-87503000D03*
X229959000Y-110363000D03*
D15*
X253997700Y-67186400D02*
X253997700Y-67553800D01*
X253189800Y-66378500D02*
X253997700Y-67186400D01*
X244122800Y-66378500D02*
X253189800Y-66378500D01*
X238704300Y-60960000D02*
X244122800Y-66378500D01*
X237579000Y-60960000D02*
X238704300Y-60960000D01*
X255173000Y-67553800D02*
X253997700Y-67553800D01*
X253997700Y-69726400D02*
X253997700Y-70093800D01*
X253189800Y-68918500D02*
X253997700Y-69726400D01*
X250691900Y-68918500D02*
X253189800Y-68918500D01*
X248713600Y-66940200D02*
X250691900Y-68918500D01*
X242144500Y-66940200D02*
X248713600Y-66940200D01*
X238704300Y-63500000D02*
X242144500Y-66940200D01*
X237579000Y-63500000D02*
X238704300Y-63500000D01*
X255173000Y-70093800D02*
X253997700Y-70093800D01*
X242758100Y-75173800D02*
X252633000Y-75173800D01*
X238704300Y-71120000D02*
X242758100Y-75173800D01*
X237579000Y-71120000D02*
X238704300Y-71120000D01*
X253997700Y-72266400D02*
X253997700Y-72633800D01*
X253189800Y-71458500D02*
X253997700Y-72266400D01*
X251402100Y-71458500D02*
X253189800Y-71458500D01*
X247544400Y-67600800D02*
X251402100Y-71458500D01*
X240265100Y-67600800D02*
X247544400Y-67600800D01*
X238704300Y-66040000D02*
X240265100Y-67600800D01*
X237579000Y-66040000D02*
X238704300Y-66040000D01*
X255173000Y-72633800D02*
X253997700Y-72633800D01*
X242758100Y-77713800D02*
X252633000Y-77713800D01*
X238704300Y-73660000D02*
X242758100Y-77713800D01*
X237579000Y-73660000D02*
X238704300Y-73660000D01*
X253997700Y-78081200D02*
X253997700Y-77713800D01*
X253189800Y-78889100D02*
X253997700Y-78081200D01*
X241393400Y-78889100D02*
X253189800Y-78889100D01*
X238704300Y-76200000D02*
X241393400Y-78889100D01*
X237579000Y-76200000D02*
X238704300Y-76200000D01*
X255173000Y-77713800D02*
X253997700Y-77713800D01*
X253997700Y-80621200D02*
X253997700Y-80253800D01*
X253189800Y-81429100D02*
X253997700Y-80621200D01*
X241393400Y-81429100D02*
X253189800Y-81429100D01*
X238704300Y-78740000D02*
X241393400Y-81429100D01*
X237579000Y-78740000D02*
X238704300Y-78740000D01*
X255173000Y-80253800D02*
X253997700Y-80253800D01*
X247403900Y-68580000D02*
X251457700Y-72633800D01*
X237579000Y-68580000D02*
X247403900Y-68580000D01*
X252633000Y-72633800D02*
X251457700Y-72633800D01*
X253997700Y-93321200D02*
X253997700Y-92953800D01*
X253189800Y-94129100D02*
X253997700Y-93321200D01*
X242238200Y-94129100D02*
X253189800Y-94129100D01*
X238704300Y-97663000D02*
X242238200Y-94129100D01*
X237579000Y-97663000D02*
X238704300Y-97663000D01*
X255173000Y-92953800D02*
X253997700Y-92953800D01*
X246748500Y-100203000D02*
X251457700Y-95493800D01*
X237579000Y-100203000D02*
X246748500Y-100203000D01*
X252633000Y-95493800D02*
X251457700Y-95493800D01*
X244208500Y-105283000D02*
X251457700Y-98033800D01*
X237579000Y-105283000D02*
X244208500Y-105283000D01*
X252633000Y-98033800D02*
X251457700Y-98033800D01*
X216808300Y-88177600D02*
X216808300Y-87554000D01*
X228833700Y-100203000D02*
X216808300Y-88177600D01*
X229959000Y-100203000D02*
X228833700Y-100203000D01*
X215633000Y-87554000D02*
X216808300Y-87554000D01*
X218724700Y-85014000D02*
X215633000Y-85014000D01*
X228833700Y-95123000D02*
X218724700Y-85014000D01*
X229959000Y-95123000D02*
X228833700Y-95123000D01*
X229959000Y-90043000D02*
X228833700Y-90043000D01*
X221264700Y-82474000D02*
X215633000Y-82474000D01*
X228833700Y-90043000D02*
X221264700Y-82474000D01*
X221264700Y-79934000D02*
X215633000Y-79934000D01*
X228833700Y-87503000D02*
X221264700Y-79934000D01*
X229959000Y-87503000D02*
X228833700Y-87503000D01*
X225622300Y-63500000D02*
X216808300Y-72314000D01*
X229959000Y-63500000D02*
X225622300Y-63500000D01*
X215633000Y-72314000D02*
X216808300Y-72314000D01*
X229959000Y-105283000D02*
X229959000Y-104157700D01*
X213093000Y-90094000D02*
X214268300Y-90094000D01*
X214268300Y-90461400D02*
X214268300Y-90094000D01*
X215076200Y-91269300D02*
X214268300Y-90461400D01*
X216887000Y-91269300D02*
X215076200Y-91269300D01*
X229775400Y-104157700D02*
X216887000Y-91269300D01*
X229959000Y-104157700D02*
X229775400Y-104157700D01*
X214268300Y-87921400D02*
X214268300Y-87554000D01*
X215076200Y-88729300D02*
X214268300Y-87921400D01*
X215945300Y-88729300D02*
X215076200Y-88729300D01*
X229959000Y-102743000D02*
X215945300Y-88729300D01*
X213093000Y-87554000D02*
X214268300Y-87554000D01*
X214268300Y-85381400D02*
X214268300Y-85014000D01*
X215076200Y-86189300D02*
X214268300Y-85381400D01*
X217360000Y-86189300D02*
X215076200Y-86189300D01*
X228833700Y-97663000D02*
X217360000Y-86189300D01*
X229959000Y-97663000D02*
X228833700Y-97663000D01*
X213093000Y-85014000D02*
X214268300Y-85014000D01*
X214268300Y-82841400D02*
X214268300Y-82474000D01*
X215076200Y-83649300D02*
X214268300Y-82841400D01*
X219900000Y-83649300D02*
X215076200Y-83649300D01*
X228833700Y-92583000D02*
X219900000Y-83649300D01*
X229959000Y-92583000D02*
X228833700Y-92583000D01*
X213093000Y-82474000D02*
X214268300Y-82474000D01*
X229959000Y-66040000D02*
X228833700Y-66040000D01*
X213093000Y-74854000D02*
X214268300Y-74854000D01*
X237579000Y-110363000D02*
X237579000Y-109237700D01*
X221195000Y-76575200D02*
X221195000Y-73678700D01*
X236453700Y-91833900D02*
X221195000Y-76575200D01*
X236453700Y-108393800D02*
X236453700Y-91833900D01*
X237297600Y-109237700D02*
X236453700Y-108393800D01*
X237579000Y-109237700D02*
X237297600Y-109237700D01*
X228833700Y-66040000D02*
X221195000Y-73678700D01*
X214268300Y-74486600D02*
X214268300Y-74854000D01*
X215076200Y-73678700D02*
X214268300Y-74486600D01*
X221195000Y-73678700D02*
X215076200Y-73678700D01*
D16*
G36*
X255051383Y-52447974D02*
X255988119Y-53026451D01*
X256633701Y-53921482D01*
X256896800Y-55000140D01*
X256896800Y-112883993D01*
X256707384Y-114053835D01*
X256128905Y-114990572D01*
X255233876Y-115636153D01*
X254155218Y-115899252D01*
X204862710Y-115899252D01*
X203710717Y-115712726D01*
X202773980Y-115134247D01*
X202128399Y-114239218D01*
X201862760Y-113150147D01*
X201862760Y-113080800D01*
X203241810Y-113080800D01*
X203369136Y-113720911D01*
X203731730Y-114263570D01*
X204274389Y-114626164D01*
X204914500Y-114753490D01*
X205554611Y-114626164D01*
X206097270Y-114263570D01*
X206459864Y-113720911D01*
X206584663Y-113093500D01*
X252238410Y-113093500D01*
X252365736Y-113733611D01*
X252728330Y-114276270D01*
X253270989Y-114638864D01*
X253911100Y-114766190D01*
X254551211Y-114638864D01*
X255093870Y-114276270D01*
X255456464Y-113733611D01*
X255583790Y-113093500D01*
X255456464Y-112453389D01*
X255093870Y-111910730D01*
X254551211Y-111548136D01*
X253911100Y-111420810D01*
X253270989Y-111548136D01*
X252728330Y-111910730D01*
X252365736Y-112453389D01*
X252238410Y-113093500D01*
X206584663Y-113093500D01*
X206587190Y-113080800D01*
X206459864Y-112440689D01*
X206097270Y-111898030D01*
X205554611Y-111535436D01*
X204914500Y-111408110D01*
X204274389Y-111535436D01*
X203731730Y-111898030D01*
X203369136Y-112440689D01*
X203241810Y-113080800D01*
X201862760Y-113080800D01*
X201862760Y-67234000D01*
X211578907Y-67234000D01*
X211691946Y-67802285D01*
X212013853Y-68284054D01*
X212343026Y-68504000D01*
X212013853Y-68723946D01*
X211691946Y-69205715D01*
X211578907Y-69774000D01*
X211691946Y-70342285D01*
X212013853Y-70824054D01*
X212343026Y-71044000D01*
X212013853Y-71263946D01*
X211691946Y-71745715D01*
X211578907Y-72314000D01*
X211691946Y-72882285D01*
X212013853Y-73364054D01*
X212343026Y-73584000D01*
X212013853Y-73803946D01*
X211691946Y-74285715D01*
X211578907Y-74854000D01*
X211691946Y-75422285D01*
X212013853Y-75904054D01*
X212343026Y-76124000D01*
X212013853Y-76343946D01*
X211691946Y-76825715D01*
X211578907Y-77394000D01*
X211691946Y-77962285D01*
X212013853Y-78444054D01*
X212343026Y-78664000D01*
X212013853Y-78883946D01*
X211691946Y-79365715D01*
X211578907Y-79934000D01*
X211691946Y-80502285D01*
X212013853Y-80984054D01*
X212343026Y-81204000D01*
X212013853Y-81423946D01*
X211691946Y-81905715D01*
X211578907Y-82474000D01*
X211691946Y-83042285D01*
X212013853Y-83524054D01*
X212343026Y-83744000D01*
X212013853Y-83963946D01*
X211691946Y-84445715D01*
X211578907Y-85014000D01*
X211691946Y-85582285D01*
X212013853Y-86064054D01*
X212343026Y-86284000D01*
X212013853Y-86503946D01*
X211691946Y-86985715D01*
X211578907Y-87554000D01*
X211691946Y-88122285D01*
X212013853Y-88604054D01*
X212343026Y-88824000D01*
X212013853Y-89043946D01*
X211691946Y-89525715D01*
X211578907Y-90094000D01*
X211691946Y-90662285D01*
X212013853Y-91144054D01*
X212343026Y-91364000D01*
X212013853Y-91583946D01*
X211691946Y-92065715D01*
X211578907Y-92634000D01*
X211691946Y-93202285D01*
X212013853Y-93684054D01*
X212343026Y-93904000D01*
X212013853Y-94123946D01*
X211691946Y-94605715D01*
X211578907Y-95174000D01*
X211691946Y-95742285D01*
X212013853Y-96224054D01*
X212343026Y-96444000D01*
X212013853Y-96663946D01*
X211691946Y-97145715D01*
X211578907Y-97714000D01*
X211691946Y-98282285D01*
X212013853Y-98764054D01*
X212343026Y-98984000D01*
X212013853Y-99203946D01*
X211691946Y-99685715D01*
X211578907Y-100254000D01*
X211691946Y-100822285D01*
X212013853Y-101304054D01*
X212343026Y-101524000D01*
X212013853Y-101743946D01*
X211691946Y-102225715D01*
X211578907Y-102794000D01*
X211691946Y-103362285D01*
X212013853Y-103844054D01*
X212343026Y-104064000D01*
X212013853Y-104283946D01*
X211691946Y-104765715D01*
X211578907Y-105334000D01*
X211691946Y-105902285D01*
X212013853Y-106384054D01*
X212495622Y-106705961D01*
X213063907Y-106819000D01*
X213122093Y-106819000D01*
X213690378Y-106705961D01*
X214172147Y-106384054D01*
X214172971Y-106382821D01*
X214179838Y-106419317D01*
X214318910Y-106635441D01*
X214531110Y-106780431D01*
X214783000Y-106831440D01*
X216483000Y-106831440D01*
X216718317Y-106787162D01*
X216934441Y-106648090D01*
X217079431Y-106435890D01*
X217130440Y-106184000D01*
X217130440Y-104484000D01*
X217086162Y-104248683D01*
X216947090Y-104032559D01*
X216734890Y-103887569D01*
X216667459Y-103873914D01*
X216712147Y-103844054D01*
X217034054Y-103362285D01*
X217147093Y-102794000D01*
X217034054Y-102225715D01*
X216712147Y-101743946D01*
X216382974Y-101524000D01*
X216712147Y-101304054D01*
X217034054Y-100822285D01*
X217147093Y-100254000D01*
X217034054Y-99685715D01*
X216712147Y-99203946D01*
X216382974Y-98984000D01*
X216712147Y-98764054D01*
X217034054Y-98282285D01*
X217147093Y-97714000D01*
X217034054Y-97145715D01*
X216712147Y-96663946D01*
X216382974Y-96444000D01*
X216712147Y-96224054D01*
X217034054Y-95742285D01*
X217147093Y-95174000D01*
X217034054Y-94605715D01*
X216712147Y-94123946D01*
X216382974Y-93904000D01*
X216712147Y-93684054D01*
X217034054Y-93202285D01*
X217147093Y-92634000D01*
X217139692Y-92596794D01*
X228874136Y-104331238D01*
X228605120Y-104733849D01*
X228495887Y-105283000D01*
X228605120Y-105832151D01*
X228916189Y-106297698D01*
X229298275Y-106553000D01*
X228916189Y-106808302D01*
X228605120Y-107273849D01*
X228495887Y-107823000D01*
X228605120Y-108372151D01*
X228916189Y-108837698D01*
X229298275Y-109093000D01*
X228916189Y-109348302D01*
X228605120Y-109813849D01*
X228495887Y-110363000D01*
X228605120Y-110912151D01*
X228916189Y-111377698D01*
X229381736Y-111688767D01*
X229930887Y-111798000D01*
X229987113Y-111798000D01*
X230536264Y-111688767D01*
X231001811Y-111377698D01*
X231312880Y-110912151D01*
X231422113Y-110363000D01*
X231312880Y-109813849D01*
X231001811Y-109348302D01*
X230619725Y-109093000D01*
X231001811Y-108837698D01*
X231312880Y-108372151D01*
X231422113Y-107823000D01*
X231312880Y-107273849D01*
X231001811Y-106808302D01*
X230619725Y-106553000D01*
X231001811Y-106297698D01*
X231312880Y-105832151D01*
X231422113Y-105283000D01*
X231312880Y-104733849D01*
X231001811Y-104268302D01*
X230701022Y-104067321D01*
X230681947Y-103971424D01*
X231001811Y-103757698D01*
X231312880Y-103292151D01*
X231422113Y-102743000D01*
X231312880Y-102193849D01*
X231001811Y-101728302D01*
X230619725Y-101473000D01*
X231001811Y-101217698D01*
X231312880Y-100752151D01*
X231422113Y-100203000D01*
X231312880Y-99653849D01*
X231001811Y-99188302D01*
X230619725Y-98933000D01*
X231001811Y-98677698D01*
X231312880Y-98212151D01*
X231422113Y-97663000D01*
X231312880Y-97113849D01*
X231001811Y-96648302D01*
X230619725Y-96393000D01*
X231001811Y-96137698D01*
X231312880Y-95672151D01*
X231422113Y-95123000D01*
X231312880Y-94573849D01*
X231001811Y-94108302D01*
X230619725Y-93853000D01*
X231001811Y-93597698D01*
X231312880Y-93132151D01*
X231422113Y-92583000D01*
X231312880Y-92033849D01*
X231001811Y-91568302D01*
X230619725Y-91313000D01*
X231001811Y-91057698D01*
X231312880Y-90592151D01*
X231422113Y-90043000D01*
X231312880Y-89493849D01*
X231001811Y-89028302D01*
X230619725Y-88773000D01*
X231001811Y-88517698D01*
X231312880Y-88052151D01*
X231360043Y-87815045D01*
X235693700Y-92148702D01*
X235693700Y-108393800D01*
X235751552Y-108684639D01*
X235916299Y-108931201D01*
X236228697Y-109243599D01*
X236182569Y-109311110D01*
X236131560Y-109563000D01*
X236131560Y-111163000D01*
X236175838Y-111398317D01*
X236314910Y-111614441D01*
X236527110Y-111759431D01*
X236779000Y-111810440D01*
X238379000Y-111810440D01*
X238614317Y-111766162D01*
X238830441Y-111627090D01*
X238975431Y-111414890D01*
X239026440Y-111163000D01*
X239026440Y-109563000D01*
X238982162Y-109327683D01*
X238843090Y-109111559D01*
X238630890Y-108966569D01*
X238475911Y-108935185D01*
X238621811Y-108837698D01*
X238813583Y-108550690D01*
X251191524Y-108550690D01*
X251361355Y-108960724D01*
X251751642Y-109388983D01*
X252276108Y-109635286D01*
X252506000Y-109514619D01*
X252506000Y-108320800D01*
X251312845Y-108320800D01*
X251191524Y-108550690D01*
X238813583Y-108550690D01*
X238932880Y-108372151D01*
X239042113Y-107823000D01*
X238932880Y-107273849D01*
X238621811Y-106808302D01*
X238239725Y-106553000D01*
X238621811Y-106297698D01*
X238791995Y-106043000D01*
X244208500Y-106043000D01*
X244499339Y-105985148D01*
X244745901Y-105820401D01*
X251525252Y-99041050D01*
X251553853Y-99083854D01*
X251883026Y-99303800D01*
X251553853Y-99523746D01*
X251231946Y-100005515D01*
X251118907Y-100573800D01*
X251231946Y-101142085D01*
X251553853Y-101623854D01*
X251883026Y-101843800D01*
X251553853Y-102063746D01*
X251231946Y-102545515D01*
X251118907Y-103113800D01*
X251231946Y-103682085D01*
X251553853Y-104163854D01*
X251883026Y-104383800D01*
X251553853Y-104603746D01*
X251231946Y-105085515D01*
X251118907Y-105653800D01*
X251231946Y-106222085D01*
X251553853Y-106703854D01*
X251894553Y-106931502D01*
X251751642Y-106998617D01*
X251361355Y-107426876D01*
X251191524Y-107836910D01*
X251312845Y-108066800D01*
X252506000Y-108066800D01*
X252506000Y-108046800D01*
X252760000Y-108046800D01*
X252760000Y-108066800D01*
X252780000Y-108066800D01*
X252780000Y-108320800D01*
X252760000Y-108320800D01*
X252760000Y-109514619D01*
X252989892Y-109635286D01*
X253514358Y-109388983D01*
X253904645Y-108960724D01*
X253904655Y-108960699D01*
X254093853Y-109243854D01*
X254575622Y-109565761D01*
X255143907Y-109678800D01*
X255202093Y-109678800D01*
X255770378Y-109565761D01*
X256252147Y-109243854D01*
X256574054Y-108762085D01*
X256687093Y-108193800D01*
X256574054Y-107625515D01*
X256252147Y-107143746D01*
X255922974Y-106923800D01*
X256252147Y-106703854D01*
X256574054Y-106222085D01*
X256687093Y-105653800D01*
X256574054Y-105085515D01*
X256252147Y-104603746D01*
X255922974Y-104383800D01*
X256252147Y-104163854D01*
X256574054Y-103682085D01*
X256687093Y-103113800D01*
X256574054Y-102545515D01*
X256252147Y-102063746D01*
X255911447Y-101836098D01*
X256054358Y-101768983D01*
X256444645Y-101340724D01*
X256614476Y-100930690D01*
X256493155Y-100700800D01*
X255300000Y-100700800D01*
X255300000Y-100720800D01*
X255046000Y-100720800D01*
X255046000Y-100700800D01*
X255026000Y-100700800D01*
X255026000Y-100446800D01*
X255046000Y-100446800D01*
X255046000Y-100426800D01*
X255300000Y-100426800D01*
X255300000Y-100446800D01*
X256493155Y-100446800D01*
X256614476Y-100216910D01*
X256444645Y-99806876D01*
X256054358Y-99378617D01*
X255911447Y-99311502D01*
X256252147Y-99083854D01*
X256574054Y-98602085D01*
X256687093Y-98033800D01*
X256574054Y-97465515D01*
X256252147Y-96983746D01*
X255911447Y-96756098D01*
X256054358Y-96688983D01*
X256444645Y-96260724D01*
X256614476Y-95850690D01*
X256493155Y-95620800D01*
X255300000Y-95620800D01*
X255300000Y-95640800D01*
X255046000Y-95640800D01*
X255046000Y-95620800D01*
X255026000Y-95620800D01*
X255026000Y-95366800D01*
X255046000Y-95366800D01*
X255046000Y-95346800D01*
X255300000Y-95346800D01*
X255300000Y-95366800D01*
X256493155Y-95366800D01*
X256614476Y-95136910D01*
X256444645Y-94726876D01*
X256054358Y-94298617D01*
X255911447Y-94231502D01*
X256252147Y-94003854D01*
X256574054Y-93522085D01*
X256687093Y-92953800D01*
X256574054Y-92385515D01*
X256252147Y-91903746D01*
X255922974Y-91683800D01*
X256252147Y-91463854D01*
X256574054Y-90982085D01*
X256687093Y-90413800D01*
X256574054Y-89845515D01*
X256252147Y-89363746D01*
X255922974Y-89143800D01*
X256252147Y-88923854D01*
X256574054Y-88442085D01*
X256687093Y-87873800D01*
X256574054Y-87305515D01*
X256252147Y-86823746D01*
X255922974Y-86603800D01*
X256252147Y-86383854D01*
X256574054Y-85902085D01*
X256687093Y-85333800D01*
X256574054Y-84765515D01*
X256252147Y-84283746D01*
X255911447Y-84056098D01*
X256054358Y-83988983D01*
X256444645Y-83560724D01*
X256614476Y-83150690D01*
X256493155Y-82920800D01*
X255300000Y-82920800D01*
X255300000Y-82940800D01*
X255046000Y-82940800D01*
X255046000Y-82920800D01*
X255026000Y-82920800D01*
X255026000Y-82666800D01*
X255046000Y-82666800D01*
X255046000Y-82646800D01*
X255300000Y-82646800D01*
X255300000Y-82666800D01*
X256493155Y-82666800D01*
X256614476Y-82436910D01*
X256444645Y-82026876D01*
X256054358Y-81598617D01*
X255911447Y-81531502D01*
X256252147Y-81303854D01*
X256574054Y-80822085D01*
X256687093Y-80253800D01*
X256574054Y-79685515D01*
X256252147Y-79203746D01*
X255922974Y-78983800D01*
X256252147Y-78763854D01*
X256574054Y-78282085D01*
X256687093Y-77713800D01*
X256574054Y-77145515D01*
X256252147Y-76663746D01*
X255911447Y-76436098D01*
X256054358Y-76368983D01*
X256444645Y-75940724D01*
X256614476Y-75530690D01*
X256493155Y-75300800D01*
X255300000Y-75300800D01*
X255300000Y-75320800D01*
X255046000Y-75320800D01*
X255046000Y-75300800D01*
X255026000Y-75300800D01*
X255026000Y-75046800D01*
X255046000Y-75046800D01*
X255046000Y-75026800D01*
X255300000Y-75026800D01*
X255300000Y-75046800D01*
X256493155Y-75046800D01*
X256614476Y-74816910D01*
X256444645Y-74406876D01*
X256054358Y-73978617D01*
X255911447Y-73911502D01*
X256252147Y-73683854D01*
X256574054Y-73202085D01*
X256687093Y-72633800D01*
X256574054Y-72065515D01*
X256252147Y-71583746D01*
X255922974Y-71363800D01*
X256252147Y-71143854D01*
X256574054Y-70662085D01*
X256687093Y-70093800D01*
X256574054Y-69525515D01*
X256252147Y-69043746D01*
X255922974Y-68823800D01*
X256252147Y-68603854D01*
X256574054Y-68122085D01*
X256687093Y-67553800D01*
X256574054Y-66985515D01*
X256252147Y-66503746D01*
X255911447Y-66276098D01*
X256054358Y-66208983D01*
X256444645Y-65780724D01*
X256614476Y-65370690D01*
X256493155Y-65140800D01*
X255300000Y-65140800D01*
X255300000Y-65160800D01*
X255046000Y-65160800D01*
X255046000Y-65140800D01*
X255026000Y-65140800D01*
X255026000Y-64886800D01*
X255046000Y-64886800D01*
X255046000Y-64866800D01*
X255300000Y-64866800D01*
X255300000Y-64886800D01*
X256493155Y-64886800D01*
X256614476Y-64656910D01*
X256444645Y-64246876D01*
X256054358Y-63818617D01*
X255911447Y-63751502D01*
X256252147Y-63523854D01*
X256574054Y-63042085D01*
X256687093Y-62473800D01*
X256574054Y-61905515D01*
X256252147Y-61423746D01*
X255922974Y-61203800D01*
X256252147Y-60983854D01*
X256574054Y-60502085D01*
X256687093Y-59933800D01*
X256574054Y-59365515D01*
X256252147Y-58883746D01*
X255770378Y-58561839D01*
X255202093Y-58448800D01*
X255143907Y-58448800D01*
X254575622Y-58561839D01*
X254093853Y-58883746D01*
X254093029Y-58884979D01*
X254086162Y-58848483D01*
X253947090Y-58632359D01*
X253734890Y-58487369D01*
X253483000Y-58436360D01*
X251783000Y-58436360D01*
X251547683Y-58480638D01*
X251331559Y-58619710D01*
X251186569Y-58831910D01*
X251135560Y-59083800D01*
X251135560Y-60783800D01*
X251179838Y-61019117D01*
X251318910Y-61235241D01*
X251531110Y-61380231D01*
X251598541Y-61393886D01*
X251553853Y-61423746D01*
X251231946Y-61905515D01*
X251118907Y-62473800D01*
X251231946Y-63042085D01*
X251553853Y-63523854D01*
X251883026Y-63743800D01*
X251553853Y-63963746D01*
X251231946Y-64445515D01*
X251118907Y-65013800D01*
X251231946Y-65582085D01*
X251256278Y-65618500D01*
X244437602Y-65618500D01*
X239241701Y-60422599D01*
X238995139Y-60257852D01*
X238805437Y-60220118D01*
X238621811Y-59945302D01*
X238217297Y-59675014D01*
X238434134Y-59572389D01*
X238810041Y-59157423D01*
X238970904Y-58769039D01*
X238848915Y-58547000D01*
X237706000Y-58547000D01*
X237706000Y-58567000D01*
X237452000Y-58567000D01*
X237452000Y-58547000D01*
X236309085Y-58547000D01*
X236187096Y-58769039D01*
X236347959Y-59157423D01*
X236723866Y-59572389D01*
X236940703Y-59675014D01*
X236536189Y-59945302D01*
X236225120Y-60410849D01*
X236115887Y-60960000D01*
X236225120Y-61509151D01*
X236536189Y-61974698D01*
X236918275Y-62230000D01*
X236536189Y-62485302D01*
X236225120Y-62950849D01*
X236115887Y-63500000D01*
X236225120Y-64049151D01*
X236536189Y-64514698D01*
X236918275Y-64770000D01*
X236536189Y-65025302D01*
X236225120Y-65490849D01*
X236115887Y-66040000D01*
X236225120Y-66589151D01*
X236536189Y-67054698D01*
X236918275Y-67310000D01*
X236536189Y-67565302D01*
X236225120Y-68030849D01*
X236115887Y-68580000D01*
X236225120Y-69129151D01*
X236536189Y-69594698D01*
X236918275Y-69850000D01*
X236536189Y-70105302D01*
X236225120Y-70570849D01*
X236115887Y-71120000D01*
X236225120Y-71669151D01*
X236536189Y-72134698D01*
X236918275Y-72390000D01*
X236536189Y-72645302D01*
X236225120Y-73110849D01*
X236115887Y-73660000D01*
X236225120Y-74209151D01*
X236536189Y-74674698D01*
X236918275Y-74930000D01*
X236536189Y-75185302D01*
X236225120Y-75650849D01*
X236115887Y-76200000D01*
X236225120Y-76749151D01*
X236536189Y-77214698D01*
X236918275Y-77470000D01*
X236536189Y-77725302D01*
X236225120Y-78190849D01*
X236115887Y-78740000D01*
X236225120Y-79289151D01*
X236536189Y-79754698D01*
X236671335Y-79845000D01*
X236652691Y-79845000D01*
X236419302Y-79941673D01*
X236240673Y-80120301D01*
X236144000Y-80353690D01*
X236144000Y-80994250D01*
X236302750Y-81153000D01*
X237452000Y-81153000D01*
X237452000Y-81133000D01*
X237706000Y-81133000D01*
X237706000Y-81153000D01*
X238855250Y-81153000D01*
X239014000Y-80994250D01*
X239014000Y-80353690D01*
X238917327Y-80120301D01*
X238738698Y-79941673D01*
X238505309Y-79845000D01*
X238486665Y-79845000D01*
X238621811Y-79754698D01*
X238630777Y-79741279D01*
X240855999Y-81966501D01*
X241102561Y-82131248D01*
X241393400Y-82189100D01*
X251256278Y-82189100D01*
X251231946Y-82225515D01*
X251118907Y-82793800D01*
X251231946Y-83362085D01*
X251553853Y-83843854D01*
X251883026Y-84063800D01*
X251553853Y-84283746D01*
X251231946Y-84765515D01*
X251118907Y-85333800D01*
X251231946Y-85902085D01*
X251553853Y-86383854D01*
X251883026Y-86603800D01*
X251553853Y-86823746D01*
X251231946Y-87305515D01*
X251118907Y-87873800D01*
X251231946Y-88442085D01*
X251553853Y-88923854D01*
X251894553Y-89151502D01*
X251751642Y-89218617D01*
X251361355Y-89646876D01*
X251191524Y-90056910D01*
X251312845Y-90286800D01*
X252506000Y-90286800D01*
X252506000Y-90266800D01*
X252760000Y-90266800D01*
X252760000Y-90286800D01*
X252780000Y-90286800D01*
X252780000Y-90540800D01*
X252760000Y-90540800D01*
X252760000Y-90560800D01*
X252506000Y-90560800D01*
X252506000Y-90540800D01*
X251312845Y-90540800D01*
X251191524Y-90770690D01*
X251361355Y-91180724D01*
X251751642Y-91608983D01*
X251894553Y-91676098D01*
X251553853Y-91903746D01*
X251231946Y-92385515D01*
X251118907Y-92953800D01*
X251201515Y-93369100D01*
X242238200Y-93369100D01*
X241947360Y-93426952D01*
X241700799Y-93591699D01*
X238630777Y-96661721D01*
X238621811Y-96648302D01*
X238239725Y-96393000D01*
X238621811Y-96137698D01*
X238932880Y-95672151D01*
X239042113Y-95123000D01*
X238932880Y-94573849D01*
X238621811Y-94108302D01*
X238239725Y-93853000D01*
X238621811Y-93597698D01*
X238932880Y-93132151D01*
X239042113Y-92583000D01*
X238932880Y-92033849D01*
X238621811Y-91568302D01*
X238239725Y-91313000D01*
X238621811Y-91057698D01*
X238932880Y-90592151D01*
X239042113Y-90043000D01*
X238932880Y-89493849D01*
X238621811Y-89028302D01*
X238217297Y-88758014D01*
X238434134Y-88655389D01*
X238810041Y-88240423D01*
X238970904Y-87852039D01*
X238848915Y-87630000D01*
X237706000Y-87630000D01*
X237706000Y-87650000D01*
X237452000Y-87650000D01*
X237452000Y-87630000D01*
X236309085Y-87630000D01*
X236187096Y-87852039D01*
X236347959Y-88240423D01*
X236723866Y-88655389D01*
X236940703Y-88758014D01*
X236536189Y-89028302D01*
X236225120Y-89493849D01*
X236115887Y-90043000D01*
X236209816Y-90515214D01*
X232848563Y-87153961D01*
X236187096Y-87153961D01*
X236309085Y-87376000D01*
X237452000Y-87376000D01*
X237452000Y-86232371D01*
X237706000Y-86232371D01*
X237706000Y-87376000D01*
X238848915Y-87376000D01*
X238970904Y-87153961D01*
X238810041Y-86765577D01*
X238434134Y-86350611D01*
X237928041Y-86111086D01*
X237706000Y-86232371D01*
X237452000Y-86232371D01*
X237229959Y-86111086D01*
X236723866Y-86350611D01*
X236347959Y-86765577D01*
X236187096Y-87153961D01*
X232848563Y-87153961D01*
X226974602Y-81280000D01*
X228495887Y-81280000D01*
X228605120Y-81829151D01*
X228916189Y-82294698D01*
X229381736Y-82605767D01*
X229930887Y-82715000D01*
X229987113Y-82715000D01*
X230536264Y-82605767D01*
X231001811Y-82294698D01*
X231312880Y-81829151D01*
X231365273Y-81565750D01*
X236144000Y-81565750D01*
X236144000Y-82206310D01*
X236240673Y-82439699D01*
X236419302Y-82618327D01*
X236652691Y-82715000D01*
X237293250Y-82715000D01*
X237452000Y-82556250D01*
X237452000Y-81407000D01*
X237706000Y-81407000D01*
X237706000Y-82556250D01*
X237864750Y-82715000D01*
X238505309Y-82715000D01*
X238738698Y-82618327D01*
X238917327Y-82439699D01*
X239014000Y-82206310D01*
X239014000Y-81565750D01*
X238855250Y-81407000D01*
X237706000Y-81407000D01*
X237452000Y-81407000D01*
X236302750Y-81407000D01*
X236144000Y-81565750D01*
X231365273Y-81565750D01*
X231422113Y-81280000D01*
X231312880Y-80730849D01*
X231001811Y-80265302D01*
X230597297Y-79995014D01*
X230814134Y-79892389D01*
X231190041Y-79477423D01*
X231350904Y-79089039D01*
X231228915Y-78867000D01*
X230086000Y-78867000D01*
X230086000Y-78887000D01*
X229832000Y-78887000D01*
X229832000Y-78867000D01*
X228689085Y-78867000D01*
X228567096Y-79089039D01*
X228727959Y-79477423D01*
X229103866Y-79892389D01*
X229320703Y-79995014D01*
X228916189Y-80265302D01*
X228605120Y-80730849D01*
X228495887Y-81280000D01*
X226974602Y-81280000D01*
X221955000Y-76260398D01*
X221955000Y-73993502D01*
X228907223Y-67041279D01*
X228916189Y-67054698D01*
X229298275Y-67310000D01*
X228916189Y-67565302D01*
X228605120Y-68030849D01*
X228495887Y-68580000D01*
X228605120Y-69129151D01*
X228916189Y-69594698D01*
X229298275Y-69850000D01*
X228916189Y-70105302D01*
X228605120Y-70570849D01*
X228495887Y-71120000D01*
X228605120Y-71669151D01*
X228916189Y-72134698D01*
X229298275Y-72390000D01*
X228916189Y-72645302D01*
X228605120Y-73110849D01*
X228495887Y-73660000D01*
X228605120Y-74209151D01*
X228916189Y-74674698D01*
X229298275Y-74930000D01*
X228916189Y-75185302D01*
X228605120Y-75650849D01*
X228495887Y-76200000D01*
X228605120Y-76749151D01*
X228916189Y-77214698D01*
X229320703Y-77484986D01*
X229103866Y-77587611D01*
X228727959Y-78002577D01*
X228567096Y-78390961D01*
X228689085Y-78613000D01*
X229832000Y-78613000D01*
X229832000Y-78593000D01*
X230086000Y-78593000D01*
X230086000Y-78613000D01*
X231228915Y-78613000D01*
X231350904Y-78390961D01*
X231190041Y-78002577D01*
X230814134Y-77587611D01*
X230597297Y-77484986D01*
X231001811Y-77214698D01*
X231312880Y-76749151D01*
X231422113Y-76200000D01*
X231312880Y-75650849D01*
X231001811Y-75185302D01*
X230619725Y-74930000D01*
X231001811Y-74674698D01*
X231312880Y-74209151D01*
X231422113Y-73660000D01*
X231312880Y-73110849D01*
X231001811Y-72645302D01*
X230619725Y-72390000D01*
X231001811Y-72134698D01*
X231312880Y-71669151D01*
X231422113Y-71120000D01*
X231312880Y-70570849D01*
X231001811Y-70105302D01*
X230619725Y-69850000D01*
X231001811Y-69594698D01*
X231312880Y-69129151D01*
X231422113Y-68580000D01*
X231312880Y-68030849D01*
X231001811Y-67565302D01*
X230619725Y-67310000D01*
X231001811Y-67054698D01*
X231312880Y-66589151D01*
X231422113Y-66040000D01*
X231312880Y-65490849D01*
X231001811Y-65025302D01*
X230619725Y-64770000D01*
X231001811Y-64514698D01*
X231312880Y-64049151D01*
X231422113Y-63500000D01*
X231312880Y-62950849D01*
X231001811Y-62485302D01*
X230619725Y-62230000D01*
X231001811Y-61974698D01*
X231312880Y-61509151D01*
X231422113Y-60960000D01*
X231312880Y-60410849D01*
X231001811Y-59945302D01*
X230619725Y-59690000D01*
X231001811Y-59434698D01*
X231312880Y-58969151D01*
X231422113Y-58420000D01*
X231352685Y-58070961D01*
X236187096Y-58070961D01*
X236309085Y-58293000D01*
X237452000Y-58293000D01*
X237452000Y-57149371D01*
X237706000Y-57149371D01*
X237706000Y-58293000D01*
X238848915Y-58293000D01*
X238970904Y-58070961D01*
X238810041Y-57682577D01*
X238434134Y-57267611D01*
X237928041Y-57028086D01*
X237706000Y-57149371D01*
X237452000Y-57149371D01*
X237229959Y-57028086D01*
X236723866Y-57267611D01*
X236347959Y-57682577D01*
X236187096Y-58070961D01*
X231352685Y-58070961D01*
X231312880Y-57870849D01*
X231001811Y-57405302D01*
X230536264Y-57094233D01*
X229987113Y-56985000D01*
X229930887Y-56985000D01*
X229381736Y-57094233D01*
X228916189Y-57405302D01*
X228605120Y-57870849D01*
X228495887Y-58420000D01*
X228605120Y-58969151D01*
X228916189Y-59434698D01*
X229298275Y-59690000D01*
X228916189Y-59945302D01*
X228605120Y-60410849D01*
X228495887Y-60960000D01*
X228605120Y-61509151D01*
X228916189Y-61974698D01*
X229298275Y-62230000D01*
X228916189Y-62485302D01*
X228746005Y-62740000D01*
X225622300Y-62740000D01*
X225331460Y-62797852D01*
X225084899Y-62962599D01*
X216740748Y-71306750D01*
X216712147Y-71263946D01*
X216382974Y-71044000D01*
X216712147Y-70824054D01*
X217034054Y-70342285D01*
X217147093Y-69774000D01*
X217034054Y-69205715D01*
X216712147Y-68723946D01*
X216382974Y-68504000D01*
X216712147Y-68284054D01*
X217034054Y-67802285D01*
X217147093Y-67234000D01*
X217034054Y-66665715D01*
X216712147Y-66183946D01*
X216382974Y-65964000D01*
X216712147Y-65744054D01*
X217034054Y-65262285D01*
X217147093Y-64694000D01*
X217034054Y-64125715D01*
X216712147Y-63643946D01*
X216230378Y-63322039D01*
X215662093Y-63209000D01*
X215603907Y-63209000D01*
X215035622Y-63322039D01*
X214553853Y-63643946D01*
X214364655Y-63927101D01*
X214364645Y-63927076D01*
X213974358Y-63498817D01*
X213449892Y-63252514D01*
X213220000Y-63373181D01*
X213220000Y-64567000D01*
X213240000Y-64567000D01*
X213240000Y-64821000D01*
X213220000Y-64821000D01*
X213220000Y-64841000D01*
X212966000Y-64841000D01*
X212966000Y-64821000D01*
X211772845Y-64821000D01*
X211651524Y-65050890D01*
X211821355Y-65460924D01*
X212211642Y-65889183D01*
X212354553Y-65956298D01*
X212013853Y-66183946D01*
X211691946Y-66665715D01*
X211578907Y-67234000D01*
X201862760Y-67234000D01*
X201862760Y-64337110D01*
X211651524Y-64337110D01*
X211772845Y-64567000D01*
X212966000Y-64567000D01*
X212966000Y-63373181D01*
X212736108Y-63252514D01*
X212211642Y-63498817D01*
X211821355Y-63927076D01*
X211651524Y-64337110D01*
X201862760Y-64337110D01*
X201862760Y-55274559D01*
X201894278Y-55079900D01*
X203241810Y-55079900D01*
X203369136Y-55720011D01*
X203731730Y-56262670D01*
X204274389Y-56625264D01*
X204914500Y-56752590D01*
X205554611Y-56625264D01*
X206097270Y-56262670D01*
X206459864Y-55720011D01*
X206587190Y-55079900D01*
X252251110Y-55079900D01*
X252378436Y-55720011D01*
X252741030Y-56262670D01*
X253283689Y-56625264D01*
X253923800Y-56752590D01*
X254563911Y-56625264D01*
X255106570Y-56262670D01*
X255469164Y-55720011D01*
X255596490Y-55079900D01*
X255469164Y-54439789D01*
X255106570Y-53897130D01*
X254563911Y-53534536D01*
X253923800Y-53407210D01*
X253283689Y-53534536D01*
X252741030Y-53897130D01*
X252378436Y-54439789D01*
X252251110Y-55079900D01*
X206587190Y-55079900D01*
X206459864Y-54439789D01*
X206097270Y-53897130D01*
X205554611Y-53534536D01*
X204914500Y-53407210D01*
X204274389Y-53534536D01*
X203731730Y-53897130D01*
X203369136Y-54439789D01*
X203241810Y-55079900D01*
X201894278Y-55079900D01*
X202052176Y-54104717D01*
X202630653Y-53167981D01*
X203525684Y-52522399D01*
X204604342Y-52259300D01*
X253886124Y-52259300D01*
X255051383Y-52447974D01*
X255051383Y-52447974D01*
G37*
X255051383Y-52447974D02*
X255988119Y-53026451D01*
X256633701Y-53921482D01*
X256896800Y-55000140D01*
X256896800Y-112883993D01*
X256707384Y-114053835D01*
X256128905Y-114990572D01*
X255233876Y-115636153D01*
X254155218Y-115899252D01*
X204862710Y-115899252D01*
X203710717Y-115712726D01*
X202773980Y-115134247D01*
X202128399Y-114239218D01*
X201862760Y-113150147D01*
X201862760Y-113080800D01*
X203241810Y-113080800D01*
X203369136Y-113720911D01*
X203731730Y-114263570D01*
X204274389Y-114626164D01*
X204914500Y-114753490D01*
X205554611Y-114626164D01*
X206097270Y-114263570D01*
X206459864Y-113720911D01*
X206584663Y-113093500D01*
X252238410Y-113093500D01*
X252365736Y-113733611D01*
X252728330Y-114276270D01*
X253270989Y-114638864D01*
X253911100Y-114766190D01*
X254551211Y-114638864D01*
X255093870Y-114276270D01*
X255456464Y-113733611D01*
X255583790Y-113093500D01*
X255456464Y-112453389D01*
X255093870Y-111910730D01*
X254551211Y-111548136D01*
X253911100Y-111420810D01*
X253270989Y-111548136D01*
X252728330Y-111910730D01*
X252365736Y-112453389D01*
X252238410Y-113093500D01*
X206584663Y-113093500D01*
X206587190Y-113080800D01*
X206459864Y-112440689D01*
X206097270Y-111898030D01*
X205554611Y-111535436D01*
X204914500Y-111408110D01*
X204274389Y-111535436D01*
X203731730Y-111898030D01*
X203369136Y-112440689D01*
X203241810Y-113080800D01*
X201862760Y-113080800D01*
X201862760Y-67234000D01*
X211578907Y-67234000D01*
X211691946Y-67802285D01*
X212013853Y-68284054D01*
X212343026Y-68504000D01*
X212013853Y-68723946D01*
X211691946Y-69205715D01*
X211578907Y-69774000D01*
X211691946Y-70342285D01*
X212013853Y-70824054D01*
X212343026Y-71044000D01*
X212013853Y-71263946D01*
X211691946Y-71745715D01*
X211578907Y-72314000D01*
X211691946Y-72882285D01*
X212013853Y-73364054D01*
X212343026Y-73584000D01*
X212013853Y-73803946D01*
X211691946Y-74285715D01*
X211578907Y-74854000D01*
X211691946Y-75422285D01*
X212013853Y-75904054D01*
X212343026Y-76124000D01*
X212013853Y-76343946D01*
X211691946Y-76825715D01*
X211578907Y-77394000D01*
X211691946Y-77962285D01*
X212013853Y-78444054D01*
X212343026Y-78664000D01*
X212013853Y-78883946D01*
X211691946Y-79365715D01*
X211578907Y-79934000D01*
X211691946Y-80502285D01*
X212013853Y-80984054D01*
X212343026Y-81204000D01*
X212013853Y-81423946D01*
X211691946Y-81905715D01*
X211578907Y-82474000D01*
X211691946Y-83042285D01*
X212013853Y-83524054D01*
X212343026Y-83744000D01*
X212013853Y-83963946D01*
X211691946Y-84445715D01*
X211578907Y-85014000D01*
X211691946Y-85582285D01*
X212013853Y-86064054D01*
X212343026Y-86284000D01*
X212013853Y-86503946D01*
X211691946Y-86985715D01*
X211578907Y-87554000D01*
X211691946Y-88122285D01*
X212013853Y-88604054D01*
X212343026Y-88824000D01*
X212013853Y-89043946D01*
X211691946Y-89525715D01*
X211578907Y-90094000D01*
X211691946Y-90662285D01*
X212013853Y-91144054D01*
X212343026Y-91364000D01*
X212013853Y-91583946D01*
X211691946Y-92065715D01*
X211578907Y-92634000D01*
X211691946Y-93202285D01*
X212013853Y-93684054D01*
X212343026Y-93904000D01*
X212013853Y-94123946D01*
X211691946Y-94605715D01*
X211578907Y-95174000D01*
X211691946Y-95742285D01*
X212013853Y-96224054D01*
X212343026Y-96444000D01*
X212013853Y-96663946D01*
X211691946Y-97145715D01*
X211578907Y-97714000D01*
X211691946Y-98282285D01*
X212013853Y-98764054D01*
X212343026Y-98984000D01*
X212013853Y-99203946D01*
X211691946Y-99685715D01*
X211578907Y-100254000D01*
X211691946Y-100822285D01*
X212013853Y-101304054D01*
X212343026Y-101524000D01*
X212013853Y-101743946D01*
X211691946Y-102225715D01*
X211578907Y-102794000D01*
X211691946Y-103362285D01*
X212013853Y-103844054D01*
X212343026Y-104064000D01*
X212013853Y-104283946D01*
X211691946Y-104765715D01*
X211578907Y-105334000D01*
X211691946Y-105902285D01*
X212013853Y-106384054D01*
X212495622Y-106705961D01*
X213063907Y-106819000D01*
X213122093Y-106819000D01*
X213690378Y-106705961D01*
X214172147Y-106384054D01*
X214172971Y-106382821D01*
X214179838Y-106419317D01*
X214318910Y-106635441D01*
X214531110Y-106780431D01*
X214783000Y-106831440D01*
X216483000Y-106831440D01*
X216718317Y-106787162D01*
X216934441Y-106648090D01*
X217079431Y-106435890D01*
X217130440Y-106184000D01*
X217130440Y-104484000D01*
X217086162Y-104248683D01*
X216947090Y-104032559D01*
X216734890Y-103887569D01*
X216667459Y-103873914D01*
X216712147Y-103844054D01*
X217034054Y-103362285D01*
X217147093Y-102794000D01*
X217034054Y-102225715D01*
X216712147Y-101743946D01*
X216382974Y-101524000D01*
X216712147Y-101304054D01*
X217034054Y-100822285D01*
X217147093Y-100254000D01*
X217034054Y-99685715D01*
X216712147Y-99203946D01*
X216382974Y-98984000D01*
X216712147Y-98764054D01*
X217034054Y-98282285D01*
X217147093Y-97714000D01*
X217034054Y-97145715D01*
X216712147Y-96663946D01*
X216382974Y-96444000D01*
X216712147Y-96224054D01*
X217034054Y-95742285D01*
X217147093Y-95174000D01*
X217034054Y-94605715D01*
X216712147Y-94123946D01*
X216382974Y-93904000D01*
X216712147Y-93684054D01*
X217034054Y-93202285D01*
X217147093Y-92634000D01*
X217139692Y-92596794D01*
X228874136Y-104331238D01*
X228605120Y-104733849D01*
X228495887Y-105283000D01*
X228605120Y-105832151D01*
X228916189Y-106297698D01*
X229298275Y-106553000D01*
X228916189Y-106808302D01*
X228605120Y-107273849D01*
X228495887Y-107823000D01*
X228605120Y-108372151D01*
X228916189Y-108837698D01*
X229298275Y-109093000D01*
X228916189Y-109348302D01*
X228605120Y-109813849D01*
X228495887Y-110363000D01*
X228605120Y-110912151D01*
X228916189Y-111377698D01*
X229381736Y-111688767D01*
X229930887Y-111798000D01*
X229987113Y-111798000D01*
X230536264Y-111688767D01*
X231001811Y-111377698D01*
X231312880Y-110912151D01*
X231422113Y-110363000D01*
X231312880Y-109813849D01*
X231001811Y-109348302D01*
X230619725Y-109093000D01*
X231001811Y-108837698D01*
X231312880Y-108372151D01*
X231422113Y-107823000D01*
X231312880Y-107273849D01*
X231001811Y-106808302D01*
X230619725Y-106553000D01*
X231001811Y-106297698D01*
X231312880Y-105832151D01*
X231422113Y-105283000D01*
X231312880Y-104733849D01*
X231001811Y-104268302D01*
X230701022Y-104067321D01*
X230681947Y-103971424D01*
X231001811Y-103757698D01*
X231312880Y-103292151D01*
X231422113Y-102743000D01*
X231312880Y-102193849D01*
X231001811Y-101728302D01*
X230619725Y-101473000D01*
X231001811Y-101217698D01*
X231312880Y-100752151D01*
X231422113Y-100203000D01*
X231312880Y-99653849D01*
X231001811Y-99188302D01*
X230619725Y-98933000D01*
X231001811Y-98677698D01*
X231312880Y-98212151D01*
X231422113Y-97663000D01*
X231312880Y-97113849D01*
X231001811Y-96648302D01*
X230619725Y-96393000D01*
X231001811Y-96137698D01*
X231312880Y-95672151D01*
X231422113Y-95123000D01*
X231312880Y-94573849D01*
X231001811Y-94108302D01*
X230619725Y-93853000D01*
X231001811Y-93597698D01*
X231312880Y-93132151D01*
X231422113Y-92583000D01*
X231312880Y-92033849D01*
X231001811Y-91568302D01*
X230619725Y-91313000D01*
X231001811Y-91057698D01*
X231312880Y-90592151D01*
X231422113Y-90043000D01*
X231312880Y-89493849D01*
X231001811Y-89028302D01*
X230619725Y-88773000D01*
X231001811Y-88517698D01*
X231312880Y-88052151D01*
X231360043Y-87815045D01*
X235693700Y-92148702D01*
X235693700Y-108393800D01*
X235751552Y-108684639D01*
X235916299Y-108931201D01*
X236228697Y-109243599D01*
X236182569Y-109311110D01*
X236131560Y-109563000D01*
X236131560Y-111163000D01*
X236175838Y-111398317D01*
X236314910Y-111614441D01*
X236527110Y-111759431D01*
X236779000Y-111810440D01*
X238379000Y-111810440D01*
X238614317Y-111766162D01*
X238830441Y-111627090D01*
X238975431Y-111414890D01*
X239026440Y-111163000D01*
X239026440Y-109563000D01*
X238982162Y-109327683D01*
X238843090Y-109111559D01*
X238630890Y-108966569D01*
X238475911Y-108935185D01*
X238621811Y-108837698D01*
X238813583Y-108550690D01*
X251191524Y-108550690D01*
X251361355Y-108960724D01*
X251751642Y-109388983D01*
X252276108Y-109635286D01*
X252506000Y-109514619D01*
X252506000Y-108320800D01*
X251312845Y-108320800D01*
X251191524Y-108550690D01*
X238813583Y-108550690D01*
X238932880Y-108372151D01*
X239042113Y-107823000D01*
X238932880Y-107273849D01*
X238621811Y-106808302D01*
X238239725Y-106553000D01*
X238621811Y-106297698D01*
X238791995Y-106043000D01*
X244208500Y-106043000D01*
X244499339Y-105985148D01*
X244745901Y-105820401D01*
X251525252Y-99041050D01*
X251553853Y-99083854D01*
X251883026Y-99303800D01*
X251553853Y-99523746D01*
X251231946Y-100005515D01*
X251118907Y-100573800D01*
X251231946Y-101142085D01*
X251553853Y-101623854D01*
X251883026Y-101843800D01*
X251553853Y-102063746D01*
X251231946Y-102545515D01*
X251118907Y-103113800D01*
X251231946Y-103682085D01*
X251553853Y-104163854D01*
X251883026Y-104383800D01*
X251553853Y-104603746D01*
X251231946Y-105085515D01*
X251118907Y-105653800D01*
X251231946Y-106222085D01*
X251553853Y-106703854D01*
X251894553Y-106931502D01*
X251751642Y-106998617D01*
X251361355Y-107426876D01*
X251191524Y-107836910D01*
X251312845Y-108066800D01*
X252506000Y-108066800D01*
X252506000Y-108046800D01*
X252760000Y-108046800D01*
X252760000Y-108066800D01*
X252780000Y-108066800D01*
X252780000Y-108320800D01*
X252760000Y-108320800D01*
X252760000Y-109514619D01*
X252989892Y-109635286D01*
X253514358Y-109388983D01*
X253904645Y-108960724D01*
X253904655Y-108960699D01*
X254093853Y-109243854D01*
X254575622Y-109565761D01*
X255143907Y-109678800D01*
X255202093Y-109678800D01*
X255770378Y-109565761D01*
X256252147Y-109243854D01*
X256574054Y-108762085D01*
X256687093Y-108193800D01*
X256574054Y-107625515D01*
X256252147Y-107143746D01*
X255922974Y-106923800D01*
X256252147Y-106703854D01*
X256574054Y-106222085D01*
X256687093Y-105653800D01*
X256574054Y-105085515D01*
X256252147Y-104603746D01*
X255922974Y-104383800D01*
X256252147Y-104163854D01*
X256574054Y-103682085D01*
X256687093Y-103113800D01*
X256574054Y-102545515D01*
X256252147Y-102063746D01*
X255911447Y-101836098D01*
X256054358Y-101768983D01*
X256444645Y-101340724D01*
X256614476Y-100930690D01*
X256493155Y-100700800D01*
X255300000Y-100700800D01*
X255300000Y-100720800D01*
X255046000Y-100720800D01*
X255046000Y-100700800D01*
X255026000Y-100700800D01*
X255026000Y-100446800D01*
X255046000Y-100446800D01*
X255046000Y-100426800D01*
X255300000Y-100426800D01*
X255300000Y-100446800D01*
X256493155Y-100446800D01*
X256614476Y-100216910D01*
X256444645Y-99806876D01*
X256054358Y-99378617D01*
X255911447Y-99311502D01*
X256252147Y-99083854D01*
X256574054Y-98602085D01*
X256687093Y-98033800D01*
X256574054Y-97465515D01*
X256252147Y-96983746D01*
X255911447Y-96756098D01*
X256054358Y-96688983D01*
X256444645Y-96260724D01*
X256614476Y-95850690D01*
X256493155Y-95620800D01*
X255300000Y-95620800D01*
X255300000Y-95640800D01*
X255046000Y-95640800D01*
X255046000Y-95620800D01*
X255026000Y-95620800D01*
X255026000Y-95366800D01*
X255046000Y-95366800D01*
X255046000Y-95346800D01*
X255300000Y-95346800D01*
X255300000Y-95366800D01*
X256493155Y-95366800D01*
X256614476Y-95136910D01*
X256444645Y-94726876D01*
X256054358Y-94298617D01*
X255911447Y-94231502D01*
X256252147Y-94003854D01*
X256574054Y-93522085D01*
X256687093Y-92953800D01*
X256574054Y-92385515D01*
X256252147Y-91903746D01*
X255922974Y-91683800D01*
X256252147Y-91463854D01*
X256574054Y-90982085D01*
X256687093Y-90413800D01*
X256574054Y-89845515D01*
X256252147Y-89363746D01*
X255922974Y-89143800D01*
X256252147Y-88923854D01*
X256574054Y-88442085D01*
X256687093Y-87873800D01*
X256574054Y-87305515D01*
X256252147Y-86823746D01*
X255922974Y-86603800D01*
X256252147Y-86383854D01*
X256574054Y-85902085D01*
X256687093Y-85333800D01*
X256574054Y-84765515D01*
X256252147Y-84283746D01*
X255911447Y-84056098D01*
X256054358Y-83988983D01*
X256444645Y-83560724D01*
X256614476Y-83150690D01*
X256493155Y-82920800D01*
X255300000Y-82920800D01*
X255300000Y-82940800D01*
X255046000Y-82940800D01*
X255046000Y-82920800D01*
X255026000Y-82920800D01*
X255026000Y-82666800D01*
X255046000Y-82666800D01*
X255046000Y-82646800D01*
X255300000Y-82646800D01*
X255300000Y-82666800D01*
X256493155Y-82666800D01*
X256614476Y-82436910D01*
X256444645Y-82026876D01*
X256054358Y-81598617D01*
X255911447Y-81531502D01*
X256252147Y-81303854D01*
X256574054Y-80822085D01*
X256687093Y-80253800D01*
X256574054Y-79685515D01*
X256252147Y-79203746D01*
X255922974Y-78983800D01*
X256252147Y-78763854D01*
X256574054Y-78282085D01*
X256687093Y-77713800D01*
X256574054Y-77145515D01*
X256252147Y-76663746D01*
X255911447Y-76436098D01*
X256054358Y-76368983D01*
X256444645Y-75940724D01*
X256614476Y-75530690D01*
X256493155Y-75300800D01*
X255300000Y-75300800D01*
X255300000Y-75320800D01*
X255046000Y-75320800D01*
X255046000Y-75300800D01*
X255026000Y-75300800D01*
X255026000Y-75046800D01*
X255046000Y-75046800D01*
X255046000Y-75026800D01*
X255300000Y-75026800D01*
X255300000Y-75046800D01*
X256493155Y-75046800D01*
X256614476Y-74816910D01*
X256444645Y-74406876D01*
X256054358Y-73978617D01*
X255911447Y-73911502D01*
X256252147Y-73683854D01*
X256574054Y-73202085D01*
X256687093Y-72633800D01*
X256574054Y-72065515D01*
X256252147Y-71583746D01*
X255922974Y-71363800D01*
X256252147Y-71143854D01*
X256574054Y-70662085D01*
X256687093Y-70093800D01*
X256574054Y-69525515D01*
X256252147Y-69043746D01*
X255922974Y-68823800D01*
X256252147Y-68603854D01*
X256574054Y-68122085D01*
X256687093Y-67553800D01*
X256574054Y-66985515D01*
X256252147Y-66503746D01*
X255911447Y-66276098D01*
X256054358Y-66208983D01*
X256444645Y-65780724D01*
X256614476Y-65370690D01*
X256493155Y-65140800D01*
X255300000Y-65140800D01*
X255300000Y-65160800D01*
X255046000Y-65160800D01*
X255046000Y-65140800D01*
X255026000Y-65140800D01*
X255026000Y-64886800D01*
X255046000Y-64886800D01*
X255046000Y-64866800D01*
X255300000Y-64866800D01*
X255300000Y-64886800D01*
X256493155Y-64886800D01*
X256614476Y-64656910D01*
X256444645Y-64246876D01*
X256054358Y-63818617D01*
X255911447Y-63751502D01*
X256252147Y-63523854D01*
X256574054Y-63042085D01*
X256687093Y-62473800D01*
X256574054Y-61905515D01*
X256252147Y-61423746D01*
X255922974Y-61203800D01*
X256252147Y-60983854D01*
X256574054Y-60502085D01*
X256687093Y-59933800D01*
X256574054Y-59365515D01*
X256252147Y-58883746D01*
X255770378Y-58561839D01*
X255202093Y-58448800D01*
X255143907Y-58448800D01*
X254575622Y-58561839D01*
X254093853Y-58883746D01*
X254093029Y-58884979D01*
X254086162Y-58848483D01*
X253947090Y-58632359D01*
X253734890Y-58487369D01*
X253483000Y-58436360D01*
X251783000Y-58436360D01*
X251547683Y-58480638D01*
X251331559Y-58619710D01*
X251186569Y-58831910D01*
X251135560Y-59083800D01*
X251135560Y-60783800D01*
X251179838Y-61019117D01*
X251318910Y-61235241D01*
X251531110Y-61380231D01*
X251598541Y-61393886D01*
X251553853Y-61423746D01*
X251231946Y-61905515D01*
X251118907Y-62473800D01*
X251231946Y-63042085D01*
X251553853Y-63523854D01*
X251883026Y-63743800D01*
X251553853Y-63963746D01*
X251231946Y-64445515D01*
X251118907Y-65013800D01*
X251231946Y-65582085D01*
X251256278Y-65618500D01*
X244437602Y-65618500D01*
X239241701Y-60422599D01*
X238995139Y-60257852D01*
X238805437Y-60220118D01*
X238621811Y-59945302D01*
X238217297Y-59675014D01*
X238434134Y-59572389D01*
X238810041Y-59157423D01*
X238970904Y-58769039D01*
X238848915Y-58547000D01*
X237706000Y-58547000D01*
X237706000Y-58567000D01*
X237452000Y-58567000D01*
X237452000Y-58547000D01*
X236309085Y-58547000D01*
X236187096Y-58769039D01*
X236347959Y-59157423D01*
X236723866Y-59572389D01*
X236940703Y-59675014D01*
X236536189Y-59945302D01*
X236225120Y-60410849D01*
X236115887Y-60960000D01*
X236225120Y-61509151D01*
X236536189Y-61974698D01*
X236918275Y-62230000D01*
X236536189Y-62485302D01*
X236225120Y-62950849D01*
X236115887Y-63500000D01*
X236225120Y-64049151D01*
X236536189Y-64514698D01*
X236918275Y-64770000D01*
X236536189Y-65025302D01*
X236225120Y-65490849D01*
X236115887Y-66040000D01*
X236225120Y-66589151D01*
X236536189Y-67054698D01*
X236918275Y-67310000D01*
X236536189Y-67565302D01*
X236225120Y-68030849D01*
X236115887Y-68580000D01*
X236225120Y-69129151D01*
X236536189Y-69594698D01*
X236918275Y-69850000D01*
X236536189Y-70105302D01*
X236225120Y-70570849D01*
X236115887Y-71120000D01*
X236225120Y-71669151D01*
X236536189Y-72134698D01*
X236918275Y-72390000D01*
X236536189Y-72645302D01*
X236225120Y-73110849D01*
X236115887Y-73660000D01*
X236225120Y-74209151D01*
X236536189Y-74674698D01*
X236918275Y-74930000D01*
X236536189Y-75185302D01*
X236225120Y-75650849D01*
X236115887Y-76200000D01*
X236225120Y-76749151D01*
X236536189Y-77214698D01*
X236918275Y-77470000D01*
X236536189Y-77725302D01*
X236225120Y-78190849D01*
X236115887Y-78740000D01*
X236225120Y-79289151D01*
X236536189Y-79754698D01*
X236671335Y-79845000D01*
X236652691Y-79845000D01*
X236419302Y-79941673D01*
X236240673Y-80120301D01*
X236144000Y-80353690D01*
X236144000Y-80994250D01*
X236302750Y-81153000D01*
X237452000Y-81153000D01*
X237452000Y-81133000D01*
X237706000Y-81133000D01*
X237706000Y-81153000D01*
X238855250Y-81153000D01*
X239014000Y-80994250D01*
X239014000Y-80353690D01*
X238917327Y-80120301D01*
X238738698Y-79941673D01*
X238505309Y-79845000D01*
X238486665Y-79845000D01*
X238621811Y-79754698D01*
X238630777Y-79741279D01*
X240855999Y-81966501D01*
X241102561Y-82131248D01*
X241393400Y-82189100D01*
X251256278Y-82189100D01*
X251231946Y-82225515D01*
X251118907Y-82793800D01*
X251231946Y-83362085D01*
X251553853Y-83843854D01*
X251883026Y-84063800D01*
X251553853Y-84283746D01*
X251231946Y-84765515D01*
X251118907Y-85333800D01*
X251231946Y-85902085D01*
X251553853Y-86383854D01*
X251883026Y-86603800D01*
X251553853Y-86823746D01*
X251231946Y-87305515D01*
X251118907Y-87873800D01*
X251231946Y-88442085D01*
X251553853Y-88923854D01*
X251894553Y-89151502D01*
X251751642Y-89218617D01*
X251361355Y-89646876D01*
X251191524Y-90056910D01*
X251312845Y-90286800D01*
X252506000Y-90286800D01*
X252506000Y-90266800D01*
X252760000Y-90266800D01*
X252760000Y-90286800D01*
X252780000Y-90286800D01*
X252780000Y-90540800D01*
X252760000Y-90540800D01*
X252760000Y-90560800D01*
X252506000Y-90560800D01*
X252506000Y-90540800D01*
X251312845Y-90540800D01*
X251191524Y-90770690D01*
X251361355Y-91180724D01*
X251751642Y-91608983D01*
X251894553Y-91676098D01*
X251553853Y-91903746D01*
X251231946Y-92385515D01*
X251118907Y-92953800D01*
X251201515Y-93369100D01*
X242238200Y-93369100D01*
X241947360Y-93426952D01*
X241700799Y-93591699D01*
X238630777Y-96661721D01*
X238621811Y-96648302D01*
X238239725Y-96393000D01*
X238621811Y-96137698D01*
X238932880Y-95672151D01*
X239042113Y-95123000D01*
X238932880Y-94573849D01*
X238621811Y-94108302D01*
X238239725Y-93853000D01*
X238621811Y-93597698D01*
X238932880Y-93132151D01*
X239042113Y-92583000D01*
X238932880Y-92033849D01*
X238621811Y-91568302D01*
X238239725Y-91313000D01*
X238621811Y-91057698D01*
X238932880Y-90592151D01*
X239042113Y-90043000D01*
X238932880Y-89493849D01*
X238621811Y-89028302D01*
X238217297Y-88758014D01*
X238434134Y-88655389D01*
X238810041Y-88240423D01*
X238970904Y-87852039D01*
X238848915Y-87630000D01*
X237706000Y-87630000D01*
X237706000Y-87650000D01*
X237452000Y-87650000D01*
X237452000Y-87630000D01*
X236309085Y-87630000D01*
X236187096Y-87852039D01*
X236347959Y-88240423D01*
X236723866Y-88655389D01*
X236940703Y-88758014D01*
X236536189Y-89028302D01*
X236225120Y-89493849D01*
X236115887Y-90043000D01*
X236209816Y-90515214D01*
X232848563Y-87153961D01*
X236187096Y-87153961D01*
X236309085Y-87376000D01*
X237452000Y-87376000D01*
X237452000Y-86232371D01*
X237706000Y-86232371D01*
X237706000Y-87376000D01*
X238848915Y-87376000D01*
X238970904Y-87153961D01*
X238810041Y-86765577D01*
X238434134Y-86350611D01*
X237928041Y-86111086D01*
X237706000Y-86232371D01*
X237452000Y-86232371D01*
X237229959Y-86111086D01*
X236723866Y-86350611D01*
X236347959Y-86765577D01*
X236187096Y-87153961D01*
X232848563Y-87153961D01*
X226974602Y-81280000D01*
X228495887Y-81280000D01*
X228605120Y-81829151D01*
X228916189Y-82294698D01*
X229381736Y-82605767D01*
X229930887Y-82715000D01*
X229987113Y-82715000D01*
X230536264Y-82605767D01*
X231001811Y-82294698D01*
X231312880Y-81829151D01*
X231365273Y-81565750D01*
X236144000Y-81565750D01*
X236144000Y-82206310D01*
X236240673Y-82439699D01*
X236419302Y-82618327D01*
X236652691Y-82715000D01*
X237293250Y-82715000D01*
X237452000Y-82556250D01*
X237452000Y-81407000D01*
X237706000Y-81407000D01*
X237706000Y-82556250D01*
X237864750Y-82715000D01*
X238505309Y-82715000D01*
X238738698Y-82618327D01*
X238917327Y-82439699D01*
X239014000Y-82206310D01*
X239014000Y-81565750D01*
X238855250Y-81407000D01*
X237706000Y-81407000D01*
X237452000Y-81407000D01*
X236302750Y-81407000D01*
X236144000Y-81565750D01*
X231365273Y-81565750D01*
X231422113Y-81280000D01*
X231312880Y-80730849D01*
X231001811Y-80265302D01*
X230597297Y-79995014D01*
X230814134Y-79892389D01*
X231190041Y-79477423D01*
X231350904Y-79089039D01*
X231228915Y-78867000D01*
X230086000Y-78867000D01*
X230086000Y-78887000D01*
X229832000Y-78887000D01*
X229832000Y-78867000D01*
X228689085Y-78867000D01*
X228567096Y-79089039D01*
X228727959Y-79477423D01*
X229103866Y-79892389D01*
X229320703Y-79995014D01*
X228916189Y-80265302D01*
X228605120Y-80730849D01*
X228495887Y-81280000D01*
X226974602Y-81280000D01*
X221955000Y-76260398D01*
X221955000Y-73993502D01*
X228907223Y-67041279D01*
X228916189Y-67054698D01*
X229298275Y-67310000D01*
X228916189Y-67565302D01*
X228605120Y-68030849D01*
X228495887Y-68580000D01*
X228605120Y-69129151D01*
X228916189Y-69594698D01*
X229298275Y-69850000D01*
X228916189Y-70105302D01*
X228605120Y-70570849D01*
X228495887Y-71120000D01*
X228605120Y-71669151D01*
X228916189Y-72134698D01*
X229298275Y-72390000D01*
X228916189Y-72645302D01*
X228605120Y-73110849D01*
X228495887Y-73660000D01*
X228605120Y-74209151D01*
X228916189Y-74674698D01*
X229298275Y-74930000D01*
X228916189Y-75185302D01*
X228605120Y-75650849D01*
X228495887Y-76200000D01*
X228605120Y-76749151D01*
X228916189Y-77214698D01*
X229320703Y-77484986D01*
X229103866Y-77587611D01*
X228727959Y-78002577D01*
X228567096Y-78390961D01*
X228689085Y-78613000D01*
X229832000Y-78613000D01*
X229832000Y-78593000D01*
X230086000Y-78593000D01*
X230086000Y-78613000D01*
X231228915Y-78613000D01*
X231350904Y-78390961D01*
X231190041Y-78002577D01*
X230814134Y-77587611D01*
X230597297Y-77484986D01*
X231001811Y-77214698D01*
X231312880Y-76749151D01*
X231422113Y-76200000D01*
X231312880Y-75650849D01*
X231001811Y-75185302D01*
X230619725Y-74930000D01*
X231001811Y-74674698D01*
X231312880Y-74209151D01*
X231422113Y-73660000D01*
X231312880Y-73110849D01*
X231001811Y-72645302D01*
X230619725Y-72390000D01*
X231001811Y-72134698D01*
X231312880Y-71669151D01*
X231422113Y-71120000D01*
X231312880Y-70570849D01*
X231001811Y-70105302D01*
X230619725Y-69850000D01*
X231001811Y-69594698D01*
X231312880Y-69129151D01*
X231422113Y-68580000D01*
X231312880Y-68030849D01*
X231001811Y-67565302D01*
X230619725Y-67310000D01*
X231001811Y-67054698D01*
X231312880Y-66589151D01*
X231422113Y-66040000D01*
X231312880Y-65490849D01*
X231001811Y-65025302D01*
X230619725Y-64770000D01*
X231001811Y-64514698D01*
X231312880Y-64049151D01*
X231422113Y-63500000D01*
X231312880Y-62950849D01*
X231001811Y-62485302D01*
X230619725Y-62230000D01*
X231001811Y-61974698D01*
X231312880Y-61509151D01*
X231422113Y-60960000D01*
X231312880Y-60410849D01*
X231001811Y-59945302D01*
X230619725Y-59690000D01*
X231001811Y-59434698D01*
X231312880Y-58969151D01*
X231422113Y-58420000D01*
X231352685Y-58070961D01*
X236187096Y-58070961D01*
X236309085Y-58293000D01*
X237452000Y-58293000D01*
X237452000Y-57149371D01*
X237706000Y-57149371D01*
X237706000Y-58293000D01*
X238848915Y-58293000D01*
X238970904Y-58070961D01*
X238810041Y-57682577D01*
X238434134Y-57267611D01*
X237928041Y-57028086D01*
X237706000Y-57149371D01*
X237452000Y-57149371D01*
X237229959Y-57028086D01*
X236723866Y-57267611D01*
X236347959Y-57682577D01*
X236187096Y-58070961D01*
X231352685Y-58070961D01*
X231312880Y-57870849D01*
X231001811Y-57405302D01*
X230536264Y-57094233D01*
X229987113Y-56985000D01*
X229930887Y-56985000D01*
X229381736Y-57094233D01*
X228916189Y-57405302D01*
X228605120Y-57870849D01*
X228495887Y-58420000D01*
X228605120Y-58969151D01*
X228916189Y-59434698D01*
X229298275Y-59690000D01*
X228916189Y-59945302D01*
X228605120Y-60410849D01*
X228495887Y-60960000D01*
X228605120Y-61509151D01*
X228916189Y-61974698D01*
X229298275Y-62230000D01*
X228916189Y-62485302D01*
X228746005Y-62740000D01*
X225622300Y-62740000D01*
X225331460Y-62797852D01*
X225084899Y-62962599D01*
X216740748Y-71306750D01*
X216712147Y-71263946D01*
X216382974Y-71044000D01*
X216712147Y-70824054D01*
X217034054Y-70342285D01*
X217147093Y-69774000D01*
X217034054Y-69205715D01*
X216712147Y-68723946D01*
X216382974Y-68504000D01*
X216712147Y-68284054D01*
X217034054Y-67802285D01*
X217147093Y-67234000D01*
X217034054Y-66665715D01*
X216712147Y-66183946D01*
X216382974Y-65964000D01*
X216712147Y-65744054D01*
X217034054Y-65262285D01*
X217147093Y-64694000D01*
X217034054Y-64125715D01*
X216712147Y-63643946D01*
X216230378Y-63322039D01*
X215662093Y-63209000D01*
X215603907Y-63209000D01*
X215035622Y-63322039D01*
X214553853Y-63643946D01*
X214364655Y-63927101D01*
X214364645Y-63927076D01*
X213974358Y-63498817D01*
X213449892Y-63252514D01*
X213220000Y-63373181D01*
X213220000Y-64567000D01*
X213240000Y-64567000D01*
X213240000Y-64821000D01*
X213220000Y-64821000D01*
X213220000Y-64841000D01*
X212966000Y-64841000D01*
X212966000Y-64821000D01*
X211772845Y-64821000D01*
X211651524Y-65050890D01*
X211821355Y-65460924D01*
X212211642Y-65889183D01*
X212354553Y-65956298D01*
X212013853Y-66183946D01*
X211691946Y-66665715D01*
X211578907Y-67234000D01*
X201862760Y-67234000D01*
X201862760Y-64337110D01*
X211651524Y-64337110D01*
X211772845Y-64567000D01*
X212966000Y-64567000D01*
X212966000Y-63373181D01*
X212736108Y-63252514D01*
X212211642Y-63498817D01*
X211821355Y-63927076D01*
X211651524Y-64337110D01*
X201862760Y-64337110D01*
X201862760Y-55274559D01*
X201894278Y-55079900D01*
X203241810Y-55079900D01*
X203369136Y-55720011D01*
X203731730Y-56262670D01*
X204274389Y-56625264D01*
X204914500Y-56752590D01*
X205554611Y-56625264D01*
X206097270Y-56262670D01*
X206459864Y-55720011D01*
X206587190Y-55079900D01*
X252251110Y-55079900D01*
X252378436Y-55720011D01*
X252741030Y-56262670D01*
X253283689Y-56625264D01*
X253923800Y-56752590D01*
X254563911Y-56625264D01*
X255106570Y-56262670D01*
X255469164Y-55720011D01*
X255596490Y-55079900D01*
X255469164Y-54439789D01*
X255106570Y-53897130D01*
X254563911Y-53534536D01*
X253923800Y-53407210D01*
X253283689Y-53534536D01*
X252741030Y-53897130D01*
X252378436Y-54439789D01*
X252251110Y-55079900D01*
X206587190Y-55079900D01*
X206459864Y-54439789D01*
X206097270Y-53897130D01*
X205554611Y-53534536D01*
X204914500Y-53407210D01*
X204274389Y-53534536D01*
X203731730Y-53897130D01*
X203369136Y-54439789D01*
X203241810Y-55079900D01*
X201894278Y-55079900D01*
X202052176Y-54104717D01*
X202630653Y-53167981D01*
X203525684Y-52522399D01*
X204604342Y-52259300D01*
X253886124Y-52259300D01*
X255051383Y-52447974D01*
G36*
X251191524Y-69736910D02*
X251312845Y-69966800D01*
X252506000Y-69966800D01*
X252506000Y-69946800D01*
X252760000Y-69946800D01*
X252760000Y-69966800D01*
X252780000Y-69966800D01*
X252780000Y-70220800D01*
X252760000Y-70220800D01*
X252760000Y-70240800D01*
X252506000Y-70240800D01*
X252506000Y-70220800D01*
X251312845Y-70220800D01*
X251287406Y-70269004D01*
X250696902Y-69678500D01*
X251215717Y-69678500D01*
X251191524Y-69736910D01*
X251191524Y-69736910D01*
G37*
X251191524Y-69736910D02*
X251312845Y-69966800D01*
X252506000Y-69966800D01*
X252506000Y-69946800D01*
X252760000Y-69946800D01*
X252760000Y-69966800D01*
X252780000Y-69966800D01*
X252780000Y-70220800D01*
X252760000Y-70220800D01*
X252760000Y-70240800D01*
X252506000Y-70240800D01*
X252506000Y-70220800D01*
X251312845Y-70220800D01*
X251287406Y-70269004D01*
X250696902Y-69678500D01*
X251215717Y-69678500D01*
X251191524Y-69736910D01*
M02*
