M48
;DRILL file {KiCad 4.0.7} date 12/26/17 02:47:47
;FORMAT={-:-/ absolute / inch / decimal}
FMAT,2
INCH,TZ
T1C0.031
T2C0.039
%
G90
G05
M72
T1
X9.0535Y-2.3
X9.0535Y-2.4
X9.0535Y-2.5
X9.0535Y-2.6
X9.0535Y-2.7
X9.0535Y-2.8
X9.0535Y-2.9
X9.0535Y-3.
X9.0535Y-3.1
X9.0535Y-3.2
X9.0535Y-3.445
X9.0535Y-3.545
X9.0535Y-3.645
X9.0535Y-3.745
X9.0535Y-3.845
X9.0535Y-3.945
X9.0535Y-4.045
X9.0535Y-4.145
X9.0535Y-4.245
X9.0535Y-4.345
X9.3535Y-2.3
X9.3535Y-2.4
X9.3535Y-2.5
X9.3535Y-2.6
X9.3535Y-2.7
X9.3535Y-2.8
X9.3535Y-2.9
X9.3535Y-3.
X9.3535Y-3.1
X9.3535Y-3.2
X9.3535Y-3.445
X9.3535Y-3.545
X9.3535Y-3.645
X9.3535Y-3.745
X9.3535Y-3.845
X9.3535Y-3.945
X9.3535Y-4.045
X9.3535Y-4.145
X9.3535Y-4.245
X9.3535Y-4.345
T2
X8.3895Y-2.547
X8.3895Y-2.647
X8.3895Y-2.747
X8.3895Y-2.847
X8.3895Y-2.947
X8.3895Y-3.047
X8.3895Y-3.147
X8.3895Y-3.247
X8.3895Y-3.347
X8.3895Y-3.447
X8.3895Y-3.547
X8.3895Y-3.647
X8.3895Y-3.747
X8.3895Y-3.847
X8.3895Y-3.947
X8.3895Y-4.047
X8.3895Y-4.147
X8.4895Y-2.547
X8.4895Y-2.647
X8.4895Y-2.747
X8.4895Y-2.847
X8.4895Y-2.947
X8.4895Y-3.047
X8.4895Y-3.147
X8.4895Y-3.247
X8.4895Y-3.347
X8.4895Y-3.447
X8.4895Y-3.547
X8.4895Y-3.647
X8.4895Y-3.747
X8.4895Y-3.847
X8.4895Y-3.947
X8.4895Y-4.047
X8.4895Y-4.147
X9.9462Y-2.3596
X9.9462Y-2.4596
X9.9462Y-2.5596
X9.9462Y-2.6596
X9.9462Y-2.7596
X9.9462Y-2.8596
X9.9462Y-2.9596
X9.9462Y-3.0596
X9.9462Y-3.1596
X9.9462Y-3.2596
X9.9462Y-3.3596
X9.9462Y-3.4596
X9.9462Y-3.5596
X9.9462Y-3.6596
X9.9462Y-3.7596
X9.9462Y-3.8596
X9.9462Y-3.9596
X9.9462Y-4.0596
X9.9462Y-4.1596
X9.9462Y-4.2596
X10.0462Y-2.3596
X10.0462Y-2.4596
X10.0462Y-2.5596
X10.0462Y-2.6596
X10.0462Y-2.7596
X10.0462Y-2.8596
X10.0462Y-2.9596
X10.0462Y-3.0596
X10.0462Y-3.1596
X10.0462Y-3.2596
X10.0462Y-3.3596
X10.0462Y-3.4596
X10.0462Y-3.5596
X10.0462Y-3.6596
X10.0462Y-3.7596
X10.0462Y-3.8596
X10.0462Y-3.9596
X10.0462Y-4.0596
X10.0462Y-4.1596
X10.0462Y-4.2596
T0
M30
