G04 #@! TF.FileFunction,Legend,Bot*
%FSLAX46Y46*%
G04 Gerber Fmt 4.6, Leading zero omitted, Abs format (unit mm)*
G04 Created by KiCad (PCBNEW 4.0.7) date 12/26/17 02:47:42*
%MOMM*%
%LPD*%
G01*
G04 APERTURE LIST*
%ADD10C,0.100000*%
%ADD11C,0.300000*%
%ADD12C,0.010000*%
G04 APERTURE END LIST*
D10*
D11*
X206667571Y-72216857D02*
X205167571Y-72216857D01*
X205167571Y-72788285D01*
X205239000Y-72931143D01*
X205310429Y-73002571D01*
X205453286Y-73074000D01*
X205667571Y-73074000D01*
X205810429Y-73002571D01*
X205881857Y-72931143D01*
X205953286Y-72788285D01*
X205953286Y-72216857D01*
X205881857Y-73716857D02*
X205881857Y-74216857D01*
X206667571Y-74431143D02*
X206667571Y-73716857D01*
X205167571Y-73716857D01*
X205167571Y-74431143D01*
X206667571Y-75931143D02*
X205953286Y-75431143D01*
X206667571Y-75074000D02*
X205167571Y-75074000D01*
X205167571Y-75645428D01*
X205239000Y-75788286D01*
X205310429Y-75859714D01*
X205453286Y-75931143D01*
X205667571Y-75931143D01*
X205810429Y-75859714D01*
X205881857Y-75788286D01*
X205953286Y-75645428D01*
X205953286Y-75074000D01*
X206596143Y-76502571D02*
X206667571Y-76716857D01*
X206667571Y-77074000D01*
X206596143Y-77216857D01*
X206524714Y-77288286D01*
X206381857Y-77359714D01*
X206239000Y-77359714D01*
X206096143Y-77288286D01*
X206024714Y-77216857D01*
X205953286Y-77074000D01*
X205881857Y-76788286D01*
X205810429Y-76645428D01*
X205739000Y-76574000D01*
X205596143Y-76502571D01*
X205453286Y-76502571D01*
X205310429Y-76574000D01*
X205239000Y-76645428D01*
X205167571Y-76788286D01*
X205167571Y-77145428D01*
X205239000Y-77359714D01*
X205167571Y-78288285D02*
X205167571Y-78573999D01*
X205239000Y-78716857D01*
X205381857Y-78859714D01*
X205667571Y-78931142D01*
X206167571Y-78931142D01*
X206453286Y-78859714D01*
X206596143Y-78716857D01*
X206667571Y-78573999D01*
X206667571Y-78288285D01*
X206596143Y-78145428D01*
X206453286Y-78002571D01*
X206167571Y-77931142D01*
X205667571Y-77931142D01*
X205381857Y-78002571D01*
X205239000Y-78145428D01*
X205167571Y-78288285D01*
X206667571Y-79574000D02*
X205167571Y-79574000D01*
X206667571Y-80431143D01*
X205167571Y-80431143D01*
X206239000Y-81074000D02*
X206239000Y-81788286D01*
X206667571Y-80931143D02*
X205167571Y-81431143D01*
X206667571Y-81931143D01*
X206667571Y-83145429D02*
X206667571Y-82431143D01*
X205167571Y-82431143D01*
X206524714Y-85645429D02*
X206596143Y-85574000D01*
X206667571Y-85359714D01*
X206667571Y-85216857D01*
X206596143Y-85002572D01*
X206453286Y-84859714D01*
X206310429Y-84788286D01*
X206024714Y-84716857D01*
X205810429Y-84716857D01*
X205524714Y-84788286D01*
X205381857Y-84859714D01*
X205239000Y-85002572D01*
X205167571Y-85216857D01*
X205167571Y-85359714D01*
X205239000Y-85574000D01*
X205310429Y-85645429D01*
X205167571Y-86574000D02*
X205167571Y-86859714D01*
X205239000Y-87002572D01*
X205381857Y-87145429D01*
X205667571Y-87216857D01*
X206167571Y-87216857D01*
X206453286Y-87145429D01*
X206596143Y-87002572D01*
X206667571Y-86859714D01*
X206667571Y-86574000D01*
X206596143Y-86431143D01*
X206453286Y-86288286D01*
X206167571Y-86216857D01*
X205667571Y-86216857D01*
X205381857Y-86288286D01*
X205239000Y-86431143D01*
X205167571Y-86574000D01*
X206667571Y-87859715D02*
X205167571Y-87859715D01*
X206239000Y-88359715D01*
X205167571Y-88859715D01*
X206667571Y-88859715D01*
X206667571Y-89574001D02*
X205167571Y-89574001D01*
X205167571Y-90145429D01*
X205239000Y-90288287D01*
X205310429Y-90359715D01*
X205453286Y-90431144D01*
X205667571Y-90431144D01*
X205810429Y-90359715D01*
X205881857Y-90288287D01*
X205953286Y-90145429D01*
X205953286Y-89574001D01*
X205167571Y-91074001D02*
X206381857Y-91074001D01*
X206524714Y-91145429D01*
X206596143Y-91216858D01*
X206667571Y-91359715D01*
X206667571Y-91645429D01*
X206596143Y-91788287D01*
X206524714Y-91859715D01*
X206381857Y-91931144D01*
X205167571Y-91931144D01*
X205167571Y-92431144D02*
X205167571Y-93288287D01*
X206667571Y-92859716D02*
X205167571Y-92859716D01*
X205881857Y-93788287D02*
X205881857Y-94288287D01*
X206667571Y-94502573D02*
X206667571Y-93788287D01*
X205167571Y-93788287D01*
X205167571Y-94502573D01*
X206667571Y-96002573D02*
X205953286Y-95502573D01*
X206667571Y-95145430D02*
X205167571Y-95145430D01*
X205167571Y-95716858D01*
X205239000Y-95859716D01*
X205310429Y-95931144D01*
X205453286Y-96002573D01*
X205667571Y-96002573D01*
X205810429Y-95931144D01*
X205881857Y-95859716D01*
X205953286Y-95716858D01*
X205953286Y-95145430D01*
X209146143Y-75716858D02*
X209217571Y-75931144D01*
X209217571Y-76288287D01*
X209146143Y-76431144D01*
X209074714Y-76502573D01*
X208931857Y-76574001D01*
X208789000Y-76574001D01*
X208646143Y-76502573D01*
X208574714Y-76431144D01*
X208503286Y-76288287D01*
X208431857Y-76002573D01*
X208360429Y-75859715D01*
X208289000Y-75788287D01*
X208146143Y-75716858D01*
X208003286Y-75716858D01*
X207860429Y-75788287D01*
X207789000Y-75859715D01*
X207717571Y-76002573D01*
X207717571Y-76359715D01*
X207789000Y-76574001D01*
X209217571Y-77216858D02*
X207717571Y-77216858D01*
X207717571Y-77788286D01*
X207789000Y-77931144D01*
X207860429Y-78002572D01*
X208003286Y-78074001D01*
X208217571Y-78074001D01*
X208360429Y-78002572D01*
X208431857Y-77931144D01*
X208503286Y-77788286D01*
X208503286Y-77216858D01*
X209074714Y-79574001D02*
X209146143Y-79502572D01*
X209217571Y-79288286D01*
X209217571Y-79145429D01*
X209146143Y-78931144D01*
X209003286Y-78788286D01*
X208860429Y-78716858D01*
X208574714Y-78645429D01*
X208360429Y-78645429D01*
X208074714Y-78716858D01*
X207931857Y-78788286D01*
X207789000Y-78931144D01*
X207717571Y-79145429D01*
X207717571Y-79288286D01*
X207789000Y-79502572D01*
X207860429Y-79574001D01*
X208646143Y-80216858D02*
X208646143Y-81359715D01*
X209217571Y-82859715D02*
X209217571Y-82002572D01*
X209217571Y-82431144D02*
X207717571Y-82431144D01*
X207931857Y-82288287D01*
X208074714Y-82145429D01*
X208146143Y-82002572D01*
X207717571Y-83788286D02*
X207717571Y-83931143D01*
X207789000Y-84074000D01*
X207860429Y-84145429D01*
X208003286Y-84216858D01*
X208289000Y-84288286D01*
X208646143Y-84288286D01*
X208931857Y-84216858D01*
X209074714Y-84145429D01*
X209146143Y-84074000D01*
X209217571Y-83931143D01*
X209217571Y-83788286D01*
X209146143Y-83645429D01*
X209074714Y-83574000D01*
X208931857Y-83502572D01*
X208646143Y-83431143D01*
X208289000Y-83431143D01*
X208003286Y-83502572D01*
X207860429Y-83574000D01*
X207789000Y-83645429D01*
X207717571Y-83788286D01*
X207717571Y-85216857D02*
X207717571Y-85359714D01*
X207789000Y-85502571D01*
X207860429Y-85574000D01*
X208003286Y-85645429D01*
X208289000Y-85716857D01*
X208646143Y-85716857D01*
X208931857Y-85645429D01*
X209074714Y-85574000D01*
X209146143Y-85502571D01*
X209217571Y-85359714D01*
X209217571Y-85216857D01*
X209146143Y-85074000D01*
X209074714Y-85002571D01*
X208931857Y-84931143D01*
X208646143Y-84859714D01*
X208289000Y-84859714D01*
X208003286Y-84931143D01*
X207860429Y-85002571D01*
X207789000Y-85074000D01*
X207717571Y-85216857D01*
X207717571Y-86645428D02*
X207717571Y-86788285D01*
X207789000Y-86931142D01*
X207860429Y-87002571D01*
X208003286Y-87074000D01*
X208289000Y-87145428D01*
X208646143Y-87145428D01*
X208931857Y-87074000D01*
X209074714Y-87002571D01*
X209146143Y-86931142D01*
X209217571Y-86788285D01*
X209217571Y-86645428D01*
X209146143Y-86502571D01*
X209074714Y-86431142D01*
X208931857Y-86359714D01*
X208646143Y-86288285D01*
X208289000Y-86288285D01*
X208003286Y-86359714D01*
X207860429Y-86431142D01*
X207789000Y-86502571D01*
X207717571Y-86645428D01*
X208431857Y-88931142D02*
X208431857Y-89431142D01*
X209217571Y-89645428D02*
X209217571Y-88931142D01*
X207717571Y-88931142D01*
X207717571Y-89645428D01*
X209217571Y-90145428D02*
X208217571Y-90931142D01*
X208217571Y-90145428D02*
X209217571Y-90931142D01*
X208217571Y-91288285D02*
X208217571Y-91859714D01*
X207717571Y-91502571D02*
X209003286Y-91502571D01*
X209146143Y-91573999D01*
X209217571Y-91716857D01*
X209217571Y-91859714D01*
X209074714Y-92359714D02*
X209146143Y-92431142D01*
X209217571Y-92359714D01*
X209146143Y-92288285D01*
X209074714Y-92359714D01*
X209217571Y-92359714D01*
X225698857Y-65746429D02*
X225698857Y-65246429D01*
X226484571Y-65246429D02*
X224984571Y-65246429D01*
X224984571Y-65960715D01*
X226484571Y-66746429D02*
X226413143Y-66603571D01*
X226341714Y-66532143D01*
X226198857Y-66460714D01*
X225770286Y-66460714D01*
X225627429Y-66532143D01*
X225556000Y-66603571D01*
X225484571Y-66746429D01*
X225484571Y-66960714D01*
X225556000Y-67103571D01*
X225627429Y-67175000D01*
X225770286Y-67246429D01*
X226198857Y-67246429D01*
X226341714Y-67175000D01*
X226413143Y-67103571D01*
X226484571Y-66960714D01*
X226484571Y-66746429D01*
X226484571Y-67889286D02*
X225484571Y-67889286D01*
X225770286Y-67889286D02*
X225627429Y-67960714D01*
X225556000Y-68032143D01*
X225484571Y-68175000D01*
X225484571Y-68317857D01*
X242272429Y-78566144D02*
X242201000Y-78637573D01*
X242129571Y-78780430D01*
X242129571Y-79137573D01*
X242201000Y-79280430D01*
X242272429Y-79351859D01*
X242415286Y-79423287D01*
X242558143Y-79423287D01*
X242772429Y-79351859D01*
X243629571Y-78494716D01*
X243629571Y-79423287D01*
X242129571Y-80351858D02*
X242129571Y-80494715D01*
X242201000Y-80637572D01*
X242272429Y-80709001D01*
X242415286Y-80780430D01*
X242701000Y-80851858D01*
X243058143Y-80851858D01*
X243343857Y-80780430D01*
X243486714Y-80709001D01*
X243558143Y-80637572D01*
X243629571Y-80494715D01*
X243629571Y-80351858D01*
X243558143Y-80209001D01*
X243486714Y-80137572D01*
X243343857Y-80066144D01*
X243058143Y-79994715D01*
X242701000Y-79994715D01*
X242415286Y-80066144D01*
X242272429Y-80137572D01*
X242201000Y-80209001D01*
X242129571Y-80351858D01*
X243629571Y-82280429D02*
X243629571Y-81423286D01*
X243629571Y-81851858D02*
X242129571Y-81851858D01*
X242343857Y-81709001D01*
X242486714Y-81566143D01*
X242558143Y-81423286D01*
X242129571Y-82780429D02*
X242129571Y-83780429D01*
X243629571Y-83137572D01*
X243486714Y-84351857D02*
X243558143Y-84423285D01*
X243629571Y-84351857D01*
X243558143Y-84280428D01*
X243486714Y-84351857D01*
X243629571Y-84351857D01*
X243629571Y-85851857D02*
X243629571Y-84994714D01*
X243629571Y-85423286D02*
X242129571Y-85423286D01*
X242343857Y-85280429D01*
X242486714Y-85137571D01*
X242558143Y-84994714D01*
X242272429Y-86423285D02*
X242201000Y-86494714D01*
X242129571Y-86637571D01*
X242129571Y-86994714D01*
X242201000Y-87137571D01*
X242272429Y-87209000D01*
X242415286Y-87280428D01*
X242558143Y-87280428D01*
X242772429Y-87209000D01*
X243629571Y-86351857D01*
X243629571Y-87280428D01*
X243486714Y-87923285D02*
X243558143Y-87994713D01*
X243629571Y-87923285D01*
X243558143Y-87851856D01*
X243486714Y-87923285D01*
X243629571Y-87923285D01*
X242272429Y-88566142D02*
X242201000Y-88637571D01*
X242129571Y-88780428D01*
X242129571Y-89137571D01*
X242201000Y-89280428D01*
X242272429Y-89351857D01*
X242415286Y-89423285D01*
X242558143Y-89423285D01*
X242772429Y-89351857D01*
X243629571Y-88494714D01*
X243629571Y-89423285D01*
X242129571Y-90708999D02*
X242129571Y-90423285D01*
X242201000Y-90280428D01*
X242272429Y-90208999D01*
X242486714Y-90066142D01*
X242772429Y-89994713D01*
X243343857Y-89994713D01*
X243486714Y-90066142D01*
X243558143Y-90137570D01*
X243629571Y-90280428D01*
X243629571Y-90566142D01*
X243558143Y-90708999D01*
X243486714Y-90780428D01*
X243343857Y-90851856D01*
X242986714Y-90851856D01*
X242843857Y-90780428D01*
X242772429Y-90708999D01*
X242701000Y-90566142D01*
X242701000Y-90280428D01*
X242772429Y-90137570D01*
X242843857Y-90066142D01*
X242986714Y-89994713D01*
X247947571Y-71788286D02*
X246947571Y-71788286D01*
X247090429Y-71788286D02*
X247019000Y-71859714D01*
X246947571Y-72002572D01*
X246947571Y-72216857D01*
X247019000Y-72359714D01*
X247161857Y-72431143D01*
X247947571Y-72431143D01*
X247161857Y-72431143D02*
X247019000Y-72502572D01*
X246947571Y-72645429D01*
X246947571Y-72859714D01*
X247019000Y-73002572D01*
X247161857Y-73074000D01*
X247947571Y-73074000D01*
X247876143Y-74359714D02*
X247947571Y-74216857D01*
X247947571Y-73931143D01*
X247876143Y-73788286D01*
X247733286Y-73716857D01*
X247161857Y-73716857D01*
X247019000Y-73788286D01*
X246947571Y-73931143D01*
X246947571Y-74216857D01*
X247019000Y-74359714D01*
X247161857Y-74431143D01*
X247304714Y-74431143D01*
X247447571Y-73716857D01*
X247876143Y-75645428D02*
X247947571Y-75502571D01*
X247947571Y-75216857D01*
X247876143Y-75074000D01*
X247733286Y-75002571D01*
X247161857Y-75002571D01*
X247019000Y-75074000D01*
X246947571Y-75216857D01*
X246947571Y-75502571D01*
X247019000Y-75645428D01*
X247161857Y-75716857D01*
X247304714Y-75716857D01*
X247447571Y-75002571D01*
X247876143Y-76288285D02*
X247947571Y-76431142D01*
X247947571Y-76716857D01*
X247876143Y-76859714D01*
X247733286Y-76931142D01*
X247661857Y-76931142D01*
X247519000Y-76859714D01*
X247447571Y-76716857D01*
X247447571Y-76502571D01*
X247376143Y-76359714D01*
X247233286Y-76288285D01*
X247161857Y-76288285D01*
X247019000Y-76359714D01*
X246947571Y-76502571D01*
X246947571Y-76716857D01*
X247019000Y-76859714D01*
X247947571Y-77788286D02*
X247876143Y-77645428D01*
X247804714Y-77574000D01*
X247661857Y-77502571D01*
X247233286Y-77502571D01*
X247090429Y-77574000D01*
X247019000Y-77645428D01*
X246947571Y-77788286D01*
X246947571Y-78002571D01*
X247019000Y-78145428D01*
X247090429Y-78216857D01*
X247233286Y-78288286D01*
X247661857Y-78288286D01*
X247804714Y-78216857D01*
X247876143Y-78145428D01*
X247947571Y-78002571D01*
X247947571Y-77788286D01*
X247804714Y-78931143D02*
X247876143Y-79002571D01*
X247947571Y-78931143D01*
X247876143Y-78859714D01*
X247804714Y-78931143D01*
X247947571Y-78931143D01*
X247947571Y-79645429D02*
X246447571Y-79645429D01*
X247376143Y-79788286D02*
X247947571Y-80216857D01*
X246947571Y-80216857D02*
X247519000Y-79645429D01*
X247947571Y-80859715D02*
X246947571Y-80859715D01*
X246447571Y-80859715D02*
X246519000Y-80788286D01*
X246590429Y-80859715D01*
X246519000Y-80931143D01*
X246447571Y-80859715D01*
X246590429Y-80859715D01*
X247947571Y-81574001D02*
X246947571Y-81574001D01*
X247090429Y-81574001D02*
X247019000Y-81645429D01*
X246947571Y-81788287D01*
X246947571Y-82002572D01*
X247019000Y-82145429D01*
X247161857Y-82216858D01*
X247947571Y-82216858D01*
X247161857Y-82216858D02*
X247019000Y-82288287D01*
X246947571Y-82431144D01*
X246947571Y-82645429D01*
X247019000Y-82788287D01*
X247161857Y-82859715D01*
X247947571Y-82859715D01*
X247233286Y-84502572D02*
X247161857Y-84431144D01*
X247090429Y-84288287D01*
X247090429Y-84145429D01*
X247161857Y-84002572D01*
X247233286Y-83931144D01*
X247376143Y-83859715D01*
X247519000Y-83859715D01*
X247661857Y-83931144D01*
X247733286Y-84002572D01*
X247804714Y-84145429D01*
X247804714Y-84288287D01*
X247733286Y-84431144D01*
X247661857Y-84502572D01*
X247090429Y-84502572D02*
X247661857Y-84502572D01*
X247733286Y-84574001D01*
X247733286Y-84645429D01*
X247661857Y-84788287D01*
X247519000Y-84859715D01*
X247161857Y-84859715D01*
X246947571Y-84716858D01*
X246804714Y-84502572D01*
X246733286Y-84216858D01*
X246804714Y-83931144D01*
X246947571Y-83716858D01*
X247161857Y-83574001D01*
X247447571Y-83502572D01*
X247733286Y-83574001D01*
X247947571Y-83716858D01*
X248090429Y-83931144D01*
X248161857Y-84216858D01*
X248090429Y-84502572D01*
X247947571Y-84716858D01*
X246947571Y-86145429D02*
X248161857Y-86145429D01*
X248304714Y-86074000D01*
X248376143Y-86002572D01*
X248447571Y-85859715D01*
X248447571Y-85645429D01*
X248376143Y-85502572D01*
X247876143Y-86145429D02*
X247947571Y-86002572D01*
X247947571Y-85716858D01*
X247876143Y-85574000D01*
X247804714Y-85502572D01*
X247661857Y-85431143D01*
X247233286Y-85431143D01*
X247090429Y-85502572D01*
X247019000Y-85574000D01*
X246947571Y-85716858D01*
X246947571Y-86002572D01*
X247019000Y-86145429D01*
X247947571Y-86859715D02*
X246947571Y-86859715D01*
X247090429Y-86859715D02*
X247019000Y-86931143D01*
X246947571Y-87074001D01*
X246947571Y-87288286D01*
X247019000Y-87431143D01*
X247161857Y-87502572D01*
X247947571Y-87502572D01*
X247161857Y-87502572D02*
X247019000Y-87574001D01*
X246947571Y-87716858D01*
X246947571Y-87931143D01*
X247019000Y-88074001D01*
X247161857Y-88145429D01*
X247947571Y-88145429D01*
X247947571Y-89502572D02*
X247161857Y-89502572D01*
X247019000Y-89431143D01*
X246947571Y-89288286D01*
X246947571Y-89002572D01*
X247019000Y-88859715D01*
X247876143Y-89502572D02*
X247947571Y-89359715D01*
X247947571Y-89002572D01*
X247876143Y-88859715D01*
X247733286Y-88788286D01*
X247590429Y-88788286D01*
X247447571Y-88859715D01*
X247376143Y-89002572D01*
X247376143Y-89359715D01*
X247304714Y-89502572D01*
X247947571Y-90216858D02*
X246947571Y-90216858D01*
X246447571Y-90216858D02*
X246519000Y-90145429D01*
X246590429Y-90216858D01*
X246519000Y-90288286D01*
X246447571Y-90216858D01*
X246590429Y-90216858D01*
X247947571Y-91145430D02*
X247876143Y-91002572D01*
X247733286Y-90931144D01*
X246447571Y-90931144D01*
X247804714Y-91716858D02*
X247876143Y-91788286D01*
X247947571Y-91716858D01*
X247876143Y-91645429D01*
X247804714Y-91716858D01*
X247947571Y-91716858D01*
X247876143Y-93074001D02*
X247947571Y-92931144D01*
X247947571Y-92645430D01*
X247876143Y-92502572D01*
X247804714Y-92431144D01*
X247661857Y-92359715D01*
X247233286Y-92359715D01*
X247090429Y-92431144D01*
X247019000Y-92502572D01*
X246947571Y-92645430D01*
X246947571Y-92931144D01*
X247019000Y-93074001D01*
X247947571Y-93931144D02*
X247876143Y-93788286D01*
X247804714Y-93716858D01*
X247661857Y-93645429D01*
X247233286Y-93645429D01*
X247090429Y-93716858D01*
X247019000Y-93788286D01*
X246947571Y-93931144D01*
X246947571Y-94145429D01*
X247019000Y-94288286D01*
X247090429Y-94359715D01*
X247233286Y-94431144D01*
X247661857Y-94431144D01*
X247804714Y-94359715D01*
X247876143Y-94288286D01*
X247947571Y-94145429D01*
X247947571Y-93931144D01*
X247947571Y-95074001D02*
X246947571Y-95074001D01*
X247090429Y-95074001D02*
X247019000Y-95145429D01*
X246947571Y-95288287D01*
X246947571Y-95502572D01*
X247019000Y-95645429D01*
X247161857Y-95716858D01*
X247947571Y-95716858D01*
X247161857Y-95716858D02*
X247019000Y-95788287D01*
X246947571Y-95931144D01*
X246947571Y-96145429D01*
X247019000Y-96288287D01*
X247161857Y-96359715D01*
X247947571Y-96359715D01*
D12*
G36*
X226822000Y-100711000D02*
X226822000Y-69532500D01*
X225124857Y-69532500D01*
X225124857Y-72326500D01*
X225218363Y-72338170D01*
X225396575Y-72368947D01*
X225627803Y-72412482D01*
X225880358Y-72462426D01*
X226122550Y-72512430D01*
X226322689Y-72556144D01*
X226449087Y-72587220D01*
X226476481Y-72597305D01*
X226490724Y-72659499D01*
X226521929Y-72816788D01*
X226564519Y-73039284D01*
X226612913Y-73297100D01*
X226661535Y-73560346D01*
X226704805Y-73799135D01*
X226737146Y-73983579D01*
X226750283Y-74064281D01*
X226705849Y-74092681D01*
X226683300Y-74089785D01*
X226683300Y-74234425D01*
X226744122Y-74253206D01*
X226739013Y-74322052D01*
X226735606Y-74333354D01*
X226704625Y-74453062D01*
X226658088Y-74655268D01*
X226605627Y-74897993D01*
X226601385Y-74918276D01*
X226553500Y-75167641D01*
X226518869Y-75385698D01*
X226504558Y-75527603D01*
X226504500Y-75533122D01*
X226461193Y-75668395D01*
X226393375Y-75716999D01*
X226252330Y-75750771D01*
X226040454Y-75791409D01*
X225789007Y-75834150D01*
X225529248Y-75874234D01*
X225292437Y-75906897D01*
X225109836Y-75927379D01*
X225012703Y-75930916D01*
X225005286Y-75928452D01*
X225005567Y-75856837D01*
X225033624Y-75693489D01*
X225083826Y-75469200D01*
X225104270Y-75387148D01*
X225165628Y-75127800D01*
X225211432Y-74897948D01*
X225233595Y-74739206D01*
X225234500Y-74716792D01*
X225237566Y-74635375D01*
X225257370Y-74571533D01*
X225309820Y-74519583D01*
X225410821Y-74473841D01*
X225576282Y-74428623D01*
X225822109Y-74378246D01*
X226164210Y-74317026D01*
X226527596Y-74254771D01*
X226683300Y-74234425D01*
X226683300Y-74089785D01*
X226615625Y-74081091D01*
X226488686Y-74051621D01*
X226276302Y-74006745D01*
X226017808Y-73954701D01*
X225933000Y-73938117D01*
X225679600Y-73882641D01*
X225471733Y-73825515D01*
X225343133Y-73776442D01*
X225322678Y-73762556D01*
X225280902Y-73669417D01*
X225233204Y-73485676D01*
X225188416Y-73246869D01*
X225178855Y-73183750D01*
X225139047Y-72918805D01*
X225100685Y-72682170D01*
X225071094Y-72518706D01*
X225067398Y-72501125D01*
X225057225Y-72370144D01*
X225112583Y-72326993D01*
X225124857Y-72326500D01*
X225124857Y-69532500D01*
X223157751Y-69532500D01*
X223157751Y-70381581D01*
X223226800Y-70382521D01*
X223389151Y-70405753D01*
X223614315Y-70445187D01*
X223871808Y-70494730D01*
X224131141Y-70548291D01*
X224361830Y-70599779D01*
X224533386Y-70643103D01*
X224615324Y-70672172D01*
X224616383Y-70673018D01*
X224646910Y-70749001D01*
X224691426Y-70917950D01*
X224743416Y-71147496D01*
X224796364Y-71405271D01*
X224843756Y-71658908D01*
X224879078Y-71876036D01*
X224895814Y-72024289D01*
X224895537Y-72059979D01*
X224869375Y-72111614D01*
X224869375Y-72267184D01*
X224905629Y-72285972D01*
X224911977Y-72364804D01*
X224886702Y-72524037D01*
X224828089Y-72784024D01*
X224824575Y-72798693D01*
X224763835Y-73063284D01*
X224707214Y-73328810D01*
X224680069Y-73467591D01*
X224659032Y-73583752D01*
X224632546Y-73667506D01*
X224580889Y-73728667D01*
X224484336Y-73777049D01*
X224323164Y-73822466D01*
X224077650Y-73874734D01*
X223728068Y-73943667D01*
X223720214Y-73945217D01*
X223476089Y-73989151D01*
X223283061Y-74015903D01*
X223229433Y-74018612D01*
X223229433Y-74191726D01*
X223399536Y-74217031D01*
X223641669Y-74263780D01*
X223921200Y-74325413D01*
X224649190Y-74494704D01*
X224694125Y-74914296D01*
X224725389Y-75152350D01*
X224762087Y-75354645D01*
X224792254Y-75465319D01*
X224834214Y-75630130D01*
X224849474Y-75779312D01*
X224842400Y-75901146D01*
X224788488Y-75938617D01*
X224774836Y-75936509D01*
X224774836Y-77041288D01*
X224918183Y-77089633D01*
X225089579Y-77243063D01*
X225153430Y-77456712D01*
X225108655Y-77721565D01*
X225017788Y-77922376D01*
X224883081Y-78259420D01*
X224790611Y-78685720D01*
X224741132Y-79170497D01*
X224735398Y-79682971D01*
X224774165Y-80192366D01*
X224858187Y-80667900D01*
X224943279Y-80961145D01*
X225025203Y-81200633D01*
X225067679Y-81361291D01*
X225073525Y-81484049D01*
X225045559Y-81609839D01*
X224997530Y-81749098D01*
X224995174Y-81754246D01*
X224995174Y-82882151D01*
X225173073Y-82889821D01*
X225322496Y-83003511D01*
X225326149Y-83008629D01*
X225386480Y-83102864D01*
X225414081Y-83189715D01*
X225406459Y-83300337D01*
X225361122Y-83465890D01*
X225275576Y-83717532D01*
X225267618Y-83740319D01*
X225077729Y-84458238D01*
X224996204Y-85198175D01*
X225023505Y-85933836D01*
X225160097Y-86638927D01*
X225213509Y-86813815D01*
X225293589Y-87062415D01*
X225335576Y-87227020D01*
X225342211Y-87343892D01*
X225316233Y-87449293D01*
X225269775Y-87558681D01*
X225163073Y-87752473D01*
X225030991Y-87935071D01*
X224900437Y-88074074D01*
X224798323Y-88137080D01*
X224788640Y-88138000D01*
X224730378Y-88084327D01*
X224697783Y-87995125D01*
X224671489Y-87829750D01*
X224641422Y-87571373D01*
X224610452Y-87253819D01*
X224581455Y-86910911D01*
X224557303Y-86576473D01*
X224540869Y-86284329D01*
X224535027Y-86079096D01*
X224518945Y-85786115D01*
X224473425Y-85607158D01*
X224399921Y-85546347D01*
X224352599Y-85561862D01*
X224316148Y-85647191D01*
X224291724Y-85837086D01*
X224282054Y-86109450D01*
X224282000Y-86133722D01*
X224270046Y-86458037D01*
X224230920Y-86667146D01*
X224159727Y-86770875D01*
X224051568Y-86779049D01*
X223976225Y-86747275D01*
X223912050Y-86691287D01*
X223867348Y-86587324D01*
X223834737Y-86408775D01*
X223807715Y-86139618D01*
X223780074Y-85866165D01*
X223749016Y-85698782D01*
X223709006Y-85616557D01*
X223664397Y-85598000D01*
X223619010Y-85614720D01*
X223593159Y-85679791D01*
X223584364Y-85815573D01*
X223590143Y-86044429D01*
X223597657Y-86199498D01*
X223607235Y-86527432D01*
X223587399Y-86751873D01*
X223526044Y-86895147D01*
X223411065Y-86979577D01*
X223230355Y-87027486D01*
X223141414Y-87040829D01*
X223122980Y-87041871D01*
X223122980Y-88176616D01*
X223331773Y-88199599D01*
X223440070Y-88298777D01*
X223456500Y-88389040D01*
X223409622Y-88611501D01*
X223265377Y-88768557D01*
X223018342Y-88863463D01*
X222920884Y-88873341D01*
X222920884Y-89099432D01*
X222975326Y-89111573D01*
X223041002Y-89159689D01*
X223069394Y-89254987D01*
X223061900Y-89421491D01*
X223019916Y-89683230D01*
X223011256Y-89729419D01*
X222943895Y-89983422D01*
X222860372Y-90113946D01*
X222758366Y-90123758D01*
X222707640Y-90091055D01*
X222659553Y-90009812D01*
X222646855Y-89858277D01*
X222664009Y-89634313D01*
X222719379Y-89332887D01*
X222804967Y-89154656D01*
X222920884Y-89099432D01*
X222920884Y-88873341D01*
X222663096Y-88899473D01*
X222605280Y-88900000D01*
X222422227Y-88900000D01*
X222422227Y-89106107D01*
X222504907Y-89118423D01*
X222550448Y-89250089D01*
X222558043Y-89499816D01*
X222551817Y-89611685D01*
X222527717Y-89840918D01*
X222494655Y-90020732D01*
X222459731Y-90112657D01*
X222459271Y-90113128D01*
X222354768Y-90145659D01*
X222292368Y-90133537D01*
X222222701Y-90045830D01*
X222185914Y-89875584D01*
X222181536Y-89662799D01*
X222209094Y-89447480D01*
X222268116Y-89269628D01*
X222303216Y-89214431D01*
X222422227Y-89106107D01*
X222422227Y-88900000D01*
X222192254Y-88900000D01*
X222146305Y-89138125D01*
X222121683Y-89327841D01*
X222103310Y-89584873D01*
X222095802Y-89820750D01*
X222091250Y-90265250D01*
X222472250Y-90301831D01*
X222695456Y-90329225D01*
X222877394Y-90362114D01*
X222958302Y-90385669D01*
X223009794Y-90393997D01*
X223045404Y-90349522D01*
X223071186Y-90230980D01*
X223093192Y-90017112D01*
X223104303Y-89872838D01*
X223128114Y-89526361D01*
X223151914Y-89287016D01*
X223193357Y-89136170D01*
X223270095Y-89055191D01*
X223399781Y-89025445D01*
X223600068Y-89028299D01*
X223888492Y-89045114D01*
X224179637Y-89063657D01*
X224431126Y-89085941D01*
X224611020Y-89108779D01*
X224678875Y-89124003D01*
X224772008Y-89216970D01*
X224776903Y-89363866D01*
X224695082Y-89528771D01*
X224659999Y-89569943D01*
X224552288Y-89769068D01*
X224517124Y-89984244D01*
X224514803Y-90156833D01*
X224548820Y-90243006D01*
X224648559Y-90283155D01*
X224747671Y-90301198D01*
X224956992Y-90358961D01*
X225119794Y-90462217D01*
X225240877Y-90624341D01*
X225325040Y-90858706D01*
X225377082Y-91178686D01*
X225401804Y-91597653D01*
X225404003Y-92128981D01*
X225403990Y-92130039D01*
X225393250Y-92978829D01*
X225159938Y-93180358D01*
X224947327Y-93348496D01*
X224759725Y-93468770D01*
X224621545Y-93527231D01*
X224563807Y-93520974D01*
X224564812Y-93448159D01*
X224598136Y-93284278D01*
X224657243Y-93059174D01*
X224687847Y-92954670D01*
X224843328Y-92375393D01*
X224938434Y-91873884D01*
X224973440Y-91456261D01*
X224948626Y-91128641D01*
X224864269Y-90897142D01*
X224720646Y-90767881D01*
X224587363Y-90741500D01*
X224520709Y-90760542D01*
X224485830Y-90836934D01*
X224473334Y-90999570D01*
X224472500Y-91094924D01*
X224483564Y-91314650D01*
X224511934Y-91495845D01*
X224535772Y-91566574D01*
X224573416Y-91731263D01*
X224495350Y-91873800D01*
X224298537Y-91996539D01*
X223979942Y-92101838D01*
X223789928Y-92145425D01*
X223555211Y-92187074D01*
X223399651Y-92192472D01*
X223280533Y-92161084D01*
X223234188Y-92138466D01*
X223135819Y-92070641D01*
X223089225Y-91977555D01*
X223078443Y-91816749D01*
X223080403Y-91729436D01*
X223085015Y-91470431D01*
X223085030Y-91175573D01*
X223083127Y-91039524D01*
X223076858Y-90834381D01*
X223060838Y-90733971D01*
X223022808Y-90716050D01*
X222950505Y-90758375D01*
X222934370Y-90769649D01*
X222782868Y-90831273D01*
X222771781Y-90833105D01*
X222771781Y-91066512D01*
X222848981Y-91080325D01*
X222902282Y-91129021D01*
X222933306Y-91240969D01*
X222946812Y-91440973D01*
X222948500Y-91598750D01*
X222942647Y-91858205D01*
X222921915Y-92015867D01*
X222881543Y-92096537D01*
X222848981Y-92117174D01*
X222726851Y-92118706D01*
X222646681Y-92010001D01*
X222606371Y-91786666D01*
X222600439Y-91597404D01*
X222619377Y-91304907D01*
X222675705Y-91129578D01*
X222771781Y-91066512D01*
X222771781Y-90833105D01*
X222574181Y-90865767D01*
X222502007Y-90868500D01*
X222327629Y-90876729D01*
X222327629Y-91066390D01*
X222404481Y-91080325D01*
X222461450Y-91162360D01*
X222497531Y-91330850D01*
X222512725Y-91546981D01*
X222507030Y-91771937D01*
X222480448Y-91966904D01*
X222432977Y-92093066D01*
X222404481Y-92117174D01*
X222282318Y-92118526D01*
X222201879Y-92009392D01*
X222161077Y-91785439D01*
X222154750Y-91598779D01*
X222173264Y-91305389D01*
X222230197Y-91129366D01*
X222327629Y-91066390D01*
X222327629Y-90876729D01*
X222275549Y-90879187D01*
X222125871Y-90924857D01*
X222039996Y-91025920D01*
X222004949Y-91202785D01*
X222007755Y-91475864D01*
X222017551Y-91630540D01*
X222043094Y-91898850D01*
X222076427Y-92123222D01*
X222112053Y-92270323D01*
X222128612Y-92304012D01*
X222234697Y-92353914D01*
X222447007Y-92389801D01*
X222677593Y-92405805D01*
X222985024Y-92431991D01*
X223176679Y-92487203D01*
X223261940Y-92578915D01*
X223250188Y-92714600D01*
X223199661Y-92821672D01*
X223150770Y-92900195D01*
X223093043Y-92950639D01*
X222999930Y-92979214D01*
X222996838Y-92979471D01*
X222996838Y-93931983D01*
X223160904Y-93990442D01*
X223213213Y-94040961D01*
X223288538Y-94146863D01*
X223318649Y-94246554D01*
X223300285Y-94371808D01*
X223230183Y-94554395D01*
X223140314Y-94751020D01*
X223001029Y-95095884D01*
X222899978Y-95442037D01*
X222840616Y-95764933D01*
X222826396Y-96040027D01*
X222860774Y-96242771D01*
X222918025Y-96330558D01*
X223037099Y-96374498D01*
X223257812Y-96404501D01*
X223537150Y-96416906D01*
X223820304Y-96414270D01*
X224020887Y-96392727D01*
X224182884Y-96343970D01*
X224340539Y-96265198D01*
X224521979Y-96139397D01*
X224647935Y-95984698D01*
X224727630Y-95776972D01*
X224770289Y-95492085D01*
X224785133Y-95105906D01*
X224785169Y-95101833D01*
X224792518Y-94819380D01*
X224810295Y-94648038D01*
X224840961Y-94572168D01*
X224869375Y-94566772D01*
X224974815Y-94660436D01*
X225073353Y-94852765D01*
X225159645Y-95115431D01*
X225228349Y-95420109D01*
X225274122Y-95738472D01*
X225291621Y-96042194D01*
X225275502Y-96302948D01*
X225229208Y-96474504D01*
X225101758Y-96637641D01*
X224889771Y-96796215D01*
X224634064Y-96925260D01*
X224375451Y-96999811D01*
X224368735Y-97000846D01*
X224121635Y-97017821D01*
X223799132Y-97012643D01*
X223450373Y-96987984D01*
X223124506Y-96946520D01*
X223019397Y-96927418D01*
X222804545Y-96884097D01*
X222850937Y-97194173D01*
X222893819Y-97409841D01*
X222963521Y-97688778D01*
X223045718Y-97974102D01*
X223054024Y-98000637D01*
X223143206Y-98322148D01*
X223172292Y-98562897D01*
X223136845Y-98756278D01*
X223032430Y-98935682D01*
X222911180Y-99075875D01*
X222784310Y-99206946D01*
X222688927Y-99285904D01*
X222618746Y-99301471D01*
X222567481Y-99242368D01*
X222528845Y-99097320D01*
X222496552Y-98855049D01*
X222464316Y-98504279D01*
X222442180Y-98234500D01*
X222413171Y-97888838D01*
X222384068Y-97562452D01*
X222358054Y-97289812D01*
X222338314Y-97105389D01*
X222336603Y-97091500D01*
X222300593Y-96805750D01*
X222136664Y-97123250D01*
X222019863Y-97368823D01*
X221897753Y-97654941D01*
X221833106Y-97821750D01*
X221747295Y-98035339D01*
X221672912Y-98155149D01*
X221587654Y-98209835D01*
X221520413Y-98223501D01*
X221272408Y-98208202D01*
X221071642Y-98111601D01*
X220950258Y-97951498D01*
X220935209Y-97899420D01*
X220865449Y-97741864D01*
X220774501Y-97677476D01*
X220698986Y-97636520D01*
X220725351Y-97599901D01*
X220758501Y-97517158D01*
X220785467Y-97312682D01*
X220806392Y-96984809D01*
X220821421Y-96531878D01*
X220822487Y-96485031D01*
X220832900Y-96108085D01*
X220846477Y-95756563D01*
X220861854Y-95458375D01*
X220877666Y-95241430D01*
X220887370Y-95158195D01*
X220966174Y-94872770D01*
X221089086Y-94681414D01*
X221244417Y-94593941D01*
X221420473Y-94620168D01*
X221483892Y-94657369D01*
X221584841Y-94777741D01*
X221607492Y-94954847D01*
X221552706Y-95207666D01*
X221514003Y-95321391D01*
X221467369Y-95505421D01*
X221424392Y-95773510D01*
X221391208Y-96082742D01*
X221378705Y-96267213D01*
X221365826Y-96576184D01*
X221366440Y-96783182D01*
X221382718Y-96912728D01*
X221416827Y-96989343D01*
X221445170Y-97018805D01*
X221545039Y-97070131D01*
X221636996Y-97033298D01*
X221739181Y-96895646D01*
X221810812Y-96763586D01*
X221941310Y-96507789D01*
X221778155Y-96272356D01*
X221653181Y-96045264D01*
X221614155Y-95868274D01*
X221651311Y-95756678D01*
X221754884Y-95725770D01*
X221915110Y-95790843D01*
X222029788Y-95878271D01*
X222203701Y-96014537D01*
X222324630Y-96075765D01*
X222376235Y-96054126D01*
X222377000Y-96044622D01*
X222387182Y-95920538D01*
X222414643Y-95707899D01*
X222454756Y-95434798D01*
X222502892Y-95129328D01*
X222554422Y-94819580D01*
X222604720Y-94533649D01*
X222649156Y-94299625D01*
X222683103Y-94145603D01*
X222696974Y-94102376D01*
X222826652Y-93971143D01*
X222996838Y-93931983D01*
X222996838Y-92979471D01*
X222844879Y-92992134D01*
X222601340Y-92995611D01*
X222455639Y-92995750D01*
X222136226Y-92990932D01*
X221920553Y-92974453D01*
X221785653Y-92943275D01*
X221711444Y-92897323D01*
X221670412Y-92830585D01*
X221640680Y-92712517D01*
X221620096Y-92523904D01*
X221606507Y-92245528D01*
X221598216Y-91886553D01*
X221589498Y-91511848D01*
X221576373Y-91247170D01*
X221556961Y-91075571D01*
X221529380Y-90980103D01*
X221493648Y-90944404D01*
X221456200Y-90949568D01*
X221433899Y-91007656D01*
X221425504Y-91137218D01*
X221429775Y-91356805D01*
X221444866Y-91673756D01*
X221460220Y-92032035D01*
X221457895Y-92282649D01*
X221432797Y-92444311D01*
X221379833Y-92535730D01*
X221293908Y-92575618D01*
X221197325Y-92583000D01*
X221103733Y-92576057D01*
X221030922Y-92545878D01*
X220976362Y-92478436D01*
X220937527Y-92359704D01*
X220911886Y-92175656D01*
X220896911Y-91912265D01*
X220890075Y-91555504D01*
X220888848Y-91091346D01*
X220889355Y-90874553D01*
X220893802Y-90304180D01*
X220904547Y-89848016D01*
X220923519Y-89493345D01*
X220952647Y-89227452D01*
X220993862Y-89037621D01*
X221049092Y-88911135D01*
X221120268Y-88835280D01*
X221204383Y-88798540D01*
X221371150Y-88771002D01*
X221474871Y-88801606D01*
X221526254Y-88908191D01*
X221536007Y-89108594D01*
X221522646Y-89328708D01*
X221498969Y-89597400D01*
X221473818Y-89843636D01*
X221452333Y-90017410D01*
X221450858Y-90027125D01*
X221448768Y-90176800D01*
X221486988Y-90231341D01*
X221541953Y-90179329D01*
X221574492Y-90087033D01*
X221593164Y-89965704D01*
X221615354Y-89750176D01*
X221638025Y-89473081D01*
X221654747Y-89224448D01*
X221681033Y-88869895D01*
X221716649Y-88623091D01*
X221772321Y-88464795D01*
X221858776Y-88375763D01*
X221986740Y-88336753D01*
X222154157Y-88328500D01*
X222372907Y-88311774D01*
X222641025Y-88268766D01*
X222814554Y-88230043D01*
X223122980Y-88176616D01*
X223122980Y-87041871D01*
X222955228Y-87051357D01*
X222844079Y-87011512D01*
X222793014Y-86956975D01*
X222747631Y-86818033D01*
X222785000Y-86688063D01*
X222887161Y-86616841D01*
X222916750Y-86614000D01*
X223029952Y-86554360D01*
X223104507Y-86380592D01*
X223137557Y-86100418D01*
X223139000Y-86013352D01*
X223133529Y-85807374D01*
X223107120Y-85691180D01*
X223044773Y-85627692D01*
X222969299Y-85593836D01*
X222780946Y-85548522D01*
X222679118Y-85594586D01*
X222656335Y-85738011D01*
X222669463Y-85833702D01*
X222720782Y-86013137D01*
X222788755Y-86144394D01*
X222799496Y-86156567D01*
X222883423Y-86297974D01*
X222849541Y-86440305D01*
X222695305Y-86586679D01*
X222418171Y-86740213D01*
X222270107Y-86805259D01*
X221984578Y-86909058D01*
X221688021Y-86992796D01*
X221439941Y-87039926D01*
X221418283Y-87042154D01*
X221266591Y-87054120D01*
X221147400Y-87050577D01*
X221057259Y-87018367D01*
X220992721Y-86944329D01*
X220950335Y-86815302D01*
X220926652Y-86618126D01*
X220918224Y-86339642D01*
X220921601Y-85966689D01*
X220933333Y-85486107D01*
X220940731Y-85220092D01*
X220956424Y-84748434D01*
X220975040Y-84338336D01*
X220995606Y-84004392D01*
X221017148Y-83761195D01*
X221038695Y-83623342D01*
X221048824Y-83598804D01*
X221184529Y-83545487D01*
X221413399Y-83549333D01*
X221716619Y-83607592D01*
X222075375Y-83717510D01*
X222214843Y-83769331D01*
X222536139Y-83903000D01*
X222745052Y-84014570D01*
X222852172Y-84113671D01*
X222868089Y-84209934D01*
X222807582Y-84308407D01*
X222738720Y-84441690D01*
X222691175Y-84637324D01*
X222683252Y-84709000D01*
X222675159Y-84884015D01*
X222697448Y-84965192D01*
X222769848Y-84985245D01*
X222847547Y-84981402D01*
X222990878Y-84959803D01*
X223080263Y-84902319D01*
X223133427Y-84781733D01*
X223168092Y-84570832D01*
X223178937Y-84472533D01*
X223219664Y-84082876D01*
X222984242Y-83984510D01*
X222827867Y-83902093D01*
X222768958Y-83813471D01*
X222769285Y-83743225D01*
X222844368Y-83597846D01*
X223001752Y-83527571D01*
X223217406Y-83538055D01*
X223391108Y-83596896D01*
X223579572Y-83709255D01*
X223675212Y-83850794D01*
X223689577Y-84051164D01*
X223651972Y-84266575D01*
X223597611Y-84567712D01*
X223587559Y-84794493D01*
X223621273Y-84930480D01*
X223675002Y-84963000D01*
X223745327Y-84952574D01*
X223791452Y-84904034D01*
X223823303Y-84791487D01*
X223850803Y-84589039D01*
X223863389Y-84471490D01*
X223896620Y-84194774D01*
X223934517Y-84021251D01*
X223989057Y-83927323D01*
X224072215Y-83889394D01*
X224161793Y-83883500D01*
X224269080Y-83894754D01*
X224330353Y-83945316D01*
X224354560Y-84060380D01*
X224350652Y-84265141D01*
X224342233Y-84391500D01*
X224324517Y-84674300D01*
X224322712Y-84853329D01*
X224339310Y-84951105D01*
X224376804Y-84990145D01*
X224409000Y-84994750D01*
X224487847Y-84936681D01*
X224521860Y-84804250D01*
X224572421Y-84316603D01*
X224628373Y-83879988D01*
X224686924Y-83510793D01*
X224745280Y-83225406D01*
X224800648Y-83040212D01*
X224832356Y-82982780D01*
X224995174Y-82882151D01*
X224995174Y-81754246D01*
X224895525Y-81972017D01*
X224763774Y-82178439D01*
X224626002Y-82337547D01*
X224505931Y-82418524D01*
X224478773Y-82423000D01*
X224435656Y-82364795D01*
X224411696Y-82210176D01*
X224409000Y-82119709D01*
X224400942Y-81903593D01*
X224379741Y-81620484D01*
X224349859Y-81329165D01*
X224347569Y-81310084D01*
X224294105Y-80740022D01*
X224260316Y-80100744D01*
X224247305Y-79442480D01*
X224256178Y-78815457D01*
X224282200Y-78338924D01*
X224335819Y-77846024D01*
X224409588Y-77474337D01*
X224505811Y-77219337D01*
X224626792Y-77076496D01*
X224774836Y-77041288D01*
X224774836Y-75936509D01*
X224650120Y-75917248D01*
X224647125Y-75916591D01*
X224485286Y-75881810D01*
X224246296Y-75831300D01*
X223977377Y-75775032D01*
X223932890Y-75765779D01*
X223425030Y-75660250D01*
X223272913Y-74944393D01*
X223215808Y-74658777D01*
X223199428Y-74563291D01*
X223199428Y-77724000D01*
X223378233Y-77774757D01*
X223482116Y-77918654D01*
X223506555Y-78143129D01*
X223451033Y-78422919D01*
X223427908Y-78563033D01*
X223408724Y-78811041D01*
X223394324Y-79147874D01*
X223385550Y-79554461D01*
X223383156Y-79958232D01*
X223382066Y-80433130D01*
X223375731Y-80795082D01*
X223360885Y-81058129D01*
X223334261Y-81236309D01*
X223292595Y-81343661D01*
X223232620Y-81394224D01*
X223151071Y-81402039D01*
X223051752Y-81382932D01*
X222979848Y-81353093D01*
X222924103Y-81294878D01*
X222883131Y-81194669D01*
X222855545Y-81038848D01*
X222839960Y-80813798D01*
X222834990Y-80505901D01*
X222839250Y-80101538D01*
X222851352Y-79587094D01*
X222855123Y-79450921D01*
X222871875Y-78933005D01*
X222891245Y-78528525D01*
X222915936Y-78223916D01*
X222948653Y-78005615D01*
X222992100Y-77860058D01*
X223048981Y-77773679D01*
X223122002Y-77732916D01*
X223199428Y-77724000D01*
X223199428Y-74563291D01*
X223174972Y-74420725D01*
X223154421Y-74256298D01*
X223157003Y-74192330D01*
X223229433Y-74191726D01*
X223229433Y-74018612D01*
X223171954Y-74021517D01*
X223157755Y-74017421D01*
X223158122Y-73947026D01*
X223182806Y-73784735D01*
X223225085Y-73561804D01*
X223278240Y-73309486D01*
X223335551Y-73059038D01*
X223390298Y-72841712D01*
X223435761Y-72688764D01*
X223452321Y-72647377D01*
X223524677Y-72605156D01*
X223691128Y-72545343D01*
X223921403Y-72476061D01*
X224185228Y-72405432D01*
X224452330Y-72341578D01*
X224692435Y-72292621D01*
X224869375Y-72267184D01*
X224869375Y-72111614D01*
X224855037Y-72139913D01*
X224835720Y-72147935D01*
X224756825Y-72137057D01*
X224581918Y-72103557D01*
X224338824Y-72052980D01*
X224119439Y-72005169D01*
X223815463Y-71934137D01*
X223614989Y-71876392D01*
X223496425Y-71823300D01*
X223438180Y-71766223D01*
X223423258Y-71726713D01*
X223325022Y-71283495D01*
X223246961Y-70915232D01*
X223191471Y-70634062D01*
X223160947Y-70452121D01*
X223157751Y-70381581D01*
X223157751Y-69532500D01*
X223027875Y-69532500D01*
X223027875Y-70358241D01*
X223059101Y-70366030D01*
X223071064Y-70405383D01*
X223061494Y-70499665D01*
X223028124Y-70672243D01*
X222972419Y-70929500D01*
X222913198Y-71196247D01*
X222856866Y-71445599D01*
X222815215Y-71625381D01*
X222813871Y-71631014D01*
X222760030Y-71856279D01*
X222024718Y-71970926D01*
X221735163Y-72013970D01*
X221495268Y-72045657D01*
X221330541Y-72062890D01*
X221266736Y-72062903D01*
X221269276Y-71995393D01*
X221293449Y-71829552D01*
X221335068Y-71591397D01*
X221382030Y-71346528D01*
X221443712Y-71043965D01*
X221491978Y-70842795D01*
X221537081Y-70719635D01*
X221589268Y-70651102D01*
X221658792Y-70613813D01*
X221710371Y-70597497D01*
X221841120Y-70566430D01*
X222051352Y-70523509D01*
X222305130Y-70475261D01*
X222566517Y-70428213D01*
X222799575Y-70388890D01*
X222968365Y-70363818D01*
X223027875Y-70358241D01*
X223027875Y-69532500D01*
X221262593Y-69532500D01*
X221262593Y-72213239D01*
X221329585Y-72218172D01*
X221494927Y-72248647D01*
X221733702Y-72299640D01*
X222019857Y-72365859D01*
X222754085Y-72541514D01*
X222822196Y-72894382D01*
X222871577Y-73139305D01*
X222921773Y-73371555D01*
X222944590Y-73469500D01*
X222987893Y-73694407D01*
X223004099Y-73885012D01*
X222992076Y-74008806D01*
X222964375Y-74038285D01*
X222900875Y-74025292D01*
X222900875Y-74168653D01*
X222959565Y-74173960D01*
X222993666Y-74203980D01*
X223002428Y-74278614D01*
X222985098Y-74417765D01*
X222940927Y-74641332D01*
X222870963Y-74961098D01*
X222806830Y-75230621D01*
X222746097Y-75451676D01*
X222696996Y-75596018D01*
X222674236Y-75636096D01*
X222586259Y-75665693D01*
X222409570Y-75704418D01*
X222175683Y-75747360D01*
X221972720Y-75780396D01*
X221972720Y-77601053D01*
X222074857Y-77654789D01*
X222130911Y-77718000D01*
X222223984Y-77921069D01*
X222222307Y-78065971D01*
X222195294Y-78250992D01*
X222162592Y-78485760D01*
X222149693Y-78581250D01*
X222136985Y-78743493D01*
X222126728Y-79007101D01*
X222119455Y-79346456D01*
X222115701Y-79735938D01*
X222116001Y-80149926D01*
X222116231Y-80185493D01*
X222125161Y-81472237D01*
X221973363Y-81541401D01*
X221782599Y-81573795D01*
X221629552Y-81491317D01*
X221529420Y-81304081D01*
X221513087Y-81235067D01*
X221501931Y-81099118D01*
X221496705Y-80859671D01*
X221496762Y-80540060D01*
X221501455Y-80163616D01*
X221510136Y-79753672D01*
X221522158Y-79333560D01*
X221536873Y-78926613D01*
X221553635Y-78556163D01*
X221571796Y-78245542D01*
X221590709Y-78018082D01*
X221605193Y-77915161D01*
X221674828Y-77736497D01*
X221808024Y-77639129D01*
X221830489Y-77630690D01*
X221972720Y-77601053D01*
X221972720Y-75780396D01*
X221916112Y-75789611D01*
X221662372Y-75826260D01*
X221445979Y-75852397D01*
X221298445Y-75863112D01*
X221251574Y-75857741D01*
X221253651Y-75788468D01*
X221281114Y-75626987D01*
X221326877Y-75403870D01*
X221383855Y-75149686D01*
X221444960Y-74895007D01*
X221503107Y-74670403D01*
X221551208Y-74506445D01*
X221581527Y-74434305D01*
X221653049Y-74409964D01*
X221816984Y-74370178D01*
X222040670Y-74321526D01*
X222291444Y-74270582D01*
X222536643Y-74223925D01*
X222743606Y-74188130D01*
X222879668Y-74169774D01*
X222900875Y-74168653D01*
X222900875Y-74025292D01*
X222887080Y-74022469D01*
X222713463Y-73981606D01*
X222470242Y-73922114D01*
X222218378Y-73859077D01*
X221520007Y-73682583D01*
X221476066Y-73401416D01*
X221438809Y-73188866D01*
X221385694Y-72916286D01*
X221335841Y-72678262D01*
X221291553Y-72458256D01*
X221265072Y-72292711D01*
X221261622Y-72214793D01*
X221262593Y-72213239D01*
X221262593Y-69532500D01*
X221104666Y-69532500D01*
X221104666Y-72219195D01*
X221156676Y-72227644D01*
X221170494Y-72250597D01*
X221170500Y-72251280D01*
X221158592Y-72334042D01*
X221126412Y-72512573D01*
X221079267Y-72758248D01*
X221037447Y-72968533D01*
X220978692Y-73244623D01*
X220924255Y-73473347D01*
X220881187Y-73626543D01*
X220860616Y-73674906D01*
X220781356Y-73707315D01*
X220609797Y-73751909D01*
X220378977Y-73800384D01*
X220311043Y-73813014D01*
X220041402Y-73862657D01*
X219794000Y-73909742D01*
X219616627Y-73945149D01*
X219598875Y-73948919D01*
X219485502Y-73965611D01*
X219485502Y-74124295D01*
X219649689Y-74146748D01*
X219875649Y-74186471D01*
X220132548Y-74237165D01*
X220389555Y-74292530D01*
X220615836Y-74346267D01*
X220780559Y-74392076D01*
X220846130Y-74418036D01*
X220881830Y-74491827D01*
X220932380Y-74662348D01*
X220990060Y-74901350D01*
X221029450Y-75088750D01*
X221093762Y-75414939D01*
X221134957Y-75636706D01*
X221154657Y-75774198D01*
X221154481Y-75847560D01*
X221136050Y-75876938D01*
X221100983Y-75882479D01*
X221093285Y-75882500D01*
X220975548Y-75868666D01*
X220776274Y-75832101D01*
X220527855Y-75780203D01*
X220262683Y-75720372D01*
X220013151Y-75660010D01*
X219811652Y-75606516D01*
X219690578Y-75567290D01*
X219672784Y-75557981D01*
X219635033Y-75477119D01*
X219587574Y-75304836D01*
X219536123Y-75072778D01*
X219486400Y-74812590D01*
X219444123Y-74555918D01*
X219415009Y-74334407D01*
X219404778Y-74179701D01*
X219413919Y-74125413D01*
X219485502Y-74124295D01*
X219485502Y-73965611D01*
X219458375Y-73969606D01*
X219402122Y-73934732D01*
X219392551Y-73842562D01*
X219405700Y-73706509D01*
X219441368Y-73477756D01*
X219493970Y-73187451D01*
X219557921Y-72866747D01*
X219614389Y-72605267D01*
X219648746Y-72534416D01*
X219731551Y-72479815D01*
X219887946Y-72430903D01*
X220143070Y-72377116D01*
X220169352Y-72372125D01*
X220546807Y-72301715D01*
X220816999Y-72254146D01*
X220997196Y-72227334D01*
X221104666Y-72219195D01*
X221104666Y-69532500D01*
X218630500Y-69532500D01*
X218630500Y-100711000D01*
X226822000Y-100711000D01*
X226822000Y-100711000D01*
G37*
X226822000Y-100711000D02*
X226822000Y-69532500D01*
X225124857Y-69532500D01*
X225124857Y-72326500D01*
X225218363Y-72338170D01*
X225396575Y-72368947D01*
X225627803Y-72412482D01*
X225880358Y-72462426D01*
X226122550Y-72512430D01*
X226322689Y-72556144D01*
X226449087Y-72587220D01*
X226476481Y-72597305D01*
X226490724Y-72659499D01*
X226521929Y-72816788D01*
X226564519Y-73039284D01*
X226612913Y-73297100D01*
X226661535Y-73560346D01*
X226704805Y-73799135D01*
X226737146Y-73983579D01*
X226750283Y-74064281D01*
X226705849Y-74092681D01*
X226683300Y-74089785D01*
X226683300Y-74234425D01*
X226744122Y-74253206D01*
X226739013Y-74322052D01*
X226735606Y-74333354D01*
X226704625Y-74453062D01*
X226658088Y-74655268D01*
X226605627Y-74897993D01*
X226601385Y-74918276D01*
X226553500Y-75167641D01*
X226518869Y-75385698D01*
X226504558Y-75527603D01*
X226504500Y-75533122D01*
X226461193Y-75668395D01*
X226393375Y-75716999D01*
X226252330Y-75750771D01*
X226040454Y-75791409D01*
X225789007Y-75834150D01*
X225529248Y-75874234D01*
X225292437Y-75906897D01*
X225109836Y-75927379D01*
X225012703Y-75930916D01*
X225005286Y-75928452D01*
X225005567Y-75856837D01*
X225033624Y-75693489D01*
X225083826Y-75469200D01*
X225104270Y-75387148D01*
X225165628Y-75127800D01*
X225211432Y-74897948D01*
X225233595Y-74739206D01*
X225234500Y-74716792D01*
X225237566Y-74635375D01*
X225257370Y-74571533D01*
X225309820Y-74519583D01*
X225410821Y-74473841D01*
X225576282Y-74428623D01*
X225822109Y-74378246D01*
X226164210Y-74317026D01*
X226527596Y-74254771D01*
X226683300Y-74234425D01*
X226683300Y-74089785D01*
X226615625Y-74081091D01*
X226488686Y-74051621D01*
X226276302Y-74006745D01*
X226017808Y-73954701D01*
X225933000Y-73938117D01*
X225679600Y-73882641D01*
X225471733Y-73825515D01*
X225343133Y-73776442D01*
X225322678Y-73762556D01*
X225280902Y-73669417D01*
X225233204Y-73485676D01*
X225188416Y-73246869D01*
X225178855Y-73183750D01*
X225139047Y-72918805D01*
X225100685Y-72682170D01*
X225071094Y-72518706D01*
X225067398Y-72501125D01*
X225057225Y-72370144D01*
X225112583Y-72326993D01*
X225124857Y-72326500D01*
X225124857Y-69532500D01*
X223157751Y-69532500D01*
X223157751Y-70381581D01*
X223226800Y-70382521D01*
X223389151Y-70405753D01*
X223614315Y-70445187D01*
X223871808Y-70494730D01*
X224131141Y-70548291D01*
X224361830Y-70599779D01*
X224533386Y-70643103D01*
X224615324Y-70672172D01*
X224616383Y-70673018D01*
X224646910Y-70749001D01*
X224691426Y-70917950D01*
X224743416Y-71147496D01*
X224796364Y-71405271D01*
X224843756Y-71658908D01*
X224879078Y-71876036D01*
X224895814Y-72024289D01*
X224895537Y-72059979D01*
X224869375Y-72111614D01*
X224869375Y-72267184D01*
X224905629Y-72285972D01*
X224911977Y-72364804D01*
X224886702Y-72524037D01*
X224828089Y-72784024D01*
X224824575Y-72798693D01*
X224763835Y-73063284D01*
X224707214Y-73328810D01*
X224680069Y-73467591D01*
X224659032Y-73583752D01*
X224632546Y-73667506D01*
X224580889Y-73728667D01*
X224484336Y-73777049D01*
X224323164Y-73822466D01*
X224077650Y-73874734D01*
X223728068Y-73943667D01*
X223720214Y-73945217D01*
X223476089Y-73989151D01*
X223283061Y-74015903D01*
X223229433Y-74018612D01*
X223229433Y-74191726D01*
X223399536Y-74217031D01*
X223641669Y-74263780D01*
X223921200Y-74325413D01*
X224649190Y-74494704D01*
X224694125Y-74914296D01*
X224725389Y-75152350D01*
X224762087Y-75354645D01*
X224792254Y-75465319D01*
X224834214Y-75630130D01*
X224849474Y-75779312D01*
X224842400Y-75901146D01*
X224788488Y-75938617D01*
X224774836Y-75936509D01*
X224774836Y-77041288D01*
X224918183Y-77089633D01*
X225089579Y-77243063D01*
X225153430Y-77456712D01*
X225108655Y-77721565D01*
X225017788Y-77922376D01*
X224883081Y-78259420D01*
X224790611Y-78685720D01*
X224741132Y-79170497D01*
X224735398Y-79682971D01*
X224774165Y-80192366D01*
X224858187Y-80667900D01*
X224943279Y-80961145D01*
X225025203Y-81200633D01*
X225067679Y-81361291D01*
X225073525Y-81484049D01*
X225045559Y-81609839D01*
X224997530Y-81749098D01*
X224995174Y-81754246D01*
X224995174Y-82882151D01*
X225173073Y-82889821D01*
X225322496Y-83003511D01*
X225326149Y-83008629D01*
X225386480Y-83102864D01*
X225414081Y-83189715D01*
X225406459Y-83300337D01*
X225361122Y-83465890D01*
X225275576Y-83717532D01*
X225267618Y-83740319D01*
X225077729Y-84458238D01*
X224996204Y-85198175D01*
X225023505Y-85933836D01*
X225160097Y-86638927D01*
X225213509Y-86813815D01*
X225293589Y-87062415D01*
X225335576Y-87227020D01*
X225342211Y-87343892D01*
X225316233Y-87449293D01*
X225269775Y-87558681D01*
X225163073Y-87752473D01*
X225030991Y-87935071D01*
X224900437Y-88074074D01*
X224798323Y-88137080D01*
X224788640Y-88138000D01*
X224730378Y-88084327D01*
X224697783Y-87995125D01*
X224671489Y-87829750D01*
X224641422Y-87571373D01*
X224610452Y-87253819D01*
X224581455Y-86910911D01*
X224557303Y-86576473D01*
X224540869Y-86284329D01*
X224535027Y-86079096D01*
X224518945Y-85786115D01*
X224473425Y-85607158D01*
X224399921Y-85546347D01*
X224352599Y-85561862D01*
X224316148Y-85647191D01*
X224291724Y-85837086D01*
X224282054Y-86109450D01*
X224282000Y-86133722D01*
X224270046Y-86458037D01*
X224230920Y-86667146D01*
X224159727Y-86770875D01*
X224051568Y-86779049D01*
X223976225Y-86747275D01*
X223912050Y-86691287D01*
X223867348Y-86587324D01*
X223834737Y-86408775D01*
X223807715Y-86139618D01*
X223780074Y-85866165D01*
X223749016Y-85698782D01*
X223709006Y-85616557D01*
X223664397Y-85598000D01*
X223619010Y-85614720D01*
X223593159Y-85679791D01*
X223584364Y-85815573D01*
X223590143Y-86044429D01*
X223597657Y-86199498D01*
X223607235Y-86527432D01*
X223587399Y-86751873D01*
X223526044Y-86895147D01*
X223411065Y-86979577D01*
X223230355Y-87027486D01*
X223141414Y-87040829D01*
X223122980Y-87041871D01*
X223122980Y-88176616D01*
X223331773Y-88199599D01*
X223440070Y-88298777D01*
X223456500Y-88389040D01*
X223409622Y-88611501D01*
X223265377Y-88768557D01*
X223018342Y-88863463D01*
X222920884Y-88873341D01*
X222920884Y-89099432D01*
X222975326Y-89111573D01*
X223041002Y-89159689D01*
X223069394Y-89254987D01*
X223061900Y-89421491D01*
X223019916Y-89683230D01*
X223011256Y-89729419D01*
X222943895Y-89983422D01*
X222860372Y-90113946D01*
X222758366Y-90123758D01*
X222707640Y-90091055D01*
X222659553Y-90009812D01*
X222646855Y-89858277D01*
X222664009Y-89634313D01*
X222719379Y-89332887D01*
X222804967Y-89154656D01*
X222920884Y-89099432D01*
X222920884Y-88873341D01*
X222663096Y-88899473D01*
X222605280Y-88900000D01*
X222422227Y-88900000D01*
X222422227Y-89106107D01*
X222504907Y-89118423D01*
X222550448Y-89250089D01*
X222558043Y-89499816D01*
X222551817Y-89611685D01*
X222527717Y-89840918D01*
X222494655Y-90020732D01*
X222459731Y-90112657D01*
X222459271Y-90113128D01*
X222354768Y-90145659D01*
X222292368Y-90133537D01*
X222222701Y-90045830D01*
X222185914Y-89875584D01*
X222181536Y-89662799D01*
X222209094Y-89447480D01*
X222268116Y-89269628D01*
X222303216Y-89214431D01*
X222422227Y-89106107D01*
X222422227Y-88900000D01*
X222192254Y-88900000D01*
X222146305Y-89138125D01*
X222121683Y-89327841D01*
X222103310Y-89584873D01*
X222095802Y-89820750D01*
X222091250Y-90265250D01*
X222472250Y-90301831D01*
X222695456Y-90329225D01*
X222877394Y-90362114D01*
X222958302Y-90385669D01*
X223009794Y-90393997D01*
X223045404Y-90349522D01*
X223071186Y-90230980D01*
X223093192Y-90017112D01*
X223104303Y-89872838D01*
X223128114Y-89526361D01*
X223151914Y-89287016D01*
X223193357Y-89136170D01*
X223270095Y-89055191D01*
X223399781Y-89025445D01*
X223600068Y-89028299D01*
X223888492Y-89045114D01*
X224179637Y-89063657D01*
X224431126Y-89085941D01*
X224611020Y-89108779D01*
X224678875Y-89124003D01*
X224772008Y-89216970D01*
X224776903Y-89363866D01*
X224695082Y-89528771D01*
X224659999Y-89569943D01*
X224552288Y-89769068D01*
X224517124Y-89984244D01*
X224514803Y-90156833D01*
X224548820Y-90243006D01*
X224648559Y-90283155D01*
X224747671Y-90301198D01*
X224956992Y-90358961D01*
X225119794Y-90462217D01*
X225240877Y-90624341D01*
X225325040Y-90858706D01*
X225377082Y-91178686D01*
X225401804Y-91597653D01*
X225404003Y-92128981D01*
X225403990Y-92130039D01*
X225393250Y-92978829D01*
X225159938Y-93180358D01*
X224947327Y-93348496D01*
X224759725Y-93468770D01*
X224621545Y-93527231D01*
X224563807Y-93520974D01*
X224564812Y-93448159D01*
X224598136Y-93284278D01*
X224657243Y-93059174D01*
X224687847Y-92954670D01*
X224843328Y-92375393D01*
X224938434Y-91873884D01*
X224973440Y-91456261D01*
X224948626Y-91128641D01*
X224864269Y-90897142D01*
X224720646Y-90767881D01*
X224587363Y-90741500D01*
X224520709Y-90760542D01*
X224485830Y-90836934D01*
X224473334Y-90999570D01*
X224472500Y-91094924D01*
X224483564Y-91314650D01*
X224511934Y-91495845D01*
X224535772Y-91566574D01*
X224573416Y-91731263D01*
X224495350Y-91873800D01*
X224298537Y-91996539D01*
X223979942Y-92101838D01*
X223789928Y-92145425D01*
X223555211Y-92187074D01*
X223399651Y-92192472D01*
X223280533Y-92161084D01*
X223234188Y-92138466D01*
X223135819Y-92070641D01*
X223089225Y-91977555D01*
X223078443Y-91816749D01*
X223080403Y-91729436D01*
X223085015Y-91470431D01*
X223085030Y-91175573D01*
X223083127Y-91039524D01*
X223076858Y-90834381D01*
X223060838Y-90733971D01*
X223022808Y-90716050D01*
X222950505Y-90758375D01*
X222934370Y-90769649D01*
X222782868Y-90831273D01*
X222771781Y-90833105D01*
X222771781Y-91066512D01*
X222848981Y-91080325D01*
X222902282Y-91129021D01*
X222933306Y-91240969D01*
X222946812Y-91440973D01*
X222948500Y-91598750D01*
X222942647Y-91858205D01*
X222921915Y-92015867D01*
X222881543Y-92096537D01*
X222848981Y-92117174D01*
X222726851Y-92118706D01*
X222646681Y-92010001D01*
X222606371Y-91786666D01*
X222600439Y-91597404D01*
X222619377Y-91304907D01*
X222675705Y-91129578D01*
X222771781Y-91066512D01*
X222771781Y-90833105D01*
X222574181Y-90865767D01*
X222502007Y-90868500D01*
X222327629Y-90876729D01*
X222327629Y-91066390D01*
X222404481Y-91080325D01*
X222461450Y-91162360D01*
X222497531Y-91330850D01*
X222512725Y-91546981D01*
X222507030Y-91771937D01*
X222480448Y-91966904D01*
X222432977Y-92093066D01*
X222404481Y-92117174D01*
X222282318Y-92118526D01*
X222201879Y-92009392D01*
X222161077Y-91785439D01*
X222154750Y-91598779D01*
X222173264Y-91305389D01*
X222230197Y-91129366D01*
X222327629Y-91066390D01*
X222327629Y-90876729D01*
X222275549Y-90879187D01*
X222125871Y-90924857D01*
X222039996Y-91025920D01*
X222004949Y-91202785D01*
X222007755Y-91475864D01*
X222017551Y-91630540D01*
X222043094Y-91898850D01*
X222076427Y-92123222D01*
X222112053Y-92270323D01*
X222128612Y-92304012D01*
X222234697Y-92353914D01*
X222447007Y-92389801D01*
X222677593Y-92405805D01*
X222985024Y-92431991D01*
X223176679Y-92487203D01*
X223261940Y-92578915D01*
X223250188Y-92714600D01*
X223199661Y-92821672D01*
X223150770Y-92900195D01*
X223093043Y-92950639D01*
X222999930Y-92979214D01*
X222996838Y-92979471D01*
X222996838Y-93931983D01*
X223160904Y-93990442D01*
X223213213Y-94040961D01*
X223288538Y-94146863D01*
X223318649Y-94246554D01*
X223300285Y-94371808D01*
X223230183Y-94554395D01*
X223140314Y-94751020D01*
X223001029Y-95095884D01*
X222899978Y-95442037D01*
X222840616Y-95764933D01*
X222826396Y-96040027D01*
X222860774Y-96242771D01*
X222918025Y-96330558D01*
X223037099Y-96374498D01*
X223257812Y-96404501D01*
X223537150Y-96416906D01*
X223820304Y-96414270D01*
X224020887Y-96392727D01*
X224182884Y-96343970D01*
X224340539Y-96265198D01*
X224521979Y-96139397D01*
X224647935Y-95984698D01*
X224727630Y-95776972D01*
X224770289Y-95492085D01*
X224785133Y-95105906D01*
X224785169Y-95101833D01*
X224792518Y-94819380D01*
X224810295Y-94648038D01*
X224840961Y-94572168D01*
X224869375Y-94566772D01*
X224974815Y-94660436D01*
X225073353Y-94852765D01*
X225159645Y-95115431D01*
X225228349Y-95420109D01*
X225274122Y-95738472D01*
X225291621Y-96042194D01*
X225275502Y-96302948D01*
X225229208Y-96474504D01*
X225101758Y-96637641D01*
X224889771Y-96796215D01*
X224634064Y-96925260D01*
X224375451Y-96999811D01*
X224368735Y-97000846D01*
X224121635Y-97017821D01*
X223799132Y-97012643D01*
X223450373Y-96987984D01*
X223124506Y-96946520D01*
X223019397Y-96927418D01*
X222804545Y-96884097D01*
X222850937Y-97194173D01*
X222893819Y-97409841D01*
X222963521Y-97688778D01*
X223045718Y-97974102D01*
X223054024Y-98000637D01*
X223143206Y-98322148D01*
X223172292Y-98562897D01*
X223136845Y-98756278D01*
X223032430Y-98935682D01*
X222911180Y-99075875D01*
X222784310Y-99206946D01*
X222688927Y-99285904D01*
X222618746Y-99301471D01*
X222567481Y-99242368D01*
X222528845Y-99097320D01*
X222496552Y-98855049D01*
X222464316Y-98504279D01*
X222442180Y-98234500D01*
X222413171Y-97888838D01*
X222384068Y-97562452D01*
X222358054Y-97289812D01*
X222338314Y-97105389D01*
X222336603Y-97091500D01*
X222300593Y-96805750D01*
X222136664Y-97123250D01*
X222019863Y-97368823D01*
X221897753Y-97654941D01*
X221833106Y-97821750D01*
X221747295Y-98035339D01*
X221672912Y-98155149D01*
X221587654Y-98209835D01*
X221520413Y-98223501D01*
X221272408Y-98208202D01*
X221071642Y-98111601D01*
X220950258Y-97951498D01*
X220935209Y-97899420D01*
X220865449Y-97741864D01*
X220774501Y-97677476D01*
X220698986Y-97636520D01*
X220725351Y-97599901D01*
X220758501Y-97517158D01*
X220785467Y-97312682D01*
X220806392Y-96984809D01*
X220821421Y-96531878D01*
X220822487Y-96485031D01*
X220832900Y-96108085D01*
X220846477Y-95756563D01*
X220861854Y-95458375D01*
X220877666Y-95241430D01*
X220887370Y-95158195D01*
X220966174Y-94872770D01*
X221089086Y-94681414D01*
X221244417Y-94593941D01*
X221420473Y-94620168D01*
X221483892Y-94657369D01*
X221584841Y-94777741D01*
X221607492Y-94954847D01*
X221552706Y-95207666D01*
X221514003Y-95321391D01*
X221467369Y-95505421D01*
X221424392Y-95773510D01*
X221391208Y-96082742D01*
X221378705Y-96267213D01*
X221365826Y-96576184D01*
X221366440Y-96783182D01*
X221382718Y-96912728D01*
X221416827Y-96989343D01*
X221445170Y-97018805D01*
X221545039Y-97070131D01*
X221636996Y-97033298D01*
X221739181Y-96895646D01*
X221810812Y-96763586D01*
X221941310Y-96507789D01*
X221778155Y-96272356D01*
X221653181Y-96045264D01*
X221614155Y-95868274D01*
X221651311Y-95756678D01*
X221754884Y-95725770D01*
X221915110Y-95790843D01*
X222029788Y-95878271D01*
X222203701Y-96014537D01*
X222324630Y-96075765D01*
X222376235Y-96054126D01*
X222377000Y-96044622D01*
X222387182Y-95920538D01*
X222414643Y-95707899D01*
X222454756Y-95434798D01*
X222502892Y-95129328D01*
X222554422Y-94819580D01*
X222604720Y-94533649D01*
X222649156Y-94299625D01*
X222683103Y-94145603D01*
X222696974Y-94102376D01*
X222826652Y-93971143D01*
X222996838Y-93931983D01*
X222996838Y-92979471D01*
X222844879Y-92992134D01*
X222601340Y-92995611D01*
X222455639Y-92995750D01*
X222136226Y-92990932D01*
X221920553Y-92974453D01*
X221785653Y-92943275D01*
X221711444Y-92897323D01*
X221670412Y-92830585D01*
X221640680Y-92712517D01*
X221620096Y-92523904D01*
X221606507Y-92245528D01*
X221598216Y-91886553D01*
X221589498Y-91511848D01*
X221576373Y-91247170D01*
X221556961Y-91075571D01*
X221529380Y-90980103D01*
X221493648Y-90944404D01*
X221456200Y-90949568D01*
X221433899Y-91007656D01*
X221425504Y-91137218D01*
X221429775Y-91356805D01*
X221444866Y-91673756D01*
X221460220Y-92032035D01*
X221457895Y-92282649D01*
X221432797Y-92444311D01*
X221379833Y-92535730D01*
X221293908Y-92575618D01*
X221197325Y-92583000D01*
X221103733Y-92576057D01*
X221030922Y-92545878D01*
X220976362Y-92478436D01*
X220937527Y-92359704D01*
X220911886Y-92175656D01*
X220896911Y-91912265D01*
X220890075Y-91555504D01*
X220888848Y-91091346D01*
X220889355Y-90874553D01*
X220893802Y-90304180D01*
X220904547Y-89848016D01*
X220923519Y-89493345D01*
X220952647Y-89227452D01*
X220993862Y-89037621D01*
X221049092Y-88911135D01*
X221120268Y-88835280D01*
X221204383Y-88798540D01*
X221371150Y-88771002D01*
X221474871Y-88801606D01*
X221526254Y-88908191D01*
X221536007Y-89108594D01*
X221522646Y-89328708D01*
X221498969Y-89597400D01*
X221473818Y-89843636D01*
X221452333Y-90017410D01*
X221450858Y-90027125D01*
X221448768Y-90176800D01*
X221486988Y-90231341D01*
X221541953Y-90179329D01*
X221574492Y-90087033D01*
X221593164Y-89965704D01*
X221615354Y-89750176D01*
X221638025Y-89473081D01*
X221654747Y-89224448D01*
X221681033Y-88869895D01*
X221716649Y-88623091D01*
X221772321Y-88464795D01*
X221858776Y-88375763D01*
X221986740Y-88336753D01*
X222154157Y-88328500D01*
X222372907Y-88311774D01*
X222641025Y-88268766D01*
X222814554Y-88230043D01*
X223122980Y-88176616D01*
X223122980Y-87041871D01*
X222955228Y-87051357D01*
X222844079Y-87011512D01*
X222793014Y-86956975D01*
X222747631Y-86818033D01*
X222785000Y-86688063D01*
X222887161Y-86616841D01*
X222916750Y-86614000D01*
X223029952Y-86554360D01*
X223104507Y-86380592D01*
X223137557Y-86100418D01*
X223139000Y-86013352D01*
X223133529Y-85807374D01*
X223107120Y-85691180D01*
X223044773Y-85627692D01*
X222969299Y-85593836D01*
X222780946Y-85548522D01*
X222679118Y-85594586D01*
X222656335Y-85738011D01*
X222669463Y-85833702D01*
X222720782Y-86013137D01*
X222788755Y-86144394D01*
X222799496Y-86156567D01*
X222883423Y-86297974D01*
X222849541Y-86440305D01*
X222695305Y-86586679D01*
X222418171Y-86740213D01*
X222270107Y-86805259D01*
X221984578Y-86909058D01*
X221688021Y-86992796D01*
X221439941Y-87039926D01*
X221418283Y-87042154D01*
X221266591Y-87054120D01*
X221147400Y-87050577D01*
X221057259Y-87018367D01*
X220992721Y-86944329D01*
X220950335Y-86815302D01*
X220926652Y-86618126D01*
X220918224Y-86339642D01*
X220921601Y-85966689D01*
X220933333Y-85486107D01*
X220940731Y-85220092D01*
X220956424Y-84748434D01*
X220975040Y-84338336D01*
X220995606Y-84004392D01*
X221017148Y-83761195D01*
X221038695Y-83623342D01*
X221048824Y-83598804D01*
X221184529Y-83545487D01*
X221413399Y-83549333D01*
X221716619Y-83607592D01*
X222075375Y-83717510D01*
X222214843Y-83769331D01*
X222536139Y-83903000D01*
X222745052Y-84014570D01*
X222852172Y-84113671D01*
X222868089Y-84209934D01*
X222807582Y-84308407D01*
X222738720Y-84441690D01*
X222691175Y-84637324D01*
X222683252Y-84709000D01*
X222675159Y-84884015D01*
X222697448Y-84965192D01*
X222769848Y-84985245D01*
X222847547Y-84981402D01*
X222990878Y-84959803D01*
X223080263Y-84902319D01*
X223133427Y-84781733D01*
X223168092Y-84570832D01*
X223178937Y-84472533D01*
X223219664Y-84082876D01*
X222984242Y-83984510D01*
X222827867Y-83902093D01*
X222768958Y-83813471D01*
X222769285Y-83743225D01*
X222844368Y-83597846D01*
X223001752Y-83527571D01*
X223217406Y-83538055D01*
X223391108Y-83596896D01*
X223579572Y-83709255D01*
X223675212Y-83850794D01*
X223689577Y-84051164D01*
X223651972Y-84266575D01*
X223597611Y-84567712D01*
X223587559Y-84794493D01*
X223621273Y-84930480D01*
X223675002Y-84963000D01*
X223745327Y-84952574D01*
X223791452Y-84904034D01*
X223823303Y-84791487D01*
X223850803Y-84589039D01*
X223863389Y-84471490D01*
X223896620Y-84194774D01*
X223934517Y-84021251D01*
X223989057Y-83927323D01*
X224072215Y-83889394D01*
X224161793Y-83883500D01*
X224269080Y-83894754D01*
X224330353Y-83945316D01*
X224354560Y-84060380D01*
X224350652Y-84265141D01*
X224342233Y-84391500D01*
X224324517Y-84674300D01*
X224322712Y-84853329D01*
X224339310Y-84951105D01*
X224376804Y-84990145D01*
X224409000Y-84994750D01*
X224487847Y-84936681D01*
X224521860Y-84804250D01*
X224572421Y-84316603D01*
X224628373Y-83879988D01*
X224686924Y-83510793D01*
X224745280Y-83225406D01*
X224800648Y-83040212D01*
X224832356Y-82982780D01*
X224995174Y-82882151D01*
X224995174Y-81754246D01*
X224895525Y-81972017D01*
X224763774Y-82178439D01*
X224626002Y-82337547D01*
X224505931Y-82418524D01*
X224478773Y-82423000D01*
X224435656Y-82364795D01*
X224411696Y-82210176D01*
X224409000Y-82119709D01*
X224400942Y-81903593D01*
X224379741Y-81620484D01*
X224349859Y-81329165D01*
X224347569Y-81310084D01*
X224294105Y-80740022D01*
X224260316Y-80100744D01*
X224247305Y-79442480D01*
X224256178Y-78815457D01*
X224282200Y-78338924D01*
X224335819Y-77846024D01*
X224409588Y-77474337D01*
X224505811Y-77219337D01*
X224626792Y-77076496D01*
X224774836Y-77041288D01*
X224774836Y-75936509D01*
X224650120Y-75917248D01*
X224647125Y-75916591D01*
X224485286Y-75881810D01*
X224246296Y-75831300D01*
X223977377Y-75775032D01*
X223932890Y-75765779D01*
X223425030Y-75660250D01*
X223272913Y-74944393D01*
X223215808Y-74658777D01*
X223199428Y-74563291D01*
X223199428Y-77724000D01*
X223378233Y-77774757D01*
X223482116Y-77918654D01*
X223506555Y-78143129D01*
X223451033Y-78422919D01*
X223427908Y-78563033D01*
X223408724Y-78811041D01*
X223394324Y-79147874D01*
X223385550Y-79554461D01*
X223383156Y-79958232D01*
X223382066Y-80433130D01*
X223375731Y-80795082D01*
X223360885Y-81058129D01*
X223334261Y-81236309D01*
X223292595Y-81343661D01*
X223232620Y-81394224D01*
X223151071Y-81402039D01*
X223051752Y-81382932D01*
X222979848Y-81353093D01*
X222924103Y-81294878D01*
X222883131Y-81194669D01*
X222855545Y-81038848D01*
X222839960Y-80813798D01*
X222834990Y-80505901D01*
X222839250Y-80101538D01*
X222851352Y-79587094D01*
X222855123Y-79450921D01*
X222871875Y-78933005D01*
X222891245Y-78528525D01*
X222915936Y-78223916D01*
X222948653Y-78005615D01*
X222992100Y-77860058D01*
X223048981Y-77773679D01*
X223122002Y-77732916D01*
X223199428Y-77724000D01*
X223199428Y-74563291D01*
X223174972Y-74420725D01*
X223154421Y-74256298D01*
X223157003Y-74192330D01*
X223229433Y-74191726D01*
X223229433Y-74018612D01*
X223171954Y-74021517D01*
X223157755Y-74017421D01*
X223158122Y-73947026D01*
X223182806Y-73784735D01*
X223225085Y-73561804D01*
X223278240Y-73309486D01*
X223335551Y-73059038D01*
X223390298Y-72841712D01*
X223435761Y-72688764D01*
X223452321Y-72647377D01*
X223524677Y-72605156D01*
X223691128Y-72545343D01*
X223921403Y-72476061D01*
X224185228Y-72405432D01*
X224452330Y-72341578D01*
X224692435Y-72292621D01*
X224869375Y-72267184D01*
X224869375Y-72111614D01*
X224855037Y-72139913D01*
X224835720Y-72147935D01*
X224756825Y-72137057D01*
X224581918Y-72103557D01*
X224338824Y-72052980D01*
X224119439Y-72005169D01*
X223815463Y-71934137D01*
X223614989Y-71876392D01*
X223496425Y-71823300D01*
X223438180Y-71766223D01*
X223423258Y-71726713D01*
X223325022Y-71283495D01*
X223246961Y-70915232D01*
X223191471Y-70634062D01*
X223160947Y-70452121D01*
X223157751Y-70381581D01*
X223157751Y-69532500D01*
X223027875Y-69532500D01*
X223027875Y-70358241D01*
X223059101Y-70366030D01*
X223071064Y-70405383D01*
X223061494Y-70499665D01*
X223028124Y-70672243D01*
X222972419Y-70929500D01*
X222913198Y-71196247D01*
X222856866Y-71445599D01*
X222815215Y-71625381D01*
X222813871Y-71631014D01*
X222760030Y-71856279D01*
X222024718Y-71970926D01*
X221735163Y-72013970D01*
X221495268Y-72045657D01*
X221330541Y-72062890D01*
X221266736Y-72062903D01*
X221269276Y-71995393D01*
X221293449Y-71829552D01*
X221335068Y-71591397D01*
X221382030Y-71346528D01*
X221443712Y-71043965D01*
X221491978Y-70842795D01*
X221537081Y-70719635D01*
X221589268Y-70651102D01*
X221658792Y-70613813D01*
X221710371Y-70597497D01*
X221841120Y-70566430D01*
X222051352Y-70523509D01*
X222305130Y-70475261D01*
X222566517Y-70428213D01*
X222799575Y-70388890D01*
X222968365Y-70363818D01*
X223027875Y-70358241D01*
X223027875Y-69532500D01*
X221262593Y-69532500D01*
X221262593Y-72213239D01*
X221329585Y-72218172D01*
X221494927Y-72248647D01*
X221733702Y-72299640D01*
X222019857Y-72365859D01*
X222754085Y-72541514D01*
X222822196Y-72894382D01*
X222871577Y-73139305D01*
X222921773Y-73371555D01*
X222944590Y-73469500D01*
X222987893Y-73694407D01*
X223004099Y-73885012D01*
X222992076Y-74008806D01*
X222964375Y-74038285D01*
X222900875Y-74025292D01*
X222900875Y-74168653D01*
X222959565Y-74173960D01*
X222993666Y-74203980D01*
X223002428Y-74278614D01*
X222985098Y-74417765D01*
X222940927Y-74641332D01*
X222870963Y-74961098D01*
X222806830Y-75230621D01*
X222746097Y-75451676D01*
X222696996Y-75596018D01*
X222674236Y-75636096D01*
X222586259Y-75665693D01*
X222409570Y-75704418D01*
X222175683Y-75747360D01*
X221972720Y-75780396D01*
X221972720Y-77601053D01*
X222074857Y-77654789D01*
X222130911Y-77718000D01*
X222223984Y-77921069D01*
X222222307Y-78065971D01*
X222195294Y-78250992D01*
X222162592Y-78485760D01*
X222149693Y-78581250D01*
X222136985Y-78743493D01*
X222126728Y-79007101D01*
X222119455Y-79346456D01*
X222115701Y-79735938D01*
X222116001Y-80149926D01*
X222116231Y-80185493D01*
X222125161Y-81472237D01*
X221973363Y-81541401D01*
X221782599Y-81573795D01*
X221629552Y-81491317D01*
X221529420Y-81304081D01*
X221513087Y-81235067D01*
X221501931Y-81099118D01*
X221496705Y-80859671D01*
X221496762Y-80540060D01*
X221501455Y-80163616D01*
X221510136Y-79753672D01*
X221522158Y-79333560D01*
X221536873Y-78926613D01*
X221553635Y-78556163D01*
X221571796Y-78245542D01*
X221590709Y-78018082D01*
X221605193Y-77915161D01*
X221674828Y-77736497D01*
X221808024Y-77639129D01*
X221830489Y-77630690D01*
X221972720Y-77601053D01*
X221972720Y-75780396D01*
X221916112Y-75789611D01*
X221662372Y-75826260D01*
X221445979Y-75852397D01*
X221298445Y-75863112D01*
X221251574Y-75857741D01*
X221253651Y-75788468D01*
X221281114Y-75626987D01*
X221326877Y-75403870D01*
X221383855Y-75149686D01*
X221444960Y-74895007D01*
X221503107Y-74670403D01*
X221551208Y-74506445D01*
X221581527Y-74434305D01*
X221653049Y-74409964D01*
X221816984Y-74370178D01*
X222040670Y-74321526D01*
X222291444Y-74270582D01*
X222536643Y-74223925D01*
X222743606Y-74188130D01*
X222879668Y-74169774D01*
X222900875Y-74168653D01*
X222900875Y-74025292D01*
X222887080Y-74022469D01*
X222713463Y-73981606D01*
X222470242Y-73922114D01*
X222218378Y-73859077D01*
X221520007Y-73682583D01*
X221476066Y-73401416D01*
X221438809Y-73188866D01*
X221385694Y-72916286D01*
X221335841Y-72678262D01*
X221291553Y-72458256D01*
X221265072Y-72292711D01*
X221261622Y-72214793D01*
X221262593Y-72213239D01*
X221262593Y-69532500D01*
X221104666Y-69532500D01*
X221104666Y-72219195D01*
X221156676Y-72227644D01*
X221170494Y-72250597D01*
X221170500Y-72251280D01*
X221158592Y-72334042D01*
X221126412Y-72512573D01*
X221079267Y-72758248D01*
X221037447Y-72968533D01*
X220978692Y-73244623D01*
X220924255Y-73473347D01*
X220881187Y-73626543D01*
X220860616Y-73674906D01*
X220781356Y-73707315D01*
X220609797Y-73751909D01*
X220378977Y-73800384D01*
X220311043Y-73813014D01*
X220041402Y-73862657D01*
X219794000Y-73909742D01*
X219616627Y-73945149D01*
X219598875Y-73948919D01*
X219485502Y-73965611D01*
X219485502Y-74124295D01*
X219649689Y-74146748D01*
X219875649Y-74186471D01*
X220132548Y-74237165D01*
X220389555Y-74292530D01*
X220615836Y-74346267D01*
X220780559Y-74392076D01*
X220846130Y-74418036D01*
X220881830Y-74491827D01*
X220932380Y-74662348D01*
X220990060Y-74901350D01*
X221029450Y-75088750D01*
X221093762Y-75414939D01*
X221134957Y-75636706D01*
X221154657Y-75774198D01*
X221154481Y-75847560D01*
X221136050Y-75876938D01*
X221100983Y-75882479D01*
X221093285Y-75882500D01*
X220975548Y-75868666D01*
X220776274Y-75832101D01*
X220527855Y-75780203D01*
X220262683Y-75720372D01*
X220013151Y-75660010D01*
X219811652Y-75606516D01*
X219690578Y-75567290D01*
X219672784Y-75557981D01*
X219635033Y-75477119D01*
X219587574Y-75304836D01*
X219536123Y-75072778D01*
X219486400Y-74812590D01*
X219444123Y-74555918D01*
X219415009Y-74334407D01*
X219404778Y-74179701D01*
X219413919Y-74125413D01*
X219485502Y-74124295D01*
X219485502Y-73965611D01*
X219458375Y-73969606D01*
X219402122Y-73934732D01*
X219392551Y-73842562D01*
X219405700Y-73706509D01*
X219441368Y-73477756D01*
X219493970Y-73187451D01*
X219557921Y-72866747D01*
X219614389Y-72605267D01*
X219648746Y-72534416D01*
X219731551Y-72479815D01*
X219887946Y-72430903D01*
X220143070Y-72377116D01*
X220169352Y-72372125D01*
X220546807Y-72301715D01*
X220816999Y-72254146D01*
X220997196Y-72227334D01*
X221104666Y-72219195D01*
X221104666Y-69532500D01*
X218630500Y-69532500D01*
X218630500Y-100711000D01*
X226822000Y-100711000D01*
G36*
X222072992Y-85711483D02*
X222085830Y-85920058D01*
X222106195Y-86042923D01*
X222115246Y-86060146D01*
X222189145Y-86106522D01*
X222208916Y-86101766D01*
X222227492Y-86022082D01*
X222243230Y-85846684D01*
X222255644Y-85604322D01*
X222264251Y-85323745D01*
X222268565Y-85033702D01*
X222268102Y-84762941D01*
X222262377Y-84540213D01*
X222250904Y-84394265D01*
X222238413Y-84352589D01*
X222149084Y-84348076D01*
X222134650Y-84358644D01*
X222109593Y-84444534D01*
X222089987Y-84626698D01*
X222076178Y-84874806D01*
X222068512Y-85158526D01*
X222067335Y-85447529D01*
X222072992Y-85711483D01*
X222072992Y-85711483D01*
G37*
X222072992Y-85711483D02*
X222085830Y-85920058D01*
X222106195Y-86042923D01*
X222115246Y-86060146D01*
X222189145Y-86106522D01*
X222208916Y-86101766D01*
X222227492Y-86022082D01*
X222243230Y-85846684D01*
X222255644Y-85604322D01*
X222264251Y-85323745D01*
X222268565Y-85033702D01*
X222268102Y-84762941D01*
X222262377Y-84540213D01*
X222250904Y-84394265D01*
X222238413Y-84352589D01*
X222149084Y-84348076D01*
X222134650Y-84358644D01*
X222109593Y-84444534D01*
X222089987Y-84626698D01*
X222076178Y-84874806D01*
X222068512Y-85158526D01*
X222067335Y-85447529D01*
X222072992Y-85711483D01*
G36*
X221429772Y-85774525D02*
X221444939Y-86048459D01*
X221469021Y-86217273D01*
X221492224Y-86267361D01*
X221570317Y-86291805D01*
X221582662Y-86286504D01*
X221596327Y-86213364D01*
X221607715Y-86041191D01*
X221616609Y-85796662D01*
X221622791Y-85506456D01*
X221626043Y-85197252D01*
X221626146Y-84895727D01*
X221622884Y-84628560D01*
X221616037Y-84422429D01*
X221605387Y-84304012D01*
X221599006Y-84286244D01*
X221536800Y-84306338D01*
X221487108Y-84445406D01*
X221451100Y-84695930D01*
X221429944Y-85050392D01*
X221424500Y-85407886D01*
X221429772Y-85774525D01*
X221429772Y-85774525D01*
G37*
X221429772Y-85774525D02*
X221444939Y-86048459D01*
X221469021Y-86217273D01*
X221492224Y-86267361D01*
X221570317Y-86291805D01*
X221582662Y-86286504D01*
X221596327Y-86213364D01*
X221607715Y-86041191D01*
X221616609Y-85796662D01*
X221622791Y-85506456D01*
X221626043Y-85197252D01*
X221626146Y-84895727D01*
X221622884Y-84628560D01*
X221616037Y-84422429D01*
X221605387Y-84304012D01*
X221599006Y-84286244D01*
X221536800Y-84306338D01*
X221487108Y-84445406D01*
X221451100Y-84695930D01*
X221429944Y-85050392D01*
X221424500Y-85407886D01*
X221429772Y-85774525D01*
G36*
X223977112Y-90118164D02*
X224009022Y-90220388D01*
X224028000Y-90233500D01*
X224073059Y-90178441D01*
X224091500Y-90048193D01*
X224104408Y-89876467D01*
X224130043Y-89762443D01*
X224124148Y-89677545D01*
X224066543Y-89662000D01*
X224000588Y-89693099D01*
X223969980Y-89804119D01*
X223964500Y-89947750D01*
X223977112Y-90118164D01*
X223977112Y-90118164D01*
G37*
X223977112Y-90118164D02*
X224009022Y-90220388D01*
X224028000Y-90233500D01*
X224073059Y-90178441D01*
X224091500Y-90048193D01*
X224104408Y-89876467D01*
X224130043Y-89762443D01*
X224124148Y-89677545D01*
X224066543Y-89662000D01*
X224000588Y-89693099D01*
X223969980Y-89804119D01*
X223964500Y-89947750D01*
X223977112Y-90118164D01*
G36*
X223940754Y-91310027D02*
X223992300Y-91424938D01*
X224034793Y-91440000D01*
X224070860Y-91384995D01*
X224088350Y-91251073D01*
X224087789Y-91084872D01*
X224069702Y-90933029D01*
X224034615Y-90842182D01*
X224028000Y-90836750D01*
X223983629Y-90818674D01*
X223958987Y-90854532D01*
X223943763Y-90972524D01*
X223935113Y-91090750D01*
X223940754Y-91310027D01*
X223940754Y-91310027D01*
G37*
X223940754Y-91310027D02*
X223992300Y-91424938D01*
X224034793Y-91440000D01*
X224070860Y-91384995D01*
X224088350Y-91251073D01*
X224087789Y-91084872D01*
X224069702Y-90933029D01*
X224034615Y-90842182D01*
X224028000Y-90836750D01*
X223983629Y-90818674D01*
X223958987Y-90854532D01*
X223943763Y-90972524D01*
X223935113Y-91090750D01*
X223940754Y-91310027D01*
G36*
X223470780Y-90140912D02*
X223506394Y-90227678D01*
X223520000Y-90233500D01*
X223557663Y-90176699D01*
X223580426Y-90032794D01*
X223583500Y-89944002D01*
X223571423Y-89767509D01*
X223538261Y-89691725D01*
X223520000Y-89693750D01*
X223479410Y-89777008D01*
X223457660Y-89934935D01*
X223456500Y-89983247D01*
X223470780Y-90140912D01*
X223470780Y-90140912D01*
G37*
X223470780Y-90140912D02*
X223506394Y-90227678D01*
X223520000Y-90233500D01*
X223557663Y-90176699D01*
X223580426Y-90032794D01*
X223583500Y-89944002D01*
X223571423Y-89767509D01*
X223538261Y-89691725D01*
X223520000Y-89693750D01*
X223479410Y-89777008D01*
X223457660Y-89934935D01*
X223456500Y-89983247D01*
X223470780Y-90140912D01*
G36*
X223469112Y-91388164D02*
X223501022Y-91490388D01*
X223520000Y-91503500D01*
X223557869Y-91446744D01*
X223580586Y-91303146D01*
X223583500Y-91217750D01*
X223570887Y-91047335D01*
X223538977Y-90945111D01*
X223520000Y-90932000D01*
X223482130Y-90988755D01*
X223459413Y-91132353D01*
X223456500Y-91217750D01*
X223469112Y-91388164D01*
X223469112Y-91388164D01*
G37*
X223469112Y-91388164D02*
X223501022Y-91490388D01*
X223520000Y-91503500D01*
X223557869Y-91446744D01*
X223580586Y-91303146D01*
X223583500Y-91217750D01*
X223570887Y-91047335D01*
X223538977Y-90945111D01*
X223520000Y-90932000D01*
X223482130Y-90988755D01*
X223459413Y-91132353D01*
X223456500Y-91217750D01*
X223469112Y-91388164D01*
M02*
