%FSLAX45Y45*%
G04 Gerber Fmt 4.5, Leading zero omitted, Abs format (unit mm)*
G04 Created by KiCad (PCBNEW 4.0.4-stable) date 12/24/16 13:34:28*
%MOMM*%
%LPD*%
G01*
G04 APERTURE LIST*
%ADD10C,0.127000*%
%ADD11C,0.150000*%
%ADD12C,0.200000*%
%ADD13C,0.300000*%
G04 APERTURE END LIST*
D10*
D11*
X10007600Y-8153400D02*
X10007600Y-14488000D01*
X10083800Y-8077200D02*
X10896600Y-8077200D01*
X10083800Y-8077200D02*
G75*
G03X10007600Y-8153400I0J-76200D01*
G01*
X17157700Y-6083300D02*
X17870170Y-6083300D01*
X16992600Y-4902200D02*
X16992600Y-5918200D01*
X16992600Y-5918200D02*
G75*
G03X17157700Y-6083300I165100J0D01*
G01*
X11607800Y-4800600D02*
X16891000Y-4800600D01*
X11506200Y-5638800D02*
X11506200Y-4902200D01*
X16992600Y-4902200D02*
G75*
G03X16891000Y-4800600I-101600J0D01*
G01*
X11607800Y-4800600D02*
G75*
G03X11506200Y-4902200I0J-101600D01*
G01*
X10896600Y-6007100D02*
X10896600Y-8077200D01*
X11112500Y-5778500D02*
X11366500Y-5778500D01*
X11366500Y-5778500D02*
G75*
G03X11506200Y-5638800I0J139700D01*
G01*
X11112520Y-5778852D02*
G75*
G03X10896600Y-6007100I12680J-228248D01*
G01*
X18111470Y-6322060D02*
G75*
G03X17870170Y-6083300I-240030J-1270D01*
G01*
X10007590Y-14488170D02*
G75*
G03X10257790Y-14720570I241300J8900D01*
G01*
X17868900Y-14719300D02*
G75*
G03X18110200Y-14478000I0J241300D01*
G01*
X10257790Y-14720570D02*
X17868900Y-14719300D01*
X18111470Y-6322060D02*
X18110200Y-14478000D01*
D12*
X11219500Y-6965000D02*
X11259500Y-7005000D01*
X11259500Y-6965000D02*
X11219500Y-7005000D01*
X11384600Y-12692700D02*
X11424600Y-12732700D01*
X11424600Y-12692700D02*
X11384600Y-12732700D01*
X11511600Y-10584500D02*
X11551600Y-10624500D01*
X11551600Y-10584500D02*
X11511600Y-10624500D01*
X11676700Y-6965000D02*
X11716700Y-7005000D01*
X11716700Y-6965000D02*
X11676700Y-7005000D01*
X14289598Y-14077000D02*
X14329598Y-14117000D01*
X14329598Y-14077000D02*
X14289598Y-14117000D01*
X14496100Y-14089700D02*
X14536100Y-14129700D01*
X14536100Y-14089700D02*
X14496100Y-14129700D01*
X14800900Y-14089700D02*
X14840900Y-14129700D01*
X14840900Y-14089700D02*
X14800900Y-14129700D01*
X15004100Y-14064300D02*
X15044100Y-14104300D01*
X15044100Y-14064300D02*
X15004100Y-14104300D01*
X15308900Y-14077000D02*
X15348900Y-14117000D01*
X15348900Y-14077000D02*
X15308900Y-14117000D01*
X15512100Y-14077000D02*
X15552100Y-14117000D01*
X15552100Y-14077000D02*
X15512100Y-14117000D01*
X15816900Y-14077000D02*
X15856900Y-14117000D01*
X15856900Y-14077000D02*
X15816900Y-14117000D01*
X16020100Y-14064300D02*
X16060100Y-14104300D01*
X16060100Y-14064300D02*
X16020100Y-14104300D01*
X17620300Y-13632500D02*
X17660300Y-13672500D01*
X17660300Y-13632500D02*
X17620300Y-13672500D01*
X17823500Y-11587800D02*
X17863500Y-11627800D01*
X17863500Y-11587800D02*
X17823500Y-11627800D01*
X17836200Y-13632500D02*
X17876200Y-13672500D01*
X17876200Y-13632500D02*
X17836200Y-13672500D01*
X10179600Y-9613900D02*
G75*
G03X10179600Y-9613900I-45000J0D01*
G01*
X10179600Y-9867900D02*
G75*
G03X10179600Y-9867900I-45000J0D01*
G01*
X10814600Y-10934700D02*
G75*
G03X10814600Y-10934700I-45000J0D01*
G01*
X10814600Y-11442700D02*
G75*
G03X10814600Y-11442700I-45000J0D01*
G01*
X10814600Y-12992100D02*
G75*
G03X10814600Y-12992100I-45000J0D01*
G01*
X10814600Y-13500100D02*
G75*
G03X10814600Y-13500100I-45000J0D01*
G01*
X11068600Y-10934700D02*
G75*
G03X11068600Y-10934700I-45000J0D01*
G01*
X11068600Y-11442700D02*
G75*
G03X11068600Y-11442700I-45000J0D01*
G01*
X11068600Y-12992100D02*
G75*
G03X11068600Y-12992100I-45000J0D01*
G01*
X11068600Y-13500100D02*
G75*
G03X11068600Y-13500100I-45000J0D01*
G01*
X11322600Y-6375400D02*
G75*
G03X11322600Y-6375400I-45000J0D01*
G01*
X11322600Y-6629400D02*
G75*
G03X11322600Y-6629400I-45000J0D01*
G01*
X11322600Y-9677400D02*
G75*
G03X11322600Y-9677400I-45000J0D01*
G01*
X11322600Y-9931400D02*
G75*
G03X11322600Y-9931400I-45000J0D01*
G01*
X11322600Y-10934700D02*
G75*
G03X11322600Y-10934700I-45000J0D01*
G01*
X11322600Y-11442700D02*
G75*
G03X11322600Y-11442700I-45000J0D01*
G01*
X11322600Y-12992100D02*
G75*
G03X11322600Y-12992100I-45000J0D01*
G01*
X11322600Y-13500100D02*
G75*
G03X11322600Y-13500100I-45000J0D01*
G01*
X11576600Y-6375400D02*
G75*
G03X11576600Y-6375400I-45000J0D01*
G01*
X11576600Y-6629400D02*
G75*
G03X11576600Y-6629400I-45000J0D01*
G01*
X11576600Y-9677400D02*
G75*
G03X11576600Y-9677400I-45000J0D01*
G01*
X11576600Y-9931400D02*
G75*
G03X11576600Y-9931400I-45000J0D01*
G01*
X11576600Y-10934700D02*
G75*
G03X11576600Y-10934700I-45000J0D01*
G01*
X11576600Y-11442700D02*
G75*
G03X11576600Y-11442700I-45000J0D01*
G01*
X11576600Y-12992100D02*
G75*
G03X11576600Y-12992100I-45000J0D01*
G01*
X11576600Y-13500100D02*
G75*
G03X11576600Y-13500100I-45000J0D01*
G01*
X11830600Y-6375400D02*
G75*
G03X11830600Y-6375400I-45000J0D01*
G01*
X11830600Y-6629400D02*
G75*
G03X11830600Y-6629400I-45000J0D01*
G01*
X11830600Y-9677400D02*
G75*
G03X11830600Y-9677400I-45000J0D01*
G01*
X11830600Y-9931400D02*
G75*
G03X11830600Y-9931400I-45000J0D01*
G01*
X11830600Y-10934700D02*
G75*
G03X11830600Y-10934700I-45000J0D01*
G01*
X11830600Y-11442700D02*
G75*
G03X11830600Y-11442700I-45000J0D01*
G01*
X11830600Y-12992100D02*
G75*
G03X11830600Y-12992100I-45000J0D01*
G01*
X11830600Y-13500100D02*
G75*
G03X11830600Y-13500100I-45000J0D01*
G01*
X12084600Y-6375400D02*
G75*
G03X12084600Y-6375400I-45000J0D01*
G01*
X12084600Y-6629400D02*
G75*
G03X12084600Y-6629400I-45000J0D01*
G01*
X12084600Y-9677400D02*
G75*
G03X12084600Y-9677400I-45000J0D01*
G01*
X12084600Y-9931400D02*
G75*
G03X12084600Y-9931400I-45000J0D01*
G01*
X12084600Y-10934700D02*
G75*
G03X12084600Y-10934700I-45000J0D01*
G01*
X12084600Y-11442700D02*
G75*
G03X12084600Y-11442700I-45000J0D01*
G01*
X12084600Y-12992100D02*
G75*
G03X12084600Y-12992100I-45000J0D01*
G01*
X12084600Y-13500100D02*
G75*
G03X12084600Y-13500100I-45000J0D01*
G01*
X12338600Y-6375400D02*
G75*
G03X12338600Y-6375400I-45000J0D01*
G01*
X12338600Y-6629400D02*
G75*
G03X12338600Y-6629400I-45000J0D01*
G01*
X12338600Y-9677400D02*
G75*
G03X12338600Y-9677400I-45000J0D01*
G01*
X12338600Y-9931400D02*
G75*
G03X12338600Y-9931400I-45000J0D01*
G01*
X12338600Y-10934700D02*
G75*
G03X12338600Y-10934700I-45000J0D01*
G01*
X12338600Y-11442700D02*
G75*
G03X12338600Y-11442700I-45000J0D01*
G01*
X12338600Y-12992100D02*
G75*
G03X12338600Y-12992100I-45000J0D01*
G01*
X12338600Y-13500100D02*
G75*
G03X12338600Y-13500100I-45000J0D01*
G01*
X12592600Y-6375400D02*
G75*
G03X12592600Y-6375400I-45000J0D01*
G01*
X12592600Y-6629400D02*
G75*
G03X12592600Y-6629400I-45000J0D01*
G01*
X12592600Y-9677400D02*
G75*
G03X12592600Y-9677400I-45000J0D01*
G01*
X12592600Y-9931400D02*
G75*
G03X12592600Y-9931400I-45000J0D01*
G01*
X12592600Y-10934700D02*
G75*
G03X12592600Y-10934700I-45000J0D01*
G01*
X12592600Y-11442700D02*
G75*
G03X12592600Y-11442700I-45000J0D01*
G01*
X12592600Y-12992100D02*
G75*
G03X12592600Y-12992100I-45000J0D01*
G01*
X12592600Y-13500100D02*
G75*
G03X12592600Y-13500100I-45000J0D01*
G01*
X12846600Y-6375400D02*
G75*
G03X12846600Y-6375400I-45000J0D01*
G01*
X12846600Y-6629400D02*
G75*
G03X12846600Y-6629400I-45000J0D01*
G01*
X12846600Y-9677400D02*
G75*
G03X12846600Y-9677400I-45000J0D01*
G01*
X12846600Y-9931400D02*
G75*
G03X12846600Y-9931400I-45000J0D01*
G01*
X12846600Y-10934700D02*
G75*
G03X12846600Y-10934700I-45000J0D01*
G01*
X12846600Y-11442700D02*
G75*
G03X12846600Y-11442700I-45000J0D01*
G01*
X12846600Y-12992100D02*
G75*
G03X12846600Y-12992100I-45000J0D01*
G01*
X12846600Y-13500100D02*
G75*
G03X12846600Y-13500100I-45000J0D01*
G01*
X13100600Y-6375400D02*
G75*
G03X13100600Y-6375400I-45000J0D01*
G01*
X13100600Y-6629400D02*
G75*
G03X13100600Y-6629400I-45000J0D01*
G01*
X13100600Y-9677400D02*
G75*
G03X13100600Y-9677400I-45000J0D01*
G01*
X13100600Y-9931400D02*
G75*
G03X13100600Y-9931400I-45000J0D01*
G01*
X13100600Y-10934700D02*
G75*
G03X13100600Y-10934700I-45000J0D01*
G01*
X13100600Y-11442700D02*
G75*
G03X13100600Y-11442700I-45000J0D01*
G01*
X13100600Y-12992100D02*
G75*
G03X13100600Y-12992100I-45000J0D01*
G01*
X13100600Y-13500100D02*
G75*
G03X13100600Y-13500100I-45000J0D01*
G01*
X13354600Y-6375400D02*
G75*
G03X13354600Y-6375400I-45000J0D01*
G01*
X13354600Y-6629400D02*
G75*
G03X13354600Y-6629400I-45000J0D01*
G01*
X13354600Y-9677400D02*
G75*
G03X13354600Y-9677400I-45000J0D01*
G01*
X13354600Y-9931400D02*
G75*
G03X13354600Y-9931400I-45000J0D01*
G01*
X13354600Y-10934700D02*
G75*
G03X13354600Y-10934700I-45000J0D01*
G01*
X13354600Y-11442700D02*
G75*
G03X13354600Y-11442700I-45000J0D01*
G01*
X13354600Y-12992100D02*
G75*
G03X13354600Y-12992100I-45000J0D01*
G01*
X13354600Y-13500100D02*
G75*
G03X13354600Y-13500100I-45000J0D01*
G01*
X13608600Y-6375400D02*
G75*
G03X13608600Y-6375400I-45000J0D01*
G01*
X13608600Y-6629400D02*
G75*
G03X13608600Y-6629400I-45000J0D01*
G01*
X13608600Y-9677400D02*
G75*
G03X13608600Y-9677400I-45000J0D01*
G01*
X13608600Y-9931400D02*
G75*
G03X13608600Y-9931400I-45000J0D01*
G01*
X13608600Y-10934700D02*
G75*
G03X13608600Y-10934700I-45000J0D01*
G01*
X13608600Y-11442700D02*
G75*
G03X13608600Y-11442700I-45000J0D01*
G01*
X13608600Y-12992100D02*
G75*
G03X13608600Y-12992100I-45000J0D01*
G01*
X13608600Y-13500100D02*
G75*
G03X13608600Y-13500100I-45000J0D01*
G01*
X13862600Y-6375400D02*
G75*
G03X13862600Y-6375400I-45000J0D01*
G01*
X13862600Y-6629400D02*
G75*
G03X13862600Y-6629400I-45000J0D01*
G01*
X13862600Y-9677400D02*
G75*
G03X13862600Y-9677400I-45000J0D01*
G01*
X13862600Y-9931400D02*
G75*
G03X13862600Y-9931400I-45000J0D01*
G01*
X13862600Y-10934700D02*
G75*
G03X13862600Y-10934700I-45000J0D01*
G01*
X13862600Y-11442700D02*
G75*
G03X13862600Y-11442700I-45000J0D01*
G01*
X13862600Y-12992100D02*
G75*
G03X13862600Y-12992100I-45000J0D01*
G01*
X13862600Y-13500100D02*
G75*
G03X13862600Y-13500100I-45000J0D01*
G01*
X14116600Y-6375400D02*
G75*
G03X14116600Y-6375400I-45000J0D01*
G01*
X14116600Y-6629400D02*
G75*
G03X14116600Y-6629400I-45000J0D01*
G01*
X14116600Y-9677400D02*
G75*
G03X14116600Y-9677400I-45000J0D01*
G01*
X14116600Y-9931400D02*
G75*
G03X14116600Y-9931400I-45000J0D01*
G01*
X14116600Y-10934700D02*
G75*
G03X14116600Y-10934700I-45000J0D01*
G01*
X14116600Y-11442700D02*
G75*
G03X14116600Y-11442700I-45000J0D01*
G01*
X14116600Y-12992100D02*
G75*
G03X14116600Y-12992100I-45000J0D01*
G01*
X14116600Y-13500100D02*
G75*
G03X14116600Y-13500100I-45000J0D01*
G01*
X14370600Y-6375400D02*
G75*
G03X14370600Y-6375400I-45000J0D01*
G01*
X14370600Y-6629400D02*
G75*
G03X14370600Y-6629400I-45000J0D01*
G01*
X14370600Y-9677400D02*
G75*
G03X14370600Y-9677400I-45000J0D01*
G01*
X14370600Y-9931400D02*
G75*
G03X14370600Y-9931400I-45000J0D01*
G01*
X14370600Y-10934700D02*
G75*
G03X14370600Y-10934700I-45000J0D01*
G01*
X14370600Y-11442700D02*
G75*
G03X14370600Y-11442700I-45000J0D01*
G01*
X14370600Y-12992100D02*
G75*
G03X14370600Y-12992100I-45000J0D01*
G01*
X14370600Y-13500100D02*
G75*
G03X14370600Y-13500100I-45000J0D01*
G01*
X14624600Y-6375400D02*
G75*
G03X14624600Y-6375400I-45000J0D01*
G01*
X14624600Y-6629400D02*
G75*
G03X14624600Y-6629400I-45000J0D01*
G01*
X14624600Y-9677400D02*
G75*
G03X14624600Y-9677400I-45000J0D01*
G01*
X14624600Y-9931400D02*
G75*
G03X14624600Y-9931400I-45000J0D01*
G01*
X14624600Y-10934700D02*
G75*
G03X14624600Y-10934700I-45000J0D01*
G01*
X14624600Y-11442700D02*
G75*
G03X14624600Y-11442700I-45000J0D01*
G01*
X14624600Y-12992100D02*
G75*
G03X14624600Y-12992100I-45000J0D01*
G01*
X14624600Y-13500100D02*
G75*
G03X14624600Y-13500100I-45000J0D01*
G01*
X14878600Y-6375400D02*
G75*
G03X14878600Y-6375400I-45000J0D01*
G01*
X14878600Y-6629400D02*
G75*
G03X14878600Y-6629400I-45000J0D01*
G01*
X14878600Y-9677400D02*
G75*
G03X14878600Y-9677400I-45000J0D01*
G01*
X14878600Y-9931400D02*
G75*
G03X14878600Y-9931400I-45000J0D01*
G01*
X14878600Y-10934700D02*
G75*
G03X14878600Y-10934700I-45000J0D01*
G01*
X14878600Y-11442700D02*
G75*
G03X14878600Y-11442700I-45000J0D01*
G01*
X14878600Y-12992100D02*
G75*
G03X14878600Y-12992100I-45000J0D01*
G01*
X14878600Y-13500100D02*
G75*
G03X14878600Y-13500100I-45000J0D01*
G01*
X15132600Y-6375400D02*
G75*
G03X15132600Y-6375400I-45000J0D01*
G01*
X15132600Y-6629400D02*
G75*
G03X15132600Y-6629400I-45000J0D01*
G01*
X15132600Y-9677400D02*
G75*
G03X15132600Y-9677400I-45000J0D01*
G01*
X15132600Y-9931400D02*
G75*
G03X15132600Y-9931400I-45000J0D01*
G01*
X15132600Y-10934700D02*
G75*
G03X15132600Y-10934700I-45000J0D01*
G01*
X15132600Y-11442700D02*
G75*
G03X15132600Y-11442700I-45000J0D01*
G01*
X15132600Y-12992100D02*
G75*
G03X15132600Y-12992100I-45000J0D01*
G01*
X15132600Y-13500100D02*
G75*
G03X15132600Y-13500100I-45000J0D01*
G01*
X15386600Y-6375400D02*
G75*
G03X15386600Y-6375400I-45000J0D01*
G01*
X15386600Y-6629400D02*
G75*
G03X15386600Y-6629400I-45000J0D01*
G01*
X15386600Y-9677400D02*
G75*
G03X15386600Y-9677400I-45000J0D01*
G01*
X15386600Y-9931400D02*
G75*
G03X15386600Y-9931400I-45000J0D01*
G01*
X15386600Y-10934700D02*
G75*
G03X15386600Y-10934700I-45000J0D01*
G01*
X15386600Y-11442700D02*
G75*
G03X15386600Y-11442700I-45000J0D01*
G01*
X15386600Y-12992100D02*
G75*
G03X15386600Y-12992100I-45000J0D01*
G01*
X15386600Y-13500100D02*
G75*
G03X15386600Y-13500100I-45000J0D01*
G01*
X15640600Y-6375400D02*
G75*
G03X15640600Y-6375400I-45000J0D01*
G01*
X15640600Y-6629400D02*
G75*
G03X15640600Y-6629400I-45000J0D01*
G01*
X15640600Y-9677400D02*
G75*
G03X15640600Y-9677400I-45000J0D01*
G01*
X15640600Y-9931400D02*
G75*
G03X15640600Y-9931400I-45000J0D01*
G01*
X15640600Y-10934700D02*
G75*
G03X15640600Y-10934700I-45000J0D01*
G01*
X15640600Y-11442700D02*
G75*
G03X15640600Y-11442700I-45000J0D01*
G01*
X15640600Y-12992100D02*
G75*
G03X15640600Y-12992100I-45000J0D01*
G01*
X15640600Y-13500100D02*
G75*
G03X15640600Y-13500100I-45000J0D01*
G01*
X15894600Y-6375400D02*
G75*
G03X15894600Y-6375400I-45000J0D01*
G01*
X15894600Y-6629400D02*
G75*
G03X15894600Y-6629400I-45000J0D01*
G01*
X15894600Y-9677400D02*
G75*
G03X15894600Y-9677400I-45000J0D01*
G01*
X15894600Y-9931400D02*
G75*
G03X15894600Y-9931400I-45000J0D01*
G01*
X15894600Y-10934700D02*
G75*
G03X15894600Y-10934700I-45000J0D01*
G01*
X15894600Y-11442700D02*
G75*
G03X15894600Y-11442700I-45000J0D01*
G01*
X15894600Y-12992100D02*
G75*
G03X15894600Y-12992100I-45000J0D01*
G01*
X15894600Y-13500100D02*
G75*
G03X15894600Y-13500100I-45000J0D01*
G01*
X16148600Y-6375400D02*
G75*
G03X16148600Y-6375400I-45000J0D01*
G01*
X16148600Y-6629400D02*
G75*
G03X16148600Y-6629400I-45000J0D01*
G01*
X16148600Y-9677400D02*
G75*
G03X16148600Y-9677400I-45000J0D01*
G01*
X16148600Y-9931400D02*
G75*
G03X16148600Y-9931400I-45000J0D01*
G01*
X16148600Y-10934700D02*
G75*
G03X16148600Y-10934700I-45000J0D01*
G01*
X16148600Y-11442700D02*
G75*
G03X16148600Y-11442700I-45000J0D01*
G01*
X16148600Y-12992100D02*
G75*
G03X16148600Y-12992100I-45000J0D01*
G01*
X16148600Y-13500100D02*
G75*
G03X16148600Y-13500100I-45000J0D01*
G01*
X16402600Y-6375400D02*
G75*
G03X16402600Y-6375400I-45000J0D01*
G01*
X16402600Y-6629400D02*
G75*
G03X16402600Y-6629400I-45000J0D01*
G01*
X16402600Y-9677400D02*
G75*
G03X16402600Y-9677400I-45000J0D01*
G01*
X16402600Y-9931400D02*
G75*
G03X16402600Y-9931400I-45000J0D01*
G01*
X16402600Y-10934700D02*
G75*
G03X16402600Y-10934700I-45000J0D01*
G01*
X16402600Y-11442700D02*
G75*
G03X16402600Y-11442700I-45000J0D01*
G01*
X16402600Y-12992100D02*
G75*
G03X16402600Y-12992100I-45000J0D01*
G01*
X16402600Y-13500100D02*
G75*
G03X16402600Y-13500100I-45000J0D01*
G01*
X16656600Y-6375400D02*
G75*
G03X16656600Y-6375400I-45000J0D01*
G01*
X16656600Y-6629400D02*
G75*
G03X16656600Y-6629400I-45000J0D01*
G01*
X16656600Y-9677400D02*
G75*
G03X16656600Y-9677400I-45000J0D01*
G01*
X16656600Y-9931400D02*
G75*
G03X16656600Y-9931400I-45000J0D01*
G01*
X16656600Y-10934700D02*
G75*
G03X16656600Y-10934700I-45000J0D01*
G01*
X16656600Y-11442700D02*
G75*
G03X16656600Y-11442700I-45000J0D01*
G01*
X16656600Y-12992100D02*
G75*
G03X16656600Y-12992100I-45000J0D01*
G01*
X16656600Y-13500100D02*
G75*
G03X16656600Y-13500100I-45000J0D01*
G01*
X16910600Y-10934700D02*
G75*
G03X16910600Y-10934700I-45000J0D01*
G01*
X16910600Y-11442700D02*
G75*
G03X16910600Y-11442700I-45000J0D01*
G01*
X16910600Y-12992100D02*
G75*
G03X16910600Y-12992100I-45000J0D01*
G01*
X16910600Y-13500100D02*
G75*
G03X16910600Y-13500100I-45000J0D01*
G01*
X11785600Y-5054600D02*
X11785600Y-5156200D01*
X11734800Y-5105400D02*
X11836400Y-5105400D01*
X11785600Y-5308600D02*
X11785600Y-5410200D01*
X11734800Y-5359400D02*
X11836400Y-5359400D01*
X12039600Y-5054600D02*
X12039600Y-5156200D01*
X11988800Y-5105400D02*
X12090400Y-5105400D01*
X12039600Y-5308600D02*
X12039600Y-5410200D01*
X11988800Y-5359400D02*
X12090400Y-5359400D01*
X12293600Y-5054600D02*
X12293600Y-5156200D01*
X12242800Y-5105400D02*
X12344400Y-5105400D01*
X12293600Y-5308600D02*
X12293600Y-5410200D01*
X12242800Y-5359400D02*
X12344400Y-5359400D01*
X12547600Y-5054600D02*
X12547600Y-5156200D01*
X12496800Y-5105400D02*
X12598400Y-5105400D01*
X12547600Y-5308600D02*
X12547600Y-5410200D01*
X12496800Y-5359400D02*
X12598400Y-5359400D01*
X12801600Y-5054600D02*
X12801600Y-5156200D01*
X12750800Y-5105400D02*
X12852400Y-5105400D01*
X12801600Y-5308600D02*
X12801600Y-5410200D01*
X12750800Y-5359400D02*
X12852400Y-5359400D01*
X13055600Y-5054600D02*
X13055600Y-5156200D01*
X13004800Y-5105400D02*
X13106400Y-5105400D01*
X13055600Y-5308600D02*
X13055600Y-5410200D01*
X13004800Y-5359400D02*
X13106400Y-5359400D01*
X13309600Y-5054600D02*
X13309600Y-5156200D01*
X13258800Y-5105400D02*
X13360400Y-5105400D01*
X13309600Y-5308600D02*
X13309600Y-5410200D01*
X13258800Y-5359400D02*
X13360400Y-5359400D01*
X13563600Y-5054600D02*
X13563600Y-5156200D01*
X13512800Y-5105400D02*
X13614400Y-5105400D01*
X13563600Y-5308600D02*
X13563600Y-5410200D01*
X13512800Y-5359400D02*
X13614400Y-5359400D01*
X13817600Y-5054600D02*
X13817600Y-5156200D01*
X13766800Y-5105400D02*
X13868400Y-5105400D01*
X13817600Y-5308600D02*
X13817600Y-5410200D01*
X13766800Y-5359400D02*
X13868400Y-5359400D01*
X14071600Y-5054600D02*
X14071600Y-5156200D01*
X14020800Y-5105400D02*
X14122400Y-5105400D01*
X14071600Y-5308600D02*
X14071600Y-5410200D01*
X14020800Y-5359400D02*
X14122400Y-5359400D01*
X14325600Y-5054600D02*
X14325600Y-5156200D01*
X14274800Y-5105400D02*
X14376400Y-5105400D01*
X14325600Y-5308600D02*
X14325600Y-5410200D01*
X14274800Y-5359400D02*
X14376400Y-5359400D01*
X14579600Y-5054600D02*
X14579600Y-5156200D01*
X14528800Y-5105400D02*
X14630400Y-5105400D01*
X14579600Y-5308600D02*
X14579600Y-5410200D01*
X14528800Y-5359400D02*
X14630400Y-5359400D01*
X14833600Y-5054600D02*
X14833600Y-5156200D01*
X14782800Y-5105400D02*
X14884400Y-5105400D01*
X14833600Y-5308600D02*
X14833600Y-5410200D01*
X14782800Y-5359400D02*
X14884400Y-5359400D01*
X15087600Y-5054600D02*
X15087600Y-5156200D01*
X15036800Y-5105400D02*
X15138400Y-5105400D01*
X15087600Y-5308600D02*
X15087600Y-5410200D01*
X15036800Y-5359400D02*
X15138400Y-5359400D01*
X15341600Y-5054600D02*
X15341600Y-5156200D01*
X15290800Y-5105400D02*
X15392400Y-5105400D01*
X15341600Y-5308600D02*
X15341600Y-5410200D01*
X15290800Y-5359400D02*
X15392400Y-5359400D01*
X15595600Y-5054600D02*
X15595600Y-5156200D01*
X15544800Y-5105400D02*
X15646400Y-5105400D01*
X15595600Y-5308600D02*
X15595600Y-5410200D01*
X15544800Y-5359400D02*
X15646400Y-5359400D01*
X15849600Y-5054600D02*
X15849600Y-5156200D01*
X15798800Y-5105400D02*
X15900400Y-5105400D01*
X15849600Y-5308600D02*
X15849600Y-5410200D01*
X15798800Y-5359400D02*
X15900400Y-5359400D01*
X16103600Y-5054600D02*
X16103600Y-5156200D01*
X16052800Y-5105400D02*
X16154400Y-5105400D01*
X16103600Y-5308600D02*
X16103600Y-5410200D01*
X16052800Y-5359400D02*
X16154400Y-5359400D01*
X16357600Y-5054600D02*
X16357600Y-5156200D01*
X16306800Y-5105400D02*
X16408400Y-5105400D01*
X16357600Y-5308600D02*
X16357600Y-5410200D01*
X16306800Y-5359400D02*
X16408400Y-5359400D01*
X16611600Y-5054600D02*
X16611600Y-5156200D01*
X16560800Y-5105400D02*
X16662400Y-5105400D01*
X16611600Y-5308600D02*
X16611600Y-5410200D01*
X16560800Y-5359400D02*
X16662400Y-5359400D01*
X10509064Y-14446064D02*
X10509064Y-14230536D01*
X10293536Y-14230536D01*
X10293536Y-14446064D01*
X10509064Y-14446064D01*
X17836964Y-6635564D02*
X17836964Y-6420036D01*
X17621436Y-6420036D01*
X17621436Y-6635564D01*
X17836964Y-6635564D01*
X17836964Y-14446064D02*
X17836964Y-14230536D01*
X17621436Y-14230536D01*
X17621436Y-14446064D01*
X17836964Y-14446064D01*
D13*
X10271519Y-15193948D02*
X10271519Y-14893948D01*
X10342947Y-14893948D01*
X10385804Y-14908234D01*
X10414376Y-14936806D01*
X10428661Y-14965377D01*
X10442947Y-15022520D01*
X10442947Y-15065377D01*
X10428661Y-15122520D01*
X10414376Y-15151091D01*
X10385804Y-15179663D01*
X10342947Y-15193948D01*
X10271519Y-15193948D01*
X10571519Y-15193948D02*
X10571519Y-14993948D01*
X10571519Y-15051091D02*
X10585804Y-15022520D01*
X10600090Y-15008234D01*
X10628661Y-14993948D01*
X10657233Y-14993948D01*
X10757233Y-15193948D02*
X10757233Y-14993948D01*
X10757233Y-14893948D02*
X10742947Y-14908234D01*
X10757233Y-14922520D01*
X10771519Y-14908234D01*
X10757233Y-14893948D01*
X10757233Y-14922520D01*
X10942947Y-15193948D02*
X10914376Y-15179663D01*
X10900090Y-15151091D01*
X10900090Y-14893948D01*
X11100090Y-15193948D02*
X11071519Y-15179663D01*
X11057233Y-15151091D01*
X11057233Y-14893948D01*
X11442947Y-15193948D02*
X11442947Y-14893948D01*
X11542947Y-15108234D01*
X11642947Y-14893948D01*
X11642947Y-15193948D01*
X11914376Y-15193948D02*
X11914376Y-15036806D01*
X11900090Y-15008234D01*
X11871518Y-14993948D01*
X11814376Y-14993948D01*
X11785804Y-15008234D01*
X11914376Y-15179663D02*
X11885804Y-15193948D01*
X11814376Y-15193948D01*
X11785804Y-15179663D01*
X11771518Y-15151091D01*
X11771518Y-15122520D01*
X11785804Y-15093948D01*
X11814376Y-15079663D01*
X11885804Y-15079663D01*
X11914376Y-15065377D01*
X12057233Y-14993948D02*
X12057233Y-15293948D01*
X12057233Y-15008234D02*
X12085804Y-14993948D01*
X12142947Y-14993948D01*
X12171518Y-15008234D01*
X12185804Y-15022520D01*
X12200090Y-15051091D01*
X12200090Y-15136806D01*
X12185804Y-15165377D01*
X12171518Y-15179663D01*
X12142947Y-15193948D01*
X12085804Y-15193948D01*
X12057233Y-15179663D01*
X12328661Y-15165377D02*
X12342947Y-15179663D01*
X12328661Y-15193948D01*
X12314376Y-15179663D01*
X12328661Y-15165377D01*
X12328661Y-15193948D01*
X12328661Y-15008234D02*
X12342947Y-15022520D01*
X12328661Y-15036806D01*
X12314376Y-15022520D01*
X12328661Y-15008234D01*
X12328661Y-15036806D01*
X9960090Y-15668234D02*
X10000090Y-15708234D01*
X10000090Y-15668234D02*
X9960090Y-15708234D01*
X10328661Y-15523948D02*
X10357233Y-15523948D01*
X10385804Y-15538234D01*
X10400090Y-15552520D01*
X10414376Y-15581091D01*
X10428661Y-15638234D01*
X10428661Y-15709663D01*
X10414376Y-15766806D01*
X10400090Y-15795377D01*
X10385804Y-15809663D01*
X10357233Y-15823948D01*
X10328661Y-15823948D01*
X10300090Y-15809663D01*
X10285804Y-15795377D01*
X10271519Y-15766806D01*
X10257233Y-15709663D01*
X10257233Y-15638234D01*
X10271519Y-15581091D01*
X10285804Y-15552520D01*
X10300090Y-15538234D01*
X10328661Y-15523948D01*
X10557233Y-15795377D02*
X10571519Y-15809663D01*
X10557233Y-15823948D01*
X10542947Y-15809663D01*
X10557233Y-15795377D01*
X10557233Y-15823948D01*
X10828661Y-15623948D02*
X10828661Y-15823948D01*
X10757233Y-15509663D02*
X10685804Y-15723948D01*
X10871518Y-15723948D01*
X11042947Y-15523948D02*
X11071519Y-15523948D01*
X11100090Y-15538234D01*
X11114376Y-15552520D01*
X11128661Y-15581091D01*
X11142947Y-15638234D01*
X11142947Y-15709663D01*
X11128661Y-15766806D01*
X11114376Y-15795377D01*
X11100090Y-15809663D01*
X11071519Y-15823948D01*
X11042947Y-15823948D01*
X11014376Y-15809663D01*
X11000090Y-15795377D01*
X10985804Y-15766806D01*
X10971519Y-15709663D01*
X10971519Y-15638234D01*
X10985804Y-15581091D01*
X11000090Y-15552520D01*
X11014376Y-15538234D01*
X11042947Y-15523948D01*
X11271518Y-15823948D02*
X11271518Y-15623948D01*
X11271518Y-15652520D02*
X11285804Y-15638234D01*
X11314376Y-15623948D01*
X11357233Y-15623948D01*
X11385804Y-15638234D01*
X11400090Y-15666806D01*
X11400090Y-15823948D01*
X11400090Y-15666806D02*
X11414376Y-15638234D01*
X11442947Y-15623948D01*
X11485804Y-15623948D01*
X11514376Y-15638234D01*
X11528661Y-15666806D01*
X11528661Y-15823948D01*
X11671518Y-15823948D02*
X11671518Y-15623948D01*
X11671518Y-15652520D02*
X11685804Y-15638234D01*
X11714376Y-15623948D01*
X11757233Y-15623948D01*
X11785804Y-15638234D01*
X11800090Y-15666806D01*
X11800090Y-15823948D01*
X11800090Y-15666806D02*
X11814376Y-15638234D01*
X11842947Y-15623948D01*
X11885804Y-15623948D01*
X11914376Y-15638234D01*
X11928661Y-15666806D01*
X11928661Y-15823948D01*
X12514376Y-15509663D02*
X12257233Y-15895377D01*
X12900090Y-15523948D02*
X12928661Y-15523948D01*
X12957233Y-15538234D01*
X12971518Y-15552520D01*
X12985804Y-15581091D01*
X13000090Y-15638234D01*
X13000090Y-15709663D01*
X12985804Y-15766806D01*
X12971518Y-15795377D01*
X12957233Y-15809663D01*
X12928661Y-15823948D01*
X12900090Y-15823948D01*
X12871518Y-15809663D01*
X12857233Y-15795377D01*
X12842947Y-15766806D01*
X12828661Y-15709663D01*
X12828661Y-15638234D01*
X12842947Y-15581091D01*
X12857233Y-15552520D01*
X12871518Y-15538234D01*
X12900090Y-15523948D01*
X13128661Y-15795377D02*
X13142947Y-15809663D01*
X13128661Y-15823948D01*
X13114376Y-15809663D01*
X13128661Y-15795377D01*
X13128661Y-15823948D01*
X13328661Y-15523948D02*
X13357233Y-15523948D01*
X13385804Y-15538234D01*
X13400090Y-15552520D01*
X13414375Y-15581091D01*
X13428661Y-15638234D01*
X13428661Y-15709663D01*
X13414375Y-15766806D01*
X13400090Y-15795377D01*
X13385804Y-15809663D01*
X13357233Y-15823948D01*
X13328661Y-15823948D01*
X13300090Y-15809663D01*
X13285804Y-15795377D01*
X13271518Y-15766806D01*
X13257233Y-15709663D01*
X13257233Y-15638234D01*
X13271518Y-15581091D01*
X13285804Y-15552520D01*
X13300090Y-15538234D01*
X13328661Y-15523948D01*
X13714375Y-15823948D02*
X13542947Y-15823948D01*
X13628661Y-15823948D02*
X13628661Y-15523948D01*
X13600090Y-15566806D01*
X13571518Y-15595377D01*
X13542947Y-15609663D01*
X13971518Y-15523948D02*
X13914375Y-15523948D01*
X13885804Y-15538234D01*
X13871518Y-15552520D01*
X13842947Y-15595377D01*
X13828661Y-15652520D01*
X13828661Y-15766806D01*
X13842947Y-15795377D01*
X13857233Y-15809663D01*
X13885804Y-15823948D01*
X13942947Y-15823948D01*
X13971518Y-15809663D01*
X13985804Y-15795377D01*
X14000090Y-15766806D01*
X14000090Y-15695377D01*
X13985804Y-15666806D01*
X13971518Y-15652520D01*
X13942947Y-15638234D01*
X13885804Y-15638234D01*
X13857233Y-15652520D01*
X13842947Y-15666806D01*
X13828661Y-15695377D01*
X14114376Y-15523948D02*
X14114376Y-15581091D01*
X14228661Y-15523948D02*
X14228661Y-15581091D01*
X14671518Y-15938234D02*
X14657233Y-15923948D01*
X14628661Y-15881091D01*
X14614375Y-15852520D01*
X14600090Y-15809663D01*
X14585804Y-15738234D01*
X14585804Y-15681091D01*
X14600090Y-15609663D01*
X14614375Y-15566806D01*
X14628661Y-15538234D01*
X14657233Y-15495377D01*
X14671518Y-15481091D01*
X14942947Y-15823948D02*
X14771518Y-15823948D01*
X14857233Y-15823948D02*
X14857233Y-15523948D01*
X14828661Y-15566806D01*
X14800090Y-15595377D01*
X14771518Y-15609663D01*
X15214375Y-15523948D02*
X15071518Y-15523948D01*
X15057233Y-15666806D01*
X15071518Y-15652520D01*
X15100090Y-15638234D01*
X15171518Y-15638234D01*
X15200090Y-15652520D01*
X15214375Y-15666806D01*
X15228661Y-15695377D01*
X15228661Y-15766806D01*
X15214375Y-15795377D01*
X15200090Y-15809663D01*
X15171518Y-15823948D01*
X15100090Y-15823948D01*
X15071518Y-15809663D01*
X15057233Y-15795377D01*
X15585804Y-15823948D02*
X15585804Y-15523948D01*
X15714375Y-15823948D02*
X15714375Y-15666806D01*
X15700090Y-15638234D01*
X15671518Y-15623948D01*
X15628661Y-15623948D01*
X15600090Y-15638234D01*
X15585804Y-15652520D01*
X15900090Y-15823948D02*
X15871518Y-15809663D01*
X15857233Y-15795377D01*
X15842947Y-15766806D01*
X15842947Y-15681091D01*
X15857233Y-15652520D01*
X15871518Y-15638234D01*
X15900090Y-15623948D01*
X15942947Y-15623948D01*
X15971518Y-15638234D01*
X15985804Y-15652520D01*
X16000090Y-15681091D01*
X16000090Y-15766806D01*
X15985804Y-15795377D01*
X15971518Y-15809663D01*
X15942947Y-15823948D01*
X15900090Y-15823948D01*
X16171518Y-15823948D02*
X16142947Y-15809663D01*
X16128661Y-15781091D01*
X16128661Y-15523948D01*
X16400090Y-15809663D02*
X16371518Y-15823948D01*
X16314376Y-15823948D01*
X16285804Y-15809663D01*
X16271518Y-15781091D01*
X16271518Y-15666806D01*
X16285804Y-15638234D01*
X16314376Y-15623948D01*
X16371518Y-15623948D01*
X16400090Y-15638234D01*
X16414376Y-15666806D01*
X16414376Y-15695377D01*
X16271518Y-15723948D01*
X16528661Y-15809663D02*
X16557233Y-15823948D01*
X16614376Y-15823948D01*
X16642947Y-15809663D01*
X16657233Y-15781091D01*
X16657233Y-15766806D01*
X16642947Y-15738234D01*
X16614376Y-15723948D01*
X16571518Y-15723948D01*
X16542947Y-15709663D01*
X16528661Y-15681091D01*
X16528661Y-15666806D01*
X16542947Y-15638234D01*
X16571518Y-15623948D01*
X16614376Y-15623948D01*
X16642947Y-15638234D01*
X16757233Y-15938234D02*
X16771518Y-15923948D01*
X16800090Y-15881091D01*
X16814376Y-15852520D01*
X16828661Y-15809663D01*
X16842947Y-15738234D01*
X16842947Y-15681091D01*
X16828661Y-15609663D01*
X16814376Y-15566806D01*
X16800090Y-15538234D01*
X16771518Y-15495377D01*
X16757233Y-15481091D01*
X10000090Y-16084234D02*
G75*
G03X10000090Y-16084234I-45000J0D01*
G01*
X10328661Y-15919948D02*
X10357233Y-15919948D01*
X10385804Y-15934234D01*
X10400090Y-15948520D01*
X10414376Y-15977091D01*
X10428661Y-16034234D01*
X10428661Y-16105663D01*
X10414376Y-16162806D01*
X10400090Y-16191377D01*
X10385804Y-16205663D01*
X10357233Y-16219948D01*
X10328661Y-16219948D01*
X10300090Y-16205663D01*
X10285804Y-16191377D01*
X10271519Y-16162806D01*
X10257233Y-16105663D01*
X10257233Y-16034234D01*
X10271519Y-15977091D01*
X10285804Y-15948520D01*
X10300090Y-15934234D01*
X10328661Y-15919948D01*
X10557233Y-16191377D02*
X10571519Y-16205663D01*
X10557233Y-16219948D01*
X10542947Y-16205663D01*
X10557233Y-16191377D01*
X10557233Y-16219948D01*
X10714376Y-16219948D02*
X10771518Y-16219948D01*
X10800090Y-16205663D01*
X10814376Y-16191377D01*
X10842947Y-16148520D01*
X10857233Y-16091377D01*
X10857233Y-15977091D01*
X10842947Y-15948520D01*
X10828661Y-15934234D01*
X10800090Y-15919948D01*
X10742947Y-15919948D01*
X10714376Y-15934234D01*
X10700090Y-15948520D01*
X10685804Y-15977091D01*
X10685804Y-16048520D01*
X10700090Y-16077091D01*
X10714376Y-16091377D01*
X10742947Y-16105663D01*
X10800090Y-16105663D01*
X10828661Y-16091377D01*
X10842947Y-16077091D01*
X10857233Y-16048520D01*
X11042947Y-15919948D02*
X11071519Y-15919948D01*
X11100090Y-15934234D01*
X11114376Y-15948520D01*
X11128661Y-15977091D01*
X11142947Y-16034234D01*
X11142947Y-16105663D01*
X11128661Y-16162806D01*
X11114376Y-16191377D01*
X11100090Y-16205663D01*
X11071519Y-16219948D01*
X11042947Y-16219948D01*
X11014376Y-16205663D01*
X11000090Y-16191377D01*
X10985804Y-16162806D01*
X10971519Y-16105663D01*
X10971519Y-16034234D01*
X10985804Y-15977091D01*
X11000090Y-15948520D01*
X11014376Y-15934234D01*
X11042947Y-15919948D01*
X11271518Y-16219948D02*
X11271518Y-16019948D01*
X11271518Y-16048520D02*
X11285804Y-16034234D01*
X11314376Y-16019948D01*
X11357233Y-16019948D01*
X11385804Y-16034234D01*
X11400090Y-16062806D01*
X11400090Y-16219948D01*
X11400090Y-16062806D02*
X11414376Y-16034234D01*
X11442947Y-16019948D01*
X11485804Y-16019948D01*
X11514376Y-16034234D01*
X11528661Y-16062806D01*
X11528661Y-16219948D01*
X11671518Y-16219948D02*
X11671518Y-16019948D01*
X11671518Y-16048520D02*
X11685804Y-16034234D01*
X11714376Y-16019948D01*
X11757233Y-16019948D01*
X11785804Y-16034234D01*
X11800090Y-16062806D01*
X11800090Y-16219948D01*
X11800090Y-16062806D02*
X11814376Y-16034234D01*
X11842947Y-16019948D01*
X11885804Y-16019948D01*
X11914376Y-16034234D01*
X11928661Y-16062806D01*
X11928661Y-16219948D01*
X12514376Y-15905663D02*
X12257233Y-16291377D01*
X12900090Y-15919948D02*
X12928661Y-15919948D01*
X12957233Y-15934234D01*
X12971518Y-15948520D01*
X12985804Y-15977091D01*
X13000090Y-16034234D01*
X13000090Y-16105663D01*
X12985804Y-16162806D01*
X12971518Y-16191377D01*
X12957233Y-16205663D01*
X12928661Y-16219948D01*
X12900090Y-16219948D01*
X12871518Y-16205663D01*
X12857233Y-16191377D01*
X12842947Y-16162806D01*
X12828661Y-16105663D01*
X12828661Y-16034234D01*
X12842947Y-15977091D01*
X12857233Y-15948520D01*
X12871518Y-15934234D01*
X12900090Y-15919948D01*
X13128661Y-16191377D02*
X13142947Y-16205663D01*
X13128661Y-16219948D01*
X13114376Y-16205663D01*
X13128661Y-16191377D01*
X13128661Y-16219948D01*
X13328661Y-15919948D02*
X13357233Y-15919948D01*
X13385804Y-15934234D01*
X13400090Y-15948520D01*
X13414375Y-15977091D01*
X13428661Y-16034234D01*
X13428661Y-16105663D01*
X13414375Y-16162806D01*
X13400090Y-16191377D01*
X13385804Y-16205663D01*
X13357233Y-16219948D01*
X13328661Y-16219948D01*
X13300090Y-16205663D01*
X13285804Y-16191377D01*
X13271518Y-16162806D01*
X13257233Y-16105663D01*
X13257233Y-16034234D01*
X13271518Y-15977091D01*
X13285804Y-15948520D01*
X13300090Y-15934234D01*
X13328661Y-15919948D01*
X13528661Y-15919948D02*
X13714375Y-15919948D01*
X13614375Y-16034234D01*
X13657233Y-16034234D01*
X13685804Y-16048520D01*
X13700090Y-16062806D01*
X13714375Y-16091377D01*
X13714375Y-16162806D01*
X13700090Y-16191377D01*
X13685804Y-16205663D01*
X13657233Y-16219948D01*
X13571518Y-16219948D01*
X13542947Y-16205663D01*
X13528661Y-16191377D01*
X13985804Y-15919948D02*
X13842947Y-15919948D01*
X13828661Y-16062806D01*
X13842947Y-16048520D01*
X13871518Y-16034234D01*
X13942947Y-16034234D01*
X13971518Y-16048520D01*
X13985804Y-16062806D01*
X14000090Y-16091377D01*
X14000090Y-16162806D01*
X13985804Y-16191377D01*
X13971518Y-16205663D01*
X13942947Y-16219948D01*
X13871518Y-16219948D01*
X13842947Y-16205663D01*
X13828661Y-16191377D01*
X14114376Y-15919948D02*
X14114376Y-15977091D01*
X14228661Y-15919948D02*
X14228661Y-15977091D01*
X14671518Y-16334234D02*
X14657233Y-16319948D01*
X14628661Y-16277091D01*
X14614375Y-16248520D01*
X14600090Y-16205663D01*
X14585804Y-16134234D01*
X14585804Y-16077091D01*
X14600090Y-16005663D01*
X14614375Y-15962806D01*
X14628661Y-15934234D01*
X14657233Y-15891377D01*
X14671518Y-15877091D01*
X14942947Y-16219948D02*
X14771518Y-16219948D01*
X14857233Y-16219948D02*
X14857233Y-15919948D01*
X14828661Y-15962806D01*
X14800090Y-15991377D01*
X14771518Y-16005663D01*
X15085804Y-16219948D02*
X15142947Y-16219948D01*
X15171518Y-16205663D01*
X15185804Y-16191377D01*
X15214375Y-16148520D01*
X15228661Y-16091377D01*
X15228661Y-15977091D01*
X15214375Y-15948520D01*
X15200090Y-15934234D01*
X15171518Y-15919948D01*
X15114375Y-15919948D01*
X15085804Y-15934234D01*
X15071518Y-15948520D01*
X15057233Y-15977091D01*
X15057233Y-16048520D01*
X15071518Y-16077091D01*
X15085804Y-16091377D01*
X15114375Y-16105663D01*
X15171518Y-16105663D01*
X15200090Y-16091377D01*
X15214375Y-16077091D01*
X15228661Y-16048520D01*
X15414375Y-15919948D02*
X15442947Y-15919948D01*
X15471518Y-15934234D01*
X15485804Y-15948520D01*
X15500090Y-15977091D01*
X15514375Y-16034234D01*
X15514375Y-16105663D01*
X15500090Y-16162806D01*
X15485804Y-16191377D01*
X15471518Y-16205663D01*
X15442947Y-16219948D01*
X15414375Y-16219948D01*
X15385804Y-16205663D01*
X15371518Y-16191377D01*
X15357233Y-16162806D01*
X15342947Y-16105663D01*
X15342947Y-16034234D01*
X15357233Y-15977091D01*
X15371518Y-15948520D01*
X15385804Y-15934234D01*
X15414375Y-15919948D01*
X15871518Y-16219948D02*
X15871518Y-15919948D01*
X16000090Y-16219948D02*
X16000090Y-16062806D01*
X15985804Y-16034234D01*
X15957233Y-16019948D01*
X15914375Y-16019948D01*
X15885804Y-16034234D01*
X15871518Y-16048520D01*
X16185804Y-16219948D02*
X16157233Y-16205663D01*
X16142947Y-16191377D01*
X16128661Y-16162806D01*
X16128661Y-16077091D01*
X16142947Y-16048520D01*
X16157233Y-16034234D01*
X16185804Y-16019948D01*
X16228661Y-16019948D01*
X16257233Y-16034234D01*
X16271518Y-16048520D01*
X16285804Y-16077091D01*
X16285804Y-16162806D01*
X16271518Y-16191377D01*
X16257233Y-16205663D01*
X16228661Y-16219948D01*
X16185804Y-16219948D01*
X16457233Y-16219948D02*
X16428661Y-16205663D01*
X16414376Y-16177091D01*
X16414376Y-15919948D01*
X16685804Y-16205663D02*
X16657233Y-16219948D01*
X16600090Y-16219948D01*
X16571518Y-16205663D01*
X16557233Y-16177091D01*
X16557233Y-16062806D01*
X16571518Y-16034234D01*
X16600090Y-16019948D01*
X16657233Y-16019948D01*
X16685804Y-16034234D01*
X16700090Y-16062806D01*
X16700090Y-16091377D01*
X16557233Y-16119948D01*
X16814376Y-16205663D02*
X16842947Y-16219948D01*
X16900090Y-16219948D01*
X16928661Y-16205663D01*
X16942947Y-16177091D01*
X16942947Y-16162806D01*
X16928661Y-16134234D01*
X16900090Y-16119948D01*
X16857233Y-16119948D01*
X16828661Y-16105663D01*
X16814376Y-16077091D01*
X16814376Y-16062806D01*
X16828661Y-16034234D01*
X16857233Y-16019948D01*
X16900090Y-16019948D01*
X16928661Y-16034234D01*
X17042947Y-16334234D02*
X17057233Y-16319948D01*
X17085804Y-16277091D01*
X17100090Y-16248520D01*
X17114376Y-16205663D01*
X17128661Y-16134234D01*
X17128661Y-16077091D01*
X17114376Y-16005663D01*
X17100090Y-15962806D01*
X17085804Y-15934234D01*
X17057233Y-15891377D01*
X17042947Y-15877091D01*
X9949290Y-16429434D02*
X9949290Y-16531034D01*
X9898490Y-16480234D02*
X10000090Y-16480234D01*
X10428661Y-16615948D02*
X10257233Y-16615948D01*
X10342947Y-16615948D02*
X10342947Y-16315948D01*
X10314376Y-16358806D01*
X10285804Y-16387377D01*
X10257233Y-16401663D01*
X10557233Y-16587377D02*
X10571519Y-16601663D01*
X10557233Y-16615948D01*
X10542947Y-16601663D01*
X10557233Y-16587377D01*
X10557233Y-16615948D01*
X10757233Y-16315948D02*
X10785804Y-16315948D01*
X10814376Y-16330234D01*
X10828661Y-16344520D01*
X10842947Y-16373091D01*
X10857233Y-16430234D01*
X10857233Y-16501663D01*
X10842947Y-16558806D01*
X10828661Y-16587377D01*
X10814376Y-16601663D01*
X10785804Y-16615948D01*
X10757233Y-16615948D01*
X10728661Y-16601663D01*
X10714376Y-16587377D01*
X10700090Y-16558806D01*
X10685804Y-16501663D01*
X10685804Y-16430234D01*
X10700090Y-16373091D01*
X10714376Y-16344520D01*
X10728661Y-16330234D01*
X10757233Y-16315948D01*
X10971519Y-16344520D02*
X10985804Y-16330234D01*
X11014376Y-16315948D01*
X11085804Y-16315948D01*
X11114376Y-16330234D01*
X11128661Y-16344520D01*
X11142947Y-16373091D01*
X11142947Y-16401663D01*
X11128661Y-16444520D01*
X10957233Y-16615948D01*
X11142947Y-16615948D01*
X11271518Y-16615948D02*
X11271518Y-16415948D01*
X11271518Y-16444520D02*
X11285804Y-16430234D01*
X11314376Y-16415948D01*
X11357233Y-16415948D01*
X11385804Y-16430234D01*
X11400090Y-16458806D01*
X11400090Y-16615948D01*
X11400090Y-16458806D02*
X11414376Y-16430234D01*
X11442947Y-16415948D01*
X11485804Y-16415948D01*
X11514376Y-16430234D01*
X11528661Y-16458806D01*
X11528661Y-16615948D01*
X11671518Y-16615948D02*
X11671518Y-16415948D01*
X11671518Y-16444520D02*
X11685804Y-16430234D01*
X11714376Y-16415948D01*
X11757233Y-16415948D01*
X11785804Y-16430234D01*
X11800090Y-16458806D01*
X11800090Y-16615948D01*
X11800090Y-16458806D02*
X11814376Y-16430234D01*
X11842947Y-16415948D01*
X11885804Y-16415948D01*
X11914376Y-16430234D01*
X11928661Y-16458806D01*
X11928661Y-16615948D01*
X12514376Y-16301663D02*
X12257233Y-16687377D01*
X12900090Y-16315948D02*
X12928661Y-16315948D01*
X12957233Y-16330234D01*
X12971518Y-16344520D01*
X12985804Y-16373091D01*
X13000090Y-16430234D01*
X13000090Y-16501663D01*
X12985804Y-16558806D01*
X12971518Y-16587377D01*
X12957233Y-16601663D01*
X12928661Y-16615948D01*
X12900090Y-16615948D01*
X12871518Y-16601663D01*
X12857233Y-16587377D01*
X12842947Y-16558806D01*
X12828661Y-16501663D01*
X12828661Y-16430234D01*
X12842947Y-16373091D01*
X12857233Y-16344520D01*
X12871518Y-16330234D01*
X12900090Y-16315948D01*
X13128661Y-16587377D02*
X13142947Y-16601663D01*
X13128661Y-16615948D01*
X13114376Y-16601663D01*
X13128661Y-16587377D01*
X13128661Y-16615948D01*
X13328661Y-16315948D02*
X13357233Y-16315948D01*
X13385804Y-16330234D01*
X13400090Y-16344520D01*
X13414375Y-16373091D01*
X13428661Y-16430234D01*
X13428661Y-16501663D01*
X13414375Y-16558806D01*
X13400090Y-16587377D01*
X13385804Y-16601663D01*
X13357233Y-16615948D01*
X13328661Y-16615948D01*
X13300090Y-16601663D01*
X13285804Y-16587377D01*
X13271518Y-16558806D01*
X13257233Y-16501663D01*
X13257233Y-16430234D01*
X13271518Y-16373091D01*
X13285804Y-16344520D01*
X13300090Y-16330234D01*
X13328661Y-16315948D01*
X13685804Y-16415948D02*
X13685804Y-16615948D01*
X13614375Y-16301663D02*
X13542947Y-16515948D01*
X13728661Y-16515948D01*
X13900090Y-16315948D02*
X13928661Y-16315948D01*
X13957233Y-16330234D01*
X13971518Y-16344520D01*
X13985804Y-16373091D01*
X14000090Y-16430234D01*
X14000090Y-16501663D01*
X13985804Y-16558806D01*
X13971518Y-16587377D01*
X13957233Y-16601663D01*
X13928661Y-16615948D01*
X13900090Y-16615948D01*
X13871518Y-16601663D01*
X13857233Y-16587377D01*
X13842947Y-16558806D01*
X13828661Y-16501663D01*
X13828661Y-16430234D01*
X13842947Y-16373091D01*
X13857233Y-16344520D01*
X13871518Y-16330234D01*
X13900090Y-16315948D01*
X14114376Y-16315948D02*
X14114376Y-16373091D01*
X14228661Y-16315948D02*
X14228661Y-16373091D01*
X14671518Y-16730234D02*
X14657233Y-16715948D01*
X14628661Y-16673091D01*
X14614375Y-16644520D01*
X14600090Y-16601663D01*
X14585804Y-16530234D01*
X14585804Y-16473091D01*
X14600090Y-16401663D01*
X14614375Y-16358806D01*
X14628661Y-16330234D01*
X14657233Y-16287377D01*
X14671518Y-16273091D01*
X14914375Y-16415948D02*
X14914375Y-16615948D01*
X14842947Y-16301663D02*
X14771518Y-16515948D01*
X14957233Y-16515948D01*
X15128661Y-16315948D02*
X15157233Y-16315948D01*
X15185804Y-16330234D01*
X15200090Y-16344520D01*
X15214375Y-16373091D01*
X15228661Y-16430234D01*
X15228661Y-16501663D01*
X15214375Y-16558806D01*
X15200090Y-16587377D01*
X15185804Y-16601663D01*
X15157233Y-16615948D01*
X15128661Y-16615948D01*
X15100090Y-16601663D01*
X15085804Y-16587377D01*
X15071518Y-16558806D01*
X15057233Y-16501663D01*
X15057233Y-16430234D01*
X15071518Y-16373091D01*
X15085804Y-16344520D01*
X15100090Y-16330234D01*
X15128661Y-16315948D01*
X15585804Y-16615948D02*
X15585804Y-16315948D01*
X15714375Y-16615948D02*
X15714375Y-16458806D01*
X15700090Y-16430234D01*
X15671518Y-16415948D01*
X15628661Y-16415948D01*
X15600090Y-16430234D01*
X15585804Y-16444520D01*
X15900090Y-16615948D02*
X15871518Y-16601663D01*
X15857233Y-16587377D01*
X15842947Y-16558806D01*
X15842947Y-16473091D01*
X15857233Y-16444520D01*
X15871518Y-16430234D01*
X15900090Y-16415948D01*
X15942947Y-16415948D01*
X15971518Y-16430234D01*
X15985804Y-16444520D01*
X16000090Y-16473091D01*
X16000090Y-16558806D01*
X15985804Y-16587377D01*
X15971518Y-16601663D01*
X15942947Y-16615948D01*
X15900090Y-16615948D01*
X16171518Y-16615948D02*
X16142947Y-16601663D01*
X16128661Y-16573091D01*
X16128661Y-16315948D01*
X16400090Y-16601663D02*
X16371518Y-16615948D01*
X16314376Y-16615948D01*
X16285804Y-16601663D01*
X16271518Y-16573091D01*
X16271518Y-16458806D01*
X16285804Y-16430234D01*
X16314376Y-16415948D01*
X16371518Y-16415948D01*
X16400090Y-16430234D01*
X16414376Y-16458806D01*
X16414376Y-16487377D01*
X16271518Y-16515948D01*
X16528661Y-16601663D02*
X16557233Y-16615948D01*
X16614376Y-16615948D01*
X16642947Y-16601663D01*
X16657233Y-16573091D01*
X16657233Y-16558806D01*
X16642947Y-16530234D01*
X16614376Y-16515948D01*
X16571518Y-16515948D01*
X16542947Y-16501663D01*
X16528661Y-16473091D01*
X16528661Y-16458806D01*
X16542947Y-16430234D01*
X16571518Y-16415948D01*
X16614376Y-16415948D01*
X16642947Y-16430234D01*
X16757233Y-16730234D02*
X16771518Y-16715948D01*
X16800090Y-16673091D01*
X16814376Y-16644520D01*
X16828661Y-16601663D01*
X16842947Y-16530234D01*
X16842947Y-16473091D01*
X16828661Y-16401663D01*
X16814376Y-16358806D01*
X16800090Y-16330234D01*
X16771518Y-16287377D01*
X16757233Y-16273091D01*
X9955454Y-16983998D02*
X9955454Y-16768470D01*
X9739926Y-16768470D01*
X9739926Y-16983998D01*
X9955454Y-16983998D01*
X10242947Y-16711948D02*
X10428661Y-16711948D01*
X10328661Y-16826234D01*
X10371519Y-16826234D01*
X10400090Y-16840520D01*
X10414376Y-16854806D01*
X10428661Y-16883377D01*
X10428661Y-16954806D01*
X10414376Y-16983377D01*
X10400090Y-16997663D01*
X10371519Y-17011949D01*
X10285804Y-17011949D01*
X10257233Y-16997663D01*
X10242947Y-16983377D01*
X10557233Y-16983377D02*
X10571519Y-16997663D01*
X10557233Y-17011949D01*
X10542947Y-16997663D01*
X10557233Y-16983377D01*
X10557233Y-17011949D01*
X10757233Y-16711948D02*
X10785804Y-16711948D01*
X10814376Y-16726234D01*
X10828661Y-16740520D01*
X10842947Y-16769091D01*
X10857233Y-16826234D01*
X10857233Y-16897663D01*
X10842947Y-16954806D01*
X10828661Y-16983377D01*
X10814376Y-16997663D01*
X10785804Y-17011949D01*
X10757233Y-17011949D01*
X10728661Y-16997663D01*
X10714376Y-16983377D01*
X10700090Y-16954806D01*
X10685804Y-16897663D01*
X10685804Y-16826234D01*
X10700090Y-16769091D01*
X10714376Y-16740520D01*
X10728661Y-16726234D01*
X10757233Y-16711948D01*
X11128661Y-16711948D02*
X10985804Y-16711948D01*
X10971519Y-16854806D01*
X10985804Y-16840520D01*
X11014376Y-16826234D01*
X11085804Y-16826234D01*
X11114376Y-16840520D01*
X11128661Y-16854806D01*
X11142947Y-16883377D01*
X11142947Y-16954806D01*
X11128661Y-16983377D01*
X11114376Y-16997663D01*
X11085804Y-17011949D01*
X11014376Y-17011949D01*
X10985804Y-16997663D01*
X10971519Y-16983377D01*
X11271518Y-17011949D02*
X11271518Y-16811949D01*
X11271518Y-16840520D02*
X11285804Y-16826234D01*
X11314376Y-16811949D01*
X11357233Y-16811949D01*
X11385804Y-16826234D01*
X11400090Y-16854806D01*
X11400090Y-17011949D01*
X11400090Y-16854806D02*
X11414376Y-16826234D01*
X11442947Y-16811949D01*
X11485804Y-16811949D01*
X11514376Y-16826234D01*
X11528661Y-16854806D01*
X11528661Y-17011949D01*
X11671518Y-17011949D02*
X11671518Y-16811949D01*
X11671518Y-16840520D02*
X11685804Y-16826234D01*
X11714376Y-16811949D01*
X11757233Y-16811949D01*
X11785804Y-16826234D01*
X11800090Y-16854806D01*
X11800090Y-17011949D01*
X11800090Y-16854806D02*
X11814376Y-16826234D01*
X11842947Y-16811949D01*
X11885804Y-16811949D01*
X11914376Y-16826234D01*
X11928661Y-16854806D01*
X11928661Y-17011949D01*
X12514376Y-16697663D02*
X12257233Y-17083377D01*
X12900090Y-16711948D02*
X12928661Y-16711948D01*
X12957233Y-16726234D01*
X12971518Y-16740520D01*
X12985804Y-16769091D01*
X13000090Y-16826234D01*
X13000090Y-16897663D01*
X12985804Y-16954806D01*
X12971518Y-16983377D01*
X12957233Y-16997663D01*
X12928661Y-17011949D01*
X12900090Y-17011949D01*
X12871518Y-16997663D01*
X12857233Y-16983377D01*
X12842947Y-16954806D01*
X12828661Y-16897663D01*
X12828661Y-16826234D01*
X12842947Y-16769091D01*
X12857233Y-16740520D01*
X12871518Y-16726234D01*
X12900090Y-16711948D01*
X13128661Y-16983377D02*
X13142947Y-16997663D01*
X13128661Y-17011949D01*
X13114376Y-16997663D01*
X13128661Y-16983377D01*
X13128661Y-17011949D01*
X13428661Y-17011949D02*
X13257233Y-17011949D01*
X13342947Y-17011949D02*
X13342947Y-16711948D01*
X13314375Y-16754806D01*
X13285804Y-16783377D01*
X13257233Y-16797663D01*
X13542947Y-16740520D02*
X13557233Y-16726234D01*
X13585804Y-16711948D01*
X13657233Y-16711948D01*
X13685804Y-16726234D01*
X13700090Y-16740520D01*
X13714375Y-16769091D01*
X13714375Y-16797663D01*
X13700090Y-16840520D01*
X13528661Y-17011949D01*
X13714375Y-17011949D01*
X13900090Y-16711948D02*
X13928661Y-16711948D01*
X13957233Y-16726234D01*
X13971518Y-16740520D01*
X13985804Y-16769091D01*
X14000090Y-16826234D01*
X14000090Y-16897663D01*
X13985804Y-16954806D01*
X13971518Y-16983377D01*
X13957233Y-16997663D01*
X13928661Y-17011949D01*
X13900090Y-17011949D01*
X13871518Y-16997663D01*
X13857233Y-16983377D01*
X13842947Y-16954806D01*
X13828661Y-16897663D01*
X13828661Y-16826234D01*
X13842947Y-16769091D01*
X13857233Y-16740520D01*
X13871518Y-16726234D01*
X13900090Y-16711948D01*
X14114376Y-16711948D02*
X14114376Y-16769091D01*
X14228661Y-16711948D02*
X14228661Y-16769091D01*
X14671518Y-17126234D02*
X14657233Y-17111949D01*
X14628661Y-17069091D01*
X14614375Y-17040520D01*
X14600090Y-16997663D01*
X14585804Y-16926234D01*
X14585804Y-16869091D01*
X14600090Y-16797663D01*
X14614375Y-16754806D01*
X14628661Y-16726234D01*
X14657233Y-16683377D01*
X14671518Y-16669091D01*
X14757233Y-16711948D02*
X14942947Y-16711948D01*
X14842947Y-16826234D01*
X14885804Y-16826234D01*
X14914375Y-16840520D01*
X14928661Y-16854806D01*
X14942947Y-16883377D01*
X14942947Y-16954806D01*
X14928661Y-16983377D01*
X14914375Y-16997663D01*
X14885804Y-17011949D01*
X14800090Y-17011949D01*
X14771518Y-16997663D01*
X14757233Y-16983377D01*
X15300090Y-17011949D02*
X15300090Y-16711948D01*
X15428661Y-17011949D02*
X15428661Y-16854806D01*
X15414375Y-16826234D01*
X15385804Y-16811949D01*
X15342947Y-16811949D01*
X15314375Y-16826234D01*
X15300090Y-16840520D01*
X15614375Y-17011949D02*
X15585804Y-16997663D01*
X15571518Y-16983377D01*
X15557233Y-16954806D01*
X15557233Y-16869091D01*
X15571518Y-16840520D01*
X15585804Y-16826234D01*
X15614375Y-16811949D01*
X15657233Y-16811949D01*
X15685804Y-16826234D01*
X15700090Y-16840520D01*
X15714375Y-16869091D01*
X15714375Y-16954806D01*
X15700090Y-16983377D01*
X15685804Y-16997663D01*
X15657233Y-17011949D01*
X15614375Y-17011949D01*
X15885804Y-17011949D02*
X15857233Y-16997663D01*
X15842947Y-16969091D01*
X15842947Y-16711948D01*
X16114376Y-16997663D02*
X16085804Y-17011949D01*
X16028661Y-17011949D01*
X16000090Y-16997663D01*
X15985804Y-16969091D01*
X15985804Y-16854806D01*
X16000090Y-16826234D01*
X16028661Y-16811949D01*
X16085804Y-16811949D01*
X16114376Y-16826234D01*
X16128661Y-16854806D01*
X16128661Y-16883377D01*
X15985804Y-16911949D01*
X16242947Y-16997663D02*
X16271518Y-17011949D01*
X16328661Y-17011949D01*
X16357233Y-16997663D01*
X16371518Y-16969091D01*
X16371518Y-16954806D01*
X16357233Y-16926234D01*
X16328661Y-16911949D01*
X16285804Y-16911949D01*
X16257233Y-16897663D01*
X16242947Y-16869091D01*
X16242947Y-16854806D01*
X16257233Y-16826234D01*
X16285804Y-16811949D01*
X16328661Y-16811949D01*
X16357233Y-16826234D01*
X16471518Y-17126234D02*
X16485804Y-17111949D01*
X16514376Y-17069091D01*
X16528661Y-17040520D01*
X16542947Y-16997663D01*
X16557233Y-16926234D01*
X16557233Y-16869091D01*
X16542947Y-16797663D01*
X16528661Y-16754806D01*
X16514376Y-16726234D01*
X16485804Y-16683377D01*
X16471518Y-16669091D01*
M02*
