G04 #@! TF.FileFunction,Soldermask,Bot*
%FSLAX46Y46*%
G04 Gerber Fmt 4.6, Leading zero omitted, Abs format (unit mm)*
G04 Created by KiCad (PCBNEW 4.0.4-stable) date 12/26/16 14:09:50*
%MOMM*%
%LPD*%
G01*
G04 APERTURE LIST*
%ADD10C,0.100000*%
%ADD11C,1.924000*%
%ADD12C,4.464000*%
%ADD13R,2.127200X2.127200*%
%ADD14O,2.127200X2.127200*%
%ADD15R,1.300000X1.200000*%
%ADD16R,1.543000X0.908000*%
%ADD17R,1.650000X1.900000*%
%ADD18R,0.800000X1.600000*%
%ADD19R,1.600000X1.300000*%
%ADD20R,1.300000X1.600000*%
G04 APERTURE END LIST*
D10*
D11*
X168656000Y-129921000D03*
X168656000Y-135001000D03*
X166116000Y-129921000D03*
X166116000Y-135001000D03*
X163576000Y-129921000D03*
X163576000Y-135001000D03*
X161036000Y-129921000D03*
X161036000Y-135001000D03*
X158496000Y-129921000D03*
X158496000Y-135001000D03*
X155956000Y-129921000D03*
X155956000Y-135001000D03*
X153416000Y-129921000D03*
X153416000Y-135001000D03*
X150876000Y-129921000D03*
X150876000Y-135001000D03*
X148336000Y-129921000D03*
X148336000Y-135001000D03*
X145796000Y-129921000D03*
X145796000Y-135001000D03*
X143256000Y-129921000D03*
X143256000Y-135001000D03*
X140716000Y-129921000D03*
X140716000Y-135001000D03*
X138176000Y-129921000D03*
X138176000Y-135001000D03*
X135636000Y-129921000D03*
X135636000Y-135001000D03*
X133096000Y-129921000D03*
X133096000Y-135001000D03*
X130556000Y-129921000D03*
X130556000Y-135001000D03*
X128016000Y-129921000D03*
X128016000Y-135001000D03*
X125476000Y-129921000D03*
X125476000Y-135001000D03*
X122936000Y-129921000D03*
X122936000Y-135001000D03*
X120396000Y-129921000D03*
X120396000Y-135001000D03*
X117856000Y-129921000D03*
X117856000Y-135001000D03*
X115316000Y-129921000D03*
X115316000Y-135001000D03*
X112776000Y-129921000D03*
X112776000Y-135001000D03*
X110236000Y-129921000D03*
X110236000Y-135001000D03*
X107696000Y-129921000D03*
X107696000Y-135001000D03*
X166116000Y-63754000D03*
X166116000Y-66294000D03*
X163576000Y-63754000D03*
X163576000Y-66294000D03*
X161036000Y-63754000D03*
X161036000Y-66294000D03*
X158496000Y-63754000D03*
X158496000Y-66294000D03*
X155956000Y-63754000D03*
X155956000Y-66294000D03*
X153416000Y-63754000D03*
X153416000Y-66294000D03*
X150876000Y-63754000D03*
X150876000Y-66294000D03*
X148336000Y-63754000D03*
X148336000Y-66294000D03*
X145796000Y-63754000D03*
X145796000Y-66294000D03*
X143256000Y-63754000D03*
X143256000Y-66294000D03*
X140716000Y-63754000D03*
X140716000Y-66294000D03*
X138176000Y-63754000D03*
X138176000Y-66294000D03*
X135636000Y-63754000D03*
X135636000Y-66294000D03*
X133096000Y-63754000D03*
X133096000Y-66294000D03*
X130556000Y-63754000D03*
X130556000Y-66294000D03*
X128016000Y-63754000D03*
X128016000Y-66294000D03*
X125476000Y-63754000D03*
X125476000Y-66294000D03*
X122936000Y-63754000D03*
X122936000Y-66294000D03*
X120396000Y-63754000D03*
X120396000Y-66294000D03*
X117856000Y-63754000D03*
X117856000Y-66294000D03*
X115316000Y-63754000D03*
X115316000Y-66294000D03*
X112776000Y-63754000D03*
X112776000Y-66294000D03*
X112776000Y-99314000D03*
X112776000Y-96774000D03*
X115316000Y-99314000D03*
X115316000Y-96774000D03*
X117856000Y-99314000D03*
X117856000Y-96774000D03*
X120396000Y-99314000D03*
X120396000Y-96774000D03*
X122936000Y-99314000D03*
X122936000Y-96774000D03*
X125476000Y-99314000D03*
X125476000Y-96774000D03*
X128016000Y-99314000D03*
X128016000Y-96774000D03*
X130556000Y-99314000D03*
X130556000Y-96774000D03*
X133096000Y-99314000D03*
X133096000Y-96774000D03*
X135636000Y-99314000D03*
X135636000Y-96774000D03*
X138176000Y-99314000D03*
X138176000Y-96774000D03*
X140716000Y-99314000D03*
X140716000Y-96774000D03*
X143256000Y-99314000D03*
X143256000Y-96774000D03*
X145796000Y-99314000D03*
X145796000Y-96774000D03*
X148336000Y-99314000D03*
X148336000Y-96774000D03*
X150876000Y-99314000D03*
X150876000Y-96774000D03*
X153416000Y-99314000D03*
X153416000Y-96774000D03*
X155956000Y-99314000D03*
X155956000Y-96774000D03*
X158496000Y-99314000D03*
X158496000Y-96774000D03*
X161036000Y-99314000D03*
X161036000Y-96774000D03*
X163576000Y-99314000D03*
X163576000Y-96774000D03*
X166116000Y-99314000D03*
X166116000Y-96774000D03*
X101346000Y-98679000D03*
X101346000Y-96139000D03*
D12*
X177292000Y-65278000D03*
X104013000Y-143383000D03*
D13*
X166116000Y-51054000D03*
D14*
X166116000Y-53594000D03*
X163576000Y-51054000D03*
X163576000Y-53594000D03*
X161036000Y-51054000D03*
X161036000Y-53594000D03*
X158496000Y-51054000D03*
X158496000Y-53594000D03*
X155956000Y-51054000D03*
X155956000Y-53594000D03*
X153416000Y-51054000D03*
X153416000Y-53594000D03*
X150876000Y-51054000D03*
X150876000Y-53594000D03*
X148336000Y-51054000D03*
X148336000Y-53594000D03*
X145796000Y-51054000D03*
X145796000Y-53594000D03*
X143256000Y-51054000D03*
X143256000Y-53594000D03*
X140716000Y-51054000D03*
X140716000Y-53594000D03*
X138176000Y-51054000D03*
X138176000Y-53594000D03*
X135636000Y-51054000D03*
X135636000Y-53594000D03*
X133096000Y-51054000D03*
X133096000Y-53594000D03*
X130556000Y-51054000D03*
X130556000Y-53594000D03*
X128016000Y-51054000D03*
X128016000Y-53594000D03*
X125476000Y-51054000D03*
X125476000Y-53594000D03*
X122936000Y-51054000D03*
X122936000Y-53594000D03*
X120396000Y-51054000D03*
X120396000Y-53594000D03*
X117856000Y-51054000D03*
X117856000Y-53594000D03*
D15*
X113808000Y-138999000D03*
X113808000Y-137099000D03*
X115808000Y-138049000D03*
D16*
X113792000Y-141097000D03*
X113792000Y-142367000D03*
X113792000Y-143637000D03*
X113792000Y-144907000D03*
X120142000Y-144907000D03*
X120142000Y-143637000D03*
X120142000Y-142367000D03*
X120142000Y-141097000D03*
D17*
X125095000Y-142387000D03*
X125095000Y-144887000D03*
X109347000Y-142133000D03*
X109347000Y-144633000D03*
D12*
X177292000Y-143383000D03*
D11*
X168656000Y-109347000D03*
X168656000Y-114427000D03*
X166116000Y-109347000D03*
X166116000Y-114427000D03*
X163576000Y-109347000D03*
X163576000Y-114427000D03*
X161036000Y-109347000D03*
X161036000Y-114427000D03*
X158496000Y-109347000D03*
X158496000Y-114427000D03*
X155956000Y-109347000D03*
X155956000Y-114427000D03*
X153416000Y-109347000D03*
X153416000Y-114427000D03*
X150876000Y-109347000D03*
X150876000Y-114427000D03*
X148336000Y-109347000D03*
X148336000Y-114427000D03*
X145796000Y-109347000D03*
X145796000Y-114427000D03*
X143256000Y-109347000D03*
X143256000Y-114427000D03*
X140716000Y-109347000D03*
X140716000Y-114427000D03*
X138176000Y-109347000D03*
X138176000Y-114427000D03*
X135636000Y-109347000D03*
X135636000Y-114427000D03*
X133096000Y-109347000D03*
X133096000Y-114427000D03*
X130556000Y-109347000D03*
X130556000Y-114427000D03*
X128016000Y-109347000D03*
X128016000Y-114427000D03*
X125476000Y-109347000D03*
X125476000Y-114427000D03*
X122936000Y-109347000D03*
X122936000Y-114427000D03*
X120396000Y-109347000D03*
X120396000Y-114427000D03*
X117856000Y-109347000D03*
X117856000Y-114427000D03*
X115316000Y-109347000D03*
X115316000Y-114427000D03*
X112776000Y-109347000D03*
X112776000Y-114427000D03*
X110236000Y-109347000D03*
X110236000Y-114427000D03*
X107696000Y-109347000D03*
X107696000Y-114427000D03*
D18*
X126511000Y-105117000D03*
X125711000Y-105117000D03*
X127311000Y-105117000D03*
X124911000Y-105117000D03*
X127311000Y-103417000D03*
X126511000Y-103417000D03*
X125711000Y-103417000D03*
X124911000Y-103417000D03*
X121431000Y-105117000D03*
X120631000Y-105117000D03*
X122231000Y-105117000D03*
X119831000Y-105117000D03*
X122231000Y-103417000D03*
X121431000Y-103417000D03*
X120631000Y-103417000D03*
X119831000Y-103417000D03*
D19*
X174668000Y-134366000D03*
X176868000Y-134366000D03*
D20*
X145288000Y-145753000D03*
X145288000Y-143553000D03*
X150241000Y-145753000D03*
X150241000Y-143553000D03*
D19*
X174668000Y-113665000D03*
X176868000Y-113665000D03*
D20*
X160401000Y-145880000D03*
X160401000Y-143680000D03*
X155321000Y-145753000D03*
X155321000Y-143553000D03*
M02*
