G04 #@! TF.FileFunction,Legend,Bot*
%FSLAX46Y46*%
G04 Gerber Fmt 4.6, Leading zero omitted, Abs format (unit mm)*
G04 Created by KiCad (PCBNEW 4.0.7) date 09/11/18 07:06:58*
%MOMM*%
%LPD*%
G01*
G04 APERTURE LIST*
%ADD10C,0.100000*%
%ADD11C,0.200000*%
%ADD12C,0.250000*%
%ADD13C,0.300000*%
%ADD14C,0.120000*%
%ADD15C,0.150000*%
%ADD16C,0.010000*%
G04 APERTURE END LIST*
D10*
D11*
X167640000Y-104394000D02*
X163576000Y-104394000D01*
X167640000Y-106172000D02*
X167640000Y-104394000D01*
X149860000Y-104394000D02*
X155448000Y-104394000D01*
X149860000Y-105918000D02*
X149860000Y-104394000D01*
X147320000Y-104394000D02*
X145796000Y-104394000D01*
X147320000Y-105918000D02*
X147320000Y-104394000D01*
X139700000Y-104394000D02*
X141478000Y-104394000D01*
X139700000Y-105918000D02*
X139700000Y-104394000D01*
D12*
X162654857Y-104814667D02*
X162178666Y-104814667D01*
X162750095Y-105100381D02*
X162416762Y-104100381D01*
X162083428Y-105100381D01*
X161750095Y-105100381D02*
X161750095Y-104100381D01*
X161512000Y-104100381D01*
X161369142Y-104148000D01*
X161273904Y-104243238D01*
X161226285Y-104338476D01*
X161178666Y-104528952D01*
X161178666Y-104671810D01*
X161226285Y-104862286D01*
X161273904Y-104957524D01*
X161369142Y-105052762D01*
X161512000Y-105100381D01*
X161750095Y-105100381D01*
X160750095Y-105100381D02*
X160750095Y-104100381D01*
X160512000Y-104100381D01*
X160369142Y-104148000D01*
X160273904Y-104243238D01*
X160226285Y-104338476D01*
X160178666Y-104528952D01*
X160178666Y-104671810D01*
X160226285Y-104862286D01*
X160273904Y-104957524D01*
X160369142Y-105052762D01*
X160512000Y-105100381D01*
X160750095Y-105100381D01*
X159178666Y-105100381D02*
X159512000Y-104624190D01*
X159750095Y-105100381D02*
X159750095Y-104100381D01*
X159369142Y-104100381D01*
X159273904Y-104148000D01*
X159226285Y-104195619D01*
X159178666Y-104290857D01*
X159178666Y-104433714D01*
X159226285Y-104528952D01*
X159273904Y-104576571D01*
X159369142Y-104624190D01*
X159750095Y-104624190D01*
X158750095Y-104576571D02*
X158416761Y-104576571D01*
X158273904Y-105100381D02*
X158750095Y-105100381D01*
X158750095Y-104100381D01*
X158273904Y-104100381D01*
X157892952Y-105052762D02*
X157750095Y-105100381D01*
X157511999Y-105100381D01*
X157416761Y-105052762D01*
X157369142Y-105005143D01*
X157321523Y-104909905D01*
X157321523Y-104814667D01*
X157369142Y-104719429D01*
X157416761Y-104671810D01*
X157511999Y-104624190D01*
X157702476Y-104576571D01*
X157797714Y-104528952D01*
X157845333Y-104481333D01*
X157892952Y-104386095D01*
X157892952Y-104290857D01*
X157845333Y-104195619D01*
X157797714Y-104148000D01*
X157702476Y-104100381D01*
X157464380Y-104100381D01*
X157321523Y-104148000D01*
X156940571Y-105052762D02*
X156797714Y-105100381D01*
X156559618Y-105100381D01*
X156464380Y-105052762D01*
X156416761Y-105005143D01*
X156369142Y-104909905D01*
X156369142Y-104814667D01*
X156416761Y-104719429D01*
X156464380Y-104671810D01*
X156559618Y-104624190D01*
X156750095Y-104576571D01*
X156845333Y-104528952D01*
X156892952Y-104481333D01*
X156940571Y-104386095D01*
X156940571Y-104290857D01*
X156892952Y-104195619D01*
X156845333Y-104148000D01*
X156750095Y-104100381D01*
X156511999Y-104100381D01*
X156369142Y-104148000D01*
X145264000Y-104846381D02*
X145264000Y-103846381D01*
X145025905Y-103846381D01*
X144883047Y-103894000D01*
X144787809Y-103989238D01*
X144740190Y-104084476D01*
X144692571Y-104274952D01*
X144692571Y-104417810D01*
X144740190Y-104608286D01*
X144787809Y-104703524D01*
X144883047Y-104798762D01*
X145025905Y-104846381D01*
X145264000Y-104846381D01*
X144311619Y-104560667D02*
X143835428Y-104560667D01*
X144406857Y-104846381D02*
X144073524Y-103846381D01*
X143740190Y-104846381D01*
X143549714Y-103846381D02*
X142978285Y-103846381D01*
X143264000Y-104846381D02*
X143264000Y-103846381D01*
X142692571Y-104560667D02*
X142216380Y-104560667D01*
X142787809Y-104846381D02*
X142454476Y-103846381D01*
X142121142Y-104846381D01*
D13*
X152954856Y-75013429D02*
X152883427Y-74942000D01*
X152740570Y-74870571D01*
X152383427Y-74870571D01*
X152240570Y-74942000D01*
X152169141Y-75013429D01*
X152097713Y-75156286D01*
X152097713Y-75299143D01*
X152169141Y-75513429D01*
X153026284Y-76370571D01*
X152097713Y-76370571D01*
X151169142Y-74870571D02*
X151026285Y-74870571D01*
X150883428Y-74942000D01*
X150811999Y-75013429D01*
X150740570Y-75156286D01*
X150669142Y-75442000D01*
X150669142Y-75799143D01*
X150740570Y-76084857D01*
X150811999Y-76227714D01*
X150883428Y-76299143D01*
X151026285Y-76370571D01*
X151169142Y-76370571D01*
X151311999Y-76299143D01*
X151383428Y-76227714D01*
X151454856Y-76084857D01*
X151526285Y-75799143D01*
X151526285Y-75442000D01*
X151454856Y-75156286D01*
X151383428Y-75013429D01*
X151311999Y-74942000D01*
X151169142Y-74870571D01*
X149240571Y-76370571D02*
X150097714Y-76370571D01*
X149669142Y-76370571D02*
X149669142Y-74870571D01*
X149811999Y-75084857D01*
X149954857Y-75227714D01*
X150097714Y-75299143D01*
X148383428Y-75513429D02*
X148526286Y-75442000D01*
X148597714Y-75370571D01*
X148669143Y-75227714D01*
X148669143Y-75156286D01*
X148597714Y-75013429D01*
X148526286Y-74942000D01*
X148383428Y-74870571D01*
X148097714Y-74870571D01*
X147954857Y-74942000D01*
X147883428Y-75013429D01*
X147812000Y-75156286D01*
X147812000Y-75227714D01*
X147883428Y-75370571D01*
X147954857Y-75442000D01*
X148097714Y-75513429D01*
X148383428Y-75513429D01*
X148526286Y-75584857D01*
X148597714Y-75656286D01*
X148669143Y-75799143D01*
X148669143Y-76084857D01*
X148597714Y-76227714D01*
X148526286Y-76299143D01*
X148383428Y-76370571D01*
X148097714Y-76370571D01*
X147954857Y-76299143D01*
X147883428Y-76227714D01*
X147812000Y-76084857D01*
X147812000Y-75799143D01*
X147883428Y-75656286D01*
X147954857Y-75584857D01*
X148097714Y-75513429D01*
X147169143Y-76227714D02*
X147097715Y-76299143D01*
X147169143Y-76370571D01*
X147240572Y-76299143D01*
X147169143Y-76227714D01*
X147169143Y-76370571D01*
X146169143Y-74870571D02*
X146026286Y-74870571D01*
X145883429Y-74942000D01*
X145812000Y-75013429D01*
X145740571Y-75156286D01*
X145669143Y-75442000D01*
X145669143Y-75799143D01*
X145740571Y-76084857D01*
X145812000Y-76227714D01*
X145883429Y-76299143D01*
X146026286Y-76370571D01*
X146169143Y-76370571D01*
X146312000Y-76299143D01*
X146383429Y-76227714D01*
X146454857Y-76084857D01*
X146526286Y-75799143D01*
X146526286Y-75442000D01*
X146454857Y-75156286D01*
X146383429Y-75013429D01*
X146312000Y-74942000D01*
X146169143Y-74870571D01*
X144954858Y-76370571D02*
X144669143Y-76370571D01*
X144526286Y-76299143D01*
X144454858Y-76227714D01*
X144312000Y-76013429D01*
X144240572Y-75727714D01*
X144240572Y-75156286D01*
X144312000Y-75013429D01*
X144383429Y-74942000D01*
X144526286Y-74870571D01*
X144812000Y-74870571D01*
X144954858Y-74942000D01*
X145026286Y-75013429D01*
X145097715Y-75156286D01*
X145097715Y-75513429D01*
X145026286Y-75656286D01*
X144954858Y-75727714D01*
X144812000Y-75799143D01*
X144526286Y-75799143D01*
X144383429Y-75727714D01*
X144312000Y-75656286D01*
X144240572Y-75513429D01*
X143597715Y-76227714D02*
X143526287Y-76299143D01*
X143597715Y-76370571D01*
X143669144Y-76299143D01*
X143597715Y-76227714D01*
X143597715Y-76370571D01*
X142097715Y-76370571D02*
X142954858Y-76370571D01*
X142526286Y-76370571D02*
X142526286Y-74870571D01*
X142669143Y-75084857D01*
X142812001Y-75227714D01*
X142954858Y-75299143D01*
X140669144Y-76370571D02*
X141526287Y-76370571D01*
X141097715Y-76370571D02*
X141097715Y-74870571D01*
X141240572Y-75084857D01*
X141383430Y-75227714D01*
X141526287Y-75299143D01*
D12*
X131000476Y-103846381D02*
X131476667Y-103846381D01*
X131524286Y-104322571D01*
X131476667Y-104274952D01*
X131381429Y-104227333D01*
X131143333Y-104227333D01*
X131048095Y-104274952D01*
X131000476Y-104322571D01*
X130952857Y-104417810D01*
X130952857Y-104655905D01*
X131000476Y-104751143D01*
X131048095Y-104798762D01*
X131143333Y-104846381D01*
X131381429Y-104846381D01*
X131476667Y-104798762D01*
X131524286Y-104751143D01*
X130667143Y-103846381D02*
X130333810Y-104846381D01*
X130000476Y-103846381D01*
X136651904Y-103894000D02*
X136747142Y-103846381D01*
X136889999Y-103846381D01*
X137032857Y-103894000D01*
X137128095Y-103989238D01*
X137175714Y-104084476D01*
X137223333Y-104274952D01*
X137223333Y-104417810D01*
X137175714Y-104608286D01*
X137128095Y-104703524D01*
X137032857Y-104798762D01*
X136889999Y-104846381D01*
X136794761Y-104846381D01*
X136651904Y-104798762D01*
X136604285Y-104751143D01*
X136604285Y-104417810D01*
X136794761Y-104417810D01*
X136175714Y-104846381D02*
X136175714Y-103846381D01*
X135604285Y-104846381D01*
X135604285Y-103846381D01*
X135128095Y-104846381D02*
X135128095Y-103846381D01*
X134890000Y-103846381D01*
X134747142Y-103894000D01*
X134651904Y-103989238D01*
X134604285Y-104084476D01*
X134556666Y-104274952D01*
X134556666Y-104417810D01*
X134604285Y-104608286D01*
X134651904Y-104703524D01*
X134747142Y-104798762D01*
X134890000Y-104846381D01*
X135128095Y-104846381D01*
X173267619Y-105068571D02*
X172267619Y-104830476D01*
X172981905Y-104639999D01*
X172267619Y-104449523D01*
X173267619Y-104211428D01*
X172267619Y-103259047D02*
X172743810Y-103592381D01*
X172267619Y-103830476D02*
X173267619Y-103830476D01*
X173267619Y-103449523D01*
X173220000Y-103354285D01*
X173172381Y-103306666D01*
X173077143Y-103259047D01*
X172934286Y-103259047D01*
X172839048Y-103306666D01*
X172791429Y-103354285D01*
X172743810Y-103449523D01*
X172743810Y-103830476D01*
X174807619Y-104917809D02*
X175807619Y-104917809D01*
X174712381Y-103774952D02*
X174760000Y-103870190D01*
X174855238Y-103965428D01*
X174998095Y-104108285D01*
X175045714Y-104203524D01*
X175045714Y-104298762D01*
X174807619Y-104251143D02*
X174855238Y-104346381D01*
X174950476Y-104441619D01*
X175140952Y-104489238D01*
X175474286Y-104489238D01*
X175664762Y-104441619D01*
X175760000Y-104346381D01*
X175807619Y-104251143D01*
X175807619Y-104060666D01*
X175760000Y-103965428D01*
X175664762Y-103870190D01*
X175474286Y-103822571D01*
X175140952Y-103822571D01*
X174950476Y-103870190D01*
X174855238Y-103965428D01*
X174807619Y-104060666D01*
X174807619Y-104251143D01*
X177347619Y-104949524D02*
X178347619Y-104949524D01*
X177633333Y-104616190D01*
X178347619Y-104282857D01*
X177347619Y-104282857D01*
X177347619Y-103282857D02*
X177347619Y-103854286D01*
X177347619Y-103568572D02*
X178347619Y-103568572D01*
X178204762Y-103663810D01*
X178109524Y-103759048D01*
X178061905Y-103854286D01*
X180887619Y-105362190D02*
X179887619Y-105124095D01*
X180601905Y-104933618D01*
X179887619Y-104743142D01*
X180887619Y-104505047D01*
X180173333Y-104171714D02*
X180173333Y-103695523D01*
X179887619Y-104266952D02*
X180887619Y-103933619D01*
X179887619Y-103600285D01*
X179887619Y-103266952D02*
X180887619Y-103266952D01*
X180887619Y-102933619D02*
X180887619Y-102362190D01*
X179887619Y-102647905D02*
X180887619Y-102647905D01*
X169981619Y-104687619D02*
X170457810Y-105020953D01*
X169981619Y-105259048D02*
X170981619Y-105259048D01*
X170981619Y-104878095D01*
X170934000Y-104782857D01*
X170886381Y-104735238D01*
X170791143Y-104687619D01*
X170648286Y-104687619D01*
X170553048Y-104735238D01*
X170505429Y-104782857D01*
X170457810Y-104878095D01*
X170457810Y-105259048D01*
X170029238Y-104306667D02*
X169981619Y-104163810D01*
X169981619Y-103925714D01*
X170029238Y-103830476D01*
X170076857Y-103782857D01*
X170172095Y-103735238D01*
X170267333Y-103735238D01*
X170362571Y-103782857D01*
X170410190Y-103830476D01*
X170457810Y-103925714D01*
X170505429Y-104116191D01*
X170553048Y-104211429D01*
X170600667Y-104259048D01*
X170695905Y-104306667D01*
X170791143Y-104306667D01*
X170886381Y-104259048D01*
X170934000Y-104211429D01*
X170981619Y-104116191D01*
X170981619Y-103878095D01*
X170934000Y-103735238D01*
X170981619Y-103449524D02*
X170981619Y-102878095D01*
X169981619Y-103163810D02*
X170981619Y-103163810D01*
D13*
X158589714Y-79418571D02*
X158589714Y-78418571D01*
X158589714Y-78561429D02*
X158518286Y-78490000D01*
X158375428Y-78418571D01*
X158161143Y-78418571D01*
X158018286Y-78490000D01*
X157946857Y-78632857D01*
X157946857Y-79418571D01*
X157946857Y-78632857D02*
X157875428Y-78490000D01*
X157732571Y-78418571D01*
X157518286Y-78418571D01*
X157375428Y-78490000D01*
X157304000Y-78632857D01*
X157304000Y-79418571D01*
X156018286Y-79347143D02*
X156161143Y-79418571D01*
X156446857Y-79418571D01*
X156589714Y-79347143D01*
X156661143Y-79204286D01*
X156661143Y-78632857D01*
X156589714Y-78490000D01*
X156446857Y-78418571D01*
X156161143Y-78418571D01*
X156018286Y-78490000D01*
X155946857Y-78632857D01*
X155946857Y-78775714D01*
X156661143Y-78918571D01*
X154732572Y-79347143D02*
X154875429Y-79418571D01*
X155161143Y-79418571D01*
X155304000Y-79347143D01*
X155375429Y-79204286D01*
X155375429Y-78632857D01*
X155304000Y-78490000D01*
X155161143Y-78418571D01*
X154875429Y-78418571D01*
X154732572Y-78490000D01*
X154661143Y-78632857D01*
X154661143Y-78775714D01*
X155375429Y-78918571D01*
X154089715Y-79347143D02*
X153946858Y-79418571D01*
X153661143Y-79418571D01*
X153518286Y-79347143D01*
X153446858Y-79204286D01*
X153446858Y-79132857D01*
X153518286Y-78990000D01*
X153661143Y-78918571D01*
X153875429Y-78918571D01*
X154018286Y-78847143D01*
X154089715Y-78704286D01*
X154089715Y-78632857D01*
X154018286Y-78490000D01*
X153875429Y-78418571D01*
X153661143Y-78418571D01*
X153518286Y-78490000D01*
X152589714Y-79418571D02*
X152732572Y-79347143D01*
X152804000Y-79275714D01*
X152875429Y-79132857D01*
X152875429Y-78704286D01*
X152804000Y-78561429D01*
X152732572Y-78490000D01*
X152589714Y-78418571D01*
X152375429Y-78418571D01*
X152232572Y-78490000D01*
X152161143Y-78561429D01*
X152089714Y-78704286D01*
X152089714Y-79132857D01*
X152161143Y-79275714D01*
X152232572Y-79347143D01*
X152375429Y-79418571D01*
X152589714Y-79418571D01*
X151446857Y-79275714D02*
X151375429Y-79347143D01*
X151446857Y-79418571D01*
X151518286Y-79347143D01*
X151446857Y-79275714D01*
X151446857Y-79418571D01*
X150732571Y-79418571D02*
X150732571Y-77918571D01*
X150589714Y-78847143D02*
X150161143Y-79418571D01*
X150161143Y-78418571D02*
X150732571Y-78990000D01*
X149518285Y-79418571D02*
X149518285Y-78418571D01*
X149518285Y-77918571D02*
X149589714Y-77990000D01*
X149518285Y-78061429D01*
X149446857Y-77990000D01*
X149518285Y-77918571D01*
X149518285Y-78061429D01*
X148803999Y-79418571D02*
X148803999Y-78418571D01*
X148803999Y-78561429D02*
X148732571Y-78490000D01*
X148589713Y-78418571D01*
X148375428Y-78418571D01*
X148232571Y-78490000D01*
X148161142Y-78632857D01*
X148161142Y-79418571D01*
X148161142Y-78632857D02*
X148089713Y-78490000D01*
X147946856Y-78418571D01*
X147732571Y-78418571D01*
X147589713Y-78490000D01*
X147518285Y-78632857D01*
X147518285Y-79418571D01*
X145875428Y-78704286D02*
X145946856Y-78632857D01*
X146089713Y-78561429D01*
X146232571Y-78561429D01*
X146375428Y-78632857D01*
X146446856Y-78704286D01*
X146518285Y-78847143D01*
X146518285Y-78990000D01*
X146446856Y-79132857D01*
X146375428Y-79204286D01*
X146232571Y-79275714D01*
X146089713Y-79275714D01*
X145946856Y-79204286D01*
X145875428Y-79132857D01*
X145875428Y-78561429D02*
X145875428Y-79132857D01*
X145803999Y-79204286D01*
X145732571Y-79204286D01*
X145589713Y-79132857D01*
X145518285Y-78990000D01*
X145518285Y-78632857D01*
X145661142Y-78418571D01*
X145875428Y-78275714D01*
X146161142Y-78204286D01*
X146446856Y-78275714D01*
X146661142Y-78418571D01*
X146803999Y-78632857D01*
X146875428Y-78918571D01*
X146803999Y-79204286D01*
X146661142Y-79418571D01*
X146446856Y-79561429D01*
X146161142Y-79632857D01*
X145875428Y-79561429D01*
X145661142Y-79418571D01*
X144232571Y-78418571D02*
X144232571Y-79632857D01*
X144304000Y-79775714D01*
X144375428Y-79847143D01*
X144518285Y-79918571D01*
X144732571Y-79918571D01*
X144875428Y-79847143D01*
X144232571Y-79347143D02*
X144375428Y-79418571D01*
X144661142Y-79418571D01*
X144804000Y-79347143D01*
X144875428Y-79275714D01*
X144946857Y-79132857D01*
X144946857Y-78704286D01*
X144875428Y-78561429D01*
X144804000Y-78490000D01*
X144661142Y-78418571D01*
X144375428Y-78418571D01*
X144232571Y-78490000D01*
X143518285Y-79418571D02*
X143518285Y-78418571D01*
X143518285Y-78561429D02*
X143446857Y-78490000D01*
X143303999Y-78418571D01*
X143089714Y-78418571D01*
X142946857Y-78490000D01*
X142875428Y-78632857D01*
X142875428Y-79418571D01*
X142875428Y-78632857D02*
X142803999Y-78490000D01*
X142661142Y-78418571D01*
X142446857Y-78418571D01*
X142303999Y-78490000D01*
X142232571Y-78632857D01*
X142232571Y-79418571D01*
X140875428Y-79418571D02*
X140875428Y-78632857D01*
X140946857Y-78490000D01*
X141089714Y-78418571D01*
X141375428Y-78418571D01*
X141518285Y-78490000D01*
X140875428Y-79347143D02*
X141018285Y-79418571D01*
X141375428Y-79418571D01*
X141518285Y-79347143D01*
X141589714Y-79204286D01*
X141589714Y-79061429D01*
X141518285Y-78918571D01*
X141375428Y-78847143D01*
X141018285Y-78847143D01*
X140875428Y-78775714D01*
X140161142Y-79418571D02*
X140161142Y-78418571D01*
X140161142Y-77918571D02*
X140232571Y-77990000D01*
X140161142Y-78061429D01*
X140089714Y-77990000D01*
X140161142Y-77918571D01*
X140161142Y-78061429D01*
X139232570Y-79418571D02*
X139375428Y-79347143D01*
X139446856Y-79204286D01*
X139446856Y-77918571D01*
X138661142Y-79275714D02*
X138589714Y-79347143D01*
X138661142Y-79418571D01*
X138732571Y-79347143D01*
X138661142Y-79275714D01*
X138661142Y-79418571D01*
X137303999Y-79347143D02*
X137446856Y-79418571D01*
X137732570Y-79418571D01*
X137875428Y-79347143D01*
X137946856Y-79275714D01*
X138018285Y-79132857D01*
X138018285Y-78704286D01*
X137946856Y-78561429D01*
X137875428Y-78490000D01*
X137732570Y-78418571D01*
X137446856Y-78418571D01*
X137303999Y-78490000D01*
X136446856Y-79418571D02*
X136589714Y-79347143D01*
X136661142Y-79275714D01*
X136732571Y-79132857D01*
X136732571Y-78704286D01*
X136661142Y-78561429D01*
X136589714Y-78490000D01*
X136446856Y-78418571D01*
X136232571Y-78418571D01*
X136089714Y-78490000D01*
X136018285Y-78561429D01*
X135946856Y-78704286D01*
X135946856Y-79132857D01*
X136018285Y-79275714D01*
X136089714Y-79347143D01*
X136232571Y-79418571D01*
X136446856Y-79418571D01*
X135303999Y-79418571D02*
X135303999Y-78418571D01*
X135303999Y-78561429D02*
X135232571Y-78490000D01*
X135089713Y-78418571D01*
X134875428Y-78418571D01*
X134732571Y-78490000D01*
X134661142Y-78632857D01*
X134661142Y-79418571D01*
X134661142Y-78632857D02*
X134589713Y-78490000D01*
X134446856Y-78418571D01*
X134232571Y-78418571D01*
X134089713Y-78490000D01*
X134018285Y-78632857D01*
X134018285Y-79418571D01*
D14*
X122397000Y-90713000D02*
X121697000Y-90713000D01*
X121697000Y-91913000D02*
X122397000Y-91913000D01*
X123829000Y-95889000D02*
X123829000Y-96289000D01*
X119249000Y-95119000D02*
X119249000Y-96289000D01*
X119249000Y-99699000D02*
X119249000Y-98529000D01*
X123829000Y-98929000D02*
X123829000Y-98529000D01*
X123059000Y-99699000D02*
X119249000Y-99699000D01*
X123059000Y-99699000D02*
X123829000Y-98929000D01*
X123059000Y-95119000D02*
X119249000Y-95119000D01*
X123059000Y-95119000D02*
X123829000Y-95889000D01*
X121547000Y-94279000D02*
X122547000Y-94279000D01*
X122547000Y-92919000D02*
X121547000Y-92919000D01*
D15*
X153925000Y-94045000D02*
X153650000Y-94045000D01*
X153925000Y-86295000D02*
X153560000Y-86295000D01*
X138175000Y-86295000D02*
X138540000Y-86295000D01*
X138175000Y-94045000D02*
X138540000Y-94045000D01*
X153925000Y-94045000D02*
X153925000Y-86295000D01*
X138175000Y-94045000D02*
X138175000Y-86295000D01*
X153650000Y-94045000D02*
X153650000Y-95870000D01*
D14*
X111125000Y-55940000D02*
X159445000Y-55940000D01*
X159445000Y-55940000D02*
X159445000Y-50740000D01*
X159445000Y-50740000D02*
X108525000Y-50740000D01*
X108525000Y-50740000D02*
X108525000Y-53340000D01*
X108525000Y-53340000D02*
X111125000Y-53340000D01*
X111125000Y-53340000D02*
X111125000Y-55940000D01*
X109855000Y-55940000D02*
X108525000Y-55940000D01*
X108525000Y-55940000D02*
X108525000Y-54670000D01*
D16*
G36*
X169386190Y-85981863D02*
X168771422Y-85982992D01*
X168260740Y-85986537D01*
X167842687Y-85993860D01*
X167505807Y-86006322D01*
X167238643Y-86025284D01*
X167029737Y-86052106D01*
X166867634Y-86088150D01*
X166740876Y-86134777D01*
X166638006Y-86193349D01*
X166547568Y-86265225D01*
X166458106Y-86351769D01*
X166386939Y-86424876D01*
X166293444Y-86523284D01*
X166215674Y-86617278D01*
X166152268Y-86718992D01*
X166101866Y-86840563D01*
X166063107Y-86994125D01*
X166034630Y-87191815D01*
X166015074Y-87445767D01*
X166003079Y-87768117D01*
X165997284Y-88171001D01*
X165996328Y-88666553D01*
X165998850Y-89266910D01*
X166002604Y-89852500D01*
X166020750Y-92551250D01*
X166200453Y-92816047D01*
X166371358Y-93021350D01*
X166580301Y-93212951D01*
X166644953Y-93260547D01*
X166909750Y-93440250D01*
X170026599Y-93457836D01*
X173143447Y-93475422D01*
X173486368Y-93296278D01*
X173766847Y-93112580D01*
X173974775Y-92878201D01*
X174020770Y-92807521D01*
X174212250Y-92497909D01*
X174223225Y-91010551D01*
X172776711Y-91010551D01*
X172749951Y-91062969D01*
X172656500Y-91122500D01*
X172591777Y-91172829D01*
X172553419Y-91257690D01*
X172534868Y-91406490D01*
X172529560Y-91648632D01*
X172529500Y-91691698D01*
X172525694Y-91959946D01*
X172501698Y-92149177D01*
X172438649Y-92273176D01*
X172317685Y-92345726D01*
X172119940Y-92380613D01*
X171826551Y-92391620D01*
X171570472Y-92392500D01*
X171238667Y-92389828D01*
X171013248Y-92380131D01*
X170873680Y-92360884D01*
X170799431Y-92329563D01*
X170773413Y-92294511D01*
X170760860Y-92188265D01*
X170775069Y-92157264D01*
X170850849Y-92142576D01*
X171026003Y-92132960D01*
X171272971Y-92129373D01*
X171513164Y-92131667D01*
X172212000Y-92145328D01*
X172212000Y-91762265D01*
X171625351Y-91744007D01*
X171344099Y-91731993D01*
X171166049Y-91713787D01*
X171067411Y-91684325D01*
X171024391Y-91638543D01*
X171017445Y-91614625D01*
X171019689Y-91562998D01*
X171065096Y-91530277D01*
X171175829Y-91512263D01*
X171374050Y-91504758D01*
X171604094Y-91503500D01*
X171884848Y-91502419D01*
X172062300Y-91495050D01*
X172160147Y-91475205D01*
X172202088Y-91436696D01*
X172211819Y-91373334D01*
X172212000Y-91344750D01*
X172211611Y-91337489D01*
X169587588Y-91337489D01*
X169490390Y-91445570D01*
X169371239Y-91512351D01*
X169208659Y-91536818D01*
X168988161Y-91528187D01*
X168790697Y-91515449D01*
X168702027Y-91521339D01*
X168704822Y-91549598D01*
X168745678Y-91580525D01*
X168973651Y-91781988D01*
X169092964Y-91997403D01*
X169099617Y-92210609D01*
X168989610Y-92405444D01*
X168957625Y-92436848D01*
X168730140Y-92594406D01*
X168499358Y-92639003D01*
X168231028Y-92576083D01*
X168188650Y-92559060D01*
X167983277Y-92417992D01*
X167877589Y-92227261D01*
X167871327Y-92015567D01*
X167964230Y-91811606D01*
X168156041Y-91644077D01*
X168197111Y-91621960D01*
X168316781Y-91546028D01*
X168323287Y-91491908D01*
X168212916Y-91457768D01*
X167981959Y-91441772D01*
X167829055Y-91440000D01*
X167567350Y-91422623D01*
X167427079Y-91370643D01*
X167408587Y-91284286D01*
X167467186Y-91204600D01*
X167525183Y-91162876D01*
X167611756Y-91141627D01*
X167752205Y-91140303D01*
X167971833Y-91158359D01*
X168235037Y-91187985D01*
X168553518Y-91218436D01*
X168862402Y-91235429D01*
X169116943Y-91237066D01*
X169224069Y-91229993D01*
X169452436Y-91221547D01*
X169575628Y-91259014D01*
X169587588Y-91337489D01*
X172211611Y-91337489D01*
X172208136Y-91272707D01*
X172181085Y-91226619D01*
X172107659Y-91200686D01*
X171964673Y-91189114D01*
X171728940Y-91186105D01*
X171577000Y-91186000D01*
X171287988Y-91184256D01*
X171102974Y-91175962D01*
X170998971Y-91156520D01*
X170952993Y-91121332D01*
X170942052Y-91065801D01*
X170942000Y-91059000D01*
X170948413Y-91009483D01*
X170980439Y-90974838D01*
X171057261Y-90952418D01*
X171198064Y-90939576D01*
X171422030Y-90933667D01*
X171748344Y-90932046D01*
X171862750Y-90932000D01*
X172260855Y-90935921D01*
X172540396Y-90949003D01*
X172709604Y-90973221D01*
X172776711Y-91010551D01*
X174223225Y-91010551D01*
X174224979Y-90772741D01*
X168974537Y-90772741D01*
X168923641Y-90877358D01*
X168832371Y-90960149D01*
X168658268Y-91030355D01*
X168438100Y-91056373D01*
X168235186Y-91034392D01*
X168154622Y-91000936D01*
X168081211Y-90912094D01*
X168115376Y-90826797D01*
X168238574Y-90763521D01*
X168415883Y-90740632D01*
X168623593Y-90731117D01*
X168799439Y-90708586D01*
X168830625Y-90701476D01*
X168943463Y-90703841D01*
X168974537Y-90772741D01*
X174224979Y-90772741D01*
X174231733Y-89857579D01*
X174235782Y-89089761D01*
X174235626Y-88445351D01*
X174231204Y-87920822D01*
X174222453Y-87512650D01*
X174209309Y-87217309D01*
X174206964Y-87192517D01*
X172842275Y-87192517D01*
X172792452Y-87267774D01*
X172727260Y-87308615D01*
X172658993Y-87371757D01*
X172616175Y-87491058D01*
X172590360Y-87695883D01*
X172582749Y-87811060D01*
X172565837Y-88052505D01*
X172534042Y-88224569D01*
X172468300Y-88339003D01*
X172349550Y-88407561D01*
X172158729Y-88441995D01*
X171876775Y-88454057D01*
X171537475Y-88455500D01*
X171194461Y-88454359D01*
X170958546Y-88449033D01*
X170809839Y-88436667D01*
X170728446Y-88414403D01*
X170694474Y-88379387D01*
X170688000Y-88333545D01*
X170742892Y-88229655D01*
X170882458Y-88169383D01*
X171069036Y-88162246D01*
X171220853Y-88198877D01*
X171377350Y-88234196D01*
X171605357Y-88258187D01*
X171803384Y-88265000D01*
X172212000Y-88265000D01*
X172212000Y-87816325D01*
X172221882Y-87507170D01*
X172259026Y-87303621D01*
X172334682Y-87185297D01*
X172336914Y-87184345D01*
X169608500Y-87184345D01*
X169588482Y-87222776D01*
X169496952Y-87308961D01*
X169486943Y-87317363D01*
X169408741Y-87373476D01*
X169319181Y-87407560D01*
X169190635Y-87422376D01*
X168995475Y-87420686D01*
X168706072Y-87405252D01*
X168645568Y-87401463D01*
X167957500Y-87357924D01*
X167957500Y-88001962D01*
X167954525Y-88299696D01*
X167943490Y-88491555D01*
X167921234Y-88598566D01*
X167884596Y-88641759D01*
X167860679Y-88646000D01*
X167769055Y-88592827D01*
X167701929Y-88483116D01*
X167674162Y-88347551D01*
X167652835Y-88124399D01*
X167641208Y-87853031D01*
X167640000Y-87734911D01*
X167640000Y-87149590D01*
X168608375Y-87164278D01*
X168945892Y-87169702D01*
X169236448Y-87174950D01*
X169457315Y-87179565D01*
X169585764Y-87183091D01*
X169608500Y-87184345D01*
X172336914Y-87184345D01*
X172460098Y-87131817D01*
X172595235Y-87122000D01*
X172774509Y-87141061D01*
X172842275Y-87192517D01*
X174206964Y-87192517D01*
X174191709Y-87031273D01*
X174180376Y-86975177D01*
X174055126Y-86714108D01*
X173848040Y-86449938D01*
X173596324Y-86223813D01*
X173386750Y-86097469D01*
X173320043Y-86070567D01*
X173240850Y-86048166D01*
X173137640Y-86029858D01*
X172998884Y-86015235D01*
X172813049Y-86003889D01*
X172568607Y-85995412D01*
X172254026Y-85989396D01*
X171857775Y-85985434D01*
X171368324Y-85983118D01*
X170774143Y-85982039D01*
X170116500Y-85981789D01*
X169386190Y-85981863D01*
X169386190Y-85981863D01*
G37*
X169386190Y-85981863D02*
X168771422Y-85982992D01*
X168260740Y-85986537D01*
X167842687Y-85993860D01*
X167505807Y-86006322D01*
X167238643Y-86025284D01*
X167029737Y-86052106D01*
X166867634Y-86088150D01*
X166740876Y-86134777D01*
X166638006Y-86193349D01*
X166547568Y-86265225D01*
X166458106Y-86351769D01*
X166386939Y-86424876D01*
X166293444Y-86523284D01*
X166215674Y-86617278D01*
X166152268Y-86718992D01*
X166101866Y-86840563D01*
X166063107Y-86994125D01*
X166034630Y-87191815D01*
X166015074Y-87445767D01*
X166003079Y-87768117D01*
X165997284Y-88171001D01*
X165996328Y-88666553D01*
X165998850Y-89266910D01*
X166002604Y-89852500D01*
X166020750Y-92551250D01*
X166200453Y-92816047D01*
X166371358Y-93021350D01*
X166580301Y-93212951D01*
X166644953Y-93260547D01*
X166909750Y-93440250D01*
X170026599Y-93457836D01*
X173143447Y-93475422D01*
X173486368Y-93296278D01*
X173766847Y-93112580D01*
X173974775Y-92878201D01*
X174020770Y-92807521D01*
X174212250Y-92497909D01*
X174223225Y-91010551D01*
X172776711Y-91010551D01*
X172749951Y-91062969D01*
X172656500Y-91122500D01*
X172591777Y-91172829D01*
X172553419Y-91257690D01*
X172534868Y-91406490D01*
X172529560Y-91648632D01*
X172529500Y-91691698D01*
X172525694Y-91959946D01*
X172501698Y-92149177D01*
X172438649Y-92273176D01*
X172317685Y-92345726D01*
X172119940Y-92380613D01*
X171826551Y-92391620D01*
X171570472Y-92392500D01*
X171238667Y-92389828D01*
X171013248Y-92380131D01*
X170873680Y-92360884D01*
X170799431Y-92329563D01*
X170773413Y-92294511D01*
X170760860Y-92188265D01*
X170775069Y-92157264D01*
X170850849Y-92142576D01*
X171026003Y-92132960D01*
X171272971Y-92129373D01*
X171513164Y-92131667D01*
X172212000Y-92145328D01*
X172212000Y-91762265D01*
X171625351Y-91744007D01*
X171344099Y-91731993D01*
X171166049Y-91713787D01*
X171067411Y-91684325D01*
X171024391Y-91638543D01*
X171017445Y-91614625D01*
X171019689Y-91562998D01*
X171065096Y-91530277D01*
X171175829Y-91512263D01*
X171374050Y-91504758D01*
X171604094Y-91503500D01*
X171884848Y-91502419D01*
X172062300Y-91495050D01*
X172160147Y-91475205D01*
X172202088Y-91436696D01*
X172211819Y-91373334D01*
X172212000Y-91344750D01*
X172211611Y-91337489D01*
X169587588Y-91337489D01*
X169490390Y-91445570D01*
X169371239Y-91512351D01*
X169208659Y-91536818D01*
X168988161Y-91528187D01*
X168790697Y-91515449D01*
X168702027Y-91521339D01*
X168704822Y-91549598D01*
X168745678Y-91580525D01*
X168973651Y-91781988D01*
X169092964Y-91997403D01*
X169099617Y-92210609D01*
X168989610Y-92405444D01*
X168957625Y-92436848D01*
X168730140Y-92594406D01*
X168499358Y-92639003D01*
X168231028Y-92576083D01*
X168188650Y-92559060D01*
X167983277Y-92417992D01*
X167877589Y-92227261D01*
X167871327Y-92015567D01*
X167964230Y-91811606D01*
X168156041Y-91644077D01*
X168197111Y-91621960D01*
X168316781Y-91546028D01*
X168323287Y-91491908D01*
X168212916Y-91457768D01*
X167981959Y-91441772D01*
X167829055Y-91440000D01*
X167567350Y-91422623D01*
X167427079Y-91370643D01*
X167408587Y-91284286D01*
X167467186Y-91204600D01*
X167525183Y-91162876D01*
X167611756Y-91141627D01*
X167752205Y-91140303D01*
X167971833Y-91158359D01*
X168235037Y-91187985D01*
X168553518Y-91218436D01*
X168862402Y-91235429D01*
X169116943Y-91237066D01*
X169224069Y-91229993D01*
X169452436Y-91221547D01*
X169575628Y-91259014D01*
X169587588Y-91337489D01*
X172211611Y-91337489D01*
X172208136Y-91272707D01*
X172181085Y-91226619D01*
X172107659Y-91200686D01*
X171964673Y-91189114D01*
X171728940Y-91186105D01*
X171577000Y-91186000D01*
X171287988Y-91184256D01*
X171102974Y-91175962D01*
X170998971Y-91156520D01*
X170952993Y-91121332D01*
X170942052Y-91065801D01*
X170942000Y-91059000D01*
X170948413Y-91009483D01*
X170980439Y-90974838D01*
X171057261Y-90952418D01*
X171198064Y-90939576D01*
X171422030Y-90933667D01*
X171748344Y-90932046D01*
X171862750Y-90932000D01*
X172260855Y-90935921D01*
X172540396Y-90949003D01*
X172709604Y-90973221D01*
X172776711Y-91010551D01*
X174223225Y-91010551D01*
X174224979Y-90772741D01*
X168974537Y-90772741D01*
X168923641Y-90877358D01*
X168832371Y-90960149D01*
X168658268Y-91030355D01*
X168438100Y-91056373D01*
X168235186Y-91034392D01*
X168154622Y-91000936D01*
X168081211Y-90912094D01*
X168115376Y-90826797D01*
X168238574Y-90763521D01*
X168415883Y-90740632D01*
X168623593Y-90731117D01*
X168799439Y-90708586D01*
X168830625Y-90701476D01*
X168943463Y-90703841D01*
X168974537Y-90772741D01*
X174224979Y-90772741D01*
X174231733Y-89857579D01*
X174235782Y-89089761D01*
X174235626Y-88445351D01*
X174231204Y-87920822D01*
X174222453Y-87512650D01*
X174209309Y-87217309D01*
X174206964Y-87192517D01*
X172842275Y-87192517D01*
X172792452Y-87267774D01*
X172727260Y-87308615D01*
X172658993Y-87371757D01*
X172616175Y-87491058D01*
X172590360Y-87695883D01*
X172582749Y-87811060D01*
X172565837Y-88052505D01*
X172534042Y-88224569D01*
X172468300Y-88339003D01*
X172349550Y-88407561D01*
X172158729Y-88441995D01*
X171876775Y-88454057D01*
X171537475Y-88455500D01*
X171194461Y-88454359D01*
X170958546Y-88449033D01*
X170809839Y-88436667D01*
X170728446Y-88414403D01*
X170694474Y-88379387D01*
X170688000Y-88333545D01*
X170742892Y-88229655D01*
X170882458Y-88169383D01*
X171069036Y-88162246D01*
X171220853Y-88198877D01*
X171377350Y-88234196D01*
X171605357Y-88258187D01*
X171803384Y-88265000D01*
X172212000Y-88265000D01*
X172212000Y-87816325D01*
X172221882Y-87507170D01*
X172259026Y-87303621D01*
X172334682Y-87185297D01*
X172336914Y-87184345D01*
X169608500Y-87184345D01*
X169588482Y-87222776D01*
X169496952Y-87308961D01*
X169486943Y-87317363D01*
X169408741Y-87373476D01*
X169319181Y-87407560D01*
X169190635Y-87422376D01*
X168995475Y-87420686D01*
X168706072Y-87405252D01*
X168645568Y-87401463D01*
X167957500Y-87357924D01*
X167957500Y-88001962D01*
X167954525Y-88299696D01*
X167943490Y-88491555D01*
X167921234Y-88598566D01*
X167884596Y-88641759D01*
X167860679Y-88646000D01*
X167769055Y-88592827D01*
X167701929Y-88483116D01*
X167674162Y-88347551D01*
X167652835Y-88124399D01*
X167641208Y-87853031D01*
X167640000Y-87734911D01*
X167640000Y-87149590D01*
X168608375Y-87164278D01*
X168945892Y-87169702D01*
X169236448Y-87174950D01*
X169457315Y-87179565D01*
X169585764Y-87183091D01*
X169608500Y-87184345D01*
X172336914Y-87184345D01*
X172460098Y-87131817D01*
X172595235Y-87122000D01*
X172774509Y-87141061D01*
X172842275Y-87192517D01*
X174206964Y-87192517D01*
X174191709Y-87031273D01*
X174180376Y-86975177D01*
X174055126Y-86714108D01*
X173848040Y-86449938D01*
X173596324Y-86223813D01*
X173386750Y-86097469D01*
X173320043Y-86070567D01*
X173240850Y-86048166D01*
X173137640Y-86029858D01*
X172998884Y-86015235D01*
X172813049Y-86003889D01*
X172568607Y-85995412D01*
X172254026Y-85989396D01*
X171857775Y-85985434D01*
X171368324Y-85983118D01*
X170774143Y-85982039D01*
X170116500Y-85981789D01*
X169386190Y-85981863D01*
G36*
X168388136Y-91799393D02*
X168264085Y-91896142D01*
X168169877Y-92004345D01*
X168148000Y-92060870D01*
X168181065Y-92144847D01*
X168246851Y-92251370D01*
X168387555Y-92363639D01*
X168558808Y-92387303D01*
X168706800Y-92316300D01*
X168775502Y-92172056D01*
X168760177Y-92002107D01*
X168678007Y-91851298D01*
X168546171Y-91764475D01*
X168492715Y-91757500D01*
X168388136Y-91799393D01*
X168388136Y-91799393D01*
G37*
X168388136Y-91799393D02*
X168264085Y-91896142D01*
X168169877Y-92004345D01*
X168148000Y-92060870D01*
X168181065Y-92144847D01*
X168246851Y-92251370D01*
X168387555Y-92363639D01*
X168558808Y-92387303D01*
X168706800Y-92316300D01*
X168775502Y-92172056D01*
X168760177Y-92002107D01*
X168678007Y-91851298D01*
X168546171Y-91764475D01*
X168492715Y-91757500D01*
X168388136Y-91799393D01*
G36*
X135509000Y-73109667D02*
X158072666Y-73109667D01*
X158072666Y-70823667D01*
X157353000Y-70823667D01*
X157353000Y-72390000D01*
X153458333Y-72390000D01*
X153458333Y-70823667D01*
X152442333Y-70823667D01*
X152442333Y-72390000D01*
X148505333Y-72390000D01*
X148505333Y-71670333D01*
X148420909Y-71670333D01*
X148272621Y-71670333D01*
X148164956Y-71657635D01*
X148125287Y-71615536D01*
X148124333Y-71603729D01*
X148095603Y-71557336D01*
X148034259Y-71555327D01*
X147977569Y-71594286D01*
X147965265Y-71618311D01*
X147984033Y-71673705D01*
X148050680Y-71765222D01*
X148141260Y-71863290D01*
X148247969Y-71982302D01*
X148328278Y-72097336D01*
X148360288Y-72169312D01*
X148384856Y-72274194D01*
X148401707Y-72337083D01*
X148386881Y-72364342D01*
X148314958Y-72381065D01*
X148175337Y-72388891D01*
X148059505Y-72390000D01*
X147701000Y-72390000D01*
X147701000Y-72263000D01*
X147706487Y-72185015D01*
X147738237Y-72148005D01*
X147819186Y-72136740D01*
X147892243Y-72136000D01*
X148083487Y-72136000D01*
X147892243Y-71952756D01*
X147772940Y-71824662D01*
X147713573Y-71721106D01*
X147701000Y-71644676D01*
X147734386Y-71487871D01*
X147821685Y-71376858D01*
X147943605Y-71314889D01*
X148080856Y-71305216D01*
X148214148Y-71351088D01*
X148324189Y-71455758D01*
X148365112Y-71532750D01*
X148420909Y-71670333D01*
X148505333Y-71670333D01*
X148505333Y-70823667D01*
X146854333Y-70823667D01*
X146854333Y-72390000D01*
X142959666Y-72390000D01*
X142797060Y-72390000D01*
X142070666Y-72390000D01*
X142070666Y-72263000D01*
X142076153Y-72185015D01*
X142107904Y-72148005D01*
X142188852Y-72136740D01*
X142261910Y-72136000D01*
X142453153Y-72136000D01*
X142261910Y-71952756D01*
X142138308Y-71812470D01*
X141981578Y-71812470D01*
X141978361Y-71850250D01*
X141957521Y-71909789D01*
X141901622Y-71941427D01*
X141787639Y-71956767D01*
X141763750Y-71958403D01*
X141562666Y-71971305D01*
X141562666Y-72180653D01*
X141558107Y-72306760D01*
X141538798Y-72369322D01*
X141496293Y-72389225D01*
X141478000Y-72390000D01*
X141427216Y-72378856D01*
X141401889Y-72331554D01*
X141393695Y-72227291D01*
X141393333Y-72178333D01*
X141393333Y-71966667D01*
X141181666Y-71966667D01*
X141056044Y-71963235D01*
X140993375Y-71945724D01*
X140972005Y-71903307D01*
X140970000Y-71860833D01*
X140976862Y-71798022D01*
X141011885Y-71766687D01*
X141096720Y-71756002D01*
X141181666Y-71755000D01*
X141393333Y-71755000D01*
X141393333Y-71522167D01*
X141397008Y-71387613D01*
X141412897Y-71317517D01*
X141448296Y-71291816D01*
X141478000Y-71289333D01*
X141526929Y-71299439D01*
X141552418Y-71343134D01*
X141561763Y-71440482D01*
X141562666Y-71522167D01*
X141562666Y-71755000D01*
X141777277Y-71755000D01*
X141903419Y-71758240D01*
X141964879Y-71774252D01*
X141981578Y-71812470D01*
X142138308Y-71812470D01*
X142131391Y-71804620D01*
X142072734Y-71671270D01*
X142079682Y-71534842D01*
X142096963Y-71481730D01*
X142159845Y-71407470D01*
X142270568Y-71338846D01*
X142393466Y-71295451D01*
X142447204Y-71289333D01*
X142549822Y-71323368D01*
X142658394Y-71407929D01*
X142743319Y-71516700D01*
X142768598Y-71575083D01*
X142777845Y-71638384D01*
X142742227Y-71664989D01*
X142645019Y-71670333D01*
X142534308Y-71657095D01*
X142494490Y-71614583D01*
X142494000Y-71606833D01*
X142460113Y-71550709D01*
X142430500Y-71543333D01*
X142379606Y-71575058D01*
X142367226Y-71648944D01*
X142390905Y-71733053D01*
X142448190Y-71795452D01*
X142449946Y-71796412D01*
X142560544Y-71887865D01*
X142667243Y-72027501D01*
X142746257Y-72181203D01*
X142767894Y-72252417D01*
X142797060Y-72390000D01*
X142959666Y-72390000D01*
X142959666Y-70823667D01*
X140462000Y-70823667D01*
X140462000Y-71599778D01*
X140460529Y-71847981D01*
X140456442Y-72066434D01*
X140450225Y-72241254D01*
X140442367Y-72358554D01*
X140433778Y-72404111D01*
X140387121Y-72409653D01*
X140263970Y-72414834D01*
X140072498Y-72419547D01*
X139820876Y-72423684D01*
X139517278Y-72427137D01*
X139169876Y-72429798D01*
X138786841Y-72431559D01*
X138376347Y-72432313D01*
X138295944Y-72432333D01*
X136186333Y-72432333D01*
X136186333Y-70823667D01*
X140462000Y-70823667D01*
X142959666Y-70823667D01*
X146854333Y-70823667D01*
X148505333Y-70823667D01*
X152442333Y-70823667D01*
X153458333Y-70823667D01*
X157353000Y-70823667D01*
X158072666Y-70823667D01*
X158072666Y-61849000D01*
X157353000Y-61849000D01*
X157353000Y-70442667D01*
X136186333Y-70442667D01*
X136186333Y-61849000D01*
X157353000Y-61849000D01*
X158072666Y-61849000D01*
X158072666Y-61044667D01*
X135509000Y-61044667D01*
X135509000Y-73109667D01*
X135509000Y-73109667D01*
G37*
X135509000Y-73109667D02*
X158072666Y-73109667D01*
X158072666Y-70823667D01*
X157353000Y-70823667D01*
X157353000Y-72390000D01*
X153458333Y-72390000D01*
X153458333Y-70823667D01*
X152442333Y-70823667D01*
X152442333Y-72390000D01*
X148505333Y-72390000D01*
X148505333Y-71670333D01*
X148420909Y-71670333D01*
X148272621Y-71670333D01*
X148164956Y-71657635D01*
X148125287Y-71615536D01*
X148124333Y-71603729D01*
X148095603Y-71557336D01*
X148034259Y-71555327D01*
X147977569Y-71594286D01*
X147965265Y-71618311D01*
X147984033Y-71673705D01*
X148050680Y-71765222D01*
X148141260Y-71863290D01*
X148247969Y-71982302D01*
X148328278Y-72097336D01*
X148360288Y-72169312D01*
X148384856Y-72274194D01*
X148401707Y-72337083D01*
X148386881Y-72364342D01*
X148314958Y-72381065D01*
X148175337Y-72388891D01*
X148059505Y-72390000D01*
X147701000Y-72390000D01*
X147701000Y-72263000D01*
X147706487Y-72185015D01*
X147738237Y-72148005D01*
X147819186Y-72136740D01*
X147892243Y-72136000D01*
X148083487Y-72136000D01*
X147892243Y-71952756D01*
X147772940Y-71824662D01*
X147713573Y-71721106D01*
X147701000Y-71644676D01*
X147734386Y-71487871D01*
X147821685Y-71376858D01*
X147943605Y-71314889D01*
X148080856Y-71305216D01*
X148214148Y-71351088D01*
X148324189Y-71455758D01*
X148365112Y-71532750D01*
X148420909Y-71670333D01*
X148505333Y-71670333D01*
X148505333Y-70823667D01*
X146854333Y-70823667D01*
X146854333Y-72390000D01*
X142959666Y-72390000D01*
X142797060Y-72390000D01*
X142070666Y-72390000D01*
X142070666Y-72263000D01*
X142076153Y-72185015D01*
X142107904Y-72148005D01*
X142188852Y-72136740D01*
X142261910Y-72136000D01*
X142453153Y-72136000D01*
X142261910Y-71952756D01*
X142138308Y-71812470D01*
X141981578Y-71812470D01*
X141978361Y-71850250D01*
X141957521Y-71909789D01*
X141901622Y-71941427D01*
X141787639Y-71956767D01*
X141763750Y-71958403D01*
X141562666Y-71971305D01*
X141562666Y-72180653D01*
X141558107Y-72306760D01*
X141538798Y-72369322D01*
X141496293Y-72389225D01*
X141478000Y-72390000D01*
X141427216Y-72378856D01*
X141401889Y-72331554D01*
X141393695Y-72227291D01*
X141393333Y-72178333D01*
X141393333Y-71966667D01*
X141181666Y-71966667D01*
X141056044Y-71963235D01*
X140993375Y-71945724D01*
X140972005Y-71903307D01*
X140970000Y-71860833D01*
X140976862Y-71798022D01*
X141011885Y-71766687D01*
X141096720Y-71756002D01*
X141181666Y-71755000D01*
X141393333Y-71755000D01*
X141393333Y-71522167D01*
X141397008Y-71387613D01*
X141412897Y-71317517D01*
X141448296Y-71291816D01*
X141478000Y-71289333D01*
X141526929Y-71299439D01*
X141552418Y-71343134D01*
X141561763Y-71440482D01*
X141562666Y-71522167D01*
X141562666Y-71755000D01*
X141777277Y-71755000D01*
X141903419Y-71758240D01*
X141964879Y-71774252D01*
X141981578Y-71812470D01*
X142138308Y-71812470D01*
X142131391Y-71804620D01*
X142072734Y-71671270D01*
X142079682Y-71534842D01*
X142096963Y-71481730D01*
X142159845Y-71407470D01*
X142270568Y-71338846D01*
X142393466Y-71295451D01*
X142447204Y-71289333D01*
X142549822Y-71323368D01*
X142658394Y-71407929D01*
X142743319Y-71516700D01*
X142768598Y-71575083D01*
X142777845Y-71638384D01*
X142742227Y-71664989D01*
X142645019Y-71670333D01*
X142534308Y-71657095D01*
X142494490Y-71614583D01*
X142494000Y-71606833D01*
X142460113Y-71550709D01*
X142430500Y-71543333D01*
X142379606Y-71575058D01*
X142367226Y-71648944D01*
X142390905Y-71733053D01*
X142448190Y-71795452D01*
X142449946Y-71796412D01*
X142560544Y-71887865D01*
X142667243Y-72027501D01*
X142746257Y-72181203D01*
X142767894Y-72252417D01*
X142797060Y-72390000D01*
X142959666Y-72390000D01*
X142959666Y-70823667D01*
X140462000Y-70823667D01*
X140462000Y-71599778D01*
X140460529Y-71847981D01*
X140456442Y-72066434D01*
X140450225Y-72241254D01*
X140442367Y-72358554D01*
X140433778Y-72404111D01*
X140387121Y-72409653D01*
X140263970Y-72414834D01*
X140072498Y-72419547D01*
X139820876Y-72423684D01*
X139517278Y-72427137D01*
X139169876Y-72429798D01*
X138786841Y-72431559D01*
X138376347Y-72432313D01*
X138295944Y-72432333D01*
X136186333Y-72432333D01*
X136186333Y-70823667D01*
X140462000Y-70823667D01*
X142959666Y-70823667D01*
X146854333Y-70823667D01*
X148505333Y-70823667D01*
X152442333Y-70823667D01*
X153458333Y-70823667D01*
X157353000Y-70823667D01*
X158072666Y-70823667D01*
X158072666Y-61849000D01*
X157353000Y-61849000D01*
X157353000Y-70442667D01*
X136186333Y-70442667D01*
X136186333Y-61849000D01*
X157353000Y-61849000D01*
X158072666Y-61849000D01*
X158072666Y-61044667D01*
X135509000Y-61044667D01*
X135509000Y-73109667D01*
G36*
X136313333Y-72305333D02*
X137837333Y-72305333D01*
X137837333Y-71077667D01*
X137498666Y-71077667D01*
X137498666Y-72178333D01*
X137397362Y-72178333D01*
X137309008Y-72153357D01*
X137270362Y-72111371D01*
X137252461Y-72023585D01*
X137244677Y-71903905D01*
X137244666Y-71899704D01*
X137240401Y-71810788D01*
X137212247Y-71768683D01*
X137137164Y-71755888D01*
X137054166Y-71755000D01*
X136863666Y-71755000D01*
X136863666Y-71966667D01*
X136860235Y-72092289D01*
X136842724Y-72154958D01*
X136800307Y-72176328D01*
X136757833Y-72178333D01*
X136695245Y-72171557D01*
X136663882Y-72136857D01*
X136653068Y-72052675D01*
X136652000Y-71964636D01*
X136660053Y-71823797D01*
X136692844Y-71731636D01*
X136763322Y-71652990D01*
X136768416Y-71648474D01*
X136841761Y-71581082D01*
X136854447Y-71552209D01*
X136809901Y-71545048D01*
X136789583Y-71544671D01*
X136722856Y-71528901D01*
X136697248Y-71467869D01*
X136694622Y-71405750D01*
X136732841Y-71264621D01*
X136843088Y-71160656D01*
X137019747Y-71097252D01*
X137236703Y-71077667D01*
X137498666Y-71077667D01*
X137837333Y-71077667D01*
X137837333Y-70950667D01*
X136313333Y-70950667D01*
X136313333Y-72305333D01*
X136313333Y-72305333D01*
G37*
X136313333Y-72305333D02*
X137837333Y-72305333D01*
X137837333Y-71077667D01*
X137498666Y-71077667D01*
X137498666Y-72178333D01*
X137397362Y-72178333D01*
X137309008Y-72153357D01*
X137270362Y-72111371D01*
X137252461Y-72023585D01*
X137244677Y-71903905D01*
X137244666Y-71899704D01*
X137240401Y-71810788D01*
X137212247Y-71768683D01*
X137137164Y-71755888D01*
X137054166Y-71755000D01*
X136863666Y-71755000D01*
X136863666Y-71966667D01*
X136860235Y-72092289D01*
X136842724Y-72154958D01*
X136800307Y-72176328D01*
X136757833Y-72178333D01*
X136695245Y-72171557D01*
X136663882Y-72136857D01*
X136653068Y-72052675D01*
X136652000Y-71964636D01*
X136660053Y-71823797D01*
X136692844Y-71731636D01*
X136763322Y-71652990D01*
X136768416Y-71648474D01*
X136841761Y-71581082D01*
X136854447Y-71552209D01*
X136809901Y-71545048D01*
X136789583Y-71544671D01*
X136722856Y-71528901D01*
X136697248Y-71467869D01*
X136694622Y-71405750D01*
X136732841Y-71264621D01*
X136843088Y-71160656D01*
X137019747Y-71097252D01*
X137236703Y-71077667D01*
X137498666Y-71077667D01*
X137837333Y-71077667D01*
X137837333Y-70950667D01*
X136313333Y-70950667D01*
X136313333Y-72305333D01*
G36*
X139911666Y-71882000D02*
X139877378Y-71919557D01*
X139848166Y-71924333D01*
X139791831Y-71947192D01*
X139784666Y-71966667D01*
X139818955Y-72004224D01*
X139848166Y-72009000D01*
X139904291Y-72042886D01*
X139911666Y-72072500D01*
X139877780Y-72128624D01*
X139848166Y-72136000D01*
X139791831Y-72158859D01*
X139784666Y-72178333D01*
X139819434Y-72210776D01*
X139902119Y-72214205D01*
X139985750Y-72192630D01*
X140030787Y-72137465D01*
X140038666Y-72093667D01*
X140063458Y-72019578D01*
X140091205Y-71998542D01*
X140115517Y-71967956D01*
X140073062Y-71910348D01*
X139992485Y-71851854D01*
X139931437Y-71844720D01*
X139911666Y-71882000D01*
X139911666Y-71882000D01*
G37*
X139911666Y-71882000D02*
X139877378Y-71919557D01*
X139848166Y-71924333D01*
X139791831Y-71947192D01*
X139784666Y-71966667D01*
X139818955Y-72004224D01*
X139848166Y-72009000D01*
X139904291Y-72042886D01*
X139911666Y-72072500D01*
X139877780Y-72128624D01*
X139848166Y-72136000D01*
X139791831Y-72158859D01*
X139784666Y-72178333D01*
X139819434Y-72210776D01*
X139902119Y-72214205D01*
X139985750Y-72192630D01*
X140030787Y-72137465D01*
X140038666Y-72093667D01*
X140063458Y-72019578D01*
X140091205Y-71998542D01*
X140115517Y-71967956D01*
X140073062Y-71910348D01*
X139992485Y-71851854D01*
X139931437Y-71844720D01*
X139911666Y-71882000D01*
G36*
X139384211Y-71940332D02*
X139363772Y-72003361D01*
X139361333Y-72069396D01*
X139367630Y-72170108D01*
X139402706Y-72211959D01*
X139490840Y-72220635D01*
X139504316Y-72220667D01*
X139617475Y-72203487D01*
X139695958Y-72161874D01*
X139698312Y-72159200D01*
X139735582Y-72067229D01*
X139715295Y-71979957D01*
X139646597Y-71932299D01*
X139590845Y-71944103D01*
X139569695Y-72019692D01*
X139568780Y-72037646D01*
X139564519Y-72118766D01*
X139555003Y-72118626D01*
X139535174Y-72051555D01*
X139487509Y-71966487D01*
X139433560Y-71932035D01*
X139384211Y-71940332D01*
X139384211Y-71940332D01*
G37*
X139384211Y-71940332D02*
X139363772Y-72003361D01*
X139361333Y-72069396D01*
X139367630Y-72170108D01*
X139402706Y-72211959D01*
X139490840Y-72220635D01*
X139504316Y-72220667D01*
X139617475Y-72203487D01*
X139695958Y-72161874D01*
X139698312Y-72159200D01*
X139735582Y-72067229D01*
X139715295Y-71979957D01*
X139646597Y-71932299D01*
X139590845Y-71944103D01*
X139569695Y-72019692D01*
X139568780Y-72037646D01*
X139564519Y-72118766D01*
X139555003Y-72118626D01*
X139535174Y-72051555D01*
X139487509Y-71966487D01*
X139433560Y-71932035D01*
X139384211Y-71940332D01*
G36*
X139055126Y-71936394D02*
X139022666Y-71963855D01*
X139056910Y-72003890D01*
X139086166Y-72009000D01*
X139137238Y-72045800D01*
X139149666Y-72114833D01*
X139172453Y-72200880D01*
X139215849Y-72220667D01*
X139261506Y-72196728D01*
X139271113Y-72113721D01*
X139268765Y-72083083D01*
X139246657Y-71984331D01*
X139190508Y-71941595D01*
X139139083Y-71932105D01*
X139055126Y-71936394D01*
X139055126Y-71936394D01*
G37*
X139055126Y-71936394D02*
X139022666Y-71963855D01*
X139056910Y-72003890D01*
X139086166Y-72009000D01*
X139137238Y-72045800D01*
X139149666Y-72114833D01*
X139172453Y-72200880D01*
X139215849Y-72220667D01*
X139261506Y-72196728D01*
X139271113Y-72113721D01*
X139268765Y-72083083D01*
X139246657Y-71984331D01*
X139190508Y-71941595D01*
X139139083Y-71932105D01*
X139055126Y-71936394D01*
G36*
X138860497Y-71862525D02*
X138853333Y-71882000D01*
X138817025Y-71913533D01*
X138744818Y-71924333D01*
X138671170Y-71934238D01*
X138646302Y-71981042D01*
X138649568Y-72061917D01*
X138667019Y-72153427D01*
X138713619Y-72195561D01*
X138816649Y-72212225D01*
X138821583Y-72212639D01*
X138980333Y-72225777D01*
X138980333Y-72072500D01*
X138853333Y-72072500D01*
X138830474Y-72128836D01*
X138811000Y-72136000D01*
X138773443Y-72101712D01*
X138768666Y-72072500D01*
X138791525Y-72016164D01*
X138811000Y-72009000D01*
X138848557Y-72043288D01*
X138853333Y-72072500D01*
X138980333Y-72072500D01*
X138980333Y-72032722D01*
X138972234Y-71906236D01*
X138944628Y-71848062D01*
X138916833Y-71839667D01*
X138860497Y-71862525D01*
X138860497Y-71862525D01*
G37*
X138860497Y-71862525D02*
X138853333Y-71882000D01*
X138817025Y-71913533D01*
X138744818Y-71924333D01*
X138671170Y-71934238D01*
X138646302Y-71981042D01*
X138649568Y-72061917D01*
X138667019Y-72153427D01*
X138713619Y-72195561D01*
X138816649Y-72212225D01*
X138821583Y-72212639D01*
X138980333Y-72225777D01*
X138980333Y-72072500D01*
X138853333Y-72072500D01*
X138830474Y-72128836D01*
X138811000Y-72136000D01*
X138773443Y-72101712D01*
X138768666Y-72072500D01*
X138791525Y-72016164D01*
X138811000Y-72009000D01*
X138848557Y-72043288D01*
X138853333Y-72072500D01*
X138980333Y-72072500D01*
X138980333Y-72032722D01*
X138972234Y-71906236D01*
X138944628Y-71848062D01*
X138916833Y-71839667D01*
X138860497Y-71862525D01*
G36*
X138373465Y-71932504D02*
X138279730Y-71952183D01*
X138244074Y-72004124D01*
X138239500Y-72072500D01*
X138252807Y-72165857D01*
X138307493Y-72205031D01*
X138348957Y-72212223D01*
X138451533Y-72199216D01*
X138511204Y-72161338D01*
X138542824Y-72069578D01*
X138540833Y-72052512D01*
X138419708Y-72052512D01*
X138405322Y-72099348D01*
X138372858Y-72131402D01*
X138354340Y-72099519D01*
X138354023Y-72033431D01*
X138362090Y-72020465D01*
X138402803Y-72010601D01*
X138419708Y-72052512D01*
X138540833Y-72052512D01*
X138535712Y-72008619D01*
X138495223Y-71945702D01*
X138412592Y-71929873D01*
X138373465Y-71932504D01*
X138373465Y-71932504D01*
G37*
X138373465Y-71932504D02*
X138279730Y-71952183D01*
X138244074Y-72004124D01*
X138239500Y-72072500D01*
X138252807Y-72165857D01*
X138307493Y-72205031D01*
X138348957Y-72212223D01*
X138451533Y-72199216D01*
X138511204Y-72161338D01*
X138542824Y-72069578D01*
X138540833Y-72052512D01*
X138419708Y-72052512D01*
X138405322Y-72099348D01*
X138372858Y-72131402D01*
X138354340Y-72099519D01*
X138354023Y-72033431D01*
X138362090Y-72020465D01*
X138402803Y-72010601D01*
X138419708Y-72052512D01*
X138540833Y-72052512D01*
X138535712Y-72008619D01*
X138495223Y-71945702D01*
X138412592Y-71929873D01*
X138373465Y-71932504D01*
G36*
X138266769Y-71088360D02*
X138260666Y-71104420D01*
X138280991Y-71154425D01*
X138331454Y-71245230D01*
X138347868Y-71272268D01*
X138435070Y-71413364D01*
X138325753Y-71573598D01*
X138216436Y-71733833D01*
X138309496Y-71748336D01*
X138414023Y-71724935D01*
X138471122Y-71671939D01*
X138539689Y-71581038D01*
X138618405Y-71668019D01*
X138690908Y-71722465D01*
X138773924Y-71754057D01*
X138837124Y-71754582D01*
X138853333Y-71731637D01*
X138834021Y-71683909D01*
X138785366Y-71591075D01*
X138759738Y-71545649D01*
X138704139Y-71437167D01*
X138693410Y-71369446D01*
X138722588Y-71315012D01*
X138795251Y-71274362D01*
X138910218Y-71251020D01*
X139034130Y-71246896D01*
X139133623Y-71263901D01*
X139170833Y-71289333D01*
X139154499Y-71319500D01*
X139072761Y-71331661D01*
X139070522Y-71331667D01*
X138947303Y-71358375D01*
X138851450Y-71425209D01*
X138811064Y-71512236D01*
X138811000Y-71515771D01*
X138833651Y-71586553D01*
X138876900Y-71660914D01*
X138926222Y-71713706D01*
X138996423Y-71742324D01*
X139112011Y-71753646D01*
X139212039Y-71755000D01*
X139359415Y-71752552D01*
X139444645Y-71739575D01*
X139490228Y-71707624D01*
X139518660Y-71648252D01*
X139522093Y-71638583D01*
X139562908Y-71522167D01*
X139609239Y-71638583D01*
X139669422Y-71726825D01*
X139740253Y-71751683D01*
X139798954Y-71709637D01*
X139814734Y-71670333D01*
X139846148Y-71601755D01*
X139869333Y-71585667D01*
X139904819Y-71620829D01*
X139923933Y-71670333D01*
X139972872Y-71738885D01*
X140047021Y-71755522D01*
X140088356Y-71733533D01*
X140088373Y-71685384D01*
X140069073Y-71577154D01*
X140034430Y-71430161D01*
X140025179Y-71394866D01*
X139975747Y-71226617D01*
X139933412Y-71127595D01*
X139890927Y-71083586D01*
X139863408Y-71077667D01*
X139791661Y-71116451D01*
X139758159Y-71189708D01*
X139730038Y-71301750D01*
X139669980Y-71187125D01*
X139601101Y-71098782D01*
X139533030Y-71093596D01*
X139468622Y-71170084D01*
X139412300Y-71321083D01*
X139350490Y-71543333D01*
X139175995Y-71536990D01*
X139078090Y-71531821D01*
X139060251Y-71524845D01*
X139117881Y-71513651D01*
X139128500Y-71512078D01*
X139269775Y-71471615D01*
X139342938Y-71394319D01*
X139361333Y-71285639D01*
X139339501Y-71184542D01*
X139266765Y-71119909D01*
X139132268Y-71086185D01*
X138954700Y-71077667D01*
X138768074Y-71091430D01*
X138651632Y-71134197D01*
X138634417Y-71147728D01*
X138569908Y-71194553D01*
X138517330Y-71179686D01*
X138479583Y-71147728D01*
X138401214Y-71099076D01*
X138319715Y-71077197D01*
X138266769Y-71088360D01*
X138266769Y-71088360D01*
G37*
X138266769Y-71088360D02*
X138260666Y-71104420D01*
X138280991Y-71154425D01*
X138331454Y-71245230D01*
X138347868Y-71272268D01*
X138435070Y-71413364D01*
X138325753Y-71573598D01*
X138216436Y-71733833D01*
X138309496Y-71748336D01*
X138414023Y-71724935D01*
X138471122Y-71671939D01*
X138539689Y-71581038D01*
X138618405Y-71668019D01*
X138690908Y-71722465D01*
X138773924Y-71754057D01*
X138837124Y-71754582D01*
X138853333Y-71731637D01*
X138834021Y-71683909D01*
X138785366Y-71591075D01*
X138759738Y-71545649D01*
X138704139Y-71437167D01*
X138693410Y-71369446D01*
X138722588Y-71315012D01*
X138795251Y-71274362D01*
X138910218Y-71251020D01*
X139034130Y-71246896D01*
X139133623Y-71263901D01*
X139170833Y-71289333D01*
X139154499Y-71319500D01*
X139072761Y-71331661D01*
X139070522Y-71331667D01*
X138947303Y-71358375D01*
X138851450Y-71425209D01*
X138811064Y-71512236D01*
X138811000Y-71515771D01*
X138833651Y-71586553D01*
X138876900Y-71660914D01*
X138926222Y-71713706D01*
X138996423Y-71742324D01*
X139112011Y-71753646D01*
X139212039Y-71755000D01*
X139359415Y-71752552D01*
X139444645Y-71739575D01*
X139490228Y-71707624D01*
X139518660Y-71648252D01*
X139522093Y-71638583D01*
X139562908Y-71522167D01*
X139609239Y-71638583D01*
X139669422Y-71726825D01*
X139740253Y-71751683D01*
X139798954Y-71709637D01*
X139814734Y-71670333D01*
X139846148Y-71601755D01*
X139869333Y-71585667D01*
X139904819Y-71620829D01*
X139923933Y-71670333D01*
X139972872Y-71738885D01*
X140047021Y-71755522D01*
X140088356Y-71733533D01*
X140088373Y-71685384D01*
X140069073Y-71577154D01*
X140034430Y-71430161D01*
X140025179Y-71394866D01*
X139975747Y-71226617D01*
X139933412Y-71127595D01*
X139890927Y-71083586D01*
X139863408Y-71077667D01*
X139791661Y-71116451D01*
X139758159Y-71189708D01*
X139730038Y-71301750D01*
X139669980Y-71187125D01*
X139601101Y-71098782D01*
X139533030Y-71093596D01*
X139468622Y-71170084D01*
X139412300Y-71321083D01*
X139350490Y-71543333D01*
X139175995Y-71536990D01*
X139078090Y-71531821D01*
X139060251Y-71524845D01*
X139117881Y-71513651D01*
X139128500Y-71512078D01*
X139269775Y-71471615D01*
X139342938Y-71394319D01*
X139361333Y-71285639D01*
X139339501Y-71184542D01*
X139266765Y-71119909D01*
X139132268Y-71086185D01*
X138954700Y-71077667D01*
X138768074Y-71091430D01*
X138651632Y-71134197D01*
X138634417Y-71147728D01*
X138569908Y-71194553D01*
X138517330Y-71179686D01*
X138479583Y-71147728D01*
X138401214Y-71099076D01*
X138319715Y-71077197D01*
X138266769Y-71088360D01*
G36*
X156637132Y-71043787D02*
X156524623Y-71067890D01*
X156474643Y-71122662D01*
X156469827Y-71141167D01*
X156441420Y-71247523D01*
X156411954Y-71331667D01*
X156385694Y-71388838D01*
X156364524Y-71390764D01*
X156338127Y-71327809D01*
X156309948Y-71236417D01*
X156269295Y-71116142D01*
X156227484Y-71056773D01*
X156163039Y-71037023D01*
X156107108Y-71035333D01*
X156022448Y-71040768D01*
X155972872Y-71071021D01*
X155939505Y-71147013D01*
X155912773Y-71250725D01*
X155861101Y-71466118D01*
X155838812Y-71416333D01*
X155490333Y-71416333D01*
X155452040Y-71439434D01*
X155353187Y-71454810D01*
X155255576Y-71458667D01*
X155047991Y-71485107D01*
X154905972Y-71564820D01*
X154828808Y-71698396D01*
X154813000Y-71825042D01*
X154810594Y-71910255D01*
X154796313Y-71941911D01*
X154759562Y-71915702D01*
X154689745Y-71827322D01*
X154634855Y-71752627D01*
X154568590Y-71655301D01*
X154549170Y-71591211D01*
X154571422Y-71526789D01*
X154594079Y-71488043D01*
X154629526Y-71435693D01*
X154671225Y-71402454D01*
X154737530Y-71383988D01*
X154846798Y-71375961D01*
X155017381Y-71374036D01*
X155076805Y-71374000D01*
X155270260Y-71378114D01*
X155409707Y-71389599D01*
X155482588Y-71407168D01*
X155490333Y-71416333D01*
X155838812Y-71416333D01*
X155785149Y-71296474D01*
X155718574Y-71180017D01*
X155644712Y-71095579D01*
X155623715Y-71081082D01*
X155547959Y-71062833D01*
X155406413Y-71048182D01*
X155217928Y-71038548D01*
X155015410Y-71035333D01*
X154492588Y-71035333D01*
X154413671Y-71168930D01*
X154334753Y-71302526D01*
X154223359Y-71166040D01*
X154139369Y-71077842D01*
X154056427Y-71042802D01*
X153933311Y-71043027D01*
X153754658Y-71056500D01*
X153923861Y-71310500D01*
X154006989Y-71439805D01*
X154067404Y-71542393D01*
X154093014Y-71597625D01*
X154093198Y-71599503D01*
X154070244Y-71649220D01*
X154009898Y-71746124D01*
X153925157Y-71869361D01*
X153924000Y-71870978D01*
X153839006Y-71994491D01*
X153778224Y-72092016D01*
X153754670Y-72142654D01*
X153754666Y-72142891D01*
X153792488Y-72164143D01*
X153888050Y-72176794D01*
X153942773Y-72178333D01*
X154067717Y-72170366D01*
X154142880Y-72135447D01*
X154202501Y-72057050D01*
X154205901Y-72051333D01*
X154263895Y-71966405D01*
X154307470Y-71925097D01*
X154311245Y-71924333D01*
X154353301Y-71955520D01*
X154418206Y-72032436D01*
X154432000Y-72051333D01*
X154504567Y-72133838D01*
X154588897Y-72170479D01*
X154710049Y-72178333D01*
X154839013Y-72170350D01*
X154891256Y-72142164D01*
X154873584Y-72087420D01*
X154844750Y-72052554D01*
X154838669Y-72036580D01*
X154887745Y-72067164D01*
X154913959Y-72086421D01*
X154976805Y-72127109D01*
X155048538Y-72153768D01*
X155147928Y-72169274D01*
X155293745Y-72176503D01*
X155504759Y-72178332D01*
X155513681Y-72178333D01*
X155991278Y-72178333D01*
X156052353Y-71998417D01*
X156113429Y-71818500D01*
X156167380Y-71994961D01*
X156232874Y-72136747D01*
X156310915Y-72195466D01*
X156399789Y-72216150D01*
X156449717Y-72211336D01*
X156489615Y-72188268D01*
X156531341Y-72130965D01*
X156578448Y-72025849D01*
X156591781Y-71987833D01*
X156647164Y-71818500D01*
X156707277Y-71998417D01*
X156749885Y-72109789D01*
X156797589Y-72162057D01*
X156878903Y-72177481D01*
X156937723Y-72178333D01*
X157052588Y-72168683D01*
X157091105Y-72138271D01*
X157088946Y-72125417D01*
X157071101Y-72066143D01*
X157036201Y-71942579D01*
X156989118Y-71772214D01*
X156934724Y-71572535D01*
X156932081Y-71562759D01*
X155815374Y-71562759D01*
X155798702Y-71664404D01*
X155787817Y-71708393D01*
X155741070Y-71882000D01*
X155499285Y-71879024D01*
X155349840Y-71871618D01*
X155224797Y-71855774D01*
X155172833Y-71842518D01*
X155148188Y-71821369D01*
X155193848Y-71802063D01*
X155316235Y-71782314D01*
X155355243Y-71777548D01*
X155551187Y-71736079D01*
X155695407Y-71667839D01*
X155775043Y-71580258D01*
X155786666Y-71528295D01*
X155803660Y-71505674D01*
X155810616Y-71510838D01*
X155815374Y-71562759D01*
X156932081Y-71562759D01*
X156929114Y-71551787D01*
X156788393Y-71031073D01*
X156637132Y-71043787D01*
X156637132Y-71043787D01*
G37*
X156637132Y-71043787D02*
X156524623Y-71067890D01*
X156474643Y-71122662D01*
X156469827Y-71141167D01*
X156441420Y-71247523D01*
X156411954Y-71331667D01*
X156385694Y-71388838D01*
X156364524Y-71390764D01*
X156338127Y-71327809D01*
X156309948Y-71236417D01*
X156269295Y-71116142D01*
X156227484Y-71056773D01*
X156163039Y-71037023D01*
X156107108Y-71035333D01*
X156022448Y-71040768D01*
X155972872Y-71071021D01*
X155939505Y-71147013D01*
X155912773Y-71250725D01*
X155861101Y-71466118D01*
X155838812Y-71416333D01*
X155490333Y-71416333D01*
X155452040Y-71439434D01*
X155353187Y-71454810D01*
X155255576Y-71458667D01*
X155047991Y-71485107D01*
X154905972Y-71564820D01*
X154828808Y-71698396D01*
X154813000Y-71825042D01*
X154810594Y-71910255D01*
X154796313Y-71941911D01*
X154759562Y-71915702D01*
X154689745Y-71827322D01*
X154634855Y-71752627D01*
X154568590Y-71655301D01*
X154549170Y-71591211D01*
X154571422Y-71526789D01*
X154594079Y-71488043D01*
X154629526Y-71435693D01*
X154671225Y-71402454D01*
X154737530Y-71383988D01*
X154846798Y-71375961D01*
X155017381Y-71374036D01*
X155076805Y-71374000D01*
X155270260Y-71378114D01*
X155409707Y-71389599D01*
X155482588Y-71407168D01*
X155490333Y-71416333D01*
X155838812Y-71416333D01*
X155785149Y-71296474D01*
X155718574Y-71180017D01*
X155644712Y-71095579D01*
X155623715Y-71081082D01*
X155547959Y-71062833D01*
X155406413Y-71048182D01*
X155217928Y-71038548D01*
X155015410Y-71035333D01*
X154492588Y-71035333D01*
X154413671Y-71168930D01*
X154334753Y-71302526D01*
X154223359Y-71166040D01*
X154139369Y-71077842D01*
X154056427Y-71042802D01*
X153933311Y-71043027D01*
X153754658Y-71056500D01*
X153923861Y-71310500D01*
X154006989Y-71439805D01*
X154067404Y-71542393D01*
X154093014Y-71597625D01*
X154093198Y-71599503D01*
X154070244Y-71649220D01*
X154009898Y-71746124D01*
X153925157Y-71869361D01*
X153924000Y-71870978D01*
X153839006Y-71994491D01*
X153778224Y-72092016D01*
X153754670Y-72142654D01*
X153754666Y-72142891D01*
X153792488Y-72164143D01*
X153888050Y-72176794D01*
X153942773Y-72178333D01*
X154067717Y-72170366D01*
X154142880Y-72135447D01*
X154202501Y-72057050D01*
X154205901Y-72051333D01*
X154263895Y-71966405D01*
X154307470Y-71925097D01*
X154311245Y-71924333D01*
X154353301Y-71955520D01*
X154418206Y-72032436D01*
X154432000Y-72051333D01*
X154504567Y-72133838D01*
X154588897Y-72170479D01*
X154710049Y-72178333D01*
X154839013Y-72170350D01*
X154891256Y-72142164D01*
X154873584Y-72087420D01*
X154844750Y-72052554D01*
X154838669Y-72036580D01*
X154887745Y-72067164D01*
X154913959Y-72086421D01*
X154976805Y-72127109D01*
X155048538Y-72153768D01*
X155147928Y-72169274D01*
X155293745Y-72176503D01*
X155504759Y-72178332D01*
X155513681Y-72178333D01*
X155991278Y-72178333D01*
X156052353Y-71998417D01*
X156113429Y-71818500D01*
X156167380Y-71994961D01*
X156232874Y-72136747D01*
X156310915Y-72195466D01*
X156399789Y-72216150D01*
X156449717Y-72211336D01*
X156489615Y-72188268D01*
X156531341Y-72130965D01*
X156578448Y-72025849D01*
X156591781Y-71987833D01*
X156647164Y-71818500D01*
X156707277Y-71998417D01*
X156749885Y-72109789D01*
X156797589Y-72162057D01*
X156878903Y-72177481D01*
X156937723Y-72178333D01*
X157052588Y-72168683D01*
X157091105Y-72138271D01*
X157088946Y-72125417D01*
X157071101Y-72066143D01*
X157036201Y-71942579D01*
X156989118Y-71772214D01*
X156934724Y-71572535D01*
X156932081Y-71562759D01*
X155815374Y-71562759D01*
X155798702Y-71664404D01*
X155787817Y-71708393D01*
X155741070Y-71882000D01*
X155499285Y-71879024D01*
X155349840Y-71871618D01*
X155224797Y-71855774D01*
X155172833Y-71842518D01*
X155148188Y-71821369D01*
X155193848Y-71802063D01*
X155316235Y-71782314D01*
X155355243Y-71777548D01*
X155551187Y-71736079D01*
X155695407Y-71667839D01*
X155775043Y-71580258D01*
X155786666Y-71528295D01*
X155803660Y-71505674D01*
X155810616Y-71510838D01*
X155815374Y-71562759D01*
X156932081Y-71562759D01*
X156929114Y-71551787D01*
X156788393Y-71031073D01*
X156637132Y-71043787D01*
G36*
X151686757Y-71043716D02*
X151592204Y-71058751D01*
X151538670Y-71098981D01*
X151502663Y-71188305D01*
X151486912Y-71247000D01*
X151456234Y-71359129D01*
X151435128Y-71398401D01*
X151413329Y-71374271D01*
X151394984Y-71331667D01*
X151355276Y-71217089D01*
X151335840Y-71141167D01*
X151297901Y-71077755D01*
X151202456Y-71047464D01*
X151167584Y-71043730D01*
X151015372Y-71030960D01*
X150915260Y-71419273D01*
X150856440Y-71627916D01*
X150798236Y-71765344D01*
X150726008Y-71843626D01*
X150625116Y-71874827D01*
X150480921Y-71871014D01*
X150381886Y-71858916D01*
X150135166Y-71825251D01*
X150346255Y-71792204D01*
X150533612Y-71760081D01*
X150656244Y-71728693D01*
X150733557Y-71689280D01*
X150784960Y-71633078D01*
X150815175Y-71580494D01*
X150860440Y-71416905D01*
X150858309Y-71408265D01*
X150516319Y-71408265D01*
X150516166Y-71416333D01*
X150461964Y-71440798D01*
X150352884Y-71456087D01*
X150278911Y-71458667D01*
X150081654Y-71487998D01*
X149945140Y-71574589D01*
X149871772Y-71716331D01*
X149859059Y-71827159D01*
X149858117Y-71987833D01*
X149776300Y-71882000D01*
X149698573Y-71771928D01*
X149643088Y-71680917D01*
X149613425Y-71587449D01*
X149642739Y-71490510D01*
X149648333Y-71479833D01*
X149678526Y-71431446D01*
X149718334Y-71400623D01*
X149785504Y-71383414D01*
X149897784Y-71375867D01*
X150072921Y-71374030D01*
X150123652Y-71374000D01*
X150329200Y-71377981D01*
X150461705Y-71389577D01*
X150516319Y-71408265D01*
X150858309Y-71408265D01*
X150821959Y-71260944D01*
X150728036Y-71137521D01*
X150681427Y-71095417D01*
X150630103Y-71066802D01*
X150557675Y-71049083D01*
X150447753Y-71039662D01*
X150283949Y-71035946D01*
X150082718Y-71035333D01*
X149539588Y-71035333D01*
X149460671Y-71168930D01*
X149381753Y-71302526D01*
X149270359Y-71166040D01*
X149186369Y-71077842D01*
X149103427Y-71042802D01*
X148980311Y-71043027D01*
X148801658Y-71056500D01*
X148970861Y-71310500D01*
X149053804Y-71438450D01*
X149114179Y-71538143D01*
X149139981Y-71589671D01*
X149140198Y-71591328D01*
X149117921Y-71636483D01*
X149058652Y-71732515D01*
X148973940Y-71860929D01*
X148948552Y-71898244D01*
X148756771Y-72178333D01*
X148961758Y-72178333D01*
X149094145Y-72171225D01*
X149177883Y-72139421D01*
X149248514Y-72067196D01*
X149266373Y-72043578D01*
X149366002Y-71908823D01*
X149478500Y-72043578D01*
X149572230Y-72135325D01*
X149673363Y-72172966D01*
X149767833Y-72178333D01*
X149892327Y-72169604D01*
X149939614Y-72139368D01*
X149915734Y-72081552D01*
X149891750Y-72053750D01*
X149886753Y-72038452D01*
X149937577Y-72068157D01*
X149967635Y-72089085D01*
X150031425Y-72129318D01*
X150100433Y-72155092D01*
X150193522Y-72168884D01*
X150329556Y-72173172D01*
X150527398Y-72170433D01*
X150577724Y-72169218D01*
X151059011Y-72157167D01*
X151106528Y-71987833D01*
X151142385Y-71886602D01*
X151173837Y-71864941D01*
X151204937Y-71924529D01*
X151234218Y-72040750D01*
X151261761Y-72130564D01*
X151311606Y-72169432D01*
X151413255Y-72178292D01*
X151428065Y-72178333D01*
X151531832Y-72172623D01*
X151588376Y-72140349D01*
X151624719Y-72058801D01*
X151642114Y-71998417D01*
X151691825Y-71818500D01*
X151753107Y-71998417D01*
X151796639Y-72109847D01*
X151844844Y-72162139D01*
X151925783Y-72177526D01*
X151980194Y-72178333D01*
X152084969Y-72173096D01*
X152142320Y-72160046D01*
X152146000Y-72155204D01*
X152135191Y-72108102D01*
X152105573Y-71995202D01*
X152061356Y-71832181D01*
X152006753Y-71634719D01*
X151991887Y-71581503D01*
X151837774Y-71030931D01*
X151686757Y-71043716D01*
X151686757Y-71043716D01*
G37*
X151686757Y-71043716D02*
X151592204Y-71058751D01*
X151538670Y-71098981D01*
X151502663Y-71188305D01*
X151486912Y-71247000D01*
X151456234Y-71359129D01*
X151435128Y-71398401D01*
X151413329Y-71374271D01*
X151394984Y-71331667D01*
X151355276Y-71217089D01*
X151335840Y-71141167D01*
X151297901Y-71077755D01*
X151202456Y-71047464D01*
X151167584Y-71043730D01*
X151015372Y-71030960D01*
X150915260Y-71419273D01*
X150856440Y-71627916D01*
X150798236Y-71765344D01*
X150726008Y-71843626D01*
X150625116Y-71874827D01*
X150480921Y-71871014D01*
X150381886Y-71858916D01*
X150135166Y-71825251D01*
X150346255Y-71792204D01*
X150533612Y-71760081D01*
X150656244Y-71728693D01*
X150733557Y-71689280D01*
X150784960Y-71633078D01*
X150815175Y-71580494D01*
X150860440Y-71416905D01*
X150858309Y-71408265D01*
X150516319Y-71408265D01*
X150516166Y-71416333D01*
X150461964Y-71440798D01*
X150352884Y-71456087D01*
X150278911Y-71458667D01*
X150081654Y-71487998D01*
X149945140Y-71574589D01*
X149871772Y-71716331D01*
X149859059Y-71827159D01*
X149858117Y-71987833D01*
X149776300Y-71882000D01*
X149698573Y-71771928D01*
X149643088Y-71680917D01*
X149613425Y-71587449D01*
X149642739Y-71490510D01*
X149648333Y-71479833D01*
X149678526Y-71431446D01*
X149718334Y-71400623D01*
X149785504Y-71383414D01*
X149897784Y-71375867D01*
X150072921Y-71374030D01*
X150123652Y-71374000D01*
X150329200Y-71377981D01*
X150461705Y-71389577D01*
X150516319Y-71408265D01*
X150858309Y-71408265D01*
X150821959Y-71260944D01*
X150728036Y-71137521D01*
X150681427Y-71095417D01*
X150630103Y-71066802D01*
X150557675Y-71049083D01*
X150447753Y-71039662D01*
X150283949Y-71035946D01*
X150082718Y-71035333D01*
X149539588Y-71035333D01*
X149460671Y-71168930D01*
X149381753Y-71302526D01*
X149270359Y-71166040D01*
X149186369Y-71077842D01*
X149103427Y-71042802D01*
X148980311Y-71043027D01*
X148801658Y-71056500D01*
X148970861Y-71310500D01*
X149053804Y-71438450D01*
X149114179Y-71538143D01*
X149139981Y-71589671D01*
X149140198Y-71591328D01*
X149117921Y-71636483D01*
X149058652Y-71732515D01*
X148973940Y-71860929D01*
X148948552Y-71898244D01*
X148756771Y-72178333D01*
X148961758Y-72178333D01*
X149094145Y-72171225D01*
X149177883Y-72139421D01*
X149248514Y-72067196D01*
X149266373Y-72043578D01*
X149366002Y-71908823D01*
X149478500Y-72043578D01*
X149572230Y-72135325D01*
X149673363Y-72172966D01*
X149767833Y-72178333D01*
X149892327Y-72169604D01*
X149939614Y-72139368D01*
X149915734Y-72081552D01*
X149891750Y-72053750D01*
X149886753Y-72038452D01*
X149937577Y-72068157D01*
X149967635Y-72089085D01*
X150031425Y-72129318D01*
X150100433Y-72155092D01*
X150193522Y-72168884D01*
X150329556Y-72173172D01*
X150527398Y-72170433D01*
X150577724Y-72169218D01*
X151059011Y-72157167D01*
X151106528Y-71987833D01*
X151142385Y-71886602D01*
X151173837Y-71864941D01*
X151204937Y-71924529D01*
X151234218Y-72040750D01*
X151261761Y-72130564D01*
X151311606Y-72169432D01*
X151413255Y-72178292D01*
X151428065Y-72178333D01*
X151531832Y-72172623D01*
X151588376Y-72140349D01*
X151624719Y-72058801D01*
X151642114Y-71998417D01*
X151691825Y-71818500D01*
X151753107Y-71998417D01*
X151796639Y-72109847D01*
X151844844Y-72162139D01*
X151925783Y-72177526D01*
X151980194Y-72178333D01*
X152084969Y-72173096D01*
X152142320Y-72160046D01*
X152146000Y-72155204D01*
X152135191Y-72108102D01*
X152105573Y-71995202D01*
X152061356Y-71832181D01*
X152006753Y-71634719D01*
X151991887Y-71581503D01*
X151837774Y-71030931D01*
X151686757Y-71043716D01*
G36*
X145372608Y-71395384D02*
X145315196Y-71603522D01*
X145266818Y-71742460D01*
X145214212Y-71824677D01*
X145144114Y-71862651D01*
X145043262Y-71868859D01*
X144898392Y-71855780D01*
X144884822Y-71854309D01*
X144589500Y-71822299D01*
X144850341Y-71778066D01*
X145059121Y-71726976D01*
X145194810Y-71652286D01*
X145267660Y-71545327D01*
X145287910Y-71408454D01*
X144970795Y-71408454D01*
X144970500Y-71416333D01*
X144916297Y-71440798D01*
X144807217Y-71456087D01*
X144733244Y-71458667D01*
X144537024Y-71488235D01*
X144399812Y-71574355D01*
X144326150Y-71713148D01*
X144314333Y-71816576D01*
X144309578Y-71915333D01*
X144297869Y-71965201D01*
X144295200Y-71966667D01*
X144262553Y-71934874D01*
X144199522Y-71853348D01*
X144150910Y-71784757D01*
X144079305Y-71675578D01*
X144051694Y-71606051D01*
X144062610Y-71547111D01*
X144095182Y-71488424D01*
X144130574Y-71436034D01*
X144172054Y-71402711D01*
X144237909Y-71384146D01*
X144346424Y-71376026D01*
X144515888Y-71374043D01*
X144580637Y-71374000D01*
X144785314Y-71378005D01*
X144916995Y-71389667D01*
X144970795Y-71408454D01*
X145287910Y-71408454D01*
X145288000Y-71407848D01*
X145261886Y-71251691D01*
X145184091Y-71139242D01*
X145137039Y-71096456D01*
X145085968Y-71067374D01*
X145014456Y-71049358D01*
X144906078Y-71039772D01*
X144744411Y-71035977D01*
X144537051Y-71035333D01*
X143993921Y-71035333D01*
X143915004Y-71168930D01*
X143836086Y-71302526D01*
X143724692Y-71166040D01*
X143640702Y-71077842D01*
X143557760Y-71042802D01*
X143434645Y-71043027D01*
X143255991Y-71056500D01*
X143425194Y-71310500D01*
X143508366Y-71440130D01*
X143568791Y-71543414D01*
X143594355Y-71599535D01*
X143594532Y-71601457D01*
X143571525Y-71651272D01*
X143510442Y-71749957D01*
X143423399Y-71878196D01*
X143402028Y-71908374D01*
X143209389Y-72178333D01*
X143412611Y-72178044D01*
X143542139Y-72171364D01*
X143622909Y-72140157D01*
X143690532Y-72066968D01*
X143717382Y-72028649D01*
X143818930Y-71879543D01*
X143925226Y-72028938D01*
X144005537Y-72125726D01*
X144087510Y-72168542D01*
X144211808Y-72178330D01*
X144215261Y-72178333D01*
X144342758Y-72170032D01*
X144393226Y-72141082D01*
X144373037Y-72085416D01*
X144346083Y-72053750D01*
X144341010Y-72037477D01*
X144392430Y-72065656D01*
X144420166Y-72084167D01*
X144501320Y-72127459D01*
X144609836Y-72158535D01*
X144764392Y-72181118D01*
X144983666Y-72198934D01*
X145001330Y-72200062D01*
X145200846Y-72213613D01*
X145333536Y-72218431D01*
X145417244Y-72205931D01*
X145469811Y-72167528D01*
X145509079Y-72094638D01*
X145552889Y-71978677D01*
X145573127Y-71924945D01*
X145599990Y-71863569D01*
X145621023Y-71862074D01*
X145648831Y-71928847D01*
X145668561Y-71988445D01*
X145724924Y-72128781D01*
X145789644Y-72198381D01*
X145882419Y-72210412D01*
X145973116Y-72192024D01*
X146030687Y-72141007D01*
X146072184Y-72043369D01*
X146073344Y-72038185D01*
X146107195Y-71909174D01*
X146138109Y-71862967D01*
X146170072Y-71897983D01*
X146200317Y-71987833D01*
X146237403Y-72096153D01*
X146288067Y-72147399D01*
X146383327Y-72166856D01*
X146424006Y-72170184D01*
X146531321Y-72170936D01*
X146591506Y-72157367D01*
X146596454Y-72149017D01*
X146583698Y-72097603D01*
X146551581Y-71981368D01*
X146504719Y-71816693D01*
X146447728Y-71619959D01*
X146437704Y-71585667D01*
X146282833Y-71056500D01*
X146137358Y-71056500D01*
X146037065Y-71065989D01*
X145985304Y-71111276D01*
X145954127Y-71204667D01*
X145912850Y-71335059D01*
X145875170Y-71381435D01*
X145838415Y-71344211D01*
X145801108Y-71228582D01*
X145766629Y-71110939D01*
X145727019Y-71054268D01*
X145660570Y-71036511D01*
X145610907Y-71035333D01*
X145469367Y-71035333D01*
X145372608Y-71395384D01*
X145372608Y-71395384D01*
G37*
X145372608Y-71395384D02*
X145315196Y-71603522D01*
X145266818Y-71742460D01*
X145214212Y-71824677D01*
X145144114Y-71862651D01*
X145043262Y-71868859D01*
X144898392Y-71855780D01*
X144884822Y-71854309D01*
X144589500Y-71822299D01*
X144850341Y-71778066D01*
X145059121Y-71726976D01*
X145194810Y-71652286D01*
X145267660Y-71545327D01*
X145287910Y-71408454D01*
X144970795Y-71408454D01*
X144970500Y-71416333D01*
X144916297Y-71440798D01*
X144807217Y-71456087D01*
X144733244Y-71458667D01*
X144537024Y-71488235D01*
X144399812Y-71574355D01*
X144326150Y-71713148D01*
X144314333Y-71816576D01*
X144309578Y-71915333D01*
X144297869Y-71965201D01*
X144295200Y-71966667D01*
X144262553Y-71934874D01*
X144199522Y-71853348D01*
X144150910Y-71784757D01*
X144079305Y-71675578D01*
X144051694Y-71606051D01*
X144062610Y-71547111D01*
X144095182Y-71488424D01*
X144130574Y-71436034D01*
X144172054Y-71402711D01*
X144237909Y-71384146D01*
X144346424Y-71376026D01*
X144515888Y-71374043D01*
X144580637Y-71374000D01*
X144785314Y-71378005D01*
X144916995Y-71389667D01*
X144970795Y-71408454D01*
X145287910Y-71408454D01*
X145288000Y-71407848D01*
X145261886Y-71251691D01*
X145184091Y-71139242D01*
X145137039Y-71096456D01*
X145085968Y-71067374D01*
X145014456Y-71049358D01*
X144906078Y-71039772D01*
X144744411Y-71035977D01*
X144537051Y-71035333D01*
X143993921Y-71035333D01*
X143915004Y-71168930D01*
X143836086Y-71302526D01*
X143724692Y-71166040D01*
X143640702Y-71077842D01*
X143557760Y-71042802D01*
X143434645Y-71043027D01*
X143255991Y-71056500D01*
X143425194Y-71310500D01*
X143508366Y-71440130D01*
X143568791Y-71543414D01*
X143594355Y-71599535D01*
X143594532Y-71601457D01*
X143571525Y-71651272D01*
X143510442Y-71749957D01*
X143423399Y-71878196D01*
X143402028Y-71908374D01*
X143209389Y-72178333D01*
X143412611Y-72178044D01*
X143542139Y-72171364D01*
X143622909Y-72140157D01*
X143690532Y-72066968D01*
X143717382Y-72028649D01*
X143818930Y-71879543D01*
X143925226Y-72028938D01*
X144005537Y-72125726D01*
X144087510Y-72168542D01*
X144211808Y-72178330D01*
X144215261Y-72178333D01*
X144342758Y-72170032D01*
X144393226Y-72141082D01*
X144373037Y-72085416D01*
X144346083Y-72053750D01*
X144341010Y-72037477D01*
X144392430Y-72065656D01*
X144420166Y-72084167D01*
X144501320Y-72127459D01*
X144609836Y-72158535D01*
X144764392Y-72181118D01*
X144983666Y-72198934D01*
X145001330Y-72200062D01*
X145200846Y-72213613D01*
X145333536Y-72218431D01*
X145417244Y-72205931D01*
X145469811Y-72167528D01*
X145509079Y-72094638D01*
X145552889Y-71978677D01*
X145573127Y-71924945D01*
X145599990Y-71863569D01*
X145621023Y-71862074D01*
X145648831Y-71928847D01*
X145668561Y-71988445D01*
X145724924Y-72128781D01*
X145789644Y-72198381D01*
X145882419Y-72210412D01*
X145973116Y-72192024D01*
X146030687Y-72141007D01*
X146072184Y-72043369D01*
X146073344Y-72038185D01*
X146107195Y-71909174D01*
X146138109Y-71862967D01*
X146170072Y-71897983D01*
X146200317Y-71987833D01*
X146237403Y-72096153D01*
X146288067Y-72147399D01*
X146383327Y-72166856D01*
X146424006Y-72170184D01*
X146531321Y-72170936D01*
X146591506Y-72157367D01*
X146596454Y-72149017D01*
X146583698Y-72097603D01*
X146551581Y-71981368D01*
X146504719Y-71816693D01*
X146447728Y-71619959D01*
X146437704Y-71585667D01*
X146282833Y-71056500D01*
X146137358Y-71056500D01*
X146037065Y-71065989D01*
X145985304Y-71111276D01*
X145954127Y-71204667D01*
X145912850Y-71335059D01*
X145875170Y-71381435D01*
X145838415Y-71344211D01*
X145801108Y-71228582D01*
X145766629Y-71110939D01*
X145727019Y-71054268D01*
X145660570Y-71036511D01*
X145610907Y-71035333D01*
X145469367Y-71035333D01*
X145372608Y-71395384D01*
G36*
X141463185Y-63688216D02*
X141277525Y-63951358D01*
X141133579Y-64150268D01*
X141026264Y-64291271D01*
X140950496Y-64380691D01*
X140901192Y-64424855D01*
X140873268Y-64430088D01*
X140869603Y-64426782D01*
X140841836Y-64388764D01*
X140772623Y-64292744D01*
X140669772Y-64149588D01*
X140541088Y-63970161D01*
X140394377Y-63765331D01*
X140381864Y-63747850D01*
X140198213Y-63496942D01*
X140043628Y-63297416D01*
X139922800Y-63154953D01*
X139840420Y-63075238D01*
X139814488Y-63060511D01*
X139735154Y-63050632D01*
X139591004Y-63043333D01*
X139397483Y-63038510D01*
X139170032Y-63036061D01*
X138924094Y-63035884D01*
X138675112Y-63037878D01*
X138438528Y-63041939D01*
X138229787Y-63047965D01*
X138064329Y-63055855D01*
X137957599Y-63065506D01*
X137926471Y-63073008D01*
X137913424Y-63084240D01*
X137907959Y-63101830D01*
X137913619Y-63131356D01*
X137933944Y-63178398D01*
X137972477Y-63248535D01*
X138032759Y-63347347D01*
X138118331Y-63480414D01*
X138232737Y-63653315D01*
X138379517Y-63871630D01*
X138562213Y-64140939D01*
X138784367Y-64466820D01*
X139049521Y-64854854D01*
X139161171Y-65018127D01*
X139837512Y-66007087D01*
X139186738Y-66965460D01*
X138880655Y-67416510D01*
X138619088Y-67802733D01*
X138398756Y-68129187D01*
X138216375Y-68400927D01*
X138068663Y-68623010D01*
X137952338Y-68800494D01*
X137864116Y-68938434D01*
X137800716Y-69041887D01*
X137758855Y-69115911D01*
X137735251Y-69165561D01*
X137726620Y-69195895D01*
X137729037Y-69211015D01*
X137779202Y-69228099D01*
X137907226Y-69241194D01*
X138114818Y-69250378D01*
X138403693Y-69255729D01*
X138746934Y-69257333D01*
X139736205Y-69257333D01*
X140200877Y-68590583D01*
X140355486Y-68369932D01*
X140502483Y-68162325D01*
X140631598Y-67982102D01*
X140732562Y-67843605D01*
X140792912Y-67763912D01*
X140920275Y-67603992D01*
X141241344Y-68041568D01*
X141397674Y-68255977D01*
X141568106Y-68491906D01*
X141729148Y-68716732D01*
X141829079Y-68857655D01*
X142095746Y-69236167D01*
X143085707Y-69247549D01*
X143367460Y-69249372D01*
X143620934Y-69248311D01*
X143833867Y-69244639D01*
X143993998Y-69238628D01*
X144089067Y-69230548D01*
X144109755Y-69224845D01*
X144095138Y-69181359D01*
X144033848Y-69071904D01*
X143928006Y-68899701D01*
X143779728Y-68667976D01*
X143591136Y-68379951D01*
X143364347Y-68038851D01*
X143101480Y-67647900D01*
X142804655Y-67210321D01*
X142475990Y-66729337D01*
X142323041Y-66506536D01*
X142190990Y-66313369D01*
X142101259Y-66176592D01*
X142047928Y-66083018D01*
X142025077Y-66019457D01*
X142026784Y-65972721D01*
X142047129Y-65929622D01*
X142056975Y-65913869D01*
X142105079Y-65841807D01*
X142191267Y-65715986D01*
X142304866Y-65551866D01*
X142435205Y-65364906D01*
X142489396Y-65287532D01*
X142853833Y-64767897D01*
X144963359Y-64779532D01*
X145440477Y-64782273D01*
X145840046Y-64784985D01*
X146169185Y-64787976D01*
X146435010Y-64791553D01*
X146644639Y-64796024D01*
X146805189Y-64801697D01*
X146923779Y-64808879D01*
X147007524Y-64817879D01*
X147063544Y-64829004D01*
X147098955Y-64842562D01*
X147120874Y-64858861D01*
X147132942Y-64873341D01*
X147181126Y-64975444D01*
X147192352Y-65042674D01*
X147189507Y-65107005D01*
X147175545Y-65156969D01*
X147140713Y-65194785D01*
X147075258Y-65222673D01*
X146969427Y-65242851D01*
X146813467Y-65257540D01*
X146597624Y-65268959D01*
X146312146Y-65279328D01*
X146126410Y-65285246D01*
X145709103Y-65301361D01*
X145364630Y-65323304D01*
X145081195Y-65354543D01*
X144846999Y-65398546D01*
X144650245Y-65458779D01*
X144479133Y-65538711D01*
X144321866Y-65641809D01*
X144166646Y-65771539D01*
X144032089Y-65900751D01*
X143792024Y-66197868D01*
X143620396Y-66532352D01*
X143517125Y-66891829D01*
X143482132Y-67263926D01*
X143515339Y-67636270D01*
X143616665Y-67996487D01*
X143786033Y-68332203D01*
X144023362Y-68631047D01*
X144049709Y-68657333D01*
X144368233Y-68920646D01*
X144702536Y-69102180D01*
X145056601Y-69203998D01*
X145126006Y-69214446D01*
X145228244Y-69222248D01*
X145405862Y-69229594D01*
X145649575Y-69236334D01*
X145950097Y-69242318D01*
X146298141Y-69247394D01*
X146684423Y-69251413D01*
X147099657Y-69254225D01*
X147534556Y-69255677D01*
X147679833Y-69255832D01*
X149923500Y-69256946D01*
X150100922Y-68632723D01*
X150178030Y-68360246D01*
X150261222Y-68064304D01*
X150341103Y-67778430D01*
X150408278Y-67536159D01*
X150415425Y-67510203D01*
X150469717Y-67322757D01*
X150518369Y-67172939D01*
X150556313Y-67075136D01*
X150578482Y-67043735D01*
X150579434Y-67044537D01*
X150597209Y-67092619D01*
X150633567Y-67211490D01*
X150685355Y-67390111D01*
X150749422Y-67617439D01*
X150822616Y-67882436D01*
X150899931Y-68167175D01*
X151193500Y-69257183D01*
X152005133Y-69257258D01*
X152816767Y-69257333D01*
X152860961Y-69119750D01*
X152884131Y-69040202D01*
X152924979Y-68892235D01*
X152979864Y-68689364D01*
X153045142Y-68445107D01*
X153117170Y-68172982D01*
X153159079Y-68013526D01*
X153231422Y-67740034D01*
X153297573Y-67494633D01*
X153354297Y-67288950D01*
X153398358Y-67134610D01*
X153426521Y-67043242D01*
X153434672Y-67023217D01*
X153442909Y-67015464D01*
X153451256Y-67016237D01*
X153462453Y-67034294D01*
X153479244Y-67078394D01*
X153504370Y-67157295D01*
X153540573Y-67279754D01*
X153590595Y-67454531D01*
X153657178Y-67690384D01*
X153743064Y-67996071D01*
X153776269Y-68114333D01*
X153854985Y-68394537D01*
X153926910Y-68650325D01*
X153988618Y-68869528D01*
X154036681Y-69039978D01*
X154067672Y-69149504D01*
X154077325Y-69183250D01*
X154090940Y-69208065D01*
X154122450Y-69226666D01*
X154182664Y-69239934D01*
X154282391Y-69248751D01*
X154432441Y-69254000D01*
X154643622Y-69256563D01*
X154926743Y-69257320D01*
X154985186Y-69257333D01*
X155294453Y-69256212D01*
X155527649Y-69252501D01*
X155693347Y-69245679D01*
X155800117Y-69235227D01*
X155856531Y-69220624D01*
X155871333Y-69203528D01*
X155859761Y-69139442D01*
X155825233Y-68994988D01*
X155768031Y-68771210D01*
X155688436Y-68469156D01*
X155586732Y-68089872D01*
X155463199Y-67634404D01*
X155318119Y-67103799D01*
X155151776Y-66499101D01*
X154964450Y-65821359D01*
X154802002Y-65235667D01*
X154196489Y-63055500D01*
X153478161Y-63045011D01*
X153237456Y-63043462D01*
X153024699Y-63045797D01*
X152855016Y-63051556D01*
X152743535Y-63060280D01*
X152707257Y-63068466D01*
X152682556Y-63116934D01*
X152639764Y-63236226D01*
X152582315Y-63415279D01*
X152513640Y-63643032D01*
X152437170Y-63908422D01*
X152358156Y-64193697D01*
X152277601Y-64487421D01*
X152202380Y-64756539D01*
X152135829Y-64989519D01*
X152081285Y-65174830D01*
X152042083Y-65300938D01*
X152021996Y-65355576D01*
X152009323Y-65380430D01*
X151998671Y-65397793D01*
X151987397Y-65399679D01*
X151972858Y-65378106D01*
X151952410Y-65325091D01*
X151923409Y-65232651D01*
X151883211Y-65092804D01*
X151829174Y-64897565D01*
X151758654Y-64638951D01*
X151669007Y-64308981D01*
X151639583Y-64200748D01*
X151558496Y-63908326D01*
X151481868Y-63642735D01*
X151413118Y-63414989D01*
X151355664Y-63236102D01*
X151312924Y-63117088D01*
X151288345Y-63068979D01*
X151233012Y-63058648D01*
X151113127Y-63050013D01*
X150945254Y-63043205D01*
X150745953Y-63038352D01*
X150531788Y-63035582D01*
X150319321Y-63035023D01*
X150125113Y-63036806D01*
X149965726Y-63041057D01*
X149857724Y-63047907D01*
X149817668Y-63057483D01*
X149817666Y-63057556D01*
X149806787Y-63100274D01*
X149775833Y-63215428D01*
X149727327Y-63393859D01*
X149663793Y-63626407D01*
X149587755Y-63903913D01*
X149501737Y-64217219D01*
X149408263Y-64557165D01*
X149309857Y-64914592D01*
X149209043Y-65280341D01*
X149108345Y-65645253D01*
X149010285Y-66000168D01*
X148917390Y-66335929D01*
X148832182Y-66643375D01*
X148757185Y-66913348D01*
X148694923Y-67136688D01*
X148647920Y-67304236D01*
X148630412Y-67366041D01*
X148584295Y-67527916D01*
X146989064Y-67512590D01*
X146627346Y-67508253D01*
X146290548Y-67502565D01*
X145988472Y-67495813D01*
X145730917Y-67488290D01*
X145527682Y-67480284D01*
X145388569Y-67472086D01*
X145323377Y-67463986D01*
X145321361Y-67463221D01*
X145241998Y-67386817D01*
X145212565Y-67276973D01*
X145233064Y-67165717D01*
X145303493Y-67085077D01*
X145321361Y-67076332D01*
X145383141Y-67066279D01*
X145516539Y-67054471D01*
X145708543Y-67041723D01*
X145946145Y-67028848D01*
X146216335Y-67016664D01*
X146367500Y-67010793D01*
X146727941Y-66996639D01*
X147016894Y-66981725D01*
X147247513Y-66963297D01*
X147432952Y-66938598D01*
X147586366Y-66904873D01*
X147720910Y-66859367D01*
X147849738Y-66799323D01*
X147986005Y-66721986D01*
X148108920Y-66645999D01*
X148387880Y-66423744D01*
X148623134Y-66133819D01*
X148772659Y-65870667D01*
X148828043Y-65753864D01*
X148865726Y-65656361D01*
X148889111Y-65557328D01*
X148901600Y-65435934D01*
X148906595Y-65271348D01*
X148907500Y-65045167D01*
X148906542Y-64816920D01*
X148901373Y-64652146D01*
X148888551Y-64529655D01*
X148864631Y-64428256D01*
X148826172Y-64326760D01*
X148771396Y-64207491D01*
X148568007Y-63872778D01*
X148299290Y-63577868D01*
X147981290Y-63339185D01*
X147853587Y-63268023D01*
X147763326Y-63224360D01*
X147672355Y-63186581D01*
X147574083Y-63154257D01*
X147461925Y-63126960D01*
X147329291Y-63104259D01*
X147169593Y-63085727D01*
X146976245Y-63070935D01*
X146742657Y-63059453D01*
X146462242Y-63050852D01*
X146128411Y-63044705D01*
X145734578Y-63040581D01*
X145274153Y-63038053D01*
X144740550Y-63036690D01*
X144292429Y-63036178D01*
X141921025Y-63034333D01*
X141463185Y-63688216D01*
X141463185Y-63688216D01*
G37*
X141463185Y-63688216D02*
X141277525Y-63951358D01*
X141133579Y-64150268D01*
X141026264Y-64291271D01*
X140950496Y-64380691D01*
X140901192Y-64424855D01*
X140873268Y-64430088D01*
X140869603Y-64426782D01*
X140841836Y-64388764D01*
X140772623Y-64292744D01*
X140669772Y-64149588D01*
X140541088Y-63970161D01*
X140394377Y-63765331D01*
X140381864Y-63747850D01*
X140198213Y-63496942D01*
X140043628Y-63297416D01*
X139922800Y-63154953D01*
X139840420Y-63075238D01*
X139814488Y-63060511D01*
X139735154Y-63050632D01*
X139591004Y-63043333D01*
X139397483Y-63038510D01*
X139170032Y-63036061D01*
X138924094Y-63035884D01*
X138675112Y-63037878D01*
X138438528Y-63041939D01*
X138229787Y-63047965D01*
X138064329Y-63055855D01*
X137957599Y-63065506D01*
X137926471Y-63073008D01*
X137913424Y-63084240D01*
X137907959Y-63101830D01*
X137913619Y-63131356D01*
X137933944Y-63178398D01*
X137972477Y-63248535D01*
X138032759Y-63347347D01*
X138118331Y-63480414D01*
X138232737Y-63653315D01*
X138379517Y-63871630D01*
X138562213Y-64140939D01*
X138784367Y-64466820D01*
X139049521Y-64854854D01*
X139161171Y-65018127D01*
X139837512Y-66007087D01*
X139186738Y-66965460D01*
X138880655Y-67416510D01*
X138619088Y-67802733D01*
X138398756Y-68129187D01*
X138216375Y-68400927D01*
X138068663Y-68623010D01*
X137952338Y-68800494D01*
X137864116Y-68938434D01*
X137800716Y-69041887D01*
X137758855Y-69115911D01*
X137735251Y-69165561D01*
X137726620Y-69195895D01*
X137729037Y-69211015D01*
X137779202Y-69228099D01*
X137907226Y-69241194D01*
X138114818Y-69250378D01*
X138403693Y-69255729D01*
X138746934Y-69257333D01*
X139736205Y-69257333D01*
X140200877Y-68590583D01*
X140355486Y-68369932D01*
X140502483Y-68162325D01*
X140631598Y-67982102D01*
X140732562Y-67843605D01*
X140792912Y-67763912D01*
X140920275Y-67603992D01*
X141241344Y-68041568D01*
X141397674Y-68255977D01*
X141568106Y-68491906D01*
X141729148Y-68716732D01*
X141829079Y-68857655D01*
X142095746Y-69236167D01*
X143085707Y-69247549D01*
X143367460Y-69249372D01*
X143620934Y-69248311D01*
X143833867Y-69244639D01*
X143993998Y-69238628D01*
X144089067Y-69230548D01*
X144109755Y-69224845D01*
X144095138Y-69181359D01*
X144033848Y-69071904D01*
X143928006Y-68899701D01*
X143779728Y-68667976D01*
X143591136Y-68379951D01*
X143364347Y-68038851D01*
X143101480Y-67647900D01*
X142804655Y-67210321D01*
X142475990Y-66729337D01*
X142323041Y-66506536D01*
X142190990Y-66313369D01*
X142101259Y-66176592D01*
X142047928Y-66083018D01*
X142025077Y-66019457D01*
X142026784Y-65972721D01*
X142047129Y-65929622D01*
X142056975Y-65913869D01*
X142105079Y-65841807D01*
X142191267Y-65715986D01*
X142304866Y-65551866D01*
X142435205Y-65364906D01*
X142489396Y-65287532D01*
X142853833Y-64767897D01*
X144963359Y-64779532D01*
X145440477Y-64782273D01*
X145840046Y-64784985D01*
X146169185Y-64787976D01*
X146435010Y-64791553D01*
X146644639Y-64796024D01*
X146805189Y-64801697D01*
X146923779Y-64808879D01*
X147007524Y-64817879D01*
X147063544Y-64829004D01*
X147098955Y-64842562D01*
X147120874Y-64858861D01*
X147132942Y-64873341D01*
X147181126Y-64975444D01*
X147192352Y-65042674D01*
X147189507Y-65107005D01*
X147175545Y-65156969D01*
X147140713Y-65194785D01*
X147075258Y-65222673D01*
X146969427Y-65242851D01*
X146813467Y-65257540D01*
X146597624Y-65268959D01*
X146312146Y-65279328D01*
X146126410Y-65285246D01*
X145709103Y-65301361D01*
X145364630Y-65323304D01*
X145081195Y-65354543D01*
X144846999Y-65398546D01*
X144650245Y-65458779D01*
X144479133Y-65538711D01*
X144321866Y-65641809D01*
X144166646Y-65771539D01*
X144032089Y-65900751D01*
X143792024Y-66197868D01*
X143620396Y-66532352D01*
X143517125Y-66891829D01*
X143482132Y-67263926D01*
X143515339Y-67636270D01*
X143616665Y-67996487D01*
X143786033Y-68332203D01*
X144023362Y-68631047D01*
X144049709Y-68657333D01*
X144368233Y-68920646D01*
X144702536Y-69102180D01*
X145056601Y-69203998D01*
X145126006Y-69214446D01*
X145228244Y-69222248D01*
X145405862Y-69229594D01*
X145649575Y-69236334D01*
X145950097Y-69242318D01*
X146298141Y-69247394D01*
X146684423Y-69251413D01*
X147099657Y-69254225D01*
X147534556Y-69255677D01*
X147679833Y-69255832D01*
X149923500Y-69256946D01*
X150100922Y-68632723D01*
X150178030Y-68360246D01*
X150261222Y-68064304D01*
X150341103Y-67778430D01*
X150408278Y-67536159D01*
X150415425Y-67510203D01*
X150469717Y-67322757D01*
X150518369Y-67172939D01*
X150556313Y-67075136D01*
X150578482Y-67043735D01*
X150579434Y-67044537D01*
X150597209Y-67092619D01*
X150633567Y-67211490D01*
X150685355Y-67390111D01*
X150749422Y-67617439D01*
X150822616Y-67882436D01*
X150899931Y-68167175D01*
X151193500Y-69257183D01*
X152005133Y-69257258D01*
X152816767Y-69257333D01*
X152860961Y-69119750D01*
X152884131Y-69040202D01*
X152924979Y-68892235D01*
X152979864Y-68689364D01*
X153045142Y-68445107D01*
X153117170Y-68172982D01*
X153159079Y-68013526D01*
X153231422Y-67740034D01*
X153297573Y-67494633D01*
X153354297Y-67288950D01*
X153398358Y-67134610D01*
X153426521Y-67043242D01*
X153434672Y-67023217D01*
X153442909Y-67015464D01*
X153451256Y-67016237D01*
X153462453Y-67034294D01*
X153479244Y-67078394D01*
X153504370Y-67157295D01*
X153540573Y-67279754D01*
X153590595Y-67454531D01*
X153657178Y-67690384D01*
X153743064Y-67996071D01*
X153776269Y-68114333D01*
X153854985Y-68394537D01*
X153926910Y-68650325D01*
X153988618Y-68869528D01*
X154036681Y-69039978D01*
X154067672Y-69149504D01*
X154077325Y-69183250D01*
X154090940Y-69208065D01*
X154122450Y-69226666D01*
X154182664Y-69239934D01*
X154282391Y-69248751D01*
X154432441Y-69254000D01*
X154643622Y-69256563D01*
X154926743Y-69257320D01*
X154985186Y-69257333D01*
X155294453Y-69256212D01*
X155527649Y-69252501D01*
X155693347Y-69245679D01*
X155800117Y-69235227D01*
X155856531Y-69220624D01*
X155871333Y-69203528D01*
X155859761Y-69139442D01*
X155825233Y-68994988D01*
X155768031Y-68771210D01*
X155688436Y-68469156D01*
X155586732Y-68089872D01*
X155463199Y-67634404D01*
X155318119Y-67103799D01*
X155151776Y-66499101D01*
X154964450Y-65821359D01*
X154802002Y-65235667D01*
X154196489Y-63055500D01*
X153478161Y-63045011D01*
X153237456Y-63043462D01*
X153024699Y-63045797D01*
X152855016Y-63051556D01*
X152743535Y-63060280D01*
X152707257Y-63068466D01*
X152682556Y-63116934D01*
X152639764Y-63236226D01*
X152582315Y-63415279D01*
X152513640Y-63643032D01*
X152437170Y-63908422D01*
X152358156Y-64193697D01*
X152277601Y-64487421D01*
X152202380Y-64756539D01*
X152135829Y-64989519D01*
X152081285Y-65174830D01*
X152042083Y-65300938D01*
X152021996Y-65355576D01*
X152009323Y-65380430D01*
X151998671Y-65397793D01*
X151987397Y-65399679D01*
X151972858Y-65378106D01*
X151952410Y-65325091D01*
X151923409Y-65232651D01*
X151883211Y-65092804D01*
X151829174Y-64897565D01*
X151758654Y-64638951D01*
X151669007Y-64308981D01*
X151639583Y-64200748D01*
X151558496Y-63908326D01*
X151481868Y-63642735D01*
X151413118Y-63414989D01*
X151355664Y-63236102D01*
X151312924Y-63117088D01*
X151288345Y-63068979D01*
X151233012Y-63058648D01*
X151113127Y-63050013D01*
X150945254Y-63043205D01*
X150745953Y-63038352D01*
X150531788Y-63035582D01*
X150319321Y-63035023D01*
X150125113Y-63036806D01*
X149965726Y-63041057D01*
X149857724Y-63047907D01*
X149817668Y-63057483D01*
X149817666Y-63057556D01*
X149806787Y-63100274D01*
X149775833Y-63215428D01*
X149727327Y-63393859D01*
X149663793Y-63626407D01*
X149587755Y-63903913D01*
X149501737Y-64217219D01*
X149408263Y-64557165D01*
X149309857Y-64914592D01*
X149209043Y-65280341D01*
X149108345Y-65645253D01*
X149010285Y-66000168D01*
X148917390Y-66335929D01*
X148832182Y-66643375D01*
X148757185Y-66913348D01*
X148694923Y-67136688D01*
X148647920Y-67304236D01*
X148630412Y-67366041D01*
X148584295Y-67527916D01*
X146989064Y-67512590D01*
X146627346Y-67508253D01*
X146290548Y-67502565D01*
X145988472Y-67495813D01*
X145730917Y-67488290D01*
X145527682Y-67480284D01*
X145388569Y-67472086D01*
X145323377Y-67463986D01*
X145321361Y-67463221D01*
X145241998Y-67386817D01*
X145212565Y-67276973D01*
X145233064Y-67165717D01*
X145303493Y-67085077D01*
X145321361Y-67076332D01*
X145383141Y-67066279D01*
X145516539Y-67054471D01*
X145708543Y-67041723D01*
X145946145Y-67028848D01*
X146216335Y-67016664D01*
X146367500Y-67010793D01*
X146727941Y-66996639D01*
X147016894Y-66981725D01*
X147247513Y-66963297D01*
X147432952Y-66938598D01*
X147586366Y-66904873D01*
X147720910Y-66859367D01*
X147849738Y-66799323D01*
X147986005Y-66721986D01*
X148108920Y-66645999D01*
X148387880Y-66423744D01*
X148623134Y-66133819D01*
X148772659Y-65870667D01*
X148828043Y-65753864D01*
X148865726Y-65656361D01*
X148889111Y-65557328D01*
X148901600Y-65435934D01*
X148906595Y-65271348D01*
X148907500Y-65045167D01*
X148906542Y-64816920D01*
X148901373Y-64652146D01*
X148888551Y-64529655D01*
X148864631Y-64428256D01*
X148826172Y-64326760D01*
X148771396Y-64207491D01*
X148568007Y-63872778D01*
X148299290Y-63577868D01*
X147981290Y-63339185D01*
X147853587Y-63268023D01*
X147763326Y-63224360D01*
X147672355Y-63186581D01*
X147574083Y-63154257D01*
X147461925Y-63126960D01*
X147329291Y-63104259D01*
X147169593Y-63085727D01*
X146976245Y-63070935D01*
X146742657Y-63059453D01*
X146462242Y-63050852D01*
X146128411Y-63044705D01*
X145734578Y-63040581D01*
X145274153Y-63038053D01*
X144740550Y-63036690D01*
X144292429Y-63036178D01*
X141921025Y-63034333D01*
X141463185Y-63688216D01*
G36*
X136996301Y-71339574D02*
X136955281Y-71375156D01*
X136948333Y-71437500D01*
X136959403Y-71509071D01*
X137009219Y-71538370D01*
X137096500Y-71543333D01*
X137196699Y-71535426D01*
X137237719Y-71499843D01*
X137244666Y-71437500D01*
X137233596Y-71365929D01*
X137183781Y-71336629D01*
X137096500Y-71331667D01*
X136996301Y-71339574D01*
X136996301Y-71339574D01*
G37*
X136996301Y-71339574D02*
X136955281Y-71375156D01*
X136948333Y-71437500D01*
X136959403Y-71509071D01*
X137009219Y-71538370D01*
X137096500Y-71543333D01*
X137196699Y-71535426D01*
X137237719Y-71499843D01*
X137244666Y-71437500D01*
X137233596Y-71365929D01*
X137183781Y-71336629D01*
X137096500Y-71331667D01*
X136996301Y-71339574D01*
D15*
X125261666Y-91670143D02*
X125309285Y-91717762D01*
X125452142Y-91765381D01*
X125547380Y-91765381D01*
X125690238Y-91717762D01*
X125785476Y-91622524D01*
X125833095Y-91527286D01*
X125880714Y-91336810D01*
X125880714Y-91193952D01*
X125833095Y-91003476D01*
X125785476Y-90908238D01*
X125690238Y-90813000D01*
X125547380Y-90765381D01*
X125452142Y-90765381D01*
X125309285Y-90813000D01*
X125261666Y-90860619D01*
X124309285Y-91765381D02*
X124880714Y-91765381D01*
X124595000Y-91765381D02*
X124595000Y-90765381D01*
X124690238Y-90908238D01*
X124785476Y-91003476D01*
X124880714Y-91051095D01*
X125261666Y-95988143D02*
X125309285Y-96035762D01*
X125452142Y-96083381D01*
X125547380Y-96083381D01*
X125690238Y-96035762D01*
X125785476Y-95940524D01*
X125833095Y-95845286D01*
X125880714Y-95654810D01*
X125880714Y-95511952D01*
X125833095Y-95321476D01*
X125785476Y-95226238D01*
X125690238Y-95131000D01*
X125547380Y-95083381D01*
X125452142Y-95083381D01*
X125309285Y-95131000D01*
X125261666Y-95178619D01*
X124880714Y-95178619D02*
X124833095Y-95131000D01*
X124737857Y-95083381D01*
X124499761Y-95083381D01*
X124404523Y-95131000D01*
X124356904Y-95178619D01*
X124309285Y-95273857D01*
X124309285Y-95369095D01*
X124356904Y-95511952D01*
X124928333Y-96083381D01*
X124309285Y-96083381D01*
X124689952Y-99490429D02*
X123928047Y-99490429D01*
X124308999Y-99871381D02*
X124308999Y-99109476D01*
X125236266Y-93924381D02*
X125569600Y-93448190D01*
X125807695Y-93924381D02*
X125807695Y-92924381D01*
X125426742Y-92924381D01*
X125331504Y-92972000D01*
X125283885Y-93019619D01*
X125236266Y-93114857D01*
X125236266Y-93257714D01*
X125283885Y-93352952D01*
X125331504Y-93400571D01*
X125426742Y-93448190D01*
X125807695Y-93448190D01*
X124283885Y-93924381D02*
X124855314Y-93924381D01*
X124569600Y-93924381D02*
X124569600Y-92924381D01*
X124664838Y-93067238D01*
X124760076Y-93162476D01*
X124855314Y-93210095D01*
X154302381Y-89408095D02*
X155111905Y-89408095D01*
X155207143Y-89455714D01*
X155254762Y-89503333D01*
X155302381Y-89598571D01*
X155302381Y-89789048D01*
X155254762Y-89884286D01*
X155207143Y-89931905D01*
X155111905Y-89979524D01*
X154302381Y-89979524D01*
X154397619Y-90408095D02*
X154350000Y-90455714D01*
X154302381Y-90550952D01*
X154302381Y-90789048D01*
X154350000Y-90884286D01*
X154397619Y-90931905D01*
X154492857Y-90979524D01*
X154588095Y-90979524D01*
X154730952Y-90931905D01*
X155302381Y-90360476D01*
X155302381Y-90979524D01*
X106977381Y-53006667D02*
X107691667Y-53006667D01*
X107834524Y-52959047D01*
X107929762Y-52863809D01*
X107977381Y-52720952D01*
X107977381Y-52625714D01*
X107977381Y-54006667D02*
X107977381Y-53435238D01*
X107977381Y-53720952D02*
X106977381Y-53720952D01*
X107120238Y-53625714D01*
X107215476Y-53530476D01*
X107263095Y-53435238D01*
M02*
