G04 #@! TF.FileFunction,Copper,L2,Bot,Signal*
%FSLAX46Y46*%
G04 Gerber Fmt 4.6, Leading zero omitted, Abs format (unit mm)*
G04 Created by KiCad (PCBNEW 4.0.7) date 02/20/19 23:55:16*
%MOMM*%
%LPD*%
G01*
G04 APERTURE LIST*
%ADD10C,0.100000*%
%ADD11R,1.800000X8.000000*%
%ADD12R,1.700000X2.000000*%
%ADD13O,1.700000X2.000000*%
%ADD14R,1.500000X1.300000*%
%ADD15C,0.600000*%
%ADD16C,0.250000*%
%ADD17C,0.254000*%
G04 APERTURE END LIST*
D10*
D11*
X180240840Y-108151440D03*
X177700840Y-108151440D03*
X175160840Y-108151440D03*
X172620840Y-108151440D03*
X170080840Y-108151440D03*
X167540840Y-108151440D03*
X165000840Y-108151440D03*
X162460840Y-108151440D03*
X159920840Y-108151440D03*
X157380840Y-108151440D03*
X154840840Y-108151440D03*
X152300840Y-108151440D03*
X149760840Y-108151440D03*
X147220840Y-108151440D03*
X144680840Y-108151440D03*
X142140840Y-108151440D03*
X139600840Y-108151440D03*
X137060840Y-108151440D03*
X134520840Y-108151440D03*
X131980840Y-108151440D03*
X129440840Y-108151440D03*
X126900840Y-108151440D03*
X124360840Y-108151440D03*
X121820840Y-108151440D03*
X119280840Y-108151440D03*
D12*
X133350000Y-98806000D03*
D13*
X166370000Y-83566000D03*
X135890000Y-98806000D03*
X163830000Y-83566000D03*
X138430000Y-98806000D03*
X161290000Y-83566000D03*
X140970000Y-98806000D03*
X158750000Y-83566000D03*
X143510000Y-98806000D03*
X156210000Y-83566000D03*
X146050000Y-98806000D03*
X153670000Y-83566000D03*
X148590000Y-98806000D03*
X151130000Y-83566000D03*
X151130000Y-98806000D03*
X148590000Y-83566000D03*
X153670000Y-98806000D03*
X146050000Y-83566000D03*
X156210000Y-98806000D03*
X143510000Y-83566000D03*
X158750000Y-98806000D03*
X140970000Y-83566000D03*
X161290000Y-98806000D03*
X138430000Y-83566000D03*
X163830000Y-98806000D03*
X135890000Y-83566000D03*
X166370000Y-98806000D03*
X133350000Y-83566000D03*
D14*
X135893800Y-87566500D03*
X133193800Y-87566500D03*
D15*
X150504900Y-88928000D03*
X159955100Y-100357700D03*
X154299900Y-96710300D03*
X142149000Y-97391200D03*
X160394500Y-102421900D03*
X148499700Y-103797600D03*
X145631900Y-103643000D03*
X152646000Y-97611900D03*
X142771000Y-102558200D03*
X157116600Y-88186500D03*
X146577600Y-94473700D03*
X156409500Y-87395500D03*
X140028300Y-85532900D03*
X154977400Y-87069000D03*
D16*
X159920800Y-108151400D02*
X159920800Y-103826100D01*
X160692000Y-103826100D02*
X159920800Y-103826100D01*
X165028100Y-99490000D02*
X160692000Y-103826100D01*
X165028100Y-98191800D02*
X165028100Y-99490000D01*
X155764300Y-88928000D02*
X165028100Y-98191800D01*
X150504900Y-88928000D02*
X155764300Y-88928000D01*
X157380800Y-108151400D02*
X157380800Y-103826100D01*
X159955100Y-101251800D02*
X159955100Y-100357700D01*
X157380800Y-103826100D02*
X159955100Y-101251800D01*
X138430000Y-98806000D02*
X139605300Y-98806000D01*
X154840800Y-108151400D02*
X154840800Y-103826100D01*
X155602400Y-103826100D02*
X154840800Y-103826100D01*
X159955500Y-99473000D02*
X155602400Y-103826100D01*
X159955500Y-98198300D02*
X159955500Y-99473000D01*
X157820100Y-96062900D02*
X159955500Y-98198300D01*
X141703300Y-96062900D02*
X157820100Y-96062900D01*
X139605300Y-98160900D02*
X141703300Y-96062900D01*
X139605300Y-98806000D02*
X139605300Y-98160900D01*
X140970000Y-98806000D02*
X140970000Y-97480700D01*
X154102800Y-96513200D02*
X154299900Y-96710300D01*
X141937500Y-96513200D02*
X154102800Y-96513200D01*
X140970000Y-97480700D02*
X141937500Y-96513200D01*
X152300800Y-108151400D02*
X152300800Y-103826100D01*
X153075500Y-103826100D02*
X152300800Y-103826100D01*
X157387800Y-99513800D02*
X153075500Y-103826100D01*
X157387800Y-98106500D02*
X157387800Y-99513800D01*
X156742800Y-97461500D02*
X157387800Y-98106500D01*
X154166800Y-97461500D02*
X156742800Y-97461500D01*
X153668900Y-96963600D02*
X154166800Y-97461500D01*
X142576600Y-96963600D02*
X153668900Y-96963600D01*
X142149000Y-97391200D02*
X142576600Y-96963600D01*
X162492300Y-100324100D02*
X160394500Y-102421900D01*
X162492300Y-98178700D02*
X162492300Y-100324100D01*
X159451500Y-95137900D02*
X162492300Y-98178700D01*
X137679200Y-95137900D02*
X159451500Y-95137900D01*
X134525300Y-98291800D02*
X137679200Y-95137900D01*
X134525300Y-98806000D02*
X134525300Y-98291800D01*
X133350000Y-98806000D02*
X134525300Y-98806000D01*
X153670000Y-98806000D02*
X152494700Y-98806000D01*
X147220800Y-108151400D02*
X147220800Y-103826100D01*
X148222100Y-102824800D02*
X147220800Y-103826100D01*
X148937400Y-102824800D02*
X148222100Y-102824800D01*
X152494700Y-99267500D02*
X148937400Y-102824800D01*
X152494700Y-98806000D02*
X152494700Y-99267500D01*
X156210000Y-98806000D02*
X155034700Y-98806000D01*
X150557300Y-103797600D02*
X148499700Y-103797600D01*
X155034700Y-99320200D02*
X150557300Y-103797600D01*
X155034700Y-98806000D02*
X155034700Y-99320200D01*
X144680800Y-102715200D02*
X144680800Y-108151400D01*
X148590000Y-98806000D02*
X144680800Y-102715200D01*
X151130000Y-98806000D02*
X149954700Y-98806000D01*
X149954700Y-99320200D02*
X145631900Y-103643000D01*
X149954700Y-98806000D02*
X149954700Y-99320200D01*
X143510000Y-98806000D02*
X142334700Y-98806000D01*
X142140800Y-108151400D02*
X142140800Y-103826100D01*
X142140800Y-100750400D02*
X142140800Y-103826100D01*
X142334700Y-100556500D02*
X142140800Y-100750400D01*
X142334700Y-98806000D02*
X142334700Y-100556500D01*
X139600800Y-103293300D02*
X139600800Y-108151400D01*
X137247800Y-100940300D02*
X139600800Y-103293300D01*
X137247800Y-98148000D02*
X137247800Y-100940300D01*
X139807500Y-95588300D02*
X137247800Y-98148000D01*
X158072300Y-95588300D02*
X139807500Y-95588300D01*
X161290000Y-98806000D02*
X158072300Y-95588300D01*
X144157600Y-102558200D02*
X142771000Y-102558200D01*
X147320000Y-99395800D02*
X144157600Y-102558200D01*
X147320000Y-98255200D02*
X147320000Y-99395800D01*
X148108900Y-97466300D02*
X147320000Y-98255200D01*
X152500400Y-97466300D02*
X148108900Y-97466300D01*
X152646000Y-97611900D02*
X152500400Y-97466300D01*
X137060800Y-108151400D02*
X137060800Y-103826100D01*
X157002000Y-88301100D02*
X157116600Y-88186500D01*
X141489800Y-88301100D02*
X157002000Y-88301100D01*
X132174600Y-97616300D02*
X141489800Y-88301100D01*
X132174600Y-99966200D02*
X132174600Y-97616300D01*
X136034500Y-103826100D02*
X132174600Y-99966200D01*
X137060800Y-103826100D02*
X136034500Y-103826100D01*
X159497700Y-94473700D02*
X146577600Y-94473700D01*
X163830000Y-98806000D02*
X159497700Y-94473700D01*
X134520800Y-108151400D02*
X134520800Y-103826100D01*
X155954300Y-87850700D02*
X156409500Y-87395500D01*
X141303300Y-87850700D02*
X155954300Y-87850700D01*
X131724200Y-97429800D02*
X141303300Y-87850700D01*
X131724200Y-101029500D02*
X131724200Y-97429800D01*
X134520800Y-103826100D02*
X131724200Y-101029500D01*
X163830000Y-83566000D02*
X162654700Y-83566000D01*
X145899400Y-85532900D02*
X140028300Y-85532900D01*
X147320000Y-84112300D02*
X145899400Y-85532900D01*
X147320000Y-83009600D02*
X147320000Y-84112300D01*
X148110900Y-82218700D02*
X147320000Y-83009600D01*
X161821600Y-82218700D02*
X148110900Y-82218700D01*
X162654700Y-83051800D02*
X161821600Y-82218700D01*
X162654700Y-83566000D02*
X162654700Y-83051800D01*
X131241300Y-103086600D02*
X131980800Y-103826100D01*
X131241300Y-97275800D02*
X131241300Y-103086600D01*
X141448100Y-87069000D02*
X131241300Y-97275800D01*
X154977400Y-87069000D02*
X141448100Y-87069000D01*
X131980800Y-108151400D02*
X131980800Y-103826100D01*
X126900800Y-103826100D02*
X129440800Y-103826100D01*
X126900800Y-108151400D02*
X126900800Y-103826100D01*
X129440800Y-108151400D02*
X129440800Y-103826100D01*
X129440800Y-98439400D02*
X129440800Y-103826100D01*
X141436500Y-86443700D02*
X129440800Y-98439400D01*
X156349200Y-86443700D02*
X141436500Y-86443700D01*
X166370000Y-96464500D02*
X156349200Y-86443700D01*
X166370000Y-98806000D02*
X166370000Y-96464500D01*
X133193800Y-87566500D02*
X133193800Y-83722200D01*
X133193800Y-83722200D02*
X133350000Y-83566000D01*
X124360800Y-93599000D02*
X124383800Y-93599000D01*
X133350000Y-84632800D02*
X133350000Y-83566000D01*
X124383800Y-93599000D02*
X133350000Y-84632800D01*
X121820800Y-103826100D02*
X124360800Y-103826100D01*
X121820800Y-108151400D02*
X121820800Y-103826100D01*
X124360800Y-108151400D02*
X124360800Y-103826100D01*
X124360800Y-93599000D02*
X124360800Y-103826100D01*
X177701000Y-108151000D02*
X177701000Y-105988500D01*
X177700800Y-105988700D02*
X177700800Y-108151400D01*
X177701000Y-105988500D02*
X177700800Y-105988700D01*
X177701000Y-105988500D02*
X177701000Y-103826000D01*
X149765300Y-84080200D02*
X149765300Y-83566000D01*
X151114700Y-85429600D02*
X149765300Y-84080200D01*
X159304600Y-85429600D02*
X151114700Y-85429600D01*
X177701000Y-103826000D02*
X159304600Y-85429600D01*
X148590000Y-83566000D02*
X149765300Y-83566000D01*
X135893800Y-87566500D02*
X135893800Y-83569800D01*
X135893800Y-83569800D02*
X135890000Y-83566000D01*
X135890000Y-83566000D02*
X137065300Y-83566000D01*
X175161000Y-103164600D02*
X175161000Y-105657800D01*
X175161000Y-105657800D02*
X175161000Y-108151000D01*
X175160800Y-105658000D02*
X175160800Y-108151400D01*
X175161000Y-105657800D02*
X175160800Y-105658000D01*
X137065300Y-84080200D02*
X137065300Y-83566000D01*
X139160600Y-86175500D02*
X137065300Y-84080200D01*
X140455100Y-86175500D02*
X139160600Y-86175500D01*
X140637200Y-85993400D02*
X140455100Y-86175500D01*
X157989800Y-85993400D02*
X140637200Y-85993400D01*
X175161000Y-103164600D02*
X157989800Y-85993400D01*
D17*
G36*
X138623199Y-86712901D02*
X138869761Y-86877648D01*
X139160600Y-86935500D01*
X140455100Y-86935500D01*
X140519635Y-86922663D01*
X130703899Y-96738399D01*
X130539152Y-96984961D01*
X130481300Y-97275800D01*
X130481300Y-103086600D01*
X130539152Y-103377439D01*
X130695126Y-103610871D01*
X130467149Y-103516440D01*
X129726590Y-103516440D01*
X129567840Y-103675190D01*
X129567840Y-108024440D01*
X129587840Y-108024440D01*
X129587840Y-108278440D01*
X129567840Y-108278440D01*
X129567840Y-108298440D01*
X129313840Y-108298440D01*
X129313840Y-108278440D01*
X127027840Y-108278440D01*
X127027840Y-108298440D01*
X126773840Y-108298440D01*
X126773840Y-108278440D01*
X126753840Y-108278440D01*
X126753840Y-108024440D01*
X126773840Y-108024440D01*
X126773840Y-103675190D01*
X127027840Y-103675190D01*
X127027840Y-108024440D01*
X129313840Y-108024440D01*
X129313840Y-103675190D01*
X129155090Y-103516440D01*
X128414531Y-103516440D01*
X128181142Y-103613113D01*
X128170840Y-103623415D01*
X128160538Y-103613113D01*
X127927149Y-103516440D01*
X127186590Y-103516440D01*
X127027840Y-103675190D01*
X126773840Y-103675190D01*
X126615090Y-103516440D01*
X125874531Y-103516440D01*
X125641142Y-103613113D01*
X125623536Y-103630719D01*
X125512730Y-103555009D01*
X125260840Y-103504000D01*
X125120800Y-103504000D01*
X125120800Y-93936802D01*
X131796360Y-87261242D01*
X131796360Y-88216500D01*
X131840638Y-88451817D01*
X131979710Y-88667941D01*
X132191910Y-88812931D01*
X132443800Y-88863940D01*
X133943800Y-88863940D01*
X134179117Y-88819662D01*
X134395241Y-88680590D01*
X134540231Y-88468390D01*
X134542881Y-88455303D01*
X134679710Y-88667941D01*
X134891910Y-88812931D01*
X135143800Y-88863940D01*
X136643800Y-88863940D01*
X136879117Y-88819662D01*
X137095241Y-88680590D01*
X137240231Y-88468390D01*
X137291240Y-88216500D01*
X137291240Y-86916500D01*
X137246962Y-86681183D01*
X137107890Y-86465059D01*
X136895690Y-86320069D01*
X136653800Y-86271085D01*
X136653800Y-84989354D01*
X136801178Y-84890880D01*
X138623199Y-86712901D01*
X138623199Y-86712901D01*
G37*
X138623199Y-86712901D02*
X138869761Y-86877648D01*
X139160600Y-86935500D01*
X140455100Y-86935500D01*
X140519635Y-86922663D01*
X130703899Y-96738399D01*
X130539152Y-96984961D01*
X130481300Y-97275800D01*
X130481300Y-103086600D01*
X130539152Y-103377439D01*
X130695126Y-103610871D01*
X130467149Y-103516440D01*
X129726590Y-103516440D01*
X129567840Y-103675190D01*
X129567840Y-108024440D01*
X129587840Y-108024440D01*
X129587840Y-108278440D01*
X129567840Y-108278440D01*
X129567840Y-108298440D01*
X129313840Y-108298440D01*
X129313840Y-108278440D01*
X127027840Y-108278440D01*
X127027840Y-108298440D01*
X126773840Y-108298440D01*
X126773840Y-108278440D01*
X126753840Y-108278440D01*
X126753840Y-108024440D01*
X126773840Y-108024440D01*
X126773840Y-103675190D01*
X127027840Y-103675190D01*
X127027840Y-108024440D01*
X129313840Y-108024440D01*
X129313840Y-103675190D01*
X129155090Y-103516440D01*
X128414531Y-103516440D01*
X128181142Y-103613113D01*
X128170840Y-103623415D01*
X128160538Y-103613113D01*
X127927149Y-103516440D01*
X127186590Y-103516440D01*
X127027840Y-103675190D01*
X126773840Y-103675190D01*
X126615090Y-103516440D01*
X125874531Y-103516440D01*
X125641142Y-103613113D01*
X125623536Y-103630719D01*
X125512730Y-103555009D01*
X125260840Y-103504000D01*
X125120800Y-103504000D01*
X125120800Y-93936802D01*
X131796360Y-87261242D01*
X131796360Y-88216500D01*
X131840638Y-88451817D01*
X131979710Y-88667941D01*
X132191910Y-88812931D01*
X132443800Y-88863940D01*
X133943800Y-88863940D01*
X134179117Y-88819662D01*
X134395241Y-88680590D01*
X134540231Y-88468390D01*
X134542881Y-88455303D01*
X134679710Y-88667941D01*
X134891910Y-88812931D01*
X135143800Y-88863940D01*
X136643800Y-88863940D01*
X136879117Y-88819662D01*
X137095241Y-88680590D01*
X137240231Y-88468390D01*
X137291240Y-88216500D01*
X137291240Y-86916500D01*
X137246962Y-86681183D01*
X137107890Y-86465059D01*
X136895690Y-86320069D01*
X136653800Y-86271085D01*
X136653800Y-84989354D01*
X136801178Y-84890880D01*
X138623199Y-86712901D01*
G36*
X174401000Y-103479402D02*
X174401000Y-103504000D01*
X174260840Y-103504000D01*
X174025523Y-103548278D01*
X173890263Y-103635316D01*
X173772730Y-103555009D01*
X173520840Y-103504000D01*
X171720840Y-103504000D01*
X171485523Y-103548278D01*
X171350263Y-103635316D01*
X171232730Y-103555009D01*
X170980840Y-103504000D01*
X169180840Y-103504000D01*
X168945523Y-103548278D01*
X168810263Y-103635316D01*
X168692730Y-103555009D01*
X168440840Y-103504000D01*
X166640840Y-103504000D01*
X166405523Y-103548278D01*
X166270263Y-103635316D01*
X166152730Y-103555009D01*
X165900840Y-103504000D01*
X164100840Y-103504000D01*
X163865523Y-103548278D01*
X163730263Y-103635316D01*
X163612730Y-103555009D01*
X163360840Y-103504000D01*
X162088902Y-103504000D01*
X165463911Y-100128991D01*
X165477955Y-100144664D01*
X166000740Y-100395553D01*
X166013110Y-100397476D01*
X166243000Y-100276155D01*
X166243000Y-98933000D01*
X166497000Y-98933000D01*
X166497000Y-100276155D01*
X166726890Y-100397476D01*
X166739260Y-100395553D01*
X167262045Y-100144664D01*
X167649024Y-99712812D01*
X167841284Y-99165742D01*
X167697231Y-98933000D01*
X166497000Y-98933000D01*
X166243000Y-98933000D01*
X166223000Y-98933000D01*
X166223000Y-98679000D01*
X166243000Y-98679000D01*
X166243000Y-97335845D01*
X166497000Y-97335845D01*
X166497000Y-98679000D01*
X167697231Y-98679000D01*
X167841284Y-98446258D01*
X167649024Y-97899188D01*
X167262045Y-97467336D01*
X166739260Y-97216447D01*
X166726890Y-97214524D01*
X166497000Y-97335845D01*
X166243000Y-97335845D01*
X166013110Y-97214524D01*
X166000740Y-97216447D01*
X165477955Y-97467336D01*
X165430923Y-97519821D01*
X157032529Y-89121427D01*
X157301767Y-89121662D01*
X157645543Y-88979617D01*
X157908792Y-88716827D01*
X158051438Y-88373299D01*
X158051762Y-88001333D01*
X157909717Y-87657557D01*
X157646927Y-87394308D01*
X157344611Y-87268775D01*
X157344662Y-87210333D01*
X157202617Y-86866557D01*
X157089657Y-86753400D01*
X157674998Y-86753400D01*
X174401000Y-103479402D01*
X174401000Y-103479402D01*
G37*
X174401000Y-103479402D02*
X174401000Y-103504000D01*
X174260840Y-103504000D01*
X174025523Y-103548278D01*
X173890263Y-103635316D01*
X173772730Y-103555009D01*
X173520840Y-103504000D01*
X171720840Y-103504000D01*
X171485523Y-103548278D01*
X171350263Y-103635316D01*
X171232730Y-103555009D01*
X170980840Y-103504000D01*
X169180840Y-103504000D01*
X168945523Y-103548278D01*
X168810263Y-103635316D01*
X168692730Y-103555009D01*
X168440840Y-103504000D01*
X166640840Y-103504000D01*
X166405523Y-103548278D01*
X166270263Y-103635316D01*
X166152730Y-103555009D01*
X165900840Y-103504000D01*
X164100840Y-103504000D01*
X163865523Y-103548278D01*
X163730263Y-103635316D01*
X163612730Y-103555009D01*
X163360840Y-103504000D01*
X162088902Y-103504000D01*
X165463911Y-100128991D01*
X165477955Y-100144664D01*
X166000740Y-100395553D01*
X166013110Y-100397476D01*
X166243000Y-100276155D01*
X166243000Y-98933000D01*
X166497000Y-98933000D01*
X166497000Y-100276155D01*
X166726890Y-100397476D01*
X166739260Y-100395553D01*
X167262045Y-100144664D01*
X167649024Y-99712812D01*
X167841284Y-99165742D01*
X167697231Y-98933000D01*
X166497000Y-98933000D01*
X166243000Y-98933000D01*
X166223000Y-98933000D01*
X166223000Y-98679000D01*
X166243000Y-98679000D01*
X166243000Y-97335845D01*
X166497000Y-97335845D01*
X166497000Y-98679000D01*
X167697231Y-98679000D01*
X167841284Y-98446258D01*
X167649024Y-97899188D01*
X167262045Y-97467336D01*
X166739260Y-97216447D01*
X166726890Y-97214524D01*
X166497000Y-97335845D01*
X166243000Y-97335845D01*
X166013110Y-97214524D01*
X166000740Y-97216447D01*
X165477955Y-97467336D01*
X165430923Y-97519821D01*
X157032529Y-89121427D01*
X157301767Y-89121662D01*
X157645543Y-88979617D01*
X157908792Y-88716827D01*
X158051438Y-88373299D01*
X158051762Y-88001333D01*
X157909717Y-87657557D01*
X157646927Y-87394308D01*
X157344611Y-87268775D01*
X157344662Y-87210333D01*
X157202617Y-86866557D01*
X157089657Y-86753400D01*
X157674998Y-86753400D01*
X174401000Y-103479402D01*
M02*
