G04 #@! TF.FileFunction,Copper,L2,Bot,Signal*
%FSLAX46Y46*%
G04 Gerber Fmt 4.6, Leading zero omitted, Abs format (unit mm)*
G04 Created by KiCad (PCBNEW 4.0.7) date 11/25/18 19:30:54*
%MOMM*%
%LPD*%
G01*
G04 APERTURE LIST*
%ADD10C,0.100000*%
%ADD11R,1.700000X1.700000*%
%ADD12O,1.700000X1.700000*%
%ADD13R,1.700000X2.000000*%
%ADD14O,1.700000X2.000000*%
%ADD15R,0.600000X2.000000*%
%ADD16R,1.950000X0.600000*%
%ADD17C,0.600000*%
%ADD18C,0.250000*%
%ADD19C,0.400000*%
%ADD20C,0.254000*%
G04 APERTURE END LIST*
D10*
D11*
X125730000Y-109474000D03*
D12*
X125730000Y-112014000D03*
X128270000Y-109474000D03*
X128270000Y-112014000D03*
X130810000Y-109474000D03*
X130810000Y-112014000D03*
X133350000Y-109474000D03*
X133350000Y-112014000D03*
X135890000Y-109474000D03*
X135890000Y-112014000D03*
X138430000Y-109474000D03*
X138430000Y-112014000D03*
X140970000Y-109474000D03*
X140970000Y-112014000D03*
X143510000Y-109474000D03*
X143510000Y-112014000D03*
X146050000Y-109474000D03*
X146050000Y-112014000D03*
X148590000Y-109474000D03*
X148590000Y-112014000D03*
X151130000Y-109474000D03*
X151130000Y-112014000D03*
X153670000Y-109474000D03*
X153670000Y-112014000D03*
X156210000Y-109474000D03*
X156210000Y-112014000D03*
X158750000Y-109474000D03*
X158750000Y-112014000D03*
X161290000Y-109474000D03*
X161290000Y-112014000D03*
X163830000Y-109474000D03*
X163830000Y-112014000D03*
X166370000Y-109474000D03*
X166370000Y-112014000D03*
X168910000Y-109474000D03*
X168910000Y-112014000D03*
X171450000Y-109474000D03*
X171450000Y-112014000D03*
X173990000Y-109474000D03*
X173990000Y-112014000D03*
D11*
X173990000Y-106934000D03*
D12*
X171450000Y-106934000D03*
X173990000Y-104394000D03*
X171450000Y-104394000D03*
D11*
X144780000Y-73660000D03*
D12*
X147320000Y-73660000D03*
X149860000Y-73660000D03*
X152400000Y-73660000D03*
X154940000Y-73660000D03*
D13*
X125730000Y-77470000D03*
D14*
X173990000Y-62230000D03*
X128270000Y-77470000D03*
X171450000Y-62230000D03*
X130810000Y-77470000D03*
X168910000Y-62230000D03*
X133350000Y-77470000D03*
X166370000Y-62230000D03*
X135890000Y-77470000D03*
X163830000Y-62230000D03*
X138430000Y-77470000D03*
X161290000Y-62230000D03*
X140970000Y-77470000D03*
X158750000Y-62230000D03*
X143510000Y-77470000D03*
X156210000Y-62230000D03*
X146050000Y-77470000D03*
X153670000Y-62230000D03*
X148590000Y-77470000D03*
X151130000Y-62230000D03*
X151130000Y-77470000D03*
X148590000Y-62230000D03*
X153670000Y-77470000D03*
X146050000Y-62230000D03*
X156210000Y-77470000D03*
X143510000Y-62230000D03*
X158750000Y-77470000D03*
X140970000Y-62230000D03*
X161290000Y-77470000D03*
X138430000Y-62230000D03*
X163830000Y-77470000D03*
X135890000Y-62230000D03*
X166370000Y-77470000D03*
X133350000Y-62230000D03*
X168910000Y-77470000D03*
X130810000Y-62230000D03*
X171450000Y-77470000D03*
X128270000Y-62230000D03*
X173990000Y-77470000D03*
X125730000Y-62230000D03*
D15*
X154305000Y-85470000D03*
X155575000Y-85470000D03*
X156845000Y-85470000D03*
X158115000Y-85470000D03*
X159385000Y-85470000D03*
X160655000Y-85470000D03*
X161925000Y-85470000D03*
X163195000Y-85470000D03*
X164465000Y-85470000D03*
X165735000Y-85470000D03*
X167005000Y-85470000D03*
X168275000Y-85470000D03*
X168275000Y-94870000D03*
X167005000Y-94870000D03*
X165735000Y-94870000D03*
X164465000Y-94870000D03*
X163195000Y-94870000D03*
X161925000Y-94870000D03*
X160655000Y-94870000D03*
X159385000Y-94870000D03*
X158115000Y-94870000D03*
X156845000Y-94870000D03*
X155575000Y-94870000D03*
X154305000Y-94870000D03*
D16*
X144400000Y-84455000D03*
X144400000Y-85725000D03*
X144400000Y-86995000D03*
X144400000Y-88265000D03*
X144400000Y-89535000D03*
X144400000Y-90805000D03*
X144400000Y-92075000D03*
X144400000Y-93345000D03*
X144400000Y-94615000D03*
X144400000Y-95885000D03*
X135000000Y-95885000D03*
X135000000Y-94615000D03*
X135000000Y-93345000D03*
X135000000Y-92075000D03*
X135000000Y-90805000D03*
X135000000Y-89535000D03*
X135000000Y-88265000D03*
X135000000Y-86995000D03*
X135000000Y-85725000D03*
X135000000Y-84455000D03*
D11*
X125730000Y-119380000D03*
D12*
X125730000Y-116840000D03*
X128270000Y-119380000D03*
X128270000Y-116840000D03*
X130810000Y-119380000D03*
X130810000Y-116840000D03*
X133350000Y-119380000D03*
X133350000Y-116840000D03*
X135890000Y-119380000D03*
X135890000Y-116840000D03*
X138430000Y-119380000D03*
X138430000Y-116840000D03*
X140970000Y-119380000D03*
X140970000Y-116840000D03*
X143510000Y-119380000D03*
X143510000Y-116840000D03*
X146050000Y-119380000D03*
X146050000Y-116840000D03*
X148590000Y-119380000D03*
X148590000Y-116840000D03*
X151130000Y-119380000D03*
X151130000Y-116840000D03*
X153670000Y-119380000D03*
X153670000Y-116840000D03*
X156210000Y-119380000D03*
X156210000Y-116840000D03*
X158750000Y-119380000D03*
X158750000Y-116840000D03*
X161290000Y-119380000D03*
X161290000Y-116840000D03*
X163830000Y-119380000D03*
X163830000Y-116840000D03*
X166370000Y-119380000D03*
X166370000Y-116840000D03*
X168910000Y-119380000D03*
X168910000Y-116840000D03*
X171450000Y-119380000D03*
X171450000Y-116840000D03*
X173990000Y-119380000D03*
X173990000Y-116840000D03*
D17*
X146673300Y-84455000D03*
X145396800Y-96686900D03*
X151283400Y-84069700D03*
X140090600Y-68945700D03*
X155970500Y-92690200D03*
X136822300Y-106897800D03*
X147226300Y-91377100D03*
X164722200Y-99301900D03*
X147909600Y-88655200D03*
X147586600Y-89525800D03*
X160544200Y-98033500D03*
X160967100Y-99391200D03*
X157239100Y-92898100D03*
X157926000Y-93365600D03*
X160843000Y-100248200D03*
X153072700Y-93532000D03*
X138654800Y-106216600D03*
X162570800Y-98070900D03*
X147226300Y-92504100D03*
X167140100Y-81467000D03*
X157624900Y-88399200D03*
X167991300Y-80705000D03*
X128981900Y-93731000D03*
X146873200Y-75055900D03*
X157002000Y-83878800D03*
X156932200Y-82897000D03*
X153670000Y-80288700D03*
X149305000Y-100540800D03*
X140251900Y-98543800D03*
X138323300Y-100252800D03*
X164188900Y-92827500D03*
X147718400Y-90375500D03*
X139504800Y-97152700D03*
X137889000Y-98758800D03*
X138281200Y-92062700D03*
X157572600Y-103350900D03*
X142242500Y-98053200D03*
X136314700Y-73333200D03*
X149954700Y-99503900D03*
X146591900Y-102896900D03*
X138429100Y-96293300D03*
X149255300Y-96576300D03*
X164239800Y-72418000D03*
X137330000Y-66166800D03*
X132610000Y-67816100D03*
X141573300Y-68557400D03*
X158576400Y-88333200D03*
D18*
X166370000Y-116840000D02*
X165782400Y-116840000D01*
X166370000Y-112014000D02*
X166370000Y-113189300D01*
X130810000Y-116840000D02*
X130810000Y-115664700D01*
X166370000Y-116252400D02*
X165782400Y-116840000D01*
X166370000Y-113189300D02*
X166370000Y-116252400D01*
X162465300Y-117207400D02*
X162465300Y-116840000D01*
X163273200Y-118015300D02*
X162465300Y-117207400D01*
X164607100Y-118015300D02*
X163273200Y-118015300D01*
X165782400Y-116840000D02*
X164607100Y-118015300D01*
X161290000Y-116840000D02*
X162465300Y-116840000D01*
X173990000Y-119380000D02*
X172814700Y-119380000D01*
X166370000Y-116840000D02*
X167545300Y-116840000D01*
X130810000Y-115664700D02*
X130810000Y-112014000D01*
X152494700Y-67310000D02*
X152494700Y-62230000D01*
X147320000Y-72484700D02*
X152494700Y-67310000D01*
X153670000Y-62230000D02*
X152494700Y-62230000D01*
X172814700Y-119380000D02*
X172814700Y-119012600D01*
X167545300Y-117207400D02*
X167545300Y-116840000D01*
X168353200Y-118015300D02*
X167545300Y-117207400D01*
X171817400Y-118015300D02*
X168353200Y-118015300D01*
X139794700Y-117207400D02*
X139794700Y-116840000D01*
X138986800Y-118015300D02*
X139794700Y-117207400D01*
X138062600Y-118015300D02*
X138986800Y-118015300D01*
X137065300Y-119012600D02*
X138062600Y-118015300D01*
X137065300Y-119380000D02*
X137065300Y-119012600D01*
X135890000Y-119380000D02*
X137065300Y-119380000D01*
X140970000Y-116840000D02*
X139794700Y-116840000D01*
X146673300Y-84455000D02*
X144400000Y-84455000D01*
X147320000Y-73660000D02*
X147320000Y-72484700D01*
X168275000Y-94870000D02*
X168275000Y-93544700D01*
X167005000Y-85470000D02*
X167005000Y-86132600D01*
X167005000Y-86132600D02*
X167005000Y-86795300D01*
X167667700Y-86795300D02*
X168275000Y-86795300D01*
X167005000Y-86132600D02*
X167667700Y-86795300D01*
X168275000Y-85470000D02*
X168275000Y-86795300D01*
X168275000Y-88547100D02*
X166973500Y-87245600D01*
X168275000Y-93544700D02*
X168275000Y-88547100D01*
X167005000Y-87214100D02*
X166973500Y-87245600D01*
X167005000Y-86795300D02*
X167005000Y-87214100D01*
X144400000Y-95885000D02*
X143099700Y-95885000D01*
X135000000Y-85725000D02*
X136300300Y-85725000D01*
X144400000Y-95885000D02*
X145700300Y-95885000D01*
X145700300Y-96383400D02*
X145396800Y-96686900D01*
X145700300Y-95885000D02*
X145700300Y-96383400D01*
X147737000Y-83391300D02*
X146673300Y-84455000D01*
X155314700Y-83391300D02*
X147737000Y-83391300D01*
X156219600Y-84296200D02*
X155314700Y-83391300D01*
X156219600Y-86650900D02*
X156219600Y-84296200D01*
X156441900Y-86873200D02*
X156219600Y-86650900D01*
X158257100Y-86873200D02*
X156441900Y-86873200D01*
X158629500Y-87245600D02*
X158257100Y-86873200D01*
X166973500Y-87245600D02*
X158629500Y-87245600D01*
X137229300Y-86654000D02*
X136300300Y-85725000D01*
X137229400Y-86654000D02*
X137229300Y-86654000D01*
X137229400Y-87994300D02*
X137229400Y-86654000D01*
X138527400Y-89292300D02*
X137229400Y-87994300D01*
X138527400Y-89929200D02*
X138527400Y-89292300D01*
X140024500Y-91426300D02*
X138527400Y-89929200D01*
X140024600Y-91426300D02*
X140024500Y-91426300D01*
X140024600Y-92809900D02*
X140024600Y-91426300D01*
X143099700Y-95885000D02*
X140024600Y-92809900D01*
X173622700Y-110649300D02*
X173990000Y-110649300D01*
X172625400Y-111646600D02*
X173622700Y-110649300D01*
X172625400Y-117404800D02*
X172625400Y-111646600D01*
X171916200Y-118114000D02*
X172625400Y-117404800D01*
X172814700Y-119012600D02*
X171916200Y-118114000D01*
X171916200Y-118114000D02*
X171817400Y-118015300D01*
X173990000Y-109474000D02*
X173990000Y-110649300D01*
D19*
X128270000Y-112014000D02*
X125730000Y-112014000D01*
X128270000Y-116840000D02*
X128270000Y-115589700D01*
X128270000Y-112014000D02*
X128270000Y-115589700D01*
X154305000Y-85470000D02*
X154305000Y-84069700D01*
X154305000Y-84069700D02*
X151283400Y-84069700D01*
X127751900Y-110763700D02*
X128270000Y-110763700D01*
X126980400Y-109992200D02*
X127751900Y-110763700D01*
X126980400Y-106137200D02*
X126980400Y-109992200D01*
X129737700Y-103379900D02*
X126980400Y-106137200D01*
X129737700Y-93385600D02*
X129737700Y-103379900D01*
X129540000Y-93187900D02*
X129737700Y-93385600D01*
X129540000Y-76767500D02*
X129540000Y-93187900D01*
X137361800Y-68945700D02*
X129540000Y-76767500D01*
X140090600Y-68945700D02*
X137361800Y-68945700D01*
X128270000Y-112014000D02*
X128270000Y-110763700D01*
D18*
X160655000Y-94870000D02*
X160655000Y-93544700D01*
X130810000Y-109474000D02*
X131985300Y-109474000D01*
X131985300Y-117396800D02*
X131985300Y-109474000D01*
X131177400Y-118204700D02*
X131985300Y-117396800D01*
X130810000Y-118204700D02*
X131177400Y-118204700D01*
X130810000Y-119380000D02*
X130810000Y-118204700D01*
X159342800Y-92232500D02*
X160655000Y-93544700D01*
X156428200Y-92232500D02*
X159342800Y-92232500D01*
X155970500Y-92690200D02*
X156428200Y-92232500D01*
X134263500Y-106897800D02*
X136822300Y-106897800D01*
X131985300Y-109176000D02*
X134263500Y-106897800D01*
X131985300Y-109474000D02*
X131985300Y-109176000D01*
X164465000Y-94870000D02*
X164465000Y-93544700D01*
X133717400Y-118204700D02*
X133350000Y-118204700D01*
X134525300Y-117396800D02*
X133717400Y-118204700D01*
X134525300Y-111457300D02*
X134525300Y-117396800D01*
X133717300Y-110649300D02*
X134525300Y-111457300D01*
X133350000Y-110649300D02*
X133717300Y-110649300D01*
X133350000Y-109474000D02*
X133350000Y-110649300D01*
X133350000Y-119380000D02*
X133350000Y-118204700D01*
X164021800Y-93544700D02*
X164465000Y-93544700D01*
X161353900Y-90876800D02*
X164021800Y-93544700D01*
X161353900Y-90876700D02*
X161353900Y-90876800D01*
X148212900Y-90876700D02*
X161353900Y-90876700D01*
X147712500Y-91377100D02*
X148212900Y-90876700D01*
X147226300Y-91377100D02*
X147712500Y-91377100D01*
X164722200Y-98478100D02*
X164722200Y-99301900D01*
X167005000Y-96195300D02*
X164722200Y-98478100D01*
X167005000Y-95532600D02*
X167005000Y-96195300D01*
X167005000Y-95532600D02*
X167005000Y-94870000D01*
X148329800Y-89075400D02*
X147909600Y-88655200D01*
X162038800Y-89075400D02*
X148329800Y-89075400D01*
X167005000Y-94041600D02*
X162038800Y-89075400D01*
X167005000Y-94870000D02*
X167005000Y-94041600D01*
X156210000Y-115664700D02*
X156210000Y-113189300D01*
X156210000Y-116840000D02*
X156210000Y-115664700D01*
X156210000Y-112014000D02*
X156210000Y-113189300D01*
X161276500Y-98765800D02*
X160544200Y-98033500D01*
X163164500Y-98765800D02*
X161276500Y-98765800D01*
X165735000Y-96195300D02*
X163164500Y-98765800D01*
X165735000Y-94870000D02*
X165735000Y-96195300D01*
X165735000Y-93479700D02*
X165735000Y-94870000D01*
X161781100Y-89525800D02*
X165735000Y-93479700D01*
X147586600Y-89525800D02*
X161781100Y-89525800D01*
X159385000Y-94870000D02*
X159385000Y-93544700D01*
X159385000Y-94870000D02*
X159385000Y-96195300D01*
X158576900Y-92736600D02*
X159385000Y-93544700D01*
X157400600Y-92736600D02*
X158576900Y-92736600D01*
X157239100Y-92898100D02*
X157400600Y-92736600D01*
X159117400Y-118204700D02*
X158750000Y-118204700D01*
X159925300Y-117396800D02*
X159117400Y-118204700D01*
X159925300Y-111457300D02*
X159925300Y-117396800D01*
X159117300Y-110649300D02*
X159925300Y-111457300D01*
X158750000Y-110649300D02*
X159117300Y-110649300D01*
X158750000Y-109474000D02*
X158750000Y-110649300D01*
X158750000Y-119380000D02*
X158750000Y-118204700D01*
X159385000Y-97809100D02*
X160967100Y-99391200D01*
X159385000Y-96195300D02*
X159385000Y-97809100D01*
X158750000Y-112014000D02*
X158750000Y-116840000D01*
X158115000Y-94207300D02*
X158115000Y-93544700D01*
X157935900Y-93365600D02*
X157926000Y-93365600D01*
X158115000Y-93544700D02*
X157935900Y-93365600D01*
X158115000Y-94207300D02*
X158115000Y-94870000D01*
X158115000Y-97520200D02*
X160843000Y-100248200D01*
X158115000Y-94870000D02*
X158115000Y-97520200D01*
X128270000Y-109474000D02*
X129445300Y-109474000D01*
X128637400Y-118204700D02*
X128270000Y-118204700D01*
X129445300Y-117396800D02*
X128637400Y-118204700D01*
X129445300Y-109474000D02*
X129445300Y-117396800D01*
X128270000Y-119380000D02*
X128270000Y-118204700D01*
X161925000Y-94870000D02*
X161925000Y-93544700D01*
X129445300Y-109084200D02*
X129445300Y-109474000D01*
X132312900Y-106216600D02*
X129445300Y-109084200D01*
X138654800Y-106216600D02*
X132312900Y-106216600D01*
X160157600Y-91777300D02*
X161925000Y-93544700D01*
X154827400Y-91777300D02*
X160157600Y-91777300D01*
X153072700Y-93532000D02*
X154827400Y-91777300D01*
X163195000Y-97446700D02*
X163195000Y-94870000D01*
X162570800Y-98070900D02*
X163195000Y-97446700D01*
X163195000Y-94870000D02*
X163195000Y-93544700D01*
X160977300Y-91327000D02*
X163195000Y-93544700D01*
X148403400Y-91327000D02*
X160977300Y-91327000D01*
X147226300Y-92504100D02*
X148403400Y-91327000D01*
X165100000Y-79426900D02*
X167140100Y-81467000D01*
X165100000Y-71120000D02*
X165100000Y-79426900D01*
X157385300Y-63405300D02*
X165100000Y-71120000D01*
X157385300Y-62230000D02*
X157385300Y-63405300D01*
X156210000Y-62230000D02*
X157385300Y-62230000D01*
X144400000Y-88265000D02*
X145700300Y-88265000D01*
X147410300Y-88265000D02*
X145700300Y-88265000D01*
X147645400Y-88029900D02*
X147410300Y-88265000D01*
X148168700Y-88029900D02*
X147645400Y-88029900D01*
X148538000Y-88399200D02*
X148168700Y-88029900D01*
X157624900Y-88399200D02*
X148538000Y-88399200D01*
X167545400Y-80259100D02*
X167991300Y-80705000D01*
X167545400Y-71025400D02*
X167545400Y-80259100D01*
X158750000Y-62230000D02*
X167545400Y-71025400D01*
X139773600Y-82398900D02*
X143099700Y-85725000D01*
X139773600Y-76832300D02*
X139773600Y-82398900D01*
X140877400Y-75728500D02*
X139773600Y-76832300D01*
X147085500Y-75728500D02*
X140877400Y-75728500D01*
X148566400Y-74247600D02*
X147085500Y-75728500D01*
X148566400Y-72357900D02*
X148566400Y-74247600D01*
X154940000Y-65984300D02*
X148566400Y-72357900D01*
X154940000Y-61671700D02*
X154940000Y-65984300D01*
X155713500Y-60898200D02*
X154940000Y-61671700D01*
X159297100Y-60898200D02*
X155713500Y-60898200D01*
X160114700Y-61715800D02*
X159297100Y-60898200D01*
X160114700Y-62230000D02*
X160114700Y-61715800D01*
X161290000Y-62230000D02*
X160114700Y-62230000D01*
X144400000Y-85725000D02*
X143099700Y-85725000D01*
X125730000Y-90479100D02*
X128981900Y-93731000D01*
X125730000Y-77470000D02*
X125730000Y-90479100D01*
X145955400Y-74138100D02*
X146873200Y-75055900D01*
X145955400Y-64675400D02*
X145955400Y-74138100D01*
X144685300Y-63405300D02*
X145955400Y-64675400D01*
X144685300Y-62230000D02*
X144685300Y-63405300D01*
X143510000Y-62230000D02*
X144685300Y-62230000D01*
X156845000Y-85470000D02*
X156845000Y-84144700D01*
X156845000Y-84035800D02*
X157002000Y-83878800D01*
X156845000Y-84144700D02*
X156845000Y-84035800D01*
X158115000Y-84079800D02*
X158115000Y-85470000D01*
X156932200Y-82897000D02*
X158115000Y-84079800D01*
X143510000Y-77470000D02*
X144685300Y-77470000D01*
X159385000Y-85470000D02*
X159385000Y-84144700D01*
X159385000Y-83828300D02*
X159385000Y-84144700D01*
X156918800Y-81362100D02*
X159385000Y-83828300D01*
X148063200Y-81362100D02*
X156918800Y-81362100D01*
X144685300Y-77984200D02*
X148063200Y-81362100D01*
X144685300Y-77470000D02*
X144685300Y-77984200D01*
X160655000Y-85470000D02*
X160655000Y-84144700D01*
X156799000Y-80288700D02*
X160655000Y-84144700D01*
X153670000Y-80288700D02*
X156799000Y-80288700D01*
X147225300Y-77984200D02*
X147225300Y-77470000D01*
X148878700Y-79637600D02*
X147225300Y-77984200D01*
X157417900Y-79637600D02*
X148878700Y-79637600D01*
X161925000Y-84144700D02*
X157417900Y-79637600D01*
X161925000Y-85470000D02*
X161925000Y-84144700D01*
X146050000Y-77470000D02*
X147225300Y-77470000D01*
X140970000Y-77470000D02*
X142145300Y-77470000D01*
X163195000Y-85470000D02*
X163195000Y-86795300D01*
X158950200Y-86795300D02*
X163195000Y-86795300D01*
X158759700Y-86604800D02*
X158950200Y-86795300D01*
X158759700Y-83839900D02*
X158759700Y-86604800D01*
X156757400Y-81837600D02*
X158759700Y-83839900D01*
X145998700Y-81837600D02*
X156757400Y-81837600D01*
X142145300Y-77984200D02*
X145998700Y-81837600D01*
X142145300Y-77470000D02*
X142145300Y-77984200D01*
X157385300Y-77917600D02*
X157385300Y-77470000D01*
X158312500Y-78844800D02*
X157385300Y-77917600D01*
X159165100Y-78844800D02*
X158312500Y-78844800D01*
X164465000Y-84144700D02*
X159165100Y-78844800D01*
X164465000Y-85470000D02*
X164465000Y-84144700D01*
X156210000Y-77470000D02*
X157385300Y-77470000D01*
X165735000Y-85470000D02*
X165735000Y-86795300D01*
X148590000Y-77470000D02*
X149765300Y-77470000D01*
X163972900Y-86795300D02*
X165735000Y-86795300D01*
X163839600Y-86662000D02*
X163972900Y-86795300D01*
X163839600Y-84354500D02*
X163839600Y-86662000D01*
X163629700Y-84144600D02*
X163839600Y-84354500D01*
X162765900Y-84144600D02*
X163629700Y-84144600D01*
X157782700Y-79161400D02*
X162765900Y-84144600D01*
X150942500Y-79161400D02*
X157782700Y-79161400D01*
X149765300Y-77984200D02*
X150942500Y-79161400D01*
X149765300Y-77470000D02*
X149765300Y-77984200D01*
X138430000Y-77470000D02*
X138430000Y-78795300D01*
X144400000Y-93345000D02*
X143099700Y-93345000D01*
X138934900Y-79300200D02*
X138430000Y-78795300D01*
X138934900Y-88426000D02*
X138934900Y-79300200D01*
X143099700Y-92590800D02*
X138934900Y-88426000D01*
X143099700Y-93345000D02*
X143099700Y-92590800D01*
X144874700Y-119747400D02*
X144874700Y-119380000D01*
X144066800Y-120555300D02*
X144874700Y-119747400D01*
X127713300Y-120555300D02*
X144066800Y-120555300D01*
X126905300Y-119747300D02*
X127713300Y-120555300D01*
X126905300Y-119380000D02*
X126905300Y-119747300D01*
X125730000Y-119380000D02*
X126905300Y-119380000D01*
X146050000Y-119380000D02*
X144874700Y-119380000D01*
X155575000Y-94870000D02*
X155575000Y-96195300D01*
X146417400Y-118204700D02*
X146050000Y-118204700D01*
X147225300Y-117396800D02*
X146417400Y-118204700D01*
X147225300Y-111457300D02*
X147225300Y-117396800D01*
X146417300Y-110649300D02*
X147225300Y-111457300D01*
X146050000Y-110649300D02*
X146417300Y-110649300D01*
X146050000Y-109474000D02*
X146050000Y-110649300D01*
X146050000Y-119380000D02*
X146050000Y-118204700D01*
X135000000Y-84455000D02*
X136300300Y-84455000D01*
X154305000Y-94870000D02*
X154305000Y-96195300D01*
X154305000Y-96195300D02*
X155575000Y-96195300D01*
X149959500Y-100540800D02*
X149305000Y-100540800D01*
X154305000Y-96195300D02*
X149959500Y-100540800D01*
X138027600Y-86182300D02*
X136300300Y-84455000D01*
X138027600Y-88155600D02*
X138027600Y-86182300D01*
X138977700Y-89105700D02*
X138027600Y-88155600D01*
X138977700Y-89742600D02*
X138977700Y-89105700D01*
X138977800Y-89742600D02*
X138977700Y-89742600D01*
X140474900Y-91239700D02*
X138977800Y-89742600D01*
X140474900Y-92428400D02*
X140474900Y-91239700D01*
X143296500Y-95250000D02*
X140474900Y-92428400D01*
X145736700Y-95250000D02*
X143296500Y-95250000D01*
X149305000Y-98818300D02*
X145736700Y-95250000D01*
X149305000Y-100540800D02*
X149305000Y-98818300D01*
X153670000Y-116840000D02*
X153670000Y-112014000D01*
X146840300Y-105132200D02*
X140251900Y-98543800D01*
X148458200Y-105132200D02*
X146840300Y-105132200D01*
X152400000Y-109074000D02*
X148458200Y-105132200D01*
X152400000Y-110744000D02*
X152400000Y-109074000D01*
X153670000Y-112014000D02*
X152400000Y-110744000D01*
X148957400Y-110649300D02*
X148590000Y-110649300D01*
X149765300Y-111457200D02*
X148957400Y-110649300D01*
X149765300Y-117396700D02*
X149765300Y-111457200D01*
X148957300Y-118204700D02*
X149765300Y-117396700D01*
X148590000Y-118204700D02*
X148957300Y-118204700D01*
X148590000Y-119380000D02*
X148590000Y-118204700D01*
X148590000Y-109474000D02*
X148590000Y-109997200D01*
X148590000Y-109997200D02*
X148590000Y-110649300D01*
X138845600Y-100252800D02*
X138323300Y-100252800D01*
X148590000Y-109997200D02*
X138845600Y-100252800D01*
X154037400Y-118204700D02*
X153670000Y-118204700D01*
X154845300Y-117396800D02*
X154037400Y-118204700D01*
X154845300Y-111457300D02*
X154845300Y-117396800D01*
X154037300Y-110649300D02*
X154845300Y-111457300D01*
X153670000Y-110649300D02*
X154037300Y-110649300D01*
X153670000Y-109474000D02*
X153670000Y-110649300D01*
X153670000Y-119380000D02*
X153670000Y-118204700D01*
X161736900Y-90375500D02*
X164188900Y-92827500D01*
X147718400Y-90375500D02*
X161736900Y-90375500D01*
X163830000Y-116840000D02*
X163830000Y-115664700D01*
X163830000Y-113189300D02*
X163830000Y-115664700D01*
X163830000Y-112014000D02*
X163830000Y-112601600D01*
X163830000Y-112601600D02*
X163830000Y-113189300D01*
X161939000Y-110710600D02*
X163830000Y-112601600D01*
X160842400Y-110710600D02*
X161939000Y-110710600D01*
X160020000Y-109888200D02*
X160842400Y-110710600D01*
X160020000Y-109033700D02*
X160020000Y-109888200D01*
X155246900Y-104260600D02*
X160020000Y-109033700D01*
X146928700Y-104260600D02*
X155246900Y-104260600D01*
X139820800Y-97152700D02*
X146928700Y-104260600D01*
X139504800Y-97152700D02*
X139820800Y-97152700D01*
X151497400Y-110649300D02*
X151130000Y-110649300D01*
X152305300Y-111457200D02*
X151497400Y-110649300D01*
X152305300Y-117396700D02*
X152305300Y-111457200D01*
X151497300Y-118204700D02*
X152305300Y-117396700D01*
X151130000Y-118204700D02*
X151497300Y-118204700D01*
X151130000Y-119380000D02*
X151130000Y-118204700D01*
X151130000Y-110061600D02*
X151130000Y-110649300D01*
X151130000Y-110061600D02*
X151130000Y-109474000D01*
X138757600Y-99627400D02*
X137889000Y-98758800D01*
X140477200Y-99627400D02*
X138757600Y-99627400D01*
X149954700Y-109104900D02*
X140477200Y-99627400D01*
X149954700Y-109474000D02*
X149954700Y-109104900D01*
X151130000Y-109474000D02*
X149954700Y-109474000D01*
X166370000Y-109474000D02*
X165194700Y-109474000D01*
X165194700Y-109106700D02*
X165194700Y-109474000D01*
X158810900Y-102722900D02*
X165194700Y-109106700D01*
X148565700Y-102722900D02*
X158810900Y-102722900D01*
X138281200Y-92438400D02*
X148565700Y-102722900D01*
X138281200Y-92062700D02*
X138281200Y-92438400D01*
X148556800Y-103350900D02*
X157572600Y-103350900D01*
X143259100Y-98053200D02*
X148556800Y-103350900D01*
X142242500Y-98053200D02*
X143259100Y-98053200D01*
X138430000Y-112014000D02*
X138430000Y-110838700D01*
X135623100Y-73333200D02*
X136314700Y-73333200D01*
X132135400Y-76820900D02*
X135623100Y-73333200D01*
X132135400Y-98812800D02*
X132135400Y-76820900D01*
X139605300Y-106282700D02*
X132135400Y-98812800D01*
X139605300Y-110030800D02*
X139605300Y-106282700D01*
X138797400Y-110838700D02*
X139605300Y-110030800D01*
X138430000Y-110838700D02*
X138797400Y-110838700D01*
X135000000Y-94615000D02*
X136300300Y-94615000D01*
X141337400Y-118204700D02*
X140970000Y-118204700D01*
X142145300Y-117396800D02*
X141337400Y-118204700D01*
X142145300Y-111521700D02*
X142145300Y-117396800D01*
X141272900Y-110649300D02*
X142145300Y-111521700D01*
X140970000Y-110649300D02*
X141272900Y-110649300D01*
X140970000Y-109474000D02*
X140970000Y-110649300D01*
X140970000Y-119380000D02*
X140970000Y-118204700D01*
X140970000Y-109474000D02*
X140970000Y-108298700D01*
X136300300Y-102340800D02*
X136300300Y-94615000D01*
X140970000Y-107010500D02*
X136300300Y-102340800D01*
X140970000Y-108298700D02*
X140970000Y-107010500D01*
X143510000Y-112014000D02*
X143510000Y-116840000D01*
X135000000Y-92075000D02*
X136300300Y-92075000D01*
X136797400Y-92572100D02*
X136300300Y-92075000D01*
X136797400Y-100885000D02*
X136797400Y-92572100D01*
X142145400Y-106233000D02*
X136797400Y-100885000D01*
X142145400Y-110649400D02*
X142145400Y-106233000D01*
X143510000Y-112014000D02*
X142145400Y-110649400D01*
X151130000Y-112014000D02*
X151130000Y-116840000D01*
X149954700Y-98160100D02*
X149954700Y-99503900D01*
X145925500Y-94130900D02*
X149954700Y-98160100D01*
X145925500Y-91821600D02*
X145925500Y-94130900D01*
X145553600Y-91449700D02*
X145925500Y-91821600D01*
X143099000Y-91449700D02*
X145553600Y-91449700D01*
X142602500Y-90953200D02*
X143099000Y-91449700D01*
X142602500Y-87492200D02*
X142602500Y-90953200D01*
X143099700Y-86995000D02*
X142602500Y-87492200D01*
X144400000Y-86995000D02*
X143099700Y-86995000D01*
X171450000Y-113189300D02*
X171450000Y-115664700D01*
X171450000Y-112014000D02*
X171450000Y-113189300D01*
X171450000Y-116840000D02*
X171450000Y-115664700D01*
X156845000Y-94870000D02*
X156845000Y-96195300D01*
X171450000Y-112014000D02*
X171450000Y-110838700D01*
X171817400Y-110838700D02*
X171450000Y-110838700D01*
X172625300Y-110030800D02*
X171817400Y-110838700D01*
X172625300Y-108920900D02*
X172625300Y-110030800D01*
X171908400Y-108204000D02*
X172625300Y-108920900D01*
X170944900Y-108204000D02*
X171908400Y-108204000D01*
X163771800Y-101030900D02*
X170944900Y-108204000D01*
X160741400Y-101030900D02*
X163771800Y-101030900D01*
X156845000Y-97134500D02*
X160741400Y-101030900D01*
X156845000Y-96195300D02*
X156845000Y-97134500D01*
X168910000Y-112014000D02*
X167734700Y-112014000D01*
X167734700Y-111646600D02*
X167734700Y-112014000D01*
X166926800Y-110838700D02*
X167734700Y-111646600D01*
X163493700Y-110838700D02*
X166926800Y-110838700D01*
X162560000Y-109905000D02*
X163493700Y-110838700D01*
X162560000Y-109001300D02*
X162560000Y-109905000D01*
X158169300Y-104610600D02*
X162560000Y-109001300D01*
X156538700Y-104610600D02*
X158169300Y-104610600D01*
X155738400Y-103810300D02*
X156538700Y-104610600D01*
X147505300Y-103810300D02*
X155738400Y-103810300D01*
X146591900Y-102896900D02*
X147505300Y-103810300D01*
X146201900Y-102896900D02*
X146591900Y-102896900D01*
X139598300Y-96293300D02*
X146201900Y-102896900D01*
X138429100Y-96293300D02*
X139598300Y-96293300D01*
X170274700Y-109106700D02*
X170274700Y-109474000D01*
X163259300Y-102091300D02*
X170274700Y-109106700D01*
X148620100Y-102091300D02*
X163259300Y-102091300D01*
X139349200Y-92820400D02*
X148620100Y-102091300D01*
X139349200Y-92134500D02*
X139349200Y-92820400D01*
X137917800Y-90703100D02*
X139349200Y-92134500D01*
X137917800Y-89399200D02*
X137917800Y-90703100D01*
X136300300Y-87781700D02*
X137917800Y-89399200D01*
X136300300Y-86995000D02*
X136300300Y-87781700D01*
X135000000Y-86995000D02*
X136300300Y-86995000D01*
X171450000Y-109474000D02*
X170274700Y-109474000D01*
X144400000Y-89535000D02*
X145700300Y-89535000D01*
X143877400Y-118204700D02*
X143510000Y-118204700D01*
X144685300Y-117396800D02*
X143877400Y-118204700D01*
X144685300Y-111521700D02*
X144685300Y-117396800D01*
X143812900Y-110649300D02*
X144685300Y-111521700D01*
X143510000Y-110649300D02*
X143812900Y-110649300D01*
X143510000Y-109474000D02*
X143510000Y-110649300D01*
X143510000Y-119380000D02*
X143510000Y-118204700D01*
X146600900Y-90435600D02*
X145700300Y-89535000D01*
X146600900Y-93921900D02*
X146600900Y-90435600D01*
X149255300Y-96576300D02*
X146600900Y-93921900D01*
X155575000Y-85470000D02*
X155575000Y-86795300D01*
X156103200Y-87323500D02*
X155575000Y-86795300D01*
X158070500Y-87323500D02*
X156103200Y-87323500D01*
X158450500Y-87703500D02*
X158070500Y-87323500D01*
X161626300Y-87703500D02*
X158450500Y-87703500D01*
X167649600Y-93726800D02*
X161626300Y-87703500D01*
X167649600Y-102279600D02*
X167649600Y-93726800D01*
X171128600Y-105758600D02*
X167649600Y-102279600D01*
X174987000Y-105758600D02*
X171128600Y-105758600D01*
X175185400Y-105957000D02*
X174987000Y-105758600D01*
X175185400Y-110818600D02*
X175185400Y-105957000D01*
X173990000Y-112014000D02*
X175185400Y-110818600D01*
X149860000Y-73660000D02*
X151035300Y-73660000D01*
X163852800Y-72031000D02*
X164239800Y-72418000D01*
X152297000Y-72031000D02*
X163852800Y-72031000D01*
X151035300Y-73292700D02*
X152297000Y-72031000D01*
X151035300Y-73660000D02*
X151035300Y-73292700D01*
X134259300Y-66166800D02*
X137330000Y-66166800D01*
X132610000Y-67816100D02*
X134259300Y-66166800D01*
X146050000Y-112014000D02*
X146050000Y-116840000D01*
X135000000Y-89535000D02*
X136300300Y-89535000D01*
X137247700Y-90482400D02*
X136300300Y-89535000D01*
X137247700Y-100499100D02*
X137247700Y-90482400D01*
X144685400Y-107936800D02*
X137247700Y-100499100D01*
X144685400Y-110649400D02*
X144685400Y-107936800D01*
X146050000Y-112014000D02*
X144685400Y-110649400D01*
X173990000Y-88769200D02*
X173990000Y-104394000D01*
X167893700Y-82672900D02*
X173990000Y-88769200D01*
X167217700Y-82672900D02*
X167893700Y-82672900D01*
X162560000Y-78015200D02*
X167217700Y-82672900D01*
X162560000Y-76899900D02*
X162560000Y-78015200D01*
X158141500Y-72481400D02*
X162560000Y-76899900D01*
X154386600Y-72481400D02*
X158141500Y-72481400D01*
X153575300Y-73292700D02*
X154386600Y-72481400D01*
X153575300Y-73660000D02*
X153575300Y-73292700D01*
X152400000Y-73660000D02*
X153575300Y-73660000D01*
X156773400Y-73660000D02*
X154940000Y-73660000D01*
X160114600Y-77001200D02*
X156773400Y-73660000D01*
X160114600Y-78111900D02*
X160114600Y-77001200D01*
X165660800Y-83658100D02*
X160114600Y-78111900D01*
X168239200Y-83658100D02*
X165660800Y-83658100D01*
X171450000Y-86868900D02*
X168239200Y-83658100D01*
X171450000Y-104394000D02*
X171450000Y-86868900D01*
X135000000Y-88265000D02*
X133699700Y-88265000D01*
X141573300Y-70696000D02*
X141573300Y-68557400D01*
X137160000Y-75109300D02*
X141573300Y-70696000D01*
X137160000Y-79247200D02*
X137160000Y-75109300D01*
X133699700Y-82707500D02*
X137160000Y-79247200D01*
X133699700Y-88265000D02*
X133699700Y-82707500D01*
X163830000Y-62230000D02*
X162654700Y-62230000D01*
X135000000Y-90805000D02*
X133699700Y-90805000D01*
X162654700Y-61715800D02*
X162654700Y-62230000D01*
X161335100Y-60396200D02*
X162654700Y-61715800D01*
X143494500Y-60396200D02*
X161335100Y-60396200D01*
X142334600Y-61556100D02*
X143494500Y-60396200D01*
X142334600Y-64074000D02*
X142334600Y-61556100D01*
X140801100Y-65607500D02*
X142334600Y-64074000D01*
X140801100Y-69731200D02*
X140801100Y-65607500D01*
X134620000Y-75912300D02*
X140801100Y-69731200D01*
X134620000Y-78795400D02*
X134620000Y-75912300D01*
X133245700Y-80169700D02*
X134620000Y-78795400D01*
X133245700Y-90351000D02*
X133245700Y-80169700D01*
X133699700Y-90805000D02*
X133245700Y-90351000D01*
X144400000Y-90805000D02*
X143099700Y-90805000D01*
X143099700Y-87783000D02*
X143099700Y-90805000D01*
X143243100Y-87639600D02*
X143099700Y-87783000D01*
X147398800Y-87639600D02*
X143243100Y-87639600D01*
X147458800Y-87579600D02*
X147398800Y-87639600D01*
X148355300Y-87579600D02*
X147458800Y-87579600D01*
X148549600Y-87773900D02*
X148355300Y-87579600D01*
X157884000Y-87773900D02*
X148549600Y-87773900D01*
X158443300Y-88333200D02*
X157884000Y-87773900D01*
X158576400Y-88333200D02*
X158443300Y-88333200D01*
D20*
G36*
X175820000Y-119945069D02*
X175764521Y-120223981D01*
X175646145Y-120401144D01*
X175468979Y-120519522D01*
X175190070Y-120575000D01*
X174841026Y-120575000D01*
X175185183Y-120261358D01*
X175431486Y-119736892D01*
X175310819Y-119507000D01*
X174117000Y-119507000D01*
X174117000Y-119527000D01*
X173863000Y-119527000D01*
X173863000Y-119507000D01*
X173843000Y-119507000D01*
X173843000Y-119253000D01*
X173863000Y-119253000D01*
X173863000Y-119233000D01*
X174117000Y-119233000D01*
X174117000Y-119253000D01*
X175310819Y-119253000D01*
X175431486Y-119023108D01*
X175185183Y-118498642D01*
X174756924Y-118108355D01*
X174756899Y-118108345D01*
X175040054Y-117919147D01*
X175361961Y-117437378D01*
X175475000Y-116869093D01*
X175475000Y-116810907D01*
X175361961Y-116242622D01*
X175040054Y-115760853D01*
X174558285Y-115438946D01*
X173990000Y-115325907D01*
X173421715Y-115438946D01*
X172939946Y-115760853D01*
X172720000Y-116090026D01*
X172500054Y-115760853D01*
X172210000Y-115567046D01*
X172210000Y-113286954D01*
X172500054Y-113093147D01*
X172720000Y-112763974D01*
X172939946Y-113093147D01*
X173421715Y-113415054D01*
X173990000Y-113528093D01*
X174558285Y-113415054D01*
X175040054Y-113093147D01*
X175361961Y-112611378D01*
X175475000Y-112043093D01*
X175475000Y-111984907D01*
X175411771Y-111667031D01*
X175722801Y-111356001D01*
X175820000Y-111210532D01*
X175820000Y-119945069D01*
X175820000Y-119945069D01*
G37*
X175820000Y-119945069D02*
X175764521Y-120223981D01*
X175646145Y-120401144D01*
X175468979Y-120519522D01*
X175190070Y-120575000D01*
X174841026Y-120575000D01*
X175185183Y-120261358D01*
X175431486Y-119736892D01*
X175310819Y-119507000D01*
X174117000Y-119507000D01*
X174117000Y-119527000D01*
X173863000Y-119527000D01*
X173863000Y-119507000D01*
X173843000Y-119507000D01*
X173843000Y-119253000D01*
X173863000Y-119253000D01*
X173863000Y-119233000D01*
X174117000Y-119233000D01*
X174117000Y-119253000D01*
X175310819Y-119253000D01*
X175431486Y-119023108D01*
X175185183Y-118498642D01*
X174756924Y-118108355D01*
X174756899Y-118108345D01*
X175040054Y-117919147D01*
X175361961Y-117437378D01*
X175475000Y-116869093D01*
X175475000Y-116810907D01*
X175361961Y-116242622D01*
X175040054Y-115760853D01*
X174558285Y-115438946D01*
X173990000Y-115325907D01*
X173421715Y-115438946D01*
X172939946Y-115760853D01*
X172720000Y-116090026D01*
X172500054Y-115760853D01*
X172210000Y-115567046D01*
X172210000Y-113286954D01*
X172500054Y-113093147D01*
X172720000Y-112763974D01*
X172939946Y-113093147D01*
X173421715Y-113415054D01*
X173990000Y-113528093D01*
X174558285Y-113415054D01*
X175040054Y-113093147D01*
X175361961Y-112611378D01*
X175475000Y-112043093D01*
X175475000Y-111984907D01*
X175411771Y-111667031D01*
X175722801Y-111356001D01*
X175820000Y-111210532D01*
X175820000Y-119945069D01*
G36*
X136017000Y-119253000D02*
X136037000Y-119253000D01*
X136037000Y-119507000D01*
X136017000Y-119507000D01*
X136017000Y-119527000D01*
X135763000Y-119527000D01*
X135763000Y-119507000D01*
X135743000Y-119507000D01*
X135743000Y-119253000D01*
X135763000Y-119253000D01*
X135763000Y-119233000D01*
X136017000Y-119233000D01*
X136017000Y-119253000D01*
X136017000Y-119253000D01*
G37*
X136017000Y-119253000D02*
X136037000Y-119253000D01*
X136037000Y-119507000D01*
X136017000Y-119507000D01*
X136017000Y-119527000D01*
X135763000Y-119527000D01*
X135763000Y-119507000D01*
X135743000Y-119507000D01*
X135743000Y-119253000D01*
X135763000Y-119253000D01*
X135763000Y-119233000D01*
X136017000Y-119233000D01*
X136017000Y-119253000D01*
G36*
X156337000Y-119253000D02*
X156357000Y-119253000D01*
X156357000Y-119507000D01*
X156337000Y-119507000D01*
X156337000Y-119527000D01*
X156083000Y-119527000D01*
X156083000Y-119507000D01*
X156063000Y-119507000D01*
X156063000Y-119253000D01*
X156083000Y-119253000D01*
X156083000Y-119233000D01*
X156337000Y-119233000D01*
X156337000Y-119253000D01*
X156337000Y-119253000D01*
G37*
X156337000Y-119253000D02*
X156357000Y-119253000D01*
X156357000Y-119507000D01*
X156337000Y-119507000D01*
X156337000Y-119527000D01*
X156083000Y-119527000D01*
X156083000Y-119507000D01*
X156063000Y-119507000D01*
X156063000Y-119253000D01*
X156083000Y-119253000D01*
X156083000Y-119233000D01*
X156337000Y-119233000D01*
X156337000Y-119253000D01*
G36*
X141097000Y-111887000D02*
X141117000Y-111887000D01*
X141117000Y-112141000D01*
X141097000Y-112141000D01*
X141097000Y-113334155D01*
X141326890Y-113455476D01*
X141385300Y-113431283D01*
X141385300Y-115422717D01*
X141326890Y-115398524D01*
X141097000Y-115519845D01*
X141097000Y-116713000D01*
X141117000Y-116713000D01*
X141117000Y-116967000D01*
X141097000Y-116967000D01*
X141097000Y-116987000D01*
X140843000Y-116987000D01*
X140843000Y-116967000D01*
X140823000Y-116967000D01*
X140823000Y-116713000D01*
X140843000Y-116713000D01*
X140843000Y-115519845D01*
X140613110Y-115398524D01*
X140203076Y-115568355D01*
X139774817Y-115958642D01*
X139707702Y-116101553D01*
X139480054Y-115760853D01*
X138998285Y-115438946D01*
X138430000Y-115325907D01*
X137861715Y-115438946D01*
X137379946Y-115760853D01*
X137160000Y-116090026D01*
X136940054Y-115760853D01*
X136458285Y-115438946D01*
X135890000Y-115325907D01*
X135321715Y-115438946D01*
X135285300Y-115463278D01*
X135285300Y-113390722D01*
X135321715Y-113415054D01*
X135890000Y-113528093D01*
X136458285Y-113415054D01*
X136940054Y-113093147D01*
X137160000Y-112763974D01*
X137379946Y-113093147D01*
X137861715Y-113415054D01*
X138430000Y-113528093D01*
X138998285Y-113415054D01*
X139480054Y-113093147D01*
X139707702Y-112752447D01*
X139774817Y-112895358D01*
X140203076Y-113285645D01*
X140613110Y-113455476D01*
X140843000Y-113334155D01*
X140843000Y-112141000D01*
X140823000Y-112141000D01*
X140823000Y-111887000D01*
X140843000Y-111887000D01*
X140843000Y-111867000D01*
X141097000Y-111867000D01*
X141097000Y-111887000D01*
X141097000Y-111887000D01*
G37*
X141097000Y-111887000D02*
X141117000Y-111887000D01*
X141117000Y-112141000D01*
X141097000Y-112141000D01*
X141097000Y-113334155D01*
X141326890Y-113455476D01*
X141385300Y-113431283D01*
X141385300Y-115422717D01*
X141326890Y-115398524D01*
X141097000Y-115519845D01*
X141097000Y-116713000D01*
X141117000Y-116713000D01*
X141117000Y-116967000D01*
X141097000Y-116967000D01*
X141097000Y-116987000D01*
X140843000Y-116987000D01*
X140843000Y-116967000D01*
X140823000Y-116967000D01*
X140823000Y-116713000D01*
X140843000Y-116713000D01*
X140843000Y-115519845D01*
X140613110Y-115398524D01*
X140203076Y-115568355D01*
X139774817Y-115958642D01*
X139707702Y-116101553D01*
X139480054Y-115760853D01*
X138998285Y-115438946D01*
X138430000Y-115325907D01*
X137861715Y-115438946D01*
X137379946Y-115760853D01*
X137160000Y-116090026D01*
X136940054Y-115760853D01*
X136458285Y-115438946D01*
X135890000Y-115325907D01*
X135321715Y-115438946D01*
X135285300Y-115463278D01*
X135285300Y-113390722D01*
X135321715Y-113415054D01*
X135890000Y-113528093D01*
X136458285Y-113415054D01*
X136940054Y-113093147D01*
X137160000Y-112763974D01*
X137379946Y-113093147D01*
X137861715Y-113415054D01*
X138430000Y-113528093D01*
X138998285Y-113415054D01*
X139480054Y-113093147D01*
X139707702Y-112752447D01*
X139774817Y-112895358D01*
X140203076Y-113285645D01*
X140613110Y-113455476D01*
X140843000Y-113334155D01*
X140843000Y-112141000D01*
X140823000Y-112141000D01*
X140823000Y-111887000D01*
X140843000Y-111887000D01*
X140843000Y-111867000D01*
X141097000Y-111867000D01*
X141097000Y-111887000D01*
G36*
X148717000Y-111887000D02*
X148737000Y-111887000D01*
X148737000Y-112141000D01*
X148717000Y-112141000D01*
X148717000Y-113334155D01*
X148946890Y-113455476D01*
X149005300Y-113431283D01*
X149005300Y-115422717D01*
X148946890Y-115398524D01*
X148717000Y-115519845D01*
X148717000Y-116713000D01*
X148737000Y-116713000D01*
X148737000Y-116967000D01*
X148717000Y-116967000D01*
X148717000Y-116987000D01*
X148463000Y-116987000D01*
X148463000Y-116967000D01*
X148443000Y-116967000D01*
X148443000Y-116713000D01*
X148463000Y-116713000D01*
X148463000Y-115519845D01*
X148233110Y-115398524D01*
X147985300Y-115501164D01*
X147985300Y-113352836D01*
X148233110Y-113455476D01*
X148463000Y-113334155D01*
X148463000Y-112141000D01*
X148443000Y-112141000D01*
X148443000Y-111887000D01*
X148463000Y-111887000D01*
X148463000Y-111867000D01*
X148717000Y-111867000D01*
X148717000Y-111887000D01*
X148717000Y-111887000D01*
G37*
X148717000Y-111887000D02*
X148737000Y-111887000D01*
X148737000Y-112141000D01*
X148717000Y-112141000D01*
X148717000Y-113334155D01*
X148946890Y-113455476D01*
X149005300Y-113431283D01*
X149005300Y-115422717D01*
X148946890Y-115398524D01*
X148717000Y-115519845D01*
X148717000Y-116713000D01*
X148737000Y-116713000D01*
X148737000Y-116967000D01*
X148717000Y-116967000D01*
X148717000Y-116987000D01*
X148463000Y-116987000D01*
X148463000Y-116967000D01*
X148443000Y-116967000D01*
X148443000Y-116713000D01*
X148463000Y-116713000D01*
X148463000Y-115519845D01*
X148233110Y-115398524D01*
X147985300Y-115501164D01*
X147985300Y-113352836D01*
X148233110Y-113455476D01*
X148463000Y-113334155D01*
X148463000Y-112141000D01*
X148443000Y-112141000D01*
X148443000Y-111887000D01*
X148463000Y-111887000D01*
X148463000Y-111867000D01*
X148717000Y-111867000D01*
X148717000Y-111887000D01*
G36*
X161417000Y-111887000D02*
X161437000Y-111887000D01*
X161437000Y-112141000D01*
X161417000Y-112141000D01*
X161417000Y-113334155D01*
X161646890Y-113455476D01*
X162056924Y-113285645D01*
X162485183Y-112895358D01*
X162552298Y-112752447D01*
X162779946Y-113093147D01*
X163070000Y-113286954D01*
X163070000Y-115567046D01*
X162779946Y-115760853D01*
X162552298Y-116101553D01*
X162485183Y-115958642D01*
X162056924Y-115568355D01*
X161646890Y-115398524D01*
X161417000Y-115519845D01*
X161417000Y-116713000D01*
X161437000Y-116713000D01*
X161437000Y-116967000D01*
X161417000Y-116967000D01*
X161417000Y-116987000D01*
X161163000Y-116987000D01*
X161163000Y-116967000D01*
X161143000Y-116967000D01*
X161143000Y-116713000D01*
X161163000Y-116713000D01*
X161163000Y-115519845D01*
X160933110Y-115398524D01*
X160685300Y-115501164D01*
X160685300Y-113352836D01*
X160933110Y-113455476D01*
X161163000Y-113334155D01*
X161163000Y-112141000D01*
X161143000Y-112141000D01*
X161143000Y-111887000D01*
X161163000Y-111887000D01*
X161163000Y-111867000D01*
X161417000Y-111867000D01*
X161417000Y-111887000D01*
X161417000Y-111887000D01*
G37*
X161417000Y-111887000D02*
X161437000Y-111887000D01*
X161437000Y-112141000D01*
X161417000Y-112141000D01*
X161417000Y-113334155D01*
X161646890Y-113455476D01*
X162056924Y-113285645D01*
X162485183Y-112895358D01*
X162552298Y-112752447D01*
X162779946Y-113093147D01*
X163070000Y-113286954D01*
X163070000Y-115567046D01*
X162779946Y-115760853D01*
X162552298Y-116101553D01*
X162485183Y-115958642D01*
X162056924Y-115568355D01*
X161646890Y-115398524D01*
X161417000Y-115519845D01*
X161417000Y-116713000D01*
X161437000Y-116713000D01*
X161437000Y-116967000D01*
X161417000Y-116967000D01*
X161417000Y-116987000D01*
X161163000Y-116987000D01*
X161163000Y-116967000D01*
X161143000Y-116967000D01*
X161143000Y-116713000D01*
X161163000Y-116713000D01*
X161163000Y-115519845D01*
X160933110Y-115398524D01*
X160685300Y-115501164D01*
X160685300Y-113352836D01*
X160933110Y-113455476D01*
X161163000Y-113334155D01*
X161163000Y-112141000D01*
X161143000Y-112141000D01*
X161143000Y-111887000D01*
X161163000Y-111887000D01*
X161163000Y-111867000D01*
X161417000Y-111867000D01*
X161417000Y-111887000D01*
G36*
X130937000Y-111887000D02*
X130957000Y-111887000D01*
X130957000Y-112141000D01*
X130937000Y-112141000D01*
X130937000Y-113334155D01*
X131166890Y-113455476D01*
X131225300Y-113431283D01*
X131225300Y-115422717D01*
X131166890Y-115398524D01*
X130937000Y-115519845D01*
X130937000Y-116713000D01*
X130957000Y-116713000D01*
X130957000Y-116967000D01*
X130937000Y-116967000D01*
X130937000Y-116987000D01*
X130683000Y-116987000D01*
X130683000Y-116967000D01*
X130663000Y-116967000D01*
X130663000Y-116713000D01*
X130683000Y-116713000D01*
X130683000Y-115519845D01*
X130453110Y-115398524D01*
X130205300Y-115501164D01*
X130205300Y-113352836D01*
X130453110Y-113455476D01*
X130683000Y-113334155D01*
X130683000Y-112141000D01*
X130663000Y-112141000D01*
X130663000Y-111887000D01*
X130683000Y-111887000D01*
X130683000Y-111867000D01*
X130937000Y-111867000D01*
X130937000Y-111887000D01*
X130937000Y-111887000D01*
G37*
X130937000Y-111887000D02*
X130957000Y-111887000D01*
X130957000Y-112141000D01*
X130937000Y-112141000D01*
X130937000Y-113334155D01*
X131166890Y-113455476D01*
X131225300Y-113431283D01*
X131225300Y-115422717D01*
X131166890Y-115398524D01*
X130937000Y-115519845D01*
X130937000Y-116713000D01*
X130957000Y-116713000D01*
X130957000Y-116967000D01*
X130937000Y-116967000D01*
X130937000Y-116987000D01*
X130683000Y-116987000D01*
X130683000Y-116967000D01*
X130663000Y-116967000D01*
X130663000Y-116713000D01*
X130683000Y-116713000D01*
X130683000Y-115519845D01*
X130453110Y-115398524D01*
X130205300Y-115501164D01*
X130205300Y-113352836D01*
X130453110Y-113455476D01*
X130683000Y-113334155D01*
X130683000Y-112141000D01*
X130663000Y-112141000D01*
X130663000Y-111887000D01*
X130683000Y-111887000D01*
X130683000Y-111867000D01*
X130937000Y-111867000D01*
X130937000Y-111887000D01*
G36*
X166497000Y-111887000D02*
X166517000Y-111887000D01*
X166517000Y-112141000D01*
X166497000Y-112141000D01*
X166497000Y-113334155D01*
X166726890Y-113455476D01*
X167136924Y-113285645D01*
X167565183Y-112895358D01*
X167631789Y-112753530D01*
X167633210Y-112753812D01*
X167859946Y-113093147D01*
X168341715Y-113415054D01*
X168910000Y-113528093D01*
X169478285Y-113415054D01*
X169960054Y-113093147D01*
X170180000Y-112763974D01*
X170399946Y-113093147D01*
X170690000Y-113286954D01*
X170690000Y-115567046D01*
X170399946Y-115760853D01*
X170180000Y-116090026D01*
X169960054Y-115760853D01*
X169478285Y-115438946D01*
X168910000Y-115325907D01*
X168341715Y-115438946D01*
X167859946Y-115760853D01*
X167632298Y-116101553D01*
X167565183Y-115958642D01*
X167136924Y-115568355D01*
X166726890Y-115398524D01*
X166497000Y-115519845D01*
X166497000Y-116713000D01*
X166517000Y-116713000D01*
X166517000Y-116967000D01*
X166497000Y-116967000D01*
X166497000Y-116987000D01*
X166243000Y-116987000D01*
X166243000Y-116967000D01*
X166223000Y-116967000D01*
X166223000Y-116713000D01*
X166243000Y-116713000D01*
X166243000Y-115519845D01*
X166013110Y-115398524D01*
X165603076Y-115568355D01*
X165174817Y-115958642D01*
X165107702Y-116101553D01*
X164880054Y-115760853D01*
X164590000Y-115567046D01*
X164590000Y-113286954D01*
X164880054Y-113093147D01*
X165107702Y-112752447D01*
X165174817Y-112895358D01*
X165603076Y-113285645D01*
X166013110Y-113455476D01*
X166243000Y-113334155D01*
X166243000Y-112141000D01*
X166223000Y-112141000D01*
X166223000Y-111887000D01*
X166243000Y-111887000D01*
X166243000Y-111867000D01*
X166497000Y-111867000D01*
X166497000Y-111887000D01*
X166497000Y-111887000D01*
G37*
X166497000Y-111887000D02*
X166517000Y-111887000D01*
X166517000Y-112141000D01*
X166497000Y-112141000D01*
X166497000Y-113334155D01*
X166726890Y-113455476D01*
X167136924Y-113285645D01*
X167565183Y-112895358D01*
X167631789Y-112753530D01*
X167633210Y-112753812D01*
X167859946Y-113093147D01*
X168341715Y-113415054D01*
X168910000Y-113528093D01*
X169478285Y-113415054D01*
X169960054Y-113093147D01*
X170180000Y-112763974D01*
X170399946Y-113093147D01*
X170690000Y-113286954D01*
X170690000Y-115567046D01*
X170399946Y-115760853D01*
X170180000Y-116090026D01*
X169960054Y-115760853D01*
X169478285Y-115438946D01*
X168910000Y-115325907D01*
X168341715Y-115438946D01*
X167859946Y-115760853D01*
X167632298Y-116101553D01*
X167565183Y-115958642D01*
X167136924Y-115568355D01*
X166726890Y-115398524D01*
X166497000Y-115519845D01*
X166497000Y-116713000D01*
X166517000Y-116713000D01*
X166517000Y-116967000D01*
X166497000Y-116967000D01*
X166497000Y-116987000D01*
X166243000Y-116987000D01*
X166243000Y-116967000D01*
X166223000Y-116967000D01*
X166223000Y-116713000D01*
X166243000Y-116713000D01*
X166243000Y-115519845D01*
X166013110Y-115398524D01*
X165603076Y-115568355D01*
X165174817Y-115958642D01*
X165107702Y-116101553D01*
X164880054Y-115760853D01*
X164590000Y-115567046D01*
X164590000Y-113286954D01*
X164880054Y-113093147D01*
X165107702Y-112752447D01*
X165174817Y-112895358D01*
X165603076Y-113285645D01*
X166013110Y-113455476D01*
X166243000Y-113334155D01*
X166243000Y-112141000D01*
X166223000Y-112141000D01*
X166223000Y-111887000D01*
X166243000Y-111887000D01*
X166243000Y-111867000D01*
X166497000Y-111867000D01*
X166497000Y-111887000D01*
G36*
X158063460Y-108151962D02*
X157699946Y-108394853D01*
X157472298Y-108735553D01*
X157405183Y-108592642D01*
X156976924Y-108202355D01*
X156566890Y-108032524D01*
X156337000Y-108153845D01*
X156337000Y-109347000D01*
X156357000Y-109347000D01*
X156357000Y-109601000D01*
X156337000Y-109601000D01*
X156337000Y-109621000D01*
X156083000Y-109621000D01*
X156083000Y-109601000D01*
X156063000Y-109601000D01*
X156063000Y-109347000D01*
X156083000Y-109347000D01*
X156083000Y-108153845D01*
X155853110Y-108032524D01*
X155443076Y-108202355D01*
X155014817Y-108592642D01*
X154947702Y-108735553D01*
X154720054Y-108394853D01*
X154238285Y-108072946D01*
X153670000Y-107959907D01*
X153101715Y-108072946D01*
X152725276Y-108324474D01*
X149421402Y-105020600D01*
X154932098Y-105020600D01*
X158063460Y-108151962D01*
X158063460Y-108151962D01*
G37*
X158063460Y-108151962D02*
X157699946Y-108394853D01*
X157472298Y-108735553D01*
X157405183Y-108592642D01*
X156976924Y-108202355D01*
X156566890Y-108032524D01*
X156337000Y-108153845D01*
X156337000Y-109347000D01*
X156357000Y-109347000D01*
X156357000Y-109601000D01*
X156337000Y-109601000D01*
X156337000Y-109621000D01*
X156083000Y-109621000D01*
X156083000Y-109601000D01*
X156063000Y-109601000D01*
X156063000Y-109347000D01*
X156083000Y-109347000D01*
X156083000Y-108153845D01*
X155853110Y-108032524D01*
X155443076Y-108202355D01*
X155014817Y-108592642D01*
X154947702Y-108735553D01*
X154720054Y-108394853D01*
X154238285Y-108072946D01*
X153670000Y-107959907D01*
X153101715Y-108072946D01*
X152725276Y-108324474D01*
X149421402Y-105020600D01*
X154932098Y-105020600D01*
X158063460Y-108151962D01*
G36*
X174117000Y-109347000D02*
X174137000Y-109347000D01*
X174137000Y-109601000D01*
X174117000Y-109601000D01*
X174117000Y-109621000D01*
X173863000Y-109621000D01*
X173863000Y-109601000D01*
X173843000Y-109601000D01*
X173843000Y-109347000D01*
X173863000Y-109347000D01*
X173863000Y-109327000D01*
X174117000Y-109327000D01*
X174117000Y-109347000D01*
X174117000Y-109347000D01*
G37*
X174117000Y-109347000D02*
X174137000Y-109347000D01*
X174137000Y-109601000D01*
X174117000Y-109601000D01*
X174117000Y-109621000D01*
X173863000Y-109621000D01*
X173863000Y-109601000D01*
X173843000Y-109601000D01*
X173843000Y-109347000D01*
X173863000Y-109347000D01*
X173863000Y-109327000D01*
X174117000Y-109327000D01*
X174117000Y-109347000D01*
G36*
X138124473Y-107008792D02*
X138468001Y-107151438D01*
X138839967Y-107151762D01*
X138845300Y-107149558D01*
X138845300Y-108042515D01*
X138430000Y-107959907D01*
X137861715Y-108072946D01*
X137379946Y-108394853D01*
X137152298Y-108735553D01*
X137085183Y-108592642D01*
X136656924Y-108202355D01*
X136246890Y-108032524D01*
X136017000Y-108153845D01*
X136017000Y-109347000D01*
X136037000Y-109347000D01*
X136037000Y-109601000D01*
X136017000Y-109601000D01*
X136017000Y-109621000D01*
X135763000Y-109621000D01*
X135763000Y-109601000D01*
X135743000Y-109601000D01*
X135743000Y-109347000D01*
X135763000Y-109347000D01*
X135763000Y-108153845D01*
X135533110Y-108032524D01*
X135123076Y-108202355D01*
X134694817Y-108592642D01*
X134627702Y-108735553D01*
X134400054Y-108394853D01*
X134065075Y-108171027D01*
X134578302Y-107657800D01*
X136259837Y-107657800D01*
X136291973Y-107689992D01*
X136635501Y-107832638D01*
X137007467Y-107832962D01*
X137351243Y-107690917D01*
X137614492Y-107428127D01*
X137757138Y-107084599D01*
X137757232Y-106976600D01*
X138092337Y-106976600D01*
X138124473Y-107008792D01*
X138124473Y-107008792D01*
G37*
X138124473Y-107008792D02*
X138468001Y-107151438D01*
X138839967Y-107151762D01*
X138845300Y-107149558D01*
X138845300Y-108042515D01*
X138430000Y-107959907D01*
X137861715Y-108072946D01*
X137379946Y-108394853D01*
X137152298Y-108735553D01*
X137085183Y-108592642D01*
X136656924Y-108202355D01*
X136246890Y-108032524D01*
X136017000Y-108153845D01*
X136017000Y-109347000D01*
X136037000Y-109347000D01*
X136037000Y-109601000D01*
X136017000Y-109601000D01*
X136017000Y-109621000D01*
X135763000Y-109621000D01*
X135763000Y-109601000D01*
X135743000Y-109601000D01*
X135743000Y-109347000D01*
X135763000Y-109347000D01*
X135763000Y-108153845D01*
X135533110Y-108032524D01*
X135123076Y-108202355D01*
X134694817Y-108592642D01*
X134627702Y-108735553D01*
X134400054Y-108394853D01*
X134065075Y-108171027D01*
X134578302Y-107657800D01*
X136259837Y-107657800D01*
X136291973Y-107689992D01*
X136635501Y-107832638D01*
X137007467Y-107832962D01*
X137351243Y-107690917D01*
X137614492Y-107428127D01*
X137757138Y-107084599D01*
X137757232Y-106976600D01*
X138092337Y-106976600D01*
X138124473Y-107008792D01*
G36*
X167132000Y-85343000D02*
X168148000Y-85343000D01*
X168148000Y-85323000D01*
X168402000Y-85323000D01*
X168402000Y-85343000D01*
X168422000Y-85343000D01*
X168422000Y-85597000D01*
X168402000Y-85597000D01*
X168402000Y-86946250D01*
X168560750Y-87105000D01*
X168701310Y-87105000D01*
X168934699Y-87008327D01*
X169113327Y-86829698D01*
X169210000Y-86596309D01*
X169210000Y-85755750D01*
X169051252Y-85597002D01*
X169103300Y-85597002D01*
X170690000Y-87183702D01*
X170690000Y-103130699D01*
X170370853Y-103343946D01*
X170137695Y-103692893D01*
X168409600Y-101964798D01*
X168409600Y-96353850D01*
X168560750Y-96505000D01*
X168701310Y-96505000D01*
X168934699Y-96408327D01*
X169113327Y-96229698D01*
X169210000Y-95996309D01*
X169210000Y-95155750D01*
X169051250Y-94997000D01*
X168409600Y-94997000D01*
X168409600Y-94743000D01*
X169051250Y-94743000D01*
X169210000Y-94584250D01*
X169210000Y-93743691D01*
X169113327Y-93510302D01*
X168934699Y-93331673D01*
X168701310Y-93235000D01*
X168560750Y-93235000D01*
X168402000Y-93393750D01*
X168402000Y-93688593D01*
X168351748Y-93435961D01*
X168187001Y-93189399D01*
X162552902Y-87555300D01*
X163195000Y-87555300D01*
X163485839Y-87497448D01*
X163583950Y-87431893D01*
X163682061Y-87497448D01*
X163972900Y-87555300D01*
X165735000Y-87555300D01*
X166025839Y-87497448D01*
X166272401Y-87332701D01*
X166437148Y-87086139D01*
X166444456Y-87049398D01*
X166578690Y-87105000D01*
X166719250Y-87105000D01*
X166878000Y-86946250D01*
X166878000Y-85597000D01*
X167132000Y-85597000D01*
X167132000Y-86946250D01*
X167290750Y-87105000D01*
X167431310Y-87105000D01*
X167640000Y-87018558D01*
X167848690Y-87105000D01*
X167989250Y-87105000D01*
X168148000Y-86946250D01*
X168148000Y-85597000D01*
X167132000Y-85597000D01*
X166878000Y-85597000D01*
X166858000Y-85597000D01*
X166858000Y-85343000D01*
X166878000Y-85343000D01*
X166878000Y-85323000D01*
X167132000Y-85323000D01*
X167132000Y-85343000D01*
X167132000Y-85343000D01*
G37*
X167132000Y-85343000D02*
X168148000Y-85343000D01*
X168148000Y-85323000D01*
X168402000Y-85323000D01*
X168402000Y-85343000D01*
X168422000Y-85343000D01*
X168422000Y-85597000D01*
X168402000Y-85597000D01*
X168402000Y-86946250D01*
X168560750Y-87105000D01*
X168701310Y-87105000D01*
X168934699Y-87008327D01*
X169113327Y-86829698D01*
X169210000Y-86596309D01*
X169210000Y-85755750D01*
X169051252Y-85597002D01*
X169103300Y-85597002D01*
X170690000Y-87183702D01*
X170690000Y-103130699D01*
X170370853Y-103343946D01*
X170137695Y-103692893D01*
X168409600Y-101964798D01*
X168409600Y-96353850D01*
X168560750Y-96505000D01*
X168701310Y-96505000D01*
X168934699Y-96408327D01*
X169113327Y-96229698D01*
X169210000Y-95996309D01*
X169210000Y-95155750D01*
X169051250Y-94997000D01*
X168409600Y-94997000D01*
X168409600Y-94743000D01*
X169051250Y-94743000D01*
X169210000Y-94584250D01*
X169210000Y-93743691D01*
X169113327Y-93510302D01*
X168934699Y-93331673D01*
X168701310Y-93235000D01*
X168560750Y-93235000D01*
X168402000Y-93393750D01*
X168402000Y-93688593D01*
X168351748Y-93435961D01*
X168187001Y-93189399D01*
X162552902Y-87555300D01*
X163195000Y-87555300D01*
X163485839Y-87497448D01*
X163583950Y-87431893D01*
X163682061Y-87497448D01*
X163972900Y-87555300D01*
X165735000Y-87555300D01*
X166025839Y-87497448D01*
X166272401Y-87332701D01*
X166437148Y-87086139D01*
X166444456Y-87049398D01*
X166578690Y-87105000D01*
X166719250Y-87105000D01*
X166878000Y-86946250D01*
X166878000Y-85597000D01*
X167132000Y-85597000D01*
X167132000Y-86946250D01*
X167290750Y-87105000D01*
X167431310Y-87105000D01*
X167640000Y-87018558D01*
X167848690Y-87105000D01*
X167989250Y-87105000D01*
X168148000Y-86946250D01*
X168148000Y-85597000D01*
X167132000Y-85597000D01*
X166878000Y-85597000D01*
X166858000Y-85597000D01*
X166858000Y-85343000D01*
X166878000Y-85343000D01*
X166878000Y-85323000D01*
X167132000Y-85323000D01*
X167132000Y-85343000D01*
G36*
X137267600Y-86497102D02*
X137267600Y-87674198D01*
X137060300Y-87466898D01*
X137060300Y-86995000D01*
X137002448Y-86704161D01*
X136837701Y-86457599D01*
X136591139Y-86292852D01*
X136554398Y-86285544D01*
X136610000Y-86151310D01*
X136610000Y-86010750D01*
X136451252Y-85852002D01*
X136610000Y-85852002D01*
X136610000Y-85839502D01*
X137267600Y-86497102D01*
X137267600Y-86497102D01*
G37*
X137267600Y-86497102D02*
X137267600Y-87674198D01*
X137060300Y-87466898D01*
X137060300Y-86995000D01*
X137002448Y-86704161D01*
X136837701Y-86457599D01*
X136591139Y-86292852D01*
X136554398Y-86285544D01*
X136610000Y-86151310D01*
X136610000Y-86010750D01*
X136451252Y-85852002D01*
X136610000Y-85852002D01*
X136610000Y-85839502D01*
X137267600Y-86497102D01*
G36*
X145461299Y-82375001D02*
X145707861Y-82539748D01*
X145998700Y-82597600D01*
X156044118Y-82597600D01*
X155997362Y-82710201D01*
X155997038Y-83082167D01*
X156139083Y-83425943D01*
X156166313Y-83453220D01*
X156067162Y-83692001D01*
X156067014Y-83861444D01*
X155875000Y-83822560D01*
X155275000Y-83822560D01*
X155097485Y-83855962D01*
X155076439Y-83750159D01*
X154895434Y-83479266D01*
X154624541Y-83298261D01*
X154305000Y-83234700D01*
X151710634Y-83234700D01*
X151470199Y-83134862D01*
X151098233Y-83134538D01*
X150754457Y-83276583D01*
X150491208Y-83539373D01*
X150348562Y-83882901D01*
X150348238Y-84254867D01*
X150490283Y-84598643D01*
X150753073Y-84861892D01*
X151096601Y-85004538D01*
X151468567Y-85004862D01*
X151710978Y-84904700D01*
X153357560Y-84904700D01*
X153357560Y-86470000D01*
X153401838Y-86705317D01*
X153540910Y-86921441D01*
X153676228Y-87013900D01*
X148850348Y-87013900D01*
X148646139Y-86877452D01*
X148355300Y-86819600D01*
X147458800Y-86819600D01*
X147167961Y-86877452D01*
X147164746Y-86879600D01*
X146022440Y-86879600D01*
X146022440Y-86695000D01*
X145978162Y-86459683D01*
X145914322Y-86360472D01*
X145971431Y-86276890D01*
X146022440Y-86025000D01*
X146022440Y-85425000D01*
X145978162Y-85189683D01*
X145919822Y-85099020D01*
X146010000Y-84881310D01*
X146010000Y-84740750D01*
X145851250Y-84582000D01*
X144527000Y-84582000D01*
X144527000Y-84602000D01*
X144273000Y-84602000D01*
X144273000Y-84582000D01*
X144253000Y-84582000D01*
X144253000Y-84328000D01*
X144273000Y-84328000D01*
X144273000Y-83678750D01*
X144527000Y-83678750D01*
X144527000Y-84328000D01*
X145851250Y-84328000D01*
X146010000Y-84169250D01*
X146010000Y-84028690D01*
X145913327Y-83795301D01*
X145734698Y-83616673D01*
X145501309Y-83520000D01*
X144685750Y-83520000D01*
X144527000Y-83678750D01*
X144273000Y-83678750D01*
X144114250Y-83520000D01*
X143298691Y-83520000D01*
X143065302Y-83616673D01*
X142886673Y-83795301D01*
X142790000Y-84028690D01*
X142790000Y-84169250D01*
X142948748Y-84327998D01*
X142790000Y-84327998D01*
X142790000Y-84340498D01*
X140533600Y-82084098D01*
X140533600Y-79050227D01*
X140970000Y-79137032D01*
X141538285Y-79023993D01*
X141881178Y-78794880D01*
X145461299Y-82375001D01*
X145461299Y-82375001D01*
G37*
X145461299Y-82375001D02*
X145707861Y-82539748D01*
X145998700Y-82597600D01*
X156044118Y-82597600D01*
X155997362Y-82710201D01*
X155997038Y-83082167D01*
X156139083Y-83425943D01*
X156166313Y-83453220D01*
X156067162Y-83692001D01*
X156067014Y-83861444D01*
X155875000Y-83822560D01*
X155275000Y-83822560D01*
X155097485Y-83855962D01*
X155076439Y-83750159D01*
X154895434Y-83479266D01*
X154624541Y-83298261D01*
X154305000Y-83234700D01*
X151710634Y-83234700D01*
X151470199Y-83134862D01*
X151098233Y-83134538D01*
X150754457Y-83276583D01*
X150491208Y-83539373D01*
X150348562Y-83882901D01*
X150348238Y-84254867D01*
X150490283Y-84598643D01*
X150753073Y-84861892D01*
X151096601Y-85004538D01*
X151468567Y-85004862D01*
X151710978Y-84904700D01*
X153357560Y-84904700D01*
X153357560Y-86470000D01*
X153401838Y-86705317D01*
X153540910Y-86921441D01*
X153676228Y-87013900D01*
X148850348Y-87013900D01*
X148646139Y-86877452D01*
X148355300Y-86819600D01*
X147458800Y-86819600D01*
X147167961Y-86877452D01*
X147164746Y-86879600D01*
X146022440Y-86879600D01*
X146022440Y-86695000D01*
X145978162Y-86459683D01*
X145914322Y-86360472D01*
X145971431Y-86276890D01*
X146022440Y-86025000D01*
X146022440Y-85425000D01*
X145978162Y-85189683D01*
X145919822Y-85099020D01*
X146010000Y-84881310D01*
X146010000Y-84740750D01*
X145851250Y-84582000D01*
X144527000Y-84582000D01*
X144527000Y-84602000D01*
X144273000Y-84602000D01*
X144273000Y-84582000D01*
X144253000Y-84582000D01*
X144253000Y-84328000D01*
X144273000Y-84328000D01*
X144273000Y-83678750D01*
X144527000Y-83678750D01*
X144527000Y-84328000D01*
X145851250Y-84328000D01*
X146010000Y-84169250D01*
X146010000Y-84028690D01*
X145913327Y-83795301D01*
X145734698Y-83616673D01*
X145501309Y-83520000D01*
X144685750Y-83520000D01*
X144527000Y-83678750D01*
X144273000Y-83678750D01*
X144114250Y-83520000D01*
X143298691Y-83520000D01*
X143065302Y-83616673D01*
X142886673Y-83795301D01*
X142790000Y-84028690D01*
X142790000Y-84169250D01*
X142948748Y-84327998D01*
X142790000Y-84327998D01*
X142790000Y-84340498D01*
X140533600Y-82084098D01*
X140533600Y-79050227D01*
X140970000Y-79137032D01*
X141538285Y-79023993D01*
X141881178Y-78794880D01*
X145461299Y-82375001D01*
G36*
X135127000Y-85598000D02*
X135147000Y-85598000D01*
X135147000Y-85852000D01*
X135127000Y-85852000D01*
X135127000Y-85872000D01*
X134873000Y-85872000D01*
X134873000Y-85852000D01*
X134853000Y-85852000D01*
X134853000Y-85598000D01*
X134873000Y-85598000D01*
X134873000Y-85578000D01*
X135127000Y-85578000D01*
X135127000Y-85598000D01*
X135127000Y-85598000D01*
G37*
X135127000Y-85598000D02*
X135147000Y-85598000D01*
X135147000Y-85852000D01*
X135127000Y-85852000D01*
X135127000Y-85872000D01*
X134873000Y-85872000D01*
X134873000Y-85852000D01*
X134853000Y-85852000D01*
X134853000Y-85598000D01*
X134873000Y-85598000D01*
X134873000Y-85578000D01*
X135127000Y-85578000D01*
X135127000Y-85598000D01*
G36*
X153797000Y-62103000D02*
X153817000Y-62103000D01*
X153817000Y-62357000D01*
X153797000Y-62357000D01*
X153797000Y-63700155D01*
X154026890Y-63821476D01*
X154039260Y-63819553D01*
X154180000Y-63752011D01*
X154180000Y-65669498D01*
X148028999Y-71820499D01*
X147864252Y-72067061D01*
X147822156Y-72278691D01*
X147676890Y-72218524D01*
X147447000Y-72339845D01*
X147447000Y-73533000D01*
X147467000Y-73533000D01*
X147467000Y-73787000D01*
X147447000Y-73787000D01*
X147447000Y-73807000D01*
X147193000Y-73807000D01*
X147193000Y-73787000D01*
X147173000Y-73787000D01*
X147173000Y-73533000D01*
X147193000Y-73533000D01*
X147193000Y-72339845D01*
X146963110Y-72218524D01*
X146715400Y-72321122D01*
X146715400Y-64675400D01*
X146657548Y-64384561D01*
X146492801Y-64137999D01*
X146218348Y-63863546D01*
X146618285Y-63783993D01*
X147100054Y-63462086D01*
X147320000Y-63132913D01*
X147539946Y-63462086D01*
X148021715Y-63783993D01*
X148590000Y-63897032D01*
X149158285Y-63783993D01*
X149640054Y-63462086D01*
X149860000Y-63132913D01*
X150079946Y-63462086D01*
X150561715Y-63783993D01*
X151130000Y-63897032D01*
X151698285Y-63783993D01*
X152180054Y-63462086D01*
X152394653Y-63140915D01*
X152777955Y-63568664D01*
X153300740Y-63819553D01*
X153313110Y-63821476D01*
X153543000Y-63700155D01*
X153543000Y-62357000D01*
X153523000Y-62357000D01*
X153523000Y-62103000D01*
X153543000Y-62103000D01*
X153543000Y-62083000D01*
X153797000Y-62083000D01*
X153797000Y-62103000D01*
X153797000Y-62103000D01*
G37*
X153797000Y-62103000D02*
X153817000Y-62103000D01*
X153817000Y-62357000D01*
X153797000Y-62357000D01*
X153797000Y-63700155D01*
X154026890Y-63821476D01*
X154039260Y-63819553D01*
X154180000Y-63752011D01*
X154180000Y-65669498D01*
X148028999Y-71820499D01*
X147864252Y-72067061D01*
X147822156Y-72278691D01*
X147676890Y-72218524D01*
X147447000Y-72339845D01*
X147447000Y-73533000D01*
X147467000Y-73533000D01*
X147467000Y-73787000D01*
X147447000Y-73787000D01*
X147447000Y-73807000D01*
X147193000Y-73807000D01*
X147193000Y-73787000D01*
X147173000Y-73787000D01*
X147173000Y-73533000D01*
X147193000Y-73533000D01*
X147193000Y-72339845D01*
X146963110Y-72218524D01*
X146715400Y-72321122D01*
X146715400Y-64675400D01*
X146657548Y-64384561D01*
X146492801Y-64137999D01*
X146218348Y-63863546D01*
X146618285Y-63783993D01*
X147100054Y-63462086D01*
X147320000Y-63132913D01*
X147539946Y-63462086D01*
X148021715Y-63783993D01*
X148590000Y-63897032D01*
X149158285Y-63783993D01*
X149640054Y-63462086D01*
X149860000Y-63132913D01*
X150079946Y-63462086D01*
X150561715Y-63783993D01*
X151130000Y-63897032D01*
X151698285Y-63783993D01*
X152180054Y-63462086D01*
X152394653Y-63140915D01*
X152777955Y-63568664D01*
X153300740Y-63819553D01*
X153313110Y-63821476D01*
X153543000Y-63700155D01*
X153543000Y-62357000D01*
X153523000Y-62357000D01*
X153523000Y-62103000D01*
X153543000Y-62103000D01*
X153543000Y-62083000D01*
X153797000Y-62083000D01*
X153797000Y-62103000D01*
M02*
