G04 #@! TF.FileFunction,Soldermask,Top*
%FSLAX46Y46*%
G04 Gerber Fmt 4.6, Leading zero omitted, Abs format (unit mm)*
G04 Created by KiCad (PCBNEW 4.0.7) date 11/14/18 02:16:29*
%MOMM*%
%LPD*%
G01*
G04 APERTURE LIST*
%ADD10C,0.100000*%
%ADD11R,1.600000X1.150000*%
%ADD12R,3.000000X2.000000*%
%ADD13R,2.100000X2.100000*%
%ADD14O,2.100000X2.100000*%
%ADD15R,1.600000X1.300000*%
%ADD16R,2.350000X1.000000*%
%ADD17R,2.100000X2.400000*%
%ADD18O,2.100000X2.400000*%
G04 APERTURE END LIST*
D10*
D11*
X162240000Y-69850000D03*
X160340000Y-69850000D03*
D12*
X167110000Y-69850000D03*
X170710000Y-69850000D03*
D11*
X137480000Y-69850000D03*
X139380000Y-69850000D03*
D12*
X132610000Y-69850000D03*
X129010000Y-69850000D03*
D13*
X125730000Y-109474000D03*
D14*
X125730000Y-112014000D03*
X128270000Y-109474000D03*
X128270000Y-112014000D03*
X130810000Y-109474000D03*
X130810000Y-112014000D03*
X133350000Y-109474000D03*
X133350000Y-112014000D03*
X135890000Y-109474000D03*
X135890000Y-112014000D03*
X138430000Y-109474000D03*
X138430000Y-112014000D03*
X140970000Y-109474000D03*
X140970000Y-112014000D03*
X143510000Y-109474000D03*
X143510000Y-112014000D03*
X146050000Y-109474000D03*
X146050000Y-112014000D03*
X148590000Y-109474000D03*
X148590000Y-112014000D03*
X151130000Y-109474000D03*
X151130000Y-112014000D03*
X153670000Y-109474000D03*
X153670000Y-112014000D03*
X156210000Y-109474000D03*
X156210000Y-112014000D03*
X158750000Y-109474000D03*
X158750000Y-112014000D03*
X161290000Y-109474000D03*
X161290000Y-112014000D03*
X163830000Y-109474000D03*
X163830000Y-112014000D03*
X166370000Y-109474000D03*
X166370000Y-112014000D03*
X168910000Y-109474000D03*
X168910000Y-112014000D03*
X171450000Y-109474000D03*
X171450000Y-112014000D03*
X173990000Y-109474000D03*
X173990000Y-112014000D03*
D13*
X173990000Y-106934000D03*
D14*
X171450000Y-106934000D03*
X173990000Y-104394000D03*
X171450000Y-104394000D03*
D13*
X144780000Y-73660000D03*
D14*
X147320000Y-73660000D03*
X149860000Y-73660000D03*
X152400000Y-73660000D03*
X154940000Y-73660000D03*
D15*
X162390000Y-72390000D03*
X160190000Y-72390000D03*
X162390000Y-67310000D03*
X160190000Y-67310000D03*
X137330000Y-72390000D03*
X139530000Y-72390000D03*
X137330000Y-67310000D03*
X139530000Y-67310000D03*
D16*
X127380000Y-84455000D03*
X127380000Y-85725000D03*
X127380000Y-86995000D03*
X127380000Y-88265000D03*
X127380000Y-89535000D03*
X127380000Y-90805000D03*
X127380000Y-92075000D03*
X127380000Y-93345000D03*
X127380000Y-94615000D03*
X127380000Y-95885000D03*
X136780000Y-95885000D03*
X136780000Y-94615000D03*
X136780000Y-93345000D03*
X136780000Y-92075000D03*
X136780000Y-90805000D03*
X136780000Y-89535000D03*
X136780000Y-88265000D03*
X136780000Y-86995000D03*
X136780000Y-85725000D03*
X136780000Y-84455000D03*
X145160000Y-84455000D03*
X145160000Y-85725000D03*
X145160000Y-86995000D03*
X145160000Y-88265000D03*
X145160000Y-89535000D03*
X145160000Y-90805000D03*
X145160000Y-92075000D03*
X145160000Y-93345000D03*
X145160000Y-94615000D03*
X145160000Y-95885000D03*
X154560000Y-95885000D03*
X154560000Y-94615000D03*
X154560000Y-93345000D03*
X154560000Y-92075000D03*
X154560000Y-90805000D03*
X154560000Y-89535000D03*
X154560000Y-88265000D03*
X154560000Y-86995000D03*
X154560000Y-85725000D03*
X154560000Y-84455000D03*
D17*
X125730000Y-77470000D03*
D18*
X173990000Y-62230000D03*
X128270000Y-77470000D03*
X171450000Y-62230000D03*
X130810000Y-77470000D03*
X168910000Y-62230000D03*
X133350000Y-77470000D03*
X166370000Y-62230000D03*
X135890000Y-77470000D03*
X163830000Y-62230000D03*
X138430000Y-77470000D03*
X161290000Y-62230000D03*
X140970000Y-77470000D03*
X158750000Y-62230000D03*
X143510000Y-77470000D03*
X156210000Y-62230000D03*
X146050000Y-77470000D03*
X153670000Y-62230000D03*
X148590000Y-77470000D03*
X151130000Y-62230000D03*
X151130000Y-77470000D03*
X148590000Y-62230000D03*
X153670000Y-77470000D03*
X146050000Y-62230000D03*
X156210000Y-77470000D03*
X143510000Y-62230000D03*
X158750000Y-77470000D03*
X140970000Y-62230000D03*
X161290000Y-77470000D03*
X138430000Y-62230000D03*
X163830000Y-77470000D03*
X135890000Y-62230000D03*
X166370000Y-77470000D03*
X133350000Y-62230000D03*
X168910000Y-77470000D03*
X130810000Y-62230000D03*
X171450000Y-77470000D03*
X128270000Y-62230000D03*
X173990000Y-77470000D03*
X125730000Y-62230000D03*
D16*
X161670000Y-84455000D03*
X161670000Y-85725000D03*
X161670000Y-86995000D03*
X161670000Y-88265000D03*
X161670000Y-89535000D03*
X161670000Y-90805000D03*
X161670000Y-92075000D03*
X161670000Y-93345000D03*
X161670000Y-94615000D03*
X161670000Y-95885000D03*
X171070000Y-95885000D03*
X171070000Y-94615000D03*
X171070000Y-93345000D03*
X171070000Y-92075000D03*
X171070000Y-90805000D03*
X171070000Y-89535000D03*
X171070000Y-88265000D03*
X171070000Y-86995000D03*
X171070000Y-85725000D03*
X171070000Y-84455000D03*
M02*
