G04 #@! TF.FileFunction,Soldermask,Bot*
%FSLAX46Y46*%
G04 Gerber Fmt 4.6, Leading zero omitted, Abs format (unit mm)*
G04 Created by KiCad (PCBNEW 4.0.7) date 05/03/18 12:04:11*
%MOMM*%
%LPD*%
G01*
G04 APERTURE LIST*
%ADD10C,0.100000*%
%ADD11R,2.127200X2.127200*%
%ADD12O,2.127200X2.127200*%
%ADD13R,2.824000X11.460000*%
%ADD14R,1.600000X1.300000*%
%ADD15R,1.150000X1.600000*%
%ADD16R,1.000000X2.350000*%
%ADD17R,1.900000X1.000000*%
%ADD18R,1.162000X1.924000*%
%ADD19R,1.700000X1.900000*%
G04 APERTURE END LIST*
D10*
D11*
X180784000Y-126873000D03*
D12*
X178244000Y-126873000D03*
X180784000Y-124333000D03*
X178244000Y-124333000D03*
X180784000Y-121793000D03*
X178244000Y-121793000D03*
X180784000Y-119253000D03*
X178244000Y-119253000D03*
X180784000Y-116713000D03*
X178244000Y-116713000D03*
X180784000Y-114173000D03*
X178244000Y-114173000D03*
X180784000Y-111633000D03*
X178244000Y-111633000D03*
X180784000Y-109093000D03*
X178244000Y-109093000D03*
X180784000Y-106553000D03*
X178244000Y-106553000D03*
X180784000Y-104013000D03*
X178244000Y-104013000D03*
X180784000Y-101473000D03*
X178244000Y-101473000D03*
X180784000Y-98933000D03*
X178244000Y-98933000D03*
X180784000Y-96393000D03*
X178244000Y-96393000D03*
X180784000Y-93853000D03*
X178244000Y-93853000D03*
X180784000Y-91313000D03*
X178244000Y-91313000D03*
X180784000Y-88773000D03*
X178244000Y-88773000D03*
X180784000Y-86233000D03*
X178244000Y-86233000D03*
X180784000Y-83693000D03*
X178244000Y-83693000D03*
X180784000Y-81153000D03*
X178244000Y-81153000D03*
X180784000Y-78613000D03*
X178244000Y-78613000D03*
D13*
X178689000Y-137795000D03*
X176149000Y-137795000D03*
X173609000Y-137795000D03*
X171069000Y-137795000D03*
X168529000Y-137795000D03*
X165989000Y-137795000D03*
X163449000Y-137795000D03*
X160909000Y-137795000D03*
X158369000Y-137795000D03*
X155829000Y-137795000D03*
X153289000Y-137795000D03*
X150749000Y-137795000D03*
X148209000Y-137795000D03*
X145669000Y-137795000D03*
X143129000Y-137795000D03*
X140589000Y-137795000D03*
X138049000Y-137795000D03*
X135509000Y-137795000D03*
X132969000Y-137795000D03*
X130429000Y-137795000D03*
X127889000Y-137795000D03*
X125349000Y-137795000D03*
X122809000Y-137795000D03*
X120269000Y-137795000D03*
X117729000Y-137795000D03*
D14*
X171302000Y-72136000D03*
X173502000Y-72136000D03*
X171302000Y-73787000D03*
X173502000Y-73787000D03*
X171302000Y-75438000D03*
X173502000Y-75438000D03*
D15*
X158242000Y-118554000D03*
X158242000Y-116654000D03*
X137236000Y-114950000D03*
X137236000Y-116850000D03*
X161608000Y-118616000D03*
X161608000Y-116716000D03*
X137236000Y-121956000D03*
X137236000Y-120056000D03*
D16*
X154369000Y-122555000D03*
X153099000Y-122555000D03*
X151829000Y-122555000D03*
X150559000Y-122555000D03*
X149289000Y-122555000D03*
X148019000Y-122555000D03*
X146749000Y-122555000D03*
X145479000Y-122555000D03*
X144209000Y-122555000D03*
X142939000Y-122555000D03*
X142939000Y-113155000D03*
X144209000Y-113155000D03*
X145479000Y-113155000D03*
X146749000Y-113155000D03*
X148019000Y-113155000D03*
X149289000Y-113155000D03*
X150559000Y-113155000D03*
X151829000Y-113155000D03*
X153099000Y-113155000D03*
X154369000Y-113155000D03*
D11*
X159068000Y-74993500D03*
D12*
X159068000Y-72453500D03*
X156528000Y-74993500D03*
X156528000Y-72453500D03*
X153988000Y-74993500D03*
X153988000Y-72453500D03*
X151448000Y-74993500D03*
X151448000Y-72453500D03*
X148908000Y-74993500D03*
X148908000Y-72453500D03*
X146368000Y-74993500D03*
X146368000Y-72453500D03*
X143828000Y-74993500D03*
X143828000Y-72453500D03*
X141288000Y-74993500D03*
X141288000Y-72453500D03*
X138748000Y-74993500D03*
X138748000Y-72453500D03*
X136208000Y-74993500D03*
X136208000Y-72453500D03*
X133668000Y-74993500D03*
X133668000Y-72453500D03*
X131128000Y-74993500D03*
X131128000Y-72453500D03*
X128588000Y-74993500D03*
X128588000Y-72453500D03*
X126048000Y-74993500D03*
X126048000Y-72453500D03*
X123508000Y-74993500D03*
X123508000Y-72453500D03*
X120968000Y-74993500D03*
X120968000Y-72453500D03*
X118428000Y-74993500D03*
X118428000Y-72453500D03*
X115888000Y-74993500D03*
X115888000Y-72453500D03*
X113348000Y-74993500D03*
X113348000Y-72453500D03*
X110808000Y-74993500D03*
X110808000Y-72453500D03*
D17*
X170500000Y-114173000D03*
X170500000Y-115443000D03*
X170500000Y-116713000D03*
X170500000Y-117983000D03*
X170500000Y-119253000D03*
X170500000Y-120523000D03*
X170500000Y-121793000D03*
X165100000Y-121793000D03*
X165100000Y-120523000D03*
X165100000Y-119253000D03*
X165100000Y-117983000D03*
X165100000Y-116713000D03*
X165100000Y-115443000D03*
X165100000Y-114173000D03*
D18*
X134112000Y-121792000D03*
X132842000Y-121792000D03*
X131572000Y-121792000D03*
X130302000Y-121792000D03*
X129032000Y-121792000D03*
X127762000Y-121792000D03*
X126492000Y-121792000D03*
X125222000Y-121792000D03*
X123952000Y-121792000D03*
X122682000Y-121792000D03*
X121412000Y-121792000D03*
X120015000Y-121792000D03*
X134112000Y-114172000D03*
X132842000Y-114172000D03*
X131572000Y-114172000D03*
X130302000Y-114172000D03*
X129032000Y-114172000D03*
X127762000Y-114172000D03*
X126492000Y-114172000D03*
X125222000Y-114172000D03*
X123952000Y-114172000D03*
X122682000Y-114172000D03*
X121412000Y-114172000D03*
X120142000Y-114172000D03*
D19*
X137414000Y-106698000D03*
X137414000Y-109398000D03*
X140411000Y-106680000D03*
X140411000Y-109380000D03*
M02*
