G04 #@! TF.FileFunction,Profile,NP*
%FSLAX46Y46*%
G04 Gerber Fmt 4.6, Leading zero omitted, Abs format (unit mm)*
G04 Created by KiCad (PCBNEW 4.0.4-stable) date 01/09/17 01:48:13*
%MOMM*%
%LPD*%
G01*
G04 APERTURE LIST*
%ADD10C,0.100000*%
%ADD11C,0.150000*%
G04 APERTURE END LIST*
D10*
D11*
X179070000Y-113792000D02*
G75*
G03X179832000Y-113030000I0J762000D01*
G01*
X114808000Y-112699800D02*
G75*
G03X115849400Y-113792000I1066800J-25400D01*
G01*
X107823000Y-77952600D02*
X105435400Y-80365600D01*
X106781600Y-86563200D02*
X106781600Y-86588600D01*
X104648000Y-84429600D02*
X106781000Y-86563200D01*
X96443800Y-86080600D02*
X98069400Y-84429600D01*
X106781000Y-86563200D02*
X106781000Y-102616000D01*
X98069400Y-84429600D02*
X104648000Y-84429600D01*
X96443800Y-91567000D02*
X96443800Y-86080600D01*
X184505600Y-73990200D02*
X193802000Y-73990200D01*
X184505600Y-102616000D02*
X184505600Y-73990200D01*
X93805000Y-40513000D02*
X93805000Y-35000000D01*
X107823000Y-40513000D02*
X93805000Y-40513000D01*
X93805000Y-91567000D02*
X96443800Y-91567000D01*
X93805000Y-79883000D02*
X93805000Y-91567000D01*
X96443800Y-80365600D02*
X105435400Y-80365600D01*
X96443800Y-79883000D02*
X96443800Y-80365600D01*
X93805000Y-79883000D02*
X96443800Y-79883000D01*
X107823000Y-40513000D02*
X107823000Y-77952600D01*
X193802000Y-35000000D02*
X93805000Y-35000000D01*
X193802000Y-73990200D02*
X193802000Y-35000000D01*
X179832000Y-102616000D02*
X184505600Y-102616000D01*
X179832000Y-113030000D02*
X179832000Y-102616000D01*
X116078000Y-113792000D02*
X179070000Y-113792000D01*
X115849400Y-113792000D02*
X116078000Y-113792000D01*
X114808000Y-102616000D02*
X114808000Y-112699000D01*
X106781000Y-102616000D02*
X114808000Y-102616000D01*
M02*
