G04 #@! TF.FileFunction,Legend,Top*
%FSLAX46Y46*%
G04 Gerber Fmt 4.6, Leading zero omitted, Abs format (unit mm)*
G04 Created by KiCad (PCBNEW 4.0.7) date 03/01/18 16:16:53*
%MOMM*%
%LPD*%
G01*
G04 APERTURE LIST*
%ADD10C,0.100000*%
%ADD11C,1.000000*%
%ADD12C,0.300000*%
%ADD13C,0.250000*%
%ADD14C,0.120000*%
%ADD15C,0.150000*%
%ADD16C,0.010000*%
G04 APERTURE END LIST*
D10*
D11*
X123127358Y-71088524D02*
X125794024Y-71088524D01*
X123127358Y-75088524D01*
X125794024Y-75088524D01*
X127889263Y-72802810D02*
X127508310Y-72612333D01*
X127317834Y-72421857D01*
X127127358Y-72040905D01*
X127127358Y-71850429D01*
X127317834Y-71469476D01*
X127508310Y-71279000D01*
X127889263Y-71088524D01*
X128651167Y-71088524D01*
X129032120Y-71279000D01*
X129222596Y-71469476D01*
X129413072Y-71850429D01*
X129413072Y-72040905D01*
X129222596Y-72421857D01*
X129032120Y-72612333D01*
X128651167Y-72802810D01*
X127889263Y-72802810D01*
X127508310Y-72993286D01*
X127317834Y-73183762D01*
X127127358Y-73564714D01*
X127127358Y-74326619D01*
X127317834Y-74707571D01*
X127508310Y-74898048D01*
X127889263Y-75088524D01*
X128651167Y-75088524D01*
X129032120Y-74898048D01*
X129222596Y-74707571D01*
X129413072Y-74326619D01*
X129413072Y-73564714D01*
X129222596Y-73183762D01*
X129032120Y-72993286D01*
X128651167Y-72802810D01*
X131889263Y-71088524D02*
X132270215Y-71088524D01*
X132651167Y-71279000D01*
X132841644Y-71469476D01*
X133032120Y-71850429D01*
X133222596Y-72612333D01*
X133222596Y-73564714D01*
X133032120Y-74326619D01*
X132841644Y-74707571D01*
X132651167Y-74898048D01*
X132270215Y-75088524D01*
X131889263Y-75088524D01*
X131508310Y-74898048D01*
X131317834Y-74707571D01*
X131127358Y-74326619D01*
X130936882Y-73564714D01*
X130936882Y-72612333D01*
X131127358Y-71850429D01*
X131317834Y-71469476D01*
X131508310Y-71279000D01*
X131889263Y-71088524D01*
X134746406Y-73945667D02*
X136651168Y-73945667D01*
X134365453Y-75088524D02*
X135698787Y-71088524D01*
X137032120Y-75088524D01*
D12*
X119539430Y-107271429D02*
X119610859Y-107200000D01*
X119753716Y-107128571D01*
X120110859Y-107128571D01*
X120253716Y-107200000D01*
X120325145Y-107271429D01*
X120396573Y-107414286D01*
X120396573Y-107557143D01*
X120325145Y-107771429D01*
X119468002Y-108628571D01*
X120396573Y-108628571D01*
X121325144Y-107128571D02*
X121468001Y-107128571D01*
X121610858Y-107200000D01*
X121682287Y-107271429D01*
X121753716Y-107414286D01*
X121825144Y-107700000D01*
X121825144Y-108057143D01*
X121753716Y-108342857D01*
X121682287Y-108485714D01*
X121610858Y-108557143D01*
X121468001Y-108628571D01*
X121325144Y-108628571D01*
X121182287Y-108557143D01*
X121110858Y-108485714D01*
X121039430Y-108342857D01*
X120968001Y-108057143D01*
X120968001Y-107700000D01*
X121039430Y-107414286D01*
X121110858Y-107271429D01*
X121182287Y-107200000D01*
X121325144Y-107128571D01*
X123253715Y-108628571D02*
X122396572Y-108628571D01*
X122825144Y-108628571D02*
X122825144Y-107128571D01*
X122682287Y-107342857D01*
X122539429Y-107485714D01*
X122396572Y-107557143D01*
X124110858Y-107771429D02*
X123968000Y-107700000D01*
X123896572Y-107628571D01*
X123825143Y-107485714D01*
X123825143Y-107414286D01*
X123896572Y-107271429D01*
X123968000Y-107200000D01*
X124110858Y-107128571D01*
X124396572Y-107128571D01*
X124539429Y-107200000D01*
X124610858Y-107271429D01*
X124682286Y-107414286D01*
X124682286Y-107485714D01*
X124610858Y-107628571D01*
X124539429Y-107700000D01*
X124396572Y-107771429D01*
X124110858Y-107771429D01*
X123968000Y-107842857D01*
X123896572Y-107914286D01*
X123825143Y-108057143D01*
X123825143Y-108342857D01*
X123896572Y-108485714D01*
X123968000Y-108557143D01*
X124110858Y-108628571D01*
X124396572Y-108628571D01*
X124539429Y-108557143D01*
X124610858Y-108485714D01*
X124682286Y-108342857D01*
X124682286Y-108057143D01*
X124610858Y-107914286D01*
X124539429Y-107842857D01*
X124396572Y-107771429D01*
X125325143Y-108485714D02*
X125396571Y-108557143D01*
X125325143Y-108628571D01*
X125253714Y-108557143D01*
X125325143Y-108485714D01*
X125325143Y-108628571D01*
X125968000Y-107271429D02*
X126039429Y-107200000D01*
X126182286Y-107128571D01*
X126539429Y-107128571D01*
X126682286Y-107200000D01*
X126753715Y-107271429D01*
X126825143Y-107414286D01*
X126825143Y-107557143D01*
X126753715Y-107771429D01*
X125896572Y-108628571D01*
X126825143Y-108628571D01*
X127468000Y-108485714D02*
X127539428Y-108557143D01*
X127468000Y-108628571D01*
X127396571Y-108557143D01*
X127468000Y-108485714D01*
X127468000Y-108628571D01*
X128110857Y-107271429D02*
X128182286Y-107200000D01*
X128325143Y-107128571D01*
X128682286Y-107128571D01*
X128825143Y-107200000D01*
X128896572Y-107271429D01*
X128968000Y-107414286D01*
X128968000Y-107557143D01*
X128896572Y-107771429D01*
X128039429Y-108628571D01*
X128968000Y-108628571D01*
X129468000Y-107128571D02*
X130468000Y-107128571D01*
X129825143Y-108628571D01*
X144966429Y-92897144D02*
X144966429Y-93897144D01*
X143466429Y-93254287D01*
X144466429Y-95111429D02*
X143466429Y-95111429D01*
X145037857Y-94754286D02*
X143966429Y-94397143D01*
X143966429Y-95325715D01*
X143466429Y-95897143D02*
X144966429Y-95897143D01*
X144252143Y-95897143D02*
X144252143Y-96754286D01*
X143466429Y-96754286D02*
X144966429Y-96754286D01*
X143609286Y-98325715D02*
X143537857Y-98254286D01*
X143466429Y-98040000D01*
X143466429Y-97897143D01*
X143537857Y-97682858D01*
X143680714Y-97540000D01*
X143823571Y-97468572D01*
X144109286Y-97397143D01*
X144323571Y-97397143D01*
X144609286Y-97468572D01*
X144752143Y-97540000D01*
X144895000Y-97682858D01*
X144966429Y-97897143D01*
X144966429Y-98040000D01*
X144895000Y-98254286D01*
X144823571Y-98325715D01*
X144823571Y-98897143D02*
X144895000Y-98968572D01*
X144966429Y-99111429D01*
X144966429Y-99468572D01*
X144895000Y-99611429D01*
X144823571Y-99682858D01*
X144680714Y-99754286D01*
X144537857Y-99754286D01*
X144323571Y-99682858D01*
X143466429Y-98825715D01*
X143466429Y-99754286D01*
X144466429Y-101040000D02*
X143466429Y-101040000D01*
X145037857Y-100682857D02*
X143966429Y-100325714D01*
X143966429Y-101254286D01*
X144466429Y-102468571D02*
X143466429Y-102468571D01*
X145037857Y-102111428D02*
X143966429Y-101754285D01*
X143966429Y-102682857D01*
X125916429Y-92897144D02*
X125916429Y-93897144D01*
X124416429Y-93254287D01*
X125416429Y-95111429D02*
X124416429Y-95111429D01*
X125987857Y-94754286D02*
X124916429Y-94397143D01*
X124916429Y-95325715D01*
X124416429Y-95897143D02*
X125916429Y-95897143D01*
X125202143Y-95897143D02*
X125202143Y-96754286D01*
X124416429Y-96754286D02*
X125916429Y-96754286D01*
X124559286Y-98325715D02*
X124487857Y-98254286D01*
X124416429Y-98040000D01*
X124416429Y-97897143D01*
X124487857Y-97682858D01*
X124630714Y-97540000D01*
X124773571Y-97468572D01*
X125059286Y-97397143D01*
X125273571Y-97397143D01*
X125559286Y-97468572D01*
X125702143Y-97540000D01*
X125845000Y-97682858D01*
X125916429Y-97897143D01*
X125916429Y-98040000D01*
X125845000Y-98254286D01*
X125773571Y-98325715D01*
X125773571Y-98897143D02*
X125845000Y-98968572D01*
X125916429Y-99111429D01*
X125916429Y-99468572D01*
X125845000Y-99611429D01*
X125773571Y-99682858D01*
X125630714Y-99754286D01*
X125487857Y-99754286D01*
X125273571Y-99682858D01*
X124416429Y-98825715D01*
X124416429Y-99754286D01*
X125416429Y-101040000D02*
X124416429Y-101040000D01*
X125987857Y-100682857D02*
X124916429Y-100325714D01*
X124916429Y-101254286D01*
X125416429Y-102468571D02*
X124416429Y-102468571D01*
X125987857Y-102111428D02*
X124916429Y-101754285D01*
X124916429Y-102682857D01*
X106231429Y-92897144D02*
X106231429Y-93897144D01*
X104731429Y-93254287D01*
X105731429Y-95111429D02*
X104731429Y-95111429D01*
X106302857Y-94754286D02*
X105231429Y-94397143D01*
X105231429Y-95325715D01*
X104731429Y-95897143D02*
X106231429Y-95897143D01*
X105517143Y-95897143D02*
X105517143Y-96754286D01*
X104731429Y-96754286D02*
X106231429Y-96754286D01*
X104874286Y-98325715D02*
X104802857Y-98254286D01*
X104731429Y-98040000D01*
X104731429Y-97897143D01*
X104802857Y-97682858D01*
X104945714Y-97540000D01*
X105088571Y-97468572D01*
X105374286Y-97397143D01*
X105588571Y-97397143D01*
X105874286Y-97468572D01*
X106017143Y-97540000D01*
X106160000Y-97682858D01*
X106231429Y-97897143D01*
X106231429Y-98040000D01*
X106160000Y-98254286D01*
X106088571Y-98325715D01*
X106088571Y-98897143D02*
X106160000Y-98968572D01*
X106231429Y-99111429D01*
X106231429Y-99468572D01*
X106160000Y-99611429D01*
X106088571Y-99682858D01*
X105945714Y-99754286D01*
X105802857Y-99754286D01*
X105588571Y-99682858D01*
X104731429Y-98825715D01*
X104731429Y-99754286D01*
X105731429Y-101040000D02*
X104731429Y-101040000D01*
X106302857Y-100682857D02*
X105231429Y-100325714D01*
X105231429Y-101254286D01*
X105731429Y-102468571D02*
X104731429Y-102468571D01*
X106302857Y-102111428D02*
X105231429Y-101754285D01*
X105231429Y-102682857D01*
X107420359Y-85763571D02*
X106920359Y-85049286D01*
X106563216Y-85763571D02*
X106563216Y-84263571D01*
X107134644Y-84263571D01*
X107277502Y-84335000D01*
X107348930Y-84406429D01*
X107420359Y-84549286D01*
X107420359Y-84763571D01*
X107348930Y-84906429D01*
X107277502Y-84977857D01*
X107134644Y-85049286D01*
X106563216Y-85049286D01*
X108634644Y-85692143D02*
X108491787Y-85763571D01*
X108206073Y-85763571D01*
X108063216Y-85692143D01*
X107991787Y-85549286D01*
X107991787Y-84977857D01*
X108063216Y-84835000D01*
X108206073Y-84763571D01*
X108491787Y-84763571D01*
X108634644Y-84835000D01*
X108706073Y-84977857D01*
X108706073Y-85120714D01*
X107991787Y-85263571D01*
X109991787Y-85763571D02*
X109991787Y-84977857D01*
X109920358Y-84835000D01*
X109777501Y-84763571D01*
X109491787Y-84763571D01*
X109348930Y-84835000D01*
X109991787Y-85692143D02*
X109848930Y-85763571D01*
X109491787Y-85763571D01*
X109348930Y-85692143D01*
X109277501Y-85549286D01*
X109277501Y-85406429D01*
X109348930Y-85263571D01*
X109491787Y-85192143D01*
X109848930Y-85192143D01*
X109991787Y-85120714D01*
X110920359Y-85763571D02*
X110777501Y-85692143D01*
X110706073Y-85549286D01*
X110706073Y-84263571D01*
X112491787Y-84263571D02*
X113491787Y-84263571D01*
X112491787Y-85763571D01*
X113491787Y-85763571D01*
X114277501Y-84906429D02*
X114134643Y-84835000D01*
X114063215Y-84763571D01*
X113991786Y-84620714D01*
X113991786Y-84549286D01*
X114063215Y-84406429D01*
X114134643Y-84335000D01*
X114277501Y-84263571D01*
X114563215Y-84263571D01*
X114706072Y-84335000D01*
X114777501Y-84406429D01*
X114848929Y-84549286D01*
X114848929Y-84620714D01*
X114777501Y-84763571D01*
X114706072Y-84835000D01*
X114563215Y-84906429D01*
X114277501Y-84906429D01*
X114134643Y-84977857D01*
X114063215Y-85049286D01*
X113991786Y-85192143D01*
X113991786Y-85477857D01*
X114063215Y-85620714D01*
X114134643Y-85692143D01*
X114277501Y-85763571D01*
X114563215Y-85763571D01*
X114706072Y-85692143D01*
X114777501Y-85620714D01*
X114848929Y-85477857D01*
X114848929Y-85192143D01*
X114777501Y-85049286D01*
X114706072Y-84977857D01*
X114563215Y-84906429D01*
X115777500Y-84263571D02*
X115920357Y-84263571D01*
X116063214Y-84335000D01*
X116134643Y-84406429D01*
X116206072Y-84549286D01*
X116277500Y-84835000D01*
X116277500Y-85192143D01*
X116206072Y-85477857D01*
X116134643Y-85620714D01*
X116063214Y-85692143D01*
X115920357Y-85763571D01*
X115777500Y-85763571D01*
X115634643Y-85692143D01*
X115563214Y-85620714D01*
X115491786Y-85477857D01*
X115420357Y-85192143D01*
X115420357Y-84835000D01*
X115491786Y-84549286D01*
X115563214Y-84406429D01*
X115634643Y-84335000D01*
X115777500Y-84263571D01*
X118063214Y-85763571D02*
X118063214Y-84263571D01*
X118634642Y-84263571D01*
X118777500Y-84335000D01*
X118848928Y-84406429D01*
X118920357Y-84549286D01*
X118920357Y-84763571D01*
X118848928Y-84906429D01*
X118777500Y-84977857D01*
X118634642Y-85049286D01*
X118063214Y-85049286D01*
X119563214Y-85763571D02*
X119563214Y-84763571D01*
X119563214Y-85049286D02*
X119634642Y-84906429D01*
X119706071Y-84835000D01*
X119848928Y-84763571D01*
X119991785Y-84763571D01*
X120706071Y-85763571D02*
X120563213Y-85692143D01*
X120491785Y-85620714D01*
X120420356Y-85477857D01*
X120420356Y-85049286D01*
X120491785Y-84906429D01*
X120563213Y-84835000D01*
X120706071Y-84763571D01*
X120920356Y-84763571D01*
X121063213Y-84835000D01*
X121134642Y-84906429D01*
X121206071Y-85049286D01*
X121206071Y-85477857D01*
X121134642Y-85620714D01*
X121063213Y-85692143D01*
X120920356Y-85763571D01*
X120706071Y-85763571D01*
X122491785Y-85692143D02*
X122348928Y-85763571D01*
X122063214Y-85763571D01*
X121920356Y-85692143D01*
X121848928Y-85620714D01*
X121777499Y-85477857D01*
X121777499Y-85049286D01*
X121848928Y-84906429D01*
X121920356Y-84835000D01*
X122063214Y-84763571D01*
X122348928Y-84763571D01*
X122491785Y-84835000D01*
X123706070Y-85692143D02*
X123563213Y-85763571D01*
X123277499Y-85763571D01*
X123134642Y-85692143D01*
X123063213Y-85549286D01*
X123063213Y-84977857D01*
X123134642Y-84835000D01*
X123277499Y-84763571D01*
X123563213Y-84763571D01*
X123706070Y-84835000D01*
X123777499Y-84977857D01*
X123777499Y-85120714D01*
X123063213Y-85263571D01*
X124348927Y-85692143D02*
X124491784Y-85763571D01*
X124777499Y-85763571D01*
X124920356Y-85692143D01*
X124991784Y-85549286D01*
X124991784Y-85477857D01*
X124920356Y-85335000D01*
X124777499Y-85263571D01*
X124563213Y-85263571D01*
X124420356Y-85192143D01*
X124348927Y-85049286D01*
X124348927Y-84977857D01*
X124420356Y-84835000D01*
X124563213Y-84763571D01*
X124777499Y-84763571D01*
X124920356Y-84835000D01*
X125563213Y-85692143D02*
X125706070Y-85763571D01*
X125991785Y-85763571D01*
X126134642Y-85692143D01*
X126206070Y-85549286D01*
X126206070Y-85477857D01*
X126134642Y-85335000D01*
X125991785Y-85263571D01*
X125777499Y-85263571D01*
X125634642Y-85192143D01*
X125563213Y-85049286D01*
X125563213Y-84977857D01*
X125634642Y-84835000D01*
X125777499Y-84763571D01*
X125991785Y-84763571D01*
X126134642Y-84835000D01*
X127063214Y-85763571D02*
X126920356Y-85692143D01*
X126848928Y-85620714D01*
X126777499Y-85477857D01*
X126777499Y-85049286D01*
X126848928Y-84906429D01*
X126920356Y-84835000D01*
X127063214Y-84763571D01*
X127277499Y-84763571D01*
X127420356Y-84835000D01*
X127491785Y-84906429D01*
X127563214Y-85049286D01*
X127563214Y-85477857D01*
X127491785Y-85620714D01*
X127420356Y-85692143D01*
X127277499Y-85763571D01*
X127063214Y-85763571D01*
X128206071Y-85763571D02*
X128206071Y-84763571D01*
X128206071Y-85049286D02*
X128277499Y-84906429D01*
X128348928Y-84835000D01*
X128491785Y-84763571D01*
X128634642Y-84763571D01*
X130277499Y-84977857D02*
X130777499Y-84977857D01*
X130991785Y-85763571D02*
X130277499Y-85763571D01*
X130277499Y-84263571D01*
X130991785Y-84263571D01*
X131634642Y-84763571D02*
X131634642Y-85763571D01*
X131634642Y-84906429D02*
X131706070Y-84835000D01*
X131848928Y-84763571D01*
X132063213Y-84763571D01*
X132206070Y-84835000D01*
X132277499Y-84977857D01*
X132277499Y-85763571D01*
X133634642Y-84763571D02*
X133634642Y-85977857D01*
X133563213Y-86120714D01*
X133491785Y-86192143D01*
X133348928Y-86263571D01*
X133134642Y-86263571D01*
X132991785Y-86192143D01*
X133634642Y-85692143D02*
X133491785Y-85763571D01*
X133206071Y-85763571D01*
X133063213Y-85692143D01*
X132991785Y-85620714D01*
X132920356Y-85477857D01*
X132920356Y-85049286D01*
X132991785Y-84906429D01*
X133063213Y-84835000D01*
X133206071Y-84763571D01*
X133491785Y-84763571D01*
X133634642Y-84835000D01*
X134348928Y-85763571D02*
X134348928Y-84763571D01*
X134348928Y-84263571D02*
X134277499Y-84335000D01*
X134348928Y-84406429D01*
X134420356Y-84335000D01*
X134348928Y-84263571D01*
X134348928Y-84406429D01*
X135063214Y-84763571D02*
X135063214Y-85763571D01*
X135063214Y-84906429D02*
X135134642Y-84835000D01*
X135277500Y-84763571D01*
X135491785Y-84763571D01*
X135634642Y-84835000D01*
X135706071Y-84977857D01*
X135706071Y-85763571D01*
X136991785Y-85692143D02*
X136848928Y-85763571D01*
X136563214Y-85763571D01*
X136420357Y-85692143D01*
X136348928Y-85549286D01*
X136348928Y-84977857D01*
X136420357Y-84835000D01*
X136563214Y-84763571D01*
X136848928Y-84763571D01*
X136991785Y-84835000D01*
X137063214Y-84977857D01*
X137063214Y-85120714D01*
X136348928Y-85263571D01*
X138634642Y-84263571D02*
X139134642Y-85763571D01*
X139634642Y-84263571D01*
X140920356Y-85763571D02*
X140063213Y-85763571D01*
X140491785Y-85763571D02*
X140491785Y-84263571D01*
X140348928Y-84477857D01*
X140206070Y-84620714D01*
X140063213Y-84692143D01*
X141563213Y-85620714D02*
X141634641Y-85692143D01*
X141563213Y-85763571D01*
X141491784Y-85692143D01*
X141563213Y-85620714D01*
X141563213Y-85763571D01*
X142563213Y-84263571D02*
X142706070Y-84263571D01*
X142848927Y-84335000D01*
X142920356Y-84406429D01*
X142991785Y-84549286D01*
X143063213Y-84835000D01*
X143063213Y-85192143D01*
X142991785Y-85477857D01*
X142920356Y-85620714D01*
X142848927Y-85692143D01*
X142706070Y-85763571D01*
X142563213Y-85763571D01*
X142420356Y-85692143D01*
X142348927Y-85620714D01*
X142277499Y-85477857D01*
X142206070Y-85192143D01*
X142206070Y-84835000D01*
X142277499Y-84549286D01*
X142348927Y-84406429D01*
X142420356Y-84335000D01*
X142563213Y-84263571D01*
X120170358Y-88813571D02*
X119813215Y-88813571D01*
X119813215Y-86670714D01*
X120170358Y-86670714D01*
X120598930Y-86813571D02*
X121598930Y-86813571D01*
X120598930Y-88313571D01*
X121598930Y-88313571D01*
X122384644Y-87456429D02*
X122241786Y-87385000D01*
X122170358Y-87313571D01*
X122098929Y-87170714D01*
X122098929Y-87099286D01*
X122170358Y-86956429D01*
X122241786Y-86885000D01*
X122384644Y-86813571D01*
X122670358Y-86813571D01*
X122813215Y-86885000D01*
X122884644Y-86956429D01*
X122956072Y-87099286D01*
X122956072Y-87170714D01*
X122884644Y-87313571D01*
X122813215Y-87385000D01*
X122670358Y-87456429D01*
X122384644Y-87456429D01*
X122241786Y-87527857D01*
X122170358Y-87599286D01*
X122098929Y-87742143D01*
X122098929Y-88027857D01*
X122170358Y-88170714D01*
X122241786Y-88242143D01*
X122384644Y-88313571D01*
X122670358Y-88313571D01*
X122813215Y-88242143D01*
X122884644Y-88170714D01*
X122956072Y-88027857D01*
X122956072Y-87742143D01*
X122884644Y-87599286D01*
X122813215Y-87527857D01*
X122670358Y-87456429D01*
X123884643Y-86813571D02*
X124027500Y-86813571D01*
X124170357Y-86885000D01*
X124241786Y-86956429D01*
X124313215Y-87099286D01*
X124384643Y-87385000D01*
X124384643Y-87742143D01*
X124313215Y-88027857D01*
X124241786Y-88170714D01*
X124170357Y-88242143D01*
X124027500Y-88313571D01*
X123884643Y-88313571D01*
X123741786Y-88242143D01*
X123670357Y-88170714D01*
X123598929Y-88027857D01*
X123527500Y-87742143D01*
X123527500Y-87385000D01*
X123598929Y-87099286D01*
X123670357Y-86956429D01*
X123741786Y-86885000D01*
X123884643Y-86813571D01*
X125527500Y-87527857D02*
X125741786Y-87599286D01*
X125813214Y-87670714D01*
X125884643Y-87813571D01*
X125884643Y-88027857D01*
X125813214Y-88170714D01*
X125741786Y-88242143D01*
X125598928Y-88313571D01*
X125027500Y-88313571D01*
X125027500Y-86813571D01*
X125527500Y-86813571D01*
X125670357Y-86885000D01*
X125741786Y-86956429D01*
X125813214Y-87099286D01*
X125813214Y-87242143D01*
X125741786Y-87385000D01*
X125670357Y-87456429D01*
X125527500Y-87527857D01*
X125027500Y-87527857D01*
X126813214Y-86813571D02*
X127098928Y-86813571D01*
X127241786Y-86885000D01*
X127384643Y-87027857D01*
X127456071Y-87313571D01*
X127456071Y-87813571D01*
X127384643Y-88099286D01*
X127241786Y-88242143D01*
X127098928Y-88313571D01*
X126813214Y-88313571D01*
X126670357Y-88242143D01*
X126527500Y-88099286D01*
X126456071Y-87813571D01*
X126456071Y-87313571D01*
X126527500Y-87027857D01*
X126670357Y-86885000D01*
X126813214Y-86813571D01*
X127956072Y-86813571D02*
X128956072Y-88313571D01*
X128956072Y-86813571D02*
X127956072Y-88313571D01*
X129384643Y-88813571D02*
X129741786Y-88813571D01*
X129741786Y-86670714D01*
X129384643Y-86670714D01*
D13*
X94972381Y-69667381D02*
X94972381Y-68667381D01*
X95639047Y-68667381D02*
X95829524Y-68667381D01*
X95924762Y-68715000D01*
X96020000Y-68810238D01*
X96067619Y-69000714D01*
X96067619Y-69334048D01*
X96020000Y-69524524D01*
X95924762Y-69619762D01*
X95829524Y-69667381D01*
X95639047Y-69667381D01*
X95543809Y-69619762D01*
X95448571Y-69524524D01*
X95400952Y-69334048D01*
X95400952Y-69000714D01*
X95448571Y-68810238D01*
X95543809Y-68715000D01*
X95639047Y-68667381D01*
X97067619Y-69667381D02*
X96734285Y-69191190D01*
X96496190Y-69667381D02*
X96496190Y-68667381D01*
X96877143Y-68667381D01*
X96972381Y-68715000D01*
X97020000Y-68762619D01*
X97067619Y-68857857D01*
X97067619Y-69000714D01*
X97020000Y-69095952D01*
X96972381Y-69143571D01*
X96877143Y-69191190D01*
X96496190Y-69191190D01*
X98162857Y-69762619D02*
X98067619Y-69715000D01*
X97972381Y-69619762D01*
X97829524Y-69476905D01*
X97734285Y-69429286D01*
X97639047Y-69429286D01*
X97686666Y-69667381D02*
X97591428Y-69619762D01*
X97496190Y-69524524D01*
X97448571Y-69334048D01*
X97448571Y-69000714D01*
X97496190Y-68810238D01*
X97591428Y-68715000D01*
X97686666Y-68667381D01*
X97877143Y-68667381D01*
X97972381Y-68715000D01*
X98067619Y-68810238D01*
X98115238Y-69000714D01*
X98115238Y-69334048D01*
X98067619Y-69524524D01*
X97972381Y-69619762D01*
X97877143Y-69667381D01*
X97686666Y-69667381D01*
X94710476Y-78049381D02*
X94710476Y-77049381D01*
X95043810Y-77763667D01*
X95377143Y-77049381D01*
X95377143Y-78049381D01*
X96424762Y-78049381D02*
X96091428Y-77573190D01*
X95853333Y-78049381D02*
X95853333Y-77049381D01*
X96234286Y-77049381D01*
X96329524Y-77097000D01*
X96377143Y-77144619D01*
X96424762Y-77239857D01*
X96424762Y-77382714D01*
X96377143Y-77477952D01*
X96329524Y-77525571D01*
X96234286Y-77573190D01*
X95853333Y-77573190D01*
X96853333Y-77525571D02*
X97186667Y-77525571D01*
X97329524Y-78049381D02*
X96853333Y-78049381D01*
X96853333Y-77049381D01*
X97329524Y-77049381D01*
X98424762Y-78144619D02*
X98329524Y-78097000D01*
X98234286Y-78001762D01*
X98091429Y-77858905D01*
X97996190Y-77811286D01*
X97900952Y-77811286D01*
X97948571Y-78049381D02*
X97853333Y-78001762D01*
X97758095Y-77906524D01*
X97710476Y-77716048D01*
X97710476Y-77382714D01*
X97758095Y-77192238D01*
X97853333Y-77097000D01*
X97948571Y-77049381D01*
X98139048Y-77049381D01*
X98234286Y-77097000D01*
X98329524Y-77192238D01*
X98377143Y-77382714D01*
X98377143Y-77716048D01*
X98329524Y-77906524D01*
X98234286Y-78001762D01*
X98139048Y-78049381D01*
X97948571Y-78049381D01*
X153249429Y-68730881D02*
X153487524Y-69730881D01*
X153678001Y-69016595D01*
X153868477Y-69730881D01*
X154106572Y-68730881D01*
X155058953Y-69730881D02*
X154725619Y-69254690D01*
X154487524Y-69730881D02*
X154487524Y-68730881D01*
X154868477Y-68730881D01*
X154963715Y-68778500D01*
X155011334Y-68826119D01*
X155058953Y-68921357D01*
X155058953Y-69064214D01*
X155011334Y-69159452D01*
X154963715Y-69207071D01*
X154868477Y-69254690D01*
X154487524Y-69254690D01*
X154178024Y-78049381D02*
X153844690Y-77573190D01*
X153606595Y-78049381D02*
X153606595Y-77049381D01*
X153987548Y-77049381D01*
X154082786Y-77097000D01*
X154130405Y-77144619D01*
X154178024Y-77239857D01*
X154178024Y-77382714D01*
X154130405Y-77477952D01*
X154082786Y-77525571D01*
X153987548Y-77573190D01*
X153606595Y-77573190D01*
X154606595Y-78049381D02*
X154606595Y-77049381D01*
X154844690Y-77049381D01*
X154987548Y-77097000D01*
X155082786Y-77192238D01*
X155130405Y-77287476D01*
X155178024Y-77477952D01*
X155178024Y-77620810D01*
X155130405Y-77811286D01*
X155082786Y-77906524D01*
X154987548Y-78001762D01*
X154844690Y-78049381D01*
X154606595Y-78049381D01*
D14*
X99762000Y-72406000D02*
G75*
G02X99762000Y-74406000I0J-1000000D01*
G01*
X99762000Y-74406000D02*
X99762000Y-79866000D01*
X99762000Y-79866000D02*
X150682000Y-79866000D01*
X150682000Y-79866000D02*
X150682000Y-66946000D01*
X150682000Y-66946000D02*
X99762000Y-66946000D01*
X99762000Y-66946000D02*
X99762000Y-72406000D01*
X99702000Y-82356000D02*
X150742000Y-82356000D01*
X150742000Y-82356000D02*
X150742000Y-64456000D01*
X150742000Y-64456000D02*
X99702000Y-64456000D01*
X99702000Y-64456000D02*
X99702000Y-82356000D01*
D15*
X140270000Y-91215000D02*
X140270000Y-91465000D01*
X148020000Y-91215000D02*
X148020000Y-91550000D01*
X148020000Y-104365000D02*
X148020000Y-104030000D01*
X140270000Y-104365000D02*
X140270000Y-104030000D01*
X140270000Y-91215000D02*
X148020000Y-91215000D01*
X140270000Y-104365000D02*
X148020000Y-104365000D01*
X140270000Y-91465000D02*
X138470000Y-91465000D01*
X102297000Y-91215000D02*
X102297000Y-91465000D01*
X110047000Y-91215000D02*
X110047000Y-91550000D01*
X110047000Y-104365000D02*
X110047000Y-104030000D01*
X102297000Y-104365000D02*
X102297000Y-104030000D01*
X102297000Y-91215000D02*
X110047000Y-91215000D01*
X102297000Y-104365000D02*
X110047000Y-104365000D01*
X102297000Y-91465000D02*
X100497000Y-91465000D01*
X121220000Y-91215000D02*
X121220000Y-91465000D01*
X128970000Y-91215000D02*
X128970000Y-91550000D01*
X128970000Y-104365000D02*
X128970000Y-104030000D01*
X121220000Y-104365000D02*
X121220000Y-104030000D01*
X121220000Y-91215000D02*
X128970000Y-91215000D01*
X121220000Y-104365000D02*
X128970000Y-104365000D01*
X121220000Y-91465000D02*
X119420000Y-91465000D01*
D14*
X95520000Y-74815000D02*
X98720000Y-74815000D01*
X98720000Y-76315000D02*
X95520000Y-76315000D01*
X98720000Y-76315000D02*
X98720000Y-74815000D01*
X95520000Y-70370000D02*
X98720000Y-70370000D01*
X98720000Y-71870000D02*
X95520000Y-71870000D01*
X98720000Y-71870000D02*
X98720000Y-70370000D01*
X155305000Y-76315000D02*
X152105000Y-76315000D01*
X152105000Y-74815000D02*
X155305000Y-74815000D01*
X152105000Y-74815000D02*
X152105000Y-76315000D01*
X155305000Y-71870000D02*
X152105000Y-71870000D01*
X152105000Y-70370000D02*
X155305000Y-70370000D01*
X152105000Y-70370000D02*
X152105000Y-71870000D01*
D16*
G36*
X118038241Y-67666784D02*
X118262400Y-67685980D01*
X118448293Y-67705050D01*
X118649018Y-67728362D01*
X118850382Y-67753973D01*
X119038192Y-67779936D01*
X119198254Y-67804308D01*
X119316377Y-67825144D01*
X119370778Y-67837847D01*
X119430918Y-67889560D01*
X119467751Y-67991111D01*
X119481563Y-68128845D01*
X119472637Y-68289105D01*
X119441258Y-68458239D01*
X119387709Y-68622590D01*
X119352867Y-68698400D01*
X119281397Y-68812321D01*
X119203010Y-68874409D01*
X119103999Y-68888302D01*
X118970661Y-68857640D01*
X118879893Y-68823970D01*
X118425646Y-68673582D01*
X117926080Y-68565527D01*
X117387974Y-68498853D01*
X116818109Y-68472605D01*
X116223262Y-68485830D01*
X115610212Y-68537577D01*
X114985739Y-68626891D01*
X114356621Y-68752820D01*
X113729637Y-68914411D01*
X113111567Y-69110710D01*
X112509188Y-69340764D01*
X111929281Y-69603621D01*
X111423790Y-69872253D01*
X110981493Y-70139903D01*
X110589339Y-70409446D01*
X110230679Y-70694037D01*
X109888867Y-71006834D01*
X109566397Y-71340133D01*
X109227164Y-71750998D01*
X108940602Y-72186070D01*
X108707849Y-72639757D01*
X108530038Y-73106467D01*
X108408308Y-73580607D01*
X108343792Y-74056585D01*
X108337626Y-74528808D01*
X108390947Y-74991685D01*
X108504891Y-75439623D01*
X108656904Y-75818465D01*
X108885372Y-76219979D01*
X109173965Y-76597017D01*
X109518841Y-76947386D01*
X109916162Y-77268893D01*
X110362088Y-77559344D01*
X110852780Y-77816548D01*
X111384399Y-78038311D01*
X111953105Y-78222441D01*
X112555058Y-78366744D01*
X113186421Y-78469029D01*
X113326425Y-78485407D01*
X113555069Y-78503896D01*
X113830273Y-78515919D01*
X114134266Y-78521582D01*
X114449277Y-78520993D01*
X114757536Y-78514256D01*
X115041272Y-78501478D01*
X115282715Y-78482765D01*
X115366800Y-78473217D01*
X116057928Y-78357582D01*
X116718873Y-78192597D01*
X117343761Y-77980254D01*
X117926724Y-77722545D01*
X118456507Y-77424861D01*
X118943803Y-77080169D01*
X119378609Y-76695244D01*
X119759244Y-76272936D01*
X120084027Y-75816092D01*
X120351277Y-75327560D01*
X120559314Y-74810189D01*
X120706458Y-74266826D01*
X120791026Y-73700319D01*
X120808168Y-73439866D01*
X120814788Y-73196858D01*
X120810558Y-73001055D01*
X120792613Y-72832403D01*
X120758091Y-72670846D01*
X120704126Y-72496330D01*
X120653405Y-72356133D01*
X120508040Y-72053926D01*
X120301096Y-71750828D01*
X120038470Y-71451848D01*
X119726058Y-71161994D01*
X119369758Y-70886275D01*
X118975467Y-70629699D01*
X118549080Y-70397274D01*
X118118010Y-70202732D01*
X117972510Y-70141729D01*
X117849351Y-70086911D01*
X117762741Y-70044804D01*
X117728293Y-70023706D01*
X117728119Y-69977822D01*
X117781814Y-69893411D01*
X117834365Y-69830370D01*
X117932737Y-69701302D01*
X117973182Y-69595931D01*
X117955762Y-69502953D01*
X117880540Y-69411065D01*
X117836875Y-69374130D01*
X117753081Y-69296223D01*
X117726251Y-69242930D01*
X117750547Y-69213494D01*
X117820131Y-69207159D01*
X117929165Y-69223169D01*
X118071810Y-69260769D01*
X118242227Y-69319200D01*
X118434579Y-69397708D01*
X118596283Y-69472491D01*
X119037374Y-69710528D01*
X119460623Y-69984753D01*
X119854439Y-70286078D01*
X120207235Y-70605414D01*
X120507421Y-70933673D01*
X120585405Y-71032427D01*
X120737489Y-71258457D01*
X120887854Y-71528406D01*
X121025425Y-71819110D01*
X121139125Y-72107404D01*
X121210254Y-72339200D01*
X121292398Y-72784459D01*
X121322364Y-73259770D01*
X121301886Y-73754183D01*
X121232698Y-74256747D01*
X121116535Y-74756511D01*
X120955130Y-75242525D01*
X120750218Y-75703837D01*
X120647044Y-75895598D01*
X120319698Y-76402229D01*
X119936689Y-76873239D01*
X119501023Y-77306858D01*
X119015704Y-77701317D01*
X118483738Y-78054847D01*
X117908128Y-78365680D01*
X117291881Y-78632046D01*
X116638000Y-78852177D01*
X115949491Y-79024302D01*
X115229358Y-79146654D01*
X115096755Y-79163237D01*
X114980617Y-79172438D01*
X114811139Y-79179938D01*
X114602695Y-79185651D01*
X114369657Y-79189488D01*
X114126401Y-79191360D01*
X113887300Y-79191181D01*
X113666727Y-79188861D01*
X113479058Y-79184314D01*
X113338664Y-79177450D01*
X113300933Y-79174240D01*
X113098478Y-79148673D01*
X112856521Y-79110652D01*
X112601106Y-79064808D01*
X112358274Y-79015775D01*
X112180685Y-78974920D01*
X111551875Y-78788402D01*
X110962964Y-78552656D01*
X110416359Y-78269486D01*
X109914464Y-77940697D01*
X109459684Y-77568094D01*
X109054424Y-77153480D01*
X108701090Y-76698661D01*
X108402086Y-76205442D01*
X108347043Y-76098400D01*
X108117742Y-75571077D01*
X107952385Y-75038165D01*
X107851347Y-74503451D01*
X107815006Y-73970724D01*
X107843738Y-73443771D01*
X107937921Y-72926380D01*
X108007170Y-72680370D01*
X108190992Y-72200098D01*
X108437584Y-71720884D01*
X108742187Y-71249017D01*
X109100042Y-70790786D01*
X109506388Y-70352480D01*
X109956466Y-69940389D01*
X110271613Y-69688506D01*
X110897464Y-69256661D01*
X111567726Y-68873123D01*
X112278314Y-68538917D01*
X113025139Y-68255067D01*
X113804117Y-68022596D01*
X114611159Y-67842529D01*
X115442179Y-67715890D01*
X116293091Y-67643704D01*
X117159807Y-67626994D01*
X118038241Y-67666784D01*
X118038241Y-67666784D01*
G37*
X118038241Y-67666784D02*
X118262400Y-67685980D01*
X118448293Y-67705050D01*
X118649018Y-67728362D01*
X118850382Y-67753973D01*
X119038192Y-67779936D01*
X119198254Y-67804308D01*
X119316377Y-67825144D01*
X119370778Y-67837847D01*
X119430918Y-67889560D01*
X119467751Y-67991111D01*
X119481563Y-68128845D01*
X119472637Y-68289105D01*
X119441258Y-68458239D01*
X119387709Y-68622590D01*
X119352867Y-68698400D01*
X119281397Y-68812321D01*
X119203010Y-68874409D01*
X119103999Y-68888302D01*
X118970661Y-68857640D01*
X118879893Y-68823970D01*
X118425646Y-68673582D01*
X117926080Y-68565527D01*
X117387974Y-68498853D01*
X116818109Y-68472605D01*
X116223262Y-68485830D01*
X115610212Y-68537577D01*
X114985739Y-68626891D01*
X114356621Y-68752820D01*
X113729637Y-68914411D01*
X113111567Y-69110710D01*
X112509188Y-69340764D01*
X111929281Y-69603621D01*
X111423790Y-69872253D01*
X110981493Y-70139903D01*
X110589339Y-70409446D01*
X110230679Y-70694037D01*
X109888867Y-71006834D01*
X109566397Y-71340133D01*
X109227164Y-71750998D01*
X108940602Y-72186070D01*
X108707849Y-72639757D01*
X108530038Y-73106467D01*
X108408308Y-73580607D01*
X108343792Y-74056585D01*
X108337626Y-74528808D01*
X108390947Y-74991685D01*
X108504891Y-75439623D01*
X108656904Y-75818465D01*
X108885372Y-76219979D01*
X109173965Y-76597017D01*
X109518841Y-76947386D01*
X109916162Y-77268893D01*
X110362088Y-77559344D01*
X110852780Y-77816548D01*
X111384399Y-78038311D01*
X111953105Y-78222441D01*
X112555058Y-78366744D01*
X113186421Y-78469029D01*
X113326425Y-78485407D01*
X113555069Y-78503896D01*
X113830273Y-78515919D01*
X114134266Y-78521582D01*
X114449277Y-78520993D01*
X114757536Y-78514256D01*
X115041272Y-78501478D01*
X115282715Y-78482765D01*
X115366800Y-78473217D01*
X116057928Y-78357582D01*
X116718873Y-78192597D01*
X117343761Y-77980254D01*
X117926724Y-77722545D01*
X118456507Y-77424861D01*
X118943803Y-77080169D01*
X119378609Y-76695244D01*
X119759244Y-76272936D01*
X120084027Y-75816092D01*
X120351277Y-75327560D01*
X120559314Y-74810189D01*
X120706458Y-74266826D01*
X120791026Y-73700319D01*
X120808168Y-73439866D01*
X120814788Y-73196858D01*
X120810558Y-73001055D01*
X120792613Y-72832403D01*
X120758091Y-72670846D01*
X120704126Y-72496330D01*
X120653405Y-72356133D01*
X120508040Y-72053926D01*
X120301096Y-71750828D01*
X120038470Y-71451848D01*
X119726058Y-71161994D01*
X119369758Y-70886275D01*
X118975467Y-70629699D01*
X118549080Y-70397274D01*
X118118010Y-70202732D01*
X117972510Y-70141729D01*
X117849351Y-70086911D01*
X117762741Y-70044804D01*
X117728293Y-70023706D01*
X117728119Y-69977822D01*
X117781814Y-69893411D01*
X117834365Y-69830370D01*
X117932737Y-69701302D01*
X117973182Y-69595931D01*
X117955762Y-69502953D01*
X117880540Y-69411065D01*
X117836875Y-69374130D01*
X117753081Y-69296223D01*
X117726251Y-69242930D01*
X117750547Y-69213494D01*
X117820131Y-69207159D01*
X117929165Y-69223169D01*
X118071810Y-69260769D01*
X118242227Y-69319200D01*
X118434579Y-69397708D01*
X118596283Y-69472491D01*
X119037374Y-69710528D01*
X119460623Y-69984753D01*
X119854439Y-70286078D01*
X120207235Y-70605414D01*
X120507421Y-70933673D01*
X120585405Y-71032427D01*
X120737489Y-71258457D01*
X120887854Y-71528406D01*
X121025425Y-71819110D01*
X121139125Y-72107404D01*
X121210254Y-72339200D01*
X121292398Y-72784459D01*
X121322364Y-73259770D01*
X121301886Y-73754183D01*
X121232698Y-74256747D01*
X121116535Y-74756511D01*
X120955130Y-75242525D01*
X120750218Y-75703837D01*
X120647044Y-75895598D01*
X120319698Y-76402229D01*
X119936689Y-76873239D01*
X119501023Y-77306858D01*
X119015704Y-77701317D01*
X118483738Y-78054847D01*
X117908128Y-78365680D01*
X117291881Y-78632046D01*
X116638000Y-78852177D01*
X115949491Y-79024302D01*
X115229358Y-79146654D01*
X115096755Y-79163237D01*
X114980617Y-79172438D01*
X114811139Y-79179938D01*
X114602695Y-79185651D01*
X114369657Y-79189488D01*
X114126401Y-79191360D01*
X113887300Y-79191181D01*
X113666727Y-79188861D01*
X113479058Y-79184314D01*
X113338664Y-79177450D01*
X113300933Y-79174240D01*
X113098478Y-79148673D01*
X112856521Y-79110652D01*
X112601106Y-79064808D01*
X112358274Y-79015775D01*
X112180685Y-78974920D01*
X111551875Y-78788402D01*
X110962964Y-78552656D01*
X110416359Y-78269486D01*
X109914464Y-77940697D01*
X109459684Y-77568094D01*
X109054424Y-77153480D01*
X108701090Y-76698661D01*
X108402086Y-76205442D01*
X108347043Y-76098400D01*
X108117742Y-75571077D01*
X107952385Y-75038165D01*
X107851347Y-74503451D01*
X107815006Y-73970724D01*
X107843738Y-73443771D01*
X107937921Y-72926380D01*
X108007170Y-72680370D01*
X108190992Y-72200098D01*
X108437584Y-71720884D01*
X108742187Y-71249017D01*
X109100042Y-70790786D01*
X109506388Y-70352480D01*
X109956466Y-69940389D01*
X110271613Y-69688506D01*
X110897464Y-69256661D01*
X111567726Y-68873123D01*
X112278314Y-68538917D01*
X113025139Y-68255067D01*
X113804117Y-68022596D01*
X114611159Y-67842529D01*
X115442179Y-67715890D01*
X116293091Y-67643704D01*
X117159807Y-67626994D01*
X118038241Y-67666784D01*
G36*
X112087112Y-75716148D02*
X112183867Y-75745219D01*
X112200519Y-75755730D01*
X112221075Y-75774568D01*
X112236514Y-75802782D01*
X112247411Y-75849046D01*
X112254342Y-75922033D01*
X112257885Y-76030418D01*
X112258614Y-76182875D01*
X112257105Y-76388077D01*
X112254934Y-76575180D01*
X112249718Y-76886833D01*
X112242067Y-77139010D01*
X112231169Y-77339949D01*
X112216216Y-77497889D01*
X112196396Y-77621068D01*
X112170899Y-77717723D01*
X112138915Y-77796093D01*
X112133855Y-77806110D01*
X112068130Y-77888435D01*
X111991468Y-77903997D01*
X111905221Y-77852644D01*
X111886693Y-77834066D01*
X111842135Y-77781251D01*
X111806743Y-77722943D01*
X111779152Y-77650515D01*
X111757996Y-77555340D01*
X111741910Y-77428791D01*
X111729528Y-77262241D01*
X111719485Y-77047063D01*
X111710415Y-76774630D01*
X111708468Y-76708000D01*
X111702338Y-76474070D01*
X111697915Y-76261893D01*
X111695309Y-76081077D01*
X111694628Y-75941228D01*
X111695979Y-75851955D01*
X111698522Y-75823587D01*
X111751534Y-75769167D01*
X111848760Y-75731121D01*
X111968014Y-75712449D01*
X112087112Y-75716148D01*
X112087112Y-75716148D01*
G37*
X112087112Y-75716148D02*
X112183867Y-75745219D01*
X112200519Y-75755730D01*
X112221075Y-75774568D01*
X112236514Y-75802782D01*
X112247411Y-75849046D01*
X112254342Y-75922033D01*
X112257885Y-76030418D01*
X112258614Y-76182875D01*
X112257105Y-76388077D01*
X112254934Y-76575180D01*
X112249718Y-76886833D01*
X112242067Y-77139010D01*
X112231169Y-77339949D01*
X112216216Y-77497889D01*
X112196396Y-77621068D01*
X112170899Y-77717723D01*
X112138915Y-77796093D01*
X112133855Y-77806110D01*
X112068130Y-77888435D01*
X111991468Y-77903997D01*
X111905221Y-77852644D01*
X111886693Y-77834066D01*
X111842135Y-77781251D01*
X111806743Y-77722943D01*
X111779152Y-77650515D01*
X111757996Y-77555340D01*
X111741910Y-77428791D01*
X111729528Y-77262241D01*
X111719485Y-77047063D01*
X111710415Y-76774630D01*
X111708468Y-76708000D01*
X111702338Y-76474070D01*
X111697915Y-76261893D01*
X111695309Y-76081077D01*
X111694628Y-75941228D01*
X111695979Y-75851955D01*
X111698522Y-75823587D01*
X111751534Y-75769167D01*
X111848760Y-75731121D01*
X111968014Y-75712449D01*
X112087112Y-75716148D01*
G36*
X112996613Y-75009980D02*
X113085760Y-75055102D01*
X113165693Y-75120499D01*
X113286177Y-75209440D01*
X113394760Y-75238451D01*
X113508445Y-75208861D01*
X113599624Y-75154366D01*
X113729207Y-75084189D01*
X113845367Y-75070540D01*
X113968491Y-75111254D01*
X113974919Y-75114535D01*
X114054967Y-75165094D01*
X114114035Y-75229273D01*
X114156194Y-75318389D01*
X114185515Y-75443760D01*
X114206072Y-75616701D01*
X114218642Y-75791918D01*
X114233027Y-76018119D01*
X114247003Y-76202723D01*
X114262960Y-76368102D01*
X114283287Y-76536627D01*
X114310372Y-76730670D01*
X114340316Y-76931207D01*
X114367132Y-77131964D01*
X114376312Y-77277527D01*
X114366458Y-77378458D01*
X114336174Y-77445323D01*
X114284062Y-77488684D01*
X114265352Y-77498060D01*
X114189086Y-77528676D01*
X114133100Y-77530227D01*
X114057009Y-77503770D01*
X114056441Y-77503541D01*
X113997151Y-77471139D01*
X113951713Y-77421629D01*
X113917296Y-77345399D01*
X113891068Y-77232839D01*
X113870200Y-77074337D01*
X113851858Y-76860282D01*
X113847038Y-76792666D01*
X113823196Y-76507821D01*
X113793626Y-76283569D01*
X113755267Y-76112821D01*
X113705061Y-75988491D01*
X113639947Y-75903490D01*
X113556865Y-75850729D01*
X113452756Y-75823122D01*
X113427038Y-75819755D01*
X113319644Y-75816298D01*
X113241550Y-75842695D01*
X113180130Y-75888693D01*
X113135631Y-75929380D01*
X113107068Y-75969249D01*
X113091107Y-76023486D01*
X113084410Y-76107276D01*
X113083644Y-76235805D01*
X113084469Y-76324199D01*
X113090601Y-76510358D01*
X113103831Y-76707722D01*
X113121748Y-76883463D01*
X113129771Y-76940889D01*
X113149333Y-77077678D01*
X113155382Y-77164495D01*
X113147288Y-77217867D01*
X113124418Y-77254317D01*
X113117511Y-77261535D01*
X113043972Y-77291561D01*
X112944076Y-77278094D01*
X112836424Y-77228305D01*
X112739617Y-77149366D01*
X112700904Y-77100925D01*
X112677063Y-77063033D01*
X112658622Y-77023202D01*
X112644810Y-76972524D01*
X112634856Y-76902094D01*
X112627990Y-76803003D01*
X112623441Y-76666344D01*
X112620439Y-76483211D01*
X112618213Y-76244696D01*
X112617396Y-76135725D01*
X112615882Y-75898020D01*
X112614904Y-75679099D01*
X112614475Y-75489252D01*
X112614609Y-75338769D01*
X112615317Y-75237941D01*
X112616242Y-75200933D01*
X112653101Y-75101492D01*
X112741713Y-75030937D01*
X112868937Y-74998737D01*
X112898187Y-74997733D01*
X112996613Y-75009980D01*
X112996613Y-75009980D01*
G37*
X112996613Y-75009980D02*
X113085760Y-75055102D01*
X113165693Y-75120499D01*
X113286177Y-75209440D01*
X113394760Y-75238451D01*
X113508445Y-75208861D01*
X113599624Y-75154366D01*
X113729207Y-75084189D01*
X113845367Y-75070540D01*
X113968491Y-75111254D01*
X113974919Y-75114535D01*
X114054967Y-75165094D01*
X114114035Y-75229273D01*
X114156194Y-75318389D01*
X114185515Y-75443760D01*
X114206072Y-75616701D01*
X114218642Y-75791918D01*
X114233027Y-76018119D01*
X114247003Y-76202723D01*
X114262960Y-76368102D01*
X114283287Y-76536627D01*
X114310372Y-76730670D01*
X114340316Y-76931207D01*
X114367132Y-77131964D01*
X114376312Y-77277527D01*
X114366458Y-77378458D01*
X114336174Y-77445323D01*
X114284062Y-77488684D01*
X114265352Y-77498060D01*
X114189086Y-77528676D01*
X114133100Y-77530227D01*
X114057009Y-77503770D01*
X114056441Y-77503541D01*
X113997151Y-77471139D01*
X113951713Y-77421629D01*
X113917296Y-77345399D01*
X113891068Y-77232839D01*
X113870200Y-77074337D01*
X113851858Y-76860282D01*
X113847038Y-76792666D01*
X113823196Y-76507821D01*
X113793626Y-76283569D01*
X113755267Y-76112821D01*
X113705061Y-75988491D01*
X113639947Y-75903490D01*
X113556865Y-75850729D01*
X113452756Y-75823122D01*
X113427038Y-75819755D01*
X113319644Y-75816298D01*
X113241550Y-75842695D01*
X113180130Y-75888693D01*
X113135631Y-75929380D01*
X113107068Y-75969249D01*
X113091107Y-76023486D01*
X113084410Y-76107276D01*
X113083644Y-76235805D01*
X113084469Y-76324199D01*
X113090601Y-76510358D01*
X113103831Y-76707722D01*
X113121748Y-76883463D01*
X113129771Y-76940889D01*
X113149333Y-77077678D01*
X113155382Y-77164495D01*
X113147288Y-77217867D01*
X113124418Y-77254317D01*
X113117511Y-77261535D01*
X113043972Y-77291561D01*
X112944076Y-77278094D01*
X112836424Y-77228305D01*
X112739617Y-77149366D01*
X112700904Y-77100925D01*
X112677063Y-77063033D01*
X112658622Y-77023202D01*
X112644810Y-76972524D01*
X112634856Y-76902094D01*
X112627990Y-76803003D01*
X112623441Y-76666344D01*
X112620439Y-76483211D01*
X112618213Y-76244696D01*
X112617396Y-76135725D01*
X112615882Y-75898020D01*
X112614904Y-75679099D01*
X112614475Y-75489252D01*
X112614609Y-75338769D01*
X112615317Y-75237941D01*
X112616242Y-75200933D01*
X112653101Y-75101492D01*
X112741713Y-75030937D01*
X112868937Y-74998737D01*
X112898187Y-74997733D01*
X112996613Y-75009980D01*
G36*
X115437677Y-74411825D02*
X115508190Y-74484303D01*
X115535610Y-74608207D01*
X115536133Y-74632965D01*
X115531299Y-74707032D01*
X115509971Y-74768977D01*
X115461908Y-74835670D01*
X115376871Y-74923980D01*
X115334673Y-74964851D01*
X115199973Y-75106922D01*
X115121493Y-75228675D01*
X115098979Y-75342770D01*
X115132177Y-75461867D01*
X115220835Y-75598626D01*
X115319637Y-75716002D01*
X115442530Y-75859584D01*
X115525674Y-75973836D01*
X115579148Y-76075314D01*
X115613027Y-76180571D01*
X115619424Y-76208522D01*
X115621877Y-76359888D01*
X115573867Y-76521330D01*
X115484897Y-76683666D01*
X115364470Y-76837713D01*
X115222092Y-76974290D01*
X115067266Y-77084214D01*
X114909496Y-77158304D01*
X114758287Y-77187377D01*
X114629449Y-77164968D01*
X114544190Y-77103240D01*
X114520557Y-77015690D01*
X114558180Y-76903772D01*
X114656686Y-76768939D01*
X114756999Y-76666093D01*
X114918660Y-76488925D01*
X115016498Y-76323363D01*
X115049674Y-76171055D01*
X115042697Y-76104545D01*
X115006941Y-76028723D01*
X114930456Y-75920853D01*
X114822914Y-75794138D01*
X114786779Y-75755203D01*
X114682988Y-75640360D01*
X114595357Y-75533842D01*
X114536179Y-75451072D01*
X114519855Y-75420335D01*
X114490449Y-75256136D01*
X114511059Y-75073179D01*
X114575688Y-74890784D01*
X114678338Y-74728276D01*
X114760827Y-74643960D01*
X114891468Y-74551312D01*
X115042338Y-74470901D01*
X115190429Y-74413201D01*
X115312737Y-74388686D01*
X115322047Y-74388464D01*
X115437677Y-74411825D01*
X115437677Y-74411825D01*
G37*
X115437677Y-74411825D02*
X115508190Y-74484303D01*
X115535610Y-74608207D01*
X115536133Y-74632965D01*
X115531299Y-74707032D01*
X115509971Y-74768977D01*
X115461908Y-74835670D01*
X115376871Y-74923980D01*
X115334673Y-74964851D01*
X115199973Y-75106922D01*
X115121493Y-75228675D01*
X115098979Y-75342770D01*
X115132177Y-75461867D01*
X115220835Y-75598626D01*
X115319637Y-75716002D01*
X115442530Y-75859584D01*
X115525674Y-75973836D01*
X115579148Y-76075314D01*
X115613027Y-76180571D01*
X115619424Y-76208522D01*
X115621877Y-76359888D01*
X115573867Y-76521330D01*
X115484897Y-76683666D01*
X115364470Y-76837713D01*
X115222092Y-76974290D01*
X115067266Y-77084214D01*
X114909496Y-77158304D01*
X114758287Y-77187377D01*
X114629449Y-77164968D01*
X114544190Y-77103240D01*
X114520557Y-77015690D01*
X114558180Y-76903772D01*
X114656686Y-76768939D01*
X114756999Y-76666093D01*
X114918660Y-76488925D01*
X115016498Y-76323363D01*
X115049674Y-76171055D01*
X115042697Y-76104545D01*
X115006941Y-76028723D01*
X114930456Y-75920853D01*
X114822914Y-75794138D01*
X114786779Y-75755203D01*
X114682988Y-75640360D01*
X114595357Y-75533842D01*
X114536179Y-75451072D01*
X114519855Y-75420335D01*
X114490449Y-75256136D01*
X114511059Y-75073179D01*
X114575688Y-74890784D01*
X114678338Y-74728276D01*
X114760827Y-74643960D01*
X114891468Y-74551312D01*
X115042338Y-74470901D01*
X115190429Y-74413201D01*
X115312737Y-74388686D01*
X115322047Y-74388464D01*
X115437677Y-74411825D01*
G36*
X116225297Y-74497517D02*
X116315495Y-74523829D01*
X116335044Y-74537681D01*
X116349959Y-74561049D01*
X116360722Y-74602011D01*
X116367811Y-74668644D01*
X116371707Y-74769027D01*
X116372888Y-74911237D01*
X116371835Y-75103352D01*
X116369026Y-75353451D01*
X116368274Y-75412829D01*
X116362756Y-75727517D01*
X116354488Y-75981898D01*
X116342583Y-76183377D01*
X116326154Y-76339353D01*
X116304310Y-76457229D01*
X116276165Y-76544408D01*
X116240830Y-76608291D01*
X116222000Y-76631800D01*
X116156700Y-76682577D01*
X116092513Y-76676243D01*
X116016662Y-76610473D01*
X116000197Y-76591447D01*
X115956313Y-76529890D01*
X115921021Y-76455226D01*
X115893153Y-76359300D01*
X115871542Y-76233957D01*
X115855017Y-76071043D01*
X115842412Y-75862402D01*
X115832558Y-75599879D01*
X115826687Y-75380345D01*
X115820867Y-75130203D01*
X115817270Y-74939114D01*
X115816477Y-74798419D01*
X115819066Y-74699458D01*
X115825617Y-74633571D01*
X115836709Y-74592099D01*
X115852923Y-74566382D01*
X115874836Y-74547760D01*
X115882775Y-74542145D01*
X115974485Y-74506615D01*
X116099307Y-74491288D01*
X116225297Y-74497517D01*
X116225297Y-74497517D01*
G37*
X116225297Y-74497517D02*
X116315495Y-74523829D01*
X116335044Y-74537681D01*
X116349959Y-74561049D01*
X116360722Y-74602011D01*
X116367811Y-74668644D01*
X116371707Y-74769027D01*
X116372888Y-74911237D01*
X116371835Y-75103352D01*
X116369026Y-75353451D01*
X116368274Y-75412829D01*
X116362756Y-75727517D01*
X116354488Y-75981898D01*
X116342583Y-76183377D01*
X116326154Y-76339353D01*
X116304310Y-76457229D01*
X116276165Y-76544408D01*
X116240830Y-76608291D01*
X116222000Y-76631800D01*
X116156700Y-76682577D01*
X116092513Y-76676243D01*
X116016662Y-76610473D01*
X116000197Y-76591447D01*
X115956313Y-76529890D01*
X115921021Y-76455226D01*
X115893153Y-76359300D01*
X115871542Y-76233957D01*
X115855017Y-76071043D01*
X115842412Y-75862402D01*
X115832558Y-75599879D01*
X115826687Y-75380345D01*
X115820867Y-75130203D01*
X115817270Y-74939114D01*
X115816477Y-74798419D01*
X115819066Y-74699458D01*
X115825617Y-74633571D01*
X115836709Y-74592099D01*
X115852923Y-74566382D01*
X115874836Y-74547760D01*
X115882775Y-74542145D01*
X115974485Y-74506615D01*
X116099307Y-74491288D01*
X116225297Y-74497517D01*
G36*
X118019435Y-72929886D02*
X118056189Y-72968331D01*
X118106271Y-73045614D01*
X118135085Y-73140599D01*
X118143632Y-73265658D01*
X118132914Y-73433161D01*
X118109031Y-73620744D01*
X118083135Y-73846740D01*
X118062245Y-74122980D01*
X118046940Y-74432121D01*
X118037799Y-74756817D01*
X118035402Y-75079726D01*
X118040330Y-75383502D01*
X118045563Y-75519460D01*
X118054983Y-75743980D01*
X118058764Y-75911868D01*
X118056585Y-76034018D01*
X118048123Y-76121324D01*
X118033059Y-76184677D01*
X118025318Y-76205260D01*
X117963417Y-76294292D01*
X117878863Y-76319547D01*
X117771805Y-76281026D01*
X117665274Y-76200000D01*
X117552868Y-76115938D01*
X117452913Y-76088220D01*
X117348604Y-76116833D01*
X117225766Y-76199671D01*
X117133220Y-76265446D01*
X117053846Y-76308507D01*
X117018978Y-76318204D01*
X116959334Y-76297178D01*
X116877974Y-76243907D01*
X116845455Y-76217179D01*
X116713967Y-76058494D01*
X116623592Y-75855899D01*
X116575909Y-75620486D01*
X116572515Y-75364771D01*
X117013409Y-75364771D01*
X117022140Y-75445452D01*
X117046897Y-75501015D01*
X117094342Y-75552738D01*
X117119934Y-75576019D01*
X117250362Y-75658072D01*
X117382547Y-75679175D01*
X117504845Y-75639370D01*
X117579038Y-75574455D01*
X117651781Y-75448715D01*
X117702250Y-75283690D01*
X117724339Y-75105869D01*
X117717627Y-74973227D01*
X117672896Y-74816883D01*
X117595397Y-74684980D01*
X117497062Y-74595666D01*
X117456951Y-74576752D01*
X117350970Y-74571715D01*
X117249553Y-74625101D01*
X117158928Y-74727617D01*
X117085319Y-74869973D01*
X117034953Y-75042877D01*
X117014057Y-75237039D01*
X117014044Y-75237691D01*
X117013409Y-75364771D01*
X116572515Y-75364771D01*
X116572496Y-75363343D01*
X116614933Y-75095561D01*
X116662868Y-74934942D01*
X116746314Y-74726047D01*
X116838006Y-74563095D01*
X116953680Y-74424706D01*
X117109069Y-74289505D01*
X117174350Y-74240016D01*
X117300413Y-74140594D01*
X117416664Y-74038130D01*
X117503369Y-73950355D01*
X117522270Y-73927455D01*
X117564332Y-73868893D01*
X117592053Y-73814436D01*
X117608468Y-73748289D01*
X117616609Y-73654656D01*
X117619511Y-73517740D01*
X117619971Y-73418710D01*
X117621431Y-73250796D01*
X117626426Y-73136075D01*
X117637504Y-73060012D01*
X117657213Y-73008072D01*
X117688101Y-72965723D01*
X117702075Y-72950423D01*
X117806345Y-72876932D01*
X117914147Y-72870189D01*
X118019435Y-72929886D01*
X118019435Y-72929886D01*
G37*
X118019435Y-72929886D02*
X118056189Y-72968331D01*
X118106271Y-73045614D01*
X118135085Y-73140599D01*
X118143632Y-73265658D01*
X118132914Y-73433161D01*
X118109031Y-73620744D01*
X118083135Y-73846740D01*
X118062245Y-74122980D01*
X118046940Y-74432121D01*
X118037799Y-74756817D01*
X118035402Y-75079726D01*
X118040330Y-75383502D01*
X118045563Y-75519460D01*
X118054983Y-75743980D01*
X118058764Y-75911868D01*
X118056585Y-76034018D01*
X118048123Y-76121324D01*
X118033059Y-76184677D01*
X118025318Y-76205260D01*
X117963417Y-76294292D01*
X117878863Y-76319547D01*
X117771805Y-76281026D01*
X117665274Y-76200000D01*
X117552868Y-76115938D01*
X117452913Y-76088220D01*
X117348604Y-76116833D01*
X117225766Y-76199671D01*
X117133220Y-76265446D01*
X117053846Y-76308507D01*
X117018978Y-76318204D01*
X116959334Y-76297178D01*
X116877974Y-76243907D01*
X116845455Y-76217179D01*
X116713967Y-76058494D01*
X116623592Y-75855899D01*
X116575909Y-75620486D01*
X116572515Y-75364771D01*
X117013409Y-75364771D01*
X117022140Y-75445452D01*
X117046897Y-75501015D01*
X117094342Y-75552738D01*
X117119934Y-75576019D01*
X117250362Y-75658072D01*
X117382547Y-75679175D01*
X117504845Y-75639370D01*
X117579038Y-75574455D01*
X117651781Y-75448715D01*
X117702250Y-75283690D01*
X117724339Y-75105869D01*
X117717627Y-74973227D01*
X117672896Y-74816883D01*
X117595397Y-74684980D01*
X117497062Y-74595666D01*
X117456951Y-74576752D01*
X117350970Y-74571715D01*
X117249553Y-74625101D01*
X117158928Y-74727617D01*
X117085319Y-74869973D01*
X117034953Y-75042877D01*
X117014057Y-75237039D01*
X117014044Y-75237691D01*
X117013409Y-75364771D01*
X116572515Y-75364771D01*
X116572496Y-75363343D01*
X116614933Y-75095561D01*
X116662868Y-74934942D01*
X116746314Y-74726047D01*
X116838006Y-74563095D01*
X116953680Y-74424706D01*
X117109069Y-74289505D01*
X117174350Y-74240016D01*
X117300413Y-74140594D01*
X117416664Y-74038130D01*
X117503369Y-73950355D01*
X117522270Y-73927455D01*
X117564332Y-73868893D01*
X117592053Y-73814436D01*
X117608468Y-73748289D01*
X117616609Y-73654656D01*
X117619511Y-73517740D01*
X117619971Y-73418710D01*
X117621431Y-73250796D01*
X117626426Y-73136075D01*
X117637504Y-73060012D01*
X117657213Y-73008072D01*
X117688101Y-72965723D01*
X117702075Y-72950423D01*
X117806345Y-72876932D01*
X117914147Y-72870189D01*
X118019435Y-72929886D01*
G36*
X119376076Y-73416165D02*
X119432738Y-73446221D01*
X119591469Y-73571804D01*
X119690225Y-73728335D01*
X119730092Y-73917910D01*
X119728823Y-74018635D01*
X119711602Y-74142234D01*
X119673723Y-74241999D01*
X119605722Y-74328110D01*
X119498134Y-74410751D01*
X119341493Y-74500103D01*
X119228238Y-74557153D01*
X119086958Y-74628463D01*
X118996756Y-74680913D01*
X118946716Y-74722935D01*
X118925926Y-74762962D01*
X118922926Y-74793033D01*
X118941791Y-74887247D01*
X118988809Y-74984151D01*
X119049992Y-75061912D01*
X119111350Y-75098696D01*
X119119166Y-75099333D01*
X119188426Y-75071107D01*
X119275277Y-74994648D01*
X119366976Y-74882287D01*
X119409489Y-74818391D01*
X119504397Y-74712228D01*
X119615828Y-74670892D01*
X119734505Y-74692479D01*
X119825370Y-74750973D01*
X119862401Y-74830957D01*
X119844664Y-74935161D01*
X119771227Y-75066316D01*
X119641156Y-75227152D01*
X119502096Y-75372666D01*
X119287138Y-75564425D01*
X119088318Y-75696616D01*
X118907764Y-75768552D01*
X118747605Y-75779547D01*
X118609967Y-75728912D01*
X118550063Y-75680073D01*
X118466926Y-75557455D01*
X118402099Y-75382100D01*
X118356413Y-75166710D01*
X118330698Y-74923986D01*
X118325784Y-74666632D01*
X118342502Y-74407348D01*
X118374542Y-74204128D01*
X118924543Y-74204128D01*
X118945300Y-74263877D01*
X118945378Y-74263955D01*
X119010360Y-74286057D01*
X119112037Y-74274822D01*
X119230166Y-74233593D01*
X119278400Y-74208939D01*
X119370315Y-74145612D01*
X119413219Y-74079792D01*
X119422167Y-74031696D01*
X119406000Y-73911227D01*
X119345404Y-73826256D01*
X119256048Y-73781037D01*
X119153600Y-73779825D01*
X119053729Y-73826874D01*
X118980331Y-73911725D01*
X118944701Y-74001422D01*
X118925224Y-74107767D01*
X118924543Y-74204128D01*
X118374542Y-74204128D01*
X118381683Y-74158837D01*
X118437213Y-73953775D01*
X118539167Y-73728803D01*
X118671785Y-73553465D01*
X118828425Y-73431146D01*
X119002447Y-73365233D01*
X119187211Y-73359111D01*
X119376076Y-73416165D01*
X119376076Y-73416165D01*
G37*
X119376076Y-73416165D02*
X119432738Y-73446221D01*
X119591469Y-73571804D01*
X119690225Y-73728335D01*
X119730092Y-73917910D01*
X119728823Y-74018635D01*
X119711602Y-74142234D01*
X119673723Y-74241999D01*
X119605722Y-74328110D01*
X119498134Y-74410751D01*
X119341493Y-74500103D01*
X119228238Y-74557153D01*
X119086958Y-74628463D01*
X118996756Y-74680913D01*
X118946716Y-74722935D01*
X118925926Y-74762962D01*
X118922926Y-74793033D01*
X118941791Y-74887247D01*
X118988809Y-74984151D01*
X119049992Y-75061912D01*
X119111350Y-75098696D01*
X119119166Y-75099333D01*
X119188426Y-75071107D01*
X119275277Y-74994648D01*
X119366976Y-74882287D01*
X119409489Y-74818391D01*
X119504397Y-74712228D01*
X119615828Y-74670892D01*
X119734505Y-74692479D01*
X119825370Y-74750973D01*
X119862401Y-74830957D01*
X119844664Y-74935161D01*
X119771227Y-75066316D01*
X119641156Y-75227152D01*
X119502096Y-75372666D01*
X119287138Y-75564425D01*
X119088318Y-75696616D01*
X118907764Y-75768552D01*
X118747605Y-75779547D01*
X118609967Y-75728912D01*
X118550063Y-75680073D01*
X118466926Y-75557455D01*
X118402099Y-75382100D01*
X118356413Y-75166710D01*
X118330698Y-74923986D01*
X118325784Y-74666632D01*
X118342502Y-74407348D01*
X118374542Y-74204128D01*
X118924543Y-74204128D01*
X118945300Y-74263877D01*
X118945378Y-74263955D01*
X119010360Y-74286057D01*
X119112037Y-74274822D01*
X119230166Y-74233593D01*
X119278400Y-74208939D01*
X119370315Y-74145612D01*
X119413219Y-74079792D01*
X119422167Y-74031696D01*
X119406000Y-73911227D01*
X119345404Y-73826256D01*
X119256048Y-73781037D01*
X119153600Y-73779825D01*
X119053729Y-73826874D01*
X118980331Y-73911725D01*
X118944701Y-74001422D01*
X118925224Y-74107767D01*
X118924543Y-74204128D01*
X118374542Y-74204128D01*
X118381683Y-74158837D01*
X118437213Y-73953775D01*
X118539167Y-73728803D01*
X118671785Y-73553465D01*
X118828425Y-73431146D01*
X119002447Y-73365233D01*
X119187211Y-73359111D01*
X119376076Y-73416165D01*
G36*
X112199806Y-74875785D02*
X112200513Y-74876247D01*
X112263514Y-74953634D01*
X112288044Y-75060506D01*
X112272440Y-75169487D01*
X112223000Y-75246484D01*
X112130444Y-75291362D01*
X112009749Y-75302756D01*
X111891160Y-75281522D01*
X111810800Y-75234799D01*
X111754034Y-75154999D01*
X111755420Y-75077227D01*
X111816433Y-74987884D01*
X111840327Y-74962995D01*
X111966202Y-74868023D01*
X112086885Y-74838746D01*
X112199806Y-74875785D01*
X112199806Y-74875785D01*
G37*
X112199806Y-74875785D02*
X112200513Y-74876247D01*
X112263514Y-74953634D01*
X112288044Y-75060506D01*
X112272440Y-75169487D01*
X112223000Y-75246484D01*
X112130444Y-75291362D01*
X112009749Y-75302756D01*
X111891160Y-75281522D01*
X111810800Y-75234799D01*
X111754034Y-75154999D01*
X111755420Y-75077227D01*
X111816433Y-74987884D01*
X111840327Y-74962995D01*
X111966202Y-74868023D01*
X112086885Y-74838746D01*
X112199806Y-74875785D01*
G36*
X110988613Y-71577128D02*
X111036581Y-71608074D01*
X111079035Y-71651153D01*
X111105936Y-71704369D01*
X111115868Y-71774565D01*
X111107415Y-71868584D01*
X111079160Y-71993271D01*
X111029686Y-72155468D01*
X110957579Y-72362020D01*
X110861421Y-72619768D01*
X110787155Y-72813333D01*
X110673303Y-73109773D01*
X110582906Y-73350004D01*
X110514031Y-73540610D01*
X110464744Y-73688179D01*
X110433112Y-73799295D01*
X110417202Y-73880544D01*
X110415080Y-73938511D01*
X110424814Y-73979783D01*
X110437984Y-74002730D01*
X110482687Y-74036411D01*
X110552892Y-74042024D01*
X110655977Y-74017607D01*
X110799320Y-73961200D01*
X110990301Y-73870842D01*
X111053331Y-73839184D01*
X111206684Y-73763128D01*
X111312202Y-73716102D01*
X111381325Y-73694360D01*
X111425493Y-73694154D01*
X111452407Y-73708482D01*
X111495905Y-73786110D01*
X111499541Y-73904042D01*
X111463809Y-74048185D01*
X111438287Y-74110724D01*
X111406389Y-74173910D01*
X111368522Y-74224205D01*
X111312642Y-74270384D01*
X111226705Y-74321226D01*
X111098666Y-74385505D01*
X110990298Y-74437167D01*
X110688745Y-74574906D01*
X110439281Y-74677545D01*
X110236839Y-74746331D01*
X110076351Y-74782510D01*
X109952750Y-74787328D01*
X109860968Y-74762032D01*
X109812666Y-74726799D01*
X109761754Y-74650708D01*
X109744933Y-74585496D01*
X109756632Y-74534465D01*
X109789389Y-74429916D01*
X109839694Y-74281453D01*
X109904034Y-74098680D01*
X109978901Y-73891198D01*
X110060783Y-73668612D01*
X110146169Y-73440525D01*
X110231548Y-73216540D01*
X110313411Y-73006259D01*
X110388246Y-72819287D01*
X110410001Y-72766271D01*
X110480987Y-72576923D01*
X110514122Y-72437865D01*
X110506490Y-72347126D01*
X110455174Y-72302732D01*
X110357254Y-72302712D01*
X110209815Y-72345095D01*
X110009939Y-72427907D01*
X109950028Y-72455349D01*
X109802286Y-72520634D01*
X109673860Y-72571138D01*
X109578632Y-72601817D01*
X109530733Y-72607723D01*
X109475499Y-72551564D01*
X109457966Y-72441841D01*
X109478136Y-72283863D01*
X109507788Y-72174976D01*
X109550738Y-72084105D01*
X109615047Y-72005586D01*
X109708775Y-71933753D01*
X109839984Y-71862941D01*
X110016733Y-71787486D01*
X110247084Y-71701723D01*
X110366277Y-71659688D01*
X110586796Y-71589907D01*
X110757895Y-71553359D01*
X110888769Y-71549335D01*
X110988613Y-71577128D01*
X110988613Y-71577128D01*
G37*
X110988613Y-71577128D02*
X111036581Y-71608074D01*
X111079035Y-71651153D01*
X111105936Y-71704369D01*
X111115868Y-71774565D01*
X111107415Y-71868584D01*
X111079160Y-71993271D01*
X111029686Y-72155468D01*
X110957579Y-72362020D01*
X110861421Y-72619768D01*
X110787155Y-72813333D01*
X110673303Y-73109773D01*
X110582906Y-73350004D01*
X110514031Y-73540610D01*
X110464744Y-73688179D01*
X110433112Y-73799295D01*
X110417202Y-73880544D01*
X110415080Y-73938511D01*
X110424814Y-73979783D01*
X110437984Y-74002730D01*
X110482687Y-74036411D01*
X110552892Y-74042024D01*
X110655977Y-74017607D01*
X110799320Y-73961200D01*
X110990301Y-73870842D01*
X111053331Y-73839184D01*
X111206684Y-73763128D01*
X111312202Y-73716102D01*
X111381325Y-73694360D01*
X111425493Y-73694154D01*
X111452407Y-73708482D01*
X111495905Y-73786110D01*
X111499541Y-73904042D01*
X111463809Y-74048185D01*
X111438287Y-74110724D01*
X111406389Y-74173910D01*
X111368522Y-74224205D01*
X111312642Y-74270384D01*
X111226705Y-74321226D01*
X111098666Y-74385505D01*
X110990298Y-74437167D01*
X110688745Y-74574906D01*
X110439281Y-74677545D01*
X110236839Y-74746331D01*
X110076351Y-74782510D01*
X109952750Y-74787328D01*
X109860968Y-74762032D01*
X109812666Y-74726799D01*
X109761754Y-74650708D01*
X109744933Y-74585496D01*
X109756632Y-74534465D01*
X109789389Y-74429916D01*
X109839694Y-74281453D01*
X109904034Y-74098680D01*
X109978901Y-73891198D01*
X110060783Y-73668612D01*
X110146169Y-73440525D01*
X110231548Y-73216540D01*
X110313411Y-73006259D01*
X110388246Y-72819287D01*
X110410001Y-72766271D01*
X110480987Y-72576923D01*
X110514122Y-72437865D01*
X110506490Y-72347126D01*
X110455174Y-72302732D01*
X110357254Y-72302712D01*
X110209815Y-72345095D01*
X110009939Y-72427907D01*
X109950028Y-72455349D01*
X109802286Y-72520634D01*
X109673860Y-72571138D01*
X109578632Y-72601817D01*
X109530733Y-72607723D01*
X109475499Y-72551564D01*
X109457966Y-72441841D01*
X109478136Y-72283863D01*
X109507788Y-72174976D01*
X109550738Y-72084105D01*
X109615047Y-72005586D01*
X109708775Y-71933753D01*
X109839984Y-71862941D01*
X110016733Y-71787486D01*
X110247084Y-71701723D01*
X110366277Y-71659688D01*
X110586796Y-71589907D01*
X110757895Y-71553359D01*
X110888769Y-71549335D01*
X110988613Y-71577128D01*
G36*
X116326591Y-73794983D02*
X116329581Y-73797885D01*
X116374261Y-73882688D01*
X116383682Y-73992036D01*
X116359574Y-74097002D01*
X116307531Y-74166079D01*
X116186869Y-74212651D01*
X116052272Y-74206584D01*
X115930835Y-74149132D01*
X115930167Y-74148608D01*
X115857128Y-74064386D01*
X115850028Y-73976982D01*
X115909307Y-73884477D01*
X116009335Y-73802379D01*
X116121749Y-73753977D01*
X116235799Y-73751396D01*
X116326591Y-73794983D01*
X116326591Y-73794983D01*
G37*
X116326591Y-73794983D02*
X116329581Y-73797885D01*
X116374261Y-73882688D01*
X116383682Y-73992036D01*
X116359574Y-74097002D01*
X116307531Y-74166079D01*
X116186869Y-74212651D01*
X116052272Y-74206584D01*
X115930835Y-74149132D01*
X115930167Y-74148608D01*
X115857128Y-74064386D01*
X115850028Y-73976982D01*
X115909307Y-73884477D01*
X116009335Y-73802379D01*
X116121749Y-73753977D01*
X116235799Y-73751396D01*
X116326591Y-73794983D01*
G36*
X112130293Y-71939632D02*
X112197267Y-71994474D01*
X112201253Y-71998441D01*
X112262807Y-72075901D01*
X112275790Y-72148145D01*
X112270102Y-72180355D01*
X112263057Y-72239445D01*
X112255285Y-72355425D01*
X112247285Y-72517464D01*
X112239556Y-72714728D01*
X112232597Y-72936387D01*
X112229217Y-73067333D01*
X112221703Y-73346627D01*
X112212941Y-73565425D01*
X112201342Y-73730963D01*
X112185320Y-73850475D01*
X112163286Y-73931198D01*
X112133651Y-73980367D01*
X112094829Y-74005219D01*
X112045230Y-74012989D01*
X112021686Y-74012926D01*
X111936498Y-74004823D01*
X111886287Y-73992933D01*
X111842456Y-73953205D01*
X111792304Y-73879023D01*
X111786635Y-73868606D01*
X111768100Y-73822919D01*
X111752987Y-73757738D01*
X111740592Y-73664725D01*
X111730209Y-73535543D01*
X111721134Y-73361854D01*
X111712661Y-73135320D01*
X111705969Y-72914933D01*
X111698293Y-72635525D01*
X111694277Y-72416245D01*
X111695843Y-72249512D01*
X111704913Y-72127743D01*
X111723407Y-72043356D01*
X111753248Y-71988767D01*
X111796356Y-71956396D01*
X111854653Y-71938660D01*
X111930060Y-71927976D01*
X111956832Y-71924953D01*
X112060685Y-71919627D01*
X112130293Y-71939632D01*
X112130293Y-71939632D01*
G37*
X112130293Y-71939632D02*
X112197267Y-71994474D01*
X112201253Y-71998441D01*
X112262807Y-72075901D01*
X112275790Y-72148145D01*
X112270102Y-72180355D01*
X112263057Y-72239445D01*
X112255285Y-72355425D01*
X112247285Y-72517464D01*
X112239556Y-72714728D01*
X112232597Y-72936387D01*
X112229217Y-73067333D01*
X112221703Y-73346627D01*
X112212941Y-73565425D01*
X112201342Y-73730963D01*
X112185320Y-73850475D01*
X112163286Y-73931198D01*
X112133651Y-73980367D01*
X112094829Y-74005219D01*
X112045230Y-74012989D01*
X112021686Y-74012926D01*
X111936498Y-74004823D01*
X111886287Y-73992933D01*
X111842456Y-73953205D01*
X111792304Y-73879023D01*
X111786635Y-73868606D01*
X111768100Y-73822919D01*
X111752987Y-73757738D01*
X111740592Y-73664725D01*
X111730209Y-73535543D01*
X111721134Y-73361854D01*
X111712661Y-73135320D01*
X111705969Y-72914933D01*
X111698293Y-72635525D01*
X111694277Y-72416245D01*
X111695843Y-72249512D01*
X111704913Y-72127743D01*
X111723407Y-72043356D01*
X111753248Y-71988767D01*
X111796356Y-71956396D01*
X111854653Y-71938660D01*
X111930060Y-71927976D01*
X111956832Y-71924953D01*
X112060685Y-71919627D01*
X112130293Y-71939632D01*
G36*
X113207125Y-69944065D02*
X113303486Y-69984299D01*
X113365668Y-70053449D01*
X113396612Y-70159266D01*
X113399261Y-70309499D01*
X113376558Y-70511901D01*
X113352394Y-70659314D01*
X113281732Y-71189406D01*
X113247153Y-71766121D01*
X113249139Y-72378459D01*
X113263241Y-72682101D01*
X113277091Y-72926091D01*
X113285414Y-73111892D01*
X113288174Y-73248824D01*
X113285335Y-73346210D01*
X113276859Y-73413370D01*
X113262711Y-73459625D01*
X113260169Y-73465186D01*
X113193291Y-73546816D01*
X113106943Y-73566546D01*
X113011767Y-73523144D01*
X112982708Y-73497253D01*
X112943816Y-73454710D01*
X112911412Y-73407517D01*
X112884766Y-73349188D01*
X112863147Y-73273238D01*
X112845823Y-73173181D01*
X112832066Y-73042531D01*
X112821144Y-72874804D01*
X112812326Y-72663513D01*
X112804882Y-72402174D01*
X112798082Y-72084300D01*
X112793130Y-71814266D01*
X112786197Y-71452042D01*
X112779125Y-71151455D01*
X112771614Y-70906407D01*
X112763362Y-70710802D01*
X112754066Y-70558542D01*
X112743426Y-70443532D01*
X112731140Y-70359675D01*
X112718509Y-70306076D01*
X112688247Y-70148419D01*
X112707177Y-70034323D01*
X112777866Y-69961031D01*
X112902880Y-69925790D01*
X113073642Y-69924997D01*
X113207125Y-69944065D01*
X113207125Y-69944065D01*
G37*
X113207125Y-69944065D02*
X113303486Y-69984299D01*
X113365668Y-70053449D01*
X113396612Y-70159266D01*
X113399261Y-70309499D01*
X113376558Y-70511901D01*
X113352394Y-70659314D01*
X113281732Y-71189406D01*
X113247153Y-71766121D01*
X113249139Y-72378459D01*
X113263241Y-72682101D01*
X113277091Y-72926091D01*
X113285414Y-73111892D01*
X113288174Y-73248824D01*
X113285335Y-73346210D01*
X113276859Y-73413370D01*
X113262711Y-73459625D01*
X113260169Y-73465186D01*
X113193291Y-73546816D01*
X113106943Y-73566546D01*
X113011767Y-73523144D01*
X112982708Y-73497253D01*
X112943816Y-73454710D01*
X112911412Y-73407517D01*
X112884766Y-73349188D01*
X112863147Y-73273238D01*
X112845823Y-73173181D01*
X112832066Y-73042531D01*
X112821144Y-72874804D01*
X112812326Y-72663513D01*
X112804882Y-72402174D01*
X112798082Y-72084300D01*
X112793130Y-71814266D01*
X112786197Y-71452042D01*
X112779125Y-71151455D01*
X112771614Y-70906407D01*
X112763362Y-70710802D01*
X112754066Y-70558542D01*
X112743426Y-70443532D01*
X112731140Y-70359675D01*
X112718509Y-70306076D01*
X112688247Y-70148419D01*
X112707177Y-70034323D01*
X112777866Y-69961031D01*
X112902880Y-69925790D01*
X113073642Y-69924997D01*
X113207125Y-69944065D01*
G36*
X116758731Y-70223815D02*
X116860646Y-70291883D01*
X116916697Y-70371236D01*
X116943324Y-70458675D01*
X116963657Y-70602644D01*
X116977900Y-70792249D01*
X116986253Y-71016600D01*
X116988920Y-71264804D01*
X116986101Y-71525969D01*
X116977999Y-71789204D01*
X116964816Y-72043616D01*
X116946753Y-72278314D01*
X116924014Y-72482405D01*
X116896799Y-72644997D01*
X116872855Y-72735254D01*
X116776565Y-72923693D01*
X116632652Y-73089502D01*
X116454059Y-73225888D01*
X116253731Y-73326057D01*
X116044612Y-73383216D01*
X115839646Y-73390571D01*
X115688981Y-73356630D01*
X115562414Y-73288405D01*
X115486554Y-73201639D01*
X115465915Y-73106879D01*
X115505009Y-73014672D01*
X115530988Y-72987322D01*
X115573416Y-72959434D01*
X115633558Y-72945257D01*
X115727721Y-72943123D01*
X115872209Y-72951363D01*
X115878122Y-72951799D01*
X116018611Y-72960989D01*
X116111904Y-72960633D01*
X116178299Y-72946881D01*
X116238095Y-72915887D01*
X116300873Y-72871662D01*
X116397345Y-72784070D01*
X116477281Y-72682943D01*
X116498164Y-72645894D01*
X116533789Y-72561720D01*
X116537701Y-72506630D01*
X116510448Y-72450150D01*
X116501917Y-72436938D01*
X116444245Y-72365995D01*
X116378245Y-72333461D01*
X116283658Y-72333870D01*
X116185802Y-72351639D01*
X116015595Y-72371106D01*
X115869365Y-72345153D01*
X115731098Y-72267902D01*
X115584776Y-72133477D01*
X115581380Y-72129870D01*
X115475205Y-72023498D01*
X115395815Y-71967544D01*
X115334192Y-71965185D01*
X115281317Y-72019600D01*
X115228172Y-72133964D01*
X115179120Y-72271588D01*
X115089312Y-72515905D01*
X115001549Y-72704524D01*
X114908419Y-72848813D01*
X114802506Y-72960144D01*
X114676396Y-73049885D01*
X114668597Y-73054497D01*
X114480771Y-73129088D01*
X114288538Y-73142093D01*
X114101191Y-73098258D01*
X113928021Y-73002332D01*
X113778323Y-72859060D01*
X113661388Y-72673191D01*
X113600876Y-72509054D01*
X113573822Y-72315846D01*
X113576764Y-72234007D01*
X114009629Y-72234007D01*
X114056311Y-72409140D01*
X114155193Y-72542937D01*
X114221496Y-72592170D01*
X114350255Y-72650408D01*
X114459819Y-72650877D01*
X114545528Y-72608868D01*
X114613997Y-72525672D01*
X114667669Y-72391804D01*
X114703996Y-72223210D01*
X114720434Y-72035835D01*
X114714436Y-71845623D01*
X114690907Y-71698354D01*
X114633037Y-71541282D01*
X114548016Y-71433795D01*
X114443435Y-71381263D01*
X114326883Y-71389058D01*
X114281537Y-71408685D01*
X114214198Y-71474129D01*
X114146113Y-71590343D01*
X114084453Y-71740830D01*
X114036391Y-71909090D01*
X114015913Y-72019671D01*
X114009629Y-72234007D01*
X113576764Y-72234007D01*
X113582061Y-72086706D01*
X113621708Y-71840956D01*
X113688875Y-71597915D01*
X113779678Y-71376903D01*
X113854941Y-71246065D01*
X113996929Y-71083343D01*
X114157553Y-70980907D01*
X114328561Y-70936877D01*
X114501699Y-70949373D01*
X114668712Y-71016513D01*
X114821347Y-71136418D01*
X114951351Y-71307207D01*
X115047353Y-71517734D01*
X115108941Y-71635756D01*
X115185619Y-71697150D01*
X115264846Y-71701924D01*
X115334080Y-71650085D01*
X115380779Y-71541642D01*
X115385585Y-71517521D01*
X115393316Y-71477500D01*
X115829441Y-71477500D01*
X115852921Y-71618863D01*
X115918639Y-71735125D01*
X116008260Y-71824314D01*
X116123914Y-71892569D01*
X116243090Y-71915453D01*
X116346389Y-71891327D01*
X116390132Y-71856600D01*
X116462151Y-71754681D01*
X116508172Y-71635201D01*
X116535515Y-71476783D01*
X116541496Y-71414607D01*
X116545376Y-71196656D01*
X116521423Y-71005541D01*
X116473856Y-70847447D01*
X116406892Y-70728559D01*
X116324750Y-70655063D01*
X116231649Y-70633145D01*
X116131806Y-70668990D01*
X116069199Y-70722066D01*
X115967775Y-70861666D01*
X115894444Y-71043655D01*
X115844851Y-71279026D01*
X115842750Y-71293564D01*
X115829441Y-71477500D01*
X115393316Y-71477500D01*
X115437470Y-71248947D01*
X115493829Y-71034540D01*
X115560084Y-70860741D01*
X115641660Y-70713991D01*
X115743978Y-70580731D01*
X115773345Y-70548032D01*
X115966295Y-70385386D01*
X116200786Y-70272785D01*
X116432112Y-70215377D01*
X116618966Y-70199304D01*
X116758731Y-70223815D01*
X116758731Y-70223815D01*
G37*
X116758731Y-70223815D02*
X116860646Y-70291883D01*
X116916697Y-70371236D01*
X116943324Y-70458675D01*
X116963657Y-70602644D01*
X116977900Y-70792249D01*
X116986253Y-71016600D01*
X116988920Y-71264804D01*
X116986101Y-71525969D01*
X116977999Y-71789204D01*
X116964816Y-72043616D01*
X116946753Y-72278314D01*
X116924014Y-72482405D01*
X116896799Y-72644997D01*
X116872855Y-72735254D01*
X116776565Y-72923693D01*
X116632652Y-73089502D01*
X116454059Y-73225888D01*
X116253731Y-73326057D01*
X116044612Y-73383216D01*
X115839646Y-73390571D01*
X115688981Y-73356630D01*
X115562414Y-73288405D01*
X115486554Y-73201639D01*
X115465915Y-73106879D01*
X115505009Y-73014672D01*
X115530988Y-72987322D01*
X115573416Y-72959434D01*
X115633558Y-72945257D01*
X115727721Y-72943123D01*
X115872209Y-72951363D01*
X115878122Y-72951799D01*
X116018611Y-72960989D01*
X116111904Y-72960633D01*
X116178299Y-72946881D01*
X116238095Y-72915887D01*
X116300873Y-72871662D01*
X116397345Y-72784070D01*
X116477281Y-72682943D01*
X116498164Y-72645894D01*
X116533789Y-72561720D01*
X116537701Y-72506630D01*
X116510448Y-72450150D01*
X116501917Y-72436938D01*
X116444245Y-72365995D01*
X116378245Y-72333461D01*
X116283658Y-72333870D01*
X116185802Y-72351639D01*
X116015595Y-72371106D01*
X115869365Y-72345153D01*
X115731098Y-72267902D01*
X115584776Y-72133477D01*
X115581380Y-72129870D01*
X115475205Y-72023498D01*
X115395815Y-71967544D01*
X115334192Y-71965185D01*
X115281317Y-72019600D01*
X115228172Y-72133964D01*
X115179120Y-72271588D01*
X115089312Y-72515905D01*
X115001549Y-72704524D01*
X114908419Y-72848813D01*
X114802506Y-72960144D01*
X114676396Y-73049885D01*
X114668597Y-73054497D01*
X114480771Y-73129088D01*
X114288538Y-73142093D01*
X114101191Y-73098258D01*
X113928021Y-73002332D01*
X113778323Y-72859060D01*
X113661388Y-72673191D01*
X113600876Y-72509054D01*
X113573822Y-72315846D01*
X113576764Y-72234007D01*
X114009629Y-72234007D01*
X114056311Y-72409140D01*
X114155193Y-72542937D01*
X114221496Y-72592170D01*
X114350255Y-72650408D01*
X114459819Y-72650877D01*
X114545528Y-72608868D01*
X114613997Y-72525672D01*
X114667669Y-72391804D01*
X114703996Y-72223210D01*
X114720434Y-72035835D01*
X114714436Y-71845623D01*
X114690907Y-71698354D01*
X114633037Y-71541282D01*
X114548016Y-71433795D01*
X114443435Y-71381263D01*
X114326883Y-71389058D01*
X114281537Y-71408685D01*
X114214198Y-71474129D01*
X114146113Y-71590343D01*
X114084453Y-71740830D01*
X114036391Y-71909090D01*
X114015913Y-72019671D01*
X114009629Y-72234007D01*
X113576764Y-72234007D01*
X113582061Y-72086706D01*
X113621708Y-71840956D01*
X113688875Y-71597915D01*
X113779678Y-71376903D01*
X113854941Y-71246065D01*
X113996929Y-71083343D01*
X114157553Y-70980907D01*
X114328561Y-70936877D01*
X114501699Y-70949373D01*
X114668712Y-71016513D01*
X114821347Y-71136418D01*
X114951351Y-71307207D01*
X115047353Y-71517734D01*
X115108941Y-71635756D01*
X115185619Y-71697150D01*
X115264846Y-71701924D01*
X115334080Y-71650085D01*
X115380779Y-71541642D01*
X115385585Y-71517521D01*
X115393316Y-71477500D01*
X115829441Y-71477500D01*
X115852921Y-71618863D01*
X115918639Y-71735125D01*
X116008260Y-71824314D01*
X116123914Y-71892569D01*
X116243090Y-71915453D01*
X116346389Y-71891327D01*
X116390132Y-71856600D01*
X116462151Y-71754681D01*
X116508172Y-71635201D01*
X116535515Y-71476783D01*
X116541496Y-71414607D01*
X116545376Y-71196656D01*
X116521423Y-71005541D01*
X116473856Y-70847447D01*
X116406892Y-70728559D01*
X116324750Y-70655063D01*
X116231649Y-70633145D01*
X116131806Y-70668990D01*
X116069199Y-70722066D01*
X115967775Y-70861666D01*
X115894444Y-71043655D01*
X115844851Y-71279026D01*
X115842750Y-71293564D01*
X115829441Y-71477500D01*
X115393316Y-71477500D01*
X115437470Y-71248947D01*
X115493829Y-71034540D01*
X115560084Y-70860741D01*
X115641660Y-70713991D01*
X115743978Y-70580731D01*
X115773345Y-70548032D01*
X115966295Y-70385386D01*
X116200786Y-70272785D01*
X116432112Y-70215377D01*
X116618966Y-70199304D01*
X116758731Y-70223815D01*
G36*
X112160114Y-71195621D02*
X112201554Y-71219329D01*
X112263784Y-71296194D01*
X112287950Y-71402716D01*
X112272458Y-71511477D01*
X112223000Y-71588884D01*
X112130444Y-71633762D01*
X112009749Y-71645156D01*
X111891160Y-71623922D01*
X111810800Y-71577199D01*
X111760703Y-71511903D01*
X111743066Y-71463233D01*
X111771380Y-71384243D01*
X111843473Y-71300025D01*
X111940079Y-71230099D01*
X111998884Y-71204066D01*
X112091343Y-71182323D01*
X112160114Y-71195621D01*
X112160114Y-71195621D01*
G37*
X112160114Y-71195621D02*
X112201554Y-71219329D01*
X112263784Y-71296194D01*
X112287950Y-71402716D01*
X112272458Y-71511477D01*
X112223000Y-71588884D01*
X112130444Y-71633762D01*
X112009749Y-71645156D01*
X111891160Y-71623922D01*
X111810800Y-71577199D01*
X111760703Y-71511903D01*
X111743066Y-71463233D01*
X111771380Y-71384243D01*
X111843473Y-71300025D01*
X111940079Y-71230099D01*
X111998884Y-71204066D01*
X112091343Y-71182323D01*
X112160114Y-71195621D01*
M02*
