G04 #@! TF.FileFunction,Copper,L1,Top,Mixed*
%FSLAX46Y46*%
G04 Gerber Fmt 4.6, Leading zero omitted, Abs format (unit mm)*
G04 Created by KiCad (PCBNEW 4.0.7) date 05/03/18 11:39:09*
%MOMM*%
%LPD*%
G01*
G04 APERTURE LIST*
%ADD10C,0.100000*%
%ADD11C,5.000000*%
%ADD12R,1.800000X8.000000*%
%ADD13R,1.800000X7.000000*%
%ADD14R,1.700000X1.700000*%
%ADD15O,1.700000X1.700000*%
%ADD16R,1.200000X0.750000*%
%ADD17R,2.000000X1.100000*%
%ADD18R,1.500000X0.600000*%
%ADD19R,0.750000X1.200000*%
%ADD20R,0.600000X1.950000*%
%ADD21C,0.600000*%
%ADD22C,0.250000*%
%ADD23C,0.400000*%
%ADD24C,0.254000*%
G04 APERTURE END LIST*
D10*
D11*
X185333640Y-98897440D03*
D12*
X187949840Y-109827440D03*
X185409840Y-109827440D03*
X182869840Y-109827440D03*
X180329840Y-109827440D03*
X177789840Y-109827440D03*
X175249840Y-109827440D03*
X172709840Y-109827440D03*
X170169840Y-109827440D03*
X167629840Y-109827440D03*
X165089840Y-109827440D03*
X162549840Y-109827440D03*
X160009840Y-109827440D03*
X157469840Y-109827440D03*
X154929840Y-109827440D03*
X152389840Y-109827440D03*
X149849840Y-109827440D03*
X147309840Y-109827440D03*
X144769840Y-109827440D03*
X142229840Y-109827440D03*
X139689840Y-109827440D03*
X137149840Y-109827440D03*
D13*
X134604760Y-109334680D03*
D12*
X132069840Y-109827440D03*
X129529840Y-109827440D03*
X126989840Y-109827440D03*
D11*
X129334260Y-93695520D03*
D14*
X181737000Y-56388000D03*
D15*
X181737000Y-53848000D03*
X179197000Y-56388000D03*
X179197000Y-53848000D03*
X176657000Y-56388000D03*
X176657000Y-53848000D03*
X174117000Y-56388000D03*
X174117000Y-53848000D03*
X171577000Y-56388000D03*
X171577000Y-53848000D03*
X169037000Y-56388000D03*
X169037000Y-53848000D03*
X166497000Y-56388000D03*
X166497000Y-53848000D03*
X163957000Y-56388000D03*
X163957000Y-53848000D03*
X161417000Y-56388000D03*
X161417000Y-53848000D03*
X158877000Y-56388000D03*
X158877000Y-53848000D03*
X156337000Y-56388000D03*
X156337000Y-53848000D03*
X153797000Y-56388000D03*
X153797000Y-53848000D03*
X151257000Y-56388000D03*
X151257000Y-53848000D03*
X148717000Y-56388000D03*
X148717000Y-53848000D03*
X146177000Y-56388000D03*
X146177000Y-53848000D03*
X143637000Y-56388000D03*
X143637000Y-53848000D03*
X141097000Y-56388000D03*
X141097000Y-53848000D03*
X138557000Y-56388000D03*
X138557000Y-53848000D03*
X136017000Y-56388000D03*
X136017000Y-53848000D03*
X133477000Y-56388000D03*
X133477000Y-53848000D03*
D14*
X195326000Y-76327000D03*
D15*
X195326000Y-78867000D03*
X192786000Y-76327000D03*
X192786000Y-78867000D03*
X190246000Y-76327000D03*
X190246000Y-78867000D03*
X187706000Y-76327000D03*
X187706000Y-78867000D03*
X185166000Y-76327000D03*
X185166000Y-78867000D03*
X182626000Y-76327000D03*
X182626000Y-78867000D03*
X180086000Y-76327000D03*
X180086000Y-78867000D03*
X177546000Y-76327000D03*
X177546000Y-78867000D03*
X175006000Y-76327000D03*
X175006000Y-78867000D03*
X172466000Y-76327000D03*
X172466000Y-78867000D03*
X169926000Y-76327000D03*
X169926000Y-78867000D03*
X167386000Y-76327000D03*
X167386000Y-78867000D03*
X164846000Y-76327000D03*
X164846000Y-78867000D03*
X162306000Y-76327000D03*
X162306000Y-78867000D03*
X159766000Y-76327000D03*
X159766000Y-78867000D03*
X157226000Y-76327000D03*
X157226000Y-78867000D03*
X154686000Y-76327000D03*
X154686000Y-78867000D03*
X152146000Y-76327000D03*
X152146000Y-78867000D03*
X149606000Y-76327000D03*
X149606000Y-78867000D03*
X147066000Y-76327000D03*
X147066000Y-78867000D03*
D16*
X149672000Y-98425000D03*
X151572000Y-98425000D03*
X168788000Y-98171000D03*
X170688000Y-98171000D03*
D17*
X187884000Y-53418000D03*
X187884000Y-55118000D03*
X187884000Y-56818000D03*
X192684000Y-56818000D03*
X192684000Y-55118000D03*
X192684000Y-53418000D03*
D18*
X173830000Y-89281000D03*
X173830000Y-90551000D03*
X173830000Y-91821000D03*
X173830000Y-93091000D03*
X173830000Y-94361000D03*
X173830000Y-95631000D03*
X173830000Y-96901000D03*
X179230000Y-96901000D03*
X179230000Y-95631000D03*
X179230000Y-94361000D03*
X179230000Y-93091000D03*
X179230000Y-91821000D03*
X179230000Y-90551000D03*
X179230000Y-89281000D03*
D19*
X170053000Y-91760000D03*
X170053000Y-93660000D03*
X187198000Y-91821000D03*
X187198000Y-93721000D03*
D18*
X191577000Y-89281000D03*
X191577000Y-90551000D03*
X191577000Y-91821000D03*
X191577000Y-93091000D03*
X191577000Y-94361000D03*
X191577000Y-95631000D03*
X191577000Y-96901000D03*
X196977000Y-96901000D03*
X196977000Y-95631000D03*
X196977000Y-94361000D03*
X196977000Y-93091000D03*
X196977000Y-91821000D03*
X196977000Y-90551000D03*
X196977000Y-89281000D03*
D20*
X165862000Y-88315800D03*
X164592000Y-88315800D03*
X163322000Y-88315800D03*
X162052000Y-88315800D03*
X160782000Y-88315800D03*
X159512000Y-88315800D03*
X158242000Y-88315800D03*
X156972000Y-88315800D03*
X155702000Y-88315800D03*
X154432000Y-88315800D03*
X154432000Y-97715800D03*
X155702000Y-97715800D03*
X156972000Y-97715800D03*
X158242000Y-97715800D03*
X159512000Y-97715800D03*
X160782000Y-97715800D03*
X162052000Y-97715800D03*
X163322000Y-97715800D03*
X164592000Y-97715800D03*
X165862000Y-97715800D03*
X146685000Y-88391000D03*
X145415000Y-88391000D03*
X144145000Y-88391000D03*
X142875000Y-88391000D03*
X141605000Y-88391000D03*
X140335000Y-88391000D03*
X139065000Y-88391000D03*
X137795000Y-88391000D03*
X136525000Y-88391000D03*
X135255000Y-88391000D03*
X135255000Y-97791000D03*
X136525000Y-97791000D03*
X137795000Y-97791000D03*
X139065000Y-97791000D03*
X140335000Y-97791000D03*
X141605000Y-97791000D03*
X142875000Y-97791000D03*
X144145000Y-97791000D03*
X145415000Y-97791000D03*
X146685000Y-97791000D03*
D21*
X133277900Y-96884100D03*
X185312400Y-93645600D03*
X154453500Y-95943900D03*
X153924800Y-95196300D03*
X152102900Y-67075600D03*
X142065400Y-90424400D03*
X148064200Y-64837300D03*
X138889200Y-91787500D03*
X139259600Y-93250000D03*
X141212700Y-94446700D03*
X143117400Y-86056800D03*
X144093000Y-85305500D03*
X141413000Y-86808200D03*
X150707200Y-67570100D03*
X139024000Y-90942100D03*
X179681800Y-105314200D03*
X178263800Y-105028100D03*
X166914100Y-93639800D03*
X168030200Y-103192300D03*
X161896600Y-93781700D03*
X167287100Y-104598500D03*
X170718500Y-104598500D03*
X163230200Y-103716400D03*
X161219300Y-99201300D03*
X155982400Y-91354100D03*
X160201700Y-104503500D03*
X153112800Y-90553800D03*
X159573800Y-99961600D03*
X159573800Y-105007500D03*
X157029400Y-99219500D03*
X152932400Y-91545900D03*
X156813700Y-105324900D03*
X149699600Y-103736900D03*
X146931500Y-103111600D03*
X147576500Y-104834000D03*
X146160100Y-105299300D03*
X143527400Y-105447700D03*
X140978100Y-105447700D03*
X137860400Y-104152600D03*
X170958200Y-92160400D03*
X177210300Y-91480600D03*
X150117600Y-88882100D03*
X163669000Y-85158100D03*
X171521600Y-87593700D03*
X169873800Y-88430500D03*
X163941700Y-95243400D03*
X157127700Y-81326800D03*
X159258400Y-96213000D03*
X166369500Y-102566900D03*
X160561600Y-94882500D03*
X166694700Y-96447300D03*
X158654800Y-74452100D03*
X178783000Y-75652400D03*
X177837800Y-93091000D03*
X199363400Y-56897200D03*
X199374000Y-55118000D03*
X199388200Y-53418000D03*
X186107900Y-70442000D03*
X183181200Y-90633600D03*
X181334300Y-90036500D03*
X171314800Y-90615500D03*
X175099100Y-90991700D03*
X156171100Y-101215500D03*
X155003600Y-100086100D03*
D22*
X170053000Y-93660000D02*
X170053000Y-94585300D01*
X187898300Y-94297600D02*
X190501700Y-96901000D01*
X187898300Y-93721000D02*
X187898300Y-94297600D01*
X187198000Y-93721000D02*
X187898300Y-93721000D01*
X191577000Y-96901000D02*
X190501700Y-96901000D01*
X172098600Y-77691700D02*
X172466000Y-77691700D01*
X171290700Y-76883800D02*
X172098600Y-77691700D01*
X171290700Y-75990400D02*
X171290700Y-76883800D01*
X170452000Y-75151700D02*
X171290700Y-75990400D01*
X166829200Y-75151700D02*
X170452000Y-75151700D01*
X166021300Y-75959600D02*
X166829200Y-75151700D01*
X166021300Y-76327000D02*
X166021300Y-75959600D01*
X133477000Y-61562700D02*
X147066000Y-75151700D01*
X133477000Y-56388000D02*
X133477000Y-61562700D01*
X147066000Y-76327000D02*
X147066000Y-75151700D01*
X154686000Y-78867000D02*
X153510700Y-78867000D01*
X135255000Y-88391000D02*
X135255000Y-87090700D01*
X142988300Y-79357400D02*
X135255000Y-87090700D01*
X145887100Y-79357400D02*
X142988300Y-79357400D01*
X146597400Y-80067700D02*
X145887100Y-79357400D01*
X152677300Y-80067700D02*
X146597400Y-80067700D01*
X153510700Y-79234300D02*
X152677300Y-80067700D01*
X153510700Y-78867000D02*
X153510700Y-79234300D01*
X145887100Y-77505900D02*
X147066000Y-76327000D01*
X145887100Y-79357400D02*
X145887100Y-77505900D01*
X164846000Y-76327000D02*
X166021300Y-76327000D01*
X163670700Y-76694400D02*
X163670700Y-76327000D01*
X162862800Y-77502300D02*
X163670700Y-76694400D01*
X161938600Y-77502300D02*
X162862800Y-77502300D01*
X160941300Y-78499600D02*
X161938600Y-77502300D01*
X160941300Y-78867000D02*
X160941300Y-78499600D01*
X164846000Y-76327000D02*
X163670700Y-76327000D01*
X190246000Y-78867000D02*
X189070700Y-78867000D01*
X173830000Y-96901000D02*
X172754700Y-96901000D01*
X170053000Y-96266000D02*
X170053000Y-94585300D01*
X170688000Y-96901000D02*
X170053000Y-96266000D01*
X135255000Y-88391000D02*
X135255000Y-89691300D01*
X189070700Y-78499600D02*
X189070700Y-78867000D01*
X188073400Y-77502300D02*
X189070700Y-78499600D01*
X187149200Y-77502300D02*
X188073400Y-77502300D01*
X186341300Y-76694400D02*
X187149200Y-77502300D01*
X186341300Y-76327000D02*
X186341300Y-76694400D01*
X185166000Y-76327000D02*
X186341300Y-76327000D01*
X183990700Y-76694400D02*
X183990700Y-76327000D01*
X183182800Y-77502300D02*
X183990700Y-76694400D01*
X182258600Y-77502300D02*
X183182800Y-77502300D01*
X181261300Y-78499600D02*
X182258600Y-77502300D01*
X181261300Y-78867000D02*
X181261300Y-78499600D01*
X185166000Y-76327000D02*
X183990700Y-76327000D01*
X180086000Y-78867000D02*
X181261300Y-78867000D01*
X159766000Y-78867000D02*
X160941300Y-78867000D01*
X157701700Y-54215400D02*
X157701700Y-53848000D01*
X156893800Y-55023300D02*
X157701700Y-54215400D01*
X153429600Y-55023300D02*
X156893800Y-55023300D01*
X152432300Y-56020600D02*
X153429600Y-55023300D01*
X152432300Y-56388000D02*
X152432300Y-56020600D01*
X151257000Y-56388000D02*
X152432300Y-56388000D01*
X158877000Y-53848000D02*
X157701700Y-53848000D01*
X145001700Y-53480600D02*
X145001700Y-53848000D01*
X144193800Y-52672700D02*
X145001700Y-53480600D01*
X143080300Y-52672700D02*
X144193800Y-52672700D01*
X142272300Y-53480700D02*
X143080300Y-52672700D01*
X142272300Y-53848000D02*
X142272300Y-53480700D01*
X141097000Y-53848000D02*
X142272300Y-53848000D01*
X146177000Y-53848000D02*
X145589400Y-53848000D01*
X145589400Y-53848000D02*
X145001700Y-53848000D01*
X150081700Y-56020600D02*
X150081700Y-56388000D01*
X149273800Y-55212700D02*
X150081700Y-56020600D01*
X146954100Y-55212700D02*
X149273800Y-55212700D01*
X145589400Y-53848000D02*
X146954100Y-55212700D01*
X151257000Y-56388000D02*
X150081700Y-56388000D01*
X185387800Y-93721000D02*
X187198000Y-93721000D01*
X185312400Y-93645600D02*
X185387800Y-93721000D01*
X170688000Y-96901000D02*
X170688000Y-98171000D01*
X170688000Y-96901000D02*
X172754700Y-96901000D01*
X172466000Y-78867000D02*
X172466000Y-78735900D01*
X172466000Y-78735900D02*
X172466000Y-77691700D01*
X180086000Y-78867000D02*
X178910700Y-78867000D01*
X165862000Y-88315800D02*
X165862000Y-87015500D01*
X165862000Y-87015500D02*
X173303800Y-79573700D01*
X172466000Y-78735900D02*
X173303800Y-79573700D01*
X178910700Y-79234400D02*
X178910700Y-78867000D01*
X178102800Y-80042300D02*
X178910700Y-79234400D01*
X173772400Y-80042300D02*
X178102800Y-80042300D01*
X173303800Y-79573700D02*
X173772400Y-80042300D01*
X170401700Y-56020600D02*
X170401700Y-56388000D01*
X169593800Y-55212700D02*
X170401700Y-56020600D01*
X168669600Y-55212700D02*
X169593800Y-55212700D01*
X167672300Y-54215400D02*
X168669600Y-55212700D01*
X167672300Y-53848000D02*
X167672300Y-54215400D01*
X166497000Y-53848000D02*
X167672300Y-53848000D01*
X170989400Y-56388000D02*
X171108500Y-56388000D01*
X170989400Y-56388000D02*
X170401700Y-56388000D01*
X171577000Y-56388000D02*
X171108500Y-56388000D01*
X175481700Y-54215400D02*
X175481700Y-53848000D01*
X174673800Y-55023300D02*
X175481700Y-54215400D01*
X172473200Y-55023300D02*
X174673800Y-55023300D01*
X171108500Y-56388000D02*
X172473200Y-55023300D01*
X176657000Y-53848000D02*
X175481700Y-53848000D01*
X133277900Y-91668400D02*
X133277900Y-96884100D01*
X135255000Y-89691300D02*
X133277900Y-91668400D01*
X164592000Y-97715800D02*
X164592000Y-99016100D01*
X170688000Y-98171000D02*
X170688000Y-98871300D01*
X170543200Y-99016100D02*
X170688000Y-98871300D01*
X164592000Y-99016100D02*
X170543200Y-99016100D01*
X163012100Y-100596000D02*
X164592000Y-99016100D01*
X157097800Y-100596000D02*
X163012100Y-100596000D01*
X156121400Y-99619600D02*
X157097800Y-100596000D01*
X155866700Y-99619600D02*
X156121400Y-99619600D01*
X155057400Y-98810300D02*
X155866700Y-99619600D01*
X155057400Y-96547800D02*
X155057400Y-98810300D01*
X154453500Y-95943900D02*
X155057400Y-96547800D01*
X151572000Y-98425000D02*
X151572000Y-97724700D01*
X153296400Y-95887500D02*
X153352800Y-95943900D01*
X153296400Y-94199700D02*
X153296400Y-95887500D01*
X154432000Y-93064100D02*
X153296400Y-94199700D01*
X154432000Y-88315800D02*
X154432000Y-93064100D01*
X154453500Y-95943900D02*
X153352800Y-95943900D01*
X153352800Y-95943900D02*
X151572000Y-97724700D01*
D23*
X192786000Y-78867000D02*
X195326000Y-78867000D01*
X192786000Y-78867000D02*
X192187900Y-78867000D01*
X192187900Y-78867000D02*
X191535700Y-78867000D01*
X182804300Y-55098300D02*
X181737000Y-55098300D01*
X183026600Y-55320600D02*
X182804300Y-55098300D01*
X183026600Y-69151200D02*
X183026600Y-55320600D01*
X188976000Y-75100600D02*
X183026600Y-69151200D01*
X188976000Y-76874400D02*
X188976000Y-75100600D01*
X189698600Y-77597000D02*
X188976000Y-76874400D01*
X190917900Y-77597000D02*
X189698600Y-77597000D01*
X192187900Y-78867000D02*
X190917900Y-77597000D01*
X181737000Y-53848000D02*
X181737000Y-54473100D01*
X181737000Y-54473100D02*
X181737000Y-55098300D01*
X181072400Y-54473100D02*
X180447300Y-53848000D01*
X181737000Y-54473100D02*
X181072400Y-54473100D01*
X179197000Y-53848000D02*
X180447300Y-53848000D01*
X191535700Y-79385100D02*
X191535700Y-78867000D01*
X185062000Y-85858800D02*
X191535700Y-79385100D01*
X171454900Y-85858800D02*
X185062000Y-85858800D01*
X169061400Y-88252300D02*
X171454900Y-85858800D01*
X169061400Y-88323200D02*
X169061400Y-88252300D01*
X165833600Y-91551000D02*
X169061400Y-88323200D01*
X157570100Y-91551000D02*
X165833600Y-91551000D01*
X153924800Y-95196300D02*
X157570100Y-91551000D01*
D22*
X176657000Y-56388000D02*
X175481700Y-56388000D01*
X165161400Y-67075600D02*
X152102900Y-67075600D01*
X175481700Y-56755300D02*
X165161400Y-67075600D01*
X175481700Y-56388000D02*
X175481700Y-56755300D01*
X141605000Y-88391000D02*
X141605000Y-89691300D01*
X142065400Y-90151700D02*
X142065400Y-90424400D01*
X141605000Y-89691300D02*
X142065400Y-90151700D01*
X174117000Y-56388000D02*
X172941700Y-56388000D01*
X164859700Y-64837300D02*
X148064200Y-64837300D01*
X172941700Y-56755300D02*
X164859700Y-64837300D01*
X172941700Y-56388000D02*
X172941700Y-56755300D01*
X138634200Y-92042500D02*
X138889200Y-91787500D01*
X138634200Y-96059900D02*
X138634200Y-92042500D01*
X139065000Y-96490700D02*
X138634200Y-96059900D01*
X139065000Y-97791000D02*
X139065000Y-96490700D01*
X157226000Y-76327000D02*
X157226000Y-75151700D01*
X143637000Y-56388000D02*
X143637000Y-57563300D01*
X143637000Y-62137800D02*
X143637000Y-57563300D01*
X156650900Y-75151700D02*
X143637000Y-62137800D01*
X157226000Y-75151700D02*
X156650900Y-75151700D01*
X144145000Y-97791000D02*
X144145000Y-96490700D01*
X141541300Y-93250000D02*
X139259600Y-93250000D01*
X144145000Y-95853700D02*
X141541300Y-93250000D01*
X144145000Y-96490700D02*
X144145000Y-95853700D01*
X141212700Y-96098400D02*
X141212700Y-94446700D01*
X141605000Y-96490700D02*
X141212700Y-96098400D01*
X141605000Y-97791000D02*
X141605000Y-96490700D01*
X140098900Y-86056800D02*
X143117400Y-86056800D01*
X139065000Y-87090700D02*
X140098900Y-86056800D01*
X139065000Y-88391000D02*
X139065000Y-87090700D01*
X136525000Y-88391000D02*
X136525000Y-87090700D01*
X138310200Y-85305500D02*
X144093000Y-85305500D01*
X136525000Y-87090700D02*
X138310200Y-85305500D01*
X144145000Y-88391000D02*
X144145000Y-87320600D01*
X143632600Y-86808200D02*
X141413000Y-86808200D01*
X144145000Y-87320600D02*
X143632600Y-86808200D01*
X179197000Y-56388000D02*
X178021700Y-56388000D01*
X178021700Y-56755300D02*
X178021700Y-56388000D01*
X167057300Y-67719700D02*
X178021700Y-56755300D01*
X150856800Y-67719700D02*
X167057300Y-67719700D01*
X150707200Y-67570100D02*
X150856800Y-67719700D01*
X159766000Y-76327000D02*
X158590700Y-76327000D01*
X146177000Y-56388000D02*
X146177000Y-57563300D01*
X146177000Y-63993700D02*
X146177000Y-57563300D01*
X156786200Y-74602900D02*
X146177000Y-63993700D01*
X157314200Y-74602900D02*
X156786200Y-74602900D01*
X158590700Y-75879400D02*
X157314200Y-74602900D01*
X158590700Y-76327000D02*
X158590700Y-75879400D01*
X136525000Y-93267400D02*
X136525000Y-97791000D01*
X138850300Y-90942100D02*
X136525000Y-93267400D01*
X139024000Y-90942100D02*
X138850300Y-90942100D01*
X180329800Y-109827400D02*
X180329800Y-105502100D01*
X179869700Y-105502100D02*
X180329800Y-105502100D01*
X179681800Y-105314200D02*
X179869700Y-105502100D01*
X177789800Y-109827400D02*
X177789800Y-105502100D01*
X178263800Y-105028100D02*
X177789800Y-105502100D01*
X187884000Y-55118000D02*
X186558700Y-55118000D01*
X186558700Y-65292600D02*
X186558700Y-55118000D01*
X198052400Y-76786300D02*
X186558700Y-65292600D01*
X198052400Y-89786100D02*
X198052400Y-76786300D01*
X197912800Y-89925700D02*
X198052400Y-89786100D01*
X193277600Y-89925700D02*
X197912800Y-89925700D01*
X192652300Y-90551000D02*
X193277600Y-89925700D01*
X191875800Y-90551000D02*
X192652300Y-90551000D01*
X191875800Y-90551000D02*
X191577000Y-90551000D01*
X173830000Y-94361000D02*
X172754700Y-94361000D01*
X170681600Y-90866600D02*
X170681600Y-90787000D01*
X172754700Y-92939700D02*
X170681600Y-90866600D01*
X172754700Y-94361000D02*
X172754700Y-92939700D01*
X190021400Y-90551000D02*
X191577000Y-90551000D01*
X186742000Y-87271600D02*
X190021400Y-90551000D01*
X174253300Y-87271600D02*
X186742000Y-87271600D01*
X171534900Y-89990000D02*
X174253300Y-87271600D01*
X170977700Y-89990000D02*
X171534900Y-89990000D01*
X170681600Y-90286100D02*
X170977700Y-89990000D01*
X170681600Y-90787000D02*
X170681600Y-90286100D01*
X166914100Y-93454800D02*
X166914100Y-93639800D01*
X169581900Y-90787000D02*
X166914100Y-93454800D01*
X170681600Y-90787000D02*
X169581900Y-90787000D01*
X175249800Y-109827400D02*
X175249800Y-105502100D01*
X172940000Y-103192300D02*
X175249800Y-105502100D01*
X168030200Y-103192300D02*
X172940000Y-103192300D01*
X191577000Y-89281000D02*
X190501700Y-89281000D01*
X188038200Y-86817500D02*
X190501700Y-89281000D01*
X173752300Y-86817500D02*
X188038200Y-86817500D01*
X171063700Y-89506100D02*
X173752300Y-86817500D01*
X170136200Y-89506100D02*
X171063700Y-89506100D01*
X165860600Y-93781700D02*
X170136200Y-89506100D01*
X161896600Y-93781700D02*
X165860600Y-93781700D01*
X167287100Y-104598500D02*
X170718500Y-104598500D01*
X172709800Y-109827400D02*
X172709800Y-105502100D01*
X163438800Y-103925000D02*
X163230200Y-103716400D01*
X171132700Y-103925000D02*
X163438800Y-103925000D01*
X172709800Y-105502100D02*
X171132700Y-103925000D01*
X159512000Y-97715800D02*
X159512000Y-99016100D01*
X161034100Y-99016100D02*
X161219300Y-99201300D01*
X159512000Y-99016100D02*
X161034100Y-99016100D01*
X154432000Y-97715800D02*
X154432000Y-99016100D01*
X167629800Y-109827400D02*
X167629800Y-105502100D01*
X166187500Y-105502100D02*
X167629800Y-105502100D01*
X165060800Y-104375400D02*
X166187500Y-105502100D01*
X162868900Y-104375400D02*
X165060800Y-104375400D01*
X160838700Y-102345200D02*
X162868900Y-104375400D01*
X156378400Y-102345200D02*
X160838700Y-102345200D01*
X154347300Y-100314100D02*
X156378400Y-102345200D01*
X154347300Y-99100800D02*
X154347300Y-100314100D01*
X154432000Y-99016100D02*
X154347300Y-99100800D01*
X156972000Y-90364500D02*
X155982400Y-91354100D01*
X156972000Y-88315800D02*
X156972000Y-90364500D01*
X159512000Y-88315800D02*
X159512000Y-87015500D01*
X165089800Y-109827400D02*
X165089800Y-105502100D01*
X163281900Y-105502100D02*
X165089800Y-105502100D01*
X161049500Y-103269700D02*
X163281900Y-105502100D01*
X156229700Y-103269700D02*
X161049500Y-103269700D01*
X152085400Y-99125400D02*
X156229700Y-103269700D01*
X150775000Y-99125400D02*
X152085400Y-99125400D01*
X150646600Y-98997000D02*
X150775000Y-99125400D01*
X150646600Y-95286400D02*
X150646600Y-98997000D01*
X153806600Y-92126400D02*
X150646600Y-95286400D01*
X153806600Y-87205900D02*
X153806600Y-92126400D01*
X154490100Y-86522400D02*
X153806600Y-87205900D01*
X159018900Y-86522400D02*
X154490100Y-86522400D01*
X159512000Y-87015500D02*
X159018900Y-86522400D01*
X159925200Y-104227000D02*
X160201700Y-104503500D01*
X154291600Y-104227000D02*
X159925200Y-104227000D01*
X150484600Y-100420000D02*
X154291600Y-104227000D01*
X146297300Y-100420000D02*
X150484600Y-100420000D01*
X144770400Y-98893100D02*
X146297300Y-100420000D01*
X144770400Y-93261600D02*
X144770400Y-98893100D01*
X142875000Y-91366200D02*
X144770400Y-93261600D01*
X142875000Y-88391000D02*
X142875000Y-91366200D01*
X145415000Y-88391000D02*
X145415000Y-89691300D01*
X162549800Y-109827400D02*
X162549800Y-105502100D01*
X160824400Y-103776700D02*
X162549800Y-105502100D01*
X156023000Y-103776700D02*
X160824400Y-103776700D01*
X152215900Y-99969600D02*
X156023000Y-103776700D01*
X147117700Y-99969600D02*
X152215900Y-99969600D01*
X146040300Y-98892200D02*
X147117700Y-99969600D01*
X146040300Y-90316600D02*
X146040300Y-98892200D01*
X145415000Y-89691300D02*
X146040300Y-90316600D01*
X164592000Y-88315800D02*
X164592000Y-89616100D01*
X153112800Y-87262800D02*
X153112800Y-90553800D01*
X154303500Y-86072100D02*
X153112800Y-87262800D01*
X159260100Y-86072100D02*
X154303500Y-86072100D01*
X160156600Y-86968600D02*
X159260100Y-86072100D01*
X160156600Y-89629200D02*
X160156600Y-86968600D01*
X160598900Y-90071500D02*
X160156600Y-89629200D01*
X164136600Y-90071500D02*
X160598900Y-90071500D01*
X164592000Y-89616100D02*
X164136600Y-90071500D01*
X160009800Y-109827400D02*
X160009800Y-105502100D01*
X160009800Y-105443500D02*
X160009800Y-105502100D01*
X159573800Y-105007500D02*
X160009800Y-105443500D01*
X159573800Y-99961500D02*
X159573800Y-99961600D01*
X161343500Y-99961500D02*
X159573800Y-99961500D01*
X162052000Y-99253000D02*
X161343500Y-99961500D01*
X162052000Y-97715800D02*
X162052000Y-99253000D01*
X156972000Y-99162100D02*
X157029400Y-99219500D01*
X156972000Y-97715800D02*
X156972000Y-99162100D01*
X157469800Y-109827400D02*
X157469800Y-105502100D01*
X162052000Y-88315800D02*
X162052000Y-87015500D01*
X156990900Y-105502100D02*
X157469800Y-105502100D01*
X156813700Y-105324900D02*
X156990900Y-105502100D01*
X152447300Y-91060800D02*
X152932400Y-91545900D01*
X152447300Y-87291400D02*
X152447300Y-91060800D01*
X154117100Y-85621600D02*
X152447300Y-87291400D01*
X160658100Y-85621600D02*
X154117100Y-85621600D01*
X162052000Y-87015500D02*
X160658100Y-85621600D01*
X135255000Y-97791000D02*
X135255000Y-99091300D01*
X139900600Y-103736900D02*
X135255000Y-99091300D01*
X149699600Y-103736900D02*
X139900600Y-103736900D01*
X137795000Y-97791000D02*
X137795000Y-99091300D01*
X154929800Y-109827400D02*
X154929800Y-105502100D01*
X150748400Y-101320700D02*
X154929800Y-105502100D01*
X145925500Y-101320700D02*
X150748400Y-101320700D01*
X143512000Y-98907200D02*
X145925500Y-101320700D01*
X143512000Y-95857600D02*
X143512000Y-98907200D01*
X141474500Y-93820100D02*
X143512000Y-95857600D01*
X140893400Y-93820100D02*
X141474500Y-93820100D01*
X139690400Y-95023100D02*
X140893400Y-93820100D01*
X139690400Y-98975000D02*
X139690400Y-95023100D01*
X139574100Y-99091300D02*
X139690400Y-98975000D01*
X137795000Y-99091300D02*
X139574100Y-99091300D01*
X140335000Y-97791000D02*
X140335000Y-99091300D01*
X144355300Y-103111600D02*
X146931500Y-103111600D01*
X140335000Y-99091300D02*
X144355300Y-103111600D01*
X142875000Y-97791000D02*
X142875000Y-99091300D01*
X152389800Y-109827400D02*
X152389800Y-105502100D01*
X149307200Y-102419500D02*
X152389800Y-105502100D01*
X146203200Y-102419500D02*
X149307200Y-102419500D01*
X142875000Y-99091300D02*
X146203200Y-102419500D01*
X137795000Y-88391000D02*
X137795000Y-89691300D01*
X147401400Y-104658900D02*
X147576500Y-104834000D01*
X139547700Y-104658900D02*
X147401400Y-104658900D01*
X134156600Y-99267800D02*
X139547700Y-104658900D01*
X134156600Y-93329700D02*
X134156600Y-99267800D01*
X137795000Y-89691300D02*
X134156600Y-93329700D01*
X140335000Y-88391000D02*
X140335000Y-89691300D01*
X149849800Y-109827400D02*
X149849800Y-105502100D01*
X148556300Y-104208600D02*
X149849800Y-105502100D01*
X139734300Y-104208600D02*
X148556300Y-104208600D01*
X134610400Y-99084700D02*
X139734300Y-104208600D01*
X134610400Y-94423300D02*
X134610400Y-99084700D01*
X139342400Y-89691300D02*
X134610400Y-94423300D01*
X140335000Y-89691300D02*
X139342400Y-89691300D01*
X147309800Y-109827400D02*
X147309800Y-105502100D01*
X146362900Y-105502100D02*
X146160100Y-105299300D01*
X147309800Y-105502100D02*
X146362900Y-105502100D01*
X144769800Y-109827400D02*
X144769800Y-105502100D01*
X143581800Y-105502100D02*
X144769800Y-105502100D01*
X143527400Y-105447700D02*
X143581800Y-105502100D01*
X142229800Y-109827400D02*
X142229800Y-105502100D01*
X141032500Y-105502100D02*
X142229800Y-105502100D01*
X140978100Y-105447700D02*
X141032500Y-105502100D01*
X139689800Y-109827400D02*
X139689800Y-105502100D01*
X139209900Y-105502100D02*
X139689800Y-105502100D01*
X137860400Y-104152600D02*
X139209900Y-105502100D01*
X196977000Y-89281000D02*
X195901700Y-89281000D01*
X195901700Y-88655700D02*
X195901700Y-89281000D01*
X196506600Y-88050800D02*
X195901700Y-88655700D01*
X196506600Y-78315600D02*
X196506600Y-88050800D01*
X195693300Y-77502300D02*
X196506600Y-78315600D01*
X195326000Y-77502300D02*
X195693300Y-77502300D01*
X195326000Y-76327000D02*
X195326000Y-77502300D01*
X149672000Y-98425000D02*
X148746700Y-98425000D01*
X187198000Y-91821000D02*
X186497700Y-91821000D01*
X179230000Y-89281000D02*
X180305300Y-89281000D01*
X183957700Y-89281000D02*
X180305300Y-89281000D01*
X186497700Y-91821000D02*
X183957700Y-89281000D01*
X177210300Y-91047900D02*
X177210300Y-91480600D01*
X178977200Y-89281000D02*
X177210300Y-91047900D01*
X179230000Y-89281000D02*
X178977200Y-89281000D01*
X180561700Y-56020600D02*
X180561700Y-56388000D01*
X179753800Y-55212700D02*
X180561700Y-56020600D01*
X178896900Y-55212700D02*
X179753800Y-55212700D01*
X178021600Y-54337400D02*
X178896900Y-55212700D01*
X178021600Y-53488100D02*
X178021600Y-54337400D01*
X177199000Y-52665500D02*
X178021600Y-53488100D01*
X165936800Y-52665500D02*
X177199000Y-52665500D01*
X165227000Y-53375300D02*
X165936800Y-52665500D01*
X165227000Y-54279000D02*
X165227000Y-53375300D01*
X164293300Y-55212700D02*
X165227000Y-54279000D01*
X163400200Y-55212700D02*
X164293300Y-55212700D01*
X162592300Y-56020600D02*
X163400200Y-55212700D01*
X162592300Y-56388000D02*
X162592300Y-56020600D01*
X161417000Y-56388000D02*
X162592300Y-56388000D01*
X181737000Y-56388000D02*
X180561700Y-56388000D01*
X148112700Y-90887000D02*
X150117600Y-88882100D01*
X148112700Y-97791000D02*
X148112700Y-90887000D01*
X146685000Y-97791000D02*
X148112700Y-97791000D01*
X148112700Y-97791000D02*
X148746700Y-98425000D01*
X153841600Y-85158100D02*
X163669000Y-85158100D01*
X150117600Y-88882100D02*
X153841600Y-85158100D01*
X169352700Y-96906000D02*
X168788000Y-97470700D01*
X169352700Y-91760000D02*
X169352700Y-96906000D01*
X170053000Y-91760000D02*
X169352700Y-91760000D01*
X165989100Y-97842900D02*
X168788000Y-97842900D01*
X165862000Y-97715800D02*
X165989100Y-97842900D01*
X168788000Y-98171000D02*
X168788000Y-97842900D01*
X168788000Y-97842900D02*
X168788000Y-97470700D01*
X170053000Y-91760000D02*
X170753300Y-91760000D01*
X170958200Y-93268300D02*
X170958200Y-92160400D01*
X172676300Y-94986400D02*
X170958200Y-93268300D01*
X174788900Y-94986400D02*
X172676300Y-94986400D01*
X177210300Y-92565000D02*
X174788900Y-94986400D01*
X177210300Y-91480600D02*
X177210300Y-92565000D01*
X170753300Y-91955500D02*
X170753300Y-91760000D01*
X170958200Y-92160400D02*
X170753300Y-91955500D01*
X167386000Y-78867000D02*
X167386000Y-80042300D01*
X167386000Y-82708100D02*
X167386000Y-80042300D01*
X163322000Y-86772100D02*
X167386000Y-82708100D01*
X163322000Y-88315800D02*
X163322000Y-86772100D01*
X158242000Y-97715800D02*
X158242000Y-96415500D01*
X171521600Y-87667100D02*
X171521600Y-87593700D01*
X170132900Y-89055800D02*
X171521600Y-87667100D01*
X169847900Y-89055800D02*
X170132900Y-89055800D01*
X166042300Y-92861400D02*
X169847900Y-89055800D01*
X161658500Y-92861400D02*
X166042300Y-92861400D01*
X158242000Y-96277900D02*
X161658500Y-92861400D01*
X158242000Y-96415500D02*
X158242000Y-96277900D01*
X155702000Y-97715800D02*
X155702000Y-96415500D01*
X169836000Y-88430500D02*
X169873800Y-88430500D01*
X166011500Y-92255000D02*
X169836000Y-88430500D01*
X159862500Y-92255000D02*
X166011500Y-92255000D01*
X155702000Y-96415500D02*
X159862500Y-92255000D01*
X185166000Y-78867000D02*
X183990700Y-78867000D01*
X155702000Y-88315800D02*
X155702000Y-87015500D01*
X158676800Y-87015500D02*
X155702000Y-87015500D01*
X158879000Y-87217700D02*
X158676800Y-87015500D01*
X158879000Y-89487100D02*
X158879000Y-87217700D01*
X159918800Y-90526900D02*
X158879000Y-89487100D01*
X165441800Y-90526900D02*
X159918800Y-90526900D01*
X168038500Y-87930200D02*
X165441800Y-90526900D01*
X168038500Y-87800900D02*
X168038500Y-87930200D01*
X175247500Y-80591900D02*
X168038500Y-87800900D01*
X182633100Y-80591900D02*
X175247500Y-80591900D01*
X183990700Y-79234300D02*
X182633100Y-80591900D01*
X183990700Y-78867000D02*
X183990700Y-79234300D01*
X143269600Y-55023300D02*
X143637000Y-55023300D01*
X142461700Y-55831200D02*
X143269600Y-55023300D01*
X142461700Y-62290400D02*
X142461700Y-55831200D01*
X156050700Y-75879400D02*
X142461700Y-62290400D01*
X156050700Y-76883800D02*
X156050700Y-75879400D01*
X156858600Y-77691700D02*
X156050700Y-76883800D01*
X157226000Y-77691700D02*
X156858600Y-77691700D01*
X157226000Y-78867000D02*
X157226000Y-77691700D01*
X143637000Y-53848000D02*
X143637000Y-55023300D01*
X163322000Y-95863100D02*
X163941700Y-95243400D01*
X163322000Y-97715800D02*
X163322000Y-95863100D01*
X157127700Y-80140600D02*
X157226000Y-80042300D01*
X157127700Y-81326800D02*
X157127700Y-80140600D01*
X157226000Y-78867000D02*
X157226000Y-80042300D01*
X160782000Y-88315800D02*
X160782000Y-89616100D01*
X169926000Y-76327000D02*
X169926000Y-77502300D01*
X169558600Y-77502300D02*
X169926000Y-77502300D01*
X168750700Y-78310200D02*
X169558600Y-77502300D01*
X168750700Y-82001900D02*
X168750700Y-78310200D01*
X163947400Y-86805200D02*
X168750700Y-82001900D01*
X163947400Y-89425500D02*
X163947400Y-86805200D01*
X163756800Y-89616100D02*
X163947400Y-89425500D01*
X160782000Y-89616100D02*
X163756800Y-89616100D01*
X141097000Y-56388000D02*
X141097000Y-57563300D01*
X154686000Y-76327000D02*
X154686000Y-75151700D01*
X141097000Y-61562700D02*
X141097000Y-57563300D01*
X154686000Y-75151700D02*
X141097000Y-61562700D01*
X160782000Y-97715800D02*
X160782000Y-96415500D01*
X159460900Y-96415500D02*
X160782000Y-96415500D01*
X159258400Y-96213000D02*
X159460900Y-96415500D01*
X186530700Y-79234300D02*
X186530700Y-78867000D01*
X184722700Y-81042300D02*
X186530700Y-79234300D01*
X175434000Y-81042300D02*
X184722700Y-81042300D01*
X168488900Y-87987400D02*
X175434000Y-81042300D01*
X168488900Y-88116700D02*
X168488900Y-87987400D01*
X165580000Y-91025600D02*
X168488900Y-88116700D01*
X159651500Y-91025600D02*
X165580000Y-91025600D01*
X158242000Y-89616100D02*
X159651500Y-91025600D01*
X158242000Y-88315800D02*
X158242000Y-89616100D01*
X187706000Y-78867000D02*
X186530700Y-78867000D01*
X185409800Y-109827400D02*
X185409800Y-105502100D01*
X182474600Y-102566900D02*
X166369500Y-102566900D01*
X185409800Y-105502100D02*
X182474600Y-102566900D01*
X134597500Y-105502100D02*
X134604800Y-105509400D01*
X132069800Y-105502100D02*
X134597500Y-105502100D01*
X132069800Y-109827400D02*
X132069800Y-105502100D01*
X134604800Y-109334700D02*
X134604800Y-105509400D01*
X160830800Y-94613300D02*
X160561600Y-94882500D01*
X164860700Y-94613300D02*
X160830800Y-94613300D01*
X166694700Y-96447300D02*
X164860700Y-94613300D01*
X182626000Y-76327000D02*
X181450700Y-76327000D01*
X181450700Y-75959700D02*
X181450700Y-76327000D01*
X179704900Y-74213900D02*
X181450700Y-75959700D01*
X158893000Y-74213900D02*
X179704900Y-74213900D01*
X158654800Y-74452100D02*
X158893000Y-74213900D01*
X177546000Y-78867000D02*
X177546000Y-77691700D01*
X178783000Y-76822000D02*
X178783000Y-75652400D01*
X177913300Y-77691700D02*
X178783000Y-76822000D01*
X177546000Y-77691700D02*
X177913300Y-77691700D01*
X196977000Y-94361000D02*
X195901700Y-94361000D01*
X179767700Y-93091000D02*
X180305300Y-93091000D01*
X181517600Y-94303300D02*
X180305300Y-93091000D01*
X186340400Y-94303300D02*
X181517600Y-94303300D01*
X189572900Y-97535800D02*
X186340400Y-94303300D01*
X192726900Y-97535800D02*
X189572900Y-97535800D01*
X195901700Y-94361000D02*
X192726900Y-97535800D01*
X179767700Y-93091000D02*
X179230000Y-93091000D01*
X179230000Y-93091000D02*
X177837800Y-93091000D01*
X138557000Y-61562700D02*
X138557000Y-56388000D01*
X152146000Y-75151700D02*
X138557000Y-61562700D01*
X152146000Y-76327000D02*
X152146000Y-75151700D01*
X152146000Y-78867000D02*
X152146000Y-77691700D01*
X138557000Y-53848000D02*
X138557000Y-55023300D01*
X138924400Y-55023300D02*
X138557000Y-55023300D01*
X139732300Y-55831200D02*
X138924400Y-55023300D01*
X139732300Y-60915200D02*
X139732300Y-55831200D01*
X153331800Y-74514700D02*
X139732300Y-60915200D01*
X153331800Y-76873200D02*
X153331800Y-74514700D01*
X152513300Y-77691700D02*
X153331800Y-76873200D01*
X152146000Y-77691700D02*
X152513300Y-77691700D01*
X149606000Y-76327000D02*
X149606000Y-75151700D01*
X136017000Y-61562700D02*
X136017000Y-56388000D01*
X149606000Y-75151700D02*
X136017000Y-61562700D01*
X149606000Y-78867000D02*
X149606000Y-77691700D01*
X136017000Y-53848000D02*
X136017000Y-55023300D01*
X136384400Y-55023300D02*
X136017000Y-55023300D01*
X137192300Y-55831200D02*
X136384400Y-55023300D01*
X137192300Y-61056400D02*
X137192300Y-55831200D01*
X150799200Y-74663300D02*
X137192300Y-61056400D01*
X150799200Y-76865800D02*
X150799200Y-74663300D01*
X149973300Y-77691700D02*
X150799200Y-76865800D01*
X149606000Y-77691700D02*
X149973300Y-77691700D01*
X198251000Y-56897200D02*
X199363400Y-56897200D01*
X194088500Y-56897200D02*
X198251000Y-56897200D01*
X194009300Y-56818000D02*
X194088500Y-56897200D01*
X192684000Y-56818000D02*
X194009300Y-56818000D01*
X198247000Y-55118000D02*
X199374000Y-55118000D01*
X194009300Y-55118000D02*
X198247000Y-55118000D01*
X194009300Y-55118000D02*
X194009300Y-55050800D01*
X192684000Y-55118000D02*
X194009300Y-55118000D01*
X198248300Y-53418000D02*
X199388200Y-53418000D01*
X192684000Y-53418000D02*
X198248300Y-53418000D01*
X187884000Y-53418000D02*
X186558700Y-53418000D01*
X181993800Y-91821000D02*
X183181200Y-90633600D01*
X179230000Y-91821000D02*
X181993800Y-91821000D01*
X186107900Y-53868800D02*
X186107900Y-70442000D01*
X186558700Y-53418000D02*
X186107900Y-53868800D01*
X179230000Y-90551000D02*
X180305300Y-90551000D01*
X191577000Y-94361000D02*
X190501700Y-94361000D01*
X180819800Y-90551000D02*
X180305300Y-90551000D01*
X181334300Y-90036500D02*
X180819800Y-90551000D01*
X177546000Y-76327000D02*
X176370700Y-76327000D01*
X146685000Y-88391000D02*
X146685000Y-87090700D01*
X144923100Y-87090700D02*
X146685000Y-87090700D01*
X144780000Y-87233800D02*
X144923100Y-87090700D01*
X144780000Y-89723900D02*
X144780000Y-87233800D01*
X145415000Y-90358900D02*
X144780000Y-89723900D01*
X145415000Y-97791000D02*
X145415000Y-90358900D01*
X181396700Y-89974100D02*
X181334300Y-90036500D01*
X183454200Y-89974100D02*
X181396700Y-89974100D01*
X186275800Y-92795700D02*
X183454200Y-89974100D01*
X188936400Y-92795700D02*
X186275800Y-92795700D01*
X190501700Y-94361000D02*
X188936400Y-92795700D01*
X176370700Y-75959700D02*
X176370700Y-76327000D01*
X175107000Y-74696000D02*
X176370700Y-75959700D01*
X162223400Y-74696000D02*
X175107000Y-74696000D01*
X161130600Y-75788800D02*
X162223400Y-74696000D01*
X161130600Y-76626600D02*
X161130600Y-75788800D01*
X160065600Y-77691600D02*
X161130600Y-76626600D01*
X159240400Y-77691600D02*
X160065600Y-77691600D01*
X158435900Y-78496100D02*
X159240400Y-77691600D01*
X158435900Y-80903000D02*
X158435900Y-78496100D01*
X157386800Y-81952100D02*
X158435900Y-80903000D01*
X151823600Y-81952100D02*
X157386800Y-81952100D01*
X146685000Y-87090700D02*
X151823600Y-81952100D01*
X173830000Y-93091000D02*
X174905300Y-93091000D01*
X133844400Y-55023300D02*
X133477000Y-55023300D01*
X134652300Y-55831200D02*
X133844400Y-55023300D01*
X134652300Y-61552100D02*
X134652300Y-55831200D01*
X148251800Y-75151600D02*
X134652300Y-61552100D01*
X148251800Y-76873200D02*
X148251800Y-75151600D01*
X147433300Y-77691700D02*
X148251800Y-76873200D01*
X147066000Y-77691700D02*
X147433300Y-77691700D01*
X147066000Y-78867000D02*
X147066000Y-77691700D01*
X133477000Y-53848000D02*
X133477000Y-55023300D01*
X171314800Y-90839700D02*
X171314800Y-90615500D01*
X173566100Y-93091000D02*
X171314800Y-90839700D01*
X173830000Y-93091000D02*
X173566100Y-93091000D01*
X174905300Y-92822100D02*
X174905300Y-93091000D01*
X176728000Y-90999400D02*
X174905300Y-92822100D01*
X176728000Y-90250900D02*
X176728000Y-90999400D01*
X178323300Y-88655600D02*
X176728000Y-90250900D01*
X185956400Y-88655600D02*
X178323300Y-88655600D01*
X190391800Y-93091000D02*
X185956400Y-88655600D01*
X191577000Y-93091000D02*
X190391800Y-93091000D01*
X191577000Y-91821000D02*
X190501700Y-91821000D01*
X173830000Y-91821000D02*
X174905300Y-91821000D01*
X189758700Y-91821000D02*
X190501700Y-91821000D01*
X186123000Y-88185300D02*
X189758700Y-91821000D01*
X178156700Y-88185300D02*
X186123000Y-88185300D01*
X176277700Y-90064300D02*
X178156700Y-88185300D01*
X176277700Y-90697500D02*
X176277700Y-90064300D01*
X175154200Y-91821000D02*
X176277700Y-90697500D01*
X174905300Y-91821000D02*
X175154200Y-91821000D01*
X196977000Y-95631000D02*
X195901700Y-95631000D01*
X176159300Y-95631000D02*
X173830000Y-95631000D01*
X178054700Y-93735600D02*
X176159300Y-95631000D01*
X180313000Y-93735600D02*
X178054700Y-93735600D01*
X181703800Y-95126400D02*
X180313000Y-93735600D01*
X186526600Y-95126400D02*
X181703800Y-95126400D01*
X189429300Y-98029100D02*
X186526600Y-95126400D01*
X193503600Y-98029100D02*
X189429300Y-98029100D01*
X195901700Y-95631000D02*
X193503600Y-98029100D01*
X173830000Y-90551000D02*
X174905300Y-90551000D01*
X175099100Y-90744800D02*
X175099100Y-90991700D01*
X174905300Y-90551000D02*
X175099100Y-90744800D01*
X179230000Y-96901000D02*
X178154700Y-96901000D01*
X173558900Y-101496800D02*
X178154700Y-96901000D01*
X156452400Y-101496800D02*
X173558900Y-101496800D01*
X156171100Y-101215500D02*
X156452400Y-101496800D01*
X187884000Y-56818000D02*
X189209300Y-56818000D01*
X179230000Y-94361000D02*
X178154700Y-94361000D01*
X173174300Y-101046400D02*
X178154700Y-96066000D01*
X156911300Y-101046400D02*
X173174300Y-101046400D01*
X155951000Y-100086100D02*
X156911300Y-101046400D01*
X155003600Y-100086100D02*
X155951000Y-100086100D01*
X178364300Y-96275600D02*
X178154700Y-96066000D01*
X180174100Y-96275600D02*
X178364300Y-96275600D01*
X180729200Y-96830700D02*
X180174100Y-96275600D01*
X180729200Y-98308200D02*
X180729200Y-96830700D01*
X184145400Y-101724400D02*
X180729200Y-98308200D01*
X193727000Y-101724400D02*
X184145400Y-101724400D01*
X198997400Y-96454000D02*
X193727000Y-101724400D01*
X198997400Y-66606100D02*
X198997400Y-96454000D01*
X189209300Y-56818000D02*
X198997400Y-66606100D01*
X178154700Y-96066000D02*
X178154700Y-94361000D01*
X173830000Y-89281000D02*
X174905300Y-89281000D01*
X197913500Y-96901000D02*
X196977000Y-96901000D01*
X198547000Y-96267500D02*
X197913500Y-96901000D01*
X198547000Y-93150900D02*
X198547000Y-96267500D01*
X197861700Y-92465600D02*
X198547000Y-93150900D01*
X195547000Y-92465600D02*
X197861700Y-92465600D01*
X194277000Y-91195600D02*
X195547000Y-92465600D01*
X189770200Y-91195600D02*
X194277000Y-91195600D01*
X186297200Y-87722600D02*
X189770200Y-91195600D01*
X176463700Y-87722600D02*
X186297200Y-87722600D01*
X174905300Y-89281000D02*
X176463700Y-87722600D01*
X186394300Y-95631000D02*
X179230000Y-95631000D01*
X189242800Y-98479500D02*
X186394300Y-95631000D01*
X193690100Y-98479500D02*
X189242800Y-98479500D01*
X195901600Y-96268000D02*
X193690100Y-98479500D01*
X197909600Y-96268000D02*
X195901600Y-96268000D01*
X198052400Y-96125200D02*
X197909600Y-96268000D01*
X198052400Y-93879100D02*
X198052400Y-96125200D01*
X197908900Y-93735600D02*
X198052400Y-93879100D01*
X194547700Y-93735600D02*
X197908900Y-93735600D01*
X192652300Y-95631000D02*
X194547700Y-93735600D01*
X191577000Y-95631000D02*
X192652300Y-95631000D01*
D24*
G36*
X202725377Y-50412811D02*
X202861341Y-50503658D01*
X202952189Y-50639622D01*
X202998000Y-50869931D01*
X202998000Y-102673069D01*
X202952189Y-102903378D01*
X202861341Y-103039342D01*
X202725377Y-103130189D01*
X202495073Y-103176000D01*
X191223900Y-103176000D01*
X191155313Y-103189643D01*
X191085385Y-103189643D01*
X190647978Y-103276649D01*
X190446710Y-103360017D01*
X190392038Y-103382663D01*
X190021222Y-103630433D01*
X189921955Y-103729701D01*
X189825333Y-103826323D01*
X189577562Y-104197138D01*
X189529115Y-104314101D01*
X189471548Y-104453079D01*
X189384543Y-104890485D01*
X189384543Y-104960413D01*
X189370900Y-105029000D01*
X189370900Y-105464533D01*
X189313930Y-105375999D01*
X189101730Y-105231009D01*
X188849840Y-105180000D01*
X187049840Y-105180000D01*
X186814523Y-105224278D01*
X186679263Y-105311316D01*
X186561730Y-105231009D01*
X186309840Y-105180000D01*
X186091060Y-105180000D01*
X185947201Y-104964699D01*
X183012001Y-102029499D01*
X182765439Y-101864752D01*
X182474600Y-101806900D01*
X174323602Y-101806900D01*
X178315395Y-97815107D01*
X178480000Y-97848440D01*
X179969200Y-97848440D01*
X179969200Y-98308200D01*
X180027052Y-98599039D01*
X180191799Y-98845601D01*
X182229946Y-100883748D01*
X182257026Y-100949286D01*
X183276427Y-101970468D01*
X183345239Y-101999041D01*
X183607999Y-102261801D01*
X183854560Y-102426548D01*
X184145400Y-102484400D01*
X184514113Y-102484400D01*
X184609020Y-102523809D01*
X186051930Y-102525068D01*
X186150354Y-102484400D01*
X193727000Y-102484400D01*
X194017839Y-102426548D01*
X194264401Y-102261801D01*
X199534801Y-96991401D01*
X199699548Y-96744839D01*
X199757400Y-96454000D01*
X199757400Y-66606100D01*
X199699548Y-66315261D01*
X199534801Y-66068699D01*
X191427131Y-57961029D01*
X191432110Y-57964431D01*
X191684000Y-58015440D01*
X193684000Y-58015440D01*
X193919317Y-57971162D01*
X194135441Y-57832090D01*
X194254938Y-57657200D01*
X198800937Y-57657200D01*
X198833073Y-57689392D01*
X199176601Y-57832038D01*
X199548567Y-57832362D01*
X199892343Y-57690317D01*
X200155592Y-57427527D01*
X200298238Y-57083999D01*
X200298562Y-56712033D01*
X200156517Y-56368257D01*
X199893727Y-56105008D01*
X199664277Y-56009732D01*
X199902943Y-55911117D01*
X200166192Y-55648327D01*
X200308838Y-55304799D01*
X200309162Y-54932833D01*
X200167117Y-54589057D01*
X199904327Y-54325808D01*
X199772275Y-54270975D01*
X199917143Y-54211117D01*
X200180392Y-53948327D01*
X200323038Y-53604799D01*
X200323362Y-53232833D01*
X200181317Y-52889057D01*
X199918527Y-52625808D01*
X199574999Y-52483162D01*
X199203033Y-52482838D01*
X198859257Y-52624883D01*
X198826082Y-52658000D01*
X194291926Y-52658000D01*
X194287162Y-52632683D01*
X194148090Y-52416559D01*
X193935890Y-52271569D01*
X193684000Y-52220560D01*
X191684000Y-52220560D01*
X191448683Y-52264838D01*
X191232559Y-52403910D01*
X191087569Y-52616110D01*
X191036560Y-52868000D01*
X191036560Y-53968000D01*
X191080838Y-54203317D01*
X191121481Y-54266478D01*
X191087569Y-54316110D01*
X191036560Y-54568000D01*
X191036560Y-55668000D01*
X191080838Y-55903317D01*
X191121481Y-55966478D01*
X191087569Y-56016110D01*
X191036560Y-56268000D01*
X191036560Y-57368000D01*
X191080838Y-57603317D01*
X191101448Y-57635346D01*
X189746701Y-56280599D01*
X189503196Y-56117894D01*
X189487162Y-56032683D01*
X189446519Y-55969522D01*
X189480431Y-55919890D01*
X189531440Y-55668000D01*
X189531440Y-54568000D01*
X189487162Y-54332683D01*
X189446519Y-54269522D01*
X189480431Y-54219890D01*
X189531440Y-53968000D01*
X189531440Y-52868000D01*
X189487162Y-52632683D01*
X189348090Y-52416559D01*
X189135890Y-52271569D01*
X188884000Y-52220560D01*
X186884000Y-52220560D01*
X186648683Y-52264838D01*
X186432559Y-52403910D01*
X186287569Y-52616110D01*
X186267294Y-52716230D01*
X186021299Y-52880599D01*
X185570499Y-53331399D01*
X185405752Y-53577961D01*
X185347900Y-53868800D01*
X185347900Y-69879537D01*
X185315708Y-69911673D01*
X185213671Y-70157403D01*
X183861600Y-68805332D01*
X183861600Y-55320600D01*
X183855409Y-55289476D01*
X183798040Y-55001060D01*
X183617034Y-54730166D01*
X183394734Y-54507866D01*
X183361858Y-54485899D01*
X183131516Y-54331989D01*
X183222000Y-53877093D01*
X183222000Y-53818907D01*
X183108961Y-53250622D01*
X182787054Y-52768853D01*
X182305285Y-52446946D01*
X181737000Y-52333907D01*
X181168715Y-52446946D01*
X180686946Y-52768853D01*
X180514836Y-53026434D01*
X180447300Y-53013000D01*
X180410187Y-53013000D01*
X180247054Y-52768853D01*
X179765285Y-52446946D01*
X179197000Y-52333907D01*
X178628715Y-52446946D01*
X178284946Y-52676644D01*
X177736401Y-52128099D01*
X177489839Y-51963352D01*
X177199000Y-51905500D01*
X165936800Y-51905500D01*
X165645961Y-51963352D01*
X165399399Y-52128099D01*
X164858144Y-52669354D01*
X164525285Y-52446946D01*
X163957000Y-52333907D01*
X163388715Y-52446946D01*
X162906946Y-52768853D01*
X162687000Y-53098026D01*
X162467054Y-52768853D01*
X161985285Y-52446946D01*
X161417000Y-52333907D01*
X160848715Y-52446946D01*
X160366946Y-52768853D01*
X160139298Y-53109553D01*
X160072183Y-52966642D01*
X159643924Y-52576355D01*
X159233890Y-52406524D01*
X159004000Y-52527845D01*
X159004000Y-53721000D01*
X159024000Y-53721000D01*
X159024000Y-53975000D01*
X159004000Y-53975000D01*
X159004000Y-53995000D01*
X158750000Y-53995000D01*
X158750000Y-53975000D01*
X158730000Y-53975000D01*
X158730000Y-53721000D01*
X158750000Y-53721000D01*
X158750000Y-52527845D01*
X158520110Y-52406524D01*
X158110076Y-52576355D01*
X157681817Y-52966642D01*
X157614702Y-53109553D01*
X157387054Y-52768853D01*
X156905285Y-52446946D01*
X156337000Y-52333907D01*
X155768715Y-52446946D01*
X155286946Y-52768853D01*
X155067000Y-53098026D01*
X154847054Y-52768853D01*
X154365285Y-52446946D01*
X153797000Y-52333907D01*
X153228715Y-52446946D01*
X152746946Y-52768853D01*
X152527000Y-53098026D01*
X152307054Y-52768853D01*
X151825285Y-52446946D01*
X151257000Y-52333907D01*
X150688715Y-52446946D01*
X150206946Y-52768853D01*
X149987000Y-53098026D01*
X149767054Y-52768853D01*
X149285285Y-52446946D01*
X148717000Y-52333907D01*
X148148715Y-52446946D01*
X147666946Y-52768853D01*
X147439298Y-53109553D01*
X147372183Y-52966642D01*
X146943924Y-52576355D01*
X146533890Y-52406524D01*
X146304000Y-52527845D01*
X146304000Y-53721000D01*
X146324000Y-53721000D01*
X146324000Y-53975000D01*
X146304000Y-53975000D01*
X146304000Y-53995000D01*
X146050000Y-53995000D01*
X146050000Y-53975000D01*
X146030000Y-53975000D01*
X146030000Y-53721000D01*
X146050000Y-53721000D01*
X146050000Y-52527845D01*
X145820110Y-52406524D01*
X145410076Y-52576355D01*
X144981817Y-52966642D01*
X144914702Y-53109553D01*
X144687054Y-52768853D01*
X144205285Y-52446946D01*
X143637000Y-52333907D01*
X143068715Y-52446946D01*
X142586946Y-52768853D01*
X142359298Y-53109553D01*
X142292183Y-52966642D01*
X141863924Y-52576355D01*
X141453890Y-52406524D01*
X141224000Y-52527845D01*
X141224000Y-53721000D01*
X141244000Y-53721000D01*
X141244000Y-53975000D01*
X141224000Y-53975000D01*
X141224000Y-53995000D01*
X140970000Y-53995000D01*
X140970000Y-53975000D01*
X140950000Y-53975000D01*
X140950000Y-53721000D01*
X140970000Y-53721000D01*
X140970000Y-52527845D01*
X140740110Y-52406524D01*
X140330076Y-52576355D01*
X139901817Y-52966642D01*
X139834702Y-53109553D01*
X139607054Y-52768853D01*
X139125285Y-52446946D01*
X138557000Y-52333907D01*
X137988715Y-52446946D01*
X137506946Y-52768853D01*
X137287000Y-53098026D01*
X137067054Y-52768853D01*
X136585285Y-52446946D01*
X136017000Y-52333907D01*
X135448715Y-52446946D01*
X134966946Y-52768853D01*
X134747000Y-53098026D01*
X134527054Y-52768853D01*
X134045285Y-52446946D01*
X133477000Y-52333907D01*
X132908715Y-52446946D01*
X132426946Y-52768853D01*
X132105039Y-53250622D01*
X131992000Y-53818907D01*
X131992000Y-53877093D01*
X132105039Y-54445378D01*
X132426946Y-54927147D01*
X132710101Y-55116345D01*
X132710076Y-55116355D01*
X132281817Y-55506642D01*
X132035514Y-56031108D01*
X132156181Y-56261000D01*
X133350000Y-56261000D01*
X133350000Y-56241000D01*
X133604000Y-56241000D01*
X133604000Y-56261000D01*
X133624000Y-56261000D01*
X133624000Y-56515000D01*
X133604000Y-56515000D01*
X133604000Y-57708155D01*
X133833890Y-57829476D01*
X133892300Y-57805283D01*
X133892300Y-61552100D01*
X133950152Y-61842939D01*
X134114899Y-62089501D01*
X146938998Y-74913600D01*
X146938998Y-75006844D01*
X146709110Y-74885524D01*
X146299076Y-75055355D01*
X145870817Y-75445642D01*
X145624514Y-75970108D01*
X145745181Y-76200000D01*
X146939000Y-76200000D01*
X146939000Y-76180000D01*
X147193000Y-76180000D01*
X147193000Y-76200000D01*
X147213000Y-76200000D01*
X147213000Y-76454000D01*
X147193000Y-76454000D01*
X147193000Y-76474000D01*
X146939000Y-76474000D01*
X146939000Y-76454000D01*
X145745181Y-76454000D01*
X145624514Y-76683892D01*
X145870817Y-77208358D01*
X146299076Y-77598645D01*
X146299101Y-77598655D01*
X146015946Y-77787853D01*
X145694039Y-78269622D01*
X145581000Y-78837907D01*
X145581000Y-78896093D01*
X145694039Y-79464378D01*
X146015946Y-79946147D01*
X146497715Y-80268054D01*
X147066000Y-80381093D01*
X147634285Y-80268054D01*
X148116054Y-79946147D01*
X148336000Y-79616974D01*
X148555946Y-79946147D01*
X149037715Y-80268054D01*
X149606000Y-80381093D01*
X150174285Y-80268054D01*
X150656054Y-79946147D01*
X150876000Y-79616974D01*
X151095946Y-79946147D01*
X151577715Y-80268054D01*
X152146000Y-80381093D01*
X152714285Y-80268054D01*
X153196054Y-79946147D01*
X153423702Y-79605447D01*
X153490817Y-79748358D01*
X153919076Y-80138645D01*
X154329110Y-80308476D01*
X154559000Y-80187155D01*
X154559000Y-78994000D01*
X154539000Y-78994000D01*
X154539000Y-78740000D01*
X154559000Y-78740000D01*
X154559000Y-78720000D01*
X154813000Y-78720000D01*
X154813000Y-78740000D01*
X154833000Y-78740000D01*
X154833000Y-78994000D01*
X154813000Y-78994000D01*
X154813000Y-80187155D01*
X155042890Y-80308476D01*
X155452924Y-80138645D01*
X155881183Y-79748358D01*
X155948298Y-79605447D01*
X156175946Y-79946147D01*
X156379346Y-80082054D01*
X156367700Y-80140600D01*
X156367700Y-80764337D01*
X156335508Y-80796473D01*
X156192862Y-81140001D01*
X156192817Y-81192100D01*
X151823600Y-81192100D01*
X151532761Y-81249952D01*
X151286199Y-81414699D01*
X146370198Y-86330700D01*
X144923100Y-86330700D01*
X144632261Y-86388552D01*
X144425744Y-86526542D01*
X144170001Y-86270799D01*
X144124698Y-86240528D01*
X144278167Y-86240662D01*
X144621943Y-86098617D01*
X144885192Y-85835827D01*
X145027838Y-85492299D01*
X145028162Y-85120333D01*
X144886117Y-84776557D01*
X144623327Y-84513308D01*
X144279799Y-84370662D01*
X143907833Y-84370338D01*
X143564057Y-84512383D01*
X143530882Y-84545500D01*
X138310200Y-84545500D01*
X138019361Y-84603352D01*
X137772799Y-84768099D01*
X135987599Y-86553299D01*
X135822852Y-86799861D01*
X135815544Y-86836602D01*
X135681310Y-86781000D01*
X135540750Y-86781000D01*
X135382000Y-86939750D01*
X135382000Y-88264000D01*
X135402000Y-88264000D01*
X135402000Y-88518000D01*
X135382000Y-88518000D01*
X135382000Y-89842250D01*
X135540750Y-90001000D01*
X135681310Y-90001000D01*
X135898122Y-89911194D01*
X135973110Y-89962431D01*
X136225000Y-90013440D01*
X136398058Y-90013440D01*
X133619199Y-92792299D01*
X133454452Y-93038861D01*
X133396600Y-93329700D01*
X133396600Y-99267800D01*
X133454452Y-99558639D01*
X133619199Y-99805201D01*
X137252400Y-103438402D01*
X137068208Y-103622273D01*
X136925562Y-103965801D01*
X136925238Y-104337767D01*
X137067283Y-104681543D01*
X137330073Y-104944792D01*
X137673601Y-105087438D01*
X137720477Y-105087479D01*
X137812998Y-105180000D01*
X136249840Y-105180000D01*
X136014523Y-105224278D01*
X135871190Y-105316511D01*
X135756650Y-105238249D01*
X135504760Y-105187240D01*
X135286020Y-105187240D01*
X135142201Y-104971999D01*
X135134901Y-104964699D01*
X134888339Y-104799952D01*
X134597500Y-104742100D01*
X132069800Y-104742100D01*
X131778961Y-104799952D01*
X131532399Y-104964699D01*
X131388540Y-105180000D01*
X131169840Y-105180000D01*
X130934523Y-105224278D01*
X130799263Y-105311316D01*
X130681730Y-105231009D01*
X130429840Y-105180000D01*
X128629840Y-105180000D01*
X128394523Y-105224278D01*
X128259263Y-105311316D01*
X128141730Y-105231009D01*
X127889840Y-105180000D01*
X126089840Y-105180000D01*
X125854523Y-105224278D01*
X125652600Y-105354212D01*
X125652600Y-105041700D01*
X125638957Y-104973113D01*
X125638957Y-104903185D01*
X125551951Y-104465778D01*
X125445937Y-104209838D01*
X125198167Y-103839022D01*
X125002278Y-103643134D01*
X125002277Y-103643133D01*
X124631462Y-103395362D01*
X124503492Y-103342356D01*
X124375521Y-103289348D01*
X123938115Y-103202343D01*
X123868662Y-103202343D01*
X123800562Y-103188701D01*
X114497409Y-103176095D01*
X114266622Y-103130189D01*
X114130658Y-103039341D01*
X114039811Y-102903377D01*
X113994000Y-102673073D01*
X113994000Y-94413810D01*
X125706632Y-94413810D01*
X126257646Y-95747366D01*
X127277047Y-96768548D01*
X128609640Y-97321889D01*
X130052550Y-97323148D01*
X131386106Y-96772134D01*
X132407288Y-95752733D01*
X132960629Y-94420140D01*
X132961888Y-92977230D01*
X132410874Y-91643674D01*
X131391473Y-90622492D01*
X130058880Y-90069151D01*
X128615970Y-90067892D01*
X127282414Y-90618906D01*
X126261232Y-91638307D01*
X125707891Y-92970900D01*
X125706632Y-94413810D01*
X113994000Y-94413810D01*
X113994000Y-88676750D01*
X134320000Y-88676750D01*
X134320000Y-89492309D01*
X134416673Y-89725698D01*
X134595301Y-89904327D01*
X134828690Y-90001000D01*
X134969250Y-90001000D01*
X135128000Y-89842250D01*
X135128000Y-88518000D01*
X134478750Y-88518000D01*
X134320000Y-88676750D01*
X113994000Y-88676750D01*
X113994000Y-87289691D01*
X134320000Y-87289691D01*
X134320000Y-88105250D01*
X134478750Y-88264000D01*
X135128000Y-88264000D01*
X135128000Y-86939750D01*
X134969250Y-86781000D01*
X134828690Y-86781000D01*
X134595301Y-86877673D01*
X134416673Y-87056302D01*
X134320000Y-87289691D01*
X113994000Y-87289691D01*
X113994000Y-56744892D01*
X132035514Y-56744892D01*
X132281817Y-57269358D01*
X132710076Y-57659645D01*
X133120110Y-57829476D01*
X133350000Y-57708155D01*
X133350000Y-56515000D01*
X132156181Y-56515000D01*
X132035514Y-56744892D01*
X113994000Y-56744892D01*
X113994000Y-50869927D01*
X114039811Y-50639623D01*
X114130658Y-50503659D01*
X114266622Y-50412811D01*
X114496931Y-50367000D01*
X202495073Y-50367000D01*
X202725377Y-50412811D01*
X202725377Y-50412811D01*
G37*
X202725377Y-50412811D02*
X202861341Y-50503658D01*
X202952189Y-50639622D01*
X202998000Y-50869931D01*
X202998000Y-102673069D01*
X202952189Y-102903378D01*
X202861341Y-103039342D01*
X202725377Y-103130189D01*
X202495073Y-103176000D01*
X191223900Y-103176000D01*
X191155313Y-103189643D01*
X191085385Y-103189643D01*
X190647978Y-103276649D01*
X190446710Y-103360017D01*
X190392038Y-103382663D01*
X190021222Y-103630433D01*
X189921955Y-103729701D01*
X189825333Y-103826323D01*
X189577562Y-104197138D01*
X189529115Y-104314101D01*
X189471548Y-104453079D01*
X189384543Y-104890485D01*
X189384543Y-104960413D01*
X189370900Y-105029000D01*
X189370900Y-105464533D01*
X189313930Y-105375999D01*
X189101730Y-105231009D01*
X188849840Y-105180000D01*
X187049840Y-105180000D01*
X186814523Y-105224278D01*
X186679263Y-105311316D01*
X186561730Y-105231009D01*
X186309840Y-105180000D01*
X186091060Y-105180000D01*
X185947201Y-104964699D01*
X183012001Y-102029499D01*
X182765439Y-101864752D01*
X182474600Y-101806900D01*
X174323602Y-101806900D01*
X178315395Y-97815107D01*
X178480000Y-97848440D01*
X179969200Y-97848440D01*
X179969200Y-98308200D01*
X180027052Y-98599039D01*
X180191799Y-98845601D01*
X182229946Y-100883748D01*
X182257026Y-100949286D01*
X183276427Y-101970468D01*
X183345239Y-101999041D01*
X183607999Y-102261801D01*
X183854560Y-102426548D01*
X184145400Y-102484400D01*
X184514113Y-102484400D01*
X184609020Y-102523809D01*
X186051930Y-102525068D01*
X186150354Y-102484400D01*
X193727000Y-102484400D01*
X194017839Y-102426548D01*
X194264401Y-102261801D01*
X199534801Y-96991401D01*
X199699548Y-96744839D01*
X199757400Y-96454000D01*
X199757400Y-66606100D01*
X199699548Y-66315261D01*
X199534801Y-66068699D01*
X191427131Y-57961029D01*
X191432110Y-57964431D01*
X191684000Y-58015440D01*
X193684000Y-58015440D01*
X193919317Y-57971162D01*
X194135441Y-57832090D01*
X194254938Y-57657200D01*
X198800937Y-57657200D01*
X198833073Y-57689392D01*
X199176601Y-57832038D01*
X199548567Y-57832362D01*
X199892343Y-57690317D01*
X200155592Y-57427527D01*
X200298238Y-57083999D01*
X200298562Y-56712033D01*
X200156517Y-56368257D01*
X199893727Y-56105008D01*
X199664277Y-56009732D01*
X199902943Y-55911117D01*
X200166192Y-55648327D01*
X200308838Y-55304799D01*
X200309162Y-54932833D01*
X200167117Y-54589057D01*
X199904327Y-54325808D01*
X199772275Y-54270975D01*
X199917143Y-54211117D01*
X200180392Y-53948327D01*
X200323038Y-53604799D01*
X200323362Y-53232833D01*
X200181317Y-52889057D01*
X199918527Y-52625808D01*
X199574999Y-52483162D01*
X199203033Y-52482838D01*
X198859257Y-52624883D01*
X198826082Y-52658000D01*
X194291926Y-52658000D01*
X194287162Y-52632683D01*
X194148090Y-52416559D01*
X193935890Y-52271569D01*
X193684000Y-52220560D01*
X191684000Y-52220560D01*
X191448683Y-52264838D01*
X191232559Y-52403910D01*
X191087569Y-52616110D01*
X191036560Y-52868000D01*
X191036560Y-53968000D01*
X191080838Y-54203317D01*
X191121481Y-54266478D01*
X191087569Y-54316110D01*
X191036560Y-54568000D01*
X191036560Y-55668000D01*
X191080838Y-55903317D01*
X191121481Y-55966478D01*
X191087569Y-56016110D01*
X191036560Y-56268000D01*
X191036560Y-57368000D01*
X191080838Y-57603317D01*
X191101448Y-57635346D01*
X189746701Y-56280599D01*
X189503196Y-56117894D01*
X189487162Y-56032683D01*
X189446519Y-55969522D01*
X189480431Y-55919890D01*
X189531440Y-55668000D01*
X189531440Y-54568000D01*
X189487162Y-54332683D01*
X189446519Y-54269522D01*
X189480431Y-54219890D01*
X189531440Y-53968000D01*
X189531440Y-52868000D01*
X189487162Y-52632683D01*
X189348090Y-52416559D01*
X189135890Y-52271569D01*
X188884000Y-52220560D01*
X186884000Y-52220560D01*
X186648683Y-52264838D01*
X186432559Y-52403910D01*
X186287569Y-52616110D01*
X186267294Y-52716230D01*
X186021299Y-52880599D01*
X185570499Y-53331399D01*
X185405752Y-53577961D01*
X185347900Y-53868800D01*
X185347900Y-69879537D01*
X185315708Y-69911673D01*
X185213671Y-70157403D01*
X183861600Y-68805332D01*
X183861600Y-55320600D01*
X183855409Y-55289476D01*
X183798040Y-55001060D01*
X183617034Y-54730166D01*
X183394734Y-54507866D01*
X183361858Y-54485899D01*
X183131516Y-54331989D01*
X183222000Y-53877093D01*
X183222000Y-53818907D01*
X183108961Y-53250622D01*
X182787054Y-52768853D01*
X182305285Y-52446946D01*
X181737000Y-52333907D01*
X181168715Y-52446946D01*
X180686946Y-52768853D01*
X180514836Y-53026434D01*
X180447300Y-53013000D01*
X180410187Y-53013000D01*
X180247054Y-52768853D01*
X179765285Y-52446946D01*
X179197000Y-52333907D01*
X178628715Y-52446946D01*
X178284946Y-52676644D01*
X177736401Y-52128099D01*
X177489839Y-51963352D01*
X177199000Y-51905500D01*
X165936800Y-51905500D01*
X165645961Y-51963352D01*
X165399399Y-52128099D01*
X164858144Y-52669354D01*
X164525285Y-52446946D01*
X163957000Y-52333907D01*
X163388715Y-52446946D01*
X162906946Y-52768853D01*
X162687000Y-53098026D01*
X162467054Y-52768853D01*
X161985285Y-52446946D01*
X161417000Y-52333907D01*
X160848715Y-52446946D01*
X160366946Y-52768853D01*
X160139298Y-53109553D01*
X160072183Y-52966642D01*
X159643924Y-52576355D01*
X159233890Y-52406524D01*
X159004000Y-52527845D01*
X159004000Y-53721000D01*
X159024000Y-53721000D01*
X159024000Y-53975000D01*
X159004000Y-53975000D01*
X159004000Y-53995000D01*
X158750000Y-53995000D01*
X158750000Y-53975000D01*
X158730000Y-53975000D01*
X158730000Y-53721000D01*
X158750000Y-53721000D01*
X158750000Y-52527845D01*
X158520110Y-52406524D01*
X158110076Y-52576355D01*
X157681817Y-52966642D01*
X157614702Y-53109553D01*
X157387054Y-52768853D01*
X156905285Y-52446946D01*
X156337000Y-52333907D01*
X155768715Y-52446946D01*
X155286946Y-52768853D01*
X155067000Y-53098026D01*
X154847054Y-52768853D01*
X154365285Y-52446946D01*
X153797000Y-52333907D01*
X153228715Y-52446946D01*
X152746946Y-52768853D01*
X152527000Y-53098026D01*
X152307054Y-52768853D01*
X151825285Y-52446946D01*
X151257000Y-52333907D01*
X150688715Y-52446946D01*
X150206946Y-52768853D01*
X149987000Y-53098026D01*
X149767054Y-52768853D01*
X149285285Y-52446946D01*
X148717000Y-52333907D01*
X148148715Y-52446946D01*
X147666946Y-52768853D01*
X147439298Y-53109553D01*
X147372183Y-52966642D01*
X146943924Y-52576355D01*
X146533890Y-52406524D01*
X146304000Y-52527845D01*
X146304000Y-53721000D01*
X146324000Y-53721000D01*
X146324000Y-53975000D01*
X146304000Y-53975000D01*
X146304000Y-53995000D01*
X146050000Y-53995000D01*
X146050000Y-53975000D01*
X146030000Y-53975000D01*
X146030000Y-53721000D01*
X146050000Y-53721000D01*
X146050000Y-52527845D01*
X145820110Y-52406524D01*
X145410076Y-52576355D01*
X144981817Y-52966642D01*
X144914702Y-53109553D01*
X144687054Y-52768853D01*
X144205285Y-52446946D01*
X143637000Y-52333907D01*
X143068715Y-52446946D01*
X142586946Y-52768853D01*
X142359298Y-53109553D01*
X142292183Y-52966642D01*
X141863924Y-52576355D01*
X141453890Y-52406524D01*
X141224000Y-52527845D01*
X141224000Y-53721000D01*
X141244000Y-53721000D01*
X141244000Y-53975000D01*
X141224000Y-53975000D01*
X141224000Y-53995000D01*
X140970000Y-53995000D01*
X140970000Y-53975000D01*
X140950000Y-53975000D01*
X140950000Y-53721000D01*
X140970000Y-53721000D01*
X140970000Y-52527845D01*
X140740110Y-52406524D01*
X140330076Y-52576355D01*
X139901817Y-52966642D01*
X139834702Y-53109553D01*
X139607054Y-52768853D01*
X139125285Y-52446946D01*
X138557000Y-52333907D01*
X137988715Y-52446946D01*
X137506946Y-52768853D01*
X137287000Y-53098026D01*
X137067054Y-52768853D01*
X136585285Y-52446946D01*
X136017000Y-52333907D01*
X135448715Y-52446946D01*
X134966946Y-52768853D01*
X134747000Y-53098026D01*
X134527054Y-52768853D01*
X134045285Y-52446946D01*
X133477000Y-52333907D01*
X132908715Y-52446946D01*
X132426946Y-52768853D01*
X132105039Y-53250622D01*
X131992000Y-53818907D01*
X131992000Y-53877093D01*
X132105039Y-54445378D01*
X132426946Y-54927147D01*
X132710101Y-55116345D01*
X132710076Y-55116355D01*
X132281817Y-55506642D01*
X132035514Y-56031108D01*
X132156181Y-56261000D01*
X133350000Y-56261000D01*
X133350000Y-56241000D01*
X133604000Y-56241000D01*
X133604000Y-56261000D01*
X133624000Y-56261000D01*
X133624000Y-56515000D01*
X133604000Y-56515000D01*
X133604000Y-57708155D01*
X133833890Y-57829476D01*
X133892300Y-57805283D01*
X133892300Y-61552100D01*
X133950152Y-61842939D01*
X134114899Y-62089501D01*
X146938998Y-74913600D01*
X146938998Y-75006844D01*
X146709110Y-74885524D01*
X146299076Y-75055355D01*
X145870817Y-75445642D01*
X145624514Y-75970108D01*
X145745181Y-76200000D01*
X146939000Y-76200000D01*
X146939000Y-76180000D01*
X147193000Y-76180000D01*
X147193000Y-76200000D01*
X147213000Y-76200000D01*
X147213000Y-76454000D01*
X147193000Y-76454000D01*
X147193000Y-76474000D01*
X146939000Y-76474000D01*
X146939000Y-76454000D01*
X145745181Y-76454000D01*
X145624514Y-76683892D01*
X145870817Y-77208358D01*
X146299076Y-77598645D01*
X146299101Y-77598655D01*
X146015946Y-77787853D01*
X145694039Y-78269622D01*
X145581000Y-78837907D01*
X145581000Y-78896093D01*
X145694039Y-79464378D01*
X146015946Y-79946147D01*
X146497715Y-80268054D01*
X147066000Y-80381093D01*
X147634285Y-80268054D01*
X148116054Y-79946147D01*
X148336000Y-79616974D01*
X148555946Y-79946147D01*
X149037715Y-80268054D01*
X149606000Y-80381093D01*
X150174285Y-80268054D01*
X150656054Y-79946147D01*
X150876000Y-79616974D01*
X151095946Y-79946147D01*
X151577715Y-80268054D01*
X152146000Y-80381093D01*
X152714285Y-80268054D01*
X153196054Y-79946147D01*
X153423702Y-79605447D01*
X153490817Y-79748358D01*
X153919076Y-80138645D01*
X154329110Y-80308476D01*
X154559000Y-80187155D01*
X154559000Y-78994000D01*
X154539000Y-78994000D01*
X154539000Y-78740000D01*
X154559000Y-78740000D01*
X154559000Y-78720000D01*
X154813000Y-78720000D01*
X154813000Y-78740000D01*
X154833000Y-78740000D01*
X154833000Y-78994000D01*
X154813000Y-78994000D01*
X154813000Y-80187155D01*
X155042890Y-80308476D01*
X155452924Y-80138645D01*
X155881183Y-79748358D01*
X155948298Y-79605447D01*
X156175946Y-79946147D01*
X156379346Y-80082054D01*
X156367700Y-80140600D01*
X156367700Y-80764337D01*
X156335508Y-80796473D01*
X156192862Y-81140001D01*
X156192817Y-81192100D01*
X151823600Y-81192100D01*
X151532761Y-81249952D01*
X151286199Y-81414699D01*
X146370198Y-86330700D01*
X144923100Y-86330700D01*
X144632261Y-86388552D01*
X144425744Y-86526542D01*
X144170001Y-86270799D01*
X144124698Y-86240528D01*
X144278167Y-86240662D01*
X144621943Y-86098617D01*
X144885192Y-85835827D01*
X145027838Y-85492299D01*
X145028162Y-85120333D01*
X144886117Y-84776557D01*
X144623327Y-84513308D01*
X144279799Y-84370662D01*
X143907833Y-84370338D01*
X143564057Y-84512383D01*
X143530882Y-84545500D01*
X138310200Y-84545500D01*
X138019361Y-84603352D01*
X137772799Y-84768099D01*
X135987599Y-86553299D01*
X135822852Y-86799861D01*
X135815544Y-86836602D01*
X135681310Y-86781000D01*
X135540750Y-86781000D01*
X135382000Y-86939750D01*
X135382000Y-88264000D01*
X135402000Y-88264000D01*
X135402000Y-88518000D01*
X135382000Y-88518000D01*
X135382000Y-89842250D01*
X135540750Y-90001000D01*
X135681310Y-90001000D01*
X135898122Y-89911194D01*
X135973110Y-89962431D01*
X136225000Y-90013440D01*
X136398058Y-90013440D01*
X133619199Y-92792299D01*
X133454452Y-93038861D01*
X133396600Y-93329700D01*
X133396600Y-99267800D01*
X133454452Y-99558639D01*
X133619199Y-99805201D01*
X137252400Y-103438402D01*
X137068208Y-103622273D01*
X136925562Y-103965801D01*
X136925238Y-104337767D01*
X137067283Y-104681543D01*
X137330073Y-104944792D01*
X137673601Y-105087438D01*
X137720477Y-105087479D01*
X137812998Y-105180000D01*
X136249840Y-105180000D01*
X136014523Y-105224278D01*
X135871190Y-105316511D01*
X135756650Y-105238249D01*
X135504760Y-105187240D01*
X135286020Y-105187240D01*
X135142201Y-104971999D01*
X135134901Y-104964699D01*
X134888339Y-104799952D01*
X134597500Y-104742100D01*
X132069800Y-104742100D01*
X131778961Y-104799952D01*
X131532399Y-104964699D01*
X131388540Y-105180000D01*
X131169840Y-105180000D01*
X130934523Y-105224278D01*
X130799263Y-105311316D01*
X130681730Y-105231009D01*
X130429840Y-105180000D01*
X128629840Y-105180000D01*
X128394523Y-105224278D01*
X128259263Y-105311316D01*
X128141730Y-105231009D01*
X127889840Y-105180000D01*
X126089840Y-105180000D01*
X125854523Y-105224278D01*
X125652600Y-105354212D01*
X125652600Y-105041700D01*
X125638957Y-104973113D01*
X125638957Y-104903185D01*
X125551951Y-104465778D01*
X125445937Y-104209838D01*
X125198167Y-103839022D01*
X125002278Y-103643134D01*
X125002277Y-103643133D01*
X124631462Y-103395362D01*
X124503492Y-103342356D01*
X124375521Y-103289348D01*
X123938115Y-103202343D01*
X123868662Y-103202343D01*
X123800562Y-103188701D01*
X114497409Y-103176095D01*
X114266622Y-103130189D01*
X114130658Y-103039341D01*
X114039811Y-102903377D01*
X113994000Y-102673073D01*
X113994000Y-94413810D01*
X125706632Y-94413810D01*
X126257646Y-95747366D01*
X127277047Y-96768548D01*
X128609640Y-97321889D01*
X130052550Y-97323148D01*
X131386106Y-96772134D01*
X132407288Y-95752733D01*
X132960629Y-94420140D01*
X132961888Y-92977230D01*
X132410874Y-91643674D01*
X131391473Y-90622492D01*
X130058880Y-90069151D01*
X128615970Y-90067892D01*
X127282414Y-90618906D01*
X126261232Y-91638307D01*
X125707891Y-92970900D01*
X125706632Y-94413810D01*
X113994000Y-94413810D01*
X113994000Y-88676750D01*
X134320000Y-88676750D01*
X134320000Y-89492309D01*
X134416673Y-89725698D01*
X134595301Y-89904327D01*
X134828690Y-90001000D01*
X134969250Y-90001000D01*
X135128000Y-89842250D01*
X135128000Y-88518000D01*
X134478750Y-88518000D01*
X134320000Y-88676750D01*
X113994000Y-88676750D01*
X113994000Y-87289691D01*
X134320000Y-87289691D01*
X134320000Y-88105250D01*
X134478750Y-88264000D01*
X135128000Y-88264000D01*
X135128000Y-86939750D01*
X134969250Y-86781000D01*
X134828690Y-86781000D01*
X134595301Y-86877673D01*
X134416673Y-87056302D01*
X134320000Y-87289691D01*
X113994000Y-87289691D01*
X113994000Y-56744892D01*
X132035514Y-56744892D01*
X132281817Y-57269358D01*
X132710076Y-57659645D01*
X133120110Y-57829476D01*
X133350000Y-57708155D01*
X133350000Y-56515000D01*
X132156181Y-56515000D01*
X132035514Y-56744892D01*
X113994000Y-56744892D01*
X113994000Y-50869927D01*
X114039811Y-50639623D01*
X114130658Y-50503659D01*
X114266622Y-50412811D01*
X114496931Y-50367000D01*
X202495073Y-50367000D01*
X202725377Y-50412811D01*
G36*
X172138899Y-95523801D02*
X172385460Y-95688548D01*
X172432560Y-95697917D01*
X172432560Y-95931000D01*
X172476838Y-96166317D01*
X172535178Y-96256980D01*
X172445000Y-96474690D01*
X172445000Y-96615250D01*
X172603750Y-96774000D01*
X173703000Y-96774000D01*
X173703000Y-96754000D01*
X173957000Y-96754000D01*
X173957000Y-96774000D01*
X175056250Y-96774000D01*
X175215000Y-96615250D01*
X175215000Y-96474690D01*
X175180334Y-96391000D01*
X176159300Y-96391000D01*
X176450139Y-96333148D01*
X176696701Y-96168401D01*
X177394700Y-95470402D01*
X177394700Y-95751198D01*
X172859498Y-100286400D01*
X162093402Y-100286400D01*
X162589401Y-99790401D01*
X162754148Y-99543840D01*
X162803833Y-99294060D01*
X163022000Y-99338240D01*
X163622000Y-99338240D01*
X163857317Y-99293962D01*
X163947980Y-99235622D01*
X164165690Y-99325800D01*
X164306250Y-99325800D01*
X164465000Y-99167050D01*
X164465000Y-97842800D01*
X164445000Y-97842800D01*
X164445000Y-97588800D01*
X164465000Y-97588800D01*
X164465000Y-96264550D01*
X164306250Y-96105800D01*
X164302965Y-96105800D01*
X164470643Y-96036517D01*
X164733892Y-95773727D01*
X164796221Y-95623623D01*
X165316676Y-96144078D01*
X165236020Y-96195978D01*
X165018310Y-96105800D01*
X164877750Y-96105800D01*
X164719000Y-96264550D01*
X164719000Y-97588800D01*
X164739000Y-97588800D01*
X164739000Y-97842800D01*
X164719000Y-97842800D01*
X164719000Y-99167050D01*
X164877750Y-99325800D01*
X165018310Y-99325800D01*
X165235122Y-99235994D01*
X165310110Y-99287231D01*
X165562000Y-99338240D01*
X166162000Y-99338240D01*
X166397317Y-99293962D01*
X166613441Y-99154890D01*
X166758431Y-98942690D01*
X166809440Y-98690800D01*
X166809440Y-98602900D01*
X167551266Y-98602900D01*
X167584838Y-98781317D01*
X167723910Y-98997441D01*
X167936110Y-99142431D01*
X168188000Y-99193440D01*
X169388000Y-99193440D01*
X169623317Y-99149162D01*
X169726646Y-99082671D01*
X169728302Y-99084327D01*
X169961691Y-99181000D01*
X170402250Y-99181000D01*
X170561000Y-99022250D01*
X170561000Y-98298000D01*
X170815000Y-98298000D01*
X170815000Y-99022250D01*
X170973750Y-99181000D01*
X171414309Y-99181000D01*
X171647698Y-99084327D01*
X171826327Y-98905699D01*
X171923000Y-98672310D01*
X171923000Y-98456750D01*
X171764250Y-98298000D01*
X170815000Y-98298000D01*
X170561000Y-98298000D01*
X170541000Y-98298000D01*
X170541000Y-98044000D01*
X170561000Y-98044000D01*
X170561000Y-97319750D01*
X170815000Y-97319750D01*
X170815000Y-98044000D01*
X171764250Y-98044000D01*
X171923000Y-97885250D01*
X171923000Y-97669690D01*
X171826327Y-97436301D01*
X171647698Y-97257673D01*
X171476475Y-97186750D01*
X172445000Y-97186750D01*
X172445000Y-97327310D01*
X172541673Y-97560699D01*
X172720302Y-97739327D01*
X172953691Y-97836000D01*
X173544250Y-97836000D01*
X173703000Y-97677250D01*
X173703000Y-97028000D01*
X173957000Y-97028000D01*
X173957000Y-97677250D01*
X174115750Y-97836000D01*
X174706309Y-97836000D01*
X174939698Y-97739327D01*
X175118327Y-97560699D01*
X175215000Y-97327310D01*
X175215000Y-97186750D01*
X175056250Y-97028000D01*
X173957000Y-97028000D01*
X173703000Y-97028000D01*
X172603750Y-97028000D01*
X172445000Y-97186750D01*
X171476475Y-97186750D01*
X171414309Y-97161000D01*
X170973750Y-97161000D01*
X170815000Y-97319750D01*
X170561000Y-97319750D01*
X170402250Y-97161000D01*
X170061977Y-97161000D01*
X170112700Y-96906000D01*
X170112700Y-94895000D01*
X170180002Y-94895000D01*
X170180002Y-94736252D01*
X170338750Y-94895000D01*
X170554310Y-94895000D01*
X170787699Y-94798327D01*
X170966327Y-94619698D01*
X171044960Y-94429862D01*
X172138899Y-95523801D01*
X172138899Y-95523801D01*
G37*
X172138899Y-95523801D02*
X172385460Y-95688548D01*
X172432560Y-95697917D01*
X172432560Y-95931000D01*
X172476838Y-96166317D01*
X172535178Y-96256980D01*
X172445000Y-96474690D01*
X172445000Y-96615250D01*
X172603750Y-96774000D01*
X173703000Y-96774000D01*
X173703000Y-96754000D01*
X173957000Y-96754000D01*
X173957000Y-96774000D01*
X175056250Y-96774000D01*
X175215000Y-96615250D01*
X175215000Y-96474690D01*
X175180334Y-96391000D01*
X176159300Y-96391000D01*
X176450139Y-96333148D01*
X176696701Y-96168401D01*
X177394700Y-95470402D01*
X177394700Y-95751198D01*
X172859498Y-100286400D01*
X162093402Y-100286400D01*
X162589401Y-99790401D01*
X162754148Y-99543840D01*
X162803833Y-99294060D01*
X163022000Y-99338240D01*
X163622000Y-99338240D01*
X163857317Y-99293962D01*
X163947980Y-99235622D01*
X164165690Y-99325800D01*
X164306250Y-99325800D01*
X164465000Y-99167050D01*
X164465000Y-97842800D01*
X164445000Y-97842800D01*
X164445000Y-97588800D01*
X164465000Y-97588800D01*
X164465000Y-96264550D01*
X164306250Y-96105800D01*
X164302965Y-96105800D01*
X164470643Y-96036517D01*
X164733892Y-95773727D01*
X164796221Y-95623623D01*
X165316676Y-96144078D01*
X165236020Y-96195978D01*
X165018310Y-96105800D01*
X164877750Y-96105800D01*
X164719000Y-96264550D01*
X164719000Y-97588800D01*
X164739000Y-97588800D01*
X164739000Y-97842800D01*
X164719000Y-97842800D01*
X164719000Y-99167050D01*
X164877750Y-99325800D01*
X165018310Y-99325800D01*
X165235122Y-99235994D01*
X165310110Y-99287231D01*
X165562000Y-99338240D01*
X166162000Y-99338240D01*
X166397317Y-99293962D01*
X166613441Y-99154890D01*
X166758431Y-98942690D01*
X166809440Y-98690800D01*
X166809440Y-98602900D01*
X167551266Y-98602900D01*
X167584838Y-98781317D01*
X167723910Y-98997441D01*
X167936110Y-99142431D01*
X168188000Y-99193440D01*
X169388000Y-99193440D01*
X169623317Y-99149162D01*
X169726646Y-99082671D01*
X169728302Y-99084327D01*
X169961691Y-99181000D01*
X170402250Y-99181000D01*
X170561000Y-99022250D01*
X170561000Y-98298000D01*
X170815000Y-98298000D01*
X170815000Y-99022250D01*
X170973750Y-99181000D01*
X171414309Y-99181000D01*
X171647698Y-99084327D01*
X171826327Y-98905699D01*
X171923000Y-98672310D01*
X171923000Y-98456750D01*
X171764250Y-98298000D01*
X170815000Y-98298000D01*
X170561000Y-98298000D01*
X170541000Y-98298000D01*
X170541000Y-98044000D01*
X170561000Y-98044000D01*
X170561000Y-97319750D01*
X170815000Y-97319750D01*
X170815000Y-98044000D01*
X171764250Y-98044000D01*
X171923000Y-97885250D01*
X171923000Y-97669690D01*
X171826327Y-97436301D01*
X171647698Y-97257673D01*
X171476475Y-97186750D01*
X172445000Y-97186750D01*
X172445000Y-97327310D01*
X172541673Y-97560699D01*
X172720302Y-97739327D01*
X172953691Y-97836000D01*
X173544250Y-97836000D01*
X173703000Y-97677250D01*
X173703000Y-97028000D01*
X173957000Y-97028000D01*
X173957000Y-97677250D01*
X174115750Y-97836000D01*
X174706309Y-97836000D01*
X174939698Y-97739327D01*
X175118327Y-97560699D01*
X175215000Y-97327310D01*
X175215000Y-97186750D01*
X175056250Y-97028000D01*
X173957000Y-97028000D01*
X173703000Y-97028000D01*
X172603750Y-97028000D01*
X172445000Y-97186750D01*
X171476475Y-97186750D01*
X171414309Y-97161000D01*
X170973750Y-97161000D01*
X170815000Y-97319750D01*
X170561000Y-97319750D01*
X170402250Y-97161000D01*
X170061977Y-97161000D01*
X170112700Y-96906000D01*
X170112700Y-94895000D01*
X170180002Y-94895000D01*
X170180002Y-94736252D01*
X170338750Y-94895000D01*
X170554310Y-94895000D01*
X170787699Y-94798327D01*
X170966327Y-94619698D01*
X171044960Y-94429862D01*
X172138899Y-95523801D01*
G36*
X154717750Y-89925800D02*
X154858310Y-89925800D01*
X155075122Y-89835994D01*
X155150110Y-89887231D01*
X155402000Y-89938240D01*
X156002000Y-89938240D01*
X156212000Y-89898726D01*
X156212000Y-90049698D01*
X155842720Y-90418978D01*
X155797233Y-90418938D01*
X155453457Y-90560983D01*
X155190208Y-90823773D01*
X155047562Y-91167301D01*
X155047238Y-91539267D01*
X155189283Y-91883043D01*
X155452073Y-92146292D01*
X155693634Y-92246598D01*
X153636467Y-94303765D01*
X153395857Y-94403183D01*
X153132608Y-94665973D01*
X152989962Y-95009501D01*
X152989638Y-95381467D01*
X153131683Y-95725243D01*
X153394473Y-95988492D01*
X153738001Y-96131138D01*
X153930337Y-96131306D01*
X153896683Y-96137638D01*
X153680559Y-96276710D01*
X153535569Y-96488910D01*
X153484560Y-96740800D01*
X153484560Y-98690800D01*
X153528838Y-98926117D01*
X153600038Y-99036764D01*
X153587300Y-99100800D01*
X153587300Y-99552498D01*
X152807000Y-98772198D01*
X152807000Y-98710750D01*
X152648250Y-98552000D01*
X152568925Y-98552000D01*
X152376239Y-98423252D01*
X152085400Y-98365400D01*
X151425000Y-98365400D01*
X151425000Y-98298000D01*
X151445000Y-98298000D01*
X151445000Y-97573750D01*
X151699000Y-97573750D01*
X151699000Y-98298000D01*
X152648250Y-98298000D01*
X152807000Y-98139250D01*
X152807000Y-97923690D01*
X152710327Y-97690301D01*
X152531698Y-97511673D01*
X152298309Y-97415000D01*
X151857750Y-97415000D01*
X151699000Y-97573750D01*
X151445000Y-97573750D01*
X151406600Y-97535350D01*
X151406600Y-95601202D01*
X154344001Y-92663801D01*
X154508748Y-92417239D01*
X154566600Y-92126400D01*
X154566600Y-89774650D01*
X154717750Y-89925800D01*
X154717750Y-89925800D01*
G37*
X154717750Y-89925800D02*
X154858310Y-89925800D01*
X155075122Y-89835994D01*
X155150110Y-89887231D01*
X155402000Y-89938240D01*
X156002000Y-89938240D01*
X156212000Y-89898726D01*
X156212000Y-90049698D01*
X155842720Y-90418978D01*
X155797233Y-90418938D01*
X155453457Y-90560983D01*
X155190208Y-90823773D01*
X155047562Y-91167301D01*
X155047238Y-91539267D01*
X155189283Y-91883043D01*
X155452073Y-92146292D01*
X155693634Y-92246598D01*
X153636467Y-94303765D01*
X153395857Y-94403183D01*
X153132608Y-94665973D01*
X152989962Y-95009501D01*
X152989638Y-95381467D01*
X153131683Y-95725243D01*
X153394473Y-95988492D01*
X153738001Y-96131138D01*
X153930337Y-96131306D01*
X153896683Y-96137638D01*
X153680559Y-96276710D01*
X153535569Y-96488910D01*
X153484560Y-96740800D01*
X153484560Y-98690800D01*
X153528838Y-98926117D01*
X153600038Y-99036764D01*
X153587300Y-99100800D01*
X153587300Y-99552498D01*
X152807000Y-98772198D01*
X152807000Y-98710750D01*
X152648250Y-98552000D01*
X152568925Y-98552000D01*
X152376239Y-98423252D01*
X152085400Y-98365400D01*
X151425000Y-98365400D01*
X151425000Y-98298000D01*
X151445000Y-98298000D01*
X151445000Y-97573750D01*
X151699000Y-97573750D01*
X151699000Y-98298000D01*
X152648250Y-98298000D01*
X152807000Y-98139250D01*
X152807000Y-97923690D01*
X152710327Y-97690301D01*
X152531698Y-97511673D01*
X152298309Y-97415000D01*
X151857750Y-97415000D01*
X151699000Y-97573750D01*
X151445000Y-97573750D01*
X151406600Y-97535350D01*
X151406600Y-95601202D01*
X154344001Y-92663801D01*
X154508748Y-92417239D01*
X154566600Y-92126400D01*
X154566600Y-89774650D01*
X154717750Y-89925800D01*
G36*
X189964299Y-94898401D02*
X190210861Y-95063148D01*
X190237812Y-95068509D01*
X190230569Y-95079110D01*
X190179560Y-95331000D01*
X190179560Y-95931000D01*
X190223838Y-96166317D01*
X190282178Y-96256980D01*
X190192000Y-96474690D01*
X190192000Y-96615250D01*
X190350748Y-96773998D01*
X190192000Y-96773998D01*
X190192000Y-96775800D01*
X189887702Y-96775800D01*
X187951964Y-94840062D01*
X188111327Y-94680698D01*
X188208000Y-94447309D01*
X188208000Y-94006750D01*
X188049250Y-93848000D01*
X187325000Y-93848000D01*
X187325000Y-93868000D01*
X187071000Y-93868000D01*
X187071000Y-93848000D01*
X187051000Y-93848000D01*
X187051000Y-93594000D01*
X187071000Y-93594000D01*
X187071000Y-93574000D01*
X187325000Y-93574000D01*
X187325000Y-93594000D01*
X188049250Y-93594000D01*
X188087550Y-93555700D01*
X188621598Y-93555700D01*
X189964299Y-94898401D01*
X189964299Y-94898401D01*
G37*
X189964299Y-94898401D02*
X190210861Y-95063148D01*
X190237812Y-95068509D01*
X190230569Y-95079110D01*
X190179560Y-95331000D01*
X190179560Y-95931000D01*
X190223838Y-96166317D01*
X190282178Y-96256980D01*
X190192000Y-96474690D01*
X190192000Y-96615250D01*
X190350748Y-96773998D01*
X190192000Y-96773998D01*
X190192000Y-96775800D01*
X189887702Y-96775800D01*
X187951964Y-94840062D01*
X188111327Y-94680698D01*
X188208000Y-94447309D01*
X188208000Y-94006750D01*
X188049250Y-93848000D01*
X187325000Y-93848000D01*
X187325000Y-93868000D01*
X187071000Y-93868000D01*
X187071000Y-93848000D01*
X187051000Y-93848000D01*
X187051000Y-93594000D01*
X187071000Y-93594000D01*
X187071000Y-93574000D01*
X187325000Y-93574000D01*
X187325000Y-93594000D01*
X188049250Y-93594000D01*
X188087550Y-93555700D01*
X188621598Y-93555700D01*
X189964299Y-94898401D01*
G36*
X159893000Y-78740000D02*
X159913000Y-78740000D01*
X159913000Y-78994000D01*
X159893000Y-78994000D01*
X159893000Y-80187155D01*
X160122890Y-80308476D01*
X160532924Y-80138645D01*
X160961183Y-79748358D01*
X161028298Y-79605447D01*
X161255946Y-79946147D01*
X161737715Y-80268054D01*
X162306000Y-80381093D01*
X162874285Y-80268054D01*
X163356054Y-79946147D01*
X163576000Y-79616974D01*
X163795946Y-79946147D01*
X164277715Y-80268054D01*
X164846000Y-80381093D01*
X165414285Y-80268054D01*
X165896054Y-79946147D01*
X166116000Y-79616974D01*
X166335946Y-79946147D01*
X166626000Y-80139954D01*
X166626000Y-82393298D01*
X164426160Y-84593138D01*
X164199327Y-84365908D01*
X163855799Y-84223262D01*
X163483833Y-84222938D01*
X163140057Y-84364983D01*
X163106882Y-84398100D01*
X153841600Y-84398100D01*
X153550760Y-84455952D01*
X153304199Y-84620699D01*
X149977920Y-87946978D01*
X149932433Y-87946938D01*
X149588657Y-88088983D01*
X149325408Y-88351773D01*
X149182762Y-88695301D01*
X149182721Y-88742177D01*
X147575299Y-90349599D01*
X147410552Y-90596161D01*
X147352700Y-90887000D01*
X147352700Y-96298699D01*
X147236890Y-96219569D01*
X146985000Y-96168560D01*
X146800300Y-96168560D01*
X146800300Y-90316600D01*
X146742448Y-90025761D01*
X146734215Y-90013440D01*
X146985000Y-90013440D01*
X147220317Y-89969162D01*
X147436441Y-89830090D01*
X147581431Y-89617890D01*
X147632440Y-89366000D01*
X147632440Y-87416000D01*
X147601094Y-87249408D01*
X152138402Y-82712100D01*
X157386800Y-82712100D01*
X157677639Y-82654248D01*
X157924201Y-82489501D01*
X158973301Y-81440401D01*
X159138048Y-81193840D01*
X159147646Y-81145586D01*
X159195900Y-80903000D01*
X159195900Y-80220167D01*
X159409110Y-80308476D01*
X159639000Y-80187155D01*
X159639000Y-78994000D01*
X159619000Y-78994000D01*
X159619000Y-78740000D01*
X159639000Y-78740000D01*
X159639000Y-78720000D01*
X159893000Y-78720000D01*
X159893000Y-78740000D01*
X159893000Y-78740000D01*
G37*
X159893000Y-78740000D02*
X159913000Y-78740000D01*
X159913000Y-78994000D01*
X159893000Y-78994000D01*
X159893000Y-80187155D01*
X160122890Y-80308476D01*
X160532924Y-80138645D01*
X160961183Y-79748358D01*
X161028298Y-79605447D01*
X161255946Y-79946147D01*
X161737715Y-80268054D01*
X162306000Y-80381093D01*
X162874285Y-80268054D01*
X163356054Y-79946147D01*
X163576000Y-79616974D01*
X163795946Y-79946147D01*
X164277715Y-80268054D01*
X164846000Y-80381093D01*
X165414285Y-80268054D01*
X165896054Y-79946147D01*
X166116000Y-79616974D01*
X166335946Y-79946147D01*
X166626000Y-80139954D01*
X166626000Y-82393298D01*
X164426160Y-84593138D01*
X164199327Y-84365908D01*
X163855799Y-84223262D01*
X163483833Y-84222938D01*
X163140057Y-84364983D01*
X163106882Y-84398100D01*
X153841600Y-84398100D01*
X153550760Y-84455952D01*
X153304199Y-84620699D01*
X149977920Y-87946978D01*
X149932433Y-87946938D01*
X149588657Y-88088983D01*
X149325408Y-88351773D01*
X149182762Y-88695301D01*
X149182721Y-88742177D01*
X147575299Y-90349599D01*
X147410552Y-90596161D01*
X147352700Y-90887000D01*
X147352700Y-96298699D01*
X147236890Y-96219569D01*
X146985000Y-96168560D01*
X146800300Y-96168560D01*
X146800300Y-90316600D01*
X146742448Y-90025761D01*
X146734215Y-90013440D01*
X146985000Y-90013440D01*
X147220317Y-89969162D01*
X147436441Y-89830090D01*
X147581431Y-89617890D01*
X147632440Y-89366000D01*
X147632440Y-87416000D01*
X147601094Y-87249408D01*
X152138402Y-82712100D01*
X157386800Y-82712100D01*
X157677639Y-82654248D01*
X157924201Y-82489501D01*
X158973301Y-81440401D01*
X159138048Y-81193840D01*
X159147646Y-81145586D01*
X159195900Y-80903000D01*
X159195900Y-80220167D01*
X159409110Y-80308476D01*
X159639000Y-80187155D01*
X159639000Y-78994000D01*
X159619000Y-78994000D01*
X159619000Y-78740000D01*
X159639000Y-78740000D01*
X159639000Y-78720000D01*
X159893000Y-78720000D01*
X159893000Y-78740000D01*
G36*
X172593000Y-78740000D02*
X172613000Y-78740000D01*
X172613000Y-78994000D01*
X172593000Y-78994000D01*
X172593000Y-80187155D01*
X172822890Y-80308476D01*
X173232924Y-80138645D01*
X173661183Y-79748358D01*
X173728298Y-79605447D01*
X173955946Y-79946147D01*
X174437715Y-80268054D01*
X174486784Y-80277814D01*
X167501099Y-87263499D01*
X167336352Y-87510061D01*
X167324561Y-87569337D01*
X166705100Y-88188798D01*
X166638252Y-88188798D01*
X166797000Y-88030050D01*
X166797000Y-87214491D01*
X166700327Y-86981102D01*
X166521699Y-86802473D01*
X166288310Y-86705800D01*
X166147750Y-86705800D01*
X165989000Y-86864550D01*
X165989000Y-88188800D01*
X166009000Y-88188800D01*
X166009000Y-88442800D01*
X165989000Y-88442800D01*
X165989000Y-88462800D01*
X165735000Y-88462800D01*
X165735000Y-88442800D01*
X165715000Y-88442800D01*
X165715000Y-88188800D01*
X165735000Y-88188800D01*
X165735000Y-86864550D01*
X165576250Y-86705800D01*
X165435690Y-86705800D01*
X165218878Y-86795606D01*
X165143890Y-86744369D01*
X165093281Y-86734121D01*
X169288101Y-82539301D01*
X169452848Y-82292739D01*
X169510700Y-82001900D01*
X169510700Y-80298485D01*
X169926000Y-80381093D01*
X170494285Y-80268054D01*
X170976054Y-79946147D01*
X171203702Y-79605447D01*
X171270817Y-79748358D01*
X171699076Y-80138645D01*
X172109110Y-80308476D01*
X172339000Y-80187155D01*
X172339000Y-78994000D01*
X172319000Y-78994000D01*
X172319000Y-78740000D01*
X172339000Y-78740000D01*
X172339000Y-78720000D01*
X172593000Y-78720000D01*
X172593000Y-78740000D01*
X172593000Y-78740000D01*
G37*
X172593000Y-78740000D02*
X172613000Y-78740000D01*
X172613000Y-78994000D01*
X172593000Y-78994000D01*
X172593000Y-80187155D01*
X172822890Y-80308476D01*
X173232924Y-80138645D01*
X173661183Y-79748358D01*
X173728298Y-79605447D01*
X173955946Y-79946147D01*
X174437715Y-80268054D01*
X174486784Y-80277814D01*
X167501099Y-87263499D01*
X167336352Y-87510061D01*
X167324561Y-87569337D01*
X166705100Y-88188798D01*
X166638252Y-88188798D01*
X166797000Y-88030050D01*
X166797000Y-87214491D01*
X166700327Y-86981102D01*
X166521699Y-86802473D01*
X166288310Y-86705800D01*
X166147750Y-86705800D01*
X165989000Y-86864550D01*
X165989000Y-88188800D01*
X166009000Y-88188800D01*
X166009000Y-88442800D01*
X165989000Y-88442800D01*
X165989000Y-88462800D01*
X165735000Y-88462800D01*
X165735000Y-88442800D01*
X165715000Y-88442800D01*
X165715000Y-88188800D01*
X165735000Y-88188800D01*
X165735000Y-86864550D01*
X165576250Y-86705800D01*
X165435690Y-86705800D01*
X165218878Y-86795606D01*
X165143890Y-86744369D01*
X165093281Y-86734121D01*
X169288101Y-82539301D01*
X169452848Y-82292739D01*
X169510700Y-82001900D01*
X169510700Y-80298485D01*
X169926000Y-80381093D01*
X170494285Y-80268054D01*
X170976054Y-79946147D01*
X171203702Y-79605447D01*
X171270817Y-79748358D01*
X171699076Y-80138645D01*
X172109110Y-80308476D01*
X172339000Y-80187155D01*
X172339000Y-78994000D01*
X172319000Y-78994000D01*
X172319000Y-78740000D01*
X172339000Y-78740000D01*
X172339000Y-78720000D01*
X172593000Y-78720000D01*
X172593000Y-78740000D01*
G36*
X190373000Y-78740000D02*
X190393000Y-78740000D01*
X190393000Y-78994000D01*
X190373000Y-78994000D01*
X190373000Y-79014000D01*
X190119000Y-79014000D01*
X190119000Y-78994000D01*
X190099000Y-78994000D01*
X190099000Y-78740000D01*
X190119000Y-78740000D01*
X190119000Y-78720000D01*
X190373000Y-78720000D01*
X190373000Y-78740000D01*
X190373000Y-78740000D01*
G37*
X190373000Y-78740000D02*
X190393000Y-78740000D01*
X190393000Y-78994000D01*
X190373000Y-78994000D01*
X190373000Y-79014000D01*
X190119000Y-79014000D01*
X190119000Y-78994000D01*
X190099000Y-78994000D01*
X190099000Y-78740000D01*
X190119000Y-78740000D01*
X190119000Y-78720000D01*
X190373000Y-78720000D01*
X190373000Y-78740000D01*
G36*
X180213000Y-78740000D02*
X180233000Y-78740000D01*
X180233000Y-78994000D01*
X180213000Y-78994000D01*
X180213000Y-79014000D01*
X179959000Y-79014000D01*
X179959000Y-78994000D01*
X179939000Y-78994000D01*
X179939000Y-78740000D01*
X179959000Y-78740000D01*
X179959000Y-78720000D01*
X180213000Y-78720000D01*
X180213000Y-78740000D01*
X180213000Y-78740000D01*
G37*
X180213000Y-78740000D02*
X180233000Y-78740000D01*
X180233000Y-78994000D01*
X180213000Y-78994000D01*
X180213000Y-79014000D01*
X179959000Y-79014000D01*
X179959000Y-78994000D01*
X179939000Y-78994000D01*
X179939000Y-78740000D01*
X179959000Y-78740000D01*
X179959000Y-78720000D01*
X180213000Y-78720000D01*
X180213000Y-78740000D01*
G36*
X164973000Y-76200000D02*
X164993000Y-76200000D01*
X164993000Y-76454000D01*
X164973000Y-76454000D01*
X164973000Y-76474000D01*
X164719000Y-76474000D01*
X164719000Y-76454000D01*
X164699000Y-76454000D01*
X164699000Y-76200000D01*
X164719000Y-76200000D01*
X164719000Y-76180000D01*
X164973000Y-76180000D01*
X164973000Y-76200000D01*
X164973000Y-76200000D01*
G37*
X164973000Y-76200000D02*
X164993000Y-76200000D01*
X164993000Y-76454000D01*
X164973000Y-76454000D01*
X164973000Y-76474000D01*
X164719000Y-76474000D01*
X164719000Y-76454000D01*
X164699000Y-76454000D01*
X164699000Y-76200000D01*
X164719000Y-76200000D01*
X164719000Y-76180000D01*
X164973000Y-76180000D01*
X164973000Y-76200000D01*
G36*
X180283838Y-57473317D02*
X180422910Y-57689441D01*
X180635110Y-57834431D01*
X180887000Y-57885440D01*
X182191600Y-57885440D01*
X182191600Y-69151200D01*
X182255161Y-69470741D01*
X182279497Y-69507162D01*
X182436166Y-69741634D01*
X187540382Y-74845850D01*
X187137715Y-74925946D01*
X186655946Y-75247853D01*
X186428298Y-75588553D01*
X186361183Y-75445642D01*
X185932924Y-75055355D01*
X185522890Y-74885524D01*
X185293000Y-75006845D01*
X185293000Y-76200000D01*
X185313000Y-76200000D01*
X185313000Y-76454000D01*
X185293000Y-76454000D01*
X185293000Y-76474000D01*
X185039000Y-76474000D01*
X185039000Y-76454000D01*
X185019000Y-76454000D01*
X185019000Y-76200000D01*
X185039000Y-76200000D01*
X185039000Y-75006845D01*
X184809110Y-74885524D01*
X184399076Y-75055355D01*
X183970817Y-75445642D01*
X183903702Y-75588553D01*
X183676054Y-75247853D01*
X183194285Y-74925946D01*
X182626000Y-74812907D01*
X182057715Y-74925946D01*
X181718442Y-75152640D01*
X180242301Y-73676499D01*
X179995739Y-73511752D01*
X179704900Y-73453900D01*
X158893000Y-73453900D01*
X158602161Y-73511752D01*
X158594237Y-73517047D01*
X158469633Y-73516938D01*
X158125857Y-73658983D01*
X157862608Y-73921773D01*
X157813499Y-74040040D01*
X157605039Y-73900752D01*
X157314200Y-73842900D01*
X157101002Y-73842900D01*
X151737802Y-68479700D01*
X167057300Y-68479700D01*
X167348139Y-68421848D01*
X167594701Y-68257101D01*
X178289442Y-57562360D01*
X178628715Y-57789054D01*
X179197000Y-57902093D01*
X179765285Y-57789054D01*
X180247054Y-57467147D01*
X180274850Y-57425548D01*
X180283838Y-57473317D01*
X180283838Y-57473317D01*
G37*
X180283838Y-57473317D02*
X180422910Y-57689441D01*
X180635110Y-57834431D01*
X180887000Y-57885440D01*
X182191600Y-57885440D01*
X182191600Y-69151200D01*
X182255161Y-69470741D01*
X182279497Y-69507162D01*
X182436166Y-69741634D01*
X187540382Y-74845850D01*
X187137715Y-74925946D01*
X186655946Y-75247853D01*
X186428298Y-75588553D01*
X186361183Y-75445642D01*
X185932924Y-75055355D01*
X185522890Y-74885524D01*
X185293000Y-75006845D01*
X185293000Y-76200000D01*
X185313000Y-76200000D01*
X185313000Y-76454000D01*
X185293000Y-76454000D01*
X185293000Y-76474000D01*
X185039000Y-76474000D01*
X185039000Y-76454000D01*
X185019000Y-76454000D01*
X185019000Y-76200000D01*
X185039000Y-76200000D01*
X185039000Y-75006845D01*
X184809110Y-74885524D01*
X184399076Y-75055355D01*
X183970817Y-75445642D01*
X183903702Y-75588553D01*
X183676054Y-75247853D01*
X183194285Y-74925946D01*
X182626000Y-74812907D01*
X182057715Y-74925946D01*
X181718442Y-75152640D01*
X180242301Y-73676499D01*
X179995739Y-73511752D01*
X179704900Y-73453900D01*
X158893000Y-73453900D01*
X158602161Y-73511752D01*
X158594237Y-73517047D01*
X158469633Y-73516938D01*
X158125857Y-73658983D01*
X157862608Y-73921773D01*
X157813499Y-74040040D01*
X157605039Y-73900752D01*
X157314200Y-73842900D01*
X157101002Y-73842900D01*
X151737802Y-68479700D01*
X167057300Y-68479700D01*
X167348139Y-68421848D01*
X167594701Y-68257101D01*
X178289442Y-57562360D01*
X178628715Y-57789054D01*
X179197000Y-57902093D01*
X179765285Y-57789054D01*
X180247054Y-57467147D01*
X180274850Y-57425548D01*
X180283838Y-57473317D01*
G36*
X151384000Y-56261000D02*
X151404000Y-56261000D01*
X151404000Y-56515000D01*
X151384000Y-56515000D01*
X151384000Y-57708155D01*
X151613890Y-57829476D01*
X152023924Y-57659645D01*
X152452183Y-57269358D01*
X152519298Y-57126447D01*
X152746946Y-57467147D01*
X153228715Y-57789054D01*
X153797000Y-57902093D01*
X154365285Y-57789054D01*
X154847054Y-57467147D01*
X155067000Y-57137974D01*
X155286946Y-57467147D01*
X155768715Y-57789054D01*
X156337000Y-57902093D01*
X156905285Y-57789054D01*
X157387054Y-57467147D01*
X157607000Y-57137974D01*
X157826946Y-57467147D01*
X158308715Y-57789054D01*
X158877000Y-57902093D01*
X159445285Y-57789054D01*
X159927054Y-57467147D01*
X160147000Y-57137974D01*
X160366946Y-57467147D01*
X160848715Y-57789054D01*
X161417000Y-57902093D01*
X161985285Y-57789054D01*
X162467054Y-57467147D01*
X162687000Y-57137974D01*
X162906946Y-57467147D01*
X163388715Y-57789054D01*
X163957000Y-57902093D01*
X164525285Y-57789054D01*
X165007054Y-57467147D01*
X165227000Y-57137974D01*
X165446946Y-57467147D01*
X165928715Y-57789054D01*
X166497000Y-57902093D01*
X167065285Y-57789054D01*
X167547054Y-57467147D01*
X167767000Y-57137974D01*
X167986946Y-57467147D01*
X168468715Y-57789054D01*
X169037000Y-57902093D01*
X169605285Y-57789054D01*
X170087054Y-57467147D01*
X170314702Y-57126447D01*
X170381817Y-57269358D01*
X170810076Y-57659645D01*
X170917895Y-57704303D01*
X164544898Y-64077300D01*
X148626663Y-64077300D01*
X148594527Y-64045108D01*
X148250999Y-63902462D01*
X147879033Y-63902138D01*
X147535257Y-64044183D01*
X147418669Y-64160567D01*
X146937000Y-63678898D01*
X146937000Y-57660954D01*
X147227054Y-57467147D01*
X147447000Y-57137974D01*
X147666946Y-57467147D01*
X148148715Y-57789054D01*
X148717000Y-57902093D01*
X149285285Y-57789054D01*
X149767054Y-57467147D01*
X149994702Y-57126447D01*
X150061817Y-57269358D01*
X150490076Y-57659645D01*
X150900110Y-57829476D01*
X151130000Y-57708155D01*
X151130000Y-56515000D01*
X151110000Y-56515000D01*
X151110000Y-56261000D01*
X151130000Y-56261000D01*
X151130000Y-56241000D01*
X151384000Y-56241000D01*
X151384000Y-56261000D01*
X151384000Y-56261000D01*
G37*
X151384000Y-56261000D02*
X151404000Y-56261000D01*
X151404000Y-56515000D01*
X151384000Y-56515000D01*
X151384000Y-57708155D01*
X151613890Y-57829476D01*
X152023924Y-57659645D01*
X152452183Y-57269358D01*
X152519298Y-57126447D01*
X152746946Y-57467147D01*
X153228715Y-57789054D01*
X153797000Y-57902093D01*
X154365285Y-57789054D01*
X154847054Y-57467147D01*
X155067000Y-57137974D01*
X155286946Y-57467147D01*
X155768715Y-57789054D01*
X156337000Y-57902093D01*
X156905285Y-57789054D01*
X157387054Y-57467147D01*
X157607000Y-57137974D01*
X157826946Y-57467147D01*
X158308715Y-57789054D01*
X158877000Y-57902093D01*
X159445285Y-57789054D01*
X159927054Y-57467147D01*
X160147000Y-57137974D01*
X160366946Y-57467147D01*
X160848715Y-57789054D01*
X161417000Y-57902093D01*
X161985285Y-57789054D01*
X162467054Y-57467147D01*
X162687000Y-57137974D01*
X162906946Y-57467147D01*
X163388715Y-57789054D01*
X163957000Y-57902093D01*
X164525285Y-57789054D01*
X165007054Y-57467147D01*
X165227000Y-57137974D01*
X165446946Y-57467147D01*
X165928715Y-57789054D01*
X166497000Y-57902093D01*
X167065285Y-57789054D01*
X167547054Y-57467147D01*
X167767000Y-57137974D01*
X167986946Y-57467147D01*
X168468715Y-57789054D01*
X169037000Y-57902093D01*
X169605285Y-57789054D01*
X170087054Y-57467147D01*
X170314702Y-57126447D01*
X170381817Y-57269358D01*
X170810076Y-57659645D01*
X170917895Y-57704303D01*
X164544898Y-64077300D01*
X148626663Y-64077300D01*
X148594527Y-64045108D01*
X148250999Y-63902462D01*
X147879033Y-63902138D01*
X147535257Y-64044183D01*
X147418669Y-64160567D01*
X146937000Y-63678898D01*
X146937000Y-57660954D01*
X147227054Y-57467147D01*
X147447000Y-57137974D01*
X147666946Y-57467147D01*
X148148715Y-57789054D01*
X148717000Y-57902093D01*
X149285285Y-57789054D01*
X149767054Y-57467147D01*
X149994702Y-57126447D01*
X150061817Y-57269358D01*
X150490076Y-57659645D01*
X150900110Y-57829476D01*
X151130000Y-57708155D01*
X151130000Y-56515000D01*
X151110000Y-56515000D01*
X151110000Y-56261000D01*
X151130000Y-56261000D01*
X151130000Y-56241000D01*
X151384000Y-56241000D01*
X151384000Y-56261000D01*
G36*
X171704000Y-56261000D02*
X171724000Y-56261000D01*
X171724000Y-56515000D01*
X171704000Y-56515000D01*
X171704000Y-56535000D01*
X171450000Y-56535000D01*
X171450000Y-56515000D01*
X171430000Y-56515000D01*
X171430000Y-56261000D01*
X171450000Y-56261000D01*
X171450000Y-56241000D01*
X171704000Y-56241000D01*
X171704000Y-56261000D01*
X171704000Y-56261000D01*
G37*
X171704000Y-56261000D02*
X171724000Y-56261000D01*
X171724000Y-56515000D01*
X171704000Y-56515000D01*
X171704000Y-56535000D01*
X171450000Y-56535000D01*
X171450000Y-56515000D01*
X171430000Y-56515000D01*
X171430000Y-56261000D01*
X171450000Y-56261000D01*
X171450000Y-56241000D01*
X171704000Y-56241000D01*
X171704000Y-56261000D01*
G36*
X176784000Y-53721000D02*
X176804000Y-53721000D01*
X176804000Y-53975000D01*
X176784000Y-53975000D01*
X176784000Y-53995000D01*
X176530000Y-53995000D01*
X176530000Y-53975000D01*
X176510000Y-53975000D01*
X176510000Y-53721000D01*
X176530000Y-53721000D01*
X176530000Y-53701000D01*
X176784000Y-53701000D01*
X176784000Y-53721000D01*
X176784000Y-53721000D01*
G37*
X176784000Y-53721000D02*
X176804000Y-53721000D01*
X176804000Y-53975000D01*
X176784000Y-53975000D01*
X176784000Y-53995000D01*
X176530000Y-53995000D01*
X176530000Y-53975000D01*
X176510000Y-53975000D01*
X176510000Y-53721000D01*
X176530000Y-53721000D01*
X176530000Y-53701000D01*
X176784000Y-53701000D01*
X176784000Y-53721000D01*
G36*
X166624000Y-53721000D02*
X166644000Y-53721000D01*
X166644000Y-53975000D01*
X166624000Y-53975000D01*
X166624000Y-53995000D01*
X166370000Y-53995000D01*
X166370000Y-53975000D01*
X166350000Y-53975000D01*
X166350000Y-53721000D01*
X166370000Y-53721000D01*
X166370000Y-53701000D01*
X166624000Y-53701000D01*
X166624000Y-53721000D01*
X166624000Y-53721000D01*
G37*
X166624000Y-53721000D02*
X166644000Y-53721000D01*
X166644000Y-53975000D01*
X166624000Y-53975000D01*
X166624000Y-53995000D01*
X166370000Y-53995000D01*
X166370000Y-53975000D01*
X166350000Y-53975000D01*
X166350000Y-53721000D01*
X166370000Y-53721000D01*
X166370000Y-53701000D01*
X166624000Y-53701000D01*
X166624000Y-53721000D01*
M02*
