G04 #@! TF.FileFunction,Legend,Bot*
%FSLAX46Y46*%
G04 Gerber Fmt 4.6, Leading zero omitted, Abs format (unit mm)*
G04 Created by KiCad (PCBNEW 4.0.7) date 01/21/18 21:48:56*
%MOMM*%
%LPD*%
G01*
G04 APERTURE LIST*
%ADD10C,0.100000*%
%ADD11C,0.200000*%
%ADD12C,0.300000*%
%ADD13C,0.250000*%
%ADD14C,0.150000*%
%ADD15C,0.120000*%
G04 APERTURE END LIST*
D10*
D11*
X134830420Y-88646000D02*
G75*
G03X134830420Y-88646000I-718420J0D01*
G01*
X156269961Y-88646000D02*
G75*
G03X156269961Y-88646000I-567961J0D01*
G01*
D12*
X143870570Y-90872571D02*
X142870570Y-90872571D01*
X143513427Y-92372571D01*
X141656285Y-91372571D02*
X141656285Y-92372571D01*
X142013428Y-90801143D02*
X142370571Y-91872571D01*
X141441999Y-91872571D01*
X140156285Y-92372571D02*
X140870571Y-92372571D01*
X140870571Y-90872571D01*
X139727714Y-92301143D02*
X139513428Y-92372571D01*
X139156285Y-92372571D01*
X139013428Y-92301143D01*
X138941999Y-92229714D01*
X138870571Y-92086857D01*
X138870571Y-91944000D01*
X138941999Y-91801143D01*
X139013428Y-91729714D01*
X139156285Y-91658286D01*
X139441999Y-91586857D01*
X139584857Y-91515429D01*
X139656285Y-91444000D01*
X139727714Y-91301143D01*
X139727714Y-91158286D01*
X139656285Y-91015429D01*
X139584857Y-90944000D01*
X139441999Y-90872571D01*
X139084857Y-90872571D01*
X138870571Y-90944000D01*
X138299143Y-91015429D02*
X138227714Y-90944000D01*
X138084857Y-90872571D01*
X137727714Y-90872571D01*
X137584857Y-90944000D01*
X137513428Y-91015429D01*
X137442000Y-91158286D01*
X137442000Y-91301143D01*
X137513428Y-91515429D01*
X138370571Y-92372571D01*
X137442000Y-92372571D01*
X136156286Y-91372571D02*
X136156286Y-92372571D01*
X136513429Y-90801143D02*
X136870572Y-91872571D01*
X135942000Y-91872571D01*
X134656286Y-90872571D02*
X135370572Y-90872571D01*
X135442001Y-91586857D01*
X135370572Y-91515429D01*
X135227715Y-91444000D01*
X134870572Y-91444000D01*
X134727715Y-91515429D01*
X134656286Y-91586857D01*
X134584858Y-91729714D01*
X134584858Y-92086857D01*
X134656286Y-92229714D01*
X134727715Y-92301143D01*
X134870572Y-92372571D01*
X135227715Y-92372571D01*
X135370572Y-92301143D01*
X135442001Y-92229714D01*
X165968570Y-90872571D02*
X164968570Y-90872571D01*
X165611427Y-92372571D01*
X163754285Y-91372571D02*
X163754285Y-92372571D01*
X164111428Y-90801143D02*
X164468571Y-91872571D01*
X163539999Y-91872571D01*
X162254285Y-92372571D02*
X162968571Y-92372571D01*
X162968571Y-90872571D01*
X161825714Y-92301143D02*
X161611428Y-92372571D01*
X161254285Y-92372571D01*
X161111428Y-92301143D01*
X161039999Y-92229714D01*
X160968571Y-92086857D01*
X160968571Y-91944000D01*
X161039999Y-91801143D01*
X161111428Y-91729714D01*
X161254285Y-91658286D01*
X161539999Y-91586857D01*
X161682857Y-91515429D01*
X161754285Y-91444000D01*
X161825714Y-91301143D01*
X161825714Y-91158286D01*
X161754285Y-91015429D01*
X161682857Y-90944000D01*
X161539999Y-90872571D01*
X161182857Y-90872571D01*
X160968571Y-90944000D01*
X160397143Y-91015429D02*
X160325714Y-90944000D01*
X160182857Y-90872571D01*
X159825714Y-90872571D01*
X159682857Y-90944000D01*
X159611428Y-91015429D01*
X159540000Y-91158286D01*
X159540000Y-91301143D01*
X159611428Y-91515429D01*
X160468571Y-92372571D01*
X159540000Y-92372571D01*
X158254286Y-91372571D02*
X158254286Y-92372571D01*
X158611429Y-90801143D02*
X158968572Y-91872571D01*
X158040000Y-91872571D01*
X156754286Y-90872571D02*
X157468572Y-90872571D01*
X157540001Y-91586857D01*
X157468572Y-91515429D01*
X157325715Y-91444000D01*
X156968572Y-91444000D01*
X156825715Y-91515429D01*
X156754286Y-91586857D01*
X156682858Y-91729714D01*
X156682858Y-92086857D01*
X156754286Y-92229714D01*
X156825715Y-92301143D01*
X156968572Y-92372571D01*
X157325715Y-92372571D01*
X157468572Y-92301143D01*
X157540001Y-92229714D01*
D13*
X131000476Y-103846381D02*
X131476667Y-103846381D01*
X131524286Y-104322571D01*
X131476667Y-104274952D01*
X131381429Y-104227333D01*
X131143333Y-104227333D01*
X131048095Y-104274952D01*
X131000476Y-104322571D01*
X130952857Y-104417810D01*
X130952857Y-104655905D01*
X131000476Y-104751143D01*
X131048095Y-104798762D01*
X131143333Y-104846381D01*
X131381429Y-104846381D01*
X131476667Y-104798762D01*
X131524286Y-104751143D01*
X130667143Y-103846381D02*
X130333810Y-104846381D01*
X130000476Y-103846381D01*
X136651904Y-103894000D02*
X136747142Y-103846381D01*
X136889999Y-103846381D01*
X137032857Y-103894000D01*
X137128095Y-103989238D01*
X137175714Y-104084476D01*
X137223333Y-104274952D01*
X137223333Y-104417810D01*
X137175714Y-104608286D01*
X137128095Y-104703524D01*
X137032857Y-104798762D01*
X136889999Y-104846381D01*
X136794761Y-104846381D01*
X136651904Y-104798762D01*
X136604285Y-104751143D01*
X136604285Y-104417810D01*
X136794761Y-104417810D01*
X136175714Y-104846381D02*
X136175714Y-103846381D01*
X135604285Y-104846381D01*
X135604285Y-103846381D01*
X135128095Y-104846381D02*
X135128095Y-103846381D01*
X134890000Y-103846381D01*
X134747142Y-103894000D01*
X134651904Y-103989238D01*
X134604285Y-104084476D01*
X134556666Y-104274952D01*
X134556666Y-104417810D01*
X134604285Y-104608286D01*
X134651904Y-104703524D01*
X134747142Y-104798762D01*
X134890000Y-104846381D01*
X135128095Y-104846381D01*
X173267619Y-105068571D02*
X172267619Y-104830476D01*
X172981905Y-104639999D01*
X172267619Y-104449523D01*
X173267619Y-104211428D01*
X172267619Y-103259047D02*
X172743810Y-103592381D01*
X172267619Y-103830476D02*
X173267619Y-103830476D01*
X173267619Y-103449523D01*
X173220000Y-103354285D01*
X173172381Y-103306666D01*
X173077143Y-103259047D01*
X172934286Y-103259047D01*
X172839048Y-103306666D01*
X172791429Y-103354285D01*
X172743810Y-103449523D01*
X172743810Y-103830476D01*
X174807619Y-104917809D02*
X175807619Y-104917809D01*
X174712381Y-103774952D02*
X174760000Y-103870190D01*
X174855238Y-103965428D01*
X174998095Y-104108285D01*
X175045714Y-104203524D01*
X175045714Y-104298762D01*
X174807619Y-104251143D02*
X174855238Y-104346381D01*
X174950476Y-104441619D01*
X175140952Y-104489238D01*
X175474286Y-104489238D01*
X175664762Y-104441619D01*
X175760000Y-104346381D01*
X175807619Y-104251143D01*
X175807619Y-104060666D01*
X175760000Y-103965428D01*
X175664762Y-103870190D01*
X175474286Y-103822571D01*
X175140952Y-103822571D01*
X174950476Y-103870190D01*
X174855238Y-103965428D01*
X174807619Y-104060666D01*
X174807619Y-104251143D01*
X177347619Y-104949524D02*
X178347619Y-104949524D01*
X177633333Y-104616190D01*
X178347619Y-104282857D01*
X177347619Y-104282857D01*
X177347619Y-103282857D02*
X177347619Y-103854286D01*
X177347619Y-103568572D02*
X178347619Y-103568572D01*
X178204762Y-103663810D01*
X178109524Y-103759048D01*
X178061905Y-103854286D01*
X180887619Y-105362190D02*
X179887619Y-105124095D01*
X180601905Y-104933618D01*
X179887619Y-104743142D01*
X180887619Y-104505047D01*
X180173333Y-104171714D02*
X180173333Y-103695523D01*
X179887619Y-104266952D02*
X180887619Y-103933619D01*
X179887619Y-103600285D01*
X179887619Y-103266952D02*
X180887619Y-103266952D01*
X180887619Y-102933619D02*
X180887619Y-102362190D01*
X179887619Y-102647905D02*
X180887619Y-102647905D01*
X169981619Y-104687619D02*
X170457810Y-105020953D01*
X169981619Y-105259048D02*
X170981619Y-105259048D01*
X170981619Y-104878095D01*
X170934000Y-104782857D01*
X170886381Y-104735238D01*
X170791143Y-104687619D01*
X170648286Y-104687619D01*
X170553048Y-104735238D01*
X170505429Y-104782857D01*
X170457810Y-104878095D01*
X170457810Y-105259048D01*
X170029238Y-104306667D02*
X169981619Y-104163810D01*
X169981619Y-103925714D01*
X170029238Y-103830476D01*
X170076857Y-103782857D01*
X170172095Y-103735238D01*
X170267333Y-103735238D01*
X170362571Y-103782857D01*
X170410190Y-103830476D01*
X170457810Y-103925714D01*
X170505429Y-104116191D01*
X170553048Y-104211429D01*
X170600667Y-104259048D01*
X170695905Y-104306667D01*
X170791143Y-104306667D01*
X170886381Y-104259048D01*
X170934000Y-104211429D01*
X170981619Y-104116191D01*
X170981619Y-103878095D01*
X170934000Y-103735238D01*
X170981619Y-103449524D02*
X170981619Y-102878095D01*
X169981619Y-103163810D02*
X170981619Y-103163810D01*
D12*
X170273714Y-67734571D02*
X170273714Y-66734571D01*
X170273714Y-66877429D02*
X170202286Y-66806000D01*
X170059428Y-66734571D01*
X169845143Y-66734571D01*
X169702286Y-66806000D01*
X169630857Y-66948857D01*
X169630857Y-67734571D01*
X169630857Y-66948857D02*
X169559428Y-66806000D01*
X169416571Y-66734571D01*
X169202286Y-66734571D01*
X169059428Y-66806000D01*
X168988000Y-66948857D01*
X168988000Y-67734571D01*
X167702286Y-67663143D02*
X167845143Y-67734571D01*
X168130857Y-67734571D01*
X168273714Y-67663143D01*
X168345143Y-67520286D01*
X168345143Y-66948857D01*
X168273714Y-66806000D01*
X168130857Y-66734571D01*
X167845143Y-66734571D01*
X167702286Y-66806000D01*
X167630857Y-66948857D01*
X167630857Y-67091714D01*
X168345143Y-67234571D01*
X166416572Y-67663143D02*
X166559429Y-67734571D01*
X166845143Y-67734571D01*
X166988000Y-67663143D01*
X167059429Y-67520286D01*
X167059429Y-66948857D01*
X166988000Y-66806000D01*
X166845143Y-66734571D01*
X166559429Y-66734571D01*
X166416572Y-66806000D01*
X166345143Y-66948857D01*
X166345143Y-67091714D01*
X167059429Y-67234571D01*
X165773715Y-67663143D02*
X165630858Y-67734571D01*
X165345143Y-67734571D01*
X165202286Y-67663143D01*
X165130858Y-67520286D01*
X165130858Y-67448857D01*
X165202286Y-67306000D01*
X165345143Y-67234571D01*
X165559429Y-67234571D01*
X165702286Y-67163143D01*
X165773715Y-67020286D01*
X165773715Y-66948857D01*
X165702286Y-66806000D01*
X165559429Y-66734571D01*
X165345143Y-66734571D01*
X165202286Y-66806000D01*
X164273714Y-67734571D02*
X164416572Y-67663143D01*
X164488000Y-67591714D01*
X164559429Y-67448857D01*
X164559429Y-67020286D01*
X164488000Y-66877429D01*
X164416572Y-66806000D01*
X164273714Y-66734571D01*
X164059429Y-66734571D01*
X163916572Y-66806000D01*
X163845143Y-66877429D01*
X163773714Y-67020286D01*
X163773714Y-67448857D01*
X163845143Y-67591714D01*
X163916572Y-67663143D01*
X164059429Y-67734571D01*
X164273714Y-67734571D01*
X163130857Y-67591714D02*
X163059429Y-67663143D01*
X163130857Y-67734571D01*
X163202286Y-67663143D01*
X163130857Y-67591714D01*
X163130857Y-67734571D01*
X162416571Y-67734571D02*
X162416571Y-66234571D01*
X162273714Y-67163143D02*
X161845143Y-67734571D01*
X161845143Y-66734571D02*
X162416571Y-67306000D01*
X161202285Y-67734571D02*
X161202285Y-66734571D01*
X161202285Y-66234571D02*
X161273714Y-66306000D01*
X161202285Y-66377429D01*
X161130857Y-66306000D01*
X161202285Y-66234571D01*
X161202285Y-66377429D01*
X160487999Y-67734571D02*
X160487999Y-66734571D01*
X160487999Y-66877429D02*
X160416571Y-66806000D01*
X160273713Y-66734571D01*
X160059428Y-66734571D01*
X159916571Y-66806000D01*
X159845142Y-66948857D01*
X159845142Y-67734571D01*
X159845142Y-66948857D02*
X159773713Y-66806000D01*
X159630856Y-66734571D01*
X159416571Y-66734571D01*
X159273713Y-66806000D01*
X159202285Y-66948857D01*
X159202285Y-67734571D01*
X157559428Y-67020286D02*
X157630856Y-66948857D01*
X157773713Y-66877429D01*
X157916571Y-66877429D01*
X158059428Y-66948857D01*
X158130856Y-67020286D01*
X158202285Y-67163143D01*
X158202285Y-67306000D01*
X158130856Y-67448857D01*
X158059428Y-67520286D01*
X157916571Y-67591714D01*
X157773713Y-67591714D01*
X157630856Y-67520286D01*
X157559428Y-67448857D01*
X157559428Y-66877429D02*
X157559428Y-67448857D01*
X157487999Y-67520286D01*
X157416571Y-67520286D01*
X157273713Y-67448857D01*
X157202285Y-67306000D01*
X157202285Y-66948857D01*
X157345142Y-66734571D01*
X157559428Y-66591714D01*
X157845142Y-66520286D01*
X158130856Y-66591714D01*
X158345142Y-66734571D01*
X158487999Y-66948857D01*
X158559428Y-67234571D01*
X158487999Y-67520286D01*
X158345142Y-67734571D01*
X158130856Y-67877429D01*
X157845142Y-67948857D01*
X157559428Y-67877429D01*
X157345142Y-67734571D01*
X155916571Y-66734571D02*
X155916571Y-67948857D01*
X155988000Y-68091714D01*
X156059428Y-68163143D01*
X156202285Y-68234571D01*
X156416571Y-68234571D01*
X156559428Y-68163143D01*
X155916571Y-67663143D02*
X156059428Y-67734571D01*
X156345142Y-67734571D01*
X156488000Y-67663143D01*
X156559428Y-67591714D01*
X156630857Y-67448857D01*
X156630857Y-67020286D01*
X156559428Y-66877429D01*
X156488000Y-66806000D01*
X156345142Y-66734571D01*
X156059428Y-66734571D01*
X155916571Y-66806000D01*
X155202285Y-67734571D02*
X155202285Y-66734571D01*
X155202285Y-66877429D02*
X155130857Y-66806000D01*
X154987999Y-66734571D01*
X154773714Y-66734571D01*
X154630857Y-66806000D01*
X154559428Y-66948857D01*
X154559428Y-67734571D01*
X154559428Y-66948857D02*
X154487999Y-66806000D01*
X154345142Y-66734571D01*
X154130857Y-66734571D01*
X153987999Y-66806000D01*
X153916571Y-66948857D01*
X153916571Y-67734571D01*
X152559428Y-67734571D02*
X152559428Y-66948857D01*
X152630857Y-66806000D01*
X152773714Y-66734571D01*
X153059428Y-66734571D01*
X153202285Y-66806000D01*
X152559428Y-67663143D02*
X152702285Y-67734571D01*
X153059428Y-67734571D01*
X153202285Y-67663143D01*
X153273714Y-67520286D01*
X153273714Y-67377429D01*
X153202285Y-67234571D01*
X153059428Y-67163143D01*
X152702285Y-67163143D01*
X152559428Y-67091714D01*
X151845142Y-67734571D02*
X151845142Y-66734571D01*
X151845142Y-66234571D02*
X151916571Y-66306000D01*
X151845142Y-66377429D01*
X151773714Y-66306000D01*
X151845142Y-66234571D01*
X151845142Y-66377429D01*
X150916570Y-67734571D02*
X151059428Y-67663143D01*
X151130856Y-67520286D01*
X151130856Y-66234571D01*
X150345142Y-67591714D02*
X150273714Y-67663143D01*
X150345142Y-67734571D01*
X150416571Y-67663143D01*
X150345142Y-67591714D01*
X150345142Y-67734571D01*
X148987999Y-67663143D02*
X149130856Y-67734571D01*
X149416570Y-67734571D01*
X149559428Y-67663143D01*
X149630856Y-67591714D01*
X149702285Y-67448857D01*
X149702285Y-67020286D01*
X149630856Y-66877429D01*
X149559428Y-66806000D01*
X149416570Y-66734571D01*
X149130856Y-66734571D01*
X148987999Y-66806000D01*
X148130856Y-67734571D02*
X148273714Y-67663143D01*
X148345142Y-67591714D01*
X148416571Y-67448857D01*
X148416571Y-67020286D01*
X148345142Y-66877429D01*
X148273714Y-66806000D01*
X148130856Y-66734571D01*
X147916571Y-66734571D01*
X147773714Y-66806000D01*
X147702285Y-66877429D01*
X147630856Y-67020286D01*
X147630856Y-67448857D01*
X147702285Y-67591714D01*
X147773714Y-67663143D01*
X147916571Y-67734571D01*
X148130856Y-67734571D01*
X146987999Y-67734571D02*
X146987999Y-66734571D01*
X146987999Y-66877429D02*
X146916571Y-66806000D01*
X146773713Y-66734571D01*
X146559428Y-66734571D01*
X146416571Y-66806000D01*
X146345142Y-66948857D01*
X146345142Y-67734571D01*
X146345142Y-66948857D02*
X146273713Y-66806000D01*
X146130856Y-66734571D01*
X145916571Y-66734571D01*
X145773713Y-66806000D01*
X145702285Y-66948857D01*
X145702285Y-67734571D01*
X163368856Y-62567429D02*
X163297427Y-62496000D01*
X163154570Y-62424571D01*
X162797427Y-62424571D01*
X162654570Y-62496000D01*
X162583141Y-62567429D01*
X162511713Y-62710286D01*
X162511713Y-62853143D01*
X162583141Y-63067429D01*
X163440284Y-63924571D01*
X162511713Y-63924571D01*
X161583142Y-62424571D02*
X161440285Y-62424571D01*
X161297428Y-62496000D01*
X161225999Y-62567429D01*
X161154570Y-62710286D01*
X161083142Y-62996000D01*
X161083142Y-63353143D01*
X161154570Y-63638857D01*
X161225999Y-63781714D01*
X161297428Y-63853143D01*
X161440285Y-63924571D01*
X161583142Y-63924571D01*
X161725999Y-63853143D01*
X161797428Y-63781714D01*
X161868856Y-63638857D01*
X161940285Y-63353143D01*
X161940285Y-62996000D01*
X161868856Y-62710286D01*
X161797428Y-62567429D01*
X161725999Y-62496000D01*
X161583142Y-62424571D01*
X159654571Y-63924571D02*
X160511714Y-63924571D01*
X160083142Y-63924571D02*
X160083142Y-62424571D01*
X160225999Y-62638857D01*
X160368857Y-62781714D01*
X160511714Y-62853143D01*
X158797428Y-63067429D02*
X158940286Y-62996000D01*
X159011714Y-62924571D01*
X159083143Y-62781714D01*
X159083143Y-62710286D01*
X159011714Y-62567429D01*
X158940286Y-62496000D01*
X158797428Y-62424571D01*
X158511714Y-62424571D01*
X158368857Y-62496000D01*
X158297428Y-62567429D01*
X158226000Y-62710286D01*
X158226000Y-62781714D01*
X158297428Y-62924571D01*
X158368857Y-62996000D01*
X158511714Y-63067429D01*
X158797428Y-63067429D01*
X158940286Y-63138857D01*
X159011714Y-63210286D01*
X159083143Y-63353143D01*
X159083143Y-63638857D01*
X159011714Y-63781714D01*
X158940286Y-63853143D01*
X158797428Y-63924571D01*
X158511714Y-63924571D01*
X158368857Y-63853143D01*
X158297428Y-63781714D01*
X158226000Y-63638857D01*
X158226000Y-63353143D01*
X158297428Y-63210286D01*
X158368857Y-63138857D01*
X158511714Y-63067429D01*
X157583143Y-63781714D02*
X157511715Y-63853143D01*
X157583143Y-63924571D01*
X157654572Y-63853143D01*
X157583143Y-63781714D01*
X157583143Y-63924571D01*
X156583143Y-62424571D02*
X156440286Y-62424571D01*
X156297429Y-62496000D01*
X156226000Y-62567429D01*
X156154571Y-62710286D01*
X156083143Y-62996000D01*
X156083143Y-63353143D01*
X156154571Y-63638857D01*
X156226000Y-63781714D01*
X156297429Y-63853143D01*
X156440286Y-63924571D01*
X156583143Y-63924571D01*
X156726000Y-63853143D01*
X156797429Y-63781714D01*
X156868857Y-63638857D01*
X156940286Y-63353143D01*
X156940286Y-62996000D01*
X156868857Y-62710286D01*
X156797429Y-62567429D01*
X156726000Y-62496000D01*
X156583143Y-62424571D01*
X154654572Y-63924571D02*
X155511715Y-63924571D01*
X155083143Y-63924571D02*
X155083143Y-62424571D01*
X155226000Y-62638857D01*
X155368858Y-62781714D01*
X155511715Y-62853143D01*
X154011715Y-63781714D02*
X153940287Y-63853143D01*
X154011715Y-63924571D01*
X154083144Y-63853143D01*
X154011715Y-63781714D01*
X154011715Y-63924571D01*
X152511715Y-63924571D02*
X153368858Y-63924571D01*
X152940286Y-63924571D02*
X152940286Y-62424571D01*
X153083143Y-62638857D01*
X153226001Y-62781714D01*
X153368858Y-62853143D01*
X151797430Y-63924571D02*
X151511715Y-63924571D01*
X151368858Y-63853143D01*
X151297430Y-63781714D01*
X151154572Y-63567429D01*
X151083144Y-63281714D01*
X151083144Y-62710286D01*
X151154572Y-62567429D01*
X151226001Y-62496000D01*
X151368858Y-62424571D01*
X151654572Y-62424571D01*
X151797430Y-62496000D01*
X151868858Y-62567429D01*
X151940287Y-62710286D01*
X151940287Y-63067429D01*
X151868858Y-63210286D01*
X151797430Y-63281714D01*
X151654572Y-63353143D01*
X151368858Y-63353143D01*
X151226001Y-63281714D01*
X151154572Y-63210286D01*
X151083144Y-63067429D01*
D14*
X154715000Y-87565000D02*
X154965000Y-87565000D01*
X154715000Y-95315000D02*
X155050000Y-95315000D01*
X167865000Y-95315000D02*
X167530000Y-95315000D01*
X167865000Y-87565000D02*
X167530000Y-87565000D01*
X154715000Y-87565000D02*
X154715000Y-95315000D01*
X167865000Y-87565000D02*
X167865000Y-95315000D01*
X154965000Y-87565000D02*
X154965000Y-85765000D01*
X133125000Y-87565000D02*
X133375000Y-87565000D01*
X133125000Y-95315000D02*
X133460000Y-95315000D01*
X146275000Y-95315000D02*
X145940000Y-95315000D01*
X146275000Y-87565000D02*
X145940000Y-87565000D01*
X133125000Y-87565000D02*
X133125000Y-95315000D01*
X146275000Y-87565000D02*
X146275000Y-95315000D01*
X133375000Y-87565000D02*
X133375000Y-85765000D01*
D15*
X180404000Y-73600000D02*
X132084000Y-73600000D01*
X132084000Y-73600000D02*
X132084000Y-78800000D01*
X132084000Y-78800000D02*
X183004000Y-78800000D01*
X183004000Y-78800000D02*
X183004000Y-76200000D01*
X183004000Y-76200000D02*
X180404000Y-76200000D01*
X180404000Y-76200000D02*
X180404000Y-73600000D01*
X181674000Y-73600000D02*
X183004000Y-73600000D01*
X183004000Y-73600000D02*
X183004000Y-74870000D01*
X180404000Y-50613000D02*
X132084000Y-50613000D01*
X132084000Y-50613000D02*
X132084000Y-55813000D01*
X132084000Y-55813000D02*
X183004000Y-55813000D01*
X183004000Y-55813000D02*
X183004000Y-53213000D01*
X183004000Y-53213000D02*
X180404000Y-53213000D01*
X180404000Y-53213000D02*
X180404000Y-50613000D01*
X181674000Y-50613000D02*
X183004000Y-50613000D01*
X183004000Y-50613000D02*
X183004000Y-51883000D01*
X130040000Y-64350000D02*
X129040000Y-64350000D01*
X129040000Y-62650000D02*
X130040000Y-62650000D01*
X129040000Y-65190000D02*
X130040000Y-65190000D01*
X130040000Y-66890000D02*
X129040000Y-66890000D01*
X130140000Y-60080000D02*
X128940000Y-60080000D01*
X128940000Y-61840000D02*
X130140000Y-61840000D01*
X130140000Y-67700000D02*
X128940000Y-67700000D01*
X128940000Y-69460000D02*
X130140000Y-69460000D01*
D14*
X153242381Y-90678095D02*
X154051905Y-90678095D01*
X154147143Y-90725714D01*
X154194762Y-90773333D01*
X154242381Y-90868571D01*
X154242381Y-91059048D01*
X154194762Y-91154286D01*
X154147143Y-91201905D01*
X154051905Y-91249524D01*
X153242381Y-91249524D01*
X153337619Y-91678095D02*
X153290000Y-91725714D01*
X153242381Y-91820952D01*
X153242381Y-92059048D01*
X153290000Y-92154286D01*
X153337619Y-92201905D01*
X153432857Y-92249524D01*
X153528095Y-92249524D01*
X153670952Y-92201905D01*
X154242381Y-91630476D01*
X154242381Y-92249524D01*
X131652381Y-90678095D02*
X132461905Y-90678095D01*
X132557143Y-90725714D01*
X132604762Y-90773333D01*
X132652381Y-90868571D01*
X132652381Y-91059048D01*
X132604762Y-91154286D01*
X132557143Y-91201905D01*
X132461905Y-91249524D01*
X131652381Y-91249524D01*
X131652381Y-91630476D02*
X131652381Y-92249524D01*
X132033333Y-91916190D01*
X132033333Y-92059048D01*
X132080952Y-92154286D01*
X132128571Y-92201905D01*
X132223810Y-92249524D01*
X132461905Y-92249524D01*
X132557143Y-92201905D01*
X132604762Y-92154286D01*
X132652381Y-92059048D01*
X132652381Y-91773333D01*
X132604762Y-91678095D01*
X132557143Y-91630476D01*
X183456381Y-75866667D02*
X184170667Y-75866667D01*
X184313524Y-75819047D01*
X184408762Y-75723809D01*
X184456381Y-75580952D01*
X184456381Y-75485714D01*
X184456381Y-76866667D02*
X184456381Y-76295238D01*
X184456381Y-76580952D02*
X183456381Y-76580952D01*
X183599238Y-76485714D01*
X183694476Y-76390476D01*
X183742095Y-76295238D01*
X183456381Y-52879667D02*
X184170667Y-52879667D01*
X184313524Y-52832047D01*
X184408762Y-52736809D01*
X184456381Y-52593952D01*
X184456381Y-52498714D01*
X183551619Y-53308238D02*
X183504000Y-53355857D01*
X183456381Y-53451095D01*
X183456381Y-53689191D01*
X183504000Y-53784429D01*
X183551619Y-53832048D01*
X183646857Y-53879667D01*
X183742095Y-53879667D01*
X183884952Y-53832048D01*
X184456381Y-53260619D01*
X184456381Y-53879667D01*
X133516666Y-66397143D02*
X133564285Y-66444762D01*
X133707142Y-66492381D01*
X133802380Y-66492381D01*
X133945238Y-66444762D01*
X134040476Y-66349524D01*
X134088095Y-66254286D01*
X134135714Y-66063810D01*
X134135714Y-65920952D01*
X134088095Y-65730476D01*
X134040476Y-65635238D01*
X133945238Y-65540000D01*
X133802380Y-65492381D01*
X133707142Y-65492381D01*
X133564285Y-65540000D01*
X133516666Y-65587619D01*
X132564285Y-66492381D02*
X133135714Y-66492381D01*
X132850000Y-66492381D02*
X132850000Y-65492381D01*
X132945238Y-65635238D01*
X133040476Y-65730476D01*
X133135714Y-65778095D01*
X133516666Y-63857143D02*
X133564285Y-63904762D01*
X133707142Y-63952381D01*
X133802380Y-63952381D01*
X133945238Y-63904762D01*
X134040476Y-63809524D01*
X134088095Y-63714286D01*
X134135714Y-63523810D01*
X134135714Y-63380952D01*
X134088095Y-63190476D01*
X134040476Y-63095238D01*
X133945238Y-63000000D01*
X133802380Y-62952381D01*
X133707142Y-62952381D01*
X133564285Y-63000000D01*
X133516666Y-63047619D01*
X133135714Y-63047619D02*
X133088095Y-63000000D01*
X132992857Y-62952381D01*
X132754761Y-62952381D01*
X132659523Y-63000000D01*
X132611904Y-63047619D01*
X132564285Y-63142857D01*
X132564285Y-63238095D01*
X132611904Y-63380952D01*
X133183333Y-63952381D01*
X132564285Y-63952381D01*
X133516666Y-61412381D02*
X133850000Y-60936190D01*
X134088095Y-61412381D02*
X134088095Y-60412381D01*
X133707142Y-60412381D01*
X133611904Y-60460000D01*
X133564285Y-60507619D01*
X133516666Y-60602857D01*
X133516666Y-60745714D01*
X133564285Y-60840952D01*
X133611904Y-60888571D01*
X133707142Y-60936190D01*
X134088095Y-60936190D01*
X132564285Y-61412381D02*
X133135714Y-61412381D01*
X132850000Y-61412381D02*
X132850000Y-60412381D01*
X132945238Y-60555238D01*
X133040476Y-60650476D01*
X133135714Y-60698095D01*
X133516666Y-69032381D02*
X133850000Y-68556190D01*
X134088095Y-69032381D02*
X134088095Y-68032381D01*
X133707142Y-68032381D01*
X133611904Y-68080000D01*
X133564285Y-68127619D01*
X133516666Y-68222857D01*
X133516666Y-68365714D01*
X133564285Y-68460952D01*
X133611904Y-68508571D01*
X133707142Y-68556190D01*
X134088095Y-68556190D01*
X133135714Y-68127619D02*
X133088095Y-68080000D01*
X132992857Y-68032381D01*
X132754761Y-68032381D01*
X132659523Y-68080000D01*
X132611904Y-68127619D01*
X132564285Y-68222857D01*
X132564285Y-68318095D01*
X132611904Y-68460952D01*
X133183333Y-69032381D01*
X132564285Y-69032381D01*
M02*
