G04 #@! TF.FileFunction,Legend,Top*
%FSLAX46Y46*%
G04 Gerber Fmt 4.6, Leading zero omitted, Abs format (unit mm)*
G04 Created by KiCad (PCBNEW 4.0.7) date 03/01/18 16:35:59*
%MOMM*%
%LPD*%
G01*
G04 APERTURE LIST*
%ADD10C,0.100000*%
%ADD11C,0.300000*%
%ADD12C,0.200000*%
%ADD13C,0.250000*%
%ADD14C,0.010000*%
%ADD15C,0.150000*%
%ADD16C,0.120000*%
G04 APERTURE END LIST*
D10*
D11*
X188591143Y-92991714D02*
X188519714Y-93063143D01*
X188305428Y-93134571D01*
X188162571Y-93134571D01*
X187948286Y-93063143D01*
X187805428Y-92920286D01*
X187734000Y-92777429D01*
X187662571Y-92491714D01*
X187662571Y-92277429D01*
X187734000Y-91991714D01*
X187805428Y-91848857D01*
X187948286Y-91706000D01*
X188162571Y-91634571D01*
X188305428Y-91634571D01*
X188519714Y-91706000D01*
X188591143Y-91777429D01*
X189948286Y-93134571D02*
X189234000Y-93134571D01*
X189234000Y-91634571D01*
X190448286Y-93134571D02*
X190448286Y-91634571D01*
X191305429Y-93134571D02*
X190662572Y-92277429D01*
X191305429Y-91634571D02*
X190448286Y-92491714D01*
X188650715Y-90594571D02*
X188650715Y-89094571D01*
X189150715Y-90166000D01*
X189650715Y-89094571D01*
X189650715Y-90594571D01*
X191150715Y-90594571D02*
X190293572Y-90594571D01*
X190722144Y-90594571D02*
X190722144Y-89094571D01*
X190579287Y-89308857D01*
X190436429Y-89451714D01*
X190293572Y-89523143D01*
X188345143Y-86554571D02*
X188702286Y-88054571D01*
X188988000Y-86983143D01*
X189273714Y-88054571D01*
X189630857Y-86554571D01*
X191059429Y-88054571D02*
X190559429Y-87340286D01*
X190202286Y-88054571D02*
X190202286Y-86554571D01*
X190773714Y-86554571D01*
X190916572Y-86626000D01*
X190988000Y-86697429D01*
X191059429Y-86840286D01*
X191059429Y-87054571D01*
X190988000Y-87197429D01*
X190916572Y-87268857D01*
X190773714Y-87340286D01*
X190202286Y-87340286D01*
D12*
X147086609Y-90170000D02*
G75*
G03X147086609Y-90170000I-401609J0D01*
G01*
D11*
X145989856Y-93531429D02*
X144989856Y-93531429D01*
X145632713Y-92031429D01*
X143775571Y-93031429D02*
X143775571Y-92031429D01*
X144132714Y-93602857D02*
X144489857Y-92531429D01*
X143561285Y-92531429D01*
X142989857Y-92031429D02*
X142989857Y-93531429D01*
X142989857Y-92817143D02*
X142132714Y-92817143D01*
X142132714Y-92031429D02*
X142132714Y-93531429D01*
X140561285Y-92174286D02*
X140632714Y-92102857D01*
X140847000Y-92031429D01*
X140989857Y-92031429D01*
X141204142Y-92102857D01*
X141347000Y-92245714D01*
X141418428Y-92388571D01*
X141489857Y-92674286D01*
X141489857Y-92888571D01*
X141418428Y-93174286D01*
X141347000Y-93317143D01*
X141204142Y-93460000D01*
X140989857Y-93531429D01*
X140847000Y-93531429D01*
X140632714Y-93460000D01*
X140561285Y-93388571D01*
X139989857Y-93388571D02*
X139918428Y-93460000D01*
X139775571Y-93531429D01*
X139418428Y-93531429D01*
X139275571Y-93460000D01*
X139204142Y-93388571D01*
X139132714Y-93245714D01*
X139132714Y-93102857D01*
X139204142Y-92888571D01*
X140061285Y-92031429D01*
X139132714Y-92031429D01*
X137847000Y-93031429D02*
X137847000Y-92031429D01*
X138204143Y-93602857D02*
X138561286Y-92531429D01*
X137632714Y-92531429D01*
X136347000Y-93531429D02*
X137061286Y-93531429D01*
X137132715Y-92817143D01*
X137061286Y-92888571D01*
X136918429Y-92960000D01*
X136561286Y-92960000D01*
X136418429Y-92888571D01*
X136347000Y-92817143D01*
X136275572Y-92674286D01*
X136275572Y-92317143D01*
X136347000Y-92174286D01*
X136418429Y-92102857D01*
X136561286Y-92031429D01*
X136918429Y-92031429D01*
X137061286Y-92102857D01*
X137132715Y-92174286D01*
D12*
X180106609Y-90043000D02*
G75*
G03X180106609Y-90043000I-401609J0D01*
G01*
X167640000Y-104394000D02*
X163576000Y-104394000D01*
X167640000Y-106172000D02*
X167640000Y-104394000D01*
D11*
X178755856Y-93785429D02*
X177755856Y-93785429D01*
X178398713Y-92285429D01*
X176541571Y-93285429D02*
X176541571Y-92285429D01*
X176898714Y-93856857D02*
X177255857Y-92785429D01*
X176327285Y-92785429D01*
X175755857Y-92285429D02*
X175755857Y-93785429D01*
X175755857Y-93071143D02*
X174898714Y-93071143D01*
X174898714Y-92285429D02*
X174898714Y-93785429D01*
X173327285Y-92428286D02*
X173398714Y-92356857D01*
X173613000Y-92285429D01*
X173755857Y-92285429D01*
X173970142Y-92356857D01*
X174113000Y-92499714D01*
X174184428Y-92642571D01*
X174255857Y-92928286D01*
X174255857Y-93142571D01*
X174184428Y-93428286D01*
X174113000Y-93571143D01*
X173970142Y-93714000D01*
X173755857Y-93785429D01*
X173613000Y-93785429D01*
X173398714Y-93714000D01*
X173327285Y-93642571D01*
X172755857Y-93642571D02*
X172684428Y-93714000D01*
X172541571Y-93785429D01*
X172184428Y-93785429D01*
X172041571Y-93714000D01*
X171970142Y-93642571D01*
X171898714Y-93499714D01*
X171898714Y-93356857D01*
X171970142Y-93142571D01*
X172827285Y-92285429D01*
X171898714Y-92285429D01*
X170613000Y-93285429D02*
X170613000Y-92285429D01*
X170970143Y-93856857D02*
X171327286Y-92785429D01*
X170398714Y-92785429D01*
X169113000Y-93785429D02*
X169827286Y-93785429D01*
X169898715Y-93071143D01*
X169827286Y-93142571D01*
X169684429Y-93214000D01*
X169327286Y-93214000D01*
X169184429Y-93142571D01*
X169113000Y-93071143D01*
X169041572Y-92928286D01*
X169041572Y-92571143D01*
X169113000Y-92428286D01*
X169184429Y-92356857D01*
X169327286Y-92285429D01*
X169684429Y-92285429D01*
X169827286Y-92356857D01*
X169898715Y-92428286D01*
D13*
X137517143Y-104735238D02*
X137564762Y-104782857D01*
X137612381Y-104925714D01*
X137612381Y-105020952D01*
X137564762Y-105163810D01*
X137469524Y-105259048D01*
X137374286Y-105306667D01*
X137183810Y-105354286D01*
X137040952Y-105354286D01*
X136850476Y-105306667D01*
X136755238Y-105259048D01*
X136660000Y-105163810D01*
X136612381Y-105020952D01*
X136612381Y-104925714D01*
X136660000Y-104782857D01*
X136707619Y-104735238D01*
X137612381Y-103830476D02*
X137612381Y-104306667D01*
X136612381Y-104306667D01*
X137612381Y-103497143D02*
X136612381Y-103497143D01*
X137612381Y-102925714D02*
X137040952Y-103354286D01*
X136612381Y-102925714D02*
X137183810Y-103497143D01*
X188317143Y-104497047D02*
X188364762Y-104544666D01*
X188412381Y-104687523D01*
X188412381Y-104782761D01*
X188364762Y-104925619D01*
X188269524Y-105020857D01*
X188174286Y-105068476D01*
X187983810Y-105116095D01*
X187840952Y-105116095D01*
X187650476Y-105068476D01*
X187555238Y-105020857D01*
X187460000Y-104925619D01*
X187412381Y-104782761D01*
X187412381Y-104687523D01*
X187460000Y-104544666D01*
X187507619Y-104497047D01*
X188364762Y-104116095D02*
X188412381Y-103973238D01*
X188412381Y-103735142D01*
X188364762Y-103639904D01*
X188317143Y-103592285D01*
X188221905Y-103544666D01*
X188126667Y-103544666D01*
X188031429Y-103592285D01*
X187983810Y-103639904D01*
X187936190Y-103735142D01*
X187888571Y-103925619D01*
X187840952Y-104020857D01*
X187793333Y-104068476D01*
X187698095Y-104116095D01*
X187602857Y-104116095D01*
X187507619Y-104068476D01*
X187460000Y-104020857D01*
X187412381Y-103925619D01*
X187412381Y-103687523D01*
X187460000Y-103544666D01*
X188412381Y-102592285D02*
X188412381Y-103163714D01*
X188412381Y-102878000D02*
X187412381Y-102878000D01*
X187555238Y-102973238D01*
X187650476Y-103068476D01*
X187698095Y-103163714D01*
X187507619Y-102211333D02*
X187460000Y-102163714D01*
X187412381Y-102068476D01*
X187412381Y-101830380D01*
X187460000Y-101735142D01*
X187507619Y-101687523D01*
X187602857Y-101639904D01*
X187698095Y-101639904D01*
X187840952Y-101687523D01*
X188412381Y-102258952D01*
X188412381Y-101639904D01*
D12*
X166878000Y-104394000D02*
X163576000Y-104394000D01*
X152146000Y-104394000D02*
X155448000Y-104394000D01*
D13*
X142010000Y-104846381D02*
X142010000Y-103846381D01*
X142248095Y-103846381D01*
X142390953Y-103894000D01*
X142486191Y-103989238D01*
X142533810Y-104084476D01*
X142581429Y-104274952D01*
X142581429Y-104417810D01*
X142533810Y-104608286D01*
X142486191Y-104703524D01*
X142390953Y-104798762D01*
X142248095Y-104846381D01*
X142010000Y-104846381D01*
X142962381Y-104560667D02*
X143438572Y-104560667D01*
X142867143Y-104846381D02*
X143200476Y-103846381D01*
X143533810Y-104846381D01*
X143724286Y-103846381D02*
X144295715Y-103846381D01*
X144010000Y-104846381D02*
X144010000Y-103846381D01*
X144581429Y-104560667D02*
X145057620Y-104560667D01*
X144486191Y-104846381D02*
X144819524Y-103846381D01*
X145152858Y-104846381D01*
D12*
X139700000Y-104394000D02*
X141478000Y-104394000D01*
X139700000Y-105918000D02*
X139700000Y-104394000D01*
X147320000Y-104394000D02*
X145796000Y-104394000D01*
X147320000Y-105918000D02*
X147320000Y-104394000D01*
X149860000Y-104394000D02*
X152146000Y-104394000D01*
X149860000Y-105918000D02*
X149860000Y-104394000D01*
D13*
X156369143Y-104814667D02*
X156845334Y-104814667D01*
X156273905Y-105100381D02*
X156607238Y-104100381D01*
X156940572Y-105100381D01*
X157273905Y-105100381D02*
X157273905Y-104100381D01*
X157512000Y-104100381D01*
X157654858Y-104148000D01*
X157750096Y-104243238D01*
X157797715Y-104338476D01*
X157845334Y-104528952D01*
X157845334Y-104671810D01*
X157797715Y-104862286D01*
X157750096Y-104957524D01*
X157654858Y-105052762D01*
X157512000Y-105100381D01*
X157273905Y-105100381D01*
X158273905Y-105100381D02*
X158273905Y-104100381D01*
X158512000Y-104100381D01*
X158654858Y-104148000D01*
X158750096Y-104243238D01*
X158797715Y-104338476D01*
X158845334Y-104528952D01*
X158845334Y-104671810D01*
X158797715Y-104862286D01*
X158750096Y-104957524D01*
X158654858Y-105052762D01*
X158512000Y-105100381D01*
X158273905Y-105100381D01*
X159845334Y-105100381D02*
X159512000Y-104624190D01*
X159273905Y-105100381D02*
X159273905Y-104100381D01*
X159654858Y-104100381D01*
X159750096Y-104148000D01*
X159797715Y-104195619D01*
X159845334Y-104290857D01*
X159845334Y-104433714D01*
X159797715Y-104528952D01*
X159750096Y-104576571D01*
X159654858Y-104624190D01*
X159273905Y-104624190D01*
X160273905Y-104576571D02*
X160607239Y-104576571D01*
X160750096Y-105100381D02*
X160273905Y-105100381D01*
X160273905Y-104100381D01*
X160750096Y-104100381D01*
X161131048Y-105052762D02*
X161273905Y-105100381D01*
X161512001Y-105100381D01*
X161607239Y-105052762D01*
X161654858Y-105005143D01*
X161702477Y-104909905D01*
X161702477Y-104814667D01*
X161654858Y-104719429D01*
X161607239Y-104671810D01*
X161512001Y-104624190D01*
X161321524Y-104576571D01*
X161226286Y-104528952D01*
X161178667Y-104481333D01*
X161131048Y-104386095D01*
X161131048Y-104290857D01*
X161178667Y-104195619D01*
X161226286Y-104148000D01*
X161321524Y-104100381D01*
X161559620Y-104100381D01*
X161702477Y-104148000D01*
X162083429Y-105052762D02*
X162226286Y-105100381D01*
X162464382Y-105100381D01*
X162559620Y-105052762D01*
X162607239Y-105005143D01*
X162654858Y-104909905D01*
X162654858Y-104814667D01*
X162607239Y-104719429D01*
X162559620Y-104671810D01*
X162464382Y-104624190D01*
X162273905Y-104576571D01*
X162178667Y-104528952D01*
X162131048Y-104481333D01*
X162083429Y-104386095D01*
X162083429Y-104290857D01*
X162131048Y-104195619D01*
X162178667Y-104148000D01*
X162273905Y-104100381D01*
X162512001Y-104100381D01*
X162654858Y-104148000D01*
X180792381Y-105298762D02*
X179792381Y-105298762D01*
X180792381Y-104822572D02*
X179792381Y-104822572D01*
X180792381Y-104251143D01*
X179792381Y-104251143D01*
X179792381Y-103917810D02*
X179792381Y-103346381D01*
X180792381Y-103632096D02*
X179792381Y-103632096D01*
X175712381Y-105251143D02*
X174712381Y-105251143D01*
X175426667Y-104917809D01*
X174712381Y-104584476D01*
X175712381Y-104584476D01*
X175807619Y-103441619D02*
X175760000Y-103536857D01*
X175664762Y-103632095D01*
X175521905Y-103774952D01*
X175474286Y-103870191D01*
X175474286Y-103965429D01*
X175712381Y-103917810D02*
X175664762Y-104013048D01*
X175569524Y-104108286D01*
X175379048Y-104155905D01*
X175045714Y-104155905D01*
X174855238Y-104108286D01*
X174760000Y-104013048D01*
X174712381Y-103917810D01*
X174712381Y-103727333D01*
X174760000Y-103632095D01*
X174855238Y-103536857D01*
X175045714Y-103489238D01*
X175379048Y-103489238D01*
X175569524Y-103536857D01*
X175664762Y-103632095D01*
X175712381Y-103727333D01*
X175712381Y-103917810D01*
X173172381Y-104584476D02*
X172696190Y-104917810D01*
X173172381Y-105155905D02*
X172172381Y-105155905D01*
X172172381Y-104774952D01*
X172220000Y-104679714D01*
X172267619Y-104632095D01*
X172362857Y-104584476D01*
X172505714Y-104584476D01*
X172600952Y-104632095D01*
X172648571Y-104679714D01*
X172696190Y-104774952D01*
X172696190Y-105155905D01*
X173172381Y-104155905D02*
X172172381Y-104155905D01*
X172172381Y-103917810D01*
X172220000Y-103774952D01*
X172315238Y-103679714D01*
X172410476Y-103632095D01*
X172600952Y-103584476D01*
X172743810Y-103584476D01*
X172934286Y-103632095D01*
X173029524Y-103679714D01*
X173124762Y-103774952D01*
X173172381Y-103917810D01*
X173172381Y-104155905D01*
X185824762Y-105084476D02*
X185872381Y-104941619D01*
X185872381Y-104703523D01*
X185824762Y-104608285D01*
X185777143Y-104560666D01*
X185681905Y-104513047D01*
X185586667Y-104513047D01*
X185491429Y-104560666D01*
X185443810Y-104608285D01*
X185396190Y-104703523D01*
X185348571Y-104894000D01*
X185300952Y-104989238D01*
X185253333Y-105036857D01*
X185158095Y-105084476D01*
X185062857Y-105084476D01*
X184967619Y-105036857D01*
X184920000Y-104989238D01*
X184872381Y-104894000D01*
X184872381Y-104655904D01*
X184920000Y-104513047D01*
X185872381Y-103608285D02*
X185872381Y-104084476D01*
X184872381Y-104084476D01*
X177728571Y-104925666D02*
X177776190Y-104782809D01*
X177823810Y-104735190D01*
X177919048Y-104687571D01*
X178061905Y-104687571D01*
X178157143Y-104735190D01*
X178204762Y-104782809D01*
X178252381Y-104878047D01*
X178252381Y-105259000D01*
X177252381Y-105259000D01*
X177252381Y-104925666D01*
X177300000Y-104830428D01*
X177347619Y-104782809D01*
X177442857Y-104735190D01*
X177538095Y-104735190D01*
X177633333Y-104782809D01*
X177680952Y-104830428D01*
X177728571Y-104925666D01*
X177728571Y-105259000D01*
X178252381Y-104259000D02*
X177252381Y-104259000D01*
X177252381Y-104020905D01*
X177300000Y-103878047D01*
X177395238Y-103782809D01*
X177490476Y-103735190D01*
X177680952Y-103687571D01*
X177823810Y-103687571D01*
X178014286Y-103735190D01*
X178109524Y-103782809D01*
X178204762Y-103878047D01*
X178252381Y-104020905D01*
X178252381Y-104259000D01*
X178252381Y-103259000D02*
X177252381Y-103259000D01*
X178252381Y-102211381D02*
X177776190Y-102544715D01*
X178252381Y-102782810D02*
X177252381Y-102782810D01*
X177252381Y-102401857D01*
X177300000Y-102306619D01*
X177347619Y-102259000D01*
X177442857Y-102211381D01*
X177585714Y-102211381D01*
X177680952Y-102259000D01*
X177728571Y-102306619D01*
X177776190Y-102401857D01*
X177776190Y-102782810D01*
D11*
X141865144Y-71544571D02*
X141365144Y-70830286D01*
X141008001Y-71544571D02*
X141008001Y-70044571D01*
X141579429Y-70044571D01*
X141722287Y-70116000D01*
X141793715Y-70187429D01*
X141865144Y-70330286D01*
X141865144Y-70544571D01*
X141793715Y-70687429D01*
X141722287Y-70758857D01*
X141579429Y-70830286D01*
X141008001Y-70830286D01*
X142508001Y-71544571D02*
X142508001Y-70544571D01*
X142508001Y-70830286D02*
X142579429Y-70687429D01*
X142650858Y-70616000D01*
X142793715Y-70544571D01*
X142936572Y-70544571D01*
X144079429Y-71544571D02*
X144079429Y-70758857D01*
X144008000Y-70616000D01*
X143865143Y-70544571D01*
X143579429Y-70544571D01*
X143436572Y-70616000D01*
X144079429Y-71473143D02*
X143936572Y-71544571D01*
X143579429Y-71544571D01*
X143436572Y-71473143D01*
X143365143Y-71330286D01*
X143365143Y-71187429D01*
X143436572Y-71044571D01*
X143579429Y-70973143D01*
X143936572Y-70973143D01*
X144079429Y-70901714D01*
X144722286Y-71473143D02*
X144865143Y-71544571D01*
X145150858Y-71544571D01*
X145293715Y-71473143D01*
X145365143Y-71330286D01*
X145365143Y-71258857D01*
X145293715Y-71116000D01*
X145150858Y-71044571D01*
X144936572Y-71044571D01*
X144793715Y-70973143D01*
X144722286Y-70830286D01*
X144722286Y-70758857D01*
X144793715Y-70616000D01*
X144936572Y-70544571D01*
X145150858Y-70544571D01*
X145293715Y-70616000D01*
X146008001Y-70544571D02*
X146008001Y-72044571D01*
X146008001Y-70616000D02*
X146150858Y-70544571D01*
X146436572Y-70544571D01*
X146579429Y-70616000D01*
X146650858Y-70687429D01*
X146722287Y-70830286D01*
X146722287Y-71258857D01*
X146650858Y-71401714D01*
X146579429Y-71473143D01*
X146436572Y-71544571D01*
X146150858Y-71544571D01*
X146008001Y-71473143D01*
X147365144Y-71544571D02*
X147365144Y-70044571D01*
X147365144Y-70616000D02*
X147508001Y-70544571D01*
X147793715Y-70544571D01*
X147936572Y-70616000D01*
X148008001Y-70687429D01*
X148079430Y-70830286D01*
X148079430Y-71258857D01*
X148008001Y-71401714D01*
X147936572Y-71473143D01*
X147793715Y-71544571D01*
X147508001Y-71544571D01*
X147365144Y-71473143D01*
X149293715Y-71473143D02*
X149150858Y-71544571D01*
X148865144Y-71544571D01*
X148722287Y-71473143D01*
X148650858Y-71330286D01*
X148650858Y-70758857D01*
X148722287Y-70616000D01*
X148865144Y-70544571D01*
X149150858Y-70544571D01*
X149293715Y-70616000D01*
X149365144Y-70758857D01*
X149365144Y-70901714D01*
X148650858Y-71044571D01*
X150008001Y-71544571D02*
X150008001Y-70544571D01*
X150008001Y-70830286D02*
X150079429Y-70687429D01*
X150150858Y-70616000D01*
X150293715Y-70544571D01*
X150436572Y-70544571D01*
X150936572Y-71544571D02*
X150936572Y-70544571D01*
X150936572Y-70830286D02*
X151008000Y-70687429D01*
X151079429Y-70616000D01*
X151222286Y-70544571D01*
X151365143Y-70544571D01*
X151722286Y-70544571D02*
X152079429Y-71544571D01*
X152436571Y-70544571D02*
X152079429Y-71544571D01*
X151936571Y-71901714D01*
X151865143Y-71973143D01*
X151722286Y-72044571D01*
X154150857Y-71544571D02*
X154150857Y-70044571D01*
X154722285Y-70044571D01*
X154865143Y-70116000D01*
X154936571Y-70187429D01*
X155008000Y-70330286D01*
X155008000Y-70544571D01*
X154936571Y-70687429D01*
X154865143Y-70758857D01*
X154722285Y-70830286D01*
X154150857Y-70830286D01*
X155650857Y-71544571D02*
X155650857Y-70544571D01*
X155650857Y-70044571D02*
X155579428Y-70116000D01*
X155650857Y-70187429D01*
X155722285Y-70116000D01*
X155650857Y-70044571D01*
X155650857Y-70187429D01*
X158079428Y-71473143D02*
X157936571Y-71544571D01*
X157650857Y-71544571D01*
X157508000Y-71473143D01*
X157436571Y-71330286D01*
X157436571Y-70758857D01*
X157508000Y-70616000D01*
X157650857Y-70544571D01*
X157936571Y-70544571D01*
X158079428Y-70616000D01*
X158150857Y-70758857D01*
X158150857Y-70901714D01*
X157436571Y-71044571D01*
X158650857Y-71544571D02*
X159436571Y-70544571D01*
X158650857Y-70544571D02*
X159436571Y-71544571D01*
X159793714Y-70544571D02*
X160365143Y-70544571D01*
X160008000Y-70044571D02*
X160008000Y-71330286D01*
X160079428Y-71473143D01*
X160222286Y-71544571D01*
X160365143Y-71544571D01*
X161436571Y-71473143D02*
X161293714Y-71544571D01*
X161008000Y-71544571D01*
X160865143Y-71473143D01*
X160793714Y-71330286D01*
X160793714Y-70758857D01*
X160865143Y-70616000D01*
X161008000Y-70544571D01*
X161293714Y-70544571D01*
X161436571Y-70616000D01*
X161508000Y-70758857D01*
X161508000Y-70901714D01*
X160793714Y-71044571D01*
X162150857Y-70544571D02*
X162150857Y-71544571D01*
X162150857Y-70687429D02*
X162222285Y-70616000D01*
X162365143Y-70544571D01*
X162579428Y-70544571D01*
X162722285Y-70616000D01*
X162793714Y-70758857D01*
X162793714Y-71544571D01*
X163436571Y-71473143D02*
X163579428Y-71544571D01*
X163865143Y-71544571D01*
X164008000Y-71473143D01*
X164079428Y-71330286D01*
X164079428Y-71258857D01*
X164008000Y-71116000D01*
X163865143Y-71044571D01*
X163650857Y-71044571D01*
X163508000Y-70973143D01*
X163436571Y-70830286D01*
X163436571Y-70758857D01*
X163508000Y-70616000D01*
X163650857Y-70544571D01*
X163865143Y-70544571D01*
X164008000Y-70616000D01*
X164722286Y-71544571D02*
X164722286Y-70544571D01*
X164722286Y-70044571D02*
X164650857Y-70116000D01*
X164722286Y-70187429D01*
X164793714Y-70116000D01*
X164722286Y-70044571D01*
X164722286Y-70187429D01*
X165650858Y-71544571D02*
X165508000Y-71473143D01*
X165436572Y-71401714D01*
X165365143Y-71258857D01*
X165365143Y-70830286D01*
X165436572Y-70687429D01*
X165508000Y-70616000D01*
X165650858Y-70544571D01*
X165865143Y-70544571D01*
X166008000Y-70616000D01*
X166079429Y-70687429D01*
X166150858Y-70830286D01*
X166150858Y-71258857D01*
X166079429Y-71401714D01*
X166008000Y-71473143D01*
X165865143Y-71544571D01*
X165650858Y-71544571D01*
X166793715Y-70544571D02*
X166793715Y-71544571D01*
X166793715Y-70687429D02*
X166865143Y-70616000D01*
X167008001Y-70544571D01*
X167222286Y-70544571D01*
X167365143Y-70616000D01*
X167436572Y-70758857D01*
X167436572Y-71544571D01*
X169079429Y-70044571D02*
X169579429Y-71544571D01*
X170079429Y-70044571D01*
X171150857Y-71473143D02*
X171008000Y-71544571D01*
X170722286Y-71544571D01*
X170579429Y-71473143D01*
X170508000Y-71330286D01*
X170508000Y-70758857D01*
X170579429Y-70616000D01*
X170722286Y-70544571D01*
X171008000Y-70544571D01*
X171150857Y-70616000D01*
X171222286Y-70758857D01*
X171222286Y-70901714D01*
X170508000Y-71044571D01*
X171865143Y-71544571D02*
X171865143Y-70544571D01*
X171865143Y-70830286D02*
X171936571Y-70687429D01*
X172008000Y-70616000D01*
X172150857Y-70544571D01*
X172293714Y-70544571D01*
X172793714Y-71401714D02*
X172865142Y-71473143D01*
X172793714Y-71544571D01*
X172722285Y-71473143D01*
X172793714Y-71401714D01*
X172793714Y-71544571D01*
X174936571Y-70044571D02*
X175079428Y-70044571D01*
X175222285Y-70116000D01*
X175293714Y-70187429D01*
X175365143Y-70330286D01*
X175436571Y-70616000D01*
X175436571Y-70973143D01*
X175365143Y-71258857D01*
X175293714Y-71401714D01*
X175222285Y-71473143D01*
X175079428Y-71544571D01*
X174936571Y-71544571D01*
X174793714Y-71473143D01*
X174722285Y-71401714D01*
X174650857Y-71258857D01*
X174579428Y-70973143D01*
X174579428Y-70616000D01*
X174650857Y-70330286D01*
X174722285Y-70187429D01*
X174793714Y-70116000D01*
X174936571Y-70044571D01*
X176079428Y-71401714D02*
X176150856Y-71473143D01*
X176079428Y-71544571D01*
X176007999Y-71473143D01*
X176079428Y-71401714D01*
X176079428Y-71544571D01*
X176650857Y-70044571D02*
X177650857Y-70044571D01*
X177008000Y-71544571D01*
D14*
G36*
X150151826Y-60639676D02*
X150195920Y-60798070D01*
X150279649Y-61097213D01*
X150396769Y-61514856D01*
X150541033Y-62028750D01*
X150706198Y-62616645D01*
X150886018Y-63256290D01*
X150990284Y-63627000D01*
X151740536Y-66294000D01*
X153787510Y-66316678D01*
X154522141Y-66320851D01*
X155119303Y-66315793D01*
X155570934Y-66301745D01*
X155868973Y-66278949D01*
X156001075Y-66250199D01*
X156120021Y-66103199D01*
X156169502Y-65875061D01*
X156142865Y-65641899D01*
X156066067Y-65506600D01*
X155947559Y-65461988D01*
X155688726Y-65430562D01*
X155280326Y-65411656D01*
X154713116Y-65404606D01*
X154647900Y-65404527D01*
X154165553Y-65398759D01*
X153718780Y-65383195D01*
X153346253Y-65359922D01*
X153086642Y-65331025D01*
X153015972Y-65316471D01*
X152538207Y-65098303D01*
X152110707Y-64731320D01*
X151752997Y-64233227D01*
X151687866Y-64112243D01*
X151528536Y-63774882D01*
X151440456Y-63498070D01*
X151403452Y-63199824D01*
X151397126Y-62930664D01*
X151464521Y-62271756D01*
X151673324Y-61702785D01*
X152026796Y-61218802D01*
X152528198Y-60814863D01*
X152940173Y-60590443D01*
X153416000Y-60367333D01*
X156802667Y-60345027D01*
X160189334Y-60322722D01*
X160951334Y-61385296D01*
X161713334Y-62447869D01*
X161898513Y-62217216D01*
X162020790Y-62055747D01*
X162211781Y-61792982D01*
X162444064Y-61467019D01*
X162660513Y-61158633D01*
X163237334Y-60330703D01*
X164486167Y-60327851D01*
X164924192Y-60329788D01*
X165295077Y-60337027D01*
X165569310Y-60348549D01*
X165717380Y-60363334D01*
X165735000Y-60370993D01*
X165687861Y-60449304D01*
X165554816Y-60647284D01*
X165348425Y-60946841D01*
X165081247Y-61329882D01*
X164765843Y-61778315D01*
X164414771Y-62274046D01*
X164379042Y-62324320D01*
X164000838Y-62862731D01*
X163674284Y-63340385D01*
X163409378Y-63741812D01*
X163216121Y-64051540D01*
X163104511Y-64254097D01*
X163081823Y-64331494D01*
X163144303Y-64424317D01*
X163291535Y-64636804D01*
X163510504Y-64950361D01*
X163788193Y-65346398D01*
X164111584Y-65806321D01*
X164467660Y-66311539D01*
X164522448Y-66389176D01*
X164879100Y-66896277D01*
X165201605Y-67358285D01*
X165477602Y-67757213D01*
X165694731Y-68075075D01*
X165840631Y-68293884D01*
X165902943Y-68395655D01*
X165904334Y-68400009D01*
X165824647Y-68418798D01*
X165605491Y-68434655D01*
X165276722Y-68446286D01*
X164868197Y-68452393D01*
X164684099Y-68453000D01*
X163463864Y-68452999D01*
X163059537Y-67881500D01*
X162805915Y-67525931D01*
X162510341Y-67115843D01*
X162231638Y-66732802D01*
X162199343Y-66688742D01*
X161743475Y-66067485D01*
X160929693Y-67260242D01*
X160115910Y-68453000D01*
X158861455Y-68453000D01*
X158422377Y-68450115D01*
X158050373Y-68442171D01*
X157774892Y-68430232D01*
X157625380Y-68415364D01*
X157607000Y-68407626D01*
X157653608Y-68329149D01*
X157785204Y-68130184D01*
X157989442Y-67828812D01*
X158253978Y-67443109D01*
X158566470Y-66991156D01*
X158914572Y-66491031D01*
X158962756Y-66422047D01*
X159317658Y-65912269D01*
X159641170Y-65443986D01*
X159920366Y-65036195D01*
X160142321Y-64707893D01*
X160294110Y-64478077D01*
X160362808Y-64365745D01*
X160364703Y-64361468D01*
X160336697Y-64248560D01*
X160225814Y-64027493D01*
X160048297Y-63727400D01*
X159820392Y-63377410D01*
X159795860Y-63341381D01*
X159180826Y-62441666D01*
X156452627Y-62441666D01*
X155662373Y-62442271D01*
X155025018Y-62445764D01*
X154524126Y-62454662D01*
X154143264Y-62471482D01*
X153865997Y-62498742D01*
X153675890Y-62538957D01*
X153556508Y-62594645D01*
X153491418Y-62668324D01*
X153464185Y-62762510D01*
X153458373Y-62879721D01*
X153458333Y-62900258D01*
X153476667Y-63067616D01*
X153546112Y-63190834D01*
X153688333Y-63276398D01*
X153924993Y-63330794D01*
X154277759Y-63360508D01*
X154768293Y-63372025D01*
X155037418Y-63372999D01*
X155666503Y-63381383D01*
X156158731Y-63411794D01*
X156545988Y-63472121D01*
X156860161Y-63570255D01*
X157133134Y-63714084D01*
X157396793Y-63911498D01*
X157470550Y-63975036D01*
X157903758Y-64460396D01*
X158185164Y-65020548D01*
X158315137Y-65656330D01*
X158324915Y-65913000D01*
X158246152Y-66581126D01*
X158019710Y-67177073D01*
X157654575Y-67686189D01*
X157159731Y-68093825D01*
X156897924Y-68239860D01*
X156457996Y-68455097D01*
X153289980Y-68432882D01*
X150121963Y-68410666D01*
X149655775Y-66657429D01*
X149517458Y-66143692D01*
X149392620Y-65692229D01*
X149287939Y-65326199D01*
X149210094Y-65068764D01*
X149165762Y-64943083D01*
X149159040Y-64934737D01*
X149131839Y-65018428D01*
X149069011Y-65236538D01*
X148978491Y-65559853D01*
X148868213Y-65959161D01*
X148746112Y-66405246D01*
X148620123Y-66868895D01*
X148498182Y-67320893D01*
X148388222Y-67732026D01*
X148298179Y-68073080D01*
X148235987Y-68314841D01*
X148209582Y-68428094D01*
X148209192Y-68431833D01*
X148130154Y-68440356D01*
X147916044Y-68447238D01*
X147601123Y-68451698D01*
X147281667Y-68453000D01*
X146354334Y-68453000D01*
X146196372Y-67923833D01*
X146114965Y-67644248D01*
X146002603Y-67249015D01*
X145872744Y-66785895D01*
X145738843Y-66302646D01*
X145707377Y-66188166D01*
X145588442Y-65765042D01*
X145482360Y-65406917D01*
X145397999Y-65142280D01*
X145344229Y-64999621D01*
X145332172Y-64982803D01*
X145300116Y-65061545D01*
X145235580Y-65281024D01*
X145144989Y-65617174D01*
X145034768Y-66045928D01*
X144911343Y-66543219D01*
X144868760Y-66718470D01*
X144449520Y-68453000D01*
X143356868Y-68453000D01*
X142889543Y-68449142D01*
X142571633Y-68436247D01*
X142383365Y-68412331D01*
X142304969Y-68375410D01*
X142302082Y-68347166D01*
X142329862Y-68246096D01*
X142394872Y-67997234D01*
X142492922Y-67616979D01*
X142619818Y-67121729D01*
X142771368Y-66527880D01*
X142943382Y-65851832D01*
X143131666Y-65109981D01*
X143332029Y-64318726D01*
X143341023Y-64283166D01*
X144342099Y-60325000D01*
X145296177Y-60325000D01*
X145715503Y-60327913D01*
X145995170Y-60339588D01*
X146164797Y-60364428D01*
X146254001Y-60406835D01*
X146292401Y-60471211D01*
X146292974Y-60473166D01*
X146328179Y-60598099D01*
X146400958Y-60858404D01*
X146503562Y-61226297D01*
X146628244Y-61673993D01*
X146767256Y-62173710D01*
X146780883Y-62222724D01*
X146918616Y-62704842D01*
X147043482Y-63116833D01*
X147148098Y-63436358D01*
X147225087Y-63641078D01*
X147267066Y-63708653D01*
X147270386Y-63704390D01*
X147306970Y-63589047D01*
X147382841Y-63338068D01*
X147489976Y-62978407D01*
X147620351Y-62537018D01*
X147765943Y-62040854D01*
X147784907Y-61976000D01*
X148255114Y-60367333D01*
X149159367Y-60343343D01*
X150063619Y-60319352D01*
X150151826Y-60639676D01*
X150151826Y-60639676D01*
G37*
X150151826Y-60639676D02*
X150195920Y-60798070D01*
X150279649Y-61097213D01*
X150396769Y-61514856D01*
X150541033Y-62028750D01*
X150706198Y-62616645D01*
X150886018Y-63256290D01*
X150990284Y-63627000D01*
X151740536Y-66294000D01*
X153787510Y-66316678D01*
X154522141Y-66320851D01*
X155119303Y-66315793D01*
X155570934Y-66301745D01*
X155868973Y-66278949D01*
X156001075Y-66250199D01*
X156120021Y-66103199D01*
X156169502Y-65875061D01*
X156142865Y-65641899D01*
X156066067Y-65506600D01*
X155947559Y-65461988D01*
X155688726Y-65430562D01*
X155280326Y-65411656D01*
X154713116Y-65404606D01*
X154647900Y-65404527D01*
X154165553Y-65398759D01*
X153718780Y-65383195D01*
X153346253Y-65359922D01*
X153086642Y-65331025D01*
X153015972Y-65316471D01*
X152538207Y-65098303D01*
X152110707Y-64731320D01*
X151752997Y-64233227D01*
X151687866Y-64112243D01*
X151528536Y-63774882D01*
X151440456Y-63498070D01*
X151403452Y-63199824D01*
X151397126Y-62930664D01*
X151464521Y-62271756D01*
X151673324Y-61702785D01*
X152026796Y-61218802D01*
X152528198Y-60814863D01*
X152940173Y-60590443D01*
X153416000Y-60367333D01*
X156802667Y-60345027D01*
X160189334Y-60322722D01*
X160951334Y-61385296D01*
X161713334Y-62447869D01*
X161898513Y-62217216D01*
X162020790Y-62055747D01*
X162211781Y-61792982D01*
X162444064Y-61467019D01*
X162660513Y-61158633D01*
X163237334Y-60330703D01*
X164486167Y-60327851D01*
X164924192Y-60329788D01*
X165295077Y-60337027D01*
X165569310Y-60348549D01*
X165717380Y-60363334D01*
X165735000Y-60370993D01*
X165687861Y-60449304D01*
X165554816Y-60647284D01*
X165348425Y-60946841D01*
X165081247Y-61329882D01*
X164765843Y-61778315D01*
X164414771Y-62274046D01*
X164379042Y-62324320D01*
X164000838Y-62862731D01*
X163674284Y-63340385D01*
X163409378Y-63741812D01*
X163216121Y-64051540D01*
X163104511Y-64254097D01*
X163081823Y-64331494D01*
X163144303Y-64424317D01*
X163291535Y-64636804D01*
X163510504Y-64950361D01*
X163788193Y-65346398D01*
X164111584Y-65806321D01*
X164467660Y-66311539D01*
X164522448Y-66389176D01*
X164879100Y-66896277D01*
X165201605Y-67358285D01*
X165477602Y-67757213D01*
X165694731Y-68075075D01*
X165840631Y-68293884D01*
X165902943Y-68395655D01*
X165904334Y-68400009D01*
X165824647Y-68418798D01*
X165605491Y-68434655D01*
X165276722Y-68446286D01*
X164868197Y-68452393D01*
X164684099Y-68453000D01*
X163463864Y-68452999D01*
X163059537Y-67881500D01*
X162805915Y-67525931D01*
X162510341Y-67115843D01*
X162231638Y-66732802D01*
X162199343Y-66688742D01*
X161743475Y-66067485D01*
X160929693Y-67260242D01*
X160115910Y-68453000D01*
X158861455Y-68453000D01*
X158422377Y-68450115D01*
X158050373Y-68442171D01*
X157774892Y-68430232D01*
X157625380Y-68415364D01*
X157607000Y-68407626D01*
X157653608Y-68329149D01*
X157785204Y-68130184D01*
X157989442Y-67828812D01*
X158253978Y-67443109D01*
X158566470Y-66991156D01*
X158914572Y-66491031D01*
X158962756Y-66422047D01*
X159317658Y-65912269D01*
X159641170Y-65443986D01*
X159920366Y-65036195D01*
X160142321Y-64707893D01*
X160294110Y-64478077D01*
X160362808Y-64365745D01*
X160364703Y-64361468D01*
X160336697Y-64248560D01*
X160225814Y-64027493D01*
X160048297Y-63727400D01*
X159820392Y-63377410D01*
X159795860Y-63341381D01*
X159180826Y-62441666D01*
X156452627Y-62441666D01*
X155662373Y-62442271D01*
X155025018Y-62445764D01*
X154524126Y-62454662D01*
X154143264Y-62471482D01*
X153865997Y-62498742D01*
X153675890Y-62538957D01*
X153556508Y-62594645D01*
X153491418Y-62668324D01*
X153464185Y-62762510D01*
X153458373Y-62879721D01*
X153458333Y-62900258D01*
X153476667Y-63067616D01*
X153546112Y-63190834D01*
X153688333Y-63276398D01*
X153924993Y-63330794D01*
X154277759Y-63360508D01*
X154768293Y-63372025D01*
X155037418Y-63372999D01*
X155666503Y-63381383D01*
X156158731Y-63411794D01*
X156545988Y-63472121D01*
X156860161Y-63570255D01*
X157133134Y-63714084D01*
X157396793Y-63911498D01*
X157470550Y-63975036D01*
X157903758Y-64460396D01*
X158185164Y-65020548D01*
X158315137Y-65656330D01*
X158324915Y-65913000D01*
X158246152Y-66581126D01*
X158019710Y-67177073D01*
X157654575Y-67686189D01*
X157159731Y-68093825D01*
X156897924Y-68239860D01*
X156457996Y-68455097D01*
X153289980Y-68432882D01*
X150121963Y-68410666D01*
X149655775Y-66657429D01*
X149517458Y-66143692D01*
X149392620Y-65692229D01*
X149287939Y-65326199D01*
X149210094Y-65068764D01*
X149165762Y-64943083D01*
X149159040Y-64934737D01*
X149131839Y-65018428D01*
X149069011Y-65236538D01*
X148978491Y-65559853D01*
X148868213Y-65959161D01*
X148746112Y-66405246D01*
X148620123Y-66868895D01*
X148498182Y-67320893D01*
X148388222Y-67732026D01*
X148298179Y-68073080D01*
X148235987Y-68314841D01*
X148209582Y-68428094D01*
X148209192Y-68431833D01*
X148130154Y-68440356D01*
X147916044Y-68447238D01*
X147601123Y-68451698D01*
X147281667Y-68453000D01*
X146354334Y-68453000D01*
X146196372Y-67923833D01*
X146114965Y-67644248D01*
X146002603Y-67249015D01*
X145872744Y-66785895D01*
X145738843Y-66302646D01*
X145707377Y-66188166D01*
X145588442Y-65765042D01*
X145482360Y-65406917D01*
X145397999Y-65142280D01*
X145344229Y-64999621D01*
X145332172Y-64982803D01*
X145300116Y-65061545D01*
X145235580Y-65281024D01*
X145144989Y-65617174D01*
X145034768Y-66045928D01*
X144911343Y-66543219D01*
X144868760Y-66718470D01*
X144449520Y-68453000D01*
X143356868Y-68453000D01*
X142889543Y-68449142D01*
X142571633Y-68436247D01*
X142383365Y-68412331D01*
X142304969Y-68375410D01*
X142302082Y-68347166D01*
X142329862Y-68246096D01*
X142394872Y-67997234D01*
X142492922Y-67616979D01*
X142619818Y-67121729D01*
X142771368Y-66527880D01*
X142943382Y-65851832D01*
X143131666Y-65109981D01*
X143332029Y-64318726D01*
X143341023Y-64283166D01*
X144342099Y-60325000D01*
X145296177Y-60325000D01*
X145715503Y-60327913D01*
X145995170Y-60339588D01*
X146164797Y-60364428D01*
X146254001Y-60406835D01*
X146292401Y-60471211D01*
X146292974Y-60473166D01*
X146328179Y-60598099D01*
X146400958Y-60858404D01*
X146503562Y-61226297D01*
X146628244Y-61673993D01*
X146767256Y-62173710D01*
X146780883Y-62222724D01*
X146918616Y-62704842D01*
X147043482Y-63116833D01*
X147148098Y-63436358D01*
X147225087Y-63641078D01*
X147267066Y-63708653D01*
X147270386Y-63704390D01*
X147306970Y-63589047D01*
X147382841Y-63338068D01*
X147489976Y-62978407D01*
X147620351Y-62537018D01*
X147765943Y-62040854D01*
X147784907Y-61976000D01*
X148255114Y-60367333D01*
X149159367Y-60343343D01*
X150063619Y-60319352D01*
X150151826Y-60639676D01*
D15*
X180565000Y-89089000D02*
X180315000Y-89089000D01*
X180565000Y-96839000D02*
X180230000Y-96839000D01*
X167415000Y-96839000D02*
X167750000Y-96839000D01*
X167415000Y-89089000D02*
X167750000Y-89089000D01*
X180565000Y-89089000D02*
X180565000Y-96839000D01*
X167415000Y-89089000D02*
X167415000Y-96839000D01*
X180315000Y-89089000D02*
X180315000Y-87289000D01*
X147545000Y-89089000D02*
X147295000Y-89089000D01*
X147545000Y-96839000D02*
X147210000Y-96839000D01*
X134395000Y-96839000D02*
X134730000Y-96839000D01*
X134395000Y-89089000D02*
X134730000Y-89089000D01*
X147545000Y-89089000D02*
X147545000Y-96839000D01*
X134395000Y-89089000D02*
X134395000Y-96839000D01*
X147295000Y-89089000D02*
X147295000Y-87289000D01*
D16*
X193990000Y-92456000D02*
G75*
G03X193990000Y-92456000I-950000J0D01*
G01*
X193990000Y-89916000D02*
G75*
G03X193990000Y-89916000I-950000J0D01*
G01*
X193990000Y-87376000D02*
G75*
G03X193990000Y-87376000I-950000J0D01*
G01*
D15*
X180942381Y-93725905D02*
X181751905Y-93725905D01*
X181847143Y-93678286D01*
X181894762Y-93630667D01*
X181942381Y-93535429D01*
X181942381Y-93344952D01*
X181894762Y-93249714D01*
X181847143Y-93202095D01*
X181751905Y-93154476D01*
X180942381Y-93154476D01*
X180942381Y-92773524D02*
X180942381Y-92154476D01*
X181323333Y-92487810D01*
X181323333Y-92344952D01*
X181370952Y-92249714D01*
X181418571Y-92202095D01*
X181513810Y-92154476D01*
X181751905Y-92154476D01*
X181847143Y-92202095D01*
X181894762Y-92249714D01*
X181942381Y-92344952D01*
X181942381Y-92630667D01*
X181894762Y-92725905D01*
X181847143Y-92773524D01*
X147922381Y-93725905D02*
X148731905Y-93725905D01*
X148827143Y-93678286D01*
X148874762Y-93630667D01*
X148922381Y-93535429D01*
X148922381Y-93344952D01*
X148874762Y-93249714D01*
X148827143Y-93202095D01*
X148731905Y-93154476D01*
X147922381Y-93154476D01*
X148255714Y-92249714D02*
X148922381Y-92249714D01*
X147874762Y-92487810D02*
X148589048Y-92725905D01*
X148589048Y-92106857D01*
M02*
