G04 #@! TF.GenerationSoftware,KiCad,Pcbnew,5.1.5+dfsg1-2*
G04 #@! TF.CreationDate,2020-04-06T17:51:16-07:00*
G04 #@! TF.ProjectId,rpmpv1,72706d70-7631-42e6-9b69-6361645f7063,rev?*
G04 #@! TF.SameCoordinates,Original*
G04 #@! TF.FileFunction,Copper,L2,Bot*
G04 #@! TF.FilePolarity,Positive*
%FSLAX46Y46*%
G04 Gerber Fmt 4.6, Leading zero omitted, Abs format (unit mm)*
G04 Created by KiCad (PCBNEW 5.1.5+dfsg1-2) date 2020-04-06 17:51:16*
%MOMM*%
%LPD*%
G04 APERTURE LIST*
%ADD10C,0.100000*%
%ADD11O,1.700000X1.700000*%
%ADD12R,1.700000X1.700000*%
%ADD13R,1.800000X8.000000*%
%ADD14R,1.600000X1.600000*%
%ADD15C,1.600000*%
%ADD16R,2.200000X1.200000*%
%ADD17R,1.400000X1.600000*%
%ADD18R,1.400000X1.200000*%
%ADD19R,1.600000X0.700000*%
%ADD20C,0.600000*%
%ADD21C,0.250000*%
G04 APERTURE END LIST*
G04 #@! TA.AperFunction,SMDPad,CuDef*
D10*
G36*
X181139703Y-84495722D02*
G01*
X181154264Y-84497882D01*
X181168543Y-84501459D01*
X181182403Y-84506418D01*
X181195710Y-84512712D01*
X181208336Y-84520280D01*
X181220159Y-84529048D01*
X181231066Y-84538934D01*
X181240952Y-84549841D01*
X181249720Y-84561664D01*
X181257288Y-84574290D01*
X181263582Y-84587597D01*
X181268541Y-84601457D01*
X181272118Y-84615736D01*
X181274278Y-84630297D01*
X181275000Y-84645000D01*
X181275000Y-86395000D01*
X181274278Y-86409703D01*
X181272118Y-86424264D01*
X181268541Y-86438543D01*
X181263582Y-86452403D01*
X181257288Y-86465710D01*
X181249720Y-86478336D01*
X181240952Y-86490159D01*
X181231066Y-86501066D01*
X181220159Y-86510952D01*
X181208336Y-86519720D01*
X181195710Y-86527288D01*
X181182403Y-86533582D01*
X181168543Y-86538541D01*
X181154264Y-86542118D01*
X181139703Y-86544278D01*
X181125000Y-86545000D01*
X180825000Y-86545000D01*
X180810297Y-86544278D01*
X180795736Y-86542118D01*
X180781457Y-86538541D01*
X180767597Y-86533582D01*
X180754290Y-86527288D01*
X180741664Y-86519720D01*
X180729841Y-86510952D01*
X180718934Y-86501066D01*
X180709048Y-86490159D01*
X180700280Y-86478336D01*
X180692712Y-86465710D01*
X180686418Y-86452403D01*
X180681459Y-86438543D01*
X180677882Y-86424264D01*
X180675722Y-86409703D01*
X180675000Y-86395000D01*
X180675000Y-84645000D01*
X180675722Y-84630297D01*
X180677882Y-84615736D01*
X180681459Y-84601457D01*
X180686418Y-84587597D01*
X180692712Y-84574290D01*
X180700280Y-84561664D01*
X180709048Y-84549841D01*
X180718934Y-84538934D01*
X180729841Y-84529048D01*
X180741664Y-84520280D01*
X180754290Y-84512712D01*
X180767597Y-84506418D01*
X180781457Y-84501459D01*
X180795736Y-84497882D01*
X180810297Y-84495722D01*
X180825000Y-84495000D01*
X181125000Y-84495000D01*
X181139703Y-84495722D01*
G37*
G04 #@! TD.AperFunction*
G04 #@! TA.AperFunction,SMDPad,CuDef*
G36*
X179869703Y-84495722D02*
G01*
X179884264Y-84497882D01*
X179898543Y-84501459D01*
X179912403Y-84506418D01*
X179925710Y-84512712D01*
X179938336Y-84520280D01*
X179950159Y-84529048D01*
X179961066Y-84538934D01*
X179970952Y-84549841D01*
X179979720Y-84561664D01*
X179987288Y-84574290D01*
X179993582Y-84587597D01*
X179998541Y-84601457D01*
X180002118Y-84615736D01*
X180004278Y-84630297D01*
X180005000Y-84645000D01*
X180005000Y-86395000D01*
X180004278Y-86409703D01*
X180002118Y-86424264D01*
X179998541Y-86438543D01*
X179993582Y-86452403D01*
X179987288Y-86465710D01*
X179979720Y-86478336D01*
X179970952Y-86490159D01*
X179961066Y-86501066D01*
X179950159Y-86510952D01*
X179938336Y-86519720D01*
X179925710Y-86527288D01*
X179912403Y-86533582D01*
X179898543Y-86538541D01*
X179884264Y-86542118D01*
X179869703Y-86544278D01*
X179855000Y-86545000D01*
X179555000Y-86545000D01*
X179540297Y-86544278D01*
X179525736Y-86542118D01*
X179511457Y-86538541D01*
X179497597Y-86533582D01*
X179484290Y-86527288D01*
X179471664Y-86519720D01*
X179459841Y-86510952D01*
X179448934Y-86501066D01*
X179439048Y-86490159D01*
X179430280Y-86478336D01*
X179422712Y-86465710D01*
X179416418Y-86452403D01*
X179411459Y-86438543D01*
X179407882Y-86424264D01*
X179405722Y-86409703D01*
X179405000Y-86395000D01*
X179405000Y-84645000D01*
X179405722Y-84630297D01*
X179407882Y-84615736D01*
X179411459Y-84601457D01*
X179416418Y-84587597D01*
X179422712Y-84574290D01*
X179430280Y-84561664D01*
X179439048Y-84549841D01*
X179448934Y-84538934D01*
X179459841Y-84529048D01*
X179471664Y-84520280D01*
X179484290Y-84512712D01*
X179497597Y-84506418D01*
X179511457Y-84501459D01*
X179525736Y-84497882D01*
X179540297Y-84495722D01*
X179555000Y-84495000D01*
X179855000Y-84495000D01*
X179869703Y-84495722D01*
G37*
G04 #@! TD.AperFunction*
G04 #@! TA.AperFunction,SMDPad,CuDef*
G36*
X178599703Y-84495722D02*
G01*
X178614264Y-84497882D01*
X178628543Y-84501459D01*
X178642403Y-84506418D01*
X178655710Y-84512712D01*
X178668336Y-84520280D01*
X178680159Y-84529048D01*
X178691066Y-84538934D01*
X178700952Y-84549841D01*
X178709720Y-84561664D01*
X178717288Y-84574290D01*
X178723582Y-84587597D01*
X178728541Y-84601457D01*
X178732118Y-84615736D01*
X178734278Y-84630297D01*
X178735000Y-84645000D01*
X178735000Y-86395000D01*
X178734278Y-86409703D01*
X178732118Y-86424264D01*
X178728541Y-86438543D01*
X178723582Y-86452403D01*
X178717288Y-86465710D01*
X178709720Y-86478336D01*
X178700952Y-86490159D01*
X178691066Y-86501066D01*
X178680159Y-86510952D01*
X178668336Y-86519720D01*
X178655710Y-86527288D01*
X178642403Y-86533582D01*
X178628543Y-86538541D01*
X178614264Y-86542118D01*
X178599703Y-86544278D01*
X178585000Y-86545000D01*
X178285000Y-86545000D01*
X178270297Y-86544278D01*
X178255736Y-86542118D01*
X178241457Y-86538541D01*
X178227597Y-86533582D01*
X178214290Y-86527288D01*
X178201664Y-86519720D01*
X178189841Y-86510952D01*
X178178934Y-86501066D01*
X178169048Y-86490159D01*
X178160280Y-86478336D01*
X178152712Y-86465710D01*
X178146418Y-86452403D01*
X178141459Y-86438543D01*
X178137882Y-86424264D01*
X178135722Y-86409703D01*
X178135000Y-86395000D01*
X178135000Y-84645000D01*
X178135722Y-84630297D01*
X178137882Y-84615736D01*
X178141459Y-84601457D01*
X178146418Y-84587597D01*
X178152712Y-84574290D01*
X178160280Y-84561664D01*
X178169048Y-84549841D01*
X178178934Y-84538934D01*
X178189841Y-84529048D01*
X178201664Y-84520280D01*
X178214290Y-84512712D01*
X178227597Y-84506418D01*
X178241457Y-84501459D01*
X178255736Y-84497882D01*
X178270297Y-84495722D01*
X178285000Y-84495000D01*
X178585000Y-84495000D01*
X178599703Y-84495722D01*
G37*
G04 #@! TD.AperFunction*
G04 #@! TA.AperFunction,SMDPad,CuDef*
G36*
X177329703Y-84495722D02*
G01*
X177344264Y-84497882D01*
X177358543Y-84501459D01*
X177372403Y-84506418D01*
X177385710Y-84512712D01*
X177398336Y-84520280D01*
X177410159Y-84529048D01*
X177421066Y-84538934D01*
X177430952Y-84549841D01*
X177439720Y-84561664D01*
X177447288Y-84574290D01*
X177453582Y-84587597D01*
X177458541Y-84601457D01*
X177462118Y-84615736D01*
X177464278Y-84630297D01*
X177465000Y-84645000D01*
X177465000Y-86395000D01*
X177464278Y-86409703D01*
X177462118Y-86424264D01*
X177458541Y-86438543D01*
X177453582Y-86452403D01*
X177447288Y-86465710D01*
X177439720Y-86478336D01*
X177430952Y-86490159D01*
X177421066Y-86501066D01*
X177410159Y-86510952D01*
X177398336Y-86519720D01*
X177385710Y-86527288D01*
X177372403Y-86533582D01*
X177358543Y-86538541D01*
X177344264Y-86542118D01*
X177329703Y-86544278D01*
X177315000Y-86545000D01*
X177015000Y-86545000D01*
X177000297Y-86544278D01*
X176985736Y-86542118D01*
X176971457Y-86538541D01*
X176957597Y-86533582D01*
X176944290Y-86527288D01*
X176931664Y-86519720D01*
X176919841Y-86510952D01*
X176908934Y-86501066D01*
X176899048Y-86490159D01*
X176890280Y-86478336D01*
X176882712Y-86465710D01*
X176876418Y-86452403D01*
X176871459Y-86438543D01*
X176867882Y-86424264D01*
X176865722Y-86409703D01*
X176865000Y-86395000D01*
X176865000Y-84645000D01*
X176865722Y-84630297D01*
X176867882Y-84615736D01*
X176871459Y-84601457D01*
X176876418Y-84587597D01*
X176882712Y-84574290D01*
X176890280Y-84561664D01*
X176899048Y-84549841D01*
X176908934Y-84538934D01*
X176919841Y-84529048D01*
X176931664Y-84520280D01*
X176944290Y-84512712D01*
X176957597Y-84506418D01*
X176971457Y-84501459D01*
X176985736Y-84497882D01*
X177000297Y-84495722D01*
X177015000Y-84495000D01*
X177315000Y-84495000D01*
X177329703Y-84495722D01*
G37*
G04 #@! TD.AperFunction*
G04 #@! TA.AperFunction,SMDPad,CuDef*
G36*
X176059703Y-84495722D02*
G01*
X176074264Y-84497882D01*
X176088543Y-84501459D01*
X176102403Y-84506418D01*
X176115710Y-84512712D01*
X176128336Y-84520280D01*
X176140159Y-84529048D01*
X176151066Y-84538934D01*
X176160952Y-84549841D01*
X176169720Y-84561664D01*
X176177288Y-84574290D01*
X176183582Y-84587597D01*
X176188541Y-84601457D01*
X176192118Y-84615736D01*
X176194278Y-84630297D01*
X176195000Y-84645000D01*
X176195000Y-86395000D01*
X176194278Y-86409703D01*
X176192118Y-86424264D01*
X176188541Y-86438543D01*
X176183582Y-86452403D01*
X176177288Y-86465710D01*
X176169720Y-86478336D01*
X176160952Y-86490159D01*
X176151066Y-86501066D01*
X176140159Y-86510952D01*
X176128336Y-86519720D01*
X176115710Y-86527288D01*
X176102403Y-86533582D01*
X176088543Y-86538541D01*
X176074264Y-86542118D01*
X176059703Y-86544278D01*
X176045000Y-86545000D01*
X175745000Y-86545000D01*
X175730297Y-86544278D01*
X175715736Y-86542118D01*
X175701457Y-86538541D01*
X175687597Y-86533582D01*
X175674290Y-86527288D01*
X175661664Y-86519720D01*
X175649841Y-86510952D01*
X175638934Y-86501066D01*
X175629048Y-86490159D01*
X175620280Y-86478336D01*
X175612712Y-86465710D01*
X175606418Y-86452403D01*
X175601459Y-86438543D01*
X175597882Y-86424264D01*
X175595722Y-86409703D01*
X175595000Y-86395000D01*
X175595000Y-84645000D01*
X175595722Y-84630297D01*
X175597882Y-84615736D01*
X175601459Y-84601457D01*
X175606418Y-84587597D01*
X175612712Y-84574290D01*
X175620280Y-84561664D01*
X175629048Y-84549841D01*
X175638934Y-84538934D01*
X175649841Y-84529048D01*
X175661664Y-84520280D01*
X175674290Y-84512712D01*
X175687597Y-84506418D01*
X175701457Y-84501459D01*
X175715736Y-84497882D01*
X175730297Y-84495722D01*
X175745000Y-84495000D01*
X176045000Y-84495000D01*
X176059703Y-84495722D01*
G37*
G04 #@! TD.AperFunction*
G04 #@! TA.AperFunction,SMDPad,CuDef*
G36*
X174789703Y-84495722D02*
G01*
X174804264Y-84497882D01*
X174818543Y-84501459D01*
X174832403Y-84506418D01*
X174845710Y-84512712D01*
X174858336Y-84520280D01*
X174870159Y-84529048D01*
X174881066Y-84538934D01*
X174890952Y-84549841D01*
X174899720Y-84561664D01*
X174907288Y-84574290D01*
X174913582Y-84587597D01*
X174918541Y-84601457D01*
X174922118Y-84615736D01*
X174924278Y-84630297D01*
X174925000Y-84645000D01*
X174925000Y-86395000D01*
X174924278Y-86409703D01*
X174922118Y-86424264D01*
X174918541Y-86438543D01*
X174913582Y-86452403D01*
X174907288Y-86465710D01*
X174899720Y-86478336D01*
X174890952Y-86490159D01*
X174881066Y-86501066D01*
X174870159Y-86510952D01*
X174858336Y-86519720D01*
X174845710Y-86527288D01*
X174832403Y-86533582D01*
X174818543Y-86538541D01*
X174804264Y-86542118D01*
X174789703Y-86544278D01*
X174775000Y-86545000D01*
X174475000Y-86545000D01*
X174460297Y-86544278D01*
X174445736Y-86542118D01*
X174431457Y-86538541D01*
X174417597Y-86533582D01*
X174404290Y-86527288D01*
X174391664Y-86519720D01*
X174379841Y-86510952D01*
X174368934Y-86501066D01*
X174359048Y-86490159D01*
X174350280Y-86478336D01*
X174342712Y-86465710D01*
X174336418Y-86452403D01*
X174331459Y-86438543D01*
X174327882Y-86424264D01*
X174325722Y-86409703D01*
X174325000Y-86395000D01*
X174325000Y-84645000D01*
X174325722Y-84630297D01*
X174327882Y-84615736D01*
X174331459Y-84601457D01*
X174336418Y-84587597D01*
X174342712Y-84574290D01*
X174350280Y-84561664D01*
X174359048Y-84549841D01*
X174368934Y-84538934D01*
X174379841Y-84529048D01*
X174391664Y-84520280D01*
X174404290Y-84512712D01*
X174417597Y-84506418D01*
X174431457Y-84501459D01*
X174445736Y-84497882D01*
X174460297Y-84495722D01*
X174475000Y-84495000D01*
X174775000Y-84495000D01*
X174789703Y-84495722D01*
G37*
G04 #@! TD.AperFunction*
G04 #@! TA.AperFunction,SMDPad,CuDef*
G36*
X173519703Y-84495722D02*
G01*
X173534264Y-84497882D01*
X173548543Y-84501459D01*
X173562403Y-84506418D01*
X173575710Y-84512712D01*
X173588336Y-84520280D01*
X173600159Y-84529048D01*
X173611066Y-84538934D01*
X173620952Y-84549841D01*
X173629720Y-84561664D01*
X173637288Y-84574290D01*
X173643582Y-84587597D01*
X173648541Y-84601457D01*
X173652118Y-84615736D01*
X173654278Y-84630297D01*
X173655000Y-84645000D01*
X173655000Y-86395000D01*
X173654278Y-86409703D01*
X173652118Y-86424264D01*
X173648541Y-86438543D01*
X173643582Y-86452403D01*
X173637288Y-86465710D01*
X173629720Y-86478336D01*
X173620952Y-86490159D01*
X173611066Y-86501066D01*
X173600159Y-86510952D01*
X173588336Y-86519720D01*
X173575710Y-86527288D01*
X173562403Y-86533582D01*
X173548543Y-86538541D01*
X173534264Y-86542118D01*
X173519703Y-86544278D01*
X173505000Y-86545000D01*
X173205000Y-86545000D01*
X173190297Y-86544278D01*
X173175736Y-86542118D01*
X173161457Y-86538541D01*
X173147597Y-86533582D01*
X173134290Y-86527288D01*
X173121664Y-86519720D01*
X173109841Y-86510952D01*
X173098934Y-86501066D01*
X173089048Y-86490159D01*
X173080280Y-86478336D01*
X173072712Y-86465710D01*
X173066418Y-86452403D01*
X173061459Y-86438543D01*
X173057882Y-86424264D01*
X173055722Y-86409703D01*
X173055000Y-86395000D01*
X173055000Y-84645000D01*
X173055722Y-84630297D01*
X173057882Y-84615736D01*
X173061459Y-84601457D01*
X173066418Y-84587597D01*
X173072712Y-84574290D01*
X173080280Y-84561664D01*
X173089048Y-84549841D01*
X173098934Y-84538934D01*
X173109841Y-84529048D01*
X173121664Y-84520280D01*
X173134290Y-84512712D01*
X173147597Y-84506418D01*
X173161457Y-84501459D01*
X173175736Y-84497882D01*
X173190297Y-84495722D01*
X173205000Y-84495000D01*
X173505000Y-84495000D01*
X173519703Y-84495722D01*
G37*
G04 #@! TD.AperFunction*
G04 #@! TA.AperFunction,SMDPad,CuDef*
G36*
X172249703Y-84495722D02*
G01*
X172264264Y-84497882D01*
X172278543Y-84501459D01*
X172292403Y-84506418D01*
X172305710Y-84512712D01*
X172318336Y-84520280D01*
X172330159Y-84529048D01*
X172341066Y-84538934D01*
X172350952Y-84549841D01*
X172359720Y-84561664D01*
X172367288Y-84574290D01*
X172373582Y-84587597D01*
X172378541Y-84601457D01*
X172382118Y-84615736D01*
X172384278Y-84630297D01*
X172385000Y-84645000D01*
X172385000Y-86395000D01*
X172384278Y-86409703D01*
X172382118Y-86424264D01*
X172378541Y-86438543D01*
X172373582Y-86452403D01*
X172367288Y-86465710D01*
X172359720Y-86478336D01*
X172350952Y-86490159D01*
X172341066Y-86501066D01*
X172330159Y-86510952D01*
X172318336Y-86519720D01*
X172305710Y-86527288D01*
X172292403Y-86533582D01*
X172278543Y-86538541D01*
X172264264Y-86542118D01*
X172249703Y-86544278D01*
X172235000Y-86545000D01*
X171935000Y-86545000D01*
X171920297Y-86544278D01*
X171905736Y-86542118D01*
X171891457Y-86538541D01*
X171877597Y-86533582D01*
X171864290Y-86527288D01*
X171851664Y-86519720D01*
X171839841Y-86510952D01*
X171828934Y-86501066D01*
X171819048Y-86490159D01*
X171810280Y-86478336D01*
X171802712Y-86465710D01*
X171796418Y-86452403D01*
X171791459Y-86438543D01*
X171787882Y-86424264D01*
X171785722Y-86409703D01*
X171785000Y-86395000D01*
X171785000Y-84645000D01*
X171785722Y-84630297D01*
X171787882Y-84615736D01*
X171791459Y-84601457D01*
X171796418Y-84587597D01*
X171802712Y-84574290D01*
X171810280Y-84561664D01*
X171819048Y-84549841D01*
X171828934Y-84538934D01*
X171839841Y-84529048D01*
X171851664Y-84520280D01*
X171864290Y-84512712D01*
X171877597Y-84506418D01*
X171891457Y-84501459D01*
X171905736Y-84497882D01*
X171920297Y-84495722D01*
X171935000Y-84495000D01*
X172235000Y-84495000D01*
X172249703Y-84495722D01*
G37*
G04 #@! TD.AperFunction*
G04 #@! TA.AperFunction,SMDPad,CuDef*
G36*
X170979703Y-84495722D02*
G01*
X170994264Y-84497882D01*
X171008543Y-84501459D01*
X171022403Y-84506418D01*
X171035710Y-84512712D01*
X171048336Y-84520280D01*
X171060159Y-84529048D01*
X171071066Y-84538934D01*
X171080952Y-84549841D01*
X171089720Y-84561664D01*
X171097288Y-84574290D01*
X171103582Y-84587597D01*
X171108541Y-84601457D01*
X171112118Y-84615736D01*
X171114278Y-84630297D01*
X171115000Y-84645000D01*
X171115000Y-86395000D01*
X171114278Y-86409703D01*
X171112118Y-86424264D01*
X171108541Y-86438543D01*
X171103582Y-86452403D01*
X171097288Y-86465710D01*
X171089720Y-86478336D01*
X171080952Y-86490159D01*
X171071066Y-86501066D01*
X171060159Y-86510952D01*
X171048336Y-86519720D01*
X171035710Y-86527288D01*
X171022403Y-86533582D01*
X171008543Y-86538541D01*
X170994264Y-86542118D01*
X170979703Y-86544278D01*
X170965000Y-86545000D01*
X170665000Y-86545000D01*
X170650297Y-86544278D01*
X170635736Y-86542118D01*
X170621457Y-86538541D01*
X170607597Y-86533582D01*
X170594290Y-86527288D01*
X170581664Y-86519720D01*
X170569841Y-86510952D01*
X170558934Y-86501066D01*
X170549048Y-86490159D01*
X170540280Y-86478336D01*
X170532712Y-86465710D01*
X170526418Y-86452403D01*
X170521459Y-86438543D01*
X170517882Y-86424264D01*
X170515722Y-86409703D01*
X170515000Y-86395000D01*
X170515000Y-84645000D01*
X170515722Y-84630297D01*
X170517882Y-84615736D01*
X170521459Y-84601457D01*
X170526418Y-84587597D01*
X170532712Y-84574290D01*
X170540280Y-84561664D01*
X170549048Y-84549841D01*
X170558934Y-84538934D01*
X170569841Y-84529048D01*
X170581664Y-84520280D01*
X170594290Y-84512712D01*
X170607597Y-84506418D01*
X170621457Y-84501459D01*
X170635736Y-84497882D01*
X170650297Y-84495722D01*
X170665000Y-84495000D01*
X170965000Y-84495000D01*
X170979703Y-84495722D01*
G37*
G04 #@! TD.AperFunction*
G04 #@! TA.AperFunction,SMDPad,CuDef*
G36*
X169709703Y-84495722D02*
G01*
X169724264Y-84497882D01*
X169738543Y-84501459D01*
X169752403Y-84506418D01*
X169765710Y-84512712D01*
X169778336Y-84520280D01*
X169790159Y-84529048D01*
X169801066Y-84538934D01*
X169810952Y-84549841D01*
X169819720Y-84561664D01*
X169827288Y-84574290D01*
X169833582Y-84587597D01*
X169838541Y-84601457D01*
X169842118Y-84615736D01*
X169844278Y-84630297D01*
X169845000Y-84645000D01*
X169845000Y-86395000D01*
X169844278Y-86409703D01*
X169842118Y-86424264D01*
X169838541Y-86438543D01*
X169833582Y-86452403D01*
X169827288Y-86465710D01*
X169819720Y-86478336D01*
X169810952Y-86490159D01*
X169801066Y-86501066D01*
X169790159Y-86510952D01*
X169778336Y-86519720D01*
X169765710Y-86527288D01*
X169752403Y-86533582D01*
X169738543Y-86538541D01*
X169724264Y-86542118D01*
X169709703Y-86544278D01*
X169695000Y-86545000D01*
X169395000Y-86545000D01*
X169380297Y-86544278D01*
X169365736Y-86542118D01*
X169351457Y-86538541D01*
X169337597Y-86533582D01*
X169324290Y-86527288D01*
X169311664Y-86519720D01*
X169299841Y-86510952D01*
X169288934Y-86501066D01*
X169279048Y-86490159D01*
X169270280Y-86478336D01*
X169262712Y-86465710D01*
X169256418Y-86452403D01*
X169251459Y-86438543D01*
X169247882Y-86424264D01*
X169245722Y-86409703D01*
X169245000Y-86395000D01*
X169245000Y-84645000D01*
X169245722Y-84630297D01*
X169247882Y-84615736D01*
X169251459Y-84601457D01*
X169256418Y-84587597D01*
X169262712Y-84574290D01*
X169270280Y-84561664D01*
X169279048Y-84549841D01*
X169288934Y-84538934D01*
X169299841Y-84529048D01*
X169311664Y-84520280D01*
X169324290Y-84512712D01*
X169337597Y-84506418D01*
X169351457Y-84501459D01*
X169365736Y-84497882D01*
X169380297Y-84495722D01*
X169395000Y-84495000D01*
X169695000Y-84495000D01*
X169709703Y-84495722D01*
G37*
G04 #@! TD.AperFunction*
G04 #@! TA.AperFunction,SMDPad,CuDef*
G36*
X169709703Y-93795722D02*
G01*
X169724264Y-93797882D01*
X169738543Y-93801459D01*
X169752403Y-93806418D01*
X169765710Y-93812712D01*
X169778336Y-93820280D01*
X169790159Y-93829048D01*
X169801066Y-93838934D01*
X169810952Y-93849841D01*
X169819720Y-93861664D01*
X169827288Y-93874290D01*
X169833582Y-93887597D01*
X169838541Y-93901457D01*
X169842118Y-93915736D01*
X169844278Y-93930297D01*
X169845000Y-93945000D01*
X169845000Y-95695000D01*
X169844278Y-95709703D01*
X169842118Y-95724264D01*
X169838541Y-95738543D01*
X169833582Y-95752403D01*
X169827288Y-95765710D01*
X169819720Y-95778336D01*
X169810952Y-95790159D01*
X169801066Y-95801066D01*
X169790159Y-95810952D01*
X169778336Y-95819720D01*
X169765710Y-95827288D01*
X169752403Y-95833582D01*
X169738543Y-95838541D01*
X169724264Y-95842118D01*
X169709703Y-95844278D01*
X169695000Y-95845000D01*
X169395000Y-95845000D01*
X169380297Y-95844278D01*
X169365736Y-95842118D01*
X169351457Y-95838541D01*
X169337597Y-95833582D01*
X169324290Y-95827288D01*
X169311664Y-95819720D01*
X169299841Y-95810952D01*
X169288934Y-95801066D01*
X169279048Y-95790159D01*
X169270280Y-95778336D01*
X169262712Y-95765710D01*
X169256418Y-95752403D01*
X169251459Y-95738543D01*
X169247882Y-95724264D01*
X169245722Y-95709703D01*
X169245000Y-95695000D01*
X169245000Y-93945000D01*
X169245722Y-93930297D01*
X169247882Y-93915736D01*
X169251459Y-93901457D01*
X169256418Y-93887597D01*
X169262712Y-93874290D01*
X169270280Y-93861664D01*
X169279048Y-93849841D01*
X169288934Y-93838934D01*
X169299841Y-93829048D01*
X169311664Y-93820280D01*
X169324290Y-93812712D01*
X169337597Y-93806418D01*
X169351457Y-93801459D01*
X169365736Y-93797882D01*
X169380297Y-93795722D01*
X169395000Y-93795000D01*
X169695000Y-93795000D01*
X169709703Y-93795722D01*
G37*
G04 #@! TD.AperFunction*
G04 #@! TA.AperFunction,SMDPad,CuDef*
G36*
X170979703Y-93795722D02*
G01*
X170994264Y-93797882D01*
X171008543Y-93801459D01*
X171022403Y-93806418D01*
X171035710Y-93812712D01*
X171048336Y-93820280D01*
X171060159Y-93829048D01*
X171071066Y-93838934D01*
X171080952Y-93849841D01*
X171089720Y-93861664D01*
X171097288Y-93874290D01*
X171103582Y-93887597D01*
X171108541Y-93901457D01*
X171112118Y-93915736D01*
X171114278Y-93930297D01*
X171115000Y-93945000D01*
X171115000Y-95695000D01*
X171114278Y-95709703D01*
X171112118Y-95724264D01*
X171108541Y-95738543D01*
X171103582Y-95752403D01*
X171097288Y-95765710D01*
X171089720Y-95778336D01*
X171080952Y-95790159D01*
X171071066Y-95801066D01*
X171060159Y-95810952D01*
X171048336Y-95819720D01*
X171035710Y-95827288D01*
X171022403Y-95833582D01*
X171008543Y-95838541D01*
X170994264Y-95842118D01*
X170979703Y-95844278D01*
X170965000Y-95845000D01*
X170665000Y-95845000D01*
X170650297Y-95844278D01*
X170635736Y-95842118D01*
X170621457Y-95838541D01*
X170607597Y-95833582D01*
X170594290Y-95827288D01*
X170581664Y-95819720D01*
X170569841Y-95810952D01*
X170558934Y-95801066D01*
X170549048Y-95790159D01*
X170540280Y-95778336D01*
X170532712Y-95765710D01*
X170526418Y-95752403D01*
X170521459Y-95738543D01*
X170517882Y-95724264D01*
X170515722Y-95709703D01*
X170515000Y-95695000D01*
X170515000Y-93945000D01*
X170515722Y-93930297D01*
X170517882Y-93915736D01*
X170521459Y-93901457D01*
X170526418Y-93887597D01*
X170532712Y-93874290D01*
X170540280Y-93861664D01*
X170549048Y-93849841D01*
X170558934Y-93838934D01*
X170569841Y-93829048D01*
X170581664Y-93820280D01*
X170594290Y-93812712D01*
X170607597Y-93806418D01*
X170621457Y-93801459D01*
X170635736Y-93797882D01*
X170650297Y-93795722D01*
X170665000Y-93795000D01*
X170965000Y-93795000D01*
X170979703Y-93795722D01*
G37*
G04 #@! TD.AperFunction*
G04 #@! TA.AperFunction,SMDPad,CuDef*
G36*
X172249703Y-93795722D02*
G01*
X172264264Y-93797882D01*
X172278543Y-93801459D01*
X172292403Y-93806418D01*
X172305710Y-93812712D01*
X172318336Y-93820280D01*
X172330159Y-93829048D01*
X172341066Y-93838934D01*
X172350952Y-93849841D01*
X172359720Y-93861664D01*
X172367288Y-93874290D01*
X172373582Y-93887597D01*
X172378541Y-93901457D01*
X172382118Y-93915736D01*
X172384278Y-93930297D01*
X172385000Y-93945000D01*
X172385000Y-95695000D01*
X172384278Y-95709703D01*
X172382118Y-95724264D01*
X172378541Y-95738543D01*
X172373582Y-95752403D01*
X172367288Y-95765710D01*
X172359720Y-95778336D01*
X172350952Y-95790159D01*
X172341066Y-95801066D01*
X172330159Y-95810952D01*
X172318336Y-95819720D01*
X172305710Y-95827288D01*
X172292403Y-95833582D01*
X172278543Y-95838541D01*
X172264264Y-95842118D01*
X172249703Y-95844278D01*
X172235000Y-95845000D01*
X171935000Y-95845000D01*
X171920297Y-95844278D01*
X171905736Y-95842118D01*
X171891457Y-95838541D01*
X171877597Y-95833582D01*
X171864290Y-95827288D01*
X171851664Y-95819720D01*
X171839841Y-95810952D01*
X171828934Y-95801066D01*
X171819048Y-95790159D01*
X171810280Y-95778336D01*
X171802712Y-95765710D01*
X171796418Y-95752403D01*
X171791459Y-95738543D01*
X171787882Y-95724264D01*
X171785722Y-95709703D01*
X171785000Y-95695000D01*
X171785000Y-93945000D01*
X171785722Y-93930297D01*
X171787882Y-93915736D01*
X171791459Y-93901457D01*
X171796418Y-93887597D01*
X171802712Y-93874290D01*
X171810280Y-93861664D01*
X171819048Y-93849841D01*
X171828934Y-93838934D01*
X171839841Y-93829048D01*
X171851664Y-93820280D01*
X171864290Y-93812712D01*
X171877597Y-93806418D01*
X171891457Y-93801459D01*
X171905736Y-93797882D01*
X171920297Y-93795722D01*
X171935000Y-93795000D01*
X172235000Y-93795000D01*
X172249703Y-93795722D01*
G37*
G04 #@! TD.AperFunction*
G04 #@! TA.AperFunction,SMDPad,CuDef*
G36*
X173519703Y-93795722D02*
G01*
X173534264Y-93797882D01*
X173548543Y-93801459D01*
X173562403Y-93806418D01*
X173575710Y-93812712D01*
X173588336Y-93820280D01*
X173600159Y-93829048D01*
X173611066Y-93838934D01*
X173620952Y-93849841D01*
X173629720Y-93861664D01*
X173637288Y-93874290D01*
X173643582Y-93887597D01*
X173648541Y-93901457D01*
X173652118Y-93915736D01*
X173654278Y-93930297D01*
X173655000Y-93945000D01*
X173655000Y-95695000D01*
X173654278Y-95709703D01*
X173652118Y-95724264D01*
X173648541Y-95738543D01*
X173643582Y-95752403D01*
X173637288Y-95765710D01*
X173629720Y-95778336D01*
X173620952Y-95790159D01*
X173611066Y-95801066D01*
X173600159Y-95810952D01*
X173588336Y-95819720D01*
X173575710Y-95827288D01*
X173562403Y-95833582D01*
X173548543Y-95838541D01*
X173534264Y-95842118D01*
X173519703Y-95844278D01*
X173505000Y-95845000D01*
X173205000Y-95845000D01*
X173190297Y-95844278D01*
X173175736Y-95842118D01*
X173161457Y-95838541D01*
X173147597Y-95833582D01*
X173134290Y-95827288D01*
X173121664Y-95819720D01*
X173109841Y-95810952D01*
X173098934Y-95801066D01*
X173089048Y-95790159D01*
X173080280Y-95778336D01*
X173072712Y-95765710D01*
X173066418Y-95752403D01*
X173061459Y-95738543D01*
X173057882Y-95724264D01*
X173055722Y-95709703D01*
X173055000Y-95695000D01*
X173055000Y-93945000D01*
X173055722Y-93930297D01*
X173057882Y-93915736D01*
X173061459Y-93901457D01*
X173066418Y-93887597D01*
X173072712Y-93874290D01*
X173080280Y-93861664D01*
X173089048Y-93849841D01*
X173098934Y-93838934D01*
X173109841Y-93829048D01*
X173121664Y-93820280D01*
X173134290Y-93812712D01*
X173147597Y-93806418D01*
X173161457Y-93801459D01*
X173175736Y-93797882D01*
X173190297Y-93795722D01*
X173205000Y-93795000D01*
X173505000Y-93795000D01*
X173519703Y-93795722D01*
G37*
G04 #@! TD.AperFunction*
G04 #@! TA.AperFunction,SMDPad,CuDef*
G36*
X174789703Y-93795722D02*
G01*
X174804264Y-93797882D01*
X174818543Y-93801459D01*
X174832403Y-93806418D01*
X174845710Y-93812712D01*
X174858336Y-93820280D01*
X174870159Y-93829048D01*
X174881066Y-93838934D01*
X174890952Y-93849841D01*
X174899720Y-93861664D01*
X174907288Y-93874290D01*
X174913582Y-93887597D01*
X174918541Y-93901457D01*
X174922118Y-93915736D01*
X174924278Y-93930297D01*
X174925000Y-93945000D01*
X174925000Y-95695000D01*
X174924278Y-95709703D01*
X174922118Y-95724264D01*
X174918541Y-95738543D01*
X174913582Y-95752403D01*
X174907288Y-95765710D01*
X174899720Y-95778336D01*
X174890952Y-95790159D01*
X174881066Y-95801066D01*
X174870159Y-95810952D01*
X174858336Y-95819720D01*
X174845710Y-95827288D01*
X174832403Y-95833582D01*
X174818543Y-95838541D01*
X174804264Y-95842118D01*
X174789703Y-95844278D01*
X174775000Y-95845000D01*
X174475000Y-95845000D01*
X174460297Y-95844278D01*
X174445736Y-95842118D01*
X174431457Y-95838541D01*
X174417597Y-95833582D01*
X174404290Y-95827288D01*
X174391664Y-95819720D01*
X174379841Y-95810952D01*
X174368934Y-95801066D01*
X174359048Y-95790159D01*
X174350280Y-95778336D01*
X174342712Y-95765710D01*
X174336418Y-95752403D01*
X174331459Y-95738543D01*
X174327882Y-95724264D01*
X174325722Y-95709703D01*
X174325000Y-95695000D01*
X174325000Y-93945000D01*
X174325722Y-93930297D01*
X174327882Y-93915736D01*
X174331459Y-93901457D01*
X174336418Y-93887597D01*
X174342712Y-93874290D01*
X174350280Y-93861664D01*
X174359048Y-93849841D01*
X174368934Y-93838934D01*
X174379841Y-93829048D01*
X174391664Y-93820280D01*
X174404290Y-93812712D01*
X174417597Y-93806418D01*
X174431457Y-93801459D01*
X174445736Y-93797882D01*
X174460297Y-93795722D01*
X174475000Y-93795000D01*
X174775000Y-93795000D01*
X174789703Y-93795722D01*
G37*
G04 #@! TD.AperFunction*
G04 #@! TA.AperFunction,SMDPad,CuDef*
G36*
X176059703Y-93795722D02*
G01*
X176074264Y-93797882D01*
X176088543Y-93801459D01*
X176102403Y-93806418D01*
X176115710Y-93812712D01*
X176128336Y-93820280D01*
X176140159Y-93829048D01*
X176151066Y-93838934D01*
X176160952Y-93849841D01*
X176169720Y-93861664D01*
X176177288Y-93874290D01*
X176183582Y-93887597D01*
X176188541Y-93901457D01*
X176192118Y-93915736D01*
X176194278Y-93930297D01*
X176195000Y-93945000D01*
X176195000Y-95695000D01*
X176194278Y-95709703D01*
X176192118Y-95724264D01*
X176188541Y-95738543D01*
X176183582Y-95752403D01*
X176177288Y-95765710D01*
X176169720Y-95778336D01*
X176160952Y-95790159D01*
X176151066Y-95801066D01*
X176140159Y-95810952D01*
X176128336Y-95819720D01*
X176115710Y-95827288D01*
X176102403Y-95833582D01*
X176088543Y-95838541D01*
X176074264Y-95842118D01*
X176059703Y-95844278D01*
X176045000Y-95845000D01*
X175745000Y-95845000D01*
X175730297Y-95844278D01*
X175715736Y-95842118D01*
X175701457Y-95838541D01*
X175687597Y-95833582D01*
X175674290Y-95827288D01*
X175661664Y-95819720D01*
X175649841Y-95810952D01*
X175638934Y-95801066D01*
X175629048Y-95790159D01*
X175620280Y-95778336D01*
X175612712Y-95765710D01*
X175606418Y-95752403D01*
X175601459Y-95738543D01*
X175597882Y-95724264D01*
X175595722Y-95709703D01*
X175595000Y-95695000D01*
X175595000Y-93945000D01*
X175595722Y-93930297D01*
X175597882Y-93915736D01*
X175601459Y-93901457D01*
X175606418Y-93887597D01*
X175612712Y-93874290D01*
X175620280Y-93861664D01*
X175629048Y-93849841D01*
X175638934Y-93838934D01*
X175649841Y-93829048D01*
X175661664Y-93820280D01*
X175674290Y-93812712D01*
X175687597Y-93806418D01*
X175701457Y-93801459D01*
X175715736Y-93797882D01*
X175730297Y-93795722D01*
X175745000Y-93795000D01*
X176045000Y-93795000D01*
X176059703Y-93795722D01*
G37*
G04 #@! TD.AperFunction*
G04 #@! TA.AperFunction,SMDPad,CuDef*
G36*
X177329703Y-93795722D02*
G01*
X177344264Y-93797882D01*
X177358543Y-93801459D01*
X177372403Y-93806418D01*
X177385710Y-93812712D01*
X177398336Y-93820280D01*
X177410159Y-93829048D01*
X177421066Y-93838934D01*
X177430952Y-93849841D01*
X177439720Y-93861664D01*
X177447288Y-93874290D01*
X177453582Y-93887597D01*
X177458541Y-93901457D01*
X177462118Y-93915736D01*
X177464278Y-93930297D01*
X177465000Y-93945000D01*
X177465000Y-95695000D01*
X177464278Y-95709703D01*
X177462118Y-95724264D01*
X177458541Y-95738543D01*
X177453582Y-95752403D01*
X177447288Y-95765710D01*
X177439720Y-95778336D01*
X177430952Y-95790159D01*
X177421066Y-95801066D01*
X177410159Y-95810952D01*
X177398336Y-95819720D01*
X177385710Y-95827288D01*
X177372403Y-95833582D01*
X177358543Y-95838541D01*
X177344264Y-95842118D01*
X177329703Y-95844278D01*
X177315000Y-95845000D01*
X177015000Y-95845000D01*
X177000297Y-95844278D01*
X176985736Y-95842118D01*
X176971457Y-95838541D01*
X176957597Y-95833582D01*
X176944290Y-95827288D01*
X176931664Y-95819720D01*
X176919841Y-95810952D01*
X176908934Y-95801066D01*
X176899048Y-95790159D01*
X176890280Y-95778336D01*
X176882712Y-95765710D01*
X176876418Y-95752403D01*
X176871459Y-95738543D01*
X176867882Y-95724264D01*
X176865722Y-95709703D01*
X176865000Y-95695000D01*
X176865000Y-93945000D01*
X176865722Y-93930297D01*
X176867882Y-93915736D01*
X176871459Y-93901457D01*
X176876418Y-93887597D01*
X176882712Y-93874290D01*
X176890280Y-93861664D01*
X176899048Y-93849841D01*
X176908934Y-93838934D01*
X176919841Y-93829048D01*
X176931664Y-93820280D01*
X176944290Y-93812712D01*
X176957597Y-93806418D01*
X176971457Y-93801459D01*
X176985736Y-93797882D01*
X177000297Y-93795722D01*
X177015000Y-93795000D01*
X177315000Y-93795000D01*
X177329703Y-93795722D01*
G37*
G04 #@! TD.AperFunction*
G04 #@! TA.AperFunction,SMDPad,CuDef*
G36*
X178599703Y-93795722D02*
G01*
X178614264Y-93797882D01*
X178628543Y-93801459D01*
X178642403Y-93806418D01*
X178655710Y-93812712D01*
X178668336Y-93820280D01*
X178680159Y-93829048D01*
X178691066Y-93838934D01*
X178700952Y-93849841D01*
X178709720Y-93861664D01*
X178717288Y-93874290D01*
X178723582Y-93887597D01*
X178728541Y-93901457D01*
X178732118Y-93915736D01*
X178734278Y-93930297D01*
X178735000Y-93945000D01*
X178735000Y-95695000D01*
X178734278Y-95709703D01*
X178732118Y-95724264D01*
X178728541Y-95738543D01*
X178723582Y-95752403D01*
X178717288Y-95765710D01*
X178709720Y-95778336D01*
X178700952Y-95790159D01*
X178691066Y-95801066D01*
X178680159Y-95810952D01*
X178668336Y-95819720D01*
X178655710Y-95827288D01*
X178642403Y-95833582D01*
X178628543Y-95838541D01*
X178614264Y-95842118D01*
X178599703Y-95844278D01*
X178585000Y-95845000D01*
X178285000Y-95845000D01*
X178270297Y-95844278D01*
X178255736Y-95842118D01*
X178241457Y-95838541D01*
X178227597Y-95833582D01*
X178214290Y-95827288D01*
X178201664Y-95819720D01*
X178189841Y-95810952D01*
X178178934Y-95801066D01*
X178169048Y-95790159D01*
X178160280Y-95778336D01*
X178152712Y-95765710D01*
X178146418Y-95752403D01*
X178141459Y-95738543D01*
X178137882Y-95724264D01*
X178135722Y-95709703D01*
X178135000Y-95695000D01*
X178135000Y-93945000D01*
X178135722Y-93930297D01*
X178137882Y-93915736D01*
X178141459Y-93901457D01*
X178146418Y-93887597D01*
X178152712Y-93874290D01*
X178160280Y-93861664D01*
X178169048Y-93849841D01*
X178178934Y-93838934D01*
X178189841Y-93829048D01*
X178201664Y-93820280D01*
X178214290Y-93812712D01*
X178227597Y-93806418D01*
X178241457Y-93801459D01*
X178255736Y-93797882D01*
X178270297Y-93795722D01*
X178285000Y-93795000D01*
X178585000Y-93795000D01*
X178599703Y-93795722D01*
G37*
G04 #@! TD.AperFunction*
G04 #@! TA.AperFunction,SMDPad,CuDef*
G36*
X179869703Y-93795722D02*
G01*
X179884264Y-93797882D01*
X179898543Y-93801459D01*
X179912403Y-93806418D01*
X179925710Y-93812712D01*
X179938336Y-93820280D01*
X179950159Y-93829048D01*
X179961066Y-93838934D01*
X179970952Y-93849841D01*
X179979720Y-93861664D01*
X179987288Y-93874290D01*
X179993582Y-93887597D01*
X179998541Y-93901457D01*
X180002118Y-93915736D01*
X180004278Y-93930297D01*
X180005000Y-93945000D01*
X180005000Y-95695000D01*
X180004278Y-95709703D01*
X180002118Y-95724264D01*
X179998541Y-95738543D01*
X179993582Y-95752403D01*
X179987288Y-95765710D01*
X179979720Y-95778336D01*
X179970952Y-95790159D01*
X179961066Y-95801066D01*
X179950159Y-95810952D01*
X179938336Y-95819720D01*
X179925710Y-95827288D01*
X179912403Y-95833582D01*
X179898543Y-95838541D01*
X179884264Y-95842118D01*
X179869703Y-95844278D01*
X179855000Y-95845000D01*
X179555000Y-95845000D01*
X179540297Y-95844278D01*
X179525736Y-95842118D01*
X179511457Y-95838541D01*
X179497597Y-95833582D01*
X179484290Y-95827288D01*
X179471664Y-95819720D01*
X179459841Y-95810952D01*
X179448934Y-95801066D01*
X179439048Y-95790159D01*
X179430280Y-95778336D01*
X179422712Y-95765710D01*
X179416418Y-95752403D01*
X179411459Y-95738543D01*
X179407882Y-95724264D01*
X179405722Y-95709703D01*
X179405000Y-95695000D01*
X179405000Y-93945000D01*
X179405722Y-93930297D01*
X179407882Y-93915736D01*
X179411459Y-93901457D01*
X179416418Y-93887597D01*
X179422712Y-93874290D01*
X179430280Y-93861664D01*
X179439048Y-93849841D01*
X179448934Y-93838934D01*
X179459841Y-93829048D01*
X179471664Y-93820280D01*
X179484290Y-93812712D01*
X179497597Y-93806418D01*
X179511457Y-93801459D01*
X179525736Y-93797882D01*
X179540297Y-93795722D01*
X179555000Y-93795000D01*
X179855000Y-93795000D01*
X179869703Y-93795722D01*
G37*
G04 #@! TD.AperFunction*
G04 #@! TA.AperFunction,SMDPad,CuDef*
G36*
X181139703Y-93795722D02*
G01*
X181154264Y-93797882D01*
X181168543Y-93801459D01*
X181182403Y-93806418D01*
X181195710Y-93812712D01*
X181208336Y-93820280D01*
X181220159Y-93829048D01*
X181231066Y-93838934D01*
X181240952Y-93849841D01*
X181249720Y-93861664D01*
X181257288Y-93874290D01*
X181263582Y-93887597D01*
X181268541Y-93901457D01*
X181272118Y-93915736D01*
X181274278Y-93930297D01*
X181275000Y-93945000D01*
X181275000Y-95695000D01*
X181274278Y-95709703D01*
X181272118Y-95724264D01*
X181268541Y-95738543D01*
X181263582Y-95752403D01*
X181257288Y-95765710D01*
X181249720Y-95778336D01*
X181240952Y-95790159D01*
X181231066Y-95801066D01*
X181220159Y-95810952D01*
X181208336Y-95819720D01*
X181195710Y-95827288D01*
X181182403Y-95833582D01*
X181168543Y-95838541D01*
X181154264Y-95842118D01*
X181139703Y-95844278D01*
X181125000Y-95845000D01*
X180825000Y-95845000D01*
X180810297Y-95844278D01*
X180795736Y-95842118D01*
X180781457Y-95838541D01*
X180767597Y-95833582D01*
X180754290Y-95827288D01*
X180741664Y-95819720D01*
X180729841Y-95810952D01*
X180718934Y-95801066D01*
X180709048Y-95790159D01*
X180700280Y-95778336D01*
X180692712Y-95765710D01*
X180686418Y-95752403D01*
X180681459Y-95738543D01*
X180677882Y-95724264D01*
X180675722Y-95709703D01*
X180675000Y-95695000D01*
X180675000Y-93945000D01*
X180675722Y-93930297D01*
X180677882Y-93915736D01*
X180681459Y-93901457D01*
X180686418Y-93887597D01*
X180692712Y-93874290D01*
X180700280Y-93861664D01*
X180709048Y-93849841D01*
X180718934Y-93838934D01*
X180729841Y-93829048D01*
X180741664Y-93820280D01*
X180754290Y-93812712D01*
X180767597Y-93806418D01*
X180781457Y-93801459D01*
X180795736Y-93797882D01*
X180810297Y-93795722D01*
X180825000Y-93795000D01*
X181125000Y-93795000D01*
X181139703Y-93795722D01*
G37*
G04 #@! TD.AperFunction*
G04 #@! TA.AperFunction,SMDPad,CuDef*
G36*
X149389703Y-84495722D02*
G01*
X149404264Y-84497882D01*
X149418543Y-84501459D01*
X149432403Y-84506418D01*
X149445710Y-84512712D01*
X149458336Y-84520280D01*
X149470159Y-84529048D01*
X149481066Y-84538934D01*
X149490952Y-84549841D01*
X149499720Y-84561664D01*
X149507288Y-84574290D01*
X149513582Y-84587597D01*
X149518541Y-84601457D01*
X149522118Y-84615736D01*
X149524278Y-84630297D01*
X149525000Y-84645000D01*
X149525000Y-86395000D01*
X149524278Y-86409703D01*
X149522118Y-86424264D01*
X149518541Y-86438543D01*
X149513582Y-86452403D01*
X149507288Y-86465710D01*
X149499720Y-86478336D01*
X149490952Y-86490159D01*
X149481066Y-86501066D01*
X149470159Y-86510952D01*
X149458336Y-86519720D01*
X149445710Y-86527288D01*
X149432403Y-86533582D01*
X149418543Y-86538541D01*
X149404264Y-86542118D01*
X149389703Y-86544278D01*
X149375000Y-86545000D01*
X149075000Y-86545000D01*
X149060297Y-86544278D01*
X149045736Y-86542118D01*
X149031457Y-86538541D01*
X149017597Y-86533582D01*
X149004290Y-86527288D01*
X148991664Y-86519720D01*
X148979841Y-86510952D01*
X148968934Y-86501066D01*
X148959048Y-86490159D01*
X148950280Y-86478336D01*
X148942712Y-86465710D01*
X148936418Y-86452403D01*
X148931459Y-86438543D01*
X148927882Y-86424264D01*
X148925722Y-86409703D01*
X148925000Y-86395000D01*
X148925000Y-84645000D01*
X148925722Y-84630297D01*
X148927882Y-84615736D01*
X148931459Y-84601457D01*
X148936418Y-84587597D01*
X148942712Y-84574290D01*
X148950280Y-84561664D01*
X148959048Y-84549841D01*
X148968934Y-84538934D01*
X148979841Y-84529048D01*
X148991664Y-84520280D01*
X149004290Y-84512712D01*
X149017597Y-84506418D01*
X149031457Y-84501459D01*
X149045736Y-84497882D01*
X149060297Y-84495722D01*
X149075000Y-84495000D01*
X149375000Y-84495000D01*
X149389703Y-84495722D01*
G37*
G04 #@! TD.AperFunction*
G04 #@! TA.AperFunction,SMDPad,CuDef*
G36*
X148119703Y-84495722D02*
G01*
X148134264Y-84497882D01*
X148148543Y-84501459D01*
X148162403Y-84506418D01*
X148175710Y-84512712D01*
X148188336Y-84520280D01*
X148200159Y-84529048D01*
X148211066Y-84538934D01*
X148220952Y-84549841D01*
X148229720Y-84561664D01*
X148237288Y-84574290D01*
X148243582Y-84587597D01*
X148248541Y-84601457D01*
X148252118Y-84615736D01*
X148254278Y-84630297D01*
X148255000Y-84645000D01*
X148255000Y-86395000D01*
X148254278Y-86409703D01*
X148252118Y-86424264D01*
X148248541Y-86438543D01*
X148243582Y-86452403D01*
X148237288Y-86465710D01*
X148229720Y-86478336D01*
X148220952Y-86490159D01*
X148211066Y-86501066D01*
X148200159Y-86510952D01*
X148188336Y-86519720D01*
X148175710Y-86527288D01*
X148162403Y-86533582D01*
X148148543Y-86538541D01*
X148134264Y-86542118D01*
X148119703Y-86544278D01*
X148105000Y-86545000D01*
X147805000Y-86545000D01*
X147790297Y-86544278D01*
X147775736Y-86542118D01*
X147761457Y-86538541D01*
X147747597Y-86533582D01*
X147734290Y-86527288D01*
X147721664Y-86519720D01*
X147709841Y-86510952D01*
X147698934Y-86501066D01*
X147689048Y-86490159D01*
X147680280Y-86478336D01*
X147672712Y-86465710D01*
X147666418Y-86452403D01*
X147661459Y-86438543D01*
X147657882Y-86424264D01*
X147655722Y-86409703D01*
X147655000Y-86395000D01*
X147655000Y-84645000D01*
X147655722Y-84630297D01*
X147657882Y-84615736D01*
X147661459Y-84601457D01*
X147666418Y-84587597D01*
X147672712Y-84574290D01*
X147680280Y-84561664D01*
X147689048Y-84549841D01*
X147698934Y-84538934D01*
X147709841Y-84529048D01*
X147721664Y-84520280D01*
X147734290Y-84512712D01*
X147747597Y-84506418D01*
X147761457Y-84501459D01*
X147775736Y-84497882D01*
X147790297Y-84495722D01*
X147805000Y-84495000D01*
X148105000Y-84495000D01*
X148119703Y-84495722D01*
G37*
G04 #@! TD.AperFunction*
G04 #@! TA.AperFunction,SMDPad,CuDef*
G36*
X146849703Y-84495722D02*
G01*
X146864264Y-84497882D01*
X146878543Y-84501459D01*
X146892403Y-84506418D01*
X146905710Y-84512712D01*
X146918336Y-84520280D01*
X146930159Y-84529048D01*
X146941066Y-84538934D01*
X146950952Y-84549841D01*
X146959720Y-84561664D01*
X146967288Y-84574290D01*
X146973582Y-84587597D01*
X146978541Y-84601457D01*
X146982118Y-84615736D01*
X146984278Y-84630297D01*
X146985000Y-84645000D01*
X146985000Y-86395000D01*
X146984278Y-86409703D01*
X146982118Y-86424264D01*
X146978541Y-86438543D01*
X146973582Y-86452403D01*
X146967288Y-86465710D01*
X146959720Y-86478336D01*
X146950952Y-86490159D01*
X146941066Y-86501066D01*
X146930159Y-86510952D01*
X146918336Y-86519720D01*
X146905710Y-86527288D01*
X146892403Y-86533582D01*
X146878543Y-86538541D01*
X146864264Y-86542118D01*
X146849703Y-86544278D01*
X146835000Y-86545000D01*
X146535000Y-86545000D01*
X146520297Y-86544278D01*
X146505736Y-86542118D01*
X146491457Y-86538541D01*
X146477597Y-86533582D01*
X146464290Y-86527288D01*
X146451664Y-86519720D01*
X146439841Y-86510952D01*
X146428934Y-86501066D01*
X146419048Y-86490159D01*
X146410280Y-86478336D01*
X146402712Y-86465710D01*
X146396418Y-86452403D01*
X146391459Y-86438543D01*
X146387882Y-86424264D01*
X146385722Y-86409703D01*
X146385000Y-86395000D01*
X146385000Y-84645000D01*
X146385722Y-84630297D01*
X146387882Y-84615736D01*
X146391459Y-84601457D01*
X146396418Y-84587597D01*
X146402712Y-84574290D01*
X146410280Y-84561664D01*
X146419048Y-84549841D01*
X146428934Y-84538934D01*
X146439841Y-84529048D01*
X146451664Y-84520280D01*
X146464290Y-84512712D01*
X146477597Y-84506418D01*
X146491457Y-84501459D01*
X146505736Y-84497882D01*
X146520297Y-84495722D01*
X146535000Y-84495000D01*
X146835000Y-84495000D01*
X146849703Y-84495722D01*
G37*
G04 #@! TD.AperFunction*
G04 #@! TA.AperFunction,SMDPad,CuDef*
G36*
X145579703Y-84495722D02*
G01*
X145594264Y-84497882D01*
X145608543Y-84501459D01*
X145622403Y-84506418D01*
X145635710Y-84512712D01*
X145648336Y-84520280D01*
X145660159Y-84529048D01*
X145671066Y-84538934D01*
X145680952Y-84549841D01*
X145689720Y-84561664D01*
X145697288Y-84574290D01*
X145703582Y-84587597D01*
X145708541Y-84601457D01*
X145712118Y-84615736D01*
X145714278Y-84630297D01*
X145715000Y-84645000D01*
X145715000Y-86395000D01*
X145714278Y-86409703D01*
X145712118Y-86424264D01*
X145708541Y-86438543D01*
X145703582Y-86452403D01*
X145697288Y-86465710D01*
X145689720Y-86478336D01*
X145680952Y-86490159D01*
X145671066Y-86501066D01*
X145660159Y-86510952D01*
X145648336Y-86519720D01*
X145635710Y-86527288D01*
X145622403Y-86533582D01*
X145608543Y-86538541D01*
X145594264Y-86542118D01*
X145579703Y-86544278D01*
X145565000Y-86545000D01*
X145265000Y-86545000D01*
X145250297Y-86544278D01*
X145235736Y-86542118D01*
X145221457Y-86538541D01*
X145207597Y-86533582D01*
X145194290Y-86527288D01*
X145181664Y-86519720D01*
X145169841Y-86510952D01*
X145158934Y-86501066D01*
X145149048Y-86490159D01*
X145140280Y-86478336D01*
X145132712Y-86465710D01*
X145126418Y-86452403D01*
X145121459Y-86438543D01*
X145117882Y-86424264D01*
X145115722Y-86409703D01*
X145115000Y-86395000D01*
X145115000Y-84645000D01*
X145115722Y-84630297D01*
X145117882Y-84615736D01*
X145121459Y-84601457D01*
X145126418Y-84587597D01*
X145132712Y-84574290D01*
X145140280Y-84561664D01*
X145149048Y-84549841D01*
X145158934Y-84538934D01*
X145169841Y-84529048D01*
X145181664Y-84520280D01*
X145194290Y-84512712D01*
X145207597Y-84506418D01*
X145221457Y-84501459D01*
X145235736Y-84497882D01*
X145250297Y-84495722D01*
X145265000Y-84495000D01*
X145565000Y-84495000D01*
X145579703Y-84495722D01*
G37*
G04 #@! TD.AperFunction*
G04 #@! TA.AperFunction,SMDPad,CuDef*
G36*
X144309703Y-84495722D02*
G01*
X144324264Y-84497882D01*
X144338543Y-84501459D01*
X144352403Y-84506418D01*
X144365710Y-84512712D01*
X144378336Y-84520280D01*
X144390159Y-84529048D01*
X144401066Y-84538934D01*
X144410952Y-84549841D01*
X144419720Y-84561664D01*
X144427288Y-84574290D01*
X144433582Y-84587597D01*
X144438541Y-84601457D01*
X144442118Y-84615736D01*
X144444278Y-84630297D01*
X144445000Y-84645000D01*
X144445000Y-86395000D01*
X144444278Y-86409703D01*
X144442118Y-86424264D01*
X144438541Y-86438543D01*
X144433582Y-86452403D01*
X144427288Y-86465710D01*
X144419720Y-86478336D01*
X144410952Y-86490159D01*
X144401066Y-86501066D01*
X144390159Y-86510952D01*
X144378336Y-86519720D01*
X144365710Y-86527288D01*
X144352403Y-86533582D01*
X144338543Y-86538541D01*
X144324264Y-86542118D01*
X144309703Y-86544278D01*
X144295000Y-86545000D01*
X143995000Y-86545000D01*
X143980297Y-86544278D01*
X143965736Y-86542118D01*
X143951457Y-86538541D01*
X143937597Y-86533582D01*
X143924290Y-86527288D01*
X143911664Y-86519720D01*
X143899841Y-86510952D01*
X143888934Y-86501066D01*
X143879048Y-86490159D01*
X143870280Y-86478336D01*
X143862712Y-86465710D01*
X143856418Y-86452403D01*
X143851459Y-86438543D01*
X143847882Y-86424264D01*
X143845722Y-86409703D01*
X143845000Y-86395000D01*
X143845000Y-84645000D01*
X143845722Y-84630297D01*
X143847882Y-84615736D01*
X143851459Y-84601457D01*
X143856418Y-84587597D01*
X143862712Y-84574290D01*
X143870280Y-84561664D01*
X143879048Y-84549841D01*
X143888934Y-84538934D01*
X143899841Y-84529048D01*
X143911664Y-84520280D01*
X143924290Y-84512712D01*
X143937597Y-84506418D01*
X143951457Y-84501459D01*
X143965736Y-84497882D01*
X143980297Y-84495722D01*
X143995000Y-84495000D01*
X144295000Y-84495000D01*
X144309703Y-84495722D01*
G37*
G04 #@! TD.AperFunction*
G04 #@! TA.AperFunction,SMDPad,CuDef*
G36*
X143039703Y-84495722D02*
G01*
X143054264Y-84497882D01*
X143068543Y-84501459D01*
X143082403Y-84506418D01*
X143095710Y-84512712D01*
X143108336Y-84520280D01*
X143120159Y-84529048D01*
X143131066Y-84538934D01*
X143140952Y-84549841D01*
X143149720Y-84561664D01*
X143157288Y-84574290D01*
X143163582Y-84587597D01*
X143168541Y-84601457D01*
X143172118Y-84615736D01*
X143174278Y-84630297D01*
X143175000Y-84645000D01*
X143175000Y-86395000D01*
X143174278Y-86409703D01*
X143172118Y-86424264D01*
X143168541Y-86438543D01*
X143163582Y-86452403D01*
X143157288Y-86465710D01*
X143149720Y-86478336D01*
X143140952Y-86490159D01*
X143131066Y-86501066D01*
X143120159Y-86510952D01*
X143108336Y-86519720D01*
X143095710Y-86527288D01*
X143082403Y-86533582D01*
X143068543Y-86538541D01*
X143054264Y-86542118D01*
X143039703Y-86544278D01*
X143025000Y-86545000D01*
X142725000Y-86545000D01*
X142710297Y-86544278D01*
X142695736Y-86542118D01*
X142681457Y-86538541D01*
X142667597Y-86533582D01*
X142654290Y-86527288D01*
X142641664Y-86519720D01*
X142629841Y-86510952D01*
X142618934Y-86501066D01*
X142609048Y-86490159D01*
X142600280Y-86478336D01*
X142592712Y-86465710D01*
X142586418Y-86452403D01*
X142581459Y-86438543D01*
X142577882Y-86424264D01*
X142575722Y-86409703D01*
X142575000Y-86395000D01*
X142575000Y-84645000D01*
X142575722Y-84630297D01*
X142577882Y-84615736D01*
X142581459Y-84601457D01*
X142586418Y-84587597D01*
X142592712Y-84574290D01*
X142600280Y-84561664D01*
X142609048Y-84549841D01*
X142618934Y-84538934D01*
X142629841Y-84529048D01*
X142641664Y-84520280D01*
X142654290Y-84512712D01*
X142667597Y-84506418D01*
X142681457Y-84501459D01*
X142695736Y-84497882D01*
X142710297Y-84495722D01*
X142725000Y-84495000D01*
X143025000Y-84495000D01*
X143039703Y-84495722D01*
G37*
G04 #@! TD.AperFunction*
G04 #@! TA.AperFunction,SMDPad,CuDef*
G36*
X141769703Y-84495722D02*
G01*
X141784264Y-84497882D01*
X141798543Y-84501459D01*
X141812403Y-84506418D01*
X141825710Y-84512712D01*
X141838336Y-84520280D01*
X141850159Y-84529048D01*
X141861066Y-84538934D01*
X141870952Y-84549841D01*
X141879720Y-84561664D01*
X141887288Y-84574290D01*
X141893582Y-84587597D01*
X141898541Y-84601457D01*
X141902118Y-84615736D01*
X141904278Y-84630297D01*
X141905000Y-84645000D01*
X141905000Y-86395000D01*
X141904278Y-86409703D01*
X141902118Y-86424264D01*
X141898541Y-86438543D01*
X141893582Y-86452403D01*
X141887288Y-86465710D01*
X141879720Y-86478336D01*
X141870952Y-86490159D01*
X141861066Y-86501066D01*
X141850159Y-86510952D01*
X141838336Y-86519720D01*
X141825710Y-86527288D01*
X141812403Y-86533582D01*
X141798543Y-86538541D01*
X141784264Y-86542118D01*
X141769703Y-86544278D01*
X141755000Y-86545000D01*
X141455000Y-86545000D01*
X141440297Y-86544278D01*
X141425736Y-86542118D01*
X141411457Y-86538541D01*
X141397597Y-86533582D01*
X141384290Y-86527288D01*
X141371664Y-86519720D01*
X141359841Y-86510952D01*
X141348934Y-86501066D01*
X141339048Y-86490159D01*
X141330280Y-86478336D01*
X141322712Y-86465710D01*
X141316418Y-86452403D01*
X141311459Y-86438543D01*
X141307882Y-86424264D01*
X141305722Y-86409703D01*
X141305000Y-86395000D01*
X141305000Y-84645000D01*
X141305722Y-84630297D01*
X141307882Y-84615736D01*
X141311459Y-84601457D01*
X141316418Y-84587597D01*
X141322712Y-84574290D01*
X141330280Y-84561664D01*
X141339048Y-84549841D01*
X141348934Y-84538934D01*
X141359841Y-84529048D01*
X141371664Y-84520280D01*
X141384290Y-84512712D01*
X141397597Y-84506418D01*
X141411457Y-84501459D01*
X141425736Y-84497882D01*
X141440297Y-84495722D01*
X141455000Y-84495000D01*
X141755000Y-84495000D01*
X141769703Y-84495722D01*
G37*
G04 #@! TD.AperFunction*
G04 #@! TA.AperFunction,SMDPad,CuDef*
G36*
X140499703Y-84495722D02*
G01*
X140514264Y-84497882D01*
X140528543Y-84501459D01*
X140542403Y-84506418D01*
X140555710Y-84512712D01*
X140568336Y-84520280D01*
X140580159Y-84529048D01*
X140591066Y-84538934D01*
X140600952Y-84549841D01*
X140609720Y-84561664D01*
X140617288Y-84574290D01*
X140623582Y-84587597D01*
X140628541Y-84601457D01*
X140632118Y-84615736D01*
X140634278Y-84630297D01*
X140635000Y-84645000D01*
X140635000Y-86395000D01*
X140634278Y-86409703D01*
X140632118Y-86424264D01*
X140628541Y-86438543D01*
X140623582Y-86452403D01*
X140617288Y-86465710D01*
X140609720Y-86478336D01*
X140600952Y-86490159D01*
X140591066Y-86501066D01*
X140580159Y-86510952D01*
X140568336Y-86519720D01*
X140555710Y-86527288D01*
X140542403Y-86533582D01*
X140528543Y-86538541D01*
X140514264Y-86542118D01*
X140499703Y-86544278D01*
X140485000Y-86545000D01*
X140185000Y-86545000D01*
X140170297Y-86544278D01*
X140155736Y-86542118D01*
X140141457Y-86538541D01*
X140127597Y-86533582D01*
X140114290Y-86527288D01*
X140101664Y-86519720D01*
X140089841Y-86510952D01*
X140078934Y-86501066D01*
X140069048Y-86490159D01*
X140060280Y-86478336D01*
X140052712Y-86465710D01*
X140046418Y-86452403D01*
X140041459Y-86438543D01*
X140037882Y-86424264D01*
X140035722Y-86409703D01*
X140035000Y-86395000D01*
X140035000Y-84645000D01*
X140035722Y-84630297D01*
X140037882Y-84615736D01*
X140041459Y-84601457D01*
X140046418Y-84587597D01*
X140052712Y-84574290D01*
X140060280Y-84561664D01*
X140069048Y-84549841D01*
X140078934Y-84538934D01*
X140089841Y-84529048D01*
X140101664Y-84520280D01*
X140114290Y-84512712D01*
X140127597Y-84506418D01*
X140141457Y-84501459D01*
X140155736Y-84497882D01*
X140170297Y-84495722D01*
X140185000Y-84495000D01*
X140485000Y-84495000D01*
X140499703Y-84495722D01*
G37*
G04 #@! TD.AperFunction*
G04 #@! TA.AperFunction,SMDPad,CuDef*
G36*
X139229703Y-84495722D02*
G01*
X139244264Y-84497882D01*
X139258543Y-84501459D01*
X139272403Y-84506418D01*
X139285710Y-84512712D01*
X139298336Y-84520280D01*
X139310159Y-84529048D01*
X139321066Y-84538934D01*
X139330952Y-84549841D01*
X139339720Y-84561664D01*
X139347288Y-84574290D01*
X139353582Y-84587597D01*
X139358541Y-84601457D01*
X139362118Y-84615736D01*
X139364278Y-84630297D01*
X139365000Y-84645000D01*
X139365000Y-86395000D01*
X139364278Y-86409703D01*
X139362118Y-86424264D01*
X139358541Y-86438543D01*
X139353582Y-86452403D01*
X139347288Y-86465710D01*
X139339720Y-86478336D01*
X139330952Y-86490159D01*
X139321066Y-86501066D01*
X139310159Y-86510952D01*
X139298336Y-86519720D01*
X139285710Y-86527288D01*
X139272403Y-86533582D01*
X139258543Y-86538541D01*
X139244264Y-86542118D01*
X139229703Y-86544278D01*
X139215000Y-86545000D01*
X138915000Y-86545000D01*
X138900297Y-86544278D01*
X138885736Y-86542118D01*
X138871457Y-86538541D01*
X138857597Y-86533582D01*
X138844290Y-86527288D01*
X138831664Y-86519720D01*
X138819841Y-86510952D01*
X138808934Y-86501066D01*
X138799048Y-86490159D01*
X138790280Y-86478336D01*
X138782712Y-86465710D01*
X138776418Y-86452403D01*
X138771459Y-86438543D01*
X138767882Y-86424264D01*
X138765722Y-86409703D01*
X138765000Y-86395000D01*
X138765000Y-84645000D01*
X138765722Y-84630297D01*
X138767882Y-84615736D01*
X138771459Y-84601457D01*
X138776418Y-84587597D01*
X138782712Y-84574290D01*
X138790280Y-84561664D01*
X138799048Y-84549841D01*
X138808934Y-84538934D01*
X138819841Y-84529048D01*
X138831664Y-84520280D01*
X138844290Y-84512712D01*
X138857597Y-84506418D01*
X138871457Y-84501459D01*
X138885736Y-84497882D01*
X138900297Y-84495722D01*
X138915000Y-84495000D01*
X139215000Y-84495000D01*
X139229703Y-84495722D01*
G37*
G04 #@! TD.AperFunction*
G04 #@! TA.AperFunction,SMDPad,CuDef*
G36*
X137959703Y-84495722D02*
G01*
X137974264Y-84497882D01*
X137988543Y-84501459D01*
X138002403Y-84506418D01*
X138015710Y-84512712D01*
X138028336Y-84520280D01*
X138040159Y-84529048D01*
X138051066Y-84538934D01*
X138060952Y-84549841D01*
X138069720Y-84561664D01*
X138077288Y-84574290D01*
X138083582Y-84587597D01*
X138088541Y-84601457D01*
X138092118Y-84615736D01*
X138094278Y-84630297D01*
X138095000Y-84645000D01*
X138095000Y-86395000D01*
X138094278Y-86409703D01*
X138092118Y-86424264D01*
X138088541Y-86438543D01*
X138083582Y-86452403D01*
X138077288Y-86465710D01*
X138069720Y-86478336D01*
X138060952Y-86490159D01*
X138051066Y-86501066D01*
X138040159Y-86510952D01*
X138028336Y-86519720D01*
X138015710Y-86527288D01*
X138002403Y-86533582D01*
X137988543Y-86538541D01*
X137974264Y-86542118D01*
X137959703Y-86544278D01*
X137945000Y-86545000D01*
X137645000Y-86545000D01*
X137630297Y-86544278D01*
X137615736Y-86542118D01*
X137601457Y-86538541D01*
X137587597Y-86533582D01*
X137574290Y-86527288D01*
X137561664Y-86519720D01*
X137549841Y-86510952D01*
X137538934Y-86501066D01*
X137529048Y-86490159D01*
X137520280Y-86478336D01*
X137512712Y-86465710D01*
X137506418Y-86452403D01*
X137501459Y-86438543D01*
X137497882Y-86424264D01*
X137495722Y-86409703D01*
X137495000Y-86395000D01*
X137495000Y-84645000D01*
X137495722Y-84630297D01*
X137497882Y-84615736D01*
X137501459Y-84601457D01*
X137506418Y-84587597D01*
X137512712Y-84574290D01*
X137520280Y-84561664D01*
X137529048Y-84549841D01*
X137538934Y-84538934D01*
X137549841Y-84529048D01*
X137561664Y-84520280D01*
X137574290Y-84512712D01*
X137587597Y-84506418D01*
X137601457Y-84501459D01*
X137615736Y-84497882D01*
X137630297Y-84495722D01*
X137645000Y-84495000D01*
X137945000Y-84495000D01*
X137959703Y-84495722D01*
G37*
G04 #@! TD.AperFunction*
G04 #@! TA.AperFunction,SMDPad,CuDef*
G36*
X136689703Y-84495722D02*
G01*
X136704264Y-84497882D01*
X136718543Y-84501459D01*
X136732403Y-84506418D01*
X136745710Y-84512712D01*
X136758336Y-84520280D01*
X136770159Y-84529048D01*
X136781066Y-84538934D01*
X136790952Y-84549841D01*
X136799720Y-84561664D01*
X136807288Y-84574290D01*
X136813582Y-84587597D01*
X136818541Y-84601457D01*
X136822118Y-84615736D01*
X136824278Y-84630297D01*
X136825000Y-84645000D01*
X136825000Y-86395000D01*
X136824278Y-86409703D01*
X136822118Y-86424264D01*
X136818541Y-86438543D01*
X136813582Y-86452403D01*
X136807288Y-86465710D01*
X136799720Y-86478336D01*
X136790952Y-86490159D01*
X136781066Y-86501066D01*
X136770159Y-86510952D01*
X136758336Y-86519720D01*
X136745710Y-86527288D01*
X136732403Y-86533582D01*
X136718543Y-86538541D01*
X136704264Y-86542118D01*
X136689703Y-86544278D01*
X136675000Y-86545000D01*
X136375000Y-86545000D01*
X136360297Y-86544278D01*
X136345736Y-86542118D01*
X136331457Y-86538541D01*
X136317597Y-86533582D01*
X136304290Y-86527288D01*
X136291664Y-86519720D01*
X136279841Y-86510952D01*
X136268934Y-86501066D01*
X136259048Y-86490159D01*
X136250280Y-86478336D01*
X136242712Y-86465710D01*
X136236418Y-86452403D01*
X136231459Y-86438543D01*
X136227882Y-86424264D01*
X136225722Y-86409703D01*
X136225000Y-86395000D01*
X136225000Y-84645000D01*
X136225722Y-84630297D01*
X136227882Y-84615736D01*
X136231459Y-84601457D01*
X136236418Y-84587597D01*
X136242712Y-84574290D01*
X136250280Y-84561664D01*
X136259048Y-84549841D01*
X136268934Y-84538934D01*
X136279841Y-84529048D01*
X136291664Y-84520280D01*
X136304290Y-84512712D01*
X136317597Y-84506418D01*
X136331457Y-84501459D01*
X136345736Y-84497882D01*
X136360297Y-84495722D01*
X136375000Y-84495000D01*
X136675000Y-84495000D01*
X136689703Y-84495722D01*
G37*
G04 #@! TD.AperFunction*
G04 #@! TA.AperFunction,SMDPad,CuDef*
G36*
X135419703Y-84495722D02*
G01*
X135434264Y-84497882D01*
X135448543Y-84501459D01*
X135462403Y-84506418D01*
X135475710Y-84512712D01*
X135488336Y-84520280D01*
X135500159Y-84529048D01*
X135511066Y-84538934D01*
X135520952Y-84549841D01*
X135529720Y-84561664D01*
X135537288Y-84574290D01*
X135543582Y-84587597D01*
X135548541Y-84601457D01*
X135552118Y-84615736D01*
X135554278Y-84630297D01*
X135555000Y-84645000D01*
X135555000Y-86395000D01*
X135554278Y-86409703D01*
X135552118Y-86424264D01*
X135548541Y-86438543D01*
X135543582Y-86452403D01*
X135537288Y-86465710D01*
X135529720Y-86478336D01*
X135520952Y-86490159D01*
X135511066Y-86501066D01*
X135500159Y-86510952D01*
X135488336Y-86519720D01*
X135475710Y-86527288D01*
X135462403Y-86533582D01*
X135448543Y-86538541D01*
X135434264Y-86542118D01*
X135419703Y-86544278D01*
X135405000Y-86545000D01*
X135105000Y-86545000D01*
X135090297Y-86544278D01*
X135075736Y-86542118D01*
X135061457Y-86538541D01*
X135047597Y-86533582D01*
X135034290Y-86527288D01*
X135021664Y-86519720D01*
X135009841Y-86510952D01*
X134998934Y-86501066D01*
X134989048Y-86490159D01*
X134980280Y-86478336D01*
X134972712Y-86465710D01*
X134966418Y-86452403D01*
X134961459Y-86438543D01*
X134957882Y-86424264D01*
X134955722Y-86409703D01*
X134955000Y-86395000D01*
X134955000Y-84645000D01*
X134955722Y-84630297D01*
X134957882Y-84615736D01*
X134961459Y-84601457D01*
X134966418Y-84587597D01*
X134972712Y-84574290D01*
X134980280Y-84561664D01*
X134989048Y-84549841D01*
X134998934Y-84538934D01*
X135009841Y-84529048D01*
X135021664Y-84520280D01*
X135034290Y-84512712D01*
X135047597Y-84506418D01*
X135061457Y-84501459D01*
X135075736Y-84497882D01*
X135090297Y-84495722D01*
X135105000Y-84495000D01*
X135405000Y-84495000D01*
X135419703Y-84495722D01*
G37*
G04 #@! TD.AperFunction*
G04 #@! TA.AperFunction,SMDPad,CuDef*
G36*
X135419703Y-93795722D02*
G01*
X135434264Y-93797882D01*
X135448543Y-93801459D01*
X135462403Y-93806418D01*
X135475710Y-93812712D01*
X135488336Y-93820280D01*
X135500159Y-93829048D01*
X135511066Y-93838934D01*
X135520952Y-93849841D01*
X135529720Y-93861664D01*
X135537288Y-93874290D01*
X135543582Y-93887597D01*
X135548541Y-93901457D01*
X135552118Y-93915736D01*
X135554278Y-93930297D01*
X135555000Y-93945000D01*
X135555000Y-95695000D01*
X135554278Y-95709703D01*
X135552118Y-95724264D01*
X135548541Y-95738543D01*
X135543582Y-95752403D01*
X135537288Y-95765710D01*
X135529720Y-95778336D01*
X135520952Y-95790159D01*
X135511066Y-95801066D01*
X135500159Y-95810952D01*
X135488336Y-95819720D01*
X135475710Y-95827288D01*
X135462403Y-95833582D01*
X135448543Y-95838541D01*
X135434264Y-95842118D01*
X135419703Y-95844278D01*
X135405000Y-95845000D01*
X135105000Y-95845000D01*
X135090297Y-95844278D01*
X135075736Y-95842118D01*
X135061457Y-95838541D01*
X135047597Y-95833582D01*
X135034290Y-95827288D01*
X135021664Y-95819720D01*
X135009841Y-95810952D01*
X134998934Y-95801066D01*
X134989048Y-95790159D01*
X134980280Y-95778336D01*
X134972712Y-95765710D01*
X134966418Y-95752403D01*
X134961459Y-95738543D01*
X134957882Y-95724264D01*
X134955722Y-95709703D01*
X134955000Y-95695000D01*
X134955000Y-93945000D01*
X134955722Y-93930297D01*
X134957882Y-93915736D01*
X134961459Y-93901457D01*
X134966418Y-93887597D01*
X134972712Y-93874290D01*
X134980280Y-93861664D01*
X134989048Y-93849841D01*
X134998934Y-93838934D01*
X135009841Y-93829048D01*
X135021664Y-93820280D01*
X135034290Y-93812712D01*
X135047597Y-93806418D01*
X135061457Y-93801459D01*
X135075736Y-93797882D01*
X135090297Y-93795722D01*
X135105000Y-93795000D01*
X135405000Y-93795000D01*
X135419703Y-93795722D01*
G37*
G04 #@! TD.AperFunction*
G04 #@! TA.AperFunction,SMDPad,CuDef*
G36*
X136689703Y-93795722D02*
G01*
X136704264Y-93797882D01*
X136718543Y-93801459D01*
X136732403Y-93806418D01*
X136745710Y-93812712D01*
X136758336Y-93820280D01*
X136770159Y-93829048D01*
X136781066Y-93838934D01*
X136790952Y-93849841D01*
X136799720Y-93861664D01*
X136807288Y-93874290D01*
X136813582Y-93887597D01*
X136818541Y-93901457D01*
X136822118Y-93915736D01*
X136824278Y-93930297D01*
X136825000Y-93945000D01*
X136825000Y-95695000D01*
X136824278Y-95709703D01*
X136822118Y-95724264D01*
X136818541Y-95738543D01*
X136813582Y-95752403D01*
X136807288Y-95765710D01*
X136799720Y-95778336D01*
X136790952Y-95790159D01*
X136781066Y-95801066D01*
X136770159Y-95810952D01*
X136758336Y-95819720D01*
X136745710Y-95827288D01*
X136732403Y-95833582D01*
X136718543Y-95838541D01*
X136704264Y-95842118D01*
X136689703Y-95844278D01*
X136675000Y-95845000D01*
X136375000Y-95845000D01*
X136360297Y-95844278D01*
X136345736Y-95842118D01*
X136331457Y-95838541D01*
X136317597Y-95833582D01*
X136304290Y-95827288D01*
X136291664Y-95819720D01*
X136279841Y-95810952D01*
X136268934Y-95801066D01*
X136259048Y-95790159D01*
X136250280Y-95778336D01*
X136242712Y-95765710D01*
X136236418Y-95752403D01*
X136231459Y-95738543D01*
X136227882Y-95724264D01*
X136225722Y-95709703D01*
X136225000Y-95695000D01*
X136225000Y-93945000D01*
X136225722Y-93930297D01*
X136227882Y-93915736D01*
X136231459Y-93901457D01*
X136236418Y-93887597D01*
X136242712Y-93874290D01*
X136250280Y-93861664D01*
X136259048Y-93849841D01*
X136268934Y-93838934D01*
X136279841Y-93829048D01*
X136291664Y-93820280D01*
X136304290Y-93812712D01*
X136317597Y-93806418D01*
X136331457Y-93801459D01*
X136345736Y-93797882D01*
X136360297Y-93795722D01*
X136375000Y-93795000D01*
X136675000Y-93795000D01*
X136689703Y-93795722D01*
G37*
G04 #@! TD.AperFunction*
G04 #@! TA.AperFunction,SMDPad,CuDef*
G36*
X137959703Y-93795722D02*
G01*
X137974264Y-93797882D01*
X137988543Y-93801459D01*
X138002403Y-93806418D01*
X138015710Y-93812712D01*
X138028336Y-93820280D01*
X138040159Y-93829048D01*
X138051066Y-93838934D01*
X138060952Y-93849841D01*
X138069720Y-93861664D01*
X138077288Y-93874290D01*
X138083582Y-93887597D01*
X138088541Y-93901457D01*
X138092118Y-93915736D01*
X138094278Y-93930297D01*
X138095000Y-93945000D01*
X138095000Y-95695000D01*
X138094278Y-95709703D01*
X138092118Y-95724264D01*
X138088541Y-95738543D01*
X138083582Y-95752403D01*
X138077288Y-95765710D01*
X138069720Y-95778336D01*
X138060952Y-95790159D01*
X138051066Y-95801066D01*
X138040159Y-95810952D01*
X138028336Y-95819720D01*
X138015710Y-95827288D01*
X138002403Y-95833582D01*
X137988543Y-95838541D01*
X137974264Y-95842118D01*
X137959703Y-95844278D01*
X137945000Y-95845000D01*
X137645000Y-95845000D01*
X137630297Y-95844278D01*
X137615736Y-95842118D01*
X137601457Y-95838541D01*
X137587597Y-95833582D01*
X137574290Y-95827288D01*
X137561664Y-95819720D01*
X137549841Y-95810952D01*
X137538934Y-95801066D01*
X137529048Y-95790159D01*
X137520280Y-95778336D01*
X137512712Y-95765710D01*
X137506418Y-95752403D01*
X137501459Y-95738543D01*
X137497882Y-95724264D01*
X137495722Y-95709703D01*
X137495000Y-95695000D01*
X137495000Y-93945000D01*
X137495722Y-93930297D01*
X137497882Y-93915736D01*
X137501459Y-93901457D01*
X137506418Y-93887597D01*
X137512712Y-93874290D01*
X137520280Y-93861664D01*
X137529048Y-93849841D01*
X137538934Y-93838934D01*
X137549841Y-93829048D01*
X137561664Y-93820280D01*
X137574290Y-93812712D01*
X137587597Y-93806418D01*
X137601457Y-93801459D01*
X137615736Y-93797882D01*
X137630297Y-93795722D01*
X137645000Y-93795000D01*
X137945000Y-93795000D01*
X137959703Y-93795722D01*
G37*
G04 #@! TD.AperFunction*
G04 #@! TA.AperFunction,SMDPad,CuDef*
G36*
X139229703Y-93795722D02*
G01*
X139244264Y-93797882D01*
X139258543Y-93801459D01*
X139272403Y-93806418D01*
X139285710Y-93812712D01*
X139298336Y-93820280D01*
X139310159Y-93829048D01*
X139321066Y-93838934D01*
X139330952Y-93849841D01*
X139339720Y-93861664D01*
X139347288Y-93874290D01*
X139353582Y-93887597D01*
X139358541Y-93901457D01*
X139362118Y-93915736D01*
X139364278Y-93930297D01*
X139365000Y-93945000D01*
X139365000Y-95695000D01*
X139364278Y-95709703D01*
X139362118Y-95724264D01*
X139358541Y-95738543D01*
X139353582Y-95752403D01*
X139347288Y-95765710D01*
X139339720Y-95778336D01*
X139330952Y-95790159D01*
X139321066Y-95801066D01*
X139310159Y-95810952D01*
X139298336Y-95819720D01*
X139285710Y-95827288D01*
X139272403Y-95833582D01*
X139258543Y-95838541D01*
X139244264Y-95842118D01*
X139229703Y-95844278D01*
X139215000Y-95845000D01*
X138915000Y-95845000D01*
X138900297Y-95844278D01*
X138885736Y-95842118D01*
X138871457Y-95838541D01*
X138857597Y-95833582D01*
X138844290Y-95827288D01*
X138831664Y-95819720D01*
X138819841Y-95810952D01*
X138808934Y-95801066D01*
X138799048Y-95790159D01*
X138790280Y-95778336D01*
X138782712Y-95765710D01*
X138776418Y-95752403D01*
X138771459Y-95738543D01*
X138767882Y-95724264D01*
X138765722Y-95709703D01*
X138765000Y-95695000D01*
X138765000Y-93945000D01*
X138765722Y-93930297D01*
X138767882Y-93915736D01*
X138771459Y-93901457D01*
X138776418Y-93887597D01*
X138782712Y-93874290D01*
X138790280Y-93861664D01*
X138799048Y-93849841D01*
X138808934Y-93838934D01*
X138819841Y-93829048D01*
X138831664Y-93820280D01*
X138844290Y-93812712D01*
X138857597Y-93806418D01*
X138871457Y-93801459D01*
X138885736Y-93797882D01*
X138900297Y-93795722D01*
X138915000Y-93795000D01*
X139215000Y-93795000D01*
X139229703Y-93795722D01*
G37*
G04 #@! TD.AperFunction*
G04 #@! TA.AperFunction,SMDPad,CuDef*
G36*
X140499703Y-93795722D02*
G01*
X140514264Y-93797882D01*
X140528543Y-93801459D01*
X140542403Y-93806418D01*
X140555710Y-93812712D01*
X140568336Y-93820280D01*
X140580159Y-93829048D01*
X140591066Y-93838934D01*
X140600952Y-93849841D01*
X140609720Y-93861664D01*
X140617288Y-93874290D01*
X140623582Y-93887597D01*
X140628541Y-93901457D01*
X140632118Y-93915736D01*
X140634278Y-93930297D01*
X140635000Y-93945000D01*
X140635000Y-95695000D01*
X140634278Y-95709703D01*
X140632118Y-95724264D01*
X140628541Y-95738543D01*
X140623582Y-95752403D01*
X140617288Y-95765710D01*
X140609720Y-95778336D01*
X140600952Y-95790159D01*
X140591066Y-95801066D01*
X140580159Y-95810952D01*
X140568336Y-95819720D01*
X140555710Y-95827288D01*
X140542403Y-95833582D01*
X140528543Y-95838541D01*
X140514264Y-95842118D01*
X140499703Y-95844278D01*
X140485000Y-95845000D01*
X140185000Y-95845000D01*
X140170297Y-95844278D01*
X140155736Y-95842118D01*
X140141457Y-95838541D01*
X140127597Y-95833582D01*
X140114290Y-95827288D01*
X140101664Y-95819720D01*
X140089841Y-95810952D01*
X140078934Y-95801066D01*
X140069048Y-95790159D01*
X140060280Y-95778336D01*
X140052712Y-95765710D01*
X140046418Y-95752403D01*
X140041459Y-95738543D01*
X140037882Y-95724264D01*
X140035722Y-95709703D01*
X140035000Y-95695000D01*
X140035000Y-93945000D01*
X140035722Y-93930297D01*
X140037882Y-93915736D01*
X140041459Y-93901457D01*
X140046418Y-93887597D01*
X140052712Y-93874290D01*
X140060280Y-93861664D01*
X140069048Y-93849841D01*
X140078934Y-93838934D01*
X140089841Y-93829048D01*
X140101664Y-93820280D01*
X140114290Y-93812712D01*
X140127597Y-93806418D01*
X140141457Y-93801459D01*
X140155736Y-93797882D01*
X140170297Y-93795722D01*
X140185000Y-93795000D01*
X140485000Y-93795000D01*
X140499703Y-93795722D01*
G37*
G04 #@! TD.AperFunction*
G04 #@! TA.AperFunction,SMDPad,CuDef*
G36*
X141769703Y-93795722D02*
G01*
X141784264Y-93797882D01*
X141798543Y-93801459D01*
X141812403Y-93806418D01*
X141825710Y-93812712D01*
X141838336Y-93820280D01*
X141850159Y-93829048D01*
X141861066Y-93838934D01*
X141870952Y-93849841D01*
X141879720Y-93861664D01*
X141887288Y-93874290D01*
X141893582Y-93887597D01*
X141898541Y-93901457D01*
X141902118Y-93915736D01*
X141904278Y-93930297D01*
X141905000Y-93945000D01*
X141905000Y-95695000D01*
X141904278Y-95709703D01*
X141902118Y-95724264D01*
X141898541Y-95738543D01*
X141893582Y-95752403D01*
X141887288Y-95765710D01*
X141879720Y-95778336D01*
X141870952Y-95790159D01*
X141861066Y-95801066D01*
X141850159Y-95810952D01*
X141838336Y-95819720D01*
X141825710Y-95827288D01*
X141812403Y-95833582D01*
X141798543Y-95838541D01*
X141784264Y-95842118D01*
X141769703Y-95844278D01*
X141755000Y-95845000D01*
X141455000Y-95845000D01*
X141440297Y-95844278D01*
X141425736Y-95842118D01*
X141411457Y-95838541D01*
X141397597Y-95833582D01*
X141384290Y-95827288D01*
X141371664Y-95819720D01*
X141359841Y-95810952D01*
X141348934Y-95801066D01*
X141339048Y-95790159D01*
X141330280Y-95778336D01*
X141322712Y-95765710D01*
X141316418Y-95752403D01*
X141311459Y-95738543D01*
X141307882Y-95724264D01*
X141305722Y-95709703D01*
X141305000Y-95695000D01*
X141305000Y-93945000D01*
X141305722Y-93930297D01*
X141307882Y-93915736D01*
X141311459Y-93901457D01*
X141316418Y-93887597D01*
X141322712Y-93874290D01*
X141330280Y-93861664D01*
X141339048Y-93849841D01*
X141348934Y-93838934D01*
X141359841Y-93829048D01*
X141371664Y-93820280D01*
X141384290Y-93812712D01*
X141397597Y-93806418D01*
X141411457Y-93801459D01*
X141425736Y-93797882D01*
X141440297Y-93795722D01*
X141455000Y-93795000D01*
X141755000Y-93795000D01*
X141769703Y-93795722D01*
G37*
G04 #@! TD.AperFunction*
G04 #@! TA.AperFunction,SMDPad,CuDef*
G36*
X143039703Y-93795722D02*
G01*
X143054264Y-93797882D01*
X143068543Y-93801459D01*
X143082403Y-93806418D01*
X143095710Y-93812712D01*
X143108336Y-93820280D01*
X143120159Y-93829048D01*
X143131066Y-93838934D01*
X143140952Y-93849841D01*
X143149720Y-93861664D01*
X143157288Y-93874290D01*
X143163582Y-93887597D01*
X143168541Y-93901457D01*
X143172118Y-93915736D01*
X143174278Y-93930297D01*
X143175000Y-93945000D01*
X143175000Y-95695000D01*
X143174278Y-95709703D01*
X143172118Y-95724264D01*
X143168541Y-95738543D01*
X143163582Y-95752403D01*
X143157288Y-95765710D01*
X143149720Y-95778336D01*
X143140952Y-95790159D01*
X143131066Y-95801066D01*
X143120159Y-95810952D01*
X143108336Y-95819720D01*
X143095710Y-95827288D01*
X143082403Y-95833582D01*
X143068543Y-95838541D01*
X143054264Y-95842118D01*
X143039703Y-95844278D01*
X143025000Y-95845000D01*
X142725000Y-95845000D01*
X142710297Y-95844278D01*
X142695736Y-95842118D01*
X142681457Y-95838541D01*
X142667597Y-95833582D01*
X142654290Y-95827288D01*
X142641664Y-95819720D01*
X142629841Y-95810952D01*
X142618934Y-95801066D01*
X142609048Y-95790159D01*
X142600280Y-95778336D01*
X142592712Y-95765710D01*
X142586418Y-95752403D01*
X142581459Y-95738543D01*
X142577882Y-95724264D01*
X142575722Y-95709703D01*
X142575000Y-95695000D01*
X142575000Y-93945000D01*
X142575722Y-93930297D01*
X142577882Y-93915736D01*
X142581459Y-93901457D01*
X142586418Y-93887597D01*
X142592712Y-93874290D01*
X142600280Y-93861664D01*
X142609048Y-93849841D01*
X142618934Y-93838934D01*
X142629841Y-93829048D01*
X142641664Y-93820280D01*
X142654290Y-93812712D01*
X142667597Y-93806418D01*
X142681457Y-93801459D01*
X142695736Y-93797882D01*
X142710297Y-93795722D01*
X142725000Y-93795000D01*
X143025000Y-93795000D01*
X143039703Y-93795722D01*
G37*
G04 #@! TD.AperFunction*
G04 #@! TA.AperFunction,SMDPad,CuDef*
G36*
X144309703Y-93795722D02*
G01*
X144324264Y-93797882D01*
X144338543Y-93801459D01*
X144352403Y-93806418D01*
X144365710Y-93812712D01*
X144378336Y-93820280D01*
X144390159Y-93829048D01*
X144401066Y-93838934D01*
X144410952Y-93849841D01*
X144419720Y-93861664D01*
X144427288Y-93874290D01*
X144433582Y-93887597D01*
X144438541Y-93901457D01*
X144442118Y-93915736D01*
X144444278Y-93930297D01*
X144445000Y-93945000D01*
X144445000Y-95695000D01*
X144444278Y-95709703D01*
X144442118Y-95724264D01*
X144438541Y-95738543D01*
X144433582Y-95752403D01*
X144427288Y-95765710D01*
X144419720Y-95778336D01*
X144410952Y-95790159D01*
X144401066Y-95801066D01*
X144390159Y-95810952D01*
X144378336Y-95819720D01*
X144365710Y-95827288D01*
X144352403Y-95833582D01*
X144338543Y-95838541D01*
X144324264Y-95842118D01*
X144309703Y-95844278D01*
X144295000Y-95845000D01*
X143995000Y-95845000D01*
X143980297Y-95844278D01*
X143965736Y-95842118D01*
X143951457Y-95838541D01*
X143937597Y-95833582D01*
X143924290Y-95827288D01*
X143911664Y-95819720D01*
X143899841Y-95810952D01*
X143888934Y-95801066D01*
X143879048Y-95790159D01*
X143870280Y-95778336D01*
X143862712Y-95765710D01*
X143856418Y-95752403D01*
X143851459Y-95738543D01*
X143847882Y-95724264D01*
X143845722Y-95709703D01*
X143845000Y-95695000D01*
X143845000Y-93945000D01*
X143845722Y-93930297D01*
X143847882Y-93915736D01*
X143851459Y-93901457D01*
X143856418Y-93887597D01*
X143862712Y-93874290D01*
X143870280Y-93861664D01*
X143879048Y-93849841D01*
X143888934Y-93838934D01*
X143899841Y-93829048D01*
X143911664Y-93820280D01*
X143924290Y-93812712D01*
X143937597Y-93806418D01*
X143951457Y-93801459D01*
X143965736Y-93797882D01*
X143980297Y-93795722D01*
X143995000Y-93795000D01*
X144295000Y-93795000D01*
X144309703Y-93795722D01*
G37*
G04 #@! TD.AperFunction*
G04 #@! TA.AperFunction,SMDPad,CuDef*
G36*
X145579703Y-93795722D02*
G01*
X145594264Y-93797882D01*
X145608543Y-93801459D01*
X145622403Y-93806418D01*
X145635710Y-93812712D01*
X145648336Y-93820280D01*
X145660159Y-93829048D01*
X145671066Y-93838934D01*
X145680952Y-93849841D01*
X145689720Y-93861664D01*
X145697288Y-93874290D01*
X145703582Y-93887597D01*
X145708541Y-93901457D01*
X145712118Y-93915736D01*
X145714278Y-93930297D01*
X145715000Y-93945000D01*
X145715000Y-95695000D01*
X145714278Y-95709703D01*
X145712118Y-95724264D01*
X145708541Y-95738543D01*
X145703582Y-95752403D01*
X145697288Y-95765710D01*
X145689720Y-95778336D01*
X145680952Y-95790159D01*
X145671066Y-95801066D01*
X145660159Y-95810952D01*
X145648336Y-95819720D01*
X145635710Y-95827288D01*
X145622403Y-95833582D01*
X145608543Y-95838541D01*
X145594264Y-95842118D01*
X145579703Y-95844278D01*
X145565000Y-95845000D01*
X145265000Y-95845000D01*
X145250297Y-95844278D01*
X145235736Y-95842118D01*
X145221457Y-95838541D01*
X145207597Y-95833582D01*
X145194290Y-95827288D01*
X145181664Y-95819720D01*
X145169841Y-95810952D01*
X145158934Y-95801066D01*
X145149048Y-95790159D01*
X145140280Y-95778336D01*
X145132712Y-95765710D01*
X145126418Y-95752403D01*
X145121459Y-95738543D01*
X145117882Y-95724264D01*
X145115722Y-95709703D01*
X145115000Y-95695000D01*
X145115000Y-93945000D01*
X145115722Y-93930297D01*
X145117882Y-93915736D01*
X145121459Y-93901457D01*
X145126418Y-93887597D01*
X145132712Y-93874290D01*
X145140280Y-93861664D01*
X145149048Y-93849841D01*
X145158934Y-93838934D01*
X145169841Y-93829048D01*
X145181664Y-93820280D01*
X145194290Y-93812712D01*
X145207597Y-93806418D01*
X145221457Y-93801459D01*
X145235736Y-93797882D01*
X145250297Y-93795722D01*
X145265000Y-93795000D01*
X145565000Y-93795000D01*
X145579703Y-93795722D01*
G37*
G04 #@! TD.AperFunction*
G04 #@! TA.AperFunction,SMDPad,CuDef*
G36*
X146849703Y-93795722D02*
G01*
X146864264Y-93797882D01*
X146878543Y-93801459D01*
X146892403Y-93806418D01*
X146905710Y-93812712D01*
X146918336Y-93820280D01*
X146930159Y-93829048D01*
X146941066Y-93838934D01*
X146950952Y-93849841D01*
X146959720Y-93861664D01*
X146967288Y-93874290D01*
X146973582Y-93887597D01*
X146978541Y-93901457D01*
X146982118Y-93915736D01*
X146984278Y-93930297D01*
X146985000Y-93945000D01*
X146985000Y-95695000D01*
X146984278Y-95709703D01*
X146982118Y-95724264D01*
X146978541Y-95738543D01*
X146973582Y-95752403D01*
X146967288Y-95765710D01*
X146959720Y-95778336D01*
X146950952Y-95790159D01*
X146941066Y-95801066D01*
X146930159Y-95810952D01*
X146918336Y-95819720D01*
X146905710Y-95827288D01*
X146892403Y-95833582D01*
X146878543Y-95838541D01*
X146864264Y-95842118D01*
X146849703Y-95844278D01*
X146835000Y-95845000D01*
X146535000Y-95845000D01*
X146520297Y-95844278D01*
X146505736Y-95842118D01*
X146491457Y-95838541D01*
X146477597Y-95833582D01*
X146464290Y-95827288D01*
X146451664Y-95819720D01*
X146439841Y-95810952D01*
X146428934Y-95801066D01*
X146419048Y-95790159D01*
X146410280Y-95778336D01*
X146402712Y-95765710D01*
X146396418Y-95752403D01*
X146391459Y-95738543D01*
X146387882Y-95724264D01*
X146385722Y-95709703D01*
X146385000Y-95695000D01*
X146385000Y-93945000D01*
X146385722Y-93930297D01*
X146387882Y-93915736D01*
X146391459Y-93901457D01*
X146396418Y-93887597D01*
X146402712Y-93874290D01*
X146410280Y-93861664D01*
X146419048Y-93849841D01*
X146428934Y-93838934D01*
X146439841Y-93829048D01*
X146451664Y-93820280D01*
X146464290Y-93812712D01*
X146477597Y-93806418D01*
X146491457Y-93801459D01*
X146505736Y-93797882D01*
X146520297Y-93795722D01*
X146535000Y-93795000D01*
X146835000Y-93795000D01*
X146849703Y-93795722D01*
G37*
G04 #@! TD.AperFunction*
G04 #@! TA.AperFunction,SMDPad,CuDef*
G36*
X148119703Y-93795722D02*
G01*
X148134264Y-93797882D01*
X148148543Y-93801459D01*
X148162403Y-93806418D01*
X148175710Y-93812712D01*
X148188336Y-93820280D01*
X148200159Y-93829048D01*
X148211066Y-93838934D01*
X148220952Y-93849841D01*
X148229720Y-93861664D01*
X148237288Y-93874290D01*
X148243582Y-93887597D01*
X148248541Y-93901457D01*
X148252118Y-93915736D01*
X148254278Y-93930297D01*
X148255000Y-93945000D01*
X148255000Y-95695000D01*
X148254278Y-95709703D01*
X148252118Y-95724264D01*
X148248541Y-95738543D01*
X148243582Y-95752403D01*
X148237288Y-95765710D01*
X148229720Y-95778336D01*
X148220952Y-95790159D01*
X148211066Y-95801066D01*
X148200159Y-95810952D01*
X148188336Y-95819720D01*
X148175710Y-95827288D01*
X148162403Y-95833582D01*
X148148543Y-95838541D01*
X148134264Y-95842118D01*
X148119703Y-95844278D01*
X148105000Y-95845000D01*
X147805000Y-95845000D01*
X147790297Y-95844278D01*
X147775736Y-95842118D01*
X147761457Y-95838541D01*
X147747597Y-95833582D01*
X147734290Y-95827288D01*
X147721664Y-95819720D01*
X147709841Y-95810952D01*
X147698934Y-95801066D01*
X147689048Y-95790159D01*
X147680280Y-95778336D01*
X147672712Y-95765710D01*
X147666418Y-95752403D01*
X147661459Y-95738543D01*
X147657882Y-95724264D01*
X147655722Y-95709703D01*
X147655000Y-95695000D01*
X147655000Y-93945000D01*
X147655722Y-93930297D01*
X147657882Y-93915736D01*
X147661459Y-93901457D01*
X147666418Y-93887597D01*
X147672712Y-93874290D01*
X147680280Y-93861664D01*
X147689048Y-93849841D01*
X147698934Y-93838934D01*
X147709841Y-93829048D01*
X147721664Y-93820280D01*
X147734290Y-93812712D01*
X147747597Y-93806418D01*
X147761457Y-93801459D01*
X147775736Y-93797882D01*
X147790297Y-93795722D01*
X147805000Y-93795000D01*
X148105000Y-93795000D01*
X148119703Y-93795722D01*
G37*
G04 #@! TD.AperFunction*
G04 #@! TA.AperFunction,SMDPad,CuDef*
G36*
X149389703Y-93795722D02*
G01*
X149404264Y-93797882D01*
X149418543Y-93801459D01*
X149432403Y-93806418D01*
X149445710Y-93812712D01*
X149458336Y-93820280D01*
X149470159Y-93829048D01*
X149481066Y-93838934D01*
X149490952Y-93849841D01*
X149499720Y-93861664D01*
X149507288Y-93874290D01*
X149513582Y-93887597D01*
X149518541Y-93901457D01*
X149522118Y-93915736D01*
X149524278Y-93930297D01*
X149525000Y-93945000D01*
X149525000Y-95695000D01*
X149524278Y-95709703D01*
X149522118Y-95724264D01*
X149518541Y-95738543D01*
X149513582Y-95752403D01*
X149507288Y-95765710D01*
X149499720Y-95778336D01*
X149490952Y-95790159D01*
X149481066Y-95801066D01*
X149470159Y-95810952D01*
X149458336Y-95819720D01*
X149445710Y-95827288D01*
X149432403Y-95833582D01*
X149418543Y-95838541D01*
X149404264Y-95842118D01*
X149389703Y-95844278D01*
X149375000Y-95845000D01*
X149075000Y-95845000D01*
X149060297Y-95844278D01*
X149045736Y-95842118D01*
X149031457Y-95838541D01*
X149017597Y-95833582D01*
X149004290Y-95827288D01*
X148991664Y-95819720D01*
X148979841Y-95810952D01*
X148968934Y-95801066D01*
X148959048Y-95790159D01*
X148950280Y-95778336D01*
X148942712Y-95765710D01*
X148936418Y-95752403D01*
X148931459Y-95738543D01*
X148927882Y-95724264D01*
X148925722Y-95709703D01*
X148925000Y-95695000D01*
X148925000Y-93945000D01*
X148925722Y-93930297D01*
X148927882Y-93915736D01*
X148931459Y-93901457D01*
X148936418Y-93887597D01*
X148942712Y-93874290D01*
X148950280Y-93861664D01*
X148959048Y-93849841D01*
X148968934Y-93838934D01*
X148979841Y-93829048D01*
X148991664Y-93820280D01*
X149004290Y-93812712D01*
X149017597Y-93806418D01*
X149031457Y-93801459D01*
X149045736Y-93797882D01*
X149060297Y-93795722D01*
X149075000Y-93795000D01*
X149375000Y-93795000D01*
X149389703Y-93795722D01*
G37*
G04 #@! TD.AperFunction*
D11*
X108331000Y-60325000D03*
X108331000Y-57785000D03*
X108331000Y-55245000D03*
D12*
X108331000Y-52705000D03*
G04 #@! TA.AperFunction,SMDPad,CuDef*
D10*
G36*
X118275505Y-100647204D02*
G01*
X118299773Y-100650804D01*
X118323572Y-100656765D01*
X118346671Y-100665030D01*
X118368850Y-100675520D01*
X118389893Y-100688132D01*
X118409599Y-100702747D01*
X118427777Y-100719223D01*
X118444253Y-100737401D01*
X118458868Y-100757107D01*
X118471480Y-100778150D01*
X118481970Y-100800329D01*
X118490235Y-100823428D01*
X118496196Y-100847227D01*
X118499796Y-100871495D01*
X118501000Y-100895999D01*
X118501000Y-101796001D01*
X118499796Y-101820505D01*
X118496196Y-101844773D01*
X118490235Y-101868572D01*
X118481970Y-101891671D01*
X118471480Y-101913850D01*
X118458868Y-101934893D01*
X118444253Y-101954599D01*
X118427777Y-101972777D01*
X118409599Y-101989253D01*
X118389893Y-102003868D01*
X118368850Y-102016480D01*
X118346671Y-102026970D01*
X118323572Y-102035235D01*
X118299773Y-102041196D01*
X118275505Y-102044796D01*
X118251001Y-102046000D01*
X117600999Y-102046000D01*
X117576495Y-102044796D01*
X117552227Y-102041196D01*
X117528428Y-102035235D01*
X117505329Y-102026970D01*
X117483150Y-102016480D01*
X117462107Y-102003868D01*
X117442401Y-101989253D01*
X117424223Y-101972777D01*
X117407747Y-101954599D01*
X117393132Y-101934893D01*
X117380520Y-101913850D01*
X117370030Y-101891671D01*
X117361765Y-101868572D01*
X117355804Y-101844773D01*
X117352204Y-101820505D01*
X117351000Y-101796001D01*
X117351000Y-100895999D01*
X117352204Y-100871495D01*
X117355804Y-100847227D01*
X117361765Y-100823428D01*
X117370030Y-100800329D01*
X117380520Y-100778150D01*
X117393132Y-100757107D01*
X117407747Y-100737401D01*
X117424223Y-100719223D01*
X117442401Y-100702747D01*
X117462107Y-100688132D01*
X117483150Y-100675520D01*
X117505329Y-100665030D01*
X117528428Y-100656765D01*
X117552227Y-100650804D01*
X117576495Y-100647204D01*
X117600999Y-100646000D01*
X118251001Y-100646000D01*
X118275505Y-100647204D01*
G37*
G04 #@! TD.AperFunction*
G04 #@! TA.AperFunction,SMDPad,CuDef*
G36*
X116225505Y-100647204D02*
G01*
X116249773Y-100650804D01*
X116273572Y-100656765D01*
X116296671Y-100665030D01*
X116318850Y-100675520D01*
X116339893Y-100688132D01*
X116359599Y-100702747D01*
X116377777Y-100719223D01*
X116394253Y-100737401D01*
X116408868Y-100757107D01*
X116421480Y-100778150D01*
X116431970Y-100800329D01*
X116440235Y-100823428D01*
X116446196Y-100847227D01*
X116449796Y-100871495D01*
X116451000Y-100895999D01*
X116451000Y-101796001D01*
X116449796Y-101820505D01*
X116446196Y-101844773D01*
X116440235Y-101868572D01*
X116431970Y-101891671D01*
X116421480Y-101913850D01*
X116408868Y-101934893D01*
X116394253Y-101954599D01*
X116377777Y-101972777D01*
X116359599Y-101989253D01*
X116339893Y-102003868D01*
X116318850Y-102016480D01*
X116296671Y-102026970D01*
X116273572Y-102035235D01*
X116249773Y-102041196D01*
X116225505Y-102044796D01*
X116201001Y-102046000D01*
X115550999Y-102046000D01*
X115526495Y-102044796D01*
X115502227Y-102041196D01*
X115478428Y-102035235D01*
X115455329Y-102026970D01*
X115433150Y-102016480D01*
X115412107Y-102003868D01*
X115392401Y-101989253D01*
X115374223Y-101972777D01*
X115357747Y-101954599D01*
X115343132Y-101934893D01*
X115330520Y-101913850D01*
X115320030Y-101891671D01*
X115311765Y-101868572D01*
X115305804Y-101844773D01*
X115302204Y-101820505D01*
X115301000Y-101796001D01*
X115301000Y-100895999D01*
X115302204Y-100871495D01*
X115305804Y-100847227D01*
X115311765Y-100823428D01*
X115320030Y-100800329D01*
X115330520Y-100778150D01*
X115343132Y-100757107D01*
X115357747Y-100737401D01*
X115374223Y-100719223D01*
X115392401Y-100702747D01*
X115412107Y-100688132D01*
X115433150Y-100675520D01*
X115455329Y-100665030D01*
X115478428Y-100656765D01*
X115502227Y-100650804D01*
X115526495Y-100647204D01*
X115550999Y-100646000D01*
X116201001Y-100646000D01*
X116225505Y-100647204D01*
G37*
G04 #@! TD.AperFunction*
G04 #@! TA.AperFunction,SMDPad,CuDef*
G36*
X122976505Y-51117204D02*
G01*
X123000773Y-51120804D01*
X123024572Y-51126765D01*
X123047671Y-51135030D01*
X123069850Y-51145520D01*
X123090893Y-51158132D01*
X123110599Y-51172747D01*
X123128777Y-51189223D01*
X123145253Y-51207401D01*
X123159868Y-51227107D01*
X123172480Y-51248150D01*
X123182970Y-51270329D01*
X123191235Y-51293428D01*
X123197196Y-51317227D01*
X123200796Y-51341495D01*
X123202000Y-51365999D01*
X123202000Y-52266001D01*
X123200796Y-52290505D01*
X123197196Y-52314773D01*
X123191235Y-52338572D01*
X123182970Y-52361671D01*
X123172480Y-52383850D01*
X123159868Y-52404893D01*
X123145253Y-52424599D01*
X123128777Y-52442777D01*
X123110599Y-52459253D01*
X123090893Y-52473868D01*
X123069850Y-52486480D01*
X123047671Y-52496970D01*
X123024572Y-52505235D01*
X123000773Y-52511196D01*
X122976505Y-52514796D01*
X122952001Y-52516000D01*
X122301999Y-52516000D01*
X122277495Y-52514796D01*
X122253227Y-52511196D01*
X122229428Y-52505235D01*
X122206329Y-52496970D01*
X122184150Y-52486480D01*
X122163107Y-52473868D01*
X122143401Y-52459253D01*
X122125223Y-52442777D01*
X122108747Y-52424599D01*
X122094132Y-52404893D01*
X122081520Y-52383850D01*
X122071030Y-52361671D01*
X122062765Y-52338572D01*
X122056804Y-52314773D01*
X122053204Y-52290505D01*
X122052000Y-52266001D01*
X122052000Y-51365999D01*
X122053204Y-51341495D01*
X122056804Y-51317227D01*
X122062765Y-51293428D01*
X122071030Y-51270329D01*
X122081520Y-51248150D01*
X122094132Y-51227107D01*
X122108747Y-51207401D01*
X122125223Y-51189223D01*
X122143401Y-51172747D01*
X122163107Y-51158132D01*
X122184150Y-51145520D01*
X122206329Y-51135030D01*
X122229428Y-51126765D01*
X122253227Y-51120804D01*
X122277495Y-51117204D01*
X122301999Y-51116000D01*
X122952001Y-51116000D01*
X122976505Y-51117204D01*
G37*
G04 #@! TD.AperFunction*
G04 #@! TA.AperFunction,SMDPad,CuDef*
G36*
X120926505Y-51117204D02*
G01*
X120950773Y-51120804D01*
X120974572Y-51126765D01*
X120997671Y-51135030D01*
X121019850Y-51145520D01*
X121040893Y-51158132D01*
X121060599Y-51172747D01*
X121078777Y-51189223D01*
X121095253Y-51207401D01*
X121109868Y-51227107D01*
X121122480Y-51248150D01*
X121132970Y-51270329D01*
X121141235Y-51293428D01*
X121147196Y-51317227D01*
X121150796Y-51341495D01*
X121152000Y-51365999D01*
X121152000Y-52266001D01*
X121150796Y-52290505D01*
X121147196Y-52314773D01*
X121141235Y-52338572D01*
X121132970Y-52361671D01*
X121122480Y-52383850D01*
X121109868Y-52404893D01*
X121095253Y-52424599D01*
X121078777Y-52442777D01*
X121060599Y-52459253D01*
X121040893Y-52473868D01*
X121019850Y-52486480D01*
X120997671Y-52496970D01*
X120974572Y-52505235D01*
X120950773Y-52511196D01*
X120926505Y-52514796D01*
X120902001Y-52516000D01*
X120251999Y-52516000D01*
X120227495Y-52514796D01*
X120203227Y-52511196D01*
X120179428Y-52505235D01*
X120156329Y-52496970D01*
X120134150Y-52486480D01*
X120113107Y-52473868D01*
X120093401Y-52459253D01*
X120075223Y-52442777D01*
X120058747Y-52424599D01*
X120044132Y-52404893D01*
X120031520Y-52383850D01*
X120021030Y-52361671D01*
X120012765Y-52338572D01*
X120006804Y-52314773D01*
X120003204Y-52290505D01*
X120002000Y-52266001D01*
X120002000Y-51365999D01*
X120003204Y-51341495D01*
X120006804Y-51317227D01*
X120012765Y-51293428D01*
X120021030Y-51270329D01*
X120031520Y-51248150D01*
X120044132Y-51227107D01*
X120058747Y-51207401D01*
X120075223Y-51189223D01*
X120093401Y-51172747D01*
X120113107Y-51158132D01*
X120134150Y-51145520D01*
X120156329Y-51135030D01*
X120179428Y-51126765D01*
X120203227Y-51120804D01*
X120227495Y-51117204D01*
X120251999Y-51116000D01*
X120902001Y-51116000D01*
X120926505Y-51117204D01*
G37*
G04 #@! TD.AperFunction*
G04 #@! TA.AperFunction,SMDPad,CuDef*
G36*
X122976505Y-53339704D02*
G01*
X123000773Y-53343304D01*
X123024572Y-53349265D01*
X123047671Y-53357530D01*
X123069850Y-53368020D01*
X123090893Y-53380632D01*
X123110599Y-53395247D01*
X123128777Y-53411723D01*
X123145253Y-53429901D01*
X123159868Y-53449607D01*
X123172480Y-53470650D01*
X123182970Y-53492829D01*
X123191235Y-53515928D01*
X123197196Y-53539727D01*
X123200796Y-53563995D01*
X123202000Y-53588499D01*
X123202000Y-54488501D01*
X123200796Y-54513005D01*
X123197196Y-54537273D01*
X123191235Y-54561072D01*
X123182970Y-54584171D01*
X123172480Y-54606350D01*
X123159868Y-54627393D01*
X123145253Y-54647099D01*
X123128777Y-54665277D01*
X123110599Y-54681753D01*
X123090893Y-54696368D01*
X123069850Y-54708980D01*
X123047671Y-54719470D01*
X123024572Y-54727735D01*
X123000773Y-54733696D01*
X122976505Y-54737296D01*
X122952001Y-54738500D01*
X122301999Y-54738500D01*
X122277495Y-54737296D01*
X122253227Y-54733696D01*
X122229428Y-54727735D01*
X122206329Y-54719470D01*
X122184150Y-54708980D01*
X122163107Y-54696368D01*
X122143401Y-54681753D01*
X122125223Y-54665277D01*
X122108747Y-54647099D01*
X122094132Y-54627393D01*
X122081520Y-54606350D01*
X122071030Y-54584171D01*
X122062765Y-54561072D01*
X122056804Y-54537273D01*
X122053204Y-54513005D01*
X122052000Y-54488501D01*
X122052000Y-53588499D01*
X122053204Y-53563995D01*
X122056804Y-53539727D01*
X122062765Y-53515928D01*
X122071030Y-53492829D01*
X122081520Y-53470650D01*
X122094132Y-53449607D01*
X122108747Y-53429901D01*
X122125223Y-53411723D01*
X122143401Y-53395247D01*
X122163107Y-53380632D01*
X122184150Y-53368020D01*
X122206329Y-53357530D01*
X122229428Y-53349265D01*
X122253227Y-53343304D01*
X122277495Y-53339704D01*
X122301999Y-53338500D01*
X122952001Y-53338500D01*
X122976505Y-53339704D01*
G37*
G04 #@! TD.AperFunction*
G04 #@! TA.AperFunction,SMDPad,CuDef*
G36*
X120926505Y-53339704D02*
G01*
X120950773Y-53343304D01*
X120974572Y-53349265D01*
X120997671Y-53357530D01*
X121019850Y-53368020D01*
X121040893Y-53380632D01*
X121060599Y-53395247D01*
X121078777Y-53411723D01*
X121095253Y-53429901D01*
X121109868Y-53449607D01*
X121122480Y-53470650D01*
X121132970Y-53492829D01*
X121141235Y-53515928D01*
X121147196Y-53539727D01*
X121150796Y-53563995D01*
X121152000Y-53588499D01*
X121152000Y-54488501D01*
X121150796Y-54513005D01*
X121147196Y-54537273D01*
X121141235Y-54561072D01*
X121132970Y-54584171D01*
X121122480Y-54606350D01*
X121109868Y-54627393D01*
X121095253Y-54647099D01*
X121078777Y-54665277D01*
X121060599Y-54681753D01*
X121040893Y-54696368D01*
X121019850Y-54708980D01*
X120997671Y-54719470D01*
X120974572Y-54727735D01*
X120950773Y-54733696D01*
X120926505Y-54737296D01*
X120902001Y-54738500D01*
X120251999Y-54738500D01*
X120227495Y-54737296D01*
X120203227Y-54733696D01*
X120179428Y-54727735D01*
X120156329Y-54719470D01*
X120134150Y-54708980D01*
X120113107Y-54696368D01*
X120093401Y-54681753D01*
X120075223Y-54665277D01*
X120058747Y-54647099D01*
X120044132Y-54627393D01*
X120031520Y-54606350D01*
X120021030Y-54584171D01*
X120012765Y-54561072D01*
X120006804Y-54537273D01*
X120003204Y-54513005D01*
X120002000Y-54488501D01*
X120002000Y-53588499D01*
X120003204Y-53563995D01*
X120006804Y-53539727D01*
X120012765Y-53515928D01*
X120021030Y-53492829D01*
X120031520Y-53470650D01*
X120044132Y-53449607D01*
X120058747Y-53429901D01*
X120075223Y-53411723D01*
X120093401Y-53395247D01*
X120113107Y-53380632D01*
X120134150Y-53368020D01*
X120156329Y-53357530D01*
X120179428Y-53349265D01*
X120203227Y-53343304D01*
X120227495Y-53339704D01*
X120251999Y-53338500D01*
X120902001Y-53338500D01*
X120926505Y-53339704D01*
G37*
G04 #@! TD.AperFunction*
G04 #@! TA.AperFunction,SMDPad,CuDef*
G36*
X122976505Y-55562204D02*
G01*
X123000773Y-55565804D01*
X123024572Y-55571765D01*
X123047671Y-55580030D01*
X123069850Y-55590520D01*
X123090893Y-55603132D01*
X123110599Y-55617747D01*
X123128777Y-55634223D01*
X123145253Y-55652401D01*
X123159868Y-55672107D01*
X123172480Y-55693150D01*
X123182970Y-55715329D01*
X123191235Y-55738428D01*
X123197196Y-55762227D01*
X123200796Y-55786495D01*
X123202000Y-55810999D01*
X123202000Y-56711001D01*
X123200796Y-56735505D01*
X123197196Y-56759773D01*
X123191235Y-56783572D01*
X123182970Y-56806671D01*
X123172480Y-56828850D01*
X123159868Y-56849893D01*
X123145253Y-56869599D01*
X123128777Y-56887777D01*
X123110599Y-56904253D01*
X123090893Y-56918868D01*
X123069850Y-56931480D01*
X123047671Y-56941970D01*
X123024572Y-56950235D01*
X123000773Y-56956196D01*
X122976505Y-56959796D01*
X122952001Y-56961000D01*
X122301999Y-56961000D01*
X122277495Y-56959796D01*
X122253227Y-56956196D01*
X122229428Y-56950235D01*
X122206329Y-56941970D01*
X122184150Y-56931480D01*
X122163107Y-56918868D01*
X122143401Y-56904253D01*
X122125223Y-56887777D01*
X122108747Y-56869599D01*
X122094132Y-56849893D01*
X122081520Y-56828850D01*
X122071030Y-56806671D01*
X122062765Y-56783572D01*
X122056804Y-56759773D01*
X122053204Y-56735505D01*
X122052000Y-56711001D01*
X122052000Y-55810999D01*
X122053204Y-55786495D01*
X122056804Y-55762227D01*
X122062765Y-55738428D01*
X122071030Y-55715329D01*
X122081520Y-55693150D01*
X122094132Y-55672107D01*
X122108747Y-55652401D01*
X122125223Y-55634223D01*
X122143401Y-55617747D01*
X122163107Y-55603132D01*
X122184150Y-55590520D01*
X122206329Y-55580030D01*
X122229428Y-55571765D01*
X122253227Y-55565804D01*
X122277495Y-55562204D01*
X122301999Y-55561000D01*
X122952001Y-55561000D01*
X122976505Y-55562204D01*
G37*
G04 #@! TD.AperFunction*
G04 #@! TA.AperFunction,SMDPad,CuDef*
G36*
X120926505Y-55562204D02*
G01*
X120950773Y-55565804D01*
X120974572Y-55571765D01*
X120997671Y-55580030D01*
X121019850Y-55590520D01*
X121040893Y-55603132D01*
X121060599Y-55617747D01*
X121078777Y-55634223D01*
X121095253Y-55652401D01*
X121109868Y-55672107D01*
X121122480Y-55693150D01*
X121132970Y-55715329D01*
X121141235Y-55738428D01*
X121147196Y-55762227D01*
X121150796Y-55786495D01*
X121152000Y-55810999D01*
X121152000Y-56711001D01*
X121150796Y-56735505D01*
X121147196Y-56759773D01*
X121141235Y-56783572D01*
X121132970Y-56806671D01*
X121122480Y-56828850D01*
X121109868Y-56849893D01*
X121095253Y-56869599D01*
X121078777Y-56887777D01*
X121060599Y-56904253D01*
X121040893Y-56918868D01*
X121019850Y-56931480D01*
X120997671Y-56941970D01*
X120974572Y-56950235D01*
X120950773Y-56956196D01*
X120926505Y-56959796D01*
X120902001Y-56961000D01*
X120251999Y-56961000D01*
X120227495Y-56959796D01*
X120203227Y-56956196D01*
X120179428Y-56950235D01*
X120156329Y-56941970D01*
X120134150Y-56931480D01*
X120113107Y-56918868D01*
X120093401Y-56904253D01*
X120075223Y-56887777D01*
X120058747Y-56869599D01*
X120044132Y-56849893D01*
X120031520Y-56828850D01*
X120021030Y-56806671D01*
X120012765Y-56783572D01*
X120006804Y-56759773D01*
X120003204Y-56735505D01*
X120002000Y-56711001D01*
X120002000Y-55810999D01*
X120003204Y-55786495D01*
X120006804Y-55762227D01*
X120012765Y-55738428D01*
X120021030Y-55715329D01*
X120031520Y-55693150D01*
X120044132Y-55672107D01*
X120058747Y-55652401D01*
X120075223Y-55634223D01*
X120093401Y-55617747D01*
X120113107Y-55603132D01*
X120134150Y-55590520D01*
X120156329Y-55580030D01*
X120179428Y-55571765D01*
X120203227Y-55565804D01*
X120227495Y-55562204D01*
X120251999Y-55561000D01*
X120902001Y-55561000D01*
X120926505Y-55562204D01*
G37*
G04 #@! TD.AperFunction*
G04 #@! TA.AperFunction,SMDPad,CuDef*
G36*
X122702505Y-100647204D02*
G01*
X122726773Y-100650804D01*
X122750572Y-100656765D01*
X122773671Y-100665030D01*
X122795850Y-100675520D01*
X122816893Y-100688132D01*
X122836599Y-100702747D01*
X122854777Y-100719223D01*
X122871253Y-100737401D01*
X122885868Y-100757107D01*
X122898480Y-100778150D01*
X122908970Y-100800329D01*
X122917235Y-100823428D01*
X122923196Y-100847227D01*
X122926796Y-100871495D01*
X122928000Y-100895999D01*
X122928000Y-101796001D01*
X122926796Y-101820505D01*
X122923196Y-101844773D01*
X122917235Y-101868572D01*
X122908970Y-101891671D01*
X122898480Y-101913850D01*
X122885868Y-101934893D01*
X122871253Y-101954599D01*
X122854777Y-101972777D01*
X122836599Y-101989253D01*
X122816893Y-102003868D01*
X122795850Y-102016480D01*
X122773671Y-102026970D01*
X122750572Y-102035235D01*
X122726773Y-102041196D01*
X122702505Y-102044796D01*
X122678001Y-102046000D01*
X122027999Y-102046000D01*
X122003495Y-102044796D01*
X121979227Y-102041196D01*
X121955428Y-102035235D01*
X121932329Y-102026970D01*
X121910150Y-102016480D01*
X121889107Y-102003868D01*
X121869401Y-101989253D01*
X121851223Y-101972777D01*
X121834747Y-101954599D01*
X121820132Y-101934893D01*
X121807520Y-101913850D01*
X121797030Y-101891671D01*
X121788765Y-101868572D01*
X121782804Y-101844773D01*
X121779204Y-101820505D01*
X121778000Y-101796001D01*
X121778000Y-100895999D01*
X121779204Y-100871495D01*
X121782804Y-100847227D01*
X121788765Y-100823428D01*
X121797030Y-100800329D01*
X121807520Y-100778150D01*
X121820132Y-100757107D01*
X121834747Y-100737401D01*
X121851223Y-100719223D01*
X121869401Y-100702747D01*
X121889107Y-100688132D01*
X121910150Y-100675520D01*
X121932329Y-100665030D01*
X121955428Y-100656765D01*
X121979227Y-100650804D01*
X122003495Y-100647204D01*
X122027999Y-100646000D01*
X122678001Y-100646000D01*
X122702505Y-100647204D01*
G37*
G04 #@! TD.AperFunction*
G04 #@! TA.AperFunction,SMDPad,CuDef*
G36*
X120652505Y-100647204D02*
G01*
X120676773Y-100650804D01*
X120700572Y-100656765D01*
X120723671Y-100665030D01*
X120745850Y-100675520D01*
X120766893Y-100688132D01*
X120786599Y-100702747D01*
X120804777Y-100719223D01*
X120821253Y-100737401D01*
X120835868Y-100757107D01*
X120848480Y-100778150D01*
X120858970Y-100800329D01*
X120867235Y-100823428D01*
X120873196Y-100847227D01*
X120876796Y-100871495D01*
X120878000Y-100895999D01*
X120878000Y-101796001D01*
X120876796Y-101820505D01*
X120873196Y-101844773D01*
X120867235Y-101868572D01*
X120858970Y-101891671D01*
X120848480Y-101913850D01*
X120835868Y-101934893D01*
X120821253Y-101954599D01*
X120804777Y-101972777D01*
X120786599Y-101989253D01*
X120766893Y-102003868D01*
X120745850Y-102016480D01*
X120723671Y-102026970D01*
X120700572Y-102035235D01*
X120676773Y-102041196D01*
X120652505Y-102044796D01*
X120628001Y-102046000D01*
X119977999Y-102046000D01*
X119953495Y-102044796D01*
X119929227Y-102041196D01*
X119905428Y-102035235D01*
X119882329Y-102026970D01*
X119860150Y-102016480D01*
X119839107Y-102003868D01*
X119819401Y-101989253D01*
X119801223Y-101972777D01*
X119784747Y-101954599D01*
X119770132Y-101934893D01*
X119757520Y-101913850D01*
X119747030Y-101891671D01*
X119738765Y-101868572D01*
X119732804Y-101844773D01*
X119729204Y-101820505D01*
X119728000Y-101796001D01*
X119728000Y-100895999D01*
X119729204Y-100871495D01*
X119732804Y-100847227D01*
X119738765Y-100823428D01*
X119747030Y-100800329D01*
X119757520Y-100778150D01*
X119770132Y-100757107D01*
X119784747Y-100737401D01*
X119801223Y-100719223D01*
X119819401Y-100702747D01*
X119839107Y-100688132D01*
X119860150Y-100675520D01*
X119882329Y-100665030D01*
X119905428Y-100656765D01*
X119929227Y-100650804D01*
X119953495Y-100647204D01*
X119977999Y-100646000D01*
X120628001Y-100646000D01*
X120652505Y-100647204D01*
G37*
G04 #@! TD.AperFunction*
G04 #@! TA.AperFunction,SMDPad,CuDef*
G36*
X120576505Y-93992404D02*
G01*
X120600773Y-93996004D01*
X120624572Y-94001965D01*
X120647671Y-94010230D01*
X120669850Y-94020720D01*
X120690893Y-94033332D01*
X120710599Y-94047947D01*
X120728777Y-94064423D01*
X120745253Y-94082601D01*
X120759868Y-94102307D01*
X120772480Y-94123350D01*
X120782970Y-94145529D01*
X120791235Y-94168628D01*
X120797196Y-94192427D01*
X120800796Y-94216695D01*
X120802000Y-94241199D01*
X120802000Y-95141201D01*
X120800796Y-95165705D01*
X120797196Y-95189973D01*
X120791235Y-95213772D01*
X120782970Y-95236871D01*
X120772480Y-95259050D01*
X120759868Y-95280093D01*
X120745253Y-95299799D01*
X120728777Y-95317977D01*
X120710599Y-95334453D01*
X120690893Y-95349068D01*
X120669850Y-95361680D01*
X120647671Y-95372170D01*
X120624572Y-95380435D01*
X120600773Y-95386396D01*
X120576505Y-95389996D01*
X120552001Y-95391200D01*
X119901999Y-95391200D01*
X119877495Y-95389996D01*
X119853227Y-95386396D01*
X119829428Y-95380435D01*
X119806329Y-95372170D01*
X119784150Y-95361680D01*
X119763107Y-95349068D01*
X119743401Y-95334453D01*
X119725223Y-95317977D01*
X119708747Y-95299799D01*
X119694132Y-95280093D01*
X119681520Y-95259050D01*
X119671030Y-95236871D01*
X119662765Y-95213772D01*
X119656804Y-95189973D01*
X119653204Y-95165705D01*
X119652000Y-95141201D01*
X119652000Y-94241199D01*
X119653204Y-94216695D01*
X119656804Y-94192427D01*
X119662765Y-94168628D01*
X119671030Y-94145529D01*
X119681520Y-94123350D01*
X119694132Y-94102307D01*
X119708747Y-94082601D01*
X119725223Y-94064423D01*
X119743401Y-94047947D01*
X119763107Y-94033332D01*
X119784150Y-94020720D01*
X119806329Y-94010230D01*
X119829428Y-94001965D01*
X119853227Y-93996004D01*
X119877495Y-93992404D01*
X119901999Y-93991200D01*
X120552001Y-93991200D01*
X120576505Y-93992404D01*
G37*
G04 #@! TD.AperFunction*
G04 #@! TA.AperFunction,SMDPad,CuDef*
G36*
X118526505Y-93992404D02*
G01*
X118550773Y-93996004D01*
X118574572Y-94001965D01*
X118597671Y-94010230D01*
X118619850Y-94020720D01*
X118640893Y-94033332D01*
X118660599Y-94047947D01*
X118678777Y-94064423D01*
X118695253Y-94082601D01*
X118709868Y-94102307D01*
X118722480Y-94123350D01*
X118732970Y-94145529D01*
X118741235Y-94168628D01*
X118747196Y-94192427D01*
X118750796Y-94216695D01*
X118752000Y-94241199D01*
X118752000Y-95141201D01*
X118750796Y-95165705D01*
X118747196Y-95189973D01*
X118741235Y-95213772D01*
X118732970Y-95236871D01*
X118722480Y-95259050D01*
X118709868Y-95280093D01*
X118695253Y-95299799D01*
X118678777Y-95317977D01*
X118660599Y-95334453D01*
X118640893Y-95349068D01*
X118619850Y-95361680D01*
X118597671Y-95372170D01*
X118574572Y-95380435D01*
X118550773Y-95386396D01*
X118526505Y-95389996D01*
X118502001Y-95391200D01*
X117851999Y-95391200D01*
X117827495Y-95389996D01*
X117803227Y-95386396D01*
X117779428Y-95380435D01*
X117756329Y-95372170D01*
X117734150Y-95361680D01*
X117713107Y-95349068D01*
X117693401Y-95334453D01*
X117675223Y-95317977D01*
X117658747Y-95299799D01*
X117644132Y-95280093D01*
X117631520Y-95259050D01*
X117621030Y-95236871D01*
X117612765Y-95213772D01*
X117606804Y-95189973D01*
X117603204Y-95165705D01*
X117602000Y-95141201D01*
X117602000Y-94241199D01*
X117603204Y-94216695D01*
X117606804Y-94192427D01*
X117612765Y-94168628D01*
X117621030Y-94145529D01*
X117631520Y-94123350D01*
X117644132Y-94102307D01*
X117658747Y-94082601D01*
X117675223Y-94064423D01*
X117693401Y-94047947D01*
X117713107Y-94033332D01*
X117734150Y-94020720D01*
X117756329Y-94010230D01*
X117779428Y-94001965D01*
X117803227Y-93996004D01*
X117827495Y-93992404D01*
X117851999Y-93991200D01*
X118502001Y-93991200D01*
X118526505Y-93992404D01*
G37*
G04 #@! TD.AperFunction*
D13*
X187939840Y-109827440D03*
X185399840Y-109827440D03*
X182859840Y-109827440D03*
X180319840Y-109827440D03*
X177779840Y-109827440D03*
X175239840Y-109827440D03*
X172699840Y-109827440D03*
X170159840Y-109827440D03*
X167619840Y-109827440D03*
X165079840Y-109827440D03*
X162539840Y-109827440D03*
X159999840Y-109827440D03*
X157459840Y-109827440D03*
X154919840Y-109827440D03*
X152379840Y-109827440D03*
X149839840Y-109827440D03*
X147299840Y-109827440D03*
X144759840Y-109827440D03*
X142219840Y-109827440D03*
X139679840Y-109827440D03*
X137139840Y-109827440D03*
X134599840Y-109827440D03*
X132059840Y-109827440D03*
X129519840Y-109827440D03*
X126979840Y-109827440D03*
G04 #@! TA.AperFunction,SMDPad,CuDef*
D10*
G36*
X163740703Y-91670722D02*
G01*
X163755264Y-91672882D01*
X163769543Y-91676459D01*
X163783403Y-91681418D01*
X163796710Y-91687712D01*
X163809336Y-91695280D01*
X163821159Y-91704048D01*
X163832066Y-91713934D01*
X163841952Y-91724841D01*
X163850720Y-91736664D01*
X163858288Y-91749290D01*
X163864582Y-91762597D01*
X163869541Y-91776457D01*
X163873118Y-91790736D01*
X163875278Y-91805297D01*
X163876000Y-91820000D01*
X163876000Y-93470000D01*
X163875278Y-93484703D01*
X163873118Y-93499264D01*
X163869541Y-93513543D01*
X163864582Y-93527403D01*
X163858288Y-93540710D01*
X163850720Y-93553336D01*
X163841952Y-93565159D01*
X163832066Y-93576066D01*
X163821159Y-93585952D01*
X163809336Y-93594720D01*
X163796710Y-93602288D01*
X163783403Y-93608582D01*
X163769543Y-93613541D01*
X163755264Y-93617118D01*
X163740703Y-93619278D01*
X163726000Y-93620000D01*
X163426000Y-93620000D01*
X163411297Y-93619278D01*
X163396736Y-93617118D01*
X163382457Y-93613541D01*
X163368597Y-93608582D01*
X163355290Y-93602288D01*
X163342664Y-93594720D01*
X163330841Y-93585952D01*
X163319934Y-93576066D01*
X163310048Y-93565159D01*
X163301280Y-93553336D01*
X163293712Y-93540710D01*
X163287418Y-93527403D01*
X163282459Y-93513543D01*
X163278882Y-93499264D01*
X163276722Y-93484703D01*
X163276000Y-93470000D01*
X163276000Y-91820000D01*
X163276722Y-91805297D01*
X163278882Y-91790736D01*
X163282459Y-91776457D01*
X163287418Y-91762597D01*
X163293712Y-91749290D01*
X163301280Y-91736664D01*
X163310048Y-91724841D01*
X163319934Y-91713934D01*
X163330841Y-91704048D01*
X163342664Y-91695280D01*
X163355290Y-91687712D01*
X163368597Y-91681418D01*
X163382457Y-91676459D01*
X163396736Y-91672882D01*
X163411297Y-91670722D01*
X163426000Y-91670000D01*
X163726000Y-91670000D01*
X163740703Y-91670722D01*
G37*
G04 #@! TD.AperFunction*
G04 #@! TA.AperFunction,SMDPad,CuDef*
G36*
X162470703Y-91670722D02*
G01*
X162485264Y-91672882D01*
X162499543Y-91676459D01*
X162513403Y-91681418D01*
X162526710Y-91687712D01*
X162539336Y-91695280D01*
X162551159Y-91704048D01*
X162562066Y-91713934D01*
X162571952Y-91724841D01*
X162580720Y-91736664D01*
X162588288Y-91749290D01*
X162594582Y-91762597D01*
X162599541Y-91776457D01*
X162603118Y-91790736D01*
X162605278Y-91805297D01*
X162606000Y-91820000D01*
X162606000Y-93470000D01*
X162605278Y-93484703D01*
X162603118Y-93499264D01*
X162599541Y-93513543D01*
X162594582Y-93527403D01*
X162588288Y-93540710D01*
X162580720Y-93553336D01*
X162571952Y-93565159D01*
X162562066Y-93576066D01*
X162551159Y-93585952D01*
X162539336Y-93594720D01*
X162526710Y-93602288D01*
X162513403Y-93608582D01*
X162499543Y-93613541D01*
X162485264Y-93617118D01*
X162470703Y-93619278D01*
X162456000Y-93620000D01*
X162156000Y-93620000D01*
X162141297Y-93619278D01*
X162126736Y-93617118D01*
X162112457Y-93613541D01*
X162098597Y-93608582D01*
X162085290Y-93602288D01*
X162072664Y-93594720D01*
X162060841Y-93585952D01*
X162049934Y-93576066D01*
X162040048Y-93565159D01*
X162031280Y-93553336D01*
X162023712Y-93540710D01*
X162017418Y-93527403D01*
X162012459Y-93513543D01*
X162008882Y-93499264D01*
X162006722Y-93484703D01*
X162006000Y-93470000D01*
X162006000Y-91820000D01*
X162006722Y-91805297D01*
X162008882Y-91790736D01*
X162012459Y-91776457D01*
X162017418Y-91762597D01*
X162023712Y-91749290D01*
X162031280Y-91736664D01*
X162040048Y-91724841D01*
X162049934Y-91713934D01*
X162060841Y-91704048D01*
X162072664Y-91695280D01*
X162085290Y-91687712D01*
X162098597Y-91681418D01*
X162112457Y-91676459D01*
X162126736Y-91672882D01*
X162141297Y-91670722D01*
X162156000Y-91670000D01*
X162456000Y-91670000D01*
X162470703Y-91670722D01*
G37*
G04 #@! TD.AperFunction*
G04 #@! TA.AperFunction,SMDPad,CuDef*
G36*
X161200703Y-91670722D02*
G01*
X161215264Y-91672882D01*
X161229543Y-91676459D01*
X161243403Y-91681418D01*
X161256710Y-91687712D01*
X161269336Y-91695280D01*
X161281159Y-91704048D01*
X161292066Y-91713934D01*
X161301952Y-91724841D01*
X161310720Y-91736664D01*
X161318288Y-91749290D01*
X161324582Y-91762597D01*
X161329541Y-91776457D01*
X161333118Y-91790736D01*
X161335278Y-91805297D01*
X161336000Y-91820000D01*
X161336000Y-93470000D01*
X161335278Y-93484703D01*
X161333118Y-93499264D01*
X161329541Y-93513543D01*
X161324582Y-93527403D01*
X161318288Y-93540710D01*
X161310720Y-93553336D01*
X161301952Y-93565159D01*
X161292066Y-93576066D01*
X161281159Y-93585952D01*
X161269336Y-93594720D01*
X161256710Y-93602288D01*
X161243403Y-93608582D01*
X161229543Y-93613541D01*
X161215264Y-93617118D01*
X161200703Y-93619278D01*
X161186000Y-93620000D01*
X160886000Y-93620000D01*
X160871297Y-93619278D01*
X160856736Y-93617118D01*
X160842457Y-93613541D01*
X160828597Y-93608582D01*
X160815290Y-93602288D01*
X160802664Y-93594720D01*
X160790841Y-93585952D01*
X160779934Y-93576066D01*
X160770048Y-93565159D01*
X160761280Y-93553336D01*
X160753712Y-93540710D01*
X160747418Y-93527403D01*
X160742459Y-93513543D01*
X160738882Y-93499264D01*
X160736722Y-93484703D01*
X160736000Y-93470000D01*
X160736000Y-91820000D01*
X160736722Y-91805297D01*
X160738882Y-91790736D01*
X160742459Y-91776457D01*
X160747418Y-91762597D01*
X160753712Y-91749290D01*
X160761280Y-91736664D01*
X160770048Y-91724841D01*
X160779934Y-91713934D01*
X160790841Y-91704048D01*
X160802664Y-91695280D01*
X160815290Y-91687712D01*
X160828597Y-91681418D01*
X160842457Y-91676459D01*
X160856736Y-91672882D01*
X160871297Y-91670722D01*
X160886000Y-91670000D01*
X161186000Y-91670000D01*
X161200703Y-91670722D01*
G37*
G04 #@! TD.AperFunction*
G04 #@! TA.AperFunction,SMDPad,CuDef*
G36*
X159930703Y-91670722D02*
G01*
X159945264Y-91672882D01*
X159959543Y-91676459D01*
X159973403Y-91681418D01*
X159986710Y-91687712D01*
X159999336Y-91695280D01*
X160011159Y-91704048D01*
X160022066Y-91713934D01*
X160031952Y-91724841D01*
X160040720Y-91736664D01*
X160048288Y-91749290D01*
X160054582Y-91762597D01*
X160059541Y-91776457D01*
X160063118Y-91790736D01*
X160065278Y-91805297D01*
X160066000Y-91820000D01*
X160066000Y-93470000D01*
X160065278Y-93484703D01*
X160063118Y-93499264D01*
X160059541Y-93513543D01*
X160054582Y-93527403D01*
X160048288Y-93540710D01*
X160040720Y-93553336D01*
X160031952Y-93565159D01*
X160022066Y-93576066D01*
X160011159Y-93585952D01*
X159999336Y-93594720D01*
X159986710Y-93602288D01*
X159973403Y-93608582D01*
X159959543Y-93613541D01*
X159945264Y-93617118D01*
X159930703Y-93619278D01*
X159916000Y-93620000D01*
X159616000Y-93620000D01*
X159601297Y-93619278D01*
X159586736Y-93617118D01*
X159572457Y-93613541D01*
X159558597Y-93608582D01*
X159545290Y-93602288D01*
X159532664Y-93594720D01*
X159520841Y-93585952D01*
X159509934Y-93576066D01*
X159500048Y-93565159D01*
X159491280Y-93553336D01*
X159483712Y-93540710D01*
X159477418Y-93527403D01*
X159472459Y-93513543D01*
X159468882Y-93499264D01*
X159466722Y-93484703D01*
X159466000Y-93470000D01*
X159466000Y-91820000D01*
X159466722Y-91805297D01*
X159468882Y-91790736D01*
X159472459Y-91776457D01*
X159477418Y-91762597D01*
X159483712Y-91749290D01*
X159491280Y-91736664D01*
X159500048Y-91724841D01*
X159509934Y-91713934D01*
X159520841Y-91704048D01*
X159532664Y-91695280D01*
X159545290Y-91687712D01*
X159558597Y-91681418D01*
X159572457Y-91676459D01*
X159586736Y-91672882D01*
X159601297Y-91670722D01*
X159616000Y-91670000D01*
X159916000Y-91670000D01*
X159930703Y-91670722D01*
G37*
G04 #@! TD.AperFunction*
G04 #@! TA.AperFunction,SMDPad,CuDef*
G36*
X158660703Y-91670722D02*
G01*
X158675264Y-91672882D01*
X158689543Y-91676459D01*
X158703403Y-91681418D01*
X158716710Y-91687712D01*
X158729336Y-91695280D01*
X158741159Y-91704048D01*
X158752066Y-91713934D01*
X158761952Y-91724841D01*
X158770720Y-91736664D01*
X158778288Y-91749290D01*
X158784582Y-91762597D01*
X158789541Y-91776457D01*
X158793118Y-91790736D01*
X158795278Y-91805297D01*
X158796000Y-91820000D01*
X158796000Y-93470000D01*
X158795278Y-93484703D01*
X158793118Y-93499264D01*
X158789541Y-93513543D01*
X158784582Y-93527403D01*
X158778288Y-93540710D01*
X158770720Y-93553336D01*
X158761952Y-93565159D01*
X158752066Y-93576066D01*
X158741159Y-93585952D01*
X158729336Y-93594720D01*
X158716710Y-93602288D01*
X158703403Y-93608582D01*
X158689543Y-93613541D01*
X158675264Y-93617118D01*
X158660703Y-93619278D01*
X158646000Y-93620000D01*
X158346000Y-93620000D01*
X158331297Y-93619278D01*
X158316736Y-93617118D01*
X158302457Y-93613541D01*
X158288597Y-93608582D01*
X158275290Y-93602288D01*
X158262664Y-93594720D01*
X158250841Y-93585952D01*
X158239934Y-93576066D01*
X158230048Y-93565159D01*
X158221280Y-93553336D01*
X158213712Y-93540710D01*
X158207418Y-93527403D01*
X158202459Y-93513543D01*
X158198882Y-93499264D01*
X158196722Y-93484703D01*
X158196000Y-93470000D01*
X158196000Y-91820000D01*
X158196722Y-91805297D01*
X158198882Y-91790736D01*
X158202459Y-91776457D01*
X158207418Y-91762597D01*
X158213712Y-91749290D01*
X158221280Y-91736664D01*
X158230048Y-91724841D01*
X158239934Y-91713934D01*
X158250841Y-91704048D01*
X158262664Y-91695280D01*
X158275290Y-91687712D01*
X158288597Y-91681418D01*
X158302457Y-91676459D01*
X158316736Y-91672882D01*
X158331297Y-91670722D01*
X158346000Y-91670000D01*
X158646000Y-91670000D01*
X158660703Y-91670722D01*
G37*
G04 #@! TD.AperFunction*
G04 #@! TA.AperFunction,SMDPad,CuDef*
G36*
X157390703Y-91670722D02*
G01*
X157405264Y-91672882D01*
X157419543Y-91676459D01*
X157433403Y-91681418D01*
X157446710Y-91687712D01*
X157459336Y-91695280D01*
X157471159Y-91704048D01*
X157482066Y-91713934D01*
X157491952Y-91724841D01*
X157500720Y-91736664D01*
X157508288Y-91749290D01*
X157514582Y-91762597D01*
X157519541Y-91776457D01*
X157523118Y-91790736D01*
X157525278Y-91805297D01*
X157526000Y-91820000D01*
X157526000Y-93470000D01*
X157525278Y-93484703D01*
X157523118Y-93499264D01*
X157519541Y-93513543D01*
X157514582Y-93527403D01*
X157508288Y-93540710D01*
X157500720Y-93553336D01*
X157491952Y-93565159D01*
X157482066Y-93576066D01*
X157471159Y-93585952D01*
X157459336Y-93594720D01*
X157446710Y-93602288D01*
X157433403Y-93608582D01*
X157419543Y-93613541D01*
X157405264Y-93617118D01*
X157390703Y-93619278D01*
X157376000Y-93620000D01*
X157076000Y-93620000D01*
X157061297Y-93619278D01*
X157046736Y-93617118D01*
X157032457Y-93613541D01*
X157018597Y-93608582D01*
X157005290Y-93602288D01*
X156992664Y-93594720D01*
X156980841Y-93585952D01*
X156969934Y-93576066D01*
X156960048Y-93565159D01*
X156951280Y-93553336D01*
X156943712Y-93540710D01*
X156937418Y-93527403D01*
X156932459Y-93513543D01*
X156928882Y-93499264D01*
X156926722Y-93484703D01*
X156926000Y-93470000D01*
X156926000Y-91820000D01*
X156926722Y-91805297D01*
X156928882Y-91790736D01*
X156932459Y-91776457D01*
X156937418Y-91762597D01*
X156943712Y-91749290D01*
X156951280Y-91736664D01*
X156960048Y-91724841D01*
X156969934Y-91713934D01*
X156980841Y-91704048D01*
X156992664Y-91695280D01*
X157005290Y-91687712D01*
X157018597Y-91681418D01*
X157032457Y-91676459D01*
X157046736Y-91672882D01*
X157061297Y-91670722D01*
X157076000Y-91670000D01*
X157376000Y-91670000D01*
X157390703Y-91670722D01*
G37*
G04 #@! TD.AperFunction*
G04 #@! TA.AperFunction,SMDPad,CuDef*
G36*
X156120703Y-91670722D02*
G01*
X156135264Y-91672882D01*
X156149543Y-91676459D01*
X156163403Y-91681418D01*
X156176710Y-91687712D01*
X156189336Y-91695280D01*
X156201159Y-91704048D01*
X156212066Y-91713934D01*
X156221952Y-91724841D01*
X156230720Y-91736664D01*
X156238288Y-91749290D01*
X156244582Y-91762597D01*
X156249541Y-91776457D01*
X156253118Y-91790736D01*
X156255278Y-91805297D01*
X156256000Y-91820000D01*
X156256000Y-93470000D01*
X156255278Y-93484703D01*
X156253118Y-93499264D01*
X156249541Y-93513543D01*
X156244582Y-93527403D01*
X156238288Y-93540710D01*
X156230720Y-93553336D01*
X156221952Y-93565159D01*
X156212066Y-93576066D01*
X156201159Y-93585952D01*
X156189336Y-93594720D01*
X156176710Y-93602288D01*
X156163403Y-93608582D01*
X156149543Y-93613541D01*
X156135264Y-93617118D01*
X156120703Y-93619278D01*
X156106000Y-93620000D01*
X155806000Y-93620000D01*
X155791297Y-93619278D01*
X155776736Y-93617118D01*
X155762457Y-93613541D01*
X155748597Y-93608582D01*
X155735290Y-93602288D01*
X155722664Y-93594720D01*
X155710841Y-93585952D01*
X155699934Y-93576066D01*
X155690048Y-93565159D01*
X155681280Y-93553336D01*
X155673712Y-93540710D01*
X155667418Y-93527403D01*
X155662459Y-93513543D01*
X155658882Y-93499264D01*
X155656722Y-93484703D01*
X155656000Y-93470000D01*
X155656000Y-91820000D01*
X155656722Y-91805297D01*
X155658882Y-91790736D01*
X155662459Y-91776457D01*
X155667418Y-91762597D01*
X155673712Y-91749290D01*
X155681280Y-91736664D01*
X155690048Y-91724841D01*
X155699934Y-91713934D01*
X155710841Y-91704048D01*
X155722664Y-91695280D01*
X155735290Y-91687712D01*
X155748597Y-91681418D01*
X155762457Y-91676459D01*
X155776736Y-91672882D01*
X155791297Y-91670722D01*
X155806000Y-91670000D01*
X156106000Y-91670000D01*
X156120703Y-91670722D01*
G37*
G04 #@! TD.AperFunction*
G04 #@! TA.AperFunction,SMDPad,CuDef*
G36*
X156120703Y-86720722D02*
G01*
X156135264Y-86722882D01*
X156149543Y-86726459D01*
X156163403Y-86731418D01*
X156176710Y-86737712D01*
X156189336Y-86745280D01*
X156201159Y-86754048D01*
X156212066Y-86763934D01*
X156221952Y-86774841D01*
X156230720Y-86786664D01*
X156238288Y-86799290D01*
X156244582Y-86812597D01*
X156249541Y-86826457D01*
X156253118Y-86840736D01*
X156255278Y-86855297D01*
X156256000Y-86870000D01*
X156256000Y-88520000D01*
X156255278Y-88534703D01*
X156253118Y-88549264D01*
X156249541Y-88563543D01*
X156244582Y-88577403D01*
X156238288Y-88590710D01*
X156230720Y-88603336D01*
X156221952Y-88615159D01*
X156212066Y-88626066D01*
X156201159Y-88635952D01*
X156189336Y-88644720D01*
X156176710Y-88652288D01*
X156163403Y-88658582D01*
X156149543Y-88663541D01*
X156135264Y-88667118D01*
X156120703Y-88669278D01*
X156106000Y-88670000D01*
X155806000Y-88670000D01*
X155791297Y-88669278D01*
X155776736Y-88667118D01*
X155762457Y-88663541D01*
X155748597Y-88658582D01*
X155735290Y-88652288D01*
X155722664Y-88644720D01*
X155710841Y-88635952D01*
X155699934Y-88626066D01*
X155690048Y-88615159D01*
X155681280Y-88603336D01*
X155673712Y-88590710D01*
X155667418Y-88577403D01*
X155662459Y-88563543D01*
X155658882Y-88549264D01*
X155656722Y-88534703D01*
X155656000Y-88520000D01*
X155656000Y-86870000D01*
X155656722Y-86855297D01*
X155658882Y-86840736D01*
X155662459Y-86826457D01*
X155667418Y-86812597D01*
X155673712Y-86799290D01*
X155681280Y-86786664D01*
X155690048Y-86774841D01*
X155699934Y-86763934D01*
X155710841Y-86754048D01*
X155722664Y-86745280D01*
X155735290Y-86737712D01*
X155748597Y-86731418D01*
X155762457Y-86726459D01*
X155776736Y-86722882D01*
X155791297Y-86720722D01*
X155806000Y-86720000D01*
X156106000Y-86720000D01*
X156120703Y-86720722D01*
G37*
G04 #@! TD.AperFunction*
G04 #@! TA.AperFunction,SMDPad,CuDef*
G36*
X157390703Y-86720722D02*
G01*
X157405264Y-86722882D01*
X157419543Y-86726459D01*
X157433403Y-86731418D01*
X157446710Y-86737712D01*
X157459336Y-86745280D01*
X157471159Y-86754048D01*
X157482066Y-86763934D01*
X157491952Y-86774841D01*
X157500720Y-86786664D01*
X157508288Y-86799290D01*
X157514582Y-86812597D01*
X157519541Y-86826457D01*
X157523118Y-86840736D01*
X157525278Y-86855297D01*
X157526000Y-86870000D01*
X157526000Y-88520000D01*
X157525278Y-88534703D01*
X157523118Y-88549264D01*
X157519541Y-88563543D01*
X157514582Y-88577403D01*
X157508288Y-88590710D01*
X157500720Y-88603336D01*
X157491952Y-88615159D01*
X157482066Y-88626066D01*
X157471159Y-88635952D01*
X157459336Y-88644720D01*
X157446710Y-88652288D01*
X157433403Y-88658582D01*
X157419543Y-88663541D01*
X157405264Y-88667118D01*
X157390703Y-88669278D01*
X157376000Y-88670000D01*
X157076000Y-88670000D01*
X157061297Y-88669278D01*
X157046736Y-88667118D01*
X157032457Y-88663541D01*
X157018597Y-88658582D01*
X157005290Y-88652288D01*
X156992664Y-88644720D01*
X156980841Y-88635952D01*
X156969934Y-88626066D01*
X156960048Y-88615159D01*
X156951280Y-88603336D01*
X156943712Y-88590710D01*
X156937418Y-88577403D01*
X156932459Y-88563543D01*
X156928882Y-88549264D01*
X156926722Y-88534703D01*
X156926000Y-88520000D01*
X156926000Y-86870000D01*
X156926722Y-86855297D01*
X156928882Y-86840736D01*
X156932459Y-86826457D01*
X156937418Y-86812597D01*
X156943712Y-86799290D01*
X156951280Y-86786664D01*
X156960048Y-86774841D01*
X156969934Y-86763934D01*
X156980841Y-86754048D01*
X156992664Y-86745280D01*
X157005290Y-86737712D01*
X157018597Y-86731418D01*
X157032457Y-86726459D01*
X157046736Y-86722882D01*
X157061297Y-86720722D01*
X157076000Y-86720000D01*
X157376000Y-86720000D01*
X157390703Y-86720722D01*
G37*
G04 #@! TD.AperFunction*
G04 #@! TA.AperFunction,SMDPad,CuDef*
G36*
X158660703Y-86720722D02*
G01*
X158675264Y-86722882D01*
X158689543Y-86726459D01*
X158703403Y-86731418D01*
X158716710Y-86737712D01*
X158729336Y-86745280D01*
X158741159Y-86754048D01*
X158752066Y-86763934D01*
X158761952Y-86774841D01*
X158770720Y-86786664D01*
X158778288Y-86799290D01*
X158784582Y-86812597D01*
X158789541Y-86826457D01*
X158793118Y-86840736D01*
X158795278Y-86855297D01*
X158796000Y-86870000D01*
X158796000Y-88520000D01*
X158795278Y-88534703D01*
X158793118Y-88549264D01*
X158789541Y-88563543D01*
X158784582Y-88577403D01*
X158778288Y-88590710D01*
X158770720Y-88603336D01*
X158761952Y-88615159D01*
X158752066Y-88626066D01*
X158741159Y-88635952D01*
X158729336Y-88644720D01*
X158716710Y-88652288D01*
X158703403Y-88658582D01*
X158689543Y-88663541D01*
X158675264Y-88667118D01*
X158660703Y-88669278D01*
X158646000Y-88670000D01*
X158346000Y-88670000D01*
X158331297Y-88669278D01*
X158316736Y-88667118D01*
X158302457Y-88663541D01*
X158288597Y-88658582D01*
X158275290Y-88652288D01*
X158262664Y-88644720D01*
X158250841Y-88635952D01*
X158239934Y-88626066D01*
X158230048Y-88615159D01*
X158221280Y-88603336D01*
X158213712Y-88590710D01*
X158207418Y-88577403D01*
X158202459Y-88563543D01*
X158198882Y-88549264D01*
X158196722Y-88534703D01*
X158196000Y-88520000D01*
X158196000Y-86870000D01*
X158196722Y-86855297D01*
X158198882Y-86840736D01*
X158202459Y-86826457D01*
X158207418Y-86812597D01*
X158213712Y-86799290D01*
X158221280Y-86786664D01*
X158230048Y-86774841D01*
X158239934Y-86763934D01*
X158250841Y-86754048D01*
X158262664Y-86745280D01*
X158275290Y-86737712D01*
X158288597Y-86731418D01*
X158302457Y-86726459D01*
X158316736Y-86722882D01*
X158331297Y-86720722D01*
X158346000Y-86720000D01*
X158646000Y-86720000D01*
X158660703Y-86720722D01*
G37*
G04 #@! TD.AperFunction*
G04 #@! TA.AperFunction,SMDPad,CuDef*
G36*
X159930703Y-86720722D02*
G01*
X159945264Y-86722882D01*
X159959543Y-86726459D01*
X159973403Y-86731418D01*
X159986710Y-86737712D01*
X159999336Y-86745280D01*
X160011159Y-86754048D01*
X160022066Y-86763934D01*
X160031952Y-86774841D01*
X160040720Y-86786664D01*
X160048288Y-86799290D01*
X160054582Y-86812597D01*
X160059541Y-86826457D01*
X160063118Y-86840736D01*
X160065278Y-86855297D01*
X160066000Y-86870000D01*
X160066000Y-88520000D01*
X160065278Y-88534703D01*
X160063118Y-88549264D01*
X160059541Y-88563543D01*
X160054582Y-88577403D01*
X160048288Y-88590710D01*
X160040720Y-88603336D01*
X160031952Y-88615159D01*
X160022066Y-88626066D01*
X160011159Y-88635952D01*
X159999336Y-88644720D01*
X159986710Y-88652288D01*
X159973403Y-88658582D01*
X159959543Y-88663541D01*
X159945264Y-88667118D01*
X159930703Y-88669278D01*
X159916000Y-88670000D01*
X159616000Y-88670000D01*
X159601297Y-88669278D01*
X159586736Y-88667118D01*
X159572457Y-88663541D01*
X159558597Y-88658582D01*
X159545290Y-88652288D01*
X159532664Y-88644720D01*
X159520841Y-88635952D01*
X159509934Y-88626066D01*
X159500048Y-88615159D01*
X159491280Y-88603336D01*
X159483712Y-88590710D01*
X159477418Y-88577403D01*
X159472459Y-88563543D01*
X159468882Y-88549264D01*
X159466722Y-88534703D01*
X159466000Y-88520000D01*
X159466000Y-86870000D01*
X159466722Y-86855297D01*
X159468882Y-86840736D01*
X159472459Y-86826457D01*
X159477418Y-86812597D01*
X159483712Y-86799290D01*
X159491280Y-86786664D01*
X159500048Y-86774841D01*
X159509934Y-86763934D01*
X159520841Y-86754048D01*
X159532664Y-86745280D01*
X159545290Y-86737712D01*
X159558597Y-86731418D01*
X159572457Y-86726459D01*
X159586736Y-86722882D01*
X159601297Y-86720722D01*
X159616000Y-86720000D01*
X159916000Y-86720000D01*
X159930703Y-86720722D01*
G37*
G04 #@! TD.AperFunction*
G04 #@! TA.AperFunction,SMDPad,CuDef*
G36*
X161200703Y-86720722D02*
G01*
X161215264Y-86722882D01*
X161229543Y-86726459D01*
X161243403Y-86731418D01*
X161256710Y-86737712D01*
X161269336Y-86745280D01*
X161281159Y-86754048D01*
X161292066Y-86763934D01*
X161301952Y-86774841D01*
X161310720Y-86786664D01*
X161318288Y-86799290D01*
X161324582Y-86812597D01*
X161329541Y-86826457D01*
X161333118Y-86840736D01*
X161335278Y-86855297D01*
X161336000Y-86870000D01*
X161336000Y-88520000D01*
X161335278Y-88534703D01*
X161333118Y-88549264D01*
X161329541Y-88563543D01*
X161324582Y-88577403D01*
X161318288Y-88590710D01*
X161310720Y-88603336D01*
X161301952Y-88615159D01*
X161292066Y-88626066D01*
X161281159Y-88635952D01*
X161269336Y-88644720D01*
X161256710Y-88652288D01*
X161243403Y-88658582D01*
X161229543Y-88663541D01*
X161215264Y-88667118D01*
X161200703Y-88669278D01*
X161186000Y-88670000D01*
X160886000Y-88670000D01*
X160871297Y-88669278D01*
X160856736Y-88667118D01*
X160842457Y-88663541D01*
X160828597Y-88658582D01*
X160815290Y-88652288D01*
X160802664Y-88644720D01*
X160790841Y-88635952D01*
X160779934Y-88626066D01*
X160770048Y-88615159D01*
X160761280Y-88603336D01*
X160753712Y-88590710D01*
X160747418Y-88577403D01*
X160742459Y-88563543D01*
X160738882Y-88549264D01*
X160736722Y-88534703D01*
X160736000Y-88520000D01*
X160736000Y-86870000D01*
X160736722Y-86855297D01*
X160738882Y-86840736D01*
X160742459Y-86826457D01*
X160747418Y-86812597D01*
X160753712Y-86799290D01*
X160761280Y-86786664D01*
X160770048Y-86774841D01*
X160779934Y-86763934D01*
X160790841Y-86754048D01*
X160802664Y-86745280D01*
X160815290Y-86737712D01*
X160828597Y-86731418D01*
X160842457Y-86726459D01*
X160856736Y-86722882D01*
X160871297Y-86720722D01*
X160886000Y-86720000D01*
X161186000Y-86720000D01*
X161200703Y-86720722D01*
G37*
G04 #@! TD.AperFunction*
G04 #@! TA.AperFunction,SMDPad,CuDef*
G36*
X162470703Y-86720722D02*
G01*
X162485264Y-86722882D01*
X162499543Y-86726459D01*
X162513403Y-86731418D01*
X162526710Y-86737712D01*
X162539336Y-86745280D01*
X162551159Y-86754048D01*
X162562066Y-86763934D01*
X162571952Y-86774841D01*
X162580720Y-86786664D01*
X162588288Y-86799290D01*
X162594582Y-86812597D01*
X162599541Y-86826457D01*
X162603118Y-86840736D01*
X162605278Y-86855297D01*
X162606000Y-86870000D01*
X162606000Y-88520000D01*
X162605278Y-88534703D01*
X162603118Y-88549264D01*
X162599541Y-88563543D01*
X162594582Y-88577403D01*
X162588288Y-88590710D01*
X162580720Y-88603336D01*
X162571952Y-88615159D01*
X162562066Y-88626066D01*
X162551159Y-88635952D01*
X162539336Y-88644720D01*
X162526710Y-88652288D01*
X162513403Y-88658582D01*
X162499543Y-88663541D01*
X162485264Y-88667118D01*
X162470703Y-88669278D01*
X162456000Y-88670000D01*
X162156000Y-88670000D01*
X162141297Y-88669278D01*
X162126736Y-88667118D01*
X162112457Y-88663541D01*
X162098597Y-88658582D01*
X162085290Y-88652288D01*
X162072664Y-88644720D01*
X162060841Y-88635952D01*
X162049934Y-88626066D01*
X162040048Y-88615159D01*
X162031280Y-88603336D01*
X162023712Y-88590710D01*
X162017418Y-88577403D01*
X162012459Y-88563543D01*
X162008882Y-88549264D01*
X162006722Y-88534703D01*
X162006000Y-88520000D01*
X162006000Y-86870000D01*
X162006722Y-86855297D01*
X162008882Y-86840736D01*
X162012459Y-86826457D01*
X162017418Y-86812597D01*
X162023712Y-86799290D01*
X162031280Y-86786664D01*
X162040048Y-86774841D01*
X162049934Y-86763934D01*
X162060841Y-86754048D01*
X162072664Y-86745280D01*
X162085290Y-86737712D01*
X162098597Y-86731418D01*
X162112457Y-86726459D01*
X162126736Y-86722882D01*
X162141297Y-86720722D01*
X162156000Y-86720000D01*
X162456000Y-86720000D01*
X162470703Y-86720722D01*
G37*
G04 #@! TD.AperFunction*
G04 #@! TA.AperFunction,SMDPad,CuDef*
G36*
X163740703Y-86720722D02*
G01*
X163755264Y-86722882D01*
X163769543Y-86726459D01*
X163783403Y-86731418D01*
X163796710Y-86737712D01*
X163809336Y-86745280D01*
X163821159Y-86754048D01*
X163832066Y-86763934D01*
X163841952Y-86774841D01*
X163850720Y-86786664D01*
X163858288Y-86799290D01*
X163864582Y-86812597D01*
X163869541Y-86826457D01*
X163873118Y-86840736D01*
X163875278Y-86855297D01*
X163876000Y-86870000D01*
X163876000Y-88520000D01*
X163875278Y-88534703D01*
X163873118Y-88549264D01*
X163869541Y-88563543D01*
X163864582Y-88577403D01*
X163858288Y-88590710D01*
X163850720Y-88603336D01*
X163841952Y-88615159D01*
X163832066Y-88626066D01*
X163821159Y-88635952D01*
X163809336Y-88644720D01*
X163796710Y-88652288D01*
X163783403Y-88658582D01*
X163769543Y-88663541D01*
X163755264Y-88667118D01*
X163740703Y-88669278D01*
X163726000Y-88670000D01*
X163426000Y-88670000D01*
X163411297Y-88669278D01*
X163396736Y-88667118D01*
X163382457Y-88663541D01*
X163368597Y-88658582D01*
X163355290Y-88652288D01*
X163342664Y-88644720D01*
X163330841Y-88635952D01*
X163319934Y-88626066D01*
X163310048Y-88615159D01*
X163301280Y-88603336D01*
X163293712Y-88590710D01*
X163287418Y-88577403D01*
X163282459Y-88563543D01*
X163278882Y-88549264D01*
X163276722Y-88534703D01*
X163276000Y-88520000D01*
X163276000Y-86870000D01*
X163276722Y-86855297D01*
X163278882Y-86840736D01*
X163282459Y-86826457D01*
X163287418Y-86812597D01*
X163293712Y-86799290D01*
X163301280Y-86786664D01*
X163310048Y-86774841D01*
X163319934Y-86763934D01*
X163330841Y-86754048D01*
X163342664Y-86745280D01*
X163355290Y-86737712D01*
X163368597Y-86731418D01*
X163382457Y-86726459D01*
X163396736Y-86722882D01*
X163411297Y-86720722D01*
X163426000Y-86720000D01*
X163726000Y-86720000D01*
X163740703Y-86720722D01*
G37*
G04 #@! TD.AperFunction*
D14*
X116802000Y-98171000D03*
D15*
X121802000Y-98171000D03*
G04 #@! TA.AperFunction,SMDPad,CuDef*
D10*
G36*
X111211505Y-52006204D02*
G01*
X111235773Y-52009804D01*
X111259572Y-52015765D01*
X111282671Y-52024030D01*
X111304850Y-52034520D01*
X111325893Y-52047132D01*
X111345599Y-52061747D01*
X111363777Y-52078223D01*
X111380253Y-52096401D01*
X111394868Y-52116107D01*
X111407480Y-52137150D01*
X111417970Y-52159329D01*
X111426235Y-52182428D01*
X111432196Y-52206227D01*
X111435796Y-52230495D01*
X111437000Y-52254999D01*
X111437000Y-53155001D01*
X111435796Y-53179505D01*
X111432196Y-53203773D01*
X111426235Y-53227572D01*
X111417970Y-53250671D01*
X111407480Y-53272850D01*
X111394868Y-53293893D01*
X111380253Y-53313599D01*
X111363777Y-53331777D01*
X111345599Y-53348253D01*
X111325893Y-53362868D01*
X111304850Y-53375480D01*
X111282671Y-53385970D01*
X111259572Y-53394235D01*
X111235773Y-53400196D01*
X111211505Y-53403796D01*
X111187001Y-53405000D01*
X110536999Y-53405000D01*
X110512495Y-53403796D01*
X110488227Y-53400196D01*
X110464428Y-53394235D01*
X110441329Y-53385970D01*
X110419150Y-53375480D01*
X110398107Y-53362868D01*
X110378401Y-53348253D01*
X110360223Y-53331777D01*
X110343747Y-53313599D01*
X110329132Y-53293893D01*
X110316520Y-53272850D01*
X110306030Y-53250671D01*
X110297765Y-53227572D01*
X110291804Y-53203773D01*
X110288204Y-53179505D01*
X110287000Y-53155001D01*
X110287000Y-52254999D01*
X110288204Y-52230495D01*
X110291804Y-52206227D01*
X110297765Y-52182428D01*
X110306030Y-52159329D01*
X110316520Y-52137150D01*
X110329132Y-52116107D01*
X110343747Y-52096401D01*
X110360223Y-52078223D01*
X110378401Y-52061747D01*
X110398107Y-52047132D01*
X110419150Y-52034520D01*
X110441329Y-52024030D01*
X110464428Y-52015765D01*
X110488227Y-52009804D01*
X110512495Y-52006204D01*
X110536999Y-52005000D01*
X111187001Y-52005000D01*
X111211505Y-52006204D01*
G37*
G04 #@! TD.AperFunction*
G04 #@! TA.AperFunction,SMDPad,CuDef*
G36*
X113261505Y-52006204D02*
G01*
X113285773Y-52009804D01*
X113309572Y-52015765D01*
X113332671Y-52024030D01*
X113354850Y-52034520D01*
X113375893Y-52047132D01*
X113395599Y-52061747D01*
X113413777Y-52078223D01*
X113430253Y-52096401D01*
X113444868Y-52116107D01*
X113457480Y-52137150D01*
X113467970Y-52159329D01*
X113476235Y-52182428D01*
X113482196Y-52206227D01*
X113485796Y-52230495D01*
X113487000Y-52254999D01*
X113487000Y-53155001D01*
X113485796Y-53179505D01*
X113482196Y-53203773D01*
X113476235Y-53227572D01*
X113467970Y-53250671D01*
X113457480Y-53272850D01*
X113444868Y-53293893D01*
X113430253Y-53313599D01*
X113413777Y-53331777D01*
X113395599Y-53348253D01*
X113375893Y-53362868D01*
X113354850Y-53375480D01*
X113332671Y-53385970D01*
X113309572Y-53394235D01*
X113285773Y-53400196D01*
X113261505Y-53403796D01*
X113237001Y-53405000D01*
X112586999Y-53405000D01*
X112562495Y-53403796D01*
X112538227Y-53400196D01*
X112514428Y-53394235D01*
X112491329Y-53385970D01*
X112469150Y-53375480D01*
X112448107Y-53362868D01*
X112428401Y-53348253D01*
X112410223Y-53331777D01*
X112393747Y-53313599D01*
X112379132Y-53293893D01*
X112366520Y-53272850D01*
X112356030Y-53250671D01*
X112347765Y-53227572D01*
X112341804Y-53203773D01*
X112338204Y-53179505D01*
X112337000Y-53155001D01*
X112337000Y-52254999D01*
X112338204Y-52230495D01*
X112341804Y-52206227D01*
X112347765Y-52182428D01*
X112356030Y-52159329D01*
X112366520Y-52137150D01*
X112379132Y-52116107D01*
X112393747Y-52096401D01*
X112410223Y-52078223D01*
X112428401Y-52061747D01*
X112448107Y-52047132D01*
X112469150Y-52034520D01*
X112491329Y-52024030D01*
X112514428Y-52015765D01*
X112538227Y-52009804D01*
X112562495Y-52006204D01*
X112586999Y-52005000D01*
X113237001Y-52005000D01*
X113261505Y-52006204D01*
G37*
G04 #@! TD.AperFunction*
G04 #@! TA.AperFunction,SMDPad,CuDef*
G36*
X113261505Y-54546204D02*
G01*
X113285773Y-54549804D01*
X113309572Y-54555765D01*
X113332671Y-54564030D01*
X113354850Y-54574520D01*
X113375893Y-54587132D01*
X113395599Y-54601747D01*
X113413777Y-54618223D01*
X113430253Y-54636401D01*
X113444868Y-54656107D01*
X113457480Y-54677150D01*
X113467970Y-54699329D01*
X113476235Y-54722428D01*
X113482196Y-54746227D01*
X113485796Y-54770495D01*
X113487000Y-54794999D01*
X113487000Y-55695001D01*
X113485796Y-55719505D01*
X113482196Y-55743773D01*
X113476235Y-55767572D01*
X113467970Y-55790671D01*
X113457480Y-55812850D01*
X113444868Y-55833893D01*
X113430253Y-55853599D01*
X113413777Y-55871777D01*
X113395599Y-55888253D01*
X113375893Y-55902868D01*
X113354850Y-55915480D01*
X113332671Y-55925970D01*
X113309572Y-55934235D01*
X113285773Y-55940196D01*
X113261505Y-55943796D01*
X113237001Y-55945000D01*
X112586999Y-55945000D01*
X112562495Y-55943796D01*
X112538227Y-55940196D01*
X112514428Y-55934235D01*
X112491329Y-55925970D01*
X112469150Y-55915480D01*
X112448107Y-55902868D01*
X112428401Y-55888253D01*
X112410223Y-55871777D01*
X112393747Y-55853599D01*
X112379132Y-55833893D01*
X112366520Y-55812850D01*
X112356030Y-55790671D01*
X112347765Y-55767572D01*
X112341804Y-55743773D01*
X112338204Y-55719505D01*
X112337000Y-55695001D01*
X112337000Y-54794999D01*
X112338204Y-54770495D01*
X112341804Y-54746227D01*
X112347765Y-54722428D01*
X112356030Y-54699329D01*
X112366520Y-54677150D01*
X112379132Y-54656107D01*
X112393747Y-54636401D01*
X112410223Y-54618223D01*
X112428401Y-54601747D01*
X112448107Y-54587132D01*
X112469150Y-54574520D01*
X112491329Y-54564030D01*
X112514428Y-54555765D01*
X112538227Y-54549804D01*
X112562495Y-54546204D01*
X112586999Y-54545000D01*
X113237001Y-54545000D01*
X113261505Y-54546204D01*
G37*
G04 #@! TD.AperFunction*
G04 #@! TA.AperFunction,SMDPad,CuDef*
G36*
X111211505Y-54546204D02*
G01*
X111235773Y-54549804D01*
X111259572Y-54555765D01*
X111282671Y-54564030D01*
X111304850Y-54574520D01*
X111325893Y-54587132D01*
X111345599Y-54601747D01*
X111363777Y-54618223D01*
X111380253Y-54636401D01*
X111394868Y-54656107D01*
X111407480Y-54677150D01*
X111417970Y-54699329D01*
X111426235Y-54722428D01*
X111432196Y-54746227D01*
X111435796Y-54770495D01*
X111437000Y-54794999D01*
X111437000Y-55695001D01*
X111435796Y-55719505D01*
X111432196Y-55743773D01*
X111426235Y-55767572D01*
X111417970Y-55790671D01*
X111407480Y-55812850D01*
X111394868Y-55833893D01*
X111380253Y-55853599D01*
X111363777Y-55871777D01*
X111345599Y-55888253D01*
X111325893Y-55902868D01*
X111304850Y-55915480D01*
X111282671Y-55925970D01*
X111259572Y-55934235D01*
X111235773Y-55940196D01*
X111211505Y-55943796D01*
X111187001Y-55945000D01*
X110536999Y-55945000D01*
X110512495Y-55943796D01*
X110488227Y-55940196D01*
X110464428Y-55934235D01*
X110441329Y-55925970D01*
X110419150Y-55915480D01*
X110398107Y-55902868D01*
X110378401Y-55888253D01*
X110360223Y-55871777D01*
X110343747Y-55853599D01*
X110329132Y-55833893D01*
X110316520Y-55812850D01*
X110306030Y-55790671D01*
X110297765Y-55767572D01*
X110291804Y-55743773D01*
X110288204Y-55719505D01*
X110287000Y-55695001D01*
X110287000Y-54794999D01*
X110288204Y-54770495D01*
X110291804Y-54746227D01*
X110297765Y-54722428D01*
X110306030Y-54699329D01*
X110316520Y-54677150D01*
X110329132Y-54656107D01*
X110343747Y-54636401D01*
X110360223Y-54618223D01*
X110378401Y-54601747D01*
X110398107Y-54587132D01*
X110419150Y-54574520D01*
X110441329Y-54564030D01*
X110464428Y-54555765D01*
X110488227Y-54549804D01*
X110512495Y-54546204D01*
X110536999Y-54545000D01*
X111187001Y-54545000D01*
X111211505Y-54546204D01*
G37*
G04 #@! TD.AperFunction*
D12*
X108204000Y-67310000D03*
D11*
X108204000Y-69850000D03*
X108204000Y-72390000D03*
X108204000Y-74930000D03*
D16*
X200196000Y-72012000D03*
X200196000Y-56512000D03*
D17*
X190596000Y-71112000D03*
D18*
X190596000Y-56512000D03*
D19*
X190096000Y-57662000D03*
X190096000Y-59862000D03*
X190096000Y-58762000D03*
X190096000Y-60962000D03*
X190096000Y-62062000D03*
X190096000Y-63162000D03*
X190096000Y-66462000D03*
X190096000Y-65362000D03*
X190096000Y-64262000D03*
D20*
X170966200Y-62199900D03*
X142814200Y-93277300D03*
X177083900Y-62030600D03*
X140970000Y-87003900D03*
X138872100Y-87067600D03*
X177083900Y-59866500D03*
X139957900Y-83465300D03*
X175833200Y-59726300D03*
X144145000Y-93364300D03*
X170316800Y-64538900D03*
X146248600Y-93366000D03*
X170945800Y-63881000D03*
X140427800Y-93155300D03*
X170284900Y-62650600D03*
X170295500Y-61570400D03*
X141314000Y-83422700D03*
X179049800Y-105451700D03*
X166659800Y-100122900D03*
X166187300Y-99463400D03*
X165806100Y-100487900D03*
X171474100Y-102316100D03*
X173652300Y-104633500D03*
X172558000Y-98109700D03*
X176151000Y-97789600D03*
X172286000Y-96829700D03*
X170848700Y-98504900D03*
X162070800Y-104387400D03*
X173587000Y-86965200D03*
X159362000Y-105306800D03*
X161098400Y-102209900D03*
X168362000Y-82807800D03*
X158093900Y-105173500D03*
X168312100Y-87077400D03*
X153980000Y-93281700D03*
X146040400Y-86864900D03*
X146983100Y-96828300D03*
X149175700Y-104932400D03*
X146965900Y-99609200D03*
X146651000Y-104858200D03*
X144130800Y-104959400D03*
X140963300Y-104967300D03*
X139048500Y-105216800D03*
X177166000Y-90902600D03*
X179298100Y-89688600D03*
X192041800Y-54736700D03*
X180797400Y-58340500D03*
X175651600Y-87163400D03*
X177826900Y-92197700D03*
X185052600Y-57560800D03*
X174625000Y-93391900D03*
X182443700Y-55858600D03*
X176742300Y-93311800D03*
X183244100Y-55595000D03*
X165003300Y-58934200D03*
X168957600Y-99515800D03*
X175278200Y-91122100D03*
X171099900Y-91122100D03*
X118746900Y-55718900D03*
X118768100Y-54053000D03*
X118658500Y-52353000D03*
X182643400Y-57573200D03*
X166254900Y-58520700D03*
X171481100Y-60884500D03*
X180736600Y-60652400D03*
X169816500Y-88954400D03*
X170815000Y-83942300D03*
X171227600Y-57684000D03*
X172756600Y-83488700D03*
X175939300Y-89298800D03*
X176654900Y-66043800D03*
X180829100Y-82559700D03*
X148249100Y-82903100D03*
X123415100Y-83323400D03*
X169106700Y-79758000D03*
X169881000Y-51821100D03*
X180975000Y-93366300D03*
X138271600Y-92709500D03*
X169779900Y-91747900D03*
X195577500Y-53304400D03*
X134437700Y-84792900D03*
X154587600Y-82313700D03*
X171421500Y-59987300D03*
X172309100Y-61033600D03*
X171757200Y-58286300D03*
X172725700Y-57372300D03*
X173458200Y-57981700D03*
X183017300Y-54483800D03*
X185708800Y-55859800D03*
X177117200Y-57278700D03*
X119663400Y-63881000D03*
X177505400Y-64867100D03*
X177896300Y-65608100D03*
X119214600Y-96635700D03*
D21*
X142875000Y-84144700D02*
X163549300Y-63470400D01*
X163549300Y-63470400D02*
X170386300Y-63470400D01*
X170386300Y-63470400D02*
X170966200Y-62890500D01*
X170966200Y-62890500D02*
X170966200Y-62199900D01*
X142875000Y-86795300D02*
X142814200Y-86856100D01*
X142814200Y-86856100D02*
X142814200Y-93277300D01*
X142875000Y-85470000D02*
X142875000Y-86795300D01*
X142875000Y-85470000D02*
X142875000Y-84144700D01*
X139065000Y-86304900D02*
X138750500Y-86304900D01*
X138750500Y-86304900D02*
X138260000Y-86795400D01*
X138260000Y-86795400D02*
X137360300Y-86795400D01*
X137360300Y-86795400D02*
X137169600Y-86604700D01*
X137169600Y-86604700D02*
X137169600Y-84109000D01*
X137169600Y-84109000D02*
X165120500Y-56158100D01*
X165120500Y-56158100D02*
X173156000Y-56158100D01*
X173156000Y-56158100D02*
X176458600Y-59460700D01*
X176458600Y-59460700D02*
X176458600Y-60125500D01*
X176458600Y-60125500D02*
X177083800Y-60750700D01*
X177083800Y-60750700D02*
X177083900Y-60750700D01*
X177083900Y-60750700D02*
X177083900Y-62030600D01*
X139065000Y-86304900D02*
X139764000Y-87003900D01*
X139764000Y-87003900D02*
X140970000Y-87003900D01*
X139065000Y-86029000D02*
X139065000Y-86304900D01*
X139065000Y-85925500D02*
X139065000Y-86029000D01*
X139065000Y-85470000D02*
X139065000Y-85801300D01*
X139065000Y-85801300D02*
X139065000Y-85925500D01*
X136525000Y-85470000D02*
X136525000Y-84037900D01*
X136525000Y-84037900D02*
X164901300Y-55661600D01*
X164901300Y-55661600D02*
X173341800Y-55661600D01*
X173341800Y-55661600D02*
X177083900Y-59403700D01*
X177083900Y-59403700D02*
X177083900Y-59866500D01*
X136525000Y-86795300D02*
X136975500Y-87245800D01*
X136975500Y-87245800D02*
X138693900Y-87245800D01*
X138693900Y-87245800D02*
X138872100Y-87067600D01*
X136525000Y-85470000D02*
X136525000Y-86795300D01*
X139957900Y-83465300D02*
X139958000Y-83465300D01*
X139958000Y-83465300D02*
X139958000Y-83094400D01*
X139958000Y-83094400D02*
X166444000Y-56608400D01*
X166444000Y-56608400D02*
X172969400Y-56608400D01*
X172969400Y-56608400D02*
X175833200Y-59472200D01*
X175833200Y-59472200D02*
X175833200Y-59726300D01*
X139957900Y-83465300D02*
X138474400Y-83465300D01*
X138474400Y-83465300D02*
X137795000Y-84144700D01*
X137795000Y-85470000D02*
X137795000Y-84144700D01*
X144145000Y-84144700D02*
X163750800Y-64538900D01*
X163750800Y-64538900D02*
X170316800Y-64538900D01*
X144145000Y-86795300D02*
X144145000Y-93364300D01*
X144145000Y-85470000D02*
X144145000Y-86795300D01*
X144145000Y-84807300D02*
X144145000Y-85470000D01*
X144145000Y-84807300D02*
X144145000Y-84144700D01*
X145415000Y-84144700D02*
X159685300Y-69874400D01*
X159685300Y-69874400D02*
X165879800Y-69874400D01*
X165879800Y-69874400D02*
X170945800Y-64808400D01*
X170945800Y-64808400D02*
X170945800Y-63881000D01*
X145415000Y-86795300D02*
X145415000Y-92532400D01*
X145415000Y-92532400D02*
X146248600Y-93366000D01*
X145415000Y-85470000D02*
X145415000Y-86795300D01*
X145415000Y-84807300D02*
X145415000Y-85470000D01*
X145415000Y-84807300D02*
X145415000Y-84144700D01*
X141605000Y-84144700D02*
X163099100Y-62650600D01*
X163099100Y-62650600D02*
X170284900Y-62650600D01*
X141605000Y-85470000D02*
X141605000Y-91978100D01*
X141605000Y-91978100D02*
X140427800Y-93155300D01*
X141605000Y-84807300D02*
X141605000Y-85470000D01*
X141605000Y-84807300D02*
X141605000Y-84144700D01*
X141314000Y-83422700D02*
X163166300Y-61570400D01*
X163166300Y-61570400D02*
X170295500Y-61570400D01*
X140335000Y-84144700D02*
X140592000Y-84144700D01*
X140592000Y-84144700D02*
X141314000Y-83422700D01*
X140335000Y-85470000D02*
X140335000Y-84144700D01*
X162306000Y-92645000D02*
X162306000Y-94697600D01*
X162306000Y-94697600D02*
X166814000Y-99205600D01*
X166814000Y-99205600D02*
X166814000Y-99968700D01*
X166814000Y-99968700D02*
X166659800Y-100122900D01*
X180319800Y-109827400D02*
X180319800Y-105502100D01*
X179049800Y-105451700D02*
X179100200Y-105502100D01*
X179100200Y-105502100D02*
X180319800Y-105502100D01*
X159766000Y-92645000D02*
X159766000Y-93042100D01*
X159766000Y-93042100D02*
X166187300Y-99463400D01*
X165806100Y-100487900D02*
X164662200Y-100487900D01*
X164662200Y-100487900D02*
X157226000Y-93051700D01*
X157226000Y-93051700D02*
X157226000Y-92645000D01*
X175239800Y-105502100D02*
X174625000Y-104887300D01*
X174625000Y-104887300D02*
X174625000Y-96170300D01*
X175239800Y-109827400D02*
X175239800Y-105502100D01*
X174625000Y-94870000D02*
X174625000Y-96170300D01*
X172085000Y-96170300D02*
X172061100Y-96170300D01*
X172061100Y-96170300D02*
X171474100Y-96757300D01*
X171474100Y-96757300D02*
X171474100Y-102316100D01*
X172085000Y-94870000D02*
X172085000Y-96170300D01*
X174625000Y-86770300D02*
X174625000Y-87324600D01*
X174625000Y-87324600D02*
X173099200Y-88850400D01*
X173099200Y-88850400D02*
X173099200Y-92523800D01*
X173099200Y-92523800D02*
X172729700Y-92893300D01*
X172729700Y-92893300D02*
X172729700Y-96378800D01*
X172729700Y-96378800D02*
X173222300Y-96871400D01*
X173222300Y-96871400D02*
X173222300Y-99866200D01*
X173222300Y-99866200D02*
X173005900Y-100082600D01*
X173005900Y-100082600D02*
X173005900Y-105196000D01*
X173005900Y-105196000D02*
X172699800Y-105502100D01*
X172699800Y-109827400D02*
X172699800Y-105502100D01*
X174625000Y-85470000D02*
X174625000Y-86770300D01*
X177165000Y-86770300D02*
X175712100Y-88223200D01*
X175712100Y-88223200D02*
X175493700Y-88223200D01*
X175493700Y-88223200D02*
X174103600Y-89613300D01*
X174103600Y-89613300D02*
X174103600Y-92793200D01*
X174103600Y-92793200D02*
X173999700Y-92897100D01*
X173999700Y-92897100D02*
X173999700Y-104286100D01*
X173999700Y-104286100D02*
X173652300Y-104633500D01*
X177165000Y-85470000D02*
X177165000Y-86770300D01*
X179705000Y-96170300D02*
X178085700Y-97789600D01*
X178085700Y-97789600D02*
X176151000Y-97789600D01*
X170159800Y-105502100D02*
X172555600Y-103106300D01*
X172555600Y-103106300D02*
X172555600Y-98112100D01*
X172555600Y-98112100D02*
X172558000Y-98109700D01*
X179705000Y-94870000D02*
X179705000Y-96170300D01*
X170159800Y-109827400D02*
X170159800Y-105502100D01*
X172286000Y-96829700D02*
X171924400Y-97191300D01*
X171924400Y-97191300D02*
X171924400Y-98368700D01*
X171924400Y-98368700D02*
X172105300Y-98549600D01*
X172105300Y-98549600D02*
X172105300Y-102573100D01*
X172105300Y-102573100D02*
X169176300Y-105502100D01*
X169176300Y-105502100D02*
X167619800Y-105502100D01*
X167619800Y-109827400D02*
X167619800Y-105502100D01*
X170848700Y-98504900D02*
X170848700Y-99733200D01*
X170848700Y-99733200D02*
X165079800Y-105502100D01*
X165079800Y-109827400D02*
X165079800Y-105502100D01*
X162539800Y-105502100D02*
X162539800Y-104856400D01*
X162539800Y-104856400D02*
X162070800Y-104387400D01*
X162539800Y-109827400D02*
X162539800Y-105502100D01*
X173587000Y-86965200D02*
X173587000Y-87725700D01*
X173587000Y-87725700D02*
X172648900Y-88663800D01*
X172648900Y-88663800D02*
X172648900Y-92337200D01*
X172648900Y-92337200D02*
X171459600Y-93526500D01*
X171459600Y-93526500D02*
X171459600Y-96076300D01*
X171459600Y-96076300D02*
X170223400Y-97312500D01*
X170223400Y-97312500D02*
X170223400Y-99226900D01*
X170223400Y-99226900D02*
X166357700Y-103092600D01*
X166357700Y-103092600D02*
X162409300Y-103092600D01*
X162409300Y-103092600D02*
X159999800Y-105502100D01*
X159999800Y-109827400D02*
X159999800Y-105502100D01*
X159362000Y-105306800D02*
X161098400Y-103570400D01*
X161098400Y-103570400D02*
X161098400Y-102209900D01*
X168362000Y-82807800D02*
X167642200Y-83527600D01*
X167642200Y-83527600D02*
X167642200Y-100025000D01*
X167642200Y-100025000D02*
X166553900Y-101113300D01*
X166553900Y-101113300D02*
X160624300Y-101113300D01*
X160624300Y-101113300D02*
X157459800Y-104277800D01*
X157459800Y-104277800D02*
X157459800Y-105502100D01*
X157459800Y-109827400D02*
X157459800Y-105502100D01*
X168312100Y-87077400D02*
X168279200Y-87110300D01*
X168279200Y-87110300D02*
X168279200Y-100024900D01*
X168279200Y-100024900D02*
X166740500Y-101563600D01*
X166740500Y-101563600D02*
X160810900Y-101563600D01*
X160810900Y-101563600D02*
X158093900Y-104280600D01*
X158093900Y-104280600D02*
X158093900Y-105173500D01*
X154919800Y-105502100D02*
X153980000Y-104562300D01*
X153980000Y-104562300D02*
X153980000Y-93281700D01*
X154919800Y-109827400D02*
X154919800Y-105502100D01*
X152379800Y-105502100D02*
X152379800Y-101340600D01*
X152379800Y-101340600D02*
X147319900Y-96280700D01*
X147319900Y-96280700D02*
X147319900Y-88144400D01*
X147319900Y-88144400D02*
X146040400Y-86864900D01*
X152379800Y-109827400D02*
X152379800Y-105502100D01*
X149839800Y-105502100D02*
X149839800Y-99685000D01*
X149839800Y-99685000D02*
X146983100Y-96828300D01*
X149839800Y-109827400D02*
X149839800Y-105502100D01*
X149175700Y-104932400D02*
X149175700Y-101819000D01*
X149175700Y-101819000D02*
X146965900Y-99609200D01*
X147299800Y-105502100D02*
X147299800Y-101448800D01*
X147299800Y-101448800D02*
X146331800Y-100480800D01*
X146331800Y-100480800D02*
X146331800Y-96548500D01*
X146331800Y-96548500D02*
X146685000Y-96195300D01*
X146685000Y-94870000D02*
X146685000Y-96195300D01*
X147299800Y-109827400D02*
X147299800Y-105502100D01*
X145415000Y-94870000D02*
X145415000Y-103622200D01*
X145415000Y-103622200D02*
X146651000Y-104858200D01*
X144759800Y-109827400D02*
X144759800Y-105502100D01*
X144145000Y-96195300D02*
X144759800Y-96810100D01*
X144759800Y-96810100D02*
X144759800Y-105502100D01*
X144145000Y-94870000D02*
X144145000Y-96195300D01*
X142875000Y-94870000D02*
X142875000Y-103703600D01*
X142875000Y-103703600D02*
X144130800Y-104959400D01*
X142219800Y-109827400D02*
X142219800Y-105502100D01*
X141605000Y-94870000D02*
X141605000Y-104887300D01*
X141605000Y-104887300D02*
X142219800Y-105502100D01*
X140335000Y-94870000D02*
X140335000Y-104339000D01*
X140335000Y-104339000D02*
X140963300Y-104967300D01*
X139065000Y-94870000D02*
X139065000Y-96195300D01*
X139679800Y-105502100D02*
X139679800Y-96810100D01*
X139679800Y-96810100D02*
X139065000Y-96195300D01*
X139679800Y-109827400D02*
X139679800Y-105502100D01*
X137795000Y-94870000D02*
X137795000Y-103963300D01*
X137795000Y-103963300D02*
X139048500Y-105216800D01*
X177165000Y-94870000D02*
X177367600Y-94667400D01*
X177367600Y-94667400D02*
X177367600Y-93052700D01*
X177367600Y-93052700D02*
X177166000Y-92851100D01*
X177166000Y-92851100D02*
X177166000Y-90902600D01*
X178435000Y-93569700D02*
X179298100Y-92706600D01*
X179298100Y-92706600D02*
X179298100Y-89688600D01*
X192041800Y-54736700D02*
X192041800Y-66203300D01*
X192041800Y-66203300D02*
X182949900Y-75295200D01*
X182949900Y-75295200D02*
X182949900Y-86036800D01*
X182949900Y-86036800D02*
X179298100Y-89688600D01*
X178435000Y-94870000D02*
X178435000Y-93569700D01*
X175651600Y-87163400D02*
X175936700Y-87163400D01*
X175936700Y-87163400D02*
X176520300Y-86579800D01*
X176520300Y-86579800D02*
X176520300Y-68900700D01*
X176520300Y-68900700D02*
X179060200Y-66360800D01*
X179060200Y-66360800D02*
X179060200Y-60077700D01*
X179060200Y-60077700D02*
X180797400Y-58340500D01*
X173355000Y-93569700D02*
X173355000Y-92904900D01*
X173355000Y-92904900D02*
X173549500Y-92710400D01*
X173549500Y-92710400D02*
X173549500Y-89265500D01*
X173549500Y-89265500D02*
X175651600Y-87163400D01*
X173355000Y-94870000D02*
X173355000Y-93569700D01*
X177826900Y-92197700D02*
X177826900Y-90245700D01*
X177826900Y-90245700D02*
X180344000Y-87728600D01*
X180344000Y-87728600D02*
X180344000Y-83411800D01*
X180344000Y-83411800D02*
X180186100Y-83253900D01*
X180186100Y-83253900D02*
X180186100Y-71067900D01*
X180186100Y-71067900D02*
X185052600Y-66201400D01*
X185052600Y-66201400D02*
X185052600Y-57560800D01*
X174625000Y-93391900D02*
X174625000Y-89728800D01*
X174625000Y-89728800D02*
X175680300Y-88673500D01*
X175680300Y-88673500D02*
X175934600Y-88673500D01*
X175934600Y-88673500D02*
X177809700Y-86798400D01*
X177809700Y-86798400D02*
X177809700Y-68501900D01*
X177809700Y-68501900D02*
X180106300Y-66205300D01*
X180106300Y-66205300D02*
X180106300Y-60238800D01*
X180106300Y-60238800D02*
X181427900Y-58917200D01*
X181427900Y-58917200D02*
X181427900Y-56874400D01*
X181427900Y-56874400D02*
X182443700Y-55858600D01*
X183244100Y-55595000D02*
X183244100Y-55948400D01*
X183244100Y-55948400D02*
X181907300Y-57285200D01*
X181907300Y-57285200D02*
X181907300Y-66490700D01*
X181907300Y-66490700D02*
X179079600Y-69318400D01*
X179079600Y-69318400D02*
X179079600Y-87042900D01*
X179079600Y-87042900D02*
X176539600Y-89582900D01*
X176539600Y-89582900D02*
X176539600Y-93109100D01*
X176539600Y-93109100D02*
X176742300Y-93311800D01*
X165003300Y-58934200D02*
X165003300Y-58876500D01*
X165003300Y-58876500D02*
X166821100Y-57058700D01*
X166821100Y-57058700D02*
X171486700Y-57058700D01*
X171486700Y-57058700D02*
X172382600Y-57954600D01*
X172382600Y-57954600D02*
X172382600Y-58427300D01*
X172382600Y-58427300D02*
X173012600Y-59057300D01*
X173012600Y-59057300D02*
X173131200Y-59057300D01*
X173131200Y-59057300D02*
X174307300Y-60233400D01*
X174307300Y-60233400D02*
X174307300Y-60358500D01*
X174307300Y-60358500D02*
X174462300Y-60513500D01*
X174462300Y-60513500D02*
X174462300Y-67622200D01*
X174462300Y-67622200D02*
X172085000Y-69999500D01*
X172085000Y-69999500D02*
X172085000Y-85470000D01*
X172085000Y-86770300D02*
X171738500Y-87116800D01*
X171738500Y-87116800D02*
X171738500Y-91962000D01*
X171738500Y-91962000D02*
X170189600Y-93510900D01*
X170189600Y-93510900D02*
X170189600Y-96226700D01*
X170189600Y-96226700D02*
X168957600Y-97458700D01*
X168957600Y-97458700D02*
X168957600Y-99515800D01*
X172085000Y-86120100D02*
X172085000Y-85470000D01*
X172085000Y-86120100D02*
X172085000Y-86770300D01*
X169545000Y-86770300D02*
X169545000Y-87365800D01*
X169545000Y-87365800D02*
X169191200Y-87719600D01*
X169191200Y-87719600D02*
X169191200Y-89213400D01*
X169191200Y-89213400D02*
X171099900Y-91122100D01*
X177779800Y-105502100D02*
X175250300Y-102972600D01*
X175250300Y-102972600D02*
X175250300Y-91150000D01*
X175250300Y-91150000D02*
X175278200Y-91122100D01*
X169545000Y-85470000D02*
X169545000Y-86770300D01*
X177779800Y-109827400D02*
X177779800Y-105502100D01*
X121802000Y-98171000D02*
X126979800Y-103348800D01*
X126979800Y-103348800D02*
X126979800Y-109827400D01*
X120577000Y-56261000D02*
X119289000Y-56261000D01*
X119289000Y-56261000D02*
X118746900Y-55718900D01*
X120577000Y-54038500D02*
X118782600Y-54038500D01*
X118782600Y-54038500D02*
X118768100Y-54053000D01*
X120577000Y-51816000D02*
X120040100Y-52352900D01*
X120040100Y-52352900D02*
X118658500Y-52352900D01*
X118658500Y-52352900D02*
X118658500Y-52353000D01*
X182643400Y-57573200D02*
X182643400Y-67050900D01*
X182643400Y-67050900D02*
X179705000Y-69989300D01*
X179705000Y-69989300D02*
X179705000Y-85470000D01*
X166254900Y-58520700D02*
X168194900Y-58520700D01*
X168194900Y-58520700D02*
X171599500Y-61925300D01*
X171599500Y-61925300D02*
X171599500Y-64848700D01*
X171599500Y-64848700D02*
X165809200Y-70639000D01*
X165809200Y-70639000D02*
X159557600Y-70639000D01*
X159557600Y-70639000D02*
X146685000Y-83511600D01*
X146685000Y-83511600D02*
X146685000Y-85470000D01*
X178435000Y-85470000D02*
X178435000Y-84169700D01*
X180736600Y-60652400D02*
X180736600Y-67024500D01*
X180736600Y-67024500D02*
X178435000Y-69326100D01*
X178435000Y-69326100D02*
X178435000Y-84169700D01*
X158496000Y-91263400D02*
X158496000Y-92645000D01*
X171481100Y-60884500D02*
X171481100Y-61090200D01*
X171481100Y-61090200D02*
X172066100Y-61675200D01*
X172066100Y-61675200D02*
X172066100Y-65926500D01*
X172066100Y-65926500D02*
X160401000Y-77591600D01*
X160401000Y-77591600D02*
X160401000Y-89358400D01*
X160401000Y-89358400D02*
X158496000Y-91263400D01*
X158496000Y-91263400D02*
X155095600Y-91263400D01*
X155095600Y-91263400D02*
X150163700Y-96195300D01*
X150163700Y-96195300D02*
X147955000Y-96195300D01*
X147955000Y-94870000D02*
X147955000Y-96195300D01*
X171227600Y-57684000D02*
X171131900Y-57779700D01*
X171131900Y-57779700D02*
X171131900Y-58545300D01*
X171131900Y-58545300D02*
X171498200Y-58911600D01*
X171498200Y-58911600D02*
X171593100Y-58911600D01*
X171593100Y-58911600D02*
X172639400Y-59957900D01*
X172639400Y-59957900D02*
X172758000Y-59957900D01*
X172758000Y-59957900D02*
X173406700Y-60606600D01*
X173406700Y-60606600D02*
X173406700Y-60731700D01*
X173406700Y-60731700D02*
X173476200Y-60801200D01*
X173476200Y-60801200D02*
X173476200Y-67334500D01*
X173476200Y-67334500D02*
X170815000Y-69995700D01*
X170815000Y-69995700D02*
X170815000Y-83942300D01*
X170815000Y-83942300D02*
X170580400Y-83942300D01*
X170580400Y-83942300D02*
X170189600Y-84333100D01*
X170189600Y-84333100D02*
X170189600Y-88581300D01*
X170189600Y-88581300D02*
X169816500Y-88954400D01*
X117926000Y-101346000D02*
X120303000Y-101346000D01*
X116802000Y-99296300D02*
X117926000Y-100420300D01*
X117926000Y-100420300D02*
X117926000Y-101346000D01*
X116802000Y-98171000D02*
X116802000Y-97045700D01*
X120227000Y-94691200D02*
X117872500Y-97045700D01*
X117872500Y-97045700D02*
X116802000Y-97045700D01*
X116802000Y-98171000D02*
X116802000Y-99296300D01*
X172756600Y-83488700D02*
X172729700Y-83515600D01*
X172729700Y-83515600D02*
X172729700Y-87946100D01*
X172729700Y-87946100D02*
X172198600Y-88477200D01*
X172198600Y-88477200D02*
X172198600Y-92138800D01*
X172198600Y-92138800D02*
X170815000Y-93522400D01*
X170815000Y-93522400D02*
X170815000Y-94870000D01*
X175895000Y-94870000D02*
X175895000Y-93569700D01*
X175939300Y-89298800D02*
X175939300Y-93525400D01*
X175939300Y-93525400D02*
X175895000Y-93569700D01*
X118177000Y-94691200D02*
X115676600Y-97191600D01*
X115676600Y-97191600D02*
X115676600Y-101146600D01*
X115676600Y-101146600D02*
X115876000Y-101346000D01*
X110862000Y-52705000D02*
X112817900Y-50749100D01*
X112817900Y-50749100D02*
X123580300Y-50749100D01*
X123580300Y-50749100D02*
X125277800Y-52446600D01*
X125277800Y-52446600D02*
X173173000Y-52446600D01*
X173173000Y-52446600D02*
X178609900Y-57883500D01*
X178609900Y-57883500D02*
X178609900Y-65833600D01*
X178609900Y-65833600D02*
X178148000Y-66295500D01*
X178148000Y-66295500D02*
X176906600Y-66295500D01*
X176906600Y-66295500D02*
X176654900Y-66043800D01*
X110862000Y-52705000D02*
X109506300Y-52705000D01*
X108331000Y-52705000D02*
X109506300Y-52705000D01*
X110862000Y-55245000D02*
X108331000Y-55245000D01*
X180829100Y-82559700D02*
X180829100Y-71303600D01*
X180829100Y-71303600D02*
X188970700Y-63162000D01*
X122627000Y-54038500D02*
X122627000Y-51816000D01*
X121515800Y-55149700D02*
X122627000Y-54038500D01*
X180829100Y-82559700D02*
X180829100Y-84023800D01*
X180829100Y-84023800D02*
X180975000Y-84169700D01*
X121515800Y-55149700D02*
X122627000Y-56261000D01*
X108331000Y-57785000D02*
X114150200Y-57785000D01*
X114150200Y-57785000D02*
X116870300Y-55064900D01*
X116870300Y-55064900D02*
X121430900Y-55064900D01*
X121430900Y-55064900D02*
X121515800Y-55149700D01*
X190096000Y-63162000D02*
X188970700Y-63162000D01*
X147955000Y-85470000D02*
X147955000Y-84144700D01*
X148249100Y-84144700D02*
X149225000Y-84144700D01*
X147955000Y-84144700D02*
X148249100Y-84144700D01*
X148249100Y-84144700D02*
X148249100Y-82903100D01*
X149225000Y-85470000D02*
X149225000Y-84144700D01*
X180975000Y-85470000D02*
X180975000Y-84169700D01*
X190477300Y-55378300D02*
X190477300Y-55468000D01*
X190477300Y-55468000D02*
X190596000Y-55586700D01*
X195577500Y-54096100D02*
X191759500Y-54096100D01*
X191759500Y-54096100D02*
X190477300Y-55378300D01*
X190477300Y-55378300D02*
X190333500Y-55234500D01*
X190333500Y-55234500D02*
X185380600Y-55234500D01*
X185380600Y-55234500D02*
X185058300Y-55556800D01*
X188970700Y-60962000D02*
X186128200Y-58119500D01*
X186128200Y-58119500D02*
X186128200Y-57115100D01*
X186128200Y-57115100D02*
X185498300Y-56485200D01*
X185498300Y-56485200D02*
X185388200Y-56485200D01*
X185388200Y-56485200D02*
X185058300Y-56155300D01*
X185058300Y-56155300D02*
X185058300Y-55556800D01*
X169779900Y-91747900D02*
X168740900Y-90708900D01*
X168740900Y-90708900D02*
X168740900Y-87533000D01*
X168740900Y-87533000D02*
X168937400Y-87336500D01*
X168937400Y-87336500D02*
X168937400Y-86818300D01*
X168937400Y-86818300D02*
X168839100Y-86720000D01*
X168839100Y-86720000D02*
X168839100Y-83354700D01*
X168839100Y-83354700D02*
X169106700Y-83087100D01*
X169106700Y-83087100D02*
X169106700Y-79758000D01*
X195577500Y-54096100D02*
X195577500Y-53304400D01*
X198370600Y-56889200D02*
X195577500Y-54096100D01*
X190596000Y-56512000D02*
X190596000Y-55586700D01*
X185058300Y-55556800D02*
X181322600Y-51821100D01*
X181322600Y-51821100D02*
X169881000Y-51821100D01*
X135255000Y-86795300D02*
X137188000Y-88728300D01*
X137188000Y-88728300D02*
X137188000Y-92709500D01*
X135255000Y-85470000D02*
X135255000Y-84144700D01*
X135255000Y-84144700D02*
X124236400Y-84144700D01*
X124236400Y-84144700D02*
X123415100Y-83323400D01*
X135255000Y-85974200D02*
X135255000Y-85470000D01*
X169545000Y-93569700D02*
X169545000Y-91982800D01*
X169545000Y-91982800D02*
X169779900Y-91747900D01*
X190096000Y-60962000D02*
X188970700Y-60962000D01*
X136525000Y-93544700D02*
X137188000Y-92881700D01*
X137188000Y-92881700D02*
X137188000Y-92709500D01*
X137188000Y-92709500D02*
X138271600Y-92709500D01*
X180975000Y-93569700D02*
X180975000Y-93366300D01*
X180975000Y-94870000D02*
X180975000Y-93569700D01*
X191108700Y-71112000D02*
X191108700Y-83436000D01*
X191108700Y-83436000D02*
X180975000Y-93569700D01*
X191108700Y-71112000D02*
X191621300Y-71112000D01*
X190596000Y-71112000D02*
X191108700Y-71112000D01*
X198370600Y-56889200D02*
X198393500Y-56889200D01*
X198393500Y-56889200D02*
X198770700Y-56512000D01*
X197870700Y-71112000D02*
X197870700Y-57389100D01*
X197870700Y-57389100D02*
X198370600Y-56889200D01*
X135255000Y-85974200D02*
X135255000Y-86795300D01*
X169545000Y-94870000D02*
X169545000Y-93569700D01*
X136525000Y-94870000D02*
X136525000Y-93544700D01*
X136525000Y-96195300D02*
X136525000Y-104887300D01*
X136525000Y-104887300D02*
X137139800Y-105502100D01*
X134599800Y-109827400D02*
X134599800Y-105502100D01*
X134599800Y-105502100D02*
X137139800Y-105502100D01*
X136525000Y-94870000D02*
X136525000Y-96195300D01*
X137139800Y-109827400D02*
X137139800Y-105502100D01*
X136525000Y-96195300D02*
X135255000Y-96195300D01*
X197870700Y-71112000D02*
X191621300Y-71112000D01*
X198770700Y-72012000D02*
X197870700Y-71112000D01*
X135255000Y-94870000D02*
X135255000Y-96195300D01*
X200196000Y-56512000D02*
X198770700Y-56512000D01*
X200196000Y-72012000D02*
X198770700Y-72012000D01*
X131695000Y-87535600D02*
X134437700Y-84792900D01*
X131695000Y-87535600D02*
X132059800Y-87900400D01*
X132059800Y-87900400D02*
X132059800Y-105502100D01*
X132059800Y-109827400D02*
X132059800Y-105502100D01*
X129519800Y-109827400D02*
X129519800Y-105502100D01*
X129519800Y-105502100D02*
X132059800Y-105502100D01*
X108204000Y-71025300D02*
X107836700Y-71025300D01*
X107836700Y-71025300D02*
X107024000Y-71838000D01*
X107024000Y-71838000D02*
X107024000Y-75504000D01*
X107024000Y-75504000D02*
X119055600Y-87535600D01*
X119055600Y-87535600D02*
X131695000Y-87535600D01*
X108204000Y-69850000D02*
X108204000Y-71025300D01*
X149225000Y-93544700D02*
X154587600Y-88182100D01*
X154587600Y-88182100D02*
X154587600Y-82313700D01*
X149225000Y-94870000D02*
X149225000Y-93544700D01*
X112912000Y-55245000D02*
X112912000Y-52705000D01*
X171421500Y-59987300D02*
X172031900Y-59987300D01*
X172031900Y-59987300D02*
X172452800Y-60408200D01*
X172452800Y-60408200D02*
X172571400Y-60408200D01*
X172571400Y-60408200D02*
X172956400Y-60793200D01*
X172956400Y-60793200D02*
X172956400Y-60918300D01*
X172956400Y-60918300D02*
X173010000Y-60971900D01*
X173010000Y-60971900D02*
X173010000Y-67163800D01*
X173010000Y-67163800D02*
X167107900Y-73065900D01*
X167107900Y-73065900D02*
X167107900Y-89113100D01*
X167107900Y-89113100D02*
X163576000Y-92645000D01*
X161036000Y-92645000D02*
X161036000Y-91883700D01*
X161036000Y-91883700D02*
X166652800Y-86266900D01*
X166652800Y-86266900D02*
X166652800Y-72884100D01*
X166652800Y-72884100D02*
X172516500Y-67020400D01*
X172516500Y-67020400D02*
X172516500Y-61241000D01*
X172516500Y-61241000D02*
X172309100Y-61033600D01*
X171757200Y-58286300D02*
X171757200Y-58438800D01*
X171757200Y-58438800D02*
X172826000Y-59507600D01*
X172826000Y-59507600D02*
X172944600Y-59507600D01*
X172944600Y-59507600D02*
X173857000Y-60420000D01*
X173857000Y-60420000D02*
X173857000Y-60545100D01*
X173857000Y-60545100D02*
X173984600Y-60672700D01*
X173984600Y-60672700D02*
X173984600Y-67463000D01*
X173984600Y-67463000D02*
X171449900Y-69997700D01*
X171449900Y-69997700D02*
X171449900Y-84835100D01*
X171449900Y-84835100D02*
X170815000Y-85470000D01*
X172725700Y-57372300D02*
X172832900Y-57479500D01*
X172832900Y-57479500D02*
X172832900Y-58240700D01*
X172832900Y-58240700D02*
X173199200Y-58607000D01*
X173199200Y-58607000D02*
X173330800Y-58607000D01*
X173330800Y-58607000D02*
X174757600Y-60033800D01*
X174757600Y-60033800D02*
X174757600Y-60171900D01*
X174757600Y-60171900D02*
X174913300Y-60327600D01*
X174913300Y-60327600D02*
X174913300Y-82611400D01*
X174913300Y-82611400D02*
X173355000Y-84169700D01*
X173355000Y-85470000D02*
X173355000Y-84169700D01*
X173458200Y-57981700D02*
X175207900Y-59731400D01*
X175207900Y-59731400D02*
X175207900Y-59985300D01*
X175207900Y-59985300D02*
X175895000Y-60672400D01*
X175895000Y-60672400D02*
X175895000Y-84169700D01*
X175895000Y-85470000D02*
X175895000Y-84169700D01*
X188970700Y-62062000D02*
X185677900Y-58769200D01*
X185677900Y-58769200D02*
X185677900Y-57301700D01*
X185677900Y-57301700D02*
X185311700Y-56935500D01*
X185311700Y-56935500D02*
X185181700Y-56935500D01*
X185181700Y-56935500D02*
X183869400Y-55623200D01*
X183869400Y-55623200D02*
X183869400Y-55335900D01*
X183869400Y-55335900D02*
X183017300Y-54483800D01*
X190096000Y-62062000D02*
X188970700Y-62062000D01*
X188970700Y-59862000D02*
X188970700Y-59121700D01*
X188970700Y-59121700D02*
X185708800Y-55859800D01*
X190096000Y-59862000D02*
X191221300Y-59862000D01*
X190096000Y-64262000D02*
X191221300Y-64262000D01*
X191221300Y-64262000D02*
X191221300Y-59862000D01*
X190096000Y-59862000D02*
X188970700Y-59862000D01*
X177117200Y-57278700D02*
X174149200Y-54310700D01*
X174149200Y-54310700D02*
X129233700Y-54310700D01*
X129233700Y-54310700D02*
X119663400Y-63881000D01*
X108204000Y-74930000D02*
X144293400Y-74930000D01*
X144293400Y-74930000D02*
X164012100Y-55211300D01*
X164012100Y-55211300D02*
X173528400Y-55211300D01*
X173528400Y-55211300D02*
X177709300Y-59392200D01*
X177709300Y-59392200D02*
X177709300Y-64663200D01*
X177709300Y-64663200D02*
X177505400Y-64867100D01*
X108204000Y-72390000D02*
X146196500Y-72390000D01*
X146196500Y-72390000D02*
X163825500Y-54761000D01*
X163825500Y-54761000D02*
X173715000Y-54761000D01*
X173715000Y-54761000D02*
X178159600Y-59205600D01*
X178159600Y-59205600D02*
X178159600Y-65344800D01*
X178159600Y-65344800D02*
X177896300Y-65608100D01*
X122353000Y-101346000D02*
X119214600Y-98207600D01*
X119214600Y-98207600D02*
X119214600Y-96635700D01*
M02*
