M48
; DRILL file {KiCad 5.1.5+dfsg1-2} date Mon 06 Apr 2020 05:51:19 PM PDT
; FORMAT={-:-/ absolute / inch / decimal}
; #@! TF.CreationDate,2020-04-06T17:51:19-07:00
; #@! TF.GenerationSoftware,Kicad,Pcbnew,5.1.5+dfsg1-2
; #@! TF.FileFunction,Plated,1,2,PTH
FMAT,2
INCH
T1C0.0157
T2C0.0305
T3C0.0315
%
G90
G05
T1
X4.6716Y-2.0611
X4.6751Y-2.1937
X4.6759Y-2.1281
X4.6935Y-3.8046
X4.7112Y-2.515
X4.8589Y-3.2804
X5.2928Y-3.3383
X5.4438Y-3.65
X5.4674Y-3.4279
X5.4744Y-4.1424
X5.5102Y-3.286
X5.5287Y-3.6675
X5.5497Y-4.1326
X5.55Y-3.4254
X5.5635Y-3.2844
X5.6226Y-3.6723
X5.6744Y-4.1323
X5.675Y-3.6758
X5.7496Y-3.4199
X5.7578Y-3.6758
X5.7737Y-4.1283
X5.7861Y-3.9216
X5.7867Y-3.8121
X5.8366Y-3.2639
X5.8731Y-4.1312
X6.0622Y-3.6725
X6.0861Y-3.2407
X6.2242Y-4.1407
X6.2741Y-4.1459
X6.3425Y-4.024
X6.3807Y-4.1097
X6.4962Y-2.3202
X6.5278Y-3.9562
X6.5428Y-3.9159
X6.5455Y-2.304
X6.5614Y-3.9418
X6.6265Y-3.4282
X6.6284Y-3.2601
X6.6519Y-3.9179
X6.6577Y-3.1401
X6.6842Y-3.6121
X6.6857Y-3.5021
X6.6882Y-2.0402
X6.7041Y-2.4666
X6.7045Y-2.424
X6.7054Y-2.5409
X6.725Y-3.3048
X6.7263Y-3.8781
X6.7301Y-2.515
X6.731Y-2.4488
X6.7362Y-3.5875
X6.7412Y-2.271
X6.7489Y-2.3617
X6.7509Y-4.0282
X6.7512Y-2.397
X6.7621Y-2.2947
X6.7829Y-3.8122
X6.7838Y-2.4029
X6.7936Y-3.8626
X6.8002Y-2.2588
X6.8014Y-3.287
X6.8291Y-2.2827
X6.8341Y-3.4238
X6.8367Y-4.1194
X6.875Y-3.6768
X6.9007Y-3.5875
X6.9154Y-3.4316
X6.9226Y-2.3514
X6.9267Y-3.5157
X6.9351Y-3.85
X6.9549Y-2.6001
X6.9584Y-3.6737
X6.9718Y-2.3569
X6.9718Y-2.4421
X6.9731Y-2.2551
X6.975Y-3.5788
X6.9884Y-2.5538
X7.0011Y-3.6298
X7.0038Y-2.583
X7.0492Y-4.1516
X7.059Y-3.531
X7.1156Y-2.3879
X7.118Y-2.2969
X7.1193Y-3.2504
X7.125Y-3.6758
X7.1828Y-2.1992
X7.1907Y-2.2667
X7.2054Y-2.145
X7.2143Y-2.1888
X7.2855Y-2.2662
X7.3114Y-2.1992
X7.5607Y-2.155
X7.6999Y-2.0986
T2
X4.26Y-2.65
X4.26Y-2.75
X4.26Y-2.85
X4.26Y-2.95
X4.265Y-2.075
X4.265Y-2.175
X4.265Y-2.275
X4.265Y-2.375
T3
X4.5985Y-3.865
X4.7954Y-3.865
T0
M30
