G04 #@! TF.FileFunction,Profile,NP*
%FSLAX46Y46*%
G04 Gerber Fmt 4.6, Leading zero omitted, Abs format (unit mm)*
G04 Created by KiCad (PCBNEW 4.0.7) date 03/27/18 21:31:00*
%MOMM*%
%LPD*%
G01*
G04 APERTURE LIST*
%ADD10C,0.100000*%
%ADD11C,0.150000*%
G04 APERTURE END LIST*
D10*
D11*
X87884000Y-72898000D02*
G75*
G03X87884000Y-72898000I-254000J0D01*
G01*
X87757000Y-74930000D02*
G75*
G03X87757000Y-74930000I-254000J0D01*
G01*
X87757000Y-75692000D02*
G75*
G03X87757000Y-75692000I-254000J0D01*
G01*
X87757000Y-76454000D02*
G75*
G03X87757000Y-76454000I-254000J0D01*
G01*
X87757000Y-78232000D02*
G75*
G03X87757000Y-78232000I-254000J0D01*
G01*
X87757000Y-78994000D02*
G75*
G03X87757000Y-78994000I-254000J0D01*
G01*
X87757000Y-79756000D02*
G75*
G03X87757000Y-79756000I-254000J0D01*
G01*
X87757000Y-80518000D02*
G75*
G03X87757000Y-80518000I-254000J0D01*
G01*
X87757000Y-81280000D02*
G75*
G03X87757000Y-81280000I-254000J0D01*
G01*
X87757000Y-83312000D02*
G75*
G03X87757000Y-83312000I-254000J0D01*
G01*
X87757000Y-84074000D02*
G75*
G03X87757000Y-84074000I-254000J0D01*
G01*
X87757000Y-84836000D02*
G75*
G03X87757000Y-84836000I-254000J0D01*
G01*
X87757000Y-85598000D02*
G75*
G03X87757000Y-85598000I-254000J0D01*
G01*
X87757000Y-86360000D02*
G75*
G03X87757000Y-86360000I-254000J0D01*
G01*
X87757000Y-87122000D02*
G75*
G03X87757000Y-87122000I-254000J0D01*
G01*
X87757000Y-87884000D02*
G75*
G03X87757000Y-87884000I-254000J0D01*
G01*
X87757000Y-88646000D02*
G75*
G03X87757000Y-88646000I-254000J0D01*
G01*
X87757000Y-90297000D02*
G75*
G03X87757000Y-90297000I-254000J0D01*
G01*
X87757000Y-91059000D02*
G75*
G03X87757000Y-91059000I-254000J0D01*
G01*
X87757000Y-91821000D02*
G75*
G03X87757000Y-91821000I-254000J0D01*
G01*
X87757000Y-92583000D02*
G75*
G03X87757000Y-92583000I-254000J0D01*
G01*
X101269800Y-93345000D02*
G75*
G03X101269800Y-93345000I-254000J0D01*
G01*
X87503000Y-63373000D02*
X87503000Y-73025000D01*
X55270400Y-63373000D02*
X87503000Y-63373000D01*
X55270400Y-93345000D02*
X55270400Y-63373000D01*
X87503000Y-93345000D02*
X55270400Y-93345000D01*
X106553000Y-146812000D02*
X87503000Y-146812000D01*
X106045000Y-93345000D02*
G75*
G03X106045000Y-93345000I-254000J0D01*
G01*
X105283000Y-93345000D02*
G75*
G03X105283000Y-93345000I-254000J0D01*
G01*
X104521000Y-93345000D02*
G75*
G03X104521000Y-93345000I-254000J0D01*
G01*
X103759000Y-93345000D02*
G75*
G03X103759000Y-93345000I-254000J0D01*
G01*
X102997000Y-93345000D02*
G75*
G03X102997000Y-93345000I-254000J0D01*
G01*
X102235000Y-93345000D02*
G75*
G03X102235000Y-93345000I-254000J0D01*
G01*
X99949000Y-93345000D02*
G75*
G03X99949000Y-93345000I-254000J0D01*
G01*
X99187000Y-93345000D02*
G75*
G03X99187000Y-93345000I-254000J0D01*
G01*
X98425000Y-93345000D02*
G75*
G03X98425000Y-93345000I-254000J0D01*
G01*
X97663000Y-93345000D02*
G75*
G03X97663000Y-93345000I-254000J0D01*
G01*
X96901000Y-93345000D02*
G75*
G03X96901000Y-93345000I-254000J0D01*
G01*
X96139000Y-93345000D02*
G75*
G03X96139000Y-93345000I-254000J0D01*
G01*
X95377000Y-93345000D02*
G75*
G03X95377000Y-93345000I-254000J0D01*
G01*
X94615000Y-93345000D02*
G75*
G03X94615000Y-93345000I-254000J0D01*
G01*
X93853000Y-93345000D02*
G75*
G03X93853000Y-93345000I-254000J0D01*
G01*
X93091000Y-93345000D02*
G75*
G03X93091000Y-93345000I-254000J0D01*
G01*
X92329000Y-93345000D02*
G75*
G03X92329000Y-93345000I-254000J0D01*
G01*
X91567000Y-93345000D02*
G75*
G03X91567000Y-93345000I-254000J0D01*
G01*
X90805000Y-93345000D02*
G75*
G03X90805000Y-93345000I-254000J0D01*
G01*
X90043000Y-93345000D02*
G75*
G03X90043000Y-93345000I-254000J0D01*
G01*
X89281000Y-93345000D02*
G75*
G03X89281000Y-93345000I-254000J0D01*
G01*
X88519000Y-93345000D02*
G75*
G03X88519000Y-93345000I-254000J0D01*
G01*
X106553000Y-93345000D02*
X106553000Y-94107000D01*
X106553000Y-73025000D02*
X105283000Y-73025000D01*
X87503000Y-146812000D02*
X87503000Y-93345000D01*
X106553000Y-94107000D02*
X106553000Y-146812000D01*
X106553000Y-93345000D02*
X106553000Y-73025000D01*
X87503000Y-73025000D02*
X105283000Y-73025000D01*
M02*
