G04 #@! TF.FileFunction,Copper,L2,Bot,Signal*
%FSLAX46Y46*%
G04 Gerber Fmt 4.6, Leading zero omitted, Abs format (unit mm)*
G04 Created by KiCad (PCBNEW 4.0.7) date 03/28/18 13:05:47*
%MOMM*%
%LPD*%
G01*
G04 APERTURE LIST*
%ADD10C,0.100000*%
%ADD11R,1.727200X1.727200*%
%ADD12O,1.727200X1.727200*%
%ADD13R,2.032000X1.727200*%
%ADD14O,2.032000X1.727200*%
%ADD15R,1.200000X0.900000*%
%ADD16C,5.001260*%
%ADD17C,1.198880*%
%ADD18C,2.000000*%
%ADD19C,1.000000*%
%ADD20C,0.600000*%
%ADD21C,0.250000*%
%ADD22C,0.400000*%
%ADD23C,0.254000*%
G04 APERTURE END LIST*
D10*
D11*
X89814400Y-96494600D03*
D12*
X92354400Y-96494600D03*
X89814400Y-99034600D03*
X92354400Y-99034600D03*
X89814400Y-101574600D03*
X92354400Y-101574600D03*
X89814400Y-104114600D03*
X92354400Y-104114600D03*
X89814400Y-106654600D03*
X92354400Y-106654600D03*
X89814400Y-109194600D03*
X92354400Y-109194600D03*
X89814400Y-111734600D03*
X92354400Y-111734600D03*
X89814400Y-114274600D03*
X92354400Y-114274600D03*
X89814400Y-116814600D03*
X92354400Y-116814600D03*
X89814400Y-119354600D03*
X92354400Y-119354600D03*
X89814400Y-121894600D03*
X92354400Y-121894600D03*
X89814400Y-124434600D03*
X92354400Y-124434600D03*
X89814400Y-126974600D03*
X92354400Y-126974600D03*
X89814400Y-129514600D03*
X92354400Y-129514600D03*
X89814400Y-132054600D03*
X92354400Y-132054600D03*
X89814400Y-134594600D03*
X92354400Y-134594600D03*
X89814400Y-137134600D03*
X92354400Y-137134600D03*
X89814400Y-139674600D03*
X92354400Y-139674600D03*
X89814400Y-142214600D03*
X92354400Y-142214600D03*
X89814400Y-144754600D03*
X92354400Y-144754600D03*
D11*
X92583000Y-88265000D03*
D12*
X90043000Y-88265000D03*
X92583000Y-85725000D03*
X90043000Y-85725000D03*
X92583000Y-83185000D03*
X90043000Y-83185000D03*
X92583000Y-80645000D03*
X90043000Y-80645000D03*
X92583000Y-78105000D03*
X90043000Y-78105000D03*
D13*
X103759000Y-90805000D03*
D14*
X103759000Y-88265000D03*
X103759000Y-85725000D03*
X103759000Y-83185000D03*
X103759000Y-80645000D03*
X103759000Y-78105000D03*
X103759000Y-75565000D03*
D15*
X96563000Y-88265000D03*
X98763000Y-88265000D03*
X96563000Y-80645000D03*
X98763000Y-80645000D03*
X96563000Y-78105000D03*
X98763000Y-78105000D03*
D16*
X103319580Y-131620260D03*
D17*
X101320600Y-118859300D03*
X101320600Y-121145300D03*
X101320600Y-123436380D03*
X101320600Y-116565680D03*
X101320600Y-114277140D03*
X102819200Y-117711220D03*
X102819200Y-119999760D03*
X102819200Y-122290840D03*
X102819200Y-124581920D03*
D16*
X103319580Y-106631740D03*
D17*
X102819200Y-115420140D03*
X104320340Y-123436380D03*
X104320340Y-121145300D03*
X104317800Y-118856760D03*
X104320340Y-116565680D03*
X104320340Y-114277140D03*
D18*
X84475600Y-65257400D03*
X84475600Y-91257400D03*
X58475600Y-65257400D03*
D19*
X65475600Y-89957400D03*
X65975600Y-85957400D03*
X66475600Y-87957400D03*
X66975600Y-89957400D03*
X67475600Y-85957400D03*
X67975600Y-87957400D03*
X68475600Y-89957400D03*
X68975600Y-85957400D03*
X69475600Y-87957400D03*
X69975600Y-89957400D03*
X70475600Y-85957400D03*
X70975600Y-87957400D03*
X71475600Y-89957400D03*
X71975600Y-85957400D03*
X72475600Y-87957400D03*
X72975600Y-89957400D03*
X73475600Y-85957400D03*
X73975600Y-87957400D03*
X74475600Y-89957400D03*
X74975600Y-85957400D03*
X75475600Y-87957400D03*
X75975600Y-89957400D03*
X76475600Y-85957400D03*
X76975600Y-87957400D03*
X77475600Y-89957400D03*
X59775600Y-84257400D03*
X61775600Y-83757400D03*
X63775600Y-83257400D03*
X59775600Y-82757400D03*
X61775600Y-82257400D03*
X63775600Y-81757400D03*
X59775600Y-81257400D03*
X61775600Y-80757400D03*
X63775600Y-80257400D03*
X59775600Y-79757400D03*
X61775600Y-79257400D03*
X63775600Y-78757400D03*
X59775600Y-78257400D03*
X61775600Y-77757400D03*
X63775600Y-77257400D03*
X59775600Y-76757400D03*
X61775600Y-76257400D03*
X63775600Y-75757400D03*
X59775600Y-75257400D03*
X61775600Y-74757400D03*
X63775600Y-74257400D03*
X59775600Y-73757400D03*
X61775600Y-73257400D03*
X63775600Y-72757400D03*
X59775600Y-72257400D03*
X65475600Y-66557400D03*
X65975600Y-68557400D03*
X66475600Y-70557400D03*
X66975600Y-66557400D03*
X67475600Y-68557400D03*
X67975600Y-70557400D03*
X68475600Y-66557400D03*
X68975600Y-68557400D03*
X69475600Y-70557400D03*
X69975600Y-66557400D03*
X70475600Y-68557400D03*
X70975600Y-70557400D03*
X71475600Y-66557400D03*
X71975600Y-68557400D03*
X72475600Y-70557400D03*
X72975600Y-66557400D03*
X73475600Y-68557400D03*
X73975600Y-70557400D03*
X74475600Y-66557400D03*
X74975600Y-68557400D03*
X75475600Y-70557400D03*
X75975600Y-66557400D03*
X76475600Y-68557400D03*
X76975600Y-70557400D03*
X77475600Y-66557400D03*
X83175600Y-84257400D03*
X79175600Y-83757400D03*
X81175600Y-83257400D03*
X83175600Y-82757400D03*
X79175600Y-82257400D03*
X81175600Y-81757400D03*
X83175600Y-81257400D03*
X79175600Y-80757400D03*
X81175600Y-80257400D03*
X83175600Y-79757400D03*
X79175600Y-79257400D03*
X81175600Y-78757400D03*
X83175600Y-78257400D03*
X79175600Y-77757400D03*
X81175600Y-77257400D03*
X83175600Y-76757400D03*
X79175600Y-76257400D03*
X81175600Y-75757400D03*
X83175600Y-75257400D03*
X79175600Y-74757400D03*
X81175600Y-74257400D03*
X83175600Y-73757400D03*
X79175600Y-73257400D03*
X81175600Y-72757400D03*
X83175600Y-72257400D03*
D18*
X58475600Y-91257400D03*
D20*
X98806000Y-88392000D03*
X98763000Y-80645000D03*
X98933000Y-78105000D03*
X97422600Y-121194000D03*
X96800800Y-126846000D03*
X96600800Y-128445000D03*
X97234300Y-133489000D03*
X95069300Y-117734000D03*
X94599200Y-118824000D03*
X94760200Y-119656000D03*
D21*
X98763000Y-88349000D02*
X98763000Y-88265000D01*
X98806000Y-88392000D02*
X98763000Y-88349000D01*
X82350200Y-73932000D02*
X81175600Y-72757400D01*
X82350200Y-84609600D02*
X82350200Y-73932000D01*
X87203800Y-89463200D02*
X82350200Y-84609600D01*
X90567400Y-89463200D02*
X87203800Y-89463200D01*
X91394100Y-88636500D02*
X90567400Y-89463200D01*
X91394100Y-88265000D02*
X91394100Y-88636500D01*
X92583000Y-88265000D02*
X91394100Y-88265000D01*
X96563000Y-89040300D02*
X96563000Y-88265000D01*
X98022600Y-90499900D02*
X96563000Y-89040300D01*
X100295000Y-90499900D02*
X98022600Y-90499900D01*
X102530000Y-88265000D02*
X100295000Y-90499900D01*
X103759000Y-88265000D02*
X102530000Y-88265000D01*
X90043000Y-88265000D02*
X90043000Y-87076100D01*
X96149400Y-87076100D02*
X90043000Y-87076100D01*
X96563000Y-87489700D02*
X96149400Y-87076100D01*
X96563000Y-88265000D02*
X96563000Y-87489700D01*
X102819000Y-115420000D02*
X102464000Y-115420000D01*
X89671500Y-79293900D02*
X88854100Y-80111300D01*
X90043000Y-79293900D02*
X89671500Y-79293900D01*
X90043000Y-78105000D02*
X90043000Y-79293900D01*
X89671400Y-87076100D02*
X90043000Y-87076100D01*
X88854100Y-86258800D02*
X89671400Y-87076100D01*
X88854100Y-80111300D02*
X88854100Y-86258800D01*
X62601000Y-85310000D02*
X67028400Y-89737400D01*
X62601000Y-80082800D02*
X62601000Y-85310000D01*
X61775600Y-79257400D02*
X62601000Y-80082800D01*
X67983000Y-88782800D02*
X67028400Y-89737400D01*
X73150200Y-88782800D02*
X67983000Y-88782800D01*
X73975600Y-87957400D02*
X73150200Y-88782800D01*
X66975600Y-89790200D02*
X66975600Y-89957400D01*
X67028400Y-89737400D02*
X66975600Y-89790200D01*
X102819100Y-115420100D02*
X102819000Y-115420000D01*
X102819200Y-115420100D02*
X102819100Y-115420100D01*
X68650200Y-67382800D02*
X67475600Y-68557400D01*
X73650200Y-67382800D02*
X68650200Y-67382800D01*
X74475600Y-66557400D02*
X73650200Y-67382800D01*
X102819200Y-119999800D02*
X102819000Y-119999800D01*
X102819000Y-120000000D02*
X102819000Y-119999800D01*
X102464000Y-116745000D02*
X102464000Y-115420000D01*
X101879000Y-117329000D02*
X102464000Y-116745000D01*
X101879000Y-118095000D02*
X101879000Y-117329000D01*
X102819000Y-119034000D02*
X101879000Y-118095000D01*
X102819000Y-119999800D02*
X102819000Y-119034000D01*
X100808000Y-113764500D02*
X101320600Y-114277100D01*
X101321000Y-114277000D02*
X100808000Y-113764500D01*
X102464000Y-115420000D02*
X101321000Y-114277000D01*
X100295000Y-113252000D02*
X100295000Y-90499900D01*
X100808000Y-113764500D02*
X100295000Y-113252000D01*
X83175600Y-79757400D02*
X84021000Y-79757400D01*
X88500200Y-79757400D02*
X88854100Y-80111300D01*
X84021000Y-79757400D02*
X88500200Y-79757400D01*
X80182900Y-78250100D02*
X79175600Y-79257400D01*
X80182900Y-72514100D02*
X80182900Y-78250100D01*
X81314200Y-71382800D02*
X80182900Y-72514100D01*
X83526600Y-71382800D02*
X81314200Y-71382800D01*
X84021000Y-71877200D02*
X83526600Y-71382800D01*
X84021000Y-79757400D02*
X84021000Y-71877200D01*
X74982800Y-86950200D02*
X73975600Y-87957400D01*
X76719100Y-86950200D02*
X74982800Y-86950200D01*
X78160000Y-85509300D02*
X76719100Y-86950200D01*
X78160000Y-80273000D02*
X78160000Y-85509300D01*
X79175600Y-79257400D02*
X78160000Y-80273000D01*
X92354400Y-101574600D02*
X94589600Y-101574600D01*
X94589600Y-101574600D02*
X94615000Y-101600000D01*
X89814400Y-107844000D02*
X89814400Y-107243000D01*
X90186000Y-107844000D02*
X89814400Y-107844000D01*
X91003300Y-108661000D02*
X90186000Y-107844000D01*
X91003300Y-109566000D02*
X91003300Y-108661000D01*
X91982800Y-110546000D02*
X91003300Y-109566000D01*
X92354400Y-110546000D02*
X91982800Y-110546000D01*
X92354400Y-111734600D02*
X92354400Y-110546000D01*
X89814400Y-144755000D02*
X89814400Y-144754600D01*
X92354400Y-135946000D02*
X92354400Y-137134600D01*
X91982800Y-135946000D02*
X92354400Y-135946000D01*
X91165500Y-135128000D02*
X91982800Y-135946000D01*
X91165500Y-134061000D02*
X91165500Y-135128000D01*
X91982800Y-133244000D02*
X91165500Y-134061000D01*
X92354400Y-133244000D02*
X91982800Y-133244000D01*
X92354400Y-132643000D02*
X92354400Y-133244000D01*
X89814400Y-143566000D02*
X89814400Y-144754600D01*
X90186000Y-143566000D02*
X89814400Y-143566000D01*
X91003300Y-142748000D02*
X90186000Y-143566000D01*
X91003300Y-139303000D02*
X91003300Y-142748000D01*
X91982800Y-138324000D02*
X91003300Y-139303000D01*
X92354400Y-138324000D02*
X91982800Y-138324000D01*
X92354400Y-137134600D02*
X92354400Y-138324000D01*
X92354400Y-111735000D02*
X92354400Y-111734600D01*
X89814400Y-106655000D02*
X89814400Y-107243000D01*
X89814400Y-106655000D02*
X89814400Y-106654600D01*
X92354400Y-132055000D02*
X92354400Y-132643000D01*
X92354400Y-132055000D02*
X92354400Y-132054600D01*
X91003300Y-131292000D02*
X92354400Y-132643000D01*
X91003300Y-128981000D02*
X91003300Y-131292000D01*
X90186000Y-128164000D02*
X91003300Y-128981000D01*
X89814400Y-128164000D02*
X90186000Y-128164000D01*
X89814400Y-126975000D02*
X89814400Y-128164000D01*
X89814400Y-126975000D02*
X89814400Y-126974600D01*
X91165500Y-105892000D02*
X89814400Y-107243000D01*
X91165500Y-103581000D02*
X91165500Y-105892000D01*
X91982800Y-102764000D02*
X91165500Y-103581000D01*
X92354400Y-102764000D02*
X91982800Y-102764000D01*
X92354400Y-101575000D02*
X92354400Y-102764000D01*
X92354400Y-101575000D02*
X92354400Y-101574600D01*
D22*
X91313000Y-84455000D02*
X90043000Y-85725000D01*
X93853000Y-84455000D02*
X91313000Y-84455000D01*
X95123000Y-83185000D02*
X93853000Y-84455000D01*
X96647000Y-83185000D02*
X95123000Y-83185000D01*
X96563000Y-83101000D02*
X96563000Y-80645000D01*
X96647000Y-83185000D02*
X96563000Y-83101000D01*
X96563000Y-80645000D02*
X96563000Y-78105000D01*
X96647000Y-83185000D02*
X103759000Y-83185000D01*
D21*
X98933000Y-78105000D02*
X98763000Y-78105000D01*
X79175600Y-72884500D02*
X79175600Y-73257400D01*
X81127700Y-70932400D02*
X79175600Y-72884500D01*
X84572700Y-70932400D02*
X81127700Y-70932400D01*
X91394100Y-77753800D02*
X84572700Y-70932400D01*
X91394100Y-78105000D02*
X91394100Y-77753800D01*
X92583000Y-78105000D02*
X91394100Y-78105000D01*
X97422600Y-110000000D02*
X97422600Y-121194000D01*
X92725900Y-105304000D02*
X97422600Y-110000000D01*
X92354400Y-105304000D02*
X92725900Y-105304000D01*
X92354400Y-104115000D02*
X92354400Y-105304000D01*
X92354400Y-104115000D02*
X92354400Y-104114600D01*
X96595400Y-126641000D02*
X96800800Y-126846000D01*
X96595400Y-111713000D02*
X96595400Y-126641000D01*
X92725900Y-107844000D02*
X96595400Y-111713000D01*
X92354400Y-107844000D02*
X92725900Y-107844000D01*
X92354400Y-106655000D02*
X92354400Y-107844000D01*
X92354400Y-106655000D02*
X92354400Y-106654600D01*
X95694600Y-127539000D02*
X96600800Y-128445000D01*
X95694600Y-115842000D02*
X95694600Y-127539000D01*
X92856700Y-113005000D02*
X95694600Y-115842000D01*
X91921100Y-113005000D02*
X92856700Y-113005000D01*
X91003300Y-112087000D02*
X91921100Y-113005000D01*
X91003300Y-111201000D02*
X91003300Y-112087000D01*
X90186000Y-110384000D02*
X91003300Y-111201000D01*
X89814400Y-110384000D02*
X90186000Y-110384000D01*
X89814400Y-109195000D02*
X89814400Y-110384000D01*
X89814400Y-109195000D02*
X89814400Y-109194600D01*
X97234300Y-128194000D02*
X97234300Y-133489000D01*
X96145000Y-127105000D02*
X97234300Y-128194000D01*
X96145000Y-112985000D02*
X96145000Y-127105000D01*
X92354400Y-109195000D02*
X96145000Y-112985000D01*
X92354400Y-109194600D02*
X92354400Y-109195000D01*
X89814400Y-119355000D02*
X89814800Y-119355000D01*
X94752500Y-118051000D02*
X95069300Y-117734000D01*
X91935600Y-118051000D02*
X94752500Y-118051000D01*
X91003300Y-118983000D02*
X91935600Y-118051000D01*
X91003300Y-119355000D02*
X91003300Y-118983000D01*
X89814800Y-119355000D02*
X91003300Y-119355000D01*
X89814800Y-119355000D02*
X89814400Y-119354600D01*
X89814800Y-121895000D02*
X89814400Y-121895000D01*
X91003300Y-121895000D02*
X89814800Y-121895000D01*
X91003300Y-121523000D02*
X91003300Y-121895000D01*
X91820600Y-120706000D02*
X91003300Y-121523000D01*
X92718000Y-120706000D02*
X91820600Y-120706000D01*
X94599200Y-118824000D02*
X92718000Y-120706000D01*
X89814800Y-121895000D02*
X89814400Y-121894600D01*
X89814400Y-124435000D02*
X89814800Y-124435000D01*
X94760200Y-121173000D02*
X94760200Y-119656000D01*
X92687600Y-123246000D02*
X94760200Y-121173000D01*
X91820600Y-123246000D02*
X92687600Y-123246000D01*
X91003300Y-124063000D02*
X91820600Y-123246000D01*
X91003300Y-124435000D02*
X91003300Y-124063000D01*
X89814800Y-124435000D02*
X91003300Y-124435000D01*
X89814800Y-124435000D02*
X89814400Y-124434600D01*
X69150200Y-69382800D02*
X67975600Y-70557400D01*
X74150200Y-69382800D02*
X69150200Y-69382800D01*
X74975600Y-68557400D02*
X74150200Y-69382800D01*
X59775600Y-78257400D02*
X61775600Y-76257400D01*
X66968300Y-71564700D02*
X67975600Y-70557400D01*
X63751200Y-71564700D02*
X66968300Y-71564700D01*
X62774600Y-72541300D02*
X63751200Y-71564700D01*
X62774600Y-75258400D02*
X62774600Y-72541300D01*
X61775600Y-76257400D02*
X62774600Y-75258400D01*
D23*
G36*
X100646893Y-94235620D02*
X101015800Y-94309000D01*
X101384707Y-94235620D01*
X101498400Y-94159653D01*
X101612093Y-94235620D01*
X101981000Y-94309000D01*
X102349907Y-94235620D01*
X102362000Y-94227540D01*
X102374093Y-94235620D01*
X102743000Y-94309000D01*
X103111907Y-94235620D01*
X103124000Y-94227540D01*
X103136093Y-94235620D01*
X103505000Y-94309000D01*
X103873907Y-94235620D01*
X103886000Y-94227540D01*
X103898093Y-94235620D01*
X104267000Y-94309000D01*
X104635907Y-94235620D01*
X104648000Y-94227540D01*
X104660093Y-94235620D01*
X105029000Y-94309000D01*
X105397907Y-94235620D01*
X105541431Y-94139720D01*
X105672791Y-94229681D01*
X105795367Y-94417749D01*
X105843000Y-94640721D01*
X105843000Y-104721243D01*
X105098091Y-103975032D01*
X103946032Y-103496655D01*
X102698601Y-103495567D01*
X101545709Y-103971932D01*
X100662872Y-104853229D01*
X100184495Y-106005288D01*
X100183407Y-107252719D01*
X100659772Y-108405611D01*
X101541069Y-109288448D01*
X102693128Y-109766825D01*
X103940559Y-109767913D01*
X105093451Y-109291548D01*
X105843000Y-108543306D01*
X105843000Y-129709763D01*
X105098091Y-128963552D01*
X103946032Y-128485175D01*
X102698601Y-128484087D01*
X101545709Y-128960452D01*
X100662872Y-129841749D01*
X100184495Y-130993808D01*
X100183407Y-132241239D01*
X100659772Y-133394131D01*
X101541069Y-134276968D01*
X102693128Y-134755345D01*
X103940559Y-134756433D01*
X105093451Y-134280068D01*
X105843000Y-133531826D01*
X105843000Y-145472069D01*
X105787521Y-145750981D01*
X105669145Y-145928144D01*
X105491366Y-146046932D01*
X105217384Y-146102000D01*
X93012811Y-146102000D01*
X93443429Y-145814270D01*
X93768285Y-145328089D01*
X93882359Y-144754600D01*
X93768285Y-144181111D01*
X93443429Y-143694930D01*
X93128648Y-143484600D01*
X93443429Y-143274270D01*
X93768285Y-142788089D01*
X93882359Y-142214600D01*
X93768285Y-141641111D01*
X93443429Y-141154930D01*
X93128648Y-140944600D01*
X93443429Y-140734270D01*
X93768285Y-140248089D01*
X93882359Y-139674600D01*
X93768285Y-139101111D01*
X93443429Y-138614930D01*
X93120172Y-138398936D01*
X93242890Y-138341421D01*
X93637088Y-137909547D01*
X93809358Y-137493626D01*
X93688217Y-137261600D01*
X92481400Y-137261600D01*
X92481400Y-137281600D01*
X92227400Y-137281600D01*
X92227400Y-137261600D01*
X92207400Y-137261600D01*
X92207400Y-137007600D01*
X92227400Y-137007600D01*
X92227400Y-136987600D01*
X92481400Y-136987600D01*
X92481400Y-137007600D01*
X93688217Y-137007600D01*
X93809358Y-136775574D01*
X93637088Y-136359653D01*
X93242890Y-135927779D01*
X93120172Y-135870264D01*
X93443429Y-135654270D01*
X93768285Y-135168089D01*
X93882359Y-134594600D01*
X93768285Y-134021111D01*
X93443429Y-133534930D01*
X93120172Y-133318936D01*
X93242890Y-133261421D01*
X93637088Y-132829547D01*
X93809358Y-132413626D01*
X93688217Y-132181600D01*
X92481400Y-132181600D01*
X92481400Y-132201600D01*
X92227400Y-132201600D01*
X92227400Y-132181600D01*
X92207400Y-132181600D01*
X92207400Y-131927600D01*
X92227400Y-131927600D01*
X92227400Y-131907600D01*
X92481400Y-131907600D01*
X92481400Y-131927600D01*
X93688217Y-131927600D01*
X93809358Y-131695574D01*
X93637088Y-131279653D01*
X93242890Y-130847779D01*
X93120172Y-130790264D01*
X93443429Y-130574270D01*
X93768285Y-130088089D01*
X93882359Y-129514600D01*
X93768285Y-128941111D01*
X93443429Y-128454930D01*
X93128648Y-128244600D01*
X93443429Y-128034270D01*
X93768285Y-127548089D01*
X93882359Y-126974600D01*
X93768285Y-126401111D01*
X93443429Y-125914930D01*
X93128648Y-125704600D01*
X93443429Y-125494270D01*
X93768285Y-125008089D01*
X93882359Y-124434600D01*
X93768285Y-123861111D01*
X93519527Y-123488818D01*
X94934600Y-122073472D01*
X94934600Y-127539000D01*
X94934608Y-127539042D01*
X94934600Y-127539084D01*
X94963737Y-127685482D01*
X94992452Y-127829839D01*
X94992475Y-127829874D01*
X94992484Y-127829917D01*
X95075992Y-127954866D01*
X95157199Y-128076401D01*
X95157234Y-128076425D01*
X95157258Y-128076460D01*
X95665678Y-128584768D01*
X95665638Y-128630167D01*
X95807683Y-128973943D01*
X96070473Y-129237192D01*
X96414001Y-129379838D01*
X96474300Y-129379891D01*
X96474300Y-132926537D01*
X96442108Y-132958673D01*
X96299462Y-133302201D01*
X96299138Y-133674167D01*
X96441183Y-134017943D01*
X96703973Y-134281192D01*
X97047501Y-134423838D01*
X97419467Y-134424162D01*
X97763243Y-134282117D01*
X98026492Y-134019327D01*
X98169138Y-133675799D01*
X98169462Y-133303833D01*
X98027417Y-132960057D01*
X97994300Y-132926882D01*
X97994300Y-128194000D01*
X97994290Y-128193948D01*
X97994300Y-128193896D01*
X97965367Y-128048544D01*
X97936448Y-127903161D01*
X97936419Y-127903117D01*
X97936408Y-127903064D01*
X97853587Y-127779150D01*
X97771701Y-127656599D01*
X97771657Y-127656569D01*
X97771627Y-127656525D01*
X97542135Y-127427096D01*
X97592992Y-127376327D01*
X97735638Y-127032799D01*
X97735962Y-126660833D01*
X97593917Y-126317057D01*
X97355400Y-126078123D01*
X97355400Y-125444249D01*
X102136476Y-125444249D01*
X102185921Y-125669620D01*
X102650371Y-125829169D01*
X103140524Y-125798836D01*
X103452479Y-125669620D01*
X103501924Y-125444249D01*
X102819200Y-124761525D01*
X102136476Y-125444249D01*
X97355400Y-125444249D01*
X97355400Y-122128942D01*
X97607767Y-122129162D01*
X97951543Y-121987117D01*
X98214792Y-121724327D01*
X98357438Y-121380799D01*
X98357762Y-121008833D01*
X98215717Y-120665057D01*
X98182600Y-120631882D01*
X98182600Y-116810148D01*
X100085946Y-116810148D01*
X100273483Y-117264021D01*
X100620433Y-117611577D01*
X100863496Y-117712506D01*
X100622259Y-117812183D01*
X100274703Y-118159133D01*
X100086375Y-118612677D01*
X100085946Y-119103768D01*
X100273483Y-119557641D01*
X100620433Y-119905197D01*
X100854298Y-120002306D01*
X100622259Y-120098183D01*
X100274703Y-120445133D01*
X100086375Y-120898677D01*
X100085946Y-121389768D01*
X100273483Y-121843641D01*
X100620433Y-122191197D01*
X100860430Y-122290852D01*
X100622259Y-122389263D01*
X100274703Y-122736213D01*
X100086375Y-123189757D01*
X100085946Y-123680848D01*
X100273483Y-124134721D01*
X100620433Y-124482277D01*
X101073977Y-124670605D01*
X101565068Y-124671034D01*
X101587344Y-124661830D01*
X101602284Y-124903244D01*
X101731500Y-125215199D01*
X101956871Y-125264644D01*
X102639595Y-124581920D01*
X102625453Y-124567778D01*
X102805058Y-124388173D01*
X102819200Y-124402315D01*
X102833343Y-124388173D01*
X103012948Y-124567778D01*
X102998805Y-124581920D01*
X103681529Y-125264644D01*
X103906900Y-125215199D01*
X104066449Y-124750749D01*
X104061167Y-124665394D01*
X104073717Y-124670605D01*
X104564808Y-124671034D01*
X105018681Y-124483497D01*
X105366237Y-124136547D01*
X105554565Y-123683003D01*
X105554994Y-123191912D01*
X105367457Y-122738039D01*
X105020507Y-122390483D01*
X104780510Y-122290828D01*
X105018681Y-122192417D01*
X105366237Y-121845467D01*
X105554565Y-121391923D01*
X105554994Y-120900832D01*
X105367457Y-120446959D01*
X105020507Y-120099403D01*
X104782309Y-120000495D01*
X105016141Y-119903877D01*
X105363697Y-119556927D01*
X105552025Y-119103383D01*
X105552454Y-118612292D01*
X105364917Y-118158419D01*
X105017967Y-117810863D01*
X104779237Y-117711734D01*
X105018681Y-117612797D01*
X105366237Y-117265847D01*
X105554565Y-116812303D01*
X105554994Y-116321212D01*
X105367457Y-115867339D01*
X105020507Y-115519783D01*
X104783576Y-115421401D01*
X105018681Y-115324257D01*
X105366237Y-114977307D01*
X105554565Y-114523763D01*
X105554994Y-114032672D01*
X105367457Y-113578799D01*
X105020507Y-113231243D01*
X104566963Y-113042915D01*
X104075872Y-113042486D01*
X103621999Y-113230023D01*
X103274443Y-113576973D01*
X103086115Y-114030517D01*
X103085961Y-114206533D01*
X102988029Y-114172891D01*
X102552617Y-114199836D01*
X102537516Y-113955816D01*
X102408300Y-113643861D01*
X102182929Y-113594416D01*
X101500205Y-114277140D01*
X101514348Y-114291283D01*
X101334743Y-114470888D01*
X101320600Y-114456745D01*
X100637876Y-115139469D01*
X100687321Y-115364840D01*
X100854940Y-115422421D01*
X100622259Y-115518563D01*
X100274703Y-115865513D01*
X100086375Y-116319057D01*
X100085946Y-116810148D01*
X98182600Y-116810148D01*
X98182600Y-114108311D01*
X100073351Y-114108311D01*
X100103684Y-114598464D01*
X100232900Y-114910419D01*
X100458271Y-114959864D01*
X101140995Y-114277140D01*
X100458271Y-113594416D01*
X100232900Y-113643861D01*
X100073351Y-114108311D01*
X98182600Y-114108311D01*
X98182600Y-113414811D01*
X100637876Y-113414811D01*
X101320600Y-114097535D01*
X102003324Y-113414811D01*
X101953879Y-113189440D01*
X101489429Y-113029891D01*
X100999276Y-113060224D01*
X100687321Y-113189440D01*
X100637876Y-113414811D01*
X98182600Y-113414811D01*
X98182600Y-110000000D01*
X98182594Y-109999972D01*
X98182600Y-109999943D01*
X98153815Y-109855287D01*
X98124748Y-109709161D01*
X98124732Y-109709137D01*
X98124726Y-109709108D01*
X98041910Y-109585185D01*
X97960001Y-109462599D01*
X97959977Y-109462583D01*
X97959961Y-109462559D01*
X93534586Y-105037844D01*
X93768285Y-104688089D01*
X93882359Y-104114600D01*
X93768285Y-103541111D01*
X93443429Y-103054930D01*
X93120172Y-102838936D01*
X93242890Y-102781421D01*
X93637088Y-102349547D01*
X93809358Y-101933626D01*
X93688217Y-101701600D01*
X92481400Y-101701600D01*
X92481400Y-101721600D01*
X92227400Y-101721600D01*
X92227400Y-101701600D01*
X92207400Y-101701600D01*
X92207400Y-101447600D01*
X92227400Y-101447600D01*
X92227400Y-101427600D01*
X92481400Y-101427600D01*
X92481400Y-101447600D01*
X93688217Y-101447600D01*
X93809358Y-101215574D01*
X93637088Y-100799653D01*
X93242890Y-100367779D01*
X93120172Y-100310264D01*
X93443429Y-100094270D01*
X93768285Y-99608089D01*
X93882359Y-99034600D01*
X93768285Y-98461111D01*
X93443429Y-97974930D01*
X93128648Y-97764600D01*
X93443429Y-97554270D01*
X93768285Y-97068089D01*
X93882359Y-96494600D01*
X93768285Y-95921111D01*
X93443429Y-95434930D01*
X92957248Y-95110074D01*
X92383759Y-94996000D01*
X92325041Y-94996000D01*
X91751552Y-95110074D01*
X91285958Y-95421174D01*
X91281162Y-95395683D01*
X91142090Y-95179559D01*
X90929890Y-95034569D01*
X90678000Y-94983560D01*
X88950800Y-94983560D01*
X88715483Y-95027838D01*
X88499359Y-95166910D01*
X88354369Y-95379110D01*
X88303360Y-95631000D01*
X88303360Y-97358200D01*
X88347638Y-97593517D01*
X88486710Y-97809641D01*
X88698910Y-97954631D01*
X88742531Y-97963464D01*
X88725371Y-97974930D01*
X88400515Y-98461111D01*
X88286441Y-99034600D01*
X88400515Y-99608089D01*
X88725371Y-100094270D01*
X89040152Y-100304600D01*
X88725371Y-100514930D01*
X88400515Y-101001111D01*
X88286441Y-101574600D01*
X88400515Y-102148089D01*
X88725371Y-102634270D01*
X89040152Y-102844600D01*
X88725371Y-103054930D01*
X88400515Y-103541111D01*
X88286441Y-104114600D01*
X88400515Y-104688089D01*
X88725371Y-105174270D01*
X89048628Y-105390264D01*
X88925910Y-105447779D01*
X88531712Y-105879653D01*
X88359442Y-106295574D01*
X88480583Y-106527600D01*
X89687400Y-106527600D01*
X89687400Y-106507600D01*
X89941400Y-106507600D01*
X89941400Y-106527600D01*
X89961400Y-106527600D01*
X89961400Y-106781600D01*
X89941400Y-106781600D01*
X89941400Y-106801600D01*
X89687400Y-106801600D01*
X89687400Y-106781600D01*
X88480583Y-106781600D01*
X88359442Y-107013626D01*
X88531712Y-107429547D01*
X88925910Y-107861421D01*
X89048628Y-107918936D01*
X88725371Y-108134930D01*
X88400515Y-108621111D01*
X88286441Y-109194600D01*
X88400515Y-109768089D01*
X88725371Y-110254270D01*
X89040152Y-110464600D01*
X88725371Y-110674930D01*
X88400515Y-111161111D01*
X88286441Y-111734600D01*
X88400515Y-112308089D01*
X88725371Y-112794270D01*
X89040152Y-113004600D01*
X88725371Y-113214930D01*
X88400515Y-113701111D01*
X88286441Y-114274600D01*
X88400515Y-114848089D01*
X88725371Y-115334270D01*
X89040152Y-115544600D01*
X88725371Y-115754930D01*
X88400515Y-116241111D01*
X88286441Y-116814600D01*
X88400515Y-117388089D01*
X88725371Y-117874270D01*
X89040152Y-118084600D01*
X88725371Y-118294930D01*
X88400515Y-118781111D01*
X88286441Y-119354600D01*
X88400515Y-119928089D01*
X88725371Y-120414270D01*
X89040152Y-120624600D01*
X88725371Y-120834930D01*
X88400515Y-121321111D01*
X88286441Y-121894600D01*
X88400515Y-122468089D01*
X88725371Y-122954270D01*
X89040152Y-123164600D01*
X88725371Y-123374930D01*
X88400515Y-123861111D01*
X88286441Y-124434600D01*
X88400515Y-125008089D01*
X88725371Y-125494270D01*
X89048628Y-125710264D01*
X88925910Y-125767779D01*
X88531712Y-126199653D01*
X88359442Y-126615574D01*
X88480583Y-126847600D01*
X89687400Y-126847600D01*
X89687400Y-126827600D01*
X89941400Y-126827600D01*
X89941400Y-126847600D01*
X89961400Y-126847600D01*
X89961400Y-127101600D01*
X89941400Y-127101600D01*
X89941400Y-127121600D01*
X89687400Y-127121600D01*
X89687400Y-127101600D01*
X88480583Y-127101600D01*
X88359442Y-127333626D01*
X88531712Y-127749547D01*
X88925910Y-128181421D01*
X89048628Y-128238936D01*
X88725371Y-128454930D01*
X88400515Y-128941111D01*
X88286441Y-129514600D01*
X88400515Y-130088089D01*
X88725371Y-130574270D01*
X89040152Y-130784600D01*
X88725371Y-130994930D01*
X88400515Y-131481111D01*
X88286441Y-132054600D01*
X88400515Y-132628089D01*
X88725371Y-133114270D01*
X89040152Y-133324600D01*
X88725371Y-133534930D01*
X88400515Y-134021111D01*
X88286441Y-134594600D01*
X88400515Y-135168089D01*
X88725371Y-135654270D01*
X89040152Y-135864600D01*
X88725371Y-136074930D01*
X88400515Y-136561111D01*
X88286441Y-137134600D01*
X88400515Y-137708089D01*
X88725371Y-138194270D01*
X89040152Y-138404600D01*
X88725371Y-138614930D01*
X88400515Y-139101111D01*
X88286441Y-139674600D01*
X88400515Y-140248089D01*
X88725371Y-140734270D01*
X89040152Y-140944600D01*
X88725371Y-141154930D01*
X88400515Y-141641111D01*
X88286441Y-142214600D01*
X88400515Y-142788089D01*
X88725371Y-143274270D01*
X89048628Y-143490264D01*
X88925910Y-143547779D01*
X88531712Y-143979653D01*
X88359442Y-144395574D01*
X88480583Y-144627600D01*
X89687400Y-144627600D01*
X89687400Y-144607600D01*
X89941400Y-144607600D01*
X89941400Y-144627600D01*
X89961400Y-144627600D01*
X89961400Y-144881600D01*
X89941400Y-144881600D01*
X89941400Y-144901600D01*
X89687400Y-144901600D01*
X89687400Y-144881600D01*
X88480583Y-144881600D01*
X88359442Y-145113626D01*
X88531712Y-145529547D01*
X88925910Y-145961421D01*
X89225859Y-146102000D01*
X88841909Y-146102000D01*
X88563656Y-146046652D01*
X88386493Y-145928276D01*
X88265669Y-145747449D01*
X88213000Y-145498264D01*
X88213000Y-94684930D01*
X88268478Y-94406021D01*
X88386856Y-94228855D01*
X88517413Y-94141620D01*
X88658093Y-94235620D01*
X89027000Y-94309000D01*
X89395907Y-94235620D01*
X89408000Y-94227540D01*
X89420093Y-94235620D01*
X89789000Y-94309000D01*
X90157907Y-94235620D01*
X90170000Y-94227540D01*
X90182093Y-94235620D01*
X90551000Y-94309000D01*
X90919907Y-94235620D01*
X90932000Y-94227540D01*
X90944093Y-94235620D01*
X91313000Y-94309000D01*
X91681907Y-94235620D01*
X91694000Y-94227540D01*
X91706093Y-94235620D01*
X92075000Y-94309000D01*
X92443907Y-94235620D01*
X92456000Y-94227540D01*
X92468093Y-94235620D01*
X92837000Y-94309000D01*
X93205907Y-94235620D01*
X93218000Y-94227540D01*
X93230093Y-94235620D01*
X93599000Y-94309000D01*
X93967907Y-94235620D01*
X93980000Y-94227540D01*
X93992093Y-94235620D01*
X94361000Y-94309000D01*
X94729907Y-94235620D01*
X94742000Y-94227540D01*
X94754093Y-94235620D01*
X95123000Y-94309000D01*
X95491907Y-94235620D01*
X95504000Y-94227540D01*
X95516093Y-94235620D01*
X95885000Y-94309000D01*
X96253907Y-94235620D01*
X96266000Y-94227540D01*
X96278093Y-94235620D01*
X96647000Y-94309000D01*
X97015907Y-94235620D01*
X97028000Y-94227540D01*
X97040093Y-94235620D01*
X97409000Y-94309000D01*
X97777907Y-94235620D01*
X97790000Y-94227540D01*
X97802093Y-94235620D01*
X98171000Y-94309000D01*
X98539907Y-94235620D01*
X98552000Y-94227540D01*
X98564093Y-94235620D01*
X98933000Y-94309000D01*
X99301907Y-94235620D01*
X99314000Y-94227540D01*
X99326093Y-94235620D01*
X99695000Y-94309000D01*
X100063907Y-94235620D01*
X100355400Y-94040850D01*
X100646893Y-94235620D01*
X100646893Y-94235620D01*
G37*
X100646893Y-94235620D02*
X101015800Y-94309000D01*
X101384707Y-94235620D01*
X101498400Y-94159653D01*
X101612093Y-94235620D01*
X101981000Y-94309000D01*
X102349907Y-94235620D01*
X102362000Y-94227540D01*
X102374093Y-94235620D01*
X102743000Y-94309000D01*
X103111907Y-94235620D01*
X103124000Y-94227540D01*
X103136093Y-94235620D01*
X103505000Y-94309000D01*
X103873907Y-94235620D01*
X103886000Y-94227540D01*
X103898093Y-94235620D01*
X104267000Y-94309000D01*
X104635907Y-94235620D01*
X104648000Y-94227540D01*
X104660093Y-94235620D01*
X105029000Y-94309000D01*
X105397907Y-94235620D01*
X105541431Y-94139720D01*
X105672791Y-94229681D01*
X105795367Y-94417749D01*
X105843000Y-94640721D01*
X105843000Y-104721243D01*
X105098091Y-103975032D01*
X103946032Y-103496655D01*
X102698601Y-103495567D01*
X101545709Y-103971932D01*
X100662872Y-104853229D01*
X100184495Y-106005288D01*
X100183407Y-107252719D01*
X100659772Y-108405611D01*
X101541069Y-109288448D01*
X102693128Y-109766825D01*
X103940559Y-109767913D01*
X105093451Y-109291548D01*
X105843000Y-108543306D01*
X105843000Y-129709763D01*
X105098091Y-128963552D01*
X103946032Y-128485175D01*
X102698601Y-128484087D01*
X101545709Y-128960452D01*
X100662872Y-129841749D01*
X100184495Y-130993808D01*
X100183407Y-132241239D01*
X100659772Y-133394131D01*
X101541069Y-134276968D01*
X102693128Y-134755345D01*
X103940559Y-134756433D01*
X105093451Y-134280068D01*
X105843000Y-133531826D01*
X105843000Y-145472069D01*
X105787521Y-145750981D01*
X105669145Y-145928144D01*
X105491366Y-146046932D01*
X105217384Y-146102000D01*
X93012811Y-146102000D01*
X93443429Y-145814270D01*
X93768285Y-145328089D01*
X93882359Y-144754600D01*
X93768285Y-144181111D01*
X93443429Y-143694930D01*
X93128648Y-143484600D01*
X93443429Y-143274270D01*
X93768285Y-142788089D01*
X93882359Y-142214600D01*
X93768285Y-141641111D01*
X93443429Y-141154930D01*
X93128648Y-140944600D01*
X93443429Y-140734270D01*
X93768285Y-140248089D01*
X93882359Y-139674600D01*
X93768285Y-139101111D01*
X93443429Y-138614930D01*
X93120172Y-138398936D01*
X93242890Y-138341421D01*
X93637088Y-137909547D01*
X93809358Y-137493626D01*
X93688217Y-137261600D01*
X92481400Y-137261600D01*
X92481400Y-137281600D01*
X92227400Y-137281600D01*
X92227400Y-137261600D01*
X92207400Y-137261600D01*
X92207400Y-137007600D01*
X92227400Y-137007600D01*
X92227400Y-136987600D01*
X92481400Y-136987600D01*
X92481400Y-137007600D01*
X93688217Y-137007600D01*
X93809358Y-136775574D01*
X93637088Y-136359653D01*
X93242890Y-135927779D01*
X93120172Y-135870264D01*
X93443429Y-135654270D01*
X93768285Y-135168089D01*
X93882359Y-134594600D01*
X93768285Y-134021111D01*
X93443429Y-133534930D01*
X93120172Y-133318936D01*
X93242890Y-133261421D01*
X93637088Y-132829547D01*
X93809358Y-132413626D01*
X93688217Y-132181600D01*
X92481400Y-132181600D01*
X92481400Y-132201600D01*
X92227400Y-132201600D01*
X92227400Y-132181600D01*
X92207400Y-132181600D01*
X92207400Y-131927600D01*
X92227400Y-131927600D01*
X92227400Y-131907600D01*
X92481400Y-131907600D01*
X92481400Y-131927600D01*
X93688217Y-131927600D01*
X93809358Y-131695574D01*
X93637088Y-131279653D01*
X93242890Y-130847779D01*
X93120172Y-130790264D01*
X93443429Y-130574270D01*
X93768285Y-130088089D01*
X93882359Y-129514600D01*
X93768285Y-128941111D01*
X93443429Y-128454930D01*
X93128648Y-128244600D01*
X93443429Y-128034270D01*
X93768285Y-127548089D01*
X93882359Y-126974600D01*
X93768285Y-126401111D01*
X93443429Y-125914930D01*
X93128648Y-125704600D01*
X93443429Y-125494270D01*
X93768285Y-125008089D01*
X93882359Y-124434600D01*
X93768285Y-123861111D01*
X93519527Y-123488818D01*
X94934600Y-122073472D01*
X94934600Y-127539000D01*
X94934608Y-127539042D01*
X94934600Y-127539084D01*
X94963737Y-127685482D01*
X94992452Y-127829839D01*
X94992475Y-127829874D01*
X94992484Y-127829917D01*
X95075992Y-127954866D01*
X95157199Y-128076401D01*
X95157234Y-128076425D01*
X95157258Y-128076460D01*
X95665678Y-128584768D01*
X95665638Y-128630167D01*
X95807683Y-128973943D01*
X96070473Y-129237192D01*
X96414001Y-129379838D01*
X96474300Y-129379891D01*
X96474300Y-132926537D01*
X96442108Y-132958673D01*
X96299462Y-133302201D01*
X96299138Y-133674167D01*
X96441183Y-134017943D01*
X96703973Y-134281192D01*
X97047501Y-134423838D01*
X97419467Y-134424162D01*
X97763243Y-134282117D01*
X98026492Y-134019327D01*
X98169138Y-133675799D01*
X98169462Y-133303833D01*
X98027417Y-132960057D01*
X97994300Y-132926882D01*
X97994300Y-128194000D01*
X97994290Y-128193948D01*
X97994300Y-128193896D01*
X97965367Y-128048544D01*
X97936448Y-127903161D01*
X97936419Y-127903117D01*
X97936408Y-127903064D01*
X97853587Y-127779150D01*
X97771701Y-127656599D01*
X97771657Y-127656569D01*
X97771627Y-127656525D01*
X97542135Y-127427096D01*
X97592992Y-127376327D01*
X97735638Y-127032799D01*
X97735962Y-126660833D01*
X97593917Y-126317057D01*
X97355400Y-126078123D01*
X97355400Y-125444249D01*
X102136476Y-125444249D01*
X102185921Y-125669620D01*
X102650371Y-125829169D01*
X103140524Y-125798836D01*
X103452479Y-125669620D01*
X103501924Y-125444249D01*
X102819200Y-124761525D01*
X102136476Y-125444249D01*
X97355400Y-125444249D01*
X97355400Y-122128942D01*
X97607767Y-122129162D01*
X97951543Y-121987117D01*
X98214792Y-121724327D01*
X98357438Y-121380799D01*
X98357762Y-121008833D01*
X98215717Y-120665057D01*
X98182600Y-120631882D01*
X98182600Y-116810148D01*
X100085946Y-116810148D01*
X100273483Y-117264021D01*
X100620433Y-117611577D01*
X100863496Y-117712506D01*
X100622259Y-117812183D01*
X100274703Y-118159133D01*
X100086375Y-118612677D01*
X100085946Y-119103768D01*
X100273483Y-119557641D01*
X100620433Y-119905197D01*
X100854298Y-120002306D01*
X100622259Y-120098183D01*
X100274703Y-120445133D01*
X100086375Y-120898677D01*
X100085946Y-121389768D01*
X100273483Y-121843641D01*
X100620433Y-122191197D01*
X100860430Y-122290852D01*
X100622259Y-122389263D01*
X100274703Y-122736213D01*
X100086375Y-123189757D01*
X100085946Y-123680848D01*
X100273483Y-124134721D01*
X100620433Y-124482277D01*
X101073977Y-124670605D01*
X101565068Y-124671034D01*
X101587344Y-124661830D01*
X101602284Y-124903244D01*
X101731500Y-125215199D01*
X101956871Y-125264644D01*
X102639595Y-124581920D01*
X102625453Y-124567778D01*
X102805058Y-124388173D01*
X102819200Y-124402315D01*
X102833343Y-124388173D01*
X103012948Y-124567778D01*
X102998805Y-124581920D01*
X103681529Y-125264644D01*
X103906900Y-125215199D01*
X104066449Y-124750749D01*
X104061167Y-124665394D01*
X104073717Y-124670605D01*
X104564808Y-124671034D01*
X105018681Y-124483497D01*
X105366237Y-124136547D01*
X105554565Y-123683003D01*
X105554994Y-123191912D01*
X105367457Y-122738039D01*
X105020507Y-122390483D01*
X104780510Y-122290828D01*
X105018681Y-122192417D01*
X105366237Y-121845467D01*
X105554565Y-121391923D01*
X105554994Y-120900832D01*
X105367457Y-120446959D01*
X105020507Y-120099403D01*
X104782309Y-120000495D01*
X105016141Y-119903877D01*
X105363697Y-119556927D01*
X105552025Y-119103383D01*
X105552454Y-118612292D01*
X105364917Y-118158419D01*
X105017967Y-117810863D01*
X104779237Y-117711734D01*
X105018681Y-117612797D01*
X105366237Y-117265847D01*
X105554565Y-116812303D01*
X105554994Y-116321212D01*
X105367457Y-115867339D01*
X105020507Y-115519783D01*
X104783576Y-115421401D01*
X105018681Y-115324257D01*
X105366237Y-114977307D01*
X105554565Y-114523763D01*
X105554994Y-114032672D01*
X105367457Y-113578799D01*
X105020507Y-113231243D01*
X104566963Y-113042915D01*
X104075872Y-113042486D01*
X103621999Y-113230023D01*
X103274443Y-113576973D01*
X103086115Y-114030517D01*
X103085961Y-114206533D01*
X102988029Y-114172891D01*
X102552617Y-114199836D01*
X102537516Y-113955816D01*
X102408300Y-113643861D01*
X102182929Y-113594416D01*
X101500205Y-114277140D01*
X101514348Y-114291283D01*
X101334743Y-114470888D01*
X101320600Y-114456745D01*
X100637876Y-115139469D01*
X100687321Y-115364840D01*
X100854940Y-115422421D01*
X100622259Y-115518563D01*
X100274703Y-115865513D01*
X100086375Y-116319057D01*
X100085946Y-116810148D01*
X98182600Y-116810148D01*
X98182600Y-114108311D01*
X100073351Y-114108311D01*
X100103684Y-114598464D01*
X100232900Y-114910419D01*
X100458271Y-114959864D01*
X101140995Y-114277140D01*
X100458271Y-113594416D01*
X100232900Y-113643861D01*
X100073351Y-114108311D01*
X98182600Y-114108311D01*
X98182600Y-113414811D01*
X100637876Y-113414811D01*
X101320600Y-114097535D01*
X102003324Y-113414811D01*
X101953879Y-113189440D01*
X101489429Y-113029891D01*
X100999276Y-113060224D01*
X100687321Y-113189440D01*
X100637876Y-113414811D01*
X98182600Y-113414811D01*
X98182600Y-110000000D01*
X98182594Y-109999972D01*
X98182600Y-109999943D01*
X98153815Y-109855287D01*
X98124748Y-109709161D01*
X98124732Y-109709137D01*
X98124726Y-109709108D01*
X98041910Y-109585185D01*
X97960001Y-109462599D01*
X97959977Y-109462583D01*
X97959961Y-109462559D01*
X93534586Y-105037844D01*
X93768285Y-104688089D01*
X93882359Y-104114600D01*
X93768285Y-103541111D01*
X93443429Y-103054930D01*
X93120172Y-102838936D01*
X93242890Y-102781421D01*
X93637088Y-102349547D01*
X93809358Y-101933626D01*
X93688217Y-101701600D01*
X92481400Y-101701600D01*
X92481400Y-101721600D01*
X92227400Y-101721600D01*
X92227400Y-101701600D01*
X92207400Y-101701600D01*
X92207400Y-101447600D01*
X92227400Y-101447600D01*
X92227400Y-101427600D01*
X92481400Y-101427600D01*
X92481400Y-101447600D01*
X93688217Y-101447600D01*
X93809358Y-101215574D01*
X93637088Y-100799653D01*
X93242890Y-100367779D01*
X93120172Y-100310264D01*
X93443429Y-100094270D01*
X93768285Y-99608089D01*
X93882359Y-99034600D01*
X93768285Y-98461111D01*
X93443429Y-97974930D01*
X93128648Y-97764600D01*
X93443429Y-97554270D01*
X93768285Y-97068089D01*
X93882359Y-96494600D01*
X93768285Y-95921111D01*
X93443429Y-95434930D01*
X92957248Y-95110074D01*
X92383759Y-94996000D01*
X92325041Y-94996000D01*
X91751552Y-95110074D01*
X91285958Y-95421174D01*
X91281162Y-95395683D01*
X91142090Y-95179559D01*
X90929890Y-95034569D01*
X90678000Y-94983560D01*
X88950800Y-94983560D01*
X88715483Y-95027838D01*
X88499359Y-95166910D01*
X88354369Y-95379110D01*
X88303360Y-95631000D01*
X88303360Y-97358200D01*
X88347638Y-97593517D01*
X88486710Y-97809641D01*
X88698910Y-97954631D01*
X88742531Y-97963464D01*
X88725371Y-97974930D01*
X88400515Y-98461111D01*
X88286441Y-99034600D01*
X88400515Y-99608089D01*
X88725371Y-100094270D01*
X89040152Y-100304600D01*
X88725371Y-100514930D01*
X88400515Y-101001111D01*
X88286441Y-101574600D01*
X88400515Y-102148089D01*
X88725371Y-102634270D01*
X89040152Y-102844600D01*
X88725371Y-103054930D01*
X88400515Y-103541111D01*
X88286441Y-104114600D01*
X88400515Y-104688089D01*
X88725371Y-105174270D01*
X89048628Y-105390264D01*
X88925910Y-105447779D01*
X88531712Y-105879653D01*
X88359442Y-106295574D01*
X88480583Y-106527600D01*
X89687400Y-106527600D01*
X89687400Y-106507600D01*
X89941400Y-106507600D01*
X89941400Y-106527600D01*
X89961400Y-106527600D01*
X89961400Y-106781600D01*
X89941400Y-106781600D01*
X89941400Y-106801600D01*
X89687400Y-106801600D01*
X89687400Y-106781600D01*
X88480583Y-106781600D01*
X88359442Y-107013626D01*
X88531712Y-107429547D01*
X88925910Y-107861421D01*
X89048628Y-107918936D01*
X88725371Y-108134930D01*
X88400515Y-108621111D01*
X88286441Y-109194600D01*
X88400515Y-109768089D01*
X88725371Y-110254270D01*
X89040152Y-110464600D01*
X88725371Y-110674930D01*
X88400515Y-111161111D01*
X88286441Y-111734600D01*
X88400515Y-112308089D01*
X88725371Y-112794270D01*
X89040152Y-113004600D01*
X88725371Y-113214930D01*
X88400515Y-113701111D01*
X88286441Y-114274600D01*
X88400515Y-114848089D01*
X88725371Y-115334270D01*
X89040152Y-115544600D01*
X88725371Y-115754930D01*
X88400515Y-116241111D01*
X88286441Y-116814600D01*
X88400515Y-117388089D01*
X88725371Y-117874270D01*
X89040152Y-118084600D01*
X88725371Y-118294930D01*
X88400515Y-118781111D01*
X88286441Y-119354600D01*
X88400515Y-119928089D01*
X88725371Y-120414270D01*
X89040152Y-120624600D01*
X88725371Y-120834930D01*
X88400515Y-121321111D01*
X88286441Y-121894600D01*
X88400515Y-122468089D01*
X88725371Y-122954270D01*
X89040152Y-123164600D01*
X88725371Y-123374930D01*
X88400515Y-123861111D01*
X88286441Y-124434600D01*
X88400515Y-125008089D01*
X88725371Y-125494270D01*
X89048628Y-125710264D01*
X88925910Y-125767779D01*
X88531712Y-126199653D01*
X88359442Y-126615574D01*
X88480583Y-126847600D01*
X89687400Y-126847600D01*
X89687400Y-126827600D01*
X89941400Y-126827600D01*
X89941400Y-126847600D01*
X89961400Y-126847600D01*
X89961400Y-127101600D01*
X89941400Y-127101600D01*
X89941400Y-127121600D01*
X89687400Y-127121600D01*
X89687400Y-127101600D01*
X88480583Y-127101600D01*
X88359442Y-127333626D01*
X88531712Y-127749547D01*
X88925910Y-128181421D01*
X89048628Y-128238936D01*
X88725371Y-128454930D01*
X88400515Y-128941111D01*
X88286441Y-129514600D01*
X88400515Y-130088089D01*
X88725371Y-130574270D01*
X89040152Y-130784600D01*
X88725371Y-130994930D01*
X88400515Y-131481111D01*
X88286441Y-132054600D01*
X88400515Y-132628089D01*
X88725371Y-133114270D01*
X89040152Y-133324600D01*
X88725371Y-133534930D01*
X88400515Y-134021111D01*
X88286441Y-134594600D01*
X88400515Y-135168089D01*
X88725371Y-135654270D01*
X89040152Y-135864600D01*
X88725371Y-136074930D01*
X88400515Y-136561111D01*
X88286441Y-137134600D01*
X88400515Y-137708089D01*
X88725371Y-138194270D01*
X89040152Y-138404600D01*
X88725371Y-138614930D01*
X88400515Y-139101111D01*
X88286441Y-139674600D01*
X88400515Y-140248089D01*
X88725371Y-140734270D01*
X89040152Y-140944600D01*
X88725371Y-141154930D01*
X88400515Y-141641111D01*
X88286441Y-142214600D01*
X88400515Y-142788089D01*
X88725371Y-143274270D01*
X89048628Y-143490264D01*
X88925910Y-143547779D01*
X88531712Y-143979653D01*
X88359442Y-144395574D01*
X88480583Y-144627600D01*
X89687400Y-144627600D01*
X89687400Y-144607600D01*
X89941400Y-144607600D01*
X89941400Y-144627600D01*
X89961400Y-144627600D01*
X89961400Y-144881600D01*
X89941400Y-144881600D01*
X89941400Y-144901600D01*
X89687400Y-144901600D01*
X89687400Y-144881600D01*
X88480583Y-144881600D01*
X88359442Y-145113626D01*
X88531712Y-145529547D01*
X88925910Y-145961421D01*
X89225859Y-146102000D01*
X88841909Y-146102000D01*
X88563656Y-146046652D01*
X88386493Y-145928276D01*
X88265669Y-145747449D01*
X88213000Y-145498264D01*
X88213000Y-94684930D01*
X88268478Y-94406021D01*
X88386856Y-94228855D01*
X88517413Y-94141620D01*
X88658093Y-94235620D01*
X89027000Y-94309000D01*
X89395907Y-94235620D01*
X89408000Y-94227540D01*
X89420093Y-94235620D01*
X89789000Y-94309000D01*
X90157907Y-94235620D01*
X90170000Y-94227540D01*
X90182093Y-94235620D01*
X90551000Y-94309000D01*
X90919907Y-94235620D01*
X90932000Y-94227540D01*
X90944093Y-94235620D01*
X91313000Y-94309000D01*
X91681907Y-94235620D01*
X91694000Y-94227540D01*
X91706093Y-94235620D01*
X92075000Y-94309000D01*
X92443907Y-94235620D01*
X92456000Y-94227540D01*
X92468093Y-94235620D01*
X92837000Y-94309000D01*
X93205907Y-94235620D01*
X93218000Y-94227540D01*
X93230093Y-94235620D01*
X93599000Y-94309000D01*
X93967907Y-94235620D01*
X93980000Y-94227540D01*
X93992093Y-94235620D01*
X94361000Y-94309000D01*
X94729907Y-94235620D01*
X94742000Y-94227540D01*
X94754093Y-94235620D01*
X95123000Y-94309000D01*
X95491907Y-94235620D01*
X95504000Y-94227540D01*
X95516093Y-94235620D01*
X95885000Y-94309000D01*
X96253907Y-94235620D01*
X96266000Y-94227540D01*
X96278093Y-94235620D01*
X96647000Y-94309000D01*
X97015907Y-94235620D01*
X97028000Y-94227540D01*
X97040093Y-94235620D01*
X97409000Y-94309000D01*
X97777907Y-94235620D01*
X97790000Y-94227540D01*
X97802093Y-94235620D01*
X98171000Y-94309000D01*
X98539907Y-94235620D01*
X98552000Y-94227540D01*
X98564093Y-94235620D01*
X98933000Y-94309000D01*
X99301907Y-94235620D01*
X99314000Y-94227540D01*
X99326093Y-94235620D01*
X99695000Y-94309000D01*
X100063907Y-94235620D01*
X100355400Y-94040850D01*
X100646893Y-94235620D01*
G36*
X103012948Y-122276698D02*
X102998805Y-122290840D01*
X103012948Y-122304983D01*
X102833343Y-122484588D01*
X102819200Y-122470445D01*
X102805058Y-122484588D01*
X102625453Y-122304983D01*
X102639595Y-122290840D01*
X102625453Y-122276698D01*
X102805058Y-122097093D01*
X102819200Y-122111235D01*
X102833343Y-122097093D01*
X103012948Y-122276698D01*
X103012948Y-122276698D01*
G37*
X103012948Y-122276698D02*
X102998805Y-122290840D01*
X103012948Y-122304983D01*
X102833343Y-122484588D01*
X102819200Y-122470445D01*
X102805058Y-122484588D01*
X102625453Y-122304983D01*
X102639595Y-122290840D01*
X102625453Y-122276698D01*
X102805058Y-122097093D01*
X102819200Y-122111235D01*
X102833343Y-122097093D01*
X103012948Y-122276698D01*
G36*
X103012948Y-119985618D02*
X102998805Y-119999760D01*
X103012948Y-120013903D01*
X102833343Y-120193508D01*
X102819200Y-120179365D01*
X102805058Y-120193508D01*
X102625453Y-120013903D01*
X102639595Y-119999760D01*
X102625453Y-119985618D01*
X102805058Y-119806013D01*
X102819200Y-119820155D01*
X102833343Y-119806013D01*
X103012948Y-119985618D01*
X103012948Y-119985618D01*
G37*
X103012948Y-119985618D02*
X102998805Y-119999760D01*
X103012948Y-120013903D01*
X102833343Y-120193508D01*
X102819200Y-120179365D01*
X102805058Y-120193508D01*
X102625453Y-120013903D01*
X102639595Y-119999760D01*
X102625453Y-119985618D01*
X102805058Y-119806013D01*
X102819200Y-119820155D01*
X102833343Y-119806013D01*
X103012948Y-119985618D01*
G36*
X103012948Y-115405998D02*
X102998805Y-115420140D01*
X103012948Y-115434283D01*
X102833343Y-115613888D01*
X102819200Y-115599745D01*
X102805058Y-115613888D01*
X102625453Y-115434283D01*
X102639595Y-115420140D01*
X102625453Y-115405998D01*
X102805058Y-115226393D01*
X102819200Y-115240535D01*
X102833343Y-115226393D01*
X103012948Y-115405998D01*
X103012948Y-115405998D01*
G37*
X103012948Y-115405998D02*
X102998805Y-115420140D01*
X103012948Y-115434283D01*
X102833343Y-115613888D01*
X102819200Y-115599745D01*
X102805058Y-115613888D01*
X102625453Y-115434283D01*
X102639595Y-115420140D01*
X102625453Y-115405998D01*
X102805058Y-115226393D01*
X102819200Y-115240535D01*
X102833343Y-115226393D01*
X103012948Y-115405998D01*
G36*
X92481400Y-119227600D02*
X92501400Y-119227600D01*
X92501400Y-119481600D01*
X92481400Y-119481600D01*
X92481400Y-119501600D01*
X92227400Y-119501600D01*
X92227400Y-119481600D01*
X92207400Y-119481600D01*
X92207400Y-119227600D01*
X92227400Y-119227600D01*
X92227400Y-119207600D01*
X92481400Y-119207600D01*
X92481400Y-119227600D01*
X92481400Y-119227600D01*
G37*
X92481400Y-119227600D02*
X92501400Y-119227600D01*
X92501400Y-119481600D01*
X92481400Y-119481600D01*
X92481400Y-119501600D01*
X92227400Y-119501600D01*
X92227400Y-119481600D01*
X92207400Y-119481600D01*
X92207400Y-119227600D01*
X92227400Y-119227600D01*
X92227400Y-119207600D01*
X92481400Y-119207600D01*
X92481400Y-119227600D01*
G36*
X92481400Y-111607600D02*
X92501400Y-111607600D01*
X92501400Y-111861600D01*
X92481400Y-111861600D01*
X92481400Y-111881600D01*
X92227400Y-111881600D01*
X92227400Y-111861600D01*
X92207400Y-111861600D01*
X92207400Y-111607600D01*
X92227400Y-111607600D01*
X92227400Y-111587600D01*
X92481400Y-111587600D01*
X92481400Y-111607600D01*
X92481400Y-111607600D01*
G37*
X92481400Y-111607600D02*
X92501400Y-111607600D01*
X92501400Y-111861600D01*
X92481400Y-111861600D01*
X92481400Y-111881600D01*
X92227400Y-111881600D01*
X92227400Y-111861600D01*
X92207400Y-111861600D01*
X92207400Y-111607600D01*
X92227400Y-111607600D01*
X92227400Y-111587600D01*
X92481400Y-111587600D01*
X92481400Y-111607600D01*
G36*
X105500416Y-73793232D02*
X105677871Y-73914761D01*
X105800447Y-74102829D01*
X105843000Y-74302021D01*
X105843000Y-91999989D01*
X105787521Y-92278901D01*
X105669145Y-92456064D01*
X105534786Y-92545840D01*
X105397907Y-92454380D01*
X105029000Y-92381000D01*
X104660093Y-92454380D01*
X104648000Y-92462460D01*
X104635907Y-92454380D01*
X104267000Y-92381000D01*
X103898093Y-92454380D01*
X103886000Y-92462460D01*
X103873907Y-92454380D01*
X103505000Y-92381000D01*
X103136093Y-92454380D01*
X103124000Y-92462460D01*
X103111907Y-92454380D01*
X102743000Y-92381000D01*
X102374093Y-92454380D01*
X102362000Y-92462460D01*
X102349907Y-92454380D01*
X101981000Y-92381000D01*
X101612093Y-92454380D01*
X101498400Y-92530347D01*
X101384707Y-92454380D01*
X101015800Y-92381000D01*
X100646893Y-92454380D01*
X100355400Y-92649150D01*
X100063907Y-92454380D01*
X99695000Y-92381000D01*
X99326093Y-92454380D01*
X99314000Y-92462460D01*
X99301907Y-92454380D01*
X98933000Y-92381000D01*
X98564093Y-92454380D01*
X98552000Y-92462460D01*
X98539907Y-92454380D01*
X98171000Y-92381000D01*
X97802093Y-92454380D01*
X97790000Y-92462460D01*
X97777907Y-92454380D01*
X97409000Y-92381000D01*
X97040093Y-92454380D01*
X97028000Y-92462460D01*
X97015907Y-92454380D01*
X96647000Y-92381000D01*
X96278093Y-92454380D01*
X96266000Y-92462460D01*
X96253907Y-92454380D01*
X95885000Y-92381000D01*
X95516093Y-92454380D01*
X95504000Y-92462460D01*
X95491907Y-92454380D01*
X95123000Y-92381000D01*
X94754093Y-92454380D01*
X94742000Y-92462460D01*
X94729907Y-92454380D01*
X94361000Y-92381000D01*
X93992093Y-92454380D01*
X93980000Y-92462460D01*
X93967907Y-92454380D01*
X93599000Y-92381000D01*
X93230093Y-92454380D01*
X93218000Y-92462460D01*
X93205907Y-92454380D01*
X92837000Y-92381000D01*
X92468093Y-92454380D01*
X92456000Y-92462460D01*
X92443907Y-92454380D01*
X92075000Y-92381000D01*
X91706093Y-92454380D01*
X91694000Y-92462460D01*
X91681907Y-92454380D01*
X91313000Y-92381000D01*
X90944093Y-92454380D01*
X90932000Y-92462460D01*
X90919907Y-92454380D01*
X90551000Y-92381000D01*
X90182093Y-92454380D01*
X90170000Y-92462460D01*
X90157907Y-92454380D01*
X89789000Y-92381000D01*
X89420093Y-92454380D01*
X89408000Y-92462460D01*
X89395907Y-92454380D01*
X89027000Y-92381000D01*
X88658093Y-92454380D01*
X88466836Y-92582174D01*
X88393620Y-92214093D01*
X88385540Y-92202000D01*
X88393620Y-92189907D01*
X88467000Y-91821000D01*
X88393620Y-91452093D01*
X88385540Y-91440000D01*
X88393620Y-91427907D01*
X88467000Y-91059000D01*
X88393620Y-90690093D01*
X88385540Y-90678000D01*
X88393620Y-90665907D01*
X88467000Y-90297000D01*
X88452320Y-90223200D01*
X90567400Y-90223200D01*
X90858239Y-90165348D01*
X91104801Y-90000601D01*
X91164002Y-89941400D01*
X102095560Y-89941400D01*
X102095560Y-91668600D01*
X102139838Y-91903917D01*
X102278910Y-92120041D01*
X102491110Y-92265031D01*
X102743000Y-92316040D01*
X104775000Y-92316040D01*
X105010317Y-92271762D01*
X105226441Y-92132690D01*
X105371431Y-91920490D01*
X105422440Y-91668600D01*
X105422440Y-89941400D01*
X105378162Y-89706083D01*
X105239090Y-89489959D01*
X105026890Y-89344969D01*
X104932073Y-89325768D01*
X105109732Y-89167036D01*
X105363709Y-88639791D01*
X105366358Y-88624026D01*
X105245217Y-88392000D01*
X103886000Y-88392000D01*
X103886000Y-88412000D01*
X103632000Y-88412000D01*
X103632000Y-88392000D01*
X102272783Y-88392000D01*
X102151642Y-88624026D01*
X102154291Y-88639791D01*
X102408268Y-89167036D01*
X102583845Y-89323907D01*
X102507683Y-89338238D01*
X102291559Y-89477310D01*
X102146569Y-89689510D01*
X102095560Y-89941400D01*
X91164002Y-89941400D01*
X91415742Y-89689660D01*
X91467510Y-89725031D01*
X91719400Y-89776040D01*
X93446600Y-89776040D01*
X93681917Y-89731762D01*
X93898041Y-89592690D01*
X94043031Y-89380490D01*
X94094040Y-89128600D01*
X94094040Y-88550750D01*
X95328000Y-88550750D01*
X95328000Y-88841310D01*
X95424673Y-89074699D01*
X95603302Y-89253327D01*
X95836691Y-89350000D01*
X96277250Y-89350000D01*
X96436000Y-89191250D01*
X96436000Y-88392000D01*
X95486750Y-88392000D01*
X95328000Y-88550750D01*
X94094040Y-88550750D01*
X94094040Y-87688690D01*
X95328000Y-87688690D01*
X95328000Y-87979250D01*
X95486750Y-88138000D01*
X96436000Y-88138000D01*
X96436000Y-87338750D01*
X96690000Y-87338750D01*
X96690000Y-88138000D01*
X96710000Y-88138000D01*
X96710000Y-88392000D01*
X96690000Y-88392000D01*
X96690000Y-89191250D01*
X96848750Y-89350000D01*
X97289309Y-89350000D01*
X97522698Y-89253327D01*
X97663936Y-89112090D01*
X97698910Y-89166441D01*
X97911110Y-89311431D01*
X98163000Y-89362440D01*
X99363000Y-89362440D01*
X99598317Y-89318162D01*
X99814441Y-89179090D01*
X99959431Y-88966890D01*
X100010440Y-88715000D01*
X100010440Y-87815000D01*
X99966162Y-87579683D01*
X99827090Y-87363559D01*
X99614890Y-87218569D01*
X99363000Y-87167560D01*
X98163000Y-87167560D01*
X97927683Y-87211838D01*
X97711559Y-87350910D01*
X97665031Y-87419006D01*
X97522698Y-87276673D01*
X97289309Y-87180000D01*
X96848750Y-87180000D01*
X96690000Y-87338750D01*
X96436000Y-87338750D01*
X96277250Y-87180000D01*
X95836691Y-87180000D01*
X95603302Y-87276673D01*
X95424673Y-87455301D01*
X95328000Y-87688690D01*
X94094040Y-87688690D01*
X94094040Y-87401400D01*
X94049762Y-87166083D01*
X93910690Y-86949959D01*
X93698490Y-86804969D01*
X93654869Y-86796136D01*
X93672029Y-86784670D01*
X93996885Y-86298489D01*
X94110959Y-85725000D01*
X94017907Y-85257198D01*
X94172541Y-85226439D01*
X94443434Y-85045434D01*
X95468868Y-84020000D01*
X102364465Y-84020000D01*
X102514585Y-84244670D01*
X102829366Y-84455000D01*
X102514585Y-84665330D01*
X102189729Y-85151511D01*
X102075655Y-85725000D01*
X102189729Y-86298489D01*
X102514585Y-86784670D01*
X102824069Y-86991461D01*
X102408268Y-87362964D01*
X102154291Y-87890209D01*
X102151642Y-87905974D01*
X102272783Y-88138000D01*
X103632000Y-88138000D01*
X103632000Y-88118000D01*
X103886000Y-88118000D01*
X103886000Y-88138000D01*
X105245217Y-88138000D01*
X105366358Y-87905974D01*
X105363709Y-87890209D01*
X105109732Y-87362964D01*
X104693931Y-86991461D01*
X105003415Y-86784670D01*
X105328271Y-86298489D01*
X105442345Y-85725000D01*
X105328271Y-85151511D01*
X105003415Y-84665330D01*
X104688634Y-84455000D01*
X105003415Y-84244670D01*
X105328271Y-83758489D01*
X105442345Y-83185000D01*
X105328271Y-82611511D01*
X105003415Y-82125330D01*
X104688634Y-81915000D01*
X105003415Y-81704670D01*
X105328271Y-81218489D01*
X105442345Y-80645000D01*
X105328271Y-80071511D01*
X105003415Y-79585330D01*
X104688634Y-79375000D01*
X105003415Y-79164670D01*
X105328271Y-78678489D01*
X105442345Y-78105000D01*
X105328271Y-77531511D01*
X105003415Y-77045330D01*
X104693931Y-76838539D01*
X105109732Y-76467036D01*
X105363709Y-75939791D01*
X105366358Y-75924026D01*
X105245217Y-75692000D01*
X103886000Y-75692000D01*
X103886000Y-75712000D01*
X103632000Y-75712000D01*
X103632000Y-75692000D01*
X102272783Y-75692000D01*
X102151642Y-75924026D01*
X102154291Y-75939791D01*
X102408268Y-76467036D01*
X102824069Y-76838539D01*
X102514585Y-77045330D01*
X102189729Y-77531511D01*
X102075655Y-78105000D01*
X102189729Y-78678489D01*
X102514585Y-79164670D01*
X102829366Y-79375000D01*
X102514585Y-79585330D01*
X102189729Y-80071511D01*
X102075655Y-80645000D01*
X102189729Y-81218489D01*
X102514585Y-81704670D01*
X102829366Y-81915000D01*
X102514585Y-82125330D01*
X102364465Y-82350000D01*
X97398000Y-82350000D01*
X97398000Y-81698222D01*
X97398317Y-81698162D01*
X97614441Y-81559090D01*
X97662134Y-81489289D01*
X97698910Y-81546441D01*
X97911110Y-81691431D01*
X98163000Y-81742440D01*
X99363000Y-81742440D01*
X99598317Y-81698162D01*
X99814441Y-81559090D01*
X99959431Y-81346890D01*
X100010440Y-81095000D01*
X100010440Y-80195000D01*
X99966162Y-79959683D01*
X99827090Y-79743559D01*
X99614890Y-79598569D01*
X99363000Y-79547560D01*
X98163000Y-79547560D01*
X97927683Y-79591838D01*
X97711559Y-79730910D01*
X97663866Y-79800711D01*
X97627090Y-79743559D01*
X97414890Y-79598569D01*
X97398000Y-79595149D01*
X97398000Y-79158222D01*
X97398317Y-79158162D01*
X97614441Y-79019090D01*
X97662134Y-78949289D01*
X97698910Y-79006441D01*
X97911110Y-79151431D01*
X98163000Y-79202440D01*
X99363000Y-79202440D01*
X99598317Y-79158162D01*
X99814441Y-79019090D01*
X99959431Y-78806890D01*
X100010440Y-78555000D01*
X100010440Y-77655000D01*
X99966162Y-77419683D01*
X99827090Y-77203559D01*
X99614890Y-77058569D01*
X99363000Y-77007560D01*
X98163000Y-77007560D01*
X97927683Y-77051838D01*
X97711559Y-77190910D01*
X97663866Y-77260711D01*
X97627090Y-77203559D01*
X97414890Y-77058569D01*
X97163000Y-77007560D01*
X95963000Y-77007560D01*
X95727683Y-77051838D01*
X95511559Y-77190910D01*
X95366569Y-77403110D01*
X95315560Y-77655000D01*
X95315560Y-78555000D01*
X95359838Y-78790317D01*
X95498910Y-79006441D01*
X95711110Y-79151431D01*
X95728000Y-79154851D01*
X95728000Y-79591778D01*
X95727683Y-79591838D01*
X95511559Y-79730910D01*
X95366569Y-79943110D01*
X95315560Y-80195000D01*
X95315560Y-81095000D01*
X95359838Y-81330317D01*
X95498910Y-81546441D01*
X95711110Y-81691431D01*
X95728000Y-81694851D01*
X95728000Y-82350000D01*
X95123000Y-82350000D01*
X94803459Y-82413561D01*
X94532566Y-82594566D01*
X94082949Y-83044183D01*
X93996885Y-82611511D01*
X93672029Y-82125330D01*
X93357248Y-81915000D01*
X93672029Y-81704670D01*
X93996885Y-81218489D01*
X94110959Y-80645000D01*
X93996885Y-80071511D01*
X93672029Y-79585330D01*
X93357248Y-79375000D01*
X93672029Y-79164670D01*
X93996885Y-78678489D01*
X94110959Y-78105000D01*
X93996885Y-77531511D01*
X93672029Y-77045330D01*
X93185848Y-76720474D01*
X92612359Y-76606400D01*
X92553641Y-76606400D01*
X91980152Y-76720474D01*
X91653703Y-76938601D01*
X89921076Y-75205974D01*
X102151642Y-75205974D01*
X102272783Y-75438000D01*
X103632000Y-75438000D01*
X103632000Y-74224076D01*
X103886000Y-74224076D01*
X103886000Y-75438000D01*
X105245217Y-75438000D01*
X105366358Y-75205974D01*
X105363709Y-75190209D01*
X105109732Y-74662964D01*
X104673320Y-74273046D01*
X104120913Y-74079816D01*
X103886000Y-74224076D01*
X103632000Y-74224076D01*
X103397087Y-74079816D01*
X102844680Y-74273046D01*
X102408268Y-74662964D01*
X102154291Y-75190209D01*
X102151642Y-75205974D01*
X89921076Y-75205974D01*
X88450102Y-73735000D01*
X105224210Y-73735000D01*
X105500416Y-73793232D01*
X105500416Y-73793232D01*
G37*
X105500416Y-73793232D02*
X105677871Y-73914761D01*
X105800447Y-74102829D01*
X105843000Y-74302021D01*
X105843000Y-91999989D01*
X105787521Y-92278901D01*
X105669145Y-92456064D01*
X105534786Y-92545840D01*
X105397907Y-92454380D01*
X105029000Y-92381000D01*
X104660093Y-92454380D01*
X104648000Y-92462460D01*
X104635907Y-92454380D01*
X104267000Y-92381000D01*
X103898093Y-92454380D01*
X103886000Y-92462460D01*
X103873907Y-92454380D01*
X103505000Y-92381000D01*
X103136093Y-92454380D01*
X103124000Y-92462460D01*
X103111907Y-92454380D01*
X102743000Y-92381000D01*
X102374093Y-92454380D01*
X102362000Y-92462460D01*
X102349907Y-92454380D01*
X101981000Y-92381000D01*
X101612093Y-92454380D01*
X101498400Y-92530347D01*
X101384707Y-92454380D01*
X101015800Y-92381000D01*
X100646893Y-92454380D01*
X100355400Y-92649150D01*
X100063907Y-92454380D01*
X99695000Y-92381000D01*
X99326093Y-92454380D01*
X99314000Y-92462460D01*
X99301907Y-92454380D01*
X98933000Y-92381000D01*
X98564093Y-92454380D01*
X98552000Y-92462460D01*
X98539907Y-92454380D01*
X98171000Y-92381000D01*
X97802093Y-92454380D01*
X97790000Y-92462460D01*
X97777907Y-92454380D01*
X97409000Y-92381000D01*
X97040093Y-92454380D01*
X97028000Y-92462460D01*
X97015907Y-92454380D01*
X96647000Y-92381000D01*
X96278093Y-92454380D01*
X96266000Y-92462460D01*
X96253907Y-92454380D01*
X95885000Y-92381000D01*
X95516093Y-92454380D01*
X95504000Y-92462460D01*
X95491907Y-92454380D01*
X95123000Y-92381000D01*
X94754093Y-92454380D01*
X94742000Y-92462460D01*
X94729907Y-92454380D01*
X94361000Y-92381000D01*
X93992093Y-92454380D01*
X93980000Y-92462460D01*
X93967907Y-92454380D01*
X93599000Y-92381000D01*
X93230093Y-92454380D01*
X93218000Y-92462460D01*
X93205907Y-92454380D01*
X92837000Y-92381000D01*
X92468093Y-92454380D01*
X92456000Y-92462460D01*
X92443907Y-92454380D01*
X92075000Y-92381000D01*
X91706093Y-92454380D01*
X91694000Y-92462460D01*
X91681907Y-92454380D01*
X91313000Y-92381000D01*
X90944093Y-92454380D01*
X90932000Y-92462460D01*
X90919907Y-92454380D01*
X90551000Y-92381000D01*
X90182093Y-92454380D01*
X90170000Y-92462460D01*
X90157907Y-92454380D01*
X89789000Y-92381000D01*
X89420093Y-92454380D01*
X89408000Y-92462460D01*
X89395907Y-92454380D01*
X89027000Y-92381000D01*
X88658093Y-92454380D01*
X88466836Y-92582174D01*
X88393620Y-92214093D01*
X88385540Y-92202000D01*
X88393620Y-92189907D01*
X88467000Y-91821000D01*
X88393620Y-91452093D01*
X88385540Y-91440000D01*
X88393620Y-91427907D01*
X88467000Y-91059000D01*
X88393620Y-90690093D01*
X88385540Y-90678000D01*
X88393620Y-90665907D01*
X88467000Y-90297000D01*
X88452320Y-90223200D01*
X90567400Y-90223200D01*
X90858239Y-90165348D01*
X91104801Y-90000601D01*
X91164002Y-89941400D01*
X102095560Y-89941400D01*
X102095560Y-91668600D01*
X102139838Y-91903917D01*
X102278910Y-92120041D01*
X102491110Y-92265031D01*
X102743000Y-92316040D01*
X104775000Y-92316040D01*
X105010317Y-92271762D01*
X105226441Y-92132690D01*
X105371431Y-91920490D01*
X105422440Y-91668600D01*
X105422440Y-89941400D01*
X105378162Y-89706083D01*
X105239090Y-89489959D01*
X105026890Y-89344969D01*
X104932073Y-89325768D01*
X105109732Y-89167036D01*
X105363709Y-88639791D01*
X105366358Y-88624026D01*
X105245217Y-88392000D01*
X103886000Y-88392000D01*
X103886000Y-88412000D01*
X103632000Y-88412000D01*
X103632000Y-88392000D01*
X102272783Y-88392000D01*
X102151642Y-88624026D01*
X102154291Y-88639791D01*
X102408268Y-89167036D01*
X102583845Y-89323907D01*
X102507683Y-89338238D01*
X102291559Y-89477310D01*
X102146569Y-89689510D01*
X102095560Y-89941400D01*
X91164002Y-89941400D01*
X91415742Y-89689660D01*
X91467510Y-89725031D01*
X91719400Y-89776040D01*
X93446600Y-89776040D01*
X93681917Y-89731762D01*
X93898041Y-89592690D01*
X94043031Y-89380490D01*
X94094040Y-89128600D01*
X94094040Y-88550750D01*
X95328000Y-88550750D01*
X95328000Y-88841310D01*
X95424673Y-89074699D01*
X95603302Y-89253327D01*
X95836691Y-89350000D01*
X96277250Y-89350000D01*
X96436000Y-89191250D01*
X96436000Y-88392000D01*
X95486750Y-88392000D01*
X95328000Y-88550750D01*
X94094040Y-88550750D01*
X94094040Y-87688690D01*
X95328000Y-87688690D01*
X95328000Y-87979250D01*
X95486750Y-88138000D01*
X96436000Y-88138000D01*
X96436000Y-87338750D01*
X96690000Y-87338750D01*
X96690000Y-88138000D01*
X96710000Y-88138000D01*
X96710000Y-88392000D01*
X96690000Y-88392000D01*
X96690000Y-89191250D01*
X96848750Y-89350000D01*
X97289309Y-89350000D01*
X97522698Y-89253327D01*
X97663936Y-89112090D01*
X97698910Y-89166441D01*
X97911110Y-89311431D01*
X98163000Y-89362440D01*
X99363000Y-89362440D01*
X99598317Y-89318162D01*
X99814441Y-89179090D01*
X99959431Y-88966890D01*
X100010440Y-88715000D01*
X100010440Y-87815000D01*
X99966162Y-87579683D01*
X99827090Y-87363559D01*
X99614890Y-87218569D01*
X99363000Y-87167560D01*
X98163000Y-87167560D01*
X97927683Y-87211838D01*
X97711559Y-87350910D01*
X97665031Y-87419006D01*
X97522698Y-87276673D01*
X97289309Y-87180000D01*
X96848750Y-87180000D01*
X96690000Y-87338750D01*
X96436000Y-87338750D01*
X96277250Y-87180000D01*
X95836691Y-87180000D01*
X95603302Y-87276673D01*
X95424673Y-87455301D01*
X95328000Y-87688690D01*
X94094040Y-87688690D01*
X94094040Y-87401400D01*
X94049762Y-87166083D01*
X93910690Y-86949959D01*
X93698490Y-86804969D01*
X93654869Y-86796136D01*
X93672029Y-86784670D01*
X93996885Y-86298489D01*
X94110959Y-85725000D01*
X94017907Y-85257198D01*
X94172541Y-85226439D01*
X94443434Y-85045434D01*
X95468868Y-84020000D01*
X102364465Y-84020000D01*
X102514585Y-84244670D01*
X102829366Y-84455000D01*
X102514585Y-84665330D01*
X102189729Y-85151511D01*
X102075655Y-85725000D01*
X102189729Y-86298489D01*
X102514585Y-86784670D01*
X102824069Y-86991461D01*
X102408268Y-87362964D01*
X102154291Y-87890209D01*
X102151642Y-87905974D01*
X102272783Y-88138000D01*
X103632000Y-88138000D01*
X103632000Y-88118000D01*
X103886000Y-88118000D01*
X103886000Y-88138000D01*
X105245217Y-88138000D01*
X105366358Y-87905974D01*
X105363709Y-87890209D01*
X105109732Y-87362964D01*
X104693931Y-86991461D01*
X105003415Y-86784670D01*
X105328271Y-86298489D01*
X105442345Y-85725000D01*
X105328271Y-85151511D01*
X105003415Y-84665330D01*
X104688634Y-84455000D01*
X105003415Y-84244670D01*
X105328271Y-83758489D01*
X105442345Y-83185000D01*
X105328271Y-82611511D01*
X105003415Y-82125330D01*
X104688634Y-81915000D01*
X105003415Y-81704670D01*
X105328271Y-81218489D01*
X105442345Y-80645000D01*
X105328271Y-80071511D01*
X105003415Y-79585330D01*
X104688634Y-79375000D01*
X105003415Y-79164670D01*
X105328271Y-78678489D01*
X105442345Y-78105000D01*
X105328271Y-77531511D01*
X105003415Y-77045330D01*
X104693931Y-76838539D01*
X105109732Y-76467036D01*
X105363709Y-75939791D01*
X105366358Y-75924026D01*
X105245217Y-75692000D01*
X103886000Y-75692000D01*
X103886000Y-75712000D01*
X103632000Y-75712000D01*
X103632000Y-75692000D01*
X102272783Y-75692000D01*
X102151642Y-75924026D01*
X102154291Y-75939791D01*
X102408268Y-76467036D01*
X102824069Y-76838539D01*
X102514585Y-77045330D01*
X102189729Y-77531511D01*
X102075655Y-78105000D01*
X102189729Y-78678489D01*
X102514585Y-79164670D01*
X102829366Y-79375000D01*
X102514585Y-79585330D01*
X102189729Y-80071511D01*
X102075655Y-80645000D01*
X102189729Y-81218489D01*
X102514585Y-81704670D01*
X102829366Y-81915000D01*
X102514585Y-82125330D01*
X102364465Y-82350000D01*
X97398000Y-82350000D01*
X97398000Y-81698222D01*
X97398317Y-81698162D01*
X97614441Y-81559090D01*
X97662134Y-81489289D01*
X97698910Y-81546441D01*
X97911110Y-81691431D01*
X98163000Y-81742440D01*
X99363000Y-81742440D01*
X99598317Y-81698162D01*
X99814441Y-81559090D01*
X99959431Y-81346890D01*
X100010440Y-81095000D01*
X100010440Y-80195000D01*
X99966162Y-79959683D01*
X99827090Y-79743559D01*
X99614890Y-79598569D01*
X99363000Y-79547560D01*
X98163000Y-79547560D01*
X97927683Y-79591838D01*
X97711559Y-79730910D01*
X97663866Y-79800711D01*
X97627090Y-79743559D01*
X97414890Y-79598569D01*
X97398000Y-79595149D01*
X97398000Y-79158222D01*
X97398317Y-79158162D01*
X97614441Y-79019090D01*
X97662134Y-78949289D01*
X97698910Y-79006441D01*
X97911110Y-79151431D01*
X98163000Y-79202440D01*
X99363000Y-79202440D01*
X99598317Y-79158162D01*
X99814441Y-79019090D01*
X99959431Y-78806890D01*
X100010440Y-78555000D01*
X100010440Y-77655000D01*
X99966162Y-77419683D01*
X99827090Y-77203559D01*
X99614890Y-77058569D01*
X99363000Y-77007560D01*
X98163000Y-77007560D01*
X97927683Y-77051838D01*
X97711559Y-77190910D01*
X97663866Y-77260711D01*
X97627090Y-77203559D01*
X97414890Y-77058569D01*
X97163000Y-77007560D01*
X95963000Y-77007560D01*
X95727683Y-77051838D01*
X95511559Y-77190910D01*
X95366569Y-77403110D01*
X95315560Y-77655000D01*
X95315560Y-78555000D01*
X95359838Y-78790317D01*
X95498910Y-79006441D01*
X95711110Y-79151431D01*
X95728000Y-79154851D01*
X95728000Y-79591778D01*
X95727683Y-79591838D01*
X95511559Y-79730910D01*
X95366569Y-79943110D01*
X95315560Y-80195000D01*
X95315560Y-81095000D01*
X95359838Y-81330317D01*
X95498910Y-81546441D01*
X95711110Y-81691431D01*
X95728000Y-81694851D01*
X95728000Y-82350000D01*
X95123000Y-82350000D01*
X94803459Y-82413561D01*
X94532566Y-82594566D01*
X94082949Y-83044183D01*
X93996885Y-82611511D01*
X93672029Y-82125330D01*
X93357248Y-81915000D01*
X93672029Y-81704670D01*
X93996885Y-81218489D01*
X94110959Y-80645000D01*
X93996885Y-80071511D01*
X93672029Y-79585330D01*
X93357248Y-79375000D01*
X93672029Y-79164670D01*
X93996885Y-78678489D01*
X94110959Y-78105000D01*
X93996885Y-77531511D01*
X93672029Y-77045330D01*
X93185848Y-76720474D01*
X92612359Y-76606400D01*
X92553641Y-76606400D01*
X91980152Y-76720474D01*
X91653703Y-76938601D01*
X89921076Y-75205974D01*
X102151642Y-75205974D01*
X102272783Y-75438000D01*
X103632000Y-75438000D01*
X103632000Y-74224076D01*
X103886000Y-74224076D01*
X103886000Y-75438000D01*
X105245217Y-75438000D01*
X105366358Y-75205974D01*
X105363709Y-75190209D01*
X105109732Y-74662964D01*
X104673320Y-74273046D01*
X104120913Y-74079816D01*
X103886000Y-74224076D01*
X103632000Y-74224076D01*
X103397087Y-74079816D01*
X102844680Y-74273046D01*
X102408268Y-74662964D01*
X102154291Y-75190209D01*
X102151642Y-75205974D01*
X89921076Y-75205974D01*
X88450102Y-73735000D01*
X105224210Y-73735000D01*
X105500416Y-73793232D01*
G36*
X57090322Y-64330037D02*
X56840884Y-64930752D01*
X56840316Y-65581195D01*
X57088706Y-66182343D01*
X57548237Y-66642678D01*
X58148952Y-66892116D01*
X58799395Y-66892684D01*
X59400543Y-66644294D01*
X59860878Y-66184763D01*
X60110316Y-65584048D01*
X60110884Y-64933605D01*
X59862494Y-64332457D01*
X59613473Y-64083000D01*
X83337791Y-64083000D01*
X83090322Y-64330037D01*
X82840884Y-64930752D01*
X82840316Y-65581195D01*
X83088706Y-66182343D01*
X83548237Y-66642678D01*
X84148952Y-66892116D01*
X84799395Y-66892684D01*
X85400543Y-66644294D01*
X85860878Y-66184763D01*
X86110316Y-65584048D01*
X86110884Y-64933605D01*
X85862494Y-64332457D01*
X85613473Y-64083000D01*
X86172540Y-64083000D01*
X86448282Y-64137848D01*
X86625448Y-64256226D01*
X86753994Y-64448610D01*
X86793000Y-64603838D01*
X86793000Y-72077898D01*
X85110101Y-70394999D01*
X84863539Y-70230252D01*
X84572700Y-70172400D01*
X81127700Y-70172400D01*
X80836860Y-70230252D01*
X80590299Y-70394999D01*
X78801321Y-72183977D01*
X78533514Y-72294633D01*
X78213955Y-72613635D01*
X78040797Y-73030644D01*
X78040403Y-73482175D01*
X78212833Y-73899486D01*
X78320467Y-74007308D01*
X78213955Y-74113635D01*
X78040797Y-74530644D01*
X78040403Y-74982175D01*
X78212833Y-75399486D01*
X78320467Y-75507308D01*
X78213955Y-75613635D01*
X78040797Y-76030644D01*
X78040403Y-76482175D01*
X78212833Y-76899486D01*
X78320467Y-77007308D01*
X78213955Y-77113635D01*
X78040797Y-77530644D01*
X78040403Y-77982175D01*
X78212833Y-78399486D01*
X78306562Y-78493378D01*
X78269266Y-78530674D01*
X78385493Y-78646901D01*
X78170383Y-78684048D01*
X78027488Y-79112372D01*
X78059383Y-79562775D01*
X78170383Y-79830752D01*
X78385493Y-79867899D01*
X78269266Y-79984126D01*
X78306446Y-80021306D01*
X78213955Y-80113635D01*
X78040797Y-80530644D01*
X78040403Y-80982175D01*
X78212833Y-81399486D01*
X78320467Y-81507308D01*
X78213955Y-81613635D01*
X78040797Y-82030644D01*
X78040403Y-82482175D01*
X78212833Y-82899486D01*
X78320467Y-83007308D01*
X78213955Y-83113635D01*
X78040797Y-83530644D01*
X78040403Y-83982175D01*
X78212833Y-84399486D01*
X78531835Y-84719045D01*
X78948844Y-84892203D01*
X79400375Y-84892597D01*
X79817686Y-84720167D01*
X80137245Y-84401165D01*
X80306570Y-83993387D01*
X80531835Y-84219045D01*
X80948844Y-84392203D01*
X81400375Y-84392597D01*
X81590200Y-84314163D01*
X81590200Y-84609600D01*
X81648052Y-84900439D01*
X81812799Y-85147001D01*
X86609312Y-89943514D01*
X86539000Y-90297000D01*
X86612380Y-90665907D01*
X86620460Y-90678000D01*
X86612380Y-90690093D01*
X86539000Y-91059000D01*
X86612380Y-91427907D01*
X86620460Y-91440000D01*
X86612380Y-91452093D01*
X86539000Y-91821000D01*
X86612380Y-92189907D01*
X86620460Y-92202000D01*
X86612380Y-92214093D01*
X86539000Y-92583000D01*
X86549343Y-92635000D01*
X85409853Y-92635000D01*
X85860878Y-92184763D01*
X86110316Y-91584048D01*
X86110884Y-90933605D01*
X85862494Y-90332457D01*
X85402963Y-89872122D01*
X84802248Y-89622684D01*
X84151805Y-89622116D01*
X83550657Y-89870506D01*
X83090322Y-90330037D01*
X82840884Y-90930752D01*
X82840316Y-91581195D01*
X83088706Y-92182343D01*
X83540572Y-92635000D01*
X59409853Y-92635000D01*
X59860878Y-92184763D01*
X60110316Y-91584048D01*
X60110884Y-90933605D01*
X59862494Y-90332457D01*
X59712475Y-90182175D01*
X64340403Y-90182175D01*
X64512833Y-90599486D01*
X64831835Y-90919045D01*
X65248844Y-91092203D01*
X65700375Y-91092597D01*
X66117686Y-90920167D01*
X66211578Y-90826438D01*
X66248874Y-90863734D01*
X66365101Y-90747507D01*
X66402248Y-90962617D01*
X66830572Y-91105512D01*
X67280975Y-91073617D01*
X67548952Y-90962617D01*
X67586099Y-90747507D01*
X67702326Y-90863734D01*
X67739506Y-90826554D01*
X67831835Y-90919045D01*
X68248844Y-91092203D01*
X68700375Y-91092597D01*
X69117686Y-90920167D01*
X69225508Y-90812533D01*
X69331835Y-90919045D01*
X69748844Y-91092203D01*
X70200375Y-91092597D01*
X70617686Y-90920167D01*
X70725508Y-90812533D01*
X70831835Y-90919045D01*
X71248844Y-91092203D01*
X71700375Y-91092597D01*
X72117686Y-90920167D01*
X72225508Y-90812533D01*
X72331835Y-90919045D01*
X72748844Y-91092203D01*
X73200375Y-91092597D01*
X73617686Y-90920167D01*
X73725508Y-90812533D01*
X73831835Y-90919045D01*
X74248844Y-91092203D01*
X74700375Y-91092597D01*
X75117686Y-90920167D01*
X75225508Y-90812533D01*
X75331835Y-90919045D01*
X75748844Y-91092203D01*
X76200375Y-91092597D01*
X76617686Y-90920167D01*
X76725508Y-90812533D01*
X76831835Y-90919045D01*
X77248844Y-91092203D01*
X77700375Y-91092597D01*
X78117686Y-90920167D01*
X78437245Y-90601165D01*
X78610403Y-90184156D01*
X78610797Y-89732625D01*
X78438367Y-89315314D01*
X78119365Y-88995755D01*
X77711587Y-88826430D01*
X77937245Y-88601165D01*
X78110403Y-88184156D01*
X78110797Y-87732625D01*
X77938367Y-87315314D01*
X77619365Y-86995755D01*
X77211587Y-86826430D01*
X77437245Y-86601165D01*
X77610403Y-86184156D01*
X77610797Y-85732625D01*
X77438367Y-85315314D01*
X77119365Y-84995755D01*
X76702356Y-84822597D01*
X76250825Y-84822203D01*
X75833514Y-84994633D01*
X75725692Y-85102267D01*
X75619365Y-84995755D01*
X75202356Y-84822597D01*
X74750825Y-84822203D01*
X74333514Y-84994633D01*
X74225692Y-85102267D01*
X74119365Y-84995755D01*
X73702356Y-84822597D01*
X73250825Y-84822203D01*
X72833514Y-84994633D01*
X72725692Y-85102267D01*
X72619365Y-84995755D01*
X72202356Y-84822597D01*
X71750825Y-84822203D01*
X71333514Y-84994633D01*
X71225692Y-85102267D01*
X71119365Y-84995755D01*
X70702356Y-84822597D01*
X70250825Y-84822203D01*
X69833514Y-84994633D01*
X69725692Y-85102267D01*
X69619365Y-84995755D01*
X69202356Y-84822597D01*
X68750825Y-84822203D01*
X68333514Y-84994633D01*
X68225692Y-85102267D01*
X68119365Y-84995755D01*
X67702356Y-84822597D01*
X67250825Y-84822203D01*
X66833514Y-84994633D01*
X66725692Y-85102267D01*
X66619365Y-84995755D01*
X66202356Y-84822597D01*
X65750825Y-84822203D01*
X65333514Y-84994633D01*
X65013955Y-85313635D01*
X64840797Y-85730644D01*
X64840403Y-86182175D01*
X65012833Y-86599486D01*
X65331835Y-86919045D01*
X65739613Y-87088370D01*
X65513955Y-87313635D01*
X65340797Y-87730644D01*
X65340403Y-88182175D01*
X65512833Y-88599486D01*
X65759060Y-88846142D01*
X65702356Y-88822597D01*
X65250825Y-88822203D01*
X64833514Y-88994633D01*
X64513955Y-89313635D01*
X64340797Y-89730644D01*
X64340403Y-90182175D01*
X59712475Y-90182175D01*
X59402963Y-89872122D01*
X58802248Y-89622684D01*
X58151805Y-89622116D01*
X57550657Y-89870506D01*
X57090322Y-90330037D01*
X56840884Y-90930752D01*
X56840316Y-91581195D01*
X57088706Y-92182343D01*
X57540572Y-92635000D01*
X56605251Y-92635000D01*
X56326339Y-92579521D01*
X56149176Y-92461145D01*
X56022957Y-92272244D01*
X55980400Y-92094288D01*
X55980400Y-76612372D01*
X58627488Y-76612372D01*
X58659383Y-77062775D01*
X58770383Y-77330752D01*
X58985493Y-77367899D01*
X58869266Y-77484126D01*
X58906446Y-77521306D01*
X58813955Y-77613635D01*
X58640797Y-78030644D01*
X58640403Y-78482175D01*
X58812833Y-78899486D01*
X58920467Y-79007308D01*
X58813955Y-79113635D01*
X58640797Y-79530644D01*
X58640403Y-79982175D01*
X58812833Y-80399486D01*
X58920467Y-80507308D01*
X58813955Y-80613635D01*
X58640797Y-81030644D01*
X58640403Y-81482175D01*
X58812833Y-81899486D01*
X58920467Y-82007308D01*
X58813955Y-82113635D01*
X58640797Y-82530644D01*
X58640403Y-82982175D01*
X58812833Y-83399486D01*
X58920467Y-83507308D01*
X58813955Y-83613635D01*
X58640797Y-84030644D01*
X58640403Y-84482175D01*
X58812833Y-84899486D01*
X59131835Y-85219045D01*
X59548844Y-85392203D01*
X60000375Y-85392597D01*
X60417686Y-85220167D01*
X60737245Y-84901165D01*
X60906570Y-84493387D01*
X61131835Y-84719045D01*
X61548844Y-84892203D01*
X62000375Y-84892597D01*
X62417686Y-84720167D01*
X62737245Y-84401165D01*
X62906570Y-83993387D01*
X63131835Y-84219045D01*
X63548844Y-84392203D01*
X64000375Y-84392597D01*
X64417686Y-84220167D01*
X64737245Y-83901165D01*
X64910403Y-83484156D01*
X64910797Y-83032625D01*
X64738367Y-82615314D01*
X64630733Y-82507492D01*
X64737245Y-82401165D01*
X64910403Y-81984156D01*
X64910797Y-81532625D01*
X64738367Y-81115314D01*
X64630733Y-81007492D01*
X64737245Y-80901165D01*
X64910403Y-80484156D01*
X64910797Y-80032625D01*
X64738367Y-79615314D01*
X64630733Y-79507492D01*
X64737245Y-79401165D01*
X64910403Y-78984156D01*
X64910797Y-78532625D01*
X64738367Y-78115314D01*
X64630733Y-78007492D01*
X64737245Y-77901165D01*
X64910403Y-77484156D01*
X64910797Y-77032625D01*
X64738367Y-76615314D01*
X64630733Y-76507492D01*
X64737245Y-76401165D01*
X64910403Y-75984156D01*
X64910797Y-75532625D01*
X64738367Y-75115314D01*
X64630733Y-75007492D01*
X64737245Y-74901165D01*
X64910403Y-74484156D01*
X64910797Y-74032625D01*
X64738367Y-73615314D01*
X64630733Y-73507492D01*
X64737245Y-73401165D01*
X64910403Y-72984156D01*
X64910797Y-72532625D01*
X64824884Y-72324700D01*
X66968300Y-72324700D01*
X67259139Y-72266848D01*
X67505701Y-72102101D01*
X67915454Y-71692348D01*
X68200375Y-71692597D01*
X68617686Y-71520167D01*
X68725508Y-71412533D01*
X68831835Y-71519045D01*
X69248844Y-71692203D01*
X69700375Y-71692597D01*
X70117686Y-71520167D01*
X70225508Y-71412533D01*
X70331835Y-71519045D01*
X70748844Y-71692203D01*
X71200375Y-71692597D01*
X71617686Y-71520167D01*
X71725508Y-71412533D01*
X71831835Y-71519045D01*
X72248844Y-71692203D01*
X72700375Y-71692597D01*
X73117686Y-71520167D01*
X73225508Y-71412533D01*
X73331835Y-71519045D01*
X73748844Y-71692203D01*
X74200375Y-71692597D01*
X74617686Y-71520167D01*
X74725508Y-71412533D01*
X74831835Y-71519045D01*
X75248844Y-71692203D01*
X75700375Y-71692597D01*
X76117686Y-71520167D01*
X76225508Y-71412533D01*
X76331835Y-71519045D01*
X76748844Y-71692203D01*
X77200375Y-71692597D01*
X77617686Y-71520167D01*
X77937245Y-71201165D01*
X78110403Y-70784156D01*
X78110797Y-70332625D01*
X77938367Y-69915314D01*
X77619365Y-69595755D01*
X77211587Y-69426430D01*
X77437245Y-69201165D01*
X77610403Y-68784156D01*
X77610797Y-68332625D01*
X77438367Y-67915314D01*
X77192140Y-67668658D01*
X77248844Y-67692203D01*
X77700375Y-67692597D01*
X78117686Y-67520167D01*
X78437245Y-67201165D01*
X78610403Y-66784156D01*
X78610797Y-66332625D01*
X78438367Y-65915314D01*
X78119365Y-65595755D01*
X77702356Y-65422597D01*
X77250825Y-65422203D01*
X76833514Y-65594633D01*
X76725692Y-65702267D01*
X76619365Y-65595755D01*
X76202356Y-65422597D01*
X75750825Y-65422203D01*
X75333514Y-65594633D01*
X75239622Y-65688362D01*
X75202326Y-65651066D01*
X75086099Y-65767293D01*
X75048952Y-65552183D01*
X74620628Y-65409288D01*
X74170225Y-65441183D01*
X73902248Y-65552183D01*
X73865101Y-65767293D01*
X73748874Y-65651066D01*
X73711694Y-65688246D01*
X73619365Y-65595755D01*
X73202356Y-65422597D01*
X72750825Y-65422203D01*
X72333514Y-65594633D01*
X72225692Y-65702267D01*
X72119365Y-65595755D01*
X71702356Y-65422597D01*
X71250825Y-65422203D01*
X70833514Y-65594633D01*
X70725692Y-65702267D01*
X70619365Y-65595755D01*
X70202356Y-65422597D01*
X69750825Y-65422203D01*
X69333514Y-65594633D01*
X69225692Y-65702267D01*
X69119365Y-65595755D01*
X68702356Y-65422597D01*
X68250825Y-65422203D01*
X67833514Y-65594633D01*
X67725692Y-65702267D01*
X67619365Y-65595755D01*
X67202356Y-65422597D01*
X66750825Y-65422203D01*
X66333514Y-65594633D01*
X66225692Y-65702267D01*
X66119365Y-65595755D01*
X65702356Y-65422597D01*
X65250825Y-65422203D01*
X64833514Y-65594633D01*
X64513955Y-65913635D01*
X64340797Y-66330644D01*
X64340403Y-66782175D01*
X64512833Y-67199486D01*
X64831835Y-67519045D01*
X65239613Y-67688370D01*
X65013955Y-67913635D01*
X64840797Y-68330644D01*
X64840403Y-68782175D01*
X65012833Y-69199486D01*
X65331835Y-69519045D01*
X65739613Y-69688370D01*
X65513955Y-69913635D01*
X65340797Y-70330644D01*
X65340403Y-70782175D01*
X65349710Y-70804700D01*
X63751200Y-70804700D01*
X63460361Y-70862552D01*
X63213799Y-71027299D01*
X62237199Y-72003899D01*
X62124108Y-72173153D01*
X62002356Y-72122597D01*
X61550825Y-72122203D01*
X61133514Y-72294633D01*
X60886858Y-72540860D01*
X60910403Y-72484156D01*
X60910797Y-72032625D01*
X60738367Y-71615314D01*
X60419365Y-71295755D01*
X60002356Y-71122597D01*
X59550825Y-71122203D01*
X59133514Y-71294633D01*
X58813955Y-71613635D01*
X58640797Y-72030644D01*
X58640403Y-72482175D01*
X58812833Y-72899486D01*
X58920467Y-73007308D01*
X58813955Y-73113635D01*
X58640797Y-73530644D01*
X58640403Y-73982175D01*
X58812833Y-74399486D01*
X58920467Y-74507308D01*
X58813955Y-74613635D01*
X58640797Y-75030644D01*
X58640403Y-75482175D01*
X58812833Y-75899486D01*
X58906562Y-75993378D01*
X58869266Y-76030674D01*
X58985493Y-76146901D01*
X58770383Y-76184048D01*
X58627488Y-76612372D01*
X55980400Y-76612372D01*
X55980400Y-64677921D01*
X56030168Y-64427718D01*
X56148546Y-64250552D01*
X56340930Y-64122006D01*
X56496158Y-64083000D01*
X57337791Y-64083000D01*
X57090322Y-64330037D01*
X57090322Y-64330037D01*
G37*
X57090322Y-64330037D02*
X56840884Y-64930752D01*
X56840316Y-65581195D01*
X57088706Y-66182343D01*
X57548237Y-66642678D01*
X58148952Y-66892116D01*
X58799395Y-66892684D01*
X59400543Y-66644294D01*
X59860878Y-66184763D01*
X60110316Y-65584048D01*
X60110884Y-64933605D01*
X59862494Y-64332457D01*
X59613473Y-64083000D01*
X83337791Y-64083000D01*
X83090322Y-64330037D01*
X82840884Y-64930752D01*
X82840316Y-65581195D01*
X83088706Y-66182343D01*
X83548237Y-66642678D01*
X84148952Y-66892116D01*
X84799395Y-66892684D01*
X85400543Y-66644294D01*
X85860878Y-66184763D01*
X86110316Y-65584048D01*
X86110884Y-64933605D01*
X85862494Y-64332457D01*
X85613473Y-64083000D01*
X86172540Y-64083000D01*
X86448282Y-64137848D01*
X86625448Y-64256226D01*
X86753994Y-64448610D01*
X86793000Y-64603838D01*
X86793000Y-72077898D01*
X85110101Y-70394999D01*
X84863539Y-70230252D01*
X84572700Y-70172400D01*
X81127700Y-70172400D01*
X80836860Y-70230252D01*
X80590299Y-70394999D01*
X78801321Y-72183977D01*
X78533514Y-72294633D01*
X78213955Y-72613635D01*
X78040797Y-73030644D01*
X78040403Y-73482175D01*
X78212833Y-73899486D01*
X78320467Y-74007308D01*
X78213955Y-74113635D01*
X78040797Y-74530644D01*
X78040403Y-74982175D01*
X78212833Y-75399486D01*
X78320467Y-75507308D01*
X78213955Y-75613635D01*
X78040797Y-76030644D01*
X78040403Y-76482175D01*
X78212833Y-76899486D01*
X78320467Y-77007308D01*
X78213955Y-77113635D01*
X78040797Y-77530644D01*
X78040403Y-77982175D01*
X78212833Y-78399486D01*
X78306562Y-78493378D01*
X78269266Y-78530674D01*
X78385493Y-78646901D01*
X78170383Y-78684048D01*
X78027488Y-79112372D01*
X78059383Y-79562775D01*
X78170383Y-79830752D01*
X78385493Y-79867899D01*
X78269266Y-79984126D01*
X78306446Y-80021306D01*
X78213955Y-80113635D01*
X78040797Y-80530644D01*
X78040403Y-80982175D01*
X78212833Y-81399486D01*
X78320467Y-81507308D01*
X78213955Y-81613635D01*
X78040797Y-82030644D01*
X78040403Y-82482175D01*
X78212833Y-82899486D01*
X78320467Y-83007308D01*
X78213955Y-83113635D01*
X78040797Y-83530644D01*
X78040403Y-83982175D01*
X78212833Y-84399486D01*
X78531835Y-84719045D01*
X78948844Y-84892203D01*
X79400375Y-84892597D01*
X79817686Y-84720167D01*
X80137245Y-84401165D01*
X80306570Y-83993387D01*
X80531835Y-84219045D01*
X80948844Y-84392203D01*
X81400375Y-84392597D01*
X81590200Y-84314163D01*
X81590200Y-84609600D01*
X81648052Y-84900439D01*
X81812799Y-85147001D01*
X86609312Y-89943514D01*
X86539000Y-90297000D01*
X86612380Y-90665907D01*
X86620460Y-90678000D01*
X86612380Y-90690093D01*
X86539000Y-91059000D01*
X86612380Y-91427907D01*
X86620460Y-91440000D01*
X86612380Y-91452093D01*
X86539000Y-91821000D01*
X86612380Y-92189907D01*
X86620460Y-92202000D01*
X86612380Y-92214093D01*
X86539000Y-92583000D01*
X86549343Y-92635000D01*
X85409853Y-92635000D01*
X85860878Y-92184763D01*
X86110316Y-91584048D01*
X86110884Y-90933605D01*
X85862494Y-90332457D01*
X85402963Y-89872122D01*
X84802248Y-89622684D01*
X84151805Y-89622116D01*
X83550657Y-89870506D01*
X83090322Y-90330037D01*
X82840884Y-90930752D01*
X82840316Y-91581195D01*
X83088706Y-92182343D01*
X83540572Y-92635000D01*
X59409853Y-92635000D01*
X59860878Y-92184763D01*
X60110316Y-91584048D01*
X60110884Y-90933605D01*
X59862494Y-90332457D01*
X59712475Y-90182175D01*
X64340403Y-90182175D01*
X64512833Y-90599486D01*
X64831835Y-90919045D01*
X65248844Y-91092203D01*
X65700375Y-91092597D01*
X66117686Y-90920167D01*
X66211578Y-90826438D01*
X66248874Y-90863734D01*
X66365101Y-90747507D01*
X66402248Y-90962617D01*
X66830572Y-91105512D01*
X67280975Y-91073617D01*
X67548952Y-90962617D01*
X67586099Y-90747507D01*
X67702326Y-90863734D01*
X67739506Y-90826554D01*
X67831835Y-90919045D01*
X68248844Y-91092203D01*
X68700375Y-91092597D01*
X69117686Y-90920167D01*
X69225508Y-90812533D01*
X69331835Y-90919045D01*
X69748844Y-91092203D01*
X70200375Y-91092597D01*
X70617686Y-90920167D01*
X70725508Y-90812533D01*
X70831835Y-90919045D01*
X71248844Y-91092203D01*
X71700375Y-91092597D01*
X72117686Y-90920167D01*
X72225508Y-90812533D01*
X72331835Y-90919045D01*
X72748844Y-91092203D01*
X73200375Y-91092597D01*
X73617686Y-90920167D01*
X73725508Y-90812533D01*
X73831835Y-90919045D01*
X74248844Y-91092203D01*
X74700375Y-91092597D01*
X75117686Y-90920167D01*
X75225508Y-90812533D01*
X75331835Y-90919045D01*
X75748844Y-91092203D01*
X76200375Y-91092597D01*
X76617686Y-90920167D01*
X76725508Y-90812533D01*
X76831835Y-90919045D01*
X77248844Y-91092203D01*
X77700375Y-91092597D01*
X78117686Y-90920167D01*
X78437245Y-90601165D01*
X78610403Y-90184156D01*
X78610797Y-89732625D01*
X78438367Y-89315314D01*
X78119365Y-88995755D01*
X77711587Y-88826430D01*
X77937245Y-88601165D01*
X78110403Y-88184156D01*
X78110797Y-87732625D01*
X77938367Y-87315314D01*
X77619365Y-86995755D01*
X77211587Y-86826430D01*
X77437245Y-86601165D01*
X77610403Y-86184156D01*
X77610797Y-85732625D01*
X77438367Y-85315314D01*
X77119365Y-84995755D01*
X76702356Y-84822597D01*
X76250825Y-84822203D01*
X75833514Y-84994633D01*
X75725692Y-85102267D01*
X75619365Y-84995755D01*
X75202356Y-84822597D01*
X74750825Y-84822203D01*
X74333514Y-84994633D01*
X74225692Y-85102267D01*
X74119365Y-84995755D01*
X73702356Y-84822597D01*
X73250825Y-84822203D01*
X72833514Y-84994633D01*
X72725692Y-85102267D01*
X72619365Y-84995755D01*
X72202356Y-84822597D01*
X71750825Y-84822203D01*
X71333514Y-84994633D01*
X71225692Y-85102267D01*
X71119365Y-84995755D01*
X70702356Y-84822597D01*
X70250825Y-84822203D01*
X69833514Y-84994633D01*
X69725692Y-85102267D01*
X69619365Y-84995755D01*
X69202356Y-84822597D01*
X68750825Y-84822203D01*
X68333514Y-84994633D01*
X68225692Y-85102267D01*
X68119365Y-84995755D01*
X67702356Y-84822597D01*
X67250825Y-84822203D01*
X66833514Y-84994633D01*
X66725692Y-85102267D01*
X66619365Y-84995755D01*
X66202356Y-84822597D01*
X65750825Y-84822203D01*
X65333514Y-84994633D01*
X65013955Y-85313635D01*
X64840797Y-85730644D01*
X64840403Y-86182175D01*
X65012833Y-86599486D01*
X65331835Y-86919045D01*
X65739613Y-87088370D01*
X65513955Y-87313635D01*
X65340797Y-87730644D01*
X65340403Y-88182175D01*
X65512833Y-88599486D01*
X65759060Y-88846142D01*
X65702356Y-88822597D01*
X65250825Y-88822203D01*
X64833514Y-88994633D01*
X64513955Y-89313635D01*
X64340797Y-89730644D01*
X64340403Y-90182175D01*
X59712475Y-90182175D01*
X59402963Y-89872122D01*
X58802248Y-89622684D01*
X58151805Y-89622116D01*
X57550657Y-89870506D01*
X57090322Y-90330037D01*
X56840884Y-90930752D01*
X56840316Y-91581195D01*
X57088706Y-92182343D01*
X57540572Y-92635000D01*
X56605251Y-92635000D01*
X56326339Y-92579521D01*
X56149176Y-92461145D01*
X56022957Y-92272244D01*
X55980400Y-92094288D01*
X55980400Y-76612372D01*
X58627488Y-76612372D01*
X58659383Y-77062775D01*
X58770383Y-77330752D01*
X58985493Y-77367899D01*
X58869266Y-77484126D01*
X58906446Y-77521306D01*
X58813955Y-77613635D01*
X58640797Y-78030644D01*
X58640403Y-78482175D01*
X58812833Y-78899486D01*
X58920467Y-79007308D01*
X58813955Y-79113635D01*
X58640797Y-79530644D01*
X58640403Y-79982175D01*
X58812833Y-80399486D01*
X58920467Y-80507308D01*
X58813955Y-80613635D01*
X58640797Y-81030644D01*
X58640403Y-81482175D01*
X58812833Y-81899486D01*
X58920467Y-82007308D01*
X58813955Y-82113635D01*
X58640797Y-82530644D01*
X58640403Y-82982175D01*
X58812833Y-83399486D01*
X58920467Y-83507308D01*
X58813955Y-83613635D01*
X58640797Y-84030644D01*
X58640403Y-84482175D01*
X58812833Y-84899486D01*
X59131835Y-85219045D01*
X59548844Y-85392203D01*
X60000375Y-85392597D01*
X60417686Y-85220167D01*
X60737245Y-84901165D01*
X60906570Y-84493387D01*
X61131835Y-84719045D01*
X61548844Y-84892203D01*
X62000375Y-84892597D01*
X62417686Y-84720167D01*
X62737245Y-84401165D01*
X62906570Y-83993387D01*
X63131835Y-84219045D01*
X63548844Y-84392203D01*
X64000375Y-84392597D01*
X64417686Y-84220167D01*
X64737245Y-83901165D01*
X64910403Y-83484156D01*
X64910797Y-83032625D01*
X64738367Y-82615314D01*
X64630733Y-82507492D01*
X64737245Y-82401165D01*
X64910403Y-81984156D01*
X64910797Y-81532625D01*
X64738367Y-81115314D01*
X64630733Y-81007492D01*
X64737245Y-80901165D01*
X64910403Y-80484156D01*
X64910797Y-80032625D01*
X64738367Y-79615314D01*
X64630733Y-79507492D01*
X64737245Y-79401165D01*
X64910403Y-78984156D01*
X64910797Y-78532625D01*
X64738367Y-78115314D01*
X64630733Y-78007492D01*
X64737245Y-77901165D01*
X64910403Y-77484156D01*
X64910797Y-77032625D01*
X64738367Y-76615314D01*
X64630733Y-76507492D01*
X64737245Y-76401165D01*
X64910403Y-75984156D01*
X64910797Y-75532625D01*
X64738367Y-75115314D01*
X64630733Y-75007492D01*
X64737245Y-74901165D01*
X64910403Y-74484156D01*
X64910797Y-74032625D01*
X64738367Y-73615314D01*
X64630733Y-73507492D01*
X64737245Y-73401165D01*
X64910403Y-72984156D01*
X64910797Y-72532625D01*
X64824884Y-72324700D01*
X66968300Y-72324700D01*
X67259139Y-72266848D01*
X67505701Y-72102101D01*
X67915454Y-71692348D01*
X68200375Y-71692597D01*
X68617686Y-71520167D01*
X68725508Y-71412533D01*
X68831835Y-71519045D01*
X69248844Y-71692203D01*
X69700375Y-71692597D01*
X70117686Y-71520167D01*
X70225508Y-71412533D01*
X70331835Y-71519045D01*
X70748844Y-71692203D01*
X71200375Y-71692597D01*
X71617686Y-71520167D01*
X71725508Y-71412533D01*
X71831835Y-71519045D01*
X72248844Y-71692203D01*
X72700375Y-71692597D01*
X73117686Y-71520167D01*
X73225508Y-71412533D01*
X73331835Y-71519045D01*
X73748844Y-71692203D01*
X74200375Y-71692597D01*
X74617686Y-71520167D01*
X74725508Y-71412533D01*
X74831835Y-71519045D01*
X75248844Y-71692203D01*
X75700375Y-71692597D01*
X76117686Y-71520167D01*
X76225508Y-71412533D01*
X76331835Y-71519045D01*
X76748844Y-71692203D01*
X77200375Y-71692597D01*
X77617686Y-71520167D01*
X77937245Y-71201165D01*
X78110403Y-70784156D01*
X78110797Y-70332625D01*
X77938367Y-69915314D01*
X77619365Y-69595755D01*
X77211587Y-69426430D01*
X77437245Y-69201165D01*
X77610403Y-68784156D01*
X77610797Y-68332625D01*
X77438367Y-67915314D01*
X77192140Y-67668658D01*
X77248844Y-67692203D01*
X77700375Y-67692597D01*
X78117686Y-67520167D01*
X78437245Y-67201165D01*
X78610403Y-66784156D01*
X78610797Y-66332625D01*
X78438367Y-65915314D01*
X78119365Y-65595755D01*
X77702356Y-65422597D01*
X77250825Y-65422203D01*
X76833514Y-65594633D01*
X76725692Y-65702267D01*
X76619365Y-65595755D01*
X76202356Y-65422597D01*
X75750825Y-65422203D01*
X75333514Y-65594633D01*
X75239622Y-65688362D01*
X75202326Y-65651066D01*
X75086099Y-65767293D01*
X75048952Y-65552183D01*
X74620628Y-65409288D01*
X74170225Y-65441183D01*
X73902248Y-65552183D01*
X73865101Y-65767293D01*
X73748874Y-65651066D01*
X73711694Y-65688246D01*
X73619365Y-65595755D01*
X73202356Y-65422597D01*
X72750825Y-65422203D01*
X72333514Y-65594633D01*
X72225692Y-65702267D01*
X72119365Y-65595755D01*
X71702356Y-65422597D01*
X71250825Y-65422203D01*
X70833514Y-65594633D01*
X70725692Y-65702267D01*
X70619365Y-65595755D01*
X70202356Y-65422597D01*
X69750825Y-65422203D01*
X69333514Y-65594633D01*
X69225692Y-65702267D01*
X69119365Y-65595755D01*
X68702356Y-65422597D01*
X68250825Y-65422203D01*
X67833514Y-65594633D01*
X67725692Y-65702267D01*
X67619365Y-65595755D01*
X67202356Y-65422597D01*
X66750825Y-65422203D01*
X66333514Y-65594633D01*
X66225692Y-65702267D01*
X66119365Y-65595755D01*
X65702356Y-65422597D01*
X65250825Y-65422203D01*
X64833514Y-65594633D01*
X64513955Y-65913635D01*
X64340797Y-66330644D01*
X64340403Y-66782175D01*
X64512833Y-67199486D01*
X64831835Y-67519045D01*
X65239613Y-67688370D01*
X65013955Y-67913635D01*
X64840797Y-68330644D01*
X64840403Y-68782175D01*
X65012833Y-69199486D01*
X65331835Y-69519045D01*
X65739613Y-69688370D01*
X65513955Y-69913635D01*
X65340797Y-70330644D01*
X65340403Y-70782175D01*
X65349710Y-70804700D01*
X63751200Y-70804700D01*
X63460361Y-70862552D01*
X63213799Y-71027299D01*
X62237199Y-72003899D01*
X62124108Y-72173153D01*
X62002356Y-72122597D01*
X61550825Y-72122203D01*
X61133514Y-72294633D01*
X60886858Y-72540860D01*
X60910403Y-72484156D01*
X60910797Y-72032625D01*
X60738367Y-71615314D01*
X60419365Y-71295755D01*
X60002356Y-71122597D01*
X59550825Y-71122203D01*
X59133514Y-71294633D01*
X58813955Y-71613635D01*
X58640797Y-72030644D01*
X58640403Y-72482175D01*
X58812833Y-72899486D01*
X58920467Y-73007308D01*
X58813955Y-73113635D01*
X58640797Y-73530644D01*
X58640403Y-73982175D01*
X58812833Y-74399486D01*
X58920467Y-74507308D01*
X58813955Y-74613635D01*
X58640797Y-75030644D01*
X58640403Y-75482175D01*
X58812833Y-75899486D01*
X58906562Y-75993378D01*
X58869266Y-76030674D01*
X58985493Y-76146901D01*
X58770383Y-76184048D01*
X58627488Y-76612372D01*
X55980400Y-76612372D01*
X55980400Y-64677921D01*
X56030168Y-64427718D01*
X56148546Y-64250552D01*
X56340930Y-64122006D01*
X56496158Y-64083000D01*
X57337791Y-64083000D01*
X57090322Y-64330037D01*
G36*
X67169348Y-89943258D02*
X67155205Y-89957400D01*
X67169348Y-89971543D01*
X66989743Y-90151148D01*
X66975600Y-90137005D01*
X66961458Y-90151148D01*
X66781853Y-89971543D01*
X66795995Y-89957400D01*
X66781853Y-89943258D01*
X66961458Y-89763653D01*
X66975600Y-89777795D01*
X66989743Y-89763653D01*
X67169348Y-89943258D01*
X67169348Y-89943258D01*
G37*
X67169348Y-89943258D02*
X67155205Y-89957400D01*
X67169348Y-89971543D01*
X66989743Y-90151148D01*
X66975600Y-90137005D01*
X66961458Y-90151148D01*
X66781853Y-89971543D01*
X66795995Y-89957400D01*
X66781853Y-89943258D01*
X66961458Y-89763653D01*
X66975600Y-89777795D01*
X66989743Y-89763653D01*
X67169348Y-89943258D01*
G36*
X74169348Y-87943258D02*
X74155205Y-87957400D01*
X74169348Y-87971543D01*
X73989743Y-88151148D01*
X73975600Y-88137005D01*
X73961458Y-88151148D01*
X73781853Y-87971543D01*
X73795995Y-87957400D01*
X73781853Y-87943258D01*
X73961458Y-87763653D01*
X73975600Y-87777795D01*
X73989743Y-87763653D01*
X74169348Y-87943258D01*
X74169348Y-87943258D01*
G37*
X74169348Y-87943258D02*
X74155205Y-87957400D01*
X74169348Y-87971543D01*
X73989743Y-88151148D01*
X73975600Y-88137005D01*
X73961458Y-88151148D01*
X73781853Y-87971543D01*
X73795995Y-87957400D01*
X73781853Y-87943258D01*
X73961458Y-87763653D01*
X73975600Y-87777795D01*
X73989743Y-87763653D01*
X74169348Y-87943258D01*
G36*
X61969348Y-79243258D02*
X61955205Y-79257400D01*
X61969348Y-79271543D01*
X61789743Y-79451148D01*
X61775600Y-79437005D01*
X61761458Y-79451148D01*
X61581853Y-79271543D01*
X61595995Y-79257400D01*
X61581853Y-79243258D01*
X61761458Y-79063653D01*
X61775600Y-79077795D01*
X61789743Y-79063653D01*
X61969348Y-79243258D01*
X61969348Y-79243258D01*
G37*
X61969348Y-79243258D02*
X61955205Y-79257400D01*
X61969348Y-79271543D01*
X61789743Y-79451148D01*
X61775600Y-79437005D01*
X61761458Y-79451148D01*
X61581853Y-79271543D01*
X61595995Y-79257400D01*
X61581853Y-79243258D01*
X61761458Y-79063653D01*
X61775600Y-79077795D01*
X61789743Y-79063653D01*
X61969348Y-79243258D01*
G36*
X59969348Y-76743258D02*
X59955205Y-76757400D01*
X59969348Y-76771543D01*
X59789743Y-76951148D01*
X59775600Y-76937005D01*
X59761458Y-76951148D01*
X59581853Y-76771543D01*
X59595995Y-76757400D01*
X59581853Y-76743258D01*
X59761458Y-76563653D01*
X59775600Y-76577795D01*
X59789743Y-76563653D01*
X59969348Y-76743258D01*
X59969348Y-76743258D01*
G37*
X59969348Y-76743258D02*
X59955205Y-76757400D01*
X59969348Y-76771543D01*
X59789743Y-76951148D01*
X59775600Y-76937005D01*
X59761458Y-76951148D01*
X59581853Y-76771543D01*
X59595995Y-76757400D01*
X59581853Y-76743258D01*
X59761458Y-76563653D01*
X59775600Y-76577795D01*
X59789743Y-76563653D01*
X59969348Y-76743258D01*
G36*
X67669348Y-68543258D02*
X67655205Y-68557400D01*
X67669348Y-68571543D01*
X67489743Y-68751148D01*
X67475600Y-68737005D01*
X67461458Y-68751148D01*
X67281853Y-68571543D01*
X67295995Y-68557400D01*
X67281853Y-68543258D01*
X67461458Y-68363653D01*
X67475600Y-68377795D01*
X67489743Y-68363653D01*
X67669348Y-68543258D01*
X67669348Y-68543258D01*
G37*
X67669348Y-68543258D02*
X67655205Y-68557400D01*
X67669348Y-68571543D01*
X67489743Y-68751148D01*
X67475600Y-68737005D01*
X67461458Y-68751148D01*
X67281853Y-68571543D01*
X67295995Y-68557400D01*
X67281853Y-68543258D01*
X67461458Y-68363653D01*
X67475600Y-68377795D01*
X67489743Y-68363653D01*
X67669348Y-68543258D01*
G36*
X74669348Y-66543258D02*
X74655205Y-66557400D01*
X74669348Y-66571543D01*
X74489743Y-66751148D01*
X74475600Y-66737005D01*
X74461458Y-66751148D01*
X74281853Y-66571543D01*
X74295995Y-66557400D01*
X74281853Y-66543258D01*
X74461458Y-66363653D01*
X74475600Y-66377795D01*
X74489743Y-66363653D01*
X74669348Y-66543258D01*
X74669348Y-66543258D01*
G37*
X74669348Y-66543258D02*
X74655205Y-66557400D01*
X74669348Y-66571543D01*
X74489743Y-66751148D01*
X74475600Y-66737005D01*
X74461458Y-66751148D01*
X74281853Y-66571543D01*
X74295995Y-66557400D01*
X74281853Y-66543258D01*
X74461458Y-66363653D01*
X74475600Y-66377795D01*
X74489743Y-66363653D01*
X74669348Y-66543258D01*
G36*
X86818344Y-74252846D02*
X86612380Y-74561093D01*
X86539000Y-74930000D01*
X86612380Y-75298907D01*
X86620460Y-75311000D01*
X86612380Y-75323093D01*
X86539000Y-75692000D01*
X86612380Y-76060907D01*
X86620460Y-76073000D01*
X86612380Y-76085093D01*
X86539000Y-76454000D01*
X86612380Y-76822907D01*
X86821349Y-77135651D01*
X87131669Y-77343000D01*
X86821349Y-77550349D01*
X86612380Y-77863093D01*
X86539000Y-78232000D01*
X86612380Y-78600907D01*
X86620460Y-78613000D01*
X86612380Y-78625093D01*
X86539000Y-78994000D01*
X86612380Y-79362907D01*
X86620460Y-79375000D01*
X86612380Y-79387093D01*
X86539000Y-79756000D01*
X86612380Y-80124907D01*
X86620460Y-80137000D01*
X86612380Y-80149093D01*
X86539000Y-80518000D01*
X86612380Y-80886907D01*
X86620460Y-80899000D01*
X86612380Y-80911093D01*
X86539000Y-81280000D01*
X86612380Y-81648907D01*
X86821349Y-81961651D01*
X87134093Y-82170620D01*
X87503000Y-82244000D01*
X87871907Y-82170620D01*
X88184651Y-81961651D01*
X88393620Y-81648907D01*
X88467000Y-81280000D01*
X88393620Y-80911093D01*
X88385540Y-80899000D01*
X88393620Y-80886907D01*
X88467000Y-80518000D01*
X88393620Y-80149093D01*
X88385540Y-80137000D01*
X88393620Y-80124907D01*
X88467000Y-79756000D01*
X88393620Y-79387093D01*
X88385540Y-79375000D01*
X88393620Y-79362907D01*
X88467000Y-78994000D01*
X88393620Y-78625093D01*
X88385540Y-78613000D01*
X88393620Y-78600907D01*
X88467000Y-78232000D01*
X88393620Y-77863093D01*
X88184651Y-77550349D01*
X87874331Y-77343000D01*
X88184651Y-77135651D01*
X88393620Y-76822907D01*
X88467000Y-76454000D01*
X88393620Y-76085093D01*
X88385540Y-76073000D01*
X88393620Y-76060907D01*
X88432241Y-75866743D01*
X89365017Y-76799519D01*
X89154510Y-76898179D01*
X88760312Y-77330053D01*
X88588042Y-77745974D01*
X88709183Y-77978000D01*
X89916000Y-77978000D01*
X89916000Y-77958000D01*
X90170000Y-77958000D01*
X90170000Y-77978000D01*
X90190000Y-77978000D01*
X90190000Y-78232000D01*
X90170000Y-78232000D01*
X90170000Y-78252000D01*
X89916000Y-78252000D01*
X89916000Y-78232000D01*
X88709183Y-78232000D01*
X88588042Y-78464026D01*
X88760312Y-78879947D01*
X89154510Y-79311821D01*
X89277228Y-79369336D01*
X88953971Y-79585330D01*
X88629115Y-80071511D01*
X88515041Y-80645000D01*
X88629115Y-81218489D01*
X88953971Y-81704670D01*
X89268752Y-81915000D01*
X88953971Y-82125330D01*
X88629115Y-82611511D01*
X88515041Y-83185000D01*
X88629115Y-83758489D01*
X88953971Y-84244670D01*
X89268752Y-84455000D01*
X88953971Y-84665330D01*
X88629115Y-85151511D01*
X88515041Y-85725000D01*
X88629115Y-86298489D01*
X88953971Y-86784670D01*
X89277228Y-87000664D01*
X89154510Y-87058179D01*
X88760312Y-87490053D01*
X88588042Y-87905974D01*
X88709183Y-88138000D01*
X89916000Y-88138000D01*
X89916000Y-88118000D01*
X90170000Y-88118000D01*
X90170000Y-88138000D01*
X90190000Y-88138000D01*
X90190000Y-88392000D01*
X90170000Y-88392000D01*
X90170000Y-88412000D01*
X89916000Y-88412000D01*
X89916000Y-88392000D01*
X88709183Y-88392000D01*
X88588042Y-88624026D01*
X88620835Y-88703200D01*
X88455622Y-88703200D01*
X88467000Y-88646000D01*
X88393620Y-88277093D01*
X88385540Y-88265000D01*
X88393620Y-88252907D01*
X88467000Y-87884000D01*
X88393620Y-87515093D01*
X88385540Y-87503000D01*
X88393620Y-87490907D01*
X88467000Y-87122000D01*
X88393620Y-86753093D01*
X88385540Y-86741000D01*
X88393620Y-86728907D01*
X88467000Y-86360000D01*
X88393620Y-85991093D01*
X88385540Y-85979000D01*
X88393620Y-85966907D01*
X88467000Y-85598000D01*
X88393620Y-85229093D01*
X88385540Y-85217000D01*
X88393620Y-85204907D01*
X88467000Y-84836000D01*
X88393620Y-84467093D01*
X88385540Y-84455000D01*
X88393620Y-84442907D01*
X88467000Y-84074000D01*
X88393620Y-83705093D01*
X88385540Y-83693000D01*
X88393620Y-83680907D01*
X88467000Y-83312000D01*
X88393620Y-82943093D01*
X88184651Y-82630349D01*
X87871907Y-82421380D01*
X87503000Y-82348000D01*
X87134093Y-82421380D01*
X86821349Y-82630349D01*
X86612380Y-82943093D01*
X86539000Y-83312000D01*
X86612380Y-83680907D01*
X86620460Y-83693000D01*
X86612380Y-83705093D01*
X86539000Y-84074000D01*
X86612380Y-84442907D01*
X86620460Y-84455000D01*
X86612380Y-84467093D01*
X86539000Y-84836000D01*
X86612380Y-85204907D01*
X86620460Y-85217000D01*
X86612380Y-85229093D01*
X86539000Y-85598000D01*
X86612380Y-85966907D01*
X86620460Y-85979000D01*
X86612380Y-85991093D01*
X86539000Y-86360000D01*
X86612380Y-86728907D01*
X86620460Y-86741000D01*
X86612380Y-86753093D01*
X86539000Y-87122000D01*
X86612380Y-87490907D01*
X86620460Y-87503000D01*
X86612380Y-87515093D01*
X86565612Y-87750210D01*
X83926723Y-85111321D01*
X84137245Y-84901165D01*
X84310403Y-84484156D01*
X84310797Y-84032625D01*
X84138367Y-83615314D01*
X84030733Y-83507492D01*
X84137245Y-83401165D01*
X84310403Y-82984156D01*
X84310797Y-82532625D01*
X84138367Y-82115314D01*
X84030733Y-82007492D01*
X84137245Y-81901165D01*
X84310403Y-81484156D01*
X84310797Y-81032625D01*
X84138367Y-80615314D01*
X84044638Y-80521422D01*
X84081934Y-80484126D01*
X83965707Y-80367899D01*
X84180817Y-80330752D01*
X84323712Y-79902428D01*
X84291817Y-79452025D01*
X84180817Y-79184048D01*
X83965707Y-79146901D01*
X84081934Y-79030674D01*
X84044754Y-78993494D01*
X84137245Y-78901165D01*
X84310403Y-78484156D01*
X84310797Y-78032625D01*
X84138367Y-77615314D01*
X84030733Y-77507492D01*
X84137245Y-77401165D01*
X84310403Y-76984156D01*
X84310797Y-76532625D01*
X84138367Y-76115314D01*
X84030733Y-76007492D01*
X84137245Y-75901165D01*
X84310403Y-75484156D01*
X84310797Y-75032625D01*
X84138367Y-74615314D01*
X84030733Y-74507492D01*
X84137245Y-74401165D01*
X84310403Y-73984156D01*
X84310797Y-73532625D01*
X84138367Y-73115314D01*
X84030733Y-73007492D01*
X84137245Y-72901165D01*
X84310403Y-72484156D01*
X84310797Y-72032625D01*
X84170218Y-71692400D01*
X84257898Y-71692400D01*
X86818344Y-74252846D01*
X86818344Y-74252846D01*
G37*
X86818344Y-74252846D02*
X86612380Y-74561093D01*
X86539000Y-74930000D01*
X86612380Y-75298907D01*
X86620460Y-75311000D01*
X86612380Y-75323093D01*
X86539000Y-75692000D01*
X86612380Y-76060907D01*
X86620460Y-76073000D01*
X86612380Y-76085093D01*
X86539000Y-76454000D01*
X86612380Y-76822907D01*
X86821349Y-77135651D01*
X87131669Y-77343000D01*
X86821349Y-77550349D01*
X86612380Y-77863093D01*
X86539000Y-78232000D01*
X86612380Y-78600907D01*
X86620460Y-78613000D01*
X86612380Y-78625093D01*
X86539000Y-78994000D01*
X86612380Y-79362907D01*
X86620460Y-79375000D01*
X86612380Y-79387093D01*
X86539000Y-79756000D01*
X86612380Y-80124907D01*
X86620460Y-80137000D01*
X86612380Y-80149093D01*
X86539000Y-80518000D01*
X86612380Y-80886907D01*
X86620460Y-80899000D01*
X86612380Y-80911093D01*
X86539000Y-81280000D01*
X86612380Y-81648907D01*
X86821349Y-81961651D01*
X87134093Y-82170620D01*
X87503000Y-82244000D01*
X87871907Y-82170620D01*
X88184651Y-81961651D01*
X88393620Y-81648907D01*
X88467000Y-81280000D01*
X88393620Y-80911093D01*
X88385540Y-80899000D01*
X88393620Y-80886907D01*
X88467000Y-80518000D01*
X88393620Y-80149093D01*
X88385540Y-80137000D01*
X88393620Y-80124907D01*
X88467000Y-79756000D01*
X88393620Y-79387093D01*
X88385540Y-79375000D01*
X88393620Y-79362907D01*
X88467000Y-78994000D01*
X88393620Y-78625093D01*
X88385540Y-78613000D01*
X88393620Y-78600907D01*
X88467000Y-78232000D01*
X88393620Y-77863093D01*
X88184651Y-77550349D01*
X87874331Y-77343000D01*
X88184651Y-77135651D01*
X88393620Y-76822907D01*
X88467000Y-76454000D01*
X88393620Y-76085093D01*
X88385540Y-76073000D01*
X88393620Y-76060907D01*
X88432241Y-75866743D01*
X89365017Y-76799519D01*
X89154510Y-76898179D01*
X88760312Y-77330053D01*
X88588042Y-77745974D01*
X88709183Y-77978000D01*
X89916000Y-77978000D01*
X89916000Y-77958000D01*
X90170000Y-77958000D01*
X90170000Y-77978000D01*
X90190000Y-77978000D01*
X90190000Y-78232000D01*
X90170000Y-78232000D01*
X90170000Y-78252000D01*
X89916000Y-78252000D01*
X89916000Y-78232000D01*
X88709183Y-78232000D01*
X88588042Y-78464026D01*
X88760312Y-78879947D01*
X89154510Y-79311821D01*
X89277228Y-79369336D01*
X88953971Y-79585330D01*
X88629115Y-80071511D01*
X88515041Y-80645000D01*
X88629115Y-81218489D01*
X88953971Y-81704670D01*
X89268752Y-81915000D01*
X88953971Y-82125330D01*
X88629115Y-82611511D01*
X88515041Y-83185000D01*
X88629115Y-83758489D01*
X88953971Y-84244670D01*
X89268752Y-84455000D01*
X88953971Y-84665330D01*
X88629115Y-85151511D01*
X88515041Y-85725000D01*
X88629115Y-86298489D01*
X88953971Y-86784670D01*
X89277228Y-87000664D01*
X89154510Y-87058179D01*
X88760312Y-87490053D01*
X88588042Y-87905974D01*
X88709183Y-88138000D01*
X89916000Y-88138000D01*
X89916000Y-88118000D01*
X90170000Y-88118000D01*
X90170000Y-88138000D01*
X90190000Y-88138000D01*
X90190000Y-88392000D01*
X90170000Y-88392000D01*
X90170000Y-88412000D01*
X89916000Y-88412000D01*
X89916000Y-88392000D01*
X88709183Y-88392000D01*
X88588042Y-88624026D01*
X88620835Y-88703200D01*
X88455622Y-88703200D01*
X88467000Y-88646000D01*
X88393620Y-88277093D01*
X88385540Y-88265000D01*
X88393620Y-88252907D01*
X88467000Y-87884000D01*
X88393620Y-87515093D01*
X88385540Y-87503000D01*
X88393620Y-87490907D01*
X88467000Y-87122000D01*
X88393620Y-86753093D01*
X88385540Y-86741000D01*
X88393620Y-86728907D01*
X88467000Y-86360000D01*
X88393620Y-85991093D01*
X88385540Y-85979000D01*
X88393620Y-85966907D01*
X88467000Y-85598000D01*
X88393620Y-85229093D01*
X88385540Y-85217000D01*
X88393620Y-85204907D01*
X88467000Y-84836000D01*
X88393620Y-84467093D01*
X88385540Y-84455000D01*
X88393620Y-84442907D01*
X88467000Y-84074000D01*
X88393620Y-83705093D01*
X88385540Y-83693000D01*
X88393620Y-83680907D01*
X88467000Y-83312000D01*
X88393620Y-82943093D01*
X88184651Y-82630349D01*
X87871907Y-82421380D01*
X87503000Y-82348000D01*
X87134093Y-82421380D01*
X86821349Y-82630349D01*
X86612380Y-82943093D01*
X86539000Y-83312000D01*
X86612380Y-83680907D01*
X86620460Y-83693000D01*
X86612380Y-83705093D01*
X86539000Y-84074000D01*
X86612380Y-84442907D01*
X86620460Y-84455000D01*
X86612380Y-84467093D01*
X86539000Y-84836000D01*
X86612380Y-85204907D01*
X86620460Y-85217000D01*
X86612380Y-85229093D01*
X86539000Y-85598000D01*
X86612380Y-85966907D01*
X86620460Y-85979000D01*
X86612380Y-85991093D01*
X86539000Y-86360000D01*
X86612380Y-86728907D01*
X86620460Y-86741000D01*
X86612380Y-86753093D01*
X86539000Y-87122000D01*
X86612380Y-87490907D01*
X86620460Y-87503000D01*
X86612380Y-87515093D01*
X86565612Y-87750210D01*
X83926723Y-85111321D01*
X84137245Y-84901165D01*
X84310403Y-84484156D01*
X84310797Y-84032625D01*
X84138367Y-83615314D01*
X84030733Y-83507492D01*
X84137245Y-83401165D01*
X84310403Y-82984156D01*
X84310797Y-82532625D01*
X84138367Y-82115314D01*
X84030733Y-82007492D01*
X84137245Y-81901165D01*
X84310403Y-81484156D01*
X84310797Y-81032625D01*
X84138367Y-80615314D01*
X84044638Y-80521422D01*
X84081934Y-80484126D01*
X83965707Y-80367899D01*
X84180817Y-80330752D01*
X84323712Y-79902428D01*
X84291817Y-79452025D01*
X84180817Y-79184048D01*
X83965707Y-79146901D01*
X84081934Y-79030674D01*
X84044754Y-78993494D01*
X84137245Y-78901165D01*
X84310403Y-78484156D01*
X84310797Y-78032625D01*
X84138367Y-77615314D01*
X84030733Y-77507492D01*
X84137245Y-77401165D01*
X84310403Y-76984156D01*
X84310797Y-76532625D01*
X84138367Y-76115314D01*
X84030733Y-76007492D01*
X84137245Y-75901165D01*
X84310403Y-75484156D01*
X84310797Y-75032625D01*
X84138367Y-74615314D01*
X84030733Y-74507492D01*
X84137245Y-74401165D01*
X84310403Y-73984156D01*
X84310797Y-73532625D01*
X84138367Y-73115314D01*
X84030733Y-73007492D01*
X84137245Y-72901165D01*
X84310403Y-72484156D01*
X84310797Y-72032625D01*
X84170218Y-71692400D01*
X84257898Y-71692400D01*
X86818344Y-74252846D01*
G36*
X83369348Y-79743258D02*
X83355205Y-79757400D01*
X83369348Y-79771543D01*
X83189743Y-79951148D01*
X83175600Y-79937005D01*
X83161458Y-79951148D01*
X83110200Y-79899890D01*
X83110200Y-79614910D01*
X83161458Y-79563653D01*
X83175600Y-79577795D01*
X83189743Y-79563653D01*
X83369348Y-79743258D01*
X83369348Y-79743258D01*
G37*
X83369348Y-79743258D02*
X83355205Y-79757400D01*
X83369348Y-79771543D01*
X83189743Y-79951148D01*
X83175600Y-79937005D01*
X83161458Y-79951148D01*
X83110200Y-79899890D01*
X83110200Y-79614910D01*
X83161458Y-79563653D01*
X83175600Y-79577795D01*
X83189743Y-79563653D01*
X83369348Y-79743258D01*
G36*
X79369348Y-79243258D02*
X79355205Y-79257400D01*
X79369348Y-79271543D01*
X79189743Y-79451148D01*
X79175600Y-79437005D01*
X79161458Y-79451148D01*
X78981853Y-79271543D01*
X78995995Y-79257400D01*
X78981853Y-79243258D01*
X79161458Y-79063653D01*
X79175600Y-79077795D01*
X79189743Y-79063653D01*
X79369348Y-79243258D01*
X79369348Y-79243258D01*
G37*
X79369348Y-79243258D02*
X79355205Y-79257400D01*
X79369348Y-79271543D01*
X79189743Y-79451148D01*
X79175600Y-79437005D01*
X79161458Y-79451148D01*
X78981853Y-79271543D01*
X78995995Y-79257400D01*
X78981853Y-79243258D01*
X79161458Y-79063653D01*
X79175600Y-79077795D01*
X79189743Y-79063653D01*
X79369348Y-79243258D01*
M02*
